<?xml version="1.0" encoding="utf-8"?>
<!-- Generator: Adobe Illustrator 15.0.0, SVG Export Plug-In  -->
<!DOCTYPE svg PUBLIC "-//W3C//DTD SVG 1.1 Tiny//EN" "http://www.w3.org/Graphics/SVG/1.1/DTD/svg11-tiny.dtd" [
	<!ENTITY ns_flows "http://ns.adobe.com/Flows/1.0/">
]>
<svg version="1.1" baseProfile="tiny"
	 xmlns="http://www.w3.org/2000/svg" xmlns:xlink="http://www.w3.org/1999/xlink" xmlns:a="http://ns.adobe.com/AdobeSVGViewerExtensions/3.0/"
	 x="0px" y="0px" width="628px" height="672px" viewBox="-14.94 17.23 628 672" overflow="visible" xml:space="preserve">
<defs>
</defs>
<g>
	<g>
		<path d="M397.94,342.73l-16.68-30.48l7.48-32.78l48.89,59.81L397.94,342.73z M393.53,277.74l69.98,87.42l45.44-4.03l-93.03-83.68
			L393.53,277.74z M526.77,295.57l-113.3-56.94v28.18l130.56,120.2C545,356.67,538.85,317.24,526.77,295.57 M413.46,232.11
			l112.73,56.75c-2.72-18.56-8.85-36.54-18.98-54.83l-104.48-29.52L413.46,232.11z M400.43,198.37l105.06,28.76
			c-4.96-14.85-12.42-29.67-21.47-44.48l-95.09-3.07L400.43,198.37z M386.24,174.98l92.5,2.3c-6.86-12.8-16.26-25.56-29.91-36.19
			l-81,7.81L386.24,174.98z M364,143.93l82.25-6.9c-7.02-15.02-22.96-29.52-38.92-38.73l-64.42,26.07L364,143.93z M337.16,121.11
			l65.57-26.27c-8.97-8.99-20.71-16.87-34.89-23.77l-60.2,39.88L337.16,121.11z M108.55,287.44c-0.41,3.68-0.83,7.36-1.24,11.05
			c7.77-0.97,15.66-0.08,23.02,2.58c0.47-4.17,0.94-8.35,1.41-12.52c-7.16-2.6-14.83-3.49-22.39-2.65l3.32-6.44l-0.84-1.35
			c5.93-0.63,11.93,0.08,17.54,2.12c0.37-3.31,0.74-6.62,1.12-9.93c-5.83-2.11-12.09-2.81-18.25-2.05c-0.33,2.97-0.67,5.94-1,8.91
			l-4.31-6.9l-31.63,36.81c-2.44,15.96-1.73,30.62,0,44.86L108.55,287.44z M103.09,255.76l-16.88,11.06
			c-5.85,11.27-8.7,22.51-10.93,33.74l30.48-33.74L103.09,255.76z M302.27,109.8l60.58-40.64c-11.73-8.17-25.96-12.36-42.18-13.42
			c0,0-39.49,47.93-40.64,50.23L302.27,109.8z M255.73,104.62l-4.88,28.74l-17.48,1.27l-0.02,1.83l22.98,0.32l5.25-32.16h13.27
			l38.53-48.89c-10.52-1.93-21.4-2.67-33.36,0l-27.61,48.89H255.73z M189.1,119.79l8.45,23.64l-14.62,9.67l0.88,1.61l20.2-10.98
			l-9.64-26.42l1.14-0.54V85.07c-7.92,3.31-15.83,9.13-23.61,15.15l1.73,26.84L189.1,119.79z M245.91,106.93l29.14-51.19
			l-31.06,8.05l-11.5,46.01L245.91,106.93z M161.19,139.09l13.04,18.24l-11.42,13.3l1.29,1.3l16.42-16.08l-15.4-21.27l2.96-3.4
			L165,106.93c-9.25,9.08-17.9,18.83-24.54,30.87l6.52,17.64L161.19,139.09z M106.62,248.99l0.6-7.46l23.06,3.93l1.26,17.48
			l1.83,0.02l2.58-22.71l-28.26-4.55l0.87-10.86l-14.9,7.46c-3.97,9.76-8.06,28.7-7.46,30.49L106.62,248.99z M192.5,137.41
			c0-5.87-4.28-10.63-9.56-10.63c-5.28,0-9.56,4.76-9.56,10.63c0,5.87,4.28,10.63,9.56,10.63
			C188.22,148.03,192.5,143.28,192.5,137.41 M158.41,148.62c-4.81,0-8.7,4.33-8.7,9.67c0,5.34,3.9,9.67,8.7,9.67
			c4.81,0,8.7-4.33,8.7-9.67C167.11,152.95,163.22,148.62,158.41,148.62 M146.59,191.24c0-5.08-3.7-9.19-8.27-9.19
			c-4.57,0-8.27,4.11-8.27,9.19c0,5.08,3.7,9.19,8.27,9.19C142.89,200.43,146.59,196.31,146.59,191.24 M132.28,223.2
			c0-5.02-3.66-9.09-8.18-9.09c-4.52,0-8.18,4.07-8.18,9.09s3.66,9.09,8.18,9.09C128.62,232.29,132.28,228.22,132.28,223.2
			 M111.49,255.74c0,4.93,3.59,8.93,8.03,8.93c4.44,0,8.03-4,8.03-8.93c0-4.93-3.6-8.92-8.03-8.92
			C115.09,246.82,111.49,250.81,111.49,255.74 M220.26,126.19c0-5.54-4.04-10.03-9.03-10.03c-4.99,0-9.03,4.49-9.03,10.03
			s4.04,10.03,9.03,10.03C216.22,136.23,220.26,131.73,220.26,126.19 M240.47,132.33c5.57,0,10.09-5.02,10.09-11.21
			c0-6.19-4.52-11.21-10.09-11.21c-5.57,0-10.09,5.02-10.09,11.21C230.38,127.31,234.9,132.33,240.47,132.33 M271.48,132.33
			c5.57,0,10.09-5.02,10.09-11.21c0-6.19-4.52-11.21-10.09-11.21c-5.57,0-10.09,5.02-10.09,11.21
			C261.39,127.31,265.91,132.33,271.48,132.33 M306.02,142.39c5.57,0,10.09-5.02,10.09-11.22c0-6.19-4.52-11.21-10.09-11.21
			s-10.09,5.02-10.09,11.21C295.93,137.37,300.45,142.39,306.02,142.39 M340.23,162.71c5.57,0,10.09-5.02,10.09-11.22
			c0-6.19-4.52-11.22-10.09-11.22c-5.57,0-10.09,5.02-10.09,11.22C330.14,157.69,334.66,162.71,340.23,162.71 M355.18,182.56
			c0,6.19,4.52,11.22,10.09,11.22s10.09-5.02,10.09-11.22c0-6.19-4.52-11.21-10.09-11.21S355.18,176.36,355.18,182.56
			 M367.84,214.57c0,6.19,4.52,11.21,10.09,11.21c5.57,0,10.09-5.02,10.09-11.21s-4.52-11.22-10.09-11.22
			C372.36,203.36,367.84,208.38,367.84,214.57 M377.93,249.85c0,6.19,4.52,11.22,10.09,11.22c5.57,0,10.09-5.02,10.09-11.22
			c0-6.19-4.52-11.21-10.09-11.21C382.45,238.63,377.93,243.65,377.93,249.85 M191.46,262.79c0,0-23.77,28.76-17.01,40.26
			c-0.14-8.44,17.58-27.03,17.58-27.03l10.95,0.11l-1.55,12.74l8.05-0.19v-12.73c3.7,0.29,7.34-0.08,10.93-1.09l0.28,0.17
			l1.51,15.39l-26.33,1.53c0,0-10.16,8.82-19.36,20.9c7.37,0.62,14.74,0.88,22.1,0.81l-22.1,18.46c0.32,3.73,3.7,4.76,10.07,3.16
			l17.64-21.75c5.65-0.19,11.31-0.57,16.96-1.14l34.98,26.06c8.46,2.15,9.27-0.68,6.62-5.75c0,0-25.5-15.73-34.92-21.07
			c6.53-0.83,13.05-1.89,19.58-3.18l-12.62-3.83l-42.41,0.57c-0.47-2.22,3-6.49,6.45-7.43c8.65,3.1,15.48,2.14,24.99-1.58
			l44.29,13.61l4.41-1.82l-42.91-14.98l-3.07-14.7c1.9-0.79,11.81-4.77,20.09-5.11c9.2-0.38,21.09,10.89,26.84,29.91
			c1.45-0.58,1.61-1.44,1.44-2.68c-2.58-18.67-18.87-30.34-27.51-33.41l-4.6-5.9c-2.47-0.86-6.88-1.15-16.1,0l-6.23,5.9
			c-6.28,1.57-12.03,1.93-16.77,0l-3.07-4.17C196.97,262.08,193.62,261.77,191.46,262.79 M257.02,211.26
			c12.16-7.68,25.11-11.69,38.34-14.42l-3.05-3.31c-12.86,1.05-27.77,6.02-40.66,13.42h-12.27l-10.35,10.98
			c0,0,12.65,10.35,14.64,11.12C244.6,221.26,249.42,215.52,257.02,211.26 M201.43,239.5l-2.64-11.69
			c-11.25-0.16-23.59,1.02-38.39,5.18v0.86v4.79C174.3,240.42,187.98,240.72,201.43,239.5 M254.34,223.1l-2.3,12.66
			c17.43-0.98,34.54-3.98,51.38-8.63l-3.29-3.93C285.08,221.07,269.83,220.88,254.34,223.1 M367.6,308.12v-19.05
			c-11.5-2.76-23.5-2.76-35,0v19.05C344.1,305.36,356.09,305.36,367.6,308.12 M330.54,341.39c12.61-3.03,25.75-3.03,38.35,0v-20.87
			c-12.6-3.03-25.75-3.03-38.35,0V341.39z M328.48,374.67c13.71-3.29,28-3.29,41.71,0v-22.7c-13.71-3.29-28-3.29-41.71,0V374.67z
			 M326.41,407.94c14.81-3.56,30.26-3.56,45.07,0v-24.53c-14.81-3.56-30.25-3.56-45.07,0V407.94z M324.35,441.21
			c15.92-3.82,32.51-3.82,48.42,0v-26.35c-15.92-3.82-32.51-3.82-48.42,0V441.21z M322.29,474.48c17.02-4.09,34.76-4.09,51.78,0
			V446.3c-17.02-4.09-34.76-4.09-51.78,0V474.48z M320.23,477.75v30.01c1.46-0.35,2.93-0.66,4.4-0.96l-0.84,12.88h6.28l0.48-13.92
			c0.03,0,0.05-0.01,0.08-0.01h5.67l-0.63,13.93h6.62l0.88-13.12h6l-0.42,13.58l6.13,0.18l1.99-13.75l7.1,0.14l-1.2,14.65l5.4,0.9
			l2.5-15.5c1.58,0.31,3.15,0.64,4.71,1.02v-30.01C357.24,473.4,338.35,473.4,320.23,477.75 M130.11,311.53
			c-8.14-2.95-16.87-3.93-25.46-2.86c-0.52,4.62-1.04,9.24-1.56,13.86c8.59-1.07,17.32-0.09,25.46,2.86
			C129.07,320.77,129.59,316.15,130.11,311.53 M100.58,329.49c-0.57,5.06-1.14,10.12-1.71,15.19c9.42-1.17,18.98-0.1,27.9,3.13
			c0.57-5.06,1.14-10.12,1.71-15.18C119.56,329.39,109.99,328.32,100.58,329.49 M96.51,354.09c-0.62,5.5-1.24,11.01-1.85,16.51
			c10.24-1.27,20.64-0.11,30.34,3.41c0.62-5.5,1.24-11.01,1.86-16.51C117.15,353.98,106.75,352.82,96.51,354.09 M92.44,376.8
			c-0.67,5.95-1.34,11.89-2,17.84c11.07-1.38,22.3-0.12,32.79,3.68c0.67-5.95,1.33-11.9,2-17.84
			C114.74,376.68,103.5,375.42,92.44,376.8 M88.37,399.51c-0.72,6.39-1.44,12.78-2.15,19.17c11.89-1.48,23.96-0.12,35.23,3.96
			c0.72-6.39,1.44-12.78,2.15-19.17C112.33,399.38,100.26,398.03,88.37,399.51 M84.3,422.22c-0.77,6.83-1.54,13.67-2.3,20.5
			c12.71-1.58,25.62-0.13,37.67,4.23c0.77-6.83,1.54-13.67,2.3-20.5C109.92,422.08,97.02,420.64,84.3,422.22 M80.23,444.93
			c-0.82,7.28-1.63,14.55-2.45,21.83c0.28-0.04,0.57-0.06,0.85-0.09l-0.85,16.09h5.12l0.39-13.93h4.69l-0.51,13.93h5.4l0.71-13.12
			h4.9l-0.34,13.58l5,0.18l1.62-13.75l5.79,0.14l-0.98,14.65l4.4,0.9l1.94-14.74c0.66,0.22,1.32,0.45,1.97,0.68
			c0.82-7.28,1.64-14.55,2.45-21.83C107.52,444.78,93.77,443.24,80.23,444.93 M442.22,349.44l-39.36,4.15l6.58,80.68l-30.29-105.34
			l-1.34,0.96l7.11,151.35l-1.36,9.88l22.43,30.48l49.46-152.99L442.22,349.44z M329.11,281.77l-15.15,201.11l-15.91-11.62
			l10.84-95.05c-17.11,17.9-45.35,39.69-54.15,46.35c-6.55,15.62-21.77,26.57-39.51,26.57c-17.06,0-31.8-10.13-38.73-24.8v0
			l-30.28-45.59l-5,90.33l-14.95,2.19l19.6-173.08c-3.21-4.61-15.86-23.44-13.72-30.48c2.44-8.05,14.44-29.07,14.44-29.07
			s-1.73-22.81,16.69-29.33c6.78-10.83,18.44-26.6,33.65-32.02c16.68-5.94,22.05-5.56,45.44-5.94c43.39-0.71,47.83,4.41,57.23,10.35
			c9.39,5.94,38.14,63.89,38.15,70.36c0,1.77-0.28,3.46-0.77,5.1c7.23-1.47,14.63-1.77,21.93-0.85c-0.51-4.8-1.52-11.91-3.5-20.23
			l-16.7,5.04l-2.22-4.79l17.1-7.22c-1.52-5.31-3.43-10.94-5.83-16.66l-16.09,10.67l-1.85-3.15l14.54-13.9l0.81,0.61
			c-0.55-1.16-1.12-2.32-1.72-3.48c-2.04-3.98-4.25-7.74-6.59-11.3l-15.41,10.71l-1.98-3.67l13.37-12.78
			c-4-5.33-8.39-10.12-13.14-14.4l-11.47,11.4l-3.27-2.49l9.38-13.39c-5.54-4.29-11.52-7.94-17.96-10.95l-4.83,15.63l-3.79-1.88
			l2.08-16.51c-4.44-1.7-9.07-3.11-13.89-4.25l-4.45,18.15l-4.17-0.94l1.49-18.66c-5.47-0.95-11.18-1.56-17.1-1.83l-2.42,19.41
			l-4.23,0.22l-0.6-19.8c-1.03,0-2.05,0-3.09,0.01c-5.78,0.1-11.37,0.62-16.77,1.53l-0.48,18.72l-4.46,0.39l-2.06-17.68
			c-6.34,1.54-12.39,3.67-18.14,6.4l-0.23,16.34l-3.17,0.38l-2.84-13.46c-6,3.43-11.64,7.55-16.92,12.35l4.62,11.53l-2.75,3
			l-6.56-9.97c-2.97,3.07-5.83,6.37-8.54,9.91c-2.22,2.9-4.31,5.83-6.26,8.76l6.91,8.53l-2.01,2.7l-7.76-6.78
			c-10.45,16.79-16.38,32.8-17.34,40.25l-4.29-0.55c0.61-4.71,2.26-11.96,5.34-20.49l0.35-2.57l-20.48-8.13l-3.7,10.15l-17.4,9.11
			c3.22-13.5,9.06-26.26,16.25-38.63l9.4,6.9l-2.58,7.09l21.18,8.48c2.84-6.6,6.48-13.67,11.07-20.73l1.17-3.95l-16.02-11.73
			l-12.9,18.16l-8.44-8.82c3.53-13.21,11.04-25.24,18.79-37.19l10.35,16.87l-4.42,6.23l17.14,12.39c0.06-0.08,0.12-0.16,0.18-0.24
			c20.69-26.97,49.62-41.54,83.67-42.15c63.12-1.1,93.82,32.71,108.45,61.28c12.12,23.68,15.4,47.2,16.29,57.33
			c0.11,0.03,0.21,0.04,0.32,0.07v17.22c-10.4-2.5-21.24-2.5-31.64,0v-12.59c-7.01,11.53-23.76,19.03-25.88,22.96
			c-2.68,4.98,2.4,25.59,3.16,35.95c0.77,10.35-16.97,30.77-25.31,37.96c-5.16,4.45-24.9,23.03-37.61,19.35
			c2.99,3.88,5.35,8.29,6.92,13.06c7.31-4.77,37.79-25.73,57.86-58.42l3.98-34.94L329.11,281.77z M184.96,374.43
			c-4.02,0.79-8.03,0.37-11.9-2.36c-12.07-8.52-23.48-22.46-25.1-24.48l-0.2,3.66l28.08,36.79
			C178.01,382.92,181.12,378.31,184.96,374.43 M150.56,296.91v42.56c0,0,9.65,11.89,22.68,21.09c13.04,9.2,26.27-11.12,38.16-12.27
			c11.89-1.15,24.16,13.04,37.89,11.12c13.73-1.92,27.58-4.46,32.33-10.5c4.8-6.11,23.34-27.46,22.57-37.82
			c-0.77-10.35-4.98-22.62-2.3-27.61c2.68-4.98,10.64-8.82,19.84-16.11c9.2-7.29,10.26-10.44,9.49-16.87
			c-0.77-6.42-8.54-21.44-12.65-29c-4.42-8.12-18.36-29.98-24.35-35.08c-5.51-4.69-23.81-7.1-44.65-6.94
			c-4.96,7.51-13.59,20.45-17.79,25.97c-0.34,0.45-0.78,0.67-1.4,0.57c0,0.77,7.05-18.52,9.92-26.42
			c-4.91,0.12-8.87,0.37-12.25,0.69l-8.79,35.5h-1.32c0,0,0.11-24.05,0.06-34.15c-3.49,0.59-6.69,1.22-10.55,1.74l-2.71,25.11
			l-1.4-1.05l-4.73-23.15c-9.93,1.37-18.49,10.21-25.1,19.17l35.96,13.28l-4.03,3.16l-37.35-8.54c-1.4,2.17-2.65,4.19-3.75,5.95
			c-11.93,5.37-10.47,25.14-10.47,25.14s-12.13,15.31-14.57,23.37C136.87,273.91,150.56,296.91,150.56,296.91 M172.42,408.72
			c-0.08-1.09-0.13-2.19-0.13-3.3c0-3.14,0.33-6.2,0.95-9.16v0l-25.9-37.68l-0.51,9.24L172.42,408.72z M249.58,405.42
			c0-20.54-16.36-37.19-36.54-37.19c-20.18,0-36.54,16.65-36.54,37.19c0,20.54,16.36,37.19,36.54,37.19
			C233.23,442.62,249.58,425.97,249.58,405.42 M310.42,362.84l1.29-11.27c-14.79,20.22-45.34,43.32-53.74,49.49
			c0.14,1.44,0.22,2.89,0.22,4.36c0,2.27-0.17,4.51-0.5,6.69C265.33,405.89,294.95,379.88,310.42,362.84 M96.42,321.45L54,482.88
			l12.08,8.24l32.98-174.27L96.42,321.45z M158.39,250.14c7.19,1.44,28.18-0.58,36.52-5.61c-8.63,2.44-32.78,1.58-35.08,1.58
			C159.83,246.11,151.2,248.7,158.39,250.14 M298.05,231.44c-11.31,8.05-38.15,9.66-38.15,9.66c0.48,1.08,1.67,1.22,2.73,1.39
			c18.42,2.9,34.08-3.86,34.08-3.86S303.42,234.8,298.05,231.44 M183.12,255.76c-1.15,1.28-23.29,27.73-23.29,27.73
			c0.03,1.88-0.42,3.66,2.78,1.51l20.51-27.03V255.76z M251.66,250.52l0.38,2.2l25.69,30.77c4.6,1.91,5.97,0.15,4.88-4.39
			L251.66,250.52z M83.21,493.77l-9.15,8.45l11.64,85.03l23.23-85.03l-2.05-6.28L83.21,493.77z M327.55,526.69l-11.6,12.18
			l23.04,113.58l29.17-109.38l-8.54-15.5L327.55,526.69z M302.08,395.93c-9.2,24.23-56.47,136.93-99.87,166.31
			c-48.42-68.18-54.73-144.74-55.32-160.78c-0.08-2,0.86-2.56,0.86-2.56s22.24,57.52,67.48,56.37
			c45.24-1.15,85.89-64.03,85.89-64.03S303.2,392.97,302.08,395.93 M216.26,535.69c-12.43,4.03-20.09-1.35-20.09-1.35
			s-0.8,0.97,0.73,4.26c6.51,6.28,18.45,1.77,18.45,1.77S216.41,540.93,216.26,535.69 M231.61,512.92
			c-32.68,13.67-50.5-3.41-50.5-3.41s-2.02,2.44,1.83,10.72c16.35,15.78,46.37,4.45,46.37,4.45S231.99,526.09,231.61,512.92
			 M249.42,482.53c-55.28,26.98-80.65-5.44-80.65-5.44s0.03,9.48,2.92,17.11c26.11,25.19,74.04,7.1,74.04,7.1
			S249.48,497.59,249.42,482.53 M262.78,451.05c-72.47,36.81-100.65-6.79-100.65-6.79s-1.06,10.48,3.64,21.36
			c32.59,31.44,92.41,8.86,92.41,8.86S263.53,477.3,262.78,451.05 M336.47,129.35l-4.87-3.16l-20.59,24.06l-15.65-7.89l-0.96,1.56
			L313.96,156L336.47,129.35z M298.06,110.99l-5.58-1.62l-12.75,28.99l-17.26-3.02l-0.47,1.77l22.21,5.9L298.06,110.99z
			 M223.32,135.4l-16.78,5.05l0.38,1.79l22.5-4.7l-1.73-29.85l10.93-41.99c-12.55,4.64-25.09,9.99-37.58,17.06v32.02l20.93-5.57
			L223.32,135.4z M371.29,159.92l-4.01-4.2l-25.59,18.65l-13.4-11.29l-1.29,1.3l16.23,16.27L371.29,159.92z M389.83,195.19
			l-2.83-5.07l-29.45,11.64l-10.14-14.29l-1.58,0.93l11.64,19.82L389.83,195.19z M402.2,233.39l-1.81-5.52l-31.13,5.81l-7.23-15.96
			l-1.73,0.62l7.64,21.68L402.2,233.39z M408.01,267.87l-31.66,0.71l-4.56-16.92l-1.8,0.33l4.04,22.63l34.87-1L408.01,267.87z
			 M463.98,372.04c-1.25,4.6-4,12.68-4.79,12.68c0,0,17.6,6.52,29.04,14.19c4.6-5.37,18.02-30.29,18.02-30.29
			S477.59,372.64,463.98,372.04 M449.67,415.09l24.76,23.69l9.59-33.36l-30.01-1.04L449.67,415.09z M430.67,463.3l28.42,27.82
			l9.58-39.3l-32.84-2.68L430.67,463.3z M413.46,521.6l33.36,18.91l8.63-37.31l-35.95,0.29L413.46,521.6z M303.42,214.57
			c-1.69-5.89-3.67-11.56-7.29-16.06c0,0.33-11.12,4.84-11.12,4.84C293.51,204.87,299.1,209.12,303.42,214.57"/>
	</g>
	<line fill="none" stroke="#000000" stroke-width="0.3" x1="54" y1="0" x2="54" y2="36"/>
	<line fill="none" stroke="#000000" stroke-width="0.3" x1="0" y1="54" x2="36" y2="54"/>
	<line fill="none" stroke="#000000" stroke-width="0.3" x1="0" y1="652.45" x2="36" y2="652.45"/>
	<line fill="none" stroke="#000000" stroke-width="0.3" x1="54" y1="706.45" x2="54" y2="670.45"/>
	<line fill="none" stroke="#000000" stroke-width="0.3" x1="544.12" y1="0" x2="544.12" y2="36"/>
	<line fill="none" stroke="#000000" stroke-width="0.3" x1="598.12" y1="54" x2="562.12" y2="54"/>
	<line fill="none" stroke="#000000" stroke-width="0.3" x1="598.12" y1="652.45" x2="562.12" y2="652.45"/>
	<line fill="none" stroke="#000000" stroke-width="0.3" x1="544.12" y1="706.45" x2="544.12" y2="670.45"/>
</g>
</svg>
