<?xml version="1.0" encoding="utf-8"?>
<!-- Generator: Adobe Illustrator 15.0.0, SVG Export Plug-In  -->
<!DOCTYPE svg PUBLIC "-//W3C//DTD SVG 1.1 Tiny//EN" "http://www.w3.org/Graphics/SVG/1.1/DTD/svg11-tiny.dtd" [
	<!ENTITY ns_flows "http://ns.adobe.com/Flows/1.0/">
]>
<svg version="1.1" baseProfile="tiny"
	 xmlns="http://www.w3.org/2000/svg" xmlns:xlink="http://www.w3.org/1999/xlink" xmlns:a="http://ns.adobe.com/AdobeSVGViewerExtensions/3.0/"
	 x="0px" y="0px" width="600px" height="600px" viewBox="-57.22 -1.32 600 600" overflow="visible" xml:space="preserve">
<defs>
</defs>
<path d="M194.32,167.09c-5.8,0.96-10.09,5.11-13.72,10.63c4.92-34.44,30.65-54.98,67.95-66.62c0,0-11.73-1.55-30.32,0.66
	c38.51-14.17,79.46-26.12,91.05-39.84c12.56-14.89-48.84-25.23-68.62-20.03c9.15-8.15,0.74-16.27,0.74-16.27
	c72.42-0.57,102.5,17.25,92.51,36.05c-16.37,30.8-71.19,46.74-96.94,72.26c-26.47,26.24-25.38,69.43,6.2,98.87
	C191.67,221.99,194.32,167.09,194.32,167.09 M374.65,130.28c0,0-16.3-23.83-67.39-13.26c0,0-11.24,10.46-10.89,25.29
	c38.51-5.75,93.63,32.76,105.58,52.68c-3.1-20.36-31.43-45.6-31.43-45.6s16.6-0.44,34.75,15.27c-9.81-22.36-40.13-32.82-61.54-39.84
	C352.61,122.98,363.04,125.44,374.65,130.28 M352.81,185.02l19.92,26.12l-4.65-30.54c0,0,14.73,1.71,16.46,1.77
	c-25.44-27.16-61.39-34.79-66.92-37.41c3.51,4.33,20.58,18.81,20.58,18.81l-14.76,7.08l19.33,4.18l-5.46,13.98L352.81,185.02z
	 M175.29,240.57c17.93-38.06-19.63-86.61-19.63-86.61l10.33,2.21c-6.75-8.34-12.54-14.76-27.89-20.51
	c-23.61-8.41-60.25-7.08-77.96,20.14c-0.52,4.13-1.18,12.95,2.11,19.55c1.92-12.69,15.68-31,23.61-32.15
	c0,0,41.76,21.37,41.76,58.71c12.25-22.73-6.49-55.48-6.49-55.48S185.02,187.88,175.29,240.57 M111.1,129.02
	c39.84-0.71,60.65,23.24,68.18,33.79c6.34-18.74,17.3-29.01,29.22-37.04C192.55,115.74,164,110.65,164,110.65
	c3.05,5.58,9.22,16.39,7.01,21.69c0,0-26.27-23.54-37.33-28.26c4.72,7.67,3.66,17.86,3.66,17.86s-25.35-16.09-38.93-23.32
	c8.71,14.9,8.04,22.87,8.04,22.87c-11.69-7.49-26.36-12.74-43.75-15.94c7.43,4.99,15.13,9.85,18.74,16.6
	c-20.2-1.18-40.23,2.41-60.21,7.75c14.65-0.54,29.47-1.43,42.19,2.17c-15.03,2.92-49.14,10.05-59.9,16.57
	c4.56-0.12,27.18-3.66,40.21-3.38C33.54,150.47,9.86,163.49,0,176.74c5.01-2.04,26.23-14.19,41.63-20.23
	c-5.36,5.79-15.69,18.19-19.43,31.29c5.38-9.2,26.38-29.23,36.33-31.99C65.94,139.2,86.3,129.46,111.1,129.02 M264.27,217.12
	c0,0,38.66,11.95,57.11,8.41c-79.98-30.55-55.78-78.06-55.78-78.06s9.74,13.87,19.04,18.74c-5.09-12.62,3.32-38.52,24.57-61.54
	c-38.51,20.14-82.71,42.36-83.89,81.01c-0.55,17.84,1.89,39.77,34.38,66.55c26.86,22.13,87.9,16.33,118.35,76.59
	c-2.43-37.74-37.19-60.8-37.19-60.8s36.3-3.98,61.09-13.28C304.11,268.03,264.27,217.12,264.27,217.12 M267.96,470.93
	c67.07-12.84,116.28-48.4,121.89-88.83c5.05-52.24-55.49-100.04-92.82-105.43c43.09,19.04,79.24,64.41,68.91,109.86
	C359.31,418.07,343.75,443,267.96,470.93 M437.14,200.29c-0.44-7.97-25.01-34.65-46.56-35.42c0,0,16.56,17.04,13.58,38.07
	c-2.21-5.87-12.17-16.9-32.54-17.78l2.88,15.27c0,0,31.58-0.44,32.98,24.64c2.8-4.28,1.77-13.94,1.77-13.94s11.29,12.62,8.63,33.87
	c10.62-14.39,2.14-36.3,0.41-42.72c6.68,3.32,12.87,8.63,14.42,11.95c0.22-9.07-11.51-22.13-15.5-25.68
	C422.75,184.8,436.47,198.08,437.14,200.29 M329.12,326.24c0,0,22.21,12.25,32.54,44.34c-10.48-85-75.11-80.27-116.43-125.58
	c0,0,18.96,37.48,5.09,69.94c8.83-5.04,15.63-25.46,15.63-25.46s31.89,33.79-2.13,85.81c37.56-19.75,35.28-68.65,35.42-69.06
	c6.49,2.95,18.3,51.35,8.85,84.11C327.87,371.17,329.12,326.24,329.12,326.24 M435.59,328.82c15.64,0,38.07,11.36,47.81,29.37
	c-2.44-23.09-24.13-39.47-54.67-45.89c9.75-2.78,23.9-3.1,36.08,1.55c-23.02-19.04-65.22-15.79-85.88-6.42
	c0,0,5.83,17.71,2.44,25.68c27-11.07,94.07,24.57,105.58,76.44C488.27,382.9,476.46,348.69,435.59,328.82 M221.92,396.85
	c48.72-18.3,55.19-65.15,47.22-91.86c-9.28,26.71-85.29,44.93-108.31,36.67c22.65,17.56,77.91,3.54,77.91,3.54
	s-32.71,41.02-98.87,54.3c65.38,1.48,106.54-38.07,106.54-38.07C242.07,374.48,233.1,386.03,221.92,396.85 M384.24,335.99
	c4.87,5.09,11.51,18.76,11.53,27.72c19.48,1.28,28.6,19.86,34.8,45.83c6.79-24.5-14.24-45.6-7.16-47.66
	c7.08-2.07,16.7,1.65,29.59,9.59C426.51,332.44,384.24,335.99,384.24,335.99 M282.2,551.57c0,0-21.18-14.83-29.59-44.93
	c-1.79,24.13,0.59,30.94,0.59,30.94c-5.41-4.79-25.9-19.44-20.14-40.24c11.8-42.68,121.56-31.81,128.6-121.3
	c-15.73,69.11-95.77,74.81-136.5,104.33c-30.48,22.09,6.22,71.63,74.67,99.75c-3,2.73-33.35,5.31-49.29,2.07
	c7.97,8.63,35.72,12.97,69.84,15.08l-41.95-73.37C279.24,527.82,282.2,551.57,282.2,551.57 M334.95,533.2
	c5.9,21.25,15.35,43.09,15.35,43.09s-41.61-25.68-67.29-83.22c-2.36,22.13,45.64,104.21,45.64,104.21
	c26.55,1.65,93.62,1.96,121.55,1.89C450.2,599.17,382.17,593.4,334.95,533.2 M217.19,482.14c18.15-21.25,84.26-36,95.62-48.7
	c-23.72,12.7-89.13,30.1-130.89,28.33c12.1,8.86,34.06,6.86,34.06,6.86s-38.63,13.65-43.8,42.65c9-16.75,24.79-18.22,24.79-18.22
	s-10.18,39.92,14.9,67.29C202.07,546.12,192.41,511.16,217.19,482.14 M315.77,40.7c15.13,3.87,25.2,13.39,24.09,24.79
	c-1.04,13.02-11.55,21.81-15.38,24.72c25.23-1.33,47.37,9.3,54.45,26.63c0.44-17.19-18.92-32.54-33.02-42.29
	c17.56,1.97,58.66,10.58,67.99,48.26c1.92-20.36-10.03-51.35-56.67-66.4c54.01-9.74,85.22,7.08,96.06,18.59
	C436.77,35.6,352.5,27.3,315.77,40.7 M397.81,28.53C338.79,20.86,305,35.6,305,35.6s-71.2-7.52-66.11,0
	c5.09,7.53,2.8,17.06-12.25,16.84c0,0,45.16,18.37,45.45,38.07c-11.8-21.84-63.16-21.25-63.16-21.25
	c6.98,10.62,20.31,18.81,34.83,26.56c-20.43-4.31-39.59-11.6-57.26-22.43c-1.98,5.85,1.13,11.51,5.31,17.12
	c-10.1-3.83-18.82-9.21-24.2-18.3c-5.14,1.38-8.24,4.27-8.26,9.45c-3.65-3.95-5.76-8.61-5.9-14.17h-8.26l2.55-8.37
	c0.18-2.15,0.99-4.35,1.49-6.5c0.48,1.96,1.17,3.81,2.09,5.51l28.69-5.4c0.8-0.47,1.5-0.96,2.13-1.48
	c-6.15-2.45-18.38-2.4-33.85-1.14c9.77-5.91,28.04-5.82,37.44-4.89c0.17-1.36,0.02-2.79-0.4-4.29l-39.39,0.86
	c-0.56,3.32-0.37,6.7,0.36,10.1c-1.83-2.4-3.23-5.01-3.95-7.95l-6.61,5.85L121.57,35.6l6.49-7.07v-7.08l24.2,7.08l31.87-3.98
	l4.54-8.19c0,0,23.2,0.96,42.68,0.96c0,0,23.61-19.48,73.19-17.12c-30.1,4.13-30.54,14.39-30.54,14.39S357.09,4.92,397.81,28.53
	 M210.92,26.87c0,0-6.86-3.65-12.06-4.21c-5.2-0.55-6.1,3.23-6.1,3.23C194.08,29.44,210.92,26.87,210.92,26.87"/>
</svg>
