<?xml version="1.0" encoding="utf-8"?>
<!-- Generator: Adobe Illustrator 14.0.0, SVG Export Plug-In  -->
<!DOCTYPE svg PUBLIC "-//W3C//DTD SVG 1.1 Tiny//EN" "http://www.w3.org/Graphics/SVG/1.1/DTD/svg11-tiny.dtd" [
	<!ENTITY ns_flows "http://ns.adobe.com/Flows/1.0/">
]>
<svg version="1.1" baseProfile="tiny"
	 xmlns="http://www.w3.org/2000/svg" xmlns:xlink="http://www.w3.org/1999/xlink" xmlns:a="http://ns.adobe.com/AdobeSVGViewerExtensions/3.0/"
	 x="0px" y="0px" width="129px" height="60px" viewBox="-0.67 -0.55 129 60" xml:space="preserve">
<defs>
</defs>
<path fill-rule="evenodd" d="M70.24,46.74c0.15,0.1,0.16,0.34,0.45,0.3c-0.15,0.29,0.02,0.89-0.74,0.89
	C70.41,47.3,69.76,47.24,70.24,46.74z"/>
<path fill-rule="evenodd" d="M13.22,50.6c0.22,0.22,0.22,0.67,0.74,0.59c-0.55,0.23-1.45,0.44-1.04,1.19
	c-0.48,0.04-0.35-0.54-0.59-0.74C12.9,51.57,12.86,50.88,13.22,50.6z"/>
<path fill-rule="evenodd" d="M13.22,52.08c0.2,0.05,0.12,0.37,0.15,0.59c-0.41-0.01-0.3,0.25-0.59,0
	C12.92,52.48,13.17,52.38,13.22,52.08z"/>
<path fill-rule="evenodd" d="M68.76,52.68c0.52,0.13,0.37,0.02,0.89,0.15c-0.11,0.48-0.74,0.45-1.19,0.59
	C68.35,52.96,68.97,53.24,68.76,52.68z"/>
<path fill-rule="evenodd" d="M12.92,53.57c-0.2-0.15-0.29-0.4-0.59-0.45C12.47,52.54,13.13,52.94,12.92,53.57z"/>
<path fill-rule="evenodd" d="M10.39,58.47c-0.29,0.06-0.22-0.68,0.15-0.45c0.03-0.13-0.06-0.14-0.15-0.15
	c-0.05-0.26,0.83-0.26,0.59,0.15C10.68,57.83,10.72,58.1,10.39,58.47z"/>
<path fill-rule="evenodd" d="M92.96,0.85c1.11-0.61,4.14-1.3,5.94-0.45c0.13,0.65,0.03,0.66,0.15,1.19
	c-1.08,1.05-2.25,1.74-2.82,2.97c-0.72,0.07-1.25,0.83-1.63,1.63c-0.71-0.15-1.46,2.11-2.52,2.52c0.57-0.21-0.51,1.32-0.89,1.04
	c-0.22,1.69-2.5,2.26-3.12,4.31c-0.75-0.25-0.52,0.92-1.04,0.45c0.18,0.55-0.34,1.23-0.89,1.49c0.09,0.73-0.51,1.8-1.48,1.93
	c0.29,0.22-0.26,0.63,0.3,0.74c-0.95,0.75-1.13,1.96-2.38,2.67c-0.03,0.32,0.53,0.07,0.74,0.15c-0.47,0.26-1.35,1.57-1.78,0.89
	c-0.16,0.04-0.1,0.29-0.3,0.3c0.08,0.33,0.23-0.18,0.45,0.15c-0.43,0.38,0.32,1.18-0.3,1.19c1.04,1.04,3.35,2.48,5.05,3.27
	c0.24,0.11,0.62-0.11,0.89,0c1.33,0.57,2.98,1.54,4.31,2.23c1.26,0.66,1.98,1.44,3.71,1.63c0.39-0.16,0.21-0.88,0.59-1.04
	c-0.72-0.32-0.38-2.62-0.59-2.97c0.33-0.26,0.45-1.87,1.04-1.78c-0.12-0.17-0.2-0.4-0.15-0.74c2.12-2.09,4.15-4.26,6.83-5.79
	c0.42-0.06,0.63,0.68,0.59-0.15c0.15,0,0.12,0.18,0.15,0.3c0.41,0.11,0.3-0.29,0.59-0.3c-0.1-0.15-0.34-0.15-0.3-0.45
	c0.97-0.36,1.91-1.33,2.67-1.04c0.22-0.06-0.06-0.19,0-0.45c1.69-0.5,3.42-1.86,5.94-2.08c1.89-0.92,7.27-1.41,8.61,0.15
	c0.98-0.47,3.34,0.83,3.86,2.23c0.52-0.25,0.67,0.96,1.49,0.89c0.1,0.6,0.57,1.07,0.59,1.34c-0.11,0.26-0.27,0.02-0.44,0
	c0.06,0.18,0.19,0.3,0.44,0.3c-0.11,0.14-0.27,0.22-0.44,0.3c0.13,0.22,0.48,0.21,0.74,0.3c0.13,0.48-0.48,0.21-0.59,0.45
	c-0.05,0.39,0.83-0.14,0.59,0.45c-0.48-0.03-0.63,0.26-1.19,0.15c0,0.15,0,0.3,0,0.45c0.34-0.1,0.9-0.29,1.19,0
	c0.07,0.42-1.1,0.42-0.59,0c-0.38,0.57,0.35,0.54-0.44,1.48c0.41,0.13,0.35,0.74,0.89,0.74c-0.04,0.45-0.34,0.86,0.15,0.89
	c-0.3,0.69-0.27,1.71-1.04,1.93c0.42-0.82,0.78-0.87,0.3-1.78c0.16,0.04,0.1,0.29,0.3,0.3c0.18,0-0.04-0.84-0.15-1.04
	c-0.67,0.09,0.29,0.95-0.59,0.89c0.59,1.01-0.28,1.8-0.3,2.38c-0.24,0.18-0.55,0.13-0.89,0c0.09,0.4,0.62,0.37,0.59,0.89
	c-0.3,0.19-0.08,0.65-0.3,1.19c0.04,0.26,0.26,0.34,0.59,0.3c-0.04,0.34-0.4,0.34-0.59,0.15c0.12,0.13,0.16,0.34,0.15,0.59
	c-0.4,0.01-0.3-0.25-0.59,0c0.04,0.26,0.25,0.34,0.59,0.3c-0.3,0.68-0.87,0.86-1.19,1.19c0.14,0.41,0.52-0.26,0.74,0.15
	c0.06,0.35-0.68-0.08-0.45,0.44c-0.13-0.11-0.33-0.16-0.59-0.15c-0.03,0.32,0.12,0.47,0.44,0.44c-0.13,0.46-0.9,0.29-0.89,0.89
	c-0.17-0.02-0.13-0.27-0.15-0.45c0.04,1.31-1.74,2.22-2.52,3.56c-0.5-0.34-0.56,0.25-1.19,0c-1.45,2.44-3,2.14-4.75,3.86
	c-0.73-0.48-1.49,0.94-2.38,0.3c-0.4,0.42-0.16,0.19-0.45,0.59c-0.31,0.06-0.39-0.1-0.59-0.15c0.1,0.72-0.14,0.15-0.15,0.15
	c-0.52-0.02-1.11,0.68-1.93,0.89c0.08-0.02-1.57-0.09-1.78,0.45c0.01-0.42-0.33-0.19-0.45-0.59c-0.83,0.9-2.22,0.09-3.42,0
	c0.38-0.63-0.18-0.8-0.59-1.04c-0.45,0.1,0.14,0.32,0,0.6c-0.17-0.02-0.26,0.03-0.3,0.15c-1.52-0.83-3.68-1.66-3.71-3.12
	c-0.69,0.42-0.54-0.57-1.34-0.45c-0.29-0.92-1.58-1.28-2.67-2.08c-0.23,0.05,0.13,0.26-0.15,0.3c-0.36-0.18-0.79-0.3-0.74-0.89
	c0.21,0.22,0.72,0.47,1.04,0.15c-0.71-0.52-1.2-0.19-2.23-0.15c0.14-0.8-1.4-0.11-1.34-1.19c-2.93-0.16-5.32-2.9-8.76-3.71
	c0.06-0.31-0.1-0.39-0.15-0.59c-1.67,0.21-3.19-1.96-4.9-0.3c-0.31,0.06-0.39-0.1-0.59-0.15c0.41,0.71-0.9,1.87-1.63,2.38
	c-0.13,0.57,0.65,0.24,0.44,0.89c-0.31,0.06-0.39-0.1-0.59-0.15c0.06,0.34,0.66,0.4,0.3,0.74c-0.37,0.02-0.72,0.03-0.74-0.3
	c-0.2,0.1-0.28,0.32-0.3,0.59c0.02,0.17,0.27,0.12,0.45,0.15c0.23-0.05-0.13-0.26,0.15-0.3c0.46,0.3-0.79,1.36-1.19,1.78
	c0.06,0.22,0.19-0.06,0.45,0c-0.15,0.4-0.6,0.49-0.89,0.74c0.08,0.33,0.23-0.18,0.45,0.15c-0.45,0.34-0.92,0.66-1.34,1.04
	c0.52,1.59-1.9,1.94-0.45,2.67c-0.3,0.5-0.5,0.31-1.19,0.45c0.08,0.33,0.23-0.18,0.45,0.15c-0.03,0.17-0.15,0.08-0.15,0
	c-0.57,0.41-0.31,0.74-0.59,1.34c-0.38-0.4-0.16,0.34-0.74,0.15c0.2,0.22,1,0.48,0.3,0.74c0.25,0.38,0.55,0.12,0.59,0.89
	c-0.53-0.55-0.74,0.39-1.34,0.59c0.02,0.28,0.49,0.1,0.45,0.44c0.18-0.06,0.31-0.19,0.3-0.44c0.33,0.02,0.32,0.37,0.3,0.74
	c-0.25-0.04-0.58-0.32-0.59,0.15c-0.22-0.08-0.37-0.22-0.59-0.3c0.23,0.55,0.36,0.42-0.3,0.3c0.47,0.32,0.35,0.87,0,0.45
	c-0.21,0.19-0.44,0.71,0,0.74c-0.62,0.28-0.21,0.96-0.89,1.34c0,0.29,0.41,0.19,0.3,0.59c-0.59,0.36-0.85,0.74-0.89,1.34
	c0.18-0.17,0.31-0.13,0.3,0.15c0.14-0.08,0.22-0.41,0.3-0.15c0.22-0.07-0.06-0.19,0-0.45c0.2,0,0.4,0,0.59,0
	c-0.39,0.51-0.33,0.54,0.3,0.59c-0.15,0.66-0.02,0.39,0.15,0.89c-0.37-0.02-0.46,0.23-0.74,0.3c0.1,0.2,0.32,0.28,0.59,0.3
	c-0.05,0.19-0.26,0.23-0.3,0.45c-0.32,0.03-0.47-0.12-0.44-0.45c-0.09,0.25-0.45,0.24-0.59,0.45c0.4,0.02,0.21,0.26-0.15,0.59
	c-0.34-0.11-0.33-0.57-0.74-0.59c0.03-0.2,0.62-0.28,0-0.3c0.13-0.49,1.07,0.03,1.04-0.89c-0.26,0.37-0.59,0.3-1.19,0.15
	c-0.02-0.27,0.18-0.31,0.15-0.59c0.26,0.13,0.38,0.42,0.89,0.3c0.13-0.07,0.27-0.13,0.3-0.3c-0.24-0.45-0.71,0.49-1.04,0
	c0.45-0.16,0.13-0.65-0.3-0.74c0.27-0.33,0.4-0.79,0.74-1.04c-0.18-0.21-0.51-0.06-0.89,0.15c-0.21-0.17,0.72-0.46,0.89-0.74
	c-0.13-0.08-0.55-0.61-0.59-0.3c-0.42-0.19,0.47-0.31,0.3-0.74c-0.21,0.24-0.42,0.47-0.59,0.74c-0.2-0.62,0.98-1.17,0.74-1.93
	c0.31,0.3,1.34,0.96,1.48,0.15c-0.61,0.21-0.33-0.24,0.3-0.6c-0.13-0.35-0.37,0.41-0.89,0.15c-0.1-0.47-0.4-0.71,0-1.34
	c-0.14,0.11-0.22,0.27-0.3,0.45c-0.12-0.08-0.24-0.16-0.45-0.15c0-0.25,0-0.49,0-0.74c0.35,0.36,0.28-0.22,0.74-0.15
	c-0.03-0.65-0.71,0.18-0.59-0.45c0.41,0.02,0.73-0.04,1.19,0c-1.26-0.44-0.2-1.38-0.59-1.78c0.11-0.3,0.45-0.61,0.74-0.3
	c-0.15-0.14-0.14-0.76,0.3-0.74c-0.29-1.24,1.04-2.13,0.59-3.12c0.37-0.02,0.25,0.18,0,0.15c0.13,0.29,0.65,0.4,0.89,0.15
	c-0.1-0.45-0.32,0.14-0.59,0c0.55-0.3-0.64-0.98,0.15-1.04c-0.02-0.17-0.27-0.13-0.45-0.15c0.08-0.46,0.18-0.91,0.74-0.89
	c-0.22-0.35-0.31-0.28-0.15-0.74c0.39,0.09,1.05,0.31,1.34,0.89c0.85-0.12-0.75-0.92,0.15-1.04c-0.16-0.15-0.73-0.64-0.89-0.3
	c0.05-0.72,0.27-0.79,0.59-1.93c0.34,0.05,0.57-0.02,0.74-0.15c-0.28-0.22-0.02-0.97,0.3-0.6c-0.23-0.36-0.4-0.96,0.45-0.44
	c0-0.2,0-0.4,0-0.59c-0.03-0.21-0.44-0.05-0.45-0.3c0.88-0.68,0.71-1.65,1.19-2.52c-0.14-0.75-0.99-0.8-1.19-1.49
	c-0.42,0.15-1.51,0.26-1.49-0.74c-2.01,0.03-2.58-1.17-4.6-1.48c0.07-0.47-0.51-0.39-0.15-0.74c-0.17,0.17-0.52,0.17-0.89,0.15
	c0.09-0.48-0.53-0.2-0.15-0.59c-0.36-0.06-0.32,0.27-0.74,0.15c-1.55-1.6-3.74-2.38-4.46-4.9c0.25-0.63,1.16-1.03,1.34-1.19
	c0.05-0.04,0.13-0.43,0.15-0.45c1.22-0.66,5.12-0.64,6.24,0.3c0.63,0.53,0.55,0.95,1.04,1.78c0.58,0.99,3.69,2.59,4.9,3.12
	c1.03,0.45,2.25,0.72,3.12,0.89c0.51-0.24,0.74-1.37,1.19-1.19c-0.11-1.34,1.15-2.48,2.08-3.27c0.51-1.62,0.24-1.69,1.34-2.23
	c-0.07-0.6,0.5-1.74,1.04-2.23c0.14,0.11,0.23,0.27,0.3,0.45c0.31-0.04-0.22-0.4,0.3-0.45c0-0.14-0.18-0.12-0.3-0.15
	c0.43-0.47,0.35-0.8,1.34-1.19c-0.06-0.28-0.43-0.27-0.3-0.74c1.1-0.83,1.75-2.11,2.38-3.42c0.62,0.44,0.85-0.69,1.48-1.04
	C87.5,7,88.8,6.19,89.25,5.9c-0.91,0.3,0.64-1.1,1.04-0.89c0-0.4-0.47-0.32-0.45-0.74c0.29,0.25,0.19-0.01,0.59,0
	c-0.08-0.12-0.16-0.24-0.15-0.45c0.41-0.44,0.9,0.12,0.59-0.59c0.41-0.01,0.3,0.25,0.59,0c-0.47-0.5-0.02-0.76,0.15-1.34
	c0.71,0.3,0.15-0.18,0.59-0.59c0.24,0.01,0.57-0.07,0.59,0.15C92.95,1.4,93.31,0.89,92.96,0.85z M109.3,18.67
	c-0.31,0.38-2.17,0.79-1.49,2.23c-1.43,1.79-3.61,2.82-4.16,5.5c-0.2-0.01-0.33,0.07-0.44,0.15c0.24,0.77-0.25,1.72-0.74,2.53
	c0.26,1.77,0.27,4.17,0.89,5.94c0.19,0.53,0.94,0.76,0.45,1.34c2.07,2.72,6.43,3.71,8.91,1.63c-0.17,0.31-0.16,0.31,0.15,0.15
	c0.5-0.16-0.41-0.05-0.15-0.45c1.25,0.33,1.86-1.89,2.38-1.19c1.83-2.37,3.93-4.71,4.75-6.98c-0.02,0.04,0.04-1.26,0.59-1.19
	c-0.38-1.11,0.15-3.21,0.45-4.6c-0.16-0.8-1.19-1.37-0.59-2.23c-0.84,0.1-0.69-0.8-1.19-1.04c0.5,0.04,0.13-0.7,0-0.3
	c-0.19,0.38-2.08-1.97-2.23-1.19c-0.13-0.56-1.09-0.3-1.19-0.89C113.29,17.64,111.39,18.04,109.3,18.67z M125.63,23.27
	c0.2,0.05,0.28,0.21,0.59,0.15c0.07-0.34-0.37-0.89-0.59-0.44C125.81,23.01,125.72,23.14,125.63,23.27z M71.43,36.04
	c0.2,0,0.14,0.26,0.3,0.3c0.02-0.28,0.49-0.1,0.45-0.44C71.83,35.85,71.53,35.58,71.43,36.04z M71.43,36.93
	c-0.31-0.04-0.04-0.66-0.45-0.59c0.12,0.42-0.21,0.39-0.15,0.74C71.21,36.89,71.3,37.16,71.43,36.93z M69.94,40.35
	c-0.08,0.09-0.35,0.71,0,0.74c0.04-0.71,0.53,0.12,0.89,0c0.19-0.01,0.21-0.19,0.45-0.15c-0.17-0.28-0.21-0.68-0.59-0.74
	C70.71,40.86,70.16,40.58,69.94,40.35z"/>
<path fill-rule="evenodd" d="M23.17,31.59c0.31,0.6,0.06,1.29-0.3,1.63c0.35,0.58,1.1,0.9,1.04,1.48c0.93,0,1.52,1.01,1.48,1.49
	c0.47-0.13,0.46,0.23,0.74,0.3c0.03,0.25-0.25,0.38,0,0.44c-0.08,0.31-0.23,0.31-0.45,0.15c0.25,0.69,0.4-0.22,0.89-0.15
	c-0.02,0.27,0.18,0.31,0.15,0.59c0.15,0,0.12-0.18,0.15-0.3c0.29,0.25,0.34,0.75,1.04,0.59c0.35,0.54,0.62,1.49,1.48,1.78
	c-0.25,0.54,0.24,0.99,0.89,1.04c-0.31,1.06,1.48,1.53,2.23,1.49c0.21,0.38,0.56,0.63,0.74,1.04c0.31-0.09,0.48-0.31,0.74-0.45
	c-0.15-1.72,0.55-3.18-0.74-4.31c0.08-0.46,0.35-0.74,0.74-0.89c-0.06-0.28-0.32-0.37-0.3-0.74c-0.12,0.08-0.24,0.16-0.45,0.15
	c-0.33-0.78-0.84-1.5,0.3-1.93c-0.12-0.51-0.31-1.24,0.45-1.48c-0.02-0.36-0.49-0.03-0.45,0.15c0.49-0.81,1.04-2.46,2.38-2.82
	c-0.38-0.61,0.71-0.74,0.45-1.34c0.3,0.55,0.33-0.03,0.45-0.44c1.5,0.15,0.88-0.98,2.08-0.74c-0.29-0.28-0.41-0.66,0.3-0.59
	c-0.19-0.77,1.74-1.6,2.53-1.34c0.87-1.35,4.12-2.35,6.24-2.67c1.91-1.31,4.55-0.62,6.98-0.89c-0.04,0.24,0.14,0.26,0.15,0.45
	c1.19-0.53,2.57,0.78,3.12,1.04c1.7,0.79,3.35,3.09,3.27,4.45c0.04,0.3,0.4,0.3,0.59,0.44c0.5,2.26,0.08,4.4,0.3,5.35
	c-0.83,0.65-0.04,1.2-1.34,1.93c-0.16,0.55,0.37,0.42,0.3,0.89c-0.31,0.08-0.48,0.43-0.74,0.15c0.08,0.61-0.42,1.82-1.04,2.23
	c0,0.14,0.18,0.11,0.3,0.15c-0.1,0.85-0.75,0.42-1.34,0.59c0.09,0.13,0.18,0.27,0,0.3c0.05,0.2,0.37,0.12,0.59,0.15
	c-0.19,0.43-0.54,0.62-1.04,1.04c0,0.14,0.18,0.12,0.3,0.15c-0.02-0.31-1.81,1.06-1.49,1.93c-0.13,0.44-0.48-0.09-0.74,0
	c0.07,0.23,0.47,0.13,0.3,0.59c-0.49-0.16-0.99,0.77-1.63,0.59c-0.82,2.67-3.88,3.78-5.2,4.31c-2.06,0.83-4.2,1.27-6.53,1.63
	c0.27-0.43-0.92-0.01-1.34,0.15c-0.16-0.18,0.16-0.43,0.15-0.74c-0.46-0.07-0.42,0.37-0.59,0.59c-2.6-0.44-5.64-2.78-6.83-5.94
	c-1.17-0.04-1.07-0.43-1.34-1.34c-0.06,0.04-1.42-0.28-0.59-0.3c-0.03-0.12-0.15-0.15-0.15-0.3c-0.48-0.18-0.11,0.48-0.59,0.3
	c-0.35-0.43,0.1-0.79-0.15-1.19c-1.19,0.68-2-1.76-2.67-1.63c0.08-0.22-0.17-0.77,0.15-0.74c-0.12-0.38-0.52,0.42-0.74,0
	c0.07,0.18,0.19,0.31,0.45,0.3c0.1,0.6-0.62,0.37-0.59,0.89c0.22,0.02,0.65,0.33,0.74,0.89c-0.24-0.04-0.26,0.14-0.45,0.15
	c-0.04,0.3,0.43-0.03,0.45-0.15c0.4,0.24,0.22,0.47,0,0.74c0.29,0,0.19-0.41,0.59-0.3c0.53,0.25-0.16,0.86,0.59,0.74
	c-0.13,0.12-0.09,0.41-0.3,0.45c0.1,0.28,1.24,0.32,1.49,0.89c-0.13-0.07-0.27-0.13-0.3-0.3c-0.22,0.13-0.32,0.38-0.3,0.74
	c-0.7-0.57-1.11-0.82-1.19-1.48c-0.12,0.03-0.15,0.15-0.3,0.15c0.03,0.17,0.15,0.08,0.15,0c0.05,0.61-1.44,0.06-1.19-0.74
	c0.12,0.08,0.24,0.15,0.45,0.15c-0.08-0.22-0.22-0.37-0.3-0.59c-0.28,0.06-0.37,0.32-0.74,0.3c0.06,0.13,0.13,0.26,0.3,0.3
	c-0.03,0.17-0.15,0.08-0.15,0c-0.12-0.03-0.14,0.06-0.15,0.15c-0.26-0.13-0.27-0.52-0.45-0.74c-0.41,0.26-0.87-0.09-0.59-0.45
	c-0.12,0.13-0.41,0.09-0.45,0.3c-0.15-0.27-1.52-0.95-0.45-1.04c-0.28-0.37-0.65,0.19-1.04-0.15c0.03-0.25-0.25-0.38,0-0.45
	c-1.15-0.42-3.68-3.4-5.79-1.19c-0.07,0.32,0.21,0.28,0.45,0.3c-0.25,0.29,0.01,0.19,0,0.59c-0.17-0.12-0.4-0.2-0.74-0.15
	c0.11,0.35,0.34,0.94-0.3,0.89c-0.05,0.25,0.12,0.28,0.3,0.3c-0.13,0.26-0.33,0.57-0.59,0.3c0.4,0.57-0.41,0.98,0.15,1.04
	c-0.17,0.28-0.17,0.71-0.74,0.59c-0.04-0.24,0.14-0.26,0.15-0.45c-0.68,0.07-0.38,0.49-1.34,0.74c-0.06,0.25,0.55-0.01,0.59-0.15
	c0.4,0.59,0.07,0.42,0.74,0.74c0.52-0.08-1.37,0.04-0.74,0.74c-0.19,0.09-1.08,0.29-0.45-0.3c-0.96,0.17-1.22,0.59-0.89,1.49
	c-0.33,0.17-0.57,0.87-1.04,0.45c-0.23,0.05,0.13,0.26-0.15,0.3c0.36,0.08,1.3,0.48,1.34,1.34c-0.52,0.12-0.49,0.42-0.89,0
	c0.45,0.44-0.3,0.33-0.15,0.89c-0.4-0.09-1.53,0.21-1.63,0.89c-0.54,0.15-0.07-0.72-0.74-0.44c0.47-0.53,0.23-0.54,0.3-1.04
	c0.37,0.02,0.71,0.02,0.89-0.15c-0.7-0.37,0.38-0.42,0.45-0.89c0.28,0.02,0.1,0.49,0.45,0.45c0.23-0.05-0.13-0.26,0.15-0.3
	c-0.13-0.17-0.33,0.01-0.59-0.3c0.29-0.28,0.05-0.54,0-0.89c0.19-0.15,0.55-0.15,0.74-0.3c-0.12,0.15-0.92-0.43-0.15-0.59
	c-0.13-0.43-0.48,0.09-0.74,0c0.02-0.43,0.63-0.26,0.59-0.74c0.29,0.15,0.52,0.37,0.74,0.59c0.41-0.13-0.35-0.6,0.44-0.45
	c0.18-0.44-0.63-0.64-0.74-0.3c-0.46-0.4-0.25-1.68,0.45-1.19c-0.02,0.28-0.49,0.1-0.45,0.45c0.54,0.1,0.57-0.32,1.04-0.3
	c-0.24-0.48-0.07-0.8,0-1.34c0.41-0.01,0.3,0.25,0.59,0c-0.06-0.23-0.47-0.13-0.3-0.59c-0.47-0.07-0.39,0.51-0.74,0.15
	c0.08-0.81,0.63-1.15,1.34-1.34c-0.04-0.19-0.3-0.15-0.3,0c-0.56-0.48,0.56-0.94-0.15-1.34c-0.03-0.32,0.53-0.07,0.74-0.15
	c0.07-0.94-0.33-1.42,0.45-1.49c-0.48-0.08-0.32-1.23,0.15-0.74c-0.38-0.44-0.42-0.44-0.3-1.19c-0.33-0.86-1.64-0.74-1.78-1.78
	c-3.46-1.2-5.66-3.45-8.46-4.01c-1.69-1.29-5.21-1.26-6.39-2.97C0.38,26.54,0.19,25.94,0,25.2c0.89-0.7,2.24-0.93,3.42-1.34
	c0.17,0.02,0.08,0.16,0,0.15c5.55,0.66,9.97,3.39,13.96,5.94c-0.03,0.12-0.15,0.15-0.15,0.3c0.47-0.08,0.61,0.35,0.74-0.15
	c0.47,0.42,0.9,0.88,1.93,0.74c0.68-0.82,0.39-1.75,1.48-2.23c0.18-0.48-0.48-0.11-0.3-0.59c1.04-0.79,1.43-0.98,1.04-2.08
	c0.34-0.36,0.4,0.23,0.74,0.3c-0.05-0.35-0.15-0.64-0.45-0.74c1.14-0.3,0.87-1.25,1.19-2.23c-0.12,0.38,0.55-0.65,0.3-0.89
	c0.05-0.21,0.26-0.01,0.3,0.15c0.52-0.33,0.38-0.91,0.15-1.34c0.17,0.12,0.4,0.2,0.74,0.15c-0.47-0.7,0.14-2.02,0.45-1.63
	c0.15-0.23,0.77-0.96,0.3-1.19c0.27,0.03,0.22-0.38,0.74-0.45c-0.07-0.23-0.47-0.13-0.3-0.59c0.48-0.4,0.52,0.36,1.04,0
	c-0.21-0.44-0.33-0.13-0.89-0.3c0.65-0.27,0.66-1.86,1.34-1.63c0.17-1.33,1.28-4.52,3.12-4.9c0.14-0.11,0.23-0.27,0.3-0.45
	c2.3-0.11,2.31-0.7,4.16,0c0.06,2.28-2.41,3.21-2.97,5.35c-0.12,0.03-0.14-0.06-0.15-0.15c-1.21,1.71-2.06,3.78-3.27,5.49
	c-0.31,0.17-0.56-0.07-0.74,0.45c0.07,0.22,0.19-0.06,0.45,0c-0.85,2.24-2.53,3.95-3.12,6.39c-0.15,0-0.12-0.18-0.15-0.3
	c-0.6,1.07-0.57,1.97-1.63,2.67c0.22,0.34-0.05,0.64,0.15,0.74C23.35,31.13,23.83,31.2,23.17,31.59z M53.01,26.54
	c-0.29,0.17-1.42-0.35-1.93-0.15c-0.08-0.31-0.42-0.48-0.15-0.74c-0.48,0.12-0.69,0.5-1.04,0.74c0.03-0.32-0.12-0.47-0.45-0.45
	c-0.02,0.18,0.03,0.42-0.15,0.45c-0.07-0.32-0.82,0.25-0.44-0.3c-0.25,0-0.5,0-0.74,0c0.07,0.47-0.37,0.42-0.59,0.59
	c-2.26,0.13-2.89,1.35-4.75,2.08c0.08,0.52-0.49,0.38-0.59,1.04c0.7,0.34,1.76,0.32,2.23,0.89c-0.73,1.49-2.44,1.74-3.42,3.12
	c-1.19,1.69-1.63,3.77-2.38,5.64c0.3,0.41-0.1,1.38-0.15,1.93c0.17,0.03,0.42-0.02,0.44,0.15c-0.43,1.13,1,3.21,0.45,2.97
	c0.67,0.6,0.29,1.53,0.3,1.93c0.28-0.34,0.57,0.57,1.04,0.15c0.07,0.56,0.45,1.34,0.45,1.34c0.81,0.87,2.35,1.4,3.42,1.34
	c0.65-0.04,2.07-0.88,2.38-0.59c-0.15-0.89,1.86-0.71,1.19-1.19c0.19-0.2,0.7-0.2,0.89,0c0-0.6,0.87-0.23,0.45-0.89
	c1.47-0.63,1.57-1.62,3.42-2.67c-0.68-0.33,1.07-0.91,0.89-2.08c1.23-0.52,2.05-3.4,2.97-4.01c-0.17-0.03-0.23-0.17-0.3-0.3
	c1.12-0.58-0.06-1.3,1.04-1.34c-0.4-0.47,0.03-0.89-0.3-1.49c0.25,0.01,0.38-0.11,0.45-0.3c-0.46-0.41-0.06-1.35,0.15-1.34
	c-0.55-0.8-0.59-2.2-0.74-3.12C56.02,28.48,53.81,27.32,53.01,26.54z M21.38,30.1c-0.11,0.03-0.29,0-0.3,0.15
	c0.59,0.17,0.79-0.69,0.3-0.74C21.33,30.01,20.93,29.75,21.38,30.1z M59.7,34.56c-0.13,0.73-0.28,0.89-0.3,1.49
	c0.94,0.01,0.61-1.16,0.59-1.49C59.96,34.74,59.83,34.65,59.7,34.56z M24.95,38.12c0.62-0.02,0.67-0.44,0.45-0.74
	c-0.3,0.34-0.44-0.73-1.19-0.44C24.16,37.63,24.87,37.56,24.95,38.12z M27.77,40.2c-0.19-0.22,0.26-0.33,0-0.89
	c-0.32-0.22-0.92-0.16-1.04-0.59c0.26,0.01,0.38-0.11,0.45-0.3c-0.49-0.01-0.57-0.42-1.19-0.3c-0.04,0.21-0.33,0.17-0.44,0.3
	c0.37,1.37,0.67,0.5,1.63,1.78C27.19,39.74,27.75,40.66,27.77,40.2z M16.04,43.32c-0.08,0-0.17,0.12,0,0.15
	c0.04-0.38,0.26,0.21,0.59,0c-0.01-0.2,0.07-0.33,0.15-0.45c-0.42-0.12-0.38,0.21-0.74,0.15c0-0.08-0.12-0.17-0.15,0
	C15.98,43.18,16.06,43.19,16.04,43.32z"/>
<path fill-rule="evenodd" d="M13.07,47.33c0.02-0.28,0.55,0.12,0.74,0.15c-0.13,0.22-0.48,0.22-0.74,0.3
	C13.04,47.52,13.32,47.39,13.07,47.33z"/>
<path fill-rule="evenodd" d="M13.37,50.15c0.35-0.64,0.4,0.2,1.04-0.15c0,0.15,0,0.3,0,0.44C14.07,50.33,13.83,50.14,13.37,50.15z"
	/>
</svg>
