<?xml version="1.0" encoding="UTF-8" standalone="no"?>
<!-- This is a slightly modified version of a sample that shipped with
     JASC's WebDraw (www.jasc.com) -->

<svg
   xmlns:dc="http://purl.org/dc/elements/1.1/"
   xmlns:cc="http://creativecommons.org/ns#"
   xmlns:rdf="http://www.w3.org/1999/02/22-rdf-syntax-ns#"
   xmlns:svg="http://www.w3.org/2000/svg"
   xmlns="http://www.w3.org/2000/svg"
   xmlns:sodipodi="http://sodipodi.sourceforge.net/DTD/sodipodi-0.dtd"
   xmlns:inkscape="http://www.inkscape.org/namespaces/inkscape"
   id="svg4746"
   version="1.1"
   inkscape:version="0.48.0 r9654"
   width="398.36356"
   height="248.99866"
   sodipodi:docname="butterfly.svg">
  <metadata
     id="metadata4758">
    <rdf:RDF>
      <cc:Work
         rdf:about="">
        <dc:format>image/svg+xml</dc:format>
        <dc:type
           rdf:resource="http://purl.org/dc/dcmitype/StillImage" />
      </cc:Work>
    </rdf:RDF>
  </metadata>
  <defs
     id="defs4756" />
  <sodipodi:namedview
     pagecolor="#ffffff"
     bordercolor="#666666"
     borderopacity="1"
     objecttolerance="10"
     gridtolerance="10"
     guidetolerance="10"
     inkscape:pageopacity="0"
     inkscape:pageshadow="2"
     inkscape:window-width="640"
     inkscape:window-height="480"
     id="namedview4754"
     showgrid="false"
     fit-margin-top="0"
     fit-margin-left="0"
     fit-margin-right="0"
     fit-margin-bottom="0"
     inkscape:zoom="0.2442125"
     inkscape:cx="364.01094"
     inkscape:cy="-138.59568"
     inkscape:window-x="0"
     inkscape:window-y="24"
     inkscape:window-maximized="0"
     inkscape:current-layer="svg4746" />
  <path
     style="fill:#f67f00;stroke:none"
     d="m 196.76865,109.45051 c -6.6844,-5.43107 1.96354,-5.8572 1.87998,-6.05774 -11.90658,-29.662005 -31.10751,-42.755066 -32.58643,-43.448572 -4.5621,-2.139007 -6.76795,-1.938475 -5.95747,-3.016334 0.80213,-1.077859 6.07445,2.297761 6.79302,2.807446 21.09763,15.039892 32.58643,43.44858 32.58643,43.44858 0,0 1.46221,0.83555 1.6711,0.20888 8.3555,-24.648708 25.06649,-37.599725 30.70645,-42.82191 5.63996,-5.222185 8.60616,-5.73187 0.83555,0.208887 -24.02205,18.38209 -30.90698,42.320583 -30.49756,42.404143 9.60882,2.08887 0.41777,6.68439 0.83555,6.26662 2.52336,-2.52336 2.50665,5.01329 2.50665,5.01329 0,0 14.20434,-29.244229 69.76838,-66.426183 3.42575,-2.289406 123.24356,-67.679512 81.46608,12.115468 -2.16407,4.144326 -16.71099,20.888739 -16.71099,20.888739 0,0 1.25332,7.102171 -3.75997,12.951017 -0.86062,1.00266 -2.92443,10.862139 -7.93772,16.293219 -1.41208,1.53741 -0.0167,-1.32017 0,0 0.41777,25.06648 -20.11168,24.51502 -18.79987,24.64871 7.93772,0.83555 9.07407,11.13787 9.19105,11.27992 4.59552,5.43107 2.92442,6.68439 4.59552,9.19104 9.02393,13.52755 -0.49297,12.71706 0.83555,15.03989 3.3422,5.84885 -0.70186,8.26359 0.41777,10.0266 2.92443,4.59552 -2.15571,7.5283 -2.08887,8.77327 0.41778,7.10217 -4.31144,4.51196 -4.17775,7.51994 0.41778,9.19105 -2.92442,5.43107 -5.01329,8.77327 -6.26663,10.0266 -8.66465,6.3084 -9.19105,7.51995 -2.50665,5.84885 -5.86556,4.44512 -7.10217,5.84885 -2.92442,3.34219 -5.84885,3.34219 -7.10217,4.59552 -5.84885,5.84884 -9.16598,1.72123 -10.0266,2.08887 -13.36879,5.84885 -19.63541,1.11964 -21.72428,1.25333 -6.26663,0.41777 -5.30574,-0.55147 -7.10217,-2.08888 -26.31982,-22.55984 -41.77748,-55.14627 -44.7019,-59.32402 -1.19484,-1.70452 -3.74327,-11.45538 -2.92443,-9.19104 1.6711,4.59552 0.83555,45.53745 -3.75997,45.53745 -4.59552,0 -5.0133,-38.43528 -2.08888,-45.53745 0.91911,-2.23092 -0.77706,6.59249 -2.95784,9.19104 -4.5621,5.43108 -18.6244,36.76418 -45.28679,59.32402 -1.81314,1.53741 -0.8439,2.50665 -7.19408,2.08888 -2.10558,-0.13369 -8.46411,4.59552 -22.00002,-1.25333 -0.86897,-0.36764 -4.23623,3.75997 -10.16028,-2.08887 -1.27003,-1.25333 -4.22788,-1.25333 -7.19408,-4.59552 -1.24497,-1.40373 -4.654009,0 -7.19408,-5.84885 -0.526396,-1.21155 -2.957845,2.50665 -9.308021,-7.51995 -2.113941,-3.3422 -5.506272,0.41778 -5.080142,-8.77327 0.142044,-3.00798 -4.65401,-0.41777 -4.22788,-7.51994 0.0752,-1.24497 -5.080141,-4.17775 -2.122296,-8.77327 1.136347,-1.76301 -2.957845,-4.17775 0.42613,-10.0266 1.345235,-2.32283 -8.288651,-1.51234 0.843905,-15.03989 1.696166,-2.50665 0,-3.75997 4.654011,-9.19104 0.125333,-0.14205 1.270035,-10.44437 9.316377,-11.27992 1.328524,-0.13369 -19.468304,0.41777 -19.042173,-24.64871 0.01671,-1.32017 1.428789,1.53741 0,0 -5.080142,-5.43108 -7.169015,-15.290559 -8.046342,-16.293219 -5.080142,-5.848846 -3.810106,-12.951017 -3.810106,-12.951017 0,0 -14.730739,-16.744413 -16.919878,-20.888739 -42.32058435,-79.79498 79.051335,-14.404874 82.518865,-12.115468 56.28262,37.181954 70.00235,66.426183 70.00235,66.426183 0,0 0.30079,-2.13065 0.83554,-3.34219 0.53476,-1.2032 1.30346,-1.51235 1.11129,-1.6711 z"
     id="path4748"
     inkscape:connector-curvature="0" />
  <path
     style="fill:#000000;stroke:none"
     d="m 196.17541,109.27504 c -6.6844,-5.43107 1.95518,-5.86556 1.87998,-6.05773 -11.90658,-29.66201 -31.10751,-42.755071 -32.58643,-43.448578 -4.5621,-2.139006 -6.76795,-1.938474 -5.96582,-3.016333 0.80212,-1.077859 6.0828,2.297761 6.80137,2.807446 21.09763,15.039892 32.58643,43.448575 32.58643,43.448575 0,0 1.46221,0.83555 1.6711,0.20889 8.3555,-24.648713 25.06649,-37.599731 30.70645,-42.821915 5.63996,-5.222185 8.60616,-5.73187 0.83555,0.208887 -24.02205,18.38209 -30.90698,42.312228 -30.49756,42.404138 9.60882,2.08887 0.41777,6.6844 0.83555,6.26662 2.52336,-2.52336 2.50665,5.0133 2.50665,5.0133 0,0 14.20434,-29.244234 69.76838,-66.426188 3.4174,-2.289406 123.24356,-67.679513 81.46608,12.115468 -2.16407,4.13597 -16.71099,20.888738 -16.71099,20.888738 0,0 1.25332,7.102171 -3.75997,12.951018 -0.86062,1.002659 -2.92443,10.862144 -7.93772,16.293214 -1.41208,1.53741 -0.0251,-1.32017 0,0 0.41777,25.06649 -20.11168,24.51502 -18.79987,24.64871 7.93772,0.83555 9.06571,11.13788 9.19105,11.27992 4.59552,5.43107 2.92442,6.6844 4.59552,9.19105 9.01558,13.52754 -0.49297,12.71706 0.83555,15.03989 3.3422,5.84884 -0.70186,8.26358 0.41777,10.02659 2.92443,4.59552 -2.16407,7.51995 -2.08887,8.77327 0.41778,7.10217 -4.31144,4.51197 -4.17775,7.51995 0.41778,9.19104 -2.92442,5.43107 -5.01329,8.77327 -6.26663,10.02659 -8.67301,6.3084 -9.19105,7.51994 -2.50665,5.84885 -5.87391,4.44513 -7.10217,5.84885 -2.92442,3.3422 -5.84885,3.3422 -7.10217,4.59552 -5.84885,5.84885 -9.16598,1.71288 -10.0266,2.08888 -13.36879,5.84884 -19.63541,1.11128 -21.72428,1.25332 -6.26663,0.41778 -5.30574,-0.55146 -7.10217,-2.08887 -26.31982,-22.55984 -41.77748,-55.14627 -44.70191,-59.32402 -1.19483,-1.71288 -3.75161,-11.45538 -2.92442,-9.19105 1.6711,4.59553 0.83555,45.53745 -3.75997,45.53745 -4.59552,0 -5.0133,-38.43527 -2.08888,-45.53745 0.91911,-2.23091 -0.77706,6.58413 -2.95784,9.19105 -4.5621,5.43107 -18.6244,36.76418 -45.28679,59.32402 -1.81314,1.53741 -0.8439,2.50665 -7.19408,2.08887 -2.10558,-0.14204 -8.46411,4.59552 -22.00002,-1.25332 -0.86897,-0.376 -4.23623,3.75997 -10.16028,-2.08888 -1.27003,-1.25332 -4.22788,-1.25332 -7.19408,-4.59552 -1.24497,-1.40372 -4.654009,0 -7.19408,-5.84885 -0.526396,-1.21154 -2.966201,2.50665 -9.308022,-7.51994 -2.122295,-3.3422 -5.506271,0.41777 -5.080141,-8.77327 0.142044,-3.00798 -4.654011,-0.41778 -4.236236,-7.51995 0.0752,-1.25332 -5.071786,-4.17775 -2.11394,-8.77327 1.136347,-1.76301 -2.957846,-4.17775 0.42613,-10.02659 1.345235,-2.32283 -8.288651,-1.51235 0.843905,-15.03989 1.696166,-2.50665 0,-3.75998 4.654011,-9.19105 0.125332,-0.14204 1.270035,-10.44437 9.316377,-11.27992 1.328524,-0.13369 -19.468304,0.41778 -19.050529,-24.64871 0.02507,-1.32017 1.437145,1.53741 0,0 -5.071786,-5.43107 -7.169015,-15.290555 -8.037987,-16.293214 -5.080141,-5.848847 -3.810105,-12.951018 -3.810105,-12.951018 0,0 -14.730739,-16.752768 -16.928234,-20.888738 -42.31222852,-79.794981 79.059691,-14.404874 82.527221,-12.115468 56.28262,37.181954 70.00234,66.426188 70.00234,66.426188 0,0 0.3008,-2.13065 0.83555,-3.3422 0.53476,-1.20319 1.30346,-1.51234 1.11129,-1.6711 z m 32.16865,11.27992 c 2.54007,-0.0836 7.71212,2.54843 10.86215,1.6711 21.24802,-5.89898 61.26249,-0.46791 63.91954,0.41777 10.02659,3.3422 16.71099,-20.47096 -4.59553,-20.47096 -26.34487,0 -20.88874,-1.6711 -38.43528,-4.177746 -1.48727,-0.208888 -22.99432,7.770606 -43.0308,19.217636 -2.92442,1.6711 -1.25332,3.75997 11.27992,3.3422 z m -15.87544,-4.17775 c 2.1223,0.23396 12.53324,-7.10217 45.11968,-20.053185 1.98025,-0.785417 2.08887,-5.013298 19.63541,-12.951018 1.1447,-0.518041 -0.41777,-3.342198 11.69769,-13.368793 5.99089,-4.954809 -14.62211,-4.177747 -19.21764,-3.342198 -4.59552,0.83555 -15.87544,10.026595 -15.87544,10.026595 0,0 12.68365,-10.085083 8.3555,-8.773271 -9.60882,2.924424 -34.67531,30.497558 -43.0308,42.19525 -8.3555,11.69769 13.78656,-20.053187 19.21764,-25.066484 5.43107,-5.013297 -41.35971,29.662004 -25.90204,31.333104 z M 306.46794,100.084 c 12.13218,2.43145 10.86215,-15.457669 4.59553,-16.293218 -9.66731,-1.286747 -28.08282,-0.685151 -33.42199,1.253324 -13.78656,5.013297 -17.40449,10.051661 -16.29321,10.444369 23.81316,8.355495 40.94193,3.759973 45.11967,4.595525 z m -0.41777,-18.382092 c 4.94645,0.618306 13.36879,2.506648 13.78657,-4.177748 0.20888,-3.358909 11.69769,2.506649 14.20434,2.924423 2.07216,0.342576 -8.77327,-4.002282 -12.53324,-6.684396 -2.92443,-2.088874 -3.43411,-4.478545 -3.75998,-4.595522 -26.73758,-9.60882 -38.0175,12.951017 -38.0175,12.951017 0,0 22.97761,-0.835549 26.31981,-0.417774 z m 54.72849,-36.76418 c -4.17774,-6.684396 -11.66427,-4.628944 -14.20434,-7.519946 -12.11547,-13.786567 -40.17322,3.893661 -17.12876,2.088874 26.73758,-2.088874 31.82608,6.224844 31.3331,5.431072 z m -20.05319,3.342198 c 11.28828,0 16.29322,5.013298 15.45767,4.177748 -5.84885,-5.848847 -10.86214,-4.595522 -12.11547,-6.266622 -7.4531,-9.934683 -29.66201,0.417775 -27.99091,2.924424 1.6711,2.506648 21.72429,-0.83555 24.64871,-0.83555 z m -38.85305,7.937721 c -17.54654,4.177748 -10.02659,10.444369 -7.93772,10.026594 16.23473,-3.241932 11.59743,-10.895566 7.93772,-10.026594 z m 8.77327,-20.053189 c -7.93772,0.83555 -8.47247,15.298912 -4.59552,12.533243 5.84885,-4.177748 12.53324,-13.368792 4.59552,-12.533243 z m -20.88874,19.635414 c 11.6977,-4.595522 2.92443,-6.684396 -0.83555,-6.266621 -3.75997,0.417774 -6.54235,6.124578 -5.43107,8.355495 2.50665,5.013297 4.00228,-1.194836 6.26662,-2.088874 z m 36.76418,38.017504 c 3.75998,-2.088874 -0.83555,-7.102171 -4.17774,-5.013297 -3.3422,2.088874 0.41777,7.102171 4.17774,5.013297 z m -7.93772,-35.510855 c 9.83442,9.834418 13.78657,4.595522 15.87544,3.759973 6.78467,-2.715536 14.20435,4.595522 12.95102,3.342198 -6.0828,-6.082801 -10.02659,-5.013297 -10.86214,-6.266622 -6.35853,-9.541975 -15.84202,-3.492597 -17.96432,-3.342198 -5.84884,0.417775 -13.10977,4.520323 -10.44437,3.759973 2.92443,-0.835549 9.19105,-2.506649 10.44437,-1.253324 z m 27.99091,-28.826459 c 5.84885,-4.177748 -1.85492,-5.238896 -3.3422,-5.013298 -5.43107,0.83555 -2.50665,9.191045 3.3422,5.013298 z M 213.72195,143.95035 c 4.59552,5.43107 55.98181,86.89715 48.04409,59.74179 -1.07786,-3.69313 2.92443,11.27992 7.51995,2.92442 1.28675,-2.33954 8.48083,-2.58185 -13.78657,-39.6886 -1.25332,-2.08888 -18.38209,-8.77327 -35.51085,-27.57314 -2.59021,-2.84922 -10.08509,0.0836 -6.26662,4.59553 z m 46.37299,28.82646 c 3.75998,5.84884 13.10978,25.44248 13.78657,28.40868 2.08888,9.19104 7.93772,-1.25332 9.19105,-0.83555 10.99583,3.66806 2.92442,-6.26662 2.08887,-8.77327 -7.66199,-22.97761 -25.48426,-20.88874 -25.48426,-20.88874 0,0 -3.3422,-3.75997 0.41777,2.08888 z m -22.14206,33.83975 c 10.56135,15.01483 14.62212,9.19105 16.71099,7.51995 6.43373,-5.14699 -34.49148,-57.63621 -37.18195,-60.99512 -3.3422,-4.17775 -3.3422,19.63542 20.47096,53.47517 z m 38.85306,-30.91533 c 5.43107,4.17775 11.48045,21.78278 14.62211,21.30651 8.3555,-1.25332 3.3422,-8.35549 5.43107,-7.10217 2.08888,1.25333 6.26663,-0.97759 5.0133,-3.3422 -10.44437,-19.63541 -26.73758,-13.36879 -26.73758,-13.36879 0,0 -3.75998,-1.6711 1.6711,2.50665 z m -53.89295,-42.19525 c -16.29322,0 38.85305,45.11967 54.72849,36.3464 3.29207,-1.8215 -4.17774,-2.92442 -2.92442,-12.53324 0.23396,-1.75466 -11.27992,-5.0133 -11.27992,-15.87544 0,-3.54273 -6.61755,-5.0133 -27.57313,-5.0133 -3.75997,0 4.10255,-2.92442 -12.95102,-2.92442 z m 60.15957,37.59973 c 15.26549,1.69616 18.89177,13.51919 20.88874,12.11546 23.81316,-16.71099 -18.99205,-23.52907 -26.73759,-22.55983 -3.3422,0.41777 2.08887,10.02659 5.84885,10.44437 z M 225.41964,129.746 c 2.92442,2.08888 12.95102,10.44437 45.11967,3.3422 1.22826,-0.26737 -24.23093,-0.41777 -27.57313,-1.25332 -3.3422,-0.83555 -19.52679,-3.50095 -17.54654,-2.08888 z m 55.56404,28.82646 c 31.33311,7.51995 23.06117,2.28941 24.23094,1.6711 7.10217,-3.75997 -0.66008,-4.50361 0.41777,-5.84884 3.51767,-4.39499 -5.84884,-7.10218 -25.48426,-9.19105 -4.64565,-0.49297 -13.85341,-2.79909 -14.20434,-2.08887 -2.92442,5.84884 11.03761,14.49678 15.03989,15.45766 z m 5.0133,-13.78656 c 27.15536,4.59552 10.11851,-3.91873 10.44437,-4.17775 9.60882,-7.51995 -22.14206,-7.51995 -22.14206,-7.51995 0,0 -13.64453,3.24193 -13.3688,3.75998 3.75998,7.10217 21.74936,7.3779 25.06649,7.93772 z m -51.3863,59.74179 c 0,0 -24.23093,-38.85306 -19.21764,-54.7285 1.01102,-3.18344 -10.86214,-18.79986 -5.43107,7.51995 0.0836,0.40942 -1.02772,-5.58983 -2.92442,-8.3555 -1.8967,-2.76567 -4.54539,-1.85492 -2.92442,6.26663 4.08583,20.41247 30.49755,49.29742 30.49755,49.29742 z M 267.61489,62.484268 c 6.26662,-1.671099 3.3422,-3.759972 -0.41777,-4.595522 -3.75998,-0.83555 -5.84885,6.266621 0.41777,4.595522 z m -84.9921,54.728492 c -20.28714,-11.44703 -42.07827,-19.426524 -43.59062,-19.217636 -17.77214,2.506646 -12.2408,4.177746 -38.92825,4.177746 -21.582243,0 -14.814292,23.81316 -4.654009,20.47096 2.690469,-0.88568 43.222979,-6.31675 64.746729,-0.41777 3.18345,0.87733 8.4307,-1.75466 11.00419,-1.6711 12.692,0.41777 14.38816,-1.6711 11.42196,-3.3422 z M 161.04055,85.044106 c 5.49791,5.013297 27.93242,36.764174 19.4683,25.066484 -8.46412,-11.697692 -33.85647,-39.270826 -43.59062,-42.19525 -4.37828,-1.311812 8.46412,8.773271 8.46412,8.773271 0,0 -11.42196,-9.191045 -16.08433,-10.026595 -4.65401,-0.835549 -25.52604,-1.612611 -19.45995,3.342198 12.26587,10.026595 10.68668,12.850752 11.84809,13.368793 17.77214,7.93772 17.88076,12.165601 19.88608,12.951018 33.01257,12.951015 43.5572,20.287145 45.70456,20.053185 15.6582,-1.6711 -31.73417,-36.346401 -26.23625,-31.333104 z m -23.27841,10.444369 c 1.13634,-0.392708 -2.53172,-5.431072 -16.50211,-10.444369 -5.406,-1.938475 -24.063821,-2.540071 -33.856462,-1.253324 -6.34182,0.835549 -7.628567,18.724668 4.654011,16.293218 4.236237,-0.835552 21.582241,3.75997 45.704561,-4.595525 z M 119.14609,82.119682 c 0,0 -11.43031,-22.559837 -38.510473,-12.951017 -0.325864,0.116977 -0.843905,2.506648 -3.810106,4.595522 -3.80175,2.682114 -14.789226,7.026972 -12.691997,6.684396 2.540071,-0.417774 14.17092,-6.283332 14.388163,-2.924423 0.417775,6.684396 8.957091,4.796054 13.962033,4.177748 3.383975,-0.417775 26.66238,0.417774 26.66238,0.417774 z M 68.787525,39.506656 c 23.336898,1.804787 -5.080141,-15.875441 -17.354364,-2.088874 -2.573493,2.891002 -10.151927,0.83555 -14.388163,7.519946 -0.50133,0.793772 4.654011,-7.519946 31.742527,-5.431072 z m 13.544258,9.60882 c 1.68781,-2.506649 -20.805184,-12.859107 -28.358551,-2.924424 -1.270036,1.6711 -6.350177,0.417775 -12.274223,6.266622 -0.843905,0.83555 4.227881,-4.177748 15.658198,-4.177748 2.966201,0 23.27841,3.342198 24.974576,0.83555 z m 14.388163,7.102171 C 114.49208,60.395395 106.87187,66.662016 104.75793,66.244241 88.314317,63.002309 93.010106,55.348675 96.719946,56.217647 z M 92.48371,48.697701 c 3.927082,2.765669 3.383975,-11.697693 -4.654011,-12.533243 -8.037987,-0.835549 -1.270036,8.355495 4.654011,12.533243 z m 22.85228,9.191045 c 1.12799,-2.230917 -1.69617,-7.937721 -5.49792,-8.355495 -3.8101,-0.417775 -12.700349,1.671099 -0.85226,6.266621 2.29776,0.894038 3.81011,7.102171 6.35018,2.088874 z M 75.981606,88.804079 c -3.383975,-2.088874 -8.046342,2.924423 -4.236236,5.013297 3.810106,2.088874 7.620212,-2.924423 4.236236,-5.013297 z M 90.369769,59.559845 c 2.698825,0.76035 -4.654011,-3.342198 -10.578057,-3.759973 -2.155718,-0.150399 -11.756182,-6.199777 -18.198269,3.342198 -0.85226,1.253325 -4.846187,0.183821 -11.004187,6.266622 -1.270035,1.253324 6.241555,-6.057734 13.118128,-3.342198 2.11394,0.835549 6.124578,6.074445 16.084328,-3.759973 1.270036,-1.253325 7.611856,0.417775 10.578057,1.253324 z M 54.817137,24.466764 c -1.50399,-0.225598 -9.308022,0.83555 -3.383976,5.013298 5.924046,4.177747 8.890247,-4.177748 3.383976,-5.013298 z M 179.66495,139.35482 c -17.35437,18.79987 -34.70873,25.48426 -35.97877,27.57314 -22.55148,37.10675 -15.26549,37.34906 -13.96203,39.6886 4.65401,8.3555 8.71478,-6.61755 7.62021,-2.92442 -8.04634,27.15536 44.0084,-54.31072 48.66241,-59.74179 3.86859,-4.51197 -3.7182,-7.44475 -6.34182,-4.59553 z m -40.20665,31.33311 c 0,0 -18.05622,-2.08887 -25.81848,20.88874 -0.8439,2.50665 -9.01558,12.44133 2.1223,8.77327 1.27003,-0.41777 7.19408,10.02659 9.30802,0.83555 0.68515,-2.9662 10.16028,-22.55984 13.96203,-28.40868 3.81011,-5.84885 0.42613,-2.08888 0.42613,-2.08888 z m 42.73836,-17.54654 c -2.71553,3.35891 -44.1755,55.84813 -37.65822,60.99512 2.11394,1.6711 6.22485,7.49488 16.92824,-7.51995 24.12231,-33.83975 24.12231,-57.65292 20.72998,-53.47517 z m -58.39656,20.05319 c 0,0 -16.5021,-6.26662 -27.080154,13.36879 -1.278391,2.36461 2.957845,4.59553 5.071784,3.3422 2.1223,-1.25332 -2.957844,5.84885 5.50627,7.10217 3.18345,0.47627 9.30802,-17.12876 14.80594,-21.30651 5.50627,-4.17775 1.69616,-2.50665 1.69616,-2.50665 z m 39.78052,-36.76418 c -21.23132,0 -27.93242,1.47057 -27.93242,5.0133 0,10.86214 -11.65592,14.12078 -11.42197,15.87544 1.27004,9.60882 -6.30004,10.71174 -2.9662,12.53324 16.08433,8.77327 71.94082,-36.3464 55.43872,-36.3464 -17.27081,0 -9.30803,2.92442 -13.11813,2.92442 z m -41.89446,24.23094 c -7.8458,-0.96924 -51.210825,5.84884 -27.08851,22.55983 2.02203,1.40373 5.69845,-10.4193 21.16447,-12.11546 3.8101,-0.41778 9.30802,-10.0266 5.92404,-10.44437 z m 34.70038,-28.82646 c -3.38398,0.83555 -29.16904,0.98595 -27.93242,1.25332 32.58643,7.10217 42.74671,-1.25332 45.70456,-3.3422 2.00531,-1.41207 -14.38817,1.25333 -17.77214,2.08888 z m -23.27841,11.27992 c -0.35929,-0.71022 -9.68402,1.5959 -14.38817,2.08887 -19.886074,2.08887 -29.377917,4.79606 -25.81012,9.19105 1.086214,1.34523 -6.776307,2.08887 0.417775,5.84884 1.18648,0.61831 -7.194082,5.84885 24.548445,-1.6711 4.05241,-0.96088 18.19827,-9.60882 15.23207,-15.45766 z m 5.08014,-6.26662 c 0.28408,-0.51805 -13.54426,-3.75998 -13.54426,-3.75998 0,0 -32.1603,0 -22.42615,7.51995 0.33422,0.25902 -16.928232,8.77327 10.57806,4.17775 3.36726,-0.55982 21.58224,-0.83555 25.39235,-7.93772 z m 57.55265,18.38209 c 1.64603,-8.12155 -1.04444,-9.0323 -2.95785,-6.26663 -1.92176,2.76567 -3.04975,8.76492 -2.9662,8.3555 5.50627,-26.31981 -6.51728,-10.70339 -5.49791,-7.51995 5.07178,15.87544 -19.46831,54.7285 -19.46831,54.7285 0,0 26.7543,-28.88495 30.89027,-49.29742 z M 131.83809,57.888746 c -3.8101,0.83555 -6.76795,2.924423 -0.41777,4.595522 6.34182,1.671099 4.22788,-5.431072 0.41777,-4.595522 z"
     id="path4750"
     inkscape:connector-curvature="0" />
  <path
     style="fill:#fff6e3;stroke:none"
     d="m 329.95524,64.247278 c -3.72655,0.467908 -7.10217,0.835549 -7.93772,-3.759973 -0.83555,-4.595522 1.25333,-6.266621 7.51995,-4.595522 6.26662,1.671099 10.44437,7.102171 0.41777,8.355495 z m -30.49756,2.924423 c 0,0 -15.64148,3.693129 -1.25332,-7.102171 6.6844,-5.013297 7.10217,-0.835549 7.51994,1.671099 0.62667,3.734907 -6.26662,5.431072 -6.26662,5.431072 z m 47.62633,-33.839756 c -6.97684,-1.395368 -6.6844,-5.431072 0.83555,-7.102171 1.22825,-0.267376 3.34219,7.937721 -0.83555,7.102171 z m 4.17774,0 c 2.08888,-0.417775 5.43108,0.417775 5.84885,3.342198 0.41778,2.924424 -2.92442,4.595523 -5.0133,2.924424 -2.08887,-1.671099 -2.92442,-5.848847 -0.83555,-6.266622 z m -5.01329,9.191045 c 2.08887,-0.83555 8.35549,0.417775 7.93772,2.924423 -0.41778,2.506649 -5.43107,2.924424 -7.51995,1.671099 -2.08887,-1.253324 -2.50665,-3.759972 -0.41777,-4.595522 z m 0.83555,14.622117 c 2.50665,-2.088874 5.43107,0 6.26662,1.253324 0.83555,1.253324 -3.3422,2.924424 -4.59552,3.342198 -1.25333,0.417775 -4.17775,-2.506648 -1.6711,-4.595522 z m 9.60882,-30.915333 c 0,0 3.34219,0 2.50665,1.253324 -0.83555,1.253324 -3.3422,1.253324 -3.3422,1.253324 z m 5.01329,7.519946 c 0,0 3.3422,0 2.50665,1.253324 -0.83555,1.253325 -3.3422,1.253325 -3.3422,1.253325 z m -27.15536,40.106378 c 0,0 4.17775,1.671099 3.3422,2.924423 -0.83555,1.253324 -2.08887,3.342198 -5.0133,0.417775 -2.92442,-2.924424 1.6711,-3.342198 1.6711,-3.342198 z m -11.27991,16.293216 c 2.50664,-2.088874 5.43107,0 6.26662,1.253324 0.83555,1.253324 -3.3422,2.924423 -4.59553,3.342198 -1.25332,0.417775 -4.17774,-2.506649 -1.67109,-4.595522 z m 1.67109,-8.355496 c 2.50665,-2.088874 4.59553,0.83555 5.43108,2.088874 0.83555,1.253324 -2.50665,2.088874 -3.75998,2.506649 -1.25332,0.417774 -4.17774,-2.506649 -1.6711,-4.595523 z M 310.7376,53.802909 c -2.98291,0.16711 -7.93772,-1.253325 -0.41777,-6.266622 6.95177,-4.628944 6.68439,-3.342198 7.10217,-0.835549 0.62666,3.734906 -3.70149,6.943416 -6.6844,7.102171 z m -25.48426,7.519946 c 0,0 -2.92442,-2.506649 2.92442,-7.519946 6.35018,-5.431072 5.43108,-3.342198 5.84885,-0.83555 0.62666,3.734907 -8.77327,8.355496 -8.77327,8.355496 z m 25.90204,-22.142063 c 0,0 5.01329,-0.83555 4.17774,0.417775 -0.83555,1.253324 -2.92442,5.848846 -5.84884,2.924423 -2.92443,-2.924423 1.6711,-3.342198 1.6711,-3.342198 z m 27.99091,25.484261 c 1.15305,0 2.08887,0.944171 2.08887,2.088874 0,1.153058 -0.93582,2.088873 -2.08887,2.088873 -1.14471,0 -2.08888,-0.935815 -2.08888,-2.088873 0,-1.144703 0.94417,-2.088874 2.08888,-2.088874 z m -4.17775,20.470963 c 1.15306,0 2.08887,0.944171 2.08887,2.088874 0,1.153058 -0.93581,2.088874 -2.08887,2.088874 -1.1447,0 -2.08888,-0.935816 -2.08888,-2.088874 0,-1.144703 0.94418,-2.088874 2.08888,-2.088874 z m -3.3422,8.355496 c 1.15306,0 2.08887,0.944171 2.08887,2.088873 0,1.153059 -0.93581,2.088874 -2.08887,2.088874 -1.1447,0 -2.08887,-0.935815 -2.08887,-2.088874 0,-1.144702 0.94417,-2.088873 2.08887,-2.088873 z m -13.36879,5.431072 c 1.15306,0 2.08887,0.944171 2.08887,2.088876 0,1.15306 -0.93581,2.08887 -2.08887,2.08887 -1.14471,0 -2.08888,-0.93581 -2.08888,-2.08887 0,-1.144705 0.94417,-2.088876 2.08888,-2.088876 z m 7.10217,1.253326 c 1.15306,0 3.3422,1.77972 3.3422,2.92442 0,1.15306 -2.18914,1.25332 -3.3422,1.25332 -1.1447,0 -2.08887,-0.93581 -2.08887,-2.08887 0,-1.1447 0.94417,-2.08887 2.08887,-2.08887 z m 20.05319,-32.586434 c 1.15306,0 2.08887,0.944171 2.08887,2.088874 0,1.153058 -0.93581,2.088874 -2.08887,2.088874 -1.14471,0 -2.08888,-0.935816 -2.08888,-2.088874 0,-1.144703 0.94417,-2.088874 2.08888,-2.088874 z m 11.27992,-19.635414 c 1.15305,0 2.08887,0.944171 2.08887,2.088874 0,1.153058 -0.93582,2.088874 -2.08887,2.088874 -1.14471,0 -2.08888,-0.935816 -2.08888,-2.088874 0,-1.144703 0.94417,-2.088874 2.08888,-2.088874 z m -79.37721,6.684396 c 1.93848,0.777061 11.27992,-5.431072 8.3555,-6.266621 -2.92443,-0.83555 -10.44437,5.431072 -8.3555,6.266621 z m 15.87544,-10.862144 c 2.08888,0.417775 8.3555,-2.088874 5.43107,-2.924423 -2.92442,-0.83555 -7.63692,2.489938 -5.43107,2.924423 z m -40.10638,25.484261 c 4.59553,-2.506648 17.54654,-8.77327 11.27992,-7.93772 -6.26662,0.835549 -15.22371,10.093438 -11.27992,7.93772 z m 77.28834,-41.359702 c 2.08887,0.417775 8.35549,-2.088874 5.43107,-2.924423 -2.92443,-0.83555 -7.63692,2.489937 -5.43107,2.924423 z m -60.15957,30.497558 c 2.08887,0.417775 6.26662,-1.671099 3.3422,-2.506648 -2.92443,-0.83555 -5.54805,2.072162 -3.3422,2.506648 z m 52.63962,52.221849 c 1.15306,0 2.08887,1.36194 2.08887,2.50664 0,1.15306 -0.51804,1.25333 -1.67109,1.25333 -1.14471,0 -2.08888,-0.93582 -2.08888,-2.08888 0,-1.1447 0.5264,-1.67109 1.6711,-1.67109 z m -6.26662,-0.41778 c 1.15306,0 2.92442,0.5264 2.92442,1.6711 0,1.15306 -2.18914,0.83555 -3.3422,0.83555 -1.1447,0 -2.08887,-0.93582 -2.08887,-2.08887 0,-1.14471 1.36195,-0.41778 2.50665,-0.41778 z m 1.6711,12.11547 c 1.15306,0 3.3422,1.77972 3.3422,2.92442 0,1.15306 -2.18914,1.25333 -3.3422,1.25333 -1.14471,0 -2.08888,-0.93582 -2.08888,-2.08888 0,-1.1447 0.94417,-2.08887 2.08888,-2.08887 z m -10.0266,17.12876 c 3.3422,-0.83555 3.3422,0.83555 4.17775,3.75998 0.83555,2.92442 6.74289,12.43297 -2.92442,0.83555 -2.08888,-2.50665 -4.59552,-3.75998 -1.25333,-4.59553 z m 10.0266,10.0266 c 1.15306,0 2.08887,0.94417 2.08887,2.08887 0,1.15306 -0.93581,2.08888 -2.08887,2.08888 -1.14471,0 -2.08888,-0.93582 -2.08888,-2.08888 0,-1.1447 0.94417,-2.08887 2.08888,-2.08887 z m 2.08887,7.51994 c 1.15306,0 2.08888,0.94418 2.08888,2.08888 0,1.15306 -0.93582,2.08887 -2.08888,2.08887 -1.1447,0 -2.08887,-0.93581 -2.08887,-2.08887 0,-1.1447 0.94417,-2.08888 2.08887,-2.08888 z m 0.14205,7.51995 c 1.1447,0 2.78238,2.61527 2.78238,3.75997 0,1.15306 -0.93582,2.08888 -2.08888,2.08888 -1.1447,0 -3.47588,-1.35359 -3.47588,-2.50665 0,-1.1447 1.62932,-3.3422 2.78238,-3.3422 z m 1.11128,13.36879 c 1.15305,0 0.83555,0.10862 0.83555,1.25333 0,1.15306 -0.10027,0.41777 -1.25333,0.41777 -1.1447,0 -0.83555,0.73529 -0.83555,-0.41777 0,-1.14471 0.10862,-1.25333 1.25333,-1.25333 z m -11.27992,-27.57313 c 1.15306,0 0.83555,0.10862 0.83555,1.25332 0,1.15306 -0.10027,0.41778 -1.25333,0.41778 -1.1447,0 -0.83555,0.73528 -0.83555,-0.41778 0,-1.1447 0.10862,-1.25332 1.25333,-1.25332 z m 2.50665,10.44437 c 1.15305,0 0.83555,0.10862 0.83555,1.25332 0,1.15306 0.17546,4.17775 -0.96924,4.17775 -1.15306,0 -1.11964,-3.02469 -1.11964,-4.17775 0,-1.1447 0.10862,-1.25332 1.25333,-1.25332 z m 2.92442,11.69769 c 1.15306,0 0.83555,0.10862 0.83555,1.25333 0,1.15305 -0.10027,0.41777 -1.25333,0.41777 -1.1447,0 -0.83555,0.73528 -0.83555,-0.41777 0,-1.14471 0.10863,-1.25333 1.25333,-1.25333 z m -5.14699,11.27992 c 1.14471,0 0.96924,0.10862 0.96924,1.25332 0,1.15306 -0.24231,0.41778 -1.38701,0.41778 -1.15306,0 -0.70186,0.73528 -0.70186,-0.41778 0,-1.1447 -0.0334,-1.25332 1.11963,-1.25332 z m 7.37791,2.79074 c 1.1447,0 2.23091,1.62932 2.23091,2.78238 0,1.1447 -2.47322,3.20015 -3.62628,3.20015 -1.1447,0 -0.83555,0.73528 -0.83555,-0.41777 0,-1.14471 1.07786,-5.56476 2.23092,-5.56476 z m -4.73757,11.97342 c 1.15306,0 3.06647,-0.31751 3.06647,0.83555 0,1.1447 -2.74896,3.20015 -3.90202,3.20015 -1.1447,0 -0.83555,0.73529 -0.83555,-0.41777 0,-1.1447 0.5264,-3.61793 1.6711,-3.61793 z m -7.10217,-5.99089 c 1.15306,0 0.83555,0.10862 0.83555,1.25332 0,1.15306 -0.10027,0.41778 -1.25333,0.41778 -1.1447,0 -0.83554,0.73528 -0.83554,-0.41778 0,-1.1447 0.10862,-1.25332 1.25332,-1.25332 z m -2.08887,16.01748 c 1.15305,0 2.23091,1.35359 2.23091,2.50665 0,1.14471 -1.91341,0.69351 -3.06646,0.69351 -1.14471,0 -0.83555,0.73528 -0.83555,-0.41778 0,-1.1447 0.52639,-2.78238 1.6711,-2.78238 z m -6.96013,4.45348 c 1.1447,0 0.55982,1.36195 0.55982,2.50665 0,1.15306 -4.14433,3.75997 -5.29739,3.75997 -1.1447,0 -0.83555,0.73529 -0.83555,-0.41777 0,-1.1447 4.42006,-5.84885 5.57312,-5.84885 z m 0.6935,-13.36879 c 1.15306,0 0.83555,0.10862 0.83555,1.25333 0,1.15305 -0.10026,0.41777 -1.25332,0.41777 -1.1447,0 -0.83555,0.73528 -0.83555,-0.41777 0,-1.14471 0.10862,-1.25333 1.25332,-1.25333 z m -10.02659,7.10217 c 1.15306,0 4.87961,1.49564 4.87961,2.64869 0,1.14471 -4.70414,3.06647 -5.84885,3.06647 -1.15306,0 -1.95518,-1.92176 -1.95518,-3.06647 0,-1.15305 1.77972,-2.64869 2.92442,-2.64869 z m -10.86214,3.75997 c 1.15305,0 0.83555,0.10863 0.83555,1.25333 0,1.15306 -0.10027,0.41777 -1.25333,0.41777 -1.1447,0 -0.83555,0.73529 -0.83555,-0.41777 0,-1.1447 0.10862,-1.25333 1.25333,-1.25333 z m 6.68439,10.0266 c 1.15306,0 0.83555,0.10862 0.83555,1.25332 0,1.15306 -0.10026,0.41778 -1.25332,0.41778 -1.14471,0 -0.83555,0.73528 -0.83555,-0.41778 0,-1.1447 0.10862,-1.25332 1.25332,-1.25332 z m -2.50665,0.83555 c 1.15306,0 0.83555,0.10862 0.83555,1.25332 0,1.15306 -0.10026,0.41778 -1.25332,0.41778 -1.1447,0 -0.83555,0.73528 -0.83555,-0.41778 0,-1.1447 0.10862,-1.25332 1.25332,-1.25332 z m -9.60882,0.28409 c 0.76871,0 1.6711,1.17812 1.6711,1.94683 0,0.7687 -0.0668,0.27573 -0.83555,0.27573 -0.76035,0 -2.78238,1.04443 -2.78238,0.28408 0,-0.7687 1.18648,-2.50664 1.94683,-2.50664 z m 2.50665,2.22256 c 0.76871,0 0.55982,0.0752 0.55982,0.83555 0,0.7687 -0.0668,0.28408 -0.83555,0.28408 -0.7687,0 -0.55982,0.48462 -0.55982,-0.28408 0,-0.76035 0.0752,-0.83555 0.83555,-0.83555 z m -4.45348,-10.86215 c 0.76871,0 1.94683,2.85758 1.94683,3.62629 0,0.76035 -2.57349,0.55146 -3.34219,0.55146 -0.76035,0 -1.94683,-2.29776 -1.94683,-3.05811 0,-0.76871 2.57349,-1.11964 3.34219,-1.11964 z m -9.46677,9.19105 c 1.1447,0 0.96923,0.10862 0.96923,1.25332 0,1.15306 -0.2423,0.41778 -1.38701,0.41778 -1.15306,0 -0.70186,0.73528 -0.70186,-0.41778 0,-1.1447 -0.0334,-1.25332 1.11964,-1.25332 z m -2.50665,-5.84885 c 1.1447,0 -0.55982,2.74896 -0.55982,3.90202 0,1.1447 -3.72655,1.52905 -4.87125,1.52905 -1.15306,0 0.96923,-1.49563 0.96923,-2.64033 0,-1.15306 3.30878,-2.79074 4.46184,-2.79074 z M 69.681563,63.553772 c 3.734906,0.467908 7.102171,0.835549 7.93772,-3.759973 0.83555,-4.595523 -1.253324,-6.266622 -7.519945,-4.595523 -6.266622,1.6711 -10.44437,7.102172 -0.417775,8.355496 z m 30.497557,2.924423 c 0,0 15.64149,3.684774 1.25333,-7.102171 -6.684401,-5.013297 -7.102176,-0.835549 -7.519951,1.671099 -0.618306,3.734907 6.266621,5.431072 6.266621,5.431072 z M 52.552797,32.638439 c 6.976839,-1.395368 6.684397,-5.431072 -0.835549,-7.102171 -1.219902,-0.275732 -3.342198,7.937721 0.835549,7.102171 z m -4.177747,0 c -2.088874,-0.417775 -5.431072,0.417775 -5.848847,3.342198 -0.417775,2.924424 2.924423,4.595523 5.013297,2.924424 2.088874,-1.6711 2.924424,-5.848847 0.83555,-6.266622 z m 5.013297,9.191045 c -2.088874,-0.83555 -8.355495,0.417775 -7.937721,2.924423 0.417775,2.506649 5.431072,2.924424 7.519946,1.671099 2.088874,-1.253324 2.506649,-3.759973 0.417775,-4.595522 z m -0.83555,14.622117 c -2.506648,-2.088874 -5.431072,0 -6.266621,1.253324 -0.83555,1.253324 3.342198,2.924423 4.595522,3.342198 1.253325,0.417775 4.177748,-2.506648 1.671099,-4.595522 z M 42.943978,25.536268 c 0,0 -3.342198,0 -2.506649,1.253324 0.83555,1.253324 3.342198,1.253324 3.342198,1.253324 z m -5.013297,7.519946 c 0,0 -3.342199,0 -2.506649,1.253324 0.835549,1.253324 3.342198,1.253324 3.342198,1.253324 z M 65.08604,73.162591 c 0,0 -4.177747,1.6711 -3.342198,2.924424 0.83555,1.253324 2.088874,3.342198 5.013297,0.417775 2.924424,-2.924424 -1.671099,-3.342199 -1.671099,-3.342199 z m 11.279919,16.293216 c -2.506648,-2.088873 -5.431072,0 -6.266621,1.253325 -0.83555,1.253324 3.342198,2.924423 4.595522,3.342198 1.253324,0.417775 4.177748,-2.506649 1.671099,-4.595523 z M 74.69486,81.100312 c -2.506649,-2.088874 -4.595522,0.83555 -5.431072,2.088874 -0.835549,1.253324 2.506649,2.088874 3.759973,2.506648 1.253324,0.417775 4.177748,-2.506648 1.671099,-4.595522 z M 88.899202,53.109403 c 2.982912,0.16711 7.937721,-1.253325 0.417775,-6.266622 -6.951772,-4.6373 -6.684396,-3.342198 -7.102171,-0.835549 -0.618307,3.734906 3.701484,6.935061 6.684396,7.102171 z m 25.484258,7.519945 c 0,0 2.92442,-2.506648 -2.92442,-7.519945 -6.34182,-5.439428 -5.43107,-3.342199 -5.84885,-0.83555 -0.6183,3.734907 8.77327,8.355495 8.77327,8.355495 z M 88.481427,38.487286 c 0,0 -5.013297,-0.83555 -4.177747,0.417775 0.835549,1.253324 2.924423,5.848846 5.848846,2.924423 2.924424,-2.924423 -1.671099,-3.342198 -1.671099,-3.342198 z M 60.490518,63.971547 c -1.144703,0 -2.088874,0.944171 -2.088874,2.088873 0,1.153059 0.944171,2.088874 2.088874,2.088874 1.153058,0 2.088874,-0.935815 2.088874,-2.088874 0,-1.144702 -0.935816,-2.088873 -2.088874,-2.088873 z m 4.177748,20.470963 c -1.144703,0 -2.088874,0.944171 -2.088874,2.088874 0,1.153058 0.944171,2.088874 2.088874,2.088874 1.153058,0 2.088873,-0.935816 2.088873,-2.088874 0,-1.144703 -0.935815,-2.088874 -2.088873,-2.088874 z m 3.342198,8.355496 c -1.144703,0 -2.088874,0.944171 -2.088874,2.088873 0,1.153059 0.944171,2.088874 2.088874,2.088874 1.153058,0 2.088874,-0.935815 2.088874,-2.088874 0,-1.144702 -0.935816,-2.088873 -2.088874,-2.088873 z m 13.368792,5.431072 c -1.144703,0 -2.088873,0.94417 -2.088873,2.088872 0,1.15306 0.94417,2.08888 2.088873,2.08888 1.153059,0 2.088874,-0.93582 2.088874,-2.08888 0,-1.144702 -0.935815,-2.088872 -2.088874,-2.088872 z m -7.102171,1.253324 c -1.144703,0 -3.342198,1.779718 -3.342198,2.924428 0,1.15305 2.197495,1.25332 3.342198,1.25332 1.153059,0 2.088874,-0.93582 2.088874,-2.08887 0,-1.14471 -0.935815,-2.088878 -2.088874,-2.088878 z M 54.223896,66.89597 c -1.144702,0 -2.088873,0.944171 -2.088873,2.088874 0,1.153058 0.944171,2.088874 2.088873,2.088874 1.153059,0 2.088874,-0.935816 2.088874,-2.088874 0,-1.144703 -0.935815,-2.088874 -2.088874,-2.088874 z M 42.943978,47.260556 c -1.144703,0 -2.088874,0.944171 -2.088874,2.088874 0,1.153058 0.944171,2.088874 2.088874,2.088874 1.153058,0 2.088874,-0.935816 2.088874,-2.088874 0,-1.144703 -0.935816,-2.088874 -2.088874,-2.088874 z m 79.377202,6.684396 c -1.93847,0.777061 -11.27992,-5.431072 -8.35549,-6.266621 2.92442,-0.83555 10.44437,5.431072 8.35549,6.266621 z M 106.44574,43.082808 c -2.08887,0.417775 -8.355493,-2.088874 -5.43107,-2.924423 2.92442,-0.83555 7.63692,2.481582 5.43107,2.924423 z m 40.10638,25.484261 c -4.59552,-2.506649 -17.54654,-8.77327 -11.27992,-7.937721 6.26662,0.83555 15.23207,10.093439 11.27992,7.937721 z M 69.263788,27.207367 c -2.088874,0.417775 -8.355495,-2.088874 -5.431072,-2.924424 2.924423,-0.835549 7.636923,2.481583 5.431072,2.924424 z m 60.159562,30.497558 c -2.08887,0.417775 -6.26662,-1.671099 -3.3422,-2.506649 2.92443,-0.835549 5.54805,2.063808 3.3422,2.506649 z M 76.783734,109.92677 c -1.144703,0 -2.088874,1.36195 -2.088874,2.50665 0,1.15306 0.526396,1.25332 1.671099,1.25332 1.153058,0 2.088874,-0.93581 2.088874,-2.08887 0,-1.1447 -0.518041,-1.6711 -1.671099,-1.6711 z m 6.266621,-0.41778 c -1.144702,0 -2.924423,0.5264 -2.924423,1.6711 0,1.15306 2.197495,0.83555 3.342198,0.83555 1.153059,0 2.088874,-0.93581 2.088874,-2.08887 0,-1.1447 -1.35359,-0.41778 -2.506649,-0.41778 z m -1.671099,12.11547 c -1.144703,0 -3.342198,1.77972 -3.342198,2.92443 0,1.15305 2.197495,1.25332 3.342198,1.25332 1.153059,0 2.088874,-0.93581 2.088874,-2.08887 0,-1.14471 -0.935815,-2.08888 -2.088874,-2.08888 z m 10.026595,17.12877 c -3.342198,-0.83555 -3.342198,0.83555 -4.177748,3.75997 -0.835549,2.92442 -6.734529,12.43298 2.924423,0.83555 2.088874,-2.50665 4.595523,-3.75997 1.253325,-4.59552 z m -10.026595,10.02659 c -1.144703,0 -2.088873,0.93582 -2.088873,2.08888 0,1.1447 0.94417,2.08887 2.088873,2.08887 1.153059,0 2.088874,-0.94417 2.088874,-2.08887 0,-1.15306 -0.935815,-2.08888 -2.088874,-2.08888 z m -2.088873,7.51995 c -1.144703,0 -2.088874,0.93581 -2.088874,2.08887 0,1.14471 0.944171,2.08888 2.088874,2.08888 1.153058,0 2.088873,-0.94417 2.088873,-2.08888 0,-1.15306 -0.935815,-2.08887 -2.088873,-2.08887 z m -0.133688,7.51994 c -1.153059,0 -2.790736,2.60692 -2.790736,3.75998 0,1.1447 0.944171,2.08887 2.088874,2.08887 1.153058,0 3.484242,-1.36194 3.484242,-2.50665 0,-1.15306 -1.637678,-3.3422 -2.78238,-3.3422 z m -1.119637,13.3688 c -1.144703,0 -0.835549,0.10026 -0.835549,1.25332 0,1.1447 0.108621,0.41778 1.253324,0.41778 1.153058,0 0.83555,0.72692 0.83555,-0.41778 0,-1.15306 -0.100266,-1.25332 -1.253325,-1.25332 z m 11.279919,-27.57314 c -1.144703,0 -0.83555,0.10027 -0.83555,1.25333 0,1.1447 0.108622,0.41777 1.253325,0.41777 1.153058,0 0.835549,0.72693 0.835549,-0.41777 0,-1.15306 -0.100266,-1.25333 -1.253324,-1.25333 z m -2.506649,10.44437 c -1.144703,0 -0.835549,0.10027 -0.835549,1.25333 0,1.1447 -0.16711,4.17774 0.977593,4.17774 1.153058,0 1.111281,-3.03304 1.111281,-4.17774 0,-1.15306 -0.100266,-1.25333 -1.253325,-1.25333 z m -2.924423,11.69769 c -1.144703,0 -0.83555,0.10027 -0.83555,1.25333 0,1.1447 0.108622,0.41777 1.253325,0.41777 1.153058,0 0.835549,0.72693 0.835549,-0.41777 0,-1.15306 -0.100266,-1.25333 -1.253324,-1.25333 z m 5.155341,11.27992 c -1.144703,0 -0.977593,0.10027 -0.977593,1.25333 0,1.1447 0.250664,0.41777 1.395367,0.41777 1.153059,0 0.693506,0.72693 0.693506,-0.41777 0,-1.15306 0.04178,-1.25333 -1.11128,-1.25333 z m -7.377903,2.78238 c -1.153058,0 -2.230917,1.63768 -2.230917,2.79074 0,1.1447 2.473227,3.20015 3.617929,3.20015 1.153059,0 0.83555,0.72693 0.83555,-0.41777 0,-1.15306 -1.077859,-5.57312 -2.222562,-5.57312 z m 4.729211,11.98178 c -1.144703,0 -3.058112,-0.3175 -3.058112,0.83555 0,1.14471 2.748958,3.20016 3.893661,3.20016 1.153058,0 0.83555,0.72693 0.83555,-0.41778 0,-1.15305 -0.518041,-3.61793 -1.671099,-3.61793 z m 7.102171,-5.99089 c -1.144703,0 -0.83555,0.10027 -0.83555,1.25333 0,1.1447 0.108622,0.41777 1.253324,0.41777 1.153059,0 0.83555,0.72693 0.83555,-0.41777 0,-1.15306 -0.100266,-1.25333 -1.253324,-1.25333 z m 2.088873,16.01749 c -1.144702,0 -2.222561,1.35359 -2.222561,2.50665 0,1.1447 1.913408,0.6935 3.058111,0.6935 1.153058,0 0.83555,0.72693 0.83555,-0.41777 0,-1.15306 -0.518041,-2.78238 -1.6711,-2.78238 z m 6.968482,4.45348 c -1.15306,0 -0.55982,1.35359 -0.55982,2.50665 0,1.1447 4.14433,3.75997 5.28903,3.75997 1.15306,0 0.83555,0.72693 0.83555,-0.41778 0,-1.15305 -4.42006,-5.84884 -5.56476,-5.84884 z m -0.70186,-13.3688 c -1.1447,0 -0.83555,0.10027 -0.83555,1.25333 0,1.1447 0.10862,0.41777 1.25332,0.41777 1.15306,0 0.83555,0.72693 0.83555,-0.41777 0,-1.15306 -0.10026,-1.25333 -1.25332,-1.25333 z m 10.02659,7.10218 c -1.1447,0 -4.87125,1.49563 -4.87125,2.64869 0,1.1447 4.70414,3.05811 5.84885,3.05811 1.15306,0 1.94683,-1.91341 1.94683,-3.05811 0,-1.15306 -1.77137,-2.64869 -2.92443,-2.64869 z m 10.86215,3.75997 c -1.14471,0 -0.83555,0.10026 -0.83555,1.25332 0,1.14471 0.10862,0.41778 1.25332,0.41778 1.15306,0 0.83555,0.72693 0.83555,-0.41778 0,-1.15306 -0.10026,-1.25332 -1.25332,-1.25332 z m -6.6844,10.02659 c -1.1447,0 -0.83555,0.10027 -0.83555,1.25333 0,1.1447 0.10862,0.41777 1.25333,0.41777 1.15305,0 0.83554,0.72693 0.83554,-0.41777 0,-1.15306 -0.10026,-1.25333 -1.25332,-1.25333 z m 2.50665,0.83555 c -1.1447,0 -0.83555,0.10027 -0.83555,1.25333 0,1.1447 0.10862,0.41777 1.25332,0.41777 1.15306,0 0.83555,0.72693 0.83555,-0.41777 0,-1.15306 -0.10026,-1.25333 -1.25332,-1.25333 z m 9.60882,0.27573 c -0.76035,0 -1.6711,1.18648 -1.6711,1.95519 0,0.76035 0.0752,0.27573 0.83555,0.27573 0.7687,0 2.79073,1.04444 2.79073,0.27573 0,-0.76035 -1.18648,-2.50665 -1.95518,-2.50665 z m -2.50665,2.23092 c -0.76035,0 -0.55146,0.0668 -0.55146,0.83555 0,0.76871 0.0668,0.27573 0.83555,0.27573 0.76035,0 0.55146,0.49298 0.55146,-0.27573 0,-0.7687 -0.0668,-0.83555 -0.83555,-0.83555 z m 4.46183,-10.86214 c -0.7687,0 -1.95518,2.85758 -1.95518,3.61793 0,0.7687 2.58185,0.55982 3.3422,0.55982 0.7687,0 1.95518,-2.29777 1.95518,-3.06647 0,-0.76035 -2.58185,-1.11128 -3.3422,-1.11128 z m 9.46678,9.19104 c -1.1447,0 -0.97759,0.10027 -0.97759,1.25333 0,1.1447 0.25066,0.41777 1.39537,0.41777 1.15305,0 0.6935,0.72693 0.6935,-0.41777 0,-1.15306 0.0418,-1.25333 -1.11128,-1.25333 z m 2.50665,-5.84884 c -1.1447,0 0.55982,2.74895 0.55982,3.90201 0,1.1447 3.72655,1.52906 4.87125,1.52906 1.15306,0 -0.97759,-1.49564 -0.97759,-2.64869 0,-1.14471 -3.30042,-2.78238 -4.45348,-2.78238 z m 60.24312,-110.3761 c -1.1447,0 -0.97759,0.10862 -0.97759,1.25333 0,1.15305 0.25066,0.41777 1.39537,0.41777 1.15305,0 0.6935,0.73528 0.6935,-0.41777 0,-1.14471 0.0418,-1.25333 -1.11128,-1.25333 z m -4.59552,0 c -1.1447,0 -0.97759,0.10862 -0.97759,1.25333 0,1.15305 0.25066,0.41777 1.39536,0.41777 1.15306,0 0.69351,0.73528 0.69351,-0.41777 0,-1.14471 0.0418,-1.25333 -1.11128,-1.25333 z m 4.59552,7.51995 c -1.1447,0 -0.97759,0.10862 -0.97759,1.25332 0,1.15306 0.25066,0.41778 1.39537,0.41778 1.15305,0 0.6935,0.73528 0.6935,-0.41778 0,-1.1447 0.0418,-1.25332 -1.11128,-1.25332 z m -5.09685,-0.0836 c -1.1447,0 -0.97759,0.10862 -0.97759,1.25333 0,1.15306 0.25066,0.41777 1.39536,0.41777 1.15306,0 0.69351,0.73529 0.69351,-0.41777 0,-1.14471 0.0418,-1.25333 -1.11128,-1.25333 z m 6.76795,8.85683 c -1.1447,0 -0.83555,0.94417 -0.83555,2.08887 0,1.15306 0.35093,3.75997 1.50399,3.75997 1.1447,0 0.44284,-3.44246 0.44284,-4.59552 0,-1.1447 0.0418,-1.25332 -1.11128,-1.25332 z m -7.51995,0 c -1.1447,0 -1.16977,1.02772 -1.16977,2.17243 0,1.15306 -0.81048,3.84352 0.33422,3.84352 1.15306,0 1.50399,-3.19179 1.50399,-4.34485 0,-1.14471 0.48462,-1.6711 -0.66844,-1.6711 z"
     id="path4752"
     inkscape:connector-curvature="0" />
  <!-- Generated by Jasc WebDraw PR4(tm) on 06/07/01 12:18:39 -->
</svg>
