<?xml version="1.0" encoding="utf-8"?>
<!-- Generator: Adobe Illustrator 15.0.1, SVG Export Plug-In  -->
<!DOCTYPE svg PUBLIC "-//W3C//DTD SVG 1.1 Tiny//EN" "http://www.w3.org/Graphics/SVG/1.1/DTD/svg11-tiny.dtd" [
	<!ENTITY ns_flows "http://ns.adobe.com/Flows/1.0/">
]>
<svg version="1.1" baseProfile="tiny"
	 xmlns="http://www.w3.org/2000/svg" xmlns:xlink="http://www.w3.org/1999/xlink" xmlns:a="http://ns.adobe.com/AdobeSVGViewerExtensions/3.0/"
	 x="0px" y="0px" width="532px" height="348px" viewBox="-0.69 -0.85 532 348" overflow="visible" xml:space="preserve">
<defs>
</defs>
<path d="M420.67,334.84c-4.39,0-7.96-3.57-7.96-7.96s3.57-7.96,7.96-7.96c4.39,0,7.96,3.57,7.96,7.96S425.06,334.84,420.67,334.84
	 M27.41,273.51c0,4.39,3.57,7.96,7.96,7.96s7.96-3.57,7.96-7.96s-3.57-7.96-7.96-7.96S27.41,269.12,27.41,273.51 M422.09,118.46
	c0-2.76-2.24-5-5-5s-5,2.24-5,5c0,2.76,2.24,5,5,5S422.09,121.22,422.09,118.46 M415.89,90.57c0-2.76-2.24-5-5-5c-2.76,0-5,2.24-5,5
	s2.24,5,5,5C413.64,95.57,415.89,93.33,415.89,90.57 M379.49,125.21c0-2.76-2.24-5-5-5s-5,2.24-5,5c0,2.76,2.24,5,5,5
	S379.49,127.97,379.49,125.21 M253.49,148.34c0-2.76-2.24-5-5-5s-5,2.24-5,5c0,2.76,2.24,5,5,5S253.49,151.09,253.49,148.34
	 M471.36,185.26c-0.09-0.09-0.17-0.18-0.26-0.27C471.19,185.08,471.27,185.17,471.36,185.26 M473.26,187.35
	c0.08,0.09,0.17,0.19,0.25,0.28C473.42,187.54,473.34,187.44,473.26,187.35 M461.16,176.6c-13.13-8.66-30.08-12.86-51.83-12.86
	c-16.41,0-32.05,2.38-44.62,4.29l-0.39,0.06c-3.06,0.46-5.63,0.69-7.86,0.69c-8.79,0-11.43-3.64-13-9.93
	c-1.97-7.88-4.01-53.61-3.66-63.3c0.32-9.07,4.31-11.81,12.58-14.22c7.31-2.13,48.29-8.76,64.4-8.76c1.1,0,2.07,0.03,2.89,0.09
	c11.95,0.9,13.46,6.94,14.8,12.27c0.14,0.56,0.28,1.11,0.42,1.64c6.79,24.46,25.42,40,45.15,56.46
	c26.08,21.76,53.06,44.26,50.18,89.17c-1.99,31.04-5,77.96-97.92,110.39c-3.51,1.23-6.93,1.85-10.15,1.85
	c-12.01,0-18.77-8.36-19.02-16.23c-0.38-11.63,7.86-17.81,24.46-18.37c8.49-0.29,32.55-7.29,48.76-26.24
	c12.21-14.29,17.13-31.91,14.61-52.4C487.86,205.96,477.83,187.6,461.16,176.6 M360.99,94.87c-3.79,0-6.88,3.08-6.88,6.88
	s3.08,6.88,6.88,6.88s6.88-3.08,6.88-6.88S364.78,94.87,360.99,94.87 M374.49,118.34c-3.79,0-6.88,3.08-6.88,6.88
	s3.08,6.88,6.88,6.88s6.88-3.08,6.88-6.88S378.28,118.34,374.49,118.34 M410.89,83.7c-3.79,0-6.88,3.08-6.88,6.88
	s3.08,6.88,6.88,6.88s6.88-3.08,6.88-6.88S414.68,83.7,410.89,83.7 M417.09,111.59c-3.79,0-6.88,3.08-6.88,6.88s3.08,6.88,6.88,6.88
	s6.88-3.08,6.88-6.88S420.88,111.59,417.09,111.59 M420.67,316.92c-5.49,0-9.96,4.47-9.96,9.96s4.47,9.96,9.96,9.96
	s9.96-4.47,9.96-9.96S426.16,316.92,420.67,316.92 M365.99,101.75c0-2.76-2.24-5-5-5s-5,2.24-5,5c0,2.76,2.24,5,5,5
	S365.99,104.51,365.99,101.75 M307.76,160.63c-2.1,2.36-2.97,3.96-2.82,5.19c0.15,1.27,1.36,2.11,3.04,3.27
	c0.45,0.31,0.93,0.65,1.43,1.02c7.29,5.41,16,12.21,16.54,13.55c0.11,0.27,0.26,0.42,0.43,0.59c0.57,0.56,1.07,1.04-0.68,5.51
	c-0.11,0.28-0.26,0.65-0.45,1.11c-13.99,34.6-16.41,65.25-6.81,86.29c16.94,37.13,57.97,66.4,97.56,69.59
	c0.67,0,1.15-0.19,1.19-0.46c0.05-0.36-0.68-1.19-3.72-2.04c-5.45-1.53-13.12-7.86-11.92-19.05c1.22-11.47,9.78-14.44,14.77-15.19
	c1.81-0.27,1.8-0.6,1.8-0.61c-0.02-0.32-1.61-0.8-3.95-0.8c-0.53,0-1.06,0.03-1.57,0.08c-0.16,0.02-0.38,0.03-0.65,0.03
	c-3.97,0-18.57-1.99-33.06-10.85c-18.49-11.3-30.13-29.73-33.67-53.28c-2.74-18.22,0.63-33.55,10.02-45.57
	c13.18-16.88,37.88-27.16,73.33-30.54c0.13-0.42,0.23-0.75,0.07-0.99c-0.21-0.31-0.86-0.51-2.06-0.62l-0.52-0.06
	c-1.84-0.19-7.44-0.79-16.22-0.79c-14.65,0-30.74,1.57-47.81,4.68c-2.06,0.38-4.02,0.57-5.81,0.57c-13.2,0-15.08-10.22-15.34-13.35
	c-0.07-0.88-0.14-1.8-0.21-2.71c-0.35-4.57-0.78-10.26-1.88-10.26h0C328.41,147.65,315.51,151.91,307.76,160.63 M500.53,145.32
	c-3.87-2.18-11.01-4.35-23.6-7.82c3.18,2.43,20.2,15.52,25.35,21.69c0.26-0.96,1.22-4.71,1.43-7.49c0.02-0.29,0.05-0.56,0.07-0.82
	C504.01,148.3,504.1,147.33,500.53,145.32 M37.42,296.77c14.34,9.33,34.99,20.04,67.59,20.04c9.42,0,19.5-0.92,29.97-2.72
	c38.54-6.65,58.55-42.67,65.36-57.85c0.16-0.36,0.29-0.64,0.38-0.83c2.01-4.26,3.77-6.57,7.36-6.57c3.58,0,13.66,1.79,18.29,3.26
	l0.52,0.17c1.56,0.5,2.91,0.93,4.06,0.93c1.72,0,3.51-0.88,3.75-7.36c0.58-15.36-2.77-22.89-8.29-33.91
	c-0.15-0.3-0.48-0.37-0.72-0.37c-0.58,0-1.21,0.34-1.38,0.64c-0.39,0.67-9.22,7.21-11.67,8.63c-2,1.16-3.85,1.73-5.64,1.73
	c-3.12,0-5.95-1.73-8.4-5.14c-0.75-1.05-1.91-2.87-3.37-5.17c-6.33-9.95-18.1-28.48-31.31-39.43c-1.06-0.88-1.43-1.01-1.57-1.01h0
	c-0.1,0.13,0.34,1.01,0.5,1.34c0.21,0.41,0.28,0.56,0.27,0.62c0.02,0.04,0.09,0.17,0.22,0.4c3.56,6.33,9.71,19.34,11.01,35.26
	c1.93,23.71-7.64,43.53-28.44,58.9c-7.73,5.71-26.48,15.38-47.75,15.38c-12.65,0-24.36-3.39-34.82-10.08
	c-1.15-0.74-2.62-1.01-3.07-0.47c-0.18,0.22-0.23,0.57-0.14,1.05c0.41,2.12-2.47,10.12-6.21,13.45c-4.8,4.28-10.12,6.56-16.76,7.2
	c-0.69,0.07-1.11,0.23-1.16,0.45C35.96,295.47,36.08,295.9,37.42,296.77 M207.49,170c0,2.76,2.24,5,5,5s5-2.24,5-5
	c0-2.76-2.24-5-5-5S207.49,167.25,207.49,170 M224.24,115.34c0-2.76-2.24-5-5-5s-5,2.24-5,5c0,2.76,2.24,5,5,5
	S224.24,118.09,224.24,115.34 M138.41,105.8c2.53,0,4.45-0.2,5.72-0.59c-6.69-2.4-14.82-5.9-20.23-8.23
	c-2.55-1.1-4.56-1.96-5.6-2.36c-1.23-0.47-2.23-0.79-3.17-0.79c-1.48,0-2.75,0.76-4.69,2.81c-2.46,2.58-3.73,3.97-4.94,5.27
	l-0.82,0.88c1.93-0.2,7.02,0.41,13,1.16C124.68,104.81,132.63,105.8,138.41,105.8 M0.65,218.07c-2.24-23.74,0.24-56.84,24.77-79.77
	c24.2-22.62,48.38-32.7,78.41-32.7c6.5,0,13.2,0.46,20.49,1.4c5.58,0.72,11.57,1.09,17.81,1.09c26.33,0,51.79-6.38,61.58-9.76
	l0.93-0.32c6.12-2.11,9.82-3.39,12.66-3.39c3.61,0,5.96,1.98,11.28,7.22c8.9,8.78,31.45,38.4,37.64,53.42
	c3.48,8.45,4.22,11.14-1.61,16.86c-6.18,6.06-40.08,37.16-47.1,42.24l-0.86,0.63c-3.48,2.53-6.23,4.53-9,4.53
	c-2.79,0-5.4-2.04-8.46-6.63c-0.34-0.52-0.8-1.23-1.36-2.11c-5.13-8.03-20.74-32.47-44.49-49.76
	c-16.14-11.74-38.91-19.04-59.41-19.04c-14.85,0-28.1,3.85-38.33,11.12c-19.63,13.96-25.6,41.31-24.64,62.26
	c0.94,20.52,8.34,37.23,19.32,43.62c3.51,2.04,7.16,7.97,7.17,14.36c0.01,4.19-1.55,10.11-9.04,14.5
	c-5.19,3.04-9.62,4.53-13.55,4.53c-6.52,0-11.74-4.08-16.9-13.23C12.38,269.29,3.18,244.89,0.65,218.07 M219.24,108.46
	c-3.79,0-6.88,3.08-6.88,6.88c0,3.79,3.08,6.87,6.88,6.87s6.88-3.08,6.88-6.87C226.11,111.54,223.03,108.46,219.24,108.46
	 M255.36,148.34c0-3.79-3.08-6.88-6.88-6.88s-6.88,3.08-6.88,6.88s3.08,6.88,6.88,6.88S255.36,152.13,255.36,148.34 M220.34,149.38
	c1.4,3.94,13.06,25.8,14.45,28.03c1.03,1.65,2.26,2.42,3.86,2.42c0.51,0,1.07-0.08,1.71-0.24c1.66-0.41,8.33-2.63,10.7-5.92
	c2.77-3.84,2.25-5.15-1.27-8.29c-1.43-1.28-4.12-3.73-6.87-6.23c-3.98-3.62-8.1-7.38-8.76-7.9c-0.86-0.69-0.79-2.07-0.7-3.67
	c0.12-2.22,0.26-4.73-1.93-6.45c-0.86-0.68-3.15-2.25-5.72-2.25c-1.18,0-2.27,0.33-3.24,0.99
	C219.62,141.87,218.85,145.16,220.34,149.38 M212.49,176.88c3.79,0,6.88-3.08,6.88-6.87c0-3.79-3.08-6.88-6.88-6.88
	s-6.88,3.08-6.88,6.88C205.61,173.79,208.7,176.88,212.49,176.88 M173.23,142.66c0.84,1.2,4.88,6.01,7.28,7.78
	c0.51,0.38,0.9,0.72,1.21,1c0.5,0.44,0.84,0.74,1.2,0.74c0.49,0,0.92-0.52,1.77-1.76c1.61-2.36,4.47-5.78,8.96-8.71
	c0.48-0.31,0.99-0.46,1.61-0.46c0.44,0,0.87,0.07,1.29,0.14c0.39,0.07,0.76,0.13,1.11,0.13c6.87,0,12.46-5.59,12.46-12.46
	c0-6.87-5.59-12.46-12.46-12.46c-6.71,0-12.19,5.47-12.46,12.45c-0.03,0.72-0.26,0.99-0.63,1.43c-0.1,0.12-0.22,0.26-0.34,0.42
	c-1.06,1.37-8.04,6.75-10.2,7.71c-0.86,0.38-1.38,0.89-1.56,1.52C172.28,140.82,172.53,141.65,173.23,142.66 M35.37,283.47
	c5.49,0,9.96-4.47,9.96-9.96s-4.47-9.96-9.96-9.96c-5.49,0-9.96,4.47-9.96,9.96S29.88,283.47,35.37,283.47 M223.15,149.69
	c0.3,0.7,0.59,1.35,0.81,1.98c1.09,3.1,10.48,21.36,11.74,23.39c0.94,1.52,2.4,1.84,3.45,1.84c0.48,0,0.98-0.06,1.48-0.19
	c1.73-0.44,6.6-2.11,8.37-4.58c2.09-2.92-0.11-4.89-2.93-7.44c-1.47-1.32-5.05-4.77-8.21-7.8c-2.85-2.73-5.53-5.31-5.96-5.65
	c-0.79-0.63-0.69-1.93-0.58-3.43c0.15-1.93,0.31-4.12-1.36-5.44c-1.05-0.83-2.4-1.31-3.7-1.31c-1.11,0-2.15,0.34-3.09,1
	C220.62,143.85,221.96,146.95,223.15,149.69 M175.09,140.52c0.23-0.84,0.85-1.51,1.73-1.88c2-0.83,8.08-5.75,8.99-6.85
	c0.44-0.53,0.66-1.27,0.7-2.34c0.24-5.68,4.99-10.13,10.81-10.13c5.96,0,10.81,4.54,10.81,10.13c0,5.58-4.85,10.12-10.81,10.12
	c-0.29,0-0.67-0.06-1.06-0.11c-0.51-0.08-1.09-0.16-1.65-0.16c-0.69,0-1.23,0.13-1.67,0.39c-3.13,1.92-5.61,4.2-7.79,7.2l-0.08,0.12
	c-1.02,1.4-1.64,2.25-2.46,2.25c-0.43,0-0.94-0.22-1.63-0.69c-1.4-0.97-3.34-3.08-5.61-6.13
	C175.01,141.95,174.9,141.21,175.09,140.52 M197.09,135.67c3.47,0,6.29-2.82,6.29-6.29c0-3.47-2.82-6.29-6.29-6.29
	c-3.47,0-6.29,2.82-6.29,6.29C190.8,132.85,193.62,135.67,197.09,135.67 M192.29,129.38c0,2.65,2.15,4.8,4.8,4.8
	c2.65,0,4.8-2.15,4.8-4.8c0-2.65-2.15-4.8-4.8-4.8C194.44,124.58,192.29,126.73,192.29,129.38 M324.7,51.51
	c8.25,3.4,26.03,9.85,34.21,9.85c1.21,0,2.18-0.14,2.84-0.41c0.22-0.18-0.46-1.01-1.18-1.88c-0.86-1.04-2.03-2.47-2.79-4.05
	c-0.71-1.48-1.08-2.74-1.34-3.66c-0.34-1.18-0.55-1.89-1.13-2.03c-3.93-0.86-11.77-3.47-17.49-5.38c-3.51-1.17-6.28-2.09-7.33-2.33
	c-0.57,0-1.5,1.52-2.31,2.86c-0.38,0.63-0.78,1.28-1.15,1.8c-1.2,1.68-2.53,4.33-2.38,5.09C324.66,51.44,324.68,51.49,324.7,51.51
	 M347.55,13.58c-7.66-2.19-14.92-3.35-20.99-3.35c-11.21,0-18.43,3.79-21.49,11.28c-3.89,9.53-2.08,18.44,4.68,22.71
	c0.79,0,3.12-3.95,3.89-5.24c1.27-2.15,2.14-5.5,1.88-5.89c-0.53-0.2-0.91-0.6-1.14-1.18c-0.61-1.58,0.07-4.22,0.96-6.01
	c0.9-1.8,3.99-6,13.16-6c5.25,0,11.72,1.37,19.24,4.06c24.23,8.69,22.24,16.34,20.93,21.4l-0.1,0.37c-0.5,2.11,1.48,4.45,3.33,5.81
	c1.32,0.97,3.54,2.6,4.57,2.6c0.17,0,0.3-0.05,0.36-0.12c2.49-4.98,4.76-12.52,1.42-20.12C374.42,25.15,364.08,18.31,347.55,13.58
	 M252.58,113.76l-0.11-0.05v0.33l0.12,0.02c-0.99,4.77,0.49,8.51,4.41,11.12c2.3,1.54,8.94,2.57,11.86,0.99
	c-0.17-0.14-0.58-0.37-0.98-0.59c-1.64-0.93-4.71-2.65-5.73-5.5c-0.95-2.63-1.4-5.56,1.79-9.15c1.98-2.23,4.73-3.03,6.65-3.03h0.01
	c1.18,0,2.16,0.3,2.62,0.85c0.39,1.66,4.31,5.49,5.85,6.41c3.94-4.65,2.73-10.17-0.07-13.34c-3.87-4.39-12.15-5.32-19.33,0.72
	c-5.53,4.66-6.21,7.7-6.66,9.72C252.88,112.85,252.77,113.34,252.58,113.76 M331.25,22.12c-0.41-0.14-1.53-0.28-2.94-0.28
	c-0.99,0-2.45,0.07-3.77,0.41c-0.69,0.18-1.39,0.33-2.03,0.47c-1.55,0.33-3.01,0.65-2.92,1.09c1.87,7.24-7.52,24.56-24.49,38.81
	c-0.28,0.24,0.9,2.68,1.69,4.29c0.33,0.67,0.65,1.34,0.92,1.94c1.91,4.18,2.74,5.52,3.1,5.86
	C304.87,70.72,336.74,38.79,331.25,22.12 M263.1,118.42c0.58,1.89,7.24,10.68,18.49,10.68h0c4.46,0,9.18-1.35,14.02-4.01
	c20-10.97,11.61-29.67,5.48-43.32c-1-2.24-1.95-4.35-2.71-6.27c-0.15-0.39-0.32-0.84-0.52-1.36c-2.6-6.92-8.67-23.11-21.88-23.11
	c-1.8,0-3.7,0.31-5.64,0.93c-0.84,0.24-0.54,3.82-0.27,5.41c0.47,2.84,1.89,5.87,2.16,6.43c1.09-0.31,2.08-0.46,3.02-0.46
	c5.65,0,8.33,5.58,12.4,14.03c0.98,2.03,1.99,4.13,3.15,6.4c11.23,21.87,2.22,29.87-2.18,32.29c-1.73,0.95-3.49,1.44-5.23,1.44
	c-5.97,0-9.97-5.53-10.98-7.18c-0.77-0.2-1.53-0.3-2.24-0.3c-3.11,0-4.92,1.85-5.9,3.4C263.03,115.45,262.74,117.69,263.1,118.42
	 M257.97,75.14c-1.08-1.58-3.33-4.88-3.92-8.12c-0.37-2-0.53-4.11-0.66-5.81c-0.1-1.35-0.21-2.75-0.35-2.87
	c-12.67,11.18-4.69,29.61,0.08,40.62c0.79,1.83,1.48,3.42,1.93,4.67c0.01,0.01,0.03,0.03,0.09,0.03c0.46,0,1.68-1.1,2.87-2.17
	c0.42-0.38,0.85-0.77,1.26-1.12c1.71-1.47,3.38-2.22,4.95-2.85c-5.87-12.78-7.72-19.8-5.63-21.44
	C258.51,75.93,258.24,75.54,257.97,75.14 M323.6,8.13c0.01-0.02,0.03-0.07-0.03-0.18c-2.6-3.2-9.95-7.96-19.52-7.96
	c-9.01,0-22.38,4.27-34.92,24.61c-0.23,0.38-0.54,0.86-0.91,1.44c-16.14,25.2-17.41,42.88-3.78,52.56
	c4.91,3.49,10.19,5.26,15.67,5.26c2.64,0,5.27-0.42,7.8-1.24c0.29-0.38-2.01-4.62-3.68-6.77c-1.12-1.45-1.8-3.07-2.29-4.25
	c-0.4-0.94-0.74-1.76-1.04-1.77c-5.35,0-11.79-3.6-12.32-13.73c-0.5-9.55,5.86-18.23,10.96-25.2l0.19-0.25
	c0.46-0.62,0.93-1.3,1.44-2.01C285.58,22.4,292.24,13,302.63,13c1.66,0,3.38,0.24,5.2,0.72c0.33,0,0.89-0.33,1.66-0.79
	c1.32-0.78,3.31-1.96,6.41-2.95c2.25-0.72,4.16-1.04,5.55-1.27C322.59,8.53,323.48,8.38,323.6,8.13 M377.89,30.2
	c-0.04,0.14,0.34,0.85,0.71,1.54c1.14,2.12,3.26,6.06,2.64,9.59c1.95,1.56,3.06,3.84,3.06,6.27c0,4.51-3.83,8.17-8.54,8.17
	s-8.54-3.67-8.54-8.17c0-1.1,0.23-2.17,0.67-3.17c0.34-1.17,1.06-8-3.99-10.14c-4.08,3.33-6.43,8.18-6.43,13.31
	c0,9.64,8.21,17.49,18.29,17.49s18.29-7.84,18.29-17.49C394.04,38.72,387.1,31.25,377.89,30.2 M255.35,133.55
	c0.7,0.95,1.36,0.94,2-0.01c1-1.5,1.45-4.57,1.12-5.37c-0.17-0.42-0.88-0.86-1.78-1.41c-1.93-1.19-4.84-3-5.64-6.69
	c-1.11-5.07-0.27-7.14,0.13-8.13c0.23-0.57,0.27-0.69-0.07-0.87c-0.48-0.27-2.25-1.13-4.76-1.13c-2.1,0-4.1,0.61-5.96,1.8
	C244.2,117.52,254.14,131.9,255.35,133.55 M390.58,61.47c-2.76,2.52-5.62,5.12-14.04,5.12c-2.12,0-4.54-0.17-7.12-0.53
	c-3,2.28-3.08,4.79-3.13,6.29c-0.01,0.29-0.02,0.54-0.04,0.75c0,0.04,0,0.07,0.03,0.1c0.27,0.31,1.71,0.33,3.22,0.34
	c2.42,0.02,5.17,0.05,6.09,1.12c0.22,0.25,0.32,0.55,0.31,0.89c1.3-0.22,10.13-1.76,14.91-2.57c-0.11-0.44-0.06-0.86,0.15-1.23
	c0.67-1.24,2.88-1.89,4.66-2.41c1.18-0.35,2.4-0.71,2.48-1.09c0.39-1.66-0.42-3.12-1.16-4.06c-1.46-1.84-3.97-3.23-5.76-3.26
	L390.58,61.47z"/>
</svg>
