<?xml version="1.0" encoding="utf-8"?>
<!-- Generator: Adobe Illustrator 15.0.0, SVG Export Plug-In  -->
<!DOCTYPE svg PUBLIC "-//W3C//DTD SVG 1.1//EN" "http://www.w3.org/Graphics/SVG/1.1/DTD/svg11.dtd" [
	<!ENTITY ns_flows "http://ns.adobe.com/Flows/1.0/">
]>
<svg version="1.1"
	 xmlns="http://www.w3.org/2000/svg" xmlns:xlink="http://www.w3.org/1999/xlink" xmlns:a="http://ns.adobe.com/AdobeSVGViewerExtensions/3.0/"
	 x="0px" y="0px" width="512px" height="512px" viewBox="-118.858 -118.844 512 512"
	 overflow="visible" enable-background="new -118.858 -118.844 512 512" xml:space="preserve">
<defs>
</defs>
<path fill="none" d="M209.92,64.183c-1.774-1.729-3.531-3.449-5.368-5.065l-42.223,17.494l-0.189-0.073l-17.473-42.222
	c-4.988-0.371-9.992-0.371-15.036-0.021l-17.507,42.222l-0.122-0.052l-0.059,0.127L69.721,59.117
	c-3.784,3.246-7.312,6.81-10.627,10.62l17.487,42.232l-0.123,0.054l0.04,0.134l-42.189,17.478c-0.396,4.967-0.37,9.979-0.033,15.022
	l42.231,17.491l-0.075,0.134l0.149,0.073l-17.522,42.35c0.374,0.445,0.719,0.966,1.09,1.372c1.263,1.412,2.654,2.694,3.991,4.028
	c1.336,1.354,2.646,2.764,4.056,4.009c0.446,0.406,0.933,0.741,1.378,1.112l42.354-17.55l0.074,0.164l0.122-0.052l17.507,42.222
	c5.044,0.335,10.025,0.35,15.02-0.021l17.48-42.2l0.147,0.073l0.051-0.148l42.223,17.476c3.816-3.302,7.37-6.828,10.636-10.631
	l-17.505-42.203l0.141-0.058l-0.066-0.164l42.224-17.498c0.371-5.022,0.362-10.034-0.009-14.987l-42.215-17.477l0.066-0.164
	l-0.149-0.057l17.472-42.204C213.489,67.819,211.708,66.002,209.92,64.183z"/>
<path d="M272.4,114.382L232.287,97.74l16.522-39.897c-4.229-5.902-8.787-11.488-13.803-16.564c-0.303-0.32-0.602-0.65-0.923-0.974
	c-0.519-0.519-1.078-1-1.63-1.521c-4.917-4.823-10.317-9.199-16.006-13.299L176.56,42.011L159.937,1.905
	c-14.451-2.449-29.037-2.504-43.145-0.351c-0.265,0.036-0.487,0.053-0.693,0.073c-0.611,0.091-1.203,0.229-1.755,0.351
	L97.729,41.997L57.609,25.39c-11.98,8.556-22.395,18.837-30.894,30.444c-0.084,0.129-0.183,0.24-0.273,0.37
	c-0.354,0.483-0.692,0.983-1.021,1.49l16.573,40.009L1.881,114.344c-2.407,14.451-2.48,28.995-0.354,43.094
	c0.033,0.258,0.059,0.52,0.101,0.763c0.071,0.593,0.195,1.167,0.303,1.744l40.063,16.585l-16.573,39.996
	c3.817,5.343,7.924,10.463,12.392,15.154c0.799,0.836,1.543,1.707,2.375,2.521c0.578,0.595,1.22,1.134,1.838,1.707
	c4.824,4.696,10.135,8.941,15.7,12.933l39.97-16.567l16.583,40.054c0.592,0.127,1.227,0.238,1.82,0.371
	c0.147-0.021,0.323,0.017,0.473,0.036c14.172,2.189,28.789,2.116,43.334-0.316l16.621-40.123l40.028,16.582
	c0.521-0.316,1.039-0.668,1.526-1.039c0.158-0.095,0.306-0.221,0.479-0.353c11.518-8.461,21.783-18.829,30.324-30.774l-16.62-40.146
	l40.061-16.585c0.107-0.578,0.231-1.188,0.347-1.802c0.023-0.186,0.023-0.371,0.059-0.557
	C274.88,143.476,274.824,128.89,272.4,114.382z M239.98,144.636l-42.224,17.498l0.066,0.164l-0.141,0.058l17.505,42.203
	c-3.266,3.803-6.819,7.329-10.636,10.631l-42.223-17.476l-0.051,0.148l-0.147-0.073l-17.48,42.2
	c-4.994,0.371-9.976,0.356-15.02,0.021l-17.507-42.222l-0.122,0.052l-0.074-0.164l-42.354,17.55
	c-0.445-0.371-0.932-0.706-1.378-1.112c-1.409-1.245-2.72-2.655-4.056-4.009c-1.337-1.334-2.729-2.616-3.991-4.028
	c-0.371-0.406-0.716-0.927-1.09-1.372l17.522-42.35l-0.149-0.073l0.075-0.134l-42.231-17.491
	c-0.337-5.044-0.362-10.056,0.033-15.022l42.189-17.478l-0.04-0.134l0.123-0.054L59.094,69.737
	c3.315-3.811,6.843-7.374,10.627-10.62l42.223,17.475l0.059-0.127l0.122,0.052l17.507-42.222c5.044-0.35,10.048-0.35,15.036,0.021
	l17.473,42.222l0.189,0.073l42.223-17.494c1.837,1.616,3.594,3.337,5.368,5.065c1.788,1.819,3.569,3.637,5.226,5.564l-17.472,42.204
	l0.149,0.057l-0.066,0.164l42.215,17.477C240.343,134.602,240.352,139.613,239.98,144.636z M172.595,122.508l-0.068-0.125
	l10.232-24.621c-1.879-2.211-3.974-4.268-6.199-6.235l-24.661,10.209l-0.033-0.063l-0.089,0.025l-10.201-24.641
	c-2.918-0.233-5.83-0.233-8.779,0l-10.215,24.638l-0.076,0.003l-0.041,0.038l-24.659-10.17c-2.204,1.87-4.256,3.948-6.232,6.157
	l10.237,24.673l-0.081,0.037l0.032,0.093l-24.734,10.261c-0.031,0.312-0.082,0.683-0.107,1.004
	c-0.051,1.091-0.018,2.211-0.024,3.314c0,1.097-0.049,2.226,0.05,3.328c0,0.346,0.024,0.681,0.082,1.034l24.734,10.24l-0.007,0.112
	l0.056,0.036l-10.197,24.652c1.888,2.209,3.988,4.25,6.215,6.159l24.637-10.202l0.023,0.109l0.094-0.036l10.215,24.656
	c2.967,0.239,5.886,0.239,8.788,0l10.207-24.656l0.083,0.036l0.05-0.09l24.636,10.183c2.226-1.909,4.278-3.97,6.199-6.176
	l-10.206-24.636l0.073-0.058l-0.031-0.091l24.637-10.201c0.104-1.486,0.122-3.003,0.146-4.453c0-1.448-0.024-2.895-0.124-4.301
	L172.595,122.508z M137.154,153.761c-9.185,0-16.63-7.446-16.63-16.63c0-9.185,7.445-16.631,16.63-16.631s16.63,7.446,16.63,16.631
	C153.784,146.314,146.339,153.761,137.154,153.761z"/>
</svg>
