<?xml version="1.0" encoding="utf-8"?>
<!-- Generator: Adobe Illustrator 14.0.0, SVG Export Plug-In  -->
<!DOCTYPE svg PUBLIC "-//W3C//DTD SVG 1.1 Tiny//EN" "http://www.w3.org/Graphics/SVG/1.1/DTD/svg11-tiny.dtd" [
	<!ENTITY ns_flows "http://ns.adobe.com/Flows/1.0/">
]>
<svg version="1.1" baseProfile="tiny"
	 xmlns="http://www.w3.org/2000/svg" xmlns:xlink="http://www.w3.org/1999/xlink" xmlns:a="http://ns.adobe.com/AdobeSVGViewerExtensions/3.0/"
	 x="0px" y="0px" width="104px" height="123px" viewBox="-0.36 -0.66 104 123" xml:space="preserve">
<defs>
</defs>
<path d="M46.72,0.12c-0.11,0.33-0.48,0.11-0.71,0.19C46.05,0.53,46.5-0.29,46.72,0.12z"/>
<path d="M47.28,1.2c-0.45-0.37,0.04-0.82,0.33-1.08C47.8,0.38,47.35,0.97,47.28,1.2z"/>
<polygon points="34.94,6.89 35.5,5.85 35.13,6.89 "/>
<path d="M28.88,8.86c0-0.33,0.56-0.75,0.37-1.08C29.92,8.42,28.73,8.42,28.88,8.86z"/>
<path d="M34.42,8.16c-0.78,0.11-0.33,0.82-1.08,1.08V8.68C34.38,8.72,33.42,7.82,34.42,8.16z"/>
<path d="M31.04,8.68c-0.11,0.11-0.19,0.26-0.37,0.19l-0.33-0.71C30.44,8.3,30.78,8.53,31.04,8.68z"/>
<rect x="35.31" y="8.16" width="0.19" height="0.52"/>
<polygon points="31.56,9.24 31.74,9.42 31.22,9.57 31.74,9.05 31.56,8.86 32.12,8.34 32.26,8.53 "/>
<path d="M20.85,11.21c-0.48,0.15-0.26,0.93-0.89,0.71l0.71-1.26C20.7,10.87,20.63,11.1,20.85,11.21z"/>
<path d="M22.3,11.36c-0.15,0.33-0.48,0.11-0.74,0.19l0.19-0.34L22.3,11.36z"/>
<path d="M44.05,11.36c0.04,0.41-0.45,0.63-0.52,1.08C43.15,12.1,43.6,11.47,44.05,11.36z"/>
<path d="M23.53,11.91c-0.74-0.22-0.15,0.45-0.52,0.52l-0.19-0.19l0.52-0.52L23.53,11.91z"/>
<path d="M31.04,11.91c0.3,0.75-0.48,0.71-0.71,1.08l-0.74,0.15c0.41-0.49,1.71-0.45,1.26-1.23H31.04z"/>
<polygon points="54.42,12.81 55.31,11.91 54.94,12.44 "/>
<rect x="27.47" y="12.25" width="0.19" height="0.56"/>
<path d="M25.31,13.51l-0.71-0.37l1.27-0.71C25.5,12.81,25.31,13.7,25.31,13.51z"/>
<polygon points="20.52,13.14 20.33,12.81 21.41,12.81 "/>
<path d="M23.01,14.41c-0.56-0.45,0.3-0.26,0.19-0.71l0.71-0.56C24.16,13.81,23.38,14.19,23.01,14.41z"/>
<path d="M31.56,13.89h-0.71l0.37-0.74C31.41,13.37,31.67,13.55,31.56,13.89z"/>
<path d="M33.71,13.33l-0.37,0.37v-0.56C33.53,13.11,33.6,13.25,33.71,13.33z"/>
<path d="M22.12,13.33c0.19,0.49-0.33,0.37-0.56,0.56C21.37,13.37,21.89,13.48,22.12,13.33z"/>
<path d="M11.41,15.49c-0.26-0.11-0.33-0.93,0.19-1.08C11.93,14.85,11.9,15.12,11.41,15.49z"/>
<path d="M8.73,17.27C8.62,17.5,9,18.47,8.18,18.36c0.04-0.22-0.04-0.45,0.19-0.56c-0.3-0.33-0.82-0.11-1.23-0.18v-0.52
	C7.66,16.83,8.18,18.28,8.73,17.27z"/>
<polygon points="18.55,17.79 18.88,17.09 19.07,17.27 "/>
<polygon points="21.56,17.79 22.3,17.27 21.75,17.79 "/>
<path d="M37.61,19.25l0.19,0.52L37.61,19.25z"/>
<path d="M34.61,19.96c0.11,0.34-0.19,0.48-0.37,0.71h-0.18C33.9,20.29,34.35,19.99,34.61,19.96z"/>
<path d="M37.1,21.03c-0.19,0.26-0.74,0.41-0.52,0.89c-0.11-0.22-0.33-0.19-0.56-0.19C36.69,21.67,36.09,20.25,37.1,21.03z"/>
<polygon points="30.33,21.37 30.48,21.03 31.04,21.03 "/>
<path d="M34.79,21.93c-0.11,0.08-0.26,0.19-0.19,0.33h-0.56l0.89-0.89v0.71L34.79,21.93z"/>
<path d="M29.77,22.45c-0.33-0.19,0.07-0.52,0.19-0.71h0.19L29.77,22.45z"/>
<path d="M41.93,21.93l0.52,0.15L41.93,21.93z"/>
<path d="M36.2,22.26c0.22,0.6-0.48,0.48-0.71,0.71C35.31,22.49,35.94,22.45,36.2,22.26z"/>
<polygon points="31.04,22.97 30.67,22.45 31.04,22.82 "/>
<polygon points="22.45,23.15 23.01,22.64 22.64,23.34 "/>
<polygon points="27.1,23.34 27.47,22.82 27.66,23.15 "/>
<polygon points="28.88,23.71 28.55,23.34 29.25,23.34 "/>
<path d="M29.25,25.5c-1.04-0.3-0.19,1.27-1.08,1.6l-0.19-0.19l-0.33,0.37c0,0.89-0.67,1.75-1.26,2.5c1.97-0.37,2.3-3.13,3.94-4.13
	l-0.19-0.15c0.52-0.22,0.33-1.04,1.08-0.74c0.52,0.52-0.56,0.78-0.56,1.26c0.11,0.22,0.33,0.19,0.56,0.19
	c0.22-0.11,0.15-0.34,0.15-0.56l0.19,0.19c0.37-0.41,1.15-0.6,1.08-1.23h0.19c0.48,0.93-0.78,1.15-1.26,1.93l0.71,0.74
	c-0.11-1.41,2.34-1.64,2.16-2.68c0.22,0.11,0.19,0.33,0.19,0.52c-1.93,2.12-3.27,4.99-5.54,6.59c-0.26,0.45-0.19,0.97-0.71,1.27
	h-0.37c0.07-0.26-0.04-0.6-0.33-0.52H27.1l-0.18-1.27c-0.89,1.19-0.93-0.78-1.93-0.19l-0.74-0.71c-0.52,0.22-0.59,0.52-1.04,0.89
	c-0.22-0.33-0.3-0.97-0.89-0.71l-0.19,0.19l0.19-1.45c0.15,0.07,0.22-0.07,0.33-0.15c-0.52-0.56-0.97,0.19-1.41,0.34
	c0.11,0.22,0.33,0.19,0.52,0.19h-0.71v-0.37c0.89-0.11,0-0.63,0.52-1.04c0.56-0.74,1.9-1.45,1.97-2.53
	c0.59,0.52-0.33,0.82-0.33,1.27c-0.63,0.19-0.33,1.08-0.89,1.42l0.33,0.56c0.82-0.86,1.23-1.79,2.34-2.16l-0.19-0.71
	c0.82-0.26,1.23-1.49,1.97-1.97c0.19,0.63-1.12,0.89-0.56,1.45c-0.15,0.33-0.78,0-0.71,0.52l0.19,0.19c-0.74,0.04-0.93,1-1.45,1.79
	c0.15,0.34,0.48,0.11,0.74,0.19c0.3-0.22,0.41-0.56,0.33-0.89l0.19,0.15c1.19-0.67,1.3-1.6,1.97-2.68l0.33,0.89
	c-0.97-0.37-0.22,0.56-0.71,1.08c-1.11,0.45-1.34,1.86-1.97,2.34c1.3,0.75,1.3-1.34,2.16-1.26c-0.11-1.3,1.71-1.08,1.26-2.31
	c0.82-0.44,0.85-1.71,1.78-1.97C30.29,23.94,29.77,24.91,29.25,25.5z"/>
<path d="M23.53,23.71l-0.33,0.71L23.53,23.71z"/>
<path d="M28.7,24.05c0.22,0.33-0.45-0.07-0.71,0.56l-0.19-0.19c0.45,0.04,0.37-0.45,0.37-0.71L28.7,24.05z"/>
<path d="M32.12,23.71c-0.59-0.15-0.67,1.3-0.89,0.52C31.3,23.86,31.67,23.57,32.12,23.71z"/>
<path d="M33.01,23.71l0.34,0.71L33.01,23.71z"/>
<path d="M36.58,24.05c0.19,0.63-0.67,0.52-0.74,0.89C36.46,24.79,35.87,24.01,36.58,24.05z"/>
<path d="M33.34,31.38l0.18,0.19c1.19-1.45,2.57-2.79,3.57-4.28c0.71,0.41-0.74,0.63,0,1.04c-1.82,2.08-3.2,4.21-5.17,5.92
	c0.52-0.6,0.71-1.34,1.08-1.97h-0.89c0.19-0.93,0.93-1.68,1.41-2.49c-0.3-0.6-0.56-0.11-0.89,0l-0.37,0.33
	c0.07-0.26,0.3-1.27,0.74-1.79c0.3,0.04,0.45-0.34,0.71-0.52c0-0.41-0.11-0.86,0.34-1.08l0.37,0.37c0.15-0.75,0.37-1.12,0.71-1.6
	c0.26,0.04,0.52-0.44,0.71,0c-0.15,1.23-2.12,1.34-1.23,2.68l0.89-1.08l0.19,0.18c0.29-0.63,0.96-1.04,0.89-1.79
	c0.59,0.22,0.41-0.52,0.71-0.74l0.19,0.19c0.22-0.11,0.15-0.33,0.15-0.52l0.19,0.19l0.37-0.56C36.76,26.43,34.53,28.78,33.34,31.38z
	"/>
<path d="M20.52,25.5c0.52,0.15,0.11,0.37,0,0.52c-0.22-0.11-0.19-0.33-0.19-0.52l1.08-0.74L20.52,25.5z"/>
<path d="M23.01,24.76c0,0.34-0.45,0.59-0.56,0.74C22.45,25.17,22.9,24.87,23.01,24.76z"/>
<path d="M71,25.5c0.26-0.22-0.26,0.37-0.52,0.15l0.33-0.34L71,25.5z"/>
<path d="M37.99,26.73c-0.22-0.11-0.19-0.33-0.19-0.52c0.41,0.15,0.52-0.37,0.71-0.71C39.25,26.21,37.95,26.06,37.99,26.73z"/>
<path d="M21.04,28.7c-0.22-0.15-1.34,0.15-1.26,0.89v0.37c-0.59-0.22-0.3,0.33-0.52,0.52l-1.6,1.23c0-0.19-0.04-0.41,0.19-0.52
	c-0.63-0.6-1,0.45-1.63,0.38c0.52-1.57,1.75-2.35,2.86-3.76l-0.33-0.71l0.71,0.33c-0.48-0.63,0.78-0.67,0.71-1.23v1.41
	c-0.56-0.15-0.74,0.67-1.26,0.71c0.41,0.45,0.97,1.08,1.45,0.37c-0.3-0.74,1.08-0.56,0.33-1.26l1.45-1.6
	C22.04,26.77,20.85,27.51,21.04,28.7z"/>
<path d="M18.88,26.02c-0.56,0.86-1.75,1.82-1.6,2.68c-0.11-0.08-0.48-0.37-0.33-0.71C18.14,28.11,17.69,26.13,18.88,26.02z"/>
<path fill="#E6E7E8" d="M31.22,26.54v0.37h-0.74V26.4C30.63,26.69,30.96,26.5,31.22,26.54z"/>
<path d="M7.66,27.81c-0.15-0.49,0.52-0.49,0.71-0.89C8.21,27.47,8.25,27.51,7.66,27.81z"/>
<path d="M11.04,28.89c0.78-0.07,0.67-0.86,1.45-1.08c0.19,0.78-1.19,0.93-0.19,1.6l0.52-0.52c0,0.45,0.82,1.04,0,1.42l0.89,0.19
	c-0.45,0.41,0.18,1.3-0.52,1.6l0.33,0.37c0.15-0.19,0.45-0.3,0.37-0.56c0.74,0.26,0.11,1.12,0,1.6h1.08
	c-0.48,0.52-1.3,1.08-0.71,1.79c0.41,0.41,0.85,0.82,0.71,1.45l-0.19,0.19c0.7,0.41,0.63,2.68,2.16,2.83l0.15,1.08
	c-0.41,0.34-1.04,0.11-1.6,0.19c-0.74-1.15-1.41-2.01-2.12-3.05c-0.97,0.3-0.22-1.19-1.26-0.71c0.04-0.82-1.97-0.48-0.71-1.6
	c-0.29-0.37-0.63-0.56-1.08-0.52c-0.45,0.63-0.48,1.42-1.26,1.6c0.07-0.48,0.48-1.04,0.18-1.45c-0.56,0.41-0.71,0.97-1.08,1.45
	c1.04,0.23,0.04,1.23-0.15,1.79l-0.19,0.19l-0.56-0.56c-0.89,0.23-0.86,1.6-1.93,1.45l-0.37-0.89l-0.89,0.71
	c-0.26-1.01,1.08-2.08,1.41-3.24c-0.48-0.52-0.74,0.56-1.23,0.56c-0.33,0.97-1.08,1.3-1.79,2.12c-0.37-0.15-0.85-0.56-1.26-0.15
	c-0.3,0.19-0.41,0.52-0.33,0.89c0.3,0.22,0.71-0.41,1.23-0.19c-0.78,0.56-1,1.34-1.23,2.12c-0.63-0.56,1.34-2.23-0.74-1.93
	c-0.37-0.74,0.74-0.82,0.56-1.45L0,37.64c0.67-1.56,2.34-2.75,2.68-4.47c0.11-0.63,0.93-0.04,0.89-0.71
	c-0.22-0.04-0.89-0.15-1.08,0.33c-0.7-1.27,1.23-1.01,0.89-2.12l0.19,0.15c0.07-0.08,0.22-0.19,0.15-0.34H3.9v0.52l-0.19-0.18
	c-0.07,0.11-0.22,0.22-0.15,0.37l0.33,0.38l0.56-0.75c-0.22-0.08-0.19-0.3-0.19-0.52c0.22,0.22,0.67-0.19,0.89,0.37l0.19-0.89
	l0.15,0.19c0-0.63,0.93-0.37,0.74-1.08c-0.19-0.07,0.63-0.15,0.33-0.89l0.71,1.08L5.87,30.3c1,0.04,1.86-0.56,2.49-1.6h0.56
	c-0.37,0.34,0.04,0.56,0.15,0.89c0.18-0.41,1.34-1.53,0.89-1.6c-0.04,0.15,0.11,0.22,0.19,0.34l0.71-1.04L11.04,28.89z"/>
<rect x="15.87" y="27.29" width="0.19" height="0.52"/>
<path fill="#E6E7E8" d="M30.33,27.29c0.56,1.75-1.71,0.19-1.08,1.6c-0.78,0.52-0.93,1.45-1.78,1.79c0.19-1.3,1.93-1.97,1.78-2.87
	C29.66,27.81,29.81,27.06,30.33,27.29z"/>
<path fill="#E6E7E8" d="M31.93,27.62c-1-0.07-0.15,1.49-1.08,1.08c-0.67,1.08-0.63,2.2-2.16,2.31l1.08-1.23l-0.19-0.19
	C30.63,29.22,30.74,27.1,31.93,27.62z"/>
<path d="M78.5,28.52c-0.71,0.04-1.19,0.93-1.64,1.27c0.11-0.52,0.34-1.12,0.89-1.27l-0.15-0.19l1.04-0.89
	C78.76,27.73,78.47,28.33,78.5,28.52z"/>
<path d="M8.55,28.18c0.45,0.11,0.78-0.19,0.89-0.56v0.56H8.55z"/>
<path d="M38.17,28.89c-1.6,0.19-0.48,2.57-2.34,2.5c0.07,0.33-0.71,0.56-0.15,0.89c-0.97,0.26-1.04,1.53-1.97,2.12
	c-0.97-1.56,1.67-1.15,1.41-2.68c0.37-0.15,0.78-0.3,1.08-0.71c0.41-1.08,1.41-2.23,2.16-3.38C38.77,28.03,38.36,28.52,38.17,28.89z
	"/>
<rect x="76.87" y="27.62" width="0.19" height="0.56"/>
<polygon points="79.21,27.99 79.73,27.81 79.73,28.52 "/>
<path fill="#E6E7E8" d="M24.23,28.18l-0.15,0.71L24.23,28.18z"/>
<path fill="#E6E7E8" d="M34.23,28.18c0.22,0.45-0.45,0.71-0.52,0.89l-0.19,0.15C33.6,28.81,33.83,28.14,34.23,28.18z"/>
<path fill="#E6E7E8" d="M19.07,28.89c-0.71,0.22,0.11,0.75-0.33,1.23h-0.74c0.48-0.26,0.56-0.97,0.56-1.23H19.07z"/>
<polygon points="75.83,29.78 75.64,28.89 75.98,28.89 "/>
<path fill="#E6E7E8" d="M8.92,29.59l-0.56,0.19C8.29,29.48,8.77,29.22,8.92,29.59z"/>
<path fill="#E6E7E8" d="M12.12,29.78H11.6c0.3-0.15,0.07-0.48,0.52-0.37V29.78z"/>
<polygon points="15.87,30.3 15.69,29.41 15.87,29.78 "/>
<rect x="38.36" y="29.78" width="0.15" height="0.71"/>
<path d="M71,29.97c-0.11,0.22-0.34,0.15-0.52,0.15v-0.33C70.66,29.78,70.88,29.74,71,29.97z"/>
<path d="M21.04,30.12c-0.22,0.26-0.52,0.22-0.71,0.56v0.33C20.03,30.45,20.59,30.49,21.04,30.12z"/>
<path d="M76.87,30.49c0.34,0.19-0.63-0.26-0.15-0.37L76.87,30.49z"/>
<path fill="#E6E7E8" d="M11.75,30.49c-0.19,0.19-0.37,0.45-0.71,0.34l0.56-0.52L11.75,30.49z"/>
<path d="M29.44,33.35c1.52-0.37-0.22-2.05,1.6-2.16l0.52-0.89l0.37,0.52L29.44,33.35z"/>
<path d="M54.05,30.3l-0.37,0.52L54.05,30.3z"/>
<path d="M78.32,31.19c-0.56,0.04-1.15,0.6-0.89,0.9c-0.26-0.56,0.37-1.19,0.52-1.79L78.32,31.19z"/>
<path d="M69.92,31.19l-0.18,0.19l-0.15-0.19l0.71-0.37c-0.04-0.3-0.63-0.04-0.18-0.34C71.03,30.53,69.88,31.08,69.92,31.19z"/>
<path d="M71.52,31.01h-0.34l0.52-0.52C71.48,30.6,71.52,30.82,71.52,31.01z"/>
<polygon fill="#E6E7E8" points="5.35,31.57 5.87,30.82 6.06,30.82 "/>
<polygon points="50.11,31.57 50.11,31.19 50.48,31.19 "/>
<rect x="59.58" y="31.38" width="0.18" height="0.71"/>
<path d="M73.67,32.09l-0.19-0.19c0.37,0.04,0.52-0.52,0.89-0.52L73.67,32.09z"/>
<path fill="#E6E7E8" d="M28.7,31.57c0.3,0.67-0.52,0.18-0.71,0.52C27.8,31.6,28.4,31.53,28.7,31.57z"/>
<path d="M37.28,31.57c0,0.3-0.37,0.44-0.56,0.71c-0.11,0.37-0.41,1.41-1.04,1.97c-0.45,0.11-0.74,0.6-1.08,0.89
	C35.01,33.58,36.32,32.57,37.28,31.57z"/>
<path d="M81.89,32.09c-0.22,0.11-0.56,0.52-0.71,0.19C81.44,32.31,81.55,31.98,81.89,32.09z"/>
<path fill="#E6E7E8" d="M5.17,32.46c-0.19,0.11-0.3,0.41-0.56,0.33l0.37-0.52L5.17,32.46z"/>
<path d="M57.43,32.28c0.29,0.56-0.49,1-0.71,1.08l0.71-0.89l-0.19-0.19H57.43z"/>
<path d="M55.83,32.46c0.3,0.48-0.86,0.63-0.18,1.04c0.56-0.15,0.44,0.56,0.56,0.89c-0.19,0.07-0.26-0.07-0.37-0.15l-0.18,0.89
	c0-0.41,0.11-0.86-0.34-1.08c0.18,0,0.41,0.04,0.52-0.19c0.07-0.26-0.26-0.37-0.37-0.52c-0.11,0.07-0.18,0.22-0.33,0.15
	C55.46,33.21,55.27,32.5,55.83,32.46z"/>
<path d="M59.77,33.35c0.22,0.11,0.15,0.33,0.15,0.52c-0.71,0.11-0.45,0.71-1.04,1.26c-0.22-0.11-0.18-0.33-0.18-0.56
	c0.26,0.08,0.33-0.22,0.52-0.33c-0.63-0.86,0.82-1.04,1.08-1.45L59.77,33.35z"/>
<path d="M31.37,32.98c0.22,0.48-0.33,0.48-0.52,0.71l-0.19-0.19C30.93,33.35,31.07,32.98,31.37,32.98z"/>
<polygon points="51,34.4 51.89,32.98 52.08,33.17 "/>
<polygon points="77.61,33.5 77.76,32.98 77.95,33.5 "/>
<polygon points="37.1,33.88 37.28,33.35 37.47,33.35 "/>
<path d="M82.41,33.5c0.04,0.33-0.49,0.15-0.71,0.19l0.37-0.33C82.15,33.43,82.26,33.58,82.41,33.5z"/>
<polygon points="54.42,34.06 54.75,33.5 54.94,34.06 "/>
<path d="M48.32,34.25c-0.78-0.19-0.37,1.15-1.41,1.6c0.74-0.45,0.74-2.05,1.41-2.16V34.25z"/>
<path d="M50.11,34.06l-1.04,1.41l-0.19-0.19c-0.22,1.08-0.97,1.56-1.45,2.35c2.08,1.23,1.41-2.57,3.23-2.16v0.56
	c-1.08-0.11-0.07,1.16-1.08,0.89c-0.82,1.04-1.12,2.79-2.68,3.57c0.67,0.63-0.48,0.93-0.71,1.42c-0.56-1.08,1.56-2.01,1.08-3.2
	l-1.45,1.23c-0.44-1.3,1.71-2.38,2.34-3.57c-0.71-0.67,0.41-0.7,0.71-1.08C49.36,34.92,49.33,33.61,50.11,34.06z"/>
<path d="M57.8,34.25c-0.45,0.6-0.48,1.08-1.26,1.42c0.41-0.49,0.52-1.05,0.71-1.6L57.8,34.25z"/>
<path d="M60.66,34.58H60.1l0.37-0.52C60.48,34.25,60.44,34.47,60.66,34.58z"/>
<path d="M54.56,34.58c-0.15,0.22-0.7-0.07-0.52,0.56l-0.19-0.74C54.12,34.47,54.46,34.25,54.56,34.58z"/>
<path d="M62.97,36.03c0.11-0.85,0.78-0.82,0.89-1.45l0.19,0.19L62.97,36.03z"/>
<path d="M86.35,34.77c-0.52,0.26-0.41,1.08-1.08,1.42C84.82,35.63,85.98,34.4,86.35,34.77z"/>
<path d="M51.37,36.74H51c-0.15-0.82,0.85-1.19,1.26-1.79C52.48,35.55,51.67,36.15,51.37,36.74z"/>
<path d="M87.57,35.48c-0.26-0.07-0.33,0.26-0.52,0.37C86.72,36.48,87.31,34.1,87.57,35.48z"/>
<rect x="21.41" y="35.14" width="0.34" height="0.52"/>
<path d="M60.1,35.66l-0.52,0.7c-0.6,0.41,0.45-0.45-0.37-0.33c-0.07-0.37,0.71-0.59,0.18-0.89C59.66,35.14,59.55,36.33,60.1,35.66z"
	/>
<path d="M55.31,35.29c0.18,0.67-0.74,0.86-0.89,1.45l0.15,0.19c-0.63,0.89-1.37,1.6-1.93,2.68c-0.78-0.74,1.04-1.04,0.15-1.79
	c0.97-0.45,1.71-1.45,2.34-2.53H55.31z"/>
<rect x="79.02" y="35.29" width="0.19" height="0.74"/>
<path d="M53.52,35.85c-0.22,1-1.12,1.63-1.78,2.3l0.15,0.19l-0.71,0.89C51.93,37.93,52.08,35.63,53.52,35.85z"/>
<path d="M61.37,36.18l-0.56,0.37L61,36.74c-1.12,0.19-1,2.05-1.78,2.12c-0.11,0.63-0.6,1.08-0.89,1.64l0.37,0.33
	c0.63-0.26,1.08-0.89,1.08-1.6c0.08,0.11,0.19,0.22,0.34,0.19c0.18-0.22,0.48-0.37,0.37-0.71l-0.19-0.19l0.89-0.56v0.74
	c-0.3,0.22-0.26,1.45-1.26,1.23c0.07,0.34,0.22,1.3,0.74,0.71c0.74-0.78,1.38-1.19,1.41-2.31c0.48-0.37,0.96-0.52,1.41-0.52
	l-0.33,0.71c0.3,0.48,0.59-0.11,0.89-0.19c0.18,0.82,0.97,1.12,1.6,0.52c-0.3,0.74,0.75,0.45,1.26,0.37l-0.19-0.18
	c0.11-0.22,0.48,0.48,0.34,0.89l-1.04,1.45c1.04,0.07,1.52-1.45,2.3-2.16c0.26,0.49,0.6-0.15,0.71-0.18
	c-0.74,1.53-1.75,2.46-2.49,3.95l0.18,0.18c1.53-1.01,1.34-2.42,3.01-3.05c-0.41,2.04-2.49,2.27-2.83,4.47l0.33,0.37l0.19-0.19
	l0.37,0.33c-0.45,0.3,0,0.82,0.15,0.89c-1.3-0.15-0.37,0.89-1.04,1.45l0.71,0.52c-0.71,0.11-0.11,1.08-0.56,1.45
	c1.82,0.52,1.3-1.97,2.53-2.68c0.85,0.78-0.37,1.6-0.74,2.31c-0.22,0.11-0.15,0.33-0.15,0.52c0.15,0.15,0.26,0.45,0.52,0.37
	c-0.37-1.45,2.12-1.49,1.41-2.87c0.37-0.22,0.56-0.86,1.08-0.71l0.37,0.89c0.45-0.22,1.12-0.93,1.41-0.71
	c0.15,0.52-0.48,0.71-0.71,1.08c0.45,0.45,0.74,0.15,1.26,0c-0.04-0.33,0.33-0.48,0.52-0.74h0.37c0.04,0.89-1.12,0.82-1.26,1.64
	c0.26,0.33,0.71,0.11,1.08,0.15c0.78-0.19-0.07-1.19,0.71-1.23c0.15,1.16,1.38,1.45,0.52,2.68c-1.04,1.23-2.3,2.64-2.3,4.09
	c0.33-0.89,1.45-1.04,1.78-1.97c-0.11-0.08-0.19-0.22-0.37-0.15c0.97-0.26,0.75-1.64,1.78-1.79c-0.26,0.97-0.78,1.67-1.6,2.12
	c0.45,0.86-0.93,1.38-0.71,2.34c0.48,0.41,0.86-0.45,1.41-0.37c-0.89,0.75-0.85,1.86-1.6,2.68c0.78,0.75,0.74-0.67,1.26-0.71
	c-0.15-0.52,0.19-0.56,0.52-0.71c0.96,0.85-1.04,1.04-0.33,1.93l1.6-1.23c0.22,0.34-0.22,1.34-0.71,1.6
	c0.18,0.56,0.93,0.41,1.23,0.19l0.71-1.27c0.04,0.45,0.07,1.45-0.71,1.6c-0.71,0.3-0.04,0.71,0,1.08c0.37-0.04,0.56-0.41,0.89-0.52
	c0.52,1.26,1.45-0.04,1.79-0.37c-0.04,0.15-0.74,1.23,0,1.6l1.45-1.42v1.26c-0.33-0.04-0.48,0.34-0.74,0.52l0.37,0.37l1.08-0.89
	c0,0.37-0.22,1.79,0.89,1.23c0.08,0.71-0.82,0.82-1.08,1.08v-0.19c-1.82,0.15-2.04,2.2-3.38,3.39c0.08,0.41,0.71,0.78,1.08,0.37
	c0.45-0.93,1.15-1.94,1.78-2.68l0.15,0.19c-0.33,1.19-1.34,2.12-1.93,3.2l0.15,0.19c-0.56,1.15-1.38-0.19-2.3,0
	c0.33-0.11,0.11-0.48,0.19-0.71l-0.19-0.19l-1.78,1.27c-0.19-0.71,1.26-0.93,0.52-1.64c-0.59,0.45-1.19,0.86-1.78,1.26l-0.15-0.37
	c-1.04,1.01-2.64-0.22-3.05,1.45c-0.3,0.07-0.56,0.22-0.89,0.19c0.04-0.45,1.08-0.89,0.18-1.26l-1.45,1.08
	c-0.45-0.08,0.11-0.48,0.18-0.71c-0.48-0.6-0.78,0.34-1.23,0.34l-0.89,1.08c-0.18-1-2.04-0.18-1.08-1.41
	c0.78-0.63,1.19-1.41,1.23-2.34c0.97-1.04,1.49-1.97,2.53-2.87c-0.63-0.74-1,0.78-1.63,0c0.48-0.34,0.11-0.93,0.18-1.41l-0.18-0.19
	c-0.22,0.37-0.6,0.37-0.89,0.56c0.56-0.93,1.82-1.9,1.78-3.24l-0.89-0.34c0.26-0.48,0.22-1.08,0.74-1.45l-0.37-0.34
	c-0.48,0.3-0.48,0.97-1.08,1.04c-0.19-0.19-0.45-0.37-0.34-0.71l0.52-0.52l-1.08-0.19c-0.3-0.52,0.71-1.23,0.37-1.79
	c-0.22,0.34-0.52,0.41-0.89,0.37c-0.85-1.3,2.34-1.86,0.71-2.68c-0.71,1.3-1.82,1.97-2.3,3.39c1.6,0.23-1.04,2.46,0.89,2.68
	c-0.22,0.3-0.19,0.67-0.19,1.08c-0.22,0-0.45-0.08-0.56,0.15c0.07,1.15,1,1.3,1.78,1.79c0,0.48-0.78,1.08,0,1.45
	c-1.3,0.11-1,1.86-2.31,1.97c-0.85,0.93-1.04,2.27-1.97,3.02c0.52,0.82,1.19-0.11,1.78-0.19c0.41-0.15-0.59,0.82-0.34,1.08
	c-0.52,0.48-1.19,1.23-1.45,1.97c-0.82-0.19-0.41,0.78-0.89,1.08L61,71.4c0.26-0.26,1-0.63,0.71-1.27c0.63-0.52,0.75-1.26,1.08-2.12
	c-0.3-0.59-0.56-0.11-0.89,0l-0.19,0.19c-0.48-1.23,1.64-1.9,1.27-3.24c-1.23,1.01-2.68,2.19-2.86,3.76
	c-0.23,0.26-0.52,0.22-0.71,0.52c-0.48-0.15-0.26-0.71,0-1.04c-0.48-0.37-0.96,0.34-1.41,0.52c-0.22-1.19,1.04-1.97,1.04-2.86
	l0.89-0.52l-0.52-0.37l-2.15,2.34c-0.33-0.3-0.37-1.41-1.04-0.74c-0.19,1.01-1.08,1.68-1.64,2.53l0.19,0.15
	c-0.19,0.26-0.56,0.41-0.52,0.75c-0.71,0.11,0.26-1.04,0.33-1.79c1.49-0.82,1.26-2.34,2.16-3.42c-0.15-0.3-0.48-0.11-0.71-0.15
	c-0.52,0.48-0.67,1.56-1.6,1.41c0.82-0.52,1.15-1.71,1.23-2.49l-1.08,0.52l0.37,0.37c-0.6,0.49-1.78,1.27-1.26,2.12
	c-0.82,0.3-0.45,1.45-1.6,1.27c-0.19-1.38,1.71-1.86,1.6-3.2c-0.3-0.48-0.59,0.11-0.89,0.15c-0.3,0.71-0.89,1.71-1.78,2.16
	c0.26-0.71,1-1.42,0.74-2.16c-2.56,0.97-2.19,4.65-4.46,5.55c-0.33,0.22-0.41,0.52-0.37,0.89l0.19,0.19
	c-0.52-0.15-0.71,0.48-1.08,0.71l0.19,0.19c-1.15,0.12,0,1.16-0.56,1.6c-1-0.41-0.37,0.97-1.23,0.89c0.11,0.22,0.33,0.19,0.52,0.19
	c-0.04,0.19,0.07,0.26,0.19,0.37l0.52-0.56L45.5,74.6c0.26-0.34,1.6-1.3,1.6-2.31c0.71,0,0.04,0.78,0,0.9
	c-0.22,0.11-0.19,0.33-0.19,0.52c-0.19,0.04-0.41-0.04-0.52,0.19c0.08,0.11,0.19,0.26,0.34,0.19l-0.71,0.71
	c0.67,1.12,2.38-1.49,1.26,0.71l-0.19,0.19c0.19,0.22,0.45,0.37,0.34,0.71c-0.11-0.22-0.34-0.15-0.52-0.15l-0.19,0.15l1.08,0.89
	c0.56-0.45,0.11-0.89,0-1.42l1.26-0.71c0.15-0.45,0.26-1.45,1.23-1.6l-0.71,0.52c0.82,0.56-0.82,0.33,0,0.89
	c-0.19,0-0.41-0.04-0.52,0.19v0.34c-1.04-0.19-0.22,1.01-0.89,1.27c0.3-0.22,0.93,0.52,1.04-0.37l-0.15-0.15
	c0.22,0.45,0.67,0.34,1.04,0.34c-1.27-0.22-0.3,1.71-1.6,1.6c0.22,0.22,0.37,0.48,0.71,0.37l0.74-0.9l-0.19-0.18h0.52
	c0.15,1.04-0.85,1.04-0.52,1.78c-0.48,0.3,0.11,0.6,0.19,0.9c0.19-0.52,0.89-0.97,0.89-1.42L51,78.91
	c-0.07-0.78,1.19-0.97,0.89-1.79c0.71,0.19,0.41-0.56,0.56-0.74l0.19,0.19c0.3-0.11,0.11-0.45,0.15-0.71
	c0.26,0.07,0.37-0.22,0.56-0.37l0.18,0.19c-0.18,0.3-0.74,0.45-0.56,0.9l-0.19-0.19c-0.37,0.22-0.37,0.59-0.15,0.89
	c0.07,0.22-0.63-0.19-0.56,0.37c-0.45,0.19-0.82,2.01-1.79,2.87c0,0.19-0.04,0.41,0.19,0.52c0.74-0.15,0.67-0.93,1.41-1.23
	l0.37,0.34c0.37-0.45-0.82-2.01,0.52-1.6v-0.19c1,0.56-0.7,0.78,0.37,1.45c0.3-0.33,0.71-0.59,0.52-1.08
	c0.19-0.08,0.26,0.07,0.37,0.18c-0.04-0.82,0.7-0.33,1.08-0.74c0,0.33-0.37,0.48-0.56,0.74c-0.15,0.04-0.22-0.11-0.33-0.18
	c-0.26,0.52-0.15,1.23,0.19,1.6c0.33-0.22,0.55-0.86,1.04-0.71c0.45,0.33-0.04,0.78-0.33,1.08c0.49,0.15,1.38-0.22,1.6-0.89
	l0.37,0.34l-0.89,1.08l0.71,0.71l1.08-1.41c0.41,0.3,0,1.15-0.56,1.23c-0.67-0.15-0.49,1.38-1.08,1.08c0.04-0.3-0.15-0.71-0.7-0.52
	c-0.22,0.22-0.22,0.52-0.52,0.71l0.33,0.37l-0.15,0.15c0.22,0.52,0.59-0.15,0.71-0.15l1.6,0.15c-0.33-0.33-0.6,0.56-0.89,0.89
	c0,0.22-0.04,0.45,0.19,0.56c-1.04,0.86-1.23,2.2-1.97,3.01c0.45,0.6,0.67-0.3,1.08-0.15c-0.56,0.71-0.78,1.86-1.45,2.68l-0.15-0.18
	c-0.04,0.93-1.34,1.04-1.45,1.79c-0.67-0.15-1.08-0.11-1.6,0.33c0.67,0.63-0.56,0.67,0,1.26c0.56-0.3,0.96-0.63,1.08-1.26
	c0.74,1.41-0.93,1.9-1.45,3.24l0.56,0.34c0.93-0.93,1.34-2.05,2.31-2.83c-0.3,1.49-1.3,1.79-1.23,3.2c0.19-0.48,1.45-0.15,0.89-0.89
	c0.45,0,0.26-0.45,0.71-0.52l-0.37-0.56l0.19,0.19c0.07-0.85,1.08,0.22,0.7-0.89c0.78-0.11,0.67-1.19,1.45-1.6l-0.19-0.19
	c0.33,0.11,0.48-0.15,0.71-0.37c0.04-0.15-0.07-0.22-0.19-0.33l1.26-1.08c-0.41,1.19-1.41,1.23-1.6,2.5
	c0.04,1.34-1.82,1.3-1.45,2.49l-0.33,0.37l0.15,0.19c-0.11,0.3-0.59,0.11-0.52,0.52c1.08,0.56,1.26-0.63,1.78-1.23l-0.18-0.19
	c0.11-0.11,0.18-0.22,0.37-0.19c0.11,0.19,0.41,0.3,0.33,0.52c-0.26,0.45-1.08-0.19-0.52,0.56l-0.52,0.52
	c0.41,0.11,0.71,0.52,1.23,0.37l0.19-0.56l0.19,0.56c-0.19-0.07-0.26,0.08-0.37,0.19c0.45,1.08,0.93-0.56,1.6-0.37
	c0-0.45,0.74-0.56,0.56-1.08c0.33,0.19,0.11,0.59,0.18,0.89c-0.52,0.19-0.52,0.37-0.89,0.71l0.15,0.19c-0.15,0.3-0.7,0.45-0.52,0.9
	c0.11,0.22,0.34,0.19,0.52,0.19l0.56-1.08l0.18,0.19l1.23-1.6l0.18,0.19c-0.18-0.08-0.26,0.07-0.37,0.15
	c-0.07,0.26,0.26,0.37,0.37,0.56c0.26,0-0.63-0.11-0.71,0.33c-0.08,0.19,0.07,0.26,0.18,0.37c0.11,0.11-1.08,0.41-0.89,1.08
	l0.71,0.52c0.63,0.08,0.15-0.67,0.52-0.89H59.4c0.56-0.6,0.86-0.11,1.41-0.71c0.74,0.3,0.59,1.56,1.64,1.08
	c0.04,0.26-0.26,0.33-0.37,0.52l-0.19-0.19c-0.37,0.22-0.41,0.6-0.19,0.9c-1.04-0.56-1.08,1.15-1.78,1.45
	c0.45,0.3,0.04,0.86-0.33,0.89c0.63,0.23,1.04,0.37,1.6-0.19c0.11,0.34-0.15,0.52-0.37,0.71l0.19,0.19l-0.34,0.37l0.52,0.52
	l0.71-0.71l0.19,0.19c-0.93,0.37-0.59,1.56-1.41,2.12l-0.89,0.71c0.19,0.22,0.45,0.41,0.34,0.74l-0.52,0.34
	c0.56,0.89,0.85-0.3,1.41-0.34c-0.07-0.48,0.11-1.15,0.56-1.08c0.3-0.15,0.11-0.48,0.15-0.7l0.56,0.15c-0.37,0.15,0.26,0.86,0,1.08
	c0.11,0.11,0.19,0.26,0.33,0.19l0.37-0.37c-0.11-0.07-0.22-0.19-0.19-0.34c0.96,0.48-0.22,1.45-0.33,1.97
	c-0.89-0.22-0.3,0.78-0.75,1.04c-0.71,1.15-1.34,1.97-2.3,2.87l0.19,0.19c-0.45,0.56-1.23,1.45-1.78,1.97
	c-0.15-0.86,0.97-1.23,1.08-1.97c-1-1.04-1.38,0.78-2.16,0.89c0.67-0.56,0.82-1.68,1.26-2.49c0.15,0.04,0.22-0.07,0.33-0.19
	c-0.11-0.22-0.33-0.19-0.52-0.19c-0.33,0.52-1.34,1.04-0.89,1.79c-0.34-0.11-0.52,0.19-0.71,0.37l0.15,0.19
	c-0.56,0.19-1,1.64-1.78,1.04c1.3-1.08,1.6-2.57,2.68-3.72v-0.37c-1.15-0.34-0.89,1.6-2.12,1.6c0.04,0.85-0.82,1.34-1.26,1.97
	c-0.15-0.67,1.11-1.6,0.89-2.16l0.56-0.52c-0.82-0.56,0.78-0.33,0-0.89l-2.15,2.31c-0.48-0.75,0.93-0.93,0.19-1.6
	c0.78-0.3,0.59-0.97,1.41-1.23c0.19-0.41,0.33-0.78,0.71-1.08c-0.11-0.11-0.18-0.22-0.33-0.19l0.89-0.89c-0.15-0.26-0.6-0.26-0.71,0
	c-1.15,0.74-0.97,1.71-1.97,2.31l0.18,0.19c-1.6,0.71-0.97,2.64-2.53,3.05c0.93-1.26,1.63-2.98,2.34-4.47l-0.19-0.19
	c-0.82,1.56-2.71,3.42-3.38,4.84h-0.56l2.16-3.42c-0.22-0.37-0.6-0.37-0.89-0.15c-1.08,0.89-0.89,2.68-2.16,3.2l-0.71-0.89
	c-0.07,0.6-0.48,0.41-0.89,0.71c-0.34-0.18-0.11-0.6-0.19-0.89c0.37-0.41,1.11-0.6,1.08-1.23l-1.23-0.19
	c0.11-0.33-0.19-0.52-0.37-0.71c-0.37,0.19-0.74,0.45-1.26,0.33l-0.15-0.19c1.34-0.56,1.63-2.64,2.49-3.72l-0.19-0.19
	c-1.26,0.74-1.41,3.35-3.2,2.5c-0.3,0.63-0.93,1.08-1.63,1.08c-0.22-0.11-0.15-0.33-0.15-0.56l0.34-0.33l-0.34-0.37
	c-0.11,0.22-0.33,0.19-0.56,0.19l-0.19-1.42c-0.93-0.37-0.3,1.42-1.23,0.52c-0.33-0.52,0.82-0.63,0.19-1.08
	c1.19-0.26,1.41-1.56,1.78-2.49l2.12-2.68c-0.82-0.75-0.67,0.74-1.41,0.71l0.18,0.19c-1.48,1.12-2.41,3.05-3.57,4.09
	c0.04-0.67,1.22-1.45,0.52-2.12h-0.71v-0.19c0.59-0.52,1.38,0.78,1.97-0.19c0.71-0.71,0.67-1.79,1.41-2.49l-0.19-0.19
	c0.22-1.01,2.34-0.82,1.08-2.12l-0.19,0.15l-0.34-0.34l-0.18,0.19c-0.04-0.41,0.67-1.19,0.18-1.79l-0.56,0.52
	c-1-0.52,0.07,0.56-0.52,0.89l-0.19-0.19l-0.19,0.19c-0.33-0.22,1.64-2.49-0.33-1.97l-0.56,0.89c0.6-1.01,0.93-2.12,1.79-3.02
	c0.71,0.6-0.56,0.78-0.34,1.42c1.04,0.22,1.6-1.01,2.31-1.79l-0.19-0.18c0.45-0.15,0.89-0.56,0.56-1.08l0.33,0.37
	c0.37-0.22,0.37-0.6,0.56-0.9c-0.74-0.44-1.34,0.6-1.97,0.9c-0.3-0.56,0.82-0.82,0.19-1.42l-1.63,1.42l-0.33-0.71
	c0.26,0.07,0.33-0.26,0.52-0.37v-0.19c-1.04-0.11-1.45,1.53-2.49,1.45c0.3,0.33,0.52,0.97-0.19,1.08c0.3,1.08,1.78-0.74,1.26,0.89
	c-0.82-0.11-0.11,1.16-1.08,0.71c-0.19-0.44,0.37-0.59,0.52-0.89c-0.6-1.15-0.89,0.6-1.6,0.33l-0.34-0.71l-0.89,0.37
	c-0.07-0.19,0.07-0.26,0.15-0.37c-0.29-0.97-1.71-0.45-1.93-1.6l-0.56,0.37c0.33-0.11,0.11-1.42,0.19-1.79
	c-0.11,0.15-0.45,0.26-0.37,0.52c-0.11-0.33-0.3-1.52-1.23-1.08c-0.48-0.33,0.48-0.97-0.37-1.23c-0.19,0.63-1.3,0.15-0.89,1.04
	c-0.26-0.07-0.33,0.26-0.52,0.37l0.19,0.19l-0.19,0.18c-0.04-0.3-0.15-0.63-0.19-1.08l0.37,0.34c0.33-0.86,0.71-1.64,0.89-2.31
	l-2.16,1.79l0.71-0.71l-0.52-0.37c0.15,0.07,0.26-0.07,0.33-0.19c0.07-0.19-0.15-0.41-0.33-0.33c-0.26,0.04-0.6-0.15-0.71,0.19
	l0.33,0.33h-0.52l-0.19-1.23c-0.37-0.07-0.67,0.04-0.89,0.34l0.19,0.19l-0.37,0.37c0.04,0.45,0.52,0.52,0.89,0.52
	c-0.04,0.67-0.3,1.27-0.89,1.97l0.19,0.18c-0.15,0.34-0.78,0-0.71,0.52l0.19,0.19c-0.22,0.22-0.71-0.19-0.89,0.33
	c-0.07,0.37,0.04,0.71,0.33,0.89c0.52-0.04,1.04-0.52,1.08-1.04l-0.19-0.18c0.78,0.04,0.67-1.08,1.26-1.27l-0.19-0.18
	c0.26,0.04,0.41-0.3,0.71-0.15l0.19,0.15c-0.19,0.22-0.74,0.26-0.52,0.74c-0.71,0.11-0.86,0.6-1.08,1.23
	c0.19,0.59-0.56,1.11,0.33,1.26c0.56-0.52,0.37-1.49,1.08-1.78l0.37,0.33c-0.19-0.04-0.26,0.11-0.37,0.19v0.71l-0.19-0.15
	c-0.48,0.19-0.45,1.12-1.04,0.52l-0.37,0.37l0.19,0.15l-0.37,0.37c0.82,0.93-0.33,1.34-0.71,2.31h-0.19
	c-0.56-0.63,1.38-1.12,0.19-1.79l-0.89,0.37l-0.37-1.08c-0.93,0.74-1.75,2.35-2.31,3.39h-0.37c-0.45-0.41,0.15-0.82,0.19-1.23
	c-0.6-0.45-0.63,0.45-1.23,0.52c-0.71,0.15-0.07,1.15-0.89,0.89c-0.37-0.93-1.49-1-0.56-2.12l0.56-0.19
	c0.3,0.34-0.78,1.56,0.52,1.23l0.89-1.6c-0.89,0.6-1.26-0.93-1.08-1.42l-0.7,0.19c-0.67,0.71,0.52-0.37,0.37-0.74l-0.19-0.15
	c0.37-0.22,0.41-0.6,0.19-0.9c-0.11-0.22-0.34-0.18-0.56-0.18c-0.74-1.56,1.3-1.75,1.45-2.87c-0.93-0.33-1.41,0.78-1.97,1.42
	c-0.08,0.26,0.15,0.59-0.19,0.74c-0.56-1.08,1-1.93,0.71-2.86l0.19,0.19c0.33-0.49,1.49-1.04,1.08-1.79
	c0.19,0.3,0.74,0.41,0.52,0.89c-0.93,0.19-0.41,0.86-0.33,1.42l0.71-0.71l0.71,0.89l0.19-0.19c0.04,0.3,0.63,0.6,0.19,0.89
	l0.15,0.19l-0.89,0.89c0.74,1.15,0.71-0.63,1.45-0.56c0.04,0.22,0.15,0.89-0.37,1.08l0.37,0.37c0.59-1.94,1.45,1.49,1.97-0.19
	l0.15,0.19c0.34-0.19,0.15-0.6,0.19-0.89l-0.19-0.19c-0.22,0.19-0.37,0.56-0.71,0.52l-0.33-0.33c0.19,0,0.41-0.04,0.52,0.18
	c-0.19-0.33,0.45-1.56-0.52-1.64l-0.37,0.37l-0.19-1.08l0.19,0.19c0.7-1.08,1.56-1.42,1.97-2.49c-1.19-0.07-0.67-2.23-2.15-1.45
	c0.22,0.97-1.15,1.86-1.41,2.68c0.22-0.41-0.56-1.04,0.34-1.41l-0.15-0.19c0.82,0.08,1-1.12,1.23-1.78v-0.19
	c-0.89,0.08-1.08,1.38-1.97,2.16l0.19,0.19c-0.11,0.07-0.19,0.22-0.34,0.19c-0.67-1.45,0.86-2.12,1.6-3.05
	c-0.41-0.22-0.56-1.3-1.45-0.89c-0.07-0.22,0.63,0.22,0.56-0.37l0.19-0.15c-0.41-0.26-1.04,0.04-1.45,0.33
	c-0.04,0.19,0.07,0.26,0.19,0.38l-0.89,0.89c0.63,0.3,0.89,0.22,1.41-0.19v0.52c-0.93,0.15-0.33,1.23-1.04,1.27
	c-0.33-0.41,0.11-1.15-0.56-1.41l-0.7,0.52l0.18,0.19c-0.18,0.37-0.26,1.41-1.08,1.6c0.71,0.93,1.78-2.16,1.6,0.19
	c-0.85,0.56-1.19,1.67-1.78,2.49c-0.82-1.6,0.74-1.08,0.71-2.49c-1.3-0.41,0.19,0.93-1.04,0.71l-0.74,1.08
	c-0.07-0.93,0.97-1.82,0.37-2.49l-0.52,0.52c0.19-0.08-1.19-0.56-0.19-1.08l-0.37-0.33c-0.37,0.41-0.71,1.3-1.6,1.22
	c0.41,0.08,0.82,0.67,1.26,0.19c0.85,0.48-0.78,1.3,0,1.79l0.33-0.37c0.33,0.45-0.07,0.75,0.56,1.08l-1.08,0.71l-0.19-1.41
	l-0.52,0.52c-1.26-0.78,1.45-1.79,0-2.12c-0.19,0.48-0.37,0.48-0.74,0.89c-0.78-0.71,0.74-1.49,0.74-2.16
	c0.22-0.07,0.34,0.26,0.52,0.37c-0.93-1.64,1.6-1.83,1.41-3.39l0.19,0.15l0.56-0.52c0,0.19-0.08,0.41,0.15,0.52l-0.71,0.89
	c0.41,0.97,1.04-0.74,1.45,0.19l-0.37,0.37l0.19,0.19c0.07,0.78-2.12,0.97-0.89,1.94c1.49-0.19,0.59-1.75,2.12-1.94
	c-0.3-1.42,2.08-2.05,0.74-3.05c-0.22,0.11-0.19,0.33-0.19,0.52c-0.48-0.19-0.48,0.37-0.71,0.56v0.33c-0.34,0-0.48,0.37-0.74,0.56
	l1.08-1.97c-0.56-1.04-1.04,0.45-1.6,0.19c0.45-0.22,0.33-0.67,0.37-1.08c-0.15-0.33-0.48-0.11-0.74-0.19
	c0.56-1-1.19-1.11-0.71-1.78c-0.6,0.04-0.19-1.12-1.08-0.71l-0.15-1.27c-0.26-0.04-0.37,0.26-0.56,0.37
	c0.11,0.11,0.22,0.19,0.18,0.37h-0.37c0-0.93-0.22-1.86,1.08-2.68L18.73,73c-0.6,0.71-1.23,0.93-1.45,1.79
	c-0.37,0.07-0.67-0.04-0.89-0.34c0.3-0.26,0.86-0.22,0.89-0.74l-0.33-0.34c-0.6-0.04-0.33,0.75-0.89,0.71
	c-0.19-0.11-0.3-0.41-0.56-0.37c0.52-0.15,0.3-0.89,0.71-1.23c-0.11-0.22-0.34-0.19-0.52-0.19c-0.22,0.12-0.19,0.34-0.19,0.52h-0.52
	c0.07,0.34-0.3-1.19,0.33-1.23l-0.52-0.37c-0.23,0.22-0.23,0.56-0.52,0.71l0.33,0.37c-1.26,0.15-0.3-1.75-1.78-1.08
	c0.15,0.56-0.37,0.19-0.71,0.56c0.52-0.26,0.85-0.86,0.71-1.64l-0.19-0.15c-0.59,0.97-1.64,1.56-1.93,2.31l-0.37-0.37
	c0.82,0.11,1.26-1.34,1.6-2.12c0-0.33-0.34-0.48-0.52-0.71c-0.29,0.3-0.71,0.56-0.56,1.04l-0.52-0.33c0.11,0.89-1.23,1.34-0.89,2.31
	c-0.97-0.11-0.78,1.12-0.52,1.6c-0.67-0.04-0.52-0.52-0.56-1.04c1.19-0.37-0.11-1.53,1.26-1.79l-0.18-0.19
	c0.97-0.04,0.3-1.52,1.26-1.26l0.34-1.08c-0.41-0.63-0.93,0.59-1.23-0.34c0.41-0.22,0.45-0.78,0.15-1.08
	c-0.41-0.6-0.63,0.45-1.04,0.37c-0.34-0.71,0.59-1.56,0.52-2.16c-0.48,0.48-1.19,0.48-1.26,0.71c-0.07-0.26,0.26-0.34,0.37-0.52
	l-0.19-0.19c-0.45,0,0.19,0.04,0.19-0.19l-0.37-0.33c-0.45,0.11-0.52,0.82-1.04,0.89c-0.3-0.44-0.07-1.37-0.89-1.26
	c0.15,0.34-0.22,0.86-0.74,0.89l-0.15,0.19c-0.04-0.41,0.45-1.04,0.52-1.6c0.22-0.3,0.93-0.11,0.71-0.74l-0.19-0.15
	c0.74-0.26,0.22-1.19,1.08-1.08c-0.3-0.82-0.82,0-1.23,0c0.3,0.67-0.59,0.97-0.89,1.42c0.07,0.11,0.22,0.18,0.15,0.37
	c-0.11,0.34-0.45,0.11-0.71,0.19c-1.04-1.6,1.97-0.97,0.56-2.53l-0.56,0.56l0.19,0.19c-0.63,0.15-0.93,1.08-1.6,1.04
	c0.11-0.26,0.6-0.11,0.52-0.52l-0.33-0.37c0.45,0.04,0.33-0.45,0.52-0.71c-0.78-0.78-0.67,0.82-1.41,0.56l0.34-0.37l-0.19-0.18
	l0.56-0.34L3.2,60.86l1.08-1.45l0.19,0.19c0.3-0.3,0.11-0.3,0.52-0.19c-0.82,0.22-0.59,1.19-0.89,1.79c0.3,0.41,0.56-0.34,0.89-0.34
	L4.79,60.3l0.19,0.19l1.08-1.23l-0.19-0.19c0.97-0.04-0.45-0.86,0.52-0.89c-0.71,0.11-1.89-0.08-2.3-0.89
	c0.67-0.22,0.82-0.97,1.26-1.45l-0.19-0.15c0.3-0.22,0.41-0.52,0.33-0.9l-1.04-0.19c-0.3-0.82,0.97-1.27,1.6-1.6
	c0.37,0.22,1,0,1.41-0.19c-0.19-0.45-0.82-0.63-1.41-0.56c1.45-0.86,2.42,2.08,3.57-0.15c-0.48-1.04-1.52,0.86-1.6-0.56
	c1.3-1.38,3.94,1.45,4.61-1.23c0.07-0.37,0.48-0.6,0.74-0.89c0.41-0.15,0.59,0.22,0.89,0.33c-0.22,0-0.45-0.04-0.56,0.19
	c0.97,0.67,1.67,0.26,2.86,0.37c-0.07,0.15,0.07,0.22,0.19,0.34c1,0.11,0.71-1.56,1.78-1.41c-0.41-0.56,0.89-1.12,0.19-1.79
	l1.41-0.71c-0.22-0.26-0.11-0.93-0.71-0.74c0.04-0.15-0.07-0.22-0.19-0.33l3.05-0.19c0-0.33,0.6-0.86,1.04-0.89
	c0.19,0.63,0.82,0.82,1.45,0.71c-0.63,0.56-0.04,0.89-0.89,1.27l0.52,0.52c0.74-0.3,0.63-1.12,1.6-1.08
	c-0.37,0.48-0.67,0.86-1.04,1.45c1.08,0.75,1.23-1.04,1.93-1.26l-0.15-0.19c0.45-0.15,0.78-0.75,1.41-0.52
	c-0.22,0.48-0.85,0.37-0.89,0.89c0.71,0.37,1.34-0.56,1.97-0.89c0.11,1.23-0.74,1.45-1.6,1.97c-0.19-0.04-0.34-0.56-0.74-0.37
	l-0.52,0.56c0.3,0.33,0.82,0.11,1.26,0.15c0.04,0.19-0.11,0.26-0.19,0.37c0.48,0.63,0.82,0.04,1.23-0.37l-0.15-0.15
	c0.78-1.6,2.42-0.41,3.38-1.45l0.19,1.26c0.33,0.11,0.48-0.15,0.71-0.37c0.37,0.59,0.86,0.56,1.41,0.56l-0.52,0.52
	c0.19,0.33,0.52,0.41,0.89,0.37l1.41-1.64c-0.04,0.3,0.11,0.82,0.56,1.08c0.11-0.33,0.45-0.11,0.71-0.19
	c-0.11,0.19-0.45,0.3-0.37,0.56c0.22,0.3,0.52,0.41,0.89,0.33c0.26-0.15,0.41-0.52,0.71-0.52c-0.19,0.56-0.59,1.23-0.15,1.79
	l1.04-0.71c0.11,0.89-1.97,2.05-1.04,3.2c1-1.12,2.05-2.57,3.01-3.39c-0.71,0.93-1.78,1.94-1.6,3.05c-0.19,0.22-0.56,0.37-0.52,0.71
	c0.3,0.49,0.59-0.11,0.89-0.18c0.15,1.82-2.3,2.75-1.97,4.65l1.6-1.6c-0.48,1-0.85,2.72-1.97,3.57l0.37,0.34
	c0.86-0.15,0.41-1.9,1.78-1.23l-1.45,1.93l0.19,0.19l-0.89,1.08c0.56,0.3,1.08-0.48,1.6-0.71l-0.15,0.89
	c1.19,0.63,1.45-1.26,2.3-1.6c0.74-1.34,1.64-2.79,2.86-3.76c0.19-0.26,0.33-1,0.89-1.08c-0.11,0.34-0.33,0.75-0.71,1.08l0.33,0.34
	c1.19-0.75,1.19-2.16,2.68-2.68c-0.71,0.48,0.19,0.97-0.52,1.45c0.67,0.37,1.11-0.89,1.78-1.08c0,0.37,0.6,0.78,0.89,0.37
	c0.45-0.82,1.26-1.49,1.23-2.53l0.56-0.52c-0.26-0.33-0.71-0.11-1.08-0.19c-0.41-1.23,1.48-1.12,1.26-2.31
	c-0.86-0.48-1.45,0.71-1.63,1.23c-0.11,0.22-0.34,0.19-0.52,0.19c0.08-1.08,1.52-1.6,1.26-2.87h-1.08c0.19-1.23,1.67-2.27,2.12-3.57
	l-0.33-0.33c-1.38,0.33-0.78,1.97-2.16,2.31c0.23,0.11,0.19,0.33,0.19,0.56c-0.33,0.11-0.56,0.49-0.89,0.52
	c0.45-0.82,1.19-1.75,0.89-2.68l-1.08,0.52c0.04-0.74,0.56-1.45,1.26-1.79c0.97-1.08,1.34-2.46,2.31-3.57
	c0.3,0.41-0.6,0.75-0.52,1.27c0.07,0.52-1.12,1.41-1.45,1.97l0.18,0.18c-0.41,0.26-0.48,0.71-0.71,1.04
	c0.19,0.15,0.26,0.45,0.52,0.37c1.48-2.12,3.01-3.76,4.13-6.07c1.71,0.07,0.19-3.13,2.3-2.34c-0.48,0.63-0.41,1.75-1.41,1.79
	l0.19,0.18c-0.89,1.04-1.78,2.38-2.68,3.58l0.15,0.19l-1.23,1.6l0.33,0.37c1.9-0.97,1.64-3.28,3.42-4.28
	c0.11-0.71,1.38-1.71,1.79-2.68c0.52,0.82-0.78,1.79-1.08,2.49c-1.04,0.15-0.22,1.08-1.08,1.6l-0.71,0.71l0.19,0.19
	c-0.34,1.04-1.64,1.71-2.16,2.68l0.37,0.37c1.45-0.63,1.49-2.31,2.68-3.05l0.15,0.18l1.08-2.87c1.3,0.19,1.19-1.49,1.6-2.16
	l0.37,0.37l0.37-0.37v0.37c-0.45,0.67-1.26,1.49-1.63,2.31c0.07,0.37-0.15,0.86,0.19,1.08c0.44-1.41,1.97-1.49,2.15-3.01l0.18,0.15
	c0.3-0.97,1.26-1.38,1.41-2.31C61.4,35.77,61.37,36,61.37,36.18z"/>
<rect x="62.45" y="35.85" width="0.15" height="0.89"/>
<path d="M80.99,36.18c-0.11,0.22-0.33,0.18-0.56,0.18v-0.33C80.55,36.26,80.77,36.18,80.99,36.18z"/>
<polygon points="87.05,36.55 86.53,36.18 87.05,36.37 "/>
<path d="M46.2,37.45c-1.26,0.04-0.26,1.82-1.6,1.97c0-1.38,1.15-1.57,1.6-2.68V37.45z"/>
<path d="M50.85,37.45c-0.52,0.3-0.11,1.15-0.74,1.26L47.09,43c0.37-2.27,2.45-3.95,3.2-5.92C50.29,37.82,50.77,36.89,50.85,37.45z"
	/>
<path d="M37.99,37.82c-0.11,0.33-0.48,0.11-0.71,0.15l0.52-0.71C38.02,37.37,37.99,37.6,37.99,37.82z"/>
<polygon points="64.38,37.97 64.94,37.45 64.75,38.34 "/>
<polygon points="38.36,38.71 38.88,37.82 38.7,38.71 "/>
<path d="M43.71,38.34c0.04,0.26-0.26,0.37-0.37,0.52v-0.52H43.71z"/>
<path d="M6.39,40.13c0.26-0.63,0.93-0.67,1.26-0.71L6.39,40.13z"/>
<path d="M43.34,40.83l-0.19-0.19l0.89-0.71C43.82,40.24,43.86,40.83,43.34,40.83z"/>
<path d="M50.48,39.94c-0.04,1.16-0.3,0.89-1.08,1.79l0.19,0.19l-1.26,1.41c-0.41-1.08,1.49-1.64,1.26-2.83
	C49.88,40.32,50.03,39.76,50.48,39.94z"/>
<polygon points="40.14,41.21 40.66,40.13 40.48,40.83 "/>
<path fill="#E6E7E8" d="M62.45,40.32c-0.26-0.08-0.37,0.22-0.56,0.33c0.82,1.16-1.15,1.12-1.08,2.16c-0.45,0.93-1.08,1.79-2.12,1.97
	v-0.37c-0.45-0.3-1.12,0.22-1.26,0.71c-0.23-1.64,1.97-2.75,2.67-4.28c-0.04,0.19,0.07,0.26,0.18,0.37
	c-0.48,0.97-1.97,1.49-0.89,2.68c0.11-0.33,0.45-0.6,0.71-0.89c-0.23-0.11-0.19-0.34-0.19-0.56c1.52-0.15,1.38-1.6,2.34-2.31
	L62.45,40.32z"/>
<path d="M74.19,40.5c-0.45,0.6-0.41,1.86-1.41,1.79c0.52,0.3-0.26,0.52-0.19,0.89L72.26,43c0.3-0.15,0.11-0.49,0.15-0.71h0.37
	C73.08,41.43,73.71,40.91,74.19,40.5z"/>
<path fill="#E6E7E8" d="M62.26,44.41l0.89-0.89l-0.19-0.19c0.85-0.07,0.45-1.34,1.41-1.23c-0.15,0.41,0.26,0.6,0.37,0.89l1.08-1.08
	c-0.11,0.89-0.45,1.97-1.08,2.31c-0.82,0.04,0.22,0.48-0.37,0.75c-0.93-0.11-1.04,1.49-0.71,1.79c-0.78-0.37-0.71,0.6-1.08,0.89
	c0.11,0.67,1.12-0.04,0.89,0.71c0.37,0.33,0.86-0.07,1.26-0.19l0.19,0.19c-0.71,1.53-1.78,3.09-2.86,4.28l-0.19-0.19
	c1.04-1.12,1.34-2.57,2.49-3.76c-1.34-0.26-1.93,1.3-2.49,2.35c0.41,1.75-2.12,1.53-1.97,3.02c-0.11,0.33-0.45,0.15-0.71,0.19
	c-0.26-0.82,1.34-0.6,0.56-1.42c1.6-0.22,0.89-2.01,1.93-2.49c-0.37-0.78,1.08-1,0.56-1.64c-1.19,1.56-2.86,2.76-3.57,4.65
	c-1-1.67,1.82-1.75,1.6-3.57c0.56-0.52,1.08-1,1.08-1.79c-0.19-0.11-0.3-0.41-0.56-0.33c-0.37,1.04-1.19,1.41-1.93,2.31
	c0.52,0.63-0.37,1.08-0.56,1.6c-0.19,0.34-0.6,0.11-0.89,0.19c0.11-0.45,0.59-0.71,0.89-1.08c-0.07-0.11-0.22-0.19-0.19-0.34
	c0.78-0.48,0.48-0.93,0.56-1.45c-0.78,0.04-1.04,0.89-1.26,1.45c0.04,0.82-1.27,1.12-1.6,1.79c0.11-0.63,0.59-1.9,1.41-2.16
	c-0.56-0.63,1.26-1,0.37-1.79c-1.3,0.86-2.12,2.87-3.38,3.76c1.45-1.15,1.71-3.76,3.38-4.84c0.63,0.19-0.52,1.08,0.52,0.89
	c0.11-0.78,1.38-0.63,1.08-1.6c0.74-0.34,0.71-1.45,1.45-1.79c0.37-0.86,1.08-1.75,1.79-2.31l-0.37-0.37
	c0.59-0.22,0.96-0.22,1.26-0.89C63.78,42.44,61.26,43.03,62.26,44.41z"/>
<path d="M70.81,41.21c-0.89,1.26-1.78,2.2-2.49,3.39c-0.97-1.71,1.86-1.86,1.97-3.57C70.48,41.02,70.7,40.98,70.81,41.21z"/>
<polygon points="71.89,41.73 72.07,41.21 72.26,41.39 "/>
<path fill="#E6E7E8" d="M58.13,41.39c-0.04,1.34-1.19,1.9-1.78,2.83l-0.15-0.15l1.41-1.45C57.65,42.4,57.61,41.51,58.13,41.39z"/>
<path d="M101.85,41.39c-0.26,0.97-1.08,1.93-1.6,2.12l-0.19-0.19l1.45-1.93H101.85z"/>
<path d="M22.12,42.29l1.08,1.04c-0.15,0.6-0.78,0.82-1.26,0.89c0.11-0.15,0.44-0.26,0.37-0.52c-0.52-1.34-1.12,0.3-1.78,0.19
	l0.15,0.18c-0.22-0.04-0.93-0.78-1.23,0c-0.07-0.63-1.34-1-0.89-1.64c0.59-0.19,0.33,0.37,0.52,0.56l0.71-0.71
	c0.19-0.67-0.86,0-0.52-0.75C20.67,41.1,20.74,44.04,22.12,42.29z"/>
<polygon fill="#E6E7E8" points="55.46,43 55.83,42.29 56.2,42.29 "/>
<path d="M102.74,42.81h-0.33c-0.07-0.26,0.04-0.6,0.33-0.52V42.81z"/>
<path d="M71.18,43.18c-0.67,0.08-0.82,1.79-1.78,1.94C69.18,44,70.29,43,71.18,43.18z"/>
<rect x="76.72" y="43.18" width="0.15" height="0.71"/>
<polygon fill="#E6E7E8" points="65.46,44.97 66.35,43.33 66.35,43.89 "/>
<path d="M63.86,44.97l-1.27,0.71c-0.15-0.97,1.23-1.27,1.27-2.16C64.45,43.67,64.23,44.63,63.86,44.97z"/>
<path d="M101.51,43.7c-0.08,0.26,0.15,0.6-0.18,0.71V43.7H101.51z"/>
<path d="M47.8,44.41h-0.37c-0.04-0.22,0.07-0.56,0.37-0.52V44.41z"/>
<path fill="#E6E7E8" d="M54.94,44.22c-0.26,0.19-0.41,0.56-0.71,0.56l0.52-0.71L54.94,44.22z"/>
<path d="M20.33,44.41c-0.11,0.19-0.52,0.49-0.89,0.37C19.4,44.22,20,44.48,20.33,44.41z"/>
<path d="M71.7,45.12c-0.48,0.08-0.78,0.6-1.22,0.75c-0.3-0.48,0.26-1.04,0.71-1.45L71.7,45.12z"/>
<path d="M72.59,45.49c-0.63-0.19-0.33,0.37-0.52,0.52C72,45.49,72.11,45,72.41,44.59C72.74,44.78,72.52,45.19,72.59,45.49z"/>
<path d="M4.09,45.3c-0.26,0.34-0.71,0.11-1.08,0.19l0.37-0.52L4.09,45.3z"/>
<path d="M75.98,45.3c-0.33,0.37-0.37,1.19-1.04,1.08l0.33-0.37l-0.19-0.15C75.05,45.23,75.75,45.67,75.98,45.3z"/>
<path d="M31.22,45.86h-1.26c0.37-0.22,0.74-0.48,1.26-0.37V45.86z"/>
<path d="M68.5,46.75l-0.37-0.37c0.19-0.22,0.74-0.22,0.56-0.71l0.33,0.33L68.5,46.75z"/>
<path fill="#E6E7E8" d="M57.09,45.86c-0.45,0.22-0.67,1.01-1.08,1.23C55.83,46.31,56.57,46.05,57.09,45.86z"/>
<polygon points="97.05,46.57 96.87,45.86 97.2,45.86 "/>
<path d="M59.77,47.46l0.15,0.19c-0.3,0.11-0.45,0.78-0.89,0.9c0.04-0.19,0.56-0.34,0.37-0.75l-0.37-0.33
	c0.37,0.04,0.71-0.04,0.89-0.37l-0.33-0.34l1.08-0.56C60.55,46.53,60.1,47.05,59.77,47.46z"/>
<rect x="76.16" y="46.57" width="0.19" height="0.71"/>
<path fill="#E6E7E8" d="M20.85,46.75c0.37,0.19-0.04,0.49-0.19,0.71c-0.15,0.04-0.22-0.07-0.33-0.19
	C20.11,46.79,20.63,46.9,20.85,46.75z"/>
<path d="M61.7,47.46h-0.15l0.52-0.56l-0.19-0.15C62.37,46.83,61.78,47.2,61.7,47.46z"/>
<path d="M77.95,46.75c0,0.3-0.34,0.45-0.52,0.71C77.43,47.13,77.87,46.87,77.95,46.75z"/>
<path d="M95.27,46.9c-0.26,0.22-0.22,0.56-0.56,0.74h-0.33C94.19,47.05,94.9,46.98,95.27,46.9z"/>
<polygon points="38.88,47.65 39.25,47.09 39.25,47.28 "/>
<path d="M40.29,48.17c-0.52-0.34,0.26-0.52,0.18-0.89h0.37L40.29,48.17z"/>
<path fill="#E6E7E8" d="M65.64,47.28c-0.04,0.45-0.22,0.3-0.52,0.71c0.04-0.15-0.11-0.22-0.19-0.33
	C65.12,47.42,65.31,47.16,65.64,47.28z"/>
<path d="M78.84,48.69c-0.26-0.04-0.33,0.26-0.52,0.37v-0.71l0.19,0.19v-1.08C78.62,47.72,78.99,48.17,78.84,48.69z"/>
<path fill="#E6E7E8" d="M55.83,47.79c0.19,0.52-0.34,0.41-0.52,0.56h-0.37C54.79,47.87,55.46,47.31,55.83,47.79z"/>
<polygon points="46.54,48.54 46.91,47.79 46.91,48.17 "/>
<path d="M76.87,48.54c-0.15,0.04-0.22-0.11-0.34-0.19l0.52-0.56C76.98,48.06,77.2,48.39,76.87,48.54z"/>
<path d="M91.7,49.96c-0.08-0.89,0.74-1.56,1.04-2.16C93.52,48.24,91.92,49.36,91.7,49.96z"/>
<path fill="#E6E7E8" d="M70.81,49.43c-0.56-0.22,0.3-1.04,0.71-1.45h0.18L70.81,49.43z"/>
<path fill="#E6E7E8" d="M73.15,48.17c-0.11,0.26-0.15,0.52-0.37,0.71v-0.71H73.15z"/>
<path d="M80.44,48.35c-0.18,0.11-0.52,0.52-0.71,0.19C79.95,48.39,80.25,47.98,80.44,48.35z"/>
<path d="M48.17,48.35c-0.15,0.56-0.97,0.78-0.89,1.41h-0.37C47.58,49.58,47.28,48.46,48.17,48.35z"/>
<path d="M93.3,49.96c-0.26-0.71,0.22-0.89,0.89-1.6L93.3,49.96z"/>
<path fill="#E6E7E8" d="M74.19,50.85l0.37-0.37c0.11-0.52,0.33-1.64,1.27-1.93C75.72,49.66,74.68,49.88,74.19,50.85z"/>
<path d="M95.6,48.54c0.11,0.82-0.78,0.89-1.08,1.41C94.71,49.4,95.08,48.62,95.6,48.54z"/>
<path d="M16.39,49.25l-1.08-0.19C15.43,48.32,16.17,48.88,16.39,49.25z"/>
<path d="M48.69,50.14h-0.37l1.08-1.45C49.36,49.25,48.92,49.66,48.69,50.14z"/>
<path fill="#E6E7E8" d="M53.67,50.85c-0.97,0.04-0.26,1.38-1.23,1.27l2.3-3.43C55.46,49.81,53.52,49.58,53.67,50.85z"/>
<path d="M97.05,48.69c0.11,0.52-0.49,0.75-0.75,1.08h-0.33C96.23,49.47,96.72,48.95,97.05,48.69z"/>
<path fill="#E6E7E8" d="M66.16,48.88c-0.26,1.11-0.78,1.64-1.6,2.49C64.71,50.4,65.42,49.14,66.16,48.88z"/>
<path fill="#E6E7E8" d="M31.74,50.14l-0.19-0.19c0.71-0.3-0.19-0.56,0.37-0.89h0.52L31.74,50.14z"/>
<path d="M46.2,49.77H45.5l0.52-0.71C45.98,49.32,46.31,49.47,46.2,49.77z"/>
<path d="M77.43,50.14l-0.19-0.19c0.37-0.11,0.67-0.45,0.52-0.89C78.24,49.43,77.69,49.84,77.43,50.14z"/>
<path d="M79.54,49.77c-0.74,0.15-0.97,1.34-1.23,1.79l-1.26,0.9c0.37-0.6,0.33-1.34,1.08-1.79l0.19,0.18
	c0.33-0.18,0.11-0.59,0.19-0.89c0.15-0.04,0.22,0.07,0.33,0.19l0.37-0.37l-0.19-0.19l0.52-0.52V49.77z"/>
<path fill="#E6E7E8" d="M52.78,49.58c0.11,0.34-0.15,0.52-0.33,0.75h-0.18C52.08,49.92,52.52,49.66,52.78,49.58z"/>
<path fill="#E6E7E8" d="M72.26,49.96c-0.74-0.22-0.37,0.63-0.74,0.89l-1.23,1.08c0.15-0.48,0.71-0.82,1.08-1.26l-0.19-0.19
	c0.26-0.49,0.45-0.86,1.08-0.89V49.96z"/>
<path fill="#E6E7E8" d="M71.37,52.82c0.59-1.45,1.41-2.05,2.3-3.24C72.89,50.66,72.67,52.26,71.37,52.82z"/>
<path d="M97.2,50.48c-0.15,0.33-0.08-0.93,0.56-0.89h0.19L97.2,50.48z"/>
<path d="M4.61,49.96c-0.07,0.89-1.26,0.52-1.93,0.71C2.53,49.62,3.98,49.66,4.61,49.96z"/>
<polygon fill="#E6E7E8" points="70.29,50.48 70.29,49.77 70.62,49.77 "/>
<path fill="#E6E7E8" d="M65.64,51.74c-0.15-0.45,0.86-1,1.26-1.79C66.94,50.55,66.09,51,65.64,51.74z"/>
<path d="M95.97,50.14c0.04,0.56-0.74,0.33-0.71,0.89C95.16,50.96,95.64,50.25,95.97,50.14z"/>
<path fill="#E6E7E8" d="M23.53,50.33c-0.22,0.45-0.67,0.34-1.08,0.34C22.79,50.51,23.12,50.25,23.53,50.33z"/>
<path d="M94.38,50.33c-0.22,0.19-0.48,0.37-0.37,0.71l0.19,0.19l-0.56,0.33C93.37,51.29,94.12,50.4,94.38,50.33z"/>
<path d="M91.85,51.93l0.74-1.45C92.26,50.92,92.52,51.63,91.85,51.93z"/>
<path d="M79.73,51.37c-0.08,0.63-0.45,1-1.08,1.08C78.84,52.04,78.91,50.33,79.73,51.37z"/>
<path d="M4.27,51.55c-0.41-0.15-0.59,0.26-0.89,0.37l0.19,0.19H3.2c-0.19-0.63,0.3-0.48,0.52-0.89C3.98,51.15,4.09,51.44,4.27,51.55
	z"/>
<path d="M5.69,51.55l-0.52,0.56c0.19,0.11,0.26,0.41,0.52,0.34c-0.19,0.33-0.93,0.11-1.41,0.19l-0.19-0.19
	C4.87,52.37,4.76,51.07,5.69,51.55z"/>
<path fill="#E6E7E8" d="M72.59,53.53l-0.19-0.19l1.45-1.97C73.48,52.11,73.19,52.9,72.59,53.53z"/>
<path fill="#E6E7E8" d="M13.01,51.55c0,0.22-0.34,0.34-0.52,0.37C12.45,51.71,12.79,51.59,13.01,51.55z"/>
<path d="M80.44,52.45H80.1l0.52-0.71C80.55,52,80.77,52.34,80.44,52.45z"/>
<polygon fill="#E6E7E8" points="63.34,52.64 64.04,51.93 63.49,52.64 "/>
<path fill="#E6E7E8" d="M57.43,52.45c-0.63,0.67-0.86,1.67-1.6,2.16l-0.37-0.37c0.71-0.45,0.71-1.15,1.45-1.6v-0.37
	C57.09,52.3,57.32,52.22,57.43,52.45z"/>
<path fill="#E6E7E8" d="M70.29,52.45c-0.63,0.15-0.04,0.97-0.71,0.89C69.7,53.01,69.84,51.96,70.29,52.45z"/>
<path d="M94.38,52.26c0.11,0.33-0.19,0.52-0.37,0.74c-0.15,0.04-0.26-0.11-0.37-0.19C93.89,52.64,94.04,52.26,94.38,52.26z"/>
<path fill="#E6E7E8" d="M55.46,53.16c-0.15-0.04-0.22,0.11-0.33,0.19c-0.11-0.37,0.19-0.75,0.33-0.89V53.16z"/>
<polygon fill="#E6E7E8" points="65.12,53.01 65.27,52.45 65.64,52.45 "/>
<path fill="#E6E7E8" d="M8.55,53.34c-0.97,0.26-2.01,0.22-2.86,0.71L5.5,53.9c0.56-0.78,1.6,0.04,2.16-0.74
	C7.95,53.23,8.36,53.01,8.55,53.34z"/>
<path fill="#E6E7E8" d="M10.33,53.16c-0.26,0.34-0.71,0.11-0.89,0.56C9.25,53.08,9.96,53.16,10.33,53.16z"/>
<path fill="#E6E7E8" d="M62.97,53.16c0.48,1-0.82,1.68-1.27,2.53c-0.59-1.16,1.19-1.34,1.08-2.53H62.97z"/>
<polygon fill="#E6E7E8" points="60.81,54.61 61.18,53.53 61.18,54.61 "/>
<path fill="#E6E7E8" d="M10.7,54.42l-0.19-0.19c0.11-0.08,0.41-0.52,0.71-0.52L10.7,54.42z"/>
<polygon fill="#E6E7E8" points="54.23,54.61 54.75,53.71 55.12,53.71 "/>
<polygon fill="#E6E7E8" points="11.6,54.05 12.3,53.9 13.2,53.9 "/>
<polygon fill="#E6E7E8" points="6.39,54.94 7.47,54.05 8.03,54.05 "/>
<path fill="#E6E7E8" d="M9.44,54.24c-0.08,0.11-0.37,0.52-0.71,0.37l-0.19-0.19C8.85,54.35,9.14,53.79,9.44,54.24z"/>
<polygon fill="#E6E7E8" points="50.29,55.13 50.85,54.42 51.18,54.42 "/>
<path fill="#E6E7E8" d="M53.34,56.02c-0.45-0.3-0.04-1.16,0.52-1.23C54.19,55.17,53.67,55.84,53.34,56.02z"/>
<path fill="#E6E7E8" d="M49.21,55.13c-0.22,0.6-0.18,1.3-0.71,1.79h-0.52C48.32,56.28,48.17,55.02,49.21,55.13z"/>
<path fill="#E6E7E8" d="M58.69,55.31c-0.3,0.3-0.26,1.04-0.89,0.89C57.91,55.91,58.13,55.35,58.69,55.31z"/>
<polygon points="41.04,56.39 41.37,55.69 41.56,55.84 "/>
<path fill="#E6E7E8" d="M6.39,56.21c-0.37,0.19-0.78,0.3-1.04,0.71c0.59,0.45-0.45,0.63-0.37,1.08l-0.52-0.52
	C5.46,57.21,5.13,55.91,6.39,56.21z"/>
<path fill="#E6E7E8" d="M57.8,56.92c-1.38,0.37-0.89,2.09-2.16,2.35c-0.04-0.45,0.29-0.78,0.18-1.27
	C56.76,57.92,56.94,56.66,57.8,56.92z"/>
<path fill="#E6E7E8" d="M55.65,57.1c-0.22,0.37,0.07,1.27-0.71,1.08C55.42,57.7,54.68,57.06,55.65,57.1z"/>
<path fill="#E6E7E8" d="M58.69,57.29c0,0.18,0.04,0.41-0.19,0.52h-0.37C57.95,57.33,58.47,57.44,58.69,57.29z"/>
<path fill="#E6E7E8" d="M23.19,57.62c-0.07,0-0.33,0.3-0.74,0.19C22.75,57.85,22.86,57.51,23.19,57.62z"/>
<path fill="#E6E7E8" d="M44.23,57.81c0,0.33-0.37,0.48-0.52,0.71C43.45,58.18,43.86,58,44.23,57.81z"/>
<path fill="#E6E7E8" d="M53.52,57.81l-0.37,0.71L53.52,57.81z"/>
<path fill="#E6E7E8" d="M74.56,57.81c0.07,0.26-0.26,0.37-0.37,0.56c0.56,0.89,1.26-0.3,1.64-0.56c0.15,0.37-0.26,0.97-0.37,1.45
	c0.41,0.3,0.96-0.56,1.41-0.19c-1.19,1.75-3.42-0.56-4.46,1.6h-0.52c0.04-0.15-0.07-0.26-0.19-0.37L71,60.86v-0.71
	c0.52-0.74,1.08-1.45,1.6-2.16c0.19,0.3,0.19,0.67,0.56,0.89C74.16,59.07,73.56,57.62,74.56,57.81z"/>
<path d="M4.09,58c0.04,0.19-0.07,0.26-0.19,0.37H3.38C3.35,57.92,3.79,58,4.09,58z"/>
<polygon points="2.3,58.37 2.82,58.18 2.82,58.51 "/>
<path fill="#E6E7E8" d="M48.17,59.07c-0.45-0.22-0.04-0.52,0.15-0.71h0.19L48.17,59.07z"/>
<path fill="#E6E7E8" d="M59.77,58.7c-0.22,0.33-0.56,0.41-0.89,0.37l-0.18-0.19C58.88,58.48,59.73,58.14,59.77,58.7z"/>
<path fill="#E6E7E8" d="M70.62,58.89l-0.15-0.37c0.26,0.04,0.37-0.26,0.71-0.15L70.62,58.89z"/>
<path fill="#E6E7E8" d="M62.26,59.41l-0.56,0.56l0.19,0.19c-0.19,0.11-0.26,0.41-0.52,0.34c-0.11-0.11-0.26-0.19-0.19-0.34
	c0.82-0.3-0.26-0.71,0.37-1.08C61.81,59.67,62.45,58.51,62.26,59.41z"/>
<path fill="#E6E7E8" d="M6.39,61.05H5.69c-0.67,0.15,0.86-0.52,0.19-0.89C6.8,59.3,6.65,60.41,6.39,61.05z"/>
<path fill="#E6E7E8" d="M42.97,60.15c-1.23,0.82-1.6,2.34-2.68,3.39h-0.15c-0.26-1.04,1.08-0.85,0.71-1.79
	C41.67,61.08,41.74,59.6,42.97,60.15z"/>
<path fill="#E6E7E8" d="M43.34,60.86c-0.11,0.11,0.07-0.67,0.71-0.89C44.16,60.04,43.67,60.75,43.34,60.86z"/>
<path fill="#E6E7E8" d="M58.51,60.15c-0.3,0.34-0.33,0.97-0.89,1.04C57.06,60.45,57.95,60.3,58.51,60.15z"/>
<path fill="#E6E7E8" d="M56.2,61.05c-0.26,0.15-0.41,0.52-0.74,0.52l-0.15-0.18C55.49,61.08,55.83,60.97,56.2,61.05z"/>
<path fill="#E6E7E8" d="M42.08,62.98c-0.33-0.71,0.67-0.82,0.74-1.23C42.63,61.83,42.71,62.72,42.08,62.98z"/>
<polygon fill="#E6E7E8" points="25.5,62.27 24.79,61.94 25.13,61.94 "/>
<path fill="#E6E7E8" d="M55.31,61.94c0.18,0.45-0.37,0.6-0.56,0.89C54.75,62.46,54.68,61.72,55.31,61.94z"/>
<path fill="#E6E7E8" d="M53.86,62.09c-0.19,0.26-0.08,0.75-0.52,0.75C53.08,62.65,53.49,61.94,53.86,62.09z"/>
<path fill="#E6E7E8" d="M8.03,63.17c-0.41,0.52-0.56,1.15-1.45,0.89c0.52,0.37,0.74-0.89,1.26-1.08l-0.18-0.15L8.03,63.17z"/>
<path fill="#E6E7E8" d="M43.71,62.83c-0.63,0.3-0.19,1.75-1.08,1.23C43.15,63.73,42.97,62.94,43.71,62.83z"/>
<path fill="#E6E7E8" d="M57.61,63.17c0.11,0.33-0.15,0.52-0.37,0.71C56.76,63.62,57.35,63.21,57.61,63.17z"/>
<polygon points="66.02,64.06 66.35,63.35 66.35,64.06 "/>
<path fill="#E6E7E8" d="M41.74,63.88c-0.22,0.22-0.37,0.48-0.71,0.37l0.52-0.52L41.74,63.88z"/>
<path d="M68.13,64.06h-0.52c-0.07-0.3,0.26-0.41,0.52-0.33V64.06z"/>
<path fill="#E6E7E8" d="M50.85,64.06c-0.07,0.37-0.48,0.6-0.74,0.89c0,0.26-0.07,1.12-0.52,1.27c-0.37,0.93-1.3,1.64-1.97,1.97
	C48.43,67.08,49.33,64.81,50.85,64.06z"/>
<polygon fill="#E6E7E8" points="41.93,64.96 42.08,64.62 42.45,64.62 "/>
<path fill="#E6E7E8" d="M44.05,64.62c-0.11,0.56-0.37,0.89-0.89,1.23C43.45,65.96,43.04,64.4,44.05,64.62z"/>
<path d="M1.41,66.41v-0.89c0.89,0.34,0.18-0.37,1.07-0.56L1.41,66.41z"/>
<path fill="#E6E7E8" d="M45.31,65.14c0,0.52-0.67,0.41-0.71,0.71C44.75,65.59,44.83,64.96,45.31,65.14z"/>
<path d="M4.09,66.93l0.19,0.19c-0.78,0.26-0.33,1.15-1.26,1.6H3.2v0.37H3.01c0.11-1.75,1.3-1.86,1.97-3.57
	C4.87,66.07,4.57,66.52,4.09,66.93z"/>
<path fill="#E6E7E8" d="M48.17,65.51c0.11,0.45-0.18,0.78-0.56,0.89l-0.18-0.19C47.5,65.89,47.84,65.55,48.17,65.51z"/>
<path fill="#E6E7E8" d="M57.8,65.66c0,0.33-0.37,0.48-0.56,0.74h-0.33c0.04-0.37-0.15-0.86,0.33-0.89
	C57.47,65.51,57.69,65.44,57.8,65.66z"/>
<polygon fill="#E6E7E8" points="45.83,66.41 46.2,65.66 46.2,66.41 "/>
<path fill="#E6E7E8" d="M60.48,66.56h-0.71l1.04-0.89C61.03,65.89,60.77,66.37,60.48,66.56z"/>
<path d="M6.76,66.03l-0.52,0.37C6.17,66.7,6.24,65.33,6.76,66.03z"/>
<path d="M94.9,66.22c-0.04,0.15,0.07,0.26,0.19,0.33c0.52,0.34,0.63-0.82,1.08-0.15c-0.82,0.22,0.04,1.01-0.19,1.42
	c1.08,0,0.74-2.05,1.97-1.42c0.04,0.22-0.15,0.56,0.15,0.71c-0.48,0.41-1.34,0.11-1.79,0.71c0.22,0.37,0.97,0.78,1.45,0.37
	c-1.04,0.6-0.93,1.68-1.45,2.49c0.26,0.6,0.86,0.75,0.37,1.42c-0.89,0.56-2.04,0.11-2.68,1.08c-0.15-0.08-0.15-0.86,0.37-1.08
	c0.04-0.15-0.11-0.22-0.19-0.33c-0.74,0-0.52,1.23-1.45,0.89c0.3-0.52,0.71-0.93,0.56-1.64l-0.19-0.15l-1.08,0.89L91.7,71.4
	l0.52-0.52l-0.37-0.37l-1.6,1.42c0.08,0.89-0.15-0.45,0.19-0.52c-0.33-0.78-1.08-0.08-1.26,0.19l0.37-0.37
	c-0.56-0.89,1-1.12,1.26-1.79c-0.07,0.26,0.22,0.37,0.33,0.56c1.75-0.75,1.6-2.6,2.68-3.76H94.9z"/>
<polygon fill="#E6E7E8" points="43.86,66.93 44.23,66.41 44.05,66.93 "/>
<path d="M92.74,66.41c-0.49,0.6-0.41,1.49-1.23,1.94c-0.26-0.89,0.71-1.42,0.89-1.94H92.74z"/>
<path d="M5.35,68.01c-0.63-0.74,0.33-0.82,0.52-1.45C5.87,67.04,5.69,67.52,5.35,68.01z"/>
<path fill="#E6E7E8" d="M46.2,68.71c0.3,0.11,0.48,0.52,0.89,0.37l0.34-0.37c-0.04,2.01-2.16,2.83-2.68,4.47
	c-0.26-0.08-0.33,0.26-0.52,0.37c-0.08,0.15,0.08,0.22,0.19,0.33c-0.22,0.3-0.63,0.15-0.89,0.37l0.71-0.56
	c-0.15-0.37,0.63-1.01,0.37-1.42c0.67-0.41,1.63-1.3,1.6-2.31c0.19-0.26,0.52-0.41,0.52-0.75c-0.26-0.59-0.63-0.07-1.08-0.15
	c0.67-0.3,0.26-2.49,1.64-2.16C47.09,67.6,46.54,68.12,46.2,68.71z"/>
<path d="M54.56,66.93c-0.26,0.74-0.85,1.49-1.41,1.97c-0.6-0.11,0.07-0.93,0.37-1.27C54.16,67.67,54.08,66.41,54.56,66.93z"/>
<path fill="#E6E7E8" d="M45.83,66.93c-0.33,0.3,0.15,0.3-0.33,0.52h-0.56C45.39,67.23,45.24,66.74,45.83,66.93z"/>
<path d="M66.02,66.93c0.15,0.71-0.71,0.52-0.89,1.08l0.33,0.34c-0.26-0.04-0.33,0.26-0.52,0.37c0.15,0.86,0.78-0.11,1.23,0
	c-0.52,0.41-0.97,1.45-1.93,0.9c-0.07-0.3,0.15-0.71-0.18-0.9C64.94,68.38,65.2,67.15,66.02,66.93z"/>
<path fill="#E6E7E8" d="M59.58,68.01c-0.19,0.04-0.26-0.08-0.37-0.19l0.37-0.71C59.66,67.3,60.22,67.75,59.58,68.01z"/>
<path d="M50.85,67.3c-0.97,1.23-1.56,2.5-2.34,3.72C49.33,69.5,49.59,68.49,50.85,67.3z"/>
<path fill="#E6E7E8" d="M43.53,67.45c-0.26,0.82-0.89,1.79-1.08,2.16l-0.52-0.19c0.74,0.04,0.82-0.82,1.23-1.23v-0.74H43.53z"/>
<path d="M8.73,67.64l-0.37,0.37L8.73,67.64z"/>
<polygon fill="#E6E7E8" points="39.4,68.71 40.29,67.82 40.48,67.82 "/>
<path d="M73.3,68.01c-0.71,0.45-0.71,1.15-1.41,1.6C72.41,69.31,72,67.49,73.3,68.01z"/>
<path fill="#E6E7E8" d="M44.75,68.01c0.48,0.41-0.3,0.74-0.15,1.23l-1.08,0.56C43.94,69.2,44.46,68.49,44.75,68.01z"/>
<path fill="#E6E7E8" d="M41.74,68.34c-0.19,0.33-0.71,0.48-1.08,0.74l0.89-0.89L41.74,68.34z"/>
<path d="M8.73,71.02c-0.37-0.34-0.59,0.07-0.89,0.19c-0.22-0.08,0.63-0.71,0.19-1.08c0.26-0.63,0.89-1,1.41-1.23H9.25v-0.37h0.19
	C10.33,69.46,7.73,70.13,8.73,71.02z"/>
<polygon points="51,69.42 51.56,68.53 51.74,68.71 "/>
<path d="M69.21,68.53l-0.19,0.71L69.21,68.53z"/>
<path d="M0.71,69.98c-0.19-0.19,0.11-0.93,0.52-1.27C0.74,69.31,1.6,69.57,0.71,69.98z"/>
<path d="M61.55,69.23c-0.04,0.45-1-0.15-0.89,0.56h-0.19c-0.19-0.52,0.22-0.78,0.52-1.08L61.55,69.23z"/>
<path d="M3.38,70.69c0.07-0.33,0.45-1.45,1.08-1.78l0.15,0.18L3.38,70.69z"/>
<path d="M59.03,69.79c-0.93,0.78-1,2.05-1.93,2.68C57.87,72.03,57.76,69.57,59.03,69.79z"/>
<path d="M5.35,70.13c-0.45,0.78-0.11,1.04-1.08,1.27C4.91,71.25,4.46,70.02,5.35,70.13z"/>
<path d="M53.15,71.02c-0.08,0.04,0.07-0.71,0.52-0.71l0.19,0.18L53.15,71.02z"/>
<path d="M59.4,71.77v-0.89c0.41,0.11,0.86-0.15,0.89-0.56C60.14,70.8,59.47,71.13,59.4,71.77z"/>
<path fill="#E6E7E8" d="M43.15,70.5c-0.3,0.75-0.74,1.42-1.41,1.97c-0.48-1.12,1.52-0.67,1.08-1.97H43.15z"/>
<path d="M54.75,71.77c-0.52-0.45,0.41-0.78,0.37-1.27C55.09,70.58,54.86,71.32,54.75,71.77z"/>
<path fill="#E6E7E8" d="M44.42,71.21c-0.19,0.26-0.34,1-0.89,1.08l0.19,0.19l-0.89,0.89c0.04-0.22,0.86-1.15,0.89-2.16H44.42z"/>
<polygon points="49.4,72.29 49.21,71.77 49.4,71.77 "/>
<path d="M6.06,72.1c-0.3,0.26-0.52,0.67-0.89,0.71l-0.19-0.15l0.89-0.75L6.06,72.1z"/>
<polygon points="13.01,73.37 13.2,72.29 13.53,72.29 "/>
<rect x="48.88" y="72.29" width="0.19" height="0.52"/>
<path d="M7.47,72.66c-0.48,0.11-0.78,0.41-0.89,0.89c-0.52-0.41,0.22-0.71,0.56-1.08C7.29,72.4,7.36,72.55,7.47,72.66z"/>
<polygon points="10.52,72.66 9.96,72.81 9.96,72.47 10.33,72.81 "/>
<path fill="#E6E7E8" d="M19.25,72.66V73l-0.52-0.52C18.92,72.47,19.14,72.44,19.25,72.66z"/>
<polygon points="61.89,73 61.7,72.47 62.26,72.47 "/>
<polygon fill="#E6E7E8" points="16.76,73.18 17.1,72.66 17.66,72.66 "/>
<path d="M11.23,74.26l-0.52,0.19c-0.74-1.12,0.63-0.59,1.04-1.64C12.3,73.37,11.04,73.63,11.23,74.26z"/>
<path d="M58.13,73.55h-0.15l0.52-0.75C58.62,73.14,58.36,73.33,58.13,73.55z"/>
<path d="M9.96,73.18c0.3,0.78-1.15,0.56-0.52,1.26L9.25,74.6c-0.52-0.52,0.86-0.89,0.37-1.41H9.96z"/>
<path d="M48.17,74.26c-0.63-0.52-0.26-0.33-0.37-1.08C48.25,73.4,48.14,73.85,48.17,74.26z"/>
<polygon points="62.78,73.89 63.15,73.18 63.34,73.37 "/>
<path d="M3.01,74.07H2.68c0-0.22,0.15-0.56,0.34-0.52V74.07z"/>
<path d="M8.18,73.89v0.37c-0.26-0.07-0.34,0.22-0.52,0.34l0.18,0.19H7.29l0.56-0.34c-0.11-0.3-0.52-0.89-0.37-0.89
	C7.81,73.44,7.99,73.7,8.18,73.89z"/>
<path fill="#E6E7E8" d="M19.07,75.34l-0.19-0.56c0.63-0.07,0.19-1.23,1.08-1.08C19.63,74.37,19.11,74.56,19.07,75.34z"/>
<path d="M12.12,75.86l-0.71-0.19c0.67-0.33,1.23-1,1.23-1.79C12.97,74.37,12.04,75.12,12.12,75.86z"/>
<polygon points="71.52,74.97 71.7,74.07 71.7,74.78 "/>
<path d="M91.7,74.26c-0.6,0.26-1.34,0.19-1.79,0.71c-0.11-0.07-0.19-0.22-0.37-0.19C89.99,74.34,90.96,73.89,91.7,74.26z"/>
<path fill="#E6E7E8" d="M21.23,74.26c0.04,0.37-0.04,0.67-0.37,0.89h-0.52c0.26,0.07,0.33-0.26,0.52-0.37l-0.19-0.19
	C20.85,74.48,20.96,74.19,21.23,74.26z"/>
<polygon points="60.66,74.45 60.1,74.26 60.66,74.26 "/>
<path d="M59.21,74.45c-1.23,1.04-1.9,2.61-2.86,3.91c0.08-1.3,1.23-2.46,1.78-3.2l0.19,0.19C58.54,74.82,58.58,74.45,59.21,74.45z"
	/>
<path d="M9.07,75.15H8.36v-0.37C8.7,74.67,8.88,74.97,9.07,75.15z"/>
<polygon fill="#E6E7E8" points="21.56,75.86 22.45,74.78 21.75,75.86 "/>
<path d="M72.97,74.78c-0.89,1.04-1,2.12-1.79,3.05C71.55,76.75,72.19,75.64,72.97,74.78z"/>
<path d="M9.07,76.94l0.18,0.18c-0.18,0.22-0.74,0.22-0.52,0.71c-0.19-1.04,1.15-1.71,1.6-2.87C10.44,76.01,9.52,76.46,9.07,76.94z"
	/>
<path d="M71.37,75.67c-0.3,0-0.71,0.19-0.56,0.71c-0.15,0.08-0.26-0.07-0.33-0.15L71,75.67l-0.19-0.19l0.37-0.34L71.37,75.67z"/>
<path fill="#E6E7E8" d="M45.65,76.57c0.04,0.07-0.11-1.04,0.56-1.23C46.35,75.67,46.28,76.49,45.65,76.57z"/>
<path fill="#E6E7E8" d="M23.71,75.67c-0.33,0.56-0.89,1.3-1.41,1.45C22.56,76.57,23.27,75.86,23.71,75.67z"/>
<path d="M54.94,75.67c-0.52-0.07-0.34,0.86-0.89,0.9l0.37,0.37l-0.19,0.18C53.38,77.17,54.16,75.45,54.94,75.67z"/>
<path d="M59.58,76.57c-0.45,0.11-0.71,0.6-1.08,0.89l0.19,0.56c-1.04-0.71,0.37-1.56,0.52-2.34C59.55,75.9,59.62,76.2,59.58,76.57z"
	/>
<path fill="#E6E7E8" d="M44.42,76.05c-0.11,0.19-0.45,0.26-0.37,0.52l-0.34-0.34C43.86,76.05,44.2,75.64,44.42,76.05z"/>
<polygon points="51,76.23 51.37,75.86 51.18,76.23 "/>
<path d="M94,76.05l-0.37,0.34v-0.52C93.82,75.82,93.89,75.93,94,76.05z"/>
<path d="M10.85,77.28c-1.15,0.07-0.93,1.56-1.78,2.34c-0.3-0.19-0.11-0.59-0.15-0.89l0.33,0.33c0.26-0.71,0.15-1.38,0.89-1.6
	c0.52-0.37,0.78-0.86,0.89-1.42C11.63,76.49,10.67,76.75,10.85,77.28z"/>
<polygon points="61,76.38 61,76.05 61.55,76.05 "/>
<path d="M73.48,76.75c-0.19-0.11-0.26-0.41-0.52-0.37l0.33-0.34C73.45,76.27,73.86,76.57,73.48,76.75z"/>
<path d="M75.98,78.02l-0.15-0.18l-0.37,0.52l-0.19-0.18c1.04,0.97-2.38,2.08-0.19,2.16c0.34-0.97,1.56-1.6,1.45-2.68
	c0.3-0.29,0.97-0.11,1.08-0.52c-0.18,0.6-1.19,0.89-0.55,1.79c-0.37,0.19-0.78,0.3-1.08,0.71l0.37,0.33
	c1.71-0.89,2.16-2.94,3.75-3.72c0.3,0.26,0.67,0.82,1.08,0.34c0.07,0.26,0.11,0.52,0.33,0.71l0.89-0.33
	c-0.08,0.26,0.26,0.33,0.37,0.52l0.89-0.34c0.04,0.3-0.15,0.71,0.19,0.89l-0.56,0.33c0.63,0.56,1.08-0.33,1.6-0.52
	c0.22,1.23-1.97,2.01-0.15,2.87c-0.07,0.75-1.49,0.75-1.26,1.79c-0.82,0.67-1.08,1.75-0.18,2.31c-0.22,1.3-1.38,2.23-1.97,3.39
	c0.33,0.56,1-0.45,0.74,0.56l-0.19,0.15l-0.56-0.52l-1.6,1.27l-0.19-1.08c-0.41,0.82-1.6,1.12-2.49,0.71
	c-0.45-0.3,0.41-1.04-0.52-0.89c-0.3,0.11-0.15,0.6-0.56,0.52c-0.82-0.52,0.19-1.19,0.37-1.79c-0.86-0.56-0.71,1.34-1.79,0.75
	c0.11-0.19,0.41-0.3,0.37-0.56l-0.74-0.19l0.37-0.52l-0.37-0.19c0.19,0.07,0.26-0.08,0.37-0.19c-2.41-0.63,1-2.16-0.89-3.02
	c-0.07-0.3,0.15-0.71-0.19-0.89c0.74-0.04,0.26-0.86,0.89-1.08c-0.26-0.78-0.78,0.08-1.08-0.19v-0.19c0.19,0.07,0.26-0.07,0.37-0.15
	v-0.75c0.11,0.11,0.19,0.26,0.37,0.19c-0.63-0.6,1.15-0.9,0.33-1.6c0.63-0.52,1-0.19,1.08-1.26l0.19,0.19l1.08-1.23
	C77.13,76.87,75.98,77.31,75.98,78.02z"/>
<path d="M4.79,78.35c-0.04-0.63,0.71-1.56,1.45-1.97C6.39,77.46,5.02,77.42,4.79,78.35z"/>
<path d="M60.29,77.13c0.08-0.11,0.22-0.18,0.19-0.37c0.15-0.04,0.22,0.07,0.34,0.19l-0.71,0.33c0.41,0.56-0.6,1.08-0.89,1.64
	c-0.22-0.11-0.19-0.33-0.19-0.56c0.74,0.15,0.93-0.97,1.08-1.6C60.07,76.94,60.18,77.01,60.29,77.13z"/>
<path d="M7.66,77.13c-0.34,0.52-0.78,0.67-1.08,1.04C6.76,77.76,7.02,76.68,7.66,77.13z"/>
<path fill="#E6E7E8" d="M46.91,77.46l-0.71-0.19c0-0.26,0.48-0.19,0.71-0.33V77.46z"/>
<path fill="#E6E7E8" d="M48.17,77.83c-0.45,0.22-0.04-0.86,0.34-0.89C48.73,77.17,48.47,77.61,48.17,77.83z"/>
<path d="M50.85,77.28c-0.11-0.22-0.33-0.15-0.56-0.15c0.11-0.22,0.33-0.18,0.56-0.18V77.28z"/>
<path d="M55.46,77.65h-0.15l0.34-0.7C55.68,77.2,55.35,77.35,55.46,77.65z"/>
<path fill="#E6E7E8" d="M80.29,76.94c-0.22,0.18-0.41,0.44-0.75,0.33C79.77,77.09,79.95,76.83,80.29,76.94z"/>
<path d="M12.3,77.28c-0.18,0.41-0.33,0.78-0.71,1.08l0.15,0.19l-1.04,0.89l0.15,0.19l-0.52,0.52c-0.37-1.16,1.38-2.05,1.6-3.02
	L12.3,77.28z"/>
<path d="M53.67,78.02c-0.3-0.26-0.33-0.41-0.15-0.74l0.52,0.37L53.67,78.02z"/>
<path d="M61.89,77.46c0.11,0.67-0.67,0.71-0.89,1.08C60.59,78.65,61.7,77.72,61.89,77.46z"/>
<path d="M57.8,79.06l-0.56,0.18c-0.41,0.79,0.04-0.48,0-0.71l0.37-0.9C58.21,78.13,57.2,78.62,57.8,79.06z"/>
<path d="M8.18,78.02c-0.04,0.22,0.15,0.56-0.15,0.71v-0.71H8.18z"/>
<path fill="#E6E7E8" d="M47.61,78.54c0.37,0.48-0.18-0.49-0.52-0.19l0.52-0.33V78.54z"/>
<path fill="#E6E7E8" d="M44.75,79.62c0.37-0.48,1.11-0.82,1.08-1.45C46.2,79.29,45.39,78.88,44.75,79.62z"/>
<path d="M12.64,78.73c-0.26-0.08-0.34,0.22-0.52,0.33l0.52-0.71V78.73z"/>
<path fill="#E6E7E8" d="M21.93,78.54l-0.71,0.52c0.11-0.15,0.48-0.37,0.18-0.71C21.6,78.35,21.82,78.32,21.93,78.54z"/>
<path d="M17.66,79.06c-0.45,0-0.52,0.63-0.71,0.74c-0.67-0.63-0.26,0.34-0.56,0.34c-0.3-0.97,1.45-0.45,1.08-1.6
	C17.47,78.73,17.43,78.95,17.66,79.06z"/>
<path d="M60.66,79.62l-0.19-0.19l-0.37,1.08v-1.08c0.45,0.04,0.37-0.45,0.37-0.71C60.81,78.91,60.59,79.32,60.66,79.62z"/>
<path d="M18.73,79.62l-0.56,0.71l-0.19-0.19c0.63,1.23-1.37,1.49-1.41,2.49c-0.59,0.26,0.78-0.67-0.19-0.89
	c0.82,0.22,0.78-0.52,1.45-0.71c-1-1.19,0.93-1.15,1.04-2.12C18.88,79.03,18.21,79.36,18.73,79.62z"/>
<path fill="#E6E7E8" d="M23.01,78.91c-0.26,0.3-0.22,0.86-0.71,0.89l-0.19-0.19C22.49,79.55,22.82,79.03,23.01,78.91z"/>
<path d="M63.49,79.95l0.37,0.37c-0.19,0-0.41,0.04-0.52-0.19c-0.22,0.11-0.19,0.33-0.19,0.56c-0.19,0.04-0.26-0.11-0.37-0.19
	c-0.26,1.53-1.53,2.61-2.31,3.91v-0.89l0.19,0.19c0.3-0.19,0.11-0.6,0.15-0.89c0.33,0.04,0.48-0.33,0.74-0.52
	c-0.11-0.22-0.33-0.19-0.56-0.19c0.26,0.07,0.37-0.22,0.56-0.37c-0.11-0.22-0.33-0.15-0.56-0.15c-0.11,0.15-0.41,0.26-0.34,0.52
	c-1-0.63,0.41-1.75,0.71-2.16l0.89-0.52c-0.08,0.19,0.08,0.26,0.19,0.37c-0.75,0.04-0.78,0.97-1.27,1.41l0.52,0.52
	c0.22-0.11,0.19-0.33,0.19-0.52l0.19,0.19c0.26-0.63,1.19-1.19,1.26-1.97l0.15,0.19l0.37-0.56C63.9,79.43,63.82,79.77,63.49,79.95z"
	/>
<path d="M58.88,79.43c0.04,0.26-0.26,0.37-0.37,0.52C58.36,80.07,58.47,79.36,58.88,79.43z"/>
<path fill="#E6E7E8" d="M48.32,79.62c0.22,0.48-0.33,0.48-0.52,0.71C47.61,79.95,48.06,79.66,48.32,79.62z"/>
<path d="M10.7,81.74c-0.07-0.74,0.59-1.19,1.04-1.94C11.86,80.33,10.93,81.15,10.7,81.74z"/>
<path fill="#E6E7E8" d="M46.2,80.7c-0.11,0.22-0.33,0.15-0.56,0.15c0.78-0.11,0.18-0.52,0.37-1.04C46.35,79.99,46.13,80.4,46.2,80.7
	z"/>
<path d="M18.55,82.82c-0.48,0.11-0.78,0.41-0.89,0.89c-0.22-1.41,1.23-2.57,2.12-3.76C19.66,81.03,18.62,81.59,18.55,82.82z"/>
<path fill="#E6E7E8" d="M49.21,80.51l0.19,0.19c-0.33-0.11-0.52,0.15-0.71,0.33c0.71,0.97-0.59,1.19-0.89,1.79h-0.37
	c0.33,0.04,0.48-0.33,0.74-0.52l-0.37-0.38c0.71-0.07,0.63-0.96,0.71-1.23c0.37,0.04,0.67-0.04,0.89-0.37l-0.19-0.19
	c0.26,0.15,0.37-0.41,0.56,0L49.21,80.51z"/>
<path fill="#E6E7E8" d="M52.26,80.85l-0.19-0.15l0.7-0.75C52.63,80.25,52.63,80.66,52.26,80.85z"/>
<path d="M4.79,80.51l-0.52,0.52L4.79,80.51z"/>
<path d="M14.27,81.41c-0.07-0.19-0.45-0.6,0.15-0.89h0.19L14.27,81.41z"/>
<polygon fill="#E6E7E8" points="53.86,80.7 53.34,81.41 54.05,80.51 54.05,80.85 "/>
<path fill="#E6E7E8" d="M46.72,81.59l0.19,0.15c0.15,0.04-0.67,0.41-0.71,0.19c0.67-0.15,0.74-1,1.23-1.23L46.72,81.59z"/>
<path d="M12.82,81.03l-0.89,0.89C12.3,81.3,12.01,80.81,12.82,81.03z"/>
<path d="M63.86,82.11c-0.3-0.26-0.26-0.85,0.19-1.08C64.42,81.22,63.56,81.85,63.86,82.11z"/>
<path d="M85.79,81.03c-0.04,0.26,0.15,0.6-0.15,0.71v-0.71H85.79z"/>
<path fill="#E6E7E8" d="M52.08,81.59c-0.48-0.22-0.48,0.33-0.71,0.52l-0.19-0.19C51.3,81.74,51.85,81.33,52.08,81.59z"/>
<path d="M98.65,81.93c-0.3,0.71-0.78,1.08-1.6,0.89v-1.23L98.65,81.93z"/>
<path fill="#E6E7E8" d="M50.11,81.93c-0.48,0.48-0.97,0.93-0.89,1.6l-0.71-0.33c0.82-0.33,0.63-0.89,1.08-1.45
	C49.7,81.96,49.92,81.93,50.11,81.93z"/>
<path d="M11.41,83.01l-0.18-0.19l0.52-0.52C11.86,82.63,11.6,82.78,11.41,83.01z"/>
<path d="M63.49,82.3c0.15,0.93-1.15,0.59-1.04,1.41C62.26,83.08,62.59,82.23,63.49,82.3z"/>
<polygon points="10.85,83.01 9.96,82.49 10.33,82.49 "/>
<path d="M58.13,83.19c-0.26,0.08-0.33-0.26-0.52-0.37l0.19-0.33C57.91,82.56,58.28,82.82,58.13,83.19z"/>
<path d="M4.61,83.38H4.46l0.33-0.75C4.76,82.9,4.94,83.23,4.61,83.38z"/>
<path d="M64.75,83.19c-0.89-0.11-0.52,0.9-1.08,1.23l-0.33-0.33c0.15-0.86,1.08-0.41,1.23-1.27C64.53,83.01,64.64,83.08,64.75,83.19
	z"/>
<polygon points="73.3,83.38 73.15,82.82 73.3,82.82 "/>
<path d="M13.2,83.19c-0.19,0.22-0.74,0.22-0.56,0.71H12.3l0.34-0.89L13.2,83.19z"/>
<polygon points="15.5,84.09 14.98,83.53 15.87,83.38 15.69,83.01 16.21,83.38 "/>
<path fill="#E6E7E8" d="M19.96,83.19c0.22,0.6-0.48,0.41-0.71,0.71l0.52-0.52l-0.15-0.19H19.96z"/>
<path fill="#E6E7E8" d="M50.85,83.19c0.33,0.52-0.63-0.26-0.56,0H50.85z"/>
<path d="M14.42,83.53c0,0.22,0.07,0.45-0.15,0.56h-0.56C13.98,83.9,13.94,82.93,14.42,83.53z"/>
<path fill="#E6E7E8" d="M46.54,84.42c0.15-0.11,0.15-0.93,0.89-0.89C46.87,83.97,47.21,84.05,46.54,84.42z"/>
<path fill="#E6E7E8" d="M54.94,84.79c-0.34-0.56-0.56,0.26-0.89,0.19c0.63-0.3,0.11-1.42,1.08-1.27
	C55.24,83.79,54.75,84.35,54.94,84.79z"/>
<path d="M17.28,83.9c0.59,1.04-1.67,0.67-0.89,1.79c-0.59-0.11-0.37-1.12,0-1.41C16.62,83.97,17.02,84.12,17.28,83.9z"/>
<path fill="#E6E7E8" d="M48.88,84.09c-0.82-0.52-0.19,1.23-1.08,1.08l0.52-0.56c-0.11-0.22-0.33-0.15-0.52-0.19l0.37-0.33
	l-0.18-0.19C48.28,83.97,48.69,83.75,48.88,84.09z"/>
<polygon points="64.94,84.61 65.46,83.9 65.46,84.27 "/>
<path d="M85.46,83.9c0.07,0.52-0.52,0.89-0.89,1.08c0.97,0.11-0.37,0.45,0,0.89h0.89c-0.26,0.52-1,2.68-2.34,3.2
	c0.19-0.86,1.45-1.45,1.08-2.31c-0.93-0.11-0.74,1.34-1.78,1.08C83.34,86.32,84.04,85.06,85.46,83.9z"/>
<polygon points="61.7,84.79 61.37,84.09 62.07,84.27 "/>
<path d="M8.92,84.42l-0.56,0.56c-0.48-0.08,0.11-0.49,0.19-0.71C8.7,84.2,8.81,84.35,8.92,84.42z"/>
<path fill="#E6E7E8" d="M51.56,84.42c0.04,0.67-0.71,0.15-0.89,0.56l0.52-0.56L51,84.27C51.11,84.5,51.33,84.42,51.56,84.42z"/>
<path d="M11.93,84.79l-0.34,0.37c-0.19-0.18-0.59-0.52-0.19-0.74C11.67,84.35,11.75,84.68,11.93,84.79z"/>
<path fill="#E6E7E8" d="M48.88,85.5l0.71-1.08C49.18,84.94,49.81,85.54,48.88,85.5z"/>
<path fill="#E6E7E8" d="M55.12,86.21c-0.7,0.34-0.04,0.74-0.89,1.08c0.11,0.11,0.19,0.26,0.33,0.19l-0.52,0.52l-0.37-0.33
	c0.93-0.3,0.15-1.3,1.08-1.6c0.67,0.6,0.6-1.53,1.45-1.64C56.65,85.13,55.46,85.8,55.12,86.21z"/>
<path fill="#E6E7E8" d="M52.45,85.69l-0.37-0.19c-0.11-0.11,0.56-0.97,1.08-0.89L52.45,85.69z"/>
<path d="M15.17,84.98c-0.89,0.15-0.37,1.75-1.26,1.08C14.35,85.54,14.38,84.65,15.17,84.98z"/>
<polygon points="62.97,85.69 62.78,84.98 63.15,85.5 "/>
<polygon points="64.23,85.87 64.38,85.17 64.56,85.5 "/>
<path d="M26.76,86.06c0.07,0.07,0.22,0.19,0.15,0.34l-0.33,0.37l0.19,0.19c-0.89,0.11-0.93,0.74-1.26,1.42l0.19,0.19
	c-0.33,0.37-0.52-0.6-0.19-0.89c0.59-0.52,0.52-1.45,1.6-2.16l-0.18-0.18l0.37,0.37L26.76,86.06z"/>
<path fill="#E6E7E8" d="M32.12,86.21v-0.34c0.97,0.19-0.11-0.74,0.89-0.56L32.12,86.21z"/>
<path d="M15.87,85.87c-0.19,0.56-0.45,1.23-1.08,1.42C14.83,86.92,15.31,85.58,15.87,85.87z"/>
<path fill="#E6E7E8" d="M34.23,86.21c-0.48,0.22-0.37-0.3-0.52-0.52L34.23,86.21z"/>
<path fill="#E6E7E8" d="M75.83,85.69c-0.34,0.34-0.11,1.04-0.75,1.08C75.34,86.39,75.31,85.61,75.83,85.69z"/>
<path fill="#E6E7E8" d="M28.88,87.1c-0.26,0.48-0.93,1.42-1.79,1.79c0.08-0.15-0.07-0.22-0.18-0.33c0.45-0.07,1-0.22,1.08-0.71
	c-0.22-0.3-0.19-0.71,0.19-0.89l0.71-0.37l-0.33-0.37c0.19-0.11,0.52-0.52,0.71-0.15C28.73,86.25,28.84,86.92,28.88,87.1z"/>
<path fill="#E6E7E8" d="M46.72,86.39c-0.07,0.26,0.15,0.6-0.19,0.71c-0.15,0.08-0.22-0.07-0.34-0.15
	C46.43,86.8,46.5,86.39,46.72,86.39z"/>
<path d="M16.58,87.66l-0.89,0.89v-0.89c0.74,0-0.04-0.93,0.71-1.08C16.47,86.95,17.06,87.29,16.58,87.66z"/>
<path fill="#E6E7E8" d="M33.71,88.74c0.48-1.3,0.48-0.04,0.71-1.45l0.89-0.71C35.16,87.44,34.49,88.29,33.71,88.74z"/>
<path fill="#E6E7E8" d="M33.34,87.66c-0.22-0.97-0.22-0.11,0.37-0.9C33.75,87.14,33.68,87.44,33.34,87.66z"/>
<rect x="61.55" y="86.76" width="0.15" height="0.71"/>
<polygon fill="#E6E7E8" points="50.66,87.29 50.85,86.95 51.18,87.29 "/>
<path fill="#E6E7E8" d="M47.43,88.18c-0.08,0.07-1.56,0.71-0.71,1.79l0.56-0.52l0.15,0.19c0-0.71,0.93-1,1.08-1.64h0.71l-0.71,0.37
	l0.19,0.52c-1.15,0.04-0.59,2.01-1.78,1.79c0.82,1.04-0.74,0.71-0.71,1.45l0.19,0.19c-0.37-0.15-0.74,1-1.26,0.33
	c0.26,0.07,0.37-0.22,0.52-0.33c-0.48-0.48,0.45-0.78,0.37-1.27c0.41-0.03,1.34-0.56,0.71-1.08c-0.3-0.18-0.97,0.26-1.08,0.71
	l-0.34-0.33l1.08-0.89l-0.37-0.37c1.08-0.48,1.04-1.45,2.16-1.97l-0.89,0.89L47.43,88.18z"/>
<path d="M56.91,87.29c-0.15,0.33-0.48,0.11-0.71,0.19C56.24,87.32,56.76,87.03,56.91,87.29z"/>
<polygon points="57.43,87.99 57.99,87.66 57.8,87.29 58.13,87.99 "/>
<polygon fill="#E6E7E8" points="51.74,87.99 52.08,87.66 52.45,88.18 "/>
<path d="M14.61,88.18c-0.41,0.22-0.41,0.86-0.89,0.37l0.56-0.71L14.61,88.18z"/>
<path fill="#E6E7E8" d="M36.58,87.85c-0.45,0.22-0.97,0.56-1.26,0.71c0-0.26,0.82-0.15,0.52-0.71H36.58z"/>
<path fill="#E6E7E8" d="M36.58,89.97c-0.33-0.18-0.15-0.6-0.19-0.89c0.86,0,0.15-1.01,0.89-1.23
	C37.43,88.89,36.06,88.82,36.58,89.97z"/>
<path d="M18.18,89.26c-0.08,0.78-0.71,0.82-0.89,1.6c-0.67-0.63,1.67-2.72-0.19-1.79l-0.33,0.37c0.07,0.11,0.22,0.19,0.19,0.34
	h-0.56c-0.15-0.45,0.19-1.12,0.56-1.6C17.69,88.11,17.58,89,18.18,89.26z"/>
<path fill="#E6E7E8" d="M52.45,89.97c-0.45-0.18-0.59,0.37-0.89,0.56c0.22,0.11,0.15,0.34,0.19,0.52c-0.63,0.19-0.33,1.6-1.45,1.6
	l-0.33-0.33l0.15,0.15c0.41-0.33,0.41-0.52,0.89-0.71l-0.15-0.19c0.45-0.22,0.33-0.67,0.33-1.04l0.19,0.15l1.41-1.41
	c-0.59-0.45,0.45-0.63,0.37-1.08C53.9,89.11,52.52,89.37,52.45,89.97z"/>
<path fill="#E6E7E8" d="M29.59,88.55l-0.33,0.33l-0.19-0.15c-0.52,0.45-0.41,0.82-1.08,1.04c0.04-0.11,0.67-0.45,0.19-0.71
	c0.15,0.3,0.78-0.44,0.52-0.71C28.99,88.44,29.14,88.59,29.59,88.55z"/>
<path fill="#E6E7E8" d="M50.29,88.55c-0.26-0.07-0.33,0.22-0.52,0.33c-0.3,1.12-0.97,2.38-1.97,2.87c0.67-1.04,0.78-2.2,1.97-3.02
	l-0.19-0.37C49.81,88.44,50.18,88.22,50.29,88.55z"/>
<path d="M57.09,89.26c-0.89,0,0.34,0.85-0.75,0.52c-0.59,0.78-0.74,1.52-1.41,2.16c-0.19-0.45,0.37-0.6,0.52-0.9
	c0-0.89,1.26-1.71,1.64-2.68V89.26z"/>
<polygon fill="#E6E7E8" points="23.34,89.78 24.23,88.55 24.23,89.26 "/>
<polygon fill="#E6E7E8" points="54.23,89.07 54.56,88.74 54.42,89.26 "/>
<path d="M15.31,88.89c0.15,0.48-0.37,0.82-0.71,0.9C14.5,89.56,14.76,88.74,15.31,88.89z"/>
<path d="M20.52,89.26c-0.82,0-0.26,1-1.08,0.89v-1.26C19.66,89.45,20.59,88.82,20.52,89.26z"/>
<path fill="#E6E7E8" d="M35.31,89.07h-0.52v-0.19C34.9,89.11,35.13,89.07,35.31,89.07z"/>
<path fill="#E6E7E8" d="M37.47,90.34l-0.19,0.18c-0.3-0.93,0.78-0.78,1.08-1.45l-0.19-0.19l0.33,0.37L37.47,90.34z"/>
<path fill="#E6E7E8" d="M43.34,89.07v0.19l-0.52-0.37C42.93,89.11,43.15,89.07,43.34,89.07z"/>
<path fill="#E6E7E8" d="M51,89.97c-0.11-0.07-0.19-0.22-0.34-0.18c0.48,0.78-1.23,0.85-0.37,1.78l-0.18-0.15l-0.89,0.9
	c-0.26-1.23,0.74-1.56,1.08-2.35l-0.18-0.18c0.45-0.15,1.08-0.34,1.26-0.71L51,89.97z"/>
<path d="M84.75,89.26c0.11,0.41-0.63,0.63-0.74,0.89C84.26,89.86,84.23,89.15,84.75,89.26z"/>
<path d="M12.49,90.52l0.52-1.08C13.57,89.89,12.53,90.26,12.49,90.52z"/>
<path fill="#E6E7E8" d="M40.29,89.45c-0.26-0.04-0.37,0.3-0.71,0.19C39.03,89.82,39.96,89.22,40.29,89.45z"/>
<path d="M81.7,89.45c-0.71,0.37-0.82,1.3-1.26,1.97l-0.33-0.37C80.7,90.71,80.99,89.6,81.7,89.45z"/>
<polygon fill="#E6E7E8" points="40.48,90.34 41.04,89.63 41.19,89.78 "/>
<path fill="#E6E7E8" d="M54.23,89.78l-0.37,0.37v-0.52C54.05,89.56,54.12,89.71,54.23,89.78z"/>
<path d="M16.21,90.34v0.18h-0.89C15.43,90.34,15.95,89.89,16.21,90.34z"/>
<path d="M18.88,90.67l-0.33,0.37c-0.48-0.29,0.11-0.59,0.19-0.89C18.96,90.26,18.88,90.49,18.88,90.67z"/>
<path fill="#E6E7E8" d="M23.19,90.52c-0.52,0-0.33,0.56-0.89,0.34l0.52-0.34l-0.19-0.18C22.86,90.34,23.08,90.3,23.19,90.52z"/>
<path fill="#E6E7E8" d="M39.25,90.34c-0.04,0.78-1.45,0.11-0.89,1.08c-0.56,0.04-0.04,1.75-1.26,1.41c0.56-0.56,1.15-1.08,1.08-1.97
	C38.47,90.56,39.14,90.75,39.25,90.34z"/>
<path fill="#E6E7E8" d="M53.34,91.23l-0.56-0.19l0.19-0.7C53.15,90.45,53.45,90.82,53.34,91.23z"/>
<path d="M82.59,90.34c0.3,0.52-0.86,0.63-0.18,1.08c-0.71-0.04-0.34,1.01-1.23,0.9C81.63,91.64,81.59,90.3,82.59,90.34z"/>
<path d="M14.09,90.52c0,0.19,0.04,0.41-0.19,0.52h-0.18v-0.52H14.09z"/>
<rect x="32.82" y="90.52" width="0.19" height="0.52"/>
<polygon points="20.33,91.42 20.15,90.67 20.33,91.23 "/>
<path d="M83.86,91.04c-0.07,0.37-0.48,0.6-0.74,0.9h-0.33C83.34,91.9,83.04,90.49,83.86,91.04z"/>
<path d="M10.33,91.04c-0.18,0.45,0.37,0.6,0.52,0.9c0.26-0.08,0.52-0.11,0.74-0.37c0.19,0.6-0.45,1.19-0.74,1.26
	c-0.74-0.41-0.63-1.15-0.89-1.79H10.33z"/>
<path d="M19.44,92.83c-0.11,0.12-0.19,0.22-0.37,0.19c-0.33-0.59,0.74-1.04,0.19-1.78C19.77,91.42,20.07,92.46,19.44,92.83z"/>
<path fill="#E6E7E8" d="M39.4,92.13l0.19,0.19c-0.26-0.08-0.33,0.22-0.52,0.33l0.19,0.18c-0.15,0.15-0.52,0.45-0.89,0.37
	c1.04-0.22,1-1.97,2.12-1.97L39.4,92.13z"/>
<polygon points="67.8,91.94 67.8,91.42 68.13,91.42 "/>
<path fill="#E6E7E8" d="M26.91,91.57c-0.07,0.26-0.11,0.56-0.33,0.75l-0.19-0.19l0.37-0.37l-0.19-0.19H26.91z"/>
<path d="M57.61,92.83c-0.18-0.48,0.26-0.74,0.52-1.08C57.99,92.13,57.54,92.76,57.61,92.83z"/>
<path d="M69.4,91.76c0.04,0.19-0.11,0.26-0.18,0.37c0.3,0.26,0.71,0.82,1.08,0.33l0.19-0.15l0.15,0.15
	c-0.6,0.19-0.82,0.82-0.71,1.45c0.19,0.11,0.3,0.41,0.56,0.33c0.3-0.18,0.11-0.59,0.15-0.89c1.15,0.37,0.07-0.63,0.89-0.71
	c0.18,1-0.89,1.79-1.41,2.87c0.07-0.63,0.22-1.23-0.52-1.42l-1.63,2.12c0.04-0.3,0.3-1.15,0.56-1.42c0.89-0.3,0.15-1.26,0.89-1.6
	c-0.3-0.45-0.82,0-0.89,0.15c-0.78,0.48-0.19,1.53-1.26,1.64l0.19,0.15l-0.19,0.19l-0.19-0.71c0.78-0.04,0.6-1.49,1.64-1.97
	C68.39,91.98,69.14,91.9,69.4,91.76z"/>
<path d="M31.93,92.83c-0.19-0.11-0.59-0.63-0.19-0.89C32.08,92.13,31.85,92.54,31.93,92.83z"/>
<polygon points="67.24,92.83 67.43,92.31 67.95,92.31 "/>
<path d="M17.84,92.65l-0.37,0.37v-0.56C17.62,92.43,17.73,92.57,17.84,92.65z"/>
<path d="M20.52,93.35c-0.26,0.19-0.41,0.56-0.74,0.56l-0.33-0.37l0.89-0.71C20.56,92.95,20.48,93.17,20.52,93.35z"/>
<polygon fill="#E6E7E8" points="24.23,93.35 24.61,92.83 24.42,93.35 "/>
<path fill="#E6E7E8" d="M26.21,92.83c-0.04,0.22,0.15,0.6-0.19,0.71c-0.15,0.07-0.22-0.07-0.34-0.19
	C25.94,93.21,25.98,92.83,26.21,92.83z"/>
<path fill="#E6E7E8" d="M27.99,92.83c-0.63-0.26-0.33,0.63-0.89,0.52C27.17,92.98,27.58,92.72,27.99,92.83z"/>
<path d="M35.13,92.83c-0.26-0.07-0.34,0.22-0.52,0.37v-0.37H35.13z"/>
<path fill="#E6E7E8" d="M28.36,94.25c-0.63-0.48,0.6-0.67,0.34-1.23L28.36,94.25z"/>
<path fill="#E6E7E8" d="M50.48,93.02c-0.6,0.19-0.48,1.08-1.27,1.08C49.44,93.65,49.88,92.98,50.48,93.02z"/>
<path d="M56.91,93.91l-0.19,0.19c-0.45-0.19,0.52-0.75,0-1.08C56.8,93.28,56.94,93.58,56.91,93.91z"/>
<path d="M63.86,93.02c0,0.3-0.37,0.49-0.52,0.71l0.33,0.37l-0.19,0.15c-0.19-0.18-0.37-0.44-0.71-0.33c0.3,0.41-0.52,1.04-0.33,1.42
	l-0.19-0.19c0.37-0.19,0.33-0.59,0.52-0.9l-0.19-0.15C63.26,93.88,63.3,93.06,63.86,93.02z"/>
<path fill="#E6E7E8" d="M45.31,93.21c-0.19,0.6-0.63,0.6-1.08,0.71C44.6,93.65,44.79,93.06,45.31,93.21z"/>
<path fill="#E6E7E8" d="M46.72,95.14c1.45-0.26,0.82-2.31,2.34-1.94C47.99,93.88,48.02,95.03,46.72,95.14z"/>
<path d="M12.64,94.62c0.26,0.22,0.15,1.19,0.89,1.08h0.37c0.07,0.26-0.22,0.34-0.37,0.52c-1.26-0.52-1.71-1.67-2.49-2.87
	C12.34,93.02,11.41,94.81,12.64,94.62z"/>
<path d="M18.73,93.54c0.04,0.19-0.11,0.26-0.19,0.37h-0.37C17.95,93.54,18.51,93.13,18.73,93.54z"/>
<path d="M31.04,93.73v0.37c-0.34-0.11-0.52,0.15-0.71,0.33C30.22,94.25,30.37,92.98,31.04,93.73z"/>
<path d="M34.79,95.14c-0.3-0.75,0.78-0.97,0.89-1.6l0.33,0.37L34.79,95.14z"/>
<path d="M11.04,95.51c-1.45,0.19-0.11-1.15-1.23-1.42c-0.07-0.22,0.15-0.45,0.34-0.37C10.07,94.62,10.96,94.66,11.04,95.51z"/>
<path d="M61,94.43c0.52,0.41-0.63,0.04-0.52-0.33L61,93.73l-0.34,0.37L61,94.43z"/>
<path d="M79.02,94.1l-0.89,0.52C78.8,94.51,78.24,93.02,79.02,94.1z"/>
<path d="M21.56,94.25c-0.56,0.26-0.22,1.23-1.04,1.08c-0.63-0.6,0.33-0.93,0.52-1.42C21.3,93.84,21.41,94.14,21.56,94.25z"/>
<path d="M78.5,96.22c-0.33-0.3,1.08-1.27,1.23-2.31C80.21,94.84,79.1,95.51,78.5,96.22z"/>
<path fill="#E6E7E8" d="M24.61,95.14l-0.18-0.15l0.71-0.75C25.35,94.73,24.79,94.84,24.61,95.14z"/>
<polygon fill="#E6E7E8" points="50.29,95.14 50.85,94.25 51,94.25 "/>
<path d="M72.59,94.43c-0.33,0.37-0.67,1.04-1.41,0.89C71.92,95.48,71.85,93.77,72.59,94.43z"/>
<path d="M79.92,96.41c-0.22-0.71,0.78-1.45,1.41-2.16h0.19L79.92,96.41z"/>
<polygon points="31.74,95.51 31.74,94.43 32.12,94.99 "/>
<path d="M64.56,94.43c0.22,0.48-0.34,0.48-0.52,0.71C64.04,94.84,64.49,94.55,64.56,94.43z"/>
<path d="M30.33,94.99c-0.33,0.56-1.15,1.23-1.08,2.12h-0.37c-0.56-1.08,0.97-1.3,1.08-2.31C30.11,94.73,30.22,94.88,30.33,94.99z"/>
<path fill="#E6E7E8" d="M49.21,94.81c-0.48,0.37-0.78,0.86-0.89,1.42C48.28,96.37,48.21,94.66,49.21,94.81z"/>
<path d="M27.1,95.14c-0.59,0.97-1.41,1.34-1.41,2.53c-0.26-0.08-0.6,0.15-0.71-0.19c0.11-0.37,0.63-0.89,0.71-1.45
	c0.71,0.15,0.63-0.67,0.89-1.04L27.1,95.14z"/>
<polygon fill="#E6E7E8" points="43.15,95.51 43.53,94.99 43.86,94.99 "/>
<polygon fill="#E6E7E8" points="45.12,95.51 45.5,94.99 45.65,95.14 "/>
<path d="M61,95.14c-0.11,0.33-0.48,0.15-0.71,0.19C60.51,95.21,60.81,94.81,61,95.14z"/>
<path d="M57.24,95.7l-0.33-0.37c0.11-0.07,0.19-0.22,0.33-0.19V95.7z"/>
<path d="M77.24,96.04l0.37-0.89C77.39,95.25,78.06,96,77.24,96.04z"/>
<path d="M69.92,96.22l-0.18,0.19l-0.34-1.08C69.47,95.51,70.14,95.78,69.92,96.22z"/>
<path fill="#E6E7E8" d="M50.29,95.7h-0.71c0.11-0.34,0.48-0.11,0.71-0.19V95.7z"/>
<path d="M66.54,95.7c0.11,0.89-0.6,0.97-1.08,1.6l0.19,0.19l-0.89,1.08c0.41-0.89,1.12-1.64,1.6-2.53l-0.19-0.52
	C66.35,95.48,66.42,95.59,66.54,95.7z"/>
<path d="M31.22,95.89c-1.04,0.7-0.26,1.41-1.45,2.12C29.96,97.56,30.33,95.74,31.22,95.89z"/>
<path d="M64.75,96.59l-0.18-0.18v0.89c-0.19-0.22-0.45-0.37-0.34-0.71l0.52-0.37l-0.18-0.33h0.18V96.59z"/>
<path d="M37.8,98.01l-0.19-0.19c0.74-0.45,0.82-1.19,1.27-1.79C39.32,96.81,38.17,97.19,37.8,98.01z"/>
<path d="M61.55,96.59c-0.18-0.07-0.26,0.08-0.37,0.19L61,96.59l0.56-0.56V96.59z"/>
<polygon fill="#E6E7E8" points="49.07,96.59 49.21,96.22 49.59,96.22 "/>
<path d="M71,96.93h-0.37l0.19-0.71C70.77,96.52,71.11,96.63,71,96.93z"/>
<polygon fill="#E6E7E8" points="50.48,97.11 51.18,96.41 51,96.93 "/>
<path d="M68.84,97.3h-0.15l0.52-0.89C69.62,96.7,69.25,97.26,68.84,97.3z"/>
<path d="M72.59,96.78l-0.52,0.52l0.19,0.19c-0.78-0.26-0.71,1.12-1.45,1.23c0.26,0.45-0.41,1.12-0.52,1.45
	c-0.26,0.19-0.67,0.04-0.89,0.34l0.89,1.26c0.11-0.71,0.37-1.38,0.89-1.97c0.11,0.11,0.19,0.26,0.34,0.19
	c0.33-0.19,0.11-0.6,0.18-0.89c1.08,0.67-1,1.23-0.33,2.31l-0.56,0.56l-0.19-0.19c0.34,1.01-1.93,1.42-0.34,1.97l0.19-0.56
	c0.11,0.26,0.48,0.74,0.33,1.26l-0.71,0.9c0.45,0.33,0.74,0.7,0.71,1.42c-0.3,0.26-0.85,0.22-0.89,0.74l0.19,0.15l-0.37,0.37
	l-0.15-1.08c-0.78-0.08-0.78,0.93-1.26,1.08c0.37,0.45,1.3,0.52,0.71,1.27c0.33-0.34-0.48-1.27-1.08-1.27
	c0.07-0.15-0.07-0.26-0.15-0.37l-0.37,0.37l0.19,0.18h-0.56c0.56-0.15,0.78-0.74,0.89-1.26l-0.15-0.19
	c-0.48,0.93-0.52-0.19-1.08-0.15c0.6-0.74,1.45-2.08,1.6-2.87c-1.08,0.33-0.82,1.38-1.6,2.12c0-0.52-0.82-1.16,0-1.6l-0.37-0.34
	l0.89-0.19l-0.19-0.56l0.37,0.37c0.63-0.52,0.67-1.45,0.37-1.6c0.3-0.3,1.01-0.07,1.04-0.71l-0.15-0.19l0.71-0.56
	c-0.52-0.37-0.18-0.86-0.56-1.41l-0.34,0.37V98.9c0.56-0.07,0.48-0.97,1.41-1.08c-0.33,0.19-0.11,0.59-0.18,0.89l0.56,0.38
	c0.11-0.22,0.52-0.52,0.19-0.71c0.82-0.04,1.19-1.19,1.93-1.97C72.52,96.52,72.67,96.59,72.59,96.78z"/>
<path d="M14.61,96.78c0.07,0.15-0.07,0.22-0.19,0.33h-0.33C13.86,96.78,14.42,96.33,14.61,96.78z"/>
<path d="M27.66,96.93c-0.15,0.19-0.45,0.3-0.37,0.56c0.19,0.45,0.78,0.45,1.08,0.19c-0.41,0.74-0.52,1.97-1.6,2.12
	c-0.19,0.22,0.33-1.01,0-1.42c-0.26,0.19-0.41,0.56-0.74,0.52c-0.48-0.93,0.78-1.71,1.26-2.31L27.66,96.93z"/>
<path fill="#E6E7E8" d="M52.63,96.59c-0.3,0.49-0.82,0.41-1.08,0.89C52.08,97.26,51.93,96.44,52.63,96.59z"/>
<path d="M33.71,97.11c-0.26-0.07-0.37,0.26-0.56,0.37c0.11,0.11,0.26,0.19,0.19,0.34l-0.19,0.19l-0.33-0.52l0.89-0.71V97.11z"/>
<polygon fill="#E6E7E8" points="55.46,97.11 55.46,96.78 56.02,96.93 "/>
<polygon points="76.53,97.49 76.16,96.78 76.87,96.78 "/>
<path fill="#E6E7E8" d="M49.07,97.11c-0.08-0.26-0.6,0.49-0.74,0.56l0.56-0.75L49.07,97.11z"/>
<polygon points="62.07,98.01 61.89,97.82 62.59,96.93 62.97,97.3 "/>
<path d="M78.65,99.27h-0.33c0.22-0.63,0.07-2.01,1.23-2.35C80.48,97.71,78.17,98.23,78.65,99.27z"/>
<path d="M31.93,97.3h-0.56C31.48,97.08,31.82,97.08,31.93,97.3z"/>
<path d="M73.3,98.19l-0.15-1.08C73.19,97.49,73.78,97.82,73.3,98.19z"/>
<path fill="#E6E7E8" d="M56.54,97.3l-0.19,0.89L56.54,97.3z"/>
<path d="M77.61,97.3l-0.18,0.52L77.61,97.3z"/>
<path d="M82.07,98.01c-0.26,0.41-0.22,0.97-0.74,1.27c0.48,1.26,1.08-0.34,1.64,0.19c-1.11,0.48-0.63,1.75-1.64,2.12
	c-0.15,0.67-0.78,1.3-1.04,1.79v-0.34c0.67-0.6,0.78-1.75,1.41-2.53c-0.37-0.04-0.71-0.63-1.08-0.15l-0.33,0.34
	c-0.22-0.37,0.56-0.86-0.19-0.89c-1.23-0.49-0.45,1.49-1.45,0.89c-0.04-0.34,0.74-0.56,0.19-0.89c1.49-0.34,0.67-2.08,1.97-2.5
	L82.07,98.01z"/>
<path d="M23.53,97.67c-0.04,0.15,0.07,0.22,0.19,0.33c-0.22,0.19-0.37,0.48-0.71,0.37C22.93,98.05,23.04,97.45,23.53,97.67z"/>
<polygon points="39.07,98.19 39.4,97.67 39.4,98.19 "/>
<path d="M34.61,97.82c0.22,0.67-0.67,0.52-0.71,0.89C34.12,98.42,34.09,97.71,34.61,97.82z"/>
<path d="M72.97,98.71c-0.19,0.22-0.74-0.07-0.56,0.56c-0.75-1.12,0.67-0.19,0.19-1.45C72.74,97.97,73.04,98.34,72.97,98.71z"/>
<path fill="#E6E7E8" d="M51.89,98.01c-0.44,1.01-1.15,1.71-2.12,2.16C51.18,100.02,50.48,97.6,51.89,98.01z"/>
<path fill="#E6E7E8" d="M81.33,98.19c-0.19,0.19-0.37,0.48-0.71,0.37C81.03,98.45,80.88,97.63,81.33,98.19z"/>
<path d="M40.66,98.9c-0.26-0.07-0.37,0.26-0.52,0.38l0.52-0.89V98.9z"/>
<path d="M42.45,98.38c-0.07,0.22,0.15,0.6-0.19,0.71v-0.71H42.45z"/>
<path fill="#E6E7E8" d="M46.2,99.46c-0.48-0.48-0.48-0.33-0.19-0.89C46.2,98.64,46.57,99.16,46.2,99.46z"/>
<path d="M36.2,99.61c-0.07-0.67,1-0.08,0.71-0.9l-0.19,1.08L36.2,99.61z"/>
<path fill="#E6E7E8" d="M44.75,98.9c-0.33,0.23-0.37,0.75-1.04,0.56C44.08,99.38,44.12,98.23,44.75,98.9z"/>
<path d="M67.61,99.09l-0.56,0.19l0.37-0.56C67.5,98.83,67.65,98.94,67.61,99.09z"/>
<rect x="76.87" y="98.71" width="0.19" height="0.75"/>
<polygon points="41.19,99.79 41.74,98.9 41.74,99.61 "/>
<path fill="#E6E7E8" d="M61,99.09l-0.71,0.19V98.9C60.51,98.98,60.88,98.75,61,99.09z"/>
<path fill="#E6E7E8" d="M69.58,99.98c-0.19-0.37-0.41-0.78,0.15-0.89C70.29,99.42,69.51,99.65,69.58,99.98z"/>
<path d="M72.78,100.5c0.04,0.59,0.71,0.41,1.08,0.56c0.52-0.37-0.33-0.67,0.52-0.56v0.56c-0.74,0.08-0.74,1.3-0.89,1.6
	c0.08,0.19-0.07,0.26-0.19,0.37l-0.33-0.37c0.07-0.11,0.22-0.19,0.19-0.37c-0.37-0.48-0.67-0.52-1.08-0.15
	c-0.07,0.15,0.08,0.22,0.19,0.34l-0.74,0.56l-0.15-0.19L71,103.18l0.18,0.19c-0.33,0.33-0.15-0.78-0.18-0.9l0.37,0.37
	c0.15-2.23,1.15-1.68,2.3-3.39C73.3,99.61,73.45,100.84,72.78,100.5z"/>
<path d="M36.2,100.35c-0.22,0.15-0.41,0.52-0.71,0.52c0.15-0.37,0.3-0.59,0.33-0.89L36.2,100.35z"/>
<path fill="#E6E7E8" d="M45.5,100.5l-0.37,0.37l-0.19-0.19c-0.26,0.86-1.52,1.04-1.08,1.97c-1.23,0.52-1.12,1.64-1.93,2.31
	c0.41-1.9,1.78-2.61,2.83-4.09l-0.15-0.19l0.71-0.71C45.53,100.09,45.46,100.31,45.5,100.5z"/>
<path fill="#E6E7E8" d="M59.92,100.17c0.26,0.37-0.33,1.12-0.89,1.08c0.56,0.41-0.3,0.22-0.15,0.71h-0.37
	C58.88,101.1,59.29,100.76,59.92,100.17z"/>
<path d="M37.1,101.39h-0.52c-0.3-0.3-0.11-1,0.33-1.04h0.19V101.39z"/>
<polygon points="39.96,101.77 40.66,100.35 40.48,101.58 "/>
<path d="M66.54,100.5c-0.07,0.26,0.15,0.59-0.19,0.74v-0.74H66.54z"/>
<path fill="#E6E7E8" d="M45.5,101.77c-0.26-0.59,0.48-0.41,0.71-0.71C46.2,101.47,46.05,101.99,45.5,101.77z"/>
<polygon fill="#E6E7E8" points="73.3,101.95 72.97,101.39 72.78,101.58 72.78,101.24 73.3,101.24 "/>
<path d="M77.06,102.14c-0.49,0-1.23,0.78-1.41,0c0.67,0.22,0.48-0.74,1.08-0.89C76.83,101.36,77.17,101.73,77.06,102.14z"/>
<path fill="#E6E7E8" d="M70.1,102.14c-0.45-0.22-0.6,0.34-0.89,0.52h0.18v0.89h-0.18c0.04-0.15-0.08-0.26-0.19-0.37
	c-0.15-0.04-0.26,0.11-0.33,0.19c-0.3-0.08,0.41-1.27,0.89-1.79L70.1,102.14z"/>
<path d="M74.94,102.29l-0.37-0.33c0.41,0.19,0.52-0.33,0.71-0.37L74.94,102.29z"/>
<polygon fill="#E6E7E8" points="46.2,103.03 47.28,101.77 46.72,102.85 "/>
<path d="M77.76,103.18c-0.33-0.18-0.11-0.59-0.15-0.89c0.26-0.15,0.41-0.71,0.89-0.52L77.76,103.18z"/>
<path d="M82.22,102.66c-0.19-0.59,0.3-0.44,0.56-0.89C82.59,102.06,82.59,102.44,82.22,102.66z"/>
<path fill="#E6E7E8" d="M59.92,102.47c-0.3,0.67-0.74,0.78-1.04,1.45C58.88,103.52,59.73,103.03,59.92,102.47z"/>
<path d="M74.75,102.85c-0.67,1.08-1.52,1.34-1.45,2.49c-0.3,0.04-0.93,0.67-0.71,0.7l-0.19-0.18c-0.6,0.26,0.45,0.71-0.34,0.74
	v-0.56c0.3,0.04,0.45-0.33,0.71-0.52c-0.37-0.89,0.63-1.19,0.71-1.79l0.19,0.19c0.11-0.22,0.52-0.55,0.19-0.74
	c0.78,0.6,0.19-0.45,0.52-0.71L74.75,102.85z"/>
<path d="M72.26,104.26c-0.71-0.15-0.22-0.67-0.19-1.08c0.22,0,0.56-0.33,0.71,0L72.26,104.26z"/>
<path d="M75.98,103.03c0.22,0.48-0.3,0.37-0.52,0.52l-0.19-0.18C75.49,103.18,75.64,102.92,75.98,103.03z"/>
<path d="M77.43,103.55c-0.56,0.6-1.15,1.04-1.26,1.97l-0.89,0.71c0.41-0.26,0.11-1.64,0.89-1.41l0.56-0.56l-0.19-0.19
	C76.53,103.63,77.06,103.55,77.43,103.55z"/>
<path fill="#E6E7E8" d="M47.8,103.74c-0.26-0.07-0.37,0.22-0.52,0.33l0.15,0.19c-0.11,0.11-0.19,0.26-0.34,0.18
	C47.28,104.19,47.32,103.55,47.8,103.74z"/>
<path d="M74.94,104.97c-0.15,0.3-0.63,0.15-0.56,0.56l0.19,0.19c-0.33,0.97-1.3,1.53-1.78,2.12l0.19-1.08l0.19,0.19
	c0.93-0.9,0.97-1.75,1.93-2.68v-0.52C75.49,104.11,75.08,104.63,74.94,104.97z"/>
<path fill="#E6E7E8" d="M60.66,103.92c-0.48,0.34-0.11,1.12-0.89,1.04c0.08,0.67-0.15-0.41,0.15-0.52
	C59.99,104.74,60.51,103.96,60.66,103.92z"/>
<path d="M62.97,103.92c0,0.3-0.37,0.45-0.52,0.71c-0.19,0.04-0.26-0.07-0.37-0.19C62.41,104.33,62.59,103.96,62.97,103.92z"/>
<path fill="#E6E7E8" d="M69.92,103.92c0.15,0.67-1.19,0.97-0.71,1.6l-0.37-0.18C68.95,105.12,69.29,103.96,69.92,103.92z"/>
<path d="M76.87,106.42c-0.26-0.71,0.41-1.27,0.74-1.79l0.15,0.19l0.74-0.9C78.28,104.74,77.54,105.94,76.87,106.42z"/>
<path d="M81.33,104.07c-0.04,0.19,0.11,0.26,0.19,0.37c-0.33,0.6-1.52,0.93-1.08,1.79c-1,0.89-1.26,1.79-2.12,2.68l-0.19-0.19
	l0.52-0.52l-0.15-0.18c1.23-0.67,1.49-2.53,2.68-3.39l-0.19-0.56H81.33z"/>
<path fill="#E6E7E8" d="M44.23,104.26c-0.08,1-1.15,1.26-1.6,1.97c0-0.97,0.89-1.23,1.08-1.97H44.23z"/>
<polygon fill="#E6E7E8" points="56.54,104.45 56.72,104.26 57.24,104.45 "/>
<path d="M72.07,104.82c-0.74,0.19-0.52,0.78-1.08,1.04v-0.34l0.18,0.19c0.04-0.37,0.63-0.74,0.19-1.08
	C71.59,104.67,71.92,104.48,72.07,104.82z"/>
<path fill="#E6E7E8" d="M45.12,105.52H44.6l0.71-0.7C45.24,105.04,45.46,105.38,45.12,105.52z"/>
<polygon fill="#E6E7E8" points="52.78,105.52 52.78,104.97 53.15,104.97 "/>
<path fill="#E6E7E8" d="M59.58,105.86c-0.97-0.11-0.3,1.38-1.26,1.27c0.22-0.71,0.48-0.97,0.89-1.6L59.58,105.86z"/>
<path fill="#E6E7E8" d="M70.48,106.04v0.71l-0.74-0.15C69.62,106.61,69.84,105.34,70.48,106.04z"/>
<path fill="#E6E7E8" d="M50.29,107.31h-0.33l0.33-0.37l-0.18-0.19l0.56-0.71C51.18,106.34,50.4,106.9,50.29,107.31z"/>
<path fill="#E6E7E8" d="M54.23,106.23v0.19h-0.56C53.6,106.12,54.08,105.86,54.23,106.23z"/>
<path d="M78.5,106.42c-0.41,1.04-1.04,1.97-1.78,2.87c-0.45-0.56,0.04-1.16,0.33-1.64c-0.04,0.19,0.07,0.26,0.19,0.37
	c0.59-0.67,0.63-1.15,0.89-1.97L78.5,106.42z"/>
<path fill="#E6E7E8" d="M44.05,106.94c-0.48-0.08,0.11-0.48,0.19-0.71h0.37L44.05,106.94z"/>
<path fill="#E6E7E8" d="M47.61,106.61c-0.11,0.22-0.33,0.15-0.52,0.15l0.34-0.52C47.54,106.34,47.69,106.42,47.61,106.61z"/>
<path fill="#E6E7E8" d="M61.37,106.76l0.71-0.52C61.93,106.12,62.07,107.54,61.37,106.76z"/>
<path d="M81.18,107.31l-0.56,0.19l0.37-1.08C81.33,106.61,81.11,107.01,81.18,107.31z"/>
<path d="M76.53,107.5c-0.18,0.15-0.93-0.15-0.7,0.52c-0.34-0.19-0.15-0.6-0.19-0.89C76.09,107.13,76.79,106.46,76.53,107.5z"/>
<path d="M63.86,107.5l-0.19-0.19l-0.19,0.19c-0.52,0.52,0.37-0.37,0.37-0.37V107.5z"/>
<polygon fill="#E6E7E8" points="47.8,108.39 48.51,107.31 47.99,108.2 "/>
<polygon fill="#E6E7E8" points="51.18,108.02 51.37,107.5 51.74,107.5 "/>
<path fill="#E6E7E8" d="M55.46,108.91c-0.37-0.67,0.56-0.78,0.74-1.41C55.94,107.68,56.2,108.62,55.46,108.91z"/>
<polygon points="74.19,108.2 74.04,107.5 74.19,107.65 "/>
<path fill="#E6E7E8" d="M46.39,108.02c-0.22,0-0.45,0.04-0.56-0.19c0.26,0.15,0.3-0.3,0.56-0.19V108.02z"/>
<path d="M44.05,108.91c-0.56-0.04-1.38,1.23-1.6,0C43.23,108.62,44.64,107.05,44.05,108.91z"/>
<path d="M62.97,108.39c-0.41,0.56-0.56,1.53-1.27,2.12c-0.26-0.23,0.37-0.82,0.56-1.23c-0.11-0.41,0.56-1.08,0.71-1.45V108.39z"/>
<path d="M80.44,107.83l-0.33,0.71L80.44,107.83z"/>
<path d="M72.26,108.73l-0.19,0.19v-0.89C72.41,108.13,72.19,108.5,72.26,108.73z"/>
<path fill="#E6E7E8" d="M48.17,110.51c-0.11,0.11-0.22,0.26-0.37,0.18c0.22-0.89,0.93-1.34,1.26-2.16
	C50.33,109.43,48.21,109.62,48.17,110.51z"/>
<path fill="#E6E7E8" d="M59.92,109.99c-0.37,0.22-0.59,1.71-1.41,1.08c0.74-0.45,0.67-1.34,1.41-1.64l-0.15-0.15l0.89-0.56
	C60.48,109.43,59.73,109.29,59.92,109.99z"/>
<path d="M68.32,110.18c-0.67-0.3-0.3-1.08,0-1.45C68.58,108.95,68.58,109.8,68.32,110.18z"/>
<path d="M73.3,109.8c-0.07,0.11-0.22,0.19-0.15,0.37c-0.3-0.15-0.45-0.67-0.37-1.08L73.3,109.8z"/>
<path d="M75.08,109.1c0.11,0.41-0.48,0.6-0.52,0.9C74.45,109.55,75.05,109.36,75.08,109.1z"/>
<path d="M78.13,109.29c-0.52,2.01-2.45,3.12-3.38,4.8c-0.22,0-0.45,0.04-0.56-0.19c0.67,0.07,0.11-0.67,0.56-0.89
	c-0.07,0.19,0.07,0.26,0.19,0.37l0.15-0.71l0.19,0.19c0.37-0.22,0.41-0.59,0.19-0.89c0.37-0.37,1.15-0.37,1.08-1.08l0.19,0.19
	c-0.48-0.74,0.82-0.74,0.52-1.64c0.15-0.04,0.26,0.11,0.37,0.19l0.15-0.52C77.87,109.17,77.95,109.32,78.13,109.29z"/>
<path d="M44.75,109.29c0.37,0.74-0.6,1.12-0.52,1.6c-0.33,0.11-0.52-0.19-0.71-0.37C43.82,110.22,44.01,109.25,44.75,109.29z"/>
<path d="M79.54,109.29c-0.19,0.78-1.34,0.89-1.41,1.6C78.62,110.33,78.47,109.1,79.54,109.29z"/>
<path d="M39.77,109.62c-0.56,0.3-0.59,0.82-1.08,1.08C39.03,110.33,39.03,109.21,39.77,109.62z"/>
<path d="M72.41,109.8c-0.45-0.37-0.93,0.37-1.41,0.52c-0.08,0.19,0.07,0.26,0.18,0.37L71,110.89c-0.34-0.04-0.11-0.6-0.19-0.89
	C71.52,109.88,71.74,109.29,72.41,109.8z"/>
<polygon points="80.44,110.18 80.44,109.8 80.81,109.8 "/>
<rect x="69.21" y="109.99" width="0.18" height="0.71"/>
<path d="M74.19,109.99c0.33,0.74-0.48,0.56-0.71,1.08C73.45,110.44,73.97,110.33,74.19,109.99z"/>
<path d="M45.65,110.18c0.45,0.41-0.23,0.82-0.34,1.23l-0.56,0.56C44.42,111.29,45.16,110.51,45.65,110.18z"/>
<path d="M42.63,110.51c-0.11,0.22-0.34,0.18-0.56,0.18v-0.37C42.3,110.36,42.52,110.29,42.63,110.51z"/>
<path d="M61.55,112.86c0.22-0.41,0.15-0.97,0.71-1.26l-0.19-0.19c0.48-0.11,0.78-0.63,0.89-1.08
	C63,111.37,61.89,111.89,61.55,112.86z"/>
<path d="M72.59,110.51c-0.04,0.82-0.59-0.08-0.71,0.56C71.63,110.55,72.26,110.07,72.59,110.51z"/>
<path d="M39.77,111.59c-0.04-0.41,0.04-0.52,0.37-0.71h0.15L39.77,111.59z"/>
<path d="M75.27,110.89c-0.3,1.08-1.38,2.12-2.3,3.2c0.52-0.63,0.89-1.34,1.08-2.12c0.11,0.22,0.33,0.15,0.52,0.15
	C75.05,111.78,74.3,110.74,75.27,110.89z"/>
<path d="M59.58,113.19l1.41-2.12C61,111.59,60.51,112.82,59.58,113.19z"/>
<path d="M71.89,111.96l-0.19,0.15l-0.18-0.89C71.63,111.48,71.66,111.78,71.89,111.96z"/>
<path d="M78.32,111.41c-1.23,0.37,0.3,1.23-0.89,1.6h0.18v0.56h-0.18c0.04-0.19-0.11-0.26-0.19-0.37c-0.26,1.04-1.34,1.23-1.41,2.34
	c-0.41,0-0.78,0.6-0.37,0.89l-0.19-0.19c-1.04,0.41-0.74,1.9-1.79,2.31c0.08,0.55-0.59,1.08-0.89,1.6L72.07,120
	c0.97-2.12,2.3-2.98,3.38-5.21l-0.19-0.15c0.63-0.04,0.93-1.15,1.26-1.45c0.26-0.93,1.08-1.3,1.6-1.97L78.32,111.41z"/>
<path d="M46.39,111.96c-0.59,0.3-0.15,1-0.19,1.42c1.08-0.33,1.34-1.57,2.68-0.89l-0.19,0.19c0.11,0.22,0.34,0.15,0.52,0.19
	c-0.22,0.52-1,1.04-0.71,1.6c-0.67,0.04-0.48,1.04-1.23,0.89c0.45-0.85,0.48-2.01,1.41-2.49c-0.22-0.33-0.52-0.41-0.89-0.37
	c-0.41,0.74-0.56,1.15-1.26,1.79c-0.19-0.26-0.22-1.38-1.04-1.08c0.22-0.49,0.07-1.12,0.71-1.42L46.39,111.96z"/>
<path d="M72.78,112.49l-0.19-0.19l-0.33,0.89v-0.71c0.74,0.15-0.07-1.01,0.71-0.71L72.78,112.49z"/>
<path d="M41.37,112.49c-0.22,0.07-0.59-0.15-0.71,0.19v0.34h-0.19l0.71-1.04L41.37,112.49z"/>
<path d="M71.37,112.86l-0.19,0.15v-0.71C71.4,112.41,71.33,112.63,71.37,112.86z"/>
<polygon points="78.13,114.09 78.5,112.67 78.5,113.57 "/>
<polygon points="55.83,114.27 56.35,113.19 56.91,113.19 "/>
<path d="M70.29,113.9c-0.26-0.56,0.41-0.26,0.52-0.71L70.29,113.9z"/>
<polygon points="79.21,113.9 79.54,113.38 79.73,113.57 "/>
<path d="M41.93,113.57c0.04,0.15-0.11,0.26-0.18,0.34h-0.37C41.33,113.6,41.67,113.49,41.93,113.57z"/>
<path d="M43.15,114.46h-0.34l0.52-0.89C43.71,113.64,43.27,114.16,43.15,114.46z"/>
<path d="M70.62,115.54l-0.15-0.19l1.04-1.26C71.59,114.5,71,115.24,70.62,115.54z"/>
<path d="M71.37,116.77l0.15,0.18l-0.15,0.19c-0.26-0.97,0.74-2.2,1.41-2.68C72.56,115.09,71.85,116.02,71.37,116.77z"/>
<path d="M74.38,114.64c-0.19,0.19-0.45,0.37-0.33,0.71l0.15,0.19c-0.19,0.23-0.74,0.23-0.52,0.71c-1.04-0.19-0.22,0.97-0.89,1.23
	c-0.52,0.86-1.12,1.19-1.26,2.16c-0.63-0.26-0.34,0.63-0.89,0.52c1.6-1.9,1.79-3.95,3.57-5.7L74.38,114.64z"/>
<path d="M48.32,116.25h-0.15l0.71-1.6C49.29,115.05,48.92,115.87,48.32,116.25z"/>
<path d="M42.63,114.79c0,0.22,0.04,0.45-0.19,0.56h-0.37C42.08,115.09,42.37,114.79,42.63,114.79z"/>
<path d="M76.35,117.32l-0.37,0.34l-0.15-0.19c0,1-1.45,0.67-1.27,0.75c0.07-0.63,1.3-0.11,0.89-1.08l0.19,0.18
	c0.11-0.22,0.52-0.56,0.19-0.75l0.15,0.19c0.78-0.52,0.37-1.86,1.63-1.97C77.06,115.2,76.61,116.62,76.35,117.32z"/>
<polygon points="49.4,116.95 50.11,115.87 50.11,116.43 "/>
<path d="M81.33,116.43c0.33,0.52-0.37-0.34-0.52,0.34l0.19,0.18c-0.11,0.37-0.63-0.07-0.89-0.18c0.33,0.11,0.48-0.15,0.71-0.34
	c0.04-0.19-0.07-0.26-0.18-0.37l0.37,0.37l0.33-0.56V116.43z"/>
<path d="M51.56,116.25c-0.82,0.45-0.56,2.35-1.6,2.12C50.51,117.51,50.59,116.77,51.56,116.25z"/>
<path d="M83.11,116.77h-0.52l0.37-0.34C83.04,116.51,83.19,116.62,83.11,116.77z"/>
<path d="M45.31,117.84l-0.19,0.38L45.31,117.84z"/>
<path d="M50.66,119.11l-0.18-0.19l0.89-0.55C51.67,118.63,50.89,119,50.66,119.11z"/>
<path d="M74.75,119.11c-0.37,0.12-0.59,0.49-1.08,0.34c0.19-0.22,0.74-0.22,0.52-0.71C74.45,118.66,74.56,118.96,74.75,119.11z"/>
<path d="M82.22,119.82v-1.08C82.11,119.04,82.67,119.45,82.22,119.82z"/>
<path d="M69.02,120.71c-0.18-0.75,1.08-0.67,0.71-1.27l0.18,0.19L69.02,120.71z"/>
<path d="M49.4,119.63c-0.52,0.89-1.15,1.94-2.12,2.49c0.78-0.56,1.23-1.6,1.6-2.49H49.4z"/>
<path d="M80.44,120.16c-0.04,0.18,0.11,0.26,0.19,0.37l-0.52-0.37H80.44z"/>
<path d="M35.83,121.23c-0.22-0.07-0.52-0.11-0.71-0.33l0.37-0.37L35.83,121.23z"/>
<path d="M50.29,120.71c-0.45,0.04-0.78,0.74-0.89,1.23l-0.19-0.15c0.22-0.22,0.48-0.41,0.37-0.75l-0.19-0.15
	C49.7,120.82,49.99,120.23,50.29,120.71z"/>
<path d="M54.42,121.42c-0.22-0.6,0.26-0.45,0.52-0.89C54.56,120.75,55.05,121.46,54.42,121.42z"/>
<path d="M71.89,121.05c0.22,0.34,0.52,0.41,0.89,0.37c0.22-0.19-0.07-0.74,0.52-0.52c-0.11,0.48-0.45,1.19-0.89,1.23
	c0.11-0.33-0.15-0.48-0.34-0.71c-0.37,0.11-0.63,0.45-0.89,0.71c-0.78-0.52,0.6-1.08,0.89-1.6l0.19,0.19L71.89,121.05z"/>
<polygon points="69.4,122.13 70.48,120.71 69.73,122.13 "/>
<path d="M68.69,121.05c0.33,0.75-0.63,0.63-0.56,1.08C67.84,121.72,68.02,120.97,68.69,121.05z"/>
<polygon points="77.95,121.6 78.13,121.05 78.5,121.05 "/>
<path d="M66.91,121.42l-0.37,0.52L66.91,121.42z"/>
<path d="M36.39,121.79c0.07,0.18-0.19,0.41-0.37,0.33c-0.33,0.07-0.93-0.04-0.71-0.52C35.76,121.46,35.91,121.98,36.39,121.79z"/>
</svg>
