<?xml version="1.0" encoding="utf-8"?>
<!-- Generator: Adobe Illustrator 15.0.1, SVG Export Plug-In  -->
<!DOCTYPE svg PUBLIC "-//W3C//DTD SVG 1.1 Tiny//EN" "http://www.w3.org/Graphics/SVG/1.1/DTD/svg11-tiny.dtd" [
	<!ENTITY ns_flows "http://ns.adobe.com/Flows/1.0/">
]>
<svg version="1.1" baseProfile="tiny"
	 xmlns="http://www.w3.org/2000/svg" xmlns:xlink="http://www.w3.org/1999/xlink" xmlns:a="http://ns.adobe.com/AdobeSVGViewerExtensions/3.0/"
	 x="0px" y="0px" width="679px" height="371px" viewBox="-0.39 -0.38 679 371" overflow="visible" xml:space="preserve">
<defs>
</defs>
<path fill="#FFFFFF" d="M186.25,1.4c7.53-1.08,15.18-0.35,22.72-1.4c-0.51,0.48-1.54,1.43-2.05,1.9
	c-27.11,0.62-54.26,3.04-80.84,8.6c-12.23,2.62-24.3,6.01-35.94,10.59c-8.98,3.75-17.02,9.47-24.11,16.09
	c-9,7.72-17.98,15.59-28.25,21.6c-2.86,1.66-6.17,2.36-8.96,4.16c-6.31,4.2-13.05,8.2-17.6,14.44
	c-7.35,10.24-10.09,23.31-9.01,35.75c0.55,6.99,3.7,13.45,7.5,19.22c4.93,7.33,10.86,13.97,17.41,19.89
	c-3.34-6.69-7.26-13.53-7.5-21.19c0.06-4.69,2.1-10.7,7.4-11.55c5.43-0.4,10.7,2.3,14.4,6.15c5.28,5.49,8.89,12.34,11.8,19.31
	c3.22,7.74,6.48,15.46,9.7,23.2c42.4,22.56,84.87,44.99,127.29,67.51c-5.73-10.29-8.06-22.59-5.67-34.18
	c1.19-5.89,5.24-11.52,11.35-12.88c9.88-2.06,20.5-0.61,29.48,4.03c16,8.5,26.16,25.22,30.53,42.39
	c6.96,18.97,13.65,38.66,26.66,54.49c-1.09,0.88-2.26,1.65-3.47,2.34c15.48,6.87,30.89,15.85,48.26,16.32
	c-7.39-3.88-15.56-7.93-19.79-15.5c-3.99-8.82-6.48-18.24-8.68-27.64c-0.95-2.29,0.65-5.21,3.21-5.33
	c4.99,0.16,9.84,2.49,14.88,1.53c3.91-0.42,6.6-3.85,10.42-4.58c30.57-4.9,61.08-10.15,91.64-15.18c0.29-6.78,0.32-13.57,0.59-20.34
	c-0.15-2.59,2.52-3.66,4.28-4.9c-2.32-1.7-4.25-4.16-4.06-7.21c0.1-6.4,0.48-12.81,0.67-19.21c2.68-1.6,4.95-4.5,8.33-4.44
	c32.7-2.07,65.41-4.16,98.11-6.24c6.64-0.59,13.36-0.5,19.95-1.55c17.07-4.78,34.09-9.77,51.18-14.52c3.86-1.5,7.74,1.34,9.2,4.83
	c0.35,5.36,0.22,10.74,0.3,16.12c-0.25,1.97,0.22,4.77-1.93,5.82c-1.74,1.07-3.8,1.4-5.75,1.86c2.05,0.23,4.99-0.89,6.23,1.37
	c0.04,3.5-0.44,6.98-0.63,10.48c20.31-1.86,40.58-4.59,60.56-8.73c4.98-2.91,7.21-8.93,8.34-14.32l0.08,0.12
	c1.25,1.4,0.9,3.28,1.02,5.01l-1.44-0.05c0.21,0.48,0.61,1.43,0.82,1.9l-1.3,0.01c-0.06,0.72-0.19,2.15-0.25,2.86
	c-0.39,0.11-1.17,0.34-1.56,0.46c-1.76,2.15-2.69,5.62-5.83,6.08c-19.79,3.99-39.82,6.81-59.93,8.59c-0.32,1.98-0.6,3.97-0.87,5.96
	c-1.89,2.69-3.69,5.87-7.04,6.9c-13.32,5.24-26.63,10.53-39.95,15.8c-3.34,1.28-6.61,2.98-10.24,3.27
	c-33.97,3.8-67.93,7.95-102.03,10.53c-7.28,0.17-14.67,1.43-21.9,0.17c-2.59-0.25-3.79-2.5-4.71-4.62l-0.52,0.05
	c-30.16,4.93-60.27,10.15-90.44,14.98c-3.78,1.02-6.96,3.44-10.48,5.07c6.63,1.1,11.15,7.79,18.18,7.06
	c11.14-0.45,22.07-2.84,33.03-4.72c8.8-1.49,17.26-4.49,26.05-6.1c22.32-5.01,45.2-6.62,67.92-8.83c9.47-0.86,18.96-1.71,28.46-2.28
	c0.18,1.65,0.08,3.48-1.85,3.98c-10.09,3.72-21.08,2.89-31.64,3.54c-15.04,0.88-30.08,1.93-45.01,4
	c-13.57,1.81-26.54,6.47-39.98,8.95c-15.37,2.88-31.02,7.24-46.74,4.6c-4.85-2.51-7.77-7.68-12.69-10.06
	c-3.78-0.97-7.66-1.78-11.56-1.96c-2.2,0.14-1.03,2.89-0.92,4.2c1.91,8.03,4.2,16,7.26,23.67c2.09,5.54,6.94,9.31,11.81,12.32
	c3.28,2.13,7.3,3.25,9.78,6.45c-1.1,0.97-2.23,2.16-3.85,1.73c-7.34-0.4-14.57-2.16-21.39-4.88c-9.45-3.58-18.69-7.75-27.57-12.59
	c-0.04-0.44-0.12-1.33-0.16-1.78c0.38-0.29,1.15-0.87,1.53-1.16c0.24-0.16,0.71-0.47,0.94-0.63
	c-11.98-16.13-18.93-35.19-25.55-53.96c-3.63-14-11.13-27.33-22.59-36.37c-9.5-7.46-22.19-10.6-34.07-8.42
	c-1.42,0.42-2.62,1.33-3.89,2.05c-4.43,1.59-6.22,6.34-7.1,10.58c-1.04,5.83-0.61,11.83,0.36,17.64c0.98,5.56,3.76,10.53,5.85,15.71
	c-1.85,1.1-3.87,1-5.63-0.23c-38.27-20.31-76.57-40.57-114.82-60.9c-2.86-1.61-5.79-3.06-8.7-4.56c-0.45-0.24-1.36-0.7-1.81-0.94
	c-0.89-2.14-2.15-4.1-3.73-5.8c0.18-3.24-1.26-6.18-2.53-9.06c-4.45-10.27-8.16-21.53-16.77-29.19c-3.57-3.05-9.01-5.69-13.46-2.89
	c-3.53,2.97-3.86,8.06-2.94,12.28c1.39,5.93,4.28,11.36,7.13,16.71c-0.1,0.55-0.3,1.67-0.4,2.22c-0.55,0.03-1.64,0.09-2.18,0.12
	c-3.95-2.44-7.11-5.94-9.92-9.6c-5.87-6.55-11.38-13.73-14.48-22.05c-0.1-0.45-0.32-1.33-0.42-1.77c-0.6-1.89-1.04-3.82-1.78-5.66
	V100c1.2-1.94,1.07-4.29,1.66-6.43c0.83-3.81,2.27-7.45,4.05-10.9c2.14-5.14,5.96-9.26,10.2-12.76c5.32-4.36,10.91-8.81,17.68-10.65
	c7.91-4.65,15.49-10.03,22.43-16.07c8.07-6.25,15.04-13.92,23.97-19.01c6.8-4.36,14.59-6.72,22.17-9.32
	c19.82-6.19,40.37-9.78,60.98-12.02C170.78,1.62,178.56,1.97,186.25,1.4z M547.09,185.22c-25.72,1.85-51.5,3.23-77.24,4.9
	c-14.94,1.07-29.94,1.53-44.84,3.01c-1.31,3.87-0.55,8.02-0.61,12.02c-0.14,1.59,0.37,3.99,2.51,3.66
	c18.76,0.28,37.5-0.63,56.22-1.79c21.65-1.32,43.33-2.39,64.94-4.18c10.71-3.65,21.28-7.72,31.94-11.51
	c7.75-3.06,15.87-5.3,23.39-8.85c1.99-4.25,0.56-9.37,0.84-13.96c-1.5,0.07-2.96,0.32-4.38,0.75
	C582.27,174.58,564.72,180.06,547.09,185.22z M548.49,214.46c-22.46,2.89-45.02,5.18-67.57,7.33c-16.93,1.2-33.88,3.35-50.89,2.41
	c-1.97,0-4.01-0.42-5.93,0.16c-1.42,2.97-0.26,6.52-0.47,9.73c0.23,1.82-0.5,5.5,2.38,5.32c37.19,0.32,74.18-4.47,111.06-8.72
	c4.43-0.71,9-0.71,13.34-1.96c16-6.01,31.99-12.07,48.01-18.05c1.35-0.59,3.08-1.05,3.62-2.62c0.42-3.75,0.34-7.54,0.14-11.3
	c-1.42-0.35-2.79-0.26-4.13,0.26C581.52,202.81,565.05,208.78,548.49,214.46z"/>
<path fill="#FFFFFF" d="M170.11,23.1c69.13-6.94,138.62-9.19,208.04-10.41c1.25,0.35,2.02,1.56,3.03,2.32
	c19.92,18.55,36.27,40.43,53.7,61.23c-6.92,3.2-14.58,3.38-22.01,4.29c2.89,0.4,5.76,0.99,8.58,1.78
	c31.98,8.35,63.8,17.31,95.42,26.94c8.05,2.55,16.27,4.59,24.04,7.95c22.04,8.61,44.42,18.82,60.73,36.53
	c-15.34,5.76-31.19,10-47.12,13.76c-5.73-7.53-12.15-14.63-19.9-20.12c-6.53-4.61-13.1-9.33-20.49-12.49
	c-21.66-10.2-43.73-19.54-66.06-28.18c-18.34-6.97-36.98-13.29-56.02-18.06c-12.16-3.02-24.71-4.89-37.25-4.21
	c23.25,7.2,46.45,14.67,68.99,23.89c24.6,10,48.78,20.99,72.74,32.42c14.75,6.23,26.94,17.75,35.1,31.43
	c-27.34,2.42-54.78,4.18-82.24,3.89c-5.78-7.12-13.45-12.34-21.09-17.25c-19.64-12.52-41.23-21.52-62.83-30.05
	c-34.93-13.37-70.59-24.76-106.58-34.89c-1.94-0.68-3.97,0.08-5.91,0.28c-27.3,4.59-54.91,7.48-82.6,7.62
	C170.41,75.55,170.14,49.32,170.11,23.1z M367.21,16.5c-39.09,1.35-78.18,2.81-117.25,4.65c-25.71,1.09-51.42,2.65-76.99,5.58
	c0.45,24.02,0.56,48.06,1.22,72.07c27.5,1.21,54.87-2.85,81.96-7.13c3.03-0.62,5.86,2.07,8.86,0.98c4.47-1.26,8.94-2.55,13.43-3.78
	c0.19-1.64,0.36-3.51,1.95-4.44c6.53-4.03,14.48-2.79,21.77-3.19c0.1-1.32,0.2-2.63,0.3-3.94c11.1-0.5,22.21-0.84,33.32-1.07
	c1.16,2.14,2.34,4.28,3.53,6.41c6.13,0.26,12.48,2.17,18.35-0.52c-1.19-2.34-2.36-4.69-3.52-7.04c10.57-0.97,21.13-1.97,31.71-2.85
	c3.61,3.56,8.22,6.11,13.25,6.94c5.41,0.73,11.14,1.3,16.33-0.81c5.45-0.83,11.04-0.97,16.3-2.82
	c-16.81-20.3-32.9-41.34-52.11-59.47C375.48,16.08,371.34,16.28,367.21,16.5z M299.57,84.98c1.55,1.83,3.93,2,6.16,1.78
	c0.14-1.77-0.43-4.36-2.71-4.19C301.32,82.18,300.4,83.84,299.57,84.98z M295.46,89.47c8.72,4.06,17.82,7.29,26.73,10.91
	c1.64,0.34,5.43,0.38,5.05-2.13c-7-2.88-14.14-5.38-21.18-8.15C302.71,88.71,298.94,88.27,295.46,89.47z M514.31,154.34
	 M561.38,163.22c0.21,1.31,0.95,1.54,2.22,0.7C563.37,162.61,562.63,162.38,561.38,163.22z M554.25,164.35
	c0.22,2.34,3.95,0.71,5.41,0.34C558.78,163.38,555.7,163.66,554.25,164.35z"/>
<path fill="#FFFFFF" d="M78.24,38.33c9.14-8.84,21.35-14.15,33.93-15.57c16.57-0.4,33.15-0.38,49.71,0.34
	c0.34,26.64,0.75,53.28,1.07,79.92c-22.59-5.57-45.22-11.07-68.12-15.3c-5.89-1.26-12.1-1.92-17.45-4.89
	C65.49,71.1,66.47,49.79,78.24,38.33z M93.38,30.47c-8.57,4.17-16.84,10.45-20.31,19.66c-3.59,9.55-2.73,21.08,3.73,29.23
	c0.25,1.71,2.28,1.47,3.5,1.82l-0.41-1.13c0.64,1.37,1.58,2.7,3.16,3.05c4.32,1.35,8.82,2.05,13.27,2.86
	c1.22,0.26,2.44,0.52,3.66,0.78c10.06,1.75,19.99,4.18,29.98,6.28c0.25,0.14,0.77,0.42,1.02,0.56c4.3,0.59,8.48,1.76,12.73,2.66
	l-0.66,0.8c1.51-0.09,3.02-0.19,4.53-0.29l0.25,0.54c4.12,1.06,8.27,2.04,12.4,3.07c-0.19-15.82-0.19-31.64-0.32-47.46
	c-0.12-9.06-0.07-18.13-0.24-27.19c-14.88-0.53-29.78-0.2-44.66-0.66C107.45,24.69,100.17,27.42,93.38,30.47z"/>
<path fill="#FFFFFF" d="M58.97,80.17c2.22-4.52,7.73-0.79,10.95,0.53c-1.74,0.01-3.48,0-5.23,0.03c-0.26,1.6,0.24,3.12,1.48,4.17
	c4.4,4.13,10.29,6.05,15.98,7.64C73.12,92.83,62.84,88.8,58.97,80.17z"/>
<path fill="#FFFFFF" d="M90.18,90.98c10.76-1.7,21.23,2.1,31.13,5.86c5.41,2,10.53,4.68,15.72,7.16
	c46.38,22.46,92.06,46.29,137.86,69.88c-11.93-4.52-23.23-10.55-34.89-15.73c-37.93-18.28-75.63-37.03-113.38-55.69
	c-11.38-5.64-23.61-10.22-36.38-11.07L90.18,90.98z"/>
<path fill="#FFFFFF" d="M6.59,93.78c0.29,6.14-0.12,12.35,1.23,18.4c0.68,3.87,2.82,7.22,4.31,10.78c-2.16,0.5-4.38-0.9-5.07-2.95
	c-0.96-3.23-1.55-6.56-2.08-9.89C4.1,104.62,5.74,99.18,6.59,93.78z"/>
<path fill="#FFFFFF" d="M73.15,102.25c2.98,2.12,6.1,4.14,9.79,4.71c-3.96,1.35-8.18,0.07-10.82-3.16
	C72.38,103.42,72.89,102.64,73.15,102.25z"/>
<path fill="#FFFFFF" d="M83.86,108.78c1.03-0.56,2.05-1.16,3.04-1.79c1.37,0.45,2.73,0.93,4.09,1.41
	C88.61,108.53,86.23,108.6,83.86,108.78z"/>
<path fill="#FFFFFF" d="M100.78,114.29c0.67-0.88,1.35-1.77,2.03-2.65c0.51,1.33,1.03,2.66,1.56,3.98c1.15,0.69,2.29,1.39,3.43,2.11
	c-0.92,0.68-1.84,1.38-2.75,2.07c0.04,1.12,0.11,3.35,0.15,4.47c-1.85-2.18-4.04-3.93-7.05-2.7c0.28-0.97,0.84-2.9,1.13-3.87
	c-0.65-1.33-1.31-2.66-1.96-3.99C98.18,113.86,99.91,114.15,100.78,114.29z"/>
<path fill="#FFFFFF" d="M180.28,112.47c2.2-0.19,4.19,0.95,6.3,1.36l-0.49,0.68c20.25,7.54,40.18,15.99,60.13,24.3
	c22.78,9.47,45.26,19.66,67.35,30.64c3.68,2.21,7.2,4.97,9.53,8.64c2.69,4.58,2.11,10.13,1.35,15.16
	c-0.96-6.4-1.41-14.34-7.71-17.96c-25.27-14.26-51.75-26.22-78.35-37.76C219.06,129.1,199.88,120.17,180.28,112.47z M313.18,171.33"
	/>
<path fill="#FFFFFF" d="M107.01,129.33c3.46-4.41,6.8-8.91,10.31-13.27c2.3,6.55,4.66,13.08,7.03,19.61
	c5.96,3.46,11.9,6.98,17.85,10.48c-4.49,3.68-9.2,7.09-13.76,10.68c0.29,7.8,0.65,15.6,0.89,23.4
	c-5.95-5.25-11.24-11.21-16.96-16.71c-6.11,0.91-12.23,1.8-18.35,2.64c1.75-6.84,3.49-13.67,5.31-20.49
	c-3.25-6.37-6.6-12.7-9.87-19.06C95.31,127.49,101.17,128.4,107.01,129.33z M108.48,136.75c-5.17,3.46-4.32,11.24-1.07,15.78
	c2.36,3.62,7.67,6.69,11.66,3.72C127.6,149.76,118.85,132.3,108.48,136.75z"/>
<path fill="#FFFFFF" d="M130.99,125.09c0.76-0.61,1.14-2.14,2.35-1.85c0.43,1.07,0.84,2.16,1.23,3.26c1.16,0.66,2.33,1.32,3.5,1.98
	c-0.92,0.74-1.84,1.48-2.76,2.22c0.06,1.54,0.13,3.09,0.19,4.64c-1.14-1.11-2.27-2.23-3.4-3.35c-0.9,0.14-2.69,0.42-3.58,0.56
	c1.2-2.77,0.81-5.52-0.95-7.91C128.43,124.76,130.13,124.98,130.99,125.09z"/>
<path fill="#FFFFFF" d="M25.55,127.32c0.62,0.11,1.86,0.32,2.48,0.42c-0.73,1.26-0.95,3.17-2.63,3.47
	C25.46,129.91,25.51,128.62,25.55,127.32z"/>
<path fill="#FFFFFF" d="M609.02,135.36c0.21-1.45-0.18-4.36,1.99-4.36c2.55-0.66,2.79,2.68,2.95,4.36c1.5,0.89,2.97,1.83,4.42,2.83
	c-2.61,4.64-10.29,4.59-13.62,0.8C605.73,137.31,607.37,136.29,609.02,135.36z M610.53,136.64c-0.98,0.82-1.95,1.66-2.88,2.51
	c2.62,0.69,5.33,0.5,7.95-0.13c-1.08-0.78-2.14-1.53-3.22-2.29c-0.24-1.29-0.48-2.59-0.71-3.88
	C611.29,134.11,610.9,135.38,610.53,136.64z"/>
<path fill="#FFFFFF" d="M38.01,142.15c1.86-0.25,4.16-1.62,5.6,0.29c5.12,5.21,7.51,12.5,8.44,19.61c-0.47-0.23-1.43-0.69-1.9-0.92
	c-1.67,0.98-3.34,1.95-5.03,2.91c-3.03-3.58,1.15-7.59-0.53-11.39c-0.71-2.4-2.07-4.5-3.55-6.48c-2.61,3.53-2.37,8.09-3.52,12.16
	c-0.59-1.61-1.18-3.21-1.69-4.83C35.81,149.61,36.51,145.74,38.01,142.15z"/>
<path fill="#FFFFFF" d="M662.48,149.77c2.48-0.29,5.2-0.84,7.58,0.21c2.21,1.18,1.87,4.02,2.01,6.13c0.08,7.96,0.06,16.1-2.14,23.81
	c-2.09,6.96-9.12,11-15.91,12.11c-4.45,1.01-9.5-1.19-11.77-5.07c-1.13-9.27-0.15-18.74,1.76-27.83
	C647.77,152.71,655.68,150.91,662.48,149.77z M658.76,152.41c0.17,0.32,0.52,0.96,0.69,1.28c-4.66-0.87-9.81,1.43-11.94,5.73
	l-0.31-1.39c-0.94,1.26-1.68,2.67-1.87,4.25c-1.27,7.96-2.09,16.07-1.17,24.12l0.35,0.1c2.03,1.94,4.59,3.31,7.49,3.08
	c3.55,0.96,6.98-0.97,10.01-2.62c4.58-2.63,6.71-7.94,7.21-12.98c0.86-7.23,1.38-14.62,0.43-21.85
	C666.34,150.36,662.27,152.09,658.76,152.41z"/>
<path fill="#FFFFFF" d="M612.56,164.5c4.57-7.05,13.52-9.76,21.55-9.42c2.77,0.06,6.49,1.52,6.17,4.9
	c-0.62,7.88-1.11,15.78-1.96,23.64c-1.73,5.45-5.04,11.29-10.87,13.05c-5.83,1.66-12.08,0.11-17.2-2.9
	C609.73,183.97,610.24,174.05,612.56,164.5z M626.63,158.7c-4.12-0.59-8.04,2.16-9.95,5.65c-1.9-0.78-2.57,1.41-2.73,2.74
	c-1.59,8.59-2.5,17.44-1.47,26.15l0.63-1.14c1.37,1.94,3.78,2.57,6,2.95c4.25-0.27,7.15-4.07,9.53-7.2
	c-3.31-2.62-7.66-1.31-11.47-1.98c-2.39-1.33-4.47-4.89-2.85-7.45c2.1-0.96,4.49-0.71,6.73-0.47c3.04,0.13,4.85,3,7.54,4.06
	c0.7-0.08,2.09-0.24,2.79-0.32c0.74,0.26,2.23,0.77,2.97,1.03c0.3,0.66,0.91,1.97,1.21,2.63c1.51-3.58,1.21-7.53,1.65-11.31
	c0.29-4.99,1.02-9.95,1.01-14.94c-1.09-2.22-4.12-1.97-6.2-2.08C630.18,157.26,627.6,156.68,626.63,158.7z"/>
<path fill="#FFFFFF" d="M366.78,166.14c0.48-1.54,0.37-3.8,2.23-4.44c2.69-0.24,2.88,2.75,3.16,4.66c1.86,0.6,3.72,1.3,5.18,2.66
	c-1.93,6.27-9.33,4.68-14.32,4.09c-0.37-1.35-1.65-2.67-1.05-4.13C363.1,167.39,365.09,166.91,366.78,166.14z M368.31,167.4
	c-1.71,0.97-4.05,1.49-4.61,3.65c3.68,0.44,8.88,2.12,11.33-1.57c-1.53-0.56-3.1-1.04-4.56-1.76c-0.37-1.31-0.64-2.64-0.82-3.99
	C369.21,164.95,368.76,166.18,368.31,167.4z"/>
<path fill="#FFFFFF" d="M105.76,170.66c2.38,1.02,4.21,0.01,5.67-1.8c0.41,2.79,2.35,4.57,4.83,5.64c-0.88,0.66-1.77,1.32-2.65,1.97
	c0.01,1.64,0.04,3.27,0.09,4.92c-1.78-2.23-3.96-4.3-7.03-2.93c0.35-1.36,0.7-2.73,1.05-4.09
	C107.23,173.44,106.25,171.58,105.76,170.66z"/>
<path fill="#FFFFFF" d="M43.97,171.41c1.01-0.61,2.02-1.21,3.03-1.8c1.39,0.6,2.77,1.21,4.15,1.84c-1.06,1.26-2.35,2.65-4.14,2.62
	C45.26,174.54,44.78,172.44,43.97,171.41z"/>
<path fill="#FFFFFF" d="M409.49,172.78c1.7-0.75,3.49-1.27,5.33-1.54c0.24,1.74-0.19,3.44-0.68,5.09c-1.2-0.09-2.52,0.18-3.57-0.53
	C410.13,174.82,409.82,173.8,409.49,172.78z"/>
<path fill="#FFFFFF" d="M645.78,173.53c3.06-0.87,6.38-1.84,9.53-0.79c2.18,1.03,3.88,2.83,5.71,4.38c2.11-0.1,4.23-0.21,6.36-0.29
	c-2.03,2.13-4.18,4.14-6.45,5.99c-0.43-0.13-1.28-0.39-1.71-0.52l-0.88-0.25C653.08,181.15,649.05,177.5,645.78,173.53z"/>
<path fill="#FFFFFF" d="M42.34,192.67c-3.61-5.14-2.76-11.98,0.35-17.13c1.79,3.59,5.08,5.78,9.09,6.1
	c-1.1,1.14-2.19,2.28-3.29,3.41c0.11,1.98,0.14,3.97,0.49,5.93c1.29,0.93,2.74,1.6,4.15,2.34c0.11,0.72,0.33,2.17,0.44,2.89
	c-0.24,1.82-0.91,3.54-1.5,5.26c-2.09-1.45-3.39-3.6-4.27-5.94C45.8,195,43.37,194.77,42.34,192.67z"/>
<path fill="#FFFFFF" d="M419.01,180.05c2.21-0.07,4.42,0.11,6.56,0.72c-0.56,2.25-0.81,5.57-3.58,6.2
	C419.26,186.15,417.25,182.64,419.01,180.05z"/>
<path fill="#FFFFFF" d="M159.97,187.1c1.74,0.09,3.48,0.33,5.08,1.07c-0.61,2.21-1.9,4.13-3.62,5.64c-0.19-1.64-0.15-3.28,0.38-4.85
	C161.35,188.49,160.43,187.56,159.97,187.1z"/>
<path fill="#FFFFFF" d="M398.61,189.8c4.66-1.05,9.83-1.67,14.31,0.41c2.22,1.44,4.21,4.01,3.89,6.8
	c-0.25,8.51-0.38,17.13-2.19,25.48c-3.17,12.01-17.15,17.82-28.63,16.58c-6.75-0.41-11.73-6.66-12.3-13.1
	c-0.53-7.96-0.91-16.08,0.73-23.94c0.83-4.17,3.77-8.24,8.11-9.18C387.87,191.73,393.26,190.87,398.61,189.8z M399.77,191.47
	c1.47,0.56,2.93,1.15,4.46,1.55c-6.64-1.09-13.85-0.53-19.82,2.75c-0.34-0.28-1-0.84-1.33-1.12c-3.8,1.04-6.19,4.71-6.86,8.41
	c-1.31,6.58-0.98,13.34-0.77,20c0.09,4.3,1.41,8.95,4.91,11.71c1.07,0.77,2.46,1.87,3.76,0.9c3.49,1.67,7.78,1.37,11.28-0.14
	c3.09,1.14,5.98-1.15,8.61-2.46c5.41-2.96,8.87-8.67,9.43-14.76c1.08-4.16-0.82-8.15-1.42-12.21c0.86,0.55,1.72,1.11,2.59,1.67
	c-0.13-4.14,0.37-8.3,0.07-12.44C412.36,189.44,404.74,190.72,399.77,191.47z"/>
<path fill="#FFFFFF" d="M164.33,199.67c-1.77-3.63,0.98-7.36,3.68-9.61c1.07,0.35,2.14,0.71,3.21,1.08
	c-0.85,1.91-2.44,3.3-3.73,4.88c0.32,2.06,2.45,3.78,1.76,5.98C167.33,203.29,165.4,201.06,164.33,199.67z"/>
<path fill="#FFFFFF" d="M408.79,195.13c1.41-0.24,3.24-1.62,4.42-0.11c0.73,1.91-0.36,3.99-0.52,5.96
	C411.7,198.83,410.31,196.92,408.79,195.13z"/>
<path fill="#FFFFFF" d="M321.25,201.15c-1.02-1.52-1.09-3.24,0.18-4.63c0.98,0.82,1.96,1.66,2.93,2.5
	C323.32,199.74,322.29,200.45,321.25,201.15z"/>
<path fill="#FFFFFF" d="M347.57,197.83c5.8-0.48,12.09-2.99,17.6-0.02c2.76,1.19,3.97,4.34,3.82,7.18c0.06,11,0.69,22.96-5.39,32.67
	c-4.24,5.75-11.71,7.99-18.56,8.38c-4.1,0.11-8.58,0.53-12.23-1.7c-3.66-2.09-5.63-6.29-6.02-10.36c-0.77-7.43-1.4-14.96-0.49-22.41
	c0.64-4.41,2.79-9.49,7.51-10.74C338.35,199.65,342.94,198.57,347.57,197.83z M356.9,198.33c0.37,0.39,1.11,1.15,1.48,1.54
	c-10.06-1.04-20.81,1.17-28.56,7.97l-0.75,0.26c-2.08,8.5-1.12,17.38-0.26,25.99c0.38,5.14,4.75,10.6,10.35,9.56
	c1.83,0.23,3.7,0.29,5.53-0.03c5.72,0.72,11.41-1.72,15.79-5.27c-1.75-1.54-3.19-3.36-4.42-5.32c-5.33,2.46-12.71,2.91-16.25-2.68
	c-2.74-2.75,0.12-6.28,2.21-8.39c2.56-0.98,4.81,1.22,7.04,2.14c1.77-0.81,3.67-3,5.71-1.61c2.01,2.38,2.68,5.58,4.54,8.05
	c1.77,0.57,4.24,0.36,4.31,2.89c2.79-6.1,3.49-12.96,3.14-19.6c-0.87,2.38-1.68,4.78-2.54,7.16c0.11-3.29,0.49-6.58,0.26-9.87
	c-0.07-2.64-1.92-4.64-3.08-6.84c1.03-3.17,4.18-0.53,5.8,0.63C367.29,199.47,361.34,197.8,356.9,198.33z"/>
<path fill="#FFFFFF" d="M391.21,204.22c1.86-3.05,5.84-3.12,8.88-2.06c-0.41,1.96-1.38,3.8-3.27,4.69
	c-2.88,1.56-5.52,4.04-8.93,4.21C387.21,208.33,389.96,206.36,391.21,204.22z"/>
<path fill="#FFFFFF" d="M643.17,202.4c4.54,0.41,9.11,0.21,13.66,0.07c-1.46,2.47-4.25,2.84-6.86,2.97
	C647.97,203.87,645.63,202.92,643.17,202.4z"/>
<path fill="#FFFFFF" d="M634.6,212.57c13.29-2.87,26.46-6.34,39.82-8.82c0.14,4.12-4.25,5.1-7.36,5.99
	c-13.62,3.18-27.41,5.56-41.08,8.5c-10.46,2.27-19.97,7.31-29.15,12.61c2.96-4.03,6.9-7.29,11.08-10
	C616.05,216.07,625.58,214.8,634.6,212.57z"/>
<path fill="#FFFFFF" d="M350.25,208.33c1.67-0.36,3.31,0.43,4.92,0.78c-2.16,1.21-4.09,2.8-4.61,5.35c-3.63,0.35-5.74,3.97-9.24,4.4
	c-1.66-2.23,0.82-3.86,2.35-5.12C345.92,212.02,347.8,209.8,350.25,208.33z"/>
<path fill="#FFFFFF" d="M612.98,208.44c2.72-0.32,5.46-0.44,8.21-0.45c-0.06,2.07-1.25,3.47-3.05,4.3
	C616.35,211.12,614.01,210.46,612.98,208.44z"/>
<path fill="#FFFFFF" d="M398.15,216.63c1.98-1.24,4.36-3.3,6.67-1.42c2.72,1.63,0.85,4.89,0.52,7.31c1.56,0.64,3.12,1.28,4.7,1.92
	c-0.25,3.46-2.81,5.94-6.05,6.82c0.31-1.59,0.63-3.18,0.93-4.76c-2.93-0.15-5.84,0.19-8.69,0.86c-5.81,1.35-11.71-6.78-7.45-11.54
	C391.58,213.58,395.21,215.84,398.15,216.63z"/>
<path fill="#FFFFFF" d="M215.37,224.39c2.66-4.59,8.71-6.19,13.64-5.04c3.5,1.41,6.63,3.76,9.21,6.51c0.82,1.78,0.78,3.8,1.02,5.71
	c-5.4-0.84-9.62-5.44-15.26-5.54c-3.79,0.05-6.83,2.7-9.69,4.86C214.58,228.72,214.46,226.42,215.37,224.39z"/>
<path fill="#FFFFFF" d="M380.74,224.99c1.67-0.03,3.35-0.01,5.04,0.06c0.27,1.7,0.56,3.41,0.84,5.12
	C383.79,229.66,381.51,227.81,380.74,224.99z"/>
<path fill="#FFFFFF" d="M205.28,229.34c1.02-0.19,2.01-0.07,2.98,0.36c1.47,1.53,0.34,3.63-0.1,5.34c-0.89,2.44-1.11,5.72-4.17,6.35
	C201.75,237.69,202.17,232.42,205.28,229.34z"/>
<path fill="#FFFFFF" d="M332.86,231.36c1.95,0.38,3.91,0.7,5.89,0.98c0.33,1.58,0.66,3.18,0.97,4.77c-1.73-0.38-3.69-0.43-5.04-1.72
	C333.83,234.17,333.42,232.72,332.86,231.36z"/>
<path fill="#FFFFFF" d="M562.89,237.82c5.3-1.92,11.15-3.68,16.76-2.02c-6.58,5.83-15.32,8.59-23.73,10.59
	c-16.7,3.48-33.79,4.72-50.8,5.39c-2.45-1.14-0.25-4.47,1.81-4.52c10.53-1.31,21.1-2.29,31.6-3.9
	C546.76,242.1,555.11,240.94,562.89,237.82z"/>
<path fill="#FFFFFF" d="M221.93,242.07c0.87-1.4,2.61-1.26,4.04-1.23c0.69,4.12-2.1,7.83-1.57,11.89c0.57,2.88,5.38,1.27,5.65,4.21
	c-4.34,1.5-8.95,2.66-12.03,6.36C217.84,256.15,217.08,247.99,221.93,242.07z"/>
<path fill="#FFFFFF" d="M245,252.16c1.48,1.49,2.99,2.96,4.54,4.38c0.63,1.89,1.38,3.76,1.71,5.74c-0.55,1.57-1.15,3.13-1.73,4.7
	C249.18,261.74,247.17,256.87,245,252.16z"/>
<path fill="#FFFFFF" d="M221.03,265.27c1.66-0.02,3.33-0.03,5-0.03c-0.39,1.56-0.8,3.12-1.23,4.67
	C223.51,268.38,222.26,266.83,221.03,265.27z"/>
<path fill="#FFFFFF" d="M226.73,279.05c2.57-4.63,8.19-5.97,12.73-7.9c0.44,1.29,0.89,2.58,1.34,3.88
	C236.94,278.67,231.37,277.34,226.73,279.05z"/>
<path fill="#FFFFFF" d="M212.47,288.84c0.75-3.02,3.55-4.11,6.41-3.59c0.06,4.95-0.63,9.92,0.11,14.84
	c0.42,3.21,1.78,6.18,2.88,9.19c-1.53-0.7-3.33-1.28-4.1-2.93c-2.08-4.14-2.14-8.89-2.83-13.38
	C214.85,291.26,213.39,290.13,212.47,288.84z"/>
<path fill="#FFFFFF" d="M225.6,288.03c3.09,0.06,6.4-0.24,9.24,1.25c0.82,0.49,2.29,0.92,1.78,2.19c-1.12,1.82-2.93,3.33-3.29,5.54
	c-0.39,2.7,0.18,5.4,0.56,8.07c-1.77-0.18-3.77,0.37-5.37-0.53c-1.76-1.77-1.68-4.48-2.17-6.78c0.89-0.54,1.77-1.07,2.66-1.6
	C227.04,293.86,225.79,291.09,225.6,288.03z"/>
<path fill="#FFFFFF" d="M244.06,301.12c3.07-1.34,4.87-4.16,6.3-7.06c0.4,2.33,0.84,4.71,2.2,6.71l0.15,0.27
	C249.98,302.33,246.09,304.69,244.06,301.12z"/>
<path fill="#FFFFFF" d="M237.75,308.71c2.32-1.22,4.42,1.1,5.93,2.59c-2.56,1.57-6.04,2.2-7.13,5.4c2.79-0.21,6.05,0.1,7.05,3.22
	c-2.02,1.32-4.02,2.67-5.99,4.05c-1.95-3.71-6.72-4.23-8.71-7.75c1.62-0.74,3.42-1.2,4.85-2.3
	C235.21,312.29,236.25,310.31,237.75,308.71z"/>
<path fill="#FFFFFF" d="M237.87,334.52c5.58-0.52,9.46-5.03,12.73-9.12c1.2,1.23,3.34,2.53,2.29,4.58
	c-2.63,6.44-9.27,10.48-15.92,11.69c-2.22,0.22-5.9-0.62-5.36-3.57C232.68,335.57,235.3,334.59,237.87,334.52z"/>
<path fill="#FFFFFF" d="M222.38,328.37c1.82,2.51,4.02,4.77,7.05,5.77c0.35,2.23,0.32,4.52-1.51,6.11
	c-3.28-0.91-6.35-2.98-7.58-6.27C219.8,331.84,221.37,330.05,222.38,328.37z"/>
<path d="M239.08,0.71c11-0.02,22-0.36,33.01-0.25c19.8-0.71,39.61,0.67,59.34,2.27c15.87,1.83,32.11,3.23,47.15,8.91
	c17.38,14.27,31.6,31.87,45.48,49.44c3.93,5.29,7.86,10.62,12.26,15.51c6.77,1.59,13.67,2.67,20.52,3.88
	c0.31-0.24,0.93-0.74,1.23-0.99c0.79,0.02,1.57,0.08,2.37,0.17c-0.77,0.43-1.53,0.89-2.27,1.36c6.67,1.08,13.32,2.35,19.89,3.91
	c1.1,1.69,3.21,1.95,4.95,1.09c14.2,2.44,28.18,6.13,42.4,8.47c0.39,0.06,1.18,0.16,1.57,0.22l-0.14,0.21
	c10.97,2.52,22.01,4.69,33.06,6.84c22.3,4.56,44.48,9.8,66.34,16.21c13.17,4.1,26.33,8.69,38.4,15.45
	c4.09,2.51,9.74,5.81,8.68,11.48c0.82,10.76,3,21.61,1.27,32.44c-0.16,1.09-0.14,2.19-0.11,3.29l-0.08-0.12
	c-1.13,5.39-3.36,11.41-8.34,14.32c-19.98,4.14-40.25,6.87-60.56,8.73c0.19-3.5,0.67-6.98,0.63-10.48
	c-1.24-2.26-4.18-1.14-6.23-1.37c1.95-0.46,4.01-0.79,5.75-1.86c2.15-1.05,1.68-3.85,1.93-5.82c-0.08-5.38,0.05-10.76-0.3-16.12
	c-1.46-3.49-5.34-6.33-9.2-4.83c-17.09,4.75-34.11,9.74-51.18,14.52c-6.59,1.05-13.31,0.96-19.95,1.55
	c-32.7,2.08-65.41,4.17-98.11,6.24c-3.38-0.06-5.65,2.84-8.33,4.44c-0.19,6.4-0.57,12.81-0.67,19.21c-0.19,3.05,1.74,5.51,4.06,7.21
	c-1.76,1.24-4.43,2.31-4.28,4.9c-0.27,6.77-0.3,13.56-0.59,20.34c-30.56,5.03-61.07,10.28-91.64,15.18
	c-3.82,0.73-6.51,4.16-10.42,4.58c-5.04,0.96-9.89-1.37-14.88-1.53c-2.56,0.12-4.16,3.04-3.21,5.33c2.2,9.4,4.69,18.82,8.68,27.64
	c4.23,7.57,12.4,11.62,19.79,15.5c-17.37-0.47-32.78-9.45-48.26-16.32c1.21-0.69,2.38-1.46,3.47-2.34
	c-13.01-15.83-19.7-35.52-26.66-54.49c-4.37-17.17-14.53-33.89-30.53-42.39c-8.98-4.64-19.6-6.09-29.48-4.03
	c-6.11,1.36-10.16,6.99-11.35,12.88c-2.39,11.59-0.06,23.89,5.67,34.18c-42.42-22.52-84.89-44.95-127.29-67.51
	c-3.22-7.74-6.48-15.46-9.7-23.2c-2.91-6.97-6.52-13.82-11.8-19.31c-3.7-3.85-8.97-6.55-14.4-6.15c-5.3,0.85-7.34,6.86-7.4,11.55
	c0.24,7.66,4.16,14.5,7.5,21.19c-6.55-5.92-12.48-12.56-17.41-19.89c-3.8-5.77-6.95-12.23-7.5-19.22
	c-1.08-12.44,1.66-25.51,9.01-35.75c4.55-6.24,11.29-10.24,17.6-14.44c2.79-1.8,6.1-2.5,8.96-4.16
	c10.27-6.01,19.25-13.88,28.25-21.6c7.09-6.62,15.13-12.34,24.11-16.09c11.64-4.58,23.71-7.97,35.94-10.59
	c26.58-5.56,53.73-7.98,80.84-8.6c10.47,0.29,20.92-1.05,31.39-0.95L239.08,0.71z M170.11,23.1c0.03,26.22,0.3,52.45,0.27,78.67
	c27.69-0.14,55.3-3.03,82.6-7.62c1.94-0.2,3.97-0.96,5.91-0.28c35.99,10.13,71.65,21.52,106.58,34.89
	c21.6,8.53,43.19,17.53,62.83,30.05c7.64,4.91,15.31,10.13,21.09,17.25c27.46,0.29,54.9-1.47,82.24-3.89
	c-8.16-13.68-20.35-25.2-35.1-31.43c-23.96-11.43-48.14-22.42-72.74-32.42c-22.54-9.22-45.74-16.69-68.99-23.89
	c12.54-0.68,25.09,1.19,37.25,4.21c19.04,4.77,37.68,11.09,56.02,18.06c22.33,8.64,44.4,17.98,66.06,28.18
	c7.39,3.16,13.96,7.88,20.49,12.49c7.75,5.49,14.17,12.59,19.9,20.12c15.93-3.76,31.78-8,47.12-13.76
	c-16.31-17.71-38.69-27.92-60.73-36.53c-7.77-3.36-15.99-5.4-24.04-7.95c-31.62-9.63-63.44-18.59-95.42-26.94
	c-2.82-0.79-5.69-1.38-8.58-1.78c7.43-0.91,15.09-1.09,22.01-4.29c-17.43-20.8-33.78-42.68-53.7-61.23
	c-1.01-0.76-1.78-1.97-3.03-2.32C308.73,13.91,239.24,16.16,170.11,23.1z M78.24,38.33c-11.77,11.46-12.75,32.77-0.86,44.5
	c5.35,2.97,11.56,3.63,17.45,4.89c22.9,4.23,45.53,9.73,68.12,15.3c-0.32-26.64-0.73-53.28-1.07-79.92
	c-16.56-0.72-33.14-0.74-49.71-0.34C99.59,24.18,87.38,29.49,78.24,38.33z M58.97,80.17c3.87,8.63,14.15,12.66,23.18,12.37
	c-5.69-1.59-11.58-3.51-15.98-7.64c-1.24-1.05-1.74-2.57-1.48-4.17c1.75-0.03,3.49-0.02,5.23-0.03
	C66.7,79.38,61.19,75.65,58.97,80.17z M90.18,90.98l0.06,0.41c12.77,0.85,25,5.43,36.38,11.07c37.75,18.66,75.45,37.41,113.38,55.69
	c11.66,5.18,22.96,11.21,34.89,15.73c-45.8-23.59-91.48-47.42-137.86-69.88c-5.19-2.48-10.31-5.16-15.72-7.16
	C111.41,93.08,100.94,89.28,90.18,90.98z M6.59,93.78c-0.85,5.4-2.49,10.84-1.61,16.34c0.53,3.33,1.12,6.66,2.08,9.89
	c0.69,2.05,2.91,3.45,5.07,2.95c-1.49-3.56-3.63-6.91-4.31-10.78C6.47,106.13,6.88,99.92,6.59,93.78z M73.15,102.25
	c-0.26,0.39-0.77,1.17-1.03,1.55c2.64,3.23,6.86,4.51,10.82,3.16C79.25,106.39,76.13,104.37,73.15,102.25z M83.86,108.78
	c2.37-0.18,4.75-0.25,7.13-0.38c-1.36-0.48-2.72-0.96-4.09-1.41C85.91,107.62,84.89,108.22,83.86,108.78z M100.78,114.29
	c-0.87-0.14-2.6-0.43-3.46-0.58c0.65,1.33,1.31,2.66,1.96,3.99c-0.29,0.97-0.85,2.9-1.13,3.87c3.01-1.23,5.2,0.52,7.05,2.7
	c-0.04-1.12-0.11-3.35-0.15-4.47c0.91-0.69,1.83-1.39,2.75-2.07c-1.14-0.72-2.28-1.42-3.43-2.11c-0.53-1.32-1.05-2.65-1.56-3.98
	C102.13,112.52,101.45,113.41,100.78,114.29z M180.28,112.47c19.6,7.7,38.78,16.63,58.11,25.06c26.6,11.54,53.08,23.5,78.35,37.76
	c6.3,3.62,6.75,11.56,7.71,17.96c0.76-5.03,1.34-10.58-1.35-15.16c-2.33-3.67-5.85-6.43-9.53-8.64
	c-22.09-10.98-44.57-21.17-67.35-30.64c-19.95-8.31-39.88-16.76-60.13-24.3l0.49-0.68C184.47,113.42,182.48,112.28,180.28,112.47z
	 M107.01,129.33c-5.84-0.93-11.7-1.84-17.55-2.72c3.27,6.36,6.62,12.69,9.87,19.06c-1.82,6.82-3.56,13.65-5.31,20.49
	c6.12-0.84,12.24-1.73,18.35-2.64c5.72,5.5,11.01,11.46,16.96,16.71c-0.24-7.8-0.6-15.6-0.89-23.4c4.56-3.59,9.27-7,13.76-10.68
	c-5.95-3.5-11.89-7.02-17.85-10.48c-2.37-6.53-4.73-13.06-7.03-19.61C113.81,120.42,110.47,124.92,107.01,129.33z M130.99,125.09
	c-0.86-0.11-2.56-0.33-3.42-0.45c1.76,2.39,2.15,5.14,0.95,7.91c0.89-0.14,2.68-0.42,3.58-0.56c1.13,1.12,2.26,2.24,3.4,3.35
	c-0.06-1.55-0.13-3.1-0.19-4.64c0.92-0.74,1.84-1.48,2.76-2.22c-1.17-0.66-2.34-1.32-3.5-1.98c-0.39-1.1-0.8-2.19-1.23-3.26
	C132.13,122.95,131.75,124.48,130.99,125.09z M609.02,135.36c-1.65,0.93-3.29,1.95-4.26,3.63c3.33,3.79,11.01,3.84,13.62-0.8
	c-1.45-1-2.92-1.94-4.42-2.83c-0.16-1.68-0.4-5.02-2.95-4.36C608.84,131,609.23,133.91,609.02,135.36z M662.48,149.77
	c-6.8,1.14-14.71,2.94-18.47,9.36c-1.91,9.09-2.89,18.56-1.76,27.83c2.27,3.88,7.32,6.08,11.77,5.07
	c6.79-1.11,13.82-5.15,15.91-12.11c2.2-7.71,2.22-15.85,2.14-23.81c-0.14-2.11,0.2-4.95-2.01-6.13
	C667.68,148.93,664.96,149.48,662.48,149.77z M612.56,164.5c-2.32,9.55-2.83,19.47-2.31,29.27c5.12,3.01,11.37,4.56,17.2,2.9
	c5.83-1.76,9.14-7.6,10.87-13.05c0.85-7.86,1.34-15.76,1.96-23.64c0.32-3.38-3.4-4.84-6.17-4.9
	C626.08,154.74,617.13,157.45,612.56,164.5z M366.78,166.14c-1.69,0.77-3.68,1.25-4.8,2.84c-0.6,1.46,0.68,2.78,1.05,4.13
	c4.99,0.59,12.39,2.18,14.32-4.09c-1.46-1.36-3.32-2.06-5.18-2.66c-0.28-1.91-0.47-4.9-3.16-4.66
	C367.15,162.34,367.26,164.6,366.78,166.14z M105.76,170.66c0.49,0.92,1.47,2.78,1.96,3.71c-0.35,1.36-0.7,2.73-1.05,4.09
	c3.07-1.37,5.25,0.7,7.03,2.93c-0.05-1.65-0.08-3.28-0.09-4.92c0.88-0.65,1.77-1.31,2.65-1.97c-2.48-1.07-4.42-2.85-4.83-5.64
	C109.97,170.67,108.14,171.68,105.76,170.66z M159.97,187.1c0.46,0.46,1.38,1.39,1.84,1.86c-0.53,1.57-0.57,3.21-0.38,4.85
	c1.72-1.51,3.01-3.43,3.62-5.64C163.45,187.43,161.71,187.19,159.97,187.1z M398.61,189.8c-5.35,1.07-10.74,1.93-16.08,3.05
	c-4.34,0.94-7.28,5.01-8.11,9.18c-1.64,7.86-1.26,15.98-0.73,23.94c0.57,6.44,5.55,12.69,12.3,13.1
	c11.48,1.24,25.46-4.57,28.63-16.58c1.81-8.35,1.94-16.97,2.19-25.48c0.32-2.79-1.67-5.36-3.89-6.8
	C408.44,188.13,403.27,188.75,398.61,189.8z M164.33,199.67c1.07,1.39,3,3.62,4.92,2.33c0.69-2.2-1.44-3.92-1.76-5.98
	c1.29-1.58,2.88-2.97,3.73-4.88c-1.07-0.37-2.14-0.73-3.21-1.08C165.31,192.31,162.56,196.04,164.33,199.67z M321.25,201.15
	c1.04-0.7,2.07-1.41,3.11-2.13c-0.97-0.84-1.95-1.68-2.93-2.5C320.16,197.91,320.23,199.63,321.25,201.15z M347.57,197.83
	c-4.63,0.74-9.22,1.82-13.76,3c-4.72,1.25-6.87,6.33-7.51,10.74c-0.91,7.45-0.28,14.98,0.49,22.41c0.39,4.07,2.36,8.27,6.02,10.36
	c3.65,2.23,8.13,1.81,12.23,1.7c6.85-0.39,14.32-2.63,18.56-8.38c6.08-9.71,5.45-21.67,5.39-32.67c0.15-2.84-1.06-5.99-3.82-7.18
	C359.66,194.84,353.37,197.35,347.57,197.83z"/>
<path d="M249.96,21.15c39.07-1.84,78.16-3.3,117.25-4.65c0.12,0.66,0.38,1.99,0.5,2.66c-19.52,1.47-39.09,2.35-58.63,3.59
	c-4.02,0.38-8.73-0.36-11.99,2.53c-1.87,1.84-0.91,4.4,0.47,6.19c1.05,1.66,2.08,3.34,3.09,5.03c3.11,0.43,6.91,0.14,9.08,2.87
	c1.63,2.98,2.21,8.15-2.02,9.21c1.9,2.67,3.14,5.94,5.73,8.05c7.47,5.16,15.94,8.67,24.61,11.25c-3.76-13.25-8.91-26.07-14.97-38.43
	c0.83-0.05,1.67-0.11,2.51-0.18c6.52,12.55,11.86,25.68,16.01,39.19c23.84-0.01,47.68,0.02,71.52-0.01l-1.03-1.08
	c2.62,2.25,5.11,4.66,7.11,7.49c-6.7,1.44-13.37,3.02-20.1,4.31c-5.03-0.83-9.64-3.38-13.25-6.94c-10.58,0.88-21.14,1.88-31.71,2.85
	c1.16,2.35,2.33,4.7,3.52,7.04c-5.87,2.69-12.22,0.78-18.35,0.52c-1.19-2.13-2.37-4.27-3.53-6.41c-11.11,0.23-22.22,0.57-33.32,1.07
	c-0.1,1.31-0.2,2.62-0.3,3.94c-7.29,0.4-15.24-0.84-21.77,3.19c-1.59,0.93-1.76,2.8-1.95,4.44c-4.49,1.23-8.96,2.52-13.43,3.78
	c-3,1.09-5.83-1.6-8.86-0.98c-27.09,4.28-54.46,8.34-81.96,7.13c-0.66-24.01-0.77-48.05-1.22-72.07
	C198.54,23.8,224.25,22.24,249.96,21.15z M239.94,26.04c-6.01-0.23-11.91,1.39-17.92,1c-15.27,0.99-30.57,1.83-45.87,2.48
	c-0.63,4.88-0.79,9.87,0.08,14.73c-0.32,1.58-0.29,3.2-0.36,4.81c23.15-0.36,46.31-0.97,69.45-1.59c3.24-3.85,6.27-7.91,8.56-12.4
	l0.71,0.03c1.83-3.32,3.85-6.53,5.59-9.9C253.38,24.2,246.72,26.4,239.94,26.04z M268.72,39.73c-2.59,2.17,0.11,5.3,1.33,7.41
	c0.18-1.69,0.1-4.13,2.15-4.77c4.17-1.37,8.66-1.21,12.98-0.93c-0.76-1.19-1.52-2.38-2.28-3.57
	C278.19,37.91,272.94,37.16,268.72,39.73z M299.75,39.3c2.09,1.93,4.36,3.76,7.06,4.75C306.45,40.39,303.03,39.04,299.75,39.3z"/>
<path d="M93.38,30.47c6.79-3.05,14.07-5.78,21.63-5.42c14.88,0.46,29.78,0.13,44.66,0.66c-0.15,1.44-0.31,2.88-0.46,4.32
	c-13.76,0.01-27.51,0.06-41.26-0.04c-2.18-0.13-4.26,0.52-6.21,1.43c-1.5,0.58-3.01,1.17-4.59,1.52c-7.2,0.99-13.9,5.39-17.46,11.75
	c-2.26,3.84-3.44,8.16-4.47,12.46c5.73,0.21,11.4-0.72,17.09-1.19c-2.12,9.97-4.07,19.99-5.99,30c-4.45-0.81-8.95-1.51-13.27-2.86
	c-1.58-0.35-2.52-1.68-3.16-3.05c-1.48-3.57-3.16-7.15-3.42-11.07c-0.57-7.32,1.44-14.47,3.37-21.45
	c-5.86,9.35-7.85,21.61-3.04,31.83c-6.46-8.15-7.32-19.68-3.73-29.23C76.54,40.92,84.81,34.64,93.38,30.47z"/>
<path d="M121.03,54.97c12.95-0.86,25.91-1.46,38.88-2.07c0.13,15.82,0.13,31.64,0.32,47.46c-4.13-1.03-8.28-2.01-12.4-3.07
	l-0.25-0.54c-0.55-1.17-1.1-2.33-1.65-3.49c0.7-0.2,2.08-0.6,2.77-0.8c0.74-4.73,1.99-9.53,1.34-14.33c-1.3-3.65-6.2-2.42-9.18-3.37
	c-5.78-0.42-12.6-3.41-17.76,0.38c-1.72,3.51-1.69,7.87-0.57,11.57c1.11,3.36,4.5,4.87,7.43,6.31c-9.99-2.1-19.92-4.53-29.98-6.28
	c2.09-10.06,4.18-20.11,6.23-30.17C110.95,54.78,116.07,55.24,121.03,54.97z M110.58,59.68c4.83,3.29,10.93,3.21,16.54,3.27
	c6.25-0.22,12.88-0.4,18.49-3.5C134.02,57.58,122.13,57.53,110.58,59.68z M149.66,65.16c-0.01,2.21,1.04,4.25,1.73,6.3
	c2.51-2.46,1.79-6.41,1.35-9.53C151.57,62.8,149.61,63.38,149.66,65.16z"/>
<path d="M299.57,84.98c0.83-1.14,1.75-2.8,3.45-2.41c2.28-0.17,2.85,2.42,2.71,4.19C303.5,86.98,301.12,86.81,299.57,84.98z"/>
<path d="M295.46,89.47c3.48-1.2,7.25-0.76,10.6,0.63c7.04,2.77,14.18,5.27,21.18,8.15c0.38,2.51-3.41,2.47-5.05,2.13
	C313.28,96.76,304.18,93.53,295.46,89.47z"/>
<path d="M130.98,93.58c3.62,0.27,7.26,0.2,10.88,0.36c1.05-0.03,1.75,0.91,2.58,1.41l-0.73,0.89
	C139.46,95.34,135.28,94.17,130.98,93.58z"/>
<path d="M22.05,135.04c-0.92-4.22-0.59-9.31,2.94-12.28c6.04,0.08,11.11,4.12,14.66,8.67c4.7,6.91,8.8,14.23,12.23,21.85
	c1.68,3.67,2.99,7.66,5.87,10.62c1.58,1.7,2.84,3.66,3.73,5.8c0.45,0.24,1.36,0.7,1.81,0.94c1.92,11,2.99,22.33,0.97,33.39
	c-1.02,7.92-5.28,15.62-11.97,20.08l-0.61-0.32c-0.17-0.08-0.5-0.25-0.67-0.34l-0.94-0.43c-0.15-0.08-0.45-0.24-0.6-0.32
	c-0.54-0.39-1.61-1.17-2.15-1.56c-0.17-1.44-0.97-2.24-2.39-2.41l-0.55-1.1c-0.07-0.15-0.21-0.45-0.28-0.6l-0.49-1.07
	c-0.11-0.24-0.34-0.7-0.45-0.93l-0.47-0.95c-0.12-0.24-0.37-0.73-0.49-0.97l-0.47-0.95c-0.12-0.22-0.35-0.67-0.47-0.89l-0.54-0.98
	c-0.12-0.22-0.38-0.65-0.51-0.86l-0.16-1.2c-0.25-0.56-0.73-1.7-0.97-2.27l-0.64-1.2c-0.03-0.07-0.1-0.21-0.13-0.28
	c-0.19-0.63-0.58-1.89-0.77-2.52c-0.06-0.17-0.19-0.5-0.25-0.67c-0.2-0.6-0.62-1.78-0.83-2.37c-0.05-0.16-0.17-0.46-0.23-0.61
	c-0.03-0.55-0.09-1.66-0.12-2.21c-0.31-0.51-0.92-1.51-1.23-2.02c0.06-0.48,0.18-1.45,0.23-1.93c0.44-1.49-0.08-3.03-1.12-4.12
	c0.03-0.48,0.08-1.43,0.1-1.91c0.38-1.4,0-2.44-1.16-3.1c0.04-1.25,0.04-2.5,0.01-3.75c0.22-3.24-0.13-6.47-0.85-9.63
	c-0.22-5.86-0.34-11.73-0.19-17.6c-0.32-1.46-0.92-1.47-1.8-0.03l-0.92-0.26C26.33,146.4,23.44,140.97,22.05,135.04z M25.55,127.32
	c-0.04,1.3-0.09,2.59-0.15,3.89c1.68-0.3,1.9-2.21,2.63-3.47C27.41,127.64,26.17,127.43,25.55,127.32z M38.01,142.15
	c-1.5,3.59-2.2,7.46-2.18,11.35c-0.98,12.05,0.37,24.2,2.89,35.99c0.92,3.94,1.75,8.19,4.49,11.33c2.23,2.35,6.7,4.05,8.86,0.65
	c0.59-1.72,1.26-3.44,1.5-5.26c2.66-11.3,0.34-22.93-1.52-34.16c-0.93-7.11-3.32-14.4-8.44-19.61
	C42.17,140.53,39.87,141.9,38.01,142.15z"/>
<path d="M108.48,136.75c10.37-4.45,19.12,13.01,10.59,19.5c-3.99,2.97-9.3-0.1-11.66-3.72
	C104.16,147.99,103.31,140.21,108.48,136.75z"/>
<path d="M647.51,159.42c2.13-4.3,7.28-6.6,11.94-5.73c1.38,0.84,3.17,1.51,3.6,3.27c2.02,6.27,0.21,12.86,0.34,19.27
	c-0.98,0.02-1.94,0.04-2.9,0.07c0.91-6.07,2.36-13.58-1.92-18.71c-4.1-2.3-8.24,1.67-11.65,3.57L647.51,159.42z"/>
<path d="M616.68,164.35c1.91-3.49,5.83-6.24,9.95-5.65c2.04,1.04,4.02,2.53,4.66,4.85c1.71,5.89,1.03,12.17,0.09,18.14
	c-0.7,0.08-2.09,0.24-2.79,0.32c0.94-4.88,1.92-9.93,0.89-14.88c-0.54-2.34-1.83-5.02-4.46-5.47c-3.96-0.14-6.88,2.95-9.78,5.16
	C615.6,166.2,616.32,164.97,616.68,164.35z"/>
<path d="M547.09,185.22c17.63-5.16,35.18-10.64,52.77-15.95c1.42-0.43,2.88-0.68,4.38-0.75c-0.28,4.59,1.15,9.71-0.84,13.96
	c-7.52,3.55-15.64,5.79-23.39,8.85c-10.66,3.79-21.23,7.86-31.94,11.51c-21.61,1.79-43.29,2.86-64.94,4.18
	c-18.72,1.16-37.46,2.07-56.22,1.79c-2.14,0.33-2.65-2.07-2.51-3.66c0.06-4-0.7-8.15,0.61-12.02c14.9-1.48,29.9-1.94,44.84-3.01
	C495.59,188.45,521.37,187.07,547.09,185.22z"/>
<path d="M71.99,175.2c38.25,20.33,76.55,40.59,114.82,60.9c1.76,1.23,3.78,1.33,5.63,0.23c-2.09-5.18-4.87-10.15-5.85-15.71
	c-0.97-5.81-1.4-11.81-0.36-17.64c0.88-4.24,2.67-8.99,7.1-10.58c4.94-0.36,9.95-0.27,14.75,1.04c9.52,2.48,19.15,6.25,26.17,13.39
	c6.47,6.51,10.04,15.18,13.27,23.62c4.77,12.96,9.31,26.07,15.7,38.36c3.89,7.72,8.37,15.49,15.27,20.92
	c-0.38,0.29-1.15,0.87-1.53,1.16c0.04,0.45,0.12,1.34,0.16,1.78c0.19,2.13,0.25,4.28,0.14,6.42c-0.9,12.64-1.85,25.56-6.74,37.4
	c-3.34,8.37-10.13,14.83-17.39,19.9c-1.95,1.55-4.49,1.71-6.87,1.85c-0.49-0.04-1.49-0.12-1.98-0.16c-0.73-1.28-1.79-1.67-3.2-1.18
	l-1.06,0.18c-0.57-0.22-1.7-0.66-2.27-0.88l-1.37-0.56c-0.15-0.07-0.44-0.21-0.59-0.29l-0.93-0.49c-0.19-0.09-0.56-0.29-0.75-0.39
	l-0.83-0.42l-0.5-0.42h-0.59c-0.42-0.43-1.26-1.29-1.69-1.72c-0.49-1.26-1.41-1.87-2.77-1.82c-0.71-0.57-1.41-1.14-2.12-1.7
	c-2.29-2.95-4.95-5.57-7.83-7.94c-0.21-0.28-0.62-0.84-0.82-1.12c0.05-1.38-0.56-2.3-1.83-2.77c-0.42-0.45-1.27-1.35-1.7-1.81
	l-0.17-0.21l-0.19-0.4l-0.45-1.08l-0.17-0.51l-0.31-0.43l-0.59-1.15c-0.11-0.24-0.35-0.73-0.47-0.97l-0.46-0.98
	c-0.1-0.21-0.3-0.61-0.4-0.82l-0.51-0.97c-0.08-0.15-0.23-0.45-0.31-0.6l-0.89-1.81c-0.05-0.1-0.14-0.32-0.19-0.42
	c-0.18-0.6-0.54-1.79-0.72-2.39c-0.09-0.2-0.25-0.61-0.34-0.81c-0.21-0.58-0.64-1.72-0.86-2.3c-0.04-0.13-0.13-0.39-0.18-0.52
	c-0.03-0.56-0.07-1.67-0.1-2.23c-0.3-0.51-0.9-1.51-1.2-2.02l0.1-0.87c0.46-1.33,0.13-2.43-1-3.28l-0.05-0.73
	c0.49-1.36,0.14-2.46-1.03-3.29c0.03-0.45,0.1-1.33,0.14-1.78c-0.29-0.52-0.88-1.57-1.17-2.09c0.05-0.73,0.14-2.19,0.18-2.92
	c0.38-1.5-0.03-3.05-1.09-4.17c0.04-0.47,0.1-1.41,0.13-1.88c0.23-1.44,0.34-3.31-1.09-4.17c-0.01-1.71-0.16-3.41-0.48-5.08
	l-0.03-0.15l-0.17-0.1l-1.68-0.9l-0.15-0.07l-0.12-0.1c-0.67-0.43-2-1.29-2.67-1.73c-0.19-0.12-0.58-0.35-0.77-0.47l-0.9-0.53
	l-0.39-0.29l-0.41-0.18c-0.63-0.38-1.88-1.13-2.51-1.5c-0.12-0.09-0.35-0.27-0.47-0.37l-0.69-0.54c-0.39-1.42-1.3-2.08-2.74-1.97
	l-1.29-0.33c-0.03-0.01-0.09-0.04-0.12-0.05c-0.69-0.44-2.07-1.32-2.75-1.76c-0.16-0.1-0.48-0.29-0.64-0.38l-0.87-0.49l-0.47-0.33
	l-0.47-0.08c-0.62-0.44-1.87-1.32-2.49-1.77l-0.36-0.32l-0.59-0.15l-0.88-0.56l-0.32-0.23l-0.32-0.17c-0.66-0.4-1.99-1.19-2.65-1.59
	l-0.11-0.1l-0.14-0.07c-0.68-0.44-2.02-1.33-2.7-1.78c-0.15-0.09-0.46-0.28-0.62-0.37l-0.87-0.49l-0.46-0.31l-0.43-0.11
	c-0.66-0.44-1.96-1.3-2.62-1.73c-0.16-0.1-0.48-0.28-0.65-0.38l-0.94-0.49c-0.15-0.08-0.44-0.25-0.59-0.33
	c-0.69-0.45-2.08-1.33-2.77-1.77c-0.2-0.12-0.58-0.36-0.77-0.48l-0.88-0.53l-0.38-0.29l-0.41-0.18c-0.64-0.38-1.93-1.15-2.57-1.54
	l-0.2-0.15l-0.23-0.14c-0.65-0.42-1.94-1.26-2.58-1.68c-0.17-0.1-0.51-0.3-0.68-0.39l-0.99-0.53l-0.4-0.22l-0.26-0.15
	c-0.67-0.44-2.02-1.32-2.69-1.76c-0.17-0.09-0.51-0.28-0.67-0.37l-0.98-0.5c-0.15-0.09-0.44-0.25-0.59-0.33
	c-0.68-0.44-2.04-1.32-2.72-1.76c-0.17-0.11-0.52-0.33-0.69-0.43l-0.98-0.6l-0.33-0.2l-0.22-0.13c-0.68-0.41-2.05-1.23-2.73-1.64
	c-0.13-0.08-0.38-0.26-0.51-0.34l-0.65-0.48c-0.43-1.44-1.4-2.13-2.89-2.06l-0.85-0.25c-0.18-0.07-0.53-0.2-0.7-0.27l-0.6-0.26
	c-0.3-1.5-1.2-2.23-2.68-2.18l-1.34-0.35c-0.03-0.01-0.09-0.04-0.13-0.05c-0.69-0.44-2.07-1.32-2.76-1.76
	c-0.15-0.1-0.45-0.28-0.6-0.38l-0.83-0.49l-0.47-0.35l-0.48-0.08c-0.65-0.44-1.95-1.3-2.6-1.73c-0.16-0.11-0.48-0.31-0.65-0.41
	l-0.92-0.58l-0.33-0.21l-0.24-0.13c-0.68-0.41-2.05-1.22-2.74-1.62c-0.15-0.1-0.45-0.31-0.6-0.41l-0.54-0.37
	c-0.43-1.38-1.35-2.07-2.75-2.07l-1.37-0.36c-0.03-0.01-0.09-0.03-0.12-0.05c-0.69-0.44-2.07-1.32-2.77-1.76
	c-0.15-0.1-0.47-0.3-0.63-0.4l-0.9-0.56l-0.33-0.21l-0.22-0.13c-0.56-0.33-1.66-1-2.21-1.33c-0.23-0.02-0.68-0.05-0.9-0.06
	c-4.32-0.35-8.68-0.16-12.9,0.83c-1.66,0.06-3.32,0.11-4.98,0.18c2.86-2.65,5.82-5.46,7.21-9.21c1.9-5.04,2.74-10.48,2.8-15.86
	c0.18-2.16-1.26-3.93-2.13-5.78l1.46,0.39c17.6,12.13,35.93,23.11,54.07,34.4c17.35,10.83,34.83,21.45,52.36,31.99
	c-0.01-2.57-0.03-5.13-0.09-7.69c-38.8-22.11-77.56-44.3-116.24-66.62C77.76,182.53,72.8,180.16,71.99,175.2z M215.37,224.39
	c-0.91,2.03-0.79,4.33-1.08,6.5c2.86-2.16,5.9-4.81,9.69-4.86c5.64,0.1,9.86,4.7,15.26,5.54c-0.24-1.91-0.2-3.93-1.02-5.71
	c-2.58-2.75-5.71-5.1-9.21-6.51C224.08,218.2,218.03,219.8,215.37,224.39z M205.28,229.34c-3.11,3.08-3.53,8.35-1.29,12.05
	c3.06-0.63,3.28-3.91,4.17-6.35c0.44-1.71,1.57-3.81,0.1-5.34C207.29,229.27,206.3,229.15,205.28,229.34z M221.39,233.53
	c-7.82,4.59-10.59,14.11-11.46,22.59c-2.83,21.17-2.73,44.3,8.85,63.05c3.41,4.11,8.13,7.18,13.19,8.84
	c4.89,1.72,10.64-0.15,13.59-4.4c4.73-6.52,6.14-14.76,7.15-22.57l-0.15-0.27c1.8-12.72,1.8-25.96-1.31-38.49
	c-0.33-1.98-1.08-3.85-1.71-5.74c-2.61-8.81-8.08-17.17-16.12-21.9C229.85,232.65,225.14,231.1,221.39,233.53z M237.87,334.52
	c-2.57,0.07-5.19,1.05-6.26,3.58c-0.54,2.95,3.14,3.79,5.36,3.57c6.65-1.21,13.29-5.25,15.92-11.69c1.05-2.05-1.09-3.35-2.29-4.58
	C247.33,329.49,243.45,334,237.87,334.52z M222.38,328.37c-1.01,1.68-2.58,3.47-2.04,5.61c1.23,3.29,4.3,5.36,7.58,6.27
	c1.83-1.59,1.86-3.88,1.51-6.11C226.4,333.14,224.2,330.88,222.38,328.37z"/>
<path d="M648.94,187.64c3.86-0.23,6.56-3.33,9.4-5.59l0.88,0.25c-2.07,2.73-4.14,5.62-7.22,7.28c-2.9,0.23-5.46-1.14-7.49-3.08
	C645.97,186.92,647.41,187.39,648.94,187.64z"/>
<path d="M620.36,192.41c3.01-1.25,4.49-5.74,8.28-4.56c-2.38,3.13-5.28,6.93-9.53,7.2c-2.22-0.38-4.63-1.01-6-2.95
	c-0.05-0.23-0.15-0.7-0.2-0.94C615.18,192.24,617.87,194.04,620.36,192.41z"/>
<path d="M384.41,195.77c5.97-3.28,13.18-3.84,19.82-2.75c0.62,0.14,1.87,0.4,2.5,0.53c-0.75,0.51-2.24,1.53-2.99,2.04
	c1.9,2.29,4.22,4.44,5.1,7.37c1.39,4.63,0.96,9.53,0.71,14.28c-1.41-6.61-1.94-14.65-7.79-19.03c-7.85-4.13-16.86-0.36-24.12,3.32
	C379.7,199.39,381.97,197.46,384.41,195.77z"/>
<path d="M548.49,214.46c16.56-5.68,33.03-11.65,49.56-17.44c1.34-0.52,2.71-0.61,4.13-0.26c0.2,3.76,0.28,7.55-0.14,11.3
	c-0.54,1.57-2.27,2.03-3.62,2.62c-16.02,5.98-32.01,12.04-48.01,18.05c-4.34,1.25-8.91,1.25-13.34,1.96
	c-36.88,4.25-73.87,9.04-111.06,8.72c-2.88,0.18-2.15-3.5-2.38-5.32c0.21-3.21-0.95-6.76,0.47-9.73c1.92-0.58,3.96-0.16,5.93-0.16
	c17.01,0.94,33.96-1.21,50.89-2.41C503.47,219.64,526.03,217.35,548.49,214.46z"/>
<path d="M329.82,207.84c7.75-6.8,18.5-9.01,28.56-7.97c0.46,0.12,1.39,0.36,1.85,0.48c-0.79,0.64-2.37,1.93-3.16,2.57
	c5.61,5.51,5.51,13.79,4.81,21.05c-1.1-6.78-2.41-15.15-9.09-18.74C345.25,201.72,337.01,205.11,329.82,207.84z"/>
<path d="M598.1,218.34c3.35-1.03,5.15-4.21,7.04-6.9c0.21,3.36-1.78,6.52-4.91,7.74c-13.76,5.68-27.56,11.29-41.34,16.96
	c-3.51,1.39-6.93,3.27-10.76,3.56c-38.36,3.71-76.72,7.52-115.08,11.25c-3.82,0.21-7.8-0.03-11.32-1.6
	c-2.36-0.91-2.4-3.76-2.98-5.81l0.52-0.05c0.92,2.12,2.12,4.37,4.71,4.62c7.23,1.26,14.62,0,21.9-0.17
	c34.1-2.58,68.06-6.73,102.03-10.53c3.63-0.29,6.9-1.99,10.24-3.27C571.47,228.87,584.78,223.58,598.1,218.34z"/>
<path d="M645.34,219.07c2.65-0.14,5.3-0.42,7.95-0.66c-1.17,6.17-4.35,12.14-9.82,15.5c-0.46-1.8-0.85-3.6-1.2-5.41
	C644.33,225.77,646.87,222.68,645.34,219.07z"/>
<path d="M378.85,227.35c3.25,2.63,6.64,5.82,11.08,5.92c4.76,0.09,8.8-2.75,12.7-5.09c-1.85,2.95-4.2,5.59-7.23,7.35
	c-3.5,1.51-7.79,1.81-11.28,0.14C381.25,233.73,379.79,230.56,378.85,227.35z"/>
<path d="M339.16,243.65c-3.77-1.49-6.28-4.73-8.11-8.2c3.16,2.57,6.59,5.59,10.94,5.52c4.91-0.08,9.11-2.91,13.39-4.98
	c-2.95,3.3-6.49,6.12-10.69,7.63C342.86,243.94,340.99,243.88,339.16,243.65z"/>
<path d="M376.44,273.26c4.49-0.83,8.97-1.7,13.45-2.54c0.64,5.57,0.47,11.3-1.48,16.61c-4.47,1.3-9.04,2.18-13.6,3.06
	c2-1.56,3.9-3.41,4.49-5.97c0.84-4.13,4.99-6.31,6.03-10.34C382.37,273.74,379.41,273.39,376.44,273.26z"/>
<path fill="#30302F" d="M367.21,16.5c4.13-0.22,8.27-0.42,12.41-0.43c19.21,18.13,35.3,39.17,52.11,59.47
	c-5.26,1.85-10.85,1.99-16.3,2.82c-5.19,2.11-10.92,1.54-16.33,0.81c6.73-1.29,13.4-2.87,20.1-4.31c-2-2.83-4.49-5.24-7.11-7.49
	c-10.26-10.88-20.73-21.56-30.58-32.81c-2.87-2.96-5.31-6.35-8.46-9.02c-15.83,1-31.66,2.31-47.46,3.73
	c-0.84,0.07-1.68,0.13-2.51,0.18c-8.52,0.52-17.04,1.15-25.52,2.02c-1.38-1.79-2.34-4.35-0.47-6.19c3.26-2.89,7.97-2.15,11.99-2.53
	c19.54-1.24,39.11-2.12,58.63-3.59C367.59,18.49,367.33,17.16,367.21,16.5z"/>
<path fill="#30302F" d="M239.94,26.04c6.78,0.36,13.44-1.84,20.24-0.84c-1.74,3.37-3.76,6.58-5.59,9.9l-0.71-0.03
	c-5.29-0.22-10.57-0.71-15.87-0.5c-15.01,0.53-30.03,0.88-45.03,1.63c-3.73,0.24-7.67,0.03-11.13,1.66
	c-2.7,1.24-4.19,3.95-5.62,6.39c-0.87-4.86-0.71-9.85-0.08-14.73c15.3-0.65,30.6-1.49,45.87-2.48
	C228.03,27.43,233.93,25.81,239.94,26.04z"/>
<path fill="#30302F" d="M159.67,25.71c0.17,9.06,0.12,18.13,0.24,27.19c-12.97,0.61-25.93,1.21-38.88,2.07
	c-4.96,0.27-10.08-0.19-14.82,1.6c2.01-8.34,4.35-16.65,5.53-25.15c1.95-0.91,4.03-1.56,6.21-1.43c13.75,0.1,27.5,0.05,41.26,0.04
	C159.36,28.59,159.52,27.15,159.67,25.71z"/>
<path fill="#30302F" d="M89.69,44.69c3.56-6.36,10.26-10.76,17.46-11.75c-1.64,7.67-3.12,15.37-4.84,23.02
	c-5.69,0.47-11.36,1.4-17.09,1.19C86.25,52.85,87.43,48.53,89.69,44.69z"/>
<path fill="#30302F" d="M478.06,84.92c1.73-0.25,3.53-0.01,4.95,1.09C481.27,86.87,479.16,86.61,478.06,84.92z"/>
<path fill="#30302F" d="M30.1,152.01c0.88-1.44,1.48-1.43,1.8,0.03C31.45,152.03,30.55,152.02,30.1,152.01z"/>
<path fill="#30302F" d="M32.09,169.64c0.72,3.16,1.07,6.39,0.85,9.63C31.51,176.25,32.06,172.86,32.09,169.64z"/>
<path fill="#30302F" d="M63.29,170.64c2.91,1.5,5.84,2.95,8.7,4.56c0.81,4.96,5.77,7.33,9.05,10.57c2.99,3.01,6.44,5.48,9.9,7.92
	l-1.46-0.39c0.87,1.85,2.31,3.62,2.13,5.78c-0.06,5.38-0.9,10.82-2.8,15.86c-1.39,3.75-4.35,6.56-7.21,9.21
	c-7.33,2.71-15.33,1.9-22.99,1.76c-1.65-0.94-3.57-0.85-5.39-0.98l-0.93-0.82c6.69-4.46,10.95-12.16,11.97-20.08
	C66.28,192.97,65.21,181.64,63.29,170.64z"/>
<path fill="#30302F" d="M32.93,183.02c1.16,0.66,1.54,1.7,1.16,3.1C32.85,185.54,32.46,184.5,32.93,183.02z"/>
<path fill="#30302F" d="M33.99,188.03c1.04,1.09,1.56,2.63,1.12,4.12C33.26,191.73,33.79,189.38,33.99,188.03z"/>
<path fill="#30302F" d="M34.88,194.08c0.31,0.51,0.92,1.51,1.23,2.02l-0.83-0.21C35.18,195.44,34.98,194.54,34.88,194.08z"/>
<path fill="#30302F" d="M36.23,198.31c0.06,0.15,0.18,0.45,0.23,0.61l-0.21-0.29L36.23,198.31z"/>
<path fill="#30302F" d="M37.29,201.29c0.06,0.17,0.19,0.5,0.25,0.67l-0.14-0.29L37.29,201.29z"/>
<path fill="#30302F" d="M38.31,204.48c0.03,0.07,0.1,0.21,0.13,0.28l-0.07-0.16L38.31,204.48z"/>
<path fill="#30302F" d="M39.08,205.96c0.24,0.57,0.72,1.71,0.97,2.27C39.8,207.67,39.32,206.53,39.08,205.96z"/>
<path fill="#30302F" d="M40.21,209.43c0.13,0.21,0.39,0.64,0.51,0.86l-0.45-0.4L40.21,209.43z"/>
<path fill="#30302F" d="M41.26,211.27c0.12,0.22,0.35,0.67,0.47,0.89C41.61,211.94,41.38,211.49,41.26,211.27z"/>
<path fill="#30302F" d="M42.2,213.11c0.12,0.24,0.37,0.73,0.49,0.97C42.57,213.84,42.32,213.35,42.2,213.11z"/>
<path fill="#30302F" d="M43.16,215.03c0.11,0.23,0.34,0.69,0.45,0.93C43.5,215.72,43.27,215.26,43.16,215.03z"/>
<path fill="#30302F" d="M44.1,217.03c0.07,0.15,0.21,0.45,0.28,0.6l-0.12-0.24L44.1,217.03z"/>
<path fill="#30302F" d="M44.93,218.73c1.42,0.17,2.22,0.97,2.39,2.41C45.9,220.94,45.1,220.13,44.93,218.73z"/>
<path fill="#30302F" d="M620.22,224.38c8.02-3.21,16.61-4.33,25.12-5.31c1.53,3.61-1.01,6.7-3.07,9.43c0.35,1.81,0.74,3.61,1.2,5.41
	c-7.86,3.87-16.81,4.44-25.39,5.14C618.89,234.17,619.38,229.25,620.22,224.38z"/>
<path fill="#30302F" d="M49.47,222.7c0.15,0.08,0.45,0.24,0.6,0.32l-0.38-0.15L49.47,222.7z"/>
<path fill="#30302F" d="M51.01,223.45c0.17,0.09,0.5,0.26,0.67,0.34C51.51,223.71,51.18,223.54,51.01,223.45z"/>
<path fill="#30302F" d="M86.58,223.97c4.22-0.99,8.58-1.18,12.9-0.83C95.23,224.03,90.9,224.26,86.58,223.97z"/>
<path fill="#30302F" d="M104.04,225.43c0.16,0.1,0.48,0.3,0.63,0.4l-0.31-0.17L104.04,225.43z"/>
<path fill="#30302F" d="M107.44,227.59c0.03,0.02,0.09,0.04,0.12,0.05C107.53,227.63,107.47,227.61,107.44,227.59z"/>
<path fill="#30302F" d="M108.93,228c1.4,0,2.32,0.69,2.75,2.07C110.14,230.03,109.22,229.34,108.93,228z"/>
<path fill="#30302F" d="M112.22,230.44c0.15,0.1,0.45,0.31,0.6,0.41l-0.35-0.17L112.22,230.44z"/>
<path fill="#30302F" d="M117.05,233.39c0.17,0.1,0.49,0.3,0.65,0.41l-0.32-0.18L117.05,233.39z"/>
<path fill="#30302F" d="M122.08,236.45c0.15,0.1,0.45,0.28,0.6,0.38l-0.3-0.17L122.08,236.45z"/>
<path fill="#30302F" d="M125.44,238.59c0.04,0.01,0.1,0.04,0.13,0.05C125.54,238.63,125.48,238.6,125.44,238.59z"/>
<path fill="#30302F" d="M126.91,238.99c1.48-0.05,2.38,0.68,2.68,2.18C128.14,240.98,127.25,240.25,126.91,238.99z"/>
<path fill="#30302F" d="M130.19,241.43c0.17,0.07,0.52,0.2,0.7,0.27C130.71,241.63,130.36,241.5,130.19,241.43z"/>
<path fill="#30302F" d="M131.74,241.95c1.49-0.07,2.46,0.62,2.89,2.06C133.16,243.94,132.19,243.25,131.74,241.95z"/>
<path fill="#30302F" d="M135.28,244.49c0.13,0.08,0.38,0.26,0.51,0.34l-0.3-0.15L135.28,244.49z"/>
<path fill="#30302F" d="M140.05,247.4c0.17,0.1,0.52,0.32,0.69,0.43l-0.34-0.18L140.05,247.4z"/>
<path fill="#30302F" d="M145.03,250.42c0.16,0.09,0.5,0.28,0.67,0.37l-0.33-0.16L145.03,250.42z"/>
<path fill="#30302F" d="M603.02,252.19c1.59-0.96,3.42-1.19,5.25-1.12l0.16,0.74c7.18,1.88,14.17,4.58,20.95,7.59l0.27,0.15
	l0.4,0.19l1.03,0.54c0.22,0.11,0.67,0.35,0.89,0.47l1.07,0.53l0.36,0.18l0.25,0.11l1.86,0.89c0.18,0.09,0.52,0.27,0.69,0.36
	l0.88,0.51c0.14,0.08,0.44,0.26,0.58,0.34c0.67,0.4,2,1.2,2.66,1.6l0.25,0.17l0.28,0.15c2.94,1.53,6,3.45,6.78,6.95l0.09,0.23
	l0.15,0.35l0.42,1.03c0.1,0.23,0.32,0.68,0.42,0.91l0.44,0.96c0.12,0.18,0.37,0.56,0.5,0.75c0.37,0.39,1.11,1.18,1.48,1.58
	l0.24,0.27l0.39,0.14c0.44,0.19,1.32,0.55,1.76,0.74c0.17,0.39,0.51,1.19,0.67,1.59c0.09,0.52,0.27,1.55,0.35,2.07
	c-0.94,0.76-1.89,1.51-2.84,2.26l-0.32,0.18l-0.34,0.23l-0.98,0.53c-0.17,0.09-0.53,0.26-0.7,0.35c-0.69,0.21-2.06,0.62-2.75,0.82
	c-0.1,0.04-0.3,0.11-0.4,0.14c-2.26,0.64-4.49,1.33-6.71,2.06c-0.65,0.21-1.95,0.62-2.6,0.82c-0.16,0.06-0.46,0.18-0.61,0.23
	c-0.6,0.22-1.81,0.64-2.41,0.86c-0.13,0.04-0.37,0.11-0.5,0.15c-0.54,0.08-1.63,0.23-2.17,0.3c-0.57,0.24-1.7,0.71-2.27,0.94
	c-1.81,0.58-3.63,1.15-5.43,1.73c-0.64,0.19-1.93,0.58-2.57,0.77c-0.18,0.07-0.55,0.22-0.74,0.29c-0.56,0.18-1.67,0.55-2.23,0.73
	c-0.16,0.06-0.48,0.19-0.63,0.25c-0.43,0.13-1.28,0.4-1.71,0.54c-1.3,0.41-2.61,0.78-3.91,1.13l-0.33,0.08l-0.26,0.13
	c-2.22,0.68-4.42,1.39-6.63,2.08c-0.7,0.2-2.09,0.6-2.79,0.81l-0.18,0.05l-0.04,0.18c-0.15,0.76-0.46,2.29-0.62,3.06
	c-0.54,0.39-1.64,1.16-2.18,1.55l-0.31,0.18l-0.33,0.24l-0.94,0.59c-0.14,0.08-0.43,0.25-0.57,0.33c-1.62,0.87-3.22,1.77-4.76,2.75
	c-0.14,0.08-0.43,0.25-0.57,0.34c-1.49,0.85-3,1.66-4.47,2.52l-0.3,0.14l-0.22,0.2c-0.57,0.43-1.69,1.29-2.25,1.73
	c0.03,1.51,0.05,3.04,0.1,4.56c-1.73,0.91-3.46,1.81-5.23,2.6c-0.2,0.09-0.6,0.27-0.8,0.35l-1.03,0.38l-0.49,0.16l-0.34,0.19
	c-0.4,0.17-1.22,0.52-1.62,0.69c-0.67,0.3-2.02,0.88-2.69,1.18c-0.19,0.08-0.56,0.25-0.75,0.34l-1.1,0.46l-0.39,0.16l-0.24,0.11
	c-1.52,0.63-3.02,1.3-4.53,1.94c-0.13,0.06-0.4,0.18-0.53,0.24c-0.43,0.14-1.28,0.41-1.71,0.54c-0.69,0.31-2.06,0.92-2.74,1.22
	c-0.14,0.06-0.42,0.19-0.57,0.25c-0.41,0.15-1.25,0.43-1.67,0.57c-0.73,0.28-2.18,0.83-2.91,1.11l-0.29,0.09l-0.25,0.14
	c-0.59,0.23-1.77,0.69-2.36,0.92c-0.09,0.03-0.27,0.11-0.36,0.14c-0.46,0.15-1.37,0.45-1.83,0.59c-0.74,0.27-2.23,0.79-2.98,1.05
	l-0.32,0.1l-0.27,0.15c-0.54,0.22-1.62,0.66-2.16,0.88c-0.15,0.07-0.46,0.22-0.62,0.29c-0.62,0.2-1.87,0.6-2.49,0.8
	c-0.08,0.03-0.23,0.09-0.31,0.11c-0.47,0.15-1.41,0.46-1.88,0.61c-2.55,0.8-5.13,1.5-7.69,2.25c-0.15,0.05-0.46,0.15-0.62,0.2
	c-5.02,1.13-9.89,3.05-15.06,3.35c-0.55,0.25-1.65,0.75-2.2,1c-1.52-0.09-3.03-0.21-4.52-0.33c-0.08-0.04-0.23-0.1-0.3-0.14
	c-1.84-1.49-3.95-2.7-6.37-2.83c-0.56,0.44-1.68,1.31-2.25,1.75l-0.24,0.17l-0.4,0.21l-0.98,0.51c-0.17,0.09-0.51,0.27-0.68,0.36
	c-2.01,0.97-3.96,2.69-6.35,2.22c-3.01-0.43-5.99-1.09-9.04-1.12c-1.84-1.04-3.94-1.53-6.01-1.01c-2.44,0.12-4.89,0.15-7.28,0.65
	c-4.6,1.03-9.37-0.08-13.97,0.98c-4.33,0.97-8.8,0.04-13.14,0.96c-4.25,0.9-8.61,0.37-12.91,0.65c-2.98,0.12-5.95,0.42-8.89,0.86
	c-1.09,0.16-2.16,0.36-3.22,0.6c-0.99,0.38-1.98,0.77-2.96,1.16c-4.02,1.28-8.02,2.62-12.02,3.97c-1,0.32-2,0.65-2.99,1
	c-2.02,0.65-4.03,1.32-6.04,2.01c-7.61,2.57-15.19,5.26-22.84,7.71l-0.33,0.1l-0.24,0.12c-0.62,0.23-1.86,0.68-2.48,0.91
	c-0.08,0.03-0.25,0.09-0.33,0.12c-0.7,0.18-2.08,0.55-2.78,0.74l-0.13,0.03l-0.15,0.06c-0.64,0.24-1.91,0.7-2.55,0.94
	c-0.12,0.05-0.37,0.15-0.49,0.2c-1.4,0.43-2.8,0.88-4.19,1.35h-8.92c-0.91-0.33-2.73-0.98-3.64-1.3c-0.14-0.08-0.41-0.25-0.55-0.33
	l-0.93-0.59l-0.33-0.25l-0.34-0.17c-2.15-1.23-4.32-2.38-6.48-3.58c-0.14-0.08-0.42-0.24-0.56-0.33c-2.2-1.36-4.47-2.62-6.78-3.78
	c-0.18-0.11-0.53-0.32-0.71-0.42l-0.81-0.51c-0.13-0.08-0.39-0.24-0.53-0.32c-1.62-0.98-3.29-1.88-4.96-2.75
	c-0.15-0.09-0.46-0.26-0.61-0.35l-0.9-0.55c-0.17-0.11-0.51-0.32-0.68-0.42l-0.69-0.43c-0.65-1.29-3.06-1.74-3.28,0.07
	c-1.99-0.06-4.06-0.14-5.88,0.8c-2.35,0.18-4.77,0.06-7,0.93c-2.01,0.21-4.05,0.32-5.97,0.97c-6.81,0.89-13.47,2.87-20.4,2.34
	c-6.38,1.32-12.9,1.11-19.38,0.83c-2.93-1.53-6.43-0.22-9.38-1.68c2.38-0.14,4.92-0.3,6.87-1.85c7.26-5.07,14.05-11.53,17.39-19.9
	c4.89-11.84,5.84-24.76,6.74-37.4c0.11-2.14,0.05-4.29-0.14-6.42c8.88,4.84,18.12,9.01,27.57,12.59c6.82,2.72,14.05,4.48,21.39,4.88
	c1.62,0.43,2.75-0.76,3.85-1.73c30.68-0.04,60.56-7.85,90.6-13.04c23.7-3.41,47.7-3.8,71.49-6.35c22.19-2.45,43.82-8.55,64.71-16.27
	C572.53,266.76,588.1,260.12,603.02,252.19z"/>
<polygon fill="#30302F" points="148.39,252.55 148.65,252.7 149.05,252.92 148.65,252.73 "/>
<path fill="#30302F" d="M150.04,253.45c0.17,0.09,0.51,0.29,0.68,0.39C150.55,253.74,150.21,253.54,150.04,253.45z"/>
<polygon fill="#30302F" points="153.3,255.52 153.53,255.66 153.73,255.81 153.5,255.68 "/>
<path fill="#30302F" d="M157.97,258.35c0.19,0.12,0.57,0.36,0.77,0.48l-0.39-0.19L157.97,258.35z"/>
<path fill="#30302F" d="M163.04,261.42c0.17,0.1,0.49,0.28,0.65,0.38l-0.31-0.17L163.04,261.42z"/>
<polygon fill="#30302F" points="166.31,263.53 166.74,263.64 167.2,263.95 166.65,263.82 "/>
<path fill="#30302F" d="M168.07,264.44c0.16,0.09,0.47,0.28,0.62,0.37l-0.3-0.16L168.07,264.44z"/>
<polygon fill="#30302F" points="171.39,266.59 171.53,266.66 171.64,266.76 171.51,266.68 "/>
<path fill="#30302F" d="M174.29,268.35l0.32,0.17l0.32,0.23C174.77,268.65,174.45,268.45,174.29,268.35z"/>
<polygon fill="#30302F" points="175.81,269.31 176.4,269.46 176.76,269.78 176.28,269.7 "/>
<path fill="#30302F" d="M181.06,272.45c0.16,0.09,0.48,0.28,0.64,0.38l-0.31-0.17L181.06,272.45z"/>
<path fill="#30302F" d="M355.91,276.88c6.81-1.37,13.67-2.56,20.53-3.62c2.97,0.13,5.93,0.48,8.89,0.82
	c-1.04,4.03-5.19,6.21-6.03,10.34c-0.59,2.56-2.49,4.41-4.49,5.97c-6.85,1.75-14.06,1.61-21.09,2.16
	C354.26,287.3,354.97,282.07,355.91,276.88z"/>
<path fill="#30302F" d="M184.45,274.59c0.03,0.01,0.09,0.04,0.12,0.05C184.54,274.63,184.48,274.6,184.45,274.59z"/>
<path fill="#30302F" d="M185.86,274.97c1.44-0.11,2.35,0.55,2.74,1.97C187.11,276.91,186.2,276.26,185.86,274.97z"/>
<path fill="#30302F" d="M189.29,277.48c0.12,0.1,0.35,0.28,0.47,0.37l-0.28-0.15L189.29,277.48z"/>
<path fill="#30302F" d="M193.97,280.35c0.19,0.12,0.58,0.35,0.77,0.47l-0.39-0.18L193.97,280.35z"/>
<path fill="#30302F" d="M199.36,283.62l0.17,0.1l0.03,0.15C199.51,283.81,199.41,283.68,199.36,283.62z"/>
<path fill="#30302F" d="M200.04,288.95c1.43,0.86,1.32,2.73,1.09,4.17C199.5,292.41,199.8,290.35,200.04,288.95z"/>
<path fill="#30302F" d="M201,295c1.06,1.12,1.47,2.67,1.09,4.17C200.23,298.72,200.78,296.36,201,295z"/>
<path fill="#30302F" d="M201.91,302.09c0.29,0.52,0.88,1.57,1.17,2.09C202.79,303.66,202.2,302.61,201.91,302.09z"/>
<path fill="#30302F" d="M202.94,305.96c1.17,0.83,1.52,1.93,1.03,3.29C202.82,308.45,202.48,307.35,202.94,305.96z"/>
<path fill="#30302F" d="M204.02,309.98c1.13,0.85,1.46,1.95,1,3.28C203.82,312.47,203.49,311.37,204.02,309.98z"/>
<path fill="#30302F" d="M204.92,314.13c0.3,0.51,0.9,1.51,1.2,2.02l-0.83-0.21C205.2,315.49,205.01,314.58,204.92,314.13z"/>
<path fill="#30302F" d="M206.22,318.38c0.05,0.13,0.14,0.39,0.18,0.52l-0.16-0.27L206.22,318.38z"/>
<path fill="#30302F" d="M207.26,321.2c0.09,0.2,0.25,0.61,0.34,0.81l-0.2-0.35L207.26,321.2z"/>
<path fill="#30302F" d="M208.32,324.4c0.05,0.1,0.14,0.32,0.19,0.42l-0.14-0.21L208.32,324.4z"/>
<path fill="#30302F" d="M209.4,326.63c0.08,0.15,0.23,0.45,0.31,0.6C209.63,327.08,209.48,326.78,209.4,326.63z"/>
<path fill="#30302F" d="M210.22,328.2c0.1,0.21,0.3,0.61,0.4,0.82C210.52,328.81,210.32,328.41,210.22,328.2z"/>
<path fill="#30302F" d="M211.08,330c0.12,0.24,0.36,0.73,0.47,0.97C211.44,330.73,211.2,330.24,211.08,330z"/>
<path fill="#30302F" d="M212.14,332.12l0.31,0.43l0.17,0.51C212.5,332.82,212.26,332.36,212.14,332.12z"/>
<polygon fill="#30302F" points="213.07,334.14 213.26,334.54 213.43,334.75 213.23,334.54 "/>
<path fill="#30302F" d="M215.13,336.56c1.27,0.47,1.88,1.39,1.83,2.77C215.48,338.88,214.87,337.95,215.13,336.56z"/>
<path fill="#30302F" d="M217.78,340.45c2.88,2.37,5.54,4.99,7.83,7.94C222.36,346.46,219.74,343.66,217.78,340.45z"/>
<path fill="#30302F" d="M227.73,350.09c1.36-0.05,2.28,0.56,2.77,1.82C229.1,352.19,228.17,351.58,227.73,350.09z"/>
<polygon fill="#30302F" points="232.19,353.63 232.78,353.63 233.28,354.05 232.59,354.04 "/>
<path fill="#30302F" d="M234.11,354.47c0.19,0.1,0.56,0.3,0.75,0.39C234.67,354.77,234.3,354.57,234.11,354.47z"/>
<path fill="#30302F" d="M235.79,355.35c0.15,0.08,0.44,0.22,0.59,0.29C236.23,355.57,235.94,355.43,235.79,355.35z"/>
<path fill="#30302F" d="M237.75,356.2c0.57,0.22,1.7,0.66,2.27,0.88C239.45,356.86,238.32,356.42,237.75,356.2z"/>
<path fill="#30302F" d="M241.08,356.9c1.41-0.49,2.47-0.1,3.2,1.18C242.92,358.43,241.86,358.04,241.08,356.9z"/>
<path fill="#676767" d="M325.59,29.27c15.8-1.42,31.63-2.73,47.46-3.73c3.15,2.67,5.59,6.06,8.46,9.02
	c9.85,11.25,20.32,21.93,30.58,32.81l1.03,1.08c-23.84,0.03-47.68,0-71.52,0.01C337.45,54.95,332.11,41.82,325.59,29.27z"/>
<path fill="#676767" d="M297.56,31.47c8.48-0.87,17-1.5,25.52-2.02c6.06,12.36,11.21,25.18,14.97,38.43
	c-8.67-2.58-17.14-6.09-24.61-11.25c-2.59-2.11-3.83-5.38-5.73-8.05c4.23-1.06,3.65-6.23,2.02-9.21c-2.17-2.73-5.97-2.44-9.08-2.87
	C299.64,34.81,298.61,33.13,297.56,31.47z"/>
<path fill="#CDCCCB" d="M107.15,32.94c1.58-0.35,3.09-0.94,4.59-1.52c-1.18,8.5-3.52,16.81-5.53,25.15
	c-2.05,10.06-4.14,20.11-6.23,30.17c-1.22-0.26-2.44-0.52-3.66-0.78c1.92-10.01,3.87-20.03,5.99-30
	C104.03,48.31,105.51,40.61,107.15,32.94z"/>
<path fill="#676767" d="M192.98,36.2c15-0.75,30.02-1.1,45.03-1.63c5.3-0.21,10.58,0.28,15.87,0.5c-2.29,4.49-5.32,8.55-8.56,12.4
	c-23.14,0.62-46.3,1.23-69.45,1.59c0.07-1.61,0.04-3.23,0.36-4.81c1.43-2.44,2.92-5.15,5.62-6.39
	C185.31,36.23,189.25,36.44,192.98,36.2z"/>
<path fill="#CDCCCB" d="M268.72,39.73c4.22-2.57,9.47-1.82,14.18-1.86c0.76,1.19,1.52,2.38,2.28,3.57
	c-4.32-0.28-8.81-0.44-12.98,0.93c-2.05,0.64-1.97,3.08-2.15,4.77C268.83,45.03,266.13,41.9,268.72,39.73z"/>
<path fill="#CDCCCB" d="M299.75,39.3c3.28-0.26,6.7,1.09,7.06,4.75C304.11,43.06,301.84,41.23,299.75,39.3z"/>
<path fill="#CDCCCB" d="M76.8,79.36c-4.81-10.22-2.82-22.48,3.04-31.83c-1.93,6.98-3.94,14.13-3.37,21.45
	c0.26,3.92,1.94,7.5,3.42,11.07l0.41,1.13C79.08,80.83,77.05,81.07,76.8,79.36z"/>
<path fill="#CDCCCB" d="M110.58,59.68c11.55-2.15,23.44-2.1,35.03-0.23c-5.61,3.1-12.24,3.28-18.49,3.5
	C121.51,62.89,115.41,62.97,110.58,59.68z"/>
<path fill="#CDCCCB" d="M149.66,65.16c-0.05-1.78,1.91-2.36,3.08-3.23c0.44,3.12,1.16,7.07-1.35,9.53
	C150.7,69.41,149.65,67.37,149.66,65.16z"/>
<path fill="#CDCCCB" d="M123.1,75.14c5.16-3.79,11.98-0.8,17.76-0.38c2.98,0.95,7.88-0.28,9.18,3.37c0.65,4.8-0.6,9.6-1.34,14.33
	c-0.69,0.2-2.07,0.6-2.77,0.8c0.55,1.16,1.1,2.32,1.65,3.49c-1.51,0.1-3.02,0.2-4.53,0.29l0.66-0.8l0.73-0.89
	c-0.83-0.5-1.53-1.44-2.58-1.41c-3.62-0.16-7.26-0.09-10.88-0.36c-0.25-0.14-0.77-0.42-1.02-0.56c-2.93-1.44-6.32-2.95-7.43-6.31
	C121.41,83.01,121.38,78.65,123.1,75.14z"/>
<path fill="#CDCCCB" d="M559.9,101.75c1.65-0.55,3.4-0.78,5.15-0.83c6.96,1.6,13.97,2.95,20.95,4.51c6.97,1.91,14.05,3.35,21.09,5
	c9.62,2.68,19.1,6.01,28.95,7.79c1.44,0.57,2.9,1.13,4.38,1.64l0.16,0.51c1.64,0.45,3.26,0.95,4.9,1.41l0.1,1.02
	c0.35-0.06,1.06-0.16,1.41-0.21c1.26,0.64,2.54,1.24,3.83,1.85c1.54,0.42,3.05,0.89,4.59,1.32c0.07,0.12,0.21,0.37,0.28,0.5
	c7.33,3.08,15.36,6.82,19.47,14.02c0.57,2.87,0.2,5.88,1.02,8.74c-0.03,10.84,3.59,22.08-0.29,32.61c-0.53-1.41-1.01-2.83-1.3-4.3
	c1.73-10.83-0.45-21.68-1.27-32.44c1.06-5.67-4.59-8.97-8.68-11.48c-12.07-6.76-25.23-11.35-38.4-15.45
	C604.38,111.55,582.2,106.31,559.9,101.75z"/>
<path fill="#CDCCCB" d="M24.99,122.76c4.45-2.8,9.89-0.16,13.46,2.89c8.61,7.66,12.32,18.92,16.77,29.19
	c1.27,2.88,2.71,5.82,2.53,9.06c-2.88-2.96-4.19-6.95-5.87-10.62c-3.43-7.62-7.53-14.94-12.23-21.85
	C36.1,126.88,31.03,122.84,24.99,122.76z"/>
<path fill="#CDCCCB" d="M610.53,136.64c0.37-1.26,0.76-2.53,1.14-3.79c0.23,1.29,0.47,2.59,0.71,3.88c1.08,0.76,2.14,1.51,3.22,2.29
	c-2.62,0.63-5.33,0.82-7.95,0.13C608.58,138.3,609.55,137.46,610.53,136.64z"/>
<path fill="#CDCCCB" d="M37.52,158.33c1.15-4.07,0.91-8.63,3.52-12.16c1.48,1.98,2.84,4.08,3.55,6.48c1.68,3.8-2.5,7.81,0.53,11.39
	c1.69-0.96,3.36-1.93,5.03-2.91c0.47,0.23,1.43,0.69,1.9,0.92c1.86,11.23,4.18,22.86,1.52,34.16c-0.11-0.72-0.33-2.17-0.44-2.89
	c-1.41-0.74-2.86-1.41-4.15-2.34c-0.35-1.96-0.38-3.95-0.49-5.93c1.1-1.13,2.19-2.27,3.29-3.41c-4.01-0.32-7.3-2.51-9.09-6.1
	c-3.11,5.15-3.96,11.99-0.35,17.13c1.03,2.1,3.46,2.33,5.46,2.86c0.88,2.34,2.18,4.49,4.27,5.94c-2.16,3.4-6.63,1.7-8.86-0.65
	c-2.74-3.14-3.57-7.39-4.49-11.33c-2.52-11.79-3.87-23.94-2.89-35.99C36.34,155.12,36.93,156.72,37.52,158.33z M43.97,171.41
	c0.81,1.03,1.29,3.13,3.04,2.66c1.79,0.03,3.08-1.36,4.14-2.62c-1.38-0.63-2.76-1.24-4.15-1.84
	C45.99,170.2,44.98,170.8,43.97,171.41z"/>
<path fill="#CDCCCB" d="M658.76,152.41c3.51-0.32,7.58-2.05,10.89-0.28c0.95,7.23,0.43,14.62-0.43,21.85
	c-0.5,5.04-2.63,10.35-7.21,12.98c-3.03,1.65-6.46,3.58-10.01,2.62c3.08-1.66,5.15-4.55,7.22-7.28c0.43,0.13,1.28,0.39,1.71,0.52
	c2.27-1.85,4.42-3.86,6.45-5.99c-2.13,0.08-4.25,0.19-6.36,0.29c-1.83-1.55-3.53-3.35-5.71-4.38c-3.15-1.05-6.47-0.08-9.53,0.79
	c3.27,3.97,7.3,7.62,12.56,8.52c-2.84,2.26-5.54,5.36-9.4,5.59c-1.53-0.25-2.97-0.72-4.43-1.14l-0.35-0.1
	c-0.92-8.05-0.1-16.16,1.17-24.12c0.19-1.58,0.93-2.99,1.87-4.25l0.31,1.39l-0.59,1.74c3.41-1.9,7.55-5.87,11.65-3.57
	c4.28,5.13,2.83,12.64,1.92,18.71c0.96-0.03,1.92-0.05,2.9-0.07c-0.13-6.41,1.68-13-0.34-19.27c-0.43-1.76-2.22-2.43-3.6-3.27
	C659.28,153.37,658.93,152.73,658.76,152.41z"/>
<path fill="#CDCCCB" d="M626.63,158.7c0.97-2.02,3.55-1.44,5.39-1.68c2.08,0.11,5.11-0.14,6.2,2.08c0.01,4.99-0.72,9.95-1.01,14.94
	c-0.44,3.78-0.14,7.73-1.65,11.31c-0.3-0.66-0.91-1.97-1.21-2.63c-0.74-0.26-2.23-0.77-2.97-1.03c0.94-5.97,1.62-12.25-0.09-18.14
	C630.65,161.23,628.67,159.74,626.63,158.7z"/>
<path fill="#CDCCCB" d="M615.24,166.82c2.9-2.21,5.82-5.3,9.78-5.16c2.63,0.45,3.92,3.13,4.46,5.47c1.03,4.95,0.05,10-0.89,14.88
	c-2.69-1.06-4.5-3.93-7.54-4.06c-2.24-0.24-4.63-0.49-6.73,0.47c-1.62,2.56,0.46,6.12,2.85,7.45c3.81,0.67,8.16-0.64,11.47,1.98
	c-3.79-1.18-5.27,3.31-8.28,4.56c-2.49,1.63-5.18-0.17-7.45-1.25c0.05,0.24,0.15,0.71,0.2,0.94l-0.63,1.14
	c-1.03-8.71-0.12-17.56,1.47-26.15c0.16-1.33,0.83-3.52,2.73-2.74C616.32,164.97,615.6,166.2,615.24,166.82z"/>
<path fill="#CDCCCB" d="M561.38,163.22c1.25-0.84,1.99-0.61,2.22,0.7C562.33,164.76,561.59,164.53,561.38,163.22z"/>
<path fill="#CDCCCB" d="M368.31,167.4c0.45-1.22,0.9-2.45,1.34-3.67c0.18,1.35,0.45,2.68,0.82,3.99c1.46,0.72,3.03,1.2,4.56,1.76
	c-2.45,3.69-7.65,2.01-11.33,1.57C364.26,168.89,366.6,168.37,368.31,167.4z"/>
<path fill="#CDCCCB" d="M554.25,164.35c1.45-0.69,4.53-0.97,5.41,0.34C558.2,165.06,554.47,166.69,554.25,164.35z"/>
<path fill="#CDCCCB" d="M81.04,185.77c38.68,22.32,77.44,44.51,116.24,66.62c0.06,2.56,0.08,5.12,0.09,7.69
	c-17.53-10.54-35.01-21.16-52.36-31.99c-18.14-11.29-36.47-22.27-54.07-34.4C87.48,191.25,84.03,188.78,81.04,185.77z"/>
<path fill="#CDCCCB" d="M197.22,190.35c11.88-2.18,24.57,0.96,34.07,8.42c11.46,9.04,18.96,22.37,22.59,36.37
	c6.62,18.77,13.57,37.83,25.55,53.96c-0.23,0.16-0.7,0.47-0.94,0.63c-6.9-5.43-11.38-13.2-15.27-20.92
	c-6.39-12.29-10.93-25.4-15.7-38.36c-3.23-8.44-6.8-17.11-13.27-23.62c-7.02-7.14-16.65-10.91-26.17-13.39
	c-4.8-1.31-9.81-1.4-14.75-1.04C194.6,191.68,195.8,190.77,197.22,190.35z"/>
<path fill="#CDCCCB" d="M399.77,191.47c4.97-0.75,12.59-2.03,14.91,3.86c0.3,4.14-0.2,8.3-0.07,12.44
	c-0.87-0.56-1.73-1.12-2.59-1.67c0.6,4.06,2.5,8.05,1.42,12.21c-0.56,6.09-4.02,11.8-9.43,14.76c-2.63,1.31-5.52,3.6-8.61,2.46
	c3.03-1.76,5.38-4.4,7.23-7.35c-3.9,2.34-7.94,5.18-12.7,5.09c-4.44-0.1-7.83-3.29-11.08-5.92c0.94,3.21,2.4,6.38,5.27,8.32
	c-1.3,0.97-2.69-0.13-3.76-0.9c-3.5-2.76-4.82-7.41-4.91-11.71c-0.21-6.66-0.54-13.42,0.77-20c0.67-3.7,3.06-7.37,6.86-8.41
	c0.33,0.28,0.99,0.84,1.33,1.12c-2.44,1.69-4.71,3.62-6.77,5.76c7.26-3.68,16.27-7.45,24.12-3.32c5.85,4.38,6.38,12.42,7.79,19.03
	c0.25-4.75,0.68-9.65-0.71-14.28c-0.88-2.93-3.2-5.08-5.1-7.37c0.75-0.51,2.24-1.53,2.99-2.04c-0.63-0.13-1.88-0.39-2.5-0.53
	C402.7,192.62,401.24,192.03,399.77,191.47z M408.79,195.13c1.52,1.79,2.91,3.7,3.9,5.85c0.16-1.97,1.25-4.05,0.52-5.96
	C412.03,193.51,410.2,194.89,408.79,195.13z M391.21,204.22c-1.25,2.14-4,4.11-3.32,6.84c3.41-0.17,6.05-2.65,8.93-4.21
	c1.89-0.89,2.86-2.73,3.27-4.69C397.05,201.1,393.07,201.17,391.21,204.22z M398.15,216.63c-2.94-0.79-6.57-3.05-9.37-0.81
	c-4.26,4.76,1.64,12.89,7.45,11.54c2.85-0.67,5.76-1.01,8.69-0.86c-0.3,1.58-0.62,3.17-0.93,4.76c3.24-0.88,5.8-3.36,6.05-6.82
	c-1.58-0.64-3.14-1.28-4.7-1.92c0.33-2.42,2.2-5.68-0.52-7.31C402.51,213.33,400.13,215.39,398.15,216.63z M380.74,224.99
	c0.77,2.82,3.05,4.67,5.88,5.18c-0.28-1.71-0.57-3.42-0.84-5.12C384.09,224.98,382.41,224.96,380.74,224.99z"/>
<path fill="#CDCCCB" d="M665.94,196.89c3.14-0.46,4.07-3.93,5.83-6.08c-0.05,0.88-0.16,2.64-0.21,3.51
	c1.32,0.41,2.64,0.85,3.98,1.28l-0.01,1.06c0.56-0.08,1.66-0.24,2.21-0.32c0.16,3.51-0.94,6.88-1.95,10.2
	c-3.62,5.02-6.98,10.24-10.46,15.36c-1.72,0.12-2.96,1.19-3.59,2.73c-0.33,0.45-0.99,1.36-1.33,1.81c-0.62,1.04-1.27,2.07-1.9,3.11
	c-2.29,3.36-5.24,6.42-9.1,7.89c-1.01,0.53-2,1.08-2.99,1.63c-0.45,0.08-1.35,0.24-1.8,0.32c-1.75,0.56-3.52,1.01-5.26,1.56
	c-0.44,0.11-1.32,0.33-1.76,0.44c-1.02,0.38-2.03,0.75-3.04,1.1c-1,0.35-1.99,0.71-2.97,1.07c-1.39,0.42-2.84,0.61-4.26,0.77
	c-0.63,0.65-1.24,1.29-1.84,1.94c-2.58,0.61-5.15,1.22-7.74,1.76c-0.35,0.49-0.68,1-0.98,1.51c-0.9-2.11-3.32-1.3-5.09-1.37
	c-1.21,0.56-2.45,0.96-3.75,1.21c0.09,0.42,0.26,1.27,0.34,1.69c-1.83-0.07-3.66,0.16-5.25,1.12
	c-14.92,7.93-30.49,14.57-46.29,20.56c-20.89,7.72-42.52,13.82-64.71,16.27c-23.79,2.55-47.79,2.94-71.49,6.35
	c-30.04,5.19-59.92,13-90.6,13.04c-2.48-3.2-6.5-4.32-9.78-6.45c-4.87-3.01-9.72-6.78-11.81-12.32c-3.06-7.67-5.35-15.64-7.26-23.67
	c-0.11-1.31-1.28-4.06,0.92-4.2c3.9,0.18,7.78,0.99,11.56,1.96c4.92,2.38,7.84,7.55,12.69,10.06c15.72,2.64,31.37-1.72,46.74-4.6
	c13.44-2.48,26.41-7.14,39.98-8.95c14.93-2.07,29.97-3.12,45.01-4c10.56-0.65,21.55,0.18,31.64-3.54c1.93-0.5,2.03-2.33,1.85-3.98
	c-9.5,0.57-18.99,1.42-28.46,2.28c-22.72,2.21-45.6,3.82-67.92,8.83c-8.79,1.61-17.25,4.61-26.05,6.1
	c-10.96,1.88-21.89,4.27-33.03,4.72c-7.03,0.73-11.55-5.96-18.18-7.06c3.52-1.63,6.7-4.05,10.48-5.07
	c30.17-4.83,60.28-10.05,90.44-14.98c0.58,2.05,0.62,4.9,2.98,5.81c3.52,1.57,7.5,1.81,11.32,1.6
	c38.36-3.73,76.72-7.54,115.08-11.25c3.83-0.29,7.25-2.17,10.76-3.56c13.78-5.67,27.58-11.28,41.34-16.96
	c3.13-1.22,5.12-4.38,4.91-7.74c0.27-1.99,0.55-3.98,0.87-5.96C626.12,203.7,646.15,200.88,665.94,196.89z M643.17,202.4
	c2.46,0.52,4.8,1.47,6.8,3.04c2.61-0.13,5.4-0.5,6.86-2.97C652.28,202.61,647.71,202.81,643.17,202.4z M634.6,212.57
	c-9.02,2.23-18.55,3.5-26.69,8.28c-4.18,2.71-8.12,5.97-11.08,10c9.18-5.3,18.69-10.34,29.15-12.61c13.67-2.94,27.46-5.32,41.08-8.5
	c3.11-0.89,7.5-1.87,7.36-5.99C661.06,206.23,647.89,209.7,634.6,212.57z M612.98,208.44c1.03,2.02,3.37,2.68,5.16,3.85
	c1.8-0.83,2.99-2.23,3.05-4.3C618.44,208,615.7,208.12,612.98,208.44z M620.22,224.38c-0.84,4.87-1.33,9.79-2.14,14.67
	c8.58-0.7,17.53-1.27,25.39-5.14c5.47-3.36,8.65-9.33,9.82-15.5c-2.65,0.24-5.3,0.52-7.95,0.66
	C636.83,220.05,628.24,221.17,620.22,224.38z M562.89,237.82c-7.78,3.12-16.13,4.28-24.36,5.54c-10.5,1.61-21.07,2.59-31.6,3.9
	c-2.06,0.05-4.26,3.38-1.81,4.52c17.01-0.67,34.1-1.91,50.8-5.39c8.41-2,17.15-4.76,23.73-10.59
	C574.04,234.14,568.19,235.9,562.89,237.82z M376.44,273.26c-6.86,1.06-13.72,2.25-20.53,3.62c-0.94,5.19-1.65,10.42-2.19,15.67
	c7.03-0.55,14.24-0.41,21.09-2.16c4.56-0.88,9.13-1.76,13.6-3.06c1.95-5.31,2.12-11.04,1.48-16.61
	C385.41,271.56,380.93,272.43,376.44,273.26z"/>
<path fill="#CDCCCB" d="M356.9,198.33c4.44-0.53,10.39,1.14,10.3,6.58c-1.62-1.16-4.77-3.8-5.8-0.63c1.16,2.2,3.01,4.2,3.08,6.84
	c0.23,3.29-0.15,6.58-0.26,9.87c0.86-2.38,1.67-4.78,2.54-7.16c0.35,6.64-0.35,13.5-3.14,19.6c-0.07-2.53-2.54-2.32-4.31-2.89
	c-1.86-2.47-2.53-5.67-4.54-8.05c-2.04-1.39-3.94,0.8-5.71,1.61c-2.23-0.92-4.48-3.12-7.04-2.14c-2.09,2.11-4.95,5.64-2.21,8.39
	c3.54,5.59,10.92,5.14,16.25,2.68c1.23,1.96,2.67,3.78,4.42,5.32c-4.38,3.55-10.07,5.99-15.79,5.27c4.2-1.51,7.74-4.33,10.69-7.63
	c-4.28,2.07-8.48,4.9-13.39,4.98c-4.35,0.07-7.78-2.95-10.94-5.52c1.83,3.47,4.34,6.71,8.11,8.2c-5.6,1.04-9.97-4.42-10.35-9.56
	c-0.86-8.61-1.82-17.49,0.26-25.99l0.75-0.26c7.19-2.73,15.43-6.12,22.97-2.61c6.68,3.59,7.99,11.96,9.09,18.74
	c0.7-7.26,0.8-15.54-4.81-21.05c0.79-0.64,2.37-1.93,3.16-2.57c-0.46-0.12-1.39-0.36-1.85-0.48
	C358.01,199.48,357.27,198.72,356.9,198.33z M350.25,208.33c-2.45,1.47-4.33,3.69-6.58,5.41c-1.53,1.26-4.01,2.89-2.35,5.12
	c3.5-0.43,5.61-4.05,9.24-4.4c0.52-2.55,2.45-4.14,4.61-5.35C353.56,208.76,351.92,207.97,350.25,208.33z M332.86,231.36
	c0.56,1.36,0.97,2.81,1.82,4.03c1.35,1.29,3.31,1.34,5.04,1.72c-0.31-1.59-0.64-3.19-0.97-4.77
	C336.77,232.06,334.81,231.74,332.86,231.36z"/>
<path fill="#CDCCCB" d="M221.39,233.53c3.75-2.43,8.46-0.88,12.03,1.11c8.04,4.73,13.51,13.09,16.12,21.9
	c-1.55-1.42-3.06-2.89-4.54-4.38c2.17,4.71,4.18,9.58,4.52,14.82c0.58-1.57,1.18-3.13,1.73-4.7c3.11,12.53,3.11,25.77,1.31,38.49
	c-1.36-2-1.8-4.38-2.2-6.71c-1.43,2.9-3.23,5.72-6.3,7.06c2.03,3.57,5.92,1.21,8.65-0.08c-1.01,7.81-2.42,16.05-7.15,22.57
	c-2.95,4.25-8.7,6.12-13.59,4.4c-5.06-1.66-9.78-4.73-13.19-8.84c-11.58-18.75-11.68-41.88-8.85-63.05
	C210.8,247.64,213.57,238.12,221.39,233.53z M221.93,242.07c-4.85,5.92-4.09,14.08-3.91,21.23c3.08-3.7,7.69-4.86,12.03-6.36
	c-0.27-2.94-5.08-1.33-5.65-4.21c-0.53-4.06,2.26-7.77,1.57-11.89C224.54,240.81,222.8,240.67,221.93,242.07z M221.03,265.27
	c1.23,1.56,2.48,3.11,3.77,4.64c0.43-1.55,0.84-3.11,1.23-4.67C224.36,265.24,222.69,265.25,221.03,265.27z M226.73,279.05
	c4.64-1.71,10.21-0.38,14.07-4.02c-0.45-1.3-0.9-2.59-1.34-3.88C234.92,273.08,229.3,274.42,226.73,279.05z M212.47,288.84
	c0.92,1.29,2.38,2.42,2.47,4.13c0.69,4.49,0.75,9.24,2.83,13.38c0.77,1.65,2.57,2.23,4.1,2.93c-1.1-3.01-2.46-5.98-2.88-9.19
	c-0.74-4.92-0.05-9.89-0.11-14.84C216.02,284.73,213.22,285.82,212.47,288.84z M225.6,288.03c0.19,3.06,1.44,5.83,3.41,8.14
	c-0.89,0.53-1.77,1.06-2.66,1.6c0.49,2.3,0.41,5.01,2.17,6.78c1.6,0.9,3.6,0.35,5.37,0.53c-0.38-2.67-0.95-5.37-0.56-8.07
	c0.36-2.21,2.17-3.72,3.29-5.54c0.51-1.27-0.96-1.7-1.78-2.19C232,287.79,228.69,288.09,225.6,288.03z M237.75,308.71
	c-1.5,1.6-2.54,3.58-4,5.21c-1.43,1.1-3.23,1.56-4.85,2.3c1.99,3.52,6.76,4.04,8.71,7.75c1.97-1.38,3.97-2.73,5.99-4.05
	c-1-3.12-4.26-3.43-7.05-3.22c1.09-3.2,4.57-3.83,7.13-5.4C242.17,309.81,240.07,307.49,237.75,308.71z"/>
</svg>
