<?xml version="1.0" encoding="utf-8"?>
<!-- Generator: Adobe Illustrator 15.0.1, SVG Export Plug-In  -->
<!DOCTYPE svg PUBLIC "-//W3C//DTD SVG 1.1 Tiny//EN" "http://www.w3.org/Graphics/SVG/1.1/DTD/svg11-tiny.dtd" [
	<!ENTITY ns_flows "http://ns.adobe.com/Flows/1.0/">
]>
<svg version="1.1" baseProfile="tiny"
	 xmlns="http://www.w3.org/2000/svg" xmlns:xlink="http://www.w3.org/1999/xlink" xmlns:a="http://ns.adobe.com/AdobeSVGViewerExtensions/3.0/"
	 x="0px" y="0px" width="244px" height="261px" viewBox="-0.34 -0.5 244 261" overflow="visible" xml:space="preserve">
<defs>
</defs>
<path fill-rule="evenodd" d="M101.27,0.42c-1.5,0.89-3.62,1.57-5.72,1.09c-4.24,1.4-5.55,7.14-5.17,12.25
	c1.19,0.29,0.89-0.92,1.91-0.82c0.88,1.36,1.88,0.98,3.54,1.36c0.12,2.48-3.56,1.16-3.54,3.54c-1.18-0.36-2.61-0.47-2.72-1.91
	c-0.93-0.2-0.35,1.11-1.36,0.82c-0.43-2.95,1.75-6.13,2.18-9.25c0.09-0.66-0.2-1.52,0-2.18c0.5-1.65,2.28-3.74,3.81-4.36
	C96.1,0.19,99.17-0.12,101.27,0.42z"/>
<path fill-rule="evenodd" d="M101.27,2.6c0.44-0.08,0.47,0.26,0.81,0.27c0.13,0.86-0.49,0.96-0.27,1.91c-0.36,0-0.73,0-1.09,0
	C100.31,4.28,100.85,3.09,101.27,2.6z"/>
<path fill-rule="evenodd" d="M100.18,6.95c-0.86,1.02-2.81-1.04-4.35-1.09C96.03,3.23,100.03,5.37,100.18,6.95z"/>
<path fill-rule="evenodd" d="M102.36,9.95c0.18,1.81-1.88,1.39-1.91,2.99c-1.15-0.82-1.3-0.82-2.45,0
	c-0.23-0.22-0.16-0.75-0.55-0.82C98.86,11.07,99.69,8.96,102.36,9.95z"/>
<path fill-rule="evenodd" d="M109.98,20.02c-0.92,2.25-4.41,1.94-6.53,2.99c-0.11-1.29,1.03-1.33,1.09-2.45
	c0.13-0.85-0.68-0.77-1.09-1.09c0.06-0.85,1.35-0.46,2.18-0.54c0.74-0.74-0.71-0.68-0.55-1.63C107.05,16.83,109,18.6,109.98,20.02z"
	/>
<path fill-rule="evenodd" d="M90.11,20.56c0.75,0.52,2.28,0.26,2.72,1.09C92.38,23.52,89.93,21.88,90.11,20.56z"/>
<path fill-rule="evenodd" d="M175.86,23.02c0.83-0.5-1.2-0.41-0.81-1.36c0.22-0.23,0.75-0.16,0.81-0.54c4.09,1.5,2.63,9.45-1.9,9.26
	c0.25-2.65,2.49-3.32,2.72-5.99c-0.67-0.69-0.58,0.57-1.63,0.27C174.48,23.98,175.44,22.54,175.86,23.02z"/>
<path fill-rule="evenodd" d="M90.65,41.8c1.07,0.36-0.08,3.26,0,4.63c0.13,2.23,1.85,3.94,1.36,5.72c-2.66-1.16-2.55-5.07-3.54-7.9
	c-0.24-0.96,0.71-0.28,0.81,0C90.1,43.79,90.07,42.48,90.65,41.8z"/>
<path fill-rule="evenodd" d="M12.52,229.91c-1.7,1.95-4.45-0.01-7.35,0.82c-0.78,0.04-0.5,1.14-0.54,1.91
	c-1.37,0.17-2.21,0.88-2.45,2.18c-1.38,0.43-1.89-1.83-0.82-2.18c-0.21-0.7-0.66-1.15-1.36-1.36
	C2.36,228.44,7.77,230.27,12.52,229.91z M2.45,231.27c0.62,0.08,1.02-0.06,1.09-0.54c-0.37-0.09-0.52-0.39-1.09-0.27
	C2.45,230.73,2.45,231,2.45,231.27z"/>
<path fill-rule="evenodd" d="M34.85,232.09c1,0,2,0,3,0C37.8,233.61,34.8,233.94,34.85,232.09z"/>
<path fill-rule="evenodd" d="M242.29,233.45c0.44,0.27,0.63,0.73,0.27,1.09C241.93,234.46,241.93,233.81,242.29,233.45z"/>
<path fill-rule="evenodd" d="M170.42,235.36c-1,1.33-3.11-0.13-4.63,0.54c-0.27-0.37-0.73-0.54-1.09-0.82
	C165.77,234.01,169.53,234.49,170.42,235.36z"/>
<path fill-rule="evenodd" d="M162.25,237.26c-1.96-0.81-5.45,1.14-5.99-1.36C158.12,236.03,161.88,235.1,162.25,237.26z"/>
<path fill-rule="evenodd" d="M12.25,237.54c0.15,0.96-0.96,0.67-0.82,1.63c-1.62-1.69-4.01-0.29-5.99-0.82
	C6.08,236,10.17,237.42,12.25,237.54z"/>
<path fill-rule="evenodd" d="M231.4,237.26c-0.09-0.48,1.53-0.49,1.09,0.27C231.92,237.65,231.77,237.35,231.4,237.26z"/>
<path fill-rule="evenodd" d="M238.75,237.81c-0.02,2.28-2.97,0.99-4.35,0.82C235.38,236.71,237.01,238.5,238.75,237.81z"/>
<path fill-rule="evenodd" d="M173.96,244.89c0.99-0.18,1.45,0.18,1.9,0.54c-0.08,0.55-0.54,0.73-0.81,1.09
	C174.17,246.48,173.85,245.9,173.96,244.89z"/>
<path fill-rule="evenodd" d="M192.47,251.69c-1.27-0.36-3.04-0.23-3.54-1.36C190.01,249.89,192.06,250.57,192.47,251.69z"/>
<path fill-rule="evenodd" d="M108.89,254.14c-0.11,0.6-0.64,1.03-1.09,1.09c-0.35,0.05-1.42-0.48-1.09-0.54
	c-0.71,0.13-1.04,0.95-1.91,0.82c-1.22,0.18-2.16-0.78-3.27-0.82c-1.16-0.04-2.08,0.8-3.27,0.82c-0.87,0.01-1.6-0.72-2.45-0.82
	c-1.27-0.15-2.36,0.9-3.54,0c0.76-2.45,4.16-0.45,6.26-0.54c0.91-0.04,1.47-0.51,2.18-0.55c-0.56-1.16-3.14-0.3-3.81-1.36
	c-0.1-0.46,0.21-0.51,0.54-0.54c2.46-0.14,5.19,1.16,7.62,1.36C106.23,253.15,108.9,251.76,108.89,254.14z"/>
<path fill-rule="evenodd" d="M215.06,256.59c-0.19,2.08-2.36,0.91-3.81,0.82c-0.78,0.64-0.15,2.28-1.9,2.45
	c-0.75-0.97-2.08-1.37-2.45-2.72c-0.83-0.2-0.8,0.47-1.63,0.27c0-0.27,0-0.54,0-0.82C208.21,256.34,211.57,256.39,215.06,256.59z"/>
<path fill-rule="evenodd" d="M137.21,258.5c-0.29,1.32-2.35,0.64-3.27,0.27c-2.63,0.89-8.45,1.03-10.07-0.82
	c2.92,0.23,5.33-0.63,7.08,0.54C132.53,257.58,135.48,257.99,137.21,258.5z"/>
<path fill-rule="evenodd" d="M235.75,248.97c-0.05,0.77,0.92,0.53,0.54,1.63c0.79,0.35,1.93,0.35,2.72,0
	c-0.06,1.03-1.4,0.78-1.63,1.63c0.78,0.64,1.45-0.17,2.18,0.27c-0.17,0.92-0.97,1.21-1.09,2.18c-1.71-0.47-2.94,0.05-4.08,0.82
	c-1.08,0.18-1.09-0.72-2.18-0.54c-1-0.18-1.04,0.59-1.9,0.54c-5.49-2.36-12.27-1.75-19.06-2.18c1.05-0.68,3.52,0.07,4.08-1.09
	c-1.13-0.51-2.67-1.42-3.81-1.09c-0.59-0.77-0.76-1.97-1.09-3c-1.29,1.13-2.61,1.14-4.36,1.36c-0.33,1.51,1.22,1.14,1.36,2.18
	c-1.49,1.45-3.57-0.62-5.99,0c-0.32-0.68-0.39-1.6-0.54-2.45c-1.01-0.19-1.17,0.47-2.18,0.27c0.04-0.67,0.04-1.31-0.27-1.63
	c-1.67-0.42-4.33,0.16-5.17-1.09c0.15-1.18,1.02-0.59,1.91-0.55c0.96-0.21,0.32-2.04,1.63-1.9c1.09,0.46,0.74,1.29,0.27,2.18
	c1.98-1.27,3.42,0.21,5.17-1.09c2.85,0.66,6.75,2.33,9.53,1.36c0.11-1.65-1.73-0.68-2.45-0.82c-1.66-0.31-3.64-1.04-5.45-1.09
	c0.03-0.7,0.92-0.54,1.64-0.54c-0.57-2.22-2.84-0.79-4.63-0.82c-0.94-0.02-1.22-0.52-1.91-0.82c-0.53-0.22-1.64,0.13-1.64-0.82
	c1.1-0.76,2.42,0.19,3,0.82c2.27-1.16,4.75,0.58,6.26-0.82c1.27,0.46,1.97,1.48,2.18,3c1.58-0.13,2.83,0.08,3.81,0.54
	c3.1-1.25,0.78-7.95,0.82-10.62c-0.23-0.9-1.81,0.14-2.45-0.82c-0.51-2.05,1.09-1.99,0.82-3.81c-1.74-0.29-3.01,1.72-5.17,1.91
	c-0.96,0.08-1.76-0.49-3-0.27c-0.95-0.05-1.03-0.96-1.9-1.09c-0.86-0.13-0.21,1.25-0.82,1.36c-4.88,0.46-8.96-2.06-14.43-1.91
	c-0.57,1.1,2.87,1.43,4.08,0.82c0.75,0.75-0.24,1.14-0.27,1.91c3.65,0.61,6.38,0.64,9.8,1.63c0.93-1.06-1.5-0.52-1.09-1.91
	c1.23-0.55,1.79,1.08,3.81,0.54c0.19,0.91-0.46,1-1.09,1.09c0.13,0.62,0.54,1.39,0,1.91c0.46,0.74,2.63,0.84,1.9,1.91
	c-1.26,0.13-2.16-0.75-3.54-0.82c-2.49-0.12-5.41,1.59-7.08-0.54c0.28-1.27,2.35-0.13,3,0c1.17-0.47,2.6-0.67,4.36-0.55
	c-0.65-1.32-1.88-0.35-3-0.54c-1.04-0.18-1.88-0.86-2.99-1.09c-3.45-0.71-7.53,0.6-10.62-1.09c-4.55-0.14-9.44,0.75-13.34-1.36
	c-1.22-0.13-1.22,0.96-2.18,1.09c-1.08-0.6-3.62-0.9-4.63,0c-0.57-0.27-1.66-1.59-2.18-0.27c-0.35,1.35,1.61,0.38,1.91,1.09
	c-0.96,1.24-3.23,0.35-4.9,0.27c-2.43-0.12-4.62-0.27-5.99,0.82c-2.36,0.26-4.04-1.25-5.44,0.27c0.52,5.74,3.19,9.33,3.54,15.25
	c1.24-0.17,2.02-0.94,2.99,0c0.85-0.24,0.89-1.29,1.63-1.63c1.33,1.1,2.02-0.36,4.08,0c-0.68-1.59-2.4-2.13-3-3.81
	c2.34-0.37,3.98,0.82,5.99,1.09c1.77,0.24,3.68-0.93,5.44,0.27c-0.28,0.9-1.77,0.59-2.45,1.09c1.51,0.53,4.41,1.08,5.72-0.54
	c0.96,0.04,1.22,0.78,2.18,0.82c1.19,0.1,1.4-0.78,2.45-0.82c2.39,1.26,4.79,0.32,7.35,0.54c0.1-1.18-0.75-1.43-1.63-1.63
	c-1.53,0.41-3.28,1.4-4.63,0c0.52-1.02,2.75-0.34,3.27-1.36c3.51-0.41,6.23,1.2,9.26,0c0.94,1.16,2.77,1.57,2.18,3.54
	c0.9,1.82,5.49-0.05,6.81,1.36c-0.57,1.38-2.88,0.37-4.36,0.27c-2.68-0.19-5.23-0.89-7.08-1.63c-0.17,0.38-1.05,0.04-1.09,0.54
	c-0.42,1.59,1.62,0.74,1.9,1.63c0.09,1.37-2.9,0.77-3.26,0.82c-0.29-1.02,0.67-0.78,0.54-1.63c-0.8-0.56-2.25-0.48-3.27-0.82
	c-0.51,0.89,0.17,1.56-0.82,2.18c-0.63,0-1.27,0-1.9,0c-0.26-0.68,0.97-1.64-0.28-1.63c-0.87,0.6,0.2,3.06-1.9,3
	c0.98,0.8,4.45-1.07,4.9,0.82c-0.44,1.3-2.01-0.21-3,0.54c-0.95,0.32-1.17,1.37-1.9,1.91c-1.16-0.11-2.8,0.26-3.54-0.27
	c-0.32-0.66-0.08-1.61,0-2.18c-1.74,0.2-3.04-0.04-3.54-1.09c-1.35-0.08-0.87,1.67-1.63,2.18c-3.96,1.93-4.8-3.33-7.9-1.36
	c0.13,0.77,1.42,0.39,1.09,1.63c-1.07,0.58-1.88-0.01-3,0.27c-1.07,0.27-1.6,1.26-2.45,1.36c-1.46,0.18-2.35-0.46-3.81-1.09
	c0.23-0.59,1.4-0.23,1.63-0.82c-0.65-0.53-1.67-0.69-2.45-1.09c-1.07,0.38-0.32,2.58-0.54,3.81c-3.92,0.36-8.35,1.15-12.25,0.27
	c-0.75-0.17-1.36-0.94-1.91-1.09c-3.18-0.9-6.52-0.41-10.34-0.27c-5.33,0.19-10.23-0.82-14.7-3.27c-2.92,0.28-4.44-0.82-6.53-1.36
	c0.54-1.66,3.29-0.32,4.63-0.27c1.53-1.32,1.52-2.77,2.99-3.81c2.54-1.79,6.41-1.48,9.8-2.45c1.68-0.48,4.94-2.73,7.35-3.81
	c1.38-0.62,3.04-2.33,3.27-4.35c-2.05-0.18-5.97,0.98-8.17,0c-0.14-1.5,2.41-0.32,2.72-1.36c-0.28-1.35-1.5-1.77-2.99-1.91
	c-0.88-0.24-0.38,0.89-0.82,1.09c-2.86-0.74-4.46,1.01-6.53,1.36c-5.6,0.94-10.47-2.51-15.52-1.63c-1.04-0.23-0.32,1.31-1.36,1.09
	c-1,0.19-1.2-0.43-1.09-1.36c-2.03,1.36-2.88-0.77-5.17,0c-0.27-1.17,1.02-0.79,1.09-1.63c-2.15,0.02-5.26-0.48-6.26,1.36
	c0.45,0.92,2.52,0.2,2.45,1.63c-2.12,0.03-5.52,0.58-6.53-1.09c0.83-0.53,2.1-0.62,3.54-0.55c-0.26-1.1-1.19-1.53-1.91-2.18
	c-1.03,0.33-1.64,1.08-2.45,1.63c-2.16,0.25-3.83-0.49-5.44,0c-1.52-0.77-4.95-1.53-6.26-0.82c-1.18-0.09-1.22-1.33-2.72-1.09
	c-0.32,1.23,1.21,0.61,0.82,1.91c-2.15,1.88-5.2,0.02-7.9-0.27c-0.91-0.1-1.78,0.06-2.72,0c-3.03-0.18-5.82-1.07-8.44-1.63
	c-0.59-0.79,0.28-1.35-0.54-1.91c-1.16,0.29-1.05,1.85-2.18,2.18c-0.05,1.04,1.41,0.59,1.36,1.63c-1.72,0.46-4.14,0.21-6.26,0.27
	c-2.06-1.3-3.34-3.38-6.53-3.54c-1.09,0-0.9,1.28-1.63,1.63c-0.98,0.07-1.31-0.5-2.18-0.54c0.64,1.96,1.78,4.1,0,5.72
	c-4.72-0.28-8.41,0.51-11.71-0.27c-0.73,0.27-1.4,0.6-2.18,0.82c-0.94-0.14-1.44-0.74-2.18-1.09c-1.01-0.1-0.71,1.1-1.91,0.82
	c0-0.55,0-1.09,0-1.63c-1.77-0.65-3.37,0.16-5.44,0c-0.69-0.67,0.57-0.58,0.27-1.63c-1.99-1.72-3.49,1.03-5.45,1.09
	c0.09-0.91,0.79-1.21,0.54-2.45c3.76,0.03,6.58,0.16,10.07,0.82c-0.04,0.6-0.69,0.58-1.36,0.54c1.33,0.78,4.27,1.2,5.72,0.27
	c-1.08-2.04-3.59-2.5-4.9-4.35c-0.51-0.73-0.62-1.71-1.09-2.45c-1.62-2.56-4.09-4.1-6.53-5.99c0.94-4.15,3.21-6.95,4.9-10.34
	c1.98-0.38,2.71-2.01,3.81-3.27c-1.37-1.77,0.33-3.87,2.18-4.08c2.46-5.37,3.3-11.4,5.99-16.88c1.21-2.46,3.07-5.9,4.63-8.44
	c1.5-2.44,3.1-4.56,5.17-6.53c1.5-1.43,2.6-3.6,4.08-4.9c1.84-1.63,4.07-2.98,5.71-4.9c0.71-3.13,2.66-6.13,3.27-9.53
	c0.42-2.33,0.21-4.76,0.82-7.08c0.2-0.77,0.91-1.4,1.09-2.18c0.81-3.57,0.44-7.35,0.82-10.89c0.3-2.85,1.39-5.31,1.9-8.17
	c0.24-1.31,0.06-2.77,0.27-4.08c0.32-1.99,0.87-3.99,1.09-7.08c0.3-4.26,0.04-9.25,1.63-12.79c2.2-4.91,6.06-8.75,7.9-13.34
	c0.23-5.31-1.26-8.9-1.63-13.61c-3.07-0.17-4.96,0.85-6.54,2.18c-1.09-0.09-1.62-0.74-2.45-1.09c-1.46-3.61-1.71-9.12-0.54-13.88
	c1.1-4.51,4.39-7.84,5.72-11.16c5.08-4.69,5.2-12.21,10.07-16.06c0.32-0.26,1-0.31,1.36-0.54c1.93-1.26,3.41-2.6,6.53-2.99
	c1.43-0.18,3.04,0.33,4.63,0c1.72-0.35,2.44-1.91,4.63-2.18c1.12-1.33,1.66-3.24,2.99-4.36c-0.46-1.41,0.47-3.19,1.63-3.81
	c-0.01,3.95-2.35,7.28-4.63,9.8c-1.59-0.14-2.29,0.61-2.99,1.36c2.59,2.13,5.75,3.68,7.08,7.08c1.87-0.58,3.31-1.59,4.35-2.99
	c-0.17-2.05-0.17-2.85,0-4.9c2.29,2.06,7.88,8.61,11.44,5.17c-0.4-1.89-4.22-2.27-2.45-4.63c1.24-0.33,0.86,0.96,1.63,1.09
	c1.01-0.17,2.71,0.35,3.27-0.27c-1.15-0.48-3.1-0.16-2.72-2.18c1.66-0.12,2.23,0.86,3.81,0.82c0.69-1.03-0.77-1.84-1.09-2.72
	c-1.37,0.26-2.52,1.76-3.81,0.54c0.45-2.09,1.64-3.45,4.63-2.99c0.51,0.52-0.16,0.49,0,1.36c0.88,0.31,1.61,0.75,2.72,0.82
	c1.29-1.98,1.11-5.43,3.27-6.53c-1.05-2.68,0.18-4.97,0.27-6.81c-0.02-0.98-1.78-0.22-2.18-0.82c-0.88,0.24-0.38-0.89-0.82-1.09
	c-1.56-0.7-3.96-0.58-4.63-2.18c-0.57,0.16-0.78,0.67-1.63,0.54c-0.29-1.38,0.5-1.67,1.09-2.18c1.31,1.18,2.35-1.06,4.35-0.82
	c1.17-0.08,0.89,1.29,1.63,1.63c1.08-0.1,1.77-0.59,2.72-0.82c-1.03-1.06-2.72-1.45-3.54-2.72c-1.33,0.03-2.87-0.15-3.81,0.27
	c-0.31-0.32-0.31-0.96-0.27-1.63c-2.3,0.3-1.95-2.04-4.08-1.9c0.08-1.94,2.18-1.08,3.27-0.82c3.64,0.89,7.63,3.39,9.8,5.44
	c0.47,2.62,2.66,3.52,2.18,7.08c-1.14,1.07-2.27,1.04-2.72,2.45c-0.44,1.38,0.36,3.24,0,4.9c-0.14,0.68-1.02,1.05-1.36,1.91
	c-0.15,0.37,0.19,1.01,0,1.36c-0.71,1.3-2.26,2.23-1.91,3.81c-1.33,0.67-1.78,2.21-2.18,3.81c-2.5,1.04-3.4,3.68-4.9,5.72
	c1.95,2.04,4.36,3.63,6.26,5.72c1.6,3.28,2.02,7.67,0.54,11.43c-1.67,1.86-4.34,2.73-7.08,3.54c-0.21,5.46,0.41,9.62,1.63,14.43
	c1.76,0.06,2.79-1.58,4.35-2.18c2.1-0.8,4.54-0.66,6.54-1.9c-0.89-3.4,1.23-5.5,3.27-6.81c-0.89-9.32,5.98-15.49,14.43-11.98
	c4.09-4.89,8.4-9.57,17.42-9.53c-0.07-6.15,5.76-8.51,9.26-11.98c0.82,0,1.63,0,2.45,0c1.28-0.89,1.69-3.02,0.82-4.63
	c0.67-2.22,1.89-4.33,3.27-6.26c0.96-1.35,1.64-1.85,2.72-2.99c0.31-0.32,0.28-1.06,0.54-1.36c3.65-4.14,11.97-5.38,19.06-2.72
	c0.95,1.49,2.02,2.88,3.54,3.81c1.8,2.98,2.8,7.58,1.64,11.98c-1.77,2.94-3.61,6.7-5.44,9.8c-1.15,1.93-4.44,7.55-1.64,10.07
	c0.97,0.87,2.67,1.24,3.81,2.18c0.73,0.6,1.21,1.65,1.91,2.18c0.86,0.65,1.81,0.78,2.45,1.36c0.99,0.89,2.46,2.8,3.54,4.36
	c2.84,4.09,3.86,6.07,2.72,12.52c-3.27,7.34-7.49,13.74-11.98,19.87c0.09,0.91,0.79,1.21,0.54,2.45c-0.43,1.93-2.1,2.17-2.45,3.81
	c-0.34,1.61,0.63,2.59,0.82,4.36c0.34,3.07-0.79,5.19-3,6.81c1.49,2.5,4.04,3.95,4.63,7.35c0.15,0.85,0.82,1.17,1.09,1.91
	c0.99,5.73,0.75,11.24,2.45,16.33c1.27,3.79,2.99,5.74,3.54,10.07c0.24,1.9,1.26,3.76,1.63,5.72c1.05,5.58,1.69,11.3,2.72,16.88
	c1.48,8.02,2.8,15.87,6.26,20.96c1.42,2.08,3.58,3.53,4.9,5.44c0.86,1.25,1.38,3.04,2.18,4.63c1.65,3.28,2.94,5.58,3.54,10.62
	c0.68,5.74,0.65,12.54,2.45,17.69c-0.41,1.09-0.41,3.27,0,4.36c0.99,0.26,0.23-1.22,1.09-1.09c1.63-0.27,2.32,0.4,3.54,0.55
	c0.72-0.1,0.98-0.65,0.82-1.63c0.83-0.2,1,0.28,1.63,0.27c0.36-0.76-0.27-2.16,1.09-2.45c1.56,0.24,3.63,2.21,4.9,0.27
	c2.02,0.06,3.14,1.03,4.08,2.18c0.9-0.09-0.72-1.19,0.27-1.36c0.46,0,0.91,0,1.36,0c0.59,0.57-0.03,0.88-0.27,1.36
	c0.37,0.61,2.11,0.75,1.36,1.63c-0.71-0.19-3.11-0.87-3,0.54c1.08,0.47,2.78,0.3,4.08,0.54c-0.74,0.94-1.19,0.68-0.82,2.45
	c-3.06,0.01-5.56-1.98-8.44-0.54c1.09,0.98,3.4-0.78,3.81,1.63c-0.71,0.22-1.49-0.82-1.9,0c0,1.9,2.01,0.7,2.45,0
	c0.87-0.24,0.37,0.9,1.09,0.82c0.67-0.61,2.57-1.45,3,0c-0.4,1.05-1.35,1.55-3,1.36c0.12,1.32,1.8,0.65,2.72,0.54
	c-0.78,1.96-3.35,0.18-5.99,0.82c-0.33-0.58-0.33-1.48-1.09-1.63c-1.21-0.21-1.1,0.9-1.63,1.36c-0.69-0.31-1.33-0.67-1.91-1.09
	c-1.64,1.2-3.09-0.83-5.72-0.27c-0.29-1.34-1.74-1.53-2.18-2.72c-1.61,2.45,1.9,4.2,2.72,6.53c0.19,0.53-0.09,1.38,0,1.91
	c0.21,1.2,1.24,2.2,1.63,3.27c0.62,1.64,0.35,3.45,1.64,4.36c0,0.82,0,1.63,0,2.45c1.81-0.46,3.02-1.52,3.81-3
	c0.04-0.68-0.42-0.85-0.82-1.09c-1.52-0.43-0.56,1.62-2.18,1.09c0.61-0.57,0.7-1.66,1.36-2.18c2.22,1.32,6.41,2.08,8.71,0.27
	c0.15,0.66,1.05,0.58,0.82,1.63c-1.09-0.09-1.51,0.49-2.72,0.27c-0.02,2.19,1.74,2.62,3.27,3.27
	C240.22,250.59,237.96,247.15,235.75,248.97z M185.94,11.31c1.14,1.95,2.29,3.88,4.63,4.63c-0.01-1.35-0.84-1.88-1.36-2.72
	c-2.67,0.3-2.1-2.62-4.36-2.72c-0.18,0-0.36,0-0.54,0C184.2,11.41,185.48,10.95,185.94,11.31z M174.23,11.85
	c-2.31,0.63-3.92,2.94-5.17,4.63c-2.01,2.71-3.61,5.71-2.99,9.8c-2.22,2.05-2.2,7.77-2.18,11.16c1.48-0.24,2.7-0.75,4.63-0.55
	c0.57-1.34,1.23-2.58,3-2.72c0.17,1.44-0.96,1.58-0.82,2.99c3.41,1.67,7.38,2.78,10.89,4.36c0.31-0.96,0.84-1.7,0.82-3
	c-0.97-0.03-1.87-0.13-2.18-0.82c1.14-1.5,1.95-3.32,2.72-5.17c-0.52-0.93-2.13-0.77-2.45-1.91c0.38-0.61,1.77-0.22,1.63-1.36
	c-0.19-0.99-1.72-0.64-1.91-1.63c0.7-1.2,1.57-2.24,2.45-3.27c-1.79-0.84-1.27-4-3.54-4.36c0.77-0.05,1.87,0.23,1.91-0.54
	c-0.28-0.62-1.06-0.76-1.36-1.36c0.63-0.72,0.73,0.72,1.36,0c-0.44-1.38-0.58-1.45,0.27-2.45c-1.69-0.22-1.68-2.64-3.81-1.63
	c0.05-0.77,1.3-0.34,1.09-1.36c-1.1,0.64-2.16-0.37-3.27,0.27C175,12.54,175.08,11.73,174.23,11.85z M184.03,14.58
	c-0.83,2.14,3.21,2.56,1.91,5.17c0.76-0.33,1.88-0.3,3-0.27c0.15,0.94,1.23,0.95,1.63,1.63c1.04-0.96,1.68-3.88,0-4.63
	c-0.5,0.59-0.81,1.37-1.63,1.63c-0.2-0.94-1.36-0.93-2.18-0.54c-0.35-0.83-1.09-1.27-0.81-2.72c-1.81-0.1-1.74-2.07-3.54-2.18
	C182.32,13.92,183.61,13.82,184.03,14.58z M157.62,32.82c-1.76,0.79-3.48,1.6-3.81,3.81c0.76,1.58,4.66,2.25,5.99,0.82
	c0.25-1.88-0.57-3.34,0.27-4.36c1.2,0.07,0.93,1.62,1.36,2.45c1.92-0.89,1.87-3.76,1.91-6.53
	C159.93,28.77,158.94,30.96,157.62,32.82z M84.94,42.89c0.08-5.35-3.13-7.39-5.44-10.34c-1.29-0.13-3.21-1.25-4.9-1.36
	c-2.25-0.15-4.41,0.75-5.99,1.91c-4.12,3.02-5.28,9.32-8.17,13.88c-2.01,3.17-5.5,6.91-6.81,10.07c-1.69,4.07-2.37,11.06-1.09,14.7
	c3.29,0.96,4.22-2.38,7.08-2.72c0.14,0.85-0.64,1.11,0.27,1.36c1.83-1.15,3.62-0.35,5.44-0.82c2.8-0.71,5.39-3.1,7.62-4.9
	c2.42-1.95,4.78-3.88,6.8-5.72c-0.6-0.83-0.7-1.96-1.09-2.99c-0.35-0.94-0.81-2.36-1.36-2.72c-3.01-0.08-5.96,3.03-9.53,3.54
	c-0.58,0.08-1.34-0.28-1.91-0.27c-2.88,0.04-4.66,2-7.08,2.18c2.33-4.02,7.35-2.42,10.34-4.63c0.43-0.32,1.36-1.5,1.91-2.18
	c1.99-2.44,2.1-4.45,4.08-7.08c1.02,0.7,1.73,1.72,2.18,2.99c-2.19,1.19-4.75,3.39-4.9,5.72c1.84-0.43,3.24-1.3,4.63-2.18
	c0.25-3.34,2.67-5.48,5.99-4.9C82.99,44.58,84.47,44.23,84.94,42.89z M101.54,37.17c-0.45,0-0.91,0-1.36,0
	c-2.79-2.14-7.53-1.68-9.8,0c-1.67,1.23-2.04,4.57-4.08,6.81c-1.36,1.48-2.81,2.05-3.54,3.81c-2.29-1.1-4.64,0.77-4.63,2.72
	c0,0.4,0.92,1.92,1.63,3.27c1.07,2.01,1.81,3.53,3.27,3.81c-0.03,0.88-1.24,0.58-0.82,1.91c1.56-0.34,3.57-0.24,3.81-1.91
	c-0.53-2.65-2.68-5.12-2.18-7.89c1.82,1.99,2.07,5.56,4.36,7.08c0.76-0.97-0.23-3.67,0.54-4.63c1.49,0.78,0.86,3.68,3.54,3.27
	c1.45-2,0.93-5.96,2.45-7.9c1.65-0.2,0.85,2.06,1.91,2.45c1.71-0.02,0.4-3.05,1.63-3.54c0.94,0.24,0.59,1.76,1.36,2.18
	c0.74-0.53-0.41-2.95,1.09-2.72c0.93-0.02,0.16,1.66,1.09,1.63c0.67-0.6,0.07-2.47,1.36-2.45c0.72,0.64-0.2,2.92,0.54,3.54
	c0.75-0.52,0.47-2.07,1.36-2.45c0.56,0.99,0.57,1.1,1.63,0.54c0.34,1.15-0.71,2.28,0.27,2.45c0.41-0.41,0.08-1.55,1.09-1.36
	c0.71,0.19,0.26,1.55,1.09,1.63c0.22-0.69,1.12-0.69,1.63-1.09C110.32,42,105.77,39.75,101.54,37.17z M190.29,50.51
	c-2.31-2.41-3.67-5.77-7.9-6.26c0.07-0.79-0.51-0.94-0.82-1.36c-1.83-1.23-4-1.34-6.26-2.18c-2.8-1.03-4.62-2.7-7.89-2.18
	c-0.64,0.1-1.32,0.67-1.91,0.82c-2.54,0.64-5.38,0.32-8.17,1.36c-1.56,6.42-2.92,13.05-5.99,17.97c0,0.54,0,1.09,0,1.63
	c-1.46,1.54-2.57,3.42-3.27,5.72c-1.11,0.86-1.86,2.01-2.45,2.99c-1.36,2.26-4.48,4.58-4.9,7.08c-0.42,2.53,0.47,5.43,0.54,8.17
	c0.16,5.82-1.33,12.2,0.27,17.15c1.62,1.26,3.53,0.11,5.44,0.27c1.8,0.15,3.4,1.25,5.17,1.36c1.45,0.09,4.71,0.19,5.71,0
	c1.84-0.35,4.82-3.38,5.99-5.72c0.7-1.39,1.78-4.5,1.9-5.72c0.14-1.37-0.61-3.52-0.54-4.9c-2.04-0.32-2.57-2.97-1.9-5.17
	c-3.26-2.48,0.63-7.05,1.9-9.25c-0.08-1.08,0.63-1.37,0.54-2.45c2.31-2.77,2.94-7.23,5.17-10.07c1,1.73-0.49,4.07-0.82,6.53
	c-0.08,0.63,0.31,1.23,0.27,1.91c-0.07,1.3-0.72,2.79-0.82,4.36c-0.24,3.83-0.93,6.35-0.82,9.53c0.1,3.11-0.03,6.52,0.54,8.98
	c0.21,0.91,1.01,1.72,1.36,2.72c0.52,1.47,0.53,3.31,1.09,4.63c0.37,0.88,1.94,3.42,2.45,3.81c2.53,1.94,6.95-0.75,9.53-1.36
	c1.47-3,0.53-6.88-0.82-9.26c2.55-2.21-1.28-5.69-0.54-8.44c3.21,0.15,2.1,4.62,4.9,5.17c1.25-2.1-0.87-3.88-1.91-5.72
	c-1.03-1.83-2.86-4.19-1.09-5.99c2.04,0.68,2.01,3.43,4.35,3.81c-0.06-2.39-1.82-3.08-2.45-4.9c0.59-2.77-1.52-4.29-0.54-6.53
	c2.2,1.16,1.86,4.85,3.81,6.26c0.77-0.97-1.3-2.86-0.27-4.08c0.95,0.32,0.59,1.95,1.91,1.91c1.24-1.05,0.28-2.4,0.27-3.81
	c-0.03-6.42,1.33-12.51,2.72-16.88c-1.47,0-2.04,1.67-2.72,2.72c-1.53,2.36-2.69,4.77-3.81,7.35c-0.52,1.2-0.68,3.05-2.18,3.54
	C185.1,60.13,189.75,55.6,190.29,50.51z M139.66,45.88c-1.93,0.42-2.29,1.84-3.27,2.99c-0.14,0.16-0.66,0.11-0.82,0.27
	c-0.27,0.27-0.02,0.76-0.27,1.09c-0.74,0.97-1.56,1.76-2.18,2.72c-2.09,3.29-3.86,6.13-6.26,8.71c-4.69,5.05-8.92,8.58-17.15,9.8
	c-3.44,3.56-11.63,3.78-9.8,11.71c4.65,2.34,9.8-0.09,14.97-0.27c1.64-1.93,4.08-2.75,5.99-4.36c2.04-1.72,3.12-4.51,5.17-6.26
	c0.77-0.66,1.83-1.24,2.72-1.91c2.74-2.05,5.51-3.71,7.62-6.26c1.77-2.14,2.12-4.37,4.08-6.26c-0.12-1.57,0.2-2.7,1.09-3.27
	c1.67,1.04,1.34,3.53,1.09,5.44c-0.55,4.16-3.02,9.12-2.18,13.34c1.34-1.29,2.58-2.68,3.27-4.63c3.25-3.43,5.35-7.74,7.35-11.98
	c0.19-0.4,0.09-0.88,0.27-1.36c0.5-1.32,1.16-1.98,1.63-3.54c1.03-3.38,2.38-7.4,3-10.62C149.03,40.6,142.55,41.7,139.66,45.88z
	 M126.59,49.97c-0.37,0.12-0.51,0.76-1.09,1.09c-0.66,0.37-1.34,0.27-1.63,0.54c-2.12,1.97-4.08,10.55-0.27,11.71
	c1.35-1.01,2.44-2.28,3.27-3.81c-1.03-1.22-0.17-2.63,0.27-3.81c0.84-0.15,2.07,0.07,2.18-0.82c-1.02-1.67-4.1-0.48-4.9,0.54
	c-0.17,1.01,0.35,2.71-0.27,3.27c-2-0.1-0.89-3.24-0.54-4.08c0.41-1.02,1.8-2.72,2.72-2.99c1.98-0.58,4.99,1.44,5.17-1.36
	C129.94,49.52,128.13,49.48,126.59,49.97z M193.28,68.75c-0.03,2-1.21,5.04,0.54,6.26c2.16-1.92,1.75-6.41,4.36-7.89
	c0.25,0.48,0.09,1.36,0.54,1.63c0.77-1.41,1.88-2.98,2.18-4.63c0.16-0.88,0.2-2.94,0-3.81c-0.31-1.37-1.45-1.96-2.18-3.27
	c-0.89-1.6-2.09-3.22-3.54-3.27C193.48,57.65,193.35,64.41,193.28,68.75z M118.15,67.12c2.69,0.33,2.06-2.65,3.27-3.81
	C119.69,62.15,117.05,64.47,118.15,67.12z M101.54,70.66c0.63,0.55,1.2,1.15,1.91,1.63c-0.32-2.13-0.22-4.68-1.09-6.26
	C101.77,67.25,101.64,68.93,101.54,70.66z M92.83,69.02c-4.51-0.16-8.26,2.54-10.89,4.36c-2.95,2.56-6.45,10.56-1.36,13.34
	c0.08-0.56,0.73-0.54,1.09-0.82c0.29-0.7-0.83-1.3,0-1.63c1.05,0.14,1.84,1.96,2.99,1.09c-0.87-0.76-1.93-1.34-2.18-2.72
	c1.04-0.2,1.95,1.12,2.72,0.27c-1.06-0.49-1.6-1.49-1.91-2.72c1.5-0.5,1.61-2.38,2.45-3.54c1.1,0.26,1.89,1.97,3.27,1.09
	c0.04-1.41-1.46-1.26-1.36-2.72c0.36-0.45,1.54-0.09,1.91-0.54c-0.13-0.62-0.54-1.39,0-1.91c1.02-0.21,1.3,0.33,2.18,0.27
	c-0.04-0.68-0.05-1.32,0.54-1.36c1.07,1.02,2.69,0.18,3.81-0.27c2.22,0.23,3.23,2.51,5.72,1.63C99.99,70.54,96.37,69.15,92.83,69.02
	z M124.14,203.78c-0.66-3.52-0.41-7.25-1.09-10.89c-0.79-4.22-4.01-8.14-3.54-12.52c0.12-1.11,0.89-2.26,1.09-3.27
	c0.34-1.7,0.28-2.81,0.54-3.81c0.44-1.66,0.69-3.13,1.09-4.9c1.09-4.85,2.4-9.57,3.54-13.88c0.68-2.6,1.32-5.41,2.18-7.62
	c0.37-0.95,1.22-1.75,1.63-2.72c0.84-1.97,1.47-4.2,2.45-6.26c0.47-1,1.2-1.95,1.63-3c1.2-2.91,1.94-7.04,2.72-10.07
	c0.67-2.57,1.71-5.15,2.18-7.35c0.31-1.49,0.61-3.09,0.82-4.63c0.43-3.2,0.95-6.3,0.27-8.98c0.25-0.65,1.09-0.72,0.82-1.91
	c-1.54-2.42-0.94-4.48-0.82-7.35c0.37-8.08-0.16-16.98-0.54-24.77c-0.01-0.17-0.04-0.32-0.27-0.27c-2.03,1.22-2.98,3.78-4.9,5.44
	c-1.04,0.9-2.67,1.69-4.08,2.72c-1.38,1.01-3.02,1.72-4.36,2.72c-1.77,1.33-3.07,3.53-4.9,4.36c-0.81,0.37-1.76,0.19-2.72,0.54
	c-1.53,0.55-2.92,1.88-4.9,1.63c-1.35,1.28-2.93,3.37-4.9,4.9c-1.4,1.09-4.47,3.56-5.99,3.81c-1.15,0.19-2.31-0.66-3.54-0.27
	c-0.49,2.05,0.91,3.38,1.36,5.17c0.62,2.47,0.21,5.06,0.55,7.62c0.35,2.7,1.49,5.26,1.91,7.89c0.21,1.31,0.06,2.82,0.27,4.08
	c0.14,0.85,0.69,1.66,0.82,2.45c0.27,1.68-0.1,3.37,0,5.17c0.27,4.71,1.34,9.56,0.54,14.15c-0.12,0.7-0.46,1.23-0.54,1.91
	c-0.26,1.97,0.12,4.16,0,5.72c-0.07,0.87-0.54,1.83-0.54,2.72c-0.01,2.64,0.84,5.55,1.09,8.17c0.33,3.46,1.02,7.18,0.82,10.35
	c-0.19,2.99,0.04,8.18-0.27,10.34c-0.12,0.86-0.75,1.4-0.82,2.18c0,0.02,0.53,0.64,0.55,0.82c0.02,0.32-0.25,0.56-0.27,1.09
	c-0.11,3.16-1.03,6.5-1.36,9.8c-0.29,2.83-0.17,5.66-0.54,8.44c-0.59,4.37-1.69,8.56,0.27,11.43c-0.12,0.98-0.7,1.32-0.27,2.18
	c1.86,3.56,5.39,4.59,9.53,6.53c1.26,0.59,2.52,1.29,3.81,1.91c1.34,0.63,2.69,1.69,3.81,1.9c0.86,0.17,1.84-0.29,2.72-0.27
	c0.62,0.01,1.26,0.51,1.91,0.54c2.9,0.14,5.12-0.36,7.62,0.54c-1.35,1.24-0.03,1.87,1.09,2.72
	C130.79,221.49,125.94,213.36,124.14,203.78z M64.79,71.75c-0.35-0.02-0.38-0.35-0.82-0.27c-0.57,0.61-1.58,0.78-2.18,1.36
	c0.13,6.14,2.88,9.75,1.63,14.16c-0.5,1.75-2.27,3.61-3.27,5.44c-0.86,1.58-1.76,2.96-2.45,4.08c-0.76,1.25-1.14,2.33-1.63,3.27
	c-1.36,2.56-2.23,6.38-2.18,10.07c0.05,4.17-0.61,7.28-1.09,11.43c1.32,0.64,2.57-0.42,4.08-0.54c3.24-0.26,6.45,0.86,8.71,1.9
	c0.77-0.5,1.18-2.48,2.72-1.36c0.21-1.3-0.97-1.21-0.82-2.45c0.55,0,1.09,0,1.63,0c0.15-1.24-1.02-1.15-0.82-2.45
	c0.63,0.09,1.05-0.04,1.36-0.27c-0.15-1.49-2.52-0.91-1.63-2.72c0.63,0,1.27,0,1.91,0c-0.15-1.13,0.04-1.51,0.82-2.72
	c-0.56-0.35-1.38-0.43-1.36-1.36c0.04-0.32,0.43-0.29,0.82-0.27c0.35-1.33-1.58-1.27-0.82-2.18c1.12-0.76,3.67,0.99,3.81-1.09
	c-0.47-0.89-2.45-0.27-2.18-1.91c1.19,0.01,2.46,0.1,3-0.54c-0.48-0.61-1.55-0.63-1.64-1.63c1.16-1.04,2.14-0.56,3.54,0
	c0.01-0.64-0.47-0.8-0.27-1.63c-0.19-0.54-1.52,0.06-1.63-0.55c1.51-1.6,5.24-0.94,6.53-0.82c-0.02-3.61-6.3-0.96-8.71-2.18
	c0.17-1.46,2.27-0.99,3.81-1.09c0.05-1.14-1.34-0.84-1.09-2.18c1.53,0.5,3.72,0.19,5.44,0.54c1.07,0.22,2.34,1.67,3,0.54
	c-1.32-1.22-3.2-1.89-4.08-3.54c-1.77,0.27-3.54-1.45-6.26-1.09c-1.22-1.05-3.85-0.68-4.9-1.9c0.39-0.79,0.65-1.71,1.63-1.91
	C69.41,79.65,66.37,76.43,64.79,71.75z M102.63,73.38c0.37,0.09,0.52,0.39,1.09,0.27c0-0.18,0-0.36,0-0.54
	c-0.27,0-0.32-0.22-0.54-0.27C103.17,73.19,102.7,73.08,102.63,73.38z M93.1,84.54c0.05-0.81-1.05-1.67,0-1.91
	c1.12-0.03,0.54,1.63,1.9,1.36c0.1-0.76-1.04-1.66-0.27-2.18c0.71,0.02,0.29,1.17,1.36,0.82c0-1.8-1.16-2.62-1.09-4.08
	c0.12-2.47,2.95-3.65,3-5.44C92.38,72.57,87.68,81.44,93.1,84.54z M97.19,76.92c0.18,2-0.48,4.83,1.09,5.44
	c0.74,0.19-0.2-1.28,0.54-1.09c-0.93-2.79,1.62-4.81,1.36-6.81C99.32,75.42,98.16,76.08,97.19,76.92z M97.73,88.35
	c0.25,2.72,0.15,7.02,3.81,5.45c0.57-0.71,0.33-2.21,1.09-2.72c2.91-0.63,4.95-2.12,6.53-4.08
	C105.39,86.56,101.23,87.45,97.73,88.35z M84.66,95.7c0.58,0.43,2.53,1.42,2.99,0.27C87.08,95.55,85.05,94.63,84.66,95.7z
	 M175.05,106.32c-5.18,0.35-12.72-0.06-17.15-0.27c-6.64-0.32-11.15-2.4-16.06-2.45c-0.34,0.11-0.56,0.35-0.54,0.82
	c1.03,0.8,3.2-0.9,3.54,0.82c-0.85,0.87-2.97,0.48-3.81,1.36c-0.11,13.85-5.13,25.85-9.8,36.75c5.39,4.68,13.3,6.84,21.23,8.98
	c0.85-0.43-1.94-0.93-0.82-1.63c0.58-0.5,1.45,0.36,2.45,0.27c-1.05-1.69-3.36-1.34-5.44-1.91c-1.44-0.39-3.01-1.51-4.36-2.18
	c-1.42-0.7-3.7-1.32-3-3c3.09,1.38,6.75,2.95,9.8,4.08c0.88,0.33,2.29,1.68,3.27,0.54c-0.97-0.58-2.03-1.06-2.72-1.91
	c0.65-0.84,1.28-0.28,2.45-0.27c0.23-1.51-2.36-1.31-1.63-2.45c1.18-0.37,1.52,0.08,2.99,0c0.29-1.02-0.68-0.78-0.54-1.63
	c1.65-0.71,2.04-2.67,3.27-3.81c0.16-1.75,0.26-3.55,1.63-4.08c-0.09-0.64-0.43-1.02-0.27-1.91c4.07-1.24,6.7-5.11,11.98-3.54
	c1.11,0.89,2.06,1.93,2.72,3.27c3.33,1.42,5.14-0.91,7.35-2.72c0.9-0.74,2.15-1.27,2.72-1.91c1.75-1.94,3.07-5.64,3.26-7.08
	c0.12-0.85-0.37-2.04-0.27-3c0.07-0.7,0.57-1.01,0.54-1.63c-0.14-3.76-2.32-7.1-4.08-10.07
	C180.71,105.16,177.96,106.12,175.05,106.32z M16.88,205.14c0.78,3.31,4.82,4.78,8.17,4.63c-0.15-1.39-1.78-1.3-2.18-2.45
	c0.92,0.01,1.18-0.63,1.63-1.09c0.62-2.96,1.83-4.98,3-7.08c1.83-3.3,4.31-6.52,5.17-10.07c2.99-2.82,4.74-6.87,8.71-8.71
	c0.43-1.11,1.42-1.67,1.91-2.72c2.02-0.63,3.48-2.33,5.17-3.81c1.63-1.43,3.76-2.62,5.17-4.08c0.69-0.71,1.02-2,1.63-2.72
	c0.74-0.87,2.65-1.31,1.91-2.72c-0.67-1.45-1.87,0.71-2.45,0c1.32-7.85,4.48-13.85,6.26-21.23c0.97-0.57,0.82-2.27,1.91-2.72
	c0.06-2.73,1.67-4.68,2.18-7.08c0.58-2.74,0.62-5.65,1.63-8.71c-3.32-2.56-11-3.46-14.7-0.54c0.44,2.06-0.77,4.06-1.09,6.53
	c-0.75,5.86-0.14,12.9-2.72,17.15c-0.31,5.43-1.87,11.91-4.63,15.79c-3.13,1.76-5.63,4.79-7.89,7.08c-1.26,1.28-2.28,2.2-3.27,3.54
	c-3.42,4.62-5.79,9.55-8.44,14.7c-1.44,5.37-3.18,10.43-5.45,14.97c0.88,1.57,2.72,2.18,3.81,3.54
	C20.21,207.03,19.16,204.36,16.88,205.14z M72.41,141.71c-1.13,2.45-2.02,4.02-2.99,6.26c-1.09,2.53-2.58,4.83-3.54,7.08
	c-0.7,1.66-0.72,2.79-1.36,4.08c-0.37,0.75-0.96,1.49-1.36,2.18c-0.8,1.34-2.08,2.67-2.72,4.08c-0.44,0.98-0.4,2.25-0.82,3.27
	c-0.45,1.12-1.25,1.81-1.36,2.99c-1.93,1.32-3.18,3.38-4.9,4.9c-1.5,1.33-3.3,2.26-4.63,3.81c-0.9,1.06-1.61,2.36-2.45,3.54
	c-6.04,8.39-14.23,15.09-19.33,23.96c0.47,1.12,1.05,2.15,0.55,3.54c-0.4,0.96-2.24,0.49-2.18,1.9c-1.77,6.5,1.43,12.22,5.72,14.97
	c1.19,0.01,1.37-0.99,2.72-0.82c0.16,0.87-0.51,0.84,0,1.36c1.73-0.99,4.32-1.12,7.08-1.09c0.98-0.29,0.8-1.74,2.18-1.63
	c1.45,0.37,2.91,0.72,4.9,0.55c2.47,2.43,8.51,1.29,12.25,2.45c3.23-2.55,6.4,0.72,10.34-0.27c1.13-0.15,0.92,1.94,1.9,1.09
	c1.66-0.07,1.48-1.97,3.27-1.91c2.75,1.81,6.44,1,10.34,1.63c0.49-0.69,1.41-0.95,1.91-1.63c-0.77-5.74,3.07-9.95,0.55-14.15
	c-0.05-1.14,1.33-0.84,1.09-2.18c-0.75-2.99,0.14-6.11-0.27-8.98c-0.09-0.64-0.67-1.34-0.81-1.91c-0.43-1.64-0.31-3.48-0.55-5.17
	c-0.57-4.11-1.41-8.01-1.09-13.07c0.11-1.82,0.12-4.13,0.27-5.45c0.16-1.41,1.13-2.82,1.09-4.36c-0.04-1.75-1.25-3.19-1.63-4.9
	c-0.27-1.2-0.52-3.29-0.54-3.81c-0.04-0.94,0.37-1.74,0.27-2.72c-0.2-2.13-0.93-4.04-1.36-5.99c-0.34-0.88,0.88-0.21,0.55-1.09
	c-1.99-4.09-3.08-9.08-5.45-12.79c-0.28-3.35-2.45-4.81-3-7.89c-0.27,0-0.54,0-0.82,0C74.96,136.38,73.69,138.96,72.41,141.71z
	 M160.89,134.09c0.19,1.08,1.66,0.82,1.91,0C162.28,133.55,161.51,133.96,160.89,134.09z M148.64,154.5
	c-1.34-2.02-4.53-2.19-5.99-4.08c-5.08-0.73-8.02-3.6-11.71-5.72c0,0.36-0.48,0.25-0.54,0.54c-1.06,1.04-1.29,3.36-1.91,5.45
	c-1.1,3.71-1.92,6.49-3,10.34c-0.48,1.73-0.99,3.46-1.36,5.17c-0.82,3.81-1.12,7.61-1.91,10.89c-0.28,1.18-0.97,2.16-1.09,3.27
	c-0.29,2.73,0.98,5.15,1.9,7.89c1.34,3.99,1.8,6.55,2.18,10.89c0.2,2.25,0.91,4.66,1.36,6.81c0.21,1,0.08,2.11,0.27,3
	c1.85,8.23,6.43,14.75,7.35,23.41c2.65-0.43,4.82,0.32,7.35-0.27c-0.39-2.6-0.98-5.01-1.09-7.89c-1.99-4.24-2.53-8.65-3.54-13.34
	c-0.25-1.14-0.69-2.42-0.82-3.54c-0.29-2.55,2.91-6.24,3.54-8.98c0.78-3.42-1.8-6.93-3.54-9.25c-2.31-3.09-4.84-4.38-6.26-7.89
	c1.38-3.69,4.67-6.02,7.62-8.17c1.03-0.75,2.53-1.35,3.54-2.17c0.26-0.22,0.42-0.99,0.82-1.36c0.84-0.8,1.44-0.89,1.91-1.63
	c1.55-2.49,4.73-4.89,5.99-7.08c1.12-1.96,0.88-4.02,0.82-6.26C149.42,154.43,149.48,154.86,148.64,154.5z M206.35,215.76
	c-4.04-6.03-5.58-14.56-9.8-20.42c0.22-0.95-0.41-1.05-0.27-1.91c-5.91-4.89-8.12-13.47-13.07-19.33c-0.28-1.08-1.32-1.4-1.09-3
	c-2.49-4.68-4.96-9.38-6.53-14.97c-3.46-1.57-3.94-8.3-8.71-8.71c-3.5-0.3-6.38,2.35-6.81,6.53c-2.4,1.27-2.6,2.75-3.81,5.17
	c-1.1,2.2-2.2,4.47-3.54,6.53c-0.33,0.51-0.96,0.8-1.36,1.36c-0.39,0.55-0.43,1.4-0.82,1.91c-0.84,1.09-1.93,1.93-2.72,2.99
	c-2.24,3.01-6.13,6.9-7.08,10.34c-1.28,4.65,1.47,6.88,1.09,10.62c1.72,3.6,3.45,8,2.72,12.79c-0.12,0.82-0.71,1.58-0.82,2.45
	c-0.42,3.31,0.19,7.17,0.54,10.62c0.4,3.82,0.12,6.57,1.63,8.98c0.53-0.42,3.13-0.6,3.27,0.27c0,0.45,0,0.91,0,1.36
	c-0.77,0.41-1.7,0.66-2.99,0.54c0,0.45,0,0.91,0,1.36c2.04,0.54,3.46-1.77,5.45-2.18c0.59,1.04,1.73,0.32,2.72,0.82
	c0.91,0.45,1.2,1.39,2.18,1.63c0.74,0.18,1.81-0.51,2.72,0c0-0.45,0-0.91,0-1.36c-1.1-1.19-1.7,1.43-2.45,0.54
	c-0.11-1.38,0.78-1.76,1.36-2.45c1.37,0.35,1.67,1.78,3,2.18c0.99-0.46,1.14-1.77,1.63-2.72c-1.56-1.37-5.26,1.43-5.72-1.63
	c3.26-0.08,5.71-0.28,8.17,0.82c-0.41,0.38-0.86,1.32-0.27,1.91c0.82,0.62,2.56,0.09,2.99,1.63c-0.15,0.27-1.41,1.21-0.27,1.09
	c1.26,0.35,0.75-1.07,1.36-1.36c1.21-0.3,1.35,0.46,2.18,0.54c0.13-0.87,0.86-1.14,0.82-2.18c-2.59-0.17-4.59,0.07-5.72-1.09
	c1.48-0.49,3.03-0.27,4.08-1.63c2.59-0.41,2.95,1.41,3.81,2.72c0.97-0.03,0.99-1,2.18-0.82c2.32,0.85,1.63,4.72,5.44,4.08
	c-0.44-1.53,0.68-1.5,0.82-2.45c-1.47-0.2-2.63,1.39-3.27-0.27c0.47-0.8,1.77-0.77,1.36-2.45c-1.96-0.86-5.85,0.23-6.8-1.63
	c3.81-0.94,10.44,0.05,14.97,0.81c-0.46,2.55-3.13,0.12-5.45,1.09c-0.24,1.34,1.14,1.04,1.09,2.18c-0.12,0.63-1.21,0.73-0.54,1.36
	c2.16,0.25,2.05-2.26,4.08-1.36c0.1-3.42,5.84-3.45,8.17-2.18c0.43-0.57,0.63-1.37,1.63-1.36c2.68,0.21,1.2,2.94,4.08,2.99
	c0.89-0.93,0.55-3.08,2.18-3.27c1.71,1.14,3.81,0.31,5.99,0C209.44,221.56,206.99,219.57,206.35,215.76z M95.28,160.22
	c-1.56-0.26-2.67-0.96-3-2.45c-2.37-1.2-4.88,0.78-5.17,2.72c-0.06,0.44,0.39,1.2,0.54,2.18c0.14,0.88-0.04,1.67,0,2.45
	c0.16,2.66,1.8,4.43,1.91,6.53c0.06,1.16-0.69,2.59-0.82,4.08c-0.25,2.93-0.69,4.44-0.82,6.26c-0.16,2.29-0.09,5.01,0,7.35
	c0.31,8.31,3.5,14.16,2.99,22.6c0.92,0.8,2.85,1.45,4.36,0.82c0.89-2.35,0.1-4.73,0.27-6.81c0.07-0.8,0.72-1.66,0.82-2.45
	c0.38-3.23-0.54-6.55-0.27-9.8c0.36-1.17-1.3-0.34-1.09-1.36c3.57-5.09,7.45-12.34,5.72-20.96c-1,0.3-1.29,1.73-2.72,0.82
	C100.8,167.22,96.57,164.21,95.28,160.22z M216.43,201.87c-0.04-0.88-0.81-4.02-1.09-4.63c-0.88-1.94-3.9-4.98-6.26-5.44
	c-1.91-0.37-3.78,0.33-5.99,0.81c-1.05,1.63-2.48,2.56-2.72,4.63c-0.42,3.64,2.17,7.29,3.26,10.07c0.36,0.92,0.44,2.22,0.82,2.99
	c0.19,0.39,0.9,0.72,1.09,1.09c0.34,0.64,0.44,1.43,0.81,2.18c2.24,4.46,4.41,10.31,6.81,14.16c1.96-0.13,4.03-0.15,5.72-0.54
	c0.12-5.88-1.33-8.75-1.9-13.61c-0.66-1.06-2.15-1.3-2.45-2.72C215.08,208.38,216.57,205.05,216.43,201.87z M16.61,207.86
	c-0.87,2.25-3.45,2.97-4.9,4.9c-0.51,0.68-2.1,3.77-2.18,4.08c-0.49,2.04,0.29,2.42,1.09,3.54c1.66,2.31,2.92,3.65,5.17,4.9
	c0.26,1.19,0.94,1.96,1.36,3c-0.03,0.51-0.9,0.19-0.82,0.82c1.31,1.41,2.91,3.98,5.17,3.54c-0.57-0.79-1.93-0.8-1.9-2.18
	c2.96,1.44,7.04,5.34,11.43,2.72c-1.6-1.57-2.26-4.62-5.17-4.08c0.07-1.6-1.2-2.44,0.27-3.27c-2.08,0.29-2.81,3.36-5.17,2.45
	c0.47-1.35,2.26-1.38,2.72-2.72c-2.46-1.31-2.68,1.81-4.36,2.18c0.16-1.75,1.44-2.37,1.91-3.81c0.48-0.16,1.6,0.33,1.63-0.27
	c-1.05-0.65,0.12-0.8,0-1.9c-1.38-0.18-1.05-0.99-0.54-1.91c-1.67,0.35-1.39-0.64-0.82-1.36c-2.54-0.09-3.72,1.18-5.72,1.63
	c0.74-1.8,1.87-3.21,4.63-2.99c0.01-3.25-4.21,0.82-4.9-1.63c0.9-0.83,2.94-0.51,3.54-1.63c-0.99-0.01-2.15,0.15-2.45-0.55
	c0.26-1.29,2.66-0.43,2.72-1.9c-0.44-1.1-2.74-0.34-2.45-2.18c0.85,0.07,2.12,1.13,2.72,0.54
	C18.59,209.15,18.02,208.08,16.61,207.86z M93.1,214.67c-0.69-0.26-2.37-1.36-2.72-0.27c2.08,1.21,5.46,2.19,8.71,1.36
	C98.43,214.06,95.27,214.86,93.1,214.67z M89.84,229.37c1.95,0.22,3.16-0.29,4.08-1.09c3.63-0.18,4.58-3.04,7.62-3.81
	c0.36,2.72-2.11,2.61-2.45,4.63c2.55,0.37,3.61-0.75,5.72-0.82c2.52,2.02,6.44,2.64,10.89,2.72c0.77-0.05,0.34-1.29,1.36-1.09
	c1.02-0.29,0.77,0.68,1.63,0.54c-0.58-1.78-2.18-2.54-4.63-2.45c0.02-0.47-0.06-0.85-0.27-1.09c-1.8-0.01-3.23-0.4-3.81-1.63
	c-3.1,0.02-4.01-2.16-6.53-2.72c0.09-0.63-0.04-1.05-0.27-1.36c-1.77,0.59-1.43-0.93-2.18-1.36c-0.66,3.7-3.68,5.04-7.35,5.72
	c0-0.54-0.74-0.35-0.54-1.09c0.71-1.29,2.68-1.32,2.72-3.27c-0.86,0.03-3.01,0.96-2.99-0.55c0.8-0.83,2.61-0.66,2.72-2.18
	c-0.76-1.32-3.17-1.01-4.63-1.63C90.77,221.4,87.79,225.79,89.84,229.37z M230.58,225.56c3.19,0.07,3.32,4.06,6.53,3.27
	c0.3-0.78,0.49-1.69,0.54-2.72C235.5,225.82,231.76,223.48,230.58,225.56z M206.9,227.19c1.79,0.03,3.29,2.31,4.9,0.82
	c0.11-0.66-0.5-0.59-0.27-1.36C210.3,226.3,208.32,226.9,206.9,227.19z M170.96,227.46c0.39-0.15,1.41,0.32,1.36-0.27
	C171.98,226.82,170.99,226.77,170.96,227.46z M229.22,228.01c0.05-0.68-0.42-0.85-0.82-1.09
	C227.44,227.45,228.37,228.71,229.22,228.01z M193.56,228.28c0.32,0.31,0.96,0.31,1.64,0.27
	C195.76,226.8,193.29,226.79,193.56,228.28z M197.64,229.64c-0.2,0.43-1.33-0.06-1.09,0.82c1.06,0.95,2.22-0.31,3-0.54
	c0.35,0.37,1.63,0.47,1.63-0.27c-1.08-0.73-2.69,0.57-3.27-0.82c0.15-0.66,1.05-0.58,0.82-1.63
	C196.76,226.98,197.11,228.61,197.64,229.64z M44.65,229.37c0.99-0.73,2.21-0.54,3.27,0c-0.04-0.68,0.43-0.84,0.54-1.36
	C47.37,227.31,44.08,226.88,44.65,229.37z M225.68,229.1c0.44-0.44,0.33-1.71-0.54-1.63C225.14,228.18,224.99,229.07,225.68,229.1z
	 M229.22,229.64c-0.26,1.17,1.34,0.48,1.36,1.36c-0.87,0.74-2.43-0.68-2.72,0.82c1.7,1.23,4.45-0.43,5.17-1.91
	c-1.99,0.25,0.47-2.27-1.09-2.45C231.7,228.86,230.63,229.41,229.22,229.64z M42.74,230.46c1.83,0.36,1.29-3.22-0.27-2.72
	C42.65,228.95,43.25,229.14,42.74,230.46z M190.56,228.28c-0.08,0.72,0.38,0.89,1.09,0.82c0.08-0.71-0.1-1.17-0.82-1.09
	C190.82,228.17,190.8,228.33,190.56,228.28z M215.34,229.1c-1.2,0.1-3.12-0.71-3,0.82c2.42,0.4,6.27,1.67,7.62-0.27
	C219.46,228.18,216.96,228.97,215.34,229.1z M240.11,229.37c0.41-0.05,1,0.1,1.09-0.27C240.84,228.74,240.19,228.74,240.11,229.37z
	 M172.87,230.46c-0.04,1.04,1.11,0.88,1.64,1.36c0.25-1.11,1.12-1.6,2.72-1.36c0.13-0.85-0.34-1.11-0.82-1.36
	C175.65,229.98,174.84,230.79,172.87,230.46z M202.27,229.64c0.17,0.92,0.93,1.25,1.91,1.36c0.22-0.51,0.45-1,0.54-1.63
	C203.73,228.81,203.09,229.32,202.27,229.64z M206.35,230.19c0.93,0.11,1.55-0.08,1.36-1.09
	C206.69,228.89,206.39,229.4,206.35,230.19z M224.59,230.19c-0.04-0.51-0.18-0.91-0.55-1.09
	C224.11,229.58,223.77,230.46,224.59,230.19z M64.52,230.73c0,0.27,0,0.54,0,0.82c0.81,0.68,1.83-0.18,1.91-1.09
	C65.7,230.46,64.87,230.35,64.52,230.73z M123.32,231c0.83-0.2,0.8,0.47,1.63,0.27C125.25,230.21,123.33,230.18,123.32,231z
	 M131.22,230.73c-0.05-0.4-0.66-0.25-1.09-0.27C129.55,231.46,131.51,231.69,131.22,230.73z M150,231.55c0.89-0.44,1.04,0.06,2.18,0
	C152.59,229.84,149.71,230.26,150,231.55z M44.92,231.82c0.83,0.01,1.79,0.16,1.63-0.82c-0.45,0-0.91,0-1.36,0
	C45.2,231.38,45.06,231.6,44.92,231.82z M176.95,232.09c-0.64,0.01-0.8-0.47-1.63-0.27C175.02,232.88,176.94,232.91,176.95,232.09z
	 M186.48,232.63c0.16-0.98-0.81-0.83-1.63-0.82C184.81,233.17,185.56,232.71,186.48,232.63z M214.52,249.51
	c2.54,0.22,3.76-1.02,5.72,0c2.25-1.79,6.08-1.92,4.63-6.26c-0.06-0.18-0.72-0.36-0.82-0.54c-0.51-0.97,0.44-0.79-0.27-1.36
	c-1.1-0.87-2.18-0.13-3.54-0.54c0.71-0.84,0.01-2.03-0.27-2.72c0.25-0.29,1-0.08,0.82-0.82c-0.51-0.04-0.91-0.18-1.09-0.54
	c0.3-3.84-1.95-5.13-5.72-4.9C215.74,237.54,215.2,243.79,214.52,249.51z M156.26,233.18c1.29,0.27,3.79,0.67,4.08-0.82
	C158.45,232.35,157,231.71,156.26,233.18z M178.58,232.36c-0.37-0.09-0.52-0.39-1.09-0.27
	C177.06,232.85,178.67,232.84,178.58,232.36z M112.43,232.63c-0.74,0.17-2.16-0.34-2.45,0.27
	C110.72,232.74,112.14,233.25,112.43,232.63z M129.04,232.91c-0.04,0.67-0.04,1.31,0.27,1.63c1.14,0.04,1.52-0.5,2.45,0
	c-0.13-0.86,0.49-0.96,0.27-1.91C131.03,232.72,129.62,232.4,129.04,232.91z M147.55,233.18c0.34,0.59,3.3,1.09,3.54,0
	C150.48,232.72,147.99,232.1,147.55,233.18z M136.39,234c-0.62-0.36-1.59-1.27-2.45-0.55c-0.21,0.06-0.32,0.23-0.27,0.55
	c-0.07,0.89,1.06,0.58,1.09,1.36c2.46-0.56,4.16,0.5,6.26,0.27c0.43-0.05,1.19-0.39,1.63-0.54c0.44-0.15,1.37-0.05,1.36-0.82
	C142.34,233.59,138.45,234.05,136.39,234z M12.25,233.72c-0.09-0.22-0.72-0.33-0.82,0C11.25,234.35,12.5,234.31,12.25,233.72z
	 M20.42,235.08c0.19,0.21,1.52,0.61,1.63,0C21.47,234.93,20.57,234.15,20.42,235.08z M135.57,238.08c-0.32,0.31-0.96,0.31-1.63,0.27
	c-0.09,1.37,1.4,3.41,0,4.36c-1.23-0.31-0.78-2.31-2.18-2.45c-1.61,0.17,0.29,2.24-1.09,2.72c-1.02,0.29-0.78-0.67-1.63-0.54
	c0.32,1.62-1.12,1.9-2.18,1.36c-0.05,1.49-1.42,1.54-2.72,1.09c-0.52,0.57-0.86,1.32-1.36,1.91c-0.54-0.01-0.35-0.74-1.09-0.55
	c-0.64,0.08-0.5,0.95-1.36,0.82c-3-0.22-6.8-0.01-7.89,2.45c3.73,1.15,6.96,2.37,11.43,2.18c4.33-0.18,8.8-2.16,12.25-1.36
	c1.42,0.33,2.69,1.73,4.08,1.91c1.07,0.14,2.37,0.37,3.54-0.82c-1.16-0.34-3.45,0.38-3.81-1.36c1.4-0.75,3.29,0.08,4.9,0
	c-0.01-1.64,2.32-0.95,2.45-2.45c-1.59-0.95-3.67-1.42-4.63-2.99c1.63-0.9,2.33,1.23,4.08,1.09c-0.96-2.04-3.25-2.74-4.9-4.08
	c-0.34,1.83-1.33,3.02-2.99,3.54c-0.25,1.25,0.68,1.32,0.54,2.45c-0.27,0-0.32,0.22-0.54,0.27c-1.71-0.65-4.23-3.1-3-4.9
	c0.74,0.17,0.68,1.14,1.63,1.09c1.1-2.07-0.38-2.82-0.27-5.17c0.41-0.05,1,0.1,1.09-0.27c-1.17-0.73-1.75-2.06-3.54-2.18
	C134.61,237.41,135.72,237.12,135.57,238.08z M206.63,244.07c0.27,0,0.54,0,0.82,0c0.05-0.59-0.22-0.87-0.82-0.82
	C206.63,243.52,206.63,243.8,206.63,244.07z M184.3,246.79c0.18,0,0.36,0,0.54,0c0-0.27,0.22-0.32,0.27-0.55
	c-0.35-0.01-0.38-0.35-0.82-0.27C184.3,246.25,184.3,246.52,184.3,246.79z M188.93,247.61c0.36,0.35,1,0.35,1.36,0
	c-0.12-0.52-0.1-1.17-0.82-1.09C189.47,247.06,188.73,246.87,188.93,247.61z M235.48,247.61c0.71,0.08,1.17-0.1,1.09-0.82
	c-0.35-0.02-0.38-0.35-0.82-0.27C235.67,246.89,235.37,247.04,235.48,247.61z M204.18,247.34c0.59,0.17,1.69,1.02,1.9,0
	C205.49,247.16,204.39,246.32,204.18,247.34z M160.62,248.7c1.58,0.35,2.47-0.95,1.09-1.36C161.52,247.97,160.8,248.07,160.62,248.7
	z M213.43,249.24c-0.11-0.66,0.5-0.59,0.27-1.36c-0.35-0.02-0.38-0.35-0.82-0.27C212.33,248.31,212.21,249.15,213.43,249.24z
	 M226.5,248.15c-1.61,1.57-4.81,1.54-6.26,3.27c1.27,1.53,2.26-0.07,3.26-0.27c1.83-0.37,4.04-1.71,4.36-2.72
	C227.54,248.2,227.13,248.07,226.5,248.15z M165.52,249.51c0.71,0.19,3.11,0.87,2.99-0.54C167.31,248.97,166.3,248.84,165.52,249.51
	z M171.23,248.97c-0.19,0.91,0.46,1,1.09,1.09c0-0.46,0-0.91,0-1.36C171.85,248.68,171.48,248.76,171.23,248.97z M232.76,249.24
	c0.37,0.09,0.52,0.39,1.09,0.27C233.92,248.72,232.79,248.47,232.76,249.24z M174.5,250.33c0.39,0.42,1.39,0.24,2.18,0.27
	c0.21-1.48-1.51-1.04-2.18-1.63C174.5,249.42,174.5,249.88,174.5,250.33z M203.09,250.33c0.36,0,0.73,0,1.09,0
	c-0.15-0.4,0.32-1.41-0.28-1.36C203.82,249.61,202.96,249.48,203.09,250.33z M164.16,251.42c0-1.27-0.89-1.64-1.9-1.9
	C160.77,250.56,163.12,252.14,164.16,251.42z M156.53,251.15C156.57,248.63,153.78,251.42,156.53,251.15L156.53,251.15z
	 M228.68,253.33c0.31,0.06,0.42,0.3,0.55,0.54c1.34-0.38,1.44-2.01,1.9-3.27c-0.38,0.01-0.6-0.13-0.82-0.27
	C230.29,251.85,228.9,252,228.68,253.33z M233.3,251.42c0.02-0.47-0.21-0.7-0.54-0.81C232.37,251,232.36,251.66,233.3,251.42z
	 M164.97,253.05c0.78-0.03,1.78,0.15,2.18-0.27c-0.06-0.94-0.23-1.77-1.36-1.63C165.72,251.98,165.2,252.37,164.97,253.05z
	 M152.18,252.24c0.27,0,0.54,0,0.82,0c0.04-0.49-0.27-0.64-0.82-0.54C152.18,251.87,152.18,252.05,152.18,252.24z M232.21,253.33
	c0.72,0.08,0.89-0.38,0.82-1.09c-0.27,0-0.54,0-0.82,0C232.24,252.98,231.76,252.78,232.21,253.33z M234.12,254.14
	c1.37,0.01,2.59-0.13,3.27-0.82c-0.92-0.73-2.27-0.07-3.27-1.09C234.12,252.87,234.12,253.51,234.12,254.14z M175.32,253.87
	c0.4,0.43,1.22,0.3,1.09-0.54C175.79,253.25,175.38,253.39,175.32,253.87z M138.3,255.23c0.53,1.15,2.78,0.81,4.62,0.82
	c1.77,0.01,4.56,0.56,4.9-0.82C144.68,255.12,140.9,254.58,138.3,255.23z"/>
<path fill-rule="evenodd" d="M197.1,254.42c-2.08-0.8-2.9,0.3-3.27,1.9c-1.88,0.18-2.02-0.46-4.08-0.54
	c1.15-1.72-1.28-1.17-1.36-2.45c1.01-0.55,2.19,0.24,3.81,0.27C193.85,253.63,196.84,252.26,197.1,254.42z"/>
</svg>
