<svg xmlns="http://www.w3.org/2000/svg" xmlns:xlink="http://www.w3.org/1999/xlink" version="1.1" width="800" height="600" viewBox="0 0 800 600" xml:space="preserve">
<desc>Created with Fabric.js 5.2.1</desc>
<defs>
</defs>
<g transform="matrix(0.5 0 0 0.5 333.58 336.94)">
<g style="">
		<g transform="matrix(0.05 0 0 -0.05 -0.08 -27.05)">
<path style="stroke: rgb(0,0,0); stroke-width: 0; stroke-dasharray: none; stroke-linecap: butt; stroke-dashoffset: 0; stroke-linejoin: miter; stroke-miterlimit: 4; fill: rgb(0,0,0); fill-rule: nonzero; opacity: 1;" transform=" translate(-318.5, -215.5)" d="M 34 156 Q 34 270 120 356 Q 206 442 309 442 Q 379 442 421 402 Q 463 362 478 304 Q 484 275 485 237 L 485 208 Q 534 282 560 374 Q 564 388 566 390 Q 568 392 582 393 Q 603 393 603 385 Q 603 376 594 346 Q 585 316 558 261 Q 531 206 497 161 L 486 147 L 487 123 Q 489 67 495 47 Q 501 27 514 26 Q 528 28 540 37 Q 552 46 557 60 Q 559 67 562 68 Q 565 69 577 70 Q 597 70 597 62 Q 597 56 591 43 Q 579 19 556 5 Q 533 -9 512 -10 L 505 -10 Q 438 -10 414 62 L 411 69 L 400 61 Q 390 53 370 41 Q 350 29 325 18 Q 300 7 267 -2 Q 234 -11 203 -11 Q 124 -11 79 39 Q 34 89 34 156 Z M 208 26 Q 257 26 306 47 Q 355 68 379 90 L 403 112 Q 401 255 396 290 Q 382 405 304 405 Q 235 405 183 332 Q 156 292 139 224 Q 122 156 121 120 Q 121 71 146 49 Q 171 27 208 26 Z" stroke-linecap="round"></path>
</g>
		<g transform="matrix(0.05 0 0 -0.05 -0.02 21.73)">
<path style="stroke: rgb(0,0,0); stroke-width: 0; stroke-dasharray: none; stroke-linecap: butt; stroke-dashoffset: 0; stroke-linejoin: miter; stroke-miterlimit: 4; fill: rgb(0,0,0); fill-rule: nonzero; opacity: 1;" transform=" translate(-249.5, -333)" d="M 109 429 Q 82 429 66 447 Q 50 465 50 491 Q 50 562 103 614 Q 156 666 235 666 Q 326 666 387 610 Q 448 554 449 465 Q 449 422 429 383 Q 409 344 381 315 Q 353 286 301 241 Q 265 210 201 149 L 142 93 L 218 92 Q 375 92 385 97 Q 392 99 409 186 L 409 189 L 449 189 L 449 186 Q 448 183 436 95 Q 424 7 421 3 L 421 0 L 50 0 L 50 19 L 50 31 Q 50 38 56 46 Q 62 54 86 81 Q 115 113 136 137 Q 145 147 170 174 Q 195 201 204 211 Q 213 221 233 244 Q 253 267 261 278 Q 269 289 284 308 Q 299 327 305 340 Q 311 353 320 369 Q 329 385 333 401 Q 337 417 340 431 Q 343 445 343 464 Q 343 527 309 573 Q 275 619 212 619 Q 179 619 154 602 Q 129 585 119 569 Q 109 553 109 550 Q 109 549 114 549 Q 132 549 151 535 Q 170 521 170 489 Q 170 464 154 447 Q 138 430 109 429 Z" stroke-linecap="round"></path>
</g>
		<g transform="matrix(0.07 0 0 -0.07 0 -5.01)">
<rect style="stroke: rgb(0,0,0); stroke-width: 0; stroke-dasharray: none; stroke-linecap: butt; stroke-dashoffset: 0; stroke-linejoin: miter; stroke-miterlimit: 4; fill: rgb(0,0,0); fill-rule: nonzero; opacity: 1;" x="-326.25" y="-30" rx="0" ry="0" width="652.5" height="60"></rect>
</g>
</g>
</g>
<g transform="matrix(1 0 0 1 127 94.9)">
<path style="stroke: rgb(0,0,0); stroke-width: 1; stroke-dasharray: none; stroke-linecap: round; stroke-dashoffset: 0; stroke-linejoin: round; stroke-miterlimit: 10; fill: none; fill-rule: nonzero; opacity: 1;" transform=" translate(-226, -290.9)" d="M 77.999 120.39999961853027 Q 78 120.39999961853027 226 290.8999996185303 L 374.001 461.3999996185303" stroke-linecap="round"></path>
</g>
<g transform="matrix(1 0 0 1 223 47.9)">
<path style="stroke: rgb(0,0,0); stroke-width: 1; stroke-dasharray: none; stroke-linecap: round; stroke-dashoffset: 0; stroke-linejoin: round; stroke-miterlimit: 10; fill: none; fill-rule: nonzero; opacity: 1;" transform=" translate(-322, -243.9)" d="M 373.999 461.3999996185303 Q 374 461.3999996185303 322 243.89999961853027 L 270.001 26.399999618530273" stroke-linecap="round"></path>
</g>
<g transform="matrix(1 0 0 1 226 243.9)">
<g style="">
		<g transform="matrix(1 0 0 1 0 47)">
<path style="stroke: rgb(0,0,0); stroke-width: 1; stroke-dasharray: none; stroke-linecap: round; stroke-dashoffset: 0; stroke-linejoin: round; stroke-miterlimit: 10; fill: none; fill-rule: nonzero; opacity: 1;" transform=" translate(-226, -290.9)" d="M 77.999 120.39999961853027 Q 78 120.39999961853027 226 290.8999996185303 L 374.001 461.3999996185303" stroke-linecap="round"></path>
</g>
		<g transform="matrix(1 0 0 1 96 0)">
<path style="stroke: rgb(0,0,0); stroke-width: 1; stroke-dasharray: none; stroke-linecap: round; stroke-dashoffset: 0; stroke-linejoin: round; stroke-miterlimit: 10; fill: none; fill-rule: nonzero; opacity: 1;" transform=" translate(-322, -243.9)" d="M 373.999 461.3999996185303 Q 374 461.3999996185303 322 243.89999961853027 L 270.001 26.399999618530273" stroke-linecap="round"></path>
</g>
</g>
</g>
<g transform="matrix(1 0 0 1 253 222.1)">
<path style="stroke: rgb(0,0,0); stroke-width: 1; stroke-dasharray: none; stroke-linecap: round; stroke-dashoffset: 0; stroke-linejoin: round; stroke-miterlimit: 10; fill: none; fill-rule: nonzero; opacity: 1;" transform=" translate(-253, -222.1)" d="M 373.999 461.6000003814697 Q 374 461.6000003814697 253 222.10000038146973 L 132.001 -17.399999618530273" stroke-linecap="round"></path>
</g>
<g transform="matrix(1 0 0 1 325.5 389.1)">
<path style="stroke: rgb(0,0,0); stroke-width: 1; stroke-dasharray: none; stroke-linecap: round; stroke-dashoffset: 0; stroke-linejoin: round; stroke-miterlimit: 10; fill: none; fill-rule: nonzero; opacity: 1;" transform=" translate(-325.5, -389.1)" d="M 319 398.6010003814697 Q 319 398.6000003814697 319 397.6000003814697 Q 319 396.6000003814697 319 396.1000003814697 Q 319 395.6000003814697 319 395.1000003814697 Q 319 394.6000003814697 319 394.1000003814697 Q 319 393.6000003814697 319 393.1000003814697 Q 319 392.6000003814697 319 391.6000003814697 Q 319 390.6000003814697 319 390.1000003814697 Q 319 389.6000003814697 319 388.6000003814697 Q 319 387.6000003814697 319 387.1000003814697 Q 319 386.6000003814697 319 385.6000003814697 Q 319 384.6000003814697 319 384.1000003814697 Q 319 383.6000003814697 319 383.1000003814697 Q 319 382.6000003814697 319.5 382.6000003814697 Q 320 382.6000003814697 320 381.6000003814697 Q 320 380.6000003814697 320.5 380.1000003814697 Q 321 379.6000003814697 321.5 379.6000003814697 Q 322 379.6000003814697 322.5 379.6000003814697 Q 323 379.6000003814697 323.5 379.6000003814697 Q 324 379.6000003814697 324.5 379.6000003814697 Q 325 379.6000003814697 325.5 379.6000003814697 Q 326 379.6000003814697 326.5 379.6000003814697 Q 327 379.6000003814697 327.5 379.6000003814697 Q 328 379.6000003814697 328.5 379.6000003814697 Q 329 379.6000003814697 329.5 379.6000003814697 Q 330 379.6000003814697 331 380.1000003814697 L 332.001 380.6010003814697" stroke-linecap="round"></path>
</g>
<g transform="matrix(1 0 0 1 342.5 374.1)">
<path style="stroke: rgb(0,0,0); stroke-width: 1; stroke-dasharray: none; stroke-linecap: round; stroke-dashoffset: 0; stroke-linejoin: round; stroke-miterlimit: 10; fill: none; fill-rule: nonzero; opacity: 1;" transform=" translate(-342.5, -374.1)" d="M 332 378.6010003814697 Q 332 378.6000003814697 332.5 378.6000003814697 Q 333 378.6000003814697 333 378.1000003814697 Q 333 377.6000003814697 333 377.1000003814697 Q 333 376.6000003814697 333.5 375.6000003814697 Q 334 374.6000003814697 334.5 374.6000003814697 Q 335 374.6000003814697 335.5 374.1000003814697 Q 336 373.6000003814697 336 372.6000003814697 Q 336 371.6000003814697 336.5 371.6000003814697 Q 337 371.6000003814697 337.5 371.6000003814697 Q 338 371.6000003814697 338.5 371.1000003814697 Q 339 370.6000003814697 339.5 370.1000003814697 Q 340 369.6000003814697 340.5 369.6000003814697 Q 341 369.6000003814697 341.5 369.6000003814697 Q 342 369.6000003814697 343 369.6000003814697 Q 344 369.6000003814697 345 369.6000003814697 Q 346 369.6000003814697 346.5 369.6000003814697 Q 347 369.6000003814697 347.5 369.6000003814697 Q 348 369.6000003814697 349 370.1000003814697 Q 350 370.6000003814697 350.5 370.6000003814697 Q 351 370.6000003814697 351.5 371.1000003814697 Q 352 371.6000003814697 352 372.1000003814697 Q 352 372.6000003814697 352.5 373.6000003814697 L 353.001 374.6010003814697" stroke-linecap="round"></path>
</g>
<g transform="matrix(0.5 0 0 0.5 307.58 360.94)">
<g style="">
		<g transform="matrix(0.05 0 0 -0.05 -0.08 -27.05)">
<path style="stroke: rgb(0,0,0); stroke-width: 0; stroke-dasharray: none; stroke-linecap: butt; stroke-dashoffset: 0; stroke-linejoin: miter; stroke-miterlimit: 4; fill: rgb(0,0,0); fill-rule: nonzero; opacity: 1;" transform=" translate(-318.5, -215.5)" d="M 34 156 Q 34 270 120 356 Q 206 442 309 442 Q 379 442 421 402 Q 463 362 478 304 Q 484 275 485 237 L 485 208 Q 534 282 560 374 Q 564 388 566 390 Q 568 392 582 393 Q 603 393 603 385 Q 603 376 594 346 Q 585 316 558 261 Q 531 206 497 161 L 486 147 L 487 123 Q 489 67 495 47 Q 501 27 514 26 Q 528 28 540 37 Q 552 46 557 60 Q 559 67 562 68 Q 565 69 577 70 Q 597 70 597 62 Q 597 56 591 43 Q 579 19 556 5 Q 533 -9 512 -10 L 505 -10 Q 438 -10 414 62 L 411 69 L 400 61 Q 390 53 370 41 Q 350 29 325 18 Q 300 7 267 -2 Q 234 -11 203 -11 Q 124 -11 79 39 Q 34 89 34 156 Z M 208 26 Q 257 26 306 47 Q 355 68 379 90 L 403 112 Q 401 255 396 290 Q 382 405 304 405 Q 235 405 183 332 Q 156 292 139 224 Q 122 156 121 120 Q 121 71 146 49 Q 171 27 208 26 Z" stroke-linecap="round"></path>
</g>
		<g transform="matrix(0.05 0 0 -0.05 -0.02 21.73)">
<path style="stroke: rgb(0,0,0); stroke-width: 0; stroke-dasharray: none; stroke-linecap: butt; stroke-dashoffset: 0; stroke-linejoin: miter; stroke-miterlimit: 4; fill: rgb(0,0,0); fill-rule: nonzero; opacity: 1;" transform=" translate(-249.5, -333)" d="M 109 429 Q 82 429 66 447 Q 50 465 50 491 Q 50 562 103 614 Q 156 666 235 666 Q 326 666 387 610 Q 448 554 449 465 Q 449 422 429 383 Q 409 344 381 315 Q 353 286 301 241 Q 265 210 201 149 L 142 93 L 218 92 Q 375 92 385 97 Q 392 99 409 186 L 409 189 L 449 189 L 449 186 Q 448 183 436 95 Q 424 7 421 3 L 421 0 L 50 0 L 50 19 L 50 31 Q 50 38 56 46 Q 62 54 86 81 Q 115 113 136 137 Q 145 147 170 174 Q 195 201 204 211 Q 213 221 233 244 Q 253 267 261 278 Q 269 289 284 308 Q 299 327 305 340 Q 311 353 320 369 Q 329 385 333 401 Q 337 417 340 431 Q 343 445 343 464 Q 343 527 309 573 Q 275 619 212 619 Q 179 619 154 602 Q 129 585 119 569 Q 109 553 109 550 Q 109 549 114 549 Q 132 549 151 535 Q 170 521 170 489 Q 170 464 154 447 Q 138 430 109 429 Z" stroke-linecap="round"></path>
</g>
		<g transform="matrix(0.07 0 0 -0.07 0 -5.01)">
<rect style="stroke: rgb(0,0,0); stroke-width: 0; stroke-dasharray: none; stroke-linecap: butt; stroke-dashoffset: 0; stroke-linejoin: miter; stroke-miterlimit: 4; fill: rgb(0,0,0); fill-rule: nonzero; opacity: 1;" x="-326.25" y="-30" rx="0" ry="0" width="652.5" height="60"></rect>
</g>
</g>
</g>
<g transform="matrix(1.92 8.06 -0.99 0.24 251.56 56.26)">
<rect style="stroke: none; stroke-width: 1; stroke-dasharray: none; stroke-linecap: butt; stroke-dashoffset: 0; stroke-linejoin: miter; stroke-miterlimit: 4; fill: rgb(39,118,33); fill-rule: nonzero; opacity: 0.8;" x="-25" y="-25" rx="0" ry="0" width="50" height="50"></rect>
</g>
<g transform="matrix(1 0.02 -0.02 1 214.82 419.46)" style="">
		<text xml:space="preserve" font-family="helvetica" font-size="20" font-style="normal" style="stroke: none; stroke-width: 1; stroke-dasharray: none; stroke-linecap: butt; stroke-dashoffset: 0; stroke-linejoin: miter; stroke-miterlimit: 4; fill: rgb(251,132,238); fill-rule: nonzero; opacity: 1; white-space: pre;"><tspan x="-70.98" y="6.28">strokeWidth / 2</tspan></text>
</g>
<g transform="matrix(5.45 6.25 -0.8 0.7 116.34 125.07)">
<rect style="stroke: none; stroke-width: 1; stroke-dasharray: none; stroke-linecap: butt; stroke-dashoffset: 0; stroke-linejoin: miter; stroke-miterlimit: 4; fill: rgb(39,118,33); fill-rule: nonzero; opacity: 0.8;" x="-25" y="-25" rx="0" ry="0" width="50" height="50"></rect>
</g>
<g transform="matrix(0.44 0.9 -0.9 0.44 202.29 79.08)" style="">
		<text xml:space="preserve" font-family="helvetica" font-size="20" font-style="normal" style="stroke: none; stroke-width: 1; stroke-dasharray: none; stroke-linecap: butt; stroke-dashoffset: 0; stroke-linejoin: miter; stroke-miterlimit: 4; fill: rgb(251,132,238); fill-rule: nonzero; opacity: 1; white-space: pre;"><tspan x="-37.09" y="6.28">bisector</tspan></text>
</g>
<g transform="matrix(0.42 0.91 -0.91 0.42 316.29 319.08)" style="">
		<text xml:space="preserve" font-family="helvetica" font-size="20" font-style="normal" style="stroke: none; stroke-width: 1; stroke-dasharray: none; stroke-linecap: butt; stroke-dashoffset: 0; stroke-linejoin: miter; stroke-miterlimit: 4; fill: rgb(251,132,238); fill-rule: nonzero; opacity: 1; white-space: pre;"><tspan x="-37.09" y="6.28">miter</tspan></text>
</g>
<g transform="matrix(1 0 0 1 236 340.9)">
<path style="stroke: rgb(0,0,0); stroke-width: 1; stroke-dasharray: none; stroke-linecap: round; stroke-dashoffset: 0; stroke-linejoin: round; stroke-miterlimit: 10; fill: none; fill-rule: nonzero; opacity: 1;" transform=" translate(-236, -340.9)" d="M 204.999 392.40099961853025 Q 205 392.3999996185303 205.5 392.3999996185303 Q 206 392.3999996185303 206.5 391.8999996185303 Q 207 391.3999996185303 207.5 390.3999996185303 Q 208 389.3999996185303 208 387.8999996185303 Q 208 386.3999996185303 208.5 384.8999996185303 Q 209 383.3999996185303 210 382.8999996185303 Q 211 382.3999996185303 211.5 379.8999996185303 Q 212 377.3999996185303 212 376.8999996185303 Q 212 376.3999996185303 213.5 375.8999996185303 Q 215 375.3999996185303 215.5 373.3999996185303 Q 216 371.3999996185303 216.5 370.8999996185303 Q 217 370.3999996185303 218 369.3999996185303 Q 219 368.3999996185303 219.5 366.8999996185303 Q 220 365.3999996185303 221 364.3999996185303 Q 222 363.3999996185303 223.5 361.3999996185303 Q 225 359.3999996185303 226.5 357.3999996185303 Q 228 355.3999996185303 228.5 354.3999996185303 Q 229 353.3999996185303 230.5 352.8999996185303 Q 232 352.3999996185303 233 351.8999996185303 Q 234 351.3999996185303 234.5 350.8999996185303 Q 235 350.3999996185303 235.5 349.8999996185303 Q 236 349.3999996185303 237.5 348.3999996185303 Q 239 347.3999996185303 239.5 347.3999996185303 Q 240 347.3999996185303 241 347.3999996185303 Q 242 347.3999996185303 243 346.3999996185303 Q 244 345.3999996185303 244 344.8999996185303 Q 244 344.3999996185303 245 344.3999996185303 Q 246 344.3999996185303 246.5 343.3999996185303 Q 247 342.3999996185303 248 342.3999996185303 Q 249 342.3999996185303 250 341.3999996185303 Q 251 340.3999996185303 251.5 339.8999996185303 Q 252 339.3999996185303 252.5 339.3999996185303 Q 253 339.3999996185303 254 338.8999996185303 Q 255 338.3999996185303 255.5 336.8999996185303 Q 256 335.3999996185303 256.5 335.3999996185303 Q 257 335.3999996185303 258 334.3999996185303 Q 259 333.3999996185303 259.5 332.8999996185303 Q 260 332.3999996185303 260 331.8999996185303 Q 260 331.3999996185303 260 329.8999996185303 Q 260 328.3999996185303 260 327.8999996185303 Q 260 327.3999996185303 260 325.3999996185303 Q 260 323.3999996185303 261.5 322.8999996185303 Q 263 322.3999996185303 263.5 320.8999996185303 Q 264 319.3999996185303 264 317.8999996185303 Q 264 316.3999996185303 264.5 315.8999996185303 Q 265 315.3999996185303 265.5 313.8999996185303 Q 266 312.3999996185303 266 311.8999996185303 Q 266 311.3999996185303 266 310.3999996185303 Q 266 309.3999996185303 266 308.3999996185303 Q 266 307.3999996185303 266 306.8999996185303 Q 266 306.3999996185303 266 305.8999996185303 Q 266 305.3999996185303 266 304.3999996185303 Q 266 303.3999996185303 266 302.3999996185303 Q 266 301.3999996185303 266 300.3999996185303 Q 266 299.3999996185303 265.5 299.3999996185303 Q 265 299.3999996185303 264.5 299.3999996185303 Q 264 299.3999996185303 264 298.3999996185303 Q 264 297.3999996185303 263.5 296.8999996185303 Q 263 296.3999996185303 261.5 295.3999996185303 Q 260 294.3999996185303 258.5 293.3999996185303 Q 257 292.3999996185303 256.5 291.8999996185303 Q 256 291.3999996185303 255.5 290.8999996185303 Q 255 290.3999996185303 254.5 290.3999996185303 Q 254 290.3999996185303 254 290.8999996185303 Q 254 291.3999996185303 254 291.8999996185303 Q 254 292.3999996185303 254.5 293.3999996185303 Q 255 294.3999996185303 255.5 294.8999996185303 Q 256 295.3999996185303 256 295.8999996185303 Q 256 296.3999996185303 256 295.3999996185303 Q 256 294.3999996185303 256 293.3999996185303 Q 256 292.3999996185303 256 291.8999996185303 Q 256 291.3999996185303 256 290.3999996185303 Q 256 289.3999996185303 257 289.3999996185303 Q 258 289.3999996185303 258.5 289.3999996185303 Q 259 289.3999996185303 259.5 289.3999996185303 Q 260 289.3999996185303 260.5 289.8999996185303 Q 261 290.3999996185303 262 290.3999996185303 Q 263 290.3999996185303 263 290.8999996185303 Q 263 291.3999996185303 265 291.3999996185303 L 267.001 291.3999996185303" stroke-linecap="round"></path>
</g>
<g transform="matrix(0.5 0 0 0.5 201.23 8.21)" style="">
		<text xml:space="preserve" font-family="helvetica" font-size="40" font-style="normal" style="stroke: none; stroke-width: 1; stroke-dasharray: none; stroke-linecap: butt; stroke-dashoffset: 0; stroke-linejoin: miter; stroke-miterlimit: 4; fill: rgb(64,152,40); fill-rule: nonzero; opacity: 1; white-space: pre;"><tspan x="-14.44" y="12.57">C</tspan></text>
</g>
<g transform="matrix(0.5 0 0 0.5 252.67 216.21)" style="">
		<text xml:space="preserve" font-family="helvetica" font-size="40" font-style="normal" style="stroke: none; stroke-width: 1; stroke-dasharray: none; stroke-linecap: butt; stroke-dashoffset: 0; stroke-linejoin: miter; stroke-miterlimit: 4; fill: rgb(64,152,40); fill-rule: nonzero; opacity: 1; white-space: pre;"><tspan x="-13.34" y="12.57">A</tspan></text>
</g>
<g transform="matrix(0.5 0 0 0.5 82.67 12.21)" style="">
		<text xml:space="preserve" font-family="helvetica" font-size="40" font-style="normal" style="stroke: none; stroke-width: 1; stroke-dasharray: none; stroke-linecap: butt; stroke-dashoffset: 0; stroke-linejoin: miter; stroke-miterlimit: 4; fill: rgb(64,152,40); fill-rule: nonzero; opacity: 1; white-space: pre;"><tspan x="-13.34" y="12.57">B</tspan></text>
</g>
<g transform="matrix(0.5 0 0 0.5 225.58 316.22)" style="">
		<text xml:space="preserve" font-family="helvetica" font-size="40" font-style="normal" style="stroke: none; stroke-width: 1; stroke-dasharray: none; stroke-linecap: butt; stroke-dashoffset: 0; stroke-linejoin: miter; stroke-miterlimit: 4; fill: rgb(64,152,40); fill-rule: nonzero; opacity: 1; white-space: pre;"><tspan x="-17.16" y="12.57">B'</tspan></text>
</g>
<g transform="matrix(0.5 0 0 0.5 355.13 255.22)" style="">
		<text xml:space="preserve" font-family="helvetica" font-size="40" font-style="normal" style="stroke: none; stroke-width: 1; stroke-dasharray: none; stroke-linecap: butt; stroke-dashoffset: 0; stroke-linejoin: miter; stroke-miterlimit: 4; fill: rgb(64,152,40); fill-rule: nonzero; opacity: 1; white-space: pre;"><tspan x="-18.26" y="12.57">C'</tspan></text>
</g>
<g transform="matrix(0.5 0 0 0.5 389.58 478.22)" style="">
		<text xml:space="preserve" font-family="helvetica" font-size="40" font-style="normal" style="stroke: none; stroke-width: 1; stroke-dasharray: none; stroke-linecap: butt; stroke-dashoffset: 0; stroke-linejoin: miter; stroke-miterlimit: 4; fill: rgb(64,152,40); fill-rule: nonzero; opacity: 1; white-space: pre;"><tspan x="-17.16" y="12.57">A'</tspan></text>
</g>
</svg>