<?xml version="1.0" encoding="utf-8"?>
<!-- Generator: Adobe Illustrator 15.0.1, SVG Export Plug-In  -->
<!DOCTYPE svg PUBLIC "-//W3C//DTD SVG 1.1 Tiny//EN" "http://www.w3.org/Graphics/SVG/1.1/DTD/svg11-tiny.dtd" [
	<!ENTITY ns_flows "http://ns.adobe.com/Flows/1.0/">
]>
<svg version="1.1" baseProfile="tiny"
	 xmlns="http://www.w3.org/2000/svg" xmlns:xlink="http://www.w3.org/1999/xlink" xmlns:a="http://ns.adobe.com/AdobeSVGViewerExtensions/3.0/"
	 x="0px" y="0px" width="378px" height="120px" viewBox="-0.42 -0.37 378 120" overflow="visible" xml:space="preserve">
<defs>
</defs>
<path fill="#5A3D1C" d="M102.92,11.07c-1.31,3.02-1.9,6.52-2.11,9.75c-0.15,2.23-0.07,4.52,0.44,6.7c0.39,1.7,1.11,3.26,1.89,4.8
	c1.37,2.71,2.81,5.12,5.08,7.17c1.09,0.99,2.21,1.84,3.48,2.55c-0.02-0.04-0.05-0.07-0.08-0.11c-0.5-0.76-0.98-1.52-1.44-2.29
	c-0.31-0.53-0.47-1.05-0.68-1.61c-0.25-0.7-0.61-1.36-0.91-2.04c-0.28-0.63-0.42-1.29-0.63-1.94c-0.26-0.76-0.6-1.48-0.8-2.26
	c-0.34-1.32-0.59-2.63-0.85-3.96c-0.25-1.25-0.37-2.53-0.39-3.8c0.04,0.27,0.15,0.53,0.22,0.81c0.17,0.68,0.26,1.39,0.48,2.06
	c0.38,1.16,0.9,2.25,1.39,3.36c0.52,1.16,1.09,2.37,1.82,3.41c1.16,1.65,2.34,3.28,3.57,4.87c0-0.17,0-0.35,0.01-0.53
	c0.05-1.32-0.02-2.6,0.32-3.88c0.85-3.21,1.84-6.41,1.29-9.76c-0.25-1.5-0.51-3.25-1.49-4.47c-1.24-1.53-3.19-2.63-4.86-3.62
	C107.02,15.33,102.16,13.72,102.92,11.07z M99.28,19.11c0.52-5.66,0.46-11.72-6.15-13.84c-0.67-0.21-1.79-0.48-2.17-1.12
	c-0.33-0.56-0.52-1.26-0.46-1.9c-1.04,2.13-2.19,4-2.26,6.46c-0.12,3.67,1.42,6.34,4.34,8.47c1.32,0.97,5.08,2.78,5.49,4.41
	c-0.37-1.49-0.83-2.94-1.5-4.33c-1.06-2.21-2.98-4.48-3.5-6.87c0.1,0.46,1.69,1.55,2.1,2.05c0.9,1.1,1.66,2.33,2.33,3.58
	c0.61,1.15,1.2,2.3,1.74,3.48C99.25,19.37,99.26,19.24,99.28,19.11z M85.46,24.65c-0.41-0.9-0.79-1.81-1.21-2.71
	c-0.59-1.27-1.39-2.57-2.16-3.73c-0.63-0.95-1.2-1.99-2.37-2.28c-1.09-0.27-2.13-0.18-3.24-0.07c-1.71,0.17-3.4,0.51-5.11,0.7
	c-1.33,0.15-2.39,0.05-3.64-0.44c-0.61-0.24-0.93-0.59-1.42-0.98c0.31,2,1.07,3.96,2.09,5.7c1.56,2.67,3.84,4.31,6.77,5.21
	c2.18,0.68,4.44,1.04,6.7,1.31c1.13,0.14,2.26,0.26,3.38,0.48c-1.52-0.81-3.05-1.59-4.53-2.48c-1.54-0.92-3.06-1.75-4.73-2.41
	c-0.6-0.23-1.23-0.34-1.83-0.58c-0.46-0.18-0.9-0.4-1.37-0.53c0.06-0.31,0.66,0.04,0.88,0.06c0.64,0.05,1.28-0.08,1.92,0.02
	c2.05,0.31,4.12,0.58,6.1,1.24C82.91,23.59,84.21,24.07,85.46,24.65z M89.28,19.07c-0.98-0.13-2.17-0.11-2.94-0.85
	c-0.63-0.6-1.03-1.4-1.26-2.22c-0.41,0.26,0.14,1.69,0.22,2.07c0.23,1.13,0.54,2.32,0.96,3.39c1.79,4.58,4.37,7.86,8.6,10.44
	c0.62,0.38,3.23,1.31,4.95,2.16c-1.07-1.47-1.93-3.08-3.03-4.51c-1.25-1.62-2.31-3.42-3.57-5.04c-0.4-0.36-0.78-0.77-0.94-1.13
	c0.33,0.36,0.64,0.74,0.94,1.13c0.31,0.28,0.63,0.54,0.86,0.72c1.54,1.22,2.61,2.73,3.75,4.31c1.15,1.6,2.12,3.33,3.34,4.88l0,0
	c-1.3-4.67-2.42-10.24-5.85-13.8C93.81,19.09,91.2,19.33,89.28,19.07z M114.99,17.29c1.61-2.29,3.99-4.54,3.33-7.46
	c-0.46-2.04-1.95-3.56-3.65-4.68c-1.39-0.91-3.18-2.24-2.52-4.14c-2.92,3.37-4.45,7.57-3.7,12.03c0.26,1.56,1.18,2.84,2.51,3.7
	c0.54,0.35,1.12,0.58,1.68,0.88c0.51,0.26,0.92,0.66,1.32,1.06c-0.06-0.97-0.28-1.88-0.35-2.86c-0.11-1.47-0.47-2.94-0.85-4.36
	c-0.18-0.67-0.5-1.7-0.41-2.4c-0.04,0.49,0.45,1.12,0.58,1.59c0.17,0.59,0.28,1.17,0.48,1.75c0.29,0.84,0.74,1.61,1.02,2.45
	C114.7,15.65,114.88,16.46,114.99,17.29z M177,44.55c0.88-1.37,1.65-2.78,2.18-4.32c-1.68,4.89-13.17-2.68-16.75,1.09
	c-0.95,1-1.51,2.32-2.42,3.33c-0.19,0.22-1.87,3.17-2,3.16c4.25,0.4,8.77,0,12.89-1.15c-3.86,2.06-7.93,2.99-12.24,3.56
	c1.29,0.3,2.6,0.16,3.91,0.17C168.01,50.4,173.81,49.55,177,44.55z M271.46,105.01V65.58c0-7.6-6.16-13.77-13.77-13.77H126.45
	c-2.03-1.16-3.89-2.43-5.41-4.29c-2.75-3.36-3.8-8.87-1.76-12.86c3.26-6.38,14.13-7.33,19.46-3.5c3.35,2.41,5.25,6.83,4.18,10.9
	c-1.24,4.72-6.76,8.26-11.53,7.9c-2.44-0.18-4.46-1.52-6.05-3.3c-1.48-1.65-2.9-3.77-2.92-6.07c-0.02-2.9,2.28-5.17,4.81-6.19
	c2.86-1.16,6.49-0.96,8.82,1.22c1.84,1.72,2.5,4.73,0.52,6.61c-1.54,1.47-4.2,1.82-6.12,0.96c-1.46-0.66-2.3-2.34-1.21-3.73
	c0.21-0.27,0.45-0.46,0.7-0.6c-0.25,0.37-0.4,0.82-0.4,1.3c0,1.29,1.04,2.33,2.33,2.33c1.29,0,2.33-1.04,2.33-2.33
	c0-2.37-3.57-3.01-4.98-1.83c-1.53,1.27-1.76,3.87-0.24,5.29c1.71,1.6,4.55,1.52,6.56,0.58c1.93-0.91,3-2.71,2.84-4.83
	c-0.15-2.08-1.19-4.23-2.78-5.58c-1.84-1.57-4.36-1.89-6.69-1.51c-2.3,0.37-4.69,1.42-6.14,3.32c-1.31,1.73-1.63,4-1.34,6.11
	c0.67,4.77,4.57,7.84,9.13,8.7c4.46,0.84,9.36-0.85,12.4-4.23c4.31-4.79,2.91-12.53-1.96-16.4c-2.8-2.22-6.42-2.96-9.92-2.88
	c-3.18,0.08-6.5,0.71-9.37,2.14c-3.34,1.66-6.18,7.37-5.88,10.95c0.33,3.91,4.11,9.69,7.6,11.83h-0.46
	c-14.93-6.95-25.91-22.12-43.2-23.58c-6.52-0.55-14.23,0.57-19.04,5.43c-3.82,3.85-5.09,9.71-4.54,14.98
	c0.55,5.25,3.3,9.75,8.16,12.02c5.29,2.48,12.33,2.54,17.15-1.04c5.8-4.3,5.91-12.59,1.18-17.75c-4.39-4.79-14-6.84-18.19-0.61
	c-3.36,4.98,1.05,11.2,6.29,12.3c3.65,0.76,5.69-3.17,3.86-5.91c-1.74-2.61-5.8-2.11-5.79,1.57c0,0.51,0.12,1,0.31,1.44
	c-0.29-0.17-0.57-0.36-0.81-0.55c-1.66-1.29-2.9-3.39-2.52-5.56c0.39-2.22,2.34-3.73,4.41-4.34c10.44-3.05,17.27,13.12,7.69,18.43
	c-5.55,3.08-12.75,0.77-16.54-4c-3.69-4.63-4.69-11.96-1.05-16.92c3.74-5.11,13.29-6.5,18.96-5.86c6.56,0.75,14.58,3.76,19.67,8.11
	c4,3.42,6.97,7.83,11.09,11.14c0.83,0.66,1.72,1.33,2.66,1.95c-4.74,2.18-8.03,6.96-8.03,12.51v39.43c0,7.6,6.16,13.77,13.77,13.77
	h139.24C265.29,118.78,271.46,112.61,271.46,105.01z M266.3,99.9c0,7.67-6.28,13.88-14.02,13.88H124.33
	c-7.74,0-14.02-6.21-14.02-13.88V70.04c0-7.67,6.28-13.88,14.02-13.88h127.95c7.74,0,14.02,6.21,14.02,13.88V99.9z M131.37,19.48
	c0.42-2.2-0.32-4.39-0.78-6.52c-1.11,2.29-3.74,2.56-6.02,2.78c-2.49,0.24-4.86,0.21-6.8,1.98c-0.66,0.6-1.19,1.26-1.27,2.17
	c-0.09,0.98-0.03,2.01,0,2.99c0.04,0.96,0.22,1.89,0.45,2.82c0.75-0.93,1.67-1.75,2.6-2.47c0.66-0.51,1.44-0.93,2.18-1.29
	c0.59-0.29,1.12-0.4,1.76-0.54c0.85-0.19,1.71-0.26,2.6-0.23c-0.15,0.21-0.5,0.27-0.73,0.35c-0.42,0.13-0.66,0.25-0.99,0.55
	c-0.43,0.38-0.96,0.59-1.4,0.95c-0.59,0.49-1.13,1.03-1.67,1.58c-1.04,1.05-2.03,2.25-2.52,3.67c-0.09,0.27-0.18,0.61-0.24,0.93
	c1.08-0.86,2.18-1.38,3.54-1.8c1.85-0.57,3.78-1.4,5.47-2.33C129.54,23.98,130.95,21.69,131.37,19.48z M173.81,29.45
	c0.13-1.06,0.23-2.15,0.12-3.21c-0.06-0.55-0.17-1.09-0.18-1.64c-0.54,0.28-0.61,1.12-1.1,1.52c-0.84,0.67-1.92,1.05-2.99,1.05
	c-2.98,0-5.33-0.38-7.01,2.58c-0.49,0.87-0.32,1.79-0.3,2.75c0.02,1.42,0.25,2.87,0.55,4.27c0.04,0.17,6.69-5.13,7.17-5.93
	c-1.04,3.05-2.98,5.01-5.02,7.43c-0.32,0.38-0.73,0.68-1.15,0.96c0.66-0.15,1.32-0.32,1.96-0.51
	C170.43,37.39,173.23,34.24,173.81,29.45z M160.48,36.51c0.03-0.78-1.06-5.75-0.71-6.14c-0.27,0.3-0.05,0.66-0.16,1
	c-0.08,0.27-0.32,0.79-0.49,1.01c-1.44,1.88-5.64,1.84-7.73,2.43c-0.98,0.28-1.95,0.6-2.66,1.36c-2.29,2.45-0.58,10.52-3.4,11.79
	c1.25-0.56,2.49-1.14,3.72-1.72c2.41-1.12,5.31-2.25,6.52-4.8c-0.48,2.24-1.81,4.25-3.55,5.71c-1.62,1.36-3.66,2.93-5.81,3.25
	c2.29,0.12,4.52-0.84,6.63-1.62c1.53-0.57,2.87-1.97,4.03-3.09c1.88-1.83,2.95-4.36,3.39-6.94C160.39,38,160.46,37.25,160.48,36.51z
	 M143.17,19.56c0.25-1.3,0.35-2.67,0.69-3.97c-1.1,4.22-9.43-0.19-11.17,4.75c-0.28,0.81-0.75,1.84-0.7,2.78
	c0.75-0.13,1.5-0.29,2.26-0.49c1.41-0.37,3.67-0.69,4.77-1.7c0.05-0.05,0.1-0.09,0.15-0.12c-1.3,1.41-2.25,2.79-4.01,3.72
	c-1.06,0.56-2.25,0.77-3.4,1.03c2.51,0.69,7.15-0.06,9.17-1.75C142.36,22.62,142.87,21.14,143.17,19.56z M86.98,40.49
	c0.15,2.3,0.69,4.45,1.94,6.42c1.5,2.37,3.65,4.85,5.93,6.5c2.24,1.62,5.13,2.2,7.86,2.15c1.55-0.03,3.21-0.26,4.66-0.91
	c-0.54,0.06-1.05,0.06-1.65,0.07c-3.96,0.07-9.44-1.68-11.26-5.5c0.47,0.11,0.81,0.34,1.24,0.55c0.44,0.22,0.83,0.48,1.25,0.73
	c2.74,1.65,6.68,2.81,9.86,2.26c-0.22-0.44-0.57-0.74-0.88-1.14c-0.91-1.14-1.76-2.33-2.76-3.39c-1.63-1.73-3.32-3.42-5.2-4.87
	C95.78,41.69,87.21,44.05,86.98,40.49z M89.75,80.51c0.33-4.36,7.04-5.88,9.59-8.47c2.18-2.21,3.14-5.39,3.9-8.31
	c0.34-1.3,0.64-2.52,1.08-3.79c0.09-0.27,0.18-0.55,0.27-0.84c-1.64,1.23-3.34,2.51-4.68,4.06c-1.47,1.7-2.82,3.27-3.7,5.36
	c-0.3,0.71-0.81,1.4-1.27,2.01c1.6-3.5,2.58-7.51,5.42-10.27c1.22-1.18,2.59-1.76,4.18-2.26c0.13-0.04,0.26-0.08,0.4-0.12
	c0.03-0.12,0.07-0.25,0.1-0.37c0.06-0.01,0.12-0.03,0.19-0.04c-0.7,0.03-1.4-0.07-2.09-0.02c-0.96,0.08-1.9,0.45-2.84,0.63
	c-2.7,0.51-5.69,1.29-7.87,3.06C87.09,65.5,90.19,74.75,89.75,80.51z M159.02,17.16c0.02-1.37-0.06-2.72-0.21-3.97
	c-0.04-0.31,0.05-0.59-0.05-0.89c-3.38,5.32-12.62,1.79-13.7,9.14c-0.2,1.34,1.56,9.37,0.89,9.95c0.01-0.01,0.02-0.01,0.03-0.02
	c0.92-0.71,1.67-1.49,2.52-2.28c1.56-1.45,3.01-3.15,4.29-4.85c0.55-0.73,1.04-1.41,1.4-2.24c0.06,0.82-0.47,2-0.77,2.77
	c-0.66,1.65-1.35,3.31-2.46,4.75c-0.73,0.95-1.66,1.81-2.64,2.58c1.03-0.1,2.16-0.38,3.11-0.73
	C157.22,29.21,158.96,22.92,159.02,17.16z M94.34,82.38c-0.7,1.62-1.11,3.16-1.12,4.92c-0.04,5.43,2.83,11.48,4.99,16.35
	c0.37-0.65,0.79-1.35,1.25-1.98c0.8-1.11,1.51-2.34,2.08-3.59c1.42-3.1,1.99-6.71,2.07-10.09c0.07-3.12-0.74-6.26-1.38-9.3
	c-0.06-0.28-0.14-0.55-0.2-0.82c-0.06,1.67-0.23,3.34-0.43,4.94c-0.33,2.64-1.06,5.77-2.25,8.15c0.68-1.37,0.73-5.38,0.9-7.14
	c0.27-2.79,0.06-5.7-0.67-8.42c-0.51,0.29-0.88,0.71-1.29,1.14C96.63,78.29,95.3,80.16,94.34,82.38z M29.47,35.4
	c-1.79-2.34-1.49-5.58-3.31-7.94c-0.82-1.05-2.09-1.98-3.43-1.91c-0.13,1.94,0.18,4.04,0.26,6.05c-0.1-1.32-0.44-2.27-0.9-3.67
	c-0.26-0.82-0.64-1.62-1.04-2.38c-1.28,0.29-2.47,0.95-3.62,1.6c1.61,2.12,2.22,4.5,3.2,6.93c-0.74-1.82-2.36-3.41-3.51-4.99
	c-0.32-0.44-0.71-0.82-1.11-1.17c-2.31,1.17-5.48,2.26-7.34-0.14c0.78,1.29,1.59,2.54,2.46,3.76c1.37,1.93,3.01,3.46,4.93,4.84
	c2.23,1.6,4.78,2.31,7.47,2.7c4.24,0.61,8.78,0.66,13.01-0.02c2.57-0.42,5.05-1.21,7.52-2.02c2.15-0.7,4.31-1.37,6.4-2.25
	c7.35-3.08,14.09-8.29,22.43-8.05c-4.84-0.18-9.42,1.32-13.91,2.95c-4.08,1.48-7.96,3.11-11.85,5.03
	c-3.61,1.79-7.59,3.24-11.65,3.33C33.16,38.11,30.91,37.29,29.47,35.4z M33.74,62.26c0.51-3.47,2.69-3.01,4.34-5.32
	c1.28-1.79,0.33-4.68,0.43-6.74c0.53,2.05,0.57,4.52,1.76,6.33c3.35-0.28,1.14-3.06,0.4-4.92c-0.15-0.38-0.33-0.76-0.48-1.14
	c0.62,1.62,2.17,2.86,3.72,3.56c0.57-0.89,0.99-1.85,1.35-2.84c1.24-3.39,2.23-6.95,4.07-10.08c2.47-4.21,7.37-5.79,10.53-9.32
	c-1.72,1.92-4.35,2.43-6.59,3.5c-3.71,1.79-7.31,3.67-10.34,6.51C36.98,47.36,34.89,54.44,33.74,62.26z M15.45,41.88
	c-4.22,1.69-8.32,6.64-12.84,7.31c-0.47,0.07-1.63,0.44-2.27,0.24c0.71,0.46,1.46,0.85,2.19,1.27c1.72,0.98,3.42,2.05,5.27,2.77
	c2.5,0.97,5.24,1.11,7.88,1.29c2.46,0.17,4.89,0.11,7.32-0.3c4.08-0.69,8.3-2.64,11.48-5.31c1-0.85,2.09-1.73,2.66-2.94
	c0.18-0.39,0.35-0.78,0.59-1.11c-0.65,0.36-1.34,0.65-1.97,1.05c-2.42,1.55-5.38,2.68-8.14,3.49c-1.65,0.48-3.33,0.84-5.04,1.01
	c-0.58,0.06-2.08-0.14-3.28-0.18c-0.69-0.02-1.27,0.01-1.51,0.17c1.41-0.96,3.24-0.64,4.8-1.08c1.96-0.55,4.01-1.42,5.74-2.2
	c2.34-1.05,4.64-2.29,6.71-3.81c-0.56-0.16-1.12-0.33-1.7-0.46C27.46,41.85,21.41,39.49,15.45,41.88z M0,49.22
	c0.08,0.1,0.2,0.16,0.34,0.21C0.23,49.36,0.11,49.29,0,49.22z M46.12,26.08c-0.5-2.58-1.29-6.2-3.98-7.36
	c-2.61-1.13-6,0.08-8.54,0.94c-0.78,0.27-1.98,1.08-2.84,0.81c-0.64-0.19-1.09-0.97-1.47-1.47c-0.15,2.31,0.49,4.6,1.19,6.78
	c0.8,2.52,2.01,5.82,4.17,7.52c1.86,1.46,4.9,1.47,7.1,0.98c1.36-0.3,2.68-0.81,3.98-1.38c-1.29-0.45-2.35-1.01-3.33-2
	c-1.14-1.15-2.08-2.45-3.08-3.71c-0.57-0.72-1.14-1.57-1.42-2.47c0.79,0.53,1.46,1.07,2.17,1.77c1.36,1.35,2.6,2.91,4.17,4.03
	c0.86,0.61,1.81,0.97,2.8,1.21C46.99,29.83,46.48,27.93,46.12,26.08z M47.86,31.9L47.86,31.9l0.1-0.05
	C47.92,31.87,47.89,31.89,47.86,31.9z M52.31,40.41c-3.17,4.22-5.06,9.17-4.53,14.53c0.19,1.92,5.15,18.9,4.67,19.17
	c0.41-0.23,0.5-1.14,0.64-1.56c0.26-0.77,0.55-1.53,0.81-2.3c1.87-5.59,1.36-11.6,0.88-17.36c-0.24-2.85-0.56-5.8-0.99-8.61
	c-1.57,3.15-2.12,7.02-2.37,10.5c-0.17-3.95-1.71-10.25,0.6-13.95C52.11,40.68,52.21,40.54,52.31,40.41z M60.19,24.42
	c0.2,0.16,0.41,0.3,0.62,0.44c-1.7-6.36-3.26-15.08-12.4-12.47c-0.84,0.24-1.88,0.4-2.33-0.15c0.04,0.39,0.07,0.79,0.13,1.18
	c0.18,1.28,0.58,2.5,1.03,3.71c0.98,2.59,2.36,5.04,4.21,7.12c1.5,1.68,3.46,2.67,5.71,2.85c0.64,0.05,1.91,0.13,2.81-0.15
	c-1.07-0.86-1.93-1.93-2.83-2.96c-1.52-1.75-2.84-3.83-3.9-5.92c-0.11-0.14-0.2-0.29-0.24-0.46c0.07,0.15,0.16,0.31,0.24,0.46
	c0.25,0.33,0.63,0.6,0.92,0.85c1.17,1.02,2.27,2.17,3.41,3.23C58.42,22.93,59.29,23.71,60.19,24.42z"/>
<path fill="#5A3D1C" d="M268.27,15.3c-1.67,0.99-3.62,2.09-4.86,3.62c-0.99,1.22-1.25,2.97-1.49,4.47
	c-0.55,3.35,0.45,6.55,1.29,9.76c0.34,1.29,0.28,2.56,0.32,3.88c0.01,0.18,0.01,0.36,0.01,0.53c1.23-1.59,2.41-3.22,3.57-4.87
	c0.73-1.04,1.3-2.25,1.82-3.41c0.5-1.11,1.01-2.21,1.39-3.36c0.22-0.67,0.32-1.38,0.48-2.06c0.07-0.28,0.18-0.54,0.22-0.81
	c-0.02,1.27-0.14,2.55-0.39,3.8c-0.26,1.33-0.51,2.64-0.85,3.96c-0.2,0.78-0.54,1.5-0.8,2.26c-0.22,0.65-0.36,1.31-0.63,1.94
	c-0.3,0.68-0.66,1.34-0.91,2.04c-0.2,0.56-0.36,1.08-0.68,1.61c-0.46,0.78-0.94,1.54-1.44,2.29c-0.02,0.04-0.05,0.07-0.08,0.11
	c1.27-0.71,2.38-1.56,3.48-2.55c2.27-2.05,3.71-4.46,5.08-7.17c0.78-1.55,1.5-3.11,1.89-4.8c0.51-2.19,0.58-4.47,0.44-6.7
	c-0.21-3.23-0.81-6.73-2.11-9.75C274.77,12.72,269.92,14.32,268.27,15.3z M277.69,18.5c0.54-1.18,1.12-2.33,1.74-3.48
	c0.67-1.25,1.43-2.48,2.33-3.58c0.41-0.49,2-1.59,2.1-2.05c-0.52,2.39-2.44,4.66-3.5,6.87c-0.67,1.39-1.12,2.84-1.5,4.33
	c0.41-1.63,4.17-3.44,5.49-4.41c2.92-2.14,4.46-4.8,4.34-8.47c-0.08-2.45-1.22-4.33-2.26-6.46c0.07,0.64-0.13,1.34-0.46,1.9
	c-0.38,0.64-1.5,0.91-2.17,1.12c-6.61,2.12-6.66,8.19-6.15,13.84C277.67,18.24,277.68,18.37,277.69,18.5z M295.26,22.18
	c1.98-0.66,4.05-0.93,6.1-1.24c0.64-0.1,1.28,0.02,1.92-0.02c0.22-0.02,0.82-0.38,0.88-0.06c-0.48,0.14-0.91,0.35-1.37,0.53
	c-0.6,0.24-1.24,0.35-1.83,0.58c-1.67,0.66-3.19,1.49-4.73,2.41c-1.48,0.89-3.01,1.67-4.53,2.48c1.12-0.22,2.25-0.34,3.38-0.48
	c2.26-0.28,4.52-0.64,6.7-1.31c2.93-0.91,5.21-2.54,6.77-5.21c1.02-1.74,1.78-3.7,2.09-5.7c-0.49,0.38-0.81,0.74-1.42,0.98
	c-1.24,0.49-2.31,0.58-3.64,0.44c-1.71-0.19-3.4-0.54-5.11-0.7c-1.11-0.11-2.15-0.2-3.24,0.07c-1.17,0.29-1.74,1.32-2.37,2.28
	c-0.77,1.16-1.58,2.47-2.16,3.73c-0.42,0.9-0.79,1.81-1.21,2.71C292.72,23.07,294.03,22.59,295.26,22.18z M281.63,19.64
	c-3.43,3.56-4.55,9.13-5.85,13.8l0,0c1.22-1.55,2.19-3.28,3.33-4.88c1.14-1.59,2.21-3.09,3.75-4.31c0.23-0.18,0.55-0.44,0.86-0.72
	c0.3-0.39,0.61-0.77,0.94-1.13c-0.16,0.36-0.54,0.77-0.94,1.13c-1.26,1.62-2.32,3.42-3.57,5.04c-1.11,1.43-1.96,3.04-3.03,4.51
	c1.72-0.85,4.33-1.78,4.95-2.16c4.23-2.58,6.82-5.85,8.6-10.44c0.42-1.07,0.73-2.27,0.96-3.39c0.08-0.38,0.62-1.81,0.21-2.07
	c-0.23,0.83-0.63,1.62-1.26,2.22c-0.77,0.73-1.96,0.71-2.94,0.85C285.73,18.33,283.13,18.09,281.63,19.64z M262.5,13.84
	c0.28-0.84,0.73-1.61,1.02-2.45c0.2-0.58,0.31-1.16,0.48-1.75c0.13-0.47,0.62-1.11,0.58-1.59c0.09,0.7-0.23,1.73-0.41,2.4
	c-0.38,1.42-0.74,2.89-0.85,4.36c-0.07,0.98-0.29,1.89-0.35,2.86c0.4-0.4,0.81-0.8,1.32-1.06c0.56-0.29,1.15-0.53,1.68-0.88
	c1.32-0.86,2.24-2.14,2.51-3.7c0.75-4.46-0.78-8.66-3.7-12.03c0.65,1.91-1.13,3.23-2.52,4.14c-1.7,1.12-3.19,2.64-3.65,4.68
	c-0.66,2.92,1.72,5.18,3.33,7.46C262.06,15.46,262.23,14.65,262.5,13.84z M214.37,49.38c1.31,0,2.62,0.13,3.91-0.17
	c-4.31-0.57-8.38-1.5-12.24-3.56c4.12,1.15,8.64,1.55,12.89,1.15c-0.13,0.01-1.8-2.94-2-3.16c-0.92-1.02-1.47-2.33-2.42-3.33
	c-3.59-3.77-15.08,3.8-16.75-1.09c0.53,1.54,1.3,2.95,2.18,4.32C203.13,48.55,208.93,49.4,214.37,49.38z M119.24,117.78h139.24
	c7.6,0,13.77-6.16,13.77-13.77V64.58c0-5.55-3.29-10.34-8.03-12.51c0.94-0.62,1.83-1.28,2.66-1.95c4.12-3.31,7.1-7.72,11.09-11.14
	c5.09-4.35,13.11-7.36,19.67-8.11c5.67-0.65,15.22,0.75,18.96,5.86c3.63,4.96,2.63,12.29-1.05,16.92c-3.79,4.76-10.99,7.07-16.54,4
	c-9.58-5.31-2.76-21.48,7.69-18.43c2.06,0.6,4.02,2.12,4.41,4.34c0.38,2.16-0.86,4.26-2.52,5.56c-0.24,0.19-0.51,0.37-0.81,0.55
	c0.2-0.44,0.31-0.93,0.32-1.44c0-3.68-4.05-4.18-5.79-1.57c-1.83,2.74,0.21,6.67,3.86,5.91c5.24-1.09,9.65-7.31,6.29-12.3
	c-4.19-6.23-13.81-4.18-18.19,0.61c-4.73,5.16-4.62,13.45,1.18,17.75c4.82,3.58,11.86,3.52,17.15,1.04
	c4.86-2.27,7.61-6.77,8.16-12.02c0.55-5.27-0.72-11.13-4.54-14.98c-4.81-4.85-12.52-5.98-19.04-5.43
	c-17.29,1.47-28.28,16.64-43.2,23.58h-0.46c3.48-2.14,7.27-7.92,7.6-11.83c0.3-3.58-2.53-9.29-5.88-10.95
	c-2.87-1.42-6.19-2.06-9.37-2.14c-3.5-0.08-7.13,0.66-9.92,2.88c-4.87,3.87-6.27,11.6-1.96,16.4c3.04,3.38,7.93,5.07,12.4,4.23
	c4.56-0.86,8.46-3.93,9.12-8.7c0.3-2.11-0.02-4.38-1.34-6.11c-1.44-1.9-3.83-2.95-6.14-3.32c-2.33-0.38-4.84-0.06-6.69,1.51
	c-1.6,1.36-2.63,3.5-2.78,5.58c-0.16,2.13,0.92,3.92,2.84,4.83c2,0.95,4.85,1.02,6.56-0.58c1.52-1.42,1.29-4.02-0.24-5.29
	c-1.42-1.18-4.98-0.54-4.98,1.83c0,1.29,1.04,2.33,2.33,2.33c1.29,0,2.33-1.04,2.33-2.33c0-0.48-0.15-0.93-0.4-1.3
	c0.25,0.14,0.49,0.33,0.7,0.6c1.09,1.39,0.25,3.07-1.21,3.73c-1.92,0.86-4.58,0.51-6.12-0.96c-1.97-1.88-1.32-4.89,0.52-6.61
	c2.33-2.18,5.96-2.38,8.82-1.22c2.54,1.03,4.84,3.3,4.82,6.19c-0.02,2.3-1.44,4.42-2.92,6.07c-1.6,1.78-3.62,3.12-6.05,3.3
	c-4.77,0.35-10.29-3.19-11.53-7.9c-1.07-4.07,0.82-8.49,4.18-10.9c5.34-3.83,16.2-2.89,19.46,3.5c2.04,3.99,0.99,9.5-1.76,12.86
	c-1.52,1.86-3.38,3.12-5.41,4.29H119.24c-7.6,0-13.77,6.16-13.77,13.77v39.43C105.48,111.61,111.64,117.78,119.24,117.78z
	 M110.64,69.04c0-7.67,6.28-13.88,14.02-13.88H252.6c7.74,0,14.02,6.21,14.02,13.88V98.9c0,7.67-6.28,13.88-14.02,13.88H124.65
	c-7.74,0-14.02-6.21-14.02-13.88V69.04z M249.39,24.07c1.69,0.93,3.62,1.76,5.47,2.33c1.36,0.42,2.46,0.94,3.54,1.8
	c-0.06-0.33-0.14-0.66-0.24-0.93c-0.49-1.42-1.47-2.62-2.52-3.67c-0.54-0.54-1.08-1.09-1.67-1.58c-0.43-0.36-0.97-0.57-1.39-0.95
	c-0.33-0.29-0.57-0.42-0.99-0.55c-0.23-0.07-0.59-0.14-0.73-0.35c0.88-0.04,1.75,0.04,2.6,0.23c0.64,0.14,1.17,0.25,1.76,0.54
	c0.75,0.37,1.52,0.79,2.18,1.29c0.93,0.72,1.84,1.54,2.6,2.47c0.23-0.92,0.41-1.86,0.45-2.82c0.04-0.98,0.1-2.01,0-2.99
	c-0.09-0.91-0.62-1.57-1.27-2.17c-1.94-1.78-4.31-1.75-6.8-1.98c-2.28-0.22-4.92-0.49-6.02-2.78c-0.46,2.13-1.2,4.33-0.78,6.52
	C245.99,20.69,247.4,22.98,249.39,24.07z M211.08,37.72c0.65,0.19,1.3,0.36,1.96,0.51c-0.43-0.27-0.83-0.58-1.15-0.96
	c-2.04-2.42-3.98-4.38-5.02-7.43c0.48,0.79,7.13,6.1,7.17,5.93c0.3-1.4,0.52-2.86,0.55-4.27c0.02-0.96,0.19-1.88-0.3-2.75
	c-1.68-2.95-4.03-2.57-7.01-2.58c-1.07,0-2.15-0.38-2.99-1.05c-0.5-0.4-0.57-1.24-1.1-1.52c-0.01,0.55-0.12,1.09-0.18,1.64
	c-0.11,1.07-0.01,2.15,0.12,3.21C203.71,33.24,206.5,36.39,211.08,37.72z M216.67,37.74c0.43,2.59,1.51,5.11,3.39,6.94
	c1.15,1.12,2.5,2.52,4.03,3.09c2.11,0.78,4.33,1.75,6.63,1.62c-2.15-0.31-4.18-1.88-5.81-3.25c-1.74-1.46-3.06-3.47-3.55-5.71
	c1.21,2.55,4.1,3.68,6.52,4.8c1.24,0.58,2.47,1.16,3.72,1.72c-2.82-1.26-1.12-9.33-3.4-11.79c-0.71-0.76-1.68-1.08-2.66-1.36
	c-2.08-0.59-6.28-0.56-7.72-2.43c-0.17-0.22-0.41-0.74-0.49-1.01c-0.11-0.34,0.11-0.71-0.16-1c0.35,0.39-0.74,5.36-0.71,6.14
	C216.47,36.25,216.54,37,216.67,37.74z M235.98,22.79c2.03,1.68,6.66,2.44,9.17,1.75c-1.15-0.26-2.34-0.46-3.4-1.03
	c-1.75-0.93-2.71-2.32-4.01-3.72c0.05,0.04,0.1,0.08,0.15,0.12c1.11,1.01,3.37,1.34,4.78,1.7c0.75,0.2,1.5,0.36,2.25,0.49
	c0.05-0.94-0.41-1.97-0.7-2.78c-1.74-4.94-10.07-0.52-11.17-4.75c0.34,1.31,0.44,2.67,0.69,3.97
	C234.07,20.14,234.58,21.62,235.98,22.79z M278.99,42.36c-1.88,1.45-3.57,3.14-5.2,4.87c-1,1.06-1.85,2.25-2.76,3.39
	c-0.32,0.4-0.66,0.7-0.88,1.14c3.19,0.55,7.13-0.61,9.86-2.26c0.42-0.25,0.8-0.51,1.25-0.73c0.43-0.21,0.77-0.45,1.24-0.55
	c-1.83,3.82-7.3,5.56-11.26,5.5c-0.59-0.01-1.11-0.01-1.65-0.07c1.44,0.65,3.11,0.88,4.66,0.91c2.73,0.06,5.61-0.52,7.86-2.15
	c2.28-1.65,4.42-4.13,5.93-6.5c1.25-1.97,1.79-4.12,1.94-6.42C289.72,43.05,281.15,40.69,278.99,42.36z M284.5,60.17
	c-2.18-1.77-5.17-2.55-7.87-3.06c-0.95-0.18-1.88-0.55-2.84-0.63c-0.69-0.05-1.39,0.04-2.09,0.02c0.06,0.01,0.12,0.03,0.19,0.04
	c0.03,0.12,0.07,0.25,0.1,0.37c0.13,0.04,0.26,0.08,0.39,0.12c1.58,0.5,2.96,1.08,4.18,2.26c2.84,2.76,3.83,6.77,5.42,10.27
	c-0.46-0.61-0.97-1.3-1.27-2.01c-0.87-2.09-2.23-3.67-3.7-5.36c-1.34-1.55-3.04-2.83-4.68-4.06c0.09,0.28,0.18,0.57,0.27,0.84
	c0.44,1.27,0.74,2.49,1.08,3.79c0.77,2.92,1.72,6.1,3.91,8.31c2.55,2.59,9.26,4.11,9.59,8.47C286.74,73.75,289.85,64.5,284.5,60.17z
	 M225.5,30.36c0.94,0.35,2.07,0.63,3.11,0.73c-0.98-0.77-1.91-1.63-2.64-2.58c-1.11-1.44-1.8-3.1-2.46-4.75
	c-0.31-0.76-0.84-1.94-0.78-2.77c0.36,0.84,0.85,1.52,1.4,2.24c1.28,1.7,2.73,3.4,4.29,4.85c0.85,0.79,1.6,1.57,2.52,2.28
	c0.01,0.01,0.02,0.01,0.03,0.02c-0.67-0.57,1.09-8.61,0.89-9.95c-1.08-7.36-10.32-3.83-13.7-9.14c-0.1,0.3-0.01,0.58-0.05,0.89
	c-0.14,1.25-0.22,2.59-0.21,3.97C217.98,21.92,219.71,28.21,225.5,30.36z M278.65,75.54c-0.41-0.43-0.78-0.85-1.29-1.14
	c-0.73,2.71-0.95,5.62-0.67,8.42c0.17,1.75,0.22,5.77,0.9,7.14c-1.18-2.38-1.91-5.51-2.25-8.15c-0.2-1.59-0.37-3.27-0.43-4.94
	c-0.07,0.27-0.14,0.54-0.2,0.82c-0.64,3.04-1.46,6.18-1.38,9.3c0.08,3.38,0.65,6.99,2.07,10.09c0.57,1.25,1.28,2.48,2.08,3.59
	c0.46,0.63,0.88,1.32,1.25,1.98c2.16-4.86,5.03-10.91,4.99-16.35c-0.01-1.76-0.42-3.31-1.12-4.92
	C281.63,79.16,280.3,77.29,278.65,75.54z M341.46,37.06c-4.06-0.09-8.05-1.55-11.65-3.33c-3.89-1.92-7.77-3.55-11.85-5.03
	c-4.49-1.63-9.07-3.13-13.91-2.95c8.34-0.24,15.08,4.96,22.43,8.05c2.08,0.88,4.25,1.54,6.4,2.25c2.47,0.81,4.95,1.61,7.52,2.02
	c4.23,0.68,8.77,0.63,13.01,0.02c2.69-0.38,5.24-1.1,7.47-2.7c1.92-1.38,3.56-2.91,4.93-4.84c0.87-1.23,1.68-2.48,2.46-3.76
	c-1.87,2.4-5.03,1.31-7.34,0.14c-0.41,0.35-0.79,0.73-1.11,1.17c-1.15,1.57-2.77,3.17-3.51,4.99c0.99-2.42,1.6-4.8,3.21-6.93
	c-1.16-0.65-2.34-1.31-3.62-1.6c-0.4,0.76-0.77,1.56-1.04,2.38c-0.45,1.41-0.8,2.35-0.9,3.67c0.08-2.01,0.39-4.1,0.26-6.05
	c-1.34-0.07-2.62,0.86-3.43,1.91c-1.83,2.36-1.53,5.6-3.31,7.94C346.02,36.29,343.77,37.11,341.46,37.06z M334.02,40.8
	c-3.03-2.83-6.63-4.72-10.34-6.51c-2.23-1.08-4.87-1.58-6.59-3.5c3.16,3.53,8.06,5.11,10.53,9.32c1.83,3.13,2.83,6.7,4.07,10.08
	c0.36,0.99,0.79,1.95,1.35,2.84c1.54-0.71,3.1-1.95,3.72-3.56c-0.15,0.38-0.33,0.76-0.48,1.14c-0.74,1.87-2.95,4.65,0.4,4.92
	c1.19-1.8,1.23-4.27,1.76-6.33c0.09,2.06-0.85,4.95,0.43,6.74c1.65,2.31,3.83,1.85,4.34,5.32C342.05,53.44,339.96,46.36,334.02,40.8
	z M343.57,42.09c-0.57,0.12-1.14,0.29-1.7,0.46c2.08,1.52,4.37,2.76,6.71,3.81c1.73,0.78,3.79,1.66,5.74,2.2
	c1.57,0.44,3.39,0.12,4.8,1.08c-0.24-0.17-0.82-0.2-1.51-0.17c-1.19,0.04-2.7,0.24-3.28,0.18c-1.71-0.17-3.39-0.53-5.04-1.01
	c-2.75-0.81-5.71-1.94-8.14-3.49c-0.63-0.4-1.32-0.69-1.97-1.05c0.24,0.34,0.41,0.72,0.59,1.11c0.57,1.21,1.66,2.09,2.66,2.94
	c3.17,2.67,7.39,4.62,11.48,5.31c2.43,0.41,4.86,0.46,7.32,0.3c2.64-0.18,5.39-0.32,7.88-1.29c1.85-0.72,3.55-1.79,5.27-2.77
	c0.73-0.42,1.48-0.81,2.18-1.27c-0.65,0.2-1.81-0.17-2.27-0.24c-4.52-0.67-8.62-5.62-12.84-7.31
	C355.52,38.49,349.47,40.85,343.57,42.09z M376.6,48.43c0.14-0.04,0.26-0.1,0.34-0.21C376.82,48.29,376.71,48.35,376.6,48.43z
	 M329.9,30.73c0.99-0.24,1.95-0.61,2.8-1.21c1.58-1.11,2.81-2.68,4.17-4.03c0.71-0.7,1.37-1.24,2.17-1.77
	c-0.28,0.9-0.85,1.75-1.42,2.47c-1,1.27-1.94,2.57-3.08,3.71c-0.98,0.99-2.05,1.55-3.33,2c1.29,0.57,2.62,1.08,3.97,1.38
	c2.2,0.49,5.24,0.48,7.1-0.98c2.15-1.7,3.36-5.01,4.17-7.52c0.7-2.18,1.33-4.47,1.19-6.78c-0.38,0.5-0.83,1.28-1.47,1.47
	c-0.86,0.26-2.06-0.55-2.84-0.81c-2.54-0.86-5.92-2.08-8.54-0.94c-2.69,1.17-3.48,4.78-3.98,7.36
	C330.45,26.93,329.95,28.83,329.9,30.73z M328.98,30.86l0.09,0.05h0C329.04,30.89,329.01,30.87,328.98,30.86z M324.91,39.82
	c2.32,3.7,0.77,10.01,0.6,13.95c-0.25-3.48-0.8-7.35-2.37-10.5c-0.43,2.81-0.75,5.76-0.99,8.61c-0.48,5.76-0.99,11.77,0.88,17.36
	c0.26,0.77,0.55,1.53,0.81,2.3c0.14,0.42,0.23,1.34,0.64,1.56c-0.49-0.27,4.48-17.25,4.67-19.17c0.53-5.36-1.36-10.31-4.53-14.53
	C324.73,39.54,324.82,39.68,324.91,39.82z M319.35,21.15c1.14-1.06,2.23-2.21,3.41-3.23c0.29-0.25,0.67-0.52,0.92-0.85
	c0.08-0.15,0.17-0.31,0.24-0.46c-0.04,0.17-0.13,0.32-0.24,0.46c-1.06,2.09-2.38,4.17-3.9,5.92c-0.9,1.03-1.76,2.1-2.83,2.96
	c0.9,0.28,2.17,0.2,2.81,0.15c2.25-0.18,4.21-1.17,5.71-2.85c1.85-2.07,3.24-4.53,4.21-7.12c0.46-1.21,0.85-2.43,1.03-3.71
	c0.06-0.39,0.08-0.78,0.13-1.18c-0.46,0.55-1.49,0.39-2.33,0.15c-9.14-2.61-10.7,6.1-12.4,12.47c0.21-0.14,0.42-0.28,0.62-0.44
	C317.64,22.71,318.51,21.93,319.35,21.15z"/>
</svg>
