<?xml version="1.0" encoding="utf-8"?>
<!-- Generator: Adobe Illustrator 15.0.0, SVG Export Plug-In  -->
<!DOCTYPE svg PUBLIC "-//W3C//DTD SVG 1.1 Tiny//EN" "http://www.w3.org/Graphics/SVG/1.1/DTD/svg11-tiny.dtd" [
	<!ENTITY ns_flows "http://ns.adobe.com/Flows/1.0/">
]>
<svg version="1.1" baseProfile="tiny"
	 xmlns="http://www.w3.org/2000/svg" xmlns:xlink="http://www.w3.org/1999/xlink" xmlns:a="http://ns.adobe.com/AdobeSVGViewerExtensions/3.0/"
	 x="0px" y="0px" width="600px" height="600px" viewBox="-0.09 -17.15 600 600" overflow="visible" xml:space="preserve">
<defs>
</defs>
<path d="M435.87,453.29c14.59,0.35,32.7-1.59,55.63-6.25c-15.22-0.5-36.55-1.1-47.48-9.98c4.83-9.09,7.26-18.88,7.83-29.11
	c5.54,9.03,19.3,20.05,30.11,21.64c-16.92-8.3-23.4-35.43-26.29-61.41c17.96,1.61,34.04-0.16,35.84-8.93
	c-24.06,7.16-53.82-22.22-47.28-37.32c74.79,25.05,112.36,69.43,156.99,74.55c-26.34-4.22-67.07-54.28-128.57-83.02
	c71.83,6.92,93.77,44.45,100.41,59.75c-8.55-42.02-55.44-66.65-95.4-83.74c11.11,3.04,52.49,14.88,72.26,27.53
	c22.96,14.69,19.91,21.14,27.92,27.55c-9.78-17.75-32.98-48.6-45.83-61.74l0,0c0,0-0.01-0.01-0.02-0.01
	c-1.06-1.08-2.04-2.04-2.95-2.87c-12.87-13.31-34.99-45.33-56.05-64.58c-22.77-20.82-47.26-28.41-51.67-30.49
	c-4.41-2.08-13.22-2.33-19.22-0.86c-5.76-1.22-26.57-6.86-26.57-6.86s0.46-2.35,0.94-4.65c3.09,1.91,8.81,1.92,23.57-5.57
	c-11.32,1.83-16.01,0.64-17.99-2.31c0.72-0.86,1.43-1.72,2.11-2.57c3.82,0.22,8.53,0.18,11.34-0.98c-3.79-1.21-6.19-2.58-7.71-3.84
	c7.53-10.59,11.73-20.5,11.89-26.95c0.25-9.55,2.94-13.96-11.02-50.2c-13.96-36.24-52.89-57.31-70.28-66.12
	C300.97,5.14,281.62,0,276.23,0c-5.39,0-21.06,2.94-27.43,3.67c-6.37,0.73-18.12-0.25-26.69,2.45c-8.57,2.69-8.33,6.37-17.14,7.84
	c-8.82,1.47-22.29,4.16-25.96,7.35c-3.52,3.05-19.14,4.98-22.84,13.95c0,0,0,0-0.01,0c-0.87-0.08-1.1,1.01-1.08,2.33
	c-7.34,5.54-10.3,14.87-14.53,22.9c-4.39,8.35-17.06,25.36-23.36,35.8c-0.21,0.01-0.42,0.09-0.64,0.32c-0.7,0.7-1.14,1.88-1.26,2.99
	v0c-4.17,7.84-5.73,14.05-5.16,18.74c-0.1,0.1-0.18,0.21-0.24,0.33c-1.76,3.86,2,6.48,4.47,12.38c-1.1,5.51-1.81,11.59-1.97,14.55
	c-0.56-0.16-1-0.26-1-0.26c-0.13,2.64,0.08,5.27,1.05,7.92c0.03,1.84,0.12,5.48,1.6,8.49c-1.8-2.18-3.2-4.72-3.2-4.72
	s0.04,2.27,1.94,5.94c-1.91-1.23-3.3-2.77-4.08-7.59c-1.1,10.29,8.08,15.15,8.08,15.15v-2.11l6.32,5.28
	c0.34,7.13,0.06,18.12-3.36,26.13c-4.24,9.92-7.7,11.16-7.27,19.83c0.36,7.25,13.49,9.48,16.54,9.9c0.92,3.35,2.74,11.44,1,17.77
	c0.63,2.42,1.53,4.56,2.28,6.11c0.34,1.05,0.79,2.02,1.36,2.68c-0.33,0.98-2.98,9.16,0.03,13.49c0.81,1.16,1.7,2,2.52,2.61v0
	c0,0,0,0,0,0c0.47,0.35,0.92,0.62,1.31,0.83c1.01,1.06,1.95,2.76,1.95,2.76l1.32,5.55c0,0-2.33,14.88,0,19.78
	c2.33,4.9,7.16,10.88,28.1,8.47c12.85-1.47,25.52-6.12,34.96-10.38l-0.01,0.01c28.11,5.35,51.26,27.03,67.42,49.85l2.09,31.01
	l2.47-34.09l-4.6-2.43l-48.54-54.35c9.85-5.8,38.69-23.15,42.69-29.73c3.2-5.27,3.69-23.92,3.66-35.93
	c2.92,3.15,8.46,4.02,13.05,1.59c3.27-1.73,9.53-5.58,14.75-8.85c-9.45,21.46-24.03,51.98-20.47,77.79
	c1.73,12.48,6.04,21.84,11.46,29.15c3.9,12.49,8.92,23.81,1.79,33.67c5.74-1.25,9.35-10.88,9.83-21.69
	c13.87,11.27,28.37,15.71,26.96,24.99c5.63-16.16-11.89-22.03-22.54-41.87c-5.27-9.81-1.01-19.5,4.04-30.57
	c10.46,38.6,59.02,108.57,43.42,142.72c0,0,11.74-11.9,13.64-30.3c2.25,4.55,4.44,8.9,6.67,13.01
	c1.77,32.68-1.36,91.47,41.46,103.74c-23.15-19.46-24.02-50.53-14.24-69.04c2.92,6.96,7.13,14.15,12.42,21.22
	c-4.04,36.83,16.76,89.65,53,94.34c-26.11-10.7-35.72-46.13-35.63-74.94c22.46,20.03,55.36,37.75,87.86,39.67
	C473.73,517.75,452.13,485.31,435.87,453.29 M434.08,271.11c-15.5-19.61-40.93-56.15-40.93-56.15c2.33-1.33,3.65-2.88,4.7-4.36
	c2.48-1.15,3.28-3.06,3.28-3.06s-0.22-0.24-0.52-0.6c1.72-1.67,4.31-2.68,10.07-2.16c11.43,1.03,15.61,47.44,45.9,75.97
	C448,277.26,440.3,274.09,434.08,271.11 M400.03,202.77c1.35-0.36,2.6-0.15,3.53,0.16c-1.79,0.36-3.13,1.07-4.27,1.98
	C398.88,203.98,398.86,203.08,400.03,202.77 M423.27,219.06c1.36-0.88,3.41-2.01,4.67-1.78c2.02,0.37,3.49,5.51,4.78,9
	c1.28,3.49,6.24,3.67,7.9,6.06c1.65,2.39,6.43,7.53,6.25,10.29c-0.15,2.23-6.33,7.48-8.67,9.39
	C431.86,239.93,427.4,228.09,423.27,219.06 M474.91,288.32c-5.27-2.23-10.39-4.32-15.27-6.31c-8.12-8.03-14.39-17.19-19.49-26.36
	c1.3-2.73,7.02-7.98,10.02-10.81c3.31-3.12,4.1-7.29,13.65-10.22c9.55-2.94,13.71,6.61,14.94,16.16
	C479.9,259.66,475.52,284.87,474.91,288.32 M520.88,294.23c-0.81-4.32-4.2-18.84-5.94-26.25c5.15,6.22,9.78,11.36,13.67,14.49
	c6.84,9.31,17.4,25.04,17.4,25.04S530.06,299.74,520.88,294.23 M419.25,186.24c4.41,2.08,28.9,9.67,51.67,30.49
	c14.01,12.81,28.16,31.63,40.05,46.4c2.05,6.96,4.46,22.41,5.57,31.11c-2.68-2.02-18.07-2.02-26.15-4.04
	c-2.57-7.9,1.1-39.49,0.18-41.14c-0.92-1.65,3.49-1.65,4.23-4.04c-2.57-4.78-19.29-10.65-26.7-16.35c-7.41-5.69,0-14.14,0-14.14
	l-2.87-2.45l-4.04,11.26c0,0-4.96,8.63-8.81,8.45c-3.86-0.18-8.48-25.53-8.48-25.53l-2.18,0.37l1.9,15.61c0,0-1.71,4.77-6.49,3.49
	c-4.77-1.29-8.81-26.14-8.81-26.14l-2.21,1.71l1.29,11.57c0,0-2.21,0-4.41-2.02c-2.2-2.02,2.74-12.26,2.02-13.96
	c-2.62-6.15-11.39-10.29-16.16-10.65c5.33,3.12,2.75,12.86,2.82,14.69s3.79,3.67,5.26,6.43c0.14,0.25,0.29,0.57,0.46,0.93
	c-2.18-2.98-4.46-4.87-7.09-5.29c-1.21-0.19-2.31-0.3-3.3-0.33l1.85-1.03c0,0-2.76-2.12-4.41-2.06
	c-4.55-4.03-12.84-14.03-15.17-16.87c4.44,1.15,8.63,2.21,10.76,2.66C406.03,183.91,414.84,184.16,419.25,186.24 M374.67,172.62
	c-0.57,2.62-1.21,5.91-1.21,5.91s5.61,1.52,11.81,3.15l6.06,11.54c0,0-5.7,2-9.21,2.35l-13.68-12.08l4.78-2.76
	c0,0-1.65-2.02-6.06-4.77c-0.48-3.11-1.42-13.54-2.02-20.44C369.75,161.49,373.1,167.28,374.67,172.62 M382.49,197.46l-0.62,0.1
	l0.52-0.57C382.43,197.16,382.46,197.32,382.49,197.46 M374.56,221.38l-3,1.13c-1.78-2.14-3.61-4.39-5.51-6.78l3.12-11.01
	c5.05-3.28,7.25,2.38,7.36,3.68C376.64,209.87,374.56,221.38,374.56,221.38 M370.69,199.33l1.05-3.72h-5.88l-22.59-14.88
	c0,0,1.47-0.37,8.26-3.12c6.61,1.08,22.07,15.72,26.96,20.49L370.69,199.33z M319.36,204.15l-9.21-13.75c0,0-0.74-4.04,2.08-5.63
	c2.82-1.59,15.92-2.57,19.47-0.61c3.2,1.77,7.01,18.09,15.64,24.86C338.71,207.8,328.3,206.1,319.36,204.15 M246.46,170.43
	c-0.2-0.29-17-25.1-18.59-27.66c-1.59-2.57-1.35-7.84,4.65-7.71l6,0.12l0.12-1.84h-34.16l-2.94-45.79c0,0,3.06-7.59,11.88-6.37
	c8.82,1.22,14.33,2.57,18.37,9c4.04,6.43,22.22,32.69,21.31,36.55c-0.92,3.86-7.9,4.78-9,5.14c-0.73,1.1,0.55,1.84,0.55,1.84
	l59.32-3.67l3.67,48.12c0,0-1.47,6.43-7.16,5.51c-6.61-9.37-11.2-17.41-15.06-20.09c-1.29,3.93-1.05,20.41-3.67,20.18
	c2.14,1.11,4.24,2.19,6.32,3.28C273.95,181.15,257.78,175.27,246.46,170.43 M144.29,126.16c-3.85-4.69-11.56-22.2-12.79-25.87
	c-1.22-3.67,0.61-8.33,4.41-10.28c3.8-1.96,7.1-3.43,11.88,0c4.78,3.43,46.28,38.45,51.43,41.88c-5.02,1.22-6.74,1.96-6.74,1.96
	l1.22,2.57c0,0,10.41-3.18,14.69,0c3.81,2.83,15.48,21,17.99,24.94C204.07,151.45,169.87,137.08,144.29,126.16 M236.01,78.61
	c-3.57-4.31-6.24-10.65-7.74-14.83c5.16,2.56,10.64,5.29,16.32,8.16C242.65,74.45,237.63,80.56,236.01,78.61 M252.62,76.01
	c7.23,3.7,14.65,7.56,21.99,11.52l20.18,32.22c0,0,2.2,6.43-4.41,8.82c-6.61,2.39-14.69,0.73-21.67-1.47
	c-3.14-4.93-28.1-41.88-27.73-44.45C241.23,80.86,248.32,77.74,252.62,76.01 M325.21,181.1c-7.47,0.12-13.1-6-13.1-6l-4.9-32.45
	c-0.53-3.49,36.12,34.53,36.12,34.53S332.68,180.97,325.21,181.1 M356.34,145.43c7.56,12.27,8.05,30.34,3.52,31.26
	c-4.53,0.92-3.55,3.49-13.28-4.04c-6.61-10.65-38.57-42.43-38.57-42.43l10.84-0.92c0,0,2.2,1.29,0-2.76
	c-10.65,0.37-19.1-3.67-19.1-3.67L281.1,91.07c5.75,3.17,11.4,6.38,16.81,9.58C317.88,112.49,340.63,129.1,356.34,145.43
	 M205.71,52.53c4.81,2.45,10.63,5.33,17.1,8.54c0.7,7.76-2.68,16.44-7.73,17.36c-6.06,1.1-22.04,0.73-22.04,0.73
	s-17.82-31.41-19.29-34.71c-0.81-1.82-0.12-3.69,0.67-5.01C183.51,42.03,193.56,46.35,205.71,52.53 M158.98,36.64
	c3.21,0.22,6.46,0.68,9.81,1.4c-2.52,1.15-6.48,2.73-8.63,2.37c-1.73-0.29-2.15-1.64-2.47-2.89
	C158.1,37.21,158.54,36.92,158.98,36.64 M143.08,60.49c3.75-7.13,6.5-15.27,12.2-20.89c0.19,1.33,0.47,2.46,0.47,2.46l6.8,1.84
	c0,0,14.51,27.73,15.06,32.14c0.55,4.41-7.53,3.12-7.53,3.12s0,1.47,2.2,3.12c14.95-1.71,23.51,0.95,24.73,5.91
	c1.02,4.14,3.18,34.01,3.18,34.01l-40.41-35.88l10.01-3.4l-2.11-2.94c-6,1.47-17.33,5.97-25.9,6.34
	c-8.57,0.37-16.41,9.31-19.59,11.39c-1.46,0.96-2.43,0.46-3.21-0.19C124.98,87.24,138.51,69.17,143.08,60.49 M116.49,102.46
	c0.03,0.01,0.05,0.02,0.08,0.02c10.29-6.37,11.39-2.2,11.39-2.2l11.05,23.75c-5.88-2.11-16.46-5.37-23.14-6.2
	C114.64,113.81,113.99,108.7,116.49,102.46 M117.41,164.61l0.37,0.12C117.66,164.7,117.53,164.66,117.41,164.61 M281.01,218.2
	c-6.19,3.33-10.04,1.18-12.04-2.19c-0.04-1.86-0.08-2.96-0.08-2.96l-4.96-0.78c0,0,3.55,37.39-1.29,45.35
	c-4.84,7.96-42.67,30.5-42.67,30.5s-23.39,16.31-48.98,19.25c-20.94,2.41-26.14-1.75-28.47-6.65c-2.33-4.9-0.37-19.71-0.37-19.71
	l-1.48-5.84c2.2-1.27,6.65-4.18,6.37-6.77c-2.46,0.78-5.33,1.65-7.51,2.31l-0.02-0.09c0,0-2.24,1.07-4.53-2.22
	c-2.43-3.49-0.48-8.78,0.62-11.14c2.04,0.63,4.79,0.39,7.92-0.3c7.07-1.56,24.46-3.61,24.46-3.61s-0.39-0.62-1.96-1.1
	c-4.52-1.39-10.46-0.98-14.23-0.98c-7.09,0-16.34-1.26-19.28-1.69c-0.24-0.71-0.47-1.45-0.68-2.22c2-7.32-1.1-17.35-1.79-19.44
	c4.06-1.43,14.98,2.01,18.6-2.6c2.48-3.16-1.96-5.63-1.96-5.63s1.96,2.45,0,4.72c-4.41,1.91-8.82-0.93-13.22-1.54
	c-4.09-0.57-8.17,2.65-10.01,4.39c-4.46-1.13-9.54-3.35-9.75-7.58c-0.42-8.68,3.03-9.92,7.27-19.83c4.24-9.92,4.29-27.18,1.35-35.82
	c0,0-0.75,0.84-3.98,0.8c-0.18,0-0.37-0.03-0.55-0.08c-4.05-3.2-4.5-8.88-4.6-11.37c5.15-0.4,4.68,4.01,6.56,7.53
	c0.25-2.33-2.57-13.96-2.57-13.96s-2.33,1.47-2.08,0.12c-0.1-0.42-0.79-0.79-1.53-1.08c0.34-4.74,1.9-15.87,3.96-22.05
	c0.46-0.7,1.04-1.2,1.74-1.33c3.31-0.61,22.65,4.13,22.65,4.13c28.71,12.27,68.48,29.54,90.21,39.53
	c0.54,6.64-2.98,11.79-6.77,13.12c6.95-0.15,11.72-3.47,14.15-7.1c2.9,4.05,5.73,7.66,8.13,10.92c-0.24,4.17-1.8,8.95-6.73,12.46
	c5.01-2.11,7.89-5.26,9.43-8.61c5.39,8.18,6.38,14-4.59,19.2c17.2-3.61,14.91-19.95,11.83-28.49c5.02,2.19,10.37,4.53,15.71,6.91
	c0.56,1.86,0.41,3.33,0.49,4.99c0.12,2.33-3.67,1.83-3.06,6c0.61,4.16,3.31,3.8,6.86,1.1c3.55-2.69,6.12-6.37,9.06-4.78
	c1.31,0.71,2.48,0.64,3.6,0.54c4.2,2.04,8.14,4.06,11.61,6C295.98,203.77,286.75,215.11,281.01,218.2 M350.68,209.48
	c-3.31-3.23-11.27-11.88-13.95-22.63c6.37-1.72,17.1,9.06,17.1,9.06l-4.24,2.2c0,0,12,1.18,14.33,3.53c1.81,1.83-0.47,7.15-1.56,9.4
	c-0.05-0.07-0.1-0.13-0.16-0.2C359.65,210.61,355.56,210.13,350.68,209.48 M380.03,232.22c6.14-1.17,10,0.83,14.12,1.04
	c-0.19-0.58,0.46-1.15,0-1.71c-2.15-2.66-8.94-2.57-16.16-7.59c4.9-1.71,10.9-14.57,10.9-14.57s0.12-1.96-1.96-2.08
	c0.24,1.96-3.18,4.53-3.18,4.53l-0.74-5.88v-7.03c1.52,0.49,10.21,3.48,13.29,9.11c-1.57,1.88-3.23,3.91-6,5.48
	c0,0,6.77,10.05,15.48,22.59l-9.05-2.85v1.47l9.18,3.86l1.38,16.91C396.57,248.32,388.45,241.33,380.03,232.22 M428.31,268.15
	c-4.06-2.26-7.78-4.4-11.25-6.48l3.75-4.25c2.81,3.9,5.57,7.66,8.13,11.08C428.74,268.39,428.52,268.27,428.31,268.15
	 M183.05,149.14c-2.2-2.69-9.06-5.63-9.06-5.63l1.47-0.98c-4.53-1.59-17.76-1.71-17.76-1.71s0.98-0.49,1.1-1.96
	c-12.21-0.3-19.22,7.22-19.22,7.22s-1.22-0.49-0.86-2.69c-2.2,1.35-4.99,5.27-4.99,5.27s0.34-1.47-1.01-0.98
	c-0.98,4.53,2.21,8.94,2.21,8.94l6.12,2.94c0,0-3.69,0.65-10.91-1.92c2.94,3.18,9.9,4.92,9.9,4.92s-2.66,0.92-6.58,1.47
	c3.44,0.77,7.34,0.4,9.15,0.16l-3.51,3.33c1.71,0,7.56-1.38,7.56-1.38s0.52,2.6,1.26,5.42c0.73,2.82,1.45,2.94,1.45,2.94
	s-4.04-0.12-5.13,4.04c1.83-1.88,2-1.61,3.35-1.61c-0.28,2.14,1.24,1.42,1.24,1.42s2.89-2.39,5.59-2.88
	c2.69-0.49,15.15-4.65,16.5-6.86c-0.58-0.58-1.79-0.91-2.67-1.09l-18.36-7.85c0,0-2.2,0.86,0.25-2.57
	c16.65-0.37,23.88,13.59,23.88,13.59l4.9-1.35c-8.08-14.08-36.12-15.92-36.12-15.92s-0.86-2.94,1.71-5.7
	C162.24,139.58,174.48,145.83,183.05,149.14 M155.01,167.14l11.17,1.41c0,0-8.79,4.59-10.44,3.18
	C154.56,170.71,155.01,167.14,155.01,167.14 M281.72,211.22c0,3.04-2.63,5.51-5.88,5.51c-3.25,0-5.88-2.47-5.88-5.51
	c0-3.04,2.63-5.51,5.88-5.51C279.09,205.71,281.72,208.17,281.72,211.22 M317.75,388.03c0.92,2.57,3.55,6.73,3.55,6.73
	c-1.71,0.98-9.06,1.23-13.22,0.86c-4.16-0.37-4.26,1.1-4.01,4.16c-3.83,1.9-6.28,7.35-6.89,9.18c-2.08-3.18-4.25-15.78,4.52-19.96
	C307.34,386.31,311.87,389.5,317.75,388.03 M327.79,403.58c-4.41,1.59-3.19,7.84-6.98,12.73c-1.88,2.43-5.75,4.41-11.63,2.29
	c-1.71-3.35,1.35-7.67,1.35-7.67c8.08,1.71,8.33-10.53,12.37-11.14C322.89,399.78,324.97,402.23,327.79,403.58 M307.71,413.62
	c-0.25,4.9-0.43,14.87-3.43,18c-5.26,5.49-14.41,7.98-21.55,4.41c-7.84-3.92-4.56-15.92-1.84-17.88c3.43,1.72,3.23,6.11,4.04,7.41
	c1.23,1.96,5.83,3.54,9.8,0.98c4.86-3.15,0.7-12.92,4.93-20.08c2.07-3.5,6.77-10.33,12.95-7.32c5.62,2.73,2.31,7.68,1.34,8.91
	C312.96,409.27,307.95,408.72,307.71,413.62 M226.28,399.78l-8.64-5.82c0,0,2.77-3.08,11.95-2.94
	c23.52,0.36,24.24,24.98,24.24,24.98s-5.14-2.3-9.73-2.75C241.34,402.05,231.42,400.03,226.28,399.78 M268.34,433.39
	c0,0,7.78,11.33,3.43,19.45c-2.07,3.87-6.93,13.13-26.39,10.92c-19.47-2.2-19.35-22.41-18.61-29.75l8.02,1.71
	c0,0,0.27,17.61,14.45,17.61c17.82,0,13.22-11.61,13.22-11.61C264.73,439.22,266.69,436.44,268.34,433.39 M236.93,423.83
	c-6.43-0.47-8.27-2.31-8.27-2.31c1.84-3.3,6.61-7.78,14.33-7.07c9.92,0.92,15.43,7.07,15.43,7.07c-0.79,3.98-1.95,7.81-3.67,11.39
	C254.75,432.9,241.16,420.72,236.93,423.83 M267.42,431.44c-2.2,5.14-10.29,17.26-16.74,15.06c-6.46-2.2-6.03-12.98-2.3-16.28
	c0,0,5.33,6.59,7.48,3.28c2.95-4.55,6.24-25.11,18.73-27.4c9.01-1.65,16.52,4.41,19.28,8.66c2.76,4.25,2.08,11.97-3.86,11.18
	c-5.94-0.8-2.02-6.98-8.45-9.92S269.62,426.29,267.42,431.44 M228.67,432.9c-10.65-3.49-15.59-7.08-17.81-15.61
	c-1.58-6.05,0-15.25,0-15.25l10.84,6.92c0,0-3.12,9.8,1.47,12.37c4.59,2.57,13.59,4.04,16.35,3.57l6.88,4.69
	C244.28,433.09,239.32,436.39,228.67,432.9 M346.33,388.58c-1.12,6.18-6.45,10.47-14.41,9.67c0,0-0.58-3.34,1.01-5.82
	c3.55-0.25,6.61-4.29,6.9-8.08c0.29-3.8,0.57-10.04,3.26-9.67C345.78,375.05,347.55,381.87,346.33,388.58 M331.06,393.29
	c-1.47,4.67,0.87,8.2-2.05,8.75c-2.91,0.55-5.22-1.86-5.88-3.66c-0.66-1.8,1.59-8.04,3.79-12.16c2.06-3.85,3.89-6.95,4.87-6.95
	c0.98,0,5.66,1.41,5.42,4.59C336.97,387.05,332.86,387.57,331.06,393.29 M218.93,405.8c-5.69-3.59-19.1-10.92-20.75-15.11
	c-1.65-4.2,4.04-11.23,6.61-11.41c2.57-0.19,4.06,4.77,4.06,4.77s-3.51,2.02-2.41,3.83c1.1,1.81,10.84,7.92,14.33,9.89
	c3.49,1.97,8.08,6.11,6,8.03C224.68,407.72,222.48,408.04,218.93,405.8 M213.64,375.84c-1.19-1.44-3.21-3.99-3.21-3.99
	c3.49-0.37,23.39,0.21,24.3,16.03c-5.69,1.12-9,0-9,0S218.96,375.11,213.64,375.84 M203.69,377.25c-7.96-3.25-15.86-2.57-17.45-5.4
	c-3.6-6.39,1.04-10.89,4.5-10.02c3.12,1,4.85,3.82,4.85,3.82c-4.66,3.12,7.71,0.14,14.44,7.36c4.04,4.33,3.83,4.56,5.27,6.79
	c1.44,2.23-1.51,7.58-4.6,4.86C208.88,383.07,209.37,379.57,203.69,377.25 M201.54,361.84c-1.8-3.14-3.66-5.5-3.66-5.5
	c5.5-1.13,10.68-0.87,16.15,2.91c5.45,3.76,7.68,11.72,7.71,12.95c-2.78-0.83-5.1-1.23-7.54-1.42
	C213.96,366.62,210.25,360.81,201.54,361.84 M196.65,365.38c1.93,1.95,5.25-1.35,3.42-4.28c-1.7-2.73-5.95-9.47-18.11-10.42
	l2.81-12.36l20.91-17.6l-7.07-15.58c0,0-37.71,16.74-55.93,3.67c-6.7-4.81-6.45-17.14-6.45-17.14
	c-18.68,13.71-32.68,3.13-46.6,22.53c-11.51,16.04,7.16,44.07-37.22,46.04c44.33,7.29,38.2-11.63,49.71-27.67
	c6.65-9.27,13.31-9.63,20.48-8.97C102.03,363.25,53.93,426.97,0,422.07c41.58,10.87,78.06-11.63,99.16-31.67
	c-10.33,16.49-19.33,24.69-23.86,50.77c-0.12,0.69,0,1.41-0.01,2.12c-6.51,5.04-22.8,8.8-30.48,11.72
	c7.68-0.31,22.85-3.03,30.25-4.65c-1.19,21.7-7.66,47.61-36.5,49.96c25.35,6,42-10.77,51.43-43.35c1.21-4.2,2.46-8.21,3.73-12.06
	c41.46-15.1,74.13-47.1,81.18-69.79c0.93,0.16,1.41,0.29,1.41,0.29l4.04-17.74C187.46,358.4,191.63,360.29,196.65,365.38
	 M99.65,428.9c10.14-24.36,22.59-39.76,39.99-47.22C133.47,399.87,118.43,415.85,99.65,428.9 M254.75,390.69
	c-3.82-19.17-16.53-28.39-29.53-30.19c0.46,3.55,0.61,6.86,0.33,9.8c-1.65-10.06-8.08-12.01-8.08-12.01
	c2.2-23.02-17.39-56.08-17.39-56.08l3.79-1.53c0,0,11.81,23.04,18.06,44.72C228.05,348.48,253.45,362.94,254.75,390.69
	 M191.63,352.09c1.72-2.94-0.67-8.08-6.49-10.84c0.16-1.93,1.01-3.07,2.45-3.55c0,0,2.69,0.31,8.08,4.77
	c4.97,4.12,2.93,12.43,1.84,13.37C197.5,355.85,195.08,353.93,191.63,352.09 M334.27,370.73c-1.99-1.15-4.87-2.02-4.87-2.02
	s0.5-9.92,9-8.31c1.01,2.71,2.3,6.29,2.3,6.29S334.46,367.33,334.27,370.73 M333.08,371.37c2.99,1.43,6.8,5.01,6.8,5.01
	s-0.87,2.89-1.15,6.01c-1.56-1.65-5.7-5.33-6.99-5.69c-1.29-0.37-4.77-1.33-6.77,2.02c-2.34,3.91-1.15,6.9,0.72,8.36
	c-1.91,3.58-3.03,6.66-3.03,6.66s-8.6-7.85-2.83-16.97C326.19,366.69,330.93,370.35,333.08,371.37 M247.26,450.81
	c-0.21,0-0.31,0.02-0.31,0.02c-4.41,0.96-6.78,5.85-6.53,10.01c0.09,1.4,0.77,5.85,5.64,6.7c0.79,0.61,1.05,1.9,0.84,2.69
	c-0.01,0-0.03,0-0.04,0h0c-0.11,0-0.21,0-0.3-0.01c-5.04-0.46-8.38-3.99-8.71-9.21c-0.33-5.25,2.78-11.43,8.55-12.7
	c0.24-0.05,0.54-0.08,0.86-0.08c2.27,0,4.82,0.93,6.44,4.11c-0.89,0.26-1.83,0.45-2.81,0.4
	C249.48,450.81,247.76,450.81,247.26,450.81 M254.54,464.55c-0.4,0.94-1.13,2.06-1.78,2.81c-0.65-0.44-1.51-0.86-2.39-1.31
	c0.2-0.17,0.98-1.13,1.19-1.5C252.21,464.65,254.26,464.54,254.54,464.55 M232.67,496.41c-1.22-2.99-1.91-6.44-1.91-10.12
	c0-8.47,2.98-15.29,8.25-18.48c1.15,1.27,4.23,2.33,5.23,2.69c1,0.36,3.26,0.64,3.26-0.46c0-1.06-0.44-2.68-1.41-2.89
	s-1.98-0.59-2.71-1.27c0.8-0.19,1.45-0.25,2.29-0.25c0.16,0,0.31,0.01,0.47,0.02c2.51,1.6,10.81,8.15,9.43,24.4
	c-0.42,4.96-3.04,9.67-6.67,12c-2.63,1.69-5.55,2.03-8.47,0.99C236.65,501.7,234.22,499.12,232.67,496.41 M260.59,486.29
	c0,11.41-6.68,20.65-14.92,20.65c-4.75,0-8.99-3.08-11.72-7.88c1.45,2.03,3.44,3.8,6.19,4.79c1.2,0.43,2.4,0.64,3.59,0.64
	c1.95,0,3.85-0.58,5.63-1.72c3.84-2.47,6.62-7.44,7.06-12.65c1.3-15.39-6.38-22.19-9.76-24.44
	C254.44,466.4,260.59,475.35,260.59,486.29"/>
<path fill="#FFFFFF" d="M233.13,13.47c-0.07,0.41,0.18,0.82,1.36,1.11c16.2,5.92,39.17,26.24,57.04,44.11
	c18.41,17.8,29.03,36.16,28.29,36.08c0.87-0.68-9.76-19.26-27.89-37.17c-17.74-17.99-40.08-38.2-57.02-44.46
	C233.77,12.86,233.2,13.06,233.13,13.47"/>
<path fill="#FFFFFF" d="M222.97,17.26c-0.35,0.41-0.3,1.03,0.96,2.12c16.87,15.19,43.2,44.51,68.97,65.86
	c12.79,10.74,25.48,19.46,35.57,23.98c10.08,4.73,17.14,4.72,16.82,4.64c-0.11-0.22-7.28-0.58-17.17-5.63
	c-9.93-4.82-22.32-13.68-34.85-24.46c-25.24-21.47-51-50.48-68.05-65.86C224.1,16.94,223.32,16.85,222.97,17.26"/>
<path fill="#FFFFFF" d="M206.93,21.31c-0.1,0.16-0.06,0.38,0.41,0.71c13.37,9.28,34.22,42.93,34.11,42.39
	c0.05-0.19-20.13-33.44-33.72-42.95C207.31,21.15,207.03,21.15,206.93,21.31"/>
<path fill="#FFFFFF" d="M188.56,25.96c-0.05,0.12,0,0.27,0.36,0.47c9.95,5.7,26.85,28.15,26.83,27.69
	c-0.08-0.06-16.43-22.24-26.61-28.13C188.81,25.81,188.62,25.83,188.56,25.96"/>
<path fill="#FFFFFF" d="M254.56,9.92c-0.24,0.53-0.01,1.15,1.61,1.9c21.98,9.85,58.72,32.05,79.62,61.23
	c21.94,28.74,23.73,59.83,24.06,58.81c0.17,0.06-1.43-31.26-23.32-60.24c-20.82-29.4-57.33-51.77-79.48-61.7
	C255.63,9.26,254.8,9.39,254.56,9.92"/>
<path fill="#FFFFFF" d="M285.23,13.47c-0.28,0.57-0.05,1.25,1.7,2.14c11.83,5.93,27.43,15.31,41.84,28.57
	c14.52,13.07,27.47,30.21,35.21,48c16.3,36.11,8.54,69.79,9.47,68.71c-0.1,0.19,7.86-33.61-8.32-70.07
	c-7.74-17.91-20.64-35.2-35.17-48.39c-14.41-13.37-30.05-22.87-42.02-28.87C286.42,12.79,285.51,12.9,285.23,13.47"/>
<path fill="#FFFFFF" d="M319.83,22.41c-0.22,0.35-0.13,0.81,0.94,1.51c14.41,9.56,37.55,29.32,51.41,50.78
	c15.04,21.25,14.67,43.61,14.56,42.92c0.61,0.07,0.94-22.52-13.97-43.91c-13.74-21.6-36.61-41.36-51.17-51.04
	C320.65,22.05,320.05,22.06,319.83,22.41"/>
<path fill="#FFFFFF" d="M311.01,208.4c-0.88,0.21-1.4,1.1-0.63,3.85c4.81,18.68,15.23,43.5,33.34,65.66
	c17.81,22.4,42.28,41.48,65.77,56.77c23.43,15.45,45.86,27.99,59.58,40.27c14.39,11.98,16.57,24.09,16.78,23.37
	c0.16-0.08-2.29-12.79-16.88-25.13c-13.92-12.59-36.13-25.46-59.13-41.03c-23.07-15.42-46.82-34.47-64.02-56.46
	c-17.49-21.79-27.52-45.95-32.26-64.31C312.9,209.06,311.89,208.19,311.01,208.4"/>
<path fill="#FFFFFF" d="M323.02,268.4c-0.64,0.31-0.9,1.07,0.13,3.06c13.06,27.88,50.21,64.68,81.74,94.86
	c15.65,15.31,29.49,29.79,37.66,41.64c8.46,11.77,9.95,20.82,10.17,20.34c0.04-0.15-1.48-9.62-9.94-21.68
	c-8.15-12.15-21.85-26.81-37.26-42.18c-31.06-30.36-67.32-66.87-80.09-94.14C324.56,268.6,323.66,268.09,323.02,268.4"/>
<path fill="#FFFFFF" d="M311.01,233.26c-0.37-0.35-0.94-0.32-1.99,0.9c-7.37,7.91-15.08,21.32-17.14,37.3
	c-2.22,15.94,0.41,33.12,2.85,48.55c2.49,15.4,4.11,29.91,0.89,39.78c-3.06,9.93-8.94,13.73-8.37,13.78c-0.14-0.14,6.1-4,9.24-14.25
	c3.31-10.16,1.69-24.79-0.58-40.12c-2.26-15.37-4.62-32.28-2.31-47.74c2.15-15.5,9.62-28.34,16.8-36.09
	C311.28,234.35,311.38,233.61,311.01,233.26"/>
<path fill="#FFFFFF" d="M327.79,212.28c-0.72,0.35-1,1.21,0.18,3.43c7.62,15.15,21.29,34.47,40.98,50.12
	c19.47,15.93,44.18,27.6,67.36,35.99c23.23,8.42,44.97,14.33,59.95,20.47c15.22,5.8,22.55,12.89,22.41,12.39
	c-0.02-0.24-7.66-7.71-23.02-13.81c-15.1-6.45-36.7-12.64-59.57-21.27c-22.82-8.6-46.88-20.36-65.75-36.06
	c-19.09-15.44-32.3-34.27-39.8-49.16C329.53,212.49,328.5,211.93,327.79,212.28"/>
<path fill="#FFFFFF" d="M330.12,291.66c-0.78,0.18-1.24,0.96-0.59,3.42c9.63,32.74,37.67,84.53,70.23,121.93
	c16.12,18.77,33.54,33.54,47.53,41.94c13.88,8.67,23.8,11.14,23.38,10.99c-0.1-0.39-10.09-3.46-23.73-12.49
	c-13.71-8.83-30.62-23.75-46.29-42.49c-31.59-37.28-58.9-88.6-68.33-120.65C331.77,292.25,330.9,291.48,330.12,291.66"/>
<path fill="#FFFFFF" d="M393.78,419.5c-0.37,0.19-0.52,0.64,0.09,1.8c8.13,15.65,23.11,41.96,36.98,63.67
	c13.66,21.86,27.1,38.41,27.09,37.87c-0.14-0.24-13.18-17.02-26.48-38.86c-13.5-21.7-28.14-47.77-36.25-63.38
	C394.69,419.6,394.15,419.31,393.78,419.5"/>
<path fill="#FFFFFF" d="M169.95,361.73c0-0.5-0.41-0.9-2-0.83c-10.8,0.06-25.28,4.06-38.91,12.02
	c-13.76,7.76-26.82,18.7-38.46,28.94c-11.64,10.27-22.14,19.81-30.74,25.29c-8.53,5.78-15.11,6.06-14.78,6.24
	c0.08,0.09,6.99-0.25,15.73-6.04c8.81-5.47,19.42-14.89,31.09-24.94c11.66-10.04,24.67-20.66,38.19-28.15
	c13.41-7.68,27.45-11.47,37.95-11.54C169.35,362.67,169.95,362.23,169.95,361.73"/>
<path fill="#FFFFFF" d="M192,332.23c0.23-0.5,0-1.06-1.61-1.71c-10.62-5.01-27.99-5.69-43.53,2.03c-15.71,7.14-29.88,19.15-43,29.6
	c-13.05,10.59-25.42,19.81-35.58,24.2c-10.12,4.57-17.17,4.39-16.84,4.67c0.1-0.05,7.47,0.28,17.82-4.31
	c10.39-4.38,22.9-13.52,35.98-23.9c13.14-10.26,27.28-21.92,42.59-28.71c15.19-7.3,31.54-6.55,41.81-1.75
	C190.98,332.89,191.77,332.72,192,332.23"/>
<path fill="#FFFFFF" d="M160.89,311.28c0.04-0.31-0.17-0.58-1.14-0.7c-12.92-1.7-36.06-1.33-53.94,6.16
	c-18.45,6.89-27.33,21.43-26.96,20.95c0.15,0.16,9.37-13.89,27.6-20.36c17.67-7.1,40.38-7.31,53.16-5.64
	C160.45,311.8,160.85,311.59,160.89,311.28"/>
<path fill="#FFFFFF" d="M163.1,379.27c-0.43-0.2-0.94-0.04-1.6,1.23c-9.79,17.13-35.96,40.79-62.49,52.74
	c-26.41,12.71-51.17,13.15-50.51,13.52c0.11,0.07,24.99-0.14,51.54-12.69c26.65-11.85,52.83-35.12,62.96-52.75
	C163.6,380.16,163.52,379.47,163.1,379.27"/>
</svg>
