<?xml version="1.0" encoding="utf-8"?>
<!-- Generator: Adobe Illustrator 13.0.0, SVG Export Plug-In  -->
<!DOCTYPE svg PUBLIC "-//W3C//DTD SVG 1.1 Tiny//EN" "http://www.w3.org/Graphics/SVG/1.1/DTD/svg11-tiny.dtd" [
	<!ENTITY ns_flows "http://ns.adobe.com/Flows/1.0/">
]>
<svg version="1.1" baseProfile="tiny"
	 xmlns="http://www.w3.org/2000/svg" xmlns:xlink="http://www.w3.org/1999/xlink" xmlns:a="http://ns.adobe.com/AdobeSVGViewerExtensions/3.0/"
	 x="0px" y="0px" width="204px" height="201px" viewBox="0 -0.135 204 201" xml:space="preserve">
<defs>
</defs>
<path d="M25.724,112.184c0,0,0.009-0.054,0.032-0.148c0.158-0.675,0.961-3.462,3.608-4.344c3.021-1.007,4.647-1.316,5.577-1.162
	s3.408,0.078,3.098,0.465c-0.31,0.387-2.246-0.62-2.866,0.077c0,0,1.162,0.697,0.387,1.549s-3.175,1.394-3.95,1.162
	c-0.774-0.232-2.711,0.542-3.021,0.697c-0.31,0.155-0.542,1.471-1.317,1.394c-0.774-0.078-2.168,0.774-1.781,1.316
	c0.387,0.542,1.937,0.697,2.711,0.697s8.984-2.014,10.766-5.267c1.781-3.253,2.246-5.654,1.162-6.893s-2.014-1.936-2.789-2.168
	s5.112,1.394,3.95,4.724c-1.162,3.331-1.317,6.042-7.978,8.752c0,0-6.894,2.556-9.062,1.937c-2.169-0.62-3.176-2.246-3.795-3.176
	c-0.62-0.929-0.697-3.718-0.542-4.183c0.155-0.464,0.155,1.782,0.929,2.014c0.775,0.232,1.239-1.317,2.479-2.247
	c1.239-0.929,3.331-2.633,4.337-2.71c1.007-0.078,2.633,1.627,1.084,2.324S20.38,113.268,25.724,112.184z"/>
<path d="M36.645,97.157c0,0,10.456,7.125,12.393,8.907c1.936,1.782,10.611,9.604,12.005,11.153c0,0-7.9-8.598-9.14-9.604
	c-1.239-1.006,6.196,3.098,8.132,4.802c1.937,1.704-8.21-6.351-9.139-6.893c-0.93-0.542-3.408-3.718-1.937-3.408
	s5.809,4.105,7.048,4.957s0.077-1.782-1.007-2.324c-1.084-0.542-5.886-3.408-6.196-3.873s-1.937,1.859-0.232,3.253
	C48.573,104.128,38.659,98.009,36.645,97.157z"/>
<path d="M79.709,148.508c0,0,1.239-8.674-0.852-12.315c-2.091-3.64-6.119-8.365-6.739-8.907c-0.619-0.542,3.95,2.789,5.267,3.331
	c1.317,0.542,5.112,2.4,5.887,2.4c0.775,0-6.429-2.788-8.132-5.112c-1.704-2.323-5.964-9.914-7.668-11.23
	c-1.704-1.317-3.408-2.789-3.408-2.014s0,4.105,2.865,6.894c2.866,2.788,3.873,5.345,3.95,5.654c0.078,0.31-5.886-5.499-7.125-6.042
	s10.456,9.372,12.702,14.329c2.246,4.957,2.943,8.83,2.866,9.527c-0.077,0.697-3.718-13.012-16.652-22.771
	c0,0,9.914,9.217,12.393,15.181c0,0-9.836-11.928-15.491-13.864c0,0,11.23,10.146,13.554,14.484c0,0-5.731-7.823-7.9-9.914
	c-2.169-2.091,0.155-0.155,0.155-0.155S76.998,137.2,79.709,148.508z"/>
<path d="M103.036,88.292c0,0-3.981,0.948-4.17,1.422s-1.043,1.991,0.379,2.18s2.654,0.948,3.033,0.948
	c0.379,0,2.654-1.611,3.318-1.517s1.991,1.232,3.033,1.232s1.232-1.043,1.896-1.043c0.663,0,1.232-1.327,1.421-1.991
	c0.19-0.663,1.612-1.706,2.275-1.517c0.663,0.19,2.37,0.095,3.223-0.758c0.853-0.854,2.37-2.654,2.275-3.507
	s-0.095-5.688-0.095-6.067c0-0.379,1.232,1.327,1.232,1.327s1.421-7.678,0.758-8.625c-0.664-0.948-2.654-5.782-8.626-7.394
	c0,0,4.739,5.119,5.308,6.351c0.569,1.232,2.085,5.213,1.896,6.256c-0.19,1.042-0.664,1.137-0.948,0.664
	c-0.284-0.474-0.758-3.318-0.758-3.887s-1.137,0.19-1.517-0.379c-0.379-0.569-3.128-1.611-2.654-0.474
	c0.474,1.138,0.189,3.981-0.379,3.413s1.138,0.853,1.991,1.611s2.938,3.128,2.844,4.266c-0.095,1.137,0.095,3.792-1.043,4.265
	c-1.137,0.474-2.085,1.612-2.749,1.422c-0.664-0.189-2.56,0.474-3.223,1.232s-3.128,2.749-3.697,2.654
	S101.898,90.567,103.036,88.292z"/>
<path d="M104.458,84.122c0,0,0.379,1.896-0.284,2.465c-0.664,0.568-0.189,2.18,0.853,2.18c1.043,0,4.36-0.664,4.929-1.991
	s1.801-0.948,2.37-1.042c0.569-0.095,3.128-0.569,3.697-1.327s1.706-2.275,1.611-3.033c-0.095-0.759-2.938-2.749-3.602-3.413
	s-1.896-0.853-2.938-0.758c-1.042,0.095-4.36,0.284-4.645,0.095s1.232,3.128,1.517,4.171c0.284,1.042-0.379,2.18-0.379,2.18
	s0.663-3.128,1.422-2.654c0.758,0.474,3.033,0.379,3.223,0.948c0.189,0.569,1.801,0.379,1.991,0.948
	c0.189,0.568,1.706,0.758,1.421-0.19c-0.284-0.948-2.464-1.517-2.843-1.611c-0.379-0.095-3.034-1.896-2.275-2.275
	c0.758-0.379,6.54,1.801,6.351,2.749c-0.189,0.948-0.758,2.464-1.611,3.033s-5.213,0.758-5.498,1.517
	c-0.284,0.758-1.706,0.853-2.18,0.189c-0.474-0.664-1.232-2.464-0.854-2.275c0.379,0.189,0.379-1.327-0.284-1.327
	S102.941,82.7,104.458,84.122z"/>
<path d="M86.195,67.186c-2.21-2.971-2.307-2.686-5.245-4.013s-6.351-11.849-7.583-13.081c-1.232-1.232-3.128-2.749-4.076-7.014
	c-0.948-4.266-3.602-8.057-6.635-9.953c-3.033-1.896-6.256-3.033-10.901-2.464s-21.896,6.541-25.214,11.754
	c-3.318,5.213-6.825,4.739-7.583,6.541c-0.758,1.801-5.403,10.142-5.877,12.891c0,0-1.896,5.972-1.707,7.678
	c0.19,1.706-0.758,8.72-1.137,10.711c-0.379,1.991-0.189,0.569,1.232,0.758c1.421,0.189,5.403,2.18,5.782,2.749
	c0.379,0.569-2.275-6.541-1.801-8.437c0.474-1.896,1.517-6.445,1.137-8.152c-0.379-1.706,1.138,1.517,0.19,6.351
	c0,0-0.379,5.877,1.517,10.143c0,0,0.948-3.697,1.801-4.645c0.853-0.948-0.948-2.37-1.042-3.317
	c-0.095-0.948-0.474-3.033-1.138-1.706c-0.664,1.327,0.569-1.422,0.948-2.37c0.379-0.948,1.896-5.119,2.275-5.972
	c0.379-0.853,0.474,1.801,0,3.413c-0.474,1.611,0.474,1.611,1.422,3.413c0.948,1.801-0.474,2.559-1.612-0.095
	c-1.137-2.654-1.042,1.707-0.379,2.465s2.938,3.507,3.886,2.559s2.053-2.319,2.275-2.749c0.215-0.416,0.326-2.521-0.061-4.376
	s4.328-6.028,4.328-6.028c2.009-1.005,8.965-4.328,10.82-5.178s4.56-3.865,4.173-3.633c-0.386,0.232-8.347,2.319-11.207,2.86
	c-2.859,0.541-3.787,3.478-3.787,3.478s-0.154-2.164,1.546-3.633c1.7-1.468,3.787-2.164,5.719-2.627
	c1.932-0.464,10.975-4.251,12.134-3.401s-1.082,2.86-0.386,2.628s5.178,0.386,3.71,0.541c-1.469,0.154-7.497,1.855-6.492,2.087
	c1.004,0.232,4.637,1.545,3.478,1.313c-1.159-0.232-4.328-0.618-5.101-0.077s-9.645,4.851-12.907,6.106
	c-2.009,0.772-3.4,4.56-4.56,6.801c-1.16,2.241-0.46,4.751-0.46,4.751c0.664,0,2.56-2.085,2.654-2.465
	c0.095-0.379,5.498-7.583,8.152-8.91c0,0-1.422-0.189-0.853-0.664c0.569-0.474,10.143-4.645,12.323-4.455s10.047,2.085,12.228,3.887
	c0,0-2.37,1.137-3.033,0.853c-0.664-0.285-3.697-0.285-4.171-0.19c-0.474,0.095-2.085,1.707-2.085,1.707s1.896-2.275,2.275-2.749
	c0.379-0.474-2.844,0.474-3.223,1.137c-0.379,0.664,0.758-1.896,0.758-1.896s-3.128,2.37-3.317,2.938s1.232-2.56,0.758-2.275
	c-0.474,0.284-2.749,1.801-2.844,2.18c-0.095,0.379,0.853-1.517,0.379-1.517c-0.474,0-2.559,0.379-2.654,0.758
	c-0.095,0.379-4.171,2.464-5.119,3.792s-2.275,3.412-2.464,4.076c-0.19,0.663-0.853-1.327-1.327-0.379s-0.853,3.792-1.327,4.171
	c-0.474,0.379-1.137-2.37-1.327-1.612c-0.189,0.759-0.664-0.948-0.758-0.284s-0.948,1.801-0.664,2.56c0,0,0.095,2.37-0.189,2.843
	c-0.284,0.474-0.948,0.569-1.327,0.569c-0.379,0-3.223,0.095-3.886,0.095s-3.792-0.474-4.076-1.042
	c-0.285-0.569-1.707-1.422-1.707-1.043c0,0.379-2.085,4.076-1.896,5.403c0.189,1.327,1.137,0.569,1.137,0.569l2.085,0.758
	c0,0,1.991-1.327,2.464-1.327c0.474,0,1.422-0.758,2.085-0.758s6.351-0.664,6.73-1.043c0.379-0.379,3.318-3.033,4.266-2.938
	s1.896-1.042,1.896-1.706s2.938-5.119,7.298-5.688c4.36-0.568,8.437-0.095,10.901,3.413c0,0-5.213-4.076-8.531-2.559
	c0,0,5.023,0.758,7.678,4.17c0,0-2.464-1.611-3.033-1.042c0,0,1.611,1.611-1.991,4.076c0,0,3.507-2.938,0.758-4.739
	c0,0-4.36-1.707-6.635-0.474s-5.403,3.413-5.119,5.782c0,0,0.095,1.042,0.758,1.042c0.664,0,1.422,0.379,1.517,0.853
	c0.095,0.474,2.275,0.759,2.56,0.569c0.284-0.189-1.801-0.853-1.896-1.801c-0.095-0.948,0-3.507,1.517-4.55
	c1.517-1.043,3.792-1.232,5.119,0.853c0,0,0.095,0.474-0.379,0.379c0,0-0.274-1.474-1.997-1.66
	c-1.723-0.187-3.238,1.079-3.446,1.661c-0.208,0.581-1.412,3.549,1.287,4.649c0,0,2.449-0.187,2.262-1.515
	c0,0-2.864,0.768-2.595-2.097c0,0,0.436-2.408,2.74-1.121l-1.349,0.062l-0.582,0.914l2.678,0.021c0,0,0.27,0.602,0.062,1.08
	s-0.727,0.893-0.727,0.893l0.291,0.664c0,0,1.848-0.548,2.101-0.864s0,1.264-6.951,3.476c0,0,4.36,1.011,11.249-1.896
	c0,0-2.591,2.465-11.754,3.033c0,0-1.959,1.011,0.126,1.011s10.237-1.77,11.248-2.275c1.011-0.505,2.022,1.833-7.204,4.297
	c-9.226,2.465-9.984-0.758-10.174-1.011s1.959-1.201,2.591-1.264c0.632-0.063,2.717-1.896,2.022-2.78
	c-0.695-0.885-1.644-0.253-1.77,0.379c-0.126,0.632-1.201,0.569-1.201,0.126s-1.327-0.189-1.706,0.063
	c-0.379,0.253-1.327-1.391-3.097-0.569s-8.784,1.769-9.921,2.275c-1.137,0.505-2.148,1.327-1.769,2.148
	c0.379,0.822,1.643,2.528,1.137,3.033c-0.505,0.506-3.223,5.056-4.107,6.762c0,0-1.011-2.464-0.063-4.107
	c0.948-1.643,2.275-1.264,2.275-1.264s0.505-0.695-0.19-0.695c-0.695,0-2.212-0.063-2.78,1.011
	c-0.569,1.074-1.201,3.033-0.505,6.129c0,0-0.569,0.189-0.885,0.632c-0.316,0.442-0.758-0.126-0.758-0.126s0.505-1.454,0.316-1.896
	s-1.201-0.569-1.643-0.316s-0.126-0.569,0.569-1.138c0.695-0.568-0.316-0.632-1.011-0.695c-0.695-0.063,0.126-1.707,0.632-2.149
	c0.506-0.442,1.011-2.717,2.022-2.78c1.011-0.063,4.55,0,5.182,0.253s0.442-0.506-0.758-1.201c-1.201-0.695-3.729-1.454-5.182-1.58
	c-1.454-0.126-2.591-0.885-3.729-0.379c-1.138,0.505-1.517,0.885-1.454,1.517s0.758,2.401,0.758,2.844
	c0,0.442,1.959,5.434,5.498,9.479c0,0-1.327,7.33-1.453,8.468c-0.126,1.137-1.327,3.539,4.803,4.992c0,0,0.253-0.253,0.442,0.568
	c0.189,0.822,4.297,1.201,5.182,1.264c0.885,0.063-0.821,0.885-0.442,1.264c0.379,0.379,3.918,0.885,4.487,0.758
	c0.569-0.126,2.401-1.769,3.476-2.464s2.401-0.19,1.327,0.063s-2.591,1.264-3.223,1.644c-0.632,0.379,5.561-1.138,7.141-0.948
	c1.58,0.189-8.468,1.074-9.605,2.717c-1.137,1.643-1.58,4.929-1.39,5.625c0.189,0.695,1.074,0.885,1.706,0.379
	s7.078-4.171,10.869-4.677c3.792-0.505,11.312,0.38,13.081,1.265c0,0-9.668-2.085-14.724-0.632
	c-5.055,1.453-9.479,4.739-9.668,4.929c-0.189,0.189,1.454,0.442,2.275-0.316c0.822-0.758,2.275-0.885,2.591-0.632
	c0.315,0.253-0.632,0.948-0.632,0.948s-0.695-0.19-0.884,0.379c-0.19,0.569,2.464,4.613,2.97,4.803s1.327-0.695,1.327-0.948
	s-3.033-3.729-3.033-3.729s0.505-0.758,0.505-0.569s2.338,3.918,3.033,4.044c0.695,0.126,2.275-1.264,2.212-2.022
	s-2.591-3.16-3.16-3.476c-0.569-0.316-1.77-0.126-1.77-0.126s0-3.286,9.353-3.097c0,0,2.97,0.253,3.476,0.379
	c0,0-8.404-0.505-10.743,1.201c0,0-0.253,0.569,0.442,1.327s2.717,3.602,3.096,3.665c0.379,0.063,2.338-0.252,2.844-1.074
	c0.506-0.822,0.632-0.758,0.632-1.264c0-0.505-1.58-2.654-2.022-2.907s-0.821-0.442-1.137-0.442c-0.316,0,2.843-0.252,3.286-0.126
	c0.442,0.126-0.821,0.505-0.695,0.948c0.126,0.442,0.316,2.338,1.327,2.717c1.011,0.379,2.464-1.011,2.654-1.896
	c0.19-0.885,0.063-1.643,0.063-1.643s0.632,0.569,1.074,0.822s1.074,0.632,1.959,0.568c0.885-0.063,2.211-0.126,2.844,0.126
	c0.632,0.253,11.69,2.97,14.787,12.449c0,0,0.695,3.539,0.442,5.055c0,0-3.728,0.695-4.423,1.327s2.781-2.654,3.033-2.97
	c0.253-0.316-0.948-5.372-3.223-6.32c-2.275-0.948-6.509-1.643-7.836-0.505c-1.327,1.138-2.465,2.591-2.907,2.844
	c-0.442,0.252-1.327,3.223-1.896,4.929c-0.569,1.706-0.568,6.635-0.695,8.025c-0.126,1.391-1.959,2.465-2.338,2.781
	c-0.379,0.315,2.022-1.896,1.833-4.487s0.505-6.508,0.822-7.457c0.316-0.948,2.211-4.36,2.464-4.739
	c0.253-0.379-0.885-0.253-2.085,0.695c-1.201,0.948-4.55,4.171-5.435,5.94s-1.39,1.832-1.39,2.148c0,0.316-7.268-7.078-7.962-8.784
	s-2.907-3.539-3.286-4.424c-0.379-0.884-1.643-3.729-2.085-3.665c-0.442,0.063-1.833-0.379-1.896,0.758
	c-0.063,1.137,14.169,17.587,14.604,18.968c0,0-8.253-10.108-9.181-10.85c-0.928-0.742-4.544-4.915-5.286-5.75
	s-0.463-3.246-1.669-4.637s-2.968-4.358-4.359-5.935c-1.391-1.577-2.597-3.524-2.504-4.451c0,0-5.379-1.021-5.379-3.71
	c0-2.689,1.577-7.605,1.762-9.831l-0.927-1.298c0,0-1.391,2.689-2.04,2.968c-0.649,0.278,1.576-2.04,1.391-3.617l-0.557-0.278
	c0,0-0.557-1.577-0.927-1.577c-0.371,0-3.432,2.597-3.524,2.875s2.226-2.411,3.339-3.338c0,0-1.113-2.226-1.113-2.504
	s-3.153,1.298-3.524,1.854s2.226-2.226,2.411-2.875c0.186-0.649-4.266-0.186-4.822-0.093c-0.557,0.093,4.637-1.298,4.637-2.226
	c0-0.928-0.742-2.504-1.669-3.153c-0.927-0.649-3.895,1.298-5.008,0.927C4.243,88.193,9.25,88.1,9.343,86.245
	c0.093-1.854,0.464-5.471,0.186-5.564s-5.657,0.557-6.955-0.093c-1.298-0.649,6.955,0.557,7.604-2.318
	c0.649-2.875,0.649-3.802,0.649-3.802s-7.048-1.112-7.697-1.483s3.617-0.093,4.359-0.649c0.742-0.556-4.359-3.896-4.823-5.287
	c0,0,5.657,5.379,7.326,5.193l1.206,0.463l-0.186-2.133c0,0-5.378-1.298-7.048-3.431c0,0,6.677,3.617,7.048,1.947
	c0.371-1.669,0.278-3.338,0.278-3.338s-4.451-3.153-6.121-3.06c-1.669,0.092,1.206-1.392,6.677,2.226l0.649-2.968
	c0,0-3.987-4.544-3.987-5.193s2.875,3.802,4.451,3.802l0.371-0.928c0,0-10.387-7.233-11.407-9.922c0,0,1.577,1.669,3.246,2.411
	c1.669,0.742-2.226-4.081-2.411-5.193c-0.186-1.113,4.637,7.975,9.088,9.273c0,0-6.213-6.77-6.398-7.697c0,0,6.862,7.419,7.79,7.419
	c0,0-6.213-7.048-7.604-10.387c0,0,3.709,4.916,4.359,5.193c0,0-7.512-14.745-7.048-18.547c0,0,6.77,20.587,11.036,22.627
	c0,0-0.649-2.69-2.133-3.71c-1.484-1.02-0.093-1.298-0.093-1.298s-1.762-5.378-1.298-6.77c0,0,0.371,2.689,1.484,3.895
	c0,0-0.186-3.246-2.133-6.213c-1.948-2.968-5.008-8.903-4.173-15.023c0,0-0.557,7.233,4.637,14.745c0,0-1.298-6.677-1.391-8.625
	c0,0,3.246,12.705,6.306,15.58c0,0-0.371-1.948-3.246-9.459c-2.875-7.512,0.556-12.427,0.927-13.91c0,0-4.729,11.221,3.338,20.958
	c0,0-1.02-4.915-3.153-9.366c0,0,4.544,9.459,4.451,8.346s-3.801-16.692-1.854-21.515c0,0,0.556,15.116,3.246,16.97
	c0,0,0.742-5.007-0.927-8.902c0,0,1.854,4.266,1.854,2.782c0-1.484-3.06-11.685,0.742-17.342c0,0-2.967,8.439,0.093,15.394
	c0,0-1.577-13.539,2.318-18.732c0,0,0.278-7.418,1.669-8.81c0,0-1.669,7.326-0.371,12.89c0,0-1.298-5.101-1.948-2.318
	c-0.649,2.782-1.02,7.882-0.557,10.386c0,0,2.412-6.306,2.319-6.955c0,0,0.278,1.113,0.556,0.371
	c0.278-0.742,0.649-10.85,1.947-12.797c0,0-1.947,12.52-0.834,10.757c1.113-1.762,1.021-7.79,1.577-8.068
	c0,0-1.021,7.79-0.464,7.604s0.928-4.451,1.298-5.008c0.371-0.557-0.464,5.193-0.464,5.193s3.432-11.035,5.843-12.704
	c0,0-6.584,11.221-3.802,15.579c0,0,0.464-2.967,0.556-3.246c0.093-0.278-0.556,4.915-0.278,5.564
	c0.278,0.649,1.669-8.624,1.762-11.963c0,0,0.835,3.988,0.464,5.008s1.02-11.128,3.709-13.91c0,0-5.378,19.196,0.649,21.7
	c0,0,1.298,0.649,0.371-2.597S35.773,4.173,37.906,1.947c0,0-3.338,12.148,1.206,18.176c0,0,0.556-13.632,1.577-15.487
	c0,0,0.186,3.153,0.742,2.411c0,0,3.524-2.968-2.875-6.213c0,0,4.173,0.649,5.193,5.472c0,0-1.113,5.657,0.278,10.572
	c0,0-1.854-7.697-1.577-9.83c0,0-2.782,5.935,1.021,10.85c0,0,1.947,0.278,1.762-6.862c0,0-1.855,0.834-0.649-3.988
	c0,0-0.463,4.266,1.206,3.431c0,0,0.742-6.677,3.432-7.326c0,0-3.246,3.338-1.855,6.306c0,0-1.02,6.027,0.742,8.717
	c0,0,0.742-3.338,0.185-5.75c0,0,0.742-5.563,1.948-7.047c0,0-2.133,8.161-1.206,6.862s4.544-9.088,7.326-9.645
	c0,0-6.306,5.935-6.213,11.592c0,0,1.762-4.266,1.947-4.637c0.186-0.371-0.649,6.306,2.226,8.995c0,0,0.371-13.354,5.75-16.043
	c0,0-5.564,4.081-4.173,17.341c0,0,0.742-4.915,1.762-6.491c0,0,1.113-7.141,3.339-9.645c0,0-4.822,10.943-2.319,18.547
	c0,0,1.577-4.266,0.835-9.552c0,0,1.02,5.936,0.556,10.108c0,0,1.206-1.669,1.391-3.431c0,0-0.742,4.729-0.742,5.193
	c0,0.464,3.06-8.995,2.411-12.89c0,0-3.524-2.782-1.577-7.141c0,0-1.113,4.822,1.577,6.121c0,0,1.298-3.709,0.371-6.121l1.113,1.947
	c0,0,0.834-3.06,0.278-4.358c-0.556-1.298,1.206,1.298,1.855,0.649c0.649-0.649-1.948,3.987,0.834,8.531
	c0,0,4.915-6.491,5.286-11.313c0,0,0.464,5.193-4.08,12.334c0,0,1.484,2.875,1.762,4.266c0.278,1.391-0.835-7.048,2.782-10.943
	c0,0-2.597,7.141-1.113,12.612c0,0,0.093-6.12,2.04-8.717c0,0,0.556,1.205,1.113-0.093c0.557-1.298-2.132,5.564-0.371,8.253
	c1.762,2.689,0.556,2.782,0.278,4.358c-0.278,1.577,2.968-5.842,1.021-10.386c0,0,2.318,3.802,2.503,5.008
	s-0.927-9.366,0.742-12.427c0,0-0.556,8.81,0.371,12.056c0.927,3.246,1.669,0.834,1.947,0.742c0.278-0.092,1.669,4.359,2.226,3.153
	s-3.246-7.048-4.358-7.882c-1.113-0.835,5.101,2.597,6.398,5.193c0,0-4.729-4.358-3.709-2.596c1.02,1.762,2.132,4.266,2.318,4.822
	c0.186,0.557,2.319-1.02,2.411-2.967c0.093-1.947,2.968-10.108,7.697-13.354c0,0-8.161,9.923-5.935,13.447
	c0,0,1.577-0.278,2.133-1.577c0.556-1.298-2.411,4.173-2.411,4.173s3.895-2.504,4.636-5.75c0.742-3.246,2.69-7.326,3.802-7.975
	c1.113-0.649-3.06,3.895-2.411,7.141c0,0,2.782-5.101,3.709-5.657c0.928-0.556-2.875,3.431-2.04,6.213c0,0,1.948-2.04,2.597-3.153
	s-1.948,3.895-4.637,6.213c-2.689,2.318-4.915,7.141-4.729,8.161c0.185,1.02,4.451-7.048,5.008-7.419s0,5.471,0.278,7.048
	c0.279,1.577,1.948-7.79,2.782-8.996c0.835-1.205,0.093,2.782,0.464,3.339c0.371,0.556,3.153-5.101,3.709-6.213
	c0.557-1.113,2.968-4.081,3.617-4.822c0.649-0.742-5.657,8.81-4.452,15.58c0,0,2.133-1.391,2.133-3.709s1.298-0.464,1.298-0.464
	s2.041-7.511,3.338-8.624c1.298-1.113-1.391,1.391-2.782,8.439c0,0,2.133-4.081,2.875-4.729c0.742-0.649-2.041,3.802-2.411,4.915
	c-0.371,1.113,3.895-5.007,4.729-5.1c0.834-0.093-3.988,4.544-5.657,9.366c0,0,3.71-1.947,4.359-4.915s0-0.278,0-0.278
	s0.278,3.06-1.02,4.822c0,0-3.153,1.484-1.206,1.484s5.378-3.988,6.027-6.399c0,0-2.133,6.399-5.193,8.346
	c0,0,2.318,0.927,2.133,1.669c-0.186,0.742,4.081-8.161,5.008-9.181c0,0-5.286,11.777-4.173,10.757
	c1.113-1.02,7.604-7.048,8.253-7.604s-6.955,8.996-5.564,8.346s8.624-8.068,9.181-8.068s-7.882,8.068-6.213,8.068
	c1.669,0,6.676-1.484,7.047-2.597s-1.205,2.597-2.318,2.875c-1.113,0.278,2.597,0.742,4.173,0.742s-9.644,1.391-12.148,3.338
	s2.411,1.298,3.06,0.927c0.649-0.371,3.803-1.762,3.803-1.762s-5.194,4.915-1.577,2.782c3.617-2.133,6.955-2.225,8.902-3.616
	c1.947-1.391-1.855,2.689-1.855,2.689s4.915-1.947,6.306-2.133s-2.967,2.04-3.338,3.246c-0.371,1.206,4.544-1.669,5.286-2.133
	s-6.398,4.358-7.141,6.028s8.717-1.02,9.551-1.577c0.835-0.556-5.192,2.411-5.286,2.597c-0.093,0.186,5.657,1.298,7.326,1.298
	c1.669,0-7.975,2.318-7.697,2.318c0,0,6.584,0.278,9.644-0.649c3.061-0.928-10.201,5.1-12.705,5.471s-0.463,1.298,0.186,1.298
	s5.935-0.834,6.584-1.206c0.649-0.371-9.459,4.729-9.459,4.729s5.471,1.206,5.842,1.206s12.241-4.729,16.507,1.669
	c0,0-5.193-6.955-20.495,1.206c0,0,10.757-1.855,12.333-1.113c1.577,0.742-6.77,1.948-1.577,2.504
	c5.194,0.557,10.386,3.895,12.334,5.472c1.948,1.576-5.935-3.802-10.572-4.451c0,0,8.161,5.378,8.439,6.491
	c0.278,1.113-3.709-3.802-8.902-1.577c0,0,6.398,2.226,6.677,3.153c0.278,0.928-6.398-2.04-11.036,1.113
	c-4.637,3.153,7.975,0.093,8.532-0.463c0,0-4.729,2.504-2.875,2.318c1.855-0.186,8.253,0.464,8.625,0.834
	c0.371,0.371-5.936-0.742-9.181,0.557c-3.245,1.298,3.988,1.02,4.729,1.113c0.742,0.093,0,4.915-8.717,4.637
	c0,0-0.557,4.08,6.584,6.213c0,0-5.75-1.112-8.161-5.193c0,0-3.06,1.484-0.463,4.544s8.717,9.367,12.333,8.81
	c0,0-7.14-0.557-9.088-2.875s2.412,5.193,3.896,6.584c1.483,1.391-1.762-0.927-3.338-3.524c-1.577-2.596-3.896-7.14-7.048-3.802
	c-3.153,3.339,4.451,5.472,5.935,6.028c1.484,0.556,2.133,3.153,3.988,4.544c1.855,1.391-4.359-3.246-5.193-3.709
	c-0.834-0.464,2.689,5.842,3.617,6.028c0.928,0.186-1.576,0.463-4.544-4.266s1.577,5.008,1.855,6.213
	c0.278,1.206-3.988-5.657-5.286-4.451s4.358,8.068,5.75,8.995c1.391,0.927-3.06-1.947-3.06-1.947s0.743,2.04,1.484,3.709
	c0.742,1.669-1.669-1.483-2.133-1.762c-0.463-0.278,2.967,7.604,3.709,8.902c0.742,1.298-6.677-9.459-8.996-11.128
	c-2.318-1.669,4.823,10.108,7.234,12.705c0,0-5.378-6.584-6.955-8.717c0,0,5.657,10.943,7.047,11.963c0,0-2.226-1.298-2.503-1.948
	c-0.278-0.649,1.02,3.802,1.947,4.266c0,0-1.762-1.484-1.02,2.133c0,0-1.948-9.83-3.524-8.902c-1.576,0.927,2.875,7.048,3.153,9.459
	c0,0-2.411-4.916-2.597-3.432c-0.186,1.484,0.279,4.729,0.742,6.584c0.464,1.854-1.298-3.153-1.577-2.226
	c-0.278,0.927-1.483,3.06-1.854,3.431s2.782-7.975-0.557-9.923c0,0,1.206,4.358,0.278,7.233c0,0-0.464-7.697-1.762-7.419
	c-1.298,0.278,0.927,5.101,0.835,6.956c-0.093,1.854-1.577-5.75-3.061-5.472c-1.483,0.278,3.246,5.286,2.318,8.439
	s-3.988,7.326-4.544,7.883c-0.556,0.556,1.484-6.956,1.113-8.625c-0.371-1.669-1.021,1.206-0.928,2.504
	c0.093,1.298-0.556,4.544-0.927,4.729c-0.371,0.186-2.689-14.652-2.226-15.95c0,0-0.914-8.979-1.672-12.265
	c-0.316-1.373-0.743-3.802-1.166-6.2c0,0,0.534,8.538,0.723,10.718s-2.275-8.342-3.412-9.195c-1.138-0.853-5.024-1.896-5.403-2.844
	c-0.379-0.948-3.697-2.843-3.981-2.654c-0.285,0.189,0.379,8.91,1.327,11.564c0,0-1.896-8.721-2.085-12.986
	c0,0-0.095-3.886-0.379-4.55c-0.284-0.664,2.085,3.507,4.36,3.602c2.275,0.095,2.37,0.474,6.351-0.19c0,0,1.042,1.517,1.327,2.749
	c0.284,1.232-0.601-2.211-0.253-3.096c0.229-0.583,7.457-3.918,8.531-13.271c1.075-9.353,3.854-15.735-5.814-21.549
	c0,0-2.401-1.138-7.204-1.454c0,0,7.899,7.52,8.405,9.668c0,0-5.371-7.457-11.122-8.91c0,0,7.709,7.899,7.709,10.996
	c0,0-4.803-9.1-12.323-10.363l2.844,1.517c0,0-5.087-0.411-5.498,0c-0.411,0.41,8.152,0.948,11.122,5.118
	c2.97,4.171,0.189,0.19,0.189,0.19s-3.665-3.16-9.795-2.528c0,0,7.268,7.014,7.836,8.91c0,0-6.13-6.825-8.468-7.52
	c0,0,5.435,8.973,5.814,10.111c0.379,1.138-7.836-12.828-10.49-13.586c0,0,3.539,7.267,3.918,7.646
	c0.379,0.379-3.255-3.254-3.855-3.855c-0.6-0.6,7.899,10.806,9.227,12.955s-8.657-11.501-12.639-12.639c0,0,6.003,9.542,9.731,12.26
	l-7.772-7.204l6.256,8.594c0,0-7.394-7.488-8.341-7.962s5.024,7.868,5.213,9.953c0.189,2.085-0.284,4.076,0.284,5.214
	c0.569,1.137-2.844-8.531-4.17-10.711c-1.327-2.18-4.171-6.825-5.593-8.152s-2.749-2.37-2.749-3.128S88.123,69.777,86.195,67.186z
	 M83.415,38.434c5.479-1.934-8.341,3.317-9.005,2.749s-3.033-0.853-2.844-1.517c0,0-1.928-1.359-1.991-3.033
	c-0.051-1.366-0.379,5.498,1.896,8.057c0,0,0.948,2.18,2.559,3.602s2.844,6.351,3.413,7.394c0.569,1.042,2.938,5.972,4.645,6.919
	s5.308,2.37,5.593,2.654c0.284,0.284-3.697-2.085-5.213-3.697c-1.517-1.612-2.844-4.076-2.844-5.024s6.161,6.73,9.1,7.678
	c2.938,0.948-3.507-1.706-6.919-7.678c-3.413-5.972,0-0.284,0-0.284s6.351,6.54,7.962,7.014c1.612,0.474-6.445-7.773-6.919-8.721
	s2.654,0.474,3.602,0.758c0.948,0.285,3.886,1.991,4.266,2.938c0.379,0.948,3.412,3.033,3.412,3.033s-2.654-3.033-2.938-4.076
	c-0.284-1.043-4.929-3.413-7.298-4.076c-2.37-0.664,6.54,0.379,8.247,1.232c1.706,0.853,5.308,0.758,5.687,0.474
	c0.379-0.285-2.654-0.19-4.645-1.422c-1.991-1.232-7.488-3.128-9.1-3.318c-1.611-0.189-3.033-0.948-3.981-1.232
	c-0.948-0.285,8.247,0.948,9.858,1.422c1.611,0.474,4.455-0.095,5.403,0c0.948,0.095-7.014-1.327-8.815-1.896
	c-1.801-0.569-5.119-0.853-5.592-0.853c-0.474,0,4.36-1.043,5.782-0.758c0,0,10.458-4.866,12.607-8.278c0,0-4.929,6.951-6.192,7.204
	c-1.264,0.252,8.72-2.781,9.605-3.666c0.885-0.884,0.885,0.758,0.885,0.758S114,39.634,115.137,38.75c0,0-2.528,0.758-6.193,0.379
	c-3.665-0.379,0.885-2.907,2.148-4.676s-6.698,4.803-8.847,5.435c-2.149,0.632,4.676-4.55,5.688-6.572
	c1.011-2.022-4.171,3.034-6.067,3.16c-1.896,0.126,3.539-5.688,4.803-7.078c1.264-1.391-7.457,6.446-9.605,7.078
	c-2.148,0.632,4.044,3.917-11.185,6.509c-3.369,0.573-3.697,1.327-6.066,0.948c-2.37-0.379-4.171-1.042-4.55-1.422
	c-0.379-0.379,4.739-1.422,6.161-1.706C81.424,40.803,76.969,40.708,83.415,38.434z M21.485,26.364c0,0,0.885,7.077,0.379,8.467
	c-0.505,1.391,1.137-2.022,2.022-2.527c0.885-0.506,0,2.907-0.379,3.792c-0.379,0.885,3.539-1.769,4.676-1.896
	c1.137-0.126-2.781,0.506-2.781-0.505s1.643-3.665,2.528-5.435s2.781,0.632,2.907,1.138c0.126,0.505,4.17,3.917,2.907,1.643
	c-1.264-2.275-4.929-7.583-4.929-8.089c0-0.505,2.654,1.896,3.033,2.528c0.379,0.632,3.413,4.676,4.297,5.308
	c0.884,0.632-3.286-5.814-3.539-7.204c-0.252-1.39,2.528,2.654,3.286,3.665s-0.126-2.022-0.253-2.907s2.528,4.423,3.16,5.308
	s-0.126-1.264,0-2.654c0.126-1.39,1.643-1.137,2.275-0.632s3.286,2.022,3.286,2.401c0,0.379-1.264-4.676-1.138-5.182
	c0.126-0.505,4.677,1.896,5.309,2.528c0.632,0.632,4.549-1.264,5.94-0.632c1.39,0.632,5.435,2.401,4.929,2.022
	c-0.506-0.379-5.435-3.792-6.067-6.319c-0.632-2.527-2.401-6.446-2.401-6.446s-0.632,2.781-0.506,3.666s0.126,6.193-1.011,3.16
	c-1.138-3.034-3.033-1.77-3.539-3.918c-0.505-2.149,0.126,3.16,0.632,4.423c0.506,1.264-5.435-5.435-6.193-8.215
	c0,0,0.126,5.687,0.505,7.33c0.379,1.643,0.632,4.297-0.505,1.896c-1.137-2.401-2.148-2.781-2.148-2.781l0.885,4.044
	c0,0-3.16-1.643-3.792-2.528s-2.275-4.171-2.907-7.078c0,0-1.011,4.424-0.758,5.561c0.252,1.138-2.022,3.539-2.528,1.264
	c-0.506-2.275-1.391-5.056-1.391-5.056s-0.252,3.286-0.632,4.676c-0.379,1.391-1.39-2.907-1.011-3.792
	c0.379-0.885-3.033,7.457-3.159,7.836c-0.126,0.379-1.39,1.264-1.896-1.896L21.485,26.364z"/>
<path d="M44.235,147.188c0,0,0.758,4.676,0,6.066s-1.517,4.676-0.505,5.182s2.654,2.275,4.044,1.264s3.413-3.666,4.297-3.666
	c0.885,0,1.517-2.275,1.138-2.907c-0.379-0.632,0.379,1.138,1.137,0.885s2.907-2.654,3.033-3.539
	c0.126-0.885,0.758-1.011,1.517-1.896c0.759-0.884,1.517-2.654,1.264-3.159c-0.253-0.505,1.137-0.505,1.137-0.885
	c0-0.379-0.379-1.264,0.253-1.643c0.632-0.379,4.297-4.171,4.297-4.171s-0.505-0.885-1.264,0c-0.758,0.885-4.423,4.171-4.803,4.424
	c-0.379,0.253,1.77-1.137,1.77-2.022c0-0.885,0-1.517,0.758-1.517s1.137-1.517,1.643-1.644c0.505-0.126,1.643-1.39,1.643-1.39
	s1.309,0.166,1.222,1.516c-0.087,1.351-2.658,4.008-2.832,4.487s1.481-0.131,1.786-0.262c0.305-0.13,3.398-0.697,3.398-0.697
	s-4.4,1.089-5.097,1.787c-0.697,0.697,2.918-0.175,3.441,0.914c0,0,0.392,1.307-0.479,1.917c0,0,2.135-2.57-3.049-2.352
	c0,0-1.351,0.958-0.436,2.091c0,0-1.568-1.089-1.786-0.436c-0.218,0.654-1.264,2.571-0.523,3.616c0,0-0.392,0.61-0.566,0.828
	s0.131,1.089,0.131,1.089s-3.137,5.227-7.275,7.58c0,0,4.923-4.182,5.489-6.97c0,0,0.436-1.656-0.174-1.264
	s-4.923,6.404-9.584,9.715c0,0,0.474,0.58,1.864,0.58s1.643-0.758,1.517-1.58s0.505,1.138,0.632,1.959s3.033,5.592,4.076,7.204
	c0,0,0.189,0.379,0,1.517c-0.19,1.138,0.488,1.198,0.488,1.198s-0.539,0.951-0.095,1.363c0,0,0.222,1.807,0.603,1.807
	c0,0,0.126,2.409,1.014,2.029c0,0-0.982,0.982,0.127,1.458c0,0-0.951,0.855,0.032,1.521c0,0-0.444,0.824,0.222,1.3
	c0,0-0.824,1.141,0.285,1.806c0,0-0.634,1.109,0.476,1.521c0,0-0.476,1.205,0.761,1.585c0,0-0.792,1.142,0.539,1.87
	c0,0-0.602,1.236,0.729,1.711c0,0-0.634,1.395,0.507,1.87c0,0-0.507,1.363,0.792,1.807c0,0-0.602,1.046,0.317,1.521
	c0,0-0.761,1.046,0.412,1.68c0,0-0.507,1.205,0.476,1.712c0,0-0.286,1.205,0.951,1.458l0.095,0.602l-2.062,0.132
	c0,0,0-6.762-4.423-8.531c-4.423-1.77-13.966-14.598-12.955-18.958c1.011-4.36,2.149-3.349,0.695-5.118s-4.803-3.792-7.204-4.803
	c-2.401-1.011-9.163-4.55-15.861-2.465c0,0-13.271,1.391-24.266,39.78c0,0,9.1-41.613,27.205-40.949c0,0,8.436,0,15.545,1.232
	c0,0,5.308,1.801,5.592,0.948c0,0-5.403-1.422-5.498-2.749C42.75,156.825,44.488,151.675,44.235,147.188z"/>
<path d="M84.647,155.593v4.55c0,0-1.801-0.095-1.707,0.664s-0.853,2.275-1.327,2.559c-0.474,0.285-0.568,2.938-1.327,3.507
	s-1.422-1.327-1.612-0.474c-0.189,0.854-0.853,1.801-1.137,2.085c-0.284,0.285-0.379-2.18-0.758-1.896
	c-0.379,0.284-1.327-0.758-2.275-0.095s-1.801,1.422-2.37,2.275c-0.569,0.853-1.517,1.232-2.18,0.284
	c-0.664-0.948,0-1.517,0.379-1.99c0.379-0.474-0.379-1.801-0.379-2.37c0-0.568,0.189,2.275-1.043,2.37
	c-1.232,0.095-8.057,0.379-7.204-2.938c0.854-3.318,5.214-5.498,7.299-5.498c2.085,0,1.991-1.422,1.138-1.611s0-0.853,0.569-1.706
	c0.568-0.854,0.189-1.896-0.19-1.896c-0.379,0,4.36-2.559,3.887-8.247c0,0-0.095,5.688-5.688,8.057c0,0,1.801,0.853,0.853,1.517
	s-4.455,3.223-5.688,3.128c-1.232-0.095,2.085-3.128,2.844-3.602c0.758-0.474-4.929,3.033-6.161,4.36s-2.37,1.706-4.455,1.517
	s-2.654-0.664-1.232-0.948c1.422-0.285,14.219-4.74,15.735-12.796c0,0-1.801,7.583-15.735,12.322c0,0-2.18,0.189-1.232,1.706
	c0.948,1.517,2.37,5.403,5.119,8.437c0,0,0.474,6.256,1.327,9.479c0,0,1.036,1.102,0.631,1.973c0,0,0.777,1.026,0.311,1.741
	c0,0,0.839,0.466,0.808,1.306c0,0,0.777,0.343,0.653,1.493c0,0,1.181,0.777,0.653,2.052c0,0,0.933,0.808,0.466,1.896
	c0,0,0.995,0.777,0.28,1.71c0,0,1.119,0.436,0.715,1.928c0,0,0.808,0.498,0.528,1.43c0,0,0.871,0.684,0.435,1.679
	c0,0,0.871,0.653,0.777,1.585c0,0,0.902,0.684,0.56,1.896l0.436,0.622c0,0-0.062-2.332-0.684-2.674c0,0-0.28-1.492-0.777-1.523
	c0,0,0.249-1.244-0.435-1.648c0,0,0.031-1.119-0.56-1.492c0,0,0.311-1.399-0.653-1.866c0,0,0.56-0.715-0.217-1.741
	c0,0-0.093-0.653,0.187-0.249s4.57,8.177,6.995,11.255l0.933-0.031c0,0-6.374-9.732-8.177-14.084s-3.668-8.053-4.446-15.017
	c0,0,4.508,4.975,8.115,5.006c3.606,0.031,9.719,0.415,17.744-11.465c0,0,6.635-6.951,7.709-8.531c0,0-5.561,5.435-6.193,6.066
	c-0.632,0.632-2.085,2.844-1.833,1.58s2.148-2.528,2.148-3.35s-0.948-1.39-0.948-1.137C86.258,159.005,85.5,161.343,84.647,155.593z
	"/>
<path d="M132.285,163.173c0.013,0.071-0.015,0.142-0.042,0.208c0.208,0.217,0.429,0.565,0.429,0.978c0,0.151-0.042,0.31-0.113,0.472
	c0.159,0.163,0.449,0.512,0.449,0.901c0,0.008,0,0.016,0,0.023c-0.004,0.134-0.081,0.314-0.236,0.493
	c0.179,0.217,0.351,0.543,0.351,0.924c0,0.238-0.092,0.495-0.266,0.754c0,0,0.34,0.398,0.373,0.748
	c0.003,0.032,0.004,0.063,0.004,0.095c0,0.22-0.091,0.431-0.234,0.636c0.129,0.145,0.321,0.409,0.343,0.766
	c0.001,0.021,0.002,0.043,0.002,0.064c0,0.256-0.114,0.502-0.296,0.739c0.131,0.152,0.329,0.431,0.329,0.776c0,0.01,0,0.02,0,0.029
	c-0.008,0.244-0.137,0.461-0.339,0.659c0.103,0.196,0.282,0.598,0.282,1.017c0,0.196-0.055,0.39-0.161,0.572
	c0.106,0.189,0.207,0.45,0.207,0.751c0,0.259-0.097,0.531-0.3,0.783c0.085,0.185,0.163,0.424,0.163,0.69
	c0,0.284-0.114,0.571-0.363,0.807c0.008,0.058,0.016,0.136,0.016,0.237c0,0.212-0.038,0.49-0.202,0.716
	c-0.121,0.167-0.303,0.262-0.516,0.319c0.024,0.123,0.054,0.239,0.054,0.385c0,0.524-0.218,1.132-0.919,1.437
	c0.002,0.039,0.004,0.077,0.004,0.129c0,0.415-0.102,1.19-0.68,1.475c-0.015,0.353-0.208,0.851-0.788,0.984
	c0,0.015,0.003,0.027,0.003,0.043c0,0.438-0.229,1.048-1.018,1.278c-0.038,0.456-0.284,1.134-1.001,1.263
	c-0.031,0.428-0.267,1.081-0.961,1.443c0.009,0.056,0.019,0.117,0.019,0.195c0,0.145-0.026,0.318-0.117,0.484
	c-0.116,0.211-0.326,0.354-0.593,0.449c-0.006,0.176-0.046,0.489-0.284,0.749c-0.188,0.206-0.465,0.307-0.797,0.334
	c-0.107,0.377-0.428,0.91-1.056,1.061c-0.026,0.394-0.25,0.938-0.918,1.055c-0.054,0.235-0.224,0.822-0.635,1.082
	c-0.147,0.093-0.308,0.128-0.478,0.117c-0.085,0.267-0.305,0.752-0.74,0.853c-0.055,0.205-0.196,0.596-0.504,0.791
	c-0.109,0.07-0.233,0.1-0.361,0.105c-0.005,0.219-0.046,0.546-0.258,0.788c-0.132,0.151-0.317,0.226-0.529,0.257
	c-0.074,0.367-0.384,1.384-1.484,1.65c-0.173,0.51-0.692,1.309-1.645,1.396c-0.099,0.502-0.453,1.259-1.259,1.376
	c-0.061,0.051-0.582,0.493-0.582,0.493l-0.245-0.29l0.662-0.56l0.06-0.005c0.874-0.079,1.008-1.161,1.013-1.207l0.02-0.168h0.169
	c1.117,0,1.462-1.186,1.476-1.236l0.032-0.115l0.117-0.021c1.167-0.208,1.309-1.439,1.314-1.492l0.018-0.17h0.17
	c0.181,0,0.313-0.052,0.407-0.158c0.183-0.207,0.18-0.589,0.164-0.719l-0.035-0.28l0.272,0.073c0.117,0.031,0.212,0.02,0.3-0.036
	c0.224-0.142,0.339-0.53,0.365-0.668l0.029-0.155h0.158c0.401,0,0.571-0.743,0.573-0.75l0.042-0.198l0.194,0.054
	c0.136,0.038,0.254,0.023,0.362-0.045c0.3-0.19,0.456-0.745,0.491-0.942l0.026-0.149l0.151-0.007
	c0.732-0.037,0.724-0.762,0.721-0.845l-0.007-0.178l0.176-0.019c0.747-0.079,0.917-0.903,0.924-0.938l0.03-0.154h0.156
	c0.294,0,0.517-0.078,0.659-0.233c0.221-0.24,0.195-0.6,0.194-0.604l-0.013-0.161l0.156-0.04c0.238-0.06,0.402-0.167,0.487-0.32
	c0.132-0.238,0.043-0.524,0.042-0.527l-0.054-0.168l0.162-0.066c0.902-0.369,0.879-1.294,0.877-1.333l-0.007-0.188l0.188-0.009
	c0.801-0.038,0.814-1.002,0.814-1.043l0.001-0.155l0.152-0.03c0.967-0.194,0.861-1.016,0.845-1.109l-0.034-0.209l0.211-0.011
	c0.64-0.036,0.63-0.677,0.627-0.75l-0.007-0.149l0.143-0.042c0.634-0.187,0.529-1.398,0.528-1.411l-0.016-0.151l0.144-0.048
	c1.087-0.362,0.747-1.563,0.731-1.614l-0.065-0.22l0.228-0.023c0.2-0.02,0.343-0.091,0.435-0.218
	c0.204-0.278,0.11-0.733,0.109-0.738l-0.025-0.12l0.098-0.073c0.567-0.415,0.153-1.192,0.136-1.225l-0.068-0.125l0.101-0.1
	c0.543-0.543,0.09-1.248,0.071-1.278l-0.075-0.113l0.083-0.107c0.388-0.504-0.148-1.387-0.153-1.396l-0.089-0.145l0.134-0.104
	c0.196-0.153,0.299-0.319,0.306-0.496c0.012-0.336-0.312-0.632-0.315-0.635l-0.145-0.13l0.133-0.142
	c0.207-0.219,0.306-0.443,0.293-0.666c-0.02-0.36-0.322-0.62-0.325-0.623l-0.148-0.126l0.128-0.145
	c0.172-0.195,0.251-0.394,0.233-0.591c-0.031-0.348-0.347-0.601-0.35-0.604l-0.154-0.122l0.126-0.15
	c0.631-0.75-0.051-1.418-0.081-1.447l-0.162-0.155l0.179-0.134c0.142-0.106,0.214-0.223,0.218-0.356
	c0.009-0.292-0.298-0.621-0.417-0.722l-0.121-0.104l0.081-0.137c0.384-0.653-0.262-1.204-0.29-1.227l-0.159-0.133l0.146-0.146
	c0.134-0.134-0.112-0.569-0.341-0.832l-0.071-0.082l0.034-0.103c0.044-0.131,0.039-0.243-0.016-0.344
	c-0.114-0.212-0.426-0.335-0.536-0.365l-0.188-0.051l0.054-0.186c0.254-0.873-0.357-1.091-0.428-1.113l-0.157-0.049l0.025-0.161
	c0.037-0.239-0.002-0.431-0.116-0.57c-0.214-0.261-0.631-0.282-0.636-0.282l-0.182-0.008v-0.182c0-0.237-0.065-0.423-0.194-0.551
	c-0.217-0.216-0.553-0.217-0.557-0.217l-0.292-0.039l0.114-0.266c-0.084-0.161-0.572-0.331-0.875-0.395c0,0-3.081-3.278-5.229-9.218
	c0,0-4.107-7.457-2.401,2.654c1.706,10.111,3.728,12.702,4.17,13.333c0,0-3.033-2.085-5.561-17.883c0,0-0.253-5.813-3.286-6.256
	c-3.033-0.443-9.921,1.895-9.163,5.181s21.864,29.322,22.623,29.701c0.759,0.379,1.138,1.39,1.138,1.39l-0.252,0.379
	c0,0-24.013-29.7-24.645-29.827c0,0-0.253,4.802-1.77,6.319s-4.423,4.424-6.193,6.193s-7.204,6.446-8.342,8.341
	c0,0,7.962-8.594,12.386-13.271c0,0,1.77-1.264,2.781-5.308s-0.379-5.688-0.885-4.297c-0.506,1.39-6.698,9.226-8.089,10.996
	c-1.39,1.77-1.643-0.126-0.505-2.401c1.138-2.275,1.896-5.308,2.148-6.572s1.39,0.758,2.148-0.758s3.413-6.319,3.666-8.721
	s1.011-5.814,1.517-6.572s0.252,5.561,0.252,6.699c0,1.137,1.138,5.055,1.644,3.033c0.505-2.022,0.379-9.226,0.505-11.754
	c0.126-2.528,1.643-10.111,1.011-12.133c-0.632-2.022,2.78-3.918,0.884,13.018c0,0-2.528,8.215-1.011,9.1
	c1.517,0.885,3.792,0.632,5.561,0.253c1.77-0.379,5.309-1.58,7.962,2.749c0,0,5.008,14.839,7.015,15.261
	c0.155,0.033,0.937,0.214,1.132,0.591c0.021,0.04,0.023,0.081,0.031,0.122c0.173,0.029,0.425,0.099,0.631,0.303
	c0.168,0.166,0.25,0.393,0.281,0.655c0.194,0.032,0.531,0.122,0.757,0.397c0.145,0.176,0.218,0.392,0.218,0.644
	c0,0.026-0.005,0.055-0.007,0.083c0.22,0.113,0.616,0.399,0.616,1.013c0,0.096-0.029,0.214-0.05,0.326
	c0.18,0.073,0.464,0.219,0.611,0.491c0.061,0.113,0.708,0.21,0.708,0.21c0.708,0.21,1.422,1.896,2.275,2.844
	c0.854,0.948,15.261,9.384,16.494,10.711c1.232,1.327,21.232,12.323,25.783,14.218c4.55,1.896,26.636,9.858,26.636,9.858
	s-2.654-0.095-3.128-0.095c-0.474,0,1.991,0.19-8.436-3.697c-10.427-3.886-25.403-9.858-41.044-19.811
	c-15.64-9.953-15.924-10.237-18.294-13.271C132.8,162.702,132.153,162.436,132.285,163.173z"/>
<path d="M77.308,65.67c0,0,15.326,14.093,19.906,27.569c0,0-1.057,2.73,1.674,5.373c0,0-0.969,6.43-0.176,13.476
	c0,0,0.177-22.637-19.642-42.279c0,0-4.756-5.637-2.378,4.668c2.378,10.305,0,0.264,0,0.264s-1.938-8.104-3.875-9.777
	C70.877,63.292,77.396,67.255,77.308,65.67z"/>
<path d="M127.849,178.404c-0.099,0.199-0.135,0.409-0.135,0.605c0,0.156,0.025,0.297,0.055,0.426
	c-0.371,0.12-0.589,0.333-0.711,0.516c-0.188,0.281-0.243,0.604-0.243,0.889c0,0.09,0.006,0.174,0.014,0.253
	c-0.289,0.057-0.48,0.193-0.599,0.323c-0.27,0.294-0.333,0.698-0.333,1.01c0,0.029,0.004,0.047,0.005,0.074
	c-0.302,0.093-0.493,0.262-0.604,0.41c-0.217,0.289-0.271,0.642-0.271,0.921c0,0.036,0.005,0.058,0.006,0.09
	c-0.193,0.065-0.368,0.162-0.501,0.318c-0.293,0.346-0.358,0.834-0.359,1.194c-0.325,0.019-0.553,0.138-0.689,0.265
	c-0.312,0.293-0.382,0.732-0.386,1.054c-0.369,0.081-0.586,0.267-0.709,0.431c-0.192,0.256-0.244,0.558-0.244,0.808
	c0,0.027,0.005,0.044,0.006,0.07c-0.816,0.196-1.141,0.943-1.227,1.523c-0.636,0.192-1.002,0.866-1.161,1.25
	c-0.2,0.021-0.389,0.083-0.553,0.206c-0.401,0.303-0.569,0.825-0.642,1.149c-0.218,0.056-0.417,0.147-0.565,0.314
	c-0.277,0.313-0.347,0.735-0.361,1.038c-0.215,0.054-0.415,0.142-0.575,0.299c-0.386,0.381-0.506,0.965-0.542,1.346
	c-0.696,0.154-1.134,0.954-1.312,1.36c-0.847,0.133-1.212,0.863-1.319,1.433c-0.787,0.219-1.046,1.042-1.067,1.496l0.757,0.038
	c0.005-0.081,0.064-0.799,0.671-0.833l0.341-0.019l0.016-0.343c0.005-0.107,0.073-1.045,0.867-1.045h0.267l0.09-0.251
	c0.137-0.379,0.574-1.186,0.981-1.11l0.461,0.087l-0.012-0.47c-0.006-0.223,0.042-0.863,0.333-1.149
	c0.106-0.104,0.236-0.148,0.408-0.141l0.444,0.021l-0.05-0.443c-0.016-0.144-0.02-0.599,0.169-0.811
	c0.046-0.052,0.13-0.121,0.321-0.121h0.337l0.039-0.336c0.02-0.172,0.136-0.707,0.399-0.904c0.086-0.065,0.178-0.085,0.3-0.064
	l0.331,0.055l0.095-0.322c0.079-0.267,0.411-1.028,0.882-1.028h0.376l0.003-0.378c0.001-0.117,0.035-1.139,0.921-1.139h0.5
	l-0.135-0.484c-0.031-0.108-0.086-0.461,0.055-0.647c0.084-0.112,0.253-0.168,0.501-0.168h0.447l-0.073-0.442
	c-0.031-0.185-0.039-0.617,0.131-0.775c0.111-0.103,0.327-0.078,0.489-0.04l0.554,0.133l-0.091-0.563
	c-0.031-0.189-0.068-0.79,0.156-1.053c0.048-0.057,0.135-0.131,0.336-0.131h0.477l-0.107-0.466c-0.03-0.129-0.077-0.547,0.089-0.767
	c0.03-0.04,0.123-0.162,0.425-0.175l0.444-0.02l-0.09-0.437c-0.038-0.185-0.062-0.624,0.105-0.805
	c0.083-0.09,0.235-0.122,0.452-0.095l0.592,0.074l-0.185-0.569c-0.056-0.17-0.156-0.675,0.04-0.967
	c0.108-0.16,0.305-0.248,0.602-0.27l0.56-0.04l-0.247-0.506c-0.067-0.136-0.21-0.548-0.075-0.816c0.08-0.159,0.27-0.268,0.562-0.322
	l-0.138-0.746C128.279,177.796,127.981,178.139,127.849,178.404z"/>
</svg>
