<?xml version="1.0" encoding="utf-8"?>
<!-- Generator: Adobe Illustrator 15.0.1, SVG Export Plug-In  -->
<!DOCTYPE svg PUBLIC "-//W3C//DTD SVG 1.1 Tiny//EN" "http://www.w3.org/Graphics/SVG/1.1/DTD/svg11-tiny.dtd" [
	<!ENTITY ns_flows "http://ns.adobe.com/Flows/1.0/">
]>
<svg version="1.1" baseProfile="tiny"
	 xmlns="http://www.w3.org/2000/svg" xmlns:xlink="http://www.w3.org/1999/xlink" xmlns:a="http://ns.adobe.com/AdobeSVGViewerExtensions/3.0/"
	 x="0px" y="0px" width="502px" height="84px" viewBox="-0.97 -0.69 502 84" overflow="visible" xml:space="preserve">
<defs>
</defs>
<path fill="#5A3D1C" d="M404.58,40.11c0.83,0,1.51,0.67,1.51,1.51l0,0c0,0.83-0.67,1.51-1.51,1.51H231.64
	c-0.83,0-1.51-0.67-1.51-1.51l0,0c0-0.83,0.67-1.51,1.51-1.51H404.58z"/>
<circle fill="#5A3D1C" cx="411.25" cy="41.56" r="3.33"/>
<ellipse fill="#5A3D1C" cx="420" cy="41.36" rx="4.04" ry="5.15"/>
<ellipse fill="#5A3D1C" cx="429.77" cy="41.16" rx="4.24" ry="6.76"/>
<path fill="#5A3D1C" d="M450.04,30.88c-2.7,1.3-4.95,3.59-7.22,5.49c-1.13,0.94-2.01,2.05-2.98,3.14c-0.63,0.71-1.14,1.47-1.81,2.05
	c5.27,0.96,14.79,0.88,19.12-2.56c-5.81,4.6-12.01,6.65-19.25,4.61c-0.29-0.08-0.69-0.17-1.12-0.28c1.51,1.66,3.8,2.62,5.95,3.25
	c1.61,0.48,3.23,1.18,4.93,1.13c1.71-0.04,3.6-0.29,5.25-0.71c3.54-0.88,6.5-3.14,9.13-5.56c2.77-2.55,5.95-4.68,9.59-5.71
	c-3.19-1.56-5.72-4.05-9.13-5.25C458.33,29.02,454.05,28.95,450.04,30.88z M445.37,15.29c-0.73,0.23-1.44,0.54-2.13,0.99
	c-3.19,2.09-5.57,6.37-6.35,10.06c-0.6,2.87-1.04,8.17,0.91,10.5c0.57-2.05,0.7-4.36,1.16-6.5c0.75-3.54,1.96-7.19,3.77-10.33
	c-1.8,3.53-2.21,10.63-1.84,14.51c3.64-3.17,6.35-6.24,7.33-11.1c0.86-4.28,0.98-7.72,5.41-9.83
	C451.09,14.81,448.12,14.44,445.37,15.29z M450.92,23.65c-0.42,0.71-0.61,1.55-0.87,2.36c2.54-3.45,6.87-4.4,10.9-4.04
	c-0.94-0.08-5.73,3.39-6.31,4.35c2.84-0.01,5.84,1.23,8.34,2.49c0.96,0.48,2.42,1.3,3.53,0.84c0.86-0.35,1.92-1.67,2.34-2.47
	c0.98-1.91,0.76-5.49,3.79-5.25c-4.6-1.13-9.08-3.32-13.98-2.64C456.05,19.67,452.32,21.27,450.92,23.65z M486.51,47.34
	c0.26-0.16,0.5-0.37,0.68-0.63C486.92,46.87,486.75,47.12,486.51,47.34z M466.74,40.64c-1.14,0.35-2.19,0.99-3.08,1.74
	c-0.2,0.17-0.41,0.36-0.61,0.55c3.52,1.29,8.37,2.07,10.93,4.99c-4.08,0.7-9.32-2.24-13.42-2.94c-0.08-0.01-0.15-0.03-0.22-0.04
	c0,0-0.79,1.06-0.79,1.06c0.4-0.54,5.78,2.79,6.72,3.13c6.81,2.49,13.68,1.39,20.05-1.65C478.25,50.47,475.44,37.99,466.74,40.64z
	 M438.23,47.11c-0.01,0.04-0.01,0.08-0.02,0.12c-0.8,4.68-0.4,9.51,2.02,13.67c-2.82-4.86-4.81-9.33-4.76-15.05
	c-0.37,0.96-0.53,1.94-0.82,2.92c-0.3,1-0.2,2.11-0.2,3.15c0.01,2.54,0.57,4.96,1.54,7.31c2.03,4.88,8.2,8.88,13.69,7.01
	c-0.71-0.65-1.62-0.82-2.11-1.72c-0.72-1.33,0.18-2.88,0.62-4.17C450.69,53.01,444.72,48.89,438.23,47.11z M451.07,49.37l-0.98,0.66
	c0.15,0.07,0.3,0.13,0.45,0.2c3.7,1.62,7.45,3.66,11.49,4.24c-0.72-0.02-1.43-0.12-2.14-0.26c-1.82-0.34-3.64-0.51-5.44-0.94
	c-1.05-0.25-2.12-0.56-3.19-0.82c0.15,0.35,0.29,0.69,0.44,1c0.87,1.87,2.51,3.16,4.48,3.78c3.03,0.94,6.28,0.76,9.38,0.3
	c1.05-0.16,2.18-0.42,3.12-0.94c0.61-0.34,1.04-0.94,1.58-1.38c-1.56-0.13-2.69-1.43-3.29-2.75c-1.37-3.03-5.41-4.54-9.31-4.64
	C455.16,47.75,452.71,48.28,451.07,49.37z M472.71,33.98c0.18,0.04,0.36,0.08,0.54,0.12c1.62,0.37,3.25,0.73,4.87,1.12
	c3.85,0.94,7.81,2.91,11.48,4.42c-0.9-0.08-1.97,0.01-2.87-0.17c-2.15-0.42-4.26-0.71-6.44-1.04c-2.6-0.39-5.28-0.92-7.9-0.93
	c-0.38,0-0.78,0.04-1.16,0.03l-0.16,0.66c2.4,0.29,4.4,2.32,6.45,3.48c2.32,1.32,4.71,2.36,7.4,1.73
	c5.52-1.28,10.03-3.79,15.19-5.57c-0.92,0.24-2.06-0.32-2.9-0.63c-1.26-0.48-2.41-1.02-3.58-1.71c-2.69-1.58-5.18-3.21-8.23-4.07
	c-2.62-0.74-5.66-0.47-8.29,0.05C475.3,31.83,473.8,32.68,472.71,33.98z M470.36,27.62c0.77-2.37,6.17-2.86,8.18-3.11
	c-1.94,0.24-5.13,3.75-6.48,5.19c-0.01,0.01-0.01,0.01-0.02,0.02c1.48,0,2.95-0.01,4.43,0c6.29,0.02,5.26-4.59,9.97-6.78
	c0.58-0.27,1.5-0.42,2.12-0.72c-1.93,0.86-6.71-0.97-8.52-0.98c-0.02,0-0.03,0-0.05,0C475.69,21.25,471.75,23.29,470.36,27.62z"/>
<path fill="#5A3D1C" d="M433.59,0.71c-3.34,1.13-5.76,3.49-7.01,6.79c-1.56,4.11-1.48,8.8-0.4,13.04c-0.43-0.76-0.94-1.5-1.56-2.11
	c-1.92-1.89-4.06-2.33-4.9-5.11c-0.1-0.34,0.02-0.78-0.12-1.08c-0.62,2.74,0.1,5.67,1.29,8.17c1.25,2.62,3.16,4.83,5.33,6.73
	c2.01,1.77,3.98,2.87,5.06,5.43c1.11,2.64,1.86,5.32,2.24,8.16l0.57,0.28c-0.05-1.74-0.21-3.43-0.7-5.11
	c-0.9-3.08-2.35-5.97-3.47-8.97c-1.59-4.23-2.78-8.75-2.52-13.3c0.21-3.65,1.47-7.49,4.44-9.82c2.2-1.73,5.25-2.42,7.91-1.4
	c2.71,1.04,4.37,3.78,4.11,6.67c-0.24,2.61-2.37,5.69-5.34,4.98c-2.72-0.65-4.01-4.12-3.28-6.62c0.52-1.76,2.43-2.86,3.9-1.3
	c-1.62,0.01-3.22,1.28-2.43,3.08c0.41,0.94,1.89,1.51,2.82,1.2c4.19-1.43-0.79-10.41-4.52-5.36c-1.78,2.42-1.73,6.05,0.57,8.11
	c0.5,0.45,1.05,0.78,1.62,1c-0.55-0.14-1.08-0.37-1.61-0.53c-0.43-0.13-0.81-0.23-1.28-0.2c-0.43,0.03-0.84,0.21-1.25,0.33
	c-1.79,0.54-2.92,2.32-3.12,4.11c0.12-0.26,0.21-0.57,0.35-0.81c0.16-0.26,0.41-0.42,0.64-0.6c0.46-0.35,1.04-0.54,1.63-0.54
	c1.3,0,2.54,0.52,3.83,0.62c1.4,0.11,3.58-0.41,4.37-1.75c0.54-0.93,1.04-1.27,1.75-2.15c2.25-2.82,2.6-7.66,0.22-10.5
	C440.49-0.53,436.61-0.31,433.59,0.71z M422.93,1.54c0.06-0.07,0.13-0.14,0.19-0.22C423.05,1.39,422.99,1.47,422.93,1.54z
	 M424.21,16.38c-0.47-1.12-0.9-2.22-1.18-3.41c-0.4-1.69-0.91-3.36-1.23-5.07c1.13,1.45,1.62,3.4,2.5,5
	c0.17,0.32,0.35,0.64,0.51,0.95c0.09-2.11,0.1-4.15-0.45-6.2c-0.45-1.64-2.7-4.42-1.42-6.12c-0.31,0.35-0.63,0.7-0.88,1.09
	c-0.6,0.92-0.92,2.03-1.25,3.06c-0.6,1.92-0.89,4.22-0.21,6.17c0.4,1.15,1.11,2.44,1.98,3.3C423.04,15.64,423.67,15.97,424.21,16.38
	z"/>
<path fill="#5A3D1C" d="M442.76,80.47c2.38-2.84,2.03-7.69-0.22-10.5c-0.71-0.88-1.21-1.22-1.75-2.15
	c-0.79-1.34-2.97-1.86-4.37-1.75c-1.29,0.1-2.54,0.62-3.83,0.62c-0.58,0-1.17-0.18-1.63-0.54c-0.23-0.18-0.48-0.34-0.64-0.6
	c-0.15-0.24-0.24-0.55-0.35-0.81c0.2,1.78,1.33,3.57,3.12,4.11c0.41,0.12,0.82,0.3,1.25,0.33c0.46,0.03,0.84-0.07,1.28-0.2
	c0.54-0.17,1.07-0.38,1.61-0.53c-0.57,0.22-1.12,0.55-1.62,0.99c-2.3,2.06-2.36,5.7-0.57,8.11c3.72,5.05,8.71-3.93,4.52-5.36
	c-0.93-0.32-2.41,0.26-2.82,1.2c-0.79,1.8,0.8,3.07,2.43,3.08c-1.46,1.55-3.38,0.46-3.9-1.3c-0.74-2.5,0.56-5.97,3.27-6.62
	c2.98-0.72,5.11,2.37,5.34,4.98c0.26,2.88-1.39,5.62-4.1,6.67c-2.66,1.02-5.71,0.33-7.91-1.4c-2.97-2.33-4.22-6.17-4.44-9.82
	c-0.27-4.56,0.93-9.07,2.52-13.3c1.12-3,2.58-5.89,3.47-8.97c0.49-1.68,0.66-3.37,0.7-5.11l-0.57,0.29
	c-0.38,2.83-1.13,5.52-2.24,8.16c-1.08,2.57-3.05,3.67-5.06,5.43c-2.17,1.9-4.08,4.11-5.33,6.73c-1.19,2.5-1.91,5.42-1.29,8.17
	c0.13-0.31,0.02-0.75,0.12-1.08c0.84-2.78,2.99-3.22,4.9-5.11c0.62-0.61,1.13-1.35,1.56-2.11c-1.08,4.24-1.17,8.93,0.4,13.04
	c1.25,3.3,3.67,5.66,7.01,6.79C436.64,82.93,440.52,83.15,442.76,80.47z M423.16,81.29c-0.06-0.07-0.13-0.14-0.19-0.22
	C423.02,81.15,423.09,81.22,423.16,81.29z M422.6,67.45c-0.87,0.86-1.58,2.15-1.98,3.3c-0.68,1.95-0.39,4.25,0.21,6.17
	c0.32,1.04,0.65,2.14,1.25,3.06c0.25,0.39,0.57,0.74,0.88,1.09c-1.28-1.7,0.98-4.48,1.42-6.12c0.55-2.05,0.55-4.09,0.45-6.2
	c-0.17,0.31-0.34,0.63-0.51,0.95c-0.88,1.6-1.37,3.56-2.5,5c0.32-1.71,0.83-3.37,1.23-5.07c0.28-1.19,0.71-2.29,1.18-3.41
	C423.71,66.65,423.08,66.98,422.6,67.45z"/>
<path fill="#5A3D1C" d="M95.51,40.37c-0.83,0-1.51,0.67-1.51,1.51l0,0c0,0.83,0.67,1.51,1.51,1.51h172.94
	c0.83,0,1.51-0.67,1.51-1.51l0,0c0-0.83-0.67-1.51-1.51-1.51H95.51z"/>
<circle fill="#5A3D1C" cx="88.84" cy="41.82" r="3.33"/>
<ellipse fill="#5A3D1C" cx="80.1" cy="41.62" rx="4.04" ry="5.15"/>
<ellipse fill="#5A3D1C" cx="70.32" cy="41.42" rx="4.24" ry="6.76"/>
<path fill="#5A3D1C" d="M37.59,30.75c-3.41,1.21-5.94,3.69-9.13,5.25c3.64,1.03,6.82,3.16,9.59,5.71c2.62,2.42,5.59,4.68,9.13,5.56
	c1.66,0.41,3.55,0.67,5.25,0.71c1.71,0.04,3.32-0.66,4.93-1.13c2.15-0.64,4.44-1.6,5.95-3.25c-0.43,0.11-0.83,0.19-1.12,0.28
	c-7.24,2.04-13.44-0.01-19.25-4.61c4.33,3.43,13.86,3.51,19.12,2.55c-0.68-0.58-1.19-1.34-1.81-2.05c-0.97-1.09-1.85-2.2-2.98-3.14
	c-2.28-1.89-4.53-4.19-7.22-5.49C46.04,29.21,41.77,29.28,37.59,30.75z M46.47,13.86c4.43,2.11,4.55,5.55,5.41,9.83
	c0.98,4.86,3.69,7.94,7.33,11.1c0.37-3.88-0.04-10.99-1.84-14.51c1.81,3.14,3.02,6.79,3.77,10.33c0.46,2.14,0.59,4.44,1.16,6.5
	c1.95-2.33,1.51-7.62,0.91-10.5c-0.77-3.7-3.16-7.97-6.35-10.06c-0.69-0.45-1.4-0.76-2.13-0.99C51.98,14.7,49,15.07,46.47,13.86z
	 M41.42,19.56c-4.9-0.68-9.38,1.5-13.98,2.64c3.03-0.25,2.81,3.34,3.79,5.25c0.41,0.8,1.47,2.11,2.34,2.47
	c1.11,0.45,2.57-0.36,3.53-0.84c2.5-1.26,5.5-2.5,8.34-2.49c-0.57-0.96-5.37-4.43-6.3-4.35c4.03-0.36,8.35,0.59,10.89,4.04
	c-0.25-0.8-0.45-1.65-0.86-2.36C47.77,21.53,44.04,19.93,41.42,19.56z M12.9,46.96c0.19,0.26,0.42,0.47,0.68,0.63
	C13.35,47.38,13.17,47.13,12.9,46.96z M13.78,47.72c6.37,3.04,13.24,4.14,20.05,1.65c0.93-0.34,6.31-3.66,6.72-3.13
	c0,0-0.79-1.06-0.79-1.06c-0.07,0.01-0.15,0.03-0.22,0.04c-4.09,0.7-9.34,3.64-13.42,2.94c2.56-2.92,7.41-3.69,10.93-4.98
	c-0.2-0.19-0.41-0.38-0.61-0.55c-0.89-0.75-1.94-1.4-3.08-1.74C24.66,38.25,21.84,50.73,13.78,47.72z M51.89,60.6
	c0.44,1.29,1.33,2.85,0.62,4.17c-0.49,0.9-1.4,1.07-2.11,1.72c5.49,1.87,11.66-2.13,13.69-7.01c0.97-2.35,1.53-4.77,1.54-7.31
	c0-1.04,0.1-2.15-0.2-3.15c-0.29-0.98-0.45-1.96-0.82-2.92c0.06,5.72-1.93,10.19-4.76,15.05c2.42-4.16,2.83-8.98,2.02-13.67
	c-0.01-0.04-0.01-0.08-0.02-0.12C55.37,49.15,49.4,53.27,51.89,60.6z M42.42,48.07c-3.9,0.09-7.94,1.61-9.31,4.64
	c-0.6,1.32-1.73,2.63-3.29,2.75c0.55,0.45,0.97,1.04,1.58,1.38c0.94,0.53,2.07,0.79,3.13,0.94c3.1,0.46,6.35,0.64,9.38-0.3
	c1.97-0.61,3.61-1.91,4.48-3.78c0.15-0.32,0.29-0.66,0.44-1c-1.06,0.26-2.14,0.57-3.19,0.82c-1.8,0.43-3.62,0.6-5.44,0.94
	c-0.71,0.13-1.42,0.24-2.14,0.26c4.04-0.58,7.79-2.62,11.49-4.24c0.15-0.07,0.3-0.13,0.45-0.2l-0.98-0.66
	C47.38,48.54,44.93,48.01,42.42,48.07z M23,31.74c-2.63-0.52-5.67-0.79-8.29-0.05c-3.05,0.86-5.54,2.49-8.23,4.07
	c-1.17,0.69-2.32,1.23-3.58,1.71C2.06,37.78,0.92,38.33,0,38.1c5.16,1.78,9.67,4.28,15.19,5.57c2.69,0.62,5.08-0.41,7.4-1.73
	c2.04-1.16,4.05-3.19,6.45-3.48l-0.16-0.66c-0.38,0.02-0.78-0.03-1.16-0.03c-2.62,0.01-5.3,0.54-7.9,0.93
	c-2.18,0.33-4.29,0.61-6.44,1.04c-0.91,0.18-1.97,0.09-2.87,0.17c3.67-1.5,7.63-3.48,11.48-4.42c1.61-0.39,3.25-0.75,4.86-1.12
	c0.18-0.04,0.36-0.08,0.55-0.12C26.29,32.94,24.79,32.09,23,31.74z M20.1,21.5c-0.02,0-0.03,0-0.05,0c-1.82,0-6.59,1.84-8.52,0.98
	c0.62,0.31,1.54,0.45,2.12,0.72c4.71,2.19,3.67,6.8,9.97,6.78c1.48,0,2.95,0,4.43,0c0,0-0.01-0.01-0.01-0.02
	c-1.35-1.44-4.54-4.95-6.48-5.19c2.01,0.25,7.41,0.74,8.18,3.11C28.35,23.55,24.4,21.51,20.1,21.5z"/>
<path fill="#5A3D1C" d="M57.37,2.41c-2.38,2.84-2.03,7.69,0.22,10.5c0.71,0.88,1.21,1.22,1.75,2.15c0.79,1.34,2.97,1.86,4.37,1.75
	c1.29-0.1,2.54-0.62,3.83-0.62c0.58,0,1.17,0.18,1.63,0.54c0.23,0.18,0.48,0.34,0.64,0.6c0.15,0.24,0.24,0.55,0.35,0.81
	c-0.2-1.79-1.33-3.57-3.12-4.11c-0.41-0.12-0.82-0.3-1.25-0.33c-0.46-0.03-0.84,0.07-1.28,0.2c-0.54,0.17-1.07,0.38-1.61,0.53
	c0.57-0.22,1.12-0.55,1.62-0.99c2.3-2.06,2.36-5.7,0.57-8.11c-3.72-5.05-8.71,3.93-4.52,5.36c0.93,0.32,2.41-0.26,2.82-1.2
	c0.79-1.8-0.81-3.07-2.43-3.08c1.46-1.55,3.38-0.46,3.9,1.3c0.74,2.5-0.56,5.97-3.27,6.62c-2.97,0.71-5.11-2.37-5.34-4.98
	c-0.26-2.89,1.39-5.62,4.11-6.67c2.66-1.02,5.71-0.34,7.91,1.4c2.97,2.33,4.22,6.17,4.44,9.82c0.27,4.56-0.93,9.07-2.52,13.3
	c-1.12,3-2.58,5.89-3.48,8.97c-0.49,1.68-0.66,3.37-0.7,5.11l0.57-0.29c0.38-2.83,1.13-5.52,2.24-8.16
	c1.08-2.56,3.05-3.67,5.06-5.43c2.17-1.9,4.08-4.11,5.33-6.73c1.18-2.5,1.91-5.42,1.29-8.17c-0.13,0.31-0.02,0.74-0.12,1.08
	c-0.84,2.78-2.99,3.22-4.9,5.11c-0.62,0.61-1.13,1.35-1.56,2.11c1.08-4.24,1.17-8.93-0.4-13.04c-1.25-3.3-3.67-5.66-7.01-6.79
	C63.49-0.05,59.61-0.27,57.37,2.41z M76.96,1.59c0.06,0.07,0.13,0.14,0.19,0.22C77.1,1.73,77.04,1.65,76.96,1.59z M77.53,15.42
	c0.87-0.86,1.58-2.15,1.98-3.3c0.68-1.95,0.39-4.25-0.21-6.17c-0.33-1.04-0.65-2.14-1.25-3.06c-0.26-0.39-0.57-0.74-0.88-1.09
	c1.27,1.7-0.98,4.48-1.42,6.12c-0.55,2.04-0.55,4.09-0.46,6.2c0.17-0.31,0.34-0.63,0.51-0.95c0.88-1.6,1.37-3.56,2.5-5
	c-0.32,1.71-0.83,3.37-1.23,5.07c-0.28,1.19-0.71,2.29-1.18,3.41C76.42,16.23,77.05,15.9,77.53,15.42z"/>
<path fill="#5A3D1C" d="M66.47,82.17c3.34-1.13,5.76-3.49,7.01-6.79c1.56-4.12,1.48-8.8,0.4-13.04c0.43,0.76,0.94,1.5,1.56,2.11
	c1.92,1.89,4.06,2.33,4.9,5.11c0.1,0.34-0.02,0.78,0.12,1.08c0.62-2.74-0.1-5.67-1.29-8.17c-1.25-2.62-3.16-4.83-5.33-6.73
	c-2.01-1.77-3.98-2.87-5.06-5.44c-1.11-2.64-1.86-5.32-2.24-8.16l-0.57-0.29c0.05,1.74,0.21,3.43,0.7,5.11
	c0.9,3.08,2.35,5.97,3.48,8.97c1.59,4.23,2.78,8.75,2.52,13.3c-0.21,3.65-1.47,7.49-4.44,9.82c-2.2,1.73-5.25,2.42-7.91,1.39
	c-2.71-1.04-4.37-3.78-4.11-6.67c0.24-2.61,2.37-5.69,5.34-4.98c2.72,0.65,4.01,4.12,3.27,6.62c-0.52,1.76-2.43,2.86-3.9,1.3
	c1.62-0.01,3.22-1.28,2.43-3.08c-0.41-0.94-1.89-1.52-2.82-1.2c-4.19,1.43,0.79,10.41,4.52,5.36c1.78-2.42,1.73-6.05-0.57-8.11
	c-0.5-0.45-1.05-0.78-1.62-0.99c0.55,0.14,1.08,0.36,1.61,0.53c0.43,0.13,0.81,0.23,1.28,0.2c0.43-0.03,0.84-0.21,1.25-0.33
	c1.79-0.54,2.92-2.32,3.12-4.11c-0.12,0.26-0.21,0.57-0.35,0.81c-0.16,0.26-0.41,0.42-0.64,0.6c-0.46,0.36-1.04,0.54-1.63,0.54
	c-1.3,0-2.54-0.52-3.83-0.62c-1.4-0.11-3.58,0.41-4.37,1.75c-0.54,0.93-1.04,1.27-1.75,2.15c-2.25,2.82-2.6,7.66-0.22,10.5
	C59.57,83.41,63.45,83.19,66.47,82.17z M77.12,81.33c-0.06,0.07-0.13,0.14-0.19,0.22C77.01,81.48,77.07,81.41,77.12,81.33z
	 M75.85,66.49c0.47,1.12,0.9,2.22,1.18,3.41c0.4,1.7,0.91,3.36,1.23,5.07c-1.13-1.45-1.62-3.4-2.5-5c-0.18-0.32-0.35-0.64-0.51-0.95
	c-0.09,2.11-0.1,4.15,0.46,6.2c0.44,1.64,2.7,4.42,1.42,6.12c0.31-0.35,0.63-0.7,0.88-1.09c0.6-0.92,0.92-2.03,1.25-3.06
	c0.6-1.92,0.89-4.22,0.21-6.17c-0.4-1.15-1.11-2.44-1.98-3.3C77.01,67.24,76.39,66.91,75.85,66.49z"/>
</svg>
