<?xml version="1.0" encoding="utf-8"?>
<!-- Generator: Adobe Illustrator 15.0.1, SVG Export Plug-In  -->
<!DOCTYPE svg PUBLIC "-//W3C//DTD SVG 1.1 Tiny//EN" "http://www.w3.org/Graphics/SVG/1.1/DTD/svg11-tiny.dtd" [
	<!ENTITY ns_flows "http://ns.adobe.com/Flows/1.0/">
]>
<svg version="1.1" baseProfile="tiny"
	 xmlns="http://www.w3.org/2000/svg" xmlns:xlink="http://www.w3.org/1999/xlink" xmlns:a="http://ns.adobe.com/AdobeSVGViewerExtensions/3.0/"
	 x="0px" y="0px" width="270px" height="24px" viewBox="-0.51 -0.02 270 24" overflow="visible" xml:space="preserve">
<defs>
</defs>
<path fill="#5A3D1C" d="M111.29,0.5c0.3,0.45,0.25,1.05,0.21,1.56c-0.19,2.33-0.01,4.13,2.41,5.04c1.19,0.45,2.51,0.65,3.61,1.31
	c0.03,0.02,0.06,0.04,0.09,0.06c-0.02-0.28-0.05-0.55-0.1-0.83c-0.29-1.71-1.08-3.31-2.13-4.7c0.03,0.02,0.05,0.04,0.07,0.07
	c0.55,0.74,1.53,1.23,2.11,2.02c0.7,0.94,1.18,2,1.36,3.17c0.2-0.34,0.29-0.94,0.34-1.39c0.18-1.58-1.01-3.89-2.2-4.85
	c-0.79-0.64-1.75-1-2.72-1.27c-0.71-0.2-3.12-0.2-3.57-0.67C110.94,0.17,111.16,0.3,111.29,0.5z M129.83,13.97
	c0.23,0.23,0.49,0.44,0.76,0.63c0.07-2.85-1.26-5.63-3.52-7.38c-1.92-1.49-5.74-2.08-7.23-3.85c1.14,1.35,0.57,3.07,0.37,4.66
	c-0.21,1.72-0.26,3.71,1.19,4.92c1.34,1.12,3.08,1.99,4.82,2.15c0.73,0.07,1.47,0.04,2.19-0.09c-0.37,0.07-1.21-1.12-2.07-2.56
	c-1.08-1.81-2.18-3.99-2.35-4.49C125.02,10.61,127.91,12.07,129.83,13.97z M105.45,11.97c0.26,0.12,0.55,0.29,0.79,0.45
	c0.99,0.64,2.08,1.09,3.19,1.48c0.87,0.3,2.09,0.41,2.89,0.86c-1.47-0.82-2.13-2.56-3.63-3.34c-2.87-1.48-6.04-1.81-9.07-0.69
	c1.83,0.32,2.47,2.49,3.99,3.3c1.67,0.89,3.59,0.96,5.43,1.13c0.64,0.06,1.29,0.08,1.93,0.1c-0.91-0.38-1.77-0.77-2.6-1.21
	c-1.16-0.62-2.24-1.34-3.25-2.27c0.06,0.03,0.13,0.1,0.19,0.13C105.35,11.92,105.4,11.94,105.45,11.97z M96.18,6.84
	c2.01,1.51,5.04,2.77,7.72,2.37c0.54-0.08,1.07-0.23,1.57-0.46c-0.28,0.13-2.12-0.67-2.51-0.8c-0.84-0.27-1.83-0.61-2.32-1.4
	c0.92-0.21,1.97,0.3,2.84,0.6c0.71,0.24,1.82,0.25,2.45,0.59c-0.08-0.04-0.16-0.08-0.23-0.13c-0.53-0.34-1.15-0.52-1.69-0.83
	c-0.65-0.38-1.32-0.76-2.03-1.03c-2.49-0.97-4.72-0.71-7.22-0.07c-0.4,0.1-0.83,0.22-1.15,0.49c0.19,0.02,0.35-0.08,0.53-0.09
	c0.18-0.02,0.37-0.01,0.55,0C95.24,6.1,95.73,6.51,96.18,6.84z M119.17,15.06c-0.34-0.19-0.66-0.4-0.99-0.61
	c-0.96-0.6-1.86-1.35-2.6-2.21c2.01,1.61,4.23,1.81,6.48,2.79c-0.45-0.2-0.89-0.4-1.28-0.7c-1.09-0.85-1.42-2.26-2.16-3.35
	c-1.85-2.74-5.68-2.92-8.6-3.07c0.44,0.01,0.87,0.14,1.18,0.47c0.42,0.45,0.31,1.04,0.2,1.59c-0.16,0.79-0.33,1.6-0.22,2.41
	c0.11,0.79,0.6,1.31,1.24,1.75c0.73,0.5,1.54,0.89,2.4,1.08C116.13,15.5,117.66,15.22,119.17,15.06z M105.35,6.71
	c0.57,0.46,1.35,0.68,2.05,0.84c0.69,0.16,1.42,0.25,2.11,0.11c-0.44,0.09-2.47-4.04-2.86-4.52c0.1,0.13,0.22,0.25,0.33,0.38
	c0.2,0.22,0.4,0.42,0.63,0.62c0.55,0.49,1.07,1,1.58,1.52c0.51,0.51,1.02,1.01,1.56,1.5c-0.17-0.16,0.15-0.85,0.17-1.02
	c0.1-1.04-0.2-2.3-0.89-3.11c-1.79-2.08-4.19-2.27-6.62-3c2.05,0.62,1.03,3.45,1.16,4.98C104.61,5.66,104.82,6.29,105.35,6.71z
	 M99.78,13.49c-1.56-0.95-3.25-1.85-5.13-1.81c1.04-0.02,1.81,2.09,2.41,2.67c0.95,0.91,2.31,1.15,3.6,1.1
	c0.17-0.01,0.35-0.02,0.52-0.04c-1.05-0.28-2.64-0.75-3.1-1.85c1.53,0.48,2.87,1.19,4.49,1.43C101.82,14.88,100.45,13.9,99.78,13.49
	z M90.53,16.02H29.42c-1.35,0-2.45,1.1-2.45,2.45s1.1,2.45,2.45,2.45h210.03c1.35,0,2.45-1.1,2.45-2.45s-1.1-2.45-2.45-2.45h-66.68
	c0.76-0.77,1.12-2.09,1.01-3.11c-0.14-1.31-0.67-2.76-1.99-3.28c-1.26-0.5-2.82-0.26-4.04,0.22c-2.23,0.87-4,2.65-5.96,3.97
	c-1.11,0.75-2.37,1.3-3.65,1.66c-1.01,0.29-2.05,0.43-3.11,0.53H94.1c0.07-0.05,0.14-0.1,0.2-0.16c0.82-0.82,0.48-1.98-0.41-2.56
	c-0.4-0.26-1.21-0.36-1.62-0.06c-1.22,0.89,1.12,2.13,1.12,0.63c0-0.21-0.09-0.4-0.23-0.53c0.69,0.01,1.82,0.81,1.41,1.84
	c-0.18,0.45-0.62,0.72-1.14,0.84h-1.6c-0.21-0.05-0.41-0.12-0.56-0.2c-1.27-0.7-1.64-2.67-0.94-3.93c0.75-1.35,2.2-2.13,3.74-1.93
	c1.45,0.18,2.8,0.99,4.03,1.74c1.05,0.63,2.03,1.36,3.02,2.08c0.94,0.68,1.93,1.23,3.03,1.58c0.89,0.29,1.82,0.46,2.74,0.63h3.77
	c-1.92-0.14-3.9-0.19-5.76-0.72c-1.29-0.37-2.54-0.91-3.65-1.66c-1.95-1.33-3.73-3.1-5.96-3.97c-1.22-0.48-2.78-0.72-4.04-0.22
	c-1.32,0.52-1.85,1.97-1.99,3.28C89.14,13.82,89.59,15.3,90.53,16.02z M158.89,15.58c1.11-0.35,2.1-0.9,3.03-1.58
	c0.99-0.72,1.97-1.44,3.02-2.08c1.23-0.74,2.58-1.55,4.03-1.74c1.54-0.19,2.99,0.58,3.74,1.94c0.69,1.24,0.33,3.18-0.9,3.9h-2.79
	c-0.25-0.15-0.45-0.35-0.55-0.61c-0.41-1.03,0.72-1.83,1.41-1.84c-0.14,0.13-0.23,0.32-0.23,0.53c0,1.5,2.34,0.26,1.12-0.63
	c-0.41-0.3-1.22-0.2-1.62,0.06c-0.87,0.56-1.21,1.67-0.47,2.49h-11.56C157.72,15.9,158.31,15.77,158.89,15.58z M151.85,8.61
	c0.31-0.33,0.74-0.46,1.18-0.48c-2.91,0.15-6.75,0.33-8.6,3.07c-0.74,1.09-1.07,2.5-2.16,3.35c-0.39,0.3-0.84,0.51-1.28,0.7
	c2.25-0.98,4.46-1.18,6.48-2.79c-0.75,0.86-1.64,1.61-2.6,2.21c-0.33,0.21-0.65,0.42-0.99,0.61c1.5,0.16,3.04,0.44,4.35,0.15
	c0.86-0.19,1.67-0.59,2.4-1.08c0.64-0.44,1.13-0.96,1.24-1.75c0.11-0.8-0.07-1.62-0.22-2.41C151.54,9.65,151.43,9.06,151.85,8.61z
	 M159.04,7.01c-0.54,0.31-1.15,0.49-1.69,0.83c-0.07,0.05-0.15,0.09-0.23,0.13c0.63-0.33,1.74-0.35,2.45-0.59
	c0.86-0.29,1.91-0.81,2.83-0.6c-0.49,0.79-1.48,1.13-2.32,1.4c-0.38,0.12-2.23,0.92-2.51,0.79c0.5,0.23,1.03,0.38,1.57,0.46
	c2.68,0.4,5.71-0.86,7.72-2.37c0.44-0.33,0.94-0.75,1.49-0.77c0.18-0.01,0.37-0.02,0.55,0c0.18,0.01,0.34,0.12,0.53,0.09
	c-0.32-0.27-0.75-0.39-1.15-0.49c-2.51-0.63-4.73-0.9-7.22,0.07C160.36,6.25,159.69,6.63,159.04,7.01z M152.07,15.48
	c0.65-0.02,1.29-0.04,1.94-0.1c1.84-0.17,3.76-0.24,5.43-1.13c1.52-0.81,2.16-2.98,3.99-3.3c-3.03-1.12-6.19-0.79-9.06,0.69
	c-1.5,0.78-2.17,2.52-3.63,3.34c0.8-0.45,2.02-0.56,2.89-0.86c1.11-0.38,2.2-0.84,3.19-1.48c0.24-0.16,0.53-0.33,0.79-0.45
	c0.05-0.02,0.1-0.04,0.14-0.06c0.07-0.03,0.13-0.1,0.19-0.13c-1.02,0.93-2.1,1.65-3.25,2.27C153.84,14.71,152.98,15.11,152.07,15.48
	z M145.98,2.17c-1.19,0.96-2.38,3.27-2.2,4.85c0.05,0.45,0.15,1.05,0.34,1.39c0.18-1.16,0.66-2.22,1.36-3.16
	c0.58-0.78,1.56-1.28,2.11-2.02c0.02-0.02,0.04-0.05,0.07-0.07c-1.06,1.38-1.84,2.98-2.13,4.7c-0.05,0.27-0.08,0.55-0.1,0.83
	c0.03-0.02,0.06-0.04,0.09-0.05c1.11-0.65,2.42-0.86,3.61-1.31c2.42-0.91,2.6-2.71,2.41-5.04c-0.04-0.51-0.1-1.11,0.21-1.56
	c0.13-0.2,0.35-0.33,0.52-0.5c-0.45,0.47-2.86,0.47-3.57,0.67C147.73,1.17,146.76,1.53,145.98,2.17z M168.39,11.91
	c-1.88-0.04-3.57,0.86-5.13,1.81c-0.67,0.41-2.04,1.38-2.79,1.49c1.62-0.24,2.97-0.95,4.5-1.43c-0.46,1.1-2.05,1.57-3.1,1.85
	c0.17,0.02,0.34,0.03,0.52,0.04c1.29,0.06,2.64-0.19,3.6-1.1C166.58,14,167.34,11.89,168.39,11.91z M136.83,15.34
	c1.75-0.17,3.48-1.03,4.82-2.15c1.45-1.21,1.4-3.2,1.19-4.92c-0.2-1.59-0.77-3.31,0.37-4.66c-1.49,1.77-5.32,2.36-7.23,3.85
	c-2.27,1.76-3.59,4.53-3.52,7.38c0.27-0.2,0.53-0.41,0.76-0.63c1.92-1.91,4.81-3.36,5.85-5.99c-0.18,0.5-1.27,2.68-2.35,4.49
	c-0.86,1.43-1.7,2.63-2.07,2.56C135.35,15.39,136.1,15.41,136.83,15.34z M153.02,3.25c-0.69,0.81-1,2.07-0.89,3.11
	c0.02,0.17,0.34,0.86,0.17,1.02c0.54-0.48,1.05-0.98,1.56-1.5c0.52-0.52,1.03-1.03,1.58-1.52c0.22-0.2,0.43-0.4,0.63-0.62
	c0.11-0.12,0.23-0.25,0.33-0.38c-0.38,0.48-2.42,4.61-2.86,4.52c0.69,0.14,1.43,0.05,2.11-0.11c0.7-0.16,1.48-0.38,2.05-0.84
	c0.52-0.42,0.73-1.05,0.79-1.7c0.13-1.53-0.9-4.36,1.16-4.98C157.21,0.99,154.81,1.17,153.02,3.25z M13.36,18.77
	c0-1.79-1.45-3.24-3.24-3.24s-3.24,1.45-3.24,3.24c0,1.79,1.45,3.24,3.24,3.24S13.36,20.56,13.36,18.77z M4.32,18.56
	c0-1.19-0.97-2.16-2.16-2.16C0.97,16.4,0,17.37,0,18.56s0.97,2.16,2.16,2.16C3.35,20.72,4.32,19.75,4.32,18.56z M20.07,23.25
	c2.53,0,4.59-2.05,4.59-4.59c0-2.53-2.05-4.59-4.59-4.59c-2.53,0-4.59,2.05-4.59,4.59C15.48,21.2,17.54,23.25,20.07,23.25z
	 M255.78,18.57c0,1.79,1.45,3.24,3.24,3.24s3.24-1.45,3.24-3.24s-1.45-3.24-3.24-3.24S255.78,16.79,255.78,18.57z M264.83,18.37
	c0,1.19,0.97,2.16,2.16,2.16c1.19,0,2.16-0.97,2.16-2.16c0-1.19-0.97-2.16-2.16-2.16C265.8,16.21,264.83,17.17,264.83,18.37z
	 M244.49,18.47c0,2.53,2.05,4.59,4.59,4.59s4.59-2.05,4.59-4.59c0-2.53-2.05-4.59-4.59-4.59S244.49,15.94,244.49,18.47z"/>
</svg>
