<?xml version="1.0" encoding="utf-8"?>
<!-- Generator: Adobe Illustrator 15.0.0, SVG Export Plug-In  -->
<!DOCTYPE svg PUBLIC "-//W3C//DTD SVG 1.1 Tiny//EN" "http://www.w3.org/Graphics/SVG/1.1/DTD/svg11-tiny.dtd" [
	<!ENTITY ns_flows "http://ns.adobe.com/Flows/1.0/">
]>
<svg version="1.1" baseProfile="tiny"
	 xmlns="http://www.w3.org/2000/svg" xmlns:xlink="http://www.w3.org/1999/xlink" xmlns:a="http://ns.adobe.com/AdobeSVGViewerExtensions/3.0/"
	 x="0px" y="0px" width="270px" height="180px" viewBox="0 -0.62 270 180" overflow="visible" xml:space="preserve">
<defs>
</defs>
<path fill="none" stroke="#000000" stroke-width="2.0142" stroke-miterlimit="10" d="M23.46,168.74V0 M28.14,168.74V0"/>
<line fill="none" stroke="#000000" stroke-width="6.7535" stroke-miterlimit="10" x1="35.17" y1="156.09" x2="35.17" y2="0"/>
<line fill="none" stroke="#000000" stroke-width="4.3838" stroke-miterlimit="10" x1="43.38" y1="156.09" x2="43.38" y2="0"/>
<path fill="none" stroke="#000000" stroke-width="2.0142" stroke-miterlimit="10" d="M51.58,156.09V0 M60.95,156.09V0"/>
<path fill="none" stroke="#000000" stroke-width="4.3838" stroke-miterlimit="10" d="M66.81,156.09V0 M76.19,156.09V0"/>
<line fill="none" stroke="#000000" stroke-width="2.0142" stroke-miterlimit="10" x1="82.05" y1="156.09" x2="82.05" y2="0"/>
<line fill="none" stroke="#000000" stroke-width="4.3838" stroke-miterlimit="10" x1="92.59" y1="156.09" x2="92.59" y2="0"/>
<path fill="none" stroke="#000000" stroke-width="2.0142" stroke-miterlimit="10" d="M100.79,156.09V0 M110.17,156.09V0"/>
<line fill="none" stroke="#000000" stroke-width="9.1231" stroke-miterlimit="10" x1="118.37" y1="156.09" x2="118.37" y2="0"/>
<path fill="none" stroke="#000000" stroke-width="2.0142" stroke-miterlimit="10" d="M126.58,156.09V0 M131.26,168.74V0
	 M135.95,168.74V0"/>
<line fill="none" stroke="#000000" stroke-width="6.7535" stroke-miterlimit="10" x1="142.98" y1="156.09" x2="142.98" y2="0"/>
<path fill="none" stroke="#000000" stroke-width="2.0142" stroke-miterlimit="10" d="M150.01,156.09V0 M157.04,156.09V0
	 M161.73,156.09V0 M173.45,156.09V0 M180.48,156.09V0"/>
<line fill="none" stroke="#000000" stroke-width="6.7535" stroke-miterlimit="10" x1="192.2" y1="156.09" x2="192.2" y2="0"/>
<line fill="none" stroke="#000000" stroke-width="2.0142" stroke-miterlimit="10" x1="201.57" y1="156.09" x2="201.57" y2="0"/>
<path fill="none" stroke="#000000" stroke-width="4.3838" stroke-miterlimit="10" d="M207.43,156.09V0 M216.8,156.09V0
	 M223.84,156.09V0 M230.87,156.09V0"/>
<path fill="none" stroke="#000000" stroke-width="2.0142" stroke-miterlimit="10" d="M239.07,168.74V0 M243.76,168.74V0"/>
<path d="M1.55,176.37c0.54,0.06,1.15,0,2-0.08c1.43-0.2,2.78-0.79,3.82-1.77c1.21-1.1,2.08-2.7,2.42-4.87H9.7
	c-1.01,1.24-2.48,1.97-4.3,1.97c-3.29,0-5.4-2.48-5.4-5.6c0-3.46,2.5-6.5,6.24-6.5c3.74,0,6.05,3.04,6.05,7.71
	c0,4.02-1.35,6.83-3.15,8.58c-1.41,1.38-3.35,2.22-5.31,2.45c-0.9,0.14-1.69,0.17-2.28,0.14V176.37z M6.02,161.41
	c-2.08,0-3.57,1.86-3.57,4.44c0,2.28,1.38,3.88,3.52,3.88c1.66,0,2.95-0.82,3.6-1.91c0.14-0.22,0.23-0.51,0.23-0.9
	c0-3.12-1.15-5.51-3.74-5.51H6.02z"/>
<path d="M44.79,159.84v1.63l-7.96,16.65h-2.56l7.93-16.17v-0.06h-8.94v-2.05H44.79z"/>
<path d="M61.19,159.84v1.63l-7.96,16.65h-2.56l7.93-16.17v-0.06h-8.94v-2.05H61.19z"/>
<path d="M71.09,162.14h-0.06l-3.18,1.71l-0.48-1.88l3.99-2.14h2.11v18.28h-2.39V162.14z"/>
<path d="M89.76,178.12v-4.98h-8.49v-1.63l8.16-11.67h2.67v11.36h2.56v1.94h-2.56v4.98H89.76z M89.76,171.2v-6.1
	c0-0.96,0.03-1.91,0.08-2.87h-0.08c-0.56,1.07-1.01,1.86-1.52,2.7l-4.47,6.22v0.06H89.76z"/>
<path d="M110.38,159.84v1.63l-7.96,16.65h-2.56l7.93-16.17v-0.06h-8.94v-2.05H110.38z"/>
<path d="M115.49,175.28c0.7,0.45,2.33,1.15,4.05,1.15c3.18,0,4.16-2.03,4.13-3.54c-0.03-2.56-2.33-3.66-4.72-3.66h-1.38v-1.86h1.38
	c1.8,0,4.08-0.93,4.08-3.09c0-1.46-0.93-2.76-3.21-2.76c-1.46,0-2.87,0.65-3.66,1.21l-0.65-1.8c0.96-0.7,2.81-1.41,4.78-1.41
	c3.6,0,5.23,2.14,5.23,4.36c0,1.88-1.12,3.49-3.38,4.3v0.06c2.25,0.45,4.08,2.14,4.08,4.7c0,2.93-2.28,5.48-6.67,5.48
	c-2.05,0-3.85-0.65-4.75-1.24L115.49,175.28z"/>
<path d="M142.17,176.37c0.54,0.06,1.15,0,2-0.08c1.43-0.2,2.78-0.79,3.83-1.77c1.21-1.1,2.08-2.7,2.42-4.87h-0.08
	c-1.01,1.24-2.48,1.97-4.3,1.97c-3.29,0-5.4-2.48-5.4-5.6c0-3.46,2.5-6.5,6.24-6.5c3.74,0,6.05,3.04,6.05,7.71
	c0,4.02-1.35,6.83-3.15,8.58c-1.41,1.38-3.35,2.22-5.32,2.45c-0.9,0.14-1.69,0.17-2.28,0.14V176.37z M146.64,161.41
	c-2.08,0-3.57,1.86-3.57,4.44c0,2.28,1.38,3.88,3.52,3.88c1.66,0,2.95-0.82,3.6-1.91c0.14-0.22,0.22-0.51,0.22-0.9
	c0-3.12-1.15-5.51-3.74-5.51H146.64z"/>
<path d="M167.56,161.58c-0.51-0.03-1.15,0-1.86,0.11c-3.88,0.65-5.93,3.49-6.36,6.5h0.08c0.87-1.15,2.39-2.11,4.42-2.11
	c3.23,0,5.51,2.33,5.51,5.91c0,3.35-2.28,6.44-6.08,6.44c-3.91,0-6.47-3.04-6.47-7.79c0-3.6,1.29-6.44,3.09-8.24
	c1.52-1.49,3.54-2.42,5.85-2.7c0.73-0.11,1.35-0.14,1.8-0.14V161.58z M163.31,176.51c2.11,0,3.54-1.77,3.54-4.39
	c0-2.62-1.49-4.19-3.77-4.19c-1.49,0-2.87,0.93-3.54,2.25c-0.17,0.28-0.28,0.65-0.28,1.1c0.06,3.01,1.43,5.23,4.02,5.23H163.31z"/>
<path d="M176.9,168.5c-2.02-0.96-2.9-2.53-2.9-4.11c0-2.9,2.45-4.86,5.65-4.86c3.54,0,5.32,2.22,5.32,4.5
	c0,1.55-0.76,3.21-3.01,4.27v0.08c2.28,0.9,3.68,2.5,3.68,4.72c0,3.18-2.73,5.32-6.21,5.32c-3.83,0-6.13-2.28-6.13-4.95
	c0-2.31,1.38-3.94,3.63-4.89L176.9,168.5z M183.14,173.36c0-2.22-1.55-3.29-4.02-3.99c-2.14,0.62-3.29,2.03-3.29,3.77
	c-0.08,1.86,1.32,3.49,3.66,3.49C181.71,176.63,183.14,175.22,183.14,173.36z M176.33,164.22c0,1.83,1.38,2.81,3.49,3.38
	c1.57-0.53,2.78-1.66,2.78-3.32c0-1.46-0.87-2.98-3.09-2.98C177.46,161.3,176.33,162.65,176.33,164.22z"/>
<path d="M202.07,168.78c0,6.21-2.3,9.65-6.35,9.65c-3.57,0-5.99-3.35-6.05-9.39c0-6.13,2.64-9.51,6.36-9.51
	C199.87,159.53,202.07,162.96,202.07,168.78z M192.14,169.06c0,4.75,1.46,7.45,3.71,7.45c2.53,0,3.74-2.95,3.74-7.62
	c0-4.5-1.15-7.45-3.71-7.45C193.71,161.44,192.14,164.08,192.14,169.06z"/>
<path d="M211.69,162.14h-0.06l-3.18,1.71l-0.48-1.88l3.99-2.14h2.11v18.28h-2.39V162.14z"/>
<path d="M222.71,178.12v-1.52l1.94-1.88c4.67-4.44,6.78-6.81,6.81-9.56c0-1.86-0.9-3.57-3.63-3.57c-1.66,0-3.04,0.84-3.88,1.55
	l-0.79-1.74c1.27-1.07,3.07-1.86,5.17-1.86c3.94,0,5.6,2.7,5.6,5.31c0,3.38-2.45,6.1-6.3,9.82l-1.46,1.35v0.06h8.21v2.05H222.71z"/>
<polyline fill="none" stroke="#000000" stroke-width="1.7772" stroke-miterlimit="10" points="254.3,160.54 268.37,168.74 
	254.3,176.95 "/>
</svg>
