<?xml version="1.0" encoding="utf-8"?>
<!-- Generator: Adobe Illustrator 14.0.0, SVG Export Plug-In  -->
<!DOCTYPE svg PUBLIC "-//W3C//DTD SVG 1.1 Tiny//EN" "http://www.w3.org/Graphics/SVG/1.1/DTD/svg11-tiny.dtd" [
	<!ENTITY ns_flows "http://ns.adobe.com/Flows/1.0/">
]>
<svg version="1.1" baseProfile="tiny"
	 xmlns="http://www.w3.org/2000/svg" xmlns:xlink="http://www.w3.org/1999/xlink" xmlns:a="http://ns.adobe.com/AdobeSVGViewerExtensions/3.0/"
	 x="0px" y="0px" width="275px" height="259px" viewBox="-0.42 -0.54 275 259" xml:space="preserve">
<defs>
</defs>
<path d="M144.89,197.59c-0.08,0.08-0.27,0.03-0.49-0.04c-0.21-0.07-1.3-0.4-1.53-0.35c-0.23,0.05-0.42,0.14-0.85,0.81
	c-0.04,0.04-0.16,0.04-0.25,0.03c-0.09-0.01-0.17,0.09-0.05,0.22c0.13,0.13,0.25,0.14,0.33,0.23c0.08,0.09,0.05,0.24,0.28,0.29
	c0.12,0.07,0.43,0.25,0.62,0.88c0.03,0.12-0.04,0.65-0.37,1.05c-0.34,0.4-1.85,1.66-2.99,2.43c-1.14,0.77-2.34,1.56-3.13,1.92
	c-0.03,0.01-0.23,0.26-0.62,0.69c-0.4,0.43-1.22,1.19-1.76,2.49c0,0.05,0.08,0.11,0.08,0.11c-0.5,0.79-1.48,2.57-2.33,5.01
	c-0.84,2.44-0.77,3.98-0.79,5.39c0.02,0.1,0.28-0.14,0.28-0.01c0.01,0.13,0.15,0.11,0.18-0.03c0.04-0.14,0.3-0.93,0.39-0.77
	c0.09,0.15,0.17,0.73,0.28,0.32c0.12-0.4,0.31-1.03,0.5-0.8c0.09,0.1,0.11,0.04,0.19-0.21c0.08-0.25,0.35-0.86,0.46-0.68
	c0.12,0.17,0.21,0.06,0.27-0.15c0.06-0.2,0.37-0.89,0.47-0.8c0.09,0.1,0.18,0.07,0.26-0.09c0.08-0.17,0.54-0.97,0.61-0.95
	c0.07,0.02,0.2,0.19,0.45-0.22c0.25-0.42,0.41-0.69,0.41-0.69c0.1,0.03,0.26,0.15,0.37-0.09c0.11-0.25,0.39-0.91,0.49-0.87
	c0.1,0.04,0.3,0.04,0.37-0.21c0.07-0.25,0.29-0.7,0.35-0.69c0.06,0,0.27,0.13,0.37-0.18c0.1-0.3,0.21-0.46,0.33-0.6
	c0.12-0.14,0.36-0.48,0.37-0.53c0.27,0.05,0.5,0.12,0.51-0.07c0-0.09-0.12-0.19-0.12-0.19c0.11-0.05,0.27-0.18,0.33-0.2
	c0.05-0.01,0.33,0.18,0.44-0.1c0.11-0.28,0.09-0.35,0.27-0.31c0.38,0.03,0.2-0.44,0.41-0.43c0.21,0,0.31-0.12,0.4-0.38
	c0.08-0.18,0.3,0.06,0.43-0.15c0.13-0.22,0.05-0.16,0.09-0.25c0.1-0.09,0.36-0.17,0.52-0.31c0.16-0.14,0.46-0.34,0.66-0.49
	c0.2-0.14,1.18-0.91,1.47-1.15c0.28-0.24,0.37-0.18,0.44-0.29c0.06-0.11,0.13-0.2,0.3-0.34c0.17-0.14,0.18-0.27,0.27-0.3
	c0.09-0.04,0.25-0.03,0.4-0.31c0.11-0.06,0.31-0.07,0.37-0.2c-0.03-0.08-0.01-0.13,0.12-0.18c0.13-0.05-0.01-0.15,0.17-0.22
	c0.18-0.08,0.19-0.2,0.32-0.21c0.14-0.01,0.45-0.04,0.59-0.09c0.04,0.09-0.14,0.61-0.28,1.57c-0.14,0.97-0.21,1.3-0.25,1.46
	c-0.04,0.15,0.06,0.21,0.04,0.27c-0.02,0.06-0.3,0.42-0.19,0.61c0.11,0.19,0.3-0.04,0.47-0.1c0.16-0.05,0.24-0.35,0.3-0.33
	c0.06,0.02,0.1,0.44,0.19,0.66c0.05,0.05,0.23,0.22,0.52-0.07c0.29-0.29,0.32-0.25,0.59,0.02c0.15,0.13,0.25,0.14,0.44-0.07
	c0.19-0.21,0.43-0.43,0.66-0.22c0.09,0.07,0.26,0,0.41-0.13c0.15-0.13,0.34-0.43,0.48-0.41c0.15,0.02,0.3,0.16,0.45-0.03
	c0.15-0.18,0.23-0.17,0.24-0.36c0.01-0.19-0.11-0.83-0.4-1.26c-0.29-0.43-0.22-0.51-0.13-0.56c0.09-0.05,0.46,0.07,0.7,0.26
	c0.24,0.19,0.82,0.39,1.04,0.45c0.22,0.06,0.45-0.02,0.48-0.2c0.04-0.18,0.08-0.36,0.14-0.44c0.06-0.08,0.34-0.28,0.38-0.4
	c0.04-0.13-0.1-0.51-0.05-0.62c0.04-0.1,0.4-0.43,0.44-0.56c0.1-0.3-0.27-0.47-0.25-0.56c0.02-0.1,0.15-0.1,0.18-0.27
	c0.03-0.17-0.22-0.38-0.19-0.47c0.01-0.09,0-0.43,0.08-0.58c0.09-0.15,0.25-0.21,0.28-0.39c0.04-0.18-0.28-0.44-0.79-0.45
	c0-0.09,0.27-0.21,0.3-0.32c0.03-0.12,0-0.27,0.04-0.43c0.04-0.17-0.21-0.28-0.32-0.2c-0.11,0.08-0.53,0.33-0.92,0.39
	c-0.39,0.05-1.87,0.33-2.57,0.74c-0.08-0.11-0.39-0.27-0.32-0.52c0.07-0.25,0.21-0.79,0.25-1c0.05-0.12,0.08-0.32,0.11-0.43
	c0.03-0.1,0.13-0.31,0.11-0.36c-0.01-0.06,0.11-0.21,0.11-0.27c0-0.07,0.02-0.19,0.06-0.24c0.03-0.05,0.04-0.29,0.02-0.38
	c0.03-0.1,0.1-0.19,0.1-0.36c0.1-0.18,0.06-0.34,0.06-0.47c0.13-0.1,0.22-0.47,0.08-0.89c0-0.09,0.06-0.05,0.14-0.03
	c0.08,0.01,0.17-0.02,0.2-0.18c0.03-0.16,0.02-0.26,0.08-0.37c0.05-0.1,0.14-0.38,0.15-0.53c0.04-0.1,0.08-0.27,0.08-0.39
	c0.05-0.12,0.09-0.17,0.18-0.19c0.08-0.03,0.17-0.27,0.17-0.44c0.04-0.06,0.19-0.09,0.21-0.2c0.03-0.11-0.1-0.48-0.08-0.54
	c0.02-0.07,0.2-0.29,0.38-0.32c0.18-0.03,0.3-0.38,0.34-0.54c0.17-0.22,0.42-0.36,0.5-0.68c0.18-0.18,0.45-0.46,0.47-0.68
	c0.13-0.14,0.46-0.42,0.58-0.84c0.22-0.12,0.58-0.53,0.69-0.83c0.25-0.25,0.58-0.56,0.6-0.69c0.03-0.13-0.17-0.17,0-0.24
	c0.16-0.08,0.48-0.09,0.53-0.22c0.04-0.13-0.16-0.31-0.04-0.37c0.12-0.06,0.49-0.14,0.54-0.28c0.05-0.15-0.41-0.26-0.26-0.33
	c0.15-0.07,0.4,0.02,0.45-0.11c0.05-0.13-0.29-0.26-0.23-0.36c0.06-0.1-0.24-0.09-0.37-0.11c-1.17-0.06-3.48-0.01-6.94,2.79
	c-0.03-0.03,0.03-0.16,0-0.18c-0.04-0.02-0.26,0.1-0.5,0.34c-0.24,0.24-1.14,1.45-1.27,1.68c-0.14,0.23-0.13,0.43-0.14,0.61
	c0,0.18-0.35,2.28-0.54,2.98C145.62,195.8,145.42,196.99,144.89,197.59z"/>
<path d="M51.79,120.42c-0.28,0.31-1,0.1-1.79-0.16c-0.79-0.26-4.78-1.52-5.65-1.33c-0.86,0.18-1.55,0.51-3.15,2.95
	c-0.16,0.14-0.6,0.16-0.93,0.13c-0.34-0.04-0.63,0.34-0.18,0.8c0.47,0.46,0.91,0.52,1.22,0.86c0.31,0.33,0.16,0.9,1.04,1.07
	c0.45,0.27,1.58,0.94,2.25,3.27c0.11,0.46-0.18,2.4-1.42,3.85c-1.25,1.48-6.87,6.06-11.09,8.88c-4.24,2.83-8.67,5.7-11.6,7.01
	c-0.13,0.04-0.86,0.96-2.33,2.55c-1.48,1.58-4.54,4.32-6.59,9.1c-0.01,0.18,0.3,0.42,0.3,0.42c-1.86,2.89-5.54,9.44-8.74,18.41
	c-3.19,8.96-2.96,14.64-3.11,19.85c0.08,0.37,1.02-0.53,1.06-0.03c0.03,0.47,0.55,0.41,0.69-0.1c0.12-0.5,1.14-3.41,1.46-2.83
	c0.31,0.57,0.59,2.69,1.04,1.19c0.45-1.49,1.18-3.77,1.88-2.92c0.34,0.37,0.42,0.14,0.72-0.79c0.29-0.91,1.29-3.16,1.74-2.5
	c0.44,0.65,0.77,0.22,0.98-0.55c0.21-0.74,1.38-3.28,1.74-2.94c0.34,0.35,0.64,0.25,0.95-0.34c0.32-0.61,2.05-3.58,2.3-3.49
	c0.25,0.08,0.7,0.69,1.66-0.82c0.94-1.52,1.55-2.53,1.55-2.53c0.35,0.11,0.96,0.58,1.38-0.33c0.41-0.92,1.48-3.34,1.83-3.18
	c0.37,0.17,1.11,0.17,1.37-0.76c0.27-0.93,1.11-2.57,1.33-2.52c0.22,0.03,1,0.48,1.37-0.65c0.35-1.12,0.78-1.69,1.21-2.21
	c0.45-0.52,1.36-1.77,1.42-1.96c0.99,0.17,1.84,0.49,1.89-0.24c-0.01-0.35-0.44-0.69-0.44-0.69c0.42-0.21,0.99-0.68,1.21-0.74
	c0.21-0.04,1.2,0.67,1.61-0.36c0.42-1.03,0.35-1.28,1.03-1.15c1.38,0.11,0.76-1.62,1.53-1.61c0.76,0.01,1.15-0.45,1.49-1.37
	c0.29-0.66,1.11,0.24,1.61-0.54c0.47-0.78,0.18-0.59,0.36-0.89c0.38-0.34,1.32-0.63,1.91-1.13c0.58-0.51,1.72-1.27,2.47-1.8
	c0.75-0.54,4.39-3.32,5.44-4.19c1.05-0.87,1.38-0.67,1.62-1.06c0.24-0.38,0.49-0.7,1.13-1.23c0.63-0.53,0.68-0.99,1.01-1.11
	c0.36-0.13,0.92-0.1,1.51-1.15c0.41-0.21,1.14-0.25,1.34-0.73c-0.1-0.3-0.04-0.47,0.45-0.68c0.49-0.18-0.05-0.56,0.62-0.83
	c0.67-0.29,0.7-0.71,1.19-0.74c0.53-0.03,1.67-0.12,2.15-0.32c0.16,0.33-0.54,2.24-1.09,5.8c-0.53,3.56-0.81,4.78-0.97,5.36
	c-0.15,0.57,0.2,0.81,0.14,1.01c-0.07,0.22-1.12,1.55-0.74,2.26c0.39,0.71,1.13-0.14,1.73-0.34c0.6-0.19,0.91-1.29,1.13-1.22
	c0.21,0.07,0.35,1.63,0.67,2.44c0.21,0.19,0.84,0.81,1.92-0.23c1.07-1.05,1.18-0.9,2.17,0.08c0.54,0.49,0.91,0.53,1.63-0.25
	c0.71-0.78,1.59-1.58,2.42-0.81c0.33,0.27,0.96,0,1.5-0.48c0.55-0.49,1.25-1.58,1.78-1.48c0.56,0.1,1.1,0.58,1.65-0.09
	c0.58-0.67,0.87-0.62,0.9-1.31c0.03-0.69-0.38-3.08-1.45-4.67c-1.05-1.59-0.82-1.87-0.48-2.06c0.34-0.2,1.68,0.27,2.56,0.99
	c0.88,0.71,3.03,1.45,3.85,1.67c0.81,0.24,1.63-0.04,1.78-0.71c0.13-0.65,0.32-1.32,0.52-1.61c0.22-0.28,1.26-1.02,1.41-1.49
	c0.14-0.46-0.34-1.9-0.18-2.29c0.16-0.37,1.48-1.57,1.63-2.04c0.37-1.13-0.97-1.75-0.89-2.11c0.08-0.37,0.54-0.37,0.67-0.99
	c0.13-0.62-0.77-1.43-0.7-1.74c0.07-0.32,0.02-1.6,0.35-2.14c0.33-0.56,0.9-0.77,1.04-1.42c0.14-0.64-1.01-1.65-2.89-1.67
	c0-0.35,1.02-0.75,1.13-1.19c0.1-0.43,0-0.98,0.16-1.58c0.16-0.61-0.77-1.03-1.18-0.74c-0.41,0.29-1.97,1.19-3.42,1.38
	c-1.45,0.19-6.88,1.14-9.49,2.63c-0.29-0.39-1.44-1.01-1.16-1.94c0.25-0.92,0.82-2.88,0.96-3.7c0.17-0.44,0.31-1.18,0.44-1.57
	c0.12-0.39,0.49-1.13,0.43-1.33c-0.05-0.21,0.41-0.76,0.41-1c-0.01-0.23,0.06-0.68,0.21-0.87c0.13-0.19,0.15-1.07,0.06-1.4
	c0.12-0.39,0.38-0.71,0.4-1.32c0.36-0.66,0.21-1.25,0.24-1.71c0.46-0.36,0.83-1.71,0.3-3.29c0.03-0.33,0.25-0.18,0.53-0.09
	c0.29,0.05,0.64-0.07,0.75-0.65c0.11-0.58,0.09-0.98,0.3-1.35c0.18-0.36,0.53-1.4,0.58-1.95c0.16-0.37,0.3-0.98,0.3-1.41
	c0.19-0.45,0.36-0.62,0.66-0.73c0.3-0.09,0.63-1,0.64-1.61c0.15-0.23,0.7-0.36,0.79-0.76c0.09-0.41-0.35-1.75-0.27-2.01
	c0.08-0.23,0.76-1.06,1.42-1.16c0.65-0.1,1.1-1.39,1.26-2.01c0.62-0.8,1.56-1.32,1.86-2.51c0.67-0.63,1.7-1.67,1.77-2.49
	c0.48-0.51,1.7-1.54,2.16-3.08c0.83-0.44,2.18-1.95,2.59-3.05c0.91-0.91,2.12-2.03,2.24-2.51c0.11-0.46-0.62-0.62-0.02-0.89
	c0.59-0.28,1.79-0.32,1.96-0.81c0.15-0.49-0.58-1.16-0.14-1.37c0.45-0.21,1.83-0.5,1.99-1.03c0.18-0.53-1.5-0.95-0.96-1.2
	c0.56-0.25,1.48,0.09,1.67-0.39c0.2-0.48-1.07-0.98-0.84-1.33c0.24-0.35-0.88-0.33-1.37-0.4c-4.35-0.25-12.85-0.14-25.7,10.09
	c-0.12-0.12,0.12-0.6-0.01-0.67c-0.13-0.09-0.96,0.35-1.86,1.23c-0.91,0.86-4.24,5.3-4.75,6.16c-0.5,0.84-0.51,1.58-0.54,2.24
	c-0.01,0.66-1.35,8.4-2.06,10.96C54.59,113.86,53.81,118.24,51.79,120.42z"/>
<path d="M121.57,151.7c-0.13,0.08-0.37-0.05-0.64-0.21c-0.27-0.17-1.62-0.96-1.95-0.97c-0.32,0-0.61,0.05-1.4,0.81
	c-0.07,0.04-0.23,0-0.36-0.04c-0.12-0.04-0.26,0.07-0.13,0.28c0.13,0.21,0.29,0.27,0.37,0.42c0.08,0.15-0.01,0.35,0.29,0.48
	c0.14,0.14,0.49,0.48,0.54,1.38c0,0.18-0.27,0.86-0.85,1.29c-0.58,0.43-3.02,1.62-4.82,2.29c-1.78,0.66-3.65,1.33-4.83,1.56
	c-0.05,0-0.39,0.29-1.07,0.74c-0.67,0.45-2.02,1.18-3.18,2.75c-0.03,0.07,0.07,0.18,0.07,0.18c-0.93,0.9-2.83,2.97-4.77,5.97
	c-1.93,3-2.34,5.09-2.83,6.97c-0.01,0.14,0.41-0.11,0.39,0.08c-0.03,0.17,0.16,0.2,0.26,0.02c0.09-0.18,0.71-1.14,0.77-0.91
	c0.06,0.23-0.02,1.03,0.27,0.52c0.29-0.5,0.76-1.28,0.94-0.91c0.09,0.17,0.14,0.09,0.33-0.22c0.19-0.31,0.75-1.04,0.85-0.77
	c0.11,0.28,0.27,0.15,0.41-0.11c0.14-0.26,0.79-1.08,0.89-0.93c0.1,0.16,0.21,0.14,0.37-0.04c0.16-0.19,1.05-1.12,1.14-1.08
	c0.08,0.05,0.2,0.31,0.67-0.16c0.48-0.48,0.79-0.79,0.79-0.79c0.12,0.07,0.3,0.29,0.53,0c0.23-0.3,0.82-1.09,0.94-1
	c0.12,0.09,0.38,0.14,0.56-0.17c0.18-0.31,0.62-0.83,0.7-0.8c0.08,0.03,0.32,0.26,0.55-0.12c0.23-0.38,0.43-0.55,0.64-0.7
	c0.21-0.15,0.65-0.54,0.68-0.6c0.35,0.15,0.64,0.34,0.71,0.08c0.03-0.13-0.1-0.29-0.1-0.29c0.17-0.04,0.42-0.16,0.5-0.17
	c0.08,0,0.39,0.35,0.62,0.01c0.24-0.34,0.24-0.44,0.48-0.33c0.5,0.16,0.43-0.52,0.69-0.45c0.28,0.07,0.45-0.06,0.66-0.38
	c0.16-0.21,0.38,0.18,0.63-0.06c0.24-0.24,0.12-0.2,0.21-0.29c0.17-0.09,0.53-0.12,0.79-0.25c0.25-0.14,0.74-0.32,1.06-0.45
	c0.31-0.13,1.88-0.83,2.34-1.06c0.45-0.22,0.56-0.13,0.68-0.25c0.12-0.12,0.24-0.21,0.52-0.36c0.28-0.14,0.33-0.29,0.46-0.31
	c0.13-0.01,0.35,0.04,0.65-0.29c0.16-0.04,0.44,0.01,0.55-0.15c-0.01-0.12,0.03-0.18,0.22-0.21c0.2-0.03,0.03-0.21,0.3-0.25
	c0.26-0.05,0.31-0.2,0.5-0.17c0.19,0.03,0.62,0.09,0.81,0.06c0.02,0.13-0.39,0.78-0.9,2.03c-0.51,1.25-0.71,1.67-0.81,1.87
	c-0.1,0.2,0.01,0.31-0.04,0.38c-0.04,0.07-0.54,0.48-0.46,0.76c0.08,0.3,0.43,0.05,0.66,0.03c0.24-0.02,0.45-0.39,0.52-0.35
	c0.07,0.05-0.01,0.62,0.03,0.95c0.06,0.08,0.24,0.37,0.73,0.08c0.47-0.29,0.5-0.22,0.78,0.22c0.15,0.23,0.29,0.27,0.62,0.04
	c0.33-0.22,0.71-0.43,0.95-0.09c0.1,0.13,0.36,0.09,0.59-0.04c0.24-0.13,0.59-0.47,0.77-0.38c0.2,0.08,0.36,0.3,0.62,0.1
	c0.27-0.19,0.37-0.15,0.44-0.4c0.07-0.24,0.13-1.16-0.13-1.83c-0.25-0.67-0.14-0.75,0-0.79c0.14-0.04,0.59,0.24,0.85,0.58
	c0.26,0.33,0.98,0.79,1.26,0.95c0.28,0.15,0.6,0.12,0.71-0.11c0.11-0.23,0.23-0.46,0.33-0.54c0.1-0.09,0.54-0.27,0.64-0.42
	c0.09-0.16,0.03-0.73,0.13-0.85c0.09-0.12,0.67-0.45,0.76-0.6c0.23-0.39-0.2-0.73-0.14-0.86c0.06-0.12,0.23-0.09,0.33-0.3
	c0.1-0.22-0.16-0.58-0.1-0.7c0.05-0.11,0.14-0.58,0.31-0.75c0.16-0.18,0.39-0.21,0.49-0.43c0.11-0.23-0.23-0.69-0.91-0.86
	c0.03-0.13,0.44-0.19,0.51-0.34c0.07-0.15,0.08-0.36,0.19-0.56c0.11-0.21-0.19-0.44-0.37-0.37c-0.17,0.07-0.82,0.27-1.37,0.22
	c-0.56-0.06-2.61-0.18-3.69,0.13c-0.07-0.17-0.43-0.48-0.26-0.8c0.17-0.32,0.55-0.98,0.67-1.26c0.11-0.15,0.22-0.41,0.3-0.54
	c0.08-0.13,0.27-0.37,0.28-0.45c-0.01-0.08,0.2-0.25,0.23-0.33c0.01-0.09,0.09-0.24,0.16-0.3c0.06-0.05,0.14-0.38,0.14-0.5
	c0.09-0.13,0.21-0.22,0.27-0.45c0.18-0.21,0.18-0.44,0.23-0.6c0.2-0.09,0.45-0.56,0.39-1.18c0.05-0.11,0.11-0.04,0.2,0.01
	c0.1,0.04,0.24,0.02,0.33-0.18c0.08-0.2,0.11-0.35,0.22-0.46c0.1-0.11,0.32-0.47,0.38-0.67c0.09-0.11,0.19-0.33,0.23-0.48
	c0.11-0.15,0.18-0.2,0.3-0.2c0.11-0.02,0.31-0.32,0.37-0.54c0.08-0.06,0.28-0.07,0.35-0.21c0.07-0.15,0.02-0.67,0.08-0.75
	c0.05-0.07,0.37-0.32,0.62-0.3c0.25,0.01,0.52-0.42,0.63-0.63c0.29-0.24,0.68-0.35,0.89-0.75c0.3-0.18,0.76-0.47,0.87-0.76
	c0.21-0.15,0.75-0.42,1.05-0.94c0.34-0.09,0.96-0.52,1.2-0.89c0.41-0.26,0.95-0.56,1.04-0.73c0.08-0.15-0.17-0.28,0.07-0.33
	c0.23-0.05,0.68,0.04,0.78-0.12c0.1-0.17-0.11-0.47,0.07-0.52c0.18-0.04,0.71-0.02,0.81-0.2c0.11-0.19-0.47-0.48-0.25-0.52
	c0.23-0.05,0.53,0.16,0.65,0c0.11-0.16-0.31-0.45-0.2-0.55c0.12-0.11-0.29-0.2-0.46-0.27c-1.57-0.46-4.68-1.16-10.25,1.48
	c-0.02-0.05,0.09-0.2,0.05-0.25c-0.04-0.04-0.38,0.04-0.78,0.29c-0.41,0.24-2,1.57-2.26,1.84c-0.26,0.27-0.33,0.53-0.39,0.77
	c-0.07,0.24-1.21,2.95-1.69,3.82C123.15,149.55,122.5,151.08,121.57,151.7z"/>
<path d="M90.2,211.11c-0.01,0.21-0.36,0.35-0.76,0.5c-0.4,0.15-2.39,0.89-2.67,1.23c-0.29,0.35-0.46,0.7-0.33,2.16
	c-0.02,0.12-0.19,0.25-0.33,0.35c-0.14,0.1-0.15,0.33,0.18,0.38c0.33,0.04,0.53-0.08,0.76-0.04c0.23,0.04,0.34,0.31,0.75,0.1
	c0.26-0.03,0.93-0.11,1.92,0.61c0.19,0.15,0.68,1.01,0.64,1.99c-0.04,0.97-0.85,4.57-1.66,7.02c-0.81,2.46-1.68,4.99-2.46,6.44
	c-0.03,0.04-0.03,0.65-0.12,1.75c-0.1,1.08-0.46,3.14,0.21,5.7c0.06,0.08,0.26,0.06,0.26,0.06c0.15,1.75,0.73,5.52,2.26,10.11
	c1.53,4.58,3.4,6.78,4.97,8.92c0.15,0.13,0.24-0.53,0.41-0.35c0.17,0.17,0.36-0.01,0.24-0.26c-0.1-0.24-0.61-1.72-0.3-1.58
	c0.3,0.12,1.08,0.88,0.78,0.16c-0.29-0.74-0.7-1.89-0.17-1.77c0.26,0.05,0.2-0.07,0.05-0.54c-0.17-0.46-0.47-1.67-0.09-1.55
	s0.37-0.16,0.22-0.53c-0.14-0.36-0.47-1.74-0.22-1.72c0.25,0.03,0.33-0.11,0.27-0.44c-0.07-0.34-0.3-2.07-0.18-2.12
	s0.5,0.06,0.41-0.84c-0.1-0.9-0.17-1.5-0.17-1.5c0.17-0.07,0.57-0.07,0.44-0.56c-0.12-0.49-0.45-1.79-0.26-1.85
	c0.2-0.05,0.5-0.29,0.32-0.74c-0.19-0.46-0.37-1.38-0.26-1.42c0.09-0.06,0.55-0.13,0.34-0.69c-0.2-0.56-0.21-0.91-0.21-1.26
	c0.02-0.35-0.02-1.14-0.04-1.21c0.45-0.25,0.89-0.39,0.68-0.69c-0.11-0.15-0.39-0.14-0.39-0.14c0.1-0.21,0.18-0.59,0.26-0.66
	c0.06-0.09,0.69-0.12,0.52-0.67c-0.15-0.54-0.26-0.62,0.06-0.78c0.59-0.39-0.2-0.89,0.11-1.11c0.31-0.24,0.32-0.55,0.17-1.03
	c-0.1-0.35,0.52-0.25,0.47-0.71c-0.05-0.46-0.11-0.3-0.13-0.47c0.04-0.26,0.33-0.66,0.41-1.05c0.07-0.39,0.29-1.04,0.43-1.49
	c0.12-0.45,0.71-2.7,0.85-3.38c0.15-0.68,0.34-0.7,0.31-0.93c-0.03-0.23-0.01-0.44,0.07-0.85c0.09-0.41-0.03-0.61,0.07-0.75
	c0.1-0.16,0.33-0.33,0.24-0.95c0.1-0.21,0.39-0.46,0.32-0.7c-0.15-0.09-0.18-0.18-0.05-0.41c0.14-0.23-0.19-0.21-0.01-0.52
	c0.18-0.34,0.05-0.51,0.24-0.68c0.21-0.17,0.63-0.57,0.76-0.8c0.17,0.08,0.49,1.07,1.39,2.67s1.16,2.17,1.29,2.45
	c0.12,0.27,0.34,0.26,0.36,0.36c0.04,0.11,0.04,0.97,0.42,1.14c0.37,0.16,0.39-0.42,0.58-0.68c0.19-0.26-0.03-0.8,0.07-0.84
	c0.1-0.04,0.65,0.54,1.03,0.76c0.14,0.01,0.58,0.07,0.7-0.69c0.1-0.76,0.19-0.73,0.9-0.65c0.35,0.03,0.53-0.07,0.57-0.61
	c0.04-0.54,0.15-1.13,0.71-1.08c0.22,0,0.38-0.29,0.45-0.66c0.07-0.36,0.01-1.02,0.26-1.15c0.24-0.13,0.62-0.11,0.63-0.55
	c0.02-0.44,0.15-0.52-0.05-0.8c-0.21-0.28-1.12-1.12-2.03-1.42c-0.93-0.31-0.91-0.5-0.84-0.68c0.07-0.19,0.75-0.42,1.33-0.4
	c0.58,0.01,1.67-0.38,2.06-0.54c0.4-0.15,0.64-0.52,0.49-0.83c-0.15-0.3-0.29-0.64-0.29-0.81c-0.01-0.18,0.17-0.8,0.09-1.04
	c-0.09-0.23-0.74-0.66-0.78-0.86c-0.05-0.21,0.09-1.09,0-1.32c-0.21-0.57-0.93-0.41-1-0.57c-0.1-0.17,0.09-0.32-0.05-0.6
	c-0.15-0.29-0.76-0.33-0.83-0.48c-0.08-0.15-0.48-0.65-0.53-0.97c-0.03-0.33,0.13-0.58-0.02-0.89c-0.15-0.29-0.92-0.35-1.68,0.23
	c-0.1-0.13,0.17-0.62,0.08-0.83c-0.09-0.21-0.31-0.39-0.43-0.68c-0.13-0.29-0.64-0.17-0.71,0.08c-0.08,0.23-0.42,1.1-0.93,1.62
	c-0.52,0.53-2.39,2.62-2.97,4.02c-0.23-0.06-0.89,0.04-1.07-0.41c-0.19-0.45-0.57-1.41-0.77-1.78c-0.06-0.23-0.24-0.56-0.31-0.76
	c-0.08-0.19-0.16-0.61-0.25-0.67c-0.09-0.07-0.07-0.44-0.14-0.53c-0.07-0.1-0.18-0.29-0.19-0.41c-0.01-0.12-0.28-0.48-0.42-0.58
	c-0.07-0.19-0.06-0.4-0.25-0.66c-0.06-0.38-0.3-0.57-0.43-0.76c0.08-0.29-0.2-0.94-0.91-1.41c-0.09-0.15,0.04-0.16,0.18-0.21
	c0.13-0.07,0.24-0.22,0.11-0.5c-0.15-0.26-0.28-0.42-0.31-0.63c-0.04-0.21-0.23-0.72-0.39-0.96c-0.04-0.2-0.18-0.49-0.31-0.66
	c-0.07-0.24-0.06-0.36,0.04-0.5c0.09-0.14-0.07-0.6-0.25-0.85c-0.01-0.13,0.16-0.36,0.08-0.55c-0.09-0.2-0.68-0.59-0.74-0.73
	c-0.03-0.11-0.03-0.65,0.21-0.9c0.23-0.26,0-0.9-0.11-1.2c-0.02-0.52,0.2-1.02-0.05-1.59c0.06-0.46,0.16-1.2-0.08-1.55
	c0.04-0.35,0.2-1.16-0.1-1.91c0.2-0.43,0.27-1.46,0.09-2.03c0.07-0.65,0.21-1.48,0.11-1.7c-0.1-0.23-0.44-0.06-0.28-0.35
	c0.14-0.3,0.62-0.69,0.53-0.94c-0.1-0.24-0.6-0.29-0.48-0.5c0.11-0.23,0.57-0.77,0.47-1.03c-0.09-0.28-0.9,0.08-0.75-0.18
	c0.14-0.28,0.61-0.43,0.54-0.68c-0.07-0.26-0.73-0.06-0.75-0.27c-0.02-0.21-0.46,0.14-0.68,0.27c-1.82,1.26-5.19,3.97-7.11,12.07
	c-0.08-0.01-0.14-0.27-0.23-0.27c-0.07,0-0.26,0.43-0.36,1.07c-0.09,0.64-0.03,3.45,0.03,3.95c0.07,0.49,0.29,0.79,0.49,1.06
	c0.2,0.28,2.09,3.79,2.6,5.04C89.28,207.61,90.33,209.59,90.2,211.11z"/>
<path d="M127.35,29.19c0.63-0.18,0.83-1.3,0.99-2.57c0.17-1.27,1.07-7.57,1.93-8.64c0.85-1.06,1.78-1.79,6.37-2.36
	c0.31-0.12,0.62-0.7,0.81-1.19c0.18-0.48,0.92-0.66,1.27,0.29c0.35,0.94,0.14,1.6,0.42,2.25c0.27,0.65,1.19,0.83,0.84,2.14
	c0.07,0.8,0.28,2.8,3.16,5.27c0.58,0.47,3.55,1.37,6.5,0.64c2.95-0.73,13.36-5.37,20.29-9.28c6.93-3.92,14.08-8.09,17.95-11.24
	c0.14-0.15,1.97-0.53,5.25-1.5c3.27-0.97,9.28-3.32,17.54-2.95c0.28,0.1,0.38,0.67,0.38,0.67c5.43-0.63,17.33-1.29,32.36,0.32
	c15.03,1.62,23.03,5.72,30.61,8.99c0.48,0.34-1.45,1.04-0.78,1.41c0.66,0.37,0.21,1.04-0.6,0.88c-0.81-0.16-5.66-0.7-5.06,0.12
	c0.61,0.81,3.46,2.6,1.01,2.22c-2.45-0.38-6.23-0.89-5.48,0.62c0.32,0.72-0.09,0.67-1.6,0.46c-1.52-0.2-5.42-0.32-4.78,0.72
	c0.63,1.04-0.22,1.2-1.44,0.98c-1.22-0.21-5.66-0.3-5.39,0.41c0.26,0.71-0.08,1.06-1.15,1.08c-1.07,0.02-6.52,0.43-6.57,0.81
	c-0.06,0.39,0.52,1.42-2.31,1.72c-2.83,0.29-4.68,0.45-4.68,0.45c-0.08,0.55,0.18,1.71-1.41,1.66c-1.6-0.04-5.79-0.21-5.81,0.41
	c-0.03,0.61-0.52,1.62-2.02,1.36c-1.51-0.26-4.43-0.2-4.52,0.13c-0.11,0.32,0.01,1.69-1.86,1.44c-1.86-0.25-2.96-0.06-4,0.19
	c-1.05,0.26-3.47,0.67-3.77,0.62c-0.43,1.46-0.56,2.86-1.63,2.43c-0.5-0.24-0.69-1.05-0.69-1.05c-0.59,0.43-1.67,0.91-1.87,1.15
	c-0.22,0.26,0.13,2.1-1.64,1.98c-1.76-0.12-2.08-0.39-2.33,0.65c-0.8,1.97-2.85-0.04-3.34,1.02c-0.5,1.06-1.42,1.28-3,1.12
	c-1.12-0.04-0.4,1.69-1.85,1.84c-1.44,0.14-1-0.13-1.53-0.09c-0.75,0.3-1.79,1.4-2.92,1.86c-1.13,0.47-2.99,1.52-4.27,2.19
	c-1.27,0.68-7.75,3.81-9.7,4.68c-1.96,0.86-1.91,1.43-2.63,1.5c-0.72,0.07-1.34,0.22-2.53,0.74c-1.2,0.52-1.88,0.26-2.29,0.65
	c-0.41,0.4-0.75,1.19-2.66,1.28c-0.59,0.42-1.14,1.42-1.96,1.37c-0.37-0.33-0.66-0.37-1.27,0.17c-0.61,0.54-0.78-0.45-1.64,0.28
	c-0.87,0.73-1.49,0.47-1.88,1.16c-0.39,0.68-1.3,2.19-1.9,2.73c0.35,0.44,3.58,0.75,9.06,2.39c5.48,1.63,7.44,2.07,8.37,2.24
	c0.92,0.18,1.02,0.81,1.37,0.86c0.35,0.05,2.98-0.51,3.73,0.5c0.76,0.99-0.97,1.44-1.65,2.14c-0.68,0.71-2.48,0.4-2.53,0.73
	c-0.04,0.34,2.11,1.58,3.04,2.55c0.13,0.41,0.61,1.71-1.63,2.49c-2.24,0.77-2.09,1.01-1.35,3.03c0.33,1.06,0.14,1.59-1.46,2.05
	c-1.6,0.46-3.35,1.13-2.8,2.78c0.15,0.64-0.65,1.32-1.72,1.74c-1.06,0.43-3.11,0.66-3.34,1.47c-0.22,0.81,0.1,1.87-1.25,2.2
	c-1.35,0.33-1.46,0.77-2.48,0.35c-1.01-0.42-4.16-2.59-5.73-5.11c-1.57-2.52-2.12-2.36-2.64-2.04c-0.52,0.33-0.75,2.49-0.32,4.18
	c0.42,1.69,0.03,5.14-0.2,6.4c-0.24,1.27-1.19,2.21-2.22,1.96c-1.04-0.25-2.14-0.45-2.68-0.36c-0.54,0.1-2.34,1.04-3.09,0.94
	c-0.75-0.1-2.5-1.74-3.15-1.77c-0.65-0.03-3.28,0.97-4.03,0.87c-1.87-0.25-1.87-2.49-2.44-2.63c-0.57-0.13-0.9,0.5-1.88,0.26
	c-0.97-0.25-1.51-2.01-2.03-2.13c-0.52-0.12-2.3-1.04-3.31-0.95c-1.02,0.09-1.7,0.73-2.74,0.48c-1.03-0.25-1.69-2.47-0.45-5.08
	c-0.5-0.23-1.78,0.89-2.47,0.74c-0.69-0.15-1.4-0.64-2.38-0.82c-0.98-0.19-0.95-1.76-0.25-2.11c0.7-0.36,3.04-1.91,4.3-3.76
	c1.26-1.86,6.32-8.67,10.22-11.25c-0.38-0.67-0.48-2.65-1.99-2.92c-1.51-0.25-4.7-0.79-5.96-1.13c-0.76-0.05-1.91-0.37-2.54-0.46
	c-0.65-0.08-1.95-0.09-2.22-0.29c-0.27-0.21-1.37,0.04-1.71-0.11c-0.33-0.16-1.02-0.36-1.38-0.3c-0.36,0.07-1.65-0.5-2.09-0.84
	c-0.64-0.09-1.25,0.06-2.15-0.35c-1.2,0.06-1.94-0.54-2.62-0.8c-0.82,0.39-3.03-0.01-4.92-1.79c-0.51-0.18-0.45,0.23-0.51,0.67
	c-0.12,0.44-0.53,0.84-1.44,0.59c-0.92-0.23-1.47-0.54-2.13-0.5c-0.65,0.02-2.4-0.21-3.2-0.49c-0.64-0.03-1.62-0.27-2.25-0.52
	c-0.77-0.04-1.13,0.07-1.48,0.42c-0.34,0.35-1.86,0.2-2.76-0.2c-0.42,0.05-0.98,0.71-1.62,0.57c-0.64-0.14-2.27-1.66-2.68-1.71
	c-0.41-0.05-2.07,0.34-2.65,1.17c-0.58,0.83-2.75,0.6-3.74,0.41c-1.58,0.3-2.95,1.24-4.86,0.87c-1.38,0.49-3.55,1.22-4.79,0.76
	c-1.06,0.31-3.38,1.3-5.88,0.91c-1.18,0.85-4.26,1.68-6.14,1.49c-1.92,0.64-4.36,1.56-5.11,1.4c-0.75-0.15-0.48-1.24-1.28-0.62
	c-0.79,0.62-1.67,2.26-2.48,2.15c-0.81-0.11-1.27-1.58-1.88-1.09c-0.6,0.48-1.95,2.16-2.82,2.04c-0.88-0.11-0.36-2.69-1.08-2.11
	c-0.73,0.57-0.87,2.08-1.7,2.03c-0.83-0.05-0.67-2.11-1.33-2.04c-0.67,0.08,0.13-1.45,0.35-2.15c2.59-6.13,8.53-17.73,31.93-28.51
	c-0.09-0.24-0.92-0.23-0.95-0.46c-0.03-0.23,1.15-1.08,3.02-1.74c1.87-0.65,10.51-2.26,12.07-2.39c1.56-0.13,2.63,0.35,3.58,0.76
	c0.96,0.41,12.96,3.76,17.14,4.49C116.03,28.63,122.84,30.5,127.35,29.19z"/>
<path d="M164.35,158.24c0.11-0.09,0.05-0.3-0.02-0.54c-0.08-0.24-0.46-1.42-0.38-1.69c0.08-0.27,0.21-0.48,1.12-1.03
	c0.06-0.05,0.07-0.18,0.06-0.28c0-0.1,0.13-0.21,0.29-0.07c0.16,0.13,0.17,0.26,0.29,0.35c0.12,0.09,0.33,0.03,0.37,0.29
	c0.09,0.13,0.31,0.46,1.14,0.61c0.17,0.02,0.87-0.11,1.42-0.52c0.55-0.42,2.31-2.23,3.4-3.59c1.1-1.36,2.22-2.78,2.74-3.7
	c0.01-0.04,0.36-0.28,0.96-0.77c0.6-0.49,1.64-1.48,3.41-2.22c0.07-0.01,0.14,0.08,0.14,0.08c1.08-0.64,3.51-1.91,6.81-3.1
	c3.29-1.18,5.34-1.25,7.22-1.42c0.13,0.02-0.21,0.33-0.03,0.32c0.17,0,0.14,0.16-0.04,0.21c-0.19,0.05-1.25,0.43-1.05,0.51
	c0.2,0.08,0.96,0.12,0.41,0.29c-0.54,0.17-1.38,0.45-1.09,0.64c0.13,0.09,0.04,0.12-0.3,0.24c-0.33,0.11-1.16,0.47-0.94,0.59
	c0.23,0.12,0.06,0.23-0.21,0.31c-0.27,0.08-1.21,0.5-1.09,0.59c0.12,0.1,0.08,0.19-0.14,0.3c-0.22,0.11-1.33,0.71-1.3,0.78
	c0.03,0.07,0.24,0.2-0.33,0.53c-0.57,0.33-0.94,0.53-0.94,0.53c0.04,0.1,0.19,0.28-0.14,0.43c-0.34,0.15-1.23,0.53-1.18,0.64
	c0.05,0.11,0.04,0.33-0.3,0.43c-0.34,0.1-0.94,0.4-0.93,0.46c0.01,0.07,0.15,0.29-0.26,0.43c-0.41,0.14-0.62,0.28-0.82,0.43
	c-0.2,0.15-0.67,0.45-0.73,0.47c0.04,0.3,0.14,0.55-0.12,0.58c-0.12,0.01-0.24-0.12-0.24-0.12c-0.09,0.13-0.27,0.32-0.29,0.38
	c-0.02,0.07,0.22,0.35-0.16,0.5c-0.38,0.15-0.47,0.13-0.43,0.34c0.01,0.42-0.6,0.27-0.6,0.5c-0.01,0.23-0.18,0.36-0.53,0.49
	c-0.24,0.1,0.07,0.33-0.22,0.5c-0.29,0.16-0.22,0.07-0.33,0.13c-0.13,0.13-0.25,0.42-0.44,0.61c-0.19,0.19-0.49,0.56-0.69,0.8
	c-0.2,0.24-1.28,1.42-1.6,1.75c-0.33,0.34-0.27,0.44-0.42,0.52c-0.15,0.08-0.26,0.16-0.47,0.37c-0.2,0.21-0.37,0.23-0.42,0.34
	c-0.05,0.11-0.05,0.28-0.44,0.48c-0.09,0.13-0.11,0.36-0.28,0.43c-0.11-0.02-0.17,0-0.25,0.15c-0.08,0.15-0.2,0-0.32,0.21
	c-0.12,0.21-0.27,0.23-0.29,0.38c-0.02,0.16-0.08,0.51-0.15,0.66c0.12,0.04,0.82-0.22,2.11-0.47c1.29-0.25,1.74-0.36,1.95-0.42
	c0.21-0.06,0.29,0.04,0.36,0.01c0.08-0.03,0.58-0.38,0.83-0.27c0.25,0.1-0.07,0.34-0.15,0.53c-0.08,0.19-0.49,0.31-0.46,0.37
	c0.02,0.06,0.59,0.07,0.87,0.15c0.06,0.06,0.28,0.24-0.12,0.59c-0.4,0.35-0.34,0.38,0,0.66c0.16,0.15,0.17,0.27-0.12,0.5
	c-0.3,0.23-0.6,0.52-0.33,0.76c0.09,0.09-0.02,0.29-0.2,0.47c-0.19,0.18-0.59,0.42-0.57,0.58c0.03,0.17,0.19,0.32-0.06,0.5
	c-0.25,0.19-0.23,0.28-0.48,0.3c-0.25,0.03-1.11-0.05-1.66-0.33c-0.56-0.29-0.65-0.21-0.74-0.1c-0.08,0.11,0.07,0.51,0.31,0.76
	c0.24,0.25,0.47,0.89,0.54,1.13c0.07,0.24-0.05,0.5-0.29,0.56c-0.24,0.06-0.49,0.13-0.6,0.2c-0.11,0.07-0.39,0.41-0.56,0.47
	c-0.17,0.05-0.68-0.06-0.82-0.01c-0.14,0.06-0.6,0.49-0.76,0.55c-0.42,0.14-0.62-0.25-0.75-0.22c-0.14,0.04-0.14,0.18-0.37,0.23
	c-0.22,0.05-0.5-0.2-0.62-0.17c-0.12,0.03-0.57,0.04-0.78,0.16c-0.2,0.11-0.29,0.29-0.53,0.35c-0.24,0.06-0.58-0.27-0.55-0.84
	c-0.13,0.01-0.29,0.33-0.45,0.37c-0.15,0.04-0.35,0.03-0.57,0.09c-0.22,0.06-0.36-0.21-0.24-0.35c0.11-0.13,0.46-0.63,0.56-1.07
	c0.1-0.45,0.54-2.12,1.12-2.95c-0.14-0.08-0.34-0.41-0.68-0.31c-0.34,0.1-1.06,0.32-1.35,0.38c-0.17,0.06-0.43,0.12-0.58,0.17
	c-0.14,0.05-0.42,0.17-0.49,0.16c-0.08-0.01-0.28,0.14-0.37,0.15c-0.08,0-0.25,0.04-0.31,0.08c-0.07,0.04-0.39,0.07-0.51,0.06
	c-0.14,0.05-0.26,0.13-0.48,0.15c-0.24,0.13-0.46,0.1-0.62,0.12c-0.14,0.15-0.63,0.29-1.19,0.17c-0.12,0.02-0.08,0.08-0.05,0.16
	c0.02,0.09-0.04,0.2-0.25,0.24c-0.21,0.05-0.36,0.05-0.49,0.12c-0.13,0.07-0.52,0.2-0.71,0.22c-0.14,0.06-0.36,0.11-0.52,0.13
	c-0.17,0.07-0.23,0.12-0.27,0.22c-0.04,0.09-0.37,0.22-0.6,0.23c-0.08,0.05-0.14,0.22-0.29,0.26c-0.14,0.04-0.62-0.07-0.71-0.04
	c-0.09,0.03-0.4,0.26-0.45,0.46c-0.05,0.2-0.52,0.37-0.75,0.44c-0.31,0.2-0.51,0.5-0.94,0.62c-0.24,0.22-0.63,0.56-0.93,0.6
	c-0.2,0.16-0.59,0.56-1.15,0.73c-0.17,0.26-0.74,0.71-1.15,0.86c-0.34,0.3-0.77,0.7-0.94,0.74c-0.17,0.05-0.21-0.17-0.32,0.02
	c-0.11,0.19-0.14,0.55-0.32,0.62c-0.19,0.06-0.41-0.15-0.5-0.01c-0.08,0.14-0.21,0.57-0.41,0.63c-0.19,0.06-0.32-0.43-0.42-0.26
	c-0.1,0.17,0,0.45-0.17,0.52c-0.18,0.07-0.33-0.3-0.46-0.22c-0.13,0.08-0.1-0.26-0.12-0.41c-0.01-1.32,0.18-3.92,4.1-8.07
	c-0.04-0.04-0.21,0.05-0.24,0.01c-0.03-0.04,0.14-0.3,0.48-0.6c0.33-0.3,1.99-1.42,2.31-1.59c0.32-0.17,0.58-0.19,0.82-0.22
	c0.23-0.02,3.05-0.61,3.99-0.89C161.93,159.25,163.53,158.91,164.35,158.24z"/>
<path d="M184.65,111.24c0.08-0.03,0.08-0.16,0.07-0.3c0-0.14-0.03-0.83,0.06-0.96c0.09-0.13,0.19-0.23,0.76-0.38
	c0.03-0.02,0.06-0.08,0.08-0.14c0.01-0.06,0.1-0.09,0.17,0c0.07,0.09,0.05,0.17,0.1,0.23c0.05,0.07,0.17,0.07,0.15,0.21
	c0.03,0.08,0.1,0.29,0.51,0.5c0.08,0.04,0.48,0.08,0.84-0.06c0.36-0.14,1.58-0.83,2.37-1.39c0.79-0.55,1.61-1.14,2.04-1.55
	c0.01-0.02,0.23-0.1,0.63-0.26c0.39-0.17,1.1-0.54,2.16-0.66c0.03,0.01,0.06,0.07,0.06,0.07c0.67-0.17,2.17-0.47,4.11-0.6
	c1.94-0.12,3.04,0.16,4.07,0.36c0.07,0.03-0.16,0.14-0.07,0.16c0.09,0.03,0.05,0.11-0.05,0.11c-0.11,0-0.74,0.04-0.64,0.11
	c0.1,0.08,0.49,0.21,0.17,0.21c-0.31,0.01-0.8,0.03-0.68,0.18c0.06,0.07,0,0.07-0.2,0.08c-0.2,0.01-0.69,0.07-0.59,0.17
	c0.1,0.1-0.01,0.13-0.17,0.13c-0.16,0-0.72,0.08-0.68,0.15c0.05,0.07,0.01,0.12-0.12,0.14c-0.14,0.03-0.82,0.17-0.82,0.22
	c0.01,0.04,0.1,0.15-0.25,0.23c-0.35,0.09-0.58,0.14-0.58,0.14c0.01,0.06,0.06,0.18-0.14,0.2c-0.21,0.03-0.74,0.09-0.73,0.16
	c0.01,0.06-0.03,0.18-0.23,0.19c-0.2,0-0.57,0.06-0.57,0.1c0,0.04,0.04,0.18-0.2,0.19c-0.25,0.01-0.38,0.05-0.5,0.1
	c-0.13,0.04-0.42,0.14-0.46,0.14c-0.02,0.16-0.01,0.32-0.16,0.29c-0.06-0.01-0.1-0.09-0.1-0.09c-0.07,0.06-0.19,0.13-0.21,0.16
	c-0.02,0.03,0.06,0.22-0.17,0.24c-0.23,0.03-0.28,0-0.28,0.11c-0.06,0.23-0.36,0.05-0.4,0.18c-0.05,0.12-0.16,0.17-0.36,0.18
	c-0.15,0.02-0.02,0.19-0.2,0.23c-0.18,0.04-0.13,0-0.2,0.02c-0.09,0.05-0.19,0.19-0.33,0.25c-0.13,0.08-0.35,0.22-0.49,0.32
	c-0.15,0.1-0.9,0.56-1.13,0.69c-0.23,0.13-0.21,0.19-0.31,0.21c-0.09,0.03-0.16,0.05-0.3,0.13c-0.14,0.08-0.24,0.06-0.28,0.12
	c-0.04,0.05-0.07,0.14-0.31,0.19c-0.07,0.06-0.11,0.17-0.22,0.19c-0.06-0.03-0.09-0.03-0.16,0.04c-0.06,0.07-0.11-0.03-0.2,0.06
	c-0.1,0.09-0.18,0.08-0.21,0.16c-0.03,0.08-0.12,0.26-0.18,0.33c0.05,0.04,0.47,0.01,1.2,0.08c0.73,0.07,0.99,0.08,1.11,0.08
	c0.12,0,0.15,0.06,0.19,0.06c0.05,0,0.37-0.11,0.49-0.02c0.12,0.09-0.09,0.18-0.16,0.26c-0.08,0.09-0.31,0.09-0.31,0.13
	c0,0.03,0.3,0.12,0.44,0.21c0.03,0.04,0.12,0.17-0.15,0.29c-0.27,0.12-0.24,0.15-0.11,0.35c0.07,0.11,0.05,0.17-0.15,0.26
	c-0.19,0.08-0.39,0.18-0.29,0.35c0.03,0.07-0.05,0.16-0.18,0.22c-0.13,0.06-0.39,0.13-0.4,0.22c-0.01,0.09,0.05,0.2-0.11,0.26
	c-0.16,0.06-0.17,0.11-0.3,0.09c-0.14-0.03-0.58-0.2-0.83-0.44c-0.25-0.24-0.32-0.21-0.38-0.17c-0.06,0.05-0.04,0.28,0.05,0.45
	c0.09,0.17,0.12,0.55,0.11,0.69c0,0.14-0.1,0.26-0.23,0.26c-0.14-0.01-0.28-0.01-0.35,0.01c-0.07,0.02-0.28,0.16-0.37,0.16
	s-0.35-0.13-0.43-0.12c-0.08,0.01-0.4,0.17-0.49,0.17c-0.24,0.01-0.29-0.23-0.37-0.24c-0.08,0-0.11,0.08-0.24,0.07
	s-0.23-0.19-0.3-0.19c-0.07,0-0.31-0.07-0.44-0.04c-0.13,0.03-0.2,0.12-0.34,0.11c-0.13-0.01-0.26-0.23-0.16-0.54
	c-0.07-0.02-0.21,0.13-0.3,0.13c-0.08,0-0.19-0.04-0.32-0.04c-0.13,0-0.16-0.17-0.08-0.22c0.08-0.05,0.34-0.26,0.47-0.49
	c0.11-0.22,0.61-1.05,1.05-1.4c-0.06-0.06-0.12-0.27-0.31-0.27c-0.19,0-0.61,0-0.77,0c-0.1,0.01-0.25,0-0.34,0
	c-0.08,0-0.24,0.03-0.28,0.01c-0.04-0.02-0.17,0.03-0.22,0.02c-0.05-0.01-0.14-0.02-0.18,0c-0.04,0.01-0.22-0.02-0.28-0.05
	c-0.08,0.01-0.15,0.03-0.28,0.01c-0.15,0.03-0.26-0.02-0.35-0.04c-0.1,0.06-0.39,0.06-0.67-0.1c-0.07-0.01-0.05,0.03-0.04,0.08
	c-0.01,0.05-0.05,0.09-0.17,0.09c-0.12-0.01-0.2-0.03-0.28-0.01c-0.08,0.01-0.31,0.02-0.41,0.01c-0.08,0.01-0.21,0-0.3-0.01
	c-0.09,0.01-0.14,0.03-0.17,0.07c-0.03,0.05-0.23,0.06-0.35,0.03c-0.05,0.01-0.11,0.09-0.19,0.09c-0.09,0-0.33-0.13-0.38-0.13
	c-0.05,0-0.26,0.08-0.31,0.18c-0.06,0.1-0.33,0.12-0.46,0.12c-0.2,0.06-0.35,0.19-0.6,0.19c-0.16,0.07-0.42,0.2-0.59,0.17
	c-0.13,0.05-0.4,0.21-0.72,0.21c-0.13,0.12-0.5,0.27-0.75,0.29c-0.23,0.1-0.52,0.25-0.62,0.25c-0.1,0-0.09-0.12-0.18-0.04
	c-0.09,0.08-0.16,0.27-0.27,0.28c-0.1,0-0.19-0.15-0.26-0.08c-0.06,0.06-0.2,0.27-0.31,0.27c-0.12,0-0.1-0.28-0.18-0.21
	c-0.08,0.08-0.07,0.24-0.17,0.25c-0.11,0.01-0.13-0.21-0.22-0.19c-0.08,0.02-0.01-0.15,0-0.23c0.2-0.71,0.71-2.06,3.44-3.68
	c-0.02-0.03-0.12-0.01-0.13-0.03c-0.01-0.02,0.12-0.14,0.35-0.25c0.22-0.1,1.28-0.45,1.48-0.49c0.2-0.04,0.34-0.01,0.47,0.01
	c0.12,0.03,1.72,0.15,2.27,0.14C183.2,111.4,184.11,111.47,184.65,111.24z"/>
<path d="M205.86,76.34c0.07-0.09,0-0.26-0.1-0.43c-0.1-0.18-0.58-1.06-0.55-1.28c0.02-0.23,0.09-0.42,0.73-0.99
	c0.04-0.05,0.03-0.16,0.01-0.23c-0.02-0.09,0.08-0.19,0.22-0.11c0.15,0.08,0.18,0.18,0.28,0.24c0.11,0.05,0.27-0.03,0.34,0.18
	c0.09,0.09,0.31,0.31,0.99,0.31c0.14,0,0.67-0.21,1.05-0.62c0.38-0.41,1.5-2.12,2.17-3.36c0.67-1.24,1.35-2.54,1.62-3.35
	c0.01-0.03,0.24-0.28,0.65-0.75c0.4-0.48,1.08-1.42,2.38-2.27c0.05-0.02,0.12,0.04,0.12,0.04c0.76-0.67,2.51-2.04,4.94-3.47
	c2.44-1.43,4.05-1.79,5.52-2.2c0.11-0.02-0.11,0.29,0.02,0.26c0.14-0.03,0.13,0.11,0,0.18c-0.13,0.06-0.93,0.53-0.75,0.56
	c0.17,0.04,0.78-0.04,0.37,0.17c-0.41,0.22-1.03,0.56-0.77,0.67c0.12,0.06,0.05,0.09-0.2,0.24c-0.25,0.13-0.85,0.55-0.65,0.6
	c0.2,0.06,0.08,0.17-0.12,0.28c-0.21,0.11-0.89,0.58-0.78,0.64c0.11,0.06,0.09,0.14-0.06,0.26c-0.17,0.12-0.96,0.76-0.92,0.82
	c0.03,0.05,0.22,0.12-0.18,0.46c-0.4,0.34-0.67,0.57-0.67,0.57c0.05,0.08,0.2,0.19-0.05,0.36c-0.25,0.17-0.89,0.6-0.84,0.68
	c0.06,0.09,0.08,0.26-0.17,0.4c-0.26,0.13-0.69,0.45-0.68,0.5c0.01,0.05,0.17,0.21-0.14,0.38c-0.31,0.17-0.46,0.32-0.59,0.46
	c-0.13,0.15-0.46,0.46-0.51,0.49c0.08,0.23,0.19,0.42-0.01,0.48c-0.1,0.02-0.21-0.06-0.21-0.06c-0.05,0.12-0.17,0.29-0.17,0.35
	c-0.01,0.05,0.23,0.24-0.06,0.42c-0.28,0.18-0.35,0.18-0.29,0.33c0.08,0.33-0.43,0.31-0.4,0.49c0.02,0.18-0.09,0.31-0.34,0.46
	c-0.18,0.12,0.1,0.26-0.11,0.43c-0.2,0.17-0.17,0.09-0.24,0.16c-0.09,0.11-0.14,0.36-0.26,0.55c-0.13,0.18-0.31,0.51-0.43,0.73
	c-0.13,0.22-0.81,1.32-1.02,1.64c-0.21,0.32-0.15,0.39-0.25,0.47c-0.1,0.09-0.18,0.18-0.31,0.36c-0.13,0.2-0.26,0.24-0.28,0.33
	c-0.03,0.1,0,0.23-0.28,0.44c-0.05,0.12-0.03,0.3-0.17,0.39c-0.09-0.01-0.13,0.03-0.18,0.16c-0.03,0.13-0.16,0.02-0.22,0.21
	c-0.06,0.18-0.18,0.22-0.17,0.35c0.01,0.13,0.02,0.42-0.02,0.55c0.09,0.01,0.61-0.3,1.61-0.68c0.99-0.39,1.33-0.55,1.48-0.63
	c0.16-0.08,0.24-0.01,0.29-0.04c0.06-0.03,0.4-0.39,0.62-0.34c0.21,0.04-0.01,0.28-0.04,0.45c-0.04,0.16-0.34,0.32-0.31,0.36
	c0.03,0.04,0.48-0.03,0.71-0.01c0.06,0.03,0.26,0.14-0.01,0.48c-0.26,0.34-0.22,0.36,0.09,0.53c0.16,0.1,0.18,0.18-0.02,0.41
	c-0.2,0.23-0.4,0.5-0.15,0.65c0.08,0.06,0.03,0.23-0.09,0.4c-0.12,0.17-0.41,0.42-0.36,0.54c0.04,0.14,0.19,0.22,0.02,0.41
	c-0.17,0.18-0.14,0.26-0.34,0.31c-0.2,0.05-0.88,0.13-1.37-0.01c-0.49-0.15-0.56-0.06-0.6,0.03c-0.05,0.09,0.13,0.38,0.36,0.55
	c0.23,0.17,0.5,0.64,0.59,0.82c0.09,0.18,0.04,0.41-0.15,0.49c-0.18,0.08-0.36,0.17-0.43,0.24c-0.08,0.07-0.26,0.38-0.38,0.46
	c-0.13,0.06-0.55,0.05-0.65,0.11c-0.1,0.07-0.4,0.48-0.52,0.55c-0.31,0.17-0.52-0.11-0.63-0.07c-0.1,0.05-0.09,0.16-0.26,0.24
	c-0.17,0.08-0.42-0.08-0.51-0.05c-0.09,0.04-0.44,0.12-0.59,0.24c-0.15,0.12-0.19,0.28-0.37,0.36c-0.18,0.08-0.5-0.13-0.57-0.58
	c-0.1,0.02-0.18,0.3-0.3,0.36c-0.12,0.05-0.27,0.07-0.44,0.15c-0.17,0.08-0.31-0.12-0.24-0.24c0.07-0.12,0.27-0.57,0.28-0.93
	c0.01-0.37,0.11-1.77,0.45-2.52c-0.12-0.04-0.33-0.28-0.59-0.14c-0.26,0.13-0.79,0.41-1.01,0.5c-0.12,0.08-0.33,0.16-0.43,0.22
	c-0.11,0.06-0.3,0.2-0.37,0.2c-0.06,0-0.2,0.16-0.27,0.17c-0.07,0.01-0.18,0.06-0.24,0.11c-0.04,0.05-0.3,0.11-0.4,0.12
	c-0.11,0.06-0.18,0.14-0.36,0.19c-0.17,0.14-0.34,0.15-0.47,0.19c-0.09,0.14-0.46,0.33-0.92,0.31c-0.09,0.04-0.04,0.08-0.02,0.13
	c0.03,0.07,0.01,0.17-0.16,0.23c-0.16,0.07-0.28,0.09-0.37,0.17c-0.1,0.07-0.38,0.23-0.54,0.29c-0.09,0.07-0.27,0.14-0.38,0.18
	c-0.12,0.08-0.17,0.13-0.18,0.21c-0.02,0.08-0.27,0.23-0.44,0.28c-0.06,0.05-0.08,0.2-0.19,0.25c-0.11,0.05-0.51,0.04-0.58,0.08
	c-0.07,0.04-0.28,0.26-0.29,0.43c-0.01,0.16-0.36,0.38-0.52,0.46c-0.22,0.21-0.33,0.47-0.66,0.64c-0.15,0.21-0.41,0.53-0.65,0.61
	c-0.13,0.15-0.39,0.53-0.8,0.75c-0.09,0.23-0.48,0.67-0.78,0.85c-0.23,0.29-0.51,0.67-0.64,0.73c-0.12,0.06-0.19-0.11-0.26,0.06
	c-0.05,0.16-0.03,0.46-0.16,0.53c-0.13,0.08-0.35-0.06-0.39,0.07c-0.04,0.12-0.08,0.48-0.23,0.56c-0.15,0.08-0.32-0.29-0.38-0.14
	c-0.05,0.15,0.08,0.35-0.05,0.44c-0.14,0.08-0.31-0.19-0.4-0.11c-0.09,0.08-0.12-0.19-0.16-0.31c-0.21-1.04-0.43-3.13,2.06-7.01
	c-0.04-0.02-0.16,0.07-0.19,0.04c-0.02-0.02,0.07-0.26,0.29-0.54c0.22-0.28,1.37-1.42,1.6-1.61c0.22-0.18,0.43-0.23,0.61-0.29
	c0.18-0.05,2.34-0.93,3.04-1.3C204.09,77.5,205.31,76.99,205.86,76.34z"/>
<path d="M119.84,110.17c0.2-0.02,0.29-0.31,0.38-0.64c0.09-0.33,0.55-1.97,0.85-2.21c0.3-0.24,0.61-0.39,2.07-0.33
	c0.1-0.02,0.21-0.16,0.29-0.28c0.07-0.12,0.3-0.13,0.38,0.14c0.08,0.27,0.01,0.43,0.07,0.62c0.06,0.19,0.35,0.28,0.2,0.62
	c0,0.21,0,0.76,0.83,1.55c0.17,0.16,1.07,0.54,2.01,0.48c0.94-0.05,4.33-0.79,6.6-1.5c2.29-0.71,4.64-1.48,5.93-2.13
	c0.05-0.03,0.63-0.05,1.69-0.14c1.04-0.11,2.99-0.45,5.56,0.06c0.08,0.04,0.1,0.19,0.1,0.19c1.72,0.1,5.45,0.5,10.1,1.65
	c4.64,1.15,7.02,2.64,9.3,3.87c0.14,0.12-0.49,0.21-0.28,0.34c0.19,0.14,0.03,0.29-0.22,0.21c-0.25-0.08-1.75-0.46-1.58-0.21
	c0.16,0.24,1,0.86,0.25,0.64c-0.75-0.22-1.91-0.53-1.73-0.1c0.08,0.21-0.05,0.18-0.52,0.05c-0.46-0.13-1.69-0.35-1.51-0.04
	c0.16,0.31-0.11,0.31-0.48,0.19c-0.38-0.11-1.75-0.35-1.7-0.15c0.06,0.2-0.06,0.28-0.39,0.24c-0.34-0.05-2.05-0.2-2.08-0.1
	c-0.02,0.1,0.12,0.4-0.77,0.35c-0.89-0.06-1.48-0.11-1.48-0.11c-0.04,0.14,0.01,0.47-0.49,0.38c-0.5-0.08-1.8-0.33-1.83-0.17
	c-0.03,0.17-0.2,0.41-0.67,0.27c-0.47-0.14-1.38-0.27-1.42-0.19c-0.04,0.08-0.04,0.45-0.63,0.3c-0.57-0.16-0.92-0.16-1.25-0.14
	c-0.33,0.02-1.1,0.01-1.19-0.01c-0.17,0.37-0.26,0.74-0.58,0.57c-0.14-0.09-0.18-0.32-0.18-0.32c-0.2,0.09-0.55,0.16-0.62,0.22
	c-0.07,0.06-0.01,0.57-0.57,0.45c-0.54-0.12-0.63-0.21-0.74,0.05c-0.31,0.49-0.88-0.14-1.07,0.12c-0.19,0.26-0.48,0.27-0.97,0.15
	c-0.35-0.07-0.17,0.43-0.63,0.41c-0.45-0.04-0.31-0.09-0.47-0.1c-0.25,0.04-0.6,0.28-0.97,0.35c-0.37,0.07-0.98,0.27-1.39,0.38
	c-0.42,0.12-2.53,0.65-3.17,0.78c-0.63,0.13-0.64,0.29-0.87,0.28c-0.23-0.02-0.43-0.01-0.81,0.07c-0.39,0.08-0.6-0.02-0.73,0.06
	c-0.14,0.08-0.27,0.28-0.87,0.21c-0.19,0.09-0.4,0.33-0.65,0.27c-0.11-0.1-0.2-0.13-0.41-0.01c-0.2,0.11-0.22-0.16-0.52,0
	c-0.29,0.15-0.47,0.05-0.62,0.22c-0.14,0.16-0.47,0.52-0.67,0.64c0.1,0.13,1.09,0.37,2.75,1.07c1.67,0.71,2.26,0.91,2.55,1
	c0.28,0.09,0.29,0.27,0.4,0.29c0.11,0.03,0.95,0.01,1.16,0.31c0.2,0.3-0.35,0.34-0.58,0.5c-0.23,0.15-0.79-0.02-0.8,0.07
	c-0.02,0.09,0.61,0.52,0.87,0.83c0.03,0.12,0.13,0.48-0.59,0.58c-0.72,0.09-0.68,0.17-0.5,0.74c0.07,0.3,0,0.44-0.52,0.48
	c-0.51,0.04-1.08,0.14-0.96,0.6c0.03,0.18-0.23,0.32-0.58,0.38c-0.35,0.06-1,0.02-1.09,0.23c-0.1,0.21-0.02,0.5-0.46,0.53
	c-0.42,0.02-0.47,0.13-0.78-0.03c-0.3-0.16-1.23-0.89-1.64-1.64c-0.42-0.75-0.6-0.74-0.77-0.67c-0.17,0.06-0.3,0.63-0.21,1.1
	c0.08,0.47-0.14,1.37-0.25,1.69c-0.11,0.33-0.43,0.54-0.75,0.41c-0.31-0.11-0.65-0.22-0.82-0.22c-0.18,0-0.76,0.16-1,0.1
	c-0.23-0.06-0.73-0.59-0.93-0.63c-0.21-0.04-1.05,0.11-1.29,0.04c-0.58-0.16-0.51-0.77-0.69-0.83c-0.18-0.06-0.29,0.09-0.59-0.02
	c-0.29-0.11-0.41-0.61-0.57-0.66c-0.16-0.06-0.69-0.39-1.01-0.42c-0.32-0.02-0.55,0.11-0.86,0c-0.32-0.12-0.45-0.74,0-1.37
	c-0.15-0.09-0.58,0.15-0.79,0.07c-0.21-0.07-0.42-0.24-0.72-0.33c-0.29-0.1-0.25-0.52-0.02-0.58c0.23-0.06,1.01-0.36,1.45-0.8
	c0.45-0.44,2.22-2.01,3.52-2.51c-0.11-0.19-0.07-0.73-0.54-0.87c-0.46-0.14-1.44-0.44-1.83-0.59c-0.24-0.05-0.58-0.19-0.78-0.25
	c-0.2-0.05-0.61-0.12-0.68-0.18c-0.08-0.07-0.43-0.05-0.53-0.11c-0.1-0.06-0.31-0.15-0.42-0.15c-0.11,0-0.5-0.21-0.63-0.32
	c-0.19-0.06-0.39-0.05-0.66-0.2c-0.37-0.04-0.59-0.23-0.8-0.33c-0.26,0.06-0.94-0.15-1.48-0.71c-0.16-0.07-0.14,0.04-0.17,0.15
	c-0.05,0.12-0.19,0.2-0.47,0.09c-0.29-0.11-0.45-0.21-0.65-0.24c-0.2-0.02-0.74-0.17-0.98-0.29c-0.2-0.04-0.5-0.15-0.69-0.24
	c-0.24-0.04-0.35-0.04-0.47,0.04c-0.13,0.08-0.6-0.04-0.86-0.19c-0.13,0-0.33,0.15-0.52,0.08c-0.2-0.07-0.66-0.55-0.79-0.58
	c-0.12-0.04-0.66-0.01-0.87,0.19c-0.2,0.19-0.87,0.02-1.17-0.07c-0.5,0-0.95,0.18-1.55,0c-0.44,0.06-1.14,0.15-1.52-0.03
	c-0.33,0.04-1.09,0.19-1.86-0.04c-0.4,0.17-1.38,0.24-1.96,0.1c-0.62,0.08-1.41,0.2-1.64,0.13c-0.23-0.08-0.12-0.36-0.38-0.23
	c-0.27,0.12-0.59,0.52-0.84,0.45c-0.26-0.07-0.35-0.48-0.55-0.38c-0.2,0.1-0.67,0.48-0.94,0.42c-0.27-0.08-0.03-0.74-0.27-0.62
	c-0.24,0.11-0.34,0.51-0.59,0.46c-0.25-0.06-0.15-0.6-0.36-0.61c-0.21-0.01,0.09-0.38,0.17-0.56c0.99-1.51,3.19-4.32,10.8-6.08
	c-0.02-0.06-0.28-0.1-0.28-0.17c0-0.06,0.39-0.23,1-0.32c0.6-0.08,3.34-0.1,3.84-0.05c0.49,0.04,0.8,0.22,1.09,0.37
	c0.29,0.16,3.94,1.62,5.22,2.03C116.31,109.48,118.38,110.3,119.84,110.17z"/>
</svg>
