<?xml version="1.0" encoding="utf-8"?>
<!-- Generator: Adobe Illustrator 15.0.1, SVG Export Plug-In  -->
<!DOCTYPE svg PUBLIC "-//W3C//DTD SVG 1.1 Tiny//EN" "http://www.w3.org/Graphics/SVG/1.1/DTD/svg11-tiny.dtd" [
	<!ENTITY ns_flows "http://ns.adobe.com/Flows/1.0/">
]>
<svg version="1.1" baseProfile="tiny"
	 xmlns="http://www.w3.org/2000/svg" xmlns:xlink="http://www.w3.org/1999/xlink" xmlns:a="http://ns.adobe.com/AdobeSVGViewerExtensions/3.0/"
	 x="0px" y="0px" width="452px" height="321px" viewBox="-0.8 -0.26 452 321" overflow="visible" xml:space="preserve">
<defs>
</defs>
<path d="M447.1,317.94c-0.6-0.6-1.2-1.3-1.8-2c-39.9-42.4-81-70.7-123.3-84.9c37.8,15,78.8,43.4,123.3,85.2
	C445.9,316.84,446.5,317.34,447.1,317.94z"/>
<path d="M302.3,58.24c-20.5,38.7-54.5,76.4-101.9,113.2C248.6,136.84,282.6,99.04,302.3,58.24z"/>
<path d="M239,226.54c-13.7-10.3-29.7-18.9-47.8-25.7c-47.6-15.3-86.2-41.4-116.1-78.4c29.2,37.6,67.4,64.5,114.8,80.6
	C208.6,209.04,225,216.94,239,226.54z"/>
<path fill="none" stroke="#4DB172" stroke-width="0" stroke-linecap="round" stroke-linejoin="round" d="M239,226.54
	c-14-9.6-30.4-17.5-49.1-23.5"/>
<path d="M251.7,193.64c-82.6,4-137.9-16.9-166.2-62.8C111.5,180.34,166.9,201.24,251.7,193.64z"/>
<path d="M216.1,153.34c-28.3,23.6-53.7,31.1-76.1,22.2C162.5,186.24,188,178.84,216.1,153.34z"/>
<path d="M168.1,175.74c9-2.4,16.9-6.5,23.6-12.1c-6,4.5-12.9,7.8-20.8,9.8c-16.4,4.5-32,2.4-46.8-6.1c-14.6-8.5-24.2-21-28.6-37.4
	c-4.4-16.4-2.3-32,6.2-46.7c3.8-6.6,8.3-12.1,13.8-16.6c-6.6,4.8-12.2,11.1-16.6,18.8c-8.5,14.7-10.6,30.3-6.2,46.7
	c4.3,16.4,14,28.9,28.7,37.4C136.1,178.04,151.7,180.14,168.1,175.74z"/>
<path d="M122,285.44c2.5,9,6.5,16.9,12.1,23.6c-4.5-6-7.7-12.9-9.8-20.8c-4.4-16.4-2.3-32,6.2-46.8c8.5-14.7,21-24.2,37.4-28.6
	c16.4-4.4,32-2.4,46.6,6.1c6.6,3.8,12.2,8.5,16.7,13.8c-4.8-6.6-11.2-12.1-18.8-16.6c-14.8-8.5-30.4-10.6-46.8-6.2
	c-16.3,4.5-28.8,14-37.3,28.8C119.8,253.44,117.6,269.04,122,285.44z"/>
<path d="M177.8,294.64c5.8-1.6,11-4.2,15.2-7.8c-3.9,2.9-8.4,5-13.4,6.4c-10.6,2.8-20.6,1.5-30.1-4s-15.6-13.5-18.5-24.1
	c-2.8-10.6-1.5-20.6,4-30.1c2.5-4.3,5.5-7.8,8.9-10.8c-4.3,3.2-7.9,7.2-10.7,12.2c-5.5,9.5-6.8,19.5-4,30.1
	c2.8,10.6,9.1,18.6,18.6,24.1C157.2,296.14,167.3,297.44,177.8,294.64z"/>
<path d="M175.5,269.44c3.8,2.6,7.8,4.4,12,5.2c-3.6-0.9-7-2.5-10.2-4.9c-6.8-4.9-10.9-11.5-12.3-19.8c-1.2-8.3,0.5-15.8,5.5-22.5
	c4.9-6.9,11.5-10.9,19.7-12.3c3.8-0.6,7.3-0.6,10.7,0.2c-3.9-1-8-1.2-12.4-0.5c-8.2,1.3-14.9,5.3-19.7,12.1
	c-4.9,6.8-6.8,14.4-5.4,22.6C164.7,257.94,168.8,264.44,175.5,269.44z"/>
<path d="M95.9,189.14c-0.9,3.5-0.9,6.8-0.3,10c-0.3-2.7-0.2-5.7,0.4-8.7c1.5-6.3,5-11,10.5-14.2c5.5-3.3,11.3-4.1,17.5-2.4
	c6.2,1.6,11,5.3,14.3,10.9c1.5,2.6,2.5,5.1,3.1,7.7c-0.5-3-1.6-6-3.3-9c-3.3-5.6-8.1-9.3-14.3-11c-6.3-1.6-12-0.8-17.5,2.5
	C100.8,178.14,97.4,182.94,95.9,189.14z"/>
<path d="M120.6,179.44c-1,1-1.7,2.2-2.2,3.5c0.5-1.1,1.1-2.1,2.1-3c1.9-1.9,4.1-2.9,6.8-2.8c2.7,0,5.1,1.1,7,3c1.9,1.9,3,4.3,3,7
	c0,1.2-0.2,2.3-0.5,3.4c0.5-1.2,0.7-2.6,0.7-4c-0.1-2.6-1-5-3-7c-2-1.9-4.3-2.9-7-2.9C124.8,176.54,122.5,177.44,120.6,179.44z"/>
<path d="M146,182.84c26.1,12.9,55.3,22.2,87.5,27.8c83.9,10.8,156.5,42.3,217.6,94.6c-60.2-53.6-132.3-86.4-216.1-98.6
	C202,202.44,172.4,194.44,146,182.84z"/>
<path fill="none" stroke="#4DB172" stroke-width="0" stroke-linecap="round" stroke-linejoin="round" d="M146,182.84
	c26.4,11.6,56,19.6,89,23.8"/>
<path d="M16,196.94c1.8,7,5,13.1,9.3,18.3c-3.5-4.7-6-10-7.7-16.1c-3.3-12.7-1.8-24.7,4.9-36.1c6.5-11.4,16.2-18.8,28.8-22.2
	c12.7-3.4,24.8-1.8,36.2,4.8c5,2.9,9.4,6.4,12.9,10.7c-3.7-5.2-8.6-9.4-14.6-12.9c-11.4-6.6-23.4-8.1-36.1-4.8
	c-12.7,3.4-22.4,10.8-29,22.3C14.1,172.24,12.6,184.34,16,196.94z"/>
<path d="M59,204.04c4.6-1.2,8.5-3.2,11.9-6.1c-3,2.3-6.5,4-10.4,5c-8.2,2.2-15.9,1.1-23.3-3c-7.4-4.3-12.1-10.5-14.3-18.7
	c-2.2-8.2-1.2-15.9,3.1-23.3c1.9-3.3,4.2-6,6.8-8.3c-3.2,2.4-6,5.5-8.2,9.4c-4.3,7.3-5.3,15.1-3.1,23.3c2.2,8.1,7,14.3,14.3,18.6
	C43.2,205.14,50.9,206.24,59,204.04z"/>
<path d="M57.4,184.44c2.8,2.1,5.9,3.5,9.1,4.1c-2.7-0.6-5.3-2-7.8-3.7c-5.3-3.9-8.5-8.9-9.5-15.4c-1-6.4,0.4-12.1,4.2-17.5
	c3.8-5.2,8.9-8.3,15.3-9.4c2.8-0.5,5.7-0.4,8.3,0.1c-3-0.8-6.3-0.9-9.6-0.3c-6.4,1-11.5,4.1-15.3,9.3c-3.9,5.3-5.2,11.2-4.2,17.5
	C49,175.54,52.1,180.64,57.4,184.44z"/>
<path d="M70.2,13.84C62,9.14,53.7,6.44,45,5.64c7.4,1.2,14.6,3.7,21.7,7.8c14.7,8.5,24.3,21,28.7,37.4c4.4,16.4,2.3,32-6.2,46.7
	c-8.5,14.8-21,24.3-37.4,28.7c-7.4,1.9-14.6,2.7-21.6,2c8.2,1.2,16.5,0.7,25.1-1.6c16.4-4.3,28.9-14,37.4-28.7
	c8.5-14.7,10.6-30.3,6.2-46.6C94.5,34.84,84.9,22.34,70.2,13.84z"/>
<path d="M24.3,46.84c-3,5.2-4.8,10.6-5.3,16.1c0.8-4.7,2.4-9.3,5-13.8c5.5-9.5,13.5-15.7,24.1-18.5c10.6-2.9,20.6-1.5,30.1,3.9
	c9.5,5.5,15.7,13.5,18.5,24.1c1.3,4.7,1.7,9.3,1.3,13.9c0.8-5.2,0.4-10.7-1-16.2c-2.9-10.6-9-18.6-18.5-24.1
	c-9.5-5.4-19.5-6.8-30.1-3.9C37.8,31.14,29.8,37.34,24.3,46.84z"/>
<path d="M43.8,63.04c-4.6,0.8-8.6,2.3-12.2,4.8c3.1-1.9,6.7-3.2,10.7-3.9c8.3-1.3,15.9,0.5,22.6,5.4c6.8,5,10.8,11.5,12.1,19.8
	c1.4,8.3-0.3,15.8-5.3,22.6c-2.2,3.1-4.7,5.6-7.6,7.5c3.4-2.1,6.5-4.8,9.1-8.4c4.9-6.8,6.7-14.4,5.3-22.6
	c-1.3-8.3-5.3-14.9-12.1-19.8C59.5,63.54,52.1,61.64,43.8,63.04z"/>
<path d="M210.8,141.14c4.7-8.2,7.4-16.6,8.2-25.2c-1.2,7.4-3.7,14.6-7.9,21.6c-8.5,14.8-20.9,24.4-37.3,28.8
	c-16.4,4.3-32,2.2-46.7-6.3c-14.7-8.5-24.3-20.9-28.7-37.3c-1.9-7.4-2.6-14.6-2-21.6c-1.2,8.2-0.7,16.5,1.6,25.1
	c4.4,16.4,14,28.9,28.6,37.4c14.8,8.5,30.4,10.6,46.8,6.2C189.8,165.44,202.3,155.84,210.8,141.14z"/>
<path d="M177.9,95.34c-5.3-3-10.7-4.9-16.3-5.4c4.8,0.8,9.4,2.5,13.9,5c9.5,5.5,15.7,13.5,18.5,24.1c2.9,10.6,1.5,20.7-3.9,30.1
	c-5.5,9.5-13.5,15.7-24.1,18.5c-4.7,1.3-9.4,1.8-13.9,1.3c5.3,0.8,10.7,0.5,16.2-1c10.6-2.9,18.6-9,24.1-18.5s6.8-19.5,3.9-30
	C193.5,108.84,187.4,100.84,177.9,95.34z"/>
<path d="M161.6,114.74c-0.7-4.6-2.3-8.7-4.7-12.2c1.8,3.1,3.1,6.8,3.7,10.7c1.4,8.2-0.5,15.8-5.3,22.6c-4.9,6.8-11.5,10.8-19.8,12.1
	c-8.3,1.4-15.8-0.4-22.6-5.4c-3.1-2.1-5.6-4.6-7.5-7.5c2.1,3.4,4.9,6.5,8.4,9c6.8,5,14.3,6.8,22.6,5.4c8.3-1.3,14.9-5.3,19.8-12.1
	C161.1,130.44,163,122.94,161.6,114.74z"/>
<path d="M212.8,255.84c0.8-3.3,1.1-6.4,0.5-9.4c0.3,2.6,0.1,5.3-0.7,8.1c-1.5,5.8-4.9,10.2-10.1,13.2c-5.2,3-10.7,3.7-16.5,2.2
	c-5.9-1.5-10.2-5-13.2-10.2c-1.3-2.3-2.3-4.7-2.7-7.1c0.4,2.9,1.3,5.7,2.9,8.4c3,5.2,7.4,8.6,13.1,10.2c5.9,1.5,11.4,0.8,16.6-2.2
	S211.3,261.64,212.8,255.84z"/>
<path d="M201.3,266.24c2.3-1.1,4.2-2.5,5.8-4.3c-1.5,1.5-3.1,2.6-5.1,3.5c-4.2,1.9-8.5,2-12.8,0.4c-4.3-1.6-7.4-4.6-9.2-8.8
	c-2-4.1-2-8.4-0.5-12.6c0.8-2,1.8-3.7,3-5.1c-1.5,1.6-2.7,3.5-3.6,5.7c-1.6,4.4-1.5,8.5,0.4,12.7c1.8,4.2,5,7.2,9.2,8.8
	C192.8,268.24,197.1,268.04,201.3,266.24z"/>
<path d="M152.4,126.74c0.9-3.3,1.1-6.3,0.5-9.3c0.3,2.5,0.1,5.2-0.6,8c-1.6,5.8-5,10.2-10.2,13.2c-5.2,3-10.7,3.8-16.6,2.2
	c-5.7-1.5-10.1-4.9-13.1-10.2c-1.4-2.3-2.2-4.7-2.6-7.1c0.2,2.9,1.2,5.7,2.8,8.4c2.9,5.2,7.4,8.6,13.2,10.1
	c5.7,1.6,11.2,0.9,16.5-2.1C147.5,136.94,150.9,132.54,152.4,126.74z"/>
<path d="M140.9,137.04c2.3-1,4.2-2.4,5.8-4.1c-1.4,1.4-3.2,2.5-5.2,3.5c-4.1,1.8-8.4,2-12.7,0.3c-4.3-1.7-7.4-4.6-9.3-8.8
	c-1.9-4.1-2-8.4-0.4-12.6c0.8-2,1.8-3.7,3-5.1c-1.5,1.6-2.7,3.5-3.6,5.7c-1.6,4.4-1.5,8.5,0.4,12.7c1.9,4.3,5,7.2,9.2,8.8
	C132.4,139.04,136.7,138.94,140.9,137.04z"/>
<path d="M122.3,150.64c0.5,0,0.9,0.2,1.2,0.6c0.5,0.3,0.6,0.8,0.6,1.3s-0.1,0.9-0.6,1.4c-0.3,0.3-0.7,0.5-1.2,0.5s-1-0.2-1.4-0.5
	c-0.4-0.5-0.5-0.9-0.5-1.4s0.1-1,0.5-1.3C121.3,150.84,121.8,150.64,122.3,150.64z"/>
<path d="M127,152.54c0.5,0,0.9,0.2,1.3,0.6c0.3,0.3,0.5,0.8,0.5,1.3s-0.2,1-0.5,1.4c-0.4,0.3-0.8,0.5-1.3,0.5s-1-0.2-1.4-0.5
	c-0.3-0.4-0.5-0.9-0.5-1.4s0.2-1,0.5-1.3C126,152.74,126.5,152.54,127,152.54z"/>
<path d="M131.6,153.94c0.5,0,0.9,0.2,1.3,0.6c0.4,0.4,0.6,0.8,0.6,1.3c0,0.6-0.2,1-0.6,1.3c-0.4,0.4-0.8,0.6-1.3,0.6s-1-0.2-1.3-0.6
	c-0.4-0.3-0.5-0.7-0.5-1.3c0-0.5,0.1-0.9,0.5-1.3C130.6,154.14,131.1,153.94,131.6,153.94z"/>
<path d="M130.6,180.64c0.5,0,1,0.2,1.4,0.6c0.4,0.3,0.5,0.8,0.5,1.3s-0.1,0.9-0.5,1.4c-0.4,0.3-0.9,0.5-1.4,0.5s-0.9-0.2-1.3-0.5
	c-0.3-0.5-0.5-0.9-0.5-1.4s0.2-1,0.5-1.3C129.7,180.84,130.1,180.64,130.6,180.64z"/>
<path d="M132.5,185.84c0.5,0,1,0.1,1.4,0.6c0.4,0.3,0.5,0.7,0.5,1.2c0,0.6-0.1,1-0.5,1.4c-0.4,0.4-0.9,0.5-1.4,0.5s-0.9-0.1-1.3-0.5
	c-0.3-0.4-0.5-0.8-0.5-1.4c0-0.5,0.2-0.9,0.5-1.2C131.6,185.94,132,185.84,132.5,185.84z"/>
<path d="M132.5,190.94c0.5,0,1,0.2,1.4,0.6c0.4,0.4,0.5,0.8,0.5,1.3c0,0.6-0.1,1-0.5,1.3c-0.4,0.4-0.9,0.6-1.4,0.6s-0.9-0.2-1.3-0.6
	c-0.3-0.3-0.5-0.7-0.5-1.3c0-0.5,0.2-0.9,0.5-1.3C131.6,191.14,132,190.94,132.5,190.94z"/>
<path d="M165.3,181.64c0.5,0,1,0.2,1.3,0.5c0.4,0.4,0.5,0.8,0.5,1.3c0,0.6-0.1,1-0.5,1.4c-0.3,0.3-0.8,0.6-1.3,0.6s-0.9-0.3-1.3-0.6
	c-0.4-0.4-0.5-0.8-0.5-1.4c0-0.5,0.1-0.9,0.5-1.3C164.4,181.84,164.8,181.64,165.3,181.64z"/>
<path d="M174.7,181.64c0.5,0,0.9,0.2,1.3,0.5c0.4,0.4,0.5,0.8,0.5,1.3c0,0.6-0.1,1-0.5,1.4c-0.4,0.3-0.8,0.6-1.3,0.6
	s-0.9-0.3-1.3-0.6c-0.4-0.4-0.5-0.8-0.5-1.4c0-0.5,0.1-0.9,0.5-1.3C173.8,181.84,174.2,181.64,174.7,181.64z"/>
<path d="M181.7,181.14c0.5,0,0.9,0.2,1.3,0.5c0.4,0.4,0.5,0.8,0.5,1.3c0,0.6-0.1,1-0.5,1.4c-0.4,0.3-0.8,0.6-1.3,0.6
	s-0.9-0.3-1.3-0.6c-0.4-0.4-0.5-0.8-0.5-1.4c0-0.5,0.1-0.9,0.5-1.3C180.8,181.34,181.2,181.14,181.7,181.14z"/>
<path d="M403.1,271.34c0.5,0,0.9,0.1,1.2,0.6c0.5,0.3,0.6,0.8,0.6,1.3s-0.1,0.9-0.6,1.3c-0.3,0.4-0.7,0.5-1.2,0.5s-1-0.1-1.4-0.5
	c-0.4-0.4-0.5-0.8-0.5-1.3s0.1-1,0.5-1.3C402.1,271.44,402.6,271.34,403.1,271.34z"/>
<path d="M408.2,275.04c0.5,0,0.9,0.2,1.3,0.6c0.4,0.3,0.6,0.8,0.6,1.3s-0.2,1-0.6,1.3c-0.4,0.4-0.8,0.6-1.3,0.6s-0.9-0.2-1.4-0.6
	c-0.3-0.3-0.5-0.8-0.5-1.3s0.2-1,0.5-1.3C407.3,275.24,407.7,275.04,408.2,275.04z"/>
<path d="M301.9,61.84c0.2,0,0.4,0.1,0.7,0.3c0.2,0.2,0.2,0.5,0.2,0.7c0,0.3,0,0.5-0.2,0.6c-0.3,0.2-0.5,0.3-0.7,0.3
	c-0.3,0-0.5-0.1-0.6-0.3c-0.2-0.1-0.3-0.3-0.3-0.6c0-0.2,0.1-0.5,0.3-0.7C301.4,61.94,301.6,61.84,301.9,61.84z"/>
<path d="M300.7,65.34c0.3,0,0.4,0.1,0.6,0.3c0.3,0.2,0.3,0.5,0.3,0.7c0,0.3,0,0.5-0.3,0.6c-0.2,0.2-0.3,0.3-0.6,0.3
	c-0.2,0-0.5-0.1-0.6-0.3c-0.3-0.1-0.3-0.3-0.3-0.6c0-0.2,0-0.5,0.3-0.7C300.2,65.44,300.5,65.34,300.7,65.34z"/>
<path d="M299.3,68.54c0.3,0,0.5,0.1,0.7,0.3c0.1,0.1,0.2,0.4,0.2,0.6c0,0.3-0.1,0.5-0.2,0.7c-0.2,0.2-0.4,0.2-0.7,0.2
	c-0.2,0-0.5,0-0.7-0.2c-0.1-0.2-0.3-0.4-0.3-0.7c0-0.2,0.2-0.5,0.3-0.6C298.8,68.64,299.1,68.54,299.3,68.54z"/>
<path d="M21.7,192.84c0.2,0,0.4,0.1,0.6,0.2c0.2,0.2,0.3,0.4,0.3,0.7c0,0.2-0.1,0.4-0.3,0.7c-0.2,0.1-0.4,0.2-0.6,0.2
	c-0.3,0-0.5-0.1-0.7-0.2c-0.2-0.3-0.3-0.5-0.3-0.7c0-0.3,0.1-0.5,0.3-0.7C21.2,192.94,21.4,192.84,21.7,192.84z"/>
<path d="M26.3,202.14c0.3,0,0.5,0.2,0.7,0.3c0.2,0.2,0.2,0.5,0.2,0.7c0,0.3,0,0.4-0.2,0.7c-0.2,0.1-0.4,0.2-0.7,0.2
	c-0.2,0-0.5-0.1-0.6-0.2c-0.2-0.3-0.3-0.4-0.3-0.7c0-0.2,0.1-0.5,0.3-0.7C25.8,202.34,26.1,202.14,26.3,202.14z"/>
<path d="M35.7,208.74c0.3,0,0.5,0.1,0.6,0.3c0.3,0.1,0.3,0.4,0.3,0.6c0,0.3,0,0.5-0.3,0.7c-0.1,0.2-0.3,0.2-0.6,0.2
	c-0.2,0-0.5,0-0.6-0.2c-0.3-0.2-0.4-0.4-0.4-0.7c0-0.2,0.1-0.5,0.4-0.6C35.2,208.84,35.5,208.74,35.7,208.74z"/>
<path d="M49.7,211.04c0.3,0,0.5,0.1,0.7,0.4c0.2,0.1,0.3,0.4,0.3,0.6c0,0.3-0.1,0.4-0.3,0.6c-0.2,0.3-0.4,0.3-0.7,0.3
	c-0.2,0-0.5,0-0.6-0.3c-0.2-0.2-0.3-0.3-0.3-0.6c0-0.2,0.1-0.5,0.3-0.6C49.2,211.14,49.5,211.04,49.7,211.04z"/>
<path d="M84,97.74c0.2,0,0.5,0.1,0.7,0.3c0.2,0.1,0.2,0.4,0.2,0.6c0,0.3,0,0.5-0.2,0.7c-0.2,0.2-0.5,0.2-0.7,0.2
	c-0.3,0-0.5,0-0.6-0.2c-0.2-0.2-0.4-0.4-0.4-0.7c0-0.2,0.2-0.5,0.4-0.6C83.5,97.84,83.7,97.74,84,97.74z"/>
<path d="M85.9,85.04c0.3,0,0.5,0.1,0.6,0.3c0.2,0.1,0.3,0.4,0.3,0.6c0,0.3-0.1,0.5-0.3,0.7c-0.1,0.2-0.3,0.2-0.6,0.2
	c-0.2,0-0.5,0-0.7-0.2c-0.2-0.2-0.2-0.4-0.2-0.7c0-0.2,0-0.5,0.2-0.6C85.4,85.14,85.7,85.04,85.9,85.04z"/>
<path d="M166.8,105.44c-2.3,2.3-3.4,5-3.4,8.2c0,3.3,0.1,4,0.5,2.4c0.4-1.6,2-2.7,4.9-3.4c2.8-0.7,6.5,0.2,11,2.4
	c4.5,2.3,6.7,1.9,6.7-1.2c2.5,2.2,5.8,3.7,9.8,4.7c-4.7-2-8.7-4.6-11.9-7.5c0-0.1,0-0.1,0-0.1l-0.2-0.1c-0.2-0.3-0.4-0.4-0.6-0.6
	l0,0c-3.5-3.2-7.6-4.2-12.4-3.2c-0.1,0-0.2,0.1-0.3,0.1c0.1,0,0.1-0.1,0.3-0.2c5.6-2.7,10.4-1.5,14.8,3.5c-0.6-2-1.6-3.8-2.8-5
	c-2.3-2.3-5-3.4-8.2-3.4C171.8,102.04,169,103.14,166.8,105.44z"/>
<path d="M164.5,125.94c0.5,1.6,1.4,2.8,2.8,3.6c1.5,0.9,1.8,0.9,1.2,0.4c-0.6-0.6-0.6-1.5-0.2-3s1.7-2.9,3.8-4.4
	c2.2-1.4,2.6-2.5,1.3-3.2c1.5-0.6,3.1-1.6,4.6-3.2c-2.1,1.6-4.3,2.7-6.5,3.4c0,0,0,0,0-0.1l-0.1,0.1c-0.1,0.1-0.3,0.1-0.4,0.1l0,0
	c-2.3,0.8-3.8,2.3-4.6,4.8c0,0,0,0,0,0.1c0-0.1,0-0.1,0-0.2c0.2-3.2,2-5,5.3-5.7c-1.1-0.2-2.1-0.2-2.9,0c-1.7,0.4-2.8,1.3-3.7,2.8
	C164.3,122.84,164.1,124.34,164.5,125.94z"/>
<path d="M198.3,314.64c3.7-3.7,5.5-8,5.5-13.2s-0.3-6.5-0.8-3.8c-0.6,2.5-3.2,4.3-7.9,5.4c-4.6,1.1-10.5-0.2-17.7-3.8
	c-7.1-3.6-10.8-3-10.9,1.9c-3.9-3.5-9.1-6-15.7-7.6c7.6,3.3,14,7.3,19.2,12.2l0,0l0.3,0.3c0.3,0.3,0.7,0.7,1,0.9l0,0
	c5.6,5.1,12.2,6.8,19.9,5.1c0.2-0.1,0.3-0.2,0.6-0.2c-0.2,0.1-0.4,0.2-0.6,0.3c-8.9,4.4-16.8,2.6-23.7-5.5c1,3.3,2.4,6,4.5,8
	c3.6,3.7,8,5.5,13.1,5.5C190.3,320.14,194.6,318.34,198.3,314.64z"/>
<path d="M7.1,215.84c3.3,2,6.8,2.4,10.5,1.4c3.9-1,4.7-1.4,2.6-1.3c-1.9,0-3.7-1.5-5.4-4.6c-1.7-3.2-1.9-7.8-0.7-13.8
	c1.2-5.8,0.1-8.3-3.5-7.5c1.8-3.5,2.7-7.7,2.5-12.9c-0.9,6.2-2.6,11.7-5.1,16.3c0,0,0,0,0,0.1l-0.2,0.3c-0.2,0.3-0.3,0.6-0.5,0.8
	l0,0c-2.5,5.1-2.5,10.3,0.3,15.5c0,0.2,0,0.3,0.2,0.3c-0.2,0-0.2-0.1-0.3-0.3c-5-5.6-5.2-11.7-0.7-18.2c-2.2,1.3-3.8,2.9-4.9,4.7
	c-1.9,3.3-2.4,6.9-1.4,10.7C1.5,211.04,3.6,213.94,7.1,215.84z"/>
<path d="M5.5,20.14c-1.5-5.5-0.8-10.5,2-15.5c2.8-4.8,3.8-5.9,2.9-3.2c-0.8,2.8,0.6,5.9,4.4,9.4c3.8,3.6,10,5.6,18.9,6.2
	c8.6,0.4,11.7,3,9.2,7.7c5.7-1.1,11.9-0.8,19,1.4c-9-1-17.2-0.7-24.7,1c-0.1,0-0.1,0-0.1,0l-0.5,0.2c-0.5,0.1-0.9,0.2-1.4,0.3l0,0
	c-8,1.7-15.2-0.3-21.6-6.1c-0.1-0.2-0.3-0.2-0.4-0.4c0.1,0.2,0.2,0.3,0.3,0.5c6.1,9.1,14.6,11.7,25.5,7.7c-2.8,2.7-5.6,4.4-8.6,5.2
	c-5.4,1.4-10.6,0.8-15.4-2C10.1,29.64,6.9,25.54,5.5,20.14z"/>
</svg>
