<?xml version="1.0" encoding="utf-8"?>
<!-- Generator: Adobe Illustrator 15.0.1, SVG Export Plug-In  -->
<!DOCTYPE svg PUBLIC "-//W3C//DTD SVG 1.1 Tiny//EN" "http://www.w3.org/Graphics/SVG/1.1/DTD/svg11-tiny.dtd" [
	<!ENTITY ns_flows "http://ns.adobe.com/Flows/1.0/">
]>
<svg version="1.1" baseProfile="tiny"
	 xmlns="http://www.w3.org/2000/svg" xmlns:xlink="http://www.w3.org/1999/xlink" xmlns:a="http://ns.adobe.com/AdobeSVGViewerExtensions/3.0/"
	 x="0px" y="0px" width="302px" height="153px" viewBox="-0.29 -0.8 302 153" overflow="visible" xml:space="preserve">
<defs>
</defs>
<path fill="#5A3D1C" d="M103.14,83.99l0.1,0.05l-0.08-0.06C103.15,83.98,103.14,83.98,103.14,83.99z M96.67,94.33
	c1.5-3.53,3.57-6.52,5.77-9.6c-0.04,0.05-0.07,0.09-0.11,0.14c-1.85,2.57-4.2,4.74-6.35,7.06c-2.03,2.18-4.34,4.07-6.41,6.21
	c-0.53,0.55-1.03,1.12-1.55,1.66c-0.36,0.38-1,0.48-1.27,0.93c0.79-1.01,1.51-2.08,2.26-3.11c0.79-1.1,1.77-2.01,2.55-3.12
	c1.02-1.45,2.25-2.69,3.28-4.13c1-1.4,1.95-2.88,3.05-4.21c0.03-0.04,0.06-0.07,0.09-0.1c-0.24,0.05-0.49,0.09-0.72,0.14
	c-2.58,0.51-5.24,0.63-7.79,1.31c-2.2,0.59-4.18,2.07-5.76,3.7c-2.08,2.15-3,5.24-4.04,7.97c-0.35,0.91-0.94,1.68-1.35,2.56
	c-0.27,0.59-0.64,0.92-1.12,1.37c-0.38,0.36-0.9,0.66-1.43,0.73c-0.46,0.07-0.85-0.29-1.3-0.17c2.66,1.18,5.36,2.47,8.29,2.75
	C90.04,107.11,94.22,100.12,96.67,94.33z M89.45,119.99c2.38,4.26,10.5,4.73,9.82,10.59c0.32-0.55,0.74-0.78,1.12-1.25
	c3.4-4.12,2.89-11.24,0.24-15.59c-1.28-2.09-2.53-4.41-3.42-6.7c-0.9-2.35-0.5-5.27-0.77-7.71c-0.22,0.46-0.36,0.95-0.54,1.43
	c-0.89,2.43-1.38,4.94-1.34,7.52c0.06,3.48,2.06,6.15,2.81,9.3c-2.65-3.46-4.96-7.63-5.32-12.05c-0.03-0.34-0.08-0.68-0.14-1.02
	c-0.07,0.11-0.14,0.21-0.22,0.32c-1.33,1.89-2.67,4.1-3.29,6.35C87.67,113.86,88.1,117.58,89.45,119.99z M82.57,119.81
	c1.58-2,2.36-4.18,3.34-6.49c0.49-1.16,0.89-2.34,1.38-3.47c-0.03,0.03-0.06,0.06-0.09,0.09c-3.2,3.16-6.86,5.85-10.47,8.5
	c2.05-1.68,3.73-3.73,5.51-5.68c0.92-1.01,1.7-2.05,2.49-3.16c0.28-0.39,0.58-0.75,0.9-1.11c-0.07,0-0.15,0-0.22,0
	c-1.02-0.05-2.07-0.2-3.05-0.5c-3.38-1.05-7.12-0.38-9.16,2.65c-2.02,3-2.78,8.65-7.34,9.3c2.26,2.04,5.26,3.53,8.3,3.96
	C77.3,124.33,80.68,122.19,82.57,119.81z M69.04,99.92c1.66,0.27,3.19,0.2,4.7-0.61c1.37-0.73,2.55-1.79,3.63-2.88
	c1.6-1.61,2.43-3.66,3.93-5.34c0.8-0.89,1.56-1.85,2.48-2.62c0.8-0.66,1.72-1.2,2.6-1.74c0.05-0.03,0.1-0.06,0.16-0.09
	c-0.94,0.13-1.88,0.34-2.77,0.52c-2,0.4-4.09,1.03-5.82,2.14c-0.71,0.46-1.5,1.63-2.28,2.49c0.87-1.1,1.48-2.85,2.08-3.73
	c1.46-2.14,3.38-3.39,5.78-4.23c-1.83-0.83-3.86-1.79-5.91-1.82c-4.46-0.07-6.98,3.86-9.1,7.18c-0.65,1.02-5.35,9-7.57,6.44
	C63.04,98.05,65.95,99.42,69.04,99.92z M72.08,82.43c-2.45-2.29-6.59-4.89-9.94-5.37c2.52-0.07,5.06,0.11,7.51,0.71
	c1,0.24,1.98,0.33,2.97,0.57c-5.39-1.33-8.11-8.87-14.38-5.24c-2.26,1.31-4.5,3.94-7.26,2.19c2.23,1.41,3.27,4.22,5.29,5.86
	c2.07,1.68,4.96,2.81,7.59,3.15C66.39,84.63,70.25,84.35,72.08,82.43z M60.42,93.7c1.76-0.28,3.75-1.1,5.01-2.41
	c0.5-0.52,0.87-1.16,1.28-1.74c-0.95,0.63-1.91,1-3.11,1.34c-2.18,0.62-5.3,0.43-7.43-0.2c1.01,0.02,2.22-0.22,3.2-0.48
	c1.2-0.31,2.66-0.53,3.77-1.24c1.12-0.72,2.3-1.44,3.37-2.23c0.01-0.01,0.02-0.01,0.02-0.02c-0.12-0.03-0.23-0.07-0.31-0.09
	c-0.35-0.12-0.82-0.17-1.2-0.26c-2.64-0.59-5.86-2.23-8.58-1.37c-2.79,0.89-4.23,3.85-7.32,4.22c1.26,1.38,3,2.82,4.75,3.56
	C55.86,93.63,58.27,94.04,60.42,93.7z M66.43,112.38c2.08-0.32,3.99-1.01,5.39-2.64c0.7-0.82,1.22-1.75,1.66-2.72
	c-2.75,1.15-5.48,1.03-8.37,0.49c-0.76-0.14-1.54-0.39-2.19-0.75c0.67-0.15,1.25-0.03,1.94-0.02c1.39,0.01,2.88-0.4,4.23-0.8
	c0.99-0.29,1.96-0.7,2.9-1.16c0.49-0.24-4.53-3.29-5.11-3.43c-3-0.76-5.26,0.7-7.48,2.51c-0.97,0.79-5.08,5.33-6.71,3.99
	c1.86,1.53,3.89,3.01,6.1,4C61.17,112.9,63.91,112.77,66.43,112.38z M86.95,118.74c-0.05-0.06-1.81,7.35-1.7,8.36
	c-0.3-2.87-0.59-5.63-0.02-8.49c-0.36,0.64-0.87,1.23-1.29,1.81c-0.94,1.3-1.9,2.58-2.81,3.89c-2.06,2.98,0.7,6.51-0.8,9.75
	c2.09,0.11,3.82-0.92,5.38-2.21C88.69,129.38,89.51,121.76,86.95,118.74z M58.78,101.6c0.39-0.25,0.75-0.51,1.1-0.8
	c-2.87,0.04-5.85-1.13-8.55-1.95c0.6,0.18,1.21,0.29,1.84,0.36c1.33,0.14,2.68-0.13,4.01-0.17c0.72-0.02,1.35-0.29,2.06-0.37
	c0.06-0.01,0.11-0.01,0.16-0.01c-0.45-0.3-0.9-0.6-1.36-0.89c-1.81-1.16-3.73-2.87-6.04-2.74c-2.99,0.17-4.68,3.49-7.67,4.05
	c0.34,0.43,0.76,0.84,1.23,1.21c2.16,1.71,5.43,2.73,7.9,2.61C55.39,102.79,57.13,102.64,58.78,101.6z M129.6,129.13
	c-1.6-1.45-3.41-2.7-5.53-3.22c-1.3-0.31-2.61-0.55-3.89-0.92c0.21,0.15,0.41,0.3,0.62,0.45c1.32,0.96,2.37,2.26,3.56,3.38
	c1.24,1.17,2.23,2.58,3.35,3.88c-2.01-1.73-4.76-2.86-6.49-4.74c0.05,1.18,0.12,2.45,0.46,3.59c1.37,4.49,3.76,7.14,7.06,8.51
	c2.27,0.94,4.98,1.27,8.1,1.16c-0.28-0.36-0.7-0.51-0.99-0.85C132.97,136.9,133.13,132.34,129.6,129.13z M118.08,145.75
	c2.67-1.2,0.35-7.53,1.94-8.78c-1.81,1.43-3.79,2.75-5.2,4.6c-1.33,1.74-1.31,3.9-2.48,5.6c-0.58,0.84-1.01,0.87-1.94,1.19
	c1.79,1.06,3.85,1.64,5.94,1.44c2.82-0.27,4.72-2.26,5.9-4.7c0.92-1.92,1.64-4.3,0.88-6.39c-0.31-0.84-0.8-1.61-1.3-2.37
	c0,0.05,0,0.11,0,0.17C121.9,139.19,120.77,144.56,118.08,145.75z M144.59,118.84c-0.01,0.12-0.02,0.25-0.03,0.37
	C144.61,119.1,144.62,118.97,144.59,118.84z M143.28,120.28c-3.24,2.31-7.71,1.51-11.1,3.75c-0.75,0.5-1.42,0.91-1.87,1.67
	c1.35,0.63,7.3,0.02,8.32-1.15c-0.52,0.59-1.83,1.63-3.27,2.47c-1.69,0.98-3.56,1.69-4.61,1.1c2.35,1.33,5.53,1.09,7.9,0.06
	c1.99-0.87,3.82-2.28,4.75-4.27c0.66-1.4,1.04-3.12,1.16-4.69C144.38,119.69,143.64,120.02,143.28,120.28z M134.52,130.46
	c0.17,1.75,3.45,4.55,5.27,4.41c-2.06,0.16-3.79-0.97-5.68-1.47c-0.05,0.57,0.15,1.09,0.48,1.58c0.36,0.53,0.89,1.28,1.38,1.67
	c0.54,0.43,1.51,0.85,2.21,1.01c1.57,0.37,3.22,0.5,4.82,0.35c0.68-0.06,1.36-0.34,2.04-0.34c0.54-0.01,1.08,0.26,1.62,0.19
	c-0.78,0.14-1.92-1.41-2.36-1.9c-1.12-1.25-2.04-2.67-3.16-3.94c-0.85-0.97-2.16-1.45-3.4-1.72
	C136.74,130.08,135.47,130.18,134.52,130.46z M126.85,146.67c-0.82-1.52-1.43-3.28-1.5-5.01c-0.28,0.19-0.39,0.5-0.53,0.84
	c-0.31,0.72-0.53,1.39-0.76,2.15c-0.85,2.88,0.93,5.47,3.38,7.02c0,0,0-0.01,0-0.01c-0.1-0.38-0.13-0.76-0.11-1.12
	c0.19-2.7,3.34-5.02,1.9-8.06c-0.21-0.44-0.49-0.81-0.82-1.17c-0.2-0.19-0.41-0.36-0.64-0.51
	C126.92,142.49,126.12,144.82,126.85,146.67z M46.36,22.26c1.26,3.22,4.01,4.95,6.22,7.42c0.12,0.14,0.25,0.28,0.37,0.42
	c-0.03-0.19-0.07-0.37-0.09-0.55c-0.2-1.29-0.49-2.56-0.74-3.84c-0.46-2.39-1.76-4.6-1.79-7.07c2.73,2.91,3.8,7.55,4.32,11.4
	c0.02,0.17,0.06,0.37,0.1,0.58c0.51-1.13,0.96-2.32,1.36-3.49c0.81-2.39,0.51-4.87,0.09-7.31c-0.55-3.21-2.1-5.98-4.69-8
	c-1.81-1.41-3.87-2.06-6-2.79c-0.06,0.24,0.21,0.48,0.33,0.65c0.21,0.29,0.45,0.58,0.63,0.88c0.63,1.07,0.22,2.19-0.14,3.28
	C45.48,16.4,45.37,19.73,46.36,22.26z M57.1,17.15c0.09,0.26,0.17,0.52,0.34,0.73c0.03-0.9,0.27-1.75,0.5-2.61
	c0.17-0.64,0.35-1.28,0.43-1.93c0.17-1.32,0.37-2.64,0.57-3.96c0.27,0.48,0.42,1.11,0.46,1.71c0.11,1.58,0.1,3.15-0.12,4.72
	c-0.12,0.85-0.06,1.7-0.09,2.55c-0.03,0.74,0.05,1.38,0.09,2.11c0.02,0.3,0.02,0.59,0,0.89c0.56-0.77,1.07-1.56,1.53-2.4
	c1.1-2.03,2.28-4.21,2.66-6.51c0.4-2.44,0.14-5.36-0.74-7.67c-0.54-1.42-1.46-2.75-2.6-3.76c0.67,1.35-0.73,2.55-1.52,3.41
	c-3.31,3.57-3.51,6.7-1.93,11.21C56.85,16.15,56.93,16.66,57.1,17.15z M66.34,11.32c0.28-0.46,0.78-1.37,1.29-2.4
	c0.87-1.77,1.73-3.91,1.38-4.8c0.15,0.38,0.09,0.81,0.04,1.21c-0.13,1.02-0.4,2-0.63,3c-0.23,1.01-0.72,1.77-1.11,2.71
	c-0.07,0.16-0.13,0.31-0.2,0.45l0.42-0.12c0.28-0.4,0.77-0.58,1.09-0.95c0.3-0.34,0.58-0.76,0.83-1.14c0.67-1,1.25-2.2,1.45-3.39
	c0.34-2.03,0.01-4.08-1.01-5.86c-0.5,1.83-1.99,2.52-3.11,3.91C64.99,6.17,65.61,8.79,66.34,11.32z M33.27,22.82
	c1.44,1.53,3.77,1.92,5.78,1.94c1.1,0.01,2.22-0.01,3.31-0.14c0.41-0.05,0.79-0.08,1.18-0.07c-0.67-0.66-1.31-1.36-1.9-2.09
	c-0.55-0.69-1.08-1.39-1.61-2.1c-0.49-0.67-0.88-1.41-1.38-2.06c-0.45-0.6-0.71-1.33-1.11-1.98c0.68,0.53,1.18,1.26,1.74,1.92
	c0.48,0.56,0.86,1.16,1.4,1.69c0.53,0.53,1.09,1.03,1.64,1.54c1.07,1,2.29,1.81,3.47,2.67c0.05,0.04,0.1,0.08,0.16,0.12
	c-0.63-0.9-0.84-2.14-0.98-3.19c-0.27-1.92-0.27-3.81-1.35-5.5c-1.46-2.28-3.91-3.72-6.52-4.29c-1.12-0.25-2.24-0.28-3.37-0.13
	c-0.46,0.06-0.94,0.11-1.35,0.33c2.08,0.74,1.26,3.46,0.77,5.02c-0.35,1.11-0.9,2.23-0.99,3.41C32.07,21.01,32.53,22.03,33.27,22.82
	z M6.39,45.51c1.38,1.3,3.2,2.49,5.14,2.64c1.38,0.1,2.81-0.05,4.18-0.19c2.68-0.28,4.92-1.52,6.26-3.88
	c0.26-0.46,2.48-6.07,2.49-6.73c-0.23,0.32-0.48,0.63-0.72,0.89c-1.29,1.41-2.78,2.53-4.3,3.67c-2.01,1.49-4.21,2.82-6.79,2.72
	c0.85-0.42,1.54-1.02,2.33-1.57c1.95-1.37,3.88-2.67,5.59-4.36c0.6-0.59,1.18-1.18,1.76-1.79c-0.29-0.04-0.58-0.1-0.85-0.17
	c-2.09-0.56-5.29-1.24-7.17,0.16c-1.73,1.28-2.33,3.77-3.25,5.58C10.19,44.14,8.41,45.94,6.39,45.51z M21.84,47.21
	c-1.1,1.83-1.99,3.81-1.96,5.89c0.02,1.53,0.55,2.97,1.05,4.4c0.31,0.9,1.68,3.48,1.38,4.39c0.32-0.96,2.34-2.16,2.95-3.13
	c2.61-4.16-0.02-8.13-1.16-12.26c-0.08-0.29-0.14-0.58-0.25-0.86c-0.7,2.35-0.44,5.82-0.18,8.24c0.06,0.54,0.13,1.06,0.26,1.59
	c-0.54-1.75-1.01-3.52-1.53-5.28C22.11,49.23,21.92,48.22,21.84,47.21z M16.82,56.43c1.03-1.49,1.73-3.15,2.13-4.91
	c0.23-1.02,0.48-2.02,0.84-3c-0.08,0.11-0.15,0.22-0.21,0.35c-1.37,3.01-3.99,5.23-5.93,7.86c0.57-0.76,3.63-7.86,3.39-7.86
	c-2.28,0-5.47,0.16-6.62,2.56c-0.67,1.4-0.08,3.1-0.43,4.57c-0.14,0.59-0.43,1.55-0.88,1.97c-0.41,0.39-0.87,0.47-1.4,0.54
	C10.65,60.61,14.88,59.25,16.82,56.43z M14.13,35c0.67-0.17,1.38-0.25,2.09-0.28c-0.2-0.2-0.4-0.39-0.62-0.57
	c-0.61-0.5-1.14-1.1-1.74-1.61c-1.1-0.92-2.11-1.97-3.21-2.9c1.55,1.31,3.98,2.01,5.78,2.97c-0.08-0.1-0.16-0.21-0.24-0.31
	c-1.37-1.84-2.81-3.73-4.87-4.83c-1.25-0.67-5-1.87-6.35-0.92c0.81-0.58,2.76,5.67,2.91,6.05c0.52,1.33,1.38,2.1,2.44,2.45
	C11.43,35.44,12.76,35.36,14.13,35z M7.46,43.28c1.37-0.68,2.53-1.99,3.27-3.31c0.42-0.74,0.74-1.63,0.64-2.5c0,0-0.05,0-0.05,0
	c-0.84-0.03-2.1,1.84-2.6,2.37c-0.48,0.5-0.95,1.12-1.49,1.56c-0.39,0.32-1.58,0.67-1.8,0.99c0.28-0.4,4.83-5.33,4.76-5.37
	c-0.75-0.35-1.72-0.5-2.44-0.69c-2.76-0.75-4,1.59-5.18,3.51c-0.5,0.82-1.5,1.99-2.57,1.27c0.6,0.85,1.75,1.52,2.65,1.98
	C4.04,43.82,6.04,43.99,7.46,43.28z M9.07,21.59c1.31,1.05,2.34,2.7,3.27,4.09c0.42,0.63,0.84,1.26,1.25,1.9
	c-0.12-0.51-0.1-1.11-0.14-1.59c-0.1-1.15-0.38-2.35-0.78-3.44c-0.63-1.73-2.02-3.27-3.47-4.36c-0.87-0.65-2.45-1.72-3.6-1.73
	c1.12,0,1.18,4.1,1.26,4.72c0.28,2.15,1.61,3.4,3.27,4.72c0.31,0.25,0.64,0.5,0.97,0.78c-0.09-0.21-0.18-0.43-0.28-0.64
	C10.16,24.6,9.87,22.99,9.07,21.59z M32.77,60.41c0.27-3.12-1.15-4.74-3.46-6.5c0.16,0.8,0.43,1.62,0.49,2.41
	c0.07,1,0.3,2.02,0.75,2.88c-0.63-0.98-1.26-2-1.86-3c-0.27-0.45-0.52-0.91-0.73-1.37c0.22,0.47-0.28,1.99-0.28,2.56
	c0,0.96,0.1,1.93,0.49,2.82c0.39,0.9,1.01,1.59,1.75,2.21c0,0,0.01,0.01,0.01,0.01c0.51,0.42,2.25,1.11,2.47,1.65
	C32.03,63.2,32.69,61.33,32.77,60.41z M19.22,33.6c1.26,0.94,2.75,1.59,4.32,1.71c1.07,0.08,2.12-0.11,3.15-0.36
	c-0.5,0.93-0.93,1.89-1.26,2.87c-1.3,3.78-0.93,7.95,1.06,11.43c1.82,3.18,5.11,5.74,8.92,5.46c3.47-0.26,6.48-2.79,7.79-5.95
	c1.25-3.02,0.89-6.92-1.7-9.15c-2.23-1.93-5.63-1.8-7.91-0.01c-2.48,1.95-2.51,5.42-0.44,7.69c0.68,0.75,1.84,1.61,2.9,1.14
	c0.01-0.01,0.03-0.01,0.04-0.02c3.66-1.82-0.34-5.49-2.09-3.08c-0.22,0.31-0.34,0.66-0.37,1.01c-0.46-0.67-0.75-1.47-0.8-2.19
	c-0.16-2.12,1.52-3.66,3.49-4.04c2.18-0.42,4.65,0.46,5.82,2.4c2.04,3.39-0.61,7.97-3.75,9.63c-3.71,1.96-7.9-0.58-10.01-3.72
	c-3.22-4.8-1.74-10.8,2.1-14.75c2.88-2.96,7.27-5.28,11.49-4.22c3.52,0.89,6.39,3.77,8.13,6.85c1.85,3.27,2.36,6.94,2.85,10.6
	c1.81,13.67,10.16,24.76,22.26,30.87c3.07,1.55,6.53,3.47,9.87,4.35c8.03,2.13,15.57,0.76,23.14-1.14
	c-4.29,3.23-7.66,7.71-9.21,12.86c-1.39,4.61-0.3,11.84,1.78,16.08c2.62,5.36,7.52,8.35,11.99,11.97c1.38,1.12,2.68,2.24,3.44,3.88
	c0.83,1.81,1.3,4.08,1.18,6.07c-0.27,4.28-6.03,7.44-9.93,5.92c-3.93-1.54-3.67-6.66-0.02-8.35c1.2-0.56,2.46-0.37,3.21,0.46
	c-1.1-0.66-2.54-0.38-3.3,0.67c-1.3,1.79,0.23,3.93,2.21,3.96c2.45,0.03,3.62-3.5,2-5.31c-1.04-1.17-2.82-1.37-4.25-0.91
	c-2.93,0.96-4.96,4.9-3.13,7.65c1.77,2.66,6.07,4.03,9.11,3.37c3.25-0.71,5.69-3.79,6.17-7.01c0.33-2.19-0.16-4.49-1.23-6.42
	c-0.88-1.57-2.14-2.73-3.56-3.74c4.97,2.29,10.57,3.37,15.22,1.77c6.63-2.29,13.14-11.45,13.84-18.43
	c0.67-6.65-4.89-15.38-10.93-18.29c-7.98-3.84-17.08,0.03-21.45,7.44c-4,6.77-1.74,17.51,6.19,20.42c4.23,1.55,8.98-0.12,12.08-3.19
	c3.03-3.01,4.64-7.87,1.76-11.54c-2.21-2.81-7.1-4.6-10.45-2.8c-5.33,2.86,0.25,12.62,4.07,7.33c0.98-1.35,0.83-3.17-0.26-4.34
	c2.28,0.85,4.12,3.07,3.99,5.53c-0.2,3.94-4.49,6.72-8.1,7c-4.15,0.31-7.01-2.69-7.93-6.51c-2.06-8.55,3.8-16.65,12.34-17.97
	c3.8-0.59,7.94,0.14,10.86,2.77c9.34,8.41,4.22,24.23-6.11,28.89c-3.36,1.52-7.21,2.19-10.82,1.22c-2.95-0.79-5.53-2.6-7.85-4.53
	c-4.94-4.11-8.56-9.29-8.41-15.95c0.17-7.48,4.61-13.92,10.33-18.42c12.4-9.76,29.26-2.82,37.51,8.97
	c-3.73-5.33-7.18-10.72-13.04-13.95c-6.26-3.45-13.59-3.94-20.58-3.35c-7.03,0.6-13.94,2.4-21.01,2.52
	c-6.94,0.12-13.57-1.86-19.39-5.62c-6.12-3.94-11.5-9.61-14.3-16.39c-2.64-6.38-2.38-13.26-0.16-19.73
	C66.03,23.57,76.35,7.32,90.03,6.33c5.75-0.42,15.21,3.48,18.95,7.93c5.55,6.62,7.2,15.79,5.76,24.17c-1.35,7.83-5.5,15.92-12.57,20
	c-5.94,3.44-13.06,2.9-18.76-0.76c-5.4-3.47-9.37-9.35-10.12-15.78c-1.19-10.22,7.12-22.93,18.29-22.69
	c11.67,0.25,16.47,15.61,9.25,23.66c-3.27,3.64-9.51,6.17-13.99,3.14c-3.97-2.69-3.36-8.2-1.06-11.79c1.09-1.69,4.06-4.51,5.58-2.72
	c-0.87,0.1-1.69,0.55-2.24,1.32c-4.06,5.62,9.17,7.09,7.45-0.35c-0.69-3-4.23-4.77-7.08-4.73c-6.81,0.1-9.75,8.31-7.11,13.78
	c2.55,5.28,9.18,8.11,14.81,6.81c6.05-1.4,8.88-7.04,8.77-12.87c-0.07-3.5-0.93-7.08-2.56-10.19c-4.11-7.8-12.35-8.18-19.91-5.34
	c-15.02,5.65-13.63,28.53-4.23,38.18c8.44,8.67,21.46,5.48,29.33-2.24c1.91-1.88,3.55-3.98,4.9-6.23c0.15,2.88,1.1,5.57,2.98,7.84
	c1.94,2.35,4.83,4.43,8.01,4.37c3.75-0.07,7.04-2.95,8.76-6.1c1.91-3.5,2.23-8.47-0.9-11.4c-5.35-5.04-14.21,1.58-13.78,7.98
	c0.17,2.55,1.94,4.38,4.32,5.09c2.22,0.67,4.73,0.34,6.29-1.52c0.86-1.03,1.31-2.45,0.93-3.77c-0.41-1.39-1.66-2.34-3.03-2.66
	c-2.57-0.6-6.64,2.78-3.56,5.01c0.99,0.72,2.37,0.49,3.09-0.5s0.49-2.38-0.5-3.09c-0.22-0.16-0.45-0.27-0.7-0.34
	c0.49-0.02,0.98,0.08,1.42,0.27c2.6,1.12,1.94,4.32,0.05,5.77c-2.1,1.61-4.83,0.86-6.3-1.21c-2.06-2.91-0.94-6.59,1.81-8.59
	c2.94-2.15,8.52-2.97,10.69,0.72c2.13,3.62-0.66,8.56-3.47,10.94c-1.36,1.16-3.03,1.97-4.84,2c-1.7,0.02-3.33-0.62-4.75-1.52
	c-2.79-1.75-5.27-4.6-5.59-7.99c-0.19-1.98,1.21-5.01,1.71-6.94c0.63-2.42,1.3-4.84,1.7-7.31c0.83-5.15,0.07-10.37-1.81-15.23
	c-3.75-9.73-12.46-17.96-23.09-19.18C79.97,0.79,68.1,9.71,61.19,19.91c-3.32,4.9-5.72,10.45-6.94,16.19
	c-0.5-1.19-1.08-2.35-1.77-3.45c-1.69-2.67-4.1-4.82-7.02-6.06c-2.89-1.23-6.51-1.39-9.42-0.24c-3.28,1.3-5.99,3.98-9.27,5.19
	c-1.84,0.68-3.81,0.34-5.58-0.39c-1.91-0.79-3.86-2.05-4.84-3.92c-2.33-4.42,1.08-11.93,6.53-11.52c2.95,0.23,5,3.05,4.49,5.93
	c-0.46,2.56-3.15,4.81-5.79,3.75c-1.83-0.73-2.24-2.76-1.33-4.19c0.06,0.45,0.29,0.87,0.69,1.15c1.74,1.26,4.03-1.61,2.13-2.9
	c-1.56-1.06-3.62-0.22-4.23,1.49c-0.7,1.98,0.3,4.42,2.2,5.32c1.77,0.84,3.97,0.28,5.48-0.86c3.09-2.33,1.69-7.39-0.94-9.56
	c-1.57-1.29-3.72-1.23-5.54-0.54c-3.01,1.14-5.03,3.95-5.5,7.09C13.9,26.58,15.84,31.08,19.22,33.6z M113.04,54.56
	c-0.26,1.99-0.79,3.93-1.55,5.79c-0.63,1.54-1.13,3.81-2.63,4.73c-0.13-3.49,2.2-6.86,2.4-10.39c-0.62,0.58-1.24,1.18-1.85,1.78
	c-1.66,1.65-3.51,3.23-4.63,5.32c-1.5,2.81-0.22,4.54-0.12,7.35c0.02,0.52-0.13,1.53-0.75,1.69c1.24,0.02,2.56,0.31,3.78,0.11
	c2.29-0.37,5.28-3.29,6.31-5.24c1.22-2.31,1.34-5.69,0.55-8.18c-0.4-1.26-0.96-2.46-1.36-3.72
	C113.12,54.05,113.07,54.31,113.04,54.56z M119.12,60.97c-0.6-0.43-1.29-0.9-2.02-1.06c0.07,0.17,0.14,0.33,0.22,0.49
	c0.23,0.44,0.59,0.79,0.83,1.23c0.36,0.69,0.73,1.37,1.15,2.02c0.17,0.26,0.32,0.53,0.49,0.79c-0.6-0.42-3.21-2.29-3.18-3.16
	c0,0.06,0,0.12,0,0.18c-0.01,0.65-0.06,1.28,0.04,1.94c0.34,2.3,2.31,3.62,4.5,4.11c0.91,0.2,1.86,0.25,2.74,0.17
	c-0.31-0.19-0.63-0.42-0.91-0.65C121.02,65.39,121.33,62.56,119.12,60.97z M101.71,62.55c-0.43-0.08-0.79,0.04-1.24,0.11
	c-0.52,0.08-1.12,0.29-1.59,0.51c-3,1.45-4.39,3.97-7.81,4.47c1.25,0.97,2.77,1.53,4.32,1.82c2.06,0.39,3.78-0.09,5.34-1.51
	c1.11-1.01,2-2.17,2.15-3.68c0.02-0.19,0.05-0.37,0.08-0.54c-0.34,1.84-3.72,3.03-5.15,3.73c0.86-0.42,1.9-2.1,2.58-2.88
	C100.88,63.99,101.44,63.24,101.71,62.55z M115.02,66.66c-0.03-0.35-0.05-0.7-0.06-1.04c-0.3,0.42-0.59,0.84-0.84,1.3
	c-0.45,0.81-0.75,1.59-0.65,2.52c0.1,0.98,0.51,1.9,0.58,2.88c0.61-0.02,1.24-0.27,1.73-0.63c1.02-0.74,1.46-2.21,1.41-3.42
	c-0.02-0.5-0.06-1.04-0.2-1.52c-0.11-0.39-0.35-0.69-0.57-1.03c-0.14-0.23-0.3-0.45-0.45-0.69c-0.07,0.29-0.17,0.58-0.2,0.88
	c-0.13,1.11-0.21,2.23-0.12,3.34C115.59,68.44,115.1,67.53,115.02,66.66z"/>
<path fill="#5A3D1C" d="M197.9,83.93l-0.09,0.06l0.1-0.05C197.91,83.94,197.9,83.93,197.9,83.93z M218.28,106.37
	c2.93-0.28,5.63-1.56,8.29-2.74c-0.44-0.12-0.84,0.23-1.3,0.17c-0.53-0.08-1.05-0.38-1.43-0.73c-0.47-0.45-0.84-0.78-1.12-1.37
	c-0.41-0.88-1-1.65-1.35-2.56c-1.03-2.73-1.95-5.82-4.04-7.97c-1.58-1.63-3.56-3.11-5.76-3.7c-2.55-0.68-5.21-0.8-7.79-1.31
	c-0.23-0.05-0.48-0.09-0.72-0.14c0.03,0.04,0.06,0.07,0.09,0.1c1.1,1.33,2.04,2.81,3.05,4.21c1.03,1.43,2.26,2.68,3.28,4.13
	c0.78,1.11,1.76,2.02,2.55,3.12c0.75,1.04,1.47,2.11,2.26,3.11c-0.27-0.45-0.91-0.55-1.27-0.93c-0.52-0.54-1.03-1.11-1.55-1.66
	c-2.07-2.14-4.38-4.02-6.41-6.21c-2.15-2.32-4.5-4.49-6.35-7.06c-0.04-0.05-0.07-0.09-0.11-0.14c2.21,3.07,4.28,6.06,5.77,9.6
	C206.83,100.08,211.01,107.06,218.28,106.37z M212.65,111.15c-0.62-2.25-1.96-4.46-3.29-6.35c-0.07-0.11-0.15-0.21-0.22-0.32
	c-0.06,0.34-0.11,0.68-0.14,1.02c-0.36,4.42-2.67,8.59-5.32,12.05c0.76-3.14,2.75-5.82,2.81-9.3c0.04-2.59-0.45-5.09-1.34-7.52
	c-0.18-0.48-0.32-0.97-0.54-1.43c-0.27,2.44,0.12,5.36-0.77,7.71c-0.89,2.29-2.14,4.6-3.42,6.7c-2.65,4.35-3.17,11.47,0.24,15.59
	c0.39,0.47,0.81,0.7,1.12,1.25c-0.68-5.86,7.45-6.33,9.82-10.59C212.94,117.53,213.38,113.81,212.65,111.15z M226.89,123.84
	c3.04-0.43,6.04-1.92,8.3-3.96c-4.55-0.65-5.32-6.3-7.34-9.3c-2.04-3.02-5.78-3.7-9.16-2.65c-0.98,0.3-2.03,0.46-3.05,0.5
	c-0.07,0-0.15,0-0.22,0c0.31,0.36,0.62,0.72,0.9,1.11c0.8,1.11,1.57,2.15,2.49,3.16c1.78,1.95,3.46,4,5.51,5.68
	c-3.62-2.65-7.28-5.34-10.47-8.5c-0.03-0.03-0.06-0.06-0.09-0.09c0.5,1.13,0.89,2.31,1.38,3.47c0.98,2.31,1.76,4.49,3.34,6.49
	C220.37,122.14,223.75,124.29,226.89,123.84z M240.1,95.6c-2.22,2.55-6.92-5.42-7.57-6.44c-2.12-3.31-4.64-7.25-9.1-7.18
	c-2.05,0.03-4.08,0.99-5.91,1.82c2.4,0.83,4.33,2.09,5.78,4.23c0.6,0.88,1.2,2.62,2.08,3.73c-0.78-0.85-1.56-2.03-2.28-2.49
	c-1.73-1.12-3.81-1.74-5.82-2.14c-0.88-0.18-1.83-0.39-2.77-0.52c0.05,0.03,0.11,0.06,0.16,0.09c0.88,0.54,1.8,1.08,2.6,1.74
	c0.92,0.77,1.69,1.73,2.48,2.62c1.5,1.68,2.33,3.73,3.93,5.34c1.09,1.09,2.27,2.15,3.64,2.88c1.51,0.81,3.03,0.88,4.7,0.61
	C235.1,99.38,238,98,240.1,95.6z M237.18,84.26c2.62-0.34,5.52-1.47,7.59-3.15c2.03-1.65,3.07-4.45,5.29-5.86
	c-2.76,1.75-5-0.88-7.25-2.19c-6.27-3.63-9,3.91-14.38,5.24c0.98-0.24,1.97-0.33,2.97-0.57c2.46-0.6,4.99-0.78,7.51-0.71
	c-3.36,0.47-7.49,3.08-9.94,5.37C230.8,84.31,234.66,84.59,237.18,84.26z M247.16,92.75c1.75-0.75,3.5-2.18,4.76-3.56
	c-3.09-0.38-4.53-3.33-7.32-4.22c-2.72-0.87-5.94,0.77-8.58,1.37c-0.38,0.09-0.85,0.14-1.2,0.26c-0.08,0.03-0.19,0.06-0.31,0.09
	c0.01,0.01,0.02,0.01,0.02,0.02c1.07,0.79,2.24,1.51,3.37,2.23c1.12,0.72,2.58,0.93,3.78,1.24c0.98,0.26,2.18,0.5,3.2,0.48
	c-2.14,0.63-5.25,0.82-7.43,0.2c-1.2-0.34-2.16-0.7-3.11-1.34c0.42,0.59,0.78,1.22,1.28,1.74c1.25,1.3,3.24,2.13,5.01,2.41
	C242.78,93.99,245.18,93.59,247.16,92.75z M242.25,111.79c2.21-0.98,4.24-2.47,6.1-4c-1.63,1.34-5.74-3.19-6.71-3.99
	c-2.22-1.82-4.47-3.27-7.48-2.51c-0.58,0.15-5.59,3.19-5.11,3.43c0.94,0.46,1.91,0.87,2.9,1.16c1.35,0.4,2.84,0.81,4.23,0.8
	c0.69-0.01,1.28-0.13,1.94,0.02c-0.64,0.36-1.42,0.6-2.19,0.75c-2.89,0.54-5.63,0.67-8.37-0.49c0.44,0.97,0.96,1.91,1.65,2.73
	c1.4,1.63,3.31,2.33,5.39,2.64C237.14,112.72,239.88,112.85,242.25,111.79z M215.35,131.82c1.56,1.29,3.29,2.32,5.38,2.21
	c-1.5-3.24,1.26-6.78-0.8-9.75c-0.91-1.31-1.88-2.6-2.81-3.89c-0.42-0.59-0.93-1.17-1.29-1.81c0.57,2.86,0.29,5.62-0.02,8.49
	c0.11-1.01-1.65-8.42-1.7-8.36C211.54,121.72,212.36,129.33,215.35,131.82z M247.58,102.84c2.47,0.12,5.74-0.9,7.9-2.61
	c0.47-0.37,0.89-0.78,1.23-1.21c-3-0.56-4.69-3.88-7.67-4.05c-2.31-0.13-4.22,1.58-6.04,2.74c-0.46,0.29-0.9,0.6-1.36,0.89
	c0.05,0,0.11,0.01,0.16,0.01c0.7,0.08,1.34,0.35,2.06,0.37c1.33,0.04,2.68,0.31,4.01,0.17c0.63-0.07,1.24-0.18,1.84-0.36
	c-2.7,0.82-5.68,1.99-8.55,1.95c0.35,0.29,0.71,0.55,1.1,0.8C243.92,102.6,245.66,102.75,247.58,102.84z M165.2,140.33
	c-0.28,0.34-0.71,0.49-0.99,0.85c3.11,0.11,5.82-0.22,8.1-1.17c3.3-1.37,5.69-4.03,7.06-8.51c0.35-1.14,0.41-2.41,0.46-3.59
	c-1.73,1.88-4.48,3.01-6.49,4.74c1.12-1.3,2.11-2.71,3.35-3.88c1.19-1.12,2.24-2.43,3.56-3.38c0.21-0.15,0.41-0.3,0.62-0.45
	c-1.28,0.37-2.6,0.6-3.89,0.92c-2.13,0.51-3.94,1.76-5.53,3.22C167.92,132.29,168.08,136.85,165.2,140.33z M179.23,136.45
	c0-0.06,0-0.11,0-0.17c-0.5,0.76-0.99,1.53-1.3,2.37c-0.76,2.09-0.05,4.47,0.88,6.39c1.17,2.44,3.08,4.43,5.9,4.7
	c2.09,0.2,4.15-0.38,5.94-1.44c-0.93-0.32-1.36-0.35-1.94-1.19c-1.17-1.69-1.15-3.85-2.48-5.59c-1.41-1.85-3.39-3.17-5.2-4.6
	c1.59,1.25-0.73,7.58,1.94,8.78C180.28,144.51,179.15,139.14,179.23,136.45z M156.48,119.16c-0.01-0.12-0.02-0.25-0.03-0.37
	C156.43,118.93,156.44,119.05,156.48,119.16z M156.48,119.16c0.11,1.58,0.5,3.29,1.16,4.69c0.94,1.99,2.76,3.41,4.75,4.27
	c2.37,1.03,5.55,1.27,7.9-0.06c-1.04,0.59-2.92-0.12-4.61-1.1c-1.44-0.84-2.75-1.88-3.27-2.47c1.02,1.17,6.96,1.78,8.32,1.15
	c-0.44-0.76-1.11-1.17-1.87-1.67c-3.4-2.25-7.87-1.45-11.1-3.75C157.4,119.97,156.67,119.64,156.48,119.16z M163.3,130.25
	c-1.24,0.27-2.55,0.75-3.4,1.72c-1.11,1.26-2.03,2.69-3.15,3.94c-0.44,0.49-1.58,2.04-2.36,1.9c0.54,0.07,1.08-0.19,1.62-0.19
	c0.68,0.01,1.37,0.28,2.04,0.35c1.6,0.15,3.26,0.02,4.82-0.35c0.7-0.16,1.67-0.58,2.21-1.01c0.49-0.39,1.01-1.14,1.38-1.67
	c0.34-0.49,0.53-1.01,0.48-1.58c-1.88,0.5-3.61,1.63-5.68,1.47c1.81,0.14,5.1-2.66,5.27-4.41
	C165.58,130.14,164.31,130.03,163.3,130.25z M173.28,140.74c-0.22,0.16-0.44,0.33-0.64,0.51c-0.33,0.36-0.62,0.74-0.82,1.17
	c-1.44,3.04,1.71,5.36,1.9,8.06c0.03,0.37,0,0.74-0.11,1.12c0,0,0,0.01,0,0.01c2.44-1.55,4.23-4.14,3.38-7.02
	c-0.22-0.76-0.45-1.42-0.76-2.15c-0.15-0.34-0.25-0.65-0.53-0.84c-0.06,1.73-0.68,3.49-1.5,5.01
	C174.93,144.77,174.13,142.45,173.28,140.74z M254.72,13.78c-0.36-1.09-0.77-2.21-0.14-3.28c0.18-0.3,0.43-0.59,0.63-0.88
	c0.12-0.17,0.4-0.41,0.33-0.65c-2.13,0.73-4.2,1.38-6,2.79c-2.59,2.03-4.14,4.79-4.69,8c-0.42,2.44-0.72,4.92,0.09,7.31
	c0.4,1.17,0.85,2.36,1.36,3.49c0.04-0.21,0.07-0.42,0.1-0.58c0.52-3.85,1.59-8.49,4.32-11.4c-0.03,2.47-1.33,4.68-1.79,7.07
	c-0.25,1.28-0.54,2.55-0.74,3.84c-0.03,0.18-0.06,0.37-0.09,0.55c0.12-0.14,0.25-0.28,0.37-0.42c2.21-2.46,4.96-4.19,6.22-7.42
	C255.68,19.69,255.56,16.35,254.72,13.78z M244.37,15.61c1.58-4.51,1.38-7.64-1.93-11.21c-0.79-0.86-2.2-2.07-1.52-3.41
	c-1.14,1.01-2.06,2.34-2.6,3.76c-0.88,2.31-1.14,5.23-0.74,7.67c0.38,2.3,1.55,4.48,2.66,6.51c0.46,0.84,0.97,1.63,1.53,2.4
	c-0.01-0.3-0.01-0.6,0-0.89c0.04-0.73,0.11-1.37,0.09-2.11c-0.03-0.85,0.02-1.7-0.09-2.55c-0.22-1.57-0.23-3.13-0.12-4.72
	c0.04-0.6,0.19-1.23,0.46-1.71c0.2,1.32,0.4,2.64,0.57,3.96c0.08,0.66,0.25,1.3,0.43,1.94c0.23,0.86,0.47,1.71,0.5,2.61
	c0.17-0.21,0.25-0.46,0.34-0.73C244.12,16.62,244.2,16.1,244.37,15.61z M234.27,3.91c-1.11-1.38-2.6-2.08-3.11-3.91
	c-1.02,1.78-1.35,3.84-1.01,5.86c0.2,1.19,0.78,2.38,1.45,3.39c0.25,0.38,0.53,0.79,0.83,1.14c0.32,0.37,0.81,0.54,1.09,0.95
	l0.42,0.12c-0.07-0.14-0.13-0.29-0.2-0.45c-0.39-0.94-0.88-1.7-1.11-2.71c-0.22-1-0.49-1.98-0.63-3c-0.05-0.4-0.11-0.83,0.04-1.21
	c-0.35,0.89,0.51,3.03,1.38,4.8c0.5,1.03,1.01,1.93,1.29,2.4C235.44,8.75,236.06,6.12,234.27,3.91z M268.89,19.88
	c-0.09-1.17-0.64-2.3-0.99-3.41c-0.49-1.56-1.31-4.28,0.77-5.02c-0.41-0.23-0.9-0.28-1.35-0.33c-1.13-0.15-2.25-0.12-3.37,0.13
	c-2.61,0.57-5.06,2.01-6.52,4.29c-1.08,1.69-1.08,3.58-1.35,5.5c-0.15,1.05-0.36,2.29-0.98,3.19c0.05-0.04,0.11-0.08,0.16-0.12
	c1.19-0.85,2.41-1.67,3.47-2.67c0.55-0.51,1.1-1.01,1.64-1.54c0.53-0.53,0.92-1.12,1.4-1.69c0.56-0.66,1.06-1.39,1.74-1.92
	c-0.39,0.64-0.65,1.38-1.11,1.98c-0.5,0.66-0.88,1.39-1.38,2.06c-0.52,0.71-1.05,1.41-1.61,2.1c-0.59,0.73-1.23,1.42-1.9,2.09
	c0.39,0,0.77,0.02,1.18,0.07c1.1,0.13,2.21,0.15,3.31,0.14c2.01-0.02,4.34-0.41,5.78-1.94C268.52,21.99,268.98,20.97,268.89,19.88z
	 M289.99,42.42c-0.93-1.81-1.53-4.29-3.25-5.58c-1.88-1.4-5.09-0.72-7.17-0.16c-0.27,0.07-0.56,0.13-0.85,0.17
	c0.58,0.61,1.17,1.2,1.76,1.79c1.71,1.68,3.64,2.99,5.59,4.36c0.79,0.55,1.48,1.16,2.33,1.57c-2.58,0.1-4.78-1.23-6.79-2.72
	c-1.53-1.13-3.02-2.26-4.3-3.67c-0.24-0.26-0.49-0.56-0.72-0.89c0.01,0.67,2.23,6.28,2.49,6.74c1.34,2.35,3.59,3.59,6.26,3.88
	c1.37,0.15,2.8,0.3,4.18,0.19c1.94-0.15,3.76-1.33,5.14-2.64C292.64,45.89,290.85,44.09,289.99,42.42z M278.65,50.15
	c-0.52,1.76-0.99,3.53-1.53,5.28c0.13-0.53,0.2-1.05,0.26-1.59c0.27-2.42,0.53-5.89-0.17-8.24c-0.11,0.27-0.17,0.56-0.25,0.86
	c-1.14,4.14-3.77,8.1-1.16,12.26c0.61,0.97,2.63,2.17,2.95,3.13c-0.3-0.91,1.07-3.49,1.38-4.39c0.49-1.43,1.03-2.87,1.05-4.4
	c0.02-2.08-0.87-4.06-1.96-5.89C279.13,48.18,278.94,49.19,278.65,50.15z M293.35,58.45c-0.53-0.06-0.99-0.15-1.4-0.54
	c-0.45-0.42-0.74-1.38-0.88-1.97c-0.35-1.47,0.24-3.17-0.43-4.57c-1.15-2.4-4.34-2.55-6.62-2.55c-0.25,0,2.82,7.09,3.39,7.86
	c-1.94-2.62-4.56-4.85-5.93-7.86c-0.06-0.13-0.13-0.24-0.21-0.35c0.36,0.98,0.61,1.98,0.84,3c0.4,1.76,1.11,3.42,2.13,4.91
	C286.17,59.2,290.4,60.56,293.35,58.45z M290.73,35.02c1.06-0.36,1.92-1.12,2.44-2.46c0.15-0.38,2.1-6.63,2.91-6.05
	c-1.34-0.95-5.1,0.25-6.35,0.92c-2.06,1.1-3.5,3-4.87,4.83c-0.08,0.11-0.16,0.21-0.24,0.31c1.8-0.95,4.23-1.66,5.78-2.96
	c-1.1,0.93-2.1,1.97-3.21,2.9c-0.61,0.51-1.13,1.1-1.74,1.61c-0.22,0.18-0.42,0.38-0.62,0.57c0.71,0.03,1.42,0.1,2.09,0.28
	C288.29,35.31,289.62,35.39,290.73,35.02z M298.4,43.06c0.91-0.47,2.05-1.13,2.65-1.98c-1.07,0.72-2.06-0.45-2.57-1.27
	c-1.18-1.92-2.42-4.26-5.18-3.51c-0.71,0.19-1.69,0.34-2.44,0.69c-0.07,0.03,4.48,4.97,4.76,5.37c-0.22-0.32-1.41-0.68-1.8-0.99
	c-0.54-0.44-1.01-1.06-1.5-1.56c-0.5-0.52-1.76-2.4-2.6-2.37c0,0-0.05,0-0.05,0c-0.1,0.87,0.23,1.75,0.64,2.5
	c0.74,1.32,1.89,2.63,3.27,3.31C295.01,43.94,297.01,43.78,298.4,43.06z M290.23,26.01c-0.1,0.21-0.19,0.43-0.28,0.64
	c0.33-0.27,0.66-0.53,0.97-0.78c1.66-1.32,2.99-2.57,3.27-4.72c0.08-0.63,0.14-4.72,1.26-4.72c-1.16,0.01-2.74,1.08-3.6,1.73
	c-1.45,1.09-2.84,2.63-3.47,4.36c-0.39,1.08-0.68,2.29-0.78,3.44c-0.04,0.48-0.02,1.07-0.14,1.59c0.41-0.64,0.83-1.27,1.25-1.9
	c0.92-1.4,1.95-3.05,3.27-4.09C291.17,22.94,290.89,24.55,290.23,26.01z M268.66,64.03c0.22-0.54,1.96-1.23,2.47-1.65
	c0,0,0.01,0,0.01-0.01c0.74-0.62,1.36-1.32,1.75-2.21c0.39-0.89,0.5-1.86,0.49-2.82c0-0.57-0.5-2.09-0.29-2.56
	c-0.22,0.46-0.46,0.92-0.73,1.37c-0.6,1-1.23,2.02-1.86,3c0.45-0.86,0.67-1.88,0.75-2.88c0.06-0.8,0.33-1.62,0.49-2.41
	c-2.31,1.76-3.73,3.38-3.46,6.5C268.36,61.28,269.02,63.15,268.66,64.03z M286.52,22.36c-0.47-3.14-2.5-5.95-5.5-7.09
	c-1.82-0.69-3.97-0.75-5.54,0.54c-2.63,2.17-4.04,7.22-0.94,9.56c1.5,1.13,3.71,1.69,5.47,0.86c1.9-0.9,2.9-3.34,2.2-5.33
	c-0.61-1.71-2.67-2.56-4.23-1.49c-1.9,1.29,0.39,4.16,2.13,2.9c0.39-0.29,0.62-0.71,0.68-1.15c0.9,1.43,0.49,3.45-1.33,4.19
	c-2.64,1.06-5.33-1.18-5.79-3.75c-0.51-2.88,1.54-5.7,4.49-5.93c5.45-0.42,8.86,7.1,6.53,11.52c-0.99,1.87-2.94,3.14-4.84,3.92
	c-1.77,0.73-3.74,1.07-5.58,0.39c-3.28-1.21-5.99-3.9-9.27-5.19c-2.91-1.15-6.53-0.99-9.42,0.24c-2.92,1.25-5.32,3.39-7.02,6.06
	c-0.7,1.1-1.27,2.25-1.77,3.45c-1.22-5.74-3.62-11.29-6.94-16.19c-6.91-10.2-18.78-19.12-31.72-17.64
	c-10.62,1.22-19.33,9.45-23.09,19.18c-1.87,4.86-2.64,10.08-1.81,15.23c0.4,2.47,1.07,4.89,1.7,7.31c0.5,1.93,1.9,4.96,1.71,6.94
	c-0.32,3.39-2.8,6.24-5.59,8c-1.42,0.89-3.05,1.54-4.75,1.52c-1.81-0.03-3.48-0.84-4.84-2c-2.8-2.38-5.59-7.32-3.47-10.94
	c2.17-3.69,7.74-2.86,10.69-0.72c2.74,2,3.87,5.68,1.81,8.59c-1.47,2.07-4.2,2.82-6.3,1.21c-1.9-1.45-2.55-4.65,0.04-5.77
	c0.43-0.19,0.93-0.29,1.42-0.27c-0.24,0.07-0.48,0.18-0.7,0.34c-0.99,0.72-1.21,2.1-0.5,3.09c0.72,0.99,2.1,1.21,3.09,0.5
	c3.08-2.23-0.99-5.61-3.56-5.01c-1.38,0.32-2.63,1.26-3.03,2.66c-0.38,1.32,0.07,2.74,0.93,3.77c1.55,1.86,4.06,2.19,6.29,1.52
	c2.38-0.71,4.15-2.54,4.32-5.09c0.43-6.4-8.43-13.02-13.78-7.98c-3.12,2.94-2.8,7.9-0.9,11.4c1.71,3.15,5.01,6.03,8.76,6.1
	c3.18,0.06,6.07-2.02,8.01-4.37c1.88-2.27,2.83-4.96,2.98-7.84c1.35,2.25,2.99,4.35,4.9,6.23c7.87,7.72,20.89,10.91,29.33,2.24
	c9.39-9.64,10.79-32.53-4.23-38.18c-7.56-2.84-15.8-2.46-19.91,5.34c-1.64,3.1-2.49,6.69-2.56,10.19
	c-0.11,5.83,2.71,11.47,8.77,12.87c5.63,1.3,12.26-1.53,14.81-6.81c2.64-5.47-0.29-13.69-7.11-13.78c-2.86-0.04-6.39,1.72-7.08,4.73
	c-1.72,7.44,11.51,5.97,7.45,0.35c-0.55-0.76-1.38-1.21-2.24-1.32c1.52-1.79,4.5,1.03,5.58,2.72c2.3,3.58,2.9,9.1-1.06,11.79
	c-4.48,3.04-10.72,0.5-13.99-3.14c-7.22-8.05-2.42-23.41,9.25-23.66c11.17-0.24,19.48,12.47,18.29,22.69
	c-0.75,6.43-4.72,12.3-10.12,15.78c-5.7,3.67-12.82,4.2-18.76,0.76c-7.07-4.08-11.22-12.18-12.57-20
	c-1.45-8.37,0.2-17.54,5.76-24.17c3.74-4.45,13.2-8.35,18.95-7.93c13.68,0.99,24,17.24,27.92,28.65c2.22,6.46,2.48,13.34-0.16,19.73
	c-2.8,6.78-8.18,12.45-14.3,16.39c-5.83,3.76-12.46,5.74-19.39,5.62c-7.07-0.12-13.98-1.92-21.01-2.52
	c-6.99-0.59-14.32-0.11-20.58,3.35c-5.86,3.23-9.31,8.63-13.04,13.95c8.26-11.8,25.12-18.73,37.52-8.97
	c5.72,4.5,10.16,10.94,10.33,18.42c0.15,6.66-3.47,11.84-8.41,15.95c-2.32,1.93-4.9,3.74-7.85,4.53c-3.61,0.97-7.45,0.3-10.82-1.21
	c-10.33-4.66-15.45-20.49-6.11-28.89c2.92-2.63,7.06-3.36,10.86-2.77c8.54,1.32,14.4,9.42,12.34,17.97
	c-0.92,3.82-3.78,6.82-7.93,6.51c-3.61-0.27-7.9-3.06-8.1-7c-0.13-2.46,1.71-4.68,3.99-5.53c-1.09,1.17-1.24,2.99-0.26,4.34
	c3.82,5.28,9.39-4.47,4.07-7.33c-3.35-1.8-8.24-0.01-10.45,2.8c-2.88,3.67-1.28,8.53,1.76,11.54c3.1,3.08,7.85,4.75,12.08,3.19
	c7.93-2.91,10.19-13.65,6.19-20.42c-4.38-7.41-13.47-11.29-21.45-7.44c-6.04,2.91-11.59,11.63-10.93,18.29
	c0.7,6.98,7.21,16.15,13.84,18.43c4.64,1.6,10.25,0.51,15.22-1.77c-1.42,1.01-2.69,2.17-3.56,3.74c-1.07,1.93-1.56,4.23-1.23,6.42
	c0.48,3.22,2.92,6.29,6.17,7.01c3.03,0.67,7.33-0.71,9.11-3.37c1.83-2.75-0.2-6.69-3.13-7.65c-1.43-0.46-3.21-0.26-4.25,0.91
	c-1.62,1.81-0.44,5.34,2,5.31c1.99-0.02,3.51-2.16,2.21-3.96c-0.76-1.05-2.2-1.33-3.3-0.67c0.75-0.83,2-1.02,3.21-0.46
	c3.65,1.69,3.91,6.81-0.02,8.35c-3.9,1.52-9.66-1.64-9.93-5.92c-0.12-2,0.35-4.26,1.18-6.07c0.76-1.64,2.07-2.77,3.44-3.88
	c4.47-3.62,9.37-6.62,11.99-11.97c2.08-4.24,3.17-11.47,1.78-16.08c-1.55-5.14-4.91-9.62-9.21-12.86c7.58,1.9,15.11,3.27,23.14,1.14
	c3.33-0.88,6.8-2.8,9.87-4.35c12.09-6.11,20.45-17.2,22.26-30.87c0.49-3.67,1-7.33,2.85-10.6c1.74-3.08,4.61-5.96,8.13-6.85
	c4.21-1.06,8.61,1.26,11.49,4.22c3.84,3.95,5.33,9.95,2.1,14.75c-2.11,3.14-6.29,5.69-10.01,3.72c-3.13-1.66-5.79-6.24-3.75-9.63
	c1.17-1.95,3.64-2.82,5.82-2.4c1.97,0.38,3.65,1.92,3.49,4.04c-0.05,0.72-0.34,1.52-0.8,2.19c-0.03-0.35-0.14-0.7-0.37-1.01
	c-1.75-2.41-5.74,1.26-2.09,3.08c0.01,0.01,0.03,0.02,0.04,0.02c1.06,0.47,2.22-0.4,2.9-1.14c2.07-2.27,2.04-5.74-0.44-7.69
	c-2.28-1.79-5.67-1.92-7.91,0.01c-2.58,2.23-2.94,6.13-1.7,9.15c1.3,3.16,4.32,5.69,7.79,5.95c3.82,0.29,7.11-2.28,8.92-5.46
	c1.99-3.48,2.36-7.65,1.06-11.43c-0.34-0.98-0.76-1.94-1.26-2.87c1.04,0.26,2.08,0.45,3.15,0.36c1.57-0.12,3.06-0.78,4.32-1.71
	C285.21,31.04,287.15,26.54,286.52,22.36z M187.87,53.76c-0.4,1.26-0.96,2.46-1.36,3.72c-0.79,2.49-0.67,5.87,0.55,8.18
	c1.03,1.95,4.02,4.88,6.31,5.24c1.23,0.2,2.55-0.09,3.79-0.11c-0.62-0.15-0.77-1.17-0.75-1.69c0.1-2.81,1.38-4.54-0.12-7.35
	c-1.12-2.09-2.97-3.67-4.63-5.32c-0.61-0.6-1.23-1.2-1.85-1.78c0.2,3.53,2.53,6.9,2.4,10.39c-1.51-0.92-2.01-3.19-2.63-4.73
	c-0.76-1.86-1.29-3.8-1.55-5.79C187.98,54.26,187.93,54.01,187.87,53.76z M178.08,66.98c-0.28,0.23-0.6,0.46-0.91,0.65
	c0.88,0.08,1.83,0.03,2.74-0.17c2.18-0.48,4.15-1.8,4.5-4.1c0.1-0.65,0.05-1.28,0.04-1.94c0-0.05,0-0.12,0-0.18
	c0.02,0.87-2.58,2.74-3.18,3.16c0.17-0.26,0.32-0.53,0.49-0.79c0.42-0.65,0.79-1.33,1.15-2.02c0.23-0.45,0.6-0.79,0.83-1.23
	c0.08-0.16,0.15-0.32,0.22-0.49c-0.74,0.16-1.43,0.63-2.02,1.06C179.72,62.52,180.03,65.34,178.08,66.98z M200.67,64.53
	c0.67,0.77,1.72,2.46,2.58,2.88c-1.43-0.7-4.81-1.89-5.15-3.73c0.03,0.18,0.06,0.36,0.08,0.54c0.15,1.52,1.04,2.67,2.15,3.68
	c1.55,1.42,3.27,1.9,5.34,1.51c1.54-0.29,3.07-0.85,4.32-1.82c-3.43-0.5-4.81-3.02-7.81-4.47c-0.47-0.23-1.07-0.44-1.59-0.51
	c-0.44-0.07-0.81-0.18-1.24-0.11C199.61,63.2,200.17,63.94,200.67,64.53z M185.39,69.19c0.1-1.11,0.01-2.23-0.12-3.34
	c-0.03-0.3-0.13-0.58-0.2-0.88c-0.14,0.24-0.3,0.47-0.45,0.69c-0.21,0.33-0.45,0.64-0.57,1.03c-0.14,0.48-0.18,1.02-0.2,1.52
	c-0.05,1.21,0.39,2.68,1.41,3.42c0.49,0.36,1.13,0.62,1.73,0.63c0.06-0.97,0.48-1.89,0.58-2.88c0.09-0.93-0.21-1.71-0.65-2.52
	c-0.25-0.45-0.54-0.88-0.84-1.3c-0.01,0.35-0.02,0.69-0.05,1.04C185.95,67.48,185.46,68.39,185.39,69.19z"/>
</svg>
