<?xml version="1.0" encoding="utf-8"?>
<!-- Generator: Adobe Illustrator 15.0.1, SVG Export Plug-In  -->
<!DOCTYPE svg PUBLIC "-//W3C//DTD SVG 1.1 Tiny//EN" "http://www.w3.org/Graphics/SVG/1.1/DTD/svg11-tiny.dtd" [
	<!ENTITY ns_flows "http://ns.adobe.com/Flows/1.0/">
]>
<svg version="1.1" baseProfile="tiny"
	 xmlns="http://www.w3.org/2000/svg" xmlns:xlink="http://www.w3.org/1999/xlink" xmlns:a="http://ns.adobe.com/AdobeSVGViewerExtensions/3.0/"
	 x="0px" y="0px" width="495px" height="511px" viewBox="-0.5 -0.07 495 511" overflow="visible" xml:space="preserve">
<defs>
</defs>
<path fill="#FFFFFF" stroke="#000000" stroke-width="0.172" d="M61.69,228.71c0,0,0.1,1.89-0.72,1.88
	c-0.82-0.02-17.28-48.09-37.81-45.85C23.16,184.74,40.95,177.38,61.69,228.71z"/>
<path fill="#FFFFFF" stroke="#000000" stroke-width="0.172" d="M65.22,225.69c0,0-0.55,1.82-1.32,1.52
	c-0.77-0.3,0.11-51.1-19.95-55.98C43.95,171.23,63.18,170.37,65.22,225.69z"/>
<path fill="#FFFFFF" stroke="#000000" stroke-width="0.172" d="M92.71,268.02c0,0,1.64,0.96,1.17,1.64
	c-0.47,0.68-49.65-12.12-59.1,6.23C34.78,275.89,38.46,257,92.71,268.02z"/>
<path fill="#FFFFFF" stroke="#000000" stroke-width="0.172" d="M89.9,278.23c0,0,1.86,0.4,1.62,1.19
	c-0.23,0.79-50.94,4.13-54.13,24.53C37.4,303.95,34.94,284.87,89.9,278.23z"/>
<path fill="#FFFFFF" stroke="#000000" stroke-width="0.172" d="M85.69,272.7c0,0,1.78,0.66,1.43,1.41
	c-0.35,0.75-50.99-3.34-57.13,16.38C30,290.49,30.35,271.25,85.69,272.7z"/>
<path fill="#FFFFFF" stroke="#000000" stroke-width="0.172" d="M74.99,254.5c0,0,1.31,1.37,0.67,1.89
	c-0.64,0.52-44.38-25.33-58.53-10.29C17.13,246.1,25.87,228.96,74.99,254.5z"/>
<path fill="#FFFFFF" stroke="#000000" stroke-width="0.172" d="M67.44,258.69c0,0,1.46,1.22,0.88,1.81
	c-0.58,0.59-46.96-20.15-59.32-3.6C9.01,256.9,15.75,238.88,67.44,258.69z"/>
<path fill="#FFFFFF" stroke="#000000" stroke-width="0.172" d="M64.84,262.76c0,0,1.61,1.01,1.12,1.67
	c-0.49,0.66-49.27-13.56-59.25,4.52C6.71,268.95,10.93,250.18,64.84,262.76z"/>
<path fill="#FFFFFF" stroke="#000000" stroke-width="0.172" d="M75.58,263.38c0,0,1.12,1.53,0.42,1.97s-40.77-30.81-56.73-17.71
	C19.27,247.64,30.14,231.75,75.58,263.38z"/>
<path fill="#FFFFFF" stroke="#000000" stroke-width="0.172" d="M55.8,234.43c0,0,0.6,1.8-0.2,2c-0.8,0.2-29.4-41.8-48.6-34.2
	C7,202.23,22.2,190.43,55.8,234.43z"/>
<path fill="#FFFFFF" stroke="#000000" stroke-width="0.172" d="M56.49,241.41c0,0,0.98,1.63,0.24,2
	c-0.74,0.37-37.72-34.48-54.83-22.91C1.9,220.49,14.19,205.69,56.49,241.41z"/>
<path fill="#FFFFFF" stroke="#000000" stroke-width="0.172" d="M56.38,245.78c0,0,1.12,1.53,0.42,1.97
	c-0.7,0.43-40.77-30.81-56.73-17.71C0.07,230.04,10.94,214.15,56.38,245.78z"/>
<path fill="#FFFFFF" stroke="#000000" d="M54.17,247.49c0.5,6.05,1.49,12.62,3.23,15.74c0,0-3.6,12.4,5.2,25.6c0,0-0.4,7.2,1.2,10.4
	c0,0,4,8.4,8.8,9.2c3.88,0.65,12.61,3.72,22.47,5.12c0,0,17.13,14.08,13.93,26.88c0,0-0.4,16.4-4,18c0,0,11.6-11.2,2,5.6l-4.4,18.8
	c0,0,25.6-21.6,10-3.2l-10,26c0,0,19.6-18.4,12.4-10l-3.2,8.8c0,0,43.2-27.2,12.4,2.4c0,0,8-3.6,12.4-0.8c0,0,6.8-1.2,6,0.4
	c0,0-20.8,10.4-24.4,28.8c0,0,8.4-10,5.2,0.8l0.4,11.6c0,0,4-21.6,3.6,16c0,0,19.2-18,7.6,2.8v16.8c0,0,15.2-16.4,8.8-3.6
	c0,0,10-8.8,6,6.4c0,0-0.8,10.4,3.6-0.8c0,0,16-30.6,10-4.4c0,0-0.8,19.2,4,4.4c0,0,0.4,10.4,9.6,17.6c0,0-1.2-50.8,11.6-14.8
	l4,16.4c0,0,2.8-9.2,2.4-14.4c0,0,14.8-16.4,8,8c0,0,15.2-22.8,12-9.6c0,0-7.6,16-6,20.8c0,0,16.8-34.8,18-36.4c0,0-2,42.4,8.8,6.4
	c0,0,5.6,12,2.8,16.4c0,0,8-8,7.2-11.2c0,0,4.6-8.2,7.4,5.4c0,0,1.8,9.4,3.4,6.2c0,0,4,24,5.2,1.2c0,0,1.6-13.6-5.6-25.2
	c0,0,0.8-3.2-2-7.2c0,0,13.6,21.6,6.4-7.2c0,0,11.2,8,12.4,8c0,0-13.6-23.2-4.8-18.4c0,0-5.2-10.4,12.8,1.6c0,0-16-16,1.6-6.4
	c0,0,8,6.4,0.4-3.6c0,0-14.4-16,7.6,2c0,0,11.6,16.4,12.4,19.2c0,0-10-29.2-14.4-32c0,0,8.4-36.4,49.6-20.8c0,0,6.8,17.2,11.2-1.2
	c0,0,12.8-6.4,24,21.2c0,0,4-13.6,3.2-16.4c0,0,6.8,1.2,6,0c0,0,13.2,4.4,14.4,3.6c0,0,6.8,6.8,7.2,3.2c0,0,9.2,2.8,7.2-0.8
	c0,0,8.8,15.6,9.2,19.2l2.4-14l2,2.8c0,0,1.6-7.6,0.8-8.8c-0.8-1.2,20,6.8,24.8,27.6l2,8.4c0,0,6-14.8,4.4-18.8c0,0,5.2,0.8,5.6,5.2
	c0,0,4-23.2-0.8-29.2c0,0,4.4-0.8,5.6,2.8v-7.2c0,0,7.2,0.8,7.2-1.6c0,0,4.4-4,6.4,0.8c0,0-12.4-35.2,6-16c0,0,7.2,10.8,3.6-8
	c-3.6-18.8-7.6-20.4-2.8-20.8c0,0,0.8-3.6-1.2-5.2c-2-1.6,1.2,0,1.2,0s4.8,4-0.4-18c0,0,6.4,1.6-5.6-27.6c0,0,2.8-2.4-1.2-10.8
	c0,0,8,4.4,10.8,2.8c0,0-0.4-1.6-3.6-5.6c0,0-21.6-54.8-1.2-32.8c0,0,11.85,13.55,5.45-9.25c0,0-9.11-24.01-8.33-28.31L54.17,247.49
	z"/>
<path fill="#CC7226" stroke="#000000" d="M483.71,224.67c0.63,0.18,2.83,1.3,4.08,2.96c0,0,6.8,10.8,1.6-7.6c0,0-9.2-28.8-0.4-17.6
	c0,0,6,7.2,2.8-6.4c-3.87-16.43-6.4-22.8-6.4-22.8s11.6,4.8-15.2-34.8l8.8,3.6c0,0-19.6-39.6-41.2-44.8l-8-6c0,0,38.4-38,25.6-74.8
	c0,0-6.8-5.2-16.4,4c0,0-6.4,4.8-12.4,3.2c0,0-30.8,1.2-32.8,1.2S357-12.37,291.4,5.23c0,0-5.2,2-9.6,0.8c0,0-18.4-16-67.2,6.8
	c0,0-10,2-11.6,2s-4.4,0-12.4,6.4c-8,6.4-8.4,7.2-10.4,8.8c0,0-16.4,11.2-21.2,12c0,0-11.6,6.4-16,16.4l-3.6,1.2c0,0-1.6,7.2-2,8.4
	c0,0-4.8,3.6-5.6,9.2c0,0-8.8,6-8.4,10.4c0,0-1.6,5.2-2.4,10c0,0-7.2,4.8-6.4,7.6c0,0-7.6,14-6.4,20.8c0,0-6.4-0.4-9.2,2
	c0,0-0.8,4.8-2.4,5.2c0,0-2.8,1.2-0.4,5.2c0,0-1.6,2.8-2,4.4c0,0,0.8,2.8-3.6,8.4c0,0-6.4,18.8-4.4,24c0,0,0.4,4.8-2.4,6.4
	c0,0-3.6-0.4,4.8,11.6c0,0,0.8,1.2-2.4,3.6c0,0-17.2,3.6-19.6,20c0,0-13.6,14.8-13.6,20c0,2.31,0.27,5.45,0.97,10.06
	c0,0-0.57,8.34,27.03,9.14C108.6,256.83,483.71,224.67,483.71,224.67z"/>
<path fill="#CC7226" d="M68.4,247.03c-25-39.4-10.6,17-10.6,17c8.8,34.4,138.4-3.2,138.4-3.2s168.8-30.4,180-34.4
	s106.4,2.4,106.4,2.4l-5.6-16.8c-64.8-46.4-84-23.2-97.6-27.2c-13.6-4-11.2,5.6-14.4,6.4c-3.2,0.8-42.4-24-48.8-23.2
	c-6.4,0.8-31.74-22.95-16.8,8.8c16,34-58.4,39.2-75.2,28c-16.8-11.2,7.2,18.4,7.2,18.4c18.4,20-16,3.2-16,3.2
	c-34.4-12.8-58.4,12.8-61.6,13.6c-3.2,0.8-8,4-8.8-2.4c-0.8-6.4-8.31-23.1-40,3.2c-20,16.6-33.8-5.4-33.8-5.4L68.4,247.03z"/>
<path fill="#E87F3A" d="M317.51,169.77c-6.4,0.8-31.77-22.94-16.8,8.8c16.6,35.2-58.4,39.2-75.2,28c-16.8-11.2,7.2,18.4,7.2,18.4
	c18.4,20-16,3.2-16,3.2c-34.4-12.8-58.4,12.8-61.6,13.6c-3.2,0.8-8,4-8.8-2.4c-0.8-6.4-8.18-22.93-40,3.2
	c-21.24,17.35-34.73-4.11-34.73-4.11l-3.2,10.11c-25-39.8-9.93,18.51-9.93,18.51c8.8,34.4,139.05-4.51,139.05-4.51
	s168.8-30.4,180-34.4c11.2-4,105.53,2.33,105.53,2.33l-5.53-17.31c-64.8-46.4-83.2-22.62-96.8-26.62c-13.6-4-11.2,5.6-14.4,6.4
	C363.11,193.77,323.91,168.97,317.51,169.77z"/>
<path fill="#EA8C4D" d="M318.82,171.52c-6.4,0.8-31.13-23.23-16.8,8.8c16.2,36.2-58.4,39.2-75.2,28c-16.8-11.2,7.2,18.4,7.2,18.4
	c18.4,20-16,3.2-16,3.2c-34.4-12.8-58.4,12.8-61.6,13.6c-3.2,0.8-8,4-8.8-2.4c-0.8-6.4-8.05-22.77-40,3.2
	c-22.47,18.09-35.65-2.82-35.65-2.82l-3.6,8.62c-23.8-39-9.25,20.02-9.25,20.02c8.8,34.4,139.71-5.82,139.71-5.82
	s168.8-30.4,180-34.4c11.2-4,104.66,2.25,104.66,2.25l-5.45-17.82c-64.8-46.4-82.4-22.04-96-26.04c-13.6-4-11.2,5.6-14.4,6.4
	C364.42,195.52,325.22,170.72,318.82,171.52z"/>
<path fill="#EC9961" d="M320.13,173.27c-6.4,0.8-31.13-23.23-16.8,8.8c16.8,37.56-58.93,38.84-75.2,28c-16.8-11.2,7.2,18.4,7.2,18.4
	c18.4,20-16,3.2-16,3.2c-34.4-12.8-58.4,12.8-61.6,13.6c-3.2,0.8-8,4-8.8-2.4c-0.8-6.4-7.92-22.6-40,3.2
	c-23.71,18.84-36.58-1.53-36.58-1.53l-4,7.13c-21.8-36.8-8.58,21.53-8.58,21.53c8.8,34.4,140.36-7.13,140.36-7.13
	s168.8-30.4,180-34.4c11.2-4,103.78,2.18,103.78,2.18l-5.38-18.33c-64.8-46.4-81.6-21.45-95.2-25.45c-13.6-4-11.2,5.6-14.4,6.4
	C365.73,197.27,326.52,172.47,320.13,173.27z"/>
<path fill="#EEA575" d="M321.44,175.01c-6.4,0.8-30.62-23.45-16.8,8.8c16.8,39.2-58.4,39.2-75.2,28c-16.8-11.2,7.2,18.4,7.2,18.4
	c18.4,20-16,3.2-16,3.2c-34.4-12.8-58.4,12.8-61.6,13.6c-3.2,0.8-8,4-8.8-2.4c-0.8-6.4-7.78-22.43-40,3.2
	c-24.95,19.58-37.51-0.24-37.51-0.24l-4.4,5.64c-19.8-34.8-7.91,23.04-7.91,23.04c8.8,34.4,141.02-8.44,141.02-8.44
	s168.8-30.4,180-34.4c11.2-4,102.91,2.11,102.91,2.11l-5.31-18.84c-64.8-46.4-80.8-20.87-94.4-24.87c-13.6-4-11.2,5.6-14.4,6.4
	C367.04,199.01,327.84,174.21,321.44,175.01z"/>
<path fill="#F1B288" d="M322.74,176.76c-6.4,0.8-32.36-22.65-16.8,8.8c19.2,38.8-58.4,39.2-75.2,28c-16.8-11.2,7.2,18.4,7.2,18.4
	c18.4,20-16,3.2-16,3.2c-34.4-12.8-58.4,12.8-61.6,13.6c-3.2,0.8-8,4-8.8-2.4c-0.8-6.4-7.65-22.26-40,3.2
	c-26.18,20.33-38.44,1.05-38.44,1.05l-4.8,4.15c-18-33.2-7.24,24.55-7.24,24.55c8.8,34.4,141.67-9.75,141.67-9.75
	s168.8-30.4,180-34.4s102.04,2.04,102.04,2.04l-5.24-19.35c-64.8-46.4-80-20.29-93.6-24.29s-11.2,5.6-14.4,6.4
	C368.35,200.76,329.14,175.96,322.74,176.76z"/>
<path fill="#F3BF9C" d="M324.05,178.5c-6.4,0.8-32.74-22.46-16.8,8.8c20.4,40-58.4,39.2-75.2,28c-16.8-11.2,7.2,18.4,7.2,18.4
	c18.4,20-16,3.2-16,3.2c-34.4-12.8-58.4,12.8-61.6,13.6c-3.2,0.8-8,4-8.8-2.4c-0.8-6.4-7.52-22.1-40,3.2
	c-27.42,21.07-39.36,2.34-39.36,2.34l-5.2,2.66c-16-30.2-6.56,26.05-6.56,26.05c8.8,34.4,142.33-11.05,142.33-11.05
	s168.8-30.4,180-34.4s101.16,1.96,101.16,1.96l-5.16-19.85c-64.8-46.4-79.2-19.71-92.8-23.71c-13.6-4-11.2,5.6-14.4,6.4
	C369.65,202.5,330.45,177.7,324.05,178.5z"/>
<path fill="#F5CCB0" d="M325.36,180.25c-6.4,0.8-33.84-21.88-16.8,8.8c22,39.6-58.4,39.2-75.2,28c-16.8-11.2,7.2,18.4,7.2,18.4
	c18.4,20-16,3.2-16,3.2c-34.4-12.8-58.4,12.8-61.6,13.6c-3.2,0.8-8,4-8.8-2.4c-0.8-6.4-7.39-21.93-40,3.2
	c-28.66,21.82-40.29,3.64-40.29,3.64l-5.6,1.16c-14.4-28.4-5.89,27.56-5.89,27.56c8.8,34.4,142.98-12.36,142.98-12.36
	s168.8-30.4,180-34.4s100.29,1.89,100.29,1.89l-5.09-20.36c-64.8-46.4-78.4-19.13-92-23.13c-13.6-4-11.2,5.6-14.4,6.4
	C370.96,204.25,331.76,179.45,325.36,180.25z"/>
<path fill="#F8D8C4" d="M326.67,181.99c-6.4,0.8-33.84-21.88-16.8,8.8c22,39.6-58.4,39.2-75.2,28c-16.8-11.2,7.2,18.4,7.2,18.4
	c18.4,20-16,3.2-16,3.2c-34.4-12.8-58.4,12.8-61.6,13.6c-3.2,0.8-8,4-8.8-2.4c-0.8-6.4-7.26-21.76-40,3.2
	c-29.89,22.56-41.22,4.93-41.22,4.93l-6-0.33c-13.6-26.4-5.22,29.07-5.22,29.07c8.8,34.4,143.64-13.67,143.64-13.67
	s168.8-30.4,180-34.4c11.2-4,99.42,1.82,99.42,1.82l-5.02-20.87c-64.8-46.4-77.6-18.54-91.2-22.54c-13.6-4-11.2,5.6-14.4,6.4
	C372.27,205.99,333.07,181.19,326.67,181.99z"/>
<path fill="#FAE5D7" d="M327.98,183.74c-6.4,0.8-33.45-22.09-16.8,8.8c22,40.8-58.4,39.2-75.2,28c-16.8-11.2,7.2,18.4,7.2,18.4
	c18.4,20-16,3.2-16,3.2c-34.4-12.8-58.4,12.8-61.6,13.6c-3.2,0.8-8,4-8.8-2.4c-0.8-6.4-7.13-21.59-40,3.2
	c-31.13,23.31-42.15,6.22-42.15,6.22l-6.4-1.82c-13-24-4.54,30.58-4.54,30.58c8.8,34.4,144.29-14.98,144.29-14.98
	s168.8-30.4,180-34.4c11.2-4,98.55,1.75,98.55,1.75l-4.95-21.38c-64.8-46.4-76.8-17.96-90.4-21.96c-13.6-4-11.2,5.6-14.4,6.4
	C373.58,207.74,334.38,182.94,327.98,183.74z"/>
<path fill="#FCF2EB" d="M329.29,185.48c-6.4,0.8-32.38-22.64-16.8,8.8c21.2,42.8-58.4,39.2-75.2,28c-16.8-11.2,7.2,18.4,7.2,18.4
	c18.4,20-16,3.2-16,3.2c-34.4-12.8-58.4,12.8-61.6,13.6c-3.2,0.8-8,4-8.8-2.4c-0.8-6.4-7-21.42-40,3.2
	c-32.36,24.05-43.07,7.51-43.07,7.51l-6.8-3.31c-12.8-23.2-3.87,32.09-3.87,32.09c8.8,34.4,144.95-16.29,144.95-16.29
	s168.8-30.4,180-34.4s97.67,1.67,97.67,1.67l-4.87-21.89c-64.8-46.4-76-17.38-89.6-21.38c-13.6-4-11.2,5.6-14.4,6.4
	C374.89,209.48,335.69,184.68,329.29,185.48z"/>
<path fill="#FFFFFF" d="M68.2,264.03c-12.8-22-3.2,33.6-3.2,33.6c8.8,34.4,145.6-17.6,145.6-17.6s168.8-30.4,180-34.4
	s96.8,1.6,96.8,1.6l-4.8-22.4c-64.8-46.4-75.2-16.8-88.8-20.8c-13.6-4-11.2,5.6-14.4,6.4c-3.2,0.8-42.4-24-48.8-23.2
	c-6.4,0.8-31.62-23.01-16.8,8.8c22.23,47.71-60.76,37.63-75.2,28c-16.8-11.2,7.2,18.4,7.2,18.4c18.4,20-16,3.2-16,3.2
	c-34.4-12.8-58.4,12.8-61.6,13.6c-3.2,0.8-8,4-8.8-2.4c-0.8-6.4-6.86-21.26-40,3.2c-33.6,24.8-44,8.8-44,8.8L68.2,264.03z"/>
<path d="M109.8,294.03c0,0-7.2,11.6,13.6,24.8c0,0,1.4,1.4-16.6-2.8c0,0-6.2-2-7.8-12.4c0,0-4.8-4.4-9.6-10
	C84.6,288.03,109.8,294.03,109.8,294.03z"/>
<path fill="#CCCCCC" d="M249.8,246.43c0,0,17.7,26.82,17.1,31.6c-1.3,10.4-1.5,20,1.7,24c3.2,4,12,37.2,12,37.2s-0.4,1.2,12-36.8
	c0,0,11.6-16-8.4-34.4C284.2,268.03,249,239.23,249.8,246.43z"/>
<path d="M129.8,320.83c0,0,11.2,7.2-3.2,38.4l6.4-2.4c0,0-0.8,11.2-4,13.6l7.2-3.2c0,0,4.8,8,0.8,12.8c0,0,16.8,8,16,14.4
	c0,0,6.4-8,2.4-14.4c-4-6.4-11.2-2.4-10.4-20.8l-8.8,3.2c0,0,5.6-8.8,5.6-15.2l-8,2.4c0,0,15.47-26.58,4.8-28
	C132.6,320.83,129.8,320.83,129.8,320.83z"/>
<path fill="#CCCCCC" d="M162.2,337.63c0,0,2.8-4.4,0-3.6c-2.8,0.8-34,15.6-40,25.2C122.2,359.23,156.6,334.83,162.2,337.63z"/>
<path fill="#CCCCCC" d="M172.6,345.63c0,0,2.8-4.4,0-3.6c-2.8,0.8-34,15.6-40,25.2C132.6,367.23,167,342.83,172.6,345.63z"/>
<path fill="#CCCCCC" d="M185.8,330.43c0,0,2.8-4.4,0-3.6c-2.8,0.8-34,15.6-40,25.2C145.8,352.03,180.2,327.63,185.8,330.43z"/>
<path fill="#CCCCCC" d="M162.6,374.03c0,0,0-6-2.8-5.2c-2.8,0.8-38.8,18.4-44.8,28C115,396.83,157,371.23,162.6,374.03z"/>
<path fill="#CCCCCC" d="M163.8,363.23c0,0,1.2-4.8-1.6-4c-2,0-28.4,11.6-34.4,21.2C127.8,380.43,157.4,358.83,163.8,363.23z"/>
<path fill="#CCCCCC" d="M149.4,410.83l-10,7.6c0,0,10.4-7.6,14-6.4c0,0-6.8,11.2-7.6,16.4c0,0,10.4-12.8,16-12.4
	c0,0,7.6,0.4,7.6,11.2c0,0,5.6-10.4,8.8-10c0,0,1.2,6.4,0,13.2c0,0,4-7.6,8-6c0,0,6.4-2,5.6,9.6c0,0,0,10.4-0.8,13.2
	c0,0,5.6-26.4,8-26.8c0,0,8-1.2,12.8,7.6c0,0-4-7.6,0.8-5.6c0,0,10.8,1.6,14,8.4c0,0-6.8-12-1.2-8.8c0,0,6.8,0,8,6.4
	c0,0,8.4,21.2,10.4,22.8c0,0-7.6-21.6-6-21.6c0,0-2-12,3.2,2.8c0,0-3.2-14,2.4-13.2s10,10.8,18.4,8.4c0,0,9.6,5.6,11.6-63.6
	L149.4,410.83z"/>
<path d="M154.2,318.03c0,0,14.8-6,54.8,0c0,0,7.2,0.4,14-8.4s33.6-16,40-14l9.6,6.4l0.8,1.2c0,0,12.4,10.4,12.8,18
	c0.4,7.6-14.4,55.6-24,71.6s-19.2,28.4-38.4,26c0,0-20.8-4-46.4,0c0,0-29.2-1.6-32-9.6c-2.8-8,11.2-23.2,11.2-23.2s4.4-8.4,3.2-22.8
	C158.6,348.83,159,320.83,154.2,318.03z"/>
<path fill="#E5668C" d="M176.2,320.03c8.4,18.4-21.2,83.6-21.2,83.6c-2,1.6,12.66,7.64,22.8,5.2c10.95-2.64,51.2,1.6,51.2,1.6
	c23.6-15.6,36.4-60,36.4-60s10.4-24-7.2-27.2C240.6,320.03,176.2,320.03,176.2,320.03z"/>
<path fill="#B23259" d="M174.17,350.93c3.33-12.79,4.91-24.59,2.03-30.9c0,0,62.4,6.4,73.6-14.4c4.24-7.88,19,22.8,18.6,32.4
	c0,0-63,14.4-77.8,3.2L174.17,350.93z"/>
<path fill="#A5264C" d="M178.6,367.23c0,0,2,7.2-0.4,11.2c0,0-1.6,0.8-2.8,1.2c0,0,1.2,3.6,7.2,5.2c0,0,2,4.4,4.4,4.8
	c2.4,0.4,7.2,6,11.2,4.8s15.2-5.2,15.2-5.2s5.6-3.2,14.4,0.4c0,0,2.38-0.8,2.8-4.8c0.5-4.7,3.6-8.4,5.6-10.4s11.6-14.8,10.4-15.2
	C245.4,358.83,178.6,367.23,178.6,367.23z"/>
<path fill="#FF727F" stroke="#000000" d="M174.2,318.83c0,0-2.8,22.4,0.4,30.8c3.2,8.4,2.4,10.4,1.6,14.4c-0.8,4,3.6,14,9.2,20
	l12,1.6c0,0,15.2-3.6,24.4-0.8c0,0,8.99,1.34,12.4-13.6c0,0,4.8-6.4,12-9.2c7.2-2.8,14.4-44.4,10.4-52.4s-18.4-12.4-34.4,3.2
	C206.2,328.43,204.2,311.63,174.2,318.83z"/>
<path fill="#FFFFCC" stroke="#000000" stroke-width="0.5" d="M175.8,393.63c0,0-0.8-2-5.2-2.4c0,0-22.4-3.6-30.8-16
	c0,0-6.8-5.6-2.4,6c0,0,10.4,20.4,17.2,23.2C154.6,404.43,171,408.43,175.8,393.63z"/>
<path fill="#CC3F4C" d="M255.74,329.66c0.66-7.91,2.61-16.52,0.86-20.03c-6.45-12.89-23.42-7.51-34.4,3.2c-16,15.6-18-1.2-48,6
	c0,0-1.75,13.96-0.91,23.97c0,0,37.31-11.58,38.1-5.97c0,0,1.6-3.2,10.8-3.2C231.4,333.63,254.14,332.46,255.74,329.66z"/>
<path fill="none" stroke="#A51926" stroke-width="2" d="M212.6,319.63c0,0,4.8,4.8,1.2,14.4c0,0-14.4,16-12.4,30"/>
<path fill="#FFFFCC" stroke="#000000" stroke-width="0.5" d="M164.6,404.43c0,0-4.4-12.8,4.4-6c0,0,4.8,2,3.6,3.6
	C171.4,403.63,165.8,407.63,164.6,404.43z"/>
<path fill="#FFFFCC" stroke="#000000" stroke-width="0.5" d="M169.64,405.63c0,0-3.52-10.24,3.52-4.8c0,0,4.42,2.45,2.88,2.88
	C171.48,404.99,176.04,407.55,169.64,405.63z"/>
<path fill="#FFFFCC" stroke="#000000" stroke-width="0.5" d="M174.44,405.63c0,0-3.52-10.24,3.52-4.8c0,0,4.38,2.31,2.88,2.88
	C177.48,404.99,180.84,407.55,174.44,405.63z"/>
<path fill="#FFFFCC" stroke="#000000" stroke-width="0.5" d="M181.04,405.83c0,0-3.52-10.24,3.52-4.8c0,0,4.38,2.33,2.88,2.88
	C184.48,404.99,187.44,407.75,181.04,405.83z"/>
<path fill="#FFFFCC" stroke="#000000" stroke-width="0.5" d="M187.52,405.75c0,0-3.52-10.24,3.52-4.8c0,0,3.84,1.6,2.88,2.88
	C192.96,405.11,193.92,407.67,187.52,405.75z"/>
<path fill="#FFFFCC" stroke="#000000" stroke-width="0.5" d="M194.2,406.43c0,0-4.8-12.4,4.4-6c0,0,4.8,2,3.6,3.6
	C201,405.63,202.2,408.83,194.2,406.43z"/>
<path fill="none" stroke="#A5264C" stroke-width="2" d="M165.8,389.23c0,0,13.2-2.8,19.2,0.4c0,0,6,1.2,7.2,0.8
	c1.2-0.4,4.4-0.8,4.4-0.8"/>
<path fill="none" stroke="#A5264C" stroke-width="2" d="M199.8,398.03c0,0,12-13.6,24-9.2c7.02,2.57,6-0.8,6.8-3.6c0.8-2.8,1-7,6-10
	"/>
<path fill="#FFFFCC" stroke="#000000" stroke-width="0.5" d="M217,382.03c0,0-4-10.8-6.8,2c-2.8,12.8-6,16.4-7.6,19.2
	c0,0,0,5.2,8.4,4.8c0,0,10.8-0.4,11.2-3.2C222.6,402.03,221,390.43,217,382.03z"/>
<path fill="none" stroke="#A5264C" stroke-width="2" d="M231,389.23c0,0,3.6-2.4,6-1.2"/>
<path fill="none" stroke="#A5264C" stroke-width="2" d="M237.5,372.83c0,0,2.9-4.9,7.7-5.7"/>
<path fill="#B2B2B2" d="M158.2,409.63c0,0,18,3.2,22.4,1.6c0,0,8.8,0,0.4,2c0,0-12.8,0-20.8-1.2
	C160.2,412.03,148.6,406.43,158.2,409.63z"/>
<path fill="#FFFFCC" stroke="#000000" stroke-width="0.5" d="M172.2,316.43c0,0,17.6,0,19.6,0.8c0,0,7.2,30.8,3.6,38.4
	c0,0-1.2,2.8-4-2.8c0,0-18.4-32.8-21.6-34.8C166.6,316.03,171,316.43,172.2,316.43z"/>
<path fill="#FFFFCC" stroke="#000000" stroke-width="0.5" d="M95.1,313.73c0,0,8.9,1.7,21.5,4.3c0,0,4.8,22.4,8,27.2
	c3.2,4.8-0.4,4.8-4,2s-18.4-16.8-20.4-21.2C98.2,321.63,95.1,313.73,95.1,313.73z"/>
<path fill="#FFFFCC" stroke="#000000" stroke-width="0.5" d="M116.96,318.25c0,0,5.8,1.55,6.81,3.76c1.01,2.21-1.2,5.51-1.2,5.51
	s-1,3.31-2.2,1.14C119.16,326.5,116.29,318.84,116.96,318.25z"/>
<path d="M117,318.03c0,0,3.6,5.2,7.2,5.2c3.6,0,3.98-0.41,6.8,0.2c4.6,1,4.2-1,10.8,0.2c2.64,0.48,5.2-0.4,8,0.8
	c2.8,1.2,6,0.4,7.2-1.6s6-6.2,6-6.2s-12.8,1.8-15.6,2.6C147.4,319.23,125,320.43,117,318.03z"/>
<path fill="#FFFFCC" stroke="#000000" stroke-width="0.5" d="M161.6,318.23c0,0-6.45,3.5-6.85,5.9c-0.4,2.4,5.25,6.1,5.25,6.1
	s2.75,4.6,3.35,2.2S162.4,318.63,161.6,318.23z"/>
<path fill="#FFFFCC" stroke="#000000" stroke-width="0.5" d="M124.11,323.69c0,0,7.01,11.19,7.22-0.02c0,0,0.56-1.26-1.2-1.28
	C124.06,322.31,125.58,318.21,124.11,323.69z"/>
<path fill="#FFFFCC" stroke="#000000" stroke-width="0.5" d="M131.29,323.94c0,0,7.92,11.19,7.29-0.09c0,0,0.01-0.33-1.75-0.49
	C132.08,322.95,132.43,318.43,131.29,323.94z"/>
<path fill="#FFFFCC" stroke="#000000" stroke-width="0.5" d="M138.5,323.95c0,0,7.96,10.63,7.29,0.96c0,0,0.12-1.23-1.53-1.53
	C140.37,322.67,140.16,319.42,138.5,323.95z"/>
<path fill="#FFFFCC" stroke="#000000" stroke-width="0.5" d="M145.38,324.03c0,0,7.9,11.56,8.25,1.78c0,0,1.64-1.38-0.1-1.6
	C147.71,323.47,148.51,319.02,145.38,324.03z"/>
<path fill="#E5E5B2" d="M109.21,327.56l-7.66-1.53c-2.6-5-4.7-11.15-4.7-11.15s6.35,1,18.85,3.8c0,0,0.88,3.32,2.35,9.11
	L109.21,327.56z"/>
<path fill="#E5E5B2" d="M174.27,322.9c-1.67-2.51-2.98-4.26-3.63-4.67c-3.01-1.88,1.13-1.51,2.26-1.51c0,0,16.57,0,18.45,0.75
	c0,0,0.52,2.24,1.21,5.63C192.56,323.11,182.47,321.1,174.27,322.9z"/>
<path fill="#CC7226" d="M227.88,184.75c27.72,3.96,53.24-31.68,55-41.36c1.76-9.68-8.36-21.56-8.36-21.56
	c1.32-3.08-3.52-17.16-8.8-26.4c-5.28-9.24-21.18-8.27-38.72-9.24c-15.84-0.88-34.32,22.44-35.64,24.2
	c-1.32,1.76,4.84,40.04,6.16,45.76c1.32,5.72-1.32,32.12-1.32,32.12C230.44,179.17,200.16,180.79,227.88,184.75z"/>
<path fill="#EA8E51" d="M192.09,111.04c-1.3,1.73,4.75,39.31,6.05,44.93c1.3,5.62-1.3,31.54-1.3,31.54
	c32.67-8.88,3.89-7.34,31.1-3.46c27.22,3.89,52.27-31.1,54-40.61c1.73-9.5-8.21-21.17-8.21-21.17c1.3-3.02-3.46-16.85-8.64-25.92
	c-5.18-9.07-20.8-8.11-38.02-9.07C211.53,86.41,193.38,109.31,192.09,111.04z"/>
<path fill="#EFAA7C" d="M192.81,111.68c-1.27,1.7,4.66,38.58,5.94,44.1s-1.27,30.95-1.27,30.95c31.4-9.16,3.82-7.21,30.53-3.39
	c26.71,3.82,51.3-30.53,53-39.86c1.7-9.33-8.06-20.78-8.06-20.78c1.27-2.97-3.39-16.54-8.48-25.44c-5.09-8.9-20.41-7.96-37.31-8.9
	C211.89,87.52,194.09,109.99,192.81,111.68z"/>
<path fill="#F4C6A8" d="M193.54,112.33c-1.25,1.66,4.58,37.86,5.82,43.27s-1.25,30.37-1.25,30.37c29.44-9.04,3.74-7.07,29.95-3.33
	c26.21,3.74,50.34-29.95,52-39.1c1.66-9.15-7.9-20.38-7.9-20.38c1.25-2.91-3.33-16.22-8.32-24.96c-4.99-8.74-20.03-7.81-36.61-8.74
	C212.26,88.62,194.79,110.67,193.54,112.33z"/>
<path fill="#F9E2D3" d="M194.27,112.98c-1.22,1.63,4.49,37.13,5.71,42.43c1.22,5.3-1.22,29.78-1.22,29.78
	c27.87-8.92,3.67-6.94,29.38-3.26c25.7,3.67,49.37-29.38,51-38.35c1.63-8.98-7.75-19.99-7.75-19.99c1.22-2.86-3.26-15.91-8.16-24.48
	c-4.9-8.57-19.64-7.67-35.9-8.57C212.63,89.72,195.49,111.35,194.27,112.98z"/>
<path fill="#FFFFFF" d="M228.2,181.23c25.2,3.6,48.4-28.8,50-37.6c1.6-8.8-7.6-19.6-7.6-19.6c1.2-2.8-3.2-15.6-8-24
	c-4.8-8.4-19.25-7.51-35.2-8.4c-14.4-0.8-31.2,20.4-32.4,22c-1.2,1.6,4.4,36.4,5.6,41.6c1.2,5.2-1.2,29.2-1.2,29.2
	C224.9,175.83,203,177.63,228.2,181.23z"/>
<path fill="#CCCCCC" d="M274.6,147.23c0,0-27.8,7.6-39.4,6c0,0-15.8-6.6-24.6,15.2c0,0-3.6,7.2-5.6,9.2S274.6,147.23,274.6,147.23z"
	/>
<path d="M278.4,145.03c0,0-29,12.2-39,11.8c0,0-16.4-4.6-24.8,10c0,0-8.4,9.2-11.6,10.8c0,0-0.4,1.6,6-2.4l10.4,5.2
	c0,0,14.8,9.6,24.4-6.4c0,0,4-11.2,4-13.2s21.2-7.6,22.8-8C272.2,152.43,278.8,148.23,278.4,145.03z"/>
<path fill="#99CC32" d="M231,180.94c-6.87,0-15.25-3.87-15.25-10.11c0-6.25,8.37-12.51,15.25-12.51c6.87,0,12.45,5.06,12.45,11.31
	C243.44,175.88,237.87,180.94,231,180.94z"/>
<path fill="#659900" d="M227.37,164.26c-4.85,0.72-9.94,2.23-9.86,2.01c1.54-4.62,7.9-7.95,13.49-7.95c4.3,0,8.08,1.98,10.32,4.99
	C241.32,163.3,236,162.97,227.37,164.26z"/>
<path fill="#FFFFFF" d="M239.4,164.03c0,0-4.4-3.2-4.4-1C235,163.03,238.6,167.43,239.4,164.03z"/>
<path d="M229.4,172.15c-2.5,0-4.52-2.03-4.52-4.53c0-2.5,2.03-4.53,4.52-4.53c2.5,0,4.53,2.03,4.53,4.53
	C233.92,170.13,231.9,172.15,229.4,172.15z"/>
<path fill="#CC7226" d="M125.4,158.83c0,0-3.2-21.2-0.8-25.6c0,0,10.8-10,10.4-13.6c0,0-0.4-18-1.6-18.8c-1.2-0.8-8.8-6.8-14.8-0.4
	c0,0-10.4,18-9.6,24.4v2c0,0-7.6-0.4-9.2,1.6c0,0-1.2,5.2-2.4,5.6c0,0-2.8,2.4-0.8,5.2c0,0-2,2.4-1.6,6.4l7.6,4
	c0,0,2,14.4,12.8,19.6C120.23,171.56,123.4,164.83,125.4,158.83z"/>
<path fill="#FFFFFF" d="M124.4,156.99c0,0-2.88-19.08-0.72-23.04c0,0,9.72-9,9.36-12.24c0,0-0.36-16.2-1.44-16.92
	c-1.08-0.72-7.92-6.12-13.32-0.36c0,0-9.36,16.2-8.64,21.96v1.8c0,0-6.84-0.36-8.28,1.44c0,0-1.08,4.68-2.16,5.04
	c0,0-2.52,2.16-0.72,4.68c0,0-1.8,2.16-1.44,5.76l6.84,3.6c0,0,1.8,12.96,11.52,17.64C119.75,168.44,122.6,162.39,124.4,156.99z"/>
<path fill="#EB955C" d="M132.95,101.82c-1.09-0.86-8.58-6.63-14.43-0.39c0,0-10.14,17.55-9.36,23.79v1.95c0,0-7.41-0.39-8.97,1.56
	c0,0-1.17,5.07-2.34,5.46c0,0-2.73,2.34-0.78,5.07c0,0-1.95,2.34-1.56,6.24l7.41,3.9c0,0,1.95,14.04,12.48,19.11
	c4.71,2.27,7.8-4.29,9.75-10.14c0,0-3.12-20.67-0.78-24.96c0,0,10.53-9.75,10.14-13.26C134.51,120.15,134.12,102.6,132.95,101.82z"
	/>
<path fill="#F2B892" d="M132.5,102.81c-0.98-0.92-8.36-6.46-14.06-0.38c0,0-9.88,17.1-9.12,23.18v1.9c0,0-7.22-0.38-8.74,1.52
	c0,0-1.14,4.94-2.28,5.32c0,0-2.66,2.28-0.76,4.94c0,0-1.9,2.28-1.52,6.08l7.22,3.8c0,0,1.9,13.68,12.16,18.62
	c4.59,2.21,7.6-4.18,9.5-9.88c0,0-3.04-20.14-0.76-24.32c0,0,10.26-9.5,9.88-12.92C134.02,120.67,133.64,103.57,132.5,102.81z"/>
<path fill="#F8DCC8" d="M132.05,103.8c-0.87-0.98-8.14-6.29-13.69-0.37c0,0-9.62,16.65-8.88,22.57v1.85c0,0-7.03-0.37-8.51,1.48
	c0,0-1.11,4.81-2.22,5.18c0,0-2.59,2.22-0.74,4.81c0,0-1.85,2.22-1.48,5.92l7.03,3.7c0,0,1.85,13.32,11.84,18.13
	c4.47,2.15,7.4-4.07,9.25-9.62c0,0-2.96-19.61-0.74-23.68c0,0,9.99-9.25,9.62-12.58C133.53,121.19,133.16,104.54,132.05,103.8z"/>
<path fill="#FFFFFF" d="M124.4,156.89c0,0-2.88-18.98-0.72-22.94c0,0,9.72-9,9.36-12.24c0,0-0.36-16.2-1.44-16.92
	c-0.76-1.04-7.92-6.12-13.32-0.36c0,0-9.36,16.2-8.64,21.96v1.8c0,0-6.84-0.36-8.28,1.44c0,0-1.08,4.68-2.16,5.04
	c0,0-2.52,2.16-0.72,4.68c0,0-1.8,2.16-1.44,5.76l6.84,3.6c0,0,1.8,12.96,11.52,17.64C119.75,168.44,122.6,162.29,124.4,156.89z"/>
<path fill="#CCCCCC" d="M121.3,150.63c0,0-21.6-10.2-22.5-11c0,0,9.1,8.2,9.9,8.2C109.5,147.83,121.3,150.63,121.3,150.63z"/>
<path d="M104.2,144.43c0,0,18.4,3.6,18.4,8c0,2.91-0.24,16.33-5.6,14.8C108.6,164.83,112.2,150.43,104.2,144.43z"/>
<path fill="#99CC32" d="M112.6,148.23c0,0,8.98,1.47,10,4.2c0.6,1.6,1.26,9.91-4.2,11C113.85,164.34,111.62,154.12,112.6,148.23z"/>
<path d="M198.59,190.78c-0.5-1.74,0.81-1.61,2.6-2.15c2-0.6,14.2-4.4,15-7c0.8-2.6,14,1.8,14,1.8c1.8,0.8,6.2,3.4,6.2,3.4
	c4.8,1.2,11.4,1.6,11.4,1.6c2.4,1,5.8,3.8,5.8,3.8c14.6,10.2,27,3,27,3c20-6.6,14-23.8,14-23.8c-3-9,0.2-12.4,0.2-12.4
	c0.2-3.8,7.4,2.6,7.4,2.6c2.6,4.2,3.4,9.2,3.4,9.2c8,11.2,4.6-6.6,4.6-6.6c0.2-1-2.6-4.6-2.6-5.8s-1.8-4.6-1.8-4.6
	c-3-3.4-0.6-10.4-0.6-10.4c1.8-13.8-0.4-12-0.4-12c-1.2-1.8-10.4,8.2-10.4,8.2c-2.2,3.4-8.2,5-8.2,5c-2.8,1.8-6.2,0.4-6.2,0.4
	c-2.6-0.4-8.2,6.6-8.2,6.6c2.8-0.2,5.2,4.2,7.6,4.4c2.4,0.2,4.2-2.4,5.8-3s4.4,5.2,4.4,5.2c0.4,2.6-5.2,7.4-5.2,7.4
	c-0.4,4.6-2,3-2,3c-3-0.6-4.2,3.2-5.2,7.8s-5.2,5-5.2,5c-1.6,7.4-2.8,4.4-2.8,4.4c-0.2-5.6-6.2,0.2-6.2,0.2c-1.2,2-5.8-0.2-5.8-0.2
	c-6.8-2-4.4-4-4.4-4c1.8-2.2,13,0,13,0c2.2-1.6-5.8-5.6-5.8-5.6c-0.6-1.8,0.4-6.2,0.4-6.2c1.2-3.2,8-8.8,8-8.8
	c9.4-1.2,6.6-2.8,6.6-2.8c-6.2-5.2-12,2.4-12,2.4c-2.2,6.2-19.6,21.2-19.6,21.2c-4.8,3.4-2.2-3.4-6.2,0s-24.6-5.6-24.6-5.6
	c-11.56-1.19-14.29,14.55-17.82,11.43C194.77,187.86,200.19,196.38,198.59,190.78z"/>
<path d="M393.4,24.43c0,0-25.6,8-28.4,26.8c0,0-2.4,22.8,18,40.4c0,0,0.4,6.4,2.4,9.6c0,0-1.6,4.8,17.2-2.8l27.2-8.4
	c0,0,6.4-2.4,11.6-11.2c5.2-8.8,20.4-27.6,16.8-52.8c0,0,1.2-11.2-4.8-11.6c0,0-8.4-1.6-15.6,6c0,0-6.8,3.2-9.2,2.8L393.4,24.43z"/>
<path d="M448.02,23.44c0,0,2.1-8.93-2.74-4.09c0,0-7.04,5.72-14.52,5.72c0,0-14.52,2.2-18.92,15.4c0,0-3.96,26.84,3.96,32.56
	c0,0,4.84,7.48,11.88,0.88C434.72,67.31,450.22,37.08,448.02,23.44z"/>
<path fill="#323232" d="M447.65,23.8c0,0,2.09-8.74-2.66-3.99c0,0-6.91,5.62-14.26,5.62c0,0-14.26,2.16-18.58,15.12
	c0,0-3.89,26.35,3.89,31.97c0,0,4.75,7.34,11.66,0.86C434.62,66.89,449.81,37.19,447.65,23.8z"/>
<path fill="#666666" d="M447.27,24.15c0,0,2.08-8.56-2.58-3.89c0,0-6.78,5.51-13.99,5.51c0,0-13.99,2.12-18.23,14.84
	c0,0-3.82,25.86,3.82,31.38c0,0,4.66,7.21,11.45,0.85C434.51,66.48,449.39,37.3,447.27,24.15z"/>
<path fill="#999999" d="M446.9,24.51c0,0,2.07-8.37-2.51-3.8c0,0-6.66,5.41-13.73,5.41c0,0-13.73,2.08-17.89,14.56
	c0,0-3.74,25.38,3.74,30.78c0,0,4.58,7.07,11.23,0.83C434.41,66.06,448.98,37.41,446.9,24.51z"/>
<path fill="#CCCCCC" d="M446.52,24.87c0,0,2.06-8.19-2.43-3.7c0,0-6.53,5.3-13.46,5.3c0,0-13.46,2.04-17.54,14.28
	c0,0-3.67,24.89,3.67,30.19c0,0,4.49,6.94,11.02,0.82C434.3,65.64,448.56,37.52,446.52,24.87z"/>
<path fill="#FFFFFF" d="M446.15,25.23c0,0,2.05-8-2.35-3.6c0,0-6.4,5.2-13.2,5.2c0,0-13.2,2-17.2,14c0,0-3.6,24.4,3.6,29.6
	c0,0,4.4,6.8,10.8,0.8C434.2,65.23,448.15,37.63,446.15,25.23z"/>
<path fill="#992600" d="M234.6,228.43c0,0-20.4-19.2-28.4-20c0,0-34.4-4-49.2,14c0,0,17.6-20.4,45.2-14.8c0,0-21.6-4.4-34-1.2
	c0,0-16.8,0-26.4,14l-2.8,4.8c0,0,4-14.8,22.4-20.8c0,0,22.8-4.8,33.6,0c0,0-21.6-6.8-31.6-4.8c0,0-30.4-2.4-43.2,24
	c0,0,4-14.4,18.8-21.6c0,0,13.6-8.8,34-6c0,0,14.4,3.2,19.6,5.6c5.2,2.4,4-0.4-4.4-5.2c0,0-5.6-10-19.6-9.6c0,0-42.8,3.6-53.2,15.6
	c0,0,13.6-11.2,24-14c0,0,22.4-8,30.8-7.2c0,0,24.8,1,32.4-3c0,0-11.2,5-8,8.2c3.2,3.2,10,10.8,10,12s24.2,23.3,27.8,27.7
	L234.6,228.43z"/>
<path fill="#CCCCCC" d="M373,422.43c0,0-15.5-36.5-28-46c0,0,26,16,29.5,34C374.5,410.43,374.5,420.43,373,422.43z"/>
<path fill="#CCCCCC" d="M420,429.93c0,0-26.5-55-45-79c0,0,43.5,37.5,48.5,64l0.5,5.5l-3-2.5C421,417.93,420.5,426.93,420,429.93z"
	/>
<path fill="#CCCCCC" d="M476.5,381.43c0,0-62.5-59.5-64-62c0,0,60.5,66,63.5,73.5C476,392.93,474,383.93,476.5,381.43z"/>
<path fill="#CCCCCC" d="M288,424.93c0,0,19.5-52,38.5-29.5c0,0,15,10,14.5,13c0,0-4-6.5-22-6C319,402.43,300,399.43,288,424.93z"/>
<path fill="#CCCCCC" d="M478.5,297.43c0,0-45-28.5-52.5-30c-11.81-2.36,49.5,29,54.5,39.5C480.5,306.93,482.5,304.43,478.5,297.43z"
	/>
<path d="M327.8,404.03c0,0,20.4-2,27.2-8.8l4.4,3.6l17.6-38.4l3.6,5.2c0,0,14.4-14.8,13.6-22.8s12.8,6,12.8,6s-0.8-11.6,6.4-4.8
	c0,0-2.4-15.6,6-7.6c0,0-10.54-30.16,12-4.4c5.6,6.4,1.2-0.4,1.2-0.4s-26-48-4.4-33.6c0,0,2-22.8,0.8-27.2c-1.2-4.4-3.2-26.8-8-32
	c-4.8-5.2,0.4-6.8,6-1.6c0,0-11.2-24,2-12c0,0-3.6-15.2-8-18c0,0-5.6-17.2,9.6-6.4c0,0-4.4-12.4-7.6-15.6c0,0-11.6-27.6-4.4-22.8
	l4.4,3.6c0,0-6.8-14-0.4-9.6c6.4,4.4,6.4,4,6.4,4s-21.2-33.2-0.8-15.6c0,0-8.16-13.92-11.6-20.8c0,0-18.8-20.4-4.4-14l4.8,1.6
	c0,0-8.8-10-16.8-11.6s2.4-8,8.8-6s22,9.6,22,9.6s12.8,18.8,16.8,19.2c0,0-20-7.6-14,0.4c0,0,14.4,14,7.2,13.6c0,0-6,7.2-1.2,16
	c0,0-18.46-18.39-3.6,7.2l6.8,16.4c0,0-24.4-24.8-13.2-2.8c0,0,17.2,23.6,19.2,24c2,0.4,6.4,9.2,6.4,9.2l-4.4-2l5.2,8.8
	c0,0-11.2-12-5.2,1.2l5.6,14.4c0,0-20.4-22-6.8,7.6c0,0-16.4-5.2-7.6,12c0,0-1.6,16-1.2,21.2c0.4,5.2,1.6,33.6-2.8,41.6
	c-4.4,8,6,27.2,8,31.2s5.6,14.8-3.2,5.6s-4.4-3.6-2.4,5.2s8,24.4,7.2,30c0,0-1.2,1.2-4.4-2.4c0,0-14.8-22.8-13.2-8.4
	c0,0-1.2,8-4.4,16.8c0,0-3.2,10.8-3.2,2c0,0-3.2-16.8-6-9.2c-2.8,7.6-6.4,13.6-9.2,16c-2.8,2.4-8-20.4-9.2-10c0,0-12-12.4-16.8,4
	l-11.6,16.4c0,0-0.4-12.4-1.6-6.4C368.2,402.43,338.2,408.43,327.8,404.03z"/>
<path d="M293.4,47.23c0,0-11.6-8-15.6-7.6c-4,0.4,27.6-8.8,68.8,18.8c0,0,4.8,2.8,8.4,2.4c0,0,3.2,2.4,0.4,6c0,0-8.8,9.6,2.4,20.8
	c0,0,18.4,6.8,12.8-2c0,0,10.8,4,13.2,8c2.4,4,1.2,0,1.2,0s-6.4-7.2-12.4-12.4c0,0-5.2-2-8-10.4c-2.8-8.4-5.2-18.4-0.8-21.6
	c0,0-4,4.4-3.2,0.4c0.8-4,4.4-7.6,6-8c1.6-0.4,18-16.2,24.8-16.6c0,0-9.2,1.4-12.2,0.4s-29.6-12.4-35.6-13.6c0,0-16.8-6.6-4.8-4.6
	c0,0,35.8,3.8,54,17c0,0-7.2-8.4-25.6-15.4c0,0-22.2-12.6-57.4-7.6c0,0-17.8,3.2-25.6,5c0,0-2.6-0.6-3.2-1c-0.6-0.4-12.4-9.4-40-2.4
	c0,0-17,4.6-25.6,9.4c0,0-15.2,1.2-18.8,4.4c0,0-18.6,14.6-20.6,15.4c-2,0.8-13.4,8.4-14.2,8.8c0,0,24.6-6.6,27-9
	c2.4-2.4,19.8-5,22.2-3.6c2.4,1.4,10.8,0.8,1.2,1.4c0,0,75.6,14.8,76.4,16.8C289.4,48.43,293.4,47.23,293.4,47.23z"/>
<path fill="#CC7226" d="M364.8,38.03c0,0-10.2-7.4-12.2-7.4s-14.4-10.2-18.6-9.8s-16.4-9.6-43.8-1.4c0,0-0.6-2,3-2.8
	c0,0,6.4-2.2,6.8-2.8c0,0,20.2-4.2,27.4-0.6c0,0,9.2,2.6,15.4,8.8c0,0,11.2,3.2,14.4,2.2c0,0,8.8,2.2,9.2,4c0,0,5.8,3,4,5.6
	C370.4,33.83,370.8,35.43,364.8,38.03z"/>
<path fill="#CC7226" d="M352.33,35.92c0.81,0.63,1.83,0.73,2.43,1.54c0.23,0.31-0.05,0.64-0.37,0.74c-1.04,0.32-2.1-0.25-3.24,0.33
	c-0.4,0.21-1.04,0.02-1.6-0.12c-1.63-0.44-3.46-0.47-5.15,0.22c-1.98-1.13-4.34-0.54-6.43-1.55c-0.06-0.03-0.28,0.32-0.35,0.29
	c-3.05-1.15-6.79-0.86-9.22-3.15c-2.43-0.41-4.78-0.87-7.21-1.55c-1.82-0.51-3.23-1.5-4.85-2.33c-1.38-0.71-2.83-1.23-4.37-1.6
	c-1.86-0.45-3.69-0.34-5.59-0.86c-0.09-0.02-0.28,0.32-0.37,0.29c-0.32-0.11-0.62-0.69-0.79-0.64c-1.68,0.52-3.17-0.45-4.83-0.11
	c-1.18-1.22-2.91-0.98-4.45-1.42c-2.96-0.85-6.12,0.42-9.15-0.58c4.11-1.84,8.8-0.61,12.86-2.68c2.33-1.19,4.99-0.08,7.56-0.84
	c0.49-0.14,1.18-0.35,1.58,0.32c0.13-0.13,0.32-0.37,0.37-0.35c2.45,1.16,4.76,2.43,7.25,3.5c0.34,0.15,0.87-0.09,1.12,0.12
	c1.52,1.22,3.46,1.11,4.85,2.33c1.7-0.5,3.49-0.12,5.22-0.75c0.08-0.03,0.31,0.31,0.34,0.29c1.13-0.75,2.29-0.48,3.18-0.17
	c0.34,0.12,1,0.36,1.31,0.44c1.13,0.28,1.98,0.76,3.16,0.94c0.11,0.02,0.3-0.32,0.37-0.29c1.12,0.44,2.16,0.38,2.82,1.55
	c0.13-0.13,0.3-0.37,0.38-0.35c1.03,0.34,1.68,1.09,2.78,1.33c0.49,0.11,1.1,0.73,1.67,0.91c2.39,0.73,4.24,2.26,6.43,3.16
	C350.82,35.19,351.69,35.42,352.33,35.92z"/>
<path fill="#CC7226" d="M275.69,21.69c-2.52-1.72-4.88-2.83-7.33-4.62c-0.18-0.13-0.54,0.04-0.74-0.08
	c-1.01-0.61-1.89-1.19-2.88-1.89c-0.54-0.38-1.36-0.37-1.87-0.63c-2.54-1.29-5.17-1.85-7.68-3.04c0.68-0.64,1.8-0.39,2.4-1.2
	c0.2,0.28,0.43,0.56,0.79,0.37c1.68-0.9,3.53-1.06,5.2-0.97c1.7,0.09,3.42,0.4,5.2,0.67c0.31,0.05,0.51,0.57,0.83,0.67
	c2.23,0.66,4.62,0.14,6.74,0.98c1.59,0.63,3.16,1.45,4.4,2.73c0.25,0.26-0.07,0.56-0.35,0.75c0.39-0.11,0.66,0.1,0.77,0.41
	c0.08,0.24,0.08,0.54,0,0.78c-0.11,0.31-0.39,0.41-0.76,0.46c-1.41,0.19,0.37-1.19-0.33-0.74c-1.27,0.81-0.53,2.22-1.27,3.49
	c-0.28-0.19-0.51-0.41-0.4-0.8c0.23,0.52-0.37,0.81-0.54,1.13C277.48,20.88,276.58,22.3,275.69,21.69z"/>
<path fill="#CC7226" d="M243.2,29.04c-3.15-0.79-6.2-0.68-9.22-1.96c-0.07-0.03-0.29,0.32-0.35,0.29c-1.37-0.59-2.28-1.56-3.36-2.61
	c-0.91-0.89-2.57-0.5-3.85-0.99c-0.32-0.12-0.53-0.64-0.83-0.68c-1.22-0.16-2.15-1.11-3.19-1.68c2.34-0.79,4.75-0.76,7.21-1.15
	c0.11-0.02,0.26,0.3,0.39,0.3c0.14,0,0.27-0.22,0.4-0.36c0.2,0.28,0.5,0.61,0.75,0.35c0.55-0.54,1.1-0.35,1.64-0.31
	c0.14,0.01,0.27,0.31,0.4,0.31c0.14,0,0.27-0.31,0.4-0.31c0.14,0,0.27,0.31,0.4,0.31c0.14,0,0.27-0.22,0.4-0.36
	c0.69,0.78,1.58,0.23,2.4,0.41c1.04,0.23,1.31,1.38,2.38,1.67c4.71,1.3,8.85,3.45,13.21,5.54c0.31,0.15,0.52,0.4,0.41,0.78
	c0.27,0,0.58-0.09,0.77,0.04c1.06,0.73,2.1,1.28,2.8,2.38c0.22,0.34-0.11,0.75-0.35,0.69C251.59,30.75,247.58,30.14,243.2,29.04z"/>
<path fill="#CC7226" d="M229.34,73.25c-1.59-1.22-2.18-3.25-3.3-5.04c-0.21-0.34,0.06-0.65,0.38-0.74c0.56-0.16,1.1,0.32,1.51,0.52
	c1.75,0.86,3.28,2.1,5.28,2.24c1.99,2.23,6.25,2.62,6.26,6c0,0.86-1.43-0.06-1.86,0.8c-2.45-1-4.84-0.9-7.22-2.37
	C229.76,74.28,230.09,73.83,229.34,73.25z"/>
<path fill="#CC7226" d="M201.8,20.67c0.14,0,7.17,0.23,7.15,0.35c-0.05,0.31-7.78,1.36-8.14,1.19c-0.16-0.08-7.68,2.35-7.81,2.22
	C193.27,24.29,201.53,20.67,201.8,20.67z"/>
<path d="M217.2,30.43c0,0-14.8,1.8-19.2,3s-23,8.8-26,10.8c0,0-13.4,5.4-30.4,25.4c0,0,7.6-3.4,9.8-6.2c0,0,13.6-12.6,13.4-10
	c0,0,12.2-8.6,11.6-6.4c0,0,24.4-11.2,22.4-8c0,0,21.6-4.6,20.6-2.6c0,0,18.8,4.4,16,4.6c0,0-5.8,1.2,0.6,4.8c0,0-3.4,4.4-8.8,0.4
	c-5.4-4-2.4-1.8-7.4-0.8c0,0-2.6,0.8-7.2-3.2c0,0-5.6-4.6-14.4-1c0,0-30.6,12.6-32.6,13.2c0,0-3.6,2.8-6,6.4c0,0-5.8,4.4-8.8,5.8
	c0,0-12.8,11.6-14,13c0,0-3.4,5.2-4.2,5.6c0,0,6.4-3.8,8.4-5.8c0,0,14-10,19.4-10.8c0,0,4.4-3,5.2-4.4c0,0,14.4-9.2,18.6-9.2
	c0,0,9.2,5.2,11.6-1.8c0,0,5.8-1.8,11.4-0.6c0,0,3.2-2.6,2.4-4.8c0,0,1.6-1.8,2.6,2c0,0,3.4,3.6,8.2,1.6c0,0,4-0.2,2,2.2
	c0,0-4.4,3.8-16.2,4c0,0-12.4,0.6-28.8,8.2c0,0-29.8,10.4-39,20.8c0,0-6.4,8.8-11.8,10c0,0-5.8,0.8-11.8,8.2c0,0,9.8-5.8,18.8-5.8
	c0,0,4-2.4,0.2,1.2c0,0-3.6,7.6-2,13c0,0-0.6,5.2-1.4,6.8c0,0-7.8,12.8-7.8,15.2c0,2.4,1.2,12.2,1.6,12.8c0.4,0.6-1-1.6,2.8,0.8
	s6.6,4,7.4,6.8c0.8,2.8-2-5.4-2.2-7.2c-0.2-1.8-4.4-9-3.6-11.4c0,0,1,1,1.8,2.4c0,0-0.6-0.6,0-4.2c0,0,0.8-5.2,2.2-8.4
	c1.4-3.2,3.4-7,3.8-7.8c0.4-0.8,0.4-6.6,1.8-4l3.4,2.6c0,0-2.8-2.6-0.6-4.8c0,0-1-5.6,0.8-8.2c0,0,7-8.4,8.6-9.4s0.2-0.6,0.2-0.6
	s6-4.2,0.2-2.6c0,0-4,1.6-7,1.6c0,0-7.6,2-3.6-2.2s14-9.6,17.8-9.4l0.8,1.6l11.2-2.4l-1.2,0.8c0,0-0.2-0.2,4-0.6
	c4.2-0.4,10,1,11.4-0.8c1.4-1.8,4.8-2.8,4.4-1.4c-0.4,1.4-0.6,3.4-0.6,3.4s5-5.8,4.4-3.6c-0.6,2.2-8.8,7.4-10.2,13.6l10.4-8.2l3.6-3
	c0,0,3.6,2.2,3.8,0.6s4.8-7.4,6-7.2c1.2,0.2,3.2-2.6,3,0s7.4,8,7.4,8s3.2-1.8,4.6-0.4s5.6-19.8,5.6-19.8l25-10.6l43.6-3.4l-17-6.8
	L217.2,30.43z"/>
<path fill="none" stroke="#4C0000" stroke-width="2" d="M235.4,229.43c0,0-15-16.8-23.4-19.4c0,0-13.4-6.8-38,1"/>
<path fill="none" stroke="#4C0000" stroke-width="2" d="M208.8,208.63c0,0-25.2-8-40.6-3.8c0,0-18.4,2-26.8,15.8"/>
<path fill="none" stroke="#4C0000" stroke-width="2" d="M205.2,207.43c0,0-17-7.2-31.8-9.4c0,0-16.6-2.6-33.2,4.6
	c0,0-12.2,6-17.6,16.2"/>
<path fill="none" stroke="#4C0000" stroke-width="2" d="M206.2,207.83c0,0-15.4-11-16.4-12.4c0,0-7-11-20-11.4
	c0,0-21.4,0.8-38.6,8.8"/>
<path d="M204.89,198.84c1.54,1.46,28.5,30.39,28.5,30.39c35.2,36.6,7.2,2.4,7.2,2.4c-7.6-4.8-16.8-23.6-16.8-23.6
	c-1.2-2.8,14,7.2,14,7.2c4,0.8,17.6,20,17.6,20c-6.8-2.4-2,4.8-2,4.8c2.8,2,23.2,17.6,23.2,17.6c3.6,4,7.6,5.6,7.6,5.6
	c14-5.2,7.6,8,7.6,8c2.4,6.8,8-4.8,8-4.8c11.2-16.8-5.2-14.4-5.2-14.4c-30,2.8-36.8-13.2-36.8-13.2c-2.4-2.4,6.4,0,6.4,0
	c8.4,2-7.2-12.4-7.2-12.4c2.4,0,11.6,6.8,11.6,6.8c10.4,9.2,12.4,7.2,12.4,7.2c18-8.8,28.4-1.2,28.4-1.2c2,1.6-3.6,8.4-2,13.6
	c1.6,5.2,6.4,17.6,6.4,17.6c-2.4,1.6-2,12.4-2,12.4c16.8,23.2,7.2,21.2,7.2,21.2c-15.6-0.4-0.8,7.2-0.8,7.2c3.2,2,12,9.2,12,9.2
	c-2.8-1.2-4.4,4-4.4,4c4.8,4,2,8.8,2,8.8c-6,1.2-7.2,5.2-7.2,5.2c6.8,8-3.2,8.4-3.2,8.4c3.6,4.4-1.2,16.4-1.2,16.4
	c-4.8,0-11.2,5.6-11.2,5.6c2.4,4.8-8,10.4-8,10.4c-8.4,1.6-5.6,8.4-5.6,8.4c-8,6-10.4,22-10.4,22c-0.8,10.4-3.2,13.6,2,11.6
	s4.4-14.4,4.4-14.4c-4.8-15.6,38-31.6,38-31.6c4-1.6,4.8-6.8,4.8-6.8c2,0.4,10.8,8,10.8,8c7.6,11.2,8,2,8,2c1.2-3.6-0.4-9.6-0.4-9.6
	c6-21.6-8-28-8-28c-10-33.6,4-25.2,4-25.2c2.8,5.6,13.6,10.8,13.6,10.8l3.6-2.4c-1.6-4.8,6.8-10.8,6.8-10.8c2.8,6.4,8.8-1.6,8.8-1.6
	c3.6-24.4,16-10,16-10c4,1.2,5.2-5.6,5.2-5.6c3.6-10.4,0-24,0-24c3.6-0.4,13.2,5.6,13.2,5.6c2.8-3.6-6.4-20.4-2.4-18
	c4,2.4,8.4,4,8.4,4c0.8-2-9.2-14.4-9.2-14.4c-4.4-2.8-9.6-23.2-9.6-23.2c7.2,3.6-2.8-11.6-2.8-11.6c0-3.2,6-14.4,6-14.4
	c-0.8-6.8,0-6.4,0-6.4c2.8,1.2,10.8,2.8,4-3.6s0.8-11.2,0.8-11.2c4.4-2.8-9.2-2.4-9.2-2.4c-5.2-4.4-4.8-8.4-4.8-8.4
	c8,2-6.4-12.4-8.8-16c-2.4-3.6,7.2-8.8,7.2-8.8c13.2-3.6,1.6-6.8,1.6-6.8c-19.6,0.4-8.8-10.4-8.8-10.4c6,0.4,4.4-2,4.4-2
	c-5.2-1.2-14.8-7.6-14.8-7.6c-4-3.6-0.4-2.8-0.4-2.8c16.8,1.2-12-10-12-10c8,0-10-10.4-10-10.4c-2-1.6-5.2-9.2-5.2-9.2
	c-6-5.2-10.8-12-10.8-12c-0.4-4.4-5.2-9.2-5.2-9.2c-11.6-13.6-17.2-13.2-17.2-13.2c-14.8-3.6-20-2.8-20-2.8l-52.8,4.4
	c-26.4,12.8-18.6,33.8-18.6,33.8c6.4,8.4,15.6,4.6,15.6,4.6c4.6-6.2,16.2-4,16.2-4c20.4,3.2,17.8-0.4,17.8-0.4
	c-2.4-4.6-18.6-10.8-18.8-11.4c-0.2-0.6-9-4-9-4c-3-1.2-7.4-10.4-7.4-10.4c-3.2-3.4,12.6,2.4,12.6,2.4c-1.2,1,6.2,5,6.2,5
	c17.4-1,28,9.8,28,9.8c10.8,16.6,11,8.4,11,8.4c2.8-9.4-9-30.6-9-30.6c0.4-2,8.6,4.6,8.6,4.6c1.4-2,2.2,3.8,2.2,3.8
	c0.2,2.4,4,10.4,4,10.4c2.8,13,6.4,5.6,6.4,5.6l4.6,9.4c1.4,2.6-4.6,10.2-4.6,10.2c-0.2,2.8,0.6,2.6-5,10.2c-5.6,7.6-2.2,12-2.2,12
	c-1.4,6.6,7.4,6.2,7.4,6.2c2.6,2.2,6,2.2,6,2.2c1.8,2,4.2,1.4,4.2,1.4c1.6-3.8,7.8-1.8,7.8-1.8c1.4-2.4,9.6-2.8,9.6-2.8
	c1-2.6,1.4-4.2,4.8-4.8c3.4-0.6-21.2-43.6-21.2-43.6c6.4-0.8-1.8-13.2-1.8-13.2c-2.2-6.6,9.2,8,11.4,9.4c2.2,1.4,3.2,3.6,1.6,3.4
	c-1.6-0.2-3.4,2-2,2.2c1.4,0.2,14.4,15.2,17.8,25.4c3.4,10.2,9.4,14.2,15.6,20.2s5.4,30.2,5.4,30.2c-0.4,8.8,5.6,19.4,5.6,19.4
	c2,3.8-2.2,22-2.2,22c-2,2.2-0.6,3-0.6,3c1,1.2,7.8,14.4,7.8,14.4c-1.8-0.2,1.8,3.4,1.8,3.4c5.2,6-1.2,3-1.2,3c-6-1.6,1,8.2,1,8.2
	c1.2,1.8-7.8-2.8-7.8-2.8c-9.2-0.6,2.4,6.6,2.4,6.6c8.6,7.2-2.8,2.8-2.8,2.8c-4.6-1.8-1.4,5-1.4,5c3.2,1.6,20.4,8.6,20.4,8.6
	c0.4,3.8-2.6,8.8-2.6,8.8c0.4,4-1.8,7.4-1.8,7.4c-1.2,8.2-1.8,9-1.8,9c-4.2,0.2-11.6,14-11.6,14c-1.8,2.6-12,14.6-12,14.6
	c-2,7-20-0.2-20-0.2c-6.6,3.4-4.6,0-4.6,0c-0.4-2.2,4.4-8.2,4.4-8.2c7-2.6,4.4-13.4,4.4-13.4c4-1.4-7.2-4.2-7-5.4
	c0.2-1.2,6-2.6,6-2.6c8-2,3.6-4.4,3.6-4.4c-0.6-4,2.4-9.6,2.4-9.6c11.6-0.8,0-17,0-17c-10.8-7.6-11.8-13.4-11.8-13.4
	c12.6-8.2,4.4-20.6,4.6-24.2c0.2-3.6,1.4-25.2,1.4-25.2c-2-6.2-5-19.8-5-19.8c2.2-5.2,9.6-17.8,9.6-17.8c2.8-4.2,11.6-9,9.4-12
	s-10-1.2-10-1.2c-7.8-1.4-7.2,3.8-7.2,3.8c-1.6,1-2.4,6-2.4,6c-0.72,7.93-9.6,14.2-9.6,14.2c-11.2,6.2-2,10.2-2,10.2
	c6,6.6-3.8,6.8-3.8,6.8c-11-1.8-2.8,8.4-2.8,8.4c10.8,12.8,7.8,15.6,7.8,15.6c-10.2,1,2.4,10.2,2.4,10.2s-0.8-2-0.6-0.2
	c0.2,1.8,3.2,6,4,8c0.8,2-3.2,2.2-3.2,2.2c0.6,9.6-14.8,5.4-14.8,5.4s0,0-1.6,0.2c-1.6,0.2-12.8-0.6-18.6-2.8
	c-5.8-2.2-12.6-2.2-12.6-2.2s-4,1.8-11.6,1.6s-15.6,2.6-15.6,2.6c-4.4-0.4,4.2-4.8,4.4-4.6s5.8-5.4-2.2-4.8
	c-21.8,1.63-32.6-8.6-32.6-8.6c-2-1.4-4.6-4.2-4.6-4.2c-10-2,1.4,12.4,1.4,12.4c1.2,1.4-0.2,2.4-0.2,2.4c-0.8-1.6-8.6-7-8.6-7
	C208.59,202.66,207.22,201.32,204.89,198.84z"/>
<path fill="#4C0000" d="M181,187.23c0,0,11.6,5.6,14.2,8.4c2.6,2.8,16.6,14.2,16.6,14.2s-5.4-2-8-3.8c-2.6-1.8-13.4-10-13.4-10
	S186.6,190.03,181,187.23z"/>
<path fill="#99CC32" d="M122.99,156.03c0.34-0.15-0.19-2.86-0.39-3.4c-1.02-2.73-10-4.2-10-4.2c-0.23,1.37-0.28,2.96-0.18,4.6
	C112.42,153.03,117.29,158.55,122.99,156.03z"/>
<path fill="#659900" d="M122.99,155.83c-0.45,0.16-0.02-2.73-0.19-3.2c-1.02-2.73-10.2-4.3-10.2-4.3c-0.23,1.37-0.28,2.96-0.18,4.6
	C112.42,152.93,116.69,158.05,122.99,155.83z"/>
<path d="M118.6,155.97c-0.62,0-1.13-1.14-1.13-2.55c0-1.4,0.51-2.54,1.13-2.54s1.13,1.14,1.13,2.54
	C119.73,154.83,119.22,155.97,118.6,155.97z"/>
<path d="M73,254.03c0,0-5.6,10,19.2,4c0,0,14-1.2,16.4-3.6c1.2,0.8,9.57,3.73,12.4,4.4c6.8,1.6,15.2-8.4,15.2-8.4s4.6-10.5,7.4-10.5
	c2.8,0-0.4,1.6-0.4,1.6s-6.6,10.1-6.2,11.7c0,0-5.2,20-21.2,20.8c0,0-16.15,0.95-14.8,6.8c0,0,8.8-2.4,11.2,0c0,0,10.8-0.4,2.8,6
	l-6.8,11.6c0,0,0.14,3.92-10,0.4c-9.8-3.4-20.1-16.3-20.1-16.3S62.15,267.98,73,254.03z"/>
<path fill="#E59999" d="M71.8,258.03c0,0-2,9.6,34.8-0.8c0,0,4.4,0,6.8,0.8c2.4,0.8,14.4,3.6,16.4,2.4c0,0-7.2,13.6-18.8,12
	c0,0-13.2,1.6-12.8,6.4c0,0,4,7.2,8.8,9.6c0,0,2.8,2.4,2.4,5.6c-0.4,3.2-3.2,4.8-5.2,5.6s-5.2-2.4-6.8-2.4s-10-6.4-14.4-11.2
	c-4.4-4.8-12.8-16.8-12.4-19.6S71.8,258.03,71.8,258.03z"/>
<path fill="#B26565" d="M75,275.48c2.6,3.95,5.8,8.15,8,10.55c4.4,4.8,12.8,11.2,14.4,11.2s4.8,3.2,6.8,2.4s4.8-2.4,5.2-5.6
	c0.4-3.2-2.4-5.6-2.4-5.6c-3.07-1.53-5.81-5.03-7.38-7.35c0,0,0.18,2.55-5.02,1.75c-5.2-0.8-10.4-3.6-12-6.8c-1.6-3.2-4-5.6-2.4-2
	c1.6,3.6,4,7.2,5.6,7.6c1.6,0.4,1.2,1.6-1.2,1.2c-2.4-0.4-5.2-0.8-9.6-6V275.48z"/>
<path fill="#992600" d="M72.4,254.43c0,0,1.8-13.6,3-17.6c0,0-0.8-6.8,1.6-11c2.4-4.2,4.4-10.4,7.4-15.8s3.2-9.4,7.2-11
	s10-10.2,12.8-11.2c2.8-1,2.6-0.2,2.6-0.2s6.8-14.8,20.4-10.8c0,0-16.2-2.8-0.4-12.2c0,0-4.8,1.1-1.5-5.9c2.2-4.67,1.7,2.1-9.3,13.9
	c0,0-5,8.6-10.2,11.6s-17.2,10-18.4,13.8c-1.2,3.8-4.4,9.6-6.4,11.2c-2,1.6-4.8,5.8-5.2,9.2c0,0-1.2,4-2.6,5.2
	c-1.4,1.2-1.6,4.4-1.6,6.4s-2,4.8-1.8,7.2c0,0,0.8,19,0.4,21L72.4,254.43z"/>
<path fill="#FFFFFF" d="M63.8,259.03c0,0-2-1.4-6.4,4.6c0,0,7.3,33,7.3,34.4c0,0,1.1-2.1-0.2-9.3s-2.2-19.9-2.2-19.9L63.8,259.03z"
	/>
<path fill="#992600" d="M85.4,198.43c0,0-17.6,3.2-17.2,32.4l-0.8,24.8c0,0-1.2-25.6-2.4-27.2s2.8-12.8-0.4-6.8c0,0-14,14-6,35.2
	c0,0,1.5,3.3-1.5-1.3c0,0-4.6-12.6-3.5-19c0,0,0.2-2.2,2.1-5c0,0,8.6-11.7,11.3-14c0,0,1.8-14.4,17.2-19.6
	C84.2,197.93,89.9,195.63,85.4,198.43z"/>
<path d="M224.8,132.23c0.66-0.35,0.65-1.32,1.23-1.5c1.15-0.34,1.31-1.41,1.83-2.2c0.87-1.32,1.07-2.85,1.65-4.34
	c0.27-0.7,0.3-1.66-0.01-2.31c-1.17-2.48-1.88-4.93-3.32-7.36c-0.27-0.45-0.53-1.24-0.73-1.84c-0.46-1.38-1.72-2.38-2.58-3.69
	c-0.29-0.44,0.24-1.37-0.48-1.45c-0.9-0.1-2.35-0.69-2.58,0.34c-0.59,2.59,0.42,5.11,1.39,7.55c-0.78,0.69-0.45,1.61-0.3,2.38
	c0.71,3.61-0.49,6.96-1.25,10.43c-0.02,0.1,0.32,0.3,0.29,0.36c-1.22,2.69-2.67,5.13-4.49,7.51c-0.76,0.99-1.63,1.91-2.13,2.97
	c-0.37,0.79-0.78,1.75-0.53,2.74c-3.43,2.78-5.68,6.62-8.3,10.47c-0.46,0.68-0.17,1.89,0.38,2.16c0.81,0.4,1.77-0.63,2.24-1.47
	c0.39-0.7,0.74-1.35,1.23-1.99c0.13-0.17-0.05-0.59,0.09-0.71c2.63-2.35,4.3-5.28,6.76-7.65c1.95-0.33,3.49-1.33,5.23-2.34
	c0.31-0.18,0.83,0.07,1.12-0.12c1.75-1.18,1.75-3.21,1.86-5.12C223.46,134.16,223.66,132.84,224.8,132.23z"/>
<path d="M215.96,127.76c0.12-0.08-0.03-0.5,0.08-0.72c0.16-0.32,0.56-0.51,0.73-0.84c0.11-0.22-0.05-0.6,0.08-0.74
	c2.33-2.45,2.59-5.47,1.55-8.44c1.02-0.62,1.08-1.88,0.66-2.73c-0.85-1.7-1.05-3.63-2.02-5.17c-0.8-1.27-2.38-2.51-3.75-1.21
	c-0.42,0.4-0.74,1.19-0.46,1.9c0.06,0.16,0.35,0.31,0.32,0.39c-0.11,0.32-0.65,0.55-0.66,0.82c-0.03,1.5-0.98,3.01-0.35,4.34
	c0.77,1.63,1.59,3.49,2.27,5.26c-1.23,2.12-0.2,4.56-1.95,6.44c-0.14,0.15-0.13,0.53,0,0.73c0.29,0.49,0.7,0.89,1.18,1.18
	c0.2,0.12,0.55,0.12,0.75,0C214.95,128.62,215.35,128.14,215.96,127.76z"/>
<path d="M278.77,117.45c1.39,1.79,1.68,4.59-0.37,5.98c0.55,3.31,3.9,1.33,6,0.8c-0.11-0.39,0.12-0.73,0.4-0.74
	c1.06-0.02,1.74-1.05,2.8-0.86c0.43-1.56,2.07-2.26,2.71-3.64c1.73-3.69,1.14-7.97-1.45-11.21c-0.2-0.25,0.01-0.77-0.11-1.13
	c-0.76-2.21-2.82-2.53-4.76-3.21c-1.18-3.88-1.84-7.91-3.6-11.6c-1.61-0.25-2.31-1.99-3.65-2.71c-1.33-0.72-1.9,0.86-1.86,1.91
	c0.01,0.2,0.46,0.43,0.29,0.79c-0.08,0.16-0.34,0.27-0.34,0.41c0,0.14,0.22,0.27,0.36,0.4c-0.92,0.82-2.34,1.3-2.64,2.44
	c-0.95,3.71,1.62,6.83,3.29,10.04c0.59,1.13-0.14,2.41-0.9,3.61c-0.44,0.69-0.33,1.82-0.05,2.68
	C275.64,113.73,277.23,115.47,278.77,117.45z"/>
<path d="M241.61,135.84c-1.49,1.85-4.9,4.42-1.98,6.35c0.19,0.13,0.56,0.13,0.74,0c2.02-1.56,4.02-2.47,6.46-3.05
	c0.12-0.03,0.4,0.44,0.77,0.28c1.61-0.7,3.62-0.65,4.81-1.98c3.77,0.22,7.33-0.89,10.72-2.2c1.16-0.45,2.43-1.01,3.63-1.51
	c1.38-0.58,2.58-1.5,3.69-2.65c0.13-0.14,0.49-0.05,0.75-0.05c-0.04-0.86,0.92-0.99,1.17-1.61c0.09-0.23-0.06-0.63,0.08-0.73
	c2.14-1.63,3.06-3.65,1.89-6.02c-0.29-0.58-0.53-1.2-1.1-1.67c-1.09-0.91-2.19-0.06-3.23-0.36c-0.16,0.63-0.89,0.46-1.27,0.65
	c-0.86,0.44-2.19-0.15-3.05,0.29c-1.36,0.69-2.6,0.86-4.02,1.24c-0.31,0.08-1.09-0.01-1.25,0.61c-0.13-0.13-0.28-0.37-0.39-0.35
	c-1.91,0.4-3.17,0.61-4.47,2.3c-0.1,0.13-0.54-0.05-0.7,0.09c-0.96,0.81-1.36,2.04-2.46,2.71c-0.2,0.12-0.55-0.04-0.75,0.08
	c-0.65,0.43-1.01,1.07-1.65,1.52c-0.33,0.23-0.73-0.1-0.7-0.35c0.25-1.95,0.9-3.73,0.32-5.61c2.08-2.52,4.59-4.47,6.4-7.2
	c0.02-2.17,0.71-4.31,0.59-6.39c-0.01-0.19-0.3-0.93-0.42-1.27c-0.31-0.85,0.59-1.92-0.25-2.64c-1.4-1.2-2.7-0.33-3.52,1.11
	c-1.84,0.39-3.9,1.08-5.48-0.15c-1.01-0.79-1.58-1.69-2.38-2.75c-0.99-1.3-0.65-2.74-0.58-4.3c0.01-0.13-0.31-0.26-0.31-0.4
	c0-0.13,0.22-0.27,0.35-0.4c-0.71-0.63-0.98-1.68-2-2c0.31-1.09-0.37-1.98-1.24-2.28c-1.99-0.69-3.67,1.22-5.56,1.29
	c-0.51,0.02-0.98-1.02-1.63-1.34c-0.43-0.22-1.14-0.25-1.5,0.02c-0.69,0.5-1.28,0.62-2.03,0.82c-1.62,0.44-2.9,1.53-4.38,2.38
	c-1.49,0.86-2.44,2.29-3.52,3.61c-0.94,1.15-1.08,3.57,0.34,4.07c1.84,0.65,3.15-2.05,5.11-1.73c0.31,0.05,0.52,0.36,0.41,0.75
	c0.39,0.11,0.61-0.12,0.8-0.4c0.86,1.02,2.02,1.36,2.96,2.23c0.97,0.9,2.72,0.49,3.73,1.48c1.53,1.5,0.97,4.18,2.91,5.49
	c-0.59,1.31-1.19,2.59-1.53,4.02c-0.28,1.21,0.71,2.4,1.92,2.31c1.26-0.09,1.52-0.85,2-1.93c0.27,0.27,0.74,0.56,0.7,0.78
	c-0.46,2.39-1.48,4.38-1.94,6.81c-0.06,0.32-0.36,0.52-0.75,0.41c-0.47,4.15-4.52,6.54-7.06,9.71c-0.4,0.5-0.41,1.75,0,2.15
	c1.4,1.39,3.36-0.16,5.06-0.66c0.21-1.21,1.07-2.15,2.4-2.09c0.26,0.01,0.49-0.53,0.81-0.66c0.35-0.14,0.85,0.09,1.14-0.11
	c1.73-1.19,3.14-2.3,4.88-3.49c0.19-0.13,0.54,0.03,0.75-0.08c0.32-0.16,0.51-0.55,0.83-0.73c0.35-0.2,0.59,0.09,0.78,0.37
	c-0.65,0.35-0.65,1.31-1.23,1.51c-0.77,0.27-1.34,0.78-2.01,1.23c-0.29,0.19-0.95-0.06-1.06,0.12
	C243.5,134.52,242.32,134.95,241.61,135.84z"/>
<path d="M186.2,86.43c0,0-9.24-2.87-20.4,22.8c0,0-2.4,5.2-4.8,7.2s-13.6,5.6-15.6,9.6l-10.4,16c0,0,14.8-16,18-18.4
	c0,0,8-8.4,4.8-1.6c0,0-14,10.8-12.8,20c0,0-5.6,14.4-6.4,16.4c0,0,16-32,18.4-33.2c2.4-1.2,3.6-1.2,2.4,2.4c-1.2,3.6-1.6,20-4.4,22
	c0,0,8-20.4,7.2-23.6c0,0,3.2-3.6,5.6,1.6l-1.2,16l4.4,12c0,0-2.4-11.2-0.8-26.8c0,0-2-10.4,2-4.8s13.6,11.6,13.6,16.4
	c0,0-5.2-17.6-14.4-22.4l-4,6l-1.2-2c0,0-3.6-0.8,0.8-7.6s4-7.6,4-7.6s6.4,7.2,8,7.2c0,0,13.2-7.6,14.4,16.8c0,0,6.8-14.4-2.4-21.2
	c0,0-14.8-2-13.6-7.2l7.2-12.4c3.6-5.2,2-2.4,2-2.4L186.2,86.43z"/>
<path d="M166.2,102.83c0,0-12.8,0-16,5.2l-7.2,9.6c0,0,17.2-10,21.2-11.2S166.2,102.83,166.2,102.83z"/>
<path d="M126.2,109.23c0,0-2,1.2-2.4,4c-0.4,2.8-2.8,3.2-2,6c0.8,2.8,2.8,5.2,2.8,1.2s1.6-6,2.4-7.2
	C127.8,112.03,129.4,107.63,126.2,109.23z"/>
<path d="M117.4,170.43c0,0-8.4-4-11.6-7.6c-3.2-3.6-2.75,1.57-7.6,1.2c-5.85-0.44-4.8-16.4-4.8-16.4l-4,7.6c0,0-1.2,14.4,6.8,12
	c3.91-1.17,5.2,0.4,3.6,1.2c-1.6,0.8,5.6,1.2,2.8,2.8c-2.8,1.6,11.6-3.6,9.2,6.8L117.4,170.43z"/>
<path d="M104.8,184.83c0,0-15.4,4.4-19-5.2c0,0-4.8,2.4-2.6,5.4c2.2,3,3.4,3.4,3.4,3.4s5.4,1.2,4.8,2s-3,4.2-3,4.2
	S98.6,188.63,104.8,184.83z"/>
<path fill="#FFFFFF" d="M333.2,263.03c-0.43,2.13-2.1,2.94-4,3.6c-1.92-0.96-4.52-4.06-6.4-2c-0.47-0.48-1.25-0.54-1.6-1.2
	c-0.46-0.9-0.19-1.94-0.54-2.74c-0.54-1.27-1.25-2.64-1.07-4.06c1.81-0.71,2.4-2.62,1.93-4.38c-0.07-0.26-0.5-0.45-0.3-0.8
	c0.19-0.32,0.5-0.55,0.77-0.82c-0.13,0.13-0.28,0.37-0.39,0.35c-0.61-0.11-0.49-0.74-0.36-1.13c0.58-1.75,2.6-2.01,3.95-0.82
	c0.26-0.56,0.76-0.37,1.2-0.4c-0.05-0.58,0.36-1.11,0.56-1.53c0.52-1.1,2.15,0.01,2.94-0.6c1.08-0.82,2.14-1.52,3.22-0.92
	c1.81,1.01,3.52,2.23,4.72,3.97c0.58,0.83,0.82,2.12,0.76,3.07c-0.04,0.65-1.42,0.3-1.76,1.22c-0.64,1.75,1.19,2.27,1.94,3.6
	c0.2,0.35-0.07,0.65-0.38,0.75c-0.41,0.13-1.2-0.06-1.06,0.39C338.3,261.78,335.55,262.46,333.2,263.03z"/>
<path fill="#FFFFFF" d="M323.6,282.63c-0.01-1.74-1.61-3.49-0.4-5.2c0.13,0.13,0.27,0.36,0.4,0.36s0.27-0.22,0.4-0.36
	c1.5,2.22,5.15,3.14,5,5.99c-0.02,0.45-1.11,1.37-0.21,2.01c-1.81,1.35-1.87,3.72-2.8,5.6c-1.24-0.29-2.45-0.65-3.6-1.2
	c0.35-1.49,0.24-3.17,1.06-4.49C323.89,284.64,323.6,283.56,323.6,282.63z"/>
<path fill="#CCCCCC" d="M157.4,273.63c0,0-16.86,10.14-2.8-5.2c8.8-9.6,18.8-15.2,18.8-15.2s10.4-4.4,14-5.6
	c3.6-1.2,18.8-6.4,22-6.8c3.2-0.4,12.8-4.4,19.6-0.4s14.8,8.4,14.8,8.4s-16.4-8.4-20-6c-3.6,2.4-10.8,2-16.8,5.2
	c0,0-14.8,4.4-18,6.4s-13.6,13.6-15.2,12.8c-1.6-0.8,0.4-1.2,1.6-4c1.2-2.8-0.8-4.4-8.8,2C158.6,271.63,157.4,273.63,157.4,273.63z"
	/>
<path d="M164.8,267.66c0,0,1.41-13.04,9.89-11.38c0,0,8.23-4.17,10.95-6.14c0,0,8.14-1.7,9.45-2.32c18.48-8.7,33.2-4.18,33.75-5.3
	c0.55-1.12,20.17,6,23.78,10.08c0.39,0.44-10.23-5.6-19.93-7.49c-8.27-1.61-29.88,0.25-40.78,5.78c-2.97,1.51-11.92,7.29-14.45,7.18
	C174.92,257.98,164.8,267.66,164.8,267.66z"/>
<path fill="#CCCCCC" d="M161,293.23c0,0-15.2-2.4,1.6-4c0,0,18-2,22-7.2c0,0,13.6-9.2,16.4-9.6s32.8-7.6,33.2-10
	c0.4-2.4,6-2.4,7.6-1.6c1.6,0.8,0.8,2-2,2.8c-2.8,0.8-34,17.2-40.4,18.4c-6.4,1.2-18,8.8-22.8,10
	C171.8,293.23,161,293.23,161,293.23z"/>
<path d="M180.52,285.83c0,0-8.58-0.83,0.02-1.65c0,0,8.82-3.42,10.86-6.09c0,0,6.96-4.71,8.4-4.92c1.43-0.21,15.39-3.89,15.6-5.12
	s34.27-13.81,38.69-10.62c2.91,2.1-6.99,0.42-16.62,4.83c-1.35,0.62-35.21,15.21-38.48,15.82c-3.28,0.62-9.22,4.51-11.67,5.12
	C184.85,283.83,180.52,285.83,180.52,285.83z"/>
<path d="M172.6,288.03c0,0,5.2-0.4,4,1.2c-1.2,1.6-3.6,0.8-3.6,0.8L172.6,288.03z"/>
<path d="M165.4,289.63c0,0,5.2-0.4,4,1.2c-1.2,1.6-3.6,0.8-3.6,0.8L165.4,289.63z"/>
<path d="M155,291.23c0,0,5.2-0.4,4,1.2s-3.6,0.8-3.6,0.8L155,291.23z"/>
<path d="M147.4,292.03c0,0,5.2-0.4,4,1.2c-1.2,1.6-3.6,0.8-3.6,0.8L147.4,292.03z"/>
<path d="M185.8,252.43c0,0,4.4,0,3.2,1.6c-1.2,1.6-4.4,1.2-4.4,1.2L185.8,252.43z"/>
<path d="M175.8,258.03c0,0,6.51-2.14,4,1.2c-1.2,1.6-3.6,0.8-3.6,0.8L175.8,258.03z"/>
<path d="M164.6,262.83c0,0,5.2-0.4,4,1.2c-1.2,1.6-3.6,0.8-3.6,0.8L164.6,262.83z"/>
<path d="M157,268.83c0,0,5.2-0.4,4,1.2c-1.2,1.6-3.6,0.8-3.6,0.8L157,268.83z"/>
<path d="M150.2,273.63c0,0,5.2-0.4,4,1.2c-1.2,1.6-3.6,0.8-3.6,0.8L150.2,273.63z"/>
<path d="M189.28,280.03c0,0,6.92-0.53,5.32,1.6c-1.6,2.13-4.79,1.06-4.79,1.06L189.28,280.03z"/>
<path d="M199.68,275.23c0,0,6.92-0.53,5.32,1.6c-1.6,2.13-4.79,1.07-4.79,1.07L199.68,275.23z"/>
<path d="M210.48,270.83c0,0,6.92-0.53,5.32,1.6c-1.6,2.13-4.79,1.06-4.79,1.06L210.48,270.83z"/>
<path d="M220.88,266.03c0,0,6.92-0.53,5.32,1.6c-1.6,2.13-4.79,1.06-4.79,1.06L220.88,266.03z"/>
<path d="M193.28,248.03c0,0,6.92-0.53,5.32,1.6c-1.6,2.13-5.59,1.86-5.59,1.86L193.28,248.03z"/>
<path d="M203.28,244.83c0,0,6.92-0.53,5.32,1.6c-1.6,2.13-5.99,1.86-5.99,1.86L203.28,244.83z"/>
<path d="M180.6,284.83c0,0,5.2-0.4,4,1.2c-1.2,1.6-3.6,0.8-3.6,0.8L180.6,284.83z"/>
<path fill="#992600" d="M107.4,185.63c0,0-4.4,8.8-4.8,12c0,0,0.8-8.8,2-10.8C105.8,184.83,107.4,185.63,107.4,185.63z"/>
<path fill="#992600" d="M89,199.63c0,0-3.2,14.4-2.8,17.2c0,0-1.2-11.6-0.8-12.8C85.8,202.83,89,199.63,89,199.63z"/>
<path fill="#CCCCCC" d="M109.8,125.03l-0.2,3.2l-2.2,0.2c0,0,14.2,12.6,14.8,20.2C122.2,148.63,123,140.43,109.8,125.03z"/>
<path d="M113.78,126.29c-0.43-0.42-0.21-1.16-0.62-1.42c-0.81-0.52,1.3-0.57,1.07-1.29c-0.38-1.21-0.2-1.23-0.32-2.5
	c-0.06-0.6,0.53-2.14,0.92-2.58c1.45-1.65,0.12-4.58,1.76-6.14c0.3-0.29,0.68-0.84,0.97-1.26c0.66-0.96,1.84-1.45,2.79-2.28
	c0.32-0.28,0.12-1.1,0.69-1.01c0.71,0.11,1.96-0.02,1.91,0.83c-0.11,2.12-1.44,3.84-2.72,5.51c0.45,0.7-0.01,1.34-0.29,1.9
	c-1.33,2.62-1.15,5.46-1.32,8.3c-0.01,0.08-0.31,0.16-0.3,0.22c0.35,2.33,0.94,4.53,1.82,6.76c0.37,0.93,0.84,1.83,0.99,2.75
	c0.11,0.69,0.21,1.52-0.19,2.22c2.04,2.89,0.73,5.54,1.9,9.07c0.21,0.62,1.9,2.54,1.44,2.38c-2.51-0.87-2.62-1.27-2.8-2.02
	c-0.15-0.62-0.48-2-0.71-2.6c-0.06-0.16-0.23-2.05-0.31-2.17c-1.51-2.38-0.15-2.21-1.52-4.56c-1.43-0.68-2.39-1.78-3.52-2.95
	c-0.2-0.2,0.95-0.93,0.76-1.14c-1.09-1.29-2.25-2.06-1.91-3.55C114.39,128.07,114.53,127.01,113.78,126.29z"/>
<path d="M110.2,128.03c0,0,0.4,6.8,2.8,8.4s1.2,0.8-2-0.4c-3.2-1.2-2-2-2-2s-2.8,0.4-0.4,2.4s6,4.4,4.4,4.4s-9.2-4-9.2-6.8
	c0-2.8-1-6.9-1-6.9s1.1-0.8,5.9-0.7C108.7,126.43,110.1,127.13,110.2,128.03z"/>
<path fill="#FFFFFF" stroke="#000000" stroke-width="0.1" d="M109.4,146.63c0,0-8.52-2.79-27,0.6c0,0,9.03-2.08,27.8,0.2
	C120.5,148.68,109.4,146.63,109.4,146.63z"/>
<path fill="#FFFFFF" stroke="#000000" stroke-width="0.1" d="M111.5,146.56c0,0-8.25-3.52-26.95-1.74c0,0,9.18-1.29,27.68,2.6
	C122.38,149.56,111.5,146.56,111.5,146.56z"/>
<path fill="#FFFFFF" stroke="#000000" stroke-width="0.1" d="M113.28,146.65c0,0-7.96-4.12-26.75-3.74c0,0,9.25-0.6,27.41,4.65
	C123.91,150.45,113.28,146.65,113.28,146.65z"/>
<path fill="#FFFFFF" stroke="#000000" stroke-width="0.1" d="M114.55,146.87c0,0-6.82-4.31-23.7-5.4c0,0,8.34,0.17,24.22,6.28
	C123.79,151.1,114.55,146.87,114.55,146.87z"/>
<path fill="#FFFFFF" stroke="#000000" stroke-width="0.1" d="M229.84,157.39c0,0-0.93,0.64-0.72-0.54
	c0.21-1.18,28.42-14.35,32.04-14.1C261.16,142.75,230.91,155.96,229.84,157.39z"/>
<path fill="#FFFFFF" stroke="#000000" stroke-width="0.1" d="M226.44,158.03c0,0-0.88,0.71-0.75-0.48
	c0.12-1.19,27.21-16.54,30.83-16.57C256.52,140.98,227.4,156.52,226.44,158.03z"/>
<path fill="#FFFFFF" stroke="#000000" stroke-width="0.1" d="M223.16,159.4c0,0-0.83,0.77-0.79-0.43
	c0.04-1.2,19.86-16.7,29.67-18.57C252.04,140.41,234.01,148.53,223.16,159.4z"/>
<path fill="#FFFFFF" stroke="#000000" stroke-width="0.1" d="M220.28,161.27c0,0-0.75,0.69-0.71-0.38
	c0.04-1.08,17.87-15.03,26.7-16.71C246.28,144.17,230.05,151.48,220.28,161.27z"/>
<path fill="#CCCCCC" d="M188.6,309.23c0,0-15.2-2.4,1.6-4c0,0,18-2,22-7.2c0,0,13.6-9.2,16.4-9.6c2.8-0.4,19.2-4,19.6-6.4
	c0.4-2.4,6.4-4.8,8-4c1.6,0.8,1.6,10-1.2,10.8c-2.8,0.8-21.6,8-28,9.2c-6.4,1.2-18,8.8-22.8,10
	C199.4,309.23,188.6,309.23,188.6,309.23z"/>
<path d="M261.6,271.83c0,0-3,1.6-4.2,4.2c0,0-6.4,10.6-20.6,13.8c0,0-23,9-30.8,11c0,0-13.4,5-20.8,4.2c0,0-7,0.2-0.8,1.8
	c0,0,20.2-2,23.6-3.8c0,0,15.6-5.2,18.6-7.8c3-2.6,21.2-7.6,23.4-9.6S262,275.23,261.6,271.83z"/>
<path d="M202.88,303.34c0,0,5.23-0.23,4.08,1.32s-3.6,0.68-3.6,0.68L202.88,303.34z"/>
<path d="M195.68,304.69c0,0,5.23-0.23,4.08,1.32c-1.15,1.55-3.6,0.68-3.6,0.68L195.68,304.69z"/>
<path d="M185.25,305.94c0,0,5.23-0.23,4.08,1.32c-1.15,1.55-3.6,0.68-3.6,0.68L185.25,305.94z"/>
<path d="M177.61,306.48c0,0,5.23-0.23,4.08,1.32c-1.15,1.55-3.6,0.68-3.6,0.68L177.61,306.48z"/>
<path d="M219.41,295.94c0,0,6.96-0.3,5.42,1.76c-1.53,2.06-4.79,0.9-4.79,0.9L219.41,295.94z"/>
<path d="M229.73,291.52c0,0,5.96-3.3,5.42,1.76c-0.27,2.56-4.79,0.9-4.79,0.9L229.73,291.52z"/>
<path d="M238.86,288.7c0,0,7.16-3.7,5.43,1.76c-0.78,2.45-4.79,0.9-4.79,0.9L238.86,288.7z"/>
<path d="M248.37,283.88c0,0,4.36-4.9,5.42,1.76c0.41,2.54-4.79,0.9-4.79,0.9L248.37,283.88z"/>
<path d="M210.83,300.43c0,0,5.23-0.23,4.08,1.32c-1.15,1.55-3.6,0.68-3.6,0.68L210.83,300.43z"/>
<path fill="#FFFFFF" stroke="#000000" stroke-width="0.1" d="M246.43,179.03c0,0-0.73,0.67-0.73-0.41
	c0-1.07,17.48-14.33,26.33-15.72C272.03,162.91,255.93,169.64,246.43,179.03z"/>
<path d="M249.4,242.83c0,0,22,22.4,31.2,26c0,0,9.2,11.2,5.2,37.2c0,0-3.2,7.6-6.4-13.2c0,0,3.2-25.2-8-9.2c0,0-8.4-9.9-2-9.6
	c0,0,3.2,2,3.6,0.4s-7.6-15.2-24.8-29.6C231,230.43,249.4,242.83,249.4,242.83z"/>
<path fill="#FFFFFF" stroke="#000000" stroke-width="0.1" d="M191,281.63c0,0-0.2-1.8,1.6-1c1.8,0.8,96,7,127.6,31
	C320.2,311.63,275,288.43,191,281.63z"/>
<path fill="#FFFFFF" stroke="#000000" stroke-width="0.1" d="M201.4,277.23c0,0-0.2-1.8,1.6-1s138.4-0.2,162,32.2
	C365,308.43,343,283.23,201.4,277.23z"/>
<path fill="#FFFFFF" stroke="#000000" stroke-width="0.1" d="M213,273.23c0,0-0.2-1.8,1.6-1c1.8,0.8,175.2-12.2,198.8,20.2
	C413.4,292.43,403.8,266.83,213,273.23z"/>
<path fill="#FFFFFF" stroke="#000000" stroke-width="0.1" d="M223,268.43c0,0-0.2-1.8,1.6-1c1.8,0.8,124-37.8,147.6-5.4
	C372.2,262.03,358.8,237.43,223,268.43z"/>
<path fill="#FFFFFF" stroke="#000000" stroke-width="0.1" d="M165,291.23c0,0-0.2-1.8,1.6-1c1.8,0.8,19.6,3,21.6,41.8
	C188.2,332.03,181,290.03,165,291.23z"/>
<path fill="#FFFFFF" stroke="#000000" stroke-width="0.1" d="M156.2,292.83c0,0-0.2-1.8,1.6-1c1.8,0.8,16-3.8,13.2,35
	C171,326.83,172.2,291.63,156.2,292.83z"/>
<path fill="#FFFFFF" stroke="#000000" stroke-width="0.1" d="M148.2,293.23c0,0-0.2-1.8,1.6-1c1.8,0.8,17.2,1.4,4.8,23.8
	C154.6,316.03,164.2,292.03,148.2,293.23z"/>
<path fill="#FFFFFF" stroke="#000000" stroke-width="0.1" d="M195.52,248.89c0,0-0.44,2,1.1,0.78
	c16.07-12.62,48.51-71.53,104.2-77.16C300.82,172.51,262.52,160.4,195.52,248.89z"/>
<path fill="#FFFFFF" stroke="#000000" stroke-width="0.1" d="M206.72,247.09c0,0-1.36-1.19,0.5-1.82s114.31-73.13,153.6-65.16
	C360.82,180.11,333.72,172.6,206.72,247.09z"/>
<path fill="#FFFFFF" stroke="#000000" stroke-width="0.1" d="M185.88,253.19c0,0-0.51,1.6,1.2,0.62
	c8.98-5.12,12.59-62.33,56.17-63.59C243.25,190.23,210.84,175.52,185.88,253.19z"/>
<path fill="#FFFFFF" stroke="#000000" stroke-width="0.1" d="M165.96,264.22c0,0-1.08,1.29,0.88,1.03
	c10.25-1.33,31.65-42.6,76.09-37.52C242.93,227.73,210.96,213.38,165.96,264.22z"/>
<path fill="#FFFFFF" stroke="#000000" stroke-width="0.1" d="M177.2,258.1c0,0-0.81,1.47,1.06,0.84
	c9.8-3.27,22.88-47.89,67.47-51.43C245.73,207.51,211.6,199.56,177.2,258.1z"/>
<path fill="#FFFFFF" stroke="#000000" stroke-width="0.1" d="M158.92,269.34c0,0-0.87,1.04,0.71,0.84
	c8.3-1.08,25.64-34.51,61.63-30.39C221.26,239.78,195.37,228.16,158.92,269.34z"/>
<path fill="#FFFFFF" stroke="#000000" stroke-width="0.1" d="M151.32,275.25c0,0-1.01,1.04,0.59,0.93
	c4.17-0.31,34.81-33.39,53.27-17.89C205.18,258.29,193.17,239.57,151.32,275.25z"/>
<path fill="#FFFFFF" stroke="#000000" stroke-width="0.1" d="M220.85,243.33c0,0-1.2-1.35,0.73-1.74
	c1.93-0.38,122.63-58.1,160.6-45.23C382.18,196.35,356.24,185.48,220.85,243.33z"/>
<path fill="#FFFFFF" stroke="#000000" stroke-width="0.1" d="M187.4,307.63c0,0-0.2-1.8,1.6-1s17.2,1.4,4.8,23.8
	C193.8,330.43,203.4,306.43,187.4,307.63z"/>
<path fill="#FFFFFF" stroke="#000000" stroke-width="0.1" d="M197.8,306.03c0,0-0.2-1.8,1.6-1c1.8,0.8,19.6,3,21.6,41.8
	C221,346.83,213.8,304.83,197.8,306.03z"/>
<path fill="#FFFFFF" stroke="#000000" stroke-width="0.1" d="M204.6,304.43c0,0-0.2-1.8,1.6-1c1.8,0.8,26.4,4.2,50,36.6
	C256.2,340.03,220.6,303.23,204.6,304.43z"/>
<path fill="#FFFFFF" stroke="#000000" stroke-width="0.1" d="M212.22,302.4c0,0-0.44-1.76,1.45-1.2
	c1.89,0.55,22.32-1.34,60.42,32.83C274.1,334.03,227.92,299.08,212.22,302.4z"/>
<path fill="#FFFFFF" stroke="#000000" stroke-width="0.1" d="M222.62,298c0,0-0.44-1.76,1.45-1.2c1.89,0.55,36.72,5.05,88.42,40.03
	C312.5,336.83,238.32,294.68,222.62,298z"/>
<path fill="#FFFFFF" stroke="#000000" stroke-width="0.1" d="M182.2,286.43c0,0-0.2-1.8,1.6-1c1.8,0.8,55.2,3.4,85.6,30.2
	C269.4,315.63,234.5,290.85,182.2,286.43z"/>
<path fill="#FFFFFF" stroke="#000000" stroke-width="0.1" d="M172.2,290.43c0,0-0.2-1.8,1.6-1c1.8,0.8,26.4,4.2,50,36.6
	C223.8,326.03,188.2,289.23,172.2,290.43z"/>
<path fill="#FFFFFF" stroke="#000000" stroke-width="0.1" d="M233.5,293.39c0,0-0.56-1.72,1.36-1.31c1.93,0.41,37,2.35,91.12,33.44
	C325.98,325.53,248.31,291.13,233.5,293.39z"/>
<path fill="#FFFFFF" stroke="#000000" stroke-width="0.1" d="M241.9,290.99c0,0-0.56-1.72,1.36-1.31c1.93,0.41,37,2.35,91.12,33.44
	C334.38,323.13,257.31,288.33,241.9,290.99z"/>
<path fill="#FFFFFF" stroke="#000000" stroke-width="0.1" d="M251.5,285.99c0,0-0.57-1.72,1.36-1.31c1.93,0.41,45,4.75,134.72,39.04
	C387.58,323.73,266.91,283.33,251.5,285.99z"/>
<path d="M140.2,292.83c0,0,5.2-0.4,4,1.2c-1.2,1.6-3.6,0.8-3.6,0.8L140.2,292.83z"/>
<path d="M171,306.83c0,0,5.2-0.4,4,1.2c-1.2,1.6-3.6,0.8-3.6,0.8L171,306.83z"/>
<path d="M162.2,306.43c0,0,5.2-0.4,4,1.2c-1.2,1.6-3.6,0.8-3.6,0.8L162.2,306.43z"/>
<path d="M66.83,294.61c0,0,5.04,1.32,3.39,2.44c-1.66,1.12-3.66-0.42-3.66-0.42L66.83,294.61z"/>
<path d="M68.83,285.01c0,0,5.04,1.32,3.39,2.44c-1.66,1.12-3.66-0.42-3.66-0.42L68.83,285.01z"/>
<path d="M61.63,280.61c0,0,5.04,1.32,3.39,2.44c-1.66,1.12-3.66-0.42-3.66-0.42L61.63,280.61z"/>
<path fill="#CCCCCC" d="M141.4,355.63c0,0-1.6,0-5.6,2c-2,0-13.2,3.6-18.8,13.6C117,371.23,129.4,361.63,141.4,355.63z"/>
<path fill="#CCCCCC" d="M229.11,448.27c0.14,0.26,0.2,0.68,0.49,0.7c0.66,0.04,1.89,0.34,1.77-0.29c-0.85-4.31-1.72-9.24-5.85-11.05
	c-0.64-0.28-2.08,0.13-2.16,1.02c-0.13,1.52-0.24,2.87,0.06,4.34c0.3,1.42,2.46,1.43,3.38,0.05
	C227.73,444.7,228.17,446.54,229.11,448.27z"/>
<path fill="#CCCCCC" d="M218.04,453.01c0.75,1.41,0.62,3.27,2.04,3.83c0.74,0.29,2.59-0.68,2.17-1.75c-0.8-2.06-1.19-4.3-2.58-6.11
	c-0.2-0.26,0.04-0.79-0.12-1.12c-0.59-1.22-1.74-1.96-3.15-1.63c-1.11,2.2,0.03,4.33,1.56,6.04
	C218.09,452.42,217.92,452.8,218.04,453.01z"/>
<path fill="#CCCCCC" d="M178.43,447.82c-0.11-0.38-0.15-0.84,0.02-1.16c0.53-1.03,1.32-2.16,0.99-3.18
	c-0.35-1.06-1.46-0.87-2.11-0.3c-1.14,0.99-1.18,2.82-1.88,4.18c-0.2,0.39-0.15,0.96-0.59,1.35c-0.47,0.42-0.91,1.94-0.82,2.52
	c0.05,0.31-0.13,10.22,0.09,9.96c0.62-0.73,3.67-10.47,3.74-11.36C177.93,449.09,178.67,448.62,178.43,447.82z"/>
<path fill="#CCCCCC" d="M152.8,441.03c2.63-2.5,5.42-5.46,4.98-9.17c-0.12-0.98-1.89-0.45-2.08,0.4c-0.8,3.62-2.84,6.29-5.41,8.68
	c-2.2,2.05-4.06,8.39-4.29,8.9C149.69,444.57,151.95,441.83,152.8,441.03z"/>
<path fill="#CCCCCC" d="M139.22,435.06c0.52-0.37,0.22-0.86,0.44-1.19c0.95-1.46,2.25-2.7,2.27-4.44c0-0.28-0.38-0.59-0.71-0.36
	c-0.28,0.18-0.62,0.31-0.73,0.44c-2.03,2.45-3.43,5.12-4.87,7.93c-0.18,0.36-1.33,4.85-1.01,4.96c0.24,0.08,1.96-4.1,2.17-4.21
	C138.04,437.51,138.05,435.89,139.22,435.06z"/>
<path fill="#CCCCCC" d="M155.95,454.61c0.44-0.87,2.02-2.07,1.91-2.96c-0.12-0.93,0.35-2.37-0.56-1.68c-1.26,0.95-4.71,2.3-4.98,8.1
	C152.3,458.64,155.27,455.95,155.95,454.61z"/>
<path fill="#CCCCCC" d="M170.4,437.43c0.4-0.67,1.11-0.2,1.57-0.46c0.65-0.37,1.26-0.93,1.55-1.58c0.97-2.15,2.74-3.97,2.88-6.36
	c-1.49-1.4-2.17,0.64-2.8,1.6c-1.32-1.65-2.32,0.23-3.62,0.75c-0.07,0.03-0.28-0.32-0.36-0.29c-1.18,0.44-1.86,1.52-2.85,2.3
	c-0.17,0.13-0.58-0.05-0.72,0.09c-0.65,0.6-1.62,0.93-1.9,1.61c-1.11,2.71-4.25,4.8-6.14,12.34c0.38,0.91,4.51-6.64,5-7.34
	c0.84-1.2,0.95,1.66,2.23,1c0.05-0.03,0.24,0.21,0.37,0.34c0.19-0.28,0.41-0.51,0.8-0.4c0-0.4-0.13-0.96,0.07-1.11
	c1.24-0.98,1.15-2.04,1.93-3.29C168.86,437.42,169.92,436.7,170.4,437.43z"/>
<path fill="#CCCCCC" d="M230.2,491.83c0,0,7.4-20.4,3-31.6c0,0,11.4,21.6,6.8,32.8c0,0-0.4-10.4-4.4-15.4
	C235.6,477.63,231.6,490.43,230.2,491.83z"/>
<path fill="#CCCCCC" d="M215.4,489.23c0,0,5.4-8.8-2.6-27.2c0,0-0.8,20.4-7.6,31.4C205.2,493.43,219.4,473.23,215.4,489.23z"/>
<path fill="#CCCCCC" d="M205.4,487.23c0,0-0.2-20,0.2-23c0,0-3.8,16.6-14,26.2C191.6,490.43,206,478.43,205.4,487.23z"/>
<path fill="#CCCCCC" d="M195.8,455.23c0,0,6,13.6-4,32c0,0,6.4-12.2,1.6-19.2C193.4,468.03,196,464.63,195.8,455.23z"/>
<path fill="#CCCCCC" d="M176.6,486.83c0,0-1-15.6,0.8-17.8c0,0,0.2-6.4-0.2-7.4c0,0,4-6.2,4.2,1.2c0,0,1.4,7.8,4.2,12.4
	c0,0,3.6,5.4,3.4,11.8C189,487.03,179,456.83,176.6,486.83z"/>
<path fill="#CCCCCC" d="M173,459.23c0,0-6.6,10.8-8.4,29.8c0,0-1.4-6.2,2.4-20.6C167,468.43,171.2,453.03,173,459.23z"/>
<path fill="#CCCCCC" d="M151.2,479.03c0,0,5-5.4,6.4-10.4c0,0,3.6-15.8-2.8-7.2c0,0,0.2,8-8,15.4
	C146.8,476.83,151.6,474.43,151.2,479.03z"/>
<path fill="#CCCCCC" d="M145.4,474.03c0,0,3.4-17.4,4.2-18.2c0,0,1.8-3.4-1-0.2c0,0-8.8,19.2-12.8,25.8
	C135.8,481.43,143.8,472.23,145.4,474.03z"/>
<path fill="#CCCCCC" d="M139.6,457.43c0,0,11.6-22.4-10.2,3.4C129.4,460.83,140.4,451.03,139.6,457.43z"/>
<path fill="#CCCCCC" d="M124.2,442.83c0,0,4.8-18.8,7.4-18.6c0,0,8.2-9,1.6,1.6c0,0-6,9.6-5.4,19.4
	C127.8,445.23,127.2,435.63,124.2,442.83z"/>
<path fill="#CCCCCC" d="M454.5,431.43c0,0-12-10-14.5-13.5c0,0,13.5,18.5,13.5,25.5C453.5,443.43,456,435.93,454.5,431.43z"/>
<path fill="#CCCCCC" d="M460,409.43c0,0-21-15-24.5-22.5c0,0,26.5,29.5,26.5,34C462,420.93,462.5,411.93,460,409.43z"/>
<path fill="#CCCCCC" d="M477,255.43c0,0-12-8-13.5-6c0,0,10.5,6.5,13,15C476.5,264.43,475,255.43,477,255.43z"/>
<path fill="#CCCCCC" d="M485.5,335.93l-17.5-12c0,0,19,17,19.5,21L485.5,335.93z"/>
<path fill="none" stroke="#000000" d="M94.75,313.43l22,4.75"/>
<path fill="none" stroke="#000000" d="M145,475.43c0,0-0.5-3.5-9.5,7"/>
<path fill="none" stroke="#000000" d="M150.5,480.43c0,0,2-6.5-4.5-2"/>
<path fill="none" stroke="#000000" d="M204.5,488.93c0,0,1.5-11-10,2"/>
</svg>
