<?xml version="1.0" encoding="utf-8"?>
<!-- Generator: Adobe Illustrator 15.0.1, SVG Export Plug-In  -->
<!DOCTYPE svg PUBLIC "-//W3C//DTD SVG 1.1 Tiny//EN" "http://www.w3.org/Graphics/SVG/1.1/DTD/svg11-tiny.dtd" [
	<!ENTITY ns_flows "http://ns.adobe.com/Flows/1.0/">
]>
<svg version="1.1" baseProfile="tiny"
	 xmlns="http://www.w3.org/2000/svg" xmlns:xlink="http://www.w3.org/1999/xlink" xmlns:a="http://ns.adobe.com/AdobeSVGViewerExtensions/3.0/"
	 x="0px" y="0px" width="501px" height="85px" viewBox="-0.23 -0.27 501 85" overflow="visible" xml:space="preserve">
<defs>
</defs>
<path fill="#5A3D1C" d="M196.1,40.94c-1.46,2-2.17,4.43-3.11,6.7c-0.79,1.92-1.51,4.05-3.05,5.52c-0.83,0.79-1.84,1.34-2.81,1.95
	c0.5-0.15,0.97-0.37,1.46-0.55c1.42-0.5,2.77-1.01,4.13-1.66c1.49-0.71,2.93-1.51,4.32-2.41c2.41-1.56,4.48-3.82,6.29-6.02
	c0.68-0.82,1.39-1.58,1.97-2.46c0.15-0.22,0.3-0.44,0.44-0.66c0.09-0.26,0.2-0.5,0.37-0.61c-0.01,0.2-0.22,0.36-0.32,0.53
	c-0.02,0.03-0.03,0.05-0.05,0.08c-0.1,0.3-0.17,0.64-0.23,0.84c-0.16,0.53-0.52,0.95-0.78,1.44c-0.29,0.54-0.53,1.07-0.89,1.58
	c-0.83,1.17-1.7,2.31-2.6,3.42c-1.17,1.43-2.32,2.9-3.82,4c-0.99,0.73-2.01,1.43-3.05,2.11c1.9-0.53,3.79-1.16,5.64-1.83
	c2.82-1.04,5.28-2.46,7.48-4.53c0.96-0.9,1.92-1.87,2.59-3c0.57-0.97,0.79-2.02,0.85-3.13c0.06-1.12,0-2.26,0.19-3.38
	c0.16-0.89,0.52-1.66,1-2.42c-2.44-0.64-4.95-1.26-7.47-0.74C201.23,36.4,198.18,38.09,196.1,40.94z M132.1,33.94
	c0.53,0,0.96-0.43,0.96-0.96c0-0.53-0.43-0.96-0.96-0.96c-0.53,0-0.96,0.43-0.96,0.96C131.14,33.51,131.57,33.94,132.1,33.94z
	 M136.85,34.74c0-0.77-0.63-1.4-1.4-1.4c-0.77,0-1.4,0.63-1.4,1.4s0.63,1.4,1.4,1.4C136.22,36.14,136.85,35.52,136.85,34.74z
	 M139.75,30.44c0.44,0.53,0.9,1.03,1.34,1.55c0.2,0.24,0.55,0.45,0.82,0.63c-2.71-2.09-1.06-6.01-1.01-8.8
	c0-0.02-0.01-0.04-0.02-0.05c-0.14-0.12-0.92,0.28-1.36,0.51c0.45-0.36,0.69-1.22,0.75-1.67c0.01-0.08-0.12-2.14-0.54-1.52
	c-0.75,1.1-0.99,2.45-1.56,3.65c0.03-1.03,0.46-2.06,0.75-3.05c0.16-0.56,0.31-1.14,0.45-1.7c-0.43-0.67-0.82-1.37-1.01-2.15
	c-0.07-0.3-0.22-0.67-0.19-0.97c-0.12,2.45-1.4,4.58-1.17,7.16C137.22,26.39,138.24,28.63,139.75,30.44z M145.13,35.9
	c0.5,0.51,2.95,2.21,2.95,2.93c0.01-1.18-0.14-2.33-0.23-3.51c-0.12-1.41-0.56-2.73-1.2-3.93c-0.06-0.07-0.12-0.15-0.14-0.26
	c0.05,0.09,0.09,0.17,0.14,0.26c0.04,0.05,0.09,0.1,0.12,0.16c0.17,0.29,0.3,0.62,0.46,0.92c0.23,0.42,0.51,0.83,0.71,1.27
	c0.28,0.62,0.44,1.3,0.62,1.96c0.22,0.82,0.41,1.67,0.57,2.52c0.04-0.19,0.07-0.37,0.11-0.54c0.16-0.77,0.26-1.59,0.35-2.37
	c0.23-1.99-0.57-4.02-1.81-5.52c-0.62-0.75-3.91-3.08-3.88-4.04c-0.08,2.12-1.14,4.1-0.88,6.28
	C143.22,33.56,144.09,34.82,145.13,35.9z M115.84,55.4c0.32,0.01,0.55-0.12,0.82-0.3c0.72-0.46,1.36-0.9,1.96-1.5
	c1.11-1.1,1.95-2.42,3.48-2.99c1.07-0.39,2.08-0.59,3.21-0.5c1,0.08,2.36,0.58,3.31,0.12c-0.13-0.13-0.27-0.13-0.45-0.17
	c-0.26-0.06-0.53-0.09-0.8-0.14c-0.84-0.14-1.68-0.27-2.52-0.38c-4.75-0.63-9.76,0.56-13.08,4.21c-0.23,0.25-0.43,0.53-0.64,0.8
	c-0.11,0.15-0.25,0.25-0.36,0.39c0.46-0.25,0.94,0,1.42,0.13c0.19,0.05,0.38,0.1,0.57,0.15c0.25-0.22,0.5-0.42,0.71-0.62
	c0.49-0.47,1.02-0.91,1.5-1.4c0.25-0.26,0.47-0.52,0.74-0.77c-0.75,0.95-1.42,1.94-2.06,2.97c0.04-0.06,1.26-0.09,1.55-0.38
	c0.39-0.4,0.58-1.22,0.85-1.71C115.88,53.99,115.78,54.72,115.84,55.4z M154.31,45.83c1.46,0.81,3.06,1.36,4.5,2.22
	c0.52,0.31,0.99,0.66,1.43,1.03c-0.19-0.4-0.4-0.8-0.64-1.13c-1.29-1.77-2.41-3.75-3.21-5.79c-0.64-1.64-0.55-3.46-1.08-5.12
	c0.7,1.88,2.26,3.59,3.2,5.33c0.5,0.93,1.11,1.8,1.63,2.72c-0.25-0.44,0.41-2.38,0.48-2.88c0.19-1.23,0.37-2.46,0.39-3.7
	c0.04-2.26-0.5-4.55-2.17-6.18c-0.95-0.92-2.12-1.48-3.31-2.02c-1.83-0.83-3.59-1.94-4.98-3.41c0.81,0.85,0.56,3.49,0.49,4.6
	C150.7,36.58,148.78,42.75,154.31,45.83z M130.11,31.83c0-0.4-0.32-0.72-0.72-0.72s-0.72,0.32-0.72,0.72s0.32,0.72,0.72,0.72
	S130.11,32.23,130.11,31.83z M161.01,52.5c0.73,0.43,1.5,0.84,2.23,1.29c-3.03-4.87-9.32-6.73-14.68-7.34
	c-4.64-0.53-9.14,0.59-13.37,2.47c-2.6,1.15-4.99,2.86-7.6,3.94c-1.4,0.58-6.17,2.59-7.5,1.55c2.19,1.7,4.52,2.67,7.29,3.04
	c2.32,0.32,4.65,0.14,6.97-0.04c5.29-0.41,10.43-2.89,15.76-3.45c5.94-0.63,10.42,1.49,15.79,3.48c-0.41-0.28-0.81-0.53-1.18-0.88
	c-0.41-0.38-0.91-0.6-1.38-0.91c-1.27-0.83-2.78-1.51-4.2-2.06c-3.61-1.41-7.52-2.38-11.4-2.47c-1.86-0.04-3.74,0.11-5.56,0.53
	c-1.05,0.24-2.14,0.4-3.15,0.78C146.15,49.51,153.96,48.38,161.01,52.5z M146.07,38.06c-1.87-1.11-4.22-1.54-6.38-1.45
	c-2.46,0.12-4.62,1.2-6.53,2.7c-1.71,1.34-3.21,2.92-4.52,4.65c0.41,0.02,0.72-0.01,1.12,0.13c2.3,0.82,3.83,2.35,6.45,2.46
	c3.98,0.17,7.75-2.84,11.81-1.68c-0.64-1.14-1.55-2.02-2.61-2.69c-2.05-1.3-4.67-1.84-6.97-2.08c1.15,0.12,2.54-0.44,3.78-0.35
	c3.59,0.27,5.51,1.99,7.85,4.47c0.09,0.1,0.2,0.2,0.3,0.29C149.37,42.13,148.39,39.43,146.07,38.06z M189.99,37.66
	c0.28,0.62,0.48,1.3,0.72,1.95c0.12,0.32,0.17,0.64,0.27,0.96c0.11,0.36,0.31,0.68,0.42,1.04c0.1,0.31,0.12,0.64,0.2,0.96
	c0.89-3.72,0.65-7.6,1.52-11.32c-0.09,0.38,0.43,1.66,0.52,2.15c0.21,1.16,0.39,2.33,0.49,3.5c0.05,0.67,0.12,1.34,0.15,2.01
	c0.02,0.51-0.08,0.98,0.04,1.47c0.54-0.42,0.98-1.02,1.44-1.55c0.65-0.74,1.4-1.4,1.93-2.23c0.61-0.96,0.97-1.93,1.11-3.06
	c0.12-1.02,0.03-2.01-0.22-2.97c-0.78-3.01-3.08-5.7-4.88-8.1c-0.07,0.72-0.61,1.37-1.04,1.92c-0.65,0.82-1.21,1.78-1.62,2.74
	c-1.07,2.5-2.14,5.37-1.61,8.14C189.56,36.04,189.66,36.92,189.99,37.66z M127.28,22.5c1.18,1.5,2.66,2.74,4.14,3.92
	c1.74,1.4,3.55,2.72,5.33,4.08c2.23,1.7,4.35,3.49,6.45,5.35l0.29-0.15c-2.69-2.33-5.22-4.84-8.06-6.99
	c-2.67-2.02-5.32-4.08-7.42-6.73c-0.76-0.96-1.63-1.94-2.08-3.1c-1.14-2.93,0.06-6,0.65-8.87c0.4-1.95-0.07-3.56-1-5.22
	c-0.19,0.48-0.38,0.95-0.57,1.43c-0.39,0.99-0.33,2.4-0.95,3.29c-0.17-1.48,1.38-4.87,0.72-6.09c-0.21-0.4-0.41-0.82-0.53-1.26
	c-0.2-0.71-0.19-1.42-0.15-2.15c-1.07,1.89-1.68,3.88-1.93,6.04c-0.33,2.88,0.38,5.61,1.35,8.3
	C124.51,17.1,125.44,20.17,127.28,22.5z M226.94,55.41c-1.93-1.65-4.17-2.8-6.65-3.39c-4.94-1.18-10.22-0.85-15.11,0.38
	c-4.8,1.21-9.24,3.44-13.96,4.87c-2.01,0.61-4.1,1.05-6.23,1.29h-6.62c-1.07-0.13-2.13-0.33-3.18-0.6
	c-11.69-3.07-12.91-20.98,0.03-23.32c5.52-1,10.87,2.19,12.41,7.62c1.51,5.33-1,11.44-7,12.01c-3.12,0.3-6.72-0.85-8.76-3.32
	c-1.85-2.23-1.64-5.13,0.39-7.17c0.55-0.55,1.33-1.12,2.2-1.55c-0.6,0.68-0.97,1.57-0.97,2.55c0,3.23,3.04,4.16,5.7,3.64
	c3.46-0.68,2.16-6.44,0.05-7.92c-2.98-2.09-8.29-0.51-9.52,3.14c-1.3,3.87-0.15,8.88,3.29,11.28c3.93,2.74,9.7,1.91,13.35-0.91
	c3.76-2.9,5.23-7.92,3.98-12.46c-1.24-4.48-4.95-7.87-9.11-9.71c-3.97-1.76-8.32-1.89-12.02,0.56c-3.37,2.23-6.28,5.99-6.93,10.04
	c-0.75,4.66,1.62,9.58,4.59,13.04c1.13,1.31,2.52,2.31,4.08,3.06H28.77c-1,0-1.81,0.81-1.81,1.81c0,1,0.81,1.81,1.81,1.81h176.34
	c-0.45,0.06-0.91,0.15-1.38,0.26c-3.69,0.89-6.97,2.69-8.67,6.22c-3.08,6.38-1.3,13.95,6.54,14.85c2.07,0.24,4.24,0.25,6.3-0.08
	c2.52-0.41,5.38-2.41,6.59-4.63c1.17-2.16,1.25-6.34-0.44-8.34c-1.19-1.4-3-2.12-4.75-2.5c-4-0.86-8.65,0.09-10.37,4.22
	c-0.8,1.93-0.78,4.35,0.65,5.99c1.5,1.71,4,1.93,6.06,1.32c1-0.29,2.36-0.93,3.17-1.86c0.44-0.43,0.71-1.03,0.71-1.69
	c0-1.3-1.06-2.36-2.36-2.36s-2.36,1.06-2.36,2.36c0,1.24,0.96,2.26,2.18,2.35c-0.57,0.29-1.21,0.45-1.85,0.47
	c-2.01,0.05-4.03-1.14-4.93-2.94c-0.95-1.9-0.38-4.04,1.1-5.49c2.98-2.91,8.48-3.12,11.44-0.1c1.49,1.52,2.23,3.7,1.92,5.81
	c-0.39,2.67-2.38,4.75-4.8,5.78c-4.54,1.94-11.1,0.19-13.53-4.12c-1.83-3.25-0.43-8.94,2.05-11.39c2.94-2.91,8.49-3.91,12.47-3.06
	c3.68,0.79,7,2.84,10.87,2.89c2.79,0.04,5.81-1.64,7.55-3.99c0.9-0.11,1.59-0.87,1.59-1.8c0-0.48-0.22-1-0.56-1.52
	C229.46,57.49,227.76,56.11,226.94,55.41z M191.73,58.56c10.83-3.23,22.46-8.36,32.87-1.06c0.46,0.32,0.92,0.7,1.39,1.06H191.73z
	 M225.97,63.16c-3.26,2.99-7.12,2.02-10.86,0.64c-2.01-0.75-3.91-1.35-5.85-1.62h17.64C226.59,62.53,226.28,62.87,225.97,63.16z
	 M90.1,55.29c0.34,0.05,3.66-0.29,3.69-0.47c-0.04,0.19-0.57,0.26-0.73,0.31c-0.96,0.3-2,0.63-3.04,0.81
	c0.35,0.35,0.73,0.68,1.13,0.97c0.2-0.08,0.4-0.16,0.6-0.26c0.74-0.34,1.6-0.33,2.29-0.8c-0.11,0.15-0.27,0.3-0.44,0.4
	c-0.59,0.35-1.28,0.59-1.82,1.01c2.14,1.08,4.41,1.27,6.69,0.45c0.89-0.32,1.68-0.86,2.43-1.42c0.69-0.51,1.37-1.04,2.02-1.61
	c0.63-0.55,1.22-1.16,1.91-1.65c0.6-0.43,1.27-0.74,1.93-1.05c0.63-0.3,1.24-0.64,1.86-0.94c0.65-0.32,1.32-0.57,1.99-0.85
	c1.27-0.53,2.44-1.13,3.8-1.43c1.31-0.29,2.62-0.62,3.98-0.58c2.51,0.08,5,0.33,7.48,0.74c1.92,0.32,4.95,1.59,6.81,0.6l-0.01,0
	c-2.87-0.28-5.63-1.08-8.48-1.5c-4.57-0.67-9.32-0.09-13.57,1.73c-1.91,0.82-3.79,1.62-5.75,2.3c-0.97,0.33-1.94,0.65-2.93,0.91
	c-1.05,0.28-2.12,0.41-3.2,0.56c-1.98,0.26-3.98,0.29-5.97,0.05c-1.49-0.18-3.1-0.59-4.36-1.46c-0.64-0.44-1.12-1.09-1.74-1.56
	c0.3,0.99,0.77,1.9,1.32,2.78C88.55,54.2,88.98,55.12,90.1,55.29z M187.2,64.97c-1.04,0.23-2.07,0.49-3.07,0.93
	c-1.82,0.81-3.75,1.65-5.31,2.93c1.69-1.6,3.01-3.67,5.26-4.54c0.74-0.29,1.49-0.57,2.22-0.87c0.31-0.13,0.64-0.31,0.96-0.39
	c0.25-0.06,0.5-0.07,0.76-0.1c-0.15-0.01-0.31-0.03-0.46-0.06c-5.79-1.19-11.87,2.39-14.4,7.5c-0.33,0.67-0.56,1.41-0.79,2.12
	c0.25-0.37,0.58-0.44,1.01-0.43c2.33,0.09,4.36,1.11,6.69,0.17c2.67-1.07,4.87-4.83,6.79-6.92C186.97,65.21,187.09,65.1,187.2,64.97
	z M101,15.44c0.06-0.02,0.12-0.04,0.18-0.06C101.11,15.37,101.05,15.39,101,15.44z M194.32,66.95c0.2-0.45,0.39-0.89,0.6-1.31
	c-0.61,0.42-1.17,0.91-1.77,1.33c-1.07,0.74-2.23,1.51-3.19,2.39c-0.39,0.35-0.82,0.72-1.23,1c0.33-0.85,0.88-1.48,1.38-2.21
	c0.83-1.21,1.86-2.35,2.93-3.34c0.23-0.21,0.5-0.37,0.73-0.59c0.2-0.19,0.35-0.42,0.57-0.58c0.13-0.09,0.27-0.18,0.42-0.26
	c-2.33,0.33-4.53,1.31-6.38,2.81c-1.02,0.82-2.02,1.73-2.7,2.85c-0.68,1.1-1.1,2.38-1.49,3.6c-0.46,1.43-0.61,2.81-0.6,4.3
	c0.07-0.37,0.1-0.63,0.4-0.92c0.25-0.24,0.48-0.22,0.81-0.22c0.91,0,1.81,0.22,2.74,0.18c3.22-0.14,4.34-3.94,5.42-6.35
	c0.22-0.49,0.56-0.87,0.76-1.38C193.89,67.8,194.13,67.39,194.32,66.95z M104.97,35.63c0-1.1-0.89-1.99-1.99-1.99
	c-0.41,0-0.8,0.13-1.12,0.34c0.07-0.19,0.15-0.39,0.26-0.58c0.78-1.43,2.19-2.46,3.65-3.12c7.41-3.36,16.57-2.64,24.06-0.08
	c2.25,0.77,4.41,1.75,6.54,2.81c1.04,0.51,5.9,2.25,6.24,3.27l-0.15-0.44c-2.66-2.12-5.57-3.81-8.7-5.15
	c-6.05-2.59-12.77-4.04-19.37-3.66c-2.91,0.17-5.87,0.68-8.54,1.89c-1.7,0.77-3.4,1.88-4.41,3.49c-0.75,1.2-0.95,3.17-0.09,4.38
	C102.27,38.1,104.97,37.4,104.97,35.63z M92.61,44.71c1.39,1.11,3.17,1.59,4.89,1.91c2.04,0.38,4.13,0.54,6.2,0.62
	c3.69,0.14,7.32-0.12,10.97-0.64c2.94-0.41,5.92-0.41,8.86-0.02c2.86,0.39,5.67,1.54,8.56,1.62c-0.68-0.08-1.35-0.2-2.02-0.35
	c-3.16-0.73-6.17-2.11-9.49-2.17c-5.69-0.09-11.07,1.66-16.79,0.61c-1.75-0.32-3.41-1.15-4.51-2.57c-0.38-0.49-0.71-1.01-0.99-1.56
	c-0.26-0.51-0.44-1.1-0.87-1.49c0,0-0.88,1.04-1.01,1.16c-0.01-0.62,0.22-1.21,0.36-1.81c0.03-0.11-0.72-0.14-0.79-0.11
	c-0.29,0.16-0.18,0.4-0.32,0.66c-0.21,0.4-0.19,1.08-0.52,1.42c-0.38-0.69,0.01-1.5-0.06-2.23c0-0.02-0.78-0.02-0.84,0.02
	c-0.22,0.16-0.18,0.71-0.21,0.96c-0.07,0.6,0.02,1.22-0.17,1.8c-0.21-0.5-0.4-1.07-0.52-1.6c-0.06-0.28-0.11-0.56-0.15-0.84
	c0.05,0.46-3.8,0.58-3.68-1.37c-0.06,0.91,0.16,1.72,0.55,2.54C90.69,42.58,91.5,43.83,92.61,44.71z M102.75,16.09
	c1.75,1.35,4.97,0.82,7.07,0.74c-0.15-0.02-0.37,0.13-0.52,0.16c-1.62,0.3-3.36,0.67-4.88,1.35c2.74,2.5,5.49,0.83,8.72,0.85
	c4.01,0.03,7.64,3.02,10.89,5.06c3.91,2.45,7.89,5.16,12.22,6.82c-0.6-0.51-1.27-0.96-1.93-1.41c-1.03-0.7-2.14-1.21-3.23-1.8
	c-1.2-0.64-2.41-1.29-3.54-2.06c-1.5-1.02-3.05-1.93-4.57-2.91c-1.53-0.98-2.82-2.28-4.37-3.23c-1.2-0.74-2.43-1.49-3.69-2.12
	c-2.43-1.23-5.1-2.07-7.74-2.68c-2.06-0.47-4.02-0.08-5.99,0.53c0.19,0.01,0.41,0.21,0.57,0.28
	C102.07,15.79,102.47,15.87,102.75,16.09z M358.92,35.93c2.09-1.85,4.22-3.65,6.45-5.35c1.78-1.35,3.58-2.68,5.33-4.08
	c1.48-1.19,2.96-2.43,4.14-3.92c1.83-2.33,2.77-5.4,3.76-8.16c0.97-2.7,1.67-5.42,1.34-8.3c-0.25-2.16-0.86-4.15-1.93-6.04
	c0.04,0.73,0.05,1.45-0.15,2.15c-0.13,0.44-0.32,0.86-0.53,1.26c-0.66,1.23,0.89,4.61,0.72,6.09c-0.62-0.89-0.56-2.3-0.95-3.29
	c-0.19-0.48-0.38-0.95-0.57-1.43c-0.93,1.66-1.4,3.28-1,5.22c0.59,2.88,1.79,5.95,0.65,8.87c-0.45,1.16-1.32,2.13-2.08,3.1
	c-2.1,2.65-4.75,4.7-7.42,6.73c-2.84,2.15-5.37,4.66-8.06,6.99L358.92,35.93z M362.36,30.53c1.51-1.81,2.53-4.05,2.75-6.41
	c0.23-2.58-1.04-4.71-1.17-7.16c0.04,0.3-0.12,0.67-0.19,0.97c-0.19,0.79-0.58,1.48-1.01,2.15c0.15,0.57,0.29,1.14,0.46,1.7
	c0.28,0.99,0.72,2.02,0.75,3.05c-0.57-1.19-0.81-2.54-1.56-3.65c-0.43-0.62-0.55,1.43-0.54,1.52c0.06,0.45,0.3,1.31,0.75,1.67
	c-0.44-0.23-1.22-0.63-1.36-0.51c-0.01,0.01-0.02,0.03-0.02,0.05c0.04,2.79,1.7,6.71-1.01,8.8c0.26-0.19,0.62-0.4,0.81-0.63
	C361.45,31.56,361.92,31.05,362.36,30.53z M374.56,25.87c-1.12,0.76-2.34,1.42-3.54,2.06c-1.09,0.58-2.21,1.1-3.23,1.8
	c-0.66,0.45-1.33,0.9-1.93,1.41c4.33-1.66,8.31-4.37,12.22-6.82c3.25-2.03,6.88-5.03,10.89-5.06c3.23-0.02,5.99,1.66,8.72-0.85
	c-1.51-0.67-3.25-1.04-4.88-1.35c-0.15-0.03-0.38-0.18-0.52-0.15c2.1,0.08,5.32,0.61,7.07-0.74c0.29-0.22,0.68-0.29,1-0.43
	c0.16-0.07,0.38-0.27,0.57-0.28c-1.98-0.62-3.93-1-5.99-0.53c-2.65,0.6-5.32,1.45-7.74,2.68c-1.26,0.63-2.49,1.38-3.69,2.12
	c-1.55,0.96-2.84,2.25-4.37,3.23C377.61,23.94,376.06,24.85,374.56,25.87z M352.87,37.77c0.04,0.17,0.07,0.36,0.11,0.54
	c0.16-0.85,0.35-1.69,0.57-2.52c0.17-0.65,0.34-1.34,0.62-1.96c0.2-0.43,0.48-0.85,0.71-1.27c0.16-0.3,0.3-0.62,0.46-0.92
	c0.04-0.06,0.08-0.11,0.12-0.16c0.04-0.08,0.09-0.17,0.14-0.26c-0.02,0.11-0.08,0.18-0.14,0.26c-0.63,1.2-1.08,2.52-1.2,3.93
	c-0.1,1.18-0.24,2.32-0.23,3.51c0-0.72,2.45-2.42,2.95-2.93c1.04-1.08,1.92-2.34,2.11-3.88c0.27-2.17-0.8-4.16-0.88-6.27
	c0.03,0.95-3.25,3.28-3.88,4.04c-1.24,1.5-2.04,3.53-1.81,5.52C352.61,36.18,352.7,37,352.87,37.77z M473.34,58.64H331.13
	c1.56-0.75,2.96-1.76,4.08-3.07c2.97-3.46,5.34-8.38,4.6-13.04c-0.65-4.05-3.56-7.81-6.93-10.04c-3.7-2.45-8.05-2.32-12.02-0.56
	c-4.15,1.84-7.86,5.24-9.1,9.71c-1.26,4.53,0.21,9.55,3.98,12.46c3.66,2.82,9.42,3.65,13.35,0.91c3.44-2.39,4.59-7.4,3.29-11.28
	c-1.22-3.65-6.53-5.23-9.52-3.14c-2.11,1.48-3.41,7.24,0.05,7.92c2.67,0.52,5.71-0.41,5.7-3.64c0-0.98-0.37-1.87-0.97-2.55
	c0.87,0.42,1.66,1,2.2,1.54c2.03,2.03,2.24,4.94,0.39,7.17c-2.04,2.46-5.64,3.62-8.76,3.32c-6-0.58-8.51-6.68-7-12.01
	c1.54-5.42,6.89-8.62,12.41-7.62c12.93,2.34,11.72,20.25,0.03,23.32c-1.04,0.27-2.1,0.47-3.18,0.6h-6.62
	c-2.12-0.24-4.22-0.68-6.23-1.29c-4.73-1.43-9.16-3.66-13.96-4.87c-4.9-1.23-10.17-1.56-15.11-0.38c-2.48,0.59-4.72,1.74-6.65,3.39
	c-0.82,0.7-2.51,2.08-3.4,3.44c-0.34,0.52-0.56,1.04-0.56,1.52c0,0.93,0.7,1.69,1.59,1.8c1.74,2.36,4.76,4.03,7.55,3.99
	c3.87-0.06,7.19-2.11,10.87-2.89c3.98-0.85,9.53,0.16,12.47,3.06c2.49,2.45,3.88,8.14,2.05,11.39c-2.43,4.32-8.98,6.06-13.52,4.12
	c-2.42-1.03-4.41-3.11-4.8-5.78c-0.31-2.11,0.43-4.29,1.92-5.81c2.96-3.03,8.47-2.81,11.44,0.1c1.47,1.44,2.05,3.59,1.1,5.49
	c-0.9,1.8-2.92,2.99-4.93,2.94c-0.64-0.02-1.28-0.18-1.85-0.47c1.22-0.09,2.18-1.11,2.18-2.35c0-1.3-1.06-2.36-2.36-2.36
	c-1.3,0-2.36,1.05-2.36,2.36c0,0.66,0.27,1.26,0.71,1.68c0.81,0.93,2.17,1.56,3.17,1.86c2.07,0.61,4.57,0.4,6.06-1.32
	c1.43-1.64,1.45-4.06,0.65-5.99c-1.72-4.13-6.37-5.08-10.37-4.22c-1.75,0.38-3.57,1.1-4.75,2.5c-1.7,2-1.62,6.18-0.44,8.34
	c1.21,2.22,4.07,4.22,6.59,4.63c2.06,0.34,4.23,0.32,6.3,0.08c7.84-0.9,9.62-8.47,6.54-14.85c-1.71-3.53-4.98-5.33-8.67-6.22
	c-0.47-0.11-0.93-0.2-1.38-0.26h176.34c1,0,1.81-0.81,1.81-1.81C475.15,59.45,474.34,58.64,473.34,58.64z M287,63.89
	c-3.74,1.38-7.61,2.34-10.86-0.64c-0.31-0.29-0.62-0.64-0.92-0.98h17.64C290.91,62.54,289.02,63.14,287,63.89z M276.11,58.64
	c0.47-0.37,0.93-0.74,1.39-1.07c10.42-7.29,22.04-2.16,32.87,1.07H276.11z M365.26,34.83c0,0.77,0.63,1.4,1.4,1.4
	c0.77,0,1.4-0.63,1.4-1.4s-0.63-1.4-1.4-1.4C365.89,33.43,365.26,34.05,365.26,34.83z M396.26,29.01c-2.67-1.21-5.63-1.73-8.54-1.89
	c-6.6-0.38-13.32,1.07-19.37,3.66c-3.13,1.34-6.04,3.02-8.7,5.15l-0.15,0.44c0.34-1.02,5.2-2.76,6.24-3.28
	c2.13-1.06,4.29-2.04,6.54-2.81c7.49-2.57,16.65-3.29,24.06,0.08c1.46,0.66,2.87,1.69,3.65,3.12c0.11,0.19,0.19,0.38,0.26,0.58
	c-0.32-0.22-0.71-0.34-1.12-0.34c-1.1,0-1.99,0.89-1.99,1.99c0,1.77,2.69,2.48,3.63,1.17c0.86-1.21,0.66-3.17-0.09-4.37
	C399.66,30.89,397.96,29.79,396.26,29.01z M372,31.92c0,0.4,0.32,0.72,0.72,0.72s0.72-0.32,0.72-0.72c0-0.4-0.32-0.72-0.72-0.72
	S372,31.52,372,31.92z M369.05,33.07c0,0.53,0.43,0.96,0.96,0.96c0.53,0,0.96-0.43,0.96-0.96c0-0.53-0.43-0.96-0.96-0.96
	C369.48,32.11,369.05,32.53,369.05,33.07z M400.93,15.46c0.06,0.02,0.12,0.04,0.18,0.06C401.06,15.47,400.99,15.46,400.93,15.46z
	 M359.89,39.85c1.24-0.09,2.63,0.47,3.78,0.35c-2.3,0.24-4.92,0.78-6.97,2.08c-1.06,0.67-1.97,1.55-2.61,2.69
	c4.06-1.16,7.83,1.84,11.81,1.68c2.61-0.11,4.14-1.65,6.44-2.47c0.4-0.14,0.71-0.11,1.12-0.14c-1.32-1.72-2.81-3.31-4.52-4.65
	c-1.91-1.5-4.07-2.59-6.53-2.7c-2.15-0.1-4.51,0.34-6.37,1.45c-2.32,1.37-3.3,4.07-4.3,6.47c0.11-0.09,0.21-0.19,0.3-0.29
	C354.38,41.84,356.3,40.12,359.89,39.85z M316.43,69.12c-0.69-1.12-1.69-2.03-2.7-2.85c-1.86-1.5-4.05-2.48-6.38-2.81
	c0.15,0.08,0.29,0.17,0.42,0.26c0.22,0.16,0.37,0.39,0.57,0.58c0.23,0.21,0.5,0.38,0.73,0.59c1.07,1,2.1,2.14,2.93,3.34
	c0.51,0.73,1.05,1.36,1.38,2.21c-0.41-0.28-0.84-0.64-1.23-1c-0.96-0.87-2.12-1.64-3.19-2.38c-0.6-0.42-1.17-0.92-1.77-1.33
	c0.21,0.42,0.4,0.86,0.6,1.31c0.19,0.44,0.44,0.84,0.61,1.29c0.2,0.51,0.54,0.89,0.76,1.38c1.08,2.42,2.2,6.21,5.42,6.35
	c0.92,0.04,1.83-0.19,2.74-0.18c0.33,0,0.56-0.02,0.81,0.22c0.3,0.29,0.33,0.55,0.4,0.92c0.01-1.49-0.14-2.87-0.6-4.3
	C317.53,71.5,317.11,70.22,316.43,69.12z M388.63,54.69c0.21,0.2,0.46,0.4,0.71,0.62c0.19-0.05,0.38-0.1,0.57-0.15
	c0.48-0.13,0.97-0.38,1.42-0.13c-0.11-0.14-0.25-0.25-0.36-0.39c-0.21-0.27-0.41-0.54-0.64-0.8c-3.33-3.66-8.33-4.85-13.08-4.21
	c-0.84,0.11-1.68,0.24-2.52,0.38c-0.27,0.04-0.53,0.08-0.8,0.14c-0.18,0.04-0.32,0.04-0.45,0.17c0.95,0.47,2.31-0.04,3.31-0.12
	c1.13-0.09,2.14,0.11,3.21,0.5c1.53,0.56,2.37,1.88,3.48,2.99c0.61,0.6,1.25,1.03,1.96,1.5c0.27,0.18,0.51,0.31,0.82,0.3
	c0.06-0.68-0.04-1.41-0.21-2.07c0.27,0.49,0.46,1.32,0.85,1.71c0.29,0.29,1.5,0.32,1.54,0.38c-0.63-1.03-1.31-2.02-2.06-2.97
	c0.26,0.24,0.49,0.51,0.74,0.77C387.61,53.78,388.14,54.22,388.63,54.69z M341.48,42.3c0.08,0.51,0.73,2.45,0.48,2.88
	c0.52-0.92,1.12-1.8,1.62-2.73c0.94-1.74,2.5-3.45,3.2-5.33c-0.53,1.66-0.44,3.48-1.08,5.12c-0.8,2.04-1.92,4.02-3.21,5.79
	c-0.25,0.33-0.45,0.73-0.64,1.13c0.45-0.38,0.92-0.73,1.43-1.03c1.44-0.86,3.04-1.41,4.5-2.22c5.53-3.08,3.61-9.25,3.27-14.32
	c-0.07-1.12-0.32-3.75,0.49-4.6c-1.39,1.47-3.15,2.58-4.99,3.41c-1.19,0.54-2.36,1.09-3.3,2.02c-1.68,1.63-2.21,3.92-2.17,6.18
	C341.12,39.84,341.3,41.07,341.48,42.3z M403.36,53.6c-1.08-0.14-2.15-0.28-3.2-0.55c-0.99-0.26-1.97-0.57-2.93-0.91
	c-1.96-0.68-3.85-1.48-5.75-2.3c-4.24-1.82-9-2.4-13.57-1.73c-2.85,0.42-5.6,1.22-8.48,1.5h-0.01c1.86,0.99,4.89-0.28,6.81-0.6
	c2.47-0.41,4.97-0.66,7.48-0.74c1.36-0.04,2.66,0.29,3.98,0.58c1.36,0.3,2.53,0.9,3.8,1.43c0.66,0.28,1.34,0.54,1.99,0.85
	c0.62,0.31,1.23,0.65,1.86,0.95c0.66,0.32,1.33,0.62,1.93,1.05c0.68,0.49,1.28,1.1,1.91,1.65c0.65,0.57,1.33,1.1,2.02,1.61
	c0.76,0.56,1.54,1.09,2.43,1.42c2.28,0.82,4.56,0.63,6.69-0.45c-0.54-0.42-1.23-0.66-1.82-1.01c-0.17-0.1-0.33-0.25-0.44-0.4
	c0.7,0.47,1.55,0.46,2.29,0.8c0.21,0.09,0.41,0.18,0.6,0.26c0.4-0.29,0.78-0.62,1.13-0.97c-1.03-0.19-2.08-0.52-3.04-0.81
	c-0.16-0.05-0.69-0.12-0.73-0.31c0.04,0.18,3.35,0.52,3.69,0.47c1.12-0.16,1.56-1.09,2.11-1.97c0.55-0.87,1.02-1.79,1.32-2.78
	c-0.62,0.47-1.09,1.12-1.73,1.57c-1.26,0.87-2.87,1.27-4.37,1.46C407.35,53.89,405.34,53.86,403.36,53.6z M381.52,45.78
	c-3.32,0.06-6.33,1.44-9.49,2.17c-0.66,0.15-1.33,0.28-2.01,0.35c2.89-0.08,5.7-1.23,8.56-1.62c2.94-0.4,5.92-0.4,8.86,0.02
	c3.66,0.51,7.28,0.78,10.97,0.64c2.07-0.08,4.16-0.24,6.2-0.62c1.71-0.32,3.5-0.81,4.89-1.91c1.11-0.88,1.92-2.12,2.52-3.39
	c0.39-0.83,0.62-1.63,0.55-2.54c0.13,1.94-3.73,1.83-3.67,1.37c-0.04,0.28-0.09,0.56-0.15,0.84c-0.12,0.53-0.32,1.11-0.52,1.6
	c-0.19-0.58-0.1-1.2-0.17-1.8c-0.03-0.25,0.01-0.8-0.21-0.96c-0.06-0.04-0.84-0.04-0.84-0.02c-0.07,0.73,0.32,1.54-0.06,2.23
	c-0.33-0.35-0.31-1.02-0.52-1.42c-0.14-0.27-0.02-0.51-0.32-0.67c-0.07-0.04-0.81,0-0.79,0.11c0.14,0.59,0.37,1.19,0.36,1.81
	c-0.13-0.12-1-1.17-1-1.16c-0.43,0.39-0.61,0.97-0.88,1.48c-0.28,0.55-0.61,1.07-0.99,1.56c-1.1,1.41-2.76,2.25-4.51,2.57
	C392.59,47.44,387.21,45.68,381.52,45.78z M304.44,36.66c0.53,0.83,1.28,1.49,1.93,2.23c0.46,0.53,0.9,1.13,1.44,1.55
	c0.11-0.49,0.02-0.95,0.04-1.47c0.03-0.67,0.09-1.34,0.15-2.01c0.09-1.17,0.28-2.34,0.49-3.5c0.09-0.49,0.61-1.77,0.52-2.15
	c0.86,3.72,0.63,7.6,1.52,11.32c0.08-0.32,0.1-0.64,0.2-0.96c0.11-0.36,0.32-0.68,0.43-1.04c0.1-0.32,0.15-0.64,0.26-0.96
	c0.24-0.64,0.44-1.32,0.72-1.95c0.33-0.73,0.43-1.62,0.58-2.41c0.53-2.78-0.54-5.64-1.61-8.14c-0.41-0.96-0.97-1.92-1.62-2.74
	c-0.43-0.54-0.97-1.2-1.04-1.92c-1.8,2.4-4.1,5.09-4.88,8.1c-0.25,0.96-0.34,1.95-0.22,2.97C303.47,34.73,303.83,35.7,304.44,36.66z
	 M291.17,42.31c0.06,1.11,0.28,2.16,0.85,3.13c0.67,1.14,1.63,2.11,2.59,3c2.2,2.06,4.66,3.49,7.48,4.53
	c1.85,0.68,3.73,1.3,5.64,1.84c-1.04-0.68-2.06-1.38-3.05-2.11c-1.5-1.09-2.66-2.57-3.82-4c-0.9-1.11-1.77-2.25-2.6-3.42
	c-0.36-0.5-0.6-1.03-0.89-1.58c-0.25-0.48-0.62-0.9-0.78-1.43c-0.06-0.2-0.13-0.54-0.23-0.85c-0.02-0.03-0.03-0.05-0.05-0.08
	c-0.1-0.17-0.3-0.33-0.32-0.53c0.17,0.11,0.28,0.35,0.37,0.61c0.14,0.22,0.29,0.44,0.44,0.66c0.58,0.88,1.29,1.65,1.97,2.47
	c1.81,2.2,3.88,4.46,6.29,6.02c1.39,0.9,2.82,1.7,4.32,2.41c1.37,0.65,2.71,1.15,4.13,1.66c0.5,0.17,0.96,0.4,1.46,0.55
	c-0.97-0.6-1.97-1.15-2.81-1.95c-1.54-1.47-2.26-3.6-3.05-5.52c-0.94-2.27-1.64-4.7-3.11-6.7c-2.08-2.85-5.14-4.54-8.56-5.25
	c-2.52-0.52-5.03,0.1-7.47,0.74c0.48,0.76,0.84,1.53,1,2.42C291.17,40.05,291.11,41.18,291.17,42.31z M341.1,52.59
	c7.05-4.13,14.86-3,21.97-0.05c-1.01-0.38-2.1-0.54-3.15-0.79c-1.82-0.42-3.69-0.57-5.55-0.53c-3.89,0.09-7.79,1.06-11.4,2.47
	c-1.41,0.55-2.93,1.22-4.2,2.06c-0.47,0.31-0.97,0.53-1.38,0.91c-0.37,0.34-0.77,0.59-1.18,0.88c5.37-1.99,9.85-4.11,15.79-3.48
	c5.33,0.56,10.47,3.04,15.76,3.45c2.32,0.18,4.65,0.36,6.97,0.04c2.77-0.38,5.1-1.34,7.29-3.04c-1.33,1.03-6.1-0.98-7.5-1.55
	c-2.61-1.08-5-2.78-7.6-3.94c-4.23-1.87-8.73-3-13.37-2.47c-5.36,0.61-11.65,2.47-14.68,7.34C339.6,53.43,340.36,53.01,341.1,52.59z
	 M314.54,62.97c-0.16,0.03-0.31,0.05-0.47,0.06c0.25,0.03,0.51,0.03,0.76,0.1c0.32,0.08,0.65,0.26,0.96,0.39
	c0.74,0.3,1.48,0.58,2.22,0.87c2.25,0.87,3.57,2.94,5.26,4.54c-1.55-1.28-3.48-2.11-5.31-2.93c-1-0.44-2.03-0.71-3.07-0.93
	c0.12,0.12,0.24,0.24,0.35,0.36c1.92,2.08,4.12,5.85,6.79,6.92c2.34,0.93,4.36-0.08,6.69-0.17c0.43-0.02,0.75,0.06,1,0.43
	c-0.24-0.71-0.46-1.45-0.79-2.12C326.41,65.35,320.33,61.77,314.54,62.97z M251.18,60.23c-1.4,0-2.53,1.13-2.53,2.53
	c0,1.4,1.13,2.53,2.53,2.53c1.4,0,2.53-1.13,2.53-2.53C253.71,61.37,252.58,60.23,251.18,60.23z M251.01,54.67
	c-3.63,0-6.57,2.94-6.57,6.57c0,3.63,2.94,6.57,6.57,6.57c3.63,0,6.57-2.94,6.57-6.57C257.58,57.61,254.64,54.67,251.01,54.67z
	 M251.16,66.3c-2.23,0-4.05-1.81-4.05-4.05c0-2.23,1.81-4.05,4.05-4.05c2.23,0,4.04,1.81,4.04,4.05
	C255.21,64.49,253.4,66.3,251.16,66.3z M237.55,57.2c-2.23,0-4.05,1.81-4.05,4.05c0,2.23,1.81,4.04,4.05,4.04
	c2.23,0,4.05-1.81,4.05-4.04C241.59,59.01,239.78,57.2,237.55,57.2z M263.96,56.91c-2.23,0-4.04,1.81-4.04,4.05s1.81,4.04,4.04,4.04
	c2.24,0,4.05-1.81,4.05-4.04S266.2,56.91,263.96,56.91z"/>
<path fill="#5A3D1C" d="M12.04,56.3c-2.5,0-4.52,2.03-4.52,4.52c0,2.5,2.02,4.52,4.52,4.52c2.5,0,4.52-2.03,4.52-4.52
	C16.56,58.32,14.53,56.3,12.04,56.3z M2.78,58.04C1.25,58.04,0,59.28,0,60.82c0,1.54,1.25,2.78,2.78,2.78s2.78-1.25,2.78-2.78
	C5.56,59.28,4.32,58.04,2.78,58.04z M20.94,57.84c-1.54,0-2.78,1.25-2.78,2.78s1.25,2.78,2.78,2.78c1.54,0,2.78-1.25,2.78-2.78
	S22.48,57.84,20.94,57.84z"/>
<path fill="#5A3D1C" d="M488.89,55.91c-2.5,0-4.52,2.02-4.52,4.52c0,2.5,2.02,4.52,4.52,4.52s4.52-2.02,4.52-4.52
	C493.41,57.94,491.39,55.91,488.89,55.91z M479.64,57.65c-1.54,0-2.78,1.24-2.78,2.78c0,1.54,1.25,2.78,2.78,2.78
	c1.54,0,2.78-1.25,2.78-2.78C482.42,58.9,481.17,57.65,479.64,57.65z M497.8,57.46c-1.54,0-2.78,1.24-2.78,2.78
	c0,1.54,1.25,2.78,2.78,2.78c1.54,0,2.78-1.25,2.78-2.78C500.58,58.7,499.34,57.46,497.8,57.46z"/>
</svg>
