<?xml version="1.0" encoding="utf-8"?>
<!-- Generator: Adobe Illustrator 15.0.0, SVG Export Plug-In  -->
<!DOCTYPE svg PUBLIC "-//W3C//DTD SVG 1.1 Tiny//EN" "http://www.w3.org/Graphics/SVG/1.1/DTD/svg11-tiny.dtd" [
	<!ENTITY ns_flows "http://ns.adobe.com/Flows/1.0/">
]>
<svg version="1.1" baseProfile="tiny"
	 xmlns="http://www.w3.org/2000/svg" xmlns:xlink="http://www.w3.org/1999/xlink" xmlns:a="http://ns.adobe.com/AdobeSVGViewerExtensions/3.0/"
	 x="0px" y="0px" width="600px" height="600px" viewBox="-6 2 600 600" overflow="visible" xml:space="preserve">
<defs>
</defs>
<g>
	<path fill="none" d="M249.51,345.5c-0.76-0.28-3.74-0.57-3.74-0.57c-0.37,0-9.03,0.07-9.67,6.02c-0.55,5.1,1.33,15.03,17.21,28.99
		C248.79,368.11,247.32,355.71,249.51,345.5z"/>
	<path fill="none" d="M229.54,332.99c0.93,0.49,1.7,0.88,2.27,1.15c5.44-1.92,38.63-11.05,54.69-8.77
		c-0.23-4.71-1.05-11.53-3.85-12.23c-18.56-4.61-16.47-13.52-22.13-17.7c-5.65-4.18-13.03-3.93-13.28,2.46
		c-7.36-2.31-25.15-17.76-26.29-23.71c-7.33,8.15-15.21,20.11-16.49,34.77c0.08,0.19,0.16,0.36,0.24,0.55
		c3.89-4.39,13.38-14.19,22.87-17.02c-8.15,6.25-15.76,17.7-19.21,23.3c1.13,1.55,2.38,3,3.69,4.38c4.2-4.72,14.01-14.72,25.6-19.56
		c-6.96,5.8-15.48,17.9-19.98,24.66c2.09,1.66,4.17,3.12,6.1,4.35c3.92-4.76,14.59-16.59,26.66-20.54
		C241.52,316.2,233.87,326.51,229.54,332.99z"/>
	<path fill="none" d="M264.6,342.86c-0.42,0-0.85,0-1.41,1.16c-1.78,3.66,0.46,10.94,5.21,16.96c-0.29-3.93,0.03-7.55,0.3-10.54
		c0.17-1.94,0.41-4.54,0.2-5.52C268.26,344.21,266.22,342.86,264.6,342.86z"/>
	<path fill="none" d="M278.98,419.48c-2.76,3.84-4.15,8.61-3.04,11.13c0.36,0.82,0.64,0.82,0.8,0.82c0.95,0,2.21-1,2.42-1.34
		c0.19-0.59,0.05-2.42-0.06-3.75C278.95,424.45,278.76,422.06,278.98,419.48z"/>
	<path fill="none" d="M261.91,426.01c0.27,2.74,3.58,2.88,4.25,2.88c0.3,0,0.57-0.02,0.79-0.05c-0.84-5.03-0.46-10.83,1-16.62
		C262.37,418.74,261.66,423.42,261.91,426.01z"/>
	<path fill="none" d="M285.59,342.65c-0.3-0.47-0.57-0.68-1.35-0.72h0c-0.08,0-0.59,0.2-1.12,1.13c-1.43,2.51-1.6,7.91,2.18,15.3
		C286.65,353.4,287.49,345.6,285.59,342.65z"/>
	<path fill="none" d="M348.57,350.95c-0.64-5.95-9.3-6.02-9.67-6.02c-1.7,0-2.98,0.29-3.74,0.57c2.19,10.21,0.72,22.61-3.8,34.43
		C347.24,365.98,349.11,356.05,348.57,350.95z"/>
	<path fill="none" d="M316.27,360.98c4.75-6.02,6.99-13.3,5.21-16.96c-0.56-1.16-0.99-1.16-1.41-1.16c-1.62,0-3.66,1.36-4.3,2.06
		c-0.21,0.96,0.02,3.57,0.2,5.52C316.24,353.43,316.56,357.05,316.27,360.98z"/>
	<path fill="none" d="M287.8,432c0.33-0.02,0.48-0.12,0.67-0.4c1.24-1.88,0.74-7.14-0.09-10.41c-2.18,4.7-2.19,8.46-1.14,10.21
		C287.5,431.82,287.73,431.97,287.8,432z"/>
	<path fill="none" d="M317.72,428.83c0.22,0.03,0.49,0.05,0.79,0.05c0.66,0,3.98-0.14,4.25-2.88c0.25-2.59-0.46-7.27-6.05-13.79
		C318.17,418,318.56,423.81,317.72,428.83z"/>
	<path fill="none" d="M369.28,205.68c5.82-2.13,9.19-7.67,10.2-9.56c-1.33-0.11-4.32-0.32-7.7-0.32c-5.93,0-10.27,0.63-12.72,1.82
		C364.18,198.77,368.26,203.07,369.28,205.68z"/>
	<path fill="none" d="M351.29,214.51c-3.1-1.87-4.93-4.02-6.09-5.66c-2.73,2.09-4.58,4.12-5.42,5.12c1.47,0.25,4.73,0.74,8.09,0.74
		C349.1,214.71,350.25,214.64,351.29,214.51z"/>
	<path fill="none" d="M241.15,208.85c-1.16,1.64-2.99,3.79-6.09,5.66c1.04,0.13,2.18,0.2,3.42,0.2c3.36,0,6.62-0.48,8.09-0.74
		C245.73,212.97,243.87,210.93,241.15,208.85z"/>
	<path fill="none" d="M360.64,260.48c12.34,8.33,23.51,24.22,28.99,32.81c10.25-2.15,28-6.87,36.69-15.18
		c-9.07-14.75-31.81-29.55-63.65-34.3C359.84,244.77,359.12,254.53,360.64,260.48z"/>
	<path fill="none" d="M206.87,196.12c1.01,1.89,4.38,7.44,10.2,9.56c1.01-2.62,5.1-6.91,10.21-8.06c-2.44-1.2-6.79-1.82-12.72-1.82
		C211.19,195.8,208.2,196.01,206.87,196.12z"/>
	<path fill="none" d="M159.13,278.11c8.69,8.3,26.44,13.03,36.69,15.18c5.48-8.58,16.65-24.48,28.99-32.81
		c1.52-5.96,0.8-15.71-2.03-16.67C190.94,248.56,168.2,263.36,159.13,278.11z"/>
	<path fill="none" d="M324.27,440.96l-1.71,3.13h-62.22l-1.71-3.13c-1.44-2.65-2.88-5.49-4.19-8.59c-0.17,1.4-3.14,8.24-8.54,11.27
		l5.16,2.41c0,0-2.8,6.06-2.95,6.37l7.54-1.44c0,0-0.66,9.08-0.76,9.72l9.81-2.89c0,0,0.62,10.06,0.55,11.32l9.78-2.74
		c0,0,0.39,11.8,0.25,13.99c1.34-1.65,10.67-15.01,10.67-15.01s4.99,15.37,5.6,17.53c0.33-2.04,3.82-20.11,3.82-20.11
		s10.76,15.75,12.26,17.58c-0.14-2.19,0.25-13.99,0.25-13.99l9.78,2.74c-0.07-1.26,0.55-11.32,0.55-11.32l9.82,2.89
		c-0.09-0.64-0.76-9.72-0.76-9.72l7.54,1.44c-0.15-0.31-2.95-6.37-2.95-6.37l5.15-2.41c-4.89-3.24-8.31-10.57-8.54-11.27
		C327.15,435.47,325.72,438.31,324.27,440.96z"/>
	<path fill="none" d="M338.21,297.91c-0.25-6.39-7.62-6.64-13.28-2.46c-5.65,4.18-3.56,13.09-22.13,17.7
		c-2.8,0.7-3.62,7.52-3.86,12.23c16.06-2.29,49.26,6.84,54.69,8.77c0.43-0.21,0.98-0.48,1.63-0.82
		c-4.29-6.45-12.05-17.01-21.12-24.24c12.38,4.04,23.29,16.39,26.96,20.89c1.91-1.2,4-2.63,6.1-4.27
		c-4.41-6.67-13.16-19.18-20.27-25.11c12,5,22.08,15.54,26.01,20.02c1.29-1.32,2.53-2.72,3.67-4.21
		c-3.23-5.32-11.12-17.43-19.6-23.93c10,2.98,19.99,13.69,23.44,17.67c0.18-0.4,0.36-0.79,0.53-1.2
		c-1.29-14.66-9.17-26.62-16.49-34.77C363.36,280.15,345.57,295.59,338.21,297.91z"/>
	<path fill="none" d="M296.9,432c0.01-0.01,0.25-0.15,0.52-0.6c1.05-1.75,1.05-5.51-1.13-10.21c-0.84,3.3-1.33,8.54-0.09,10.41
		C296.39,431.89,296.55,431.98,296.9,432z"/>
	<path fill="none" d="M307.93,431.42c0.17,0,0.44,0,0.8-0.82c1.11-2.52-0.28-7.29-3.04-11.13c0.22,2.58,0.02,4.98-0.13,6.85
		c-0.11,1.34-0.26,3.17-0.07,3.74C305.71,430.41,306.96,431.42,307.93,431.42z"/>
	<path fill="none" d="M300.43,341.93L300.43,341.93c-0.79,0.03-1.06,0.25-1.36,0.72c-1.9,2.95-1.05,10.75,0.3,15.72
		c3.78-7.39,3.61-12.79,2.18-15.3C301.02,342.13,300.51,341.93,300.43,341.93z"/>
	<path d="M296.77,434.75c0.04,0,0.08,0,0.12,0c3.29,0,6.43-6.34,1.14-16.23c-0.94-1.75-1.56-2.61-2.11-2.61
		c-0.58,0-1.07,0.97-1.77,2.85C292.83,422.33,290.72,434.46,296.77,434.75z M296.29,421.19c2.18,4.7,2.18,8.45,1.13,10.21
		c-0.27,0.45-0.51,0.59-0.52,0.6c-0.35-0.02-0.5-0.11-0.7-0.4C294.96,429.73,295.45,424.49,296.29,421.19z"/>
	<path d="M276.97,398.93c-0.27,0-0.65,0.18-1.13,0.6c-1.44,1.26-19.18,13.74-17.91,26.87c0.45,4.62,4.67,6.49,8.23,6.49
		c2.97,0,5.48-1.29,5-3.37c-1.84-8.06,0.23-19.45,5.84-28.91C277.57,399.65,277.5,398.93,276.97,398.93z M266.95,428.83
		c-0.22,0.03-0.49,0.05-0.79,0.05c-0.66,0-3.98-0.14-4.25-2.88c-0.25-2.59,0.46-7.27,6.05-13.79
		C266.5,418,266.11,423.81,266.95,428.83z"/>
	<path d="M282.22,412.91c-0.27,0-0.63,0.14-1.08,0.46c-5.98,4.3-9.89,13.41-7.72,18.34c0.8,1.82,2.04,2.46,3.32,2.46
		c2.2,0,4.52-1.9,4.97-3.06c1.09-2.81-1.38-9.37,0.95-16.01C283.06,413.97,282.97,412.91,282.22,412.91z M279.17,430.08
		c-0.22,0.34-1.47,1.34-2.42,1.34c-0.17,0-0.44,0-0.8-0.82c-1.11-2.52,0.28-7.29,3.04-11.13c-0.22,2.58-0.02,4.98,0.13,6.85
		C279.22,427.67,279.36,429.49,279.17,430.08z"/>
	<path d="M359.41,82.64c-35.65,11.82-38.35,59.52-38.35,59.52c5.35-0.92,8.73-0.74,12.66,0.61c16.96-36.14,58.94-38.72,74.25-35.28
		C407.96,107.49,389.58,72.64,359.41,82.64z"/>
	<path d="M242.49,337.21c7.7-1.03,11.76,2.95,14.1,2.42c2.33-0.52,3.5-4.67,9.59-4.49s8.23,3.88,8.23,3.88s2.41-5.38,8.71-5.87
		c5.31-0.41,8.58,4.1,8.58,4.1l-0.94-8.62v-2.21V292.5c-21.6,0.47-57.94-21.26-67.63-20.63c5.99-6.18,11.09-9.61,11.09-9.61
		s-4.43-27.84,14.94-37.8c9.77,5.35,21.39,0.37,23.23-0.74c-9.59,0.92-15.12-3.13-15.12-3.13s19.55-4.61,19.18-26.37
		c-2.52,5.04-14.75,16.44-23.07,16.44c-4.79-8.67-19.03-31.74-58.86-19.69c4.79,17.82,27.41,32.39,46.16,32.95
		c0,0-13.83,12.91-17.89,19.91c2.83,0.96,3.55,10.71,2.03,16.67c-12.34,8.33-23.51,24.22-28.99,32.81
		c-10.25-2.15-28-6.87-36.69-15.18c9.06-14.75,31.81-29.55,63.65-34.3c-27.91-8.8-41.38-26.17-38.97-39.09
		c3.81-20.41,23.6-32.08,23.6-32.08s35.1-5.53,63.31,17.15c-19.55-26.74-62.51-23.42-62.51-23.42
		c-45.73,19.55-40.01,63.43-15.95,75.97c-35.74,13.28-46.56,40.2-46.56,40.2s9.21,13.94,47.22,21.04
		c1.99,10.95,8.66,29.51,38.1,42.52C232.83,340.44,237.65,337.86,242.49,337.21z M217.07,205.68c-5.82-2.13-9.19-7.67-10.2-9.56
		c1.33-0.11,4.32-0.32,7.69-0.32c5.93,0,10.27,0.63,12.72,1.82C222.16,198.77,218.08,203.07,217.07,205.68z M238.48,214.71
		c-1.24,0-2.39-0.07-3.42-0.2c3.1-1.87,4.93-4.02,6.09-5.66c2.72,2.08,4.58,4.12,5.42,5.12
		C245.1,214.22,241.84,214.71,238.48,214.71z M223.78,329.63c-1.93-1.24-4.01-2.69-6.1-4.35c4.5-6.76,13.02-18.86,19.98-24.66
		c-11.59,4.83-21.4,14.84-25.6,19.56c-1.31-1.37-2.56-2.83-3.69-4.38c3.44-5.6,11.06-17.05,19.21-23.3
		c-9.49,2.83-18.98,12.63-22.87,17.02c-0.08-0.18-0.17-0.36-0.24-0.55c1.29-14.66,9.17-26.62,16.49-34.77
		c1.14,5.95,18.92,21.4,26.29,23.71c0.25-6.39,7.62-6.64,13.28-2.46c5.66,4.18,3.57,13.09,22.13,17.7c2.8,0.7,3.62,7.52,3.85,12.23
		c-16.06-2.29-49.26,6.84-54.69,8.77c-0.56-0.27-1.34-0.66-2.27-1.15c4.33-6.48,11.98-16.8,20.9-23.9
		C238.37,313.03,227.7,324.87,223.78,329.63z"/>
	<path d="M408.46,112.35c-48.74-7.01-70.32,31.49-70.32,31.49c11.55,3.85,17.33,15.9,17.33,15.9s21.57-36.33,86.67-30.24
		C433.53,119.66,419.04,114.05,408.46,112.35z"/>
	<path d="M284.37,246.58c0,0-27.11,4.61-38.72,11.25c0,0,37.16-9.6,46.05-1.66c-1.43-13.09-0.94-44.49-0.94-44.49L284.37,246.58z"/>
	<path d="M471.64,173.5c0-14.38-16.23-33.44-25.57-37.13c-44.75-10.57-80.15,18.44-80.15,18.44c5.16,1.48,11.8,3.25,16.96,6.94
		C405.51,148.67,447.06,157.15,471.64,173.5z"/>
	<path d="M245.77,339.93L245.77,339.93c-6.34,0-13.84,3.02-14.64,10.48c-2.27,21.18,29.3,41.34,31.85,43.37
		c0.85,0.68,1.54,0.96,2.01,0.96c0.95,0,1.08-1.16,0.07-2.7c-9.99-15.27-13.67-33.65-10.4-46.67
		C255.52,342.02,251.05,339.93,245.77,339.93z M236.11,350.95c0.64-5.95,9.3-6.02,9.67-6.02c0,0,2.98,0.29,3.74,0.57
		c-2.19,10.21-0.72,22.61,3.8,34.43C237.43,365.98,235.56,356.05,236.11,350.95z"/>
	<path d="M307.7,398.93c-0.54,0-0.61,0.72-0.04,1.67c5.62,9.46,7.68,20.85,5.84,28.91c-0.47,2.08,2.04,3.37,5,3.37
		c3.56,0,7.78-1.87,8.23-6.49c1.28-13.12-16.47-25.61-17.91-26.87C308.35,399.11,307.97,398.93,307.7,398.93z M322.76,426.01
		c-0.27,2.74-3.58,2.88-4.25,2.88c-0.3,0-0.57-0.02-0.79-0.05c0.84-5.03,0.46-10.83-1-16.62
		C322.3,418.74,323.01,423.42,322.76,426.01z"/>
	<path d="M310.33,372.18c0.48,0,1.12-0.22,1.92-0.75c10.64-6.94,17.59-21.65,13.73-29.6c-1.42-2.93-3.63-3.97-5.91-3.97
		c-3.91,0-8.05,3.07-8.85,4.93c-1.95,4.54,2.46,15.13-1.68,25.85C308.83,370.47,309,372.18,310.33,372.18z M315.77,344.92
		c0.63-0.71,2.67-2.06,4.3-2.06c0.42,0,0.85,0,1.41,1.16c1.78,3.66-0.46,10.94-5.21,16.96c0.29-3.93-0.03-7.55-0.3-10.54
		C315.8,348.49,315.56,345.87,315.77,344.92z"/>
	<path d="M338.9,257.83c-11.62-6.64-38.72-11.25-38.72-11.25l-6.39-34.91c0,0,0.49,31.41-0.94,44.49
		C301.74,248.23,338.9,257.83,338.9,257.83z"/>
	<path d="M317.3,74c-24.51,11.2-19.81,61.89-19.81,79.77c5.86-4.99,12.56-8.98,20.49-11.01c-0.49-38.35,21.27-62.88,41.18-66.93
		C342.38,69.01,326.16,69.96,317.3,74z"/>
	<path d="M287.78,434.75c0.04,0,0.08,0,0.12,0c6.04-0.28,3.93-12.41,2.62-15.98c-0.7-1.89-1.19-2.85-1.77-2.85
		c-0.55,0-1.17,0.86-2.11,2.61C281.35,428.41,284.49,434.75,287.78,434.75z M288.39,421.18c0.83,3.28,1.33,8.54,0.09,10.41
		c-0.19,0.28-0.34,0.38-0.67,0.4c-0.07-0.03-0.3-0.18-0.55-0.6C286.2,429.64,286.2,425.88,288.39,421.18z"/>
	<path d="M285.96,367.34c1.03,0,1.91-1.56,3.15-4.61c2.34-5.76,6.1-25.34-4.66-25.8c-0.07,0-0.14,0-0.21,0
		c-5.85,0-11.45,10.23-2.03,26.2C283.88,365.96,284.99,367.34,285.96,367.34z M283.11,343.06c0.53-0.93,1.04-1.13,1.12-1.13h0
		c0.79,0.03,1.05,0.25,1.35,0.72c1.9,2.95,1.05,10.75-0.3,15.72C281.51,350.97,281.68,345.57,283.11,343.06z"/>
	<path d="M302.95,431.12c0.45,1.16,2.78,3.06,4.97,3.06c1.28,0,2.52-0.64,3.32-2.46c2.17-4.93-1.74-14.04-7.72-18.34
		c-0.45-0.32-0.81-0.46-1.08-0.46c-0.75,0-0.84,1.06-0.45,2.19C304.33,421.74,301.86,428.3,302.95,431.12z M305.56,426.33
		c0.15-1.88,0.35-4.27,0.13-6.85c2.76,3.84,4.15,8.61,3.04,11.13c-0.36,0.82-0.63,0.82-0.8,0.82c-0.96,0-2.22-1.01-2.43-1.35
		C305.31,429.5,305.46,427.67,305.56,426.33z"/>
	<path d="M273.45,342.79c-0.8-1.87-4.94-4.93-8.85-4.93c-2.28,0-4.49,1.04-5.91,3.97c-3.87,7.95,3.09,22.66,13.73,29.6
		c0.8,0.52,1.44,0.75,1.92,0.75c1.33,0,1.5-1.71,0.79-3.54C270.99,357.92,275.4,347.33,273.45,342.79z M268.7,350.44
		c-0.27,2.99-0.59,6.61-0.3,10.54c-4.75-6.02-6.99-13.3-5.21-16.96c0.56-1.16,0.99-1.16,1.41-1.16c1.62,0,3.66,1.35,4.29,2.06
		C269.11,345.89,268.87,348.5,268.7,350.44z"/>
	<path d="M300.43,336.93c-0.07,0-0.14,0-0.21,0c-10.75,0.46-7,20.04-4.66,25.8c1.24,3.05,2.12,4.61,3.15,4.61
		c0.97,0,2.08-1.38,3.75-4.21C311.88,347.16,306.28,336.93,300.43,336.93z M299.38,358.36c-1.35-4.97-2.2-12.76-0.3-15.72
		c0.3-0.47,0.57-0.68,1.35-0.72h0c0.08,0,0.59,0.2,1.12,1.13C302.99,345.57,303.16,350.97,299.38,358.36z"/>
	<path d="M377.24,166.37c0,0-42.96-3.32-62.51,23.42c28.21-22.68,63.31-17.15,63.31-17.15s19.79,11.68,23.6,32.08
		c2.41,12.92-11.06,30.29-38.97,39.09c31.84,4.75,54.58,19.55,63.65,34.3c-8.69,8.3-26.44,13.03-36.69,15.18
		c-5.48-8.58-16.65-24.48-28.99-32.81c-1.52-5.96-0.8-15.71,2.03-16.67c-4.06-7.01-17.89-19.91-17.89-19.91
		c18.75-0.55,41.37-15.12,46.16-32.95c-39.83-12.05-54.07,11.03-58.86,19.69c-8.32,0-20.55-11.39-23.07-16.44
		c-0.37,21.76,19.18,26.37,19.18,26.37s-5.53,4.06-15.12,3.13c1.84,1.1,13.46,6.08,23.23,0.74c19.36,9.96,14.94,37.8,14.94,37.8
		s5.1,3.43,11.09,9.61c-9.69-0.63-46.03,21.1-67.63,20.63v33.93v3.44v0.8v0.94l-0.62,5.65c0,0,4.4-4.11,9.19-3.64
		c6.55,0.65,8.1,5.41,8.1,5.41s2.23-4.14,8.31-3.81c7.06,0.38,6.25,4.38,9.38,4.72c2.8,0.31,5.13-3.14,13.38-2.53
		c5.9,0.43,10.75,4,12.01,8.69c29.44-13.01,36.11-31.57,38.1-42.52c38.01-7.1,47.22-21.04,47.22-21.04s-10.82-26.92-46.56-40.2
		C417.25,229.8,422.97,185.92,377.24,166.37z M371.78,195.8c3.38,0,6.37,0.21,7.7,0.32c-1.01,1.89-4.38,7.44-10.2,9.56
		c-1.01-2.62-5.1-6.91-10.21-8.06C361.5,196.43,365.85,195.8,371.78,195.8z M339.77,213.97c0.84-1,2.69-3.04,5.42-5.12
		c1.16,1.64,2.99,3.79,6.09,5.66c-1.04,0.13-2.18,0.2-3.42,0.2C344.5,214.71,341.24,214.22,339.77,213.97z M380.46,310.17
		c-3.45-3.98-13.45-14.69-23.44-17.67c8.48,6.5,16.37,18.62,19.6,23.93c-1.14,1.49-2.37,2.89-3.67,4.21
		c-3.93-4.49-14.02-15.02-26.01-20.02c7.11,5.93,15.86,18.44,20.27,25.11c-2.1,1.64-4.19,3.07-6.1,4.27
		c-3.67-4.5-14.58-16.85-26.96-20.89c9.07,7.23,16.83,17.78,21.12,24.24c-0.65,0.33-1.2,0.61-1.63,0.82
		c-5.44-1.92-38.63-11.05-54.69-8.77c0.23-4.71,1.05-11.53,3.86-12.23c18.56-4.61,16.47-13.52,22.13-17.7
		c5.66-4.18,13.03-3.93,13.28,2.46c7.36-2.31,25.15-17.76,26.29-23.71c7.33,8.15,15.21,20.11,16.49,34.77
		C380.82,309.37,380.64,309.77,380.46,310.17z"/>
	<path d="M511.23,322.98c29.5-85.07-64.48-122.44-90.48-126.86c6.64,21.51,0.74,36.14-3.44,41.8
		C472.13,232.51,510.73,277.74,511.23,322.98z"/>
	<path d="M433.78,435.59c3.44-43.76,60.24-47.7,68.1-105.72s-56.79-89-86.67-84.58C533.35,324.46,420.26,393.79,433.78,435.59z"/>
	<path d="M445.09,286.35c-5.67,7.25-11.73,12.46-19.76,16.97c32.45,60.97-35.32,106.46-26.22,166.69
		C406.1,417.44,492.29,361.58,445.09,286.35z"/>
	<path d="M179.88,107.49c15.3-3.44,57.28-0.86,74.25,35.28c3.93-1.35,7.32-1.54,12.66-0.61c0,0-2.7-47.7-38.35-59.52
		C198.26,72.64,179.88,107.49,179.88,107.49z"/>
	<path d="M388.54,165.39c10.82,1.72,25.82,15,30.24,23.48c0,0,79.36,14.22,100.25,70.69c0,0,3.44-21.88-11.99-44.87
		C469.18,158.26,397.09,157.36,388.54,165.39z"/>
	<path d="M80.79,214.68c-15.42,22.99-11.99,44.87-11.99,44.87c20.89-56.47,100.25-70.69,100.25-70.69
		c4.43-8.48,19.42-21.76,30.24-23.48C190.75,157.36,118.66,158.26,80.79,214.68z"/>
	<path d="M116.2,173.5c24.59-16.35,66.14-24.83,88.76-11.75c5.16-3.69,11.8-5.46,16.96-6.94c0,0-35.4-29.01-80.15-18.44
		C132.42,140.06,116.2,159.12,116.2,173.5z"/>
	<path d="M145.7,129.49c65.09-6.08,86.67,30.24,86.67,30.24s5.78-12.05,17.33-15.9c0,0-21.57-38.5-70.31-31.49
		C168.8,114.05,154.31,119.66,145.7,129.49z"/>
	<path d="M154.06,435.59c13.52-41.8-99.57-111.13,18.56-190.3c-29.87-4.43-94.53,26.55-86.67,84.58
		C93.82,387.89,150.62,391.82,154.06,435.59z"/>
	<path d="M319.67,394.75c0.48,0,1.16-0.29,2.01-0.96c2.56-2.03,34.12-22.18,31.85-43.37c-0.8-7.46-8.3-10.48-14.64-10.48
		c-5.27,0-9.75,2.09-8.9,5.45c3.27,13.02-0.4,31.4-10.4,46.67C318.59,393.59,318.72,394.75,319.67,394.75z M335.16,345.5
		c0.76-0.28,2.04-0.57,3.74-0.57c0.37,0,9.03,0.07,9.67,6.02c0.55,5.1-1.33,15.03-17.21,28.99
		C335.88,368.11,337.35,355.71,335.16,345.5z"/>
	<path d="M269.43,69.19c16.96,2.69,21.96,19.62,23.75,27.46c0.54,2.39,2.09,1.37,2.19,0.12c1.28-16.49,12.15-24.21,18.32-25.94
		C306.49,62.17,276.44,63.17,269.43,69.19z"/>
	<path d="M162.51,303.32c-8.02-4.51-14.09-9.71-19.76-16.97c-47.21,75.23,38.99,131.09,45.98,183.66
		C197.82,409.77,130.05,364.29,162.51,303.32z"/>
	<path d="M190.64,312.17c0,0-11.32-1.66-21.71-5.1c-34.78,61.94,83.35,145.12,7.5,233.26C269.37,482.3,192.17,347.08,190.64,312.17z
		"/>
	<path d="M418.9,307.06c-10.39,3.44-21.71,5.1-21.71,5.1c-1.53,34.91-78.73,170.13,14.21,228.16
		C335.56,452.18,453.68,369,418.9,307.06z"/>
	<path d="M76.61,322.98c0.49-45.24,39.09-90.48,93.92-85.07c-4.18-5.66-10.08-20.28-3.44-41.8
		C141.1,200.55,47.11,237.92,76.61,322.98z"/>
	<path d="M228.68,75.83c19.92,4.06,41.67,28.58,41.18,66.93c7.93,2.03,14.63,6.02,20.49,11.01c0-17.88,4.7-68.58-19.81-79.77
		C261.68,69.96,245.46,69.01,228.68,75.83z"/>
	<path d="M350.5,376.09l-22.71,22c0.66,7.84,0.11,14.6-1.23,20.64c3.55,6.6,1.05,14.17-5.07,14.49c-0.79,1.66-1.62,3.28-2.49,4.88
		h-3.26c-0.83,0-1.83-3.59-2.67-3.59c-0.83,0-1.5,3.59-2.33,3.59h-5.83c-0.83,0-1.67-3.25-2.5-3.25c-0.83,0-1.67,3.25-2.5,3.25
		h-5.17c-0.83,0-1.58-3.09-2.42-3.09c-0.83,0-1.75,3.09-2.58,3.09h-4.67c-0.83,0-1.42-4-2.25-4c-0.83,0-1.92,4-2.75,4h-3.12h-2.79
		c-0.83,0-1.75-4.17-2.58-4.17c-0.83,0-1.58,4.17-2.42,4.17h-5.25c-1.01-1.86-1.98-3.76-2.89-5.72c-2.82-0.66-5.62-5.01-3.76-10.02
		c-1.98-6.95-2.94-14.82-2.15-24.27l-22.71-22l-5.79-2c26.79,36.75,33.23,65.25,3.38,68.75l13.12,6.12
		c-2.54,5.51-6.11,9.61-10.54,12.54l16.54-3.17c-0.31,4.38-1.96,8.22-4.62,11.67l14.75-4.34c0.32,4.62-0.57,8.7-2.83,12.17
		l12.96-3.62c0.35,8.08-1.25,15.97-3.62,23.79c6.8-5.05,13.51-12.34,18.27-19.25c3.33,10.19,6.76,23.99,6.72,37.58
		c4.13-9.38,5.37-26.05,7.75-38.2c4.78,7.08,11.68,14.66,18.69,19.87c-2.37-7.82-3.97-15.71-3.62-23.79l12.96,3.62
		c-2.26-3.47-3.16-7.55-2.83-12.17l14.75,4.34c-2.66-3.45-4.32-7.29-4.62-11.67l16.54,3.17c-4.43-2.94-8-7.03-10.54-12.54
		l13.12-6.12c-29.85-3.5-23.42-32,3.38-68.75L350.5,376.09z M337,443.64l-5.15,2.41c0,0,2.79,6.06,2.95,6.37l-7.54-1.44
		c0,0,0.66,9.08,0.76,9.72l-9.82-2.89c0,0-0.62,10.06-0.55,11.32l-9.78-2.74c0,0-0.39,11.8-0.25,13.99
		c-1.49-1.83-12.26-17.58-12.26-17.58s-3.49,18.07-3.82,20.11c-0.62-2.16-5.6-17.53-5.6-17.53s-9.32,13.36-10.67,15.01
		c0.14-2.19-0.25-13.99-0.25-13.99l-9.78,2.74c0.07-1.26-0.55-11.32-0.55-11.32l-9.81,2.89c0.09-0.64,0.76-9.72,0.76-9.72
		l-7.54,1.44c0.15-0.31,2.95-6.37,2.95-6.37l-5.16-2.41c5.4-3.03,8.36-9.87,8.54-11.27c1.31,3.09,2.75,5.93,4.19,8.59l1.71,3.13
		h62.22l1.71-3.13c1.44-2.65,2.88-5.49,4.19-8.59C328.69,433.07,332.11,440.4,337,443.64z"/>
</g>
</svg>
