<?xml version="1.0" encoding="utf-8"?>
<!-- Generator: Adobe Illustrator 15.0.1, SVG Export Plug-In  -->
<!DOCTYPE svg PUBLIC "-//W3C//DTD SVG 1.1 Tiny//EN" "http://www.w3.org/Graphics/SVG/1.1/DTD/svg11-tiny.dtd" [
	<!ENTITY ns_flows "http://ns.adobe.com/Flows/1.0/">
]>
<svg version="1.1" baseProfile="tiny"
	 xmlns="http://www.w3.org/2000/svg" xmlns:xlink="http://www.w3.org/1999/xlink" xmlns:a="http://ns.adobe.com/AdobeSVGViewerExtensions/3.0/"
	 x="0px" y="0px" width="415px" height="770px" viewBox="-0.05 -0.71 415 770" overflow="visible" xml:space="preserve">
<defs>
</defs>
<path fill="#1B262B" d="M184.45,46.79c-13.5,27.17-7.5,52.83,6.83,67.17c2.42,2.42,17.9-3.55,21.33-10
	c3.01-5.66,4.12,28.98-5.67,41.67c-32.67,42.33-49.38,24.11-50.92,30.25c-4.75,18.96,4.22,22.42,4.42,25.42
	c2.17,32.67-28.33,50.42-24.5,93.5c2.25,25.28,1.27,35.72-15.52,78.45c-6.81,17.34-20.71,79.15-38.15,151.72
	c-3,12.47-11.97,120.61-23.29,167.83c-3.04,12.67,2.63,34.83-20.71,46.83s-28.5,12.17-10.67,15.67c11.45,2.25,22.49-2.83,29.5-20.5
	c4.17-10.5,24.5,11.17,17.17-11.5s6.67-54.5,35.67-157c3.82-13.5-3.92-15.37-1.83-38.17c16.67-34.21,25.12-54.09,38.48-88.97
	c13.86,27.14,36.28,73.78,43.69,79.81c31.14,25.33,125.12,113.58,133,126.83c4.63,7.79,9.51,9.08,5.67,33
	c-0.82,5.12-6.5,28.5,4.25,13.25c18.2-25.81,10.6-24.18,6.25-34.25c-4.46-10.32,11.66-14.67,6.5-16.83
	c-27.34-11.46-27.25-16.97-31.5-22.67c-92-123.5-81.5-103.75-104.83-115.33c-6.63-38.81-20.09-72.93-26-84
	c-13.17-24.67,27.62-49.91,16-91.17c-8.17-29-24.84-38.16-27.74-51.91c-2.25-10.64,4.16-16.17,22.49-34.51
	c35-35,39.43-38.42,39.43-79.72c0-26.7,0.4-46.28-4.84-59.36c-7.62-19,22-12.67,3-31.67c-13.6-13.6-1.36-21.75-9-27.67
	C196.28,22.29,184.45,46.79,184.45,46.79z"/>
<path fill="#1B262B" d="M230.62,118.62c7.4,21.42,34.66,123.7,30.33,131.33c-17.5,30.83-43.15,34.53-53.33,69
	c12.08,5.58,19.83,18.78,17.21,20.58c-7.59,5.21-15.88,5-15.88-1.5c0-3.01-12.23-12.23-7.79-21.29
	c31.85-65.05,43.65-72.01,43.13-74.46c-6.33-29.75-20.33-49.67-25.33-54.67C194.5,163.18,230.62,118.62,230.62,118.62z"/>
<path fill="#1B262B" d="M28.28,358.29c-3,5.83,7.43,9.06,9.53,8.07c12.71-6,10.09,6.47,18.38-1.82c6.75-6.75,0.36-9.33,11.75-17.92
	c23.02-17.34,61.38-24.78,97.67-43.67c2.39-1.24-0.43-37.86-10-30.67c-35,26.33-93.12,64.23-106.67,79.67
	C41.78,360.12,28.28,358.29,28.28,358.29z"/>
<path fill="#1B262B" d="M214.33,345.25c3.61-0.72,1.21-9.26,6.79-3.21c5.87,6.37,6,13.93,10.78,15.39c4.66,1.43,3.67-0.58,1.74-3.33
	c-9.38-13.33-7.58-17.89-9.77-20.83c-2.54-3.43-11.96-13.66-12.99-10.32C206.35,337.75,214.33,345.25,214.33,345.25z"/>
<path fill="#1B262B" d="M225.71,341.63c-5.92-1.5-5.44,1.11-5.44,1.11c1.09,10.29,3.94,19.56,7.21,24.99c5.61,9.32-2.1,4.4-2.9,2.5
	c-1.42-3.4-6.86-12.26-6.86-19.87c0-1.27-1.55-1.1-3.15,1.13C212.98,353.67,208.05,325.13,225.71,341.63z"/>
<path fill="#1B262B" d="M212.17,337.08c-2.21-1.09-0.46,16.49-0.46,16.49c3.49,9.74,3.3,17.29,4.36,20.22
	c4.4,12.25,6.35,4,5.57,2.08c-1.5-3.68-2.67-9.76-3.33-16.55c-0.12-1.27-0.74-3.6,1.67-5.7
	C222.01,351.85,215.63,338.78,212.17,337.08z"/>
<path fill="#1B262B" d="M213.02,348.98c-2.46,8.64-1.14,16.08,0.11,19.82c0.53,1.58,9.84,3.27,3.92,4.08
	c-6.97,0.95-9-7.66-10.06-15.08c-0.72-5.05,1.41-13.3,3.35-20.88C211.38,332.83,213.02,348.98,213.02,348.98z"/>
<path fill="#B23D1A" d="M70.45,745.29l-10.67,22.17l2.08,1.42l8.17-12.67c0,0,3.38-3.4,11.08-16.08c1.81-2.99,3.33-11.67-1.78-22.57
	c-6-35.26,41.95-139.93,30.13-167.76H78.97c-23,166.5-26.02,142.08-26.02,166.5c0,2.33-5.18,13.67-15.5,20.02
	c-18.02,11.1-41.74,13.35-36.78,15.98c11.4,6.04,41.78,9.83,45.78,7.5c1.45-0.85,9.64-5.86,18.33-16.48
	C69.72,737.29,70.45,745.29,70.45,745.29z"/>
<path fill="#B23D1A" d="M213.9,539.33c11.17-14.17,13.49-29.34,14.81-28.34c25.83,19.5,84.03,102.31,96.61,114.89
	c13.68,12.02,23.7,6.08,27.64,15.74c11.2,27.47,13,32,13,32l-3.08-0.92c-5.3-9.77-14.92-29.75-14.92-20.92
	c0,12.09,4.69,29.97,1.19,33.47c-25.61,25.61-28.28,27.96-27.19,19.03c3.85-31.75,12.21-40.76-5.33-59
	C258.28,584.62,213.9,539.33,213.9,539.33z"/>
<path fill="#B23D1A" d="M133.45,305.79c3.75,35.25-21.25,68.5-34.5,111.25c5.05,2.17,17,2.5,26.75,2.5c4.91,0,15.25-17.11,22.11-31
	c-2.11,25.75-14.1,32.25-10.11,32c24.03-1.5,41.75-6.5,48.92-4.58c0-9.92-3.17-18.66,9.83-38.17c18.1-27.15,2.25-71.5-12.95-82.04
	C173.95,303.04,133.45,305.79,133.45,305.79z"/>
<path fill="#B23D1A" d="M119.7,265.04c19.62,9,43.87,15.88,57.96,16.13c-1.42-1.42-7.46-9.35,5.62-24.21
	c19.67-22.33,43.38-40.33,46.95-55.46c-6.3-10.51-6.12-11.38-9.95-21.54c-14.5,2.5-22.78-4.12-33.36-13.7
	c-6.64,3.37-10.48,6.47-30.81,5.78c-7.42,8.58-3.33,26.08,3.08,32.5C146.53,260.04,119.7,265.04,119.7,265.04z"/>
<path fill="#FDE675" d="M132.95,296.62c-2.76,0-2.34,10.56,0.62,10.5c30.36-0.57,52.58-7.26,49.21-15.33
	c-2-4.78-3.67-4.48-5.43-4.48C169.45,294.26,158.95,296.62,132.95,296.62z"/>
<path fill="#E31520" d="M175.2,37.54c29-55,81.04-20.97,86.75,8.75c3.75,19.5,4.5,32.5,22.5,33.75
	c11.22,0.78,18.95-4.16,21.25-18.75c2.16-13.72-0.42-16.2,19-37.25c11.76-12.74-12.25-23.5-22.75-23.5
	c10.75-3,44.75,6.25,20.88,34.62c-10.13,12.04-6.76,32.97-5.38,41.88c1.42,9.08-4.92,25.67-12.17,30.08
	c-5.64,3.43-7.89,6.84-32.33,5.42c15.5,6.34,28.64,5.34,48.5-18.5c18.92-22.71,36-42.07,54.98-39.94
	c14.49,1.62,13.62,13.59,21.44,11.28c2.08-0.62,5.92-7.82-0.75-11.08c3-1.17,7.88,3.73,4.83,9.17c-6.95,12.39-12.5-4.08-23.5-6.42
	c-8.9-1.89-17.4,1.6-26.5,9.5c-21.49,18.64-39.25,49.75-55.25,51c-3.49,0.27-14.07,6.63-42.62-10.62
	c3.5,5.75,24.82,19.61,44.88,13.88c31.49-9.01,40.75-64.5,85.17-53.33c15.76,3.96,26.53,16.25,29.5,28.58
	c2.43,10.08-5.17,34.42-23,32.42c-10.27-1.15-13.92-10.33-11.33-15.17c0,5.98,5.5,14.33,15.69,9.32
	c4.02-1.97,12.64-11.99,7.31-21.16c-3.6-6.19-8.56-11.89-22.42-8.25c-14.07,3.7,2.75,0,9.96,1.21c5.19,0.87,12.82,6.73,8.96,15.03
	c-1.21,2.6-8,8.68-6.33,5.85c4.77-8.14,4.17-18.5-5.5-18.5c-16.55,0-19.99,13.06-25.33,32.67c-1.5,5.5-10.15,22.19-28.33,21.33
	c-6.49-0.3-12.67-1.83-36.08-12.5c27.42,15.17,42.94,22.06,50,15c16.71-16.71,29.25-15.71,36.5-7.08c4.96,5.9,4.58,31.42,3.75,21.08
	c-1.21-14.94-5.74-24.58-15.58-24.58c-9.75,0-9.75,3.21-24.54,13.41c-17.63,12.16-36.79-15.83-53.54-12.33
	c6.67,0.92,16.68,6.62,19.5,15.5c3.53,11.13-2.54,19.88,4.92,27.33c5.45,5.45,12.42-4.17,6.75-14.67c-1.58-2.93,5.42,5.25,5,13.83
	c-0.46,9.5-11.46,12.83-17.53,12.45c-19.25-1.22-20.97-29.45-31.68-33.4c0,11.75,12.48,40.18,31.54,36.62
	c17.78-3.32,25.17-15.67,40.42-14.17c4.23,0.42,9.77,2.62,15.08,11.5c2.67,4.46,1,16.5-10,16.5c-6.75,0-13.35-6.36-10.33-5
	c6.83,3.09,15,4.33,15-2c0-2.51,1.88-13.88-10-14.75c-12.28-0.9-24.93,18.2-37,27.75c-24,19-58.45,0.52-63.5-19
	c-14.32-55.32-21.33-77.64-24.04-84.82c-3.96-10.44-3.38-24.62-0.46-27.01c5.09-4.17,6.9-7.43,5.38-11.12
	c-2.59-6.28-3.38-8.71-10.64-3.78c-3.49-8.51-18.51-5.23-29.74-15.14c14.88,14.88,21.93,15.55,18.62,14.88
	c-24.34-5-33.2-24.19-30.88-18.14c1.97,5.14,0.26,12.38-3.14,15.77c-9.25,9.25,3.39,43.62-5.61,14.37
	c-4.88-15.87,4.57-22.63,0.75-27.5c-8.19-10.44-7-16-3.5-16C173.2,43.79,175.2,37.54,175.2,37.54z"/>
<polygon fill="#D8CB3F" points="245.45,333.29 313.95,405.79 393.45,318.29 316.95,259.79 "/>
<polygon fill="#8E8029" points="234.99,339.36 245.45,333.29 313.95,405.79 303.49,411.86 "/>
<polygon fill="#8E8029" points="305.6,264.97 316.95,259.79 245.45,333.29 234.99,339.36 "/>
<g>
	<path fill="#D8CB3F" d="M231.15,283.42c1.18,2.07,2.56,4.26,4.14,6.57l10.62,13.65c3.39,3.94,7.17,8.01,11.29,12.14l3.41-3.41
		c0,0-16.5-17.25-26.11-32.3L231.15,283.42z"/>
	<path fill="#D8CB3F" d="M229.7,259.54c-1.9,1.43-2.31,3.86-1.67,6.91l0.08,0.15c3.5-2.53,11.03-1.57,19.8,0.98h0l0,0
		c20.02,5.83,46.53,19.97,46.53,19.97l2.12-3.62C267.45,266.79,236.17,254.67,229.7,259.54z"/>
</g>
<circle fill="none" stroke="#FFFFFF" stroke-width="3.7646" cx="229.33" cy="100.03" r="10.67"/>
</svg>
