<?xml version="1.0" encoding="UTF-8" standalone="no"?>
<svg version="1.1" baseprofile="full" xmlns="http://www.w3.org/2000/svg" width="960" height="500">
  <g transform="translate(50,20)">
    <g transform="translate(0,450)">
      <g transform="translate(122.31029625590695,0)">
        <line y2="6" x2="0">
      </line>
        <text y="9" x="0" dy="15">2008</text>
      </g>
      <g transform="translate(299.92207379134857,0)">
        <line y2="6" x2="0">
      </line>
        <text y="9" x="0" dy="15">2009</text>
      </g>
      <g transform="translate(477.0485732460923,0)">
        <line y2="6" x2="0">
      </line>
        <text y="9" x="0" dy="15">2010</text>
      </g>
      <g transform="translate(654.175072700836,0)">
        <line y2="6" x2="0">
      </line>
        <text y="9" x="0" dy="15">2011</text>
      </g>
      <g transform="translate(831.3015721555797,0)">
        <line y2="6" x2="0">
      </line>
        <text y="9" x="0" dy="15">2012</text>
      </g>
      <path d="M0,6V0H890V6">
    </path>
  </g>

    <g>
      <g transform="translate(0,432.4202999838718)">
        <line x2="-6" y2="0">
      </line>
        <text x="7" y="0" dy="7">100</text>
      </g>
      <g transform="translate(0,392.0998871028439)">
        <line x2="-6" y2="0">
      </line>
        <text x="7" y="0" dy="7">150</text>
      </g>
      <g transform="translate(0,351.77947422181603)">
        <line x2="-6" y2="0">
      </line>
        <text x="7" y="0" dy="7">200</text>
      </g>
      <g transform="translate(0,311.45906134078814)">
        <line x2="-6" y2="0">
      </line>
        <text x="7" y="0" dy="7">250</text>
      </g>
      <g transform="translate(0,271.13864845976025)">
        <line x2="-6" y2="0">
      </line>
        <text x="7" y="0" dy="7">300</text>
      </g>
      <g transform="translate(0,230.81823557873233)">
        <line x2="-6" y2="0">
      </line>
        <text x="7" y="0" dy="7">350</text>
      </g>
      <g transform="translate(0,190.4978226977044)">
        <line x2="-6" y2="0">
      </line>
        <text x="7" y="0" dy="7">400</text>
      </g>
      <g transform="translate(0,150.17740981667652)">
        <line x2="-6" y2="0">
      </line>
        <text x="7" y="0" dy="7">450</text>
      </g>
      <g transform="translate(0,109.85699693564862)">
        <line x2="-6" y2="0">
      </line>
        <text x="7" y="0" dy="7">500</text>
      </g>
      <g transform="translate(0,69.53658405462073)">
        <line x2="-6" y2="0">
      </line>
        <text x="7" y="0" dy="7">550</text>
      </g>
      <g transform="translate(0,29.21617117359284)">
        <line x2="-6" y2="0">
      </line>
        <text x="7" y="0" dy="7">600</text>
      </g>
      <path d="M-6,0H0V450H-6">
    </path>
      <text transform="rotate(-90)" y="-20" x="-50" dy="0">Price ($)</text>
    </g>
    <path d="M890,43.626686737272166L889.5147219193021,42.13483146067415L888.0588876772082,26.796946400731144L887.5736095965103,23.006827589914508L887.0883315158123,21.152088597387262L886.6030534351145,61.246707166281396L886.1177753544165,52.03752486425458L884.6619411123228,51.005322294500274L884.1766630316248,39.34465888930697L883.6913849509269,22.490726305037356L883.206106870229,21.394011074673415L882.7208287895311,45.239503252513316L881.2649945474373,24.99865598623734L880.7797164667394,10.854255147572758L880.2944383860414,8.08827482393417L879.8091603053434,6.281920326864167L879.3238822246456,0L877.3827699018539,2.0563410569325242L876.8974918211559,9.612386430837148L876.412213740458,5.5722810601581045L875.92693565976,14.19278533412188L874.4711014176663,29.579054889522183L873.9858233369683,21.26498575345414L873.5005452562705,15.007257674318623L873.0152671755725,17.5393796032472L872.5299890948745,23.587441535401354L871.0943747728099,32.401483791194096L870.6090966921118,29.748400623622445L870.123818611414,27.200150529541474L869.638540530716,24.409977958174295L869.1532624500181,28.329122090210205L867.6974282079243,40.85264233105744L867.2121501272264,40.86070641363375L866.7268720465286,37.618945217999L866.2415939658306,54.94059459168858L865.7563158851327,67.92376753937958L864.3004816430389,73.43153593892805L863.815203562341,75.99591419816136L863.329925481643,85.10832750927364L862.8446474009451,85.45508306005053L862.3593693202471,83.11649911295092L860.9035350781534,73.42347185635185L860.4182569974554,73.99602171926239L859.9329789167575,75.63303048223207L859.4477008360595,81.30208053330466L858.9624227553617,89.08392021934304L857.506588513268,91.78538788237194L857.02131043257,96.63996559324767L856.5360323518721,99.34143325627656L856.0507542711741,97.88183430998328L854.1096419483823,108.14741142949305L853.6243638676845,108.07483468630721L853.1390857869865,111.73592817590452L852.6538077062886,102.22837481855817L852.1685296255906,107.76033546583511L850.7126953834969,115.16316327079187L850.2274173027989,115.36476533519698L849.7421392221011,128.66243750336002L849.2568611414031,134.99274232568143L848.7715830607052,138.9118864577173L847.3157488186114,142.37137788290948L846.8304707379134,146.0485995376593L846.3451926572155,145.18574270200526L845.8599145765176,144.9518843072953L845.3746364958197,147.75012096123862L843.9188022537259,152.37084027740445L843.433524173028,154.5078221600989L842.94824609233,152.87081339712915L842.4629680116321,174.0390301596688L841.9776899309342,168.39417235632487L840.5218556888404,174.12773506800704L840.0365776081425,168.11999354873393L839.5512995274445,167.02327831837L839.0660214467466,170.5795387344766L837.1249091239549,174.52287511424117L836.6396310432569,173.24875006720072L836.1543529625591,172.31331648836084L835.6690748818611,171.75689479060264L835.1837968011632,172.97457125960966L833.7279625590694,172.43427772700397L833.2426844783715,175.9582818128058L832.7574063976735,179.6596957152841L832.2721283169756,181.44185796462557L830.3310159941839,186.46578140960162L829.845737913486,186.36901241868713L829.360459832788,188.36890489758616L828.8751817520902,185.2319767754422L826.9340694292985,187.73184237406588L826.4487913486005,191.66711467125418L825.9635132679026,193.36863609483362L825.4782351872046,193.76377614106764L824.9929571065068,204.84382560077412L823.5371228644129,205.80345142734265L823.051844783715,207.48078060319335L822.5665667030171,206.47277028116767L822.0812886223191,199.52153110047846L821.5960105416212,197.07811407988817L820.1401762995274,195.6427073813236L819.6548982188295,198.02967582388044L819.1696201381316,199.2957367883447L818.6843420574337,197.79581742917048L818.1990639767357,196.13461641847212L816.7432297346419,198.80382775119617L816.2579516539439,200.23117036718457L815.772673573246,204.85188968335032L815.2873954925481,212.10956400193538L814.8021174118502,209.75485188968332L813.3462831697565,219.87527552282137L812.3757270083606,217.117359281759L811.8904489276626,209.4403526692113L811.4051708469648,215.48841460136552L809.949336604871,210.7064136336756L809.4640585241731,208.7145852373528L808.978780443475,202.77942046126552L808.4935023627771,199.50540293532606L808.0082242820791,207.22272996075478L806.5523900399854,202.9003816999086L806.0671119592874,202.41653674533626L805.5818338785896,194.30406967367347L805.0965557978917,185.4738992527283L804.6112777171937,190.7155529272619L803.1554434751,190.3042847158755L802.670165394402,188.02214934680933L802.1848873137042,192.58642008494166L801.6996092330061,193.31218751680018L801.2143311523082,186.6431912262782L799.7382769901853,186.50610182248266L799.2529989094875,186.71576796946403L798.7677208287895,190.01397774313205L798.2824427480916,192.29611311219827L797.7971646673936,185.84484705123384L796.3413304252999,196.24751357453897L795.8560523446018,194.27987742594482L795.370774263904,191.61066609322074L794.8854961832061,172.5633030482232L794.4002181025081,174.37772162786945L792.9443838604144,172.7568410300521L792.4591057797164,183.69980108596314L791.9738276990186,188.7317886135154L791.4885496183206,190.26396430299445L791.0032715376227,199.52153110047846L789.5474372955289,214.85135207784523L789.062159214831,208.74684156765764L788.576881134133,208.03720230095158L788.091603053435,212.67404978226975L787.6063249727371,210.98059244126657L786.1504907306434,205.56152895005644L785.6652126499455,198.1022525670663L785.1799345692475,192.9089833879899L784.6946564885496,191.09456480834365L784.2093784078517,187.94150852104724L782.753544165758,187.030267189936L782.26826608506,189.03015966883504L781.7829880043621,180.70802645019086L781.2977099236641,179.6516316327079L780.8124318429662,181.11929466157733L779.3565976008723,190.09461856889413L778.8713195201744,196.17493683135314L778.3860414394765,199.1263910542444L777.9007633587786,202.9003816999086L777.4154852780806,206.67437234557283L775.9596510359869,208.65813665931935L775.474372955289,203.28745766356647L774.989094874591,203.4568033976668L774.5038167938932,206.83565399709693L772.5627044711014,211.4241169829579L772.0774263904034,205.79538734476645L771.5921483097055,202.73103596580827L771.1068702290075,198.56996935648618L770.6215921483097,198.58609752163858L769.1657579062158,203.73904628783396L768.680479825518,211.69023170797263L768.19520174482,209.7064673942261L767.7099236641221,211.7870006988871L767.2246455834243,225.6249663996559L765.7688113413304,225.95559378528037L765.2835332606326,217.87538304392237L764.7982551799345,206.27116821676253L764.3129770992366,206.2389118864577L763.8276990185386,203.87613569162943L762.3718647764449,209.05327670555346L761.8865866957469,211.70635987312508L761.4013086150491,219.77850653190688L760.9160305343511,211.45637331326276L760.4307524536532,228.22966507177034L758.9749182115594,211.77087253373472L758.4896401308615,208.74684156765764L758.0043620501636,196.48943605182518L757.5190839694656,199.44089027471637L757.0338058887677,193.1186495349712L755.5779716466739,198.17482931025214L755.092693565976,197.09424224504056L754.607415485278,196.47330788667279L754.1221374045801,187.74797053921827L753.6368593238822,191.70743508413523L752.1810250817884,195.90075802376217L751.6957470010905,200.74727165206167L751.2104689203926,201.06177087253374L750.7251908396946,209.16617386162034L750.2399127589968,211.62571904736302L748.7840785169029,218.7866243750336L748.2988004362049,224.5524434170206L747.8135223555071,224.35084135261548L747.3282442748091,227.79420461265525L746.8429661941112,227.59260254825008L745.3871319520174,222.9880113972367L744.9018538713195,225.01209612386432L744.4165757906216,229.39895704532015L743.9312977099237,231.277888285576L741.9901853871319,236.25342723509488L741.504907306434,242.3740659104349L741.019629225736,243.68851137035642L740.5343511450382,242.70469329605936L740.0490730643402,245.30132788559752L738.5932388222465,249.8897908714585L738.1079607415485,245.9545185742702L737.6226826608506,252.90575775495938L737.1374045801526,250.7365195419601L736.6521264994548,258.7844739530133L735.1962922573609,254.80081716036773L734.7110141766631,250.84941669802697L734.2257360959651,249.5672275684103L733.7404580152671,244.9787645825493L733.2551799345692,249.68818880705336L731.7993456924754,250.2526745873878L731.3140676117775,245.74485242728883L730.8287895310796,245.14004623407342L730.3435114503817,245.30132788559752L729.8582333696837,240.46287833987418L728.40239912759,236.10827374872318L727.917121046892,233.96322778345245L727.4318429661942,234.43900865544862L726.9465648854962,232.56814149776895L725.0054525627045,240.97091554217513L724.5201744820065,242.9143594430407L724.0348964013086,241.47895274447612L723.5496183206106,245.18036664695447L723.0643402399128,243.39820439761303L721.608505997819,242.73694962636415L721.1232279171211,238.454921778399L720.6379498364231,238.98715122842856L720.1526717557252,241.99505402935327L719.6673936750273,244.28525348099564L718.2115594329334,238.4791140261276L717.7262813522354,233.58421590237083L717.2410032715376,233.05198645234125L716.7557251908396,231.26176012042362L716.2704471101417,232.75361539702166L714.814612868048,233.51163915918497L714.32933478735,233.43906241599913L713.8440567066522,231.16499112950916L713.3587786259542,232.26977044244933L712.8735005452563,233.81807429708084L711.4176663031625,230.71340250524165L710.9323882224645,233.43906241599913L710.4471101417665,230.69727434008925L709.9618320610687,230.4795441105317L709.4765539803707,228.39094672329443L707.535441657579,230.25374979839793L707.0501635768811,236.93887425407235L706.5648854961833,240.60803182624588L706.0796074154853,245.45454545454544L704.6237731733916,248.9946777054997L704.1384950926936,244.9948927477017L703.6532170119956,242.00311811192947L703.1679389312976,245.01102091285415L702.6826608505997,246.30127412504703L701.2268266085059,242.86597494758345L700.741548527808,240.4306220095694L700.2562704471101,240.46287833987418L699.7709923664122,239.77743132089674L699.2857142857142,237.92269232836944L697.8298800436205,235.20509650018815L697.3446019629226,232.01978388258695L696.8593238822247,231.9230148916725L696.3740458015268,230.0440836514166L695.8887677208287,230.4634159453793L694.4531533987641,229.57636686199663L693.967875318066,234.8744691145637L693.4825972373682,239.53550884361056L692.9973191566703,237.91462824579324L692.5120410759723,239.44680393527227L691.0562068338786,246.40610719853768L690.5709287531806,243.20466641578412L690.0856506724828,246.9383366485673L689.6003725917848,234.50352131605825L689.1150945110869,227.94742218160312L687.6592602689931,229.2134831460674L687.1739821882952,233.50357507660877L686.6887041075972,228.82640718240953L686.2034260268993,226.1733240148379L685.7181479462013,226.49588731788612L684.2623137041076,222.75415300252672L683.7770356234097,223.10897263587978L683.2917575427117,229.10865007257672L682.8064794620138,231.3746572764905L682.3212013813159,228.22966507177034L680.8653671392221,232.30202677275412L680.3800890585242,236.5598623729907L679.8948109778263,236.76952851997203L679.4095328971283,240.00322563303044L677.4684205743365,230.3666469544648L676.9831424936386,224.12504704048166L676.4978644129407,220.23009515617443L676.0125863322428,222.8347938282888L675.5273082515448,223.4154077737756L674.0714740094511,225.29433901403146L673.5861959287532,227.15714208913496L673.1009178480552,224.23794419654854L672.6156397673574,226.62491263910545L672.1303616866594,229.3021880544057L670.6745274445656,233.64066448040427L670.1892493638676,236.10827374872318L669.7039712831697,235.3986344820171L669.2186932024717,234.82608461910652L668.7334151217739,239.43067577011988L667.27758087968,242.02731035965806L666.7923027989822,236.29374764797592L666.3070247182842,235.77764636309874L665.8217466375863,237.75334659426912L665.3364685568885,240.93865921187034L663.8806343147946,249.59141981613888L663.3953562340968,244.7852266007204L662.9100781533987,239.81775173377778L662.4248000727008,238.35815278748456L660.4836877499091,232.04397613031554L659.9984096692111,234.30191925165312L659.5131315885133,235.31799365625503L659.0278535078153,237.5598086124402L658.5425754271174,236.89855384119133L657.0867411850236,242.01118219450566L656.6014631043257,243.93849793021877L656.1161850236278,243.72076770066124L655.6309069429298,245.90613407881295L655.1456288622319,247.29315628192032L653.6897946201381,252.94607816784043L653.2045165394402,252.0590290844578L652.7192384587422,250.7445836245363L652.2339603780443,250.59943013816456L651.7486822973464,251.23649266168485L649.8075699745547,252.10741357991503L649.3222918938568,250.84941669802697L648.8370138131588,251.62356862534273L648.351735732461,253.22832105800765L646.8959014903671,254.5185742702005L646.4106234096691,254.00247298532335L645.9253453289713,254.72017633460564L645.4400672482733,254.77662491263908L644.9547891675754,253.66378151712271L643.4989549254816,254.55889468308155L643.0136768447837,255.204021289178L642.5283987640858,254.19601096715232L642.0431206833879,256.4539540884899L641.5578426026899,254.889522068706L640.1020083605961,257.0748884468577L639.6167302798982,256.5023385839471L639.1314521992002,257.9135530347831L638.6461741185024,262.14719638729105L638.1608960378044,257.5345411537014L636.7050617957107,259.0425245954518L635.7345056343148,259.20380624697594L635.2492275536168,264.0987043707328L634.763949472919,260.3650341379496L633.3081152308251,265.71152088597387L632.8228371501273,264.3406268480189L632.3375590694292,270.7354443309499L631.8522809887313,269.85645933014354L631.3670029080334,265.4615343261115L629.9111686659396,264.66319015106717L629.4258905852417,257.7038868878017L628.9406125045438,256.5991075748616L628.4553344238459,258.1716036772217L627.9700563431479,256.1233267028654L626.5142221010542,257.32487500672005L626.0289440203562,256.4055695930326L625.5436659396584,260.8166227622171L625.0583878589604,263.59066716843176L624.5731097782624,267.7678619429063L623.0970556161395,270.3483683672921L622.6117775354417,266.9130691898285L622.1264994547437,264.82447180259123L621.6412213740458,264.6470619859147L621.1559432933478,264.0099994623945L619.7001090512541,265.1147787753346L619.2148309705561,263.4616418472125L618.7295528898582,262.64716950701575L618.2442748091603,263.4858340949411L617.7589967284623,256.6232998225902L616.3031624863686,259.2521907424332L615.8178844056706,269.27584538465675L615.3326063249727,271.02575130369337L614.8473282442748,272.3160045158862L614.3620501635769,274.8803827751196L612.9062159214831,275.92064942745014L612.4209378407852,279.8317294769098L611.9356597600872,279.85592172463845L611.4503816793894,280.05752378904356L610.9651035986914,288.36352884253535L609.5092693565975,285.2346648029676L609.0239912758997,284.24278264609427L608.5387131952017,281.3235847535079L608.0534351145038,281.73485296489434L607.5681570338058,278.2672974571259L606.1123227917121,277.3318638782861L605.6270447110142,280.07365195419595L605.1417666303163,281.0171496156121L604.6564885496183,284.2266544809419L604.1712104689204,284.662114940057L602.7153762268266,291.00048384495454L602.2300981461286,290.0327939358099L601.7448200654308,295.1534863717004L601.2595419847328,296.8953282081609L600.7742639040349,297.71786463093383L599.3184296619411,300.6451266060964L598.8331515812432,300.9193054136874L598.3478735005452,301.0402666523305L597.8625954198474,305.1610128487716L597.3773173391494,304.3868609214559L595.9214830970556,304.3868609214559L595.4362050163576,309.7091554217516L594.9509269356597,311.1929466157734L594.4656488549617,317.02327831837L593.9803707742639,317.5071232729423L592.5245365321701,318.21676253964836L592.0392584514722,319.29734960485996L591.5539803707743,317.1926240524703L591.0687022900763,319.57959249502716L590.5834242093784,314.84597602279445L589.1275899672846,311.74936831353153L588.6423118865868,311.5558303317026L588.1570338058887,308.983387989893L587.6717557251908,309.87043707327564L587.1864776444928,313.3621848287727L585.7306434023991,312.18482877264665L585.2453653217012,310.01559055964736L584.7600872410032,311.3058437718402L584.2748091603054,303.87075963657867L583.7895310796074,301.9837643137465L582.3336968375137,303.32240202139667L581.8484187568157,302.0240847266276L581.3631406761178,300.99188215687326L580.8778625954199,301.83861082737485L580.3925845147219,301.9031234879845L578.936750272628,305.61260147303904L578.4514721919302,304.91909037148537L577.9661941112322,302.6208268372668L577.4809160305343,300.1048330734907L576.9956379498364,303.97559271006935L575.5398037077426,303.44336326003975L575.0545256270448,304.1852588570507L574.5692475463468,308.039890328477L574.0839694656489,309.9349497338853L573.5986913849509,315.023385839471L572.1428571428571,311.5397021665502L571.6575790621591,310.2897693672383L571.1723009814613,309.25756679748406L570.6870229007633,310.0075264770711L570.2017448200654,305.58840922531044L568.7459105779716,303.70141390247835L568.2606324972737,304.9352185366378L567.7753544165757,304.47556582979405L567.2900763358779,312.5638406537283L566.80479825518,313.926670609107L565.3489640130862,313.926670609107L564.8636859323882,312.6848018923714L564.3784078516902,310.22525670662867L563.8931297709923,306.4835223912693L563.4078516902944,296.7017902263319L561.9520174482006,297.99204343852483L561.4667393675027,296.13730444599753L560.9814612868048,294.54868017848503L560.4961832061068,292.22622439653776L560.010905125409,295.19380678458145L558.5550708833151,292.0488145798613L558.0697928026173,293.8229127466265L557.5845147219194,297.54851889683346L557.0992366412213,303.6449653244449L556.6139585605234,308.0076339981722L555.1581243184296,308.62856835654L554.6728462377317,311.0477931294016L554.1875681570338,316.9426374926079L553.7022900763359,311.99935487339394L553.2170119956379,310.7010375786248L551.7611777535442,306.65286812536965L551.2758996728462,300.8789850008064L550.7906215921483,300.20966614698136L550.3053435114504,302.7256599107575L549.8200654307524,305.9109725283587L548.3642311886587,305.9109725283587L547.8789531079607,308.75759367775925L547.3936750272628,316.2088059781732L546.9083969465648,315.3136928122144L546.423118865867,314.07182409547875L544.9672846237731,317.652276759314L544.4820065430753,321.3294984140638L543.9967284623773,312.7976990484383L543.5114503816794,309.5559378528036L543.0261723009814,308.0560184936294L541.5703380588876,308.3785817966776L541.0850599781897,304.71748830708026L540.5997818974918,301.7095855061556L540.1145038167939,306.20127950110214L539.6292257360959,308.2414923928821L538.1733914940022,322.8616741035428L537.6881134133042,314.4830923068652L537.2028353326064,306.63673996021726L536.7175572519084,304.45943766464165L536.2322791712105,298.27428632869197L534.7764449291167,302.5159937637761L534.2911668484187,296.4276114187409L533.8058887677207,302.1047255523896L533.3206106870228,301.74990591903656L532.835332606325,295.73410031718726L531.3794983642312,294.6615773345519L530.8942202835333,298.1775173377775L530.4089422028353,304.02397720552653L529.9236641221374,315.8217300145153L529.4383860414395,313.8218375356164L527.9825517993457,313.55572281060154L527.4972737186478,312.3299822590184L527.0119956379499,314.93468093113273L526.5267175572518,317.56357185097573L526.0414394765539,317.67646900704267L524.5856052344601,318.0796731358529L524.1003271537622,319.5634643298747L523.6150490730644,319.0392989624214L523.1297709923664,319.8940917154992L522.6444929116685,320.74082038600073L521.1886586695747,322.7729691952046L520.7033805888768,322.7729691952046L520.2181025081788,323.55518520509645L519.732824427481,322.87780226869523L519.247546346783,325.65991075748616L517.8119320247183,326.8614590613408L517.3266539440203,330.2886941562282L516.8413758633224,328.0952636955002L516.3560977826245,328.909736035697L515.8708197019265,331.8208698457072L514.4149854598328,333.8368904897586L513.9297073791348,331.9015106714693L513.444429298437,332.32890704800815L512.959151217739,332.0627923229934L512.4738731370411,332.55470136014196L511.0180388949473,330.3290145691092L510.5327608142494,331.2160636524918L510.0474827335515,331.7482931025214L509.56220465285355,333.2159561313908L509.0769265721555,336.3932046664158L507.62109233006174,336.49803773990647L507.1358142493638,343.14284178269986L506.6505361686659,344.25568517821625L506.16525808796797,344.64276114187413L505.67998000727005,344.5298639858072L504.2241457651763,348.05386807160903L503.7388676844784,350.16665770657494L503.2535896037805,351.2472447717865L502.76831152308256,354.1503144992205L502.28303344238464,351.4407827536154L500.82719920029075,350.4327724315897L500.3419211195928,349.4166980269878L499.8566430388949,349.7231331648836L499.371364958197,349.03768614590615L498.88608687749905,351.47303908392024L497.4302526354053,351.47303908392024L496.94497455470736,352.8519972044514L496.45969647400943,355.71474651900434L495.9744183933115,354.85188968335035L495.4891403126136,356.52115477662494L494.03330607051976,355.44056771141334L493.54802798982183,358.1904198698995L493.0627499091239,352.40040858018386L492.577471828426,355.11800440836515L492.09219374772806,356.0292457394764L490.6363595056343,358.1823557873233L490.15108142493636,352.3520240847266L489.66580334423844,345.42497715176603L489.1805252635405,346.98940917154994L488.6952471828426,349.2957367883447L487.2394129407488,353.5938928014623L486.7541348600509,345.2717595828181L486.2688567793529,342.3283694425031L485.783578698655,339.6510940272029L485.29830061795707,346.99747325412613L483.8424663758633,346.99747325412613L483.3571882951654,344.17504435245417L482.87191021446745,343.1912262781571L482.3866321337695,345.5540024729853L481.9013540530716,343.62668673727217L480.4455198109778,342.11870329552175L479.9602417302799,343.24767485619054L479.474963649582,342.9331756357185L478.98968556888406,340.1833234772324L478.5044074881861,340.481694532552L477.0485732460923,343.12671361754747L476.5632951653944,343.12671361754747L476.07801708469646,342.39288210311275L475.59273900399853,344.44115907746897L475.1074609233006,342.41707435084135L473.65162668120684,344.4895435729262L473.1663486005089,344.4895435729262L472.681070519811,350.08601688081285L472.19579243911306,351.48916724907264L471.71051435841514,353.20681683780447L470.2546801163213,355.464759959142L469.7694020356234,358.3436374388474L469.28412395492546,355.78732326219017L468.79884587422754,356.4808343637439L468.3135677935296,354.2148271598301L466.85773355143584,356.0776302349336L466.3724554707379,354.65835170152144L465.88717739004,353.55357238858124L465.40189930934207,359.9483898715123L464.91662122864415,360.6902854685232L463.4607869865504,357.16628138272137L462.97550890585234,354.6180312886404L462.4902308251544,354.81963335304556L462.0049527444565,354.2228912424063L461.5196746637586,351.8520509650019L460.06384042166485,351.3036933498199L459.5785623409669,348.40062362238587L459.093284260269,348.40062362238587L458.6080061795711,348.19902155798076L458.12272809887315,347.0377936670071L456.6668938567794,351.8439868824257L456.18161577608146,351.36820601042956L455.69633769538353,346.9732810063975L455.2110596146855,346.1346164184721L454.7257815339876,346.43298747379174L453.2699472918938,348.19095747540456L452.7846692111959,350.17472178915114L452.299391130498,349.1586473845492L451.8141130498001,349.3763776141068L451.32883496910216,350.60211816569L449.8730007270084,356.34374495994837L449.38772264631046,356.5937315198108L448.90244456561254,359.19036610934893L448.4171664849146,360.8515671200473L447.9318884042166,360.3999784957798L446.4760541621228,361.05316918445243L445.9907760814249,354.7228643621311L445.50549800072696,357.9081769797323L445.02021992002904,353.9003279393581L444.5349418393311,349.77958174291706L443.05888767720825,348.60222568679103L442.5736095965103,347.5861512821891L442.0883315158124,347.8119455943229L441.6030534351145,352.77942046126554L441.11777535441655,359.9564539540885L439.6619411123228,361.4160529003817L439.17666303162486,359.3919681737541L438.69138495092693,358.8032901456911L438.206106870229,359.8274286328692L437.7208287895311,359.19036610934893L436.26499454743725,359.46454491694L435.77971646673933,360.4322348260846L435.2944383860414,359.6419547336165L434.8091603053435,359.8354927154454L434.32388222464556,363.0530616633514L432.8680479825518,363.95623891188643L432.38276990185386,367.2141282726735L431.89749182115594,363.5933551959572L431.412213740458,363.5691629482286L430.9269356597601,362.9482285898608L429.4711014176663,365.99645180366645L428.9858233369684,364.82715983011667L428.5005452562704,363.4723939573141L428.0152671755725,364.2949303800871L427.52998909487457,364.66587817859255L426.0741548527808,363.85946992097195L425.58887677208287,364.2384818020536L425.10359869138495,366.3996559324768L424.61832061068696,371.8106553411107L424.13304252998904,372.9718832320843L422.6772082878953,374.2298801139724L422.1919302071974,373.90731681092416L421.7066521264995,375.05241653674534L421.22137404580155,373.6089457556045L419.2802617230098,375.7217353905704L418.7949836423119,378.7538304392237L418.30970556161395,379.85860975216383L417.82442748091603,379.7618407612494L417.3391494002181,377.4151927315736L415.8833151581243,375.9314015375517L415.39803707742635,376.4152464921241L414.9127589967284,378.06031933767L414.42748091603056,376.4555669050051L413.94220283533264,376.7297457125961L412.4863685932388,376.6007203913768L412.0010905125409,378.9312402559002L411.51581243184296,380.3263265415838L411.03053435114504,380.81017149615616L410.5452562704471,384.3664319122628L409.0894220283533,378.568356539971L408.60414394765536,377.2458469974733L408.11886586695744,379.7537766786732L407.1483097055616,380.2295575506693L405.6924754634678,379.5924950271491L405.2071973827699,380.882748239342L404.72191930207197,379.91505833019727L404.23664122137404,379.56023869684424L403.7513631406761,378.8505994301382L402.29552889858235,381.30208053330466L401.81025081788437,381.78592548787697L401.32497273718644,384.01161227890975L400.8396946564885,384.03580452663834L400.3544165757906,383.9551637008763L398.8985823336968,384.04386860921454L398.4133042529989,385.79377452825116L397.9280261723009,386.66469544648135L397.44274809160305,390.8822106338369L396.9574700109051,389.7532390731681L395.50163576881135,390.68867265200794L395.01635768811343,394.0997795817429L394.5310796074155,394.6158808666201L394.0458015267175,398.33342293425085L393.5605234460196,398.2769743562174L392.10468920392583,401.3574539003279L391.6194111232279,403.09929573678835L391.13413304253,402.4057846352347L390.64885496183206,403.8734476641041L390.1635768811341,401.2848771571421L388.7077426390403,400.1478415138971L388.22246455834244,400.1478415138971L387.7371864776445,397.88183430998333L387.2519083969466,398.2043976130316L386.76663031624867,398.575345411537L385.31079607415484,398.1963335304554L384.8255179934569,400.2768668351164L384.340239912759,403.2121928928552L383.85496183206106,404.9943551421967L383.36968375136314,402.2848233965916L381.9138495092693,400.5833019730122L381.4285714285714,403.4863717004462L380.94329334787346,403.7282941777324L380.45801526717554,403.10735981936455L379.9727371864776,403.3170259663459L378.51690294438384,402.6073866996398L378.0316248636859,400.20429009193055L377.546346782988,399.9623676146444L377.0610687022901,397.9705392183216L376.57579062159215,397.0592978872104L375.1199563794984,396.3980431159615L374.6346782988004,397.1480027955486L374.14940021810247,399.39788183431L373.66412213740455,400.575237890436L373.1788440567066,400.6881350465029L371.72300981461285,403.54282027847967L371.2377317339149,404.13956238911885L370.752453653217,405.7685070695124L370.2671755725191,407.59905381431105L368.3260632497274,414.2761141874093L367.84078516902946,412.92134831460675L367.35550708833154,411.558518359228L366.87022900763355,410.2843933121875L366.38495092693563,410.929519918284L364.92911668484186,414.3406268480189L364.44383860414393,413.91323047148L363.958560523446,416.7034030428472L363.4732824427481,412.72781033277784L362.9880043620501,408.5748078060319L361.5321701199564,408.88124294392776L361.04689203925847,408.98607601741844L360.56161395856054,406.2120316112037L360.0763358778626,406.0426858771034L359.5910577971647,406.55878716198055L358.13522355507087,410.45373904628786L357.64994547437294,411.59077468953285L357.164667393675,412.147196387291L356.6793893129771,413.1471426267405L356.19411123227917,412.47782377291543L354.73827699018534,413.1471426267405L354.2529989094874,411.9375302403097L353.7677208287895,415.07445836245364L353.2824427480916,414.8728562980485L352.7971646673937,415.8889307026504L351.3413304252999,413.5342185903984L350.85605234460195,415.1228428579109L350.370774263904,418.1952583194452L349.8854961832061,417.6549647868394L349.4002181025082,416.11472501478414L347.94438386041435,416.6388903822375L347.4591057797164,416.6388903822375L346.9738276990185,419.25971721950435L346.4885496183206,420.32417611956345L346.00327153762265,417.5420676307725L344.5474372955289,419.5258319445191L344.06215921483096,422.17085102951455L343.57688113413303,425.4126122251492L343.0916030534351,428.2914897048546L342.6063249727372,428.79952690715555L341.17071065067245,426.896403419171L340.6854325699745,424.4610504811569L340.2001544892766,427.1867103919144L339.7148764085787,427.1786463093382L339.22959832788075,426.2432127304984L337.773764085787,431.13811085425516L337.28848600508906,431.1139186065265L336.80320792439113,431.1945594322886L336.3179298436932,432.6944787914628L335.8326517629953,436.11364980377397L334.37681752090145,435.7023815923875L333.89153944020353,435.36369012418686L333.4062613595056,438.3232084296543L332.9209832788077,441.5891618730176L332.43570519810976,446.04053545508305L330.979870956016,444.27450137089403L330.49459287531806,441.41981613891727L330.00931479462014,439.5408848986614L329.5240367139222,441.79882801999895L329.0387586332243,442.1455835707758L327.5829243911305,441.0408042578356L327.0976463104326,441.1375732487501L326.6123682297346,439.5489489812376L326.1270901490367,440.2827804956723L325.64181206833877,442.94392774582013L324.185977826245,439.5166926509327L323.70069974554707,439.96828127520024L323.21542166484915,436.96037847427556L322.73014358415116,436.8313531530563L320.7890312613595,433.0976829202731L320.3037531806616,433.00897801193486L319.8184750999637,434.98467824310524L319.33319701926575,434.17020590290844L318.8479189385678,430.39621525724425L317.392084696474,432.6460942960056L316.9068066157761,435.27498521584863L316.42152853507815,437.62163324552444L315.93625045438023,438.08128595236815L315.4509723736823,439.2667060910704L313.9951381315885,440.37954948658677L313.50986005089055,438.06515778721575L313.0245819701926,437.0974678780711L312.5393038894947,439.8957045320144L312.05402580879684,440.77468953282084L310.598191566703,441.80689210257515L310.1129134860051,441.80689210257515L309.62763540530716,446.2663297672168L309.14235732460924,450L307.2012450018175,446.6695338960271L306.71596692111956,445.82280522552554L306.23068884042164,444.25030912316544L305.7454107597237,442.3310574700285L305.2601326790258,441.564969625289L303.804298436932,440.0166657706575L303.3190203562341,438.3070802645019L302.83374227553617,439.66991021988065L302.34846419483824,438.04902962206336L301.8631861141403,436.79103274017524L300.40735187204655,439.879576366862L299.92207379134857,444.23418095801304L299.43679571065064,444.23418095801304L298.9515176299527,443.4761571958497L298.4662395492548,443.21810655341113L297.010405307161,443.86323315950756L296.5251272264631,444.4841675178754L296.0398491457651,444.4841675178754L295.5545710650672,443.40358045266385L295.0692929843693,443.919681737541L293.61345874227555,440.4843825600774L293.12818066157763,440.9440352669211L292.6429025808797,441.16176549647867L292.1576245001817,436.10558572119777L291.6723464194838,436.65394333637977L290.21651217739003,433.8153862695554L289.7312340966921,436.4523412719746L289.2459560159942,433.86377076501265L288.76067793529626,432.37191548841463L288.2753998545983,432.6460942960056L286.8195656125045,437.2587495295952L286.3342875318066,439.3473469168324L285.8490094511087,435.72657384011615L285.3637313704108,438.4925541637546L284.87845328971287,441.34723939573144L283.42261904761904,438.3312725122305L282.9373409669211,436.4523412719746L282.4520628862232,436.4523412719746L281.96678480552526,439.83925595398097L281.48150672482734,438.10547820009674L280.0256724827335,446.46793183162197L279.5403944020356,448.15332509004895L279.05511632133766,443.4761571958497L278.56983824063974,440.5569593032633L278.0845601599418,441.98430191925166L276.62872591784804,440.2908445782485L276.1434478371501,435.291113381001L275.6581697564522,440.38761356916297L275.1728916757543,436.6378151712274L274.68761359505635,435.74270200526854L273.2317793529626,433.839578517284L272.7465012722646,433.14606741573033L272.26122319156667,429.759152733724L271.77594511086875,423.5578732326219L271.2906670301708,426.8076985108328L269.83483278807705,426.2996613085318L269.3495547073791,423.5175528197409L268.8642766266812,428.7511424116983L268.3789985459833,432.4928767270577L267.89372046528536,438.79898930165047L266.4176663031625,435.33949787645827L265.93238822246457,433.84764259986025L265.44711014176664,434.9443578302242L264.9618320610687,439.28283425622277L264.4765539803708,433.67829686575993L263.02071973827697,434.51696145368527L262.53544165757904,430.896188376969L262.0501635768811,434.07343691199395L261.5648854961832,429.13015429277993L261.07960741548527,424.14655126068493L259.6237731733915,435.00080640825763L259.1384950926935,441.5004569646793L258.6532170119956,440.6537282941777L258.16793893129767,441.16176549647867L257.68266085059975,433.9202193430461L256.22682660850603,434.78307617870007L255.74154852780808,432.3396591581098L255.25627044711013,425.06585667437236L254.7709923664122,421.404763184775L254.28571428571428,428.1785925487877L252.8298800436205,409.64733078866726L252.34460196292258,406.6716843180474L251.8593238822246,409.2683189075856L251.3740458015267,410.77630234933605L250.88876772082878,407.3813235847535L249.432933478735,399.4301381646148L248.94765539803709,404.929842481587L248.46237731733916,409.9779581742917L247.97709923664118,400.260738669964L247.49182115594326,399.8736627063061L246.0359869138495,392.9546798559217L245.5507088331516,389.9629052201494L245.06543075245366,390.8015698080748L244.58015267175574,390.7451212300414L244.09487459105776,385.71313370248913L242.639040348964,383.8906510402667L242.1537622682661,383.0519864523413L241.66848418756817,378.42320305359925L241.18320610687024,379.0441374119671L239.2420937840785,376.35073383151445L238.75681570338057,372.9557550669319L238.27153762268264,372.2057953873448L237.78625954198472,373.036395892694L237.30098146128682,373.91538089350036L235.845147219193,370.4962098811892L235.35986913849507,372.51223052524057L234.87459105779715,371.2622977259287L234.38931297709922,373.1251008010322L233.9040348964013,371.625181441858L232.4482006543075,371.34293855169074L231.96292257360957,368.4559969894092L231.47764449291165,368.4721251545616L230.99236641221373,370.54459437664644L230.5070883315158,373.1009085533036L229.05125408942203,376.334605666362L228.56597600872408,381.156927046933L228.08069792802615,380.65695392720824L227.59541984732823,383.5197032417612L227.1101417666303,389.49518843072957L225.65430752453653,386.72920810709104L225.1690294438386,384.88253319713994L224.68375136314066,384.1325735175528L224.19847328244273,386.3905166388904L223.7131952017448,388.5516907693135L222.25736095965104,382.32621902048277L221.77208287895309,384.8180205365303L221.28680479825516,378.9876888339337L220.80152671755724,382.4068598462448L220.3162486368593,378.96349658620505L218.86041439476554,379.8828019998925L218.37513631406762,374.51212300413954L217.88985823336967,373.705714746519L217.40458015267174,376.2620289231762L216.91930207197382,372.842857910865L215.46346782988005,373.8911886457717L214.97818974918212,370.6252352024085L214.4929116684842,372.5444868555454L214.00763358778624,368.2705230901564L213.52235550708832,371.8106553411107L211.58124318429662,375.8749529595183L211.0959651035987,377.4393849793022L210.61068702290078,372.1977313047686L210.12540894220282,378.0361270899414L208.66957470010905,375.89914520724693L208.1842966194111,377.37487231869255L207.69901853871318,370.0123649266169L207.21374045801528,373.35089511316596L206.72846237731736,373.42347185635185L205.27262813522356,371.7219504327724L204.78735005452563,367.1818719423687L204.30207197382768,368.9156496962529L203.81679389312976,366.7544755658298L203.33151581243183,370.45588946830816L201.87568157033806,374.060534379872L201.39040348964014,373.34283103058976L200.90512540894218,367.2544486855545L200.41984732824426,363.35949680124725L199.93456924754634,366.6093220794581L198.47873500545256,363.35949680124725L197.99345692475464,360.3032095048653L197.50817884405672,363.7223805171765L197.02290076335876,363.5772270308048L196.53762268266084,362.9885490027418L195.08178844056704,360.8515671200473L194.59651035986911,362.51276813074566L194.11123227917122,362.2547174883071L193.6259541984733,362.72243427772696L191.68484187568157,366.96414171281117L191.19956379498362,370.28654373420784L190.7142857142857,369.3672383205204L190.22900763358777,363.1498306542659L189.74372955288985,365.0045696467932L188.28789531079607,361.76280845115855L187.80261723009815,360.06128702757917L187.3173391494002,362.85952368152255L186.83206106870227,359.8758131283264L186.34678298800435,361.3273479920434L184.89094874591058,365.12553088543626L184.40567066521265,363.82721359066716L183.92039258451473,365.81904198698993L183.43511450381678,362.5369603784743L182.94983642311885,364.09332831568196L181.49400218102505,367.1496156120639L181.00872410032716,367.9076393742272L180.52344601962923,372.78640933283157L180.0381679389313,371.89936024944893L179.55288985823336,374.1653674533627L178.09705561613958,376.1894521799903L177.61177753544163,376.82651470351055L177.1264994547437,381.705284662115L176.6412213740458,383.8745228751143L176.1559432933479,377.4555131444546L174.7001090512541,383.197139938713L174.21483097055616,388.4791140261276L173.7295528898582,389.1161765496479L173.2442748091603,393.4062684801892L172.75899672846236,393.8901134347616L171.3031624863686,394.40621471963874L170.81788440567067,388.4307295306704L170.33260632497274,390.93865921187034L169.8473282442748,389.80968765120156L169.36205016357687,387.3501424654589L167.9062159214831,389.6161496693726L167.42093784078517,390.8015698080748L166.93565976008725,394.12397182947154L166.45038167938932,392.4788989839256L165.96510359869137,397.3415407773776L164.5294892766267,397.73668082361166L164.04421119592874,399.9623676146444L163.55893311523081,396.08354389548947L163.0736550345329,399.37368958658135L162.58837695383497,400.5429815601312L160.64726463104327,405.5910972528359L160.16198655034532,408.4941669802699L159.6767084696474,405.9539809687651L159.19143038894947,410.86500725767434L157.73559614685567,410.96177624858876L157.25031806615777,409.88925326595347L156.76503998545985,411.42949303800873L156.2797619047619,410.3650341379496L155.79448382406397,416.54212139132306L154.33864958197017,414.4777162518144L153.85337150127225,415.54217515187355L153.36809342057433,412.6713617547444L152.88281533987643,412.5665286812537L152.39753725917848,414.8970485457771L150.9417030170847,412.2439653782055L150.45642493638675,408.30062899844097L149.97114685568883,413.9051663889038L149.4858687749909,416.9775818504381L149.00059069429298,416.501800978442L147.5447564521992,416.7275952905758L147.05947837150126,415.050266114725L146.57420029080333,413.21165528735014L146.0889222101054,414.53416482984784L144.1478098873137,412.5584645986775L143.6625318066158,410.2763292296113L143.17725372591784,408.71189720982744L142.6919756452199,412.37299069942475L142.206697564522,408.6715767969464L140.7508633224282,411.8730175797L140.26558524173026,415.2921885920112L139.78030716103237,414.67931831621956L139.29502908033442,408.74415354013223L138.8097509996365,406.8974786301812L137.3539167575427,405.204021289178L136.86863867684477,403.9057039944089L136.38336059614684,406.47008225364226L135.89808251544892,406.98618353851947L135.412804434751,408.2199881726789L133.95697019265722,408.2199881726789L133.47169211195927,403.71216601258L132.98641403126135,400.91392935863666L132.50113595056342,387.551744529864L130.56002362777173,382.93908929627435L130.0747455470738,383.3181011773561L129.58946746637585,384.3261114993818L129.10418938567793,376.7458738777485L128.61891130498,368.8914574485243L127.16307706288622,373.8024837374335L126.67779898218829,369.5043277243159L126.19252090149037,368.3914843287995L125.70724282079243,374.96371162840705L125.2219647400945,369.81076286221173L123.76613049800072,367.86731896134614L123.2808524173028,355.86796408795226L122.79557433660487,355.9405408311381L121.825018175209,353.3277780764475L120.36918393311524,351.9165636256115L119.88390585241729,352.9326380302134L119.39862777171936,352.6262028923176L118.42807161032353,352.7471641309607L116.97223736822974,356.6905005107252L116.48695928753182,362.093435836783L116.00168120683387,365.39164561045106L115.51640312613594,365.50454276651794L115.03112504543802,364.35944304069676L113.57529080334423,359.5290575775496L113.0900127226463,358.367829686576L112.60473464194838,359.15004569646794L112.11945656125044,361.02091285414764L111.63417848055252,356.44857803343905L110.17834423845875,356.3760012902532L109.69306615776081,359.88387721090265L109.20778807706289,363.4723939573141L108.72250999636495,368.0608569431751L108.23723191566704,368.8269447879146L106.78139767357324,366.1174130423095L106.29611959287531,364.448147949035L105.81084151217739,367.7302295575507L105.32556343147947,372.0928982312779L104.84028535078153,373.92344497607655L103.38445110868776,374.7298532336971L102.4138949472919,377.21359066716843L101.92861686659396,376.8990914466964L101.44333878589605,380.85049190903715L99.98750454380225,378.882855760443L99.50222646310434,380.56824901886995L99.0169483824064,379.1086500725767L98.53167030170846,376.00397828073756L98.04639222101054,389.06779205419065L96.59055797891675,379.70539218321596L96.10527989821882,371.5606687812483L95.62000181752089,362.82726735121764L95.13472373682298,358.40008601688083L94.64944565612504,362.9240363421321L93.19361141403125,361.5612063867534L92.70833333333333,361.9079619375302L92.2230552526354,359.88387721090265L91.73777717193747,362.2627815708833L91.25249909123954,363.80302134293856L89.77644492911668,364.1175205634106L89.29116684841875,365.66582441804206L88.80588876772082,363.1256384065373L88.3206106870229,362.9401645072846L87.83533260632497,372.45578194720713L86.37949836423118,375.63303048223213L85.89422028353326,373.1492930487608L85.40894220283533,373.75409924197623L84.9236641221374,376.3104134186334L84.43838604143947,378.40707488844686L82.98255179934569,378.1893446588893L82.49727371864776,382.23751411214454L82.01199563794982,378.5602924573948L81.52671755725191,377.69743562174074L81.04143947655398,377.65711520885975L79.5856052344602,382.86651255308857L79.10032715376227,387.0678995752916L78.61504907306434,385.71313370248913L78.1297709923664,385.2857373259502L77.64449291166848,386.9872587495296L76.18865866957469,389.3016504489006L75.70338058887677,388.4710499435514L75.21810250817884,389.866136229235L74.73282442748092,389.53550884361056L74.24754634678298,393.4869093059513L72.79171210468921,396.8173754099242L72.30643402399127,399.91398311918715L71.82115594329335,399.54303532068167L71.33587786259541,399.4220740820386L70.8505997818975,401.4461588086662L69.3947655398037,401.12359550561797L68.90948745910578,402.4219128003871L68.42420937840785,402.7041556905543L67.93893129770993,403.8008709209182L67.45365321701199,402.81705284662115L65.99781897491822,406.8007096392667L65.51254089422028,404.1879468845761L65.02726281352236,402.7767324337401L64.54198473282442,396.809311327348L62.600872410032714,401.3897102306328L62.11559432933479,403.18800064512664L61.63031624863686,404.9379065641632L61.145038167938935,410.7924305144885L60.659760087241,406.4136336756088L59.203925845147225,403.95408848986614L58.71864776444929,407.3651954196011L58.23336968375137,406.2039675286275L57.74809160305343,410.18762432127306L57.26281352235551,414.50190849954305L55.80697928026172,414.6309338207623L55.32170119956379,418.6710391914413L54.836423118865866,416.37277565722275L54.351145038167935,413.0423095532498L53.86586695747001,410.01021450459655L52.410032715376225,412.26009354335787L51.924754634678294,411.13918606526533L51.43947655398037,404.9943551421967L50.95419847328244,404.1718187194237L50.468920392584515,403.9944089027472L49.01308615049073,406.73619697865706L48.527808069792805,402.99446266329767L48.042529989094874,404.1960109671523L47.55725190839694,406.8087737218429L47.07197382769902,399.0108058706521L45.61613958560523,397.0592978872104L45.13086150490731,395.32552013332617L44.64558342420938,402.37352830492983L44.16030534351145,404.2847158754906L43.67502726281352,397.18025912585347L42.219193020719736,397.1399387129724L41.73391494002181,400.1639696790495L41.24863685932388,401.68001720337617L40.76335877862596,401.04295467985594L40.278080697928026,401.69614536852856L38.82224645583424,401.9945164238482L38.336968375136316,404.94597064673945L37.851690294438384,406.300736519542L37.36641221374046,406.3329928498468L36.88113413304253,407.96193753024033L35.42529989094875,406.3733132627278L34.94002181025082,406.01042954679855L33.969465648854964,410.51018762432125L33.48418756815703,415.27606042685875L32.028353326063254,414.6470619859147L31.543075245365323,415.84054620719314L31.057797164667395,414.76802322455785L30.572519083969468,416.57437772162785L30.08724100327154,414.40513950862857L28.631406761177754,413.872910058599L28.146128680479826,413.1471426267405L27.660850599781895,415.0422020321488L27.175572519083968,413.3406806085694L26.69029443838604,412.18751680017203L25.234460196292257,415.8889307026504L24.74918211559433,417.30014515348637L24.263904034896402,418.3081554755121L23.77862595419847,415.98569969356487L23.293347873500544,416.1389172625128L21.83751363140676,412.6713617547444L21.352235550708834,413.01005322294503L20.866957470010906,413.35680877372187L20.38167938931298,414.13902478361376L19.89640130861505,415.2196118488253L18.440567066521265,417.58238804365357L17.955288985823337,415.3325090048922L17.47001090512541,417.284016988334L16.984732824427482,420.84834148701685L15.04362050163577,421.43701951507984L14.558342420937842,423.7997957099081L14.073064340239913,422.0256975431428L13.587786259541984,421.5015321756895L13.102508178844056,422.75952905757754L11.646673936750272,424.34008924251384L11.161395856052344,424.80780603193375L10.676117775354417,426.50126337293693L10.19083969465649,426.35610988656526L9.70556161395856,424.8723186925434L8.249727371864777,425.37229181226814L7.764449291166849,426.50126337293693L7.279171210468921,426.8722111714424L6.793893129770992,428.3398742003118L6.308615049073064,429.25917961399927L4.85278080697928,431.7671092951992L4.367502726281352,432.09773668082363L3.8822246455834244,432.1058007633998L3.396946564885496,432.84769636041074L2.911668484187568,432.58158163539593L1.455834242093784,432.4848126444815L0.9705561613958561,433.3557335627117L0.48527808069792805,436.17009838180746L0,437.8716198053868">
  </path>
</g>
</svg>
