<?xml version="1.0" encoding="utf-8"?>
<!-- Generator: Adobe Illustrator 15.0.0, SVG Export Plug-In  -->
<!DOCTYPE svg PUBLIC "-//W3C//DTD SVG 1.1 Tiny//EN" "http://www.w3.org/Graphics/SVG/1.1/DTD/svg11-tiny.dtd" [
	<!ENTITY ns_flows "http://ns.adobe.com/Flows/1.0/">
]>
<svg version="1.1" baseProfile="tiny"
	 xmlns="http://www.w3.org/2000/svg" xmlns:xlink="http://www.w3.org/1999/xlink" xmlns:a="http://ns.adobe.com/AdobeSVGViewerExtensions/3.0/"
	 x="0px" y="0px" width="600px" height="460px" overflow="visible" xml:space="preserve">
<defs>
</defs>
<path d="M415.69,131.62c4.94,26.31-16.99,30.69-16.99,30.69C415.69,151.9,415.69,131.62,415.69,131.62 M249.35,345.65
	c4.11,34.81,35.63,19.18,35.63,19.18C255.93,373.06,249.35,345.65,249.35,345.65 M380.62,316.05c3.01-16.44,15.35-21.92,15.35-21.92
	C380.34,296.6,380.62,316.05,380.62,316.05 M358.69,378.26c-23.39,7.31-32.52-13.15-32.52-13.15
	C332.01,399.09,358.69,378.26,358.69,378.26 M264.97,81.2c0,0,14.8,6.3,17.81,26.58C282.78,107.78,287.44,86.95,264.97,81.2
	 M367.46,50.14c15.38-0.37,25.03,6.58,25.03,6.58C385.34,41,367.46,50.14,367.46,50.14 M320.32,96.27c0,0,5.48,7.95,5.48,22.47
	C325.81,118.74,331.01,106.14,320.32,96.27 M315.76,104.22c9.87,32.15-10.59,41.29-10.59,41.29c15.93-4.25,16.29-20.65,16.29-20.65
	c4.02,8.04,4.17,19.19,4.17,19.19c0.74-0.72,1.18-0.69,1.31-1.33C331.53,119.04,315.76,104.22,315.76,104.22 M263.65,60.73
	c18.95,8.77,22.88,16.08,38.96,12.42c0,0-13.58,0-17.16-5.12c-3.58-5.12,7.15,2.19,17.52-12.42c0,0-10.73,9.13-21.81,4.02
	c-11.08-5.11-36.82-12.06-52.55,1.1C228.62,60.73,244.71,51.96,263.65,60.73 M220.76,56.35c0,0,9.65-6.94,25.02-6.58
	C245.78,49.77,227.91,40.64,220.76,56.35 M221.49,85.58c-44.21,2.19-28.14,26.67-28.14,26.67
	C193.35,91.79,221.49,85.58,221.49,85.58 M425.62,108.78c0,0,12.25-26.87-32.64-21.58c-0.7,0.08-1.38,0.25-2.04,0.78
	C390.94,87.97,421.97,88.65,425.62,108.78 M253.13,165.2c0,0,12.89-8.79,27.07-3.98C280.2,161.22,266.67,151.67,253.13,165.2
	 M246.33,84.12c0,0,27.4,4.75,35.44,40.56C281.77,124.68,287.62,83.75,246.33,84.12 M268.66,69.87c11.08,25.95,33.6,11.7,33.6,11.7
	C284.74,86.68,268.66,69.87,268.66,69.87 M310.99,81.93c0,0,22.52,14.25,33.6-11.7C344.59,70.23,328.5,87.04,310.99,81.93
	 M349.65,74.07c0,0,9.04,13.15,4.93,27.13C354.58,101.2,364.72,86.95,349.65,74.07 M327.79,68.41c-3.57,5.11-17.16,5.11-17.16,5.11
	c16.08,3.65,20.01-3.66,38.96-12.42c18.94-8.77,35.03,0,35.03,0c-15.73-13.16-41.46-6.22-52.55-1.1
	c-11.09,5.11-21.81-4.02-21.81-4.02C320.63,70.6,331.36,63.29,327.79,68.41 M369.51,223.91c-0.01,0.01-0.02,0.02-0.03,0.02
	C369.38,224.04,369.42,224,369.51,223.91 M251.84,170.49c-9.32-1.16-3.23,4.19-3.23,4.19s30.04,13.1,40.87,38.08
	c-0.17-0.71,0.75-1.37,0.53-2.1C284.4,192.6,260.79,171.61,251.84,170.49 M356,174.86c1.44,3.19,5.6,14.8-6.62,21.07
	c0,0,0.55,0.26,1.29,0c4.09-1.46,12.6-10.31,9.22-19.62l11.88-12.58l-16.17,10.27L356,174.86z M370.13,159.47
	c-12.41-15.82-22.74-4.25-22.74-4.25C359.28,148.87,370.13,159.47,370.13,159.47 M593.58,212.24c0,0-0.54,0.38-2.96-0.18
	c-17.87-4.17-92.58-23.29-104.63-24.28l-2.79,9.96c12.38,2.55,49.86,13.68,49.86,13.68s-4.12-0.58-8.9-1.89
	c-6.1-1.68-31.97-8.24-41.13-9.77c0.88,4.76,3.17,10.46,3.75,17.27c30.74,11.02,55.83,29.08,55.83,29.08s-36.18-22.34-55.83-26.97
	c-0.18,2.15-0.52,7.43-1.25,9.79l-0.24,0.78c11.47,5.11,22.56,11.04,32.48,17.96l12.05,8.4c0,0-30.65-20.6-45.58-24.26l-0.92,4.26
	c0.08,1.16,0.12,2.35,0.12,3.57c0,1.42-0.09,2.89-0.22,4.38c13.31,6.99,48.48,33.97,48.48,33.97S493,251.64,482.5,246.41
	c-1.33,6.51-4.2,16.02-9.6,22.26l-5.82,6.73l0.21-2.25c-0.86,1.91-1.96,3.88-3.34,5.88l-4.06,5.83l-1.1-7.02
	c-0.01,0-0.09-0.58-0.33-1.44c-0.22-0.86-0.61-1.92-1.02-2.57c-0.17-0.29-0.31-0.45-0.4-0.53c-0.33,0-0.69-0.01-1.12-0.01
	c-4.62,0.1-17.06,0.5-28.47,18.07c-10.53,16.28-24.31,22.44-31.51,24.09c-2.59,1.66-4.61,5.02-5.81,6.52
	c-1.1,5.44-3.06,8.74-3.03,13.84c0,6.98,1.75,8.98,1.06,15.13c-0.11,1.01-0.94,5.08-0.94,6.08c-0.75,7.27,3.02,15.61,5.36,19.68
	c-3.56-1.66-6.86-4.4-9.84-8.39c-2.22,8.13-8.84,17.23-14.32,23.43c-2.9,3.2-5.33,9.65-6.77,15.18c-1.47,5.55-1.91,7.58-1.87,11.8
	c0.04,4.22,5.93,14.46,5.93,14.46c-2.84-1.95-8.9-8.44-12.23-11.53c-1.75,3.06,0.61,9.34,0.61,9.35l4.48,16.51l-11.12-15.73
	c-1.41-1.96-1.92-2.97-4.01-3.49c0.98,3.74,4.19,25.74,4.19,25.74s-16.19-19.58-19.8-25.26c0.15,0.98,0.26,1.58,0.26,1.59
	l-0.73,17.38c0,0-9.55-23.28-11.47-28.06c-0.2,0.4-2.02,0.6-2.21,0.99c-1.58,3.01-10.65,25.68-10.65,25.68l1.05-22.01
	c-0.58-2.39-2.73-0.59-4.26,1.61c-1.03,5.32-7.98,22.42-12.86,30.06c1.46-5.28,3.87-15.87,2.61-26.31
	c-0.55-4.64-1.79-3.93-3.84-0.74c-3.6,5.59-8.06,14.11-10.42,17.39c-0.93,1.29-1.7,0.14-1.7,0.14l5.59-17.12
	c-0.01-0.01,0.51-2.79,0.51-4.04c-0.07-3.89-1.14-9.26-8.08-13.64c-4.84-3.03-7.79-1.44-11.03-5.12l-14.64,10.74
	c2.57-5.37,6.17-10.19,4.54-15.89c-16.95-15.99-11.91-30.17-17.89-40.88c-5.23-9.73-10.7-17.27-10.68-31.03
	c0-1.79,0.12-3.72,0.31-5.73c-1.75-4.23-4.37-7.53-6.66-9.85c-5.83-1.06-23.61-5.63-35.26-23.65
	c-11.42-17.55-23.86-17.96-28.47-18.07c-0.42,0-0.78,0-1.11,0.01c-0.11,0.1-0.31,0.36-0.51,0.73c-0.47,0.82-0.86,2.1-1.05,2.94
	c-0.14,0.56-0.18,0.87-0.18,0.87l-1.1,7.02l-4.05-5.83c-1.35-1.94-2.42-3.85-3.27-5.71l0.22,2.19l-5.91-6.84
	c-2.19-2.53-4.89-7.1-6.32-9.76c-3.02,1.68-90.58,45.5-90.58,45.5s-1,0.25,1.36-1.44c15.44-8.54,82.78-42.04,88.46-45.69
	c-1.64-3.88-2.32-9.87-2.8-13.62c-0.06,0.03-68.3,30.63-68.3,30.63s0.33-0.75,1.46-1.28c10.22-4.78,62.28-28.51,66.24-30.78
	c-0.04-0.88-0.07-1.75-0.07-2.6c0-1.23-1.48-3.54-8.06,0.42l6.06-10.48c-4.19,1.67-122.04,41.31-122.04,41.31s-1.94,0.26,3.61-2.71
	c27.31-8.21,111.55-37.14,118.1-40.21c-0.83-2.97-1.19-5.79-1.19-8.42c0.05-4.78,1.06-8.92,2.1-12.63
	C115.1,207.6,12.5,240.01,12.5,240.01s-1.58-0.75,2.21-2.04c22.95-6.26,104.83-32.75,108.91-34.03c0.56-2.04,1.35-5.69,1.49-7.49
	l-0.36-0.96c-4.23,0.83-38.32,9.54-38.32,9.54l0.6-1.36c0,0,29.36-7.03,37.38-9.14l-3.15-8.18c-0.11-0.3-0.48-1.45-0.48-3.38
	c0-2.37,0.56-5.86,2.68-10.43c-6.11,2.49-14.14,4.62-24.55,5.28c20.96-5.59,30.28-27.72,30.28-27.72s-25.56,9.03-47.98-3.5
	c29.58,4.65,43.73-8.61,43.73-8.61c0.73-0.09-15.2-2.1-26.03-17.7c12.23,6.69,21.31,7.57,28.82,5.57
	c3.18-5.63-20.9-17.04-21.02-24.09c0,0,12.11,10.48,25.5,8.15c0,0-11.33-8.95-11.65-21.31c0,0,6.52,13.86,16.65,11.53
	c0,0-4.63-5.43-3.65-13.05c0.98-7.62,2.6-8.19-2.18-20.37c-4.78-12.18-3.21-38.32,10.46-44.75c0.15-0.07,0.26-0.1,0.41-0.17
	c2.35-4.23,2.66-10.15,2.93-16.11l4.57,15.17l5.39-4.16l-2.93,6.54c2.66,4.01,4.83,11.32,12.8,18.79
	c13.19,12.34,19.82,15.02,32.36,21.27c8.78,0.43,15.36,2.5,20.34,5.41c-7.08-6.64-13.92-8.79-20.79-8.58
	c0.15-1.95-15.1-18.69-15.05-20.62c0.62,0.04,17.71,8.35,20.82,9.68l-3.35-11.64l7.77,6.92l1.49-15.76l5.52,9.88
	c7.53-5.09,19.4-9.86,37.77-9.88c5.29,0,11.02,0.53,17.17,1.72c3.14,0.61,6.06,1.12,8.78,1.54c1.94,0.31,5.4-2.61,4.95-4.25
	c-1.34-4.92-5.04-9.59-11.46-15.27c10.48,4.48,16.93,10.65,21.57,19.05c0.32,0.59,2.42,0.36,2.42,0.36l2.44-17.09l1.95,19.16
	c0.28,0,0.55-0.01,0.82-0.02c5.25-14.56,15.22-19.66,29.87-23.88c-10.49,6.29-17.92,9.85-18.15,19.53
	c-0.02,1.01,4.57,2.39,6.75,1.91c5.73-1.26,11.77-2.59,20.63-2.59c1.47,0,3.02,0.04,4.65,0.11c14.63,0.7,28.62,2.13,40.55,6.15
	c4.94,1.66,10.06,3.55,14.57,6.1l11.84-11.57c0,0-3.5,11.7-4.97,16.6c0.25,0.24,0.51,0.45,0.75,0.7c0.33,0.2,0.61,0.39,0.92,0.58
	c2.89-1.05,7.46-2.68,7.46-2.68v7.58c0.85,0.6,1.57,1.12,2.21,1.62c4.02-3.84,7.5-7.52,9.41-10.79c7.03-12.05,4.24-21.39,7.89-24.94
	c0.75-5.14-0.66-11.64-2.39-18.35l7.94,16.8c0.54,0.02,1.14,0.06,1.76,0.13l1.65-6.1c0.32,2.55,0.81,5.08,2.91,7.33
	c12.18,5.44,17.94,27.34,17.31,39.15c-0.48,8.98-3.95,20.03-2.46,21.64c0.68,0.73,4.66-0.12,6-5.12c2.65,5.52-5.12,12.69-8.39,15.38
	c-0.07,0.59-0.13,1.15-0.18,1.68c6.91,4.33,16.96-5.3,17.57-8.36c3,9.89-11.37,19.64-16.17,22.58c0.48,0.46,0.91,0.95,1.24,1.48
	c15.87,2.33,27.44-13.08,27.44-13.08c2.37,7.58-12.76,15.78-20.45,22.47c15.8,6.91,18.81-2.1,18.81-2.1
	c0.58,12.32-19.26,11.07-19.5,14.79c-0.93,9.69,18.08,18.14,18.08,18.14c-8.32,0.08-14.16-1.75-18.38-3.99
	c1.25,5.66,3.8,12.49,8.91,18.79c8.74,10.77,10.43,18.32,10.43,22.45c0,0.76-0.06,1.36-0.14,1.86
	C501.6,188.56,593.58,212.24,593.58,212.24 M477.03,195.76c0.07-0.73,0.27-3.39,0.44-4.13c0.16-0.69,0.31-3.83,0.37-4.49
	c-7.65-1.01-16.54-1.81-25.15-2.45c0.31,1.17,1.54,6.02,1.98,7.22C462.15,192.7,469.43,194.39,477.03,195.76 M455.47,216.21
	c0.14,0.78,0.21,1.5,0.31,2.25c0.63,0.2,1.25,0.41,1.88,0.61C456.64,217.22,455.47,216.21,455.47,216.21 M463.25,155.05
	c-8.09-0.63-20.22,4.68-27.86,10.99c1.25,1.9,2.69,3.64,4.36,5.23c3.98,3.8,6.37,7.46,7.76,10.13c0.56,0.04,1.1,0.06,1.66,0.1
	c0.46-9.85,5.92-13.89,5.92-13.89c-2.38,5.2-3.17,9.68-2.82,14.11c8.16,0.58,16.59,1.45,25.1,2.68c-0.97-3.88-3.2-7.03-4.48-8.51
	c-0.55-0.65-0.84-0.92-0.84-0.92l-10.99-10.53l14.05,5.84c0.4,0.17,0.79,0.36,1.16,0.55c-1.11-1.72-2.47-3.59-4.11-5.62
	C469.31,161.65,467.04,155.81,463.25,155.05 M386.47,227.18c0,0.78-0.03,1.71-0.08,2.73l48.82,14.93c0.3-0.17,0.6-0.33,0.9-0.5
	c5.73-3.23,8.6-7.4,10.01-11.23c-2.38-0.92-4.8-1.81-7.25-2.69c-2.39,1.35-4.22,1.87-4.22,1.87c0.87-0.82,1.65-1.67,2.4-2.53
	c-6.36-2.25-12.93-4.37-19.63-6.29c-2.22,1.48-3.89,2.06-3.89,2.06c0.98-0.74,1.86-1.55,2.69-2.4c-7.42-2.09-15-3.91-22.67-5.38
	c-2.33,2.66-4.71,4.81-7.19,6.5C386.41,224.88,386.47,225.83,386.47,227.18 M415.7,191.16c-0.34,1.66-1.5,6.13-1.57,7.42
	c3.28,0.52,6.77,1.11,10.44,1.79c-0.05-2.34-0.37-7.06-0.83-8.92C420.75,191.39,418.75,191.14,415.7,191.16 M421.28,188.62
	c-0.55-0.57-1.14-0.92-1.75-0.95c-0.93-0.05-1.69,0.31-2.33,0.88C418.54,188.56,419.9,188.58,421.28,188.62 M416.38,183.85
	c-3.12,0.11-7.96-0.13-11.09,0.09c0.07,0.57,0.83,4.02,0.86,4.61c2.61-0.03,5.31-0.05,8.11-0.03
	C414.62,187.59,416.02,184.39,416.38,183.85 M405.15,197.24c2.62,0.36,5.45,0.78,8.49,1.26c-0.26-1.68,0.18-5.9,0.21-7.22
	c-2.48,0.03-5.1,0.18-7.6,0.26C406.09,192.55,405.43,196.18,405.15,197.24 M403.66,200.88c-0.27,0.58-2.49,5.46-2.79,6.05
	c6.38,1.18,14.43,2.47,22.25,4.31c0.29-1.2,1.32-6.3,1.48-7.48C417.61,202.61,410.82,201.51,403.66,200.88 M428.92,201.18
	c5.39,1.05,11.11,2.25,17.05,3.64c0-3.27-1.04-8.61-1.67-11.81c-5.35-0.41-10.34-0.55-15.95-0.74
	C428.67,194.79,428.99,199.02,428.92,201.18 M443.67,189.67c-0.33-1.09-1.77-4.16-2.16-5.21c-3.59-0.17-6.15,1.72-9.83,1.67
	c-0.38,0.77-0.71,1.24-0.71,1.24c0.11-0.41,0.2-0.83,0.28-1.24c-1.27-0.02-2.55-0.03-3.83-0.03c0.09,0.83,0.21,1.74,0.35,2.7
	C432.91,188.98,438.23,189.26,443.67,189.67 M431.32,180.76c-0.87-5.56-4.31-8.47-4.28-0.07
	C428.45,180.71,429.88,180.73,431.32,180.76 M426.37,212.41c5.59,1.37,11.96,2.8,17.94,4.54c0.41-1.6,1.48-7.01,1.69-8.65
	c-5.65-1.32-11.84-2.35-17.73-3.41C428,206.24,426.77,211.24,426.37,212.41 M425.06,215.37c-0.85,1.44-2.74,4.25-3.69,5.34
	c5.67,1.79,12.33,4.08,18.63,6.38c1.06-1.69,2.33-5.21,3.07-7C437.25,218.4,431.22,216.81,425.06,215.37 M396.56,214.27
	c6,1.54,13.52,3.06,22.07,5.71c0.76-1.23,2.72-4.05,3.28-5.34c-7.48-1.68-15.15-3.12-22.92-4.25
	C398.61,211,396.95,213.7,396.56,214.27 M396.82,205.69c0.1-0.17,0.95-1.85,1.05-2.03c0.15-0.28,0.91-2.42,1.05-2.69
	c-2.62-0.18-4.97-0.26-7.6-0.35c-0.12,0.18-2.83,4.38-2.97,4.54C390.65,205.52,394.08,205.2,396.82,205.69 M402.06,191.62
	c-3.55,0.18-7.36,1.06-10.92,1.38c0.07,0.14-0.32,2.35-0.27,2.49c2.36,0.24,5.74,0.62,9.89,1.15
	C401,195.86,401.91,192.38,402.06,191.62 M401.78,188.84c-0.03-0.5-0.46-3.58-0.53-4.07c-4.4,0.38-10.12,0.38-14.39,1.7
	c-1,0.31-1.4,1.31-1.46,2.59c-0.03,0.07-0.08,0.14-0.11,0.21C389.92,189,395.49,188.98,401.78,188.84 M383.02,195.88
	c-2.55,0.3-5.1,0.64-7.64,1.03c-0.74,1.35,6.92,4.85,8.68,5.09c2.37-0.71,3.68-1.88,3.53-3.16
	C387.48,197.86,384.62,196.07,383.02,195.88 M386.16,211.89c1.61,0.36,2.94,0.96,5.42,1.57c0.29-0.41,2.3-3.27,2.6-3.71
	c-2.42-0.31-4.84-0.57-7.27-0.81C386.98,209.15,386.1,211.66,386.16,211.89 M447.27,227.89c0.3-3.21-0.21-5.47-0.21-5.47
	c-0.93,1.64-2.04,3-3.19,4.17C445,227.01,446.14,227.45,447.27,227.89 M140.15,74.82c0,0-1.12-8.38,2.02-12.11
	c0,0-2.35,8.01,2.37,14.06c5.66,7.25-4.46,0.18-3.84,6.65c0.62,6.47,9.91,4.18,6.97,10.11c-2.93,5.93-1.37,8.23,8.42,11.91
	c0,0-2.9,2.49-8.49,1.06c-1.82-0.46-2.29,0.69-2.64,2.63l19.35,13.73c1.29-1.9,2.5-3.91,3.96-6.59c-2.37-0.03-5.08,0.65-8.21,1.1
	c1.84-1.57,3.94-3.07,6.41-4.41c17.97-9.74-12.05-5.57-13.61-18.71c0,0,4.69,6.91,11.42,3.86c0.35-0.16,0.64-0.34,0.86-0.52
	c-2.31-4.17-8.46-12.99-20.09-14.86c0,0,3.12-1.34,7.6,0.38c-0.43-0.6-0.78-1.2-1.03-1.81c-2.87-7.04-11.56-24.02-5.98-46.93
	c0,0-2.05,16.05,17.33,34.56c19.38,18.51,21.05,27.5,15.94,36.81c0,0,13.78-3.79-1.92-26.02c0,0,14.15,10.48,11.49,23.28
	c-14.34,20.19-4.98,37.82-4.98,37.82c2.4,11.31,2.11,21.02-5.85,30.98c-2.67,3.33-5.92,9.83-7.81,14.31
	c4.33-0.38,9.36-0.99,13.54-1.22c-0.65-3.68,0.2-10.88,6.15-16.18c9.38-8.35,1.77-15.32,6.58-26.56l-1.55-1.45
	c0.37-1.05,0.75-2.13,1.18-3.23l1.16,3.01c1.02-1.97,2.43-4.06,4.38-6.31c0,0-10.75,21.68,11.09,36.58c0,0-0.34,1.36-5.71,1.02
	c-4.6-0.29-8.68,5.56-4.94,12.08c6.97-0.11,11.92,0.1,17.73,0.26c4.76-6.46,9.75-11.36,12.93-14.3
	c-22.69-3.96-25.22-19.83-25.22-19.83c10.22,13.14,23.75,14.37,29.64,14.21c0.98-2.05,1.63-4.59,1.88-8.09
	c0.16-2.24,0.63-4.23,1.31-5.99c-0.32-0.71-0.63-1.43-0.92-2.14c-6.25-1.58-17.46-6.03-21.48-18.11c-3.12-2.47-6.48-3.24-6.68,4.69
	c-0.36,14.98,21.19,21.92,21.19,21.92c-26.98-3.53-28.55-25.98-28.53-31.35c-6.77-6.33-6.42-19.61-6.42-19.61
	c12.48,12.73,26.88,11.82,42.04,7.45c-3.11-2.41-6.69-4.8-17.78-3.54c0,0,26.24-10.07,43.08,10.38c5.81,6.14,8.72,11.86,10.09,16.51
	c0.31,1.05,1.38,1.95,2.58,1.17c1.2-0.78,5.22-5.02,5.26-5.01c-0.21-0.29-0.43-0.54-0.63-0.85c0,0,21.93,13.15,34.35-11.33
	c0,0-0.08,7.1-7.02,13.51c-5.19,4.79-16.24,6.57-24.8,0.99c-3.56,4.57-6.21,9.2-6.97,16.52c6.56,3.22,11.05,10.28,12.32,13.06
	c0.35,0.76-0.3,0.95-0.3,0.95c-15.34-17.54-36.72-11.23-36.72-11.23c0.03-0.42,0.63-0.61,1.04-0.77c5.33-2.97,16.2-2.31,15.99-6.74
	c-3.85-1.91-10.35-3.14-17.85,3.67c-12.06,10.96-0.37,17.54-14.62,27.04c-2.47,1.64-6.4,5-8.68,6.93
	c5.77,0.71,19.12,2.68,25.42,4.25c-0.37,1.15-4.89,1.59-5.59,2.36c1.7,0.12,40.52,25.07,40.52,25.07l0.61,2.21l-30.36-18.13
	c-0.62,1.35-0.84,3.72-1.03,5.81c-0.01,0.14-0.05,0.27-0.07,0.4l19.58,13.63l0.52,2.01l-21.91-11.71c-7.27-2.21-9.01,0.05-9.25,0.06
	c0.48,0.98,10.47,12.09,10.77,13.16c0.06,0.22-0.66,0.98-0.87,0.76c-2.22-2.21-7.91-6.33-9.55-7.57c-3.8-0.91-5.37,1.6-6.23,1.75
	c5.08,5.45,11.53,7.62,13.61,8.19c0.24,0.05,0.44,0.13,0.69,0.18c4.75,0.97,9.19,2.36,13.53,3.77c-7.36-5.38-9.16-12.22-9.16-12.22
	c11.31,12.27,23.66,16.27,31.9,17.47c0.65,0.03,1.29,0.06,1.95,0.06c6.57-0.01,13.79-1.49,22.35-5.67c1.84-3.05,3.27-6.1-0.46-10.44
	c0,0-10.71-0.31-15.83-15.3c-4.25-12.44-20.33-7.5-20.64-21.38c-0.27-0.6-0.53-1.32-0.57-1.81c-0.58-2.53,0.69-4.45,1.47-5.35
	c0.29-1.24,3.64-7.62,4.09-9.05c0,0,0.9-1.04,0.84,0.13c-0.02,0.48-1.59,6.62-1.6,7.26c4.72-1.9,11.44-2.25,15.28-1.74
	c9.8,0.94,18.47,8.28,25.33,5.69c4.97-1.88,9.98-3.48,13.83-3.84c0.21-3.34-0.16-13.29-9.45-27c0,0,10.87,8.85,12.97,26.99
	c3.93,0.36,7.56,2.05,10.32,5.62c5.28,6.83-0.08,11.99-1.86,13.26c-0.32,0.22-0.7-0.1-0.7-0.1c2.2-2.55,5.57-8.25-1.8-13.1
	c-8.38-5.52-16.47,4.34-24.88,5.07c-8.4,0.73-13.84-5.77-22.78-6.91c-8.25-1.19-17.19-2.77-17.34,1.61
	c0.83,4.87,3.52,10.2,11.62,11.15c13.43,1.56,14.85,4.42,15.04,10.76c0.03,1.08-0.79,3.23-1.92,1.66c0,0-1.42-8.04-3.25-4.38
	c-1.83,3.65,4.56,15.82,10.41,14.72c5.85-1.1,7.77-12,7.34-20.57c0,0,2.23-0.68,3.23,1.24c1.34,2.57,0.35,8.39-0.52,14.11
	c-1.14,7.55,4.64,7.67,8.47-0.05c5.12-10.33-5.12-17.44,8.71-21.14c0,0,0.16,0.39-0.28,0.84c-0.92,0.91-2.73,3.72-2.96,5.26
	c-0.7,4.72,6.79,8.65,9.78,0.46c0,0,2.25,0.09-2.5,5.94c-4.75,5.84-8.79,2.85-9.89,9.43c-0.93,5.54-3.68,8.21-10.1,10.43
	c-0.72,0.94-1.38,2.07-1.96,3.45c-1.23,2.95-1.41,5.17-1.14,6.86c2.42,1.93,15.01,10.07,39.95-5.58c0,0,0.54,0.4-0.54,1.35
	c-1.34,1.18-4.57,3.08-7.13,4.8c9.72-2.78,17.28-4,23.54-6.66c3.71-1.59,7.06-3.64,10.34-6.91c-0.88-0.15-4.44-1.27-7.7-0.01
	c-2.61,1.57-7.4,5.11-9.83,6.73c-0.71,0.47-0.92,0.48-1.41,0.37c0-1.05,7.16-7.01,9.77-9.4c0.46-1.76,0.5-4.33,0.27-6.19
	c-0.23-0.01-0.22-6.11-5.79-0.29l-13.2,13.02l-1.38,0.26c0,0,12.58-15.34,12.6-15.31c3.07-3.2,2.78-6.81-0.03-6.86
	c-8.59,4.65-16.28,10.42-23.92,16.24l-1.22-0.44c0,0,20.55-18.28,26.64-22.27c0.91-0.6,12.23-5.94,11.33-10.49
	c3.31-0.29,8.59-0.69,15.33-1c-4.08-8.68-13.62-14.55-19.28-18.55c-5.01-3.61-6.4-7.09-9.23-10.23c-2.84-3.2-7.33-6.46-19.42-11.34
	l-3.1-0.09c-1.52,0.79-1.83,3.93-0.39,6.02c6.54-2.52,14.55,0.88,17.33,2.54c0.68,0.4,0.82,1.28,0.82,1.28
	c-20.82-10.14-27.41,10.41-27.41,10.41c-0.15-0.48-0.43-0.75-0.36-1.08c1.06-5.24,3.01-9.1,5.24-11.27
	c1.53-1.27,0.48-10.52-3.83-12.56c-1.75,0.47-3.19,0.28-5.38-0.83c-3.09-1.56-4.96-6.61-5.47-9.36c-0.17-0.92,0.29-1.44,0.29-1.44
	c2.14,6.48,7.57,9.18,10.94,8.45c4.89-1.07,11.78-15.76,6.89-33.3c0,0,6.22,3.65,6.22,7.31c0,0,12.42-16.08,40.55-15.71
	c0,0-22.28,2.92-33.61,17.9c-8.04,10.63-8.86,19.23-15.5,24.47c-0.27,0.21-0.55,0.41-0.83,0.62c-0.72,1.96-0.32,3.43,3.62,3.82
	c0,0,3.78-1.69,3.79-1.69c0.05-0.02,0.15-0.08,0.3-0.17c0.29-0.18,0.75-0.5,1.36-1c1.22-1.02,3.01-2.79,5.1-5.75
	c1.09-1.53,2.5-3.49,4.27-5.48c4.01-5.56,13.75-15.61,33.39-13.7c-0.18,0.87-0.38,1.06-1.9,1.7c-1.51,0.63-4.49,1.17-7.7,2.97
	c5.88-0.61,7.29-0.1,16.12,1.35c5.71,0.93,20.9-12.26,20.9-12.26l-6.24,16.13c-0.2,0.07-16.62,28.46-41.32,30.87
	c1.72,2.21,2.85,4.05,4.69,5.86c4.87-0.71,14.8-3.96,27.07-17.76c0,0-5.07,16.12-20.66,22.59c5.91,4.11,13.92,10.11,17.36,19.09
	c4.44-0.17,9.36-0.29,14.67-0.32c1.93-5.07-1.68-8.25-5.14-8.01c-4.36,0.3-4.63-0.91-4.63-0.91c17.71-13.22,8.99-32.44,8.99-32.44
	c11.45,14.42,0.27,21.63,9.54,30.64c4.08,3.97,5.12,7.8,5.04,10.86c2.37,0.06,4.8,0.14,7.27,0.24c-1.65-3.35-3.55-6.43-5.64-9.04
	c-11.7-14.62-4.02-35.44-4.02-35.44c-1.13,10.62-0.3,18.58,2.31,24.84c7.37-2.9,10.4-7.44,11.47-12.73
	c-0.36-2.8-0.88-6.31-1.48-9.43c1.89,2.03,4.12,3.82,6.25,4.97l8.76-6.21c0-0.22,4.52-3.16,4.54-3.38
	c-5.12-3.59-14.61-6.25-19.97-3.33c-0.35,1.29-0.24,4.56,0.42,7.95c-4.07-4.36-9.53-8.03-10.67-10.09c-6.5-7.79,4-27.43,4-27.43
	c-6,26.54,22.7,19.33,22.7,19.33c-2.2-1.76-4.88-3.63-7.44-5.87c-0.53-0.07-0.92-0.44-1.2-1.07c-6.54-6.16-11.54-15.19-4.04-32.18
	c10.83-24.52,5.39-36.26,5.39-36.26c3.38,4.61,5.52,9.35,6.86,13.99c1.98-13.37-3.83-31.14-12.54-36.29
	c-10.81-6.4-6.38,8.47-13.18,20.35c-2.26,3.95-4.68,7.72-7.93,11.01c-2.81,2.83-4.84,4.79-6.4,8.57c-1.51,3.67-2.51,7.49-2.92,11.45
	c-0.09,0.87-1.29,11.32-0.34,11.66c-0.03-0.01-0.06-0.02-0.09-0.02c-1.29-4.58-2.46-7.69-2.48-10.88c-3.03,0.74-4.92,8.06-8.05,5.69
	c3.02-0.26,4.13-15.05,7.25-14.59c0.39-0.77,0.67-1.41,0.87-1.98c-4,2.43-9.73,7.2-12.31,5.79c2.95-3.15,6.49-6.42,10.04-9.67
	c-6.07,1.5-15.42,4.76-20.01,9.67c0,0,7.11-10.31,17.4-14.78c-5.06-7.85-14.95-11.73-24.8-15.07c-7.69-2.6-16.63-4.08-26.22-4.97
	l-4.3,7.02c11.24-0.58,21.4,2.05,21.4,2.05c-27.17-0.37-25.38,5.12-41.82,8.77c-16.45,3.65-22.17-4.75-22.17-4.75
	s12.87,3.65,27.88-2.92c2.16-0.95,4.46-1.62,6.79-2.12v-8.89c-0.19-0.01-0.37-0.02-0.56-0.03c-1.56-0.08-3.02-0.11-4.39-0.11
	c-8.3,0.01-13.66,1.2-19.41,2.46c-5.74,1.26-11.88,2.6-20.89,2.59c-7.08,0-15.97-0.82-28-3c0,0-2.91,6.32,0,7.29
	c2.91,0.97,2.79,0.86,4.11,1.44c15.02,6.58,27.89,2.92,27.89,2.92s-5.72,8.41-22.17,4.75c-16.44-3.65-14.66-9.13-41.83-8.77
	c0,0,0.96-0.92,3.26-1.15c5.5-0.53,15.68-0.69,17.38-0.94c2.42-0.35-1.42-7.48-1.42-7.48c-2.3-0.2-4.54-0.3-6.67-0.3
	c-27.87,0-42.23,15.61-46.75,21.57c9.15,3.39,13.19,11.06,14.4,13.87c0.41,0.28,0.83,0.55,1.21,0.84c-1.09,1.6-2.22,3.19-3.4,4.75
	c-4.69-2.81-9.18-4.19-11.5-4.75c2.83,3.2,6.71,8.44,7.99,12.69c-0.56,0.65-0.71,0.1-1.28,0.74c-3.51-5.54-13.14-13.13-24.85-19.16
	c-11.25-5.8-17.82-11.55-28.02-20.69c-10.2-9.15-10.67-24.64-18.92-15.17C132.53,38.57,130.26,63.08,140.15,74.82 M379.67,144.44
	c-3.7-6.13-5.65-12.61-5.64-19.47c-8.92,3.01-14.35,11.1-15.83,13.58c4.4,1.99,7.73,3.85,10.3,5.6c1.94,0.55,4.38,0.96,7.31,0.9
	C377.18,144.92,378.45,144.7,379.67,144.44 M389.37,125.02c-2.69,0.3-4.79,2.36-4.79,4.89c0,2.68,2.36,4.85,5.29,4.93
	c-0.21,2.06-0.62,4.05-1.2,5.98c7.83-4.97,10.74-12.7,11.47-15.06c-2.54-1.5-6.66-2.14-11.15-2.26
	C389.12,124,389.27,124.52,389.37,125.02 M163.06,184.47c0.08-0.01,0.17-0.02,0.25-0.03c0.69-1.92,2.82-6.75,7.86-11.99l-9.33,2.22
	C162.72,177.2,163.3,180.43,163.06,184.47 M158.59,131.72l-10.68-2.22c-4.86,1.04-11.1,19.99-5.91,30.27
	c2.79,5.36,31.79,7.57,31.79,7.57c10.23-23.88-4.63-31.99-4.63-31.99c-4.37,1.75-9.65,8.09-7.4,20.09
	C161.76,155.44,155.38,145.29,158.59,131.72 M188.77,196.23c-7.68,0.52-15.08,1.23-22.05,2.07c-0.52,4.08,0.13,12.34,0.7,16.42
	c7.45-2.09,14.54-4.5,21.49-6.04C188.72,205.97,188.34,199.48,188.77,196.23 M167.79,215.77c0.52,1.86,1.28,4.06,2.1,5.84
	c7.03-2.38,13.9-4.85,20.64-6.71c-0.54-1.37-0.99-2.85-1.35-4.43C181.79,212.07,174.63,213.88,167.79,215.77 M168.71,189.17
	c-0.39,1.25-1.26,4.96-1.56,6.24c7.45-0.95,14.77-1.63,21.89-2.1c0.18-1.09,0.91-4.55,1.04-5.52c-1.46,0.06-2.91,0.12-4.35,0.19
	c0.03,0.13,0.05,0.26,0.09,0.39c0,0-0.11-0.15-0.27-0.38C179.79,188.26,174.15,188.67,168.71,189.17 M190.87,184.46
	c0.62-12.45-5.2-7.52-5.68,0.18C187.03,184.54,189.09,184.53,190.87,184.46 M165.06,228.37c0.26,2.12,0.89,4.58,2.25,7.09
	c3.04-1.32,6.06-2.59,9.06-3.79c-1.63-0.64-4.58-2.05-7.35-4.65C167.69,227.46,166.37,227.91,165.06,228.37 M167.96,237.04
	c1.48,1.55,5.87,5.8,8.21,7.12c2.21,1.25,4.59,2.47,7.09,3.78l10.57-20.17C184.8,230.7,176.06,233.59,167.96,237.04 M196.45,224.19
	c-1.22-1.27-3.66-5.95-4.74-7.64c-7.15,1.92-14.48,4.08-21.02,6.23c1.29,1.95,4.51,6.9,6.27,8.65
	C183.66,228.74,190.21,226.34,196.45,224.19 M194.67,195.89c-0.63,2.35-0.98,8.26-0.97,11.28c4.5-0.94,7.45-1.95,11.53-2.68
	c-0.08-1.58,0.17-6.78-0.35-8.99C201.12,195.58,198.32,195.7,194.67,195.89 M203.71,192.15c-0.89-0.98-2.34-3.51-3.79-3.44
	c-0.99,0.04-3.4,2.83-4.25,3.88C197.79,192.49,201.66,192.22,203.71,192.15 M245.45,203.48c2.36,0.06,5.26,0.55,8.52,1.13
	c0.15,0.03,3.03-5.41,2.85-5.82c-2.54-0.39-9.73-4.01-12.29-4.31C244.73,195.33,246.05,202.56,245.45,203.48 M243.8,209.79
	c-2.06,0.2-6.42,0.88-8.47,1.13c0.18,0.43-1.33,2.57-1.13,2.97c2.14-0.51,8.96-1.95,10.39-2.27
	C244.65,211.4,243.72,210,243.8,209.79 M239.13,223.49c-0.01-0.01-0.02-0.02-0.03-0.03c-0.22,0.6-0.45,1.3-0.69,2.07
	c-0.94,3.14-1.88,7.57-1.88,12.71c0,5.35,1.01,11.45,4.1,17.73c9.36,19.08,14.41,23.68,18.83,47.71
	c2.89,16.13,6.32,32.4,12.26,38.59c1.96,2.06,3.9,3.04,6.37,3.06c1.01,0,2.13-0.18,3.38-0.58c0.17-0.06,0.32-0.11,0.49-0.17
	c-15.54-3.41-15.29-36.46-18.08-49.64c-3.01-14.25-4.66-21.65-17.27-37.26C234.94,243.23,238.53,225.99,239.13,223.49
	 M292.58,251.99c3.97-7.51-1.5-9.7-8.71-8.4c0.21-0.03-4.98,9.07,4.57,22.91C288.4,266.49,288.43,259.43,292.58,251.99
	 M293.19,303.17c8.62,4.72,29.05,7.67,41.93-5.48c12.88-13.15,8.74-29.25-1.65-22.75c-9.76,6.11-9.82-0.15-13.25,1.22
	c-6.4,2.55-1.49,11.88-5.33,17.82c-0.39,0.61-2.01,1.22-3.23,0.14c-0.35-8.7,0.41-15.8-12.69-16.85c-3.49-0.28-6.64,2.45-12.23,0
	C273.72,271.58,281.62,296.84,293.19,303.17 M305.08,253.44c3.49-7.74-2.13-9.58-9.24-7.82c0.21-0.04-4.39,9.38,6.04,22.57
	C301.84,268.19,301.42,261.13,305.08,253.44 M317.67,253.82c2.99-7.96-2.74-9.43-9.73-7.22c0.2-0.05-3.79,9.64,7.48,22.14
	C315.38,268.75,314.5,261.73,317.67,253.82 M324.05,267.92c10.41-13.2,5.82-22.62,6.03-22.58c-7.1-1.76-12.71,0.08-9.23,7.82
	C324.51,260.86,324.09,267.92,324.05,267.92 M337.57,267.05c9.58-13.84,4.38-22.95,4.59-22.91c-7.23-1.3-12.71,0.89-8.74,8.4
	C337.58,259.97,337.61,267.04,337.57,267.05 M336.12,301.67c0,0-1.39,16.39-4.7,25.41c-3.12,8.51,2,10.79,8.71,8.71
	c0.4-0.12,1.88-0.99,2.07-1.85C343.16,329.33,345.05,313.77,336.12,301.67 M322.83,328.7c-2.43,5.04,0.92,6.52,5.34,5.64
	c-0.13,0.02,3.05-6.1-2.8-15.39C325.4,318.95,325.38,323.7,322.83,328.7 M315.17,327.72c-2.14,5.2,1.3,6.44,5.66,5.25
	c-0.12,0.03,2.7-6.3-3.7-15.17C317.16,317.81,317.42,322.56,315.17,327.72 M307.45,327.47c-1.84,5.34,1.68,6.33,5.97,4.84
	c-0.13,0.03,2.32-6.47-4.59-14.87C308.85,317.45,309.39,322.16,307.45,327.47 M303.54,318c-6.39,8.86-3.57,15.19-3.7,15.16
	c4.36,1.18,7.79-0.05,5.66-5.25C303.25,322.74,303.51,318,303.54,318 M295.25,318.58c-5.88,9.29-2.69,15.41-2.81,15.39
	c4.43,0.88,7.79-0.6,5.35-5.64C295.24,323.34,295.22,318.59,295.25,318.58 M289.49,327.45c-3.01-9.02-4.03-26.41-4.03-26.41
	c-8.08,12.04-6.9,28.25-6.05,33.19c0.16,0.95,1.75,2.27,2.1,2.39C286.28,338.7,292.35,336,289.49,327.45 M279.99,246.16
	c-0.98-5.8-6.99-7.87-15.02-5.57c-0.64,0.18-3.6,2.87-3.61,4.08c-0.03,9.38,1.95,38.17,14.39,56.2c0.64,0.94,1.38,0.67,1.07-0.46
	c-3.37-12.6-4.61-33.7,1.76-46.02C279.94,251,280.34,248.28,279.99,246.16 M242.32,202.28c-1.49,0.04-6.81,0.53-8.3,0.61
	c0.04,0.35,0.7,1.91,0.75,2.25c1.67-0.29,5.62-0.7,7.11-0.95C241.75,204.05,241.96,202.29,242.32,202.28 M244.24,191.32
	c-0.03-0.08-0.09-0.72-0.13-0.79c-2.71-0.41-4.98-0.71-7.69-1.04c-0.08,0.3-0.75,1.75-0.82,2.05
	C238.69,191.66,241.66,191.67,244.24,191.32 M234.66,196.2c-0.05,0.41-0.6,2.56-0.63,2.96c1.58-0.18,6.77-1.02,7.91-1.14
	c0.06-0.15-0.32-1.82-0.25-1.96C240.29,195.94,236.05,196.3,234.66,196.2 M234.94,189.31c-3.52-0.4-7.04-0.73-10.57-0.98
	c-0.45,0.55-2.79,3.69-3.2,4.26c4.03,0.05,8.91-0.21,12.4-0.09C233.78,192.15,234.76,189.61,234.94,189.31 M220.03,195.5
	c-0.49,1.29-1.19,5.37-1.38,6.74c4.22-0.38,8.37-0.7,11.79-1.12c0.2-0.62,1.06-4.52,1.28-5.11
	C227.81,195.76,223.91,195.59,220.03,195.5 M220.77,210.25c0.5,0.82,2.63,4.57,3.26,5.42c2.22-0.62,4.3-1.17,6.24-1.67
	c-0.17-0.69,0.05-4.7-0.07-5.38C227.7,209,223.26,209.82,220.77,210.25 M229.52,206.06c0.03-0.56,0.51-2.19,0.57-2.74
	c-3.51,0.27-7.92,0.93-11.01,1.75c0.17,0.82,0.45,2.01,0.73,2.85C223.25,207.23,226.49,206.61,229.52,206.06 M217.6,211.19
	c-7.9,1.45-14,3.22-21.49,5.15c0.7,1.53,2.69,5.26,3.67,6.72c8.52-2.87,15.91-5.06,22.67-6.95
	C221.64,215.36,218.44,212.12,217.6,211.19 M213.73,195.42c-2.06-0.01-4.11,0.01-6.14,0.04c0.06,1.71-0.89,6.53-1.31,8.8
	c2.24-0.4,6.02-1.05,8.09-1.4C213.79,201.44,213.44,197.13,213.73,195.42 M214.67,192.1c0.32-0.69,1.46-3.51,1.87-4.23
	c-3.76-0.17-7.5-0.28-11.21-0.3c0.43,0.65,1.31,3.36,1.7,4.4C210.06,191.9,211.81,192.12,214.67,192.1 M194.13,209.43
	c0.21,1.41,0.52,2.83,0.91,4.26c7.52-1.98,14.69-3.65,21.29-5.04c-0.5-0.87-0.95-1.77-1.35-2.71
	C207.92,206.87,200.94,208.06,194.13,209.43 M195.85,255.2c1.84,1.21,3.69,2.51,5.57,3.98l22.8-9.6c0.72-10.27,5.08-17.93,6.4-21.49
	c1.74-4.67,0.33-9.32,0.17-10.96c-9.91,2.06-19.89,5.1-29.29,8.09c1.29,1.31,4.2,5.03,5.81,6.15c0,0-3.34-1.92-6.4-3.86
	C200.08,232.06,197.16,247.93,195.85,255.2 M215.33,273c2.43,3.03,5.81,5.92,8.19,9.75l1.98,2.79l15.91-2.33
	c-1.39-3.53-3.17-7.82-5.49-13.36c-4.37-10.37-5.78-19.62-5.78-27.17c0-1.82,0.09-3.53,0.23-5.15c-8.62,20.57,1.36,39.52,1.36,39.52
	c-5.86-9.14-7.67-17.66-7.58-25.03L215.33,273z M253.61,317.27c1.82,11.71,3.13,20.56,5.88,26.82c2.78,6.25,6.61,10.07,14.56,12.73
	c1.82,0.59,3.43,0.82,4.93,0.82c4.08,0.01,7.64-1.82,11.89-3.96c4.21-2.11,9.12-4.43,15.56-4.43c4.29,0,9.2,1.03,14.97,3.62
	c6.65,2.99,12.4,4.38,17.23,4.38c6.49-0.04,11.34-2.36,15.26-7c3.9-4.66,6.74-11.83,8.29-21.31c2.7-16.42,4.44-30.56,7.19-44.63
	c-0.41,0.84-0.83,1.67-1.25,2.5c-10.35,20.21-7,33.73-13.82,49.93c-3.55,8.63-9.83,12.43-16.96,12.31
	c-6.4-0.02-13.45-2.53-21.31-5.66c-4.64-1.86-7.97-2.53-10.7-2.53c-6.47-0.12-10.98,4.21-22.53,8.06c-1.63,0.53-3.21,0.8-4.73,0.8
	c-3.79,0.02-7.08-1.74-9.58-4.45c-2.52-2.72-4.44-6.36-6.07-10.59c-3.24-8.46-5.3-19.4-7.29-30.2
	c-4.36-23.47-8.81-26.91-18.45-46.57c-0.15-0.29-0.29-0.6-0.43-0.89c0.85,3.51,2.04,7.23,3.68,11.14
	C251.65,295.84,250.02,294.12,253.61,317.27 M347.04,297.91c-0.23,0.8,1,1.24,1.48,0.48c13.63-21.2,15.65-44.29,14.59-54.46
	c-0.12-1.11-2.75-2.91-3.41-3.11c-9.86-3.01-17.35,0.43-12.74,13.02C352.98,267.22,351.67,286.08,347.04,297.91 M382.05,227.32
	c0-0.19-0.02-0.37-0.03-0.56c-0.73,0.36-1.46,0.7-2.2,1.02c-0.83,0.34-1.68,0.66-2.53,0.96c-0.3,15.25-8.05,35.49-14.5,47.85
	c-6.58,12.6-12.88,22.74-12.06,47.68c0.17,5.03-0.28,9.11-1.24,12.35c0.26-0.51,0.52-1.04,0.78-1.61
	c6.33-14.49,3.1-28.75,13.95-50.19C373.95,265.76,382.09,242.45,382.05,227.32 M250.77,125.27c-0.58-0.19-1.2-0.31-1.85-0.31
	c-3.01,0-5.46,2.21-5.46,4.95c0,2.73,2.44,4.95,5.46,4.95c0.49,0,0.96-0.08,1.42-0.19c-0.18,1.65-0.45,3.28-0.74,4.91
	c3.38-1.86,6.24-2.47,6.24-2.47s5.65-7.88-0.41-14.55c-1.49-0.61-3.09-1.01-4.8-1.29C250.71,122.61,250.75,123.94,250.77,125.27
	 M263.14,139.3c0,0,4.77,1.58,7.78,5.1c1.88-0.08,2.04-1.61,1.92-3.36c-3.44-5.65-5.76-8.99-8.9-12.34
	C265.2,131.9,266.01,136.23,263.14,139.3 M234.29,122.42c-2.39,0.51-4.91,1.12-7.68,1.9c-1.64,0.46-3.18,0.83-4.66,1.13
	c1.09,3.57,4.55,11.3,14.22,14.55C234.47,134.26,233.66,128.42,234.29,122.42 M129.96,187.13c0,0.9,0.55,4.32,0.74,5.28
	c9.61-1.14,18.32-3.36,28.03-4.54c0.71-3.47,1.09-8.05,0.54-12.58c0,0-21.94-1.22-25.43,2.53
	C130.35,181.58,129.95,185.33,129.96,187.13 M129.65,202.45c8.68-2.06,16.52-3.44,25.24-4.89c0.66-1.49,2.51-5.85,3.02-7.25
	c-10,1.18-19.17,2.61-27.09,4.04c0.01,0.22,0.04,0.45,0.04,0.66C130.82,196.85,129.99,200.74,129.65,202.45 M156.39,219.13
	c-0.75,0.23-1.48,0.46-2.23,0.7c-0.84,1.87-1.24,6.91-0.58,9.96c0.85-0.34,1.67-0.54,2.53-0.87
	C156.06,226.69,156.08,221.65,156.39,219.13 M130.5,213.94c2.26-1.35,3.47-3.57,6.12-4.34c2.25-0.65,4.69-0.26,6.99-0.4
	c2.31-0.14,4.62-0.24,6.93-0.37c0.36-2.24,0.94-4.46,1.88-6.33c0.42-0.84,0.8-1.62,1.19-2.42c-9.38,1.42-17.64,2.96-24.35,4.37
	c-0.13,0.48-0.48,3.03-0.51,5.39C128.72,212.44,129.07,214.8,130.5,213.94 M150.07,215.22l-15.87,3.16
	c-0.09,0.22-0.2,0.47-0.33,0.79c-0.3,0.75-1.98,4.25-2.38,5.47c5.58-2.29,13.03-4.2,18.69-6.11
	C150.11,217.59,150.07,216.46,150.07,215.22 M130.09,238.02c7.48-3.96,15.29-7.5,23.18-10.68c-0.52-0.84-1.8-3.09-2.71-6.36
	c-6.98,2.28-13.09,3.31-18.91,5.49C131,229.5,130.14,234.25,130.09,238.02 M137.16,252.94c-0.44,0.24-3.32,2.04-3.76,2.27
	c0.21,0.39,1.56,2.64,1.8,3.04C135.39,257.63,136.9,253.58,137.16,252.94 M141.07,248.3l10.73-12.88l-3.86,9.21
	c3.59-1.85,7.21-3.63,10.83-5.32c-1.05-2.36-1.82-4.98-2.28-7.86c-10.25,0.7-19.08,5.66-26.15,8.82c0.29,3.58,1,9.15,2.44,12.84
	C135.51,251.46,138.28,249.84,141.07,248.3 M180.41,260.33c-10.64-5.51-19.95-4.11-19.95-4.11c3.51-2.01,6.73-3.08,9.69-3.48
	c-3.42-2.44-7.37-7.79-9.76-11.33c-5.82,2.64-9.9,4.72-14.94,7.25l-1,4.28c0.01,0-0.02,0.06-0.11,0.33c-0.1,0.27-0.22,0.7-0.36,1.27
	c-0.27,1.13-0.54,2.81-0.54,4.87c0.01,2.8,0.49,6.28,2.21,10.17c0.22-0.34,0.46-0.67,0.72-0.99c0.86-1.01,2.34-2.07,4.22-2.06
	c0.26,0,0.72-0.01,1.29-0.01c2.85-0.05,8.5,0.33,15,3.51L180.41,260.33z M189.51,292.93l16.21-23.28c-1.62-1.04-3.3-2.02-5.05-2.84
	c-3.14-1.47-6.82-2.84-10.69-4.34c4.57,6.09,6.67,12.74,6.67,12.74c-3.73-5.55-7.85-9.51-11.93-12.34L180,280.29
	c1.75,2.01,3.48,4.28,5.16,6.9C186.51,289.32,187.98,291.21,189.51,292.93 M249.01,316.21c-2.23-14.43-2.25-18.17-5.36-27.02
	l-11.98,11.38c0,0-9.56-17.95-20.95-27.27c-1.77,7.32-5.79,23.85-7.56,30.28c3.5,1.83,6.77,3.01,9.35,3.76
	c-0.33-3.58-5.08-9.09-5.08-9.09c8.35,4.17,12.65,8.8,14.87,12.44c-2-9.63-8.53-15.92-10.32-17.44c-0.3-0.25-0.41-0.34-0.41-0.34
	s13.61,2.67,17.01,24.15c-0.02,1.37-0.11,2.78-0.31,4.23c-0.42,3.06-0.61,5.77-0.61,8.22c0,1.48,1.91,3.2,4.35,1.62L249.01,316.21z
	 M382.7,353.99c0-0.76-0.05-1.49-0.15-2.15c-0.42-2.63-1.13-8.65-1.14-16.01c0-0.96-14.74-7.14-14.9-6.18
	c-1.64,9.95-4.62,17.85-9.25,23.41c-4.62,5.57-11.03,8.6-18.63,8.57c-5.67,0-11.99-1.6-19.03-4.75c-5.34-2.4-9.59-3.24-13.17-3.24
	c-5.37,0-9.42,1.87-13.6,3.96c-4.14,2.06-8.4,4.41-13.85,4.42c-1.97,0-4.07-0.31-6.29-1.04c-8.86-2.83-14.16-7.96-17.22-15.14
	c-1.9-4.4-3.11-9.52-4.18-15.51l-11.59,28.64c4.07,8.52,3.57,16.51,7.62,25c0.69,1.45,2.8,1.93,3.18-0.21
	c0.72-4.04,1.77-9.69,1.77-9.69s0.91-0.12,1.16,0.72c0.92,3.19,2.43,11.55,3.1,12.68c0.86,1.44,1.53,4.59,4.7,5.9
	c3.17,1.31,9.92-4.26,11.09-5.38c1.18-1.12,2.23-2.38,0.59-2.62c-1.7-0.25-3.77-0.14-5.69-0.75c-0.35-0.11-0.84-0.17-0.8-0.88
	c0,0,19.37-0.73,32.16-19c0,0-2.92,17.48-17.36,20.5c-1.78,4.23-6.36,15.15-8.34,20.35c0.59,0.41,1.15,0.88,1.76,1.26
	c5.96,3.67,8.81,8.48,10.02,12.8c1.14-2.6,2.07-5.43,2.31-7.94l0.89-8.77l4.41,7.64c0.07,0.18,2.86,4.84,3.76,10.84
	c2.34-3.51,4.4-7.65,4.54-10.39l0.61-8.63l4.64,7.31c0.03,0.04,1.23,1.94,2.47,4.34c0.21,0.42,0.42,0.87,0.63,1.31
	c1.29-2.54,6.96-26,6.96-26l1.04,18.7c0.01,0.01,0.88,3.38,2.66,7.75c0.53,1.3,1.13,2.69,1.82,4.07c0.04-1.71,0.18-3.33,0.72-4.87
	l2.86-7.85l2.54,7.96c0.01,0,0.35,1.11,1.14,2.97c0.79,1.86,1.99,4.39,3.6,7.03c1.79,2.96,5.67,10.21,8.43,12.64
	c-1.12-3.04-3.67-29.54-3.67-29.54l6.56,8.84c0.01,0,3.93,5.37,4.23,5.85c0.49-4.54,0.33-10.34,2.37-14.67l-2.37-14.51l7.61,14.69
	c0.22-0.93,0.46-1.91,0.73-2.93c1.6-5.92,3.94-12.86,8.01-17.5c0.3-0.34,0.63-1.22,0.3-2.17l-9.36-18.02c0,0-0.95-2.15-2.99-1.35
	c-5.1,2.24-12.13,1.97-21.67-2.16c0,0,28.78,8.5,35.35-21.92c0,0-0.82,11.94-7.74,19.4c-1.64,1.31,0.53,3.08,0.53,3.08l14.74,4.89
	c2.66-1.64,3.07-4.8,3.18-8.22l0.37-9.46l4.95,8.15C382.33,358.25,382.71,356.02,382.7,353.99 M413.3,298.9l-17.3-20.31
	c-6.78,6.93-11.24,14.12-12.51,16.26l-0.06,0.11c-0.21,0.34-1.16-4.55-6.68-9.52c1.63-3.32,2.05-5.38,2.05-5.38s6.17-0.03,9.9,1.74
	c9.58-14.31,20.77-22.12,29.74-27.73l-33.16-14.7c-0.88,5.22-2.39,11.76-4.97,19.74c-6.84,21.15-9.01,39.78-12.58,62.83l13.56-0.51
	c1.75-1.28,1.46-1.89,1.82-3.6c5.51-16.54,15.18-17.39,15.18-17.39c-2.74,2.25-4.86,5.33-6.48,8.88c0.35-0.07,0.72-0.15,1.15-0.25
	c2.12-0.49,5.11-1.35,8.48-2.83C405.16,304.61,409.29,302.25,413.3,298.9 M464.38,260.51c0-3.09-0.62-5.33-0.9-6.15
	c-0.09-0.27-0.12-0.32-0.12-0.32l-7.04-16.83c-0.57-0.24-1.13-0.48-1.7-0.71c-2.33,7.24-6.92,12.45-12.5,16.43
	c2.96,0.4,6.18,1.47,9.69,3.48c0,0-21.19-3.29-36.17,19.01c0,0,2.1-6.65,6.67-12.74c-3.87,1.49-7.55,2.87-10.69,4.33
	c-4.13,1.94-7.91,4.59-11.29,7.5l23.45,12.18c12.15-17.83,26.9-19.17,32.16-19.07c0.57,0,1.03,0.01,1.29,0.01
	c1.88,0,3.36,1.05,4.22,2.07c0.27,0.32,0.5,0.64,0.72,0.97C463.89,266.76,464.38,263.29,464.38,260.51 M477.38,244.67
	c-6.31-3.03-12.53-6.16-19.79-9.2l10.61,15.64c2.32,2.8,3.66,5.69,4.43,8.23C475.1,255.11,476.69,248.89,477.38,244.67
	 M477.75,239.64c0-2.91-0.42-7.96-0.83-10.46c-5.26-2.01-10.21-4.16-16.19-6.17c-0.76,1.58-1.97,4.9-1.97,4.9
	c0.25-1,0.36-1.94,0.38-2.82c-0.95-0.32-1.91-0.63-2.87-0.95c0.07,2.57-0.07,4.95-0.41,7.17c7.22,2.97,14.56,6.26,21.83,9.88
	C477.7,240.66,477.75,240.14,477.75,239.64 M475.76,225.68c-0.65-2.34-1.32-4.22-1.81-5.42c-0.41-1.04-0.65-1.53-0.65-1.53
	l-0.58-1.19c-3.26-1.01-6.63-2.01-10.08-2.98c-0.02,2.19-0.31,4.2-0.74,5.94C466.52,222.11,471.15,223.84,475.76,225.68
	 M480.8,214.72c-0.89-5.32-3.25-11.27-3.89-16.87c-6.35-0.98-13.57-2.14-20.84-2.91c0.95,2.07,2.62,5.41,3.79,7.75
	c1.08,2.16,1.78,4.25,2.22,6.25c2.5,0.69,5,1.41,7.53,2.18l-0.48-0.99l2.9,1.74C474.95,212.77,477.87,213.72,480.8,214.72"/>
</svg>
