<svg xmlns="http://www.w3.org/2000/svg" xmlns:xlink="http://www.w3.org/1999/xlink" version="1.1" baseProfile="tiny" x="0px" y="0px" width="64px" height="64px" viewBox="0 0 64 64" xml:space="preserve">
<g id="Layer_1" display="none">
    <path display="inline" d="M47.729,43.921l9.301,2.658l-7.081-6.851c0.647-1.669,1.085-3.439,1.256-5.294L60.935,32l-9.896-2.477   c-0.269-1.726-0.742-3.381-1.423-4.929l7.413-7.172l-10.011,2.861c-1.029-1.303-2.218-2.466-3.536-3.475l2.875-10.06l-7.253,7.499   c-1.513-0.633-3.126-1.064-4.799-1.309L31.778,2.843l-2.499,9.983c-1.752,0.188-3.427,0.617-5.011,1.23l-7.07-7.309l2.75,9.625   c-1.496,1.062-2.841,2.317-3.992,3.743l-9.431-2.695l6.934,6.707c-0.819,1.738-1.389,3.609-1.675,5.578L2.62,32l9.019,2.256   c0.176,2.103,0.668,4.111,1.448,5.977l-6.56,6.347l8.721-2.492c1.229,1.725,2.726,3.237,4.43,4.49l-2.479,8.675l6.264-6.476   c1.902,0.835,3.956,1.38,6.112,1.58l2.204,8.801l2.226-8.895c2.074-0.27,4.044-0.857,5.866-1.717l6.487,6.706l-2.603-9.107   C45.276,46.938,46.616,45.518,47.729,43.921z"/>
</g>
<g id="Layer_2" display="none">
    <path display="inline" d="M52.704,31.072c-0.234,0-0.464,0.02-0.692,0.035c-2.159-5.087-7.201-8.656-13.076-8.656   c-0.357,0-0.706,0.027-1.055,0.054c-1.871-5.499-7.066-9.46-13.195-9.46c-7.503,0-13.604,5.928-13.917,13.353   c-5.377,1.366-9.361,6.226-9.361,12.028c0,6.861,5.563,12.25,12.425,12.25c1.208,0,2.371-0.676,3.475-0.676h6.465   c1.104,0,2.267,0.502,3.475,0.502c1.207,0,2.371-0.502,3.475-0.502h4.521c1.18,0,2.413,0.502,3.693,0.502   c1.278,0,2.513-0.502,3.692-0.502h6.978c0.977,0,2.016,0.676,3.099,0.676c5.461,0,9.889-4.34,9.889-9.801   C62.593,35.412,58.165,31.072,52.704,31.072z"/>
</g>
<g id="Layer_4" display="none">
    <g display="inline">
        <path d="M26.34,62c-1.938,0-3.51-1.571-3.51-3.51c0-2.696,2.744-4.086,3.51-7.416c0.767,3.33,3.511,4.72,3.511,7.416    C29.851,60.429,28.279,62,26.34,62z"/>
        <path d="M38.896,62c-1.938,0-3.51-1.571-3.51-3.51c0-2.696,2.743-4.086,3.51-7.416c0.766,3.33,3.509,4.72,3.509,7.416    C42.404,60.429,40.834,62,38.896,62z"/>
        <path d="M32.618,49.533c-1.938,0-3.51-1.571-3.51-3.51c0-2.696,2.744-4.085,3.51-7.416c0.766,3.331,3.511,4.72,3.511,7.416    C36.129,47.962,34.557,49.533,32.618,49.533z"/>
        <path d="M20.063,49.533c-1.938,0-3.509-1.571-3.509-3.509c0-2.696,2.743-4.086,3.509-7.417c0.767,3.331,3.51,4.721,3.51,7.417    C23.572,47.962,22.001,49.533,20.063,49.533z"/>
        <path d="M45.173,49.533c-1.938,0-3.509-1.571-3.509-3.509c0-2.696,2.743-4.086,3.509-7.417c0.767,3.331,3.51,4.721,3.51,7.417    C48.683,47.962,47.112,49.533,45.173,49.533z"/>
        <path d="M60.025,27.575c0-5.003-4.056-9.059-9.059-9.059c-0.215,0-0.425,0.017-0.635,0.032c-1.979-4.66-6.597-7.929-11.979-7.929    c-0.326,0-0.646,0.025-0.966,0.049C35.674,5.629,30.915,2,25.298,2c-6.872,0-12.461,5.431-12.747,12.233    c-4.927,1.251-8.576,5.703-8.576,11.02c0,6.263,5.061,11.756,11.315,11.794L15.287,38h35.795l-0.007-0.955    C56.028,36.984,60.025,32.541,60.025,27.575z"/>
    </g>
</g>
<g id="Layer_5" display="none">
    <g display="inline">
        <path fill="none" stroke="#000000" stroke-width="2" stroke-linecap="round" stroke-miterlimit="10" d="M56.374,22.438    c3.043,0,5.626,2.737,5.626,5.78C62,31.263,59.648,34,56.604,34H2"/>
        <path fill="none" stroke="#000000" stroke-width="2" stroke-linecap="round" stroke-miterlimit="10" d="M40.426,21.839    c-0.444-1.556,0.527-3.068,2.162-3.068c1.501,0.273,2.089,1.049,2.43,1.798c1.022,1.842,0.057,3.661-1.033,4.479    c-2.249,1.841-5.323,1.627-7.368-0.417c-2.046-2.454-2.252-5.936-0.208-8.594c3.271-4.09,9.608-3.683,12.675,0.611    c3.681,5.315,1.024,12.225-4.418,14.413C44.107,31.326,41.381,32,39.837,32H9"/>
        <path fill="none" stroke="#000000" stroke-width="2" stroke-linecap="round" stroke-miterlimit="10" d="M34.762,42.639    c-1.521,1.826-1.544,4.235-0.021,6.214c2.436,3.043,7.22,2.649,9.503-0.548c2.74-3.957,0.795-8.539-3.256-10.167    C40.573,37.938,38.576,38,37.427,38H14"/>
        <path fill="none" stroke="#000000" stroke-width="2" stroke-linecap="round" stroke-miterlimit="10" d="M48.607,46.539    c2.795,0,5.176-1.976,5.176-4.77c0-2.795-2.151-4.77-4.945-4.77H11"/>
    </g>
</g>
<g id="Layer_6" display="none">
    <g display="inline">
        <path d="M55.861,31.457c-0.145,0-0.287,0.012-0.43,0.021c-1.34-3.158-4.471-5.373-8.117-5.373c-0.219,0-0.436,0.011-0.65,0.026    c-1.162-3.411-4.391-5.866-8.195-5.866c-3.74,0-6.924,2.374-8.134,5.697c3.468-0.372,6.934-0.267,10.4,0.92    c0.8,0.272,1.448,1.21,1.448,2.009c0,0.8-0.648,1.16-1.448,0.888c-4.144-1.418-8.287-1.291-12.43-0.651    c-1.475,0.733-2.68,1.92-3.433,3.383c5.649-1.195,11.299-2.131,16.95-0.197c0.799,0.272,1.447,1.209,1.447,2.008    c0,0.801-0.648,1.161-1.447,0.889c-5.928-2.03-11.856-0.9-17.784,0.374c-0.008,0.146-0.019,0.29-0.019,0.438    c0,0.637,0.085,1.253,0.231,1.845c6.099-1.317,12.196-2.572,18.294-0.484c0.801,0.272,1.449,1.209,1.449,2.008    c0,0.801-0.648,1.16-1.449,0.889c-5.693-1.949-11.387-0.984-17.081,0.225c1.399,1.954,3.682,3.231,6.269,3.231    c1.535,0,2.962-0.454,4.164-1.228c1.201,0.773,2.627,1.228,4.162,1.228c1.259,0,2.443-0.309,3.493-0.844    c1.142,0.54,2.417,0.844,3.763,0.844c1.729,0,3.34-0.499,4.699-1.359c1.054,0.849,2.391,1.359,3.848,1.359    c3.391,0,6.139-2.749,6.139-6.14C62,34.206,59.252,31.457,55.861,31.457z"/>
        <path d="M29.821,28.558c0.038-0.908,0.217-1.779,0.514-2.595c-8.962,0.959-17.925,5.108-26.887,2.04    C2.648,27.73,2,28.091,2,28.892c0,0.799,0.648,1.735,1.448,2.008c8.286,2.837,16.572-0.495,24.857-1.771    C28.786,28.889,29.291,28.693,29.821,28.558z"/>
        <path d="M24.873,32.511c-6.78,1.434-13.559,3.243-20.338,0.923c-0.8-0.272-1.448,0.087-1.448,0.888    c0,0.799,0.648,1.736,1.448,2.009c6.501,2.225,13.003,0.652,19.504-0.746C24.101,34.48,24.394,33.441,24.873,32.511z"/>
        <path d="M24.251,37.866c-6.331,1.367-12.662,2.803-18.993,0.636C4.458,38.229,3.81,38.59,3.81,39.39    c0,0.799,0.648,1.736,1.448,2.009c6.735,2.305,13.471,0.534,20.206-0.896C24.903,39.72,24.488,38.829,24.251,37.866z"/>
    </g>
</g>
<g id="Layer_7" display="none">
    <g display="inline">
        <circle cx="26.308" cy="58.448" r="3.55"/>
        <circle cx="38.486" cy="58.448" r="3.551"/>
        <circle cx="44.839" cy="44.684" r="3.551"/>
        <circle cx="32.662" cy="44.684" r="3.551"/>
        <circle cx="20.485" cy="44.684" r="3.551"/>
        <path d="M50.795,18.366c-0.212,0-0.42,0.018-0.629,0.032c-1.96-4.618-6.536-7.857-11.871-7.857c-0.322,0-0.64,0.025-0.956,0.049    C35.641,5.597,30.925,2,25.358,2c-6.811,0-12.349,5.382-12.632,12.124c-4.882,1.24-8.499,5.651-8.499,10.918    c0,6.229,5.05,11.144,11.28,11.144c0.34,0,0.675-0.186,1.008-0.186h10.161c0.333,0,0.668,0.051,1.009,0.051    c0.339,0,0.676-0.051,1.007-0.051h8.597c0.333,0,0.667,0.051,1.006,0.051c0.341,0,0.675-0.051,1.008-0.051h10.545    c0.312,0,0.628,0.186,0.947,0.186c4.959,0,8.978-3.951,8.978-8.909S55.754,18.366,50.795,18.366z"/>
    </g>
</g>
<g id="Layer_8" display="none">
    <g display="inline">
        <polygon points="46.289,42.93 45.928,42.578 46.461,42.313 45.646,41.841 45.24,42.073 44.561,41.681 45.557,41.184     44.648,40.658 43.973,40.733 43.668,40 43.031,40 42.559,39.5 43.031,39 43.703,39 43.975,38.624 44.648,39.008 45.557,38.482     44.58,37.996 45.258,37.604 45.646,37.825 46.461,37.352 45.943,37.095 46.289,36.757 46.914,37.121 47.73,36.648 47.727,35.697     46.904,35.219 46.088,35.69 46.092,36.414 45.615,36.547 45.236,35.948 44,36.42 44,36.888 43.736,37.28 44.012,36.169     43.207,36.694 43.257,37.472 42.797,37.523 42.479,38.098 41.546,38.1 41.086,37.287 41.412,36.72 41.285,36.248 42,35.867     42,34.818 41,35.408 41,34.635 42,34.413 42,33.471 41.195,33.789 41.23,33.321 42,32.968 42,32.024 41,31.553 40,32.024     40,32.968 40.475,33.321 40.418,33.789 40,33.471 40,34.413 40,34.635 40,35.408 39,34.818 39,35.867 39.76,36.25 39.615,36.72     39.975,37.287 39.524,38.1 38.594,38.098 38.377,37.523 38,37.472 38,36.694 36.982,36.169 37.367,37.28 37,36.888 37,36.42     35.814,35.95 35.664,36.547 35.096,36.414 35.05,35.69 34.211,35.219 33.377,35.697 33.368,36.648 34.184,37.121 34.805,36.757     35.15,37.094 34.631,37.354 35.449,37.825 35.834,37.603 36.514,37.995 35.537,38.481 36.445,39.008 37.119,38.624 37.391,39     38.063,39 38.533,39.5 38.063,40 37.426,40 37.119,40.733 36.445,40.5 35.537,41.104 36.533,41.642 35.854,42.053 35.449,41.831     34.631,42.305 35.164,42.575 34.803,42.93 34.18,42.565 33.363,43.037 33.367,43.989 34.188,44.467 35.006,43.995 35.002,43.274     35.477,43.14 35.443,43.715 36.258,43.243 36.26,42.799 36.939,42.408 36.873,43.497 37.781,42.971 37.783,42.198 38.283,42.144     38.602,41.591 39.541,41.587 40.006,42.399 39.684,42.958 39.76,43.416 39,43.796 39,44.846 40,44.258 40,45.03 40,45.251     40,46.194 40.346,45.879 40.543,46.364 40,46.718 40,47.661 41,48.134 42,47.661 42,46.718 41.07,46.364 41.357,45.879 42,46.194     42,45.251 41,45.03 41,44.258 42,44.846 42,43.796 41.287,43.418 41.451,42.961 41.107,42.399 41.562,41.587 42.496,41.591     42.656,42.144 43,42.198 43,42.971 44.066,43.497 43.66,42.408 44,42.799 44,43.243 45.236,43.715 45.408,43.14 45.988,43.274     46.036,43.995 46.879,44.467 47.713,43.989 47.724,43.037 46.91,42.565   "/>
        <polygon points="25.877,47.435 25.394,46.966 26.252,46.423 25.471,45.972 24.689,46.51 24.572,46.441 24.88,45.122     24.215,44.737 23.649,46.021 23.333,46 22.605,46 22.184,45 22.605,44 23.382,44 23.643,43.499 24.215,44.309 24.88,43.889     24.572,42.55 24.689,42.473 25.471,43.004 26.252,42.551 25.394,42.009 25.878,41.539 26.473,41.884 27.254,41.436 27.25,40.524     26.465,40.067 25.685,40.519 25.687,41.209 25.038,41.392 24.999,40.379 24.218,40.83 24.292,41.773 24.175,41.843 23.185,40.915     22.521,41.298 22.993,42.223 22.5,42.276 22.124,42.93 21.287,42.932 20.872,42.206 21.245,41.56 21,41.101 22,41.047 22,40.279     21,39.893 21,39.741 22,39.342 22,38.442 21,38.906 21,38.251 22,37.919 22,37.017 21,36.565 20,37.017 20,37.919 20.379,38.251     20.042,38.906 19,38.442 19,39.342 20,39.741 20,39.893 19,40.279 19,41.047 19.891,41.101 19.611,41.56 19.946,42.206     19.512,42.932 18.667,42.93 18.286,42.276 17.788,42.223 18.26,41.298 17.597,40.915 16.605,41.843 16.488,41.773 16.562,40.83     15.782,40.379 15.742,41.392 15.093,41.209 15.095,40.519 14.315,40.067 13.531,40.524 13.526,41.436 14.307,41.884     14.902,41.537 15.386,42.009 14.528,42.549 15.309,43 16.091,42.464 16.208,42.53 15.899,43.853 16.564,44.234 17.137,43.499     17.398,44 18.175,44 18.596,45 18.175,46 17.447,46 17.131,46.021 16.564,44.941 15.899,45.223 16.208,46.493 16.091,46.536     15.309,45.986 14.528,46.43 15.386,46.967 14.902,47.439 14.307,47.088 13.526,47.539 13.531,48.447 14.315,48.904 15.095,48.453     15.093,47.764 15.742,47.58 15.782,48.595 16.562,48.144 16.488,47.198 16.605,47.13 17.595,48.059 18.259,47.674 17.778,46.732     18.291,46.677 18.657,46.043 19.493,46.04 19.908,46.766 19.539,47.404 19.897,47.871 19,47.926 19,48.692 20,49.079 20,49.23     19,49.63 19,50.531 19.949,50.068 20.344,50.721 20,51.056 20,51.957 21,52.408 22,51.957 22,51.056 21.011,50.721 21.153,50.068     22,50.531 22,49.63 21,49.23 21,49.079 22,48.692 22,47.926 20.992,47.871 21.22,47.404 20.861,46.766 21.283,46.04 22.12,46.043     22.488,46.677 23,46.732 22.52,47.674 23.185,48.059 24.175,47.13 24.292,47.198 24.218,48.144 24.999,48.595 25.038,47.58     25.687,47.764 25.685,48.453 26.465,48.904 27.25,48.447 27.254,47.539 26.473,47.088   "/>
        <polygon points="30.896,60.79 31.311,60.364 31.786,61.118 32.182,60.433 31.71,59.744 31.77,59.643 32.931,59.913 33.27,59.329     32.56,58.83 33,58.554 33,57.911 34,57.544 35,57.911 35,58.596 34.9,58.826 33.916,59.329 34.15,59.913 35.259,59.643     35.293,59.744 34.809,60.433 35.196,61.118 35.672,60.364 36.084,60.79 35.777,61.313 36.174,62 36.971,61.995 37.373,61.306     36.977,60.619 36.371,60.624 36.211,60.052 37.1,60.017 36.705,59.331 35.873,59.396 35.813,59.294 36.629,58.423 36.291,57.839     35.479,58.255 35.432,57.82 34.857,57.489 34.855,56.754 35.494,56.389 36.063,56.717 36.467,56.312 36.512,57 37.188,57     37.527,56 37.66,56 38.012,56 38.805,56 38.396,56 38.971,56 39.264,56 40.057,56 40.453,55.5 40.057,55 39.264,55 38.971,55.644     38.396,55.633 38.805,55 38.012,55 37.66,55 37.527,55 37.188,54 36.512,54 36.467,55.154 36.063,55.094 35.494,55.481     34.855,55.147 34.857,54.427 35.432,54.104 35.479,53.671 36.291,54.089 36.629,53.509 35.813,52.637 35.873,52.535 36.705,52.6     37.1,51.914 36.211,51.878 36.371,51.309 36.977,51.311 37.373,50.625 36.971,49.936 36.174,49.931 35.775,50.617 36.082,51.141     35.668,51.564 35.191,50.813 34.797,51.498 35.268,52.186 35.209,52.288 34.047,52.018 33.711,52.602 34.902,53.104 35,53.335     35,54.017 34,54.387 33,54.017 33,53.377 32.56,53.101 33.299,52.602 32.948,52.018 31.777,52.288 31.714,52.186 32.185,51.498     31.787,50.813 31.312,51.564 30.897,51.141 31.202,50.617 30.806,49.931 30.007,49.936 29.604,50.625 30.001,51.311     30.607,51.309 30.769,51.878 29.877,51.914 30.274,52.6 31.104,52.535 31.165,52.637 30.349,53.508 30.687,54.092 31.514,53.668     31.563,54.121 32.12,54.44 32.123,55.177 31.485,55.542 30.923,55.218 30.513,55.16 30.465,54 29.791,54 29.451,55 29.318,55     28.967,55 28.174,55 28.582,55.706 28.007,55.678 27.714,55 26.921,55 26.524,55.5 26.921,56 27.714,56 28.007,55.819     28.582,55.602 28.174,56 28.967,56 29.318,56 29.451,56 29.791,57 30.465,57 30.513,56.306 30.923,56.6 31.485,56.33     32.123,56.726 32.12,57.474 31.563,57.804 31.514,58.256 30.687,57.836 30.349,58.421 31.165,59.292 31.104,59.396 30.274,59.331     29.877,60.017 30.769,60.052 30.607,60.624 30.001,60.619 29.604,61.306 30.007,61.995 30.806,62 31.203,61.313   "/>
        <path d="M49.154,17.377c-0.199,0-0.395,0.016-0.59,0.029c-1.842-4.34-6.143-7.384-11.154-7.384c-0.303,0-0.6,0.016-0.895,0.037    C34.92,5.373,30.482,2,25.255,2c-6.401,0-11.619,5.057-11.882,11.393c-4.581,1.17-7.438,5.312-7.438,10.257    C5.935,29.479,10,34.207,17,34.242V34h33v0.24c4-0.059,7.957-3.807,7.957-8.429C57.957,21.153,53.813,17.377,49.154,17.377z     M30.605,24h-0.792h-0.294h-0.574h0.407H28.56h-0.351h-0.133l-0.341,1h-0.675l-0.046-0.854l-0.404,0.29l-0.568-0.355l-0.638,0.354    l0.003,0.728l0.573,0.327l0.047,0.433l0.813-0.417l0.337,0.583l-0.815,0.871l0.06,0.103l0.831-0.064l0.396,0.686l-0.89,0.035    l0.16,0.571l0.607-0.003l0.396,0.687l-0.402,0.688l-0.798,0.005l-0.396-0.687l0.305-0.523l-0.413-0.425l-0.476,0.753L25.348,28.1    l0.475-0.688l-0.055-0.104l-1.151,0.271L24.3,26.995l0.874-0.503L25,26.263V25.58l-0.5-0.37L24,25.58v0.64l-0.665,0.277    l0.633,0.498l-0.413,0.585l-1.2-0.271l-0.078,0.104l0.463,0.688l-0.402,0.686l-0.477-0.753l-0.416,0.424l0.306,0.524l-0.397,0.687    l-0.799-0.005l-0.402-0.688l0.396-0.687l0.606,0.003l0.161-0.571l-0.891-0.035l0.396-0.686l0.831,0.064l0.06-0.103l-0.814-0.871    l0.337-0.585l0.828,0.422l0.049-0.454l0.557-0.326l0.003-0.745l-0.638-0.386l-0.562,0.284l-0.41-0.16L21.014,25H20.34L20,24    h-0.133h-0.351h-0.793l0.408-0.408l-0.575-0.011L18.263,24H17.47l-0.396-0.5L17.47,23h0.793l0.293,0.423l0.575-0.333L18.723,22    h0.793l0.351,1H20l0.34-1h0.674l0.048,0.995l0.41-0.064l0.562,0.3l0.638-0.376l-0.003-0.741l-0.557-0.324l-0.049-0.453    l-0.828,0.421l-0.337-0.583l0.814-0.871l-0.06-0.104l-0.831,0.065l-0.396-0.686l0.891-0.035l-0.161-0.571l-0.606,0.003    l-0.396-0.687l0.402-0.689l0.799-0.005l0.396,0.688l-0.305,0.523l0.414,0.425l0.476-0.754l0.396,0.687l-0.473,0.687l0.059,0.104    l1.159-0.271l0.334,0.585l-0.475,0.498L24,21.044v0.64l0.5,0.37l0.5-0.37v-0.683l0.175-0.229l-0.887-0.503l0.323-0.585    l1.154,0.271l0.056-0.104l-0.472-0.687l0.394-0.687l0.477,0.754l0.413-0.425l-0.305-0.523l0.396-0.688l0.798,0.005l0.402,0.689    l-0.396,0.687l-0.607-0.003l-0.16,0.571l0.89,0.035l-0.396,0.686l-0.831-0.065l-0.06,0.103l0.815,0.871l-0.337,0.582l-0.813-0.417    l-0.047,0.433l-0.573,0.326l-0.003,0.725l0.638,0.344l0.568-0.369l0.404,0.189L27.061,22h0.675l0.341,1h0.133l0.351-1h0.792    l-0.407,1l0.574,0.4l0.294-0.4h0.792l0.396,0.5L30.605,24z"/>
    </g>
</g>
<g id="Layer_9" display="none">
    <g display="inline">
        <circle cx="37.976" cy="53.695" r="3.251"/>
        <circle cx="43.794" cy="41.09" r="3.252"/>
        <circle cx="19.551" cy="41.09" r="3.252"/>
        <path d="M49.25,16.988c-0.195,0-0.386,0.016-0.576,0.029c-1.796-4.229-5.987-7.196-10.872-7.196c-0.294,0-0.584,0.014-0.872,0.036    C35.373,5.288,31.049,2,25.955,2c-6.239,0-11.326,4.929-11.582,11.105c-4.465,1.141-8.205,5.177-8.205,9.997    C6.168,28.785,11,33.394,16,33.428V33h16.355L32,33.066v-0.879l0.862,0.452l0.009-0.636L32,31.677v-0.879l1-0.439l1,0.439v0.879    v0.326v0.636v-0.452v0.879L33.868,33H50v0.426c4-0.057,7.794-3.711,7.794-8.216C57.794,20.669,53.789,16.988,49.25,16.988z     M21.491,30.28c-1.796,0-3.252-1.457-3.252-3.252s1.456-3.251,3.252-3.251c1.795,0,3.252,1.456,3.252,3.251    S23.286,30.28,21.491,30.28z"/>
        <polygon points="30.942,56.927 30.589,56.584 31.109,56.324 30.313,55.865 29.918,56.091 29.256,55.709 30.227,55.225     29.341,54.711 28.684,55.249 28.384,55 27.766,55 27.305,54 27.766,53 28.42,53 28.685,52.683 29.341,53.08 30.227,52.581     29.276,52.109 29.936,51.732 30.313,51.949 31.109,51.49 30.604,51.239 30.942,50.909 31.55,51.264 32.346,50.805 32.342,49.878     31.542,49.411 30.745,49.871 30.749,50.574 30.284,50.705 30.32,50.122 29.523,50.583 29.521,51.037 28.859,51.42 28.925,50.337     28.039,50.848 28.036,51.605 27.562,51.658 27.239,52.216 26.325,52.219 25.871,51.426 26.19,50.873 26.186,50.414 27,50.044     27,49.02 26,49.594 26,48.842 27,48.625 27,47.707 26.096,48.019 26.19,47.562 27,47.217 27,46.297 26,45.837 25,46.297     25,47.217 25,47.562 25,48.019 25,47.707 25,48.625 25,48.842 25,49.594 24,49.02 24,50.044 24.657,50.415 24.477,50.873     24.806,51.426 24.358,52.219 23.446,52.216 23.302,51.658 23,51.605 23,50.848 21.938,50.337 22.334,51.42 22,51.037 22,50.583     20.785,50.123 20.612,50.705 20.043,50.574 19.994,49.871 19.172,49.411 18.358,49.878 18.348,50.804 19.141,51.265 19.748,50.91     20.084,51.239 19.578,51.49 20.374,51.95 20.751,51.734 21.412,52.117 20.46,52.593 21.346,53.104 22.002,52.681 22.267,53     22.922,53 23.381,54 22.922,55 22.303,55 22.003,55.249 21.346,54.793 20.46,55.263 21.431,55.729 20.769,56.102 20.374,55.869     19.578,56.327 20.097,56.586 19.746,56.927 19.137,56.572 18.342,57.031 18.345,57.959 19.146,58.426 19.942,57.966     19.939,57.262 20.401,57.131 20.368,57.692 21.164,57.232 21.166,56.799 21.827,56.417 21.763,57.479 22.649,56.967     22.651,56.213 23.138,56.16 23.448,55.621 24.363,55.618 24.816,56.41 24.502,56.955 24.657,57.4 24,57.771 24,58.795 25,58.221     25,58.973 25,59.19 25,60.109 25.243,59.801 25.482,60.275 25,60.619 25,61.539 26,62 27,61.539 27,60.619 25.974,60.275     26.316,59.801 27,60.109 27,59.19 26,58.973 26,58.221 27,58.795 27,57.771 26.187,57.401 26.284,56.956 25.92,56.41     26.349,55.618 27.251,55.621 27.537,56.16 28,56.213 28,56.967 28.905,57.479 28.852,56.417 29.516,56.799 29.521,57.232     30.319,57.692 30.285,57.131 30.749,57.262 30.745,57.966 31.542,58.426 32.342,57.959 32.346,57.031 31.55,56.572   "/>
        <polygon points="39.264,35.544 40.023,35.104 40.02,34.219 39.255,33.773 38.494,34.212 38.496,34.886 37.864,35.063     37.826,34.076 37.064,34.516 37.137,35.437 37.022,35.502 36.057,34.6 35.41,34.973 35.871,35.874 35.39,35.926 35.023,36.563     34.208,36.564 33.803,35.857 34.168,35.227 33.978,34.78 35,34.728 35,33.98 34,33.603 34,33.455 33.868,33 32.355,33 32,33.455     32,33.603 31,33.98 31,34.728 32.356,34.78 32.33,35.229 32.778,35.857 32.417,36.564 31.624,36.563 31.268,35.926 30.79,35.874     31.254,34.973 30.608,34.6 29.644,35.502 29.53,35.437 29.602,34.516 28.842,34.076 28.803,35.063 28.17,34.886 28.173,34.212     27.413,33.773 26.648,34.219 26.643,35.104 27.404,35.544 27.985,35.205 28.456,35.664 27.62,36.191 28.381,36.631 29.143,36.107     29.257,36.173 28.957,37.461 29.605,37.835 30.163,36.813 30.417,37 31.174,37 31.584,37.5 31.174,38 30.465,38 30.157,38.799     29.605,38.135 28.957,38.604 29.257,39.938 29.143,40.029 28.381,39.517 27.62,39.962 28.456,40.491 27.985,40.952 27.404,40.615     26.643,41.055 26.648,41.94 27.413,42.386 28.173,41.947 28.17,41.275 28.803,41.097 28.842,42.083 29.602,41.644 29.53,40.724     29.645,40.656 30.609,41.561 31.257,41.187 30.787,40.27 31.288,40.215 31.645,39.598 32.459,39.594 32.864,40.301 32.504,40.924     32.364,41.379 31,41.432 31,42.18 32,42.557 32,42.705 32,43.093 32,43.973 32.914,43.521 32.818,44.156 32,44.482 32,45.361     33,45.801 34,45.361 34,44.482 33.487,44.156 33.402,43.521 34,43.973 34,43.093 34,42.705 34,42.557 35,42.18 35,41.432     33.97,41.379 34.166,40.924 33.806,40.301 34.21,39.594 35.023,39.598 35.379,40.215 35.879,40.27 35.41,41.187 36.058,41.561     37.022,40.656 37.137,40.724 37.064,41.644 37.826,42.083 37.864,41.097 38.496,41.275 38.494,41.947 39.255,42.386 40.02,41.94     40.023,41.055 39.264,40.615 38.682,40.955 38.211,40.495 39.047,39.969 38.286,39.529 37.524,40.051 37.41,39.985 37.711,38.699     37.063,38.324 36.51,38.799 36.203,38 35.492,38 35.082,37.5 35.492,37 36.25,37 36.504,36.813 37.063,37.754 37.711,37.421     37.41,36.153 37.524,36.098 38.286,36.625 39.047,36.189 38.211,35.663 38.683,35.204   "/>
    </g>
</g>
<g id="Layer_10">
    <g>
        <path d="M49.287,17.063c-0.195,0-0.387,0.016-0.578,0.029c-1.803-4.248-6.012-7.228-10.918-7.228c-0.297,0-0.59,0.023-0.881,0.045    c-1.561-4.592-5.899-7.9-11.018-7.9c-6.266,0-11.36,4.951-11.621,11.151c-4.49,1.141-7.817,5.199-7.817,10.043    c0,5.73,4.645,10.18,10.375,10.18c0.664,0,1.312-0.384,1.943-0.384h7.314c0.63,0,1.278,0.188,1.943,0.188    c0.665,0,1.313-0.188,1.943-0.188h5.772c0.666,0,1.346,0.188,2.045,0.188c0.697,0,1.379-0.188,2.045-0.188h7.709    c0.563,0,1.145,0.384,1.742,0.384c4.561,0,8.258-3.601,8.258-8.161S53.848,17.063,49.287,17.063z"/>
        <polygon points="40.627,27 34.428,40.882 38.863,41.07 30.926,51.43 34.246,51.531 26.993,62.056 30.663,53 27.342,53     33.898,42.921 30.577,42.739 35.209,27   "/>
        <polygon points="27.762,22.231 25.013,28.329 32.095,28.529 26.018,37.15 30.297,37.111 18.714,53.687 24.576,39 19.271,39     24.167,31.167 18.866,31.184 21.608,22.001   "/>
    </g>
</g>
<g id="Layer_11" display="none">
    <g display="inline">
        <path d="M55.127,31.587l6.915-1.731l-7.017-1.756c-0.189-1.231-0.54-2.408-1.026-3.513l5.267-5.095l-7.109,2.032    c-0.732-0.928-1.578-1.763-2.517-2.482l2.039-7.137l-5.155,5.33c-1.077-0.452-2.224-0.773-3.416-0.946l-1.793-7.161l-1.775,7.095    c-1.246,0.134-2.443,0.432-3.57,0.868l-5.018-5.187l1.952,6.834c-1.064,0.755-2.021,1.653-2.839,2.668l-6.7-1.915l1.588,1.537    c4.738,0.654,8.632,3.953,10.134,8.365c0.312-0.023,0.625-0.038,0.942-0.038c5.279,0,9.81,3.205,11.75,7.776    c0.207-0.014,0.412-0.03,0.623-0.03c1.729,0,3.34,0.503,4.705,1.358l6.159,1.76l-5.024-4.861    C54.7,34.171,55.005,32.905,55.127,31.587z"/>
        <path d="M53.106,38.461l-0.447-0.128c-0.394,0.563-0.827,1.097-1.296,1.596c-1.328-0.791-2.876-1.255-4.534-1.255    c-0.211,0-0.416,0.018-0.622,0.031c-1.941-4.571-6.471-7.777-11.75-7.777c-0.318,0-0.632,0.016-0.943,0.039    c-0.943-2.77-2.828-5.104-5.273-6.619c0.015-0.032,0.027-0.065,0.042-0.097l-3.33-3.221c-0.565-0.079-1.141-0.127-1.729-0.127    c-3.866,0-7.316,1.756-9.614,4.508c-2.352,1.974-3.968,4.789-4.378,7.987c-4.108,1.668-7.125,5.646-7.125,10.313    C2.106,49.853,8,54.834,13,54.871V55h36v-0.131c5-0.063,8.529-4.012,8.529-8.881C57.529,42.812,55.614,40.032,53.106,38.461z"/>
    </g>
</g>
<g id="Layer_3" display="none">
    <g display="inline">
        <g>
            <path d="M51.154,36.896C52.543,36.506,53.852,36,55.051,35c-0.025,0-0.051,0-0.076,0c-1.975,0-3.859-0.281-5.592-0.962     C50.078,34.88,50.672,35.904,51.154,36.896z"/>
            <path d="M37.703,29.352c0.338-0.024,0.678-0.041,1.021-0.041c1.661,0,3.248,0.3,4.725,0.836     c-2.355-2.691-3.786-6.215-3.786-10.073c0-5.51,2.913-10.34,7.282-13.037c-8.313,0.042-15.054,6.707-15.225,14.988     C34.498,23.66,36.646,26.25,37.703,29.352z"/>
        </g>
        <g>
            <path d="M49.383,34.325c-1.555-1.877-3.6-3.329-5.934-4.179C45.051,31.978,47.08,33.422,49.383,34.325z"/>
            <path d="M52.135,37.706c-0.229,0-0.451,0.018-0.675,0.033c-0.095-0.222-0.2-0.437-0.306-0.651     c-1.314,0.367-2.699,0.568-4.132,0.568c-8.456,0-15.311-6.854-15.311-15.311c0-0.108,0.006-0.215,0.008-0.321     c-2.017-1.189-4.363-1.876-6.874-1.876c-7.309,0-13.267,5.773-13.567,13.009c-5.23,1.336-9.203,6.063-9.203,11.71     C2.076,51.524,8,56.924,14,56.964V57h39v-0.039c5-0.066,9.137-4.347,9.137-9.624C62.137,42.018,57.453,37.706,52.135,37.706z"/>
        </g>
        <path d="M51.566,39.978c-0.229,0-0.451,0.019-0.674,0.033c-2.104-4.954-7.014-8.43-12.736-8.43c-0.344,0-0.684,0.017-1.021,0.042    c-1.822-5.352-6.888-9.204-12.856-9.204c-7.309,0-13.267,5.774-13.568,13.01C5.481,36.765,56.885,39.978,51.566,39.978z"/>
    </g>
</g>
</svg>
