<?xml version="1.0" encoding="utf-8"?>
<!-- Generator: Adobe Illustrator 15.0.0, SVG Export Plug-In  -->
<!DOCTYPE svg PUBLIC "-//W3C//DTD SVG 1.1 Tiny//EN" "http://www.w3.org/Graphics/SVG/1.1/DTD/svg11-tiny.dtd" [
	<!ENTITY ns_flows "http://ns.adobe.com/Flows/1.0/">
]>
<svg version="1.1" baseProfile="tiny"
	 xmlns="http://www.w3.org/2000/svg" xmlns:xlink="http://www.w3.org/1999/xlink" xmlns:a="http://ns.adobe.com/AdobeSVGViewerExtensions/3.0/"
	 x="0px" y="0px" width="52px" height="115px" overflow="visible" xml:space="preserve">
<defs>
</defs>
<path d="M41.95,44.47c0.83-3.92,2.01-12.58,1.7-15.85c-0.31-3.27-1.93-8.51-4.05-9.01c-2.12-0.5-5.07,0.47-5.07,0.47
	s-3.27,0.64-4.92,5.54c-0.83,2.45-1.81,3.26-3.45,5.71c-1.64,2.45-3.13,5.38-6.08,7.01c-2.95,1.62-6.26,5.38-8.39,6.84
	c-2.13,1.46-1.58,0.55-3.37,0.38c-1.8-0.17-4.13-1.19-5.35-2.23c-2.21-1.87-3.34-1.64-2.85-0.99C0.6,43,1.74,43.99,1.74,43.99
	s-0.1,0.7,0.16,1.15c1.14,1.97,2.28,1.81,3.42,2.95c1.14,1.15,4.4,2.63,5.55,2.96c1.14,0.33,2.29,0.66,3.76-0.31
	c1.47-0.98,11.47-6.66,12.12-6.98c0.66-0.32,2.92,6.06,3.07,9c1.96-0.65,9-2.42,14.23-0.93C44.05,51.83,41.12,48.39,41.95,44.47z
	 M11.67,48.95c0,0,1.59-1.38,2.98-1.97C12.85,50.54,11.67,48.95,11.67,48.95z"/>
<path d="M19.94,71.85c0.16,0.49,2.11,3.28,2.93,4.42s0.82-0.49,1.15-2.28c0.33-1.8,1-5.55,1-5.55s0.49-0.65,16.2-3.7
	c-0.34,2.78-6.27,15.01-8.4,17.79c-2.14,2.77,0.47,4.74,3.56,9c3.09,4.26,5.18,13.1,5.66,15.06c0.48,1.96,1.62,2.46,0.48,3.43
	c1.79,1.97,0.8,4.25,0.8,4.25s-16.35,0.59-17-0.06c-0.65-0.66,4.26-2.93,4.26-2.93s-0.16-1.47-0.48-2.94s-2.25-9.82-2.25-9.82
	s-4.91,2.27-6.88,3.24c-1.96,0.97-0.98-0.33,0.17-1.47c1.15-1.14,1.65-2.77,0.67-3.1c-0.62-0.21-5.36-8.68-6.17-11.79
	c-0.81-3.11-6.5-11.14-7.96-13.43c-1.46-2.29-0.48-3.76,3.3-6.85c3.77-3.09,13.43-7.3,16.38-8.44c2.95-1.13,2.62-1.95,2.62-1.95
	s0,0-0.16-1.96c5.57-2.27,13.9-1.26,13.9-1.26c2.43,5.24,1.77,8.51,1.26,11.12c-2.15,6.86-8.69,6.02-12.28,6.33
	c-3.6,0.31-10.8,1.92-10.8,1.92S19.78,71.36,19.94,71.85z"/>
<path fill="none" d="M24.71,22.83c0,0,0.17-3.11,1-6.04c0.83-2.94,1.33-7.19,1.33-7.19s2.48-6.53,4.12-7.18
	c1.64-0.65,2.94-0.64,4.09-1.13c1.15-0.49,3.44-0.97,4.73,2.31c1.3,3.27,2.92,5.24,2.59,7.86s-1.16,2.61-0.35,5.23
	s3.08,5.73,2.58,8.51c-0.5,2.78-0.02,5.56,0.94,9.81c0.96,4.25,0.46,6.7,0.46,8.5c-0.01,1.8-0.99,3.43-0.99,3.43
	s0.01-1.31-0.48-2.78c-0.49-1.47-0.5,2.29-0.5,2.29s-0.98-0.82-0.97-2.62c0.01-1.8-0.64-3.93-0.64-3.93s-1.26-12.43-1.9-15.54
	c-0.64-3.11-2.11-3.93-2.93-4.42C36.98,19.44,36,18.95,36,18.95s-0.15-3.43,0.83-4.57c0.99-1.14,0.68-6.21,0.35-6.86
	c-0.32-0.65-5.06-0.67-5.06-0.67l-2.2,3.54l1.35,5.12c0,0,0.81,2.46-0.18,3.92c-0.99,1.47-2.31,4.73-2.64,5.87
	c-0.33,1.14-2,2.66-2.63,3.91c-0.16,0.33-0.99,1.3-0.83,2.94c0.16,1.63,0.16,1.15,0.16,1.15l-0.98,0.98
	C24.17,34.27,23.38,27.73,24.71,22.83z"/>
<path fill="#FFFFFF" d="M25.43,70.78l6.1-0.85c0,0-4.81,7.09-5.11,9.27c-1.73-1.89-2.17-2.77-2.17-2.77L25.43,70.78z"/>
<path d="M27.91,8.95c0,0,0.15-4.2,0.59-5.36c0.44-1.16,2.47-2.72,3.38-3.16c1.61-0.78,4.06-0.35,5.16,0.02
	c2.37,0.81,2.18,0.68,3.61,5.47c1.43,4.79,2.83,5.27,4.28,7.45c1.97,2.98,2.02,7.53,2.14,9.92c0.18,3.57-2.59,6.44-2.17,8.33
	c0.43,1.89,0.85,5.66,0.4,8.42c-0.45,2.75,0.41,5.51,0.84,6.82c0.43,1.31,1.31-0.87,1.31-0.87s-1.46,4.35-2.25,0.93
	c-0.79-3.41-1.07-5.88-1.07-5.88s-0.01,3.63,0.13,4.64c0.14,1.02-0.72,0.89-1-1.88c-0.28-2.77-1-5.97-1.71-7.71
	c-0.72-1.74-4.97-27.01-5.26-27.88c-0.29-0.87-3.09,11.3-3.97,12.61c-0.88,1.3-6.17,10.49-6.17,10.49s-1.73,3.18-1.43,1.01
	c0.3-2.18,0.21-7.89,0.21-7.89s-0.85-1.8,0.81-3.9c3.08-3.88,0.76-3.68,1.09-6.29C27.1,12.05,27.9,10.84,27.91,8.95z"/>
<path fill="#FFFFFF" d="M8.47,67.96c0,0,4.8-3.37,13.39-6.33s14.54-6.87,14.09-7.42c-3.03-3.67-5.97,0.52-5.97,0.52
	s-4.71,2.53-8.11,3.91C18.47,60.02,10.88,64.58,8.47,67.96z"/>
<path fill="#FFFFFF" d="M35.65,54.1c0.37-0.51-5.16-7.1-6.12-15.28c-2.2,1.19-2,2.29-2,2.29s3.58,9.48,2.46,13.62
	C32.06,54.68,34.65,55.49,35.65,54.1z"/>
<path fill="#FFFFFF" d="M31.66,4.01c-0.93,0.48-2.18,1.15-2.33,2.75s-0.36,2.22-0.45,3.19c-0.16,1.72,0.45,1.91,0.88,3.36
	c0.43,1.45,0.53,2.52,1.4,3.1c0.87,0.58,1.1,1.71,1.18,3.02c0.08,1.33-1.38,2.21-2.81,3.98c-2.31,2.86-3.48,3.23-4.09,5.3
	c-0.29,1-0.72,3.85-0.28,4.58c1.9-2.17,3.06-3.32,3.8-5.35c0.73-2.03,8.01-7.66,8.44-7.37c0.43,0.29-0.31-1.12-0.31-1.12
	s1.33,0.27,0.53-0.53c-1.24-1.25,2.25-0.95,1.51-1.15c-0.74-0.2-1.87,0.04-1.13-1.99c0.73-2.03,2.48-2.46,1.61-3.48
	c-0.87-1.02-1.3-2.18-1.29-4.07C38.32,6.36,34.71,2.43,31.66,4.01z"/>
<path d="M37.58,11.87c0,0-1.32,2.75-2.63,3.91c-1.31,1.16-1.31,1.16-1.31,1.16s-0.32,1.54-0.9,2.7c-0.58,1.16-2.08,1.47-5.87,7.84
	c-0.88,2.03-1.09,6.47-1.09,6.47s1.26-1.92,3.53-4.15c2.52-2.46,4.61-6.87,9.55-8.74c5.07-2.39,1.76-7.43,1.76-7.43l-1.15-2.62
	C39.47,11.01,38.73,13.61,37.58,11.87z"/>
<path d="M29.96,8.73c0,0,1-0.05,1.31-0.57c0.32-0.52-0.34-0.09-0.78-0.45c-0.5-0.4-0.33-0.47-1,0.44
	C29.49,8.15,29.49,8.67,29.96,8.73z"/>
<path d="M33.54,7.43c-0.05,0.37,0.05,0.79,0.36,1.16c0.31,0.37,0.94,0.27,1.05,0c0.11-0.26,0.47-0.37,0.79-0.21
	c0.32,0.16,0.37-0.89-0.47-0.95c-0.84-0.06-1.42,0.1-1.31-0.16C34.06,7.01,33.54,7.43,33.54,7.43z"/>
<path d="M31.49,7.26c0,0-0.25-0.5-0.95-0.4c-0.7,0.1-0.9,0.5-0.9,0.5S30,7.3,30.34,7.31c0.35,0,0.25-0.35,0.35,0
	c0.1,0.35-0.2,0.4,0,0.55c0.2,0.15,0.5,0.05,0.5,0.05S31.59,7.86,31.49,7.26z"/>
<path d="M33.54,7.43c0.04-0.14,0.55-0.36,0.25-0.46c-0.3-0.1-0.85-0.25-0.85-0.25l0.35-0.4c0,0,0.2,0,0.9,0
	c0.7,0,0.95-0.05,1.2,0.05c0.25,0.1,1.3-0.29,0.25,0.1c-1.05,0.4-1.6,0.59-1.5,0.89C34.23,7.67,33.48,7.64,33.54,7.43z"/>
<path d="M31.49,7.26c0,0-0.24,2.28-0.39,2.63c-0.15,0.35-0.35,0.55-0.2,0.7c0.15,0.15,1.4,0.56,1.4,0.56s-0.85,0.15-0.75,0.5
	c0.1,0.35,0.2,0.15,0.1,0.35c-0.1,0.2-0.23,0.68,0.3,0.59c3.24-0.53,0.68,0.69,0.68,0.69s-1.04,0.68-1.09,1.33
	c-0.05,0.65,0.55,1.21,1.45,1.01c0.9-0.2,3.21-1.54,3.72-2.09c0.5-0.55-0.57,3.51-0.57,3.51s-1.96,0.19-2.36,0.19
	c-0.4,0-1.9-0.11-2.61-0.51c-0.7-0.4-1.91-4.81-2.14-4.27c-0.14,0.33,0.62-2.91,1.57-3.56c-0.9,0-1.56,0.04-1.45-0.56
	c0.1-0.6-0.54-1.86,0.71-3.16c1.26-1.3,2.71-1.85,2.71-1.85S30.73,5.37,31.49,7.26z"/>
<path fill="#FFFFFF" d="M4.3,45.94c0,0,1.04,0.6,2.42,1.4c1.38,0.8,1.98,1.2,3.96,1.01c1.98-0.19,2.57-1.56,2.57-1.56
	s10.54-4.14,15.12-9.68c2.59-2.37,6.97-8.9,6.97-8.9s-2.3,2.75-5.48,6.14c-1.67,1.78-4.31,4.04-5.32,5.41
	c-1.33,1.83-7.14,3.63-9.53,5.8c-2.39,2.17-5.17,2.29-8.9,0.57C4.17,45.24,3.9,45.34,4.3,45.94z"/>
<path fill="#FFFFFF" d="M37.33,19.45c0,0-4.39-0.22-5.99,2.77c-1.61,2.99-1.81,4.78-2.82,5.77s-1.8,2.39-2.01,3.58
	c-0.2,1.2-0.2,1.2-0.2,1.2s1.8-2.19,3.21-3.58c1.4-1.39,2.41-4.78,3.21-6.17C33.53,21.63,35.13,20.04,37.33,19.45z"/>
</svg>
