<?xml version="1.0" encoding="utf-8"?>
<!-- Generator: Adobe Illustrator 14.0.0, SVG Export Plug-In  -->
<!DOCTYPE svg PUBLIC "-//W3C//DTD SVG 1.1 Tiny//EN" "http://www.w3.org/Graphics/SVG/1.1/DTD/svg11-tiny.dtd" [
	<!ENTITY ns_flows "http://ns.adobe.com/Flows/1.0/">
]>
<svg version="1.1" baseProfile="tiny"
	 xmlns="http://www.w3.org/2000/svg" xmlns:xlink="http://www.w3.org/1999/xlink" xmlns:a="http://ns.adobe.com/AdobeSVGViewerExtensions/3.0/"
	 x="0px" y="0px" width="99px" height="115px" viewBox="-0.63 -0.49 99 115" xml:space="preserve">
<defs>
</defs>
<path fill-rule="evenodd" fill="#00274D" d="M67.39,22.39c2.59-0.43,5.11,1.44,5.54,4.18c0.43,2.66-1.3,5.26-3.89,5.69
	c-1.8,0.29-3.6-0.58-4.61-2.02L44.5,34.56l10.87,59.62c17.42-4.46,26.06-14.18,27.5-29.02l-10.01-0.72L88.7,51.91l9.43,21.24
	c-3.38-1.95-5.9-5.11-9.29-7.06c-0.29,25.06-27.14,32.76-33.77,47.95C44.42,100.08,26.5,114.77,6.91,82.8L0,92.45l1.51-21.6
	l19.66,4.68l-9.43,3.67c7.49,11.59,17.57,19.87,36.43,16.42L36.22,36.57l-18.65,2.38c-0.14,2.16-1.73,4.03-3.89,4.39
	c-2.59,0.43-5.04-1.44-5.54-4.1c-0.43-2.74,1.3-5.26,3.89-5.69c1.94-0.36,3.89,0.65,4.9,2.3l17.93-4.82l-1.37-6.84
	c-4.82-0.79-8.93-4.75-9.79-10.08c-1.15-6.62,3.1-12.89,9.43-13.97c6.41-1.01,12.46,3.46,13.54,10.08
	c0.86,5.18-1.58,10.15-5.69,12.6l1.87,6.12l20.74-2.88C64.01,24.26,65.52,22.75,67.39,22.39L67.39,22.39z M33.91,5.18
	c-3.46,0.58-5.76,3.96-5.11,7.56c0.58,3.6,3.89,6.05,7.27,5.47c3.46-0.58,5.76-3.96,5.18-7.56C40.61,7.05,37.37,4.61,33.91,5.18z"/>
</svg>
