<?xml version="1.0" encoding="utf-8"?>
<!-- Generator: Adobe Illustrator 14.0.0, SVG Export Plug-In  -->
<!DOCTYPE svg PUBLIC "-//W3C//DTD SVG 1.1 Tiny//EN" "http://www.w3.org/Graphics/SVG/1.1/DTD/svg11-tiny.dtd" [
	<!ENTITY ns_flows "http://ns.adobe.com/Flows/1.0/">
]>
<svg version="1.1" baseProfile="tiny"
	 xmlns="http://www.w3.org/2000/svg" xmlns:xlink="http://www.w3.org/1999/xlink" xmlns:a="http://ns.adobe.com/AdobeSVGViewerExtensions/3.0/"
	 x="0px" y="0px" width="95px" height="101px" viewBox="-0.99 -0.39 95 101" xml:space="preserve">
<defs>
</defs>
<g>
	<path fill-rule="evenodd" fill="#6FBE4B" d="M93.17,61.8c-0.02-0.04-0.04-0.08-0.06-0.12c-1.21-0.16-2.58,0.09-3.68,0.3
		c-2.19,0.4-3.94-0.3-5.82,0.47c0.02-0.23,0.01-0.13,0.12-0.36c-0.34-0.49-3.64,0.1-4.81,0.12c0.16-0.2-0.04-0.1,0.18-0.3
		c-1.16-0.28-2.6,0.36-3.57,0.47c-0.07-0.22-0.06-0.11,0-0.3c-1.39-0.08-2.25,0.88-3.92,0.65c0.12-0.02,0.24-0.04,0.36-0.06
		c-0.87-0.35-2.16,0.59-2.79,0.83c-1.89-0.76-3.59,0.92-4.87,1.55c-1.16,0.56-2.32,0.48-3.57,1.01c-0.7,0.29-1.46,0.99-2.14,1.31
		c-0.38,0.06-0.75,0.12-1.13,0.18c-3.04,1.77-6.07,2.78-9.8,3.86c-0.17-0.14-0.11-0.1-0.3-0.12c0.21-0.66,0.79-0.71,1.01-1.19
		c0.04-0.02,0.1-0.06,0.13-0.08c0.86-1.33,5.38-3.54,8.36-3.9c0-0.32,0.01-0.46-0.12-0.59c0.42-0.37,3.01-1.08,3.62-1.13
		c0.07-0.23-0.05-0.44-0.12-0.53c0.86-0.7,2.51-0.53,3.62-0.95h0.12c-0.08-0.1-0.16-0.2-0.24-0.3c0.2-0.04,0.4-0.08,0.59-0.12v-0.06
		c-0.16-0.04-0.32-0.08-0.48-0.12c-0.05-0.16-0.02-0.03,0.12-0.12v-0.06c-0.12-0.02-0.24-0.04-0.36-0.06
		c0.14-0.02,0.28-0.04,0.42-0.06v-0.06h-0.24c0.39-0.33,2.48-1.06,3.09-1.13c0.06-0.16,0.12-0.32,0.18-0.48
		c-0.28-0.24-0.12-0.36-0.47-0.42v-0.06c1.09-0.44,2.18-0.87,3.27-1.31c-0.06-0.27-0.14-0.17,0.12-0.36c-0.21-0.12-0.03-0.07-0.24,0
		c0.02-0.06,0.04-0.12,0.06-0.18c-0.11-0.08,0.01-0.06-0.12-0.06c-0.04-0.04-0.08-0.08-0.12-0.12c0.25-0.27,2.21-1.66,2.79-1.78
		c-0.16-0.12-0.1-0.07-0.3-0.06c0.08-0.18,0-0.07,0.12-0.18c-0.23-0.31-0.41-0.33-0.65-0.3c-0.03-0.15,0.05-0.12-0.12-0.12
		c0.57-0.82,2.91-1.21,3.21-2.02c0.16-0.12-0.05-0.14,0.06-0.47c-0.33-0.23-0.46-0.32-0.71-0.24c-0.02-0.06-0.04-0.12-0.06-0.18
		c0.16-0.02,0.32-0.04,0.47-0.06c0.14-0.25,0.23-0.36,0.18-0.59c0.59-0.34,1.19-0.67,1.78-1.01c0.17-0.22,0.29-0.27,0.3-0.54
		c-0.4-0.2-0.79-0.4-1.19-0.59c0.2,0.07,0.74-0.38,1.25-0.53c0.09-0.2,0.09-0.29,0.06-0.53c0.71-0.19,0.96-0.74,1.48-1.01
		c-0.06-0.31-0.13-0.34,0.12-0.54c-0.45-0.13-0.53-0.25-1.07-0.24c0.4-0.44,2.22-2.04,2.85-2.32c-0.15-0.22-0.17-0.21-0.3-0.54
		c-0.3-0.06-0.59-0.12-0.89-0.18v-0.06c0.3-0.1,0.59-0.2,0.89-0.3V42.9c0.69-0.37,1.07-0.79,1.49-1.43v-0.06
		c-0.29-0.2-0.84-0.25-1.19-0.24c0.36-0.18,0.71-0.36,1.07-0.53c0.44-0.51,0.93-1.31,1.55-1.96V38.5c-0.2-0.27-0.28-0.32-0.71-0.36
		c-0.02-0.02-0.04-0.04-0.06-0.06c0.84-0.77,1.59-1.42,2.2-2.5c-0.22-0.33-0.74-0.28-1.01-0.24v-0.06c0.26-0.22,0.52-0.44,0.77-0.65
		c0.17-0.19,0.07-0.19,0-0.42c0.69-0.2,1.05-1.18,1.37-1.78v-0.06c-0.3-0.04-0.59-0.08-0.89-0.12c0.48-0.77,1.11-1.67,1.66-2.44
		c-0.1-0.06-0.2-0.12-0.3-0.18c0.24-0.36,0.48-0.71,0.71-1.07c1.01-2.16,2.21-3.97,3.39-6c0.34-0.6,0.9-1.28,1.01-2.08v-0.06
		c-0.1-0.02-0.2-0.04-0.3-0.06c-0.82,1.3-2.09,2.28-3.03,3.45c-0.61,0.71-1.23,1.43-1.84,2.14c-0.81,0.62-1.75,1.4-2.32,2.26
		c-0.29-0.08-0.24-0.13-0.42-0.3c-0.69,0.39-1.07,1.03-1.37,1.49c0,0-1.22,0.74-1.31,0.83c-0.26-0.05-0.25-0.07-0.42-0.18
		c-0.84,0.39-1.3,1.79-1.84,2.02c-0.27,0.12-0.41-0.12-0.65,0.12c-0.29,0.29-0.18,0.62-0.65,0.77c0.03-0.27-0.06-0.27-0.12-0.59
		h-0.06c-0.66,0.4-0.68,1.03-1.19,1.54c-0.18,0.18-0.7,0.33-0.89,0.48c-0.24-0.06-0.48-0.12-0.71-0.18
		c-0.64,0.49-1.45,1.44-1.72,1.96c-0.44,0.08-1.01-0.12-1.01-0.12c-1.04,0.35-1.59,2.23-2.14,2.61c-0.02,0.14-0.35-0.23-0.59-0.36
		c-0.04-0.04-0.08-0.08-0.12-0.12c-0.52,0.46-1.21,1.49-1.37,2.26c-0.61,0.05-0.86,0.48-1.6,0c-0.19,0.64-1.85,2.6-1.6,3.51h-0.18
		c-0.16-0.28-0.32-0.55-0.48-0.83c-1.08,0.26-0.86,2.38-2.32,2.79c-0.25,0.01-1.18,3.23-2.5,2.85c-0.38,1.03-0.75,2.06-1.13,3.09
		c-0.2,0.3-0.78,0.38-1.07,0.71c-0.27,0.3-0.24,0.64-0.59,0.71c0.36,0.73-1,2-1.25,2.5c-0.2,0.67-0.4,1.35-0.59,2.02
		c-0.27,0.43-0.51,0.21-0.59,0.54l-0.18-0.18c-0.43,0.58-0.41,1.21-0.77,1.9c0.14,0.05,0.06-0.06,0.18,0.12
		c-0.12,0.07-0.39,0.86-0.24,1.25c-0.17,0.13-0.27,0.17-0.59,0.18c-0.24,2.01-3.53,7.32-4.7,8.08h-0.24v-1.01
		c0.09,0.12,0.08,0.08,0.12,0.3c0.27-0.46,0.09-0.73,0.06-1.19c0.02,0.08,0.04,0.16,0.06,0.24c0.83-1.59,0.99-3.89,2.44-4.93
		c-0.35-0.19,0.88-1.39,1.07-1.49c-0.04-0.45-0.09-0.3,0-0.71c-0.12,0.02-0.24,0.04-0.36,0.06c-0.04-0.02-0.08-0.04-0.12-0.06
		c0.14-0.63,0.85-1.42,1.13-1.84c0.04,0.06,0.08,0.12,0.12,0.18c0.18-0.5,0.31-1.47,0.95-1.72c-0.16-0.19-0.14-0.09-0.18-0.3
		c-0.14,0.04-0.28,0.08-0.42,0.12c0.04-0.04,0.08-0.08,0.12-0.12h0.12c-0.12-0.04-0.24-0.08-0.36-0.12c0.67-1.22,1.38-2.61,1.9-3.74
		c-0.2-0.27-0.33-0.3-0.65-0.3c0.23-0.26,0.09-0.32,0.24-0.53c0.15-0.08,0.02-0.05,0.24,0.06c-0.1-0.2-0.2-0.4-0.3-0.59
		c0.05,0,0.96-1.37,0.65-2.26c-0.06-0.17-0.32-0.32-0.24-0.65c0.15-0.62,0.53-1.75,0.77-2.44c-0.23-0.1-0.18-0.1-0.42,0
		c0.03-0.2,0.02-0.07-0.06-0.24c0.1,0.02,0.2,0.04,0.3,0.06c-0.13-0.1-0.16-0.11-0.42-0.12c0.05-0.35,1-2.73,1.01-2.73
		c-0.15-0.44-0.51-0.51-0.89-0.42c-0.3-0.59,0.29-2.11,0.71-2.61c-0.05-0.26-0.03-0.22-0.18-0.36c-0.18-0.16-0.45-0.05-0.77,0
		c0.52-1.27,0.92-1.63,0.89-3.09c-0.26,0.02-0.52,0.04-0.77,0.06c-0.11-0.35,0.61-2.18,0.83-2.97c-0.21-0.35-0.41-0.36-0.77-0.3
		c0.08-0.41,0.34-0.47,0.24-0.83c-0.12-0.12-0.1-0.1-0.36-0.12c0.14-0.5,0.85-2.11,0.48-2.56c-0.14-0.12-0.14-0.06-0.3-0.12
		c-0.24,0.09-0.31,0.09-0.59,0.06c0.1-0.26,0.2-0.52,0.3-0.77c-0.06-0.04-0.12-0.08-0.18-0.12c0.05-0.79,0.61-1.51,0.59-2.67
		c-0.04-0.02-0.08-0.04-0.12-0.06c-0.3,0.06-0.59,0.12-0.89,0.18c0.06-0.38,0.27-0.52,0.36-0.77c0.12-0.33-0.12-0.43-0.18-0.53
		c0.08-0.65,0.16-1.31,0.24-1.96c-0.24-0.22-0.51-0.19-0.83-0.06c-0.06-0.02-0.12-0.04-0.18-0.06c0.15-0.46,0.43-0.54,0.48-1.13
		c-0.13-0.16-0.12-0.17-0.36-0.24c0.29-0.76,0.21-1.54,0.06-2.26c-0.02-0.04-0.04-0.08-0.06-0.12c-0.24,0.06-0.47,0.12-0.71,0.18
		c0.04-0.64,0.4-2.8,0.12-2.97v-0.18c-0.28,0.06-0.56,0.12-0.83,0.18h-0.06c-0.23-0.68,0.37-1.97-0.06-3.15
		c-0.24,0.1-0.48,0.2-0.71,0.3c-0.12-0.86-0.43-2.02-0.48-3.15c-0.22,0.06-0.44,0.12-0.65,0.18h-0.06c0-0.91-0.15-1.56-0.36-2.38
		c-0.19-0.1-0.11-0.07-0.36-0.06c-0.13-2.82-0.99-5.12-0.95-8.5C46.67,0.1,46.71,0.07,46.47,0v0.12c-1.04,1.63-0.34,4.25-0.71,6.3
		c-0.15,0.81-0.55,2.07-0.3,2.97c-0.16-0.04-0.32-0.08-0.47-0.12c-0.17,1.08-0.08,2.11,0.06,2.97c-0.2-0.06-0.4-0.12-0.59-0.18
		c-0.57,0.75-0.28,2.65-0.24,3.68c-0.32-0.16-0.63-0.32-0.95-0.48c-0.43,1.11-0.12,2.08,0.06,3.33c-0.26-0.06-0.52-0.12-0.77-0.18
		c-0.06,0.02-0.12,0.04-0.18,0.06c-0.16,1.02-0.04,2.46,0.3,3.33c-0.3-0.06-0.59-0.12-0.89-0.18c-0.49,0.86-0.12,2.14,0.18,2.97
		v0.06c-0.26-0.04-0.51-0.08-0.77-0.12c-0.23,0.92-0.04,1.57,0.18,2.26c-0.08,0.06-0.16,0.12-0.24,0.18
		c0.03,0.51,0.28,1.28,0.59,1.54v0.18c-0.4-0.28-0.79-0.55-1.19-0.83c-0.18,0.08-0.07,0-0.18,0.12c-0.27,0.4,0.14,3.21,0.3,3.57
		l-0.06,0.06c-0.32-0.06-0.63-0.12-0.95-0.18c-0.35,1.45,0.46,3.14,0.77,4.4c-0.38-0.2-0.75-0.4-1.13-0.59
		c-0.6,0.34,0.14,2.04,0.24,2.38c-0.16,0.02-0.01-0.02-0.18,0.06c0.1,0.24,0.2,0.48,0.3,0.71c-0.22-0.02-0.44-0.04-0.65-0.06
		c-0.33,0.79-0.04,1.8,0.24,2.67c-0.12,0.22-0.09,0.17-0.42,0.18c-0.52,0.91-0.14,2.55,0.18,3.5c-0.32-0.04-0.63-0.08-0.95-0.12
		c-0.13,0.7,0.7,3.42,1.07,3.8c-0.2,0.02-0.4,0.04-0.59,0.06c-0.34,1.44,0.94,2.83,1.55,3.8c-0.28-0.06-0.56-0.12-0.83-0.18
		c0.07,1.19,0.81,1.9,1.25,2.73c-0.14,0.08-0.28,0.16-0.42,0.24c0.11,0.69,1.4,3.21,1.96,3.5c0.02,0.08,0.04,0.16,0.06,0.24
		c-0.28,0.04-0.55,0.08-0.83,0.12c-0.16,0.1-0.08,0.02-0.18,0.18c0.64,0.92,1.54,1.62,2.02,2.74c-0.1,0.02-0.2,0.04-0.3,0.06
		c0.08,0.96,0.75,1.08,1.07,1.72c0.54,1.11,0.67,2.87,1.07,3.86c0.22,0.55-0.27,0.66-0.06,1.13c0.11,0.24-0.04,0.16,0.12,0.24
		c-0.12,0.26-0.1,0.24-0.36,0.36c0.02,0.06,0.04,0.12,0.06,0.18v0.12c0.19-0.08,0.12-0.06,0.24-0.18c0.02,0.06,0.04,0.12,0.06,0.18
		h-0.12c0.04,0.27,0.01,0.26-0.24,0.48h-0.24c-0.6-0.81-1.53-1.99-2.2-2.55c0.13-0.02-0.28-1.09-0.36-1.19
		c-0.09,0.1-0.09-0.02-0.12-0.06c-0.66-1.07-0.63-2.16-1.07-3.33c-0.21-0.57-0.68-1.09-0.71-1.78c-0.1-0.08-0.2-0.16-0.3-0.24
		c-0.1,0.16-0.2,0.32-0.3,0.47c-0.53-0.66-0.59-2.27-0.59-3.21c-0.34-0.05-0.43-0.14-0.59-0.36c-0.31-0.29-0.6-2.4-0.42-2.44
		c-0.04-0.12-0.08-0.24-0.12-0.36c-0.1,0.06-0.2,0.12-0.3,0.18c0.04-0.08,0.08-0.16,0.12-0.24c-0.42-0.04-0.43-0.1-0.59-0.42
		c0.06,0.02,0.12,0.04,0.18,0.06c-0.09-0.34-0.65-1.1-0.24-1.25c-0.14-0.18-0.52-1.65-1.01-1.78c-0.11,0.39-0.25,0.51-0.59,0.59
		c0.01-1.25-0.79-3.13-1.19-3.39c-0.21-0.22-0.58-0.1-0.89-0.36c-0.61-0.5-0.49-1.86-1.19-2.32c-0.17-0.11-0.39-0.04-0.59,0
		c-0.53-0.82-0.77-2.35-1.78-2.67v0.12c-0.07,0.09-0.06-0.01-0.06,0.18c-0.1-0.02-0.2-0.04-0.3-0.06c-0.6-0.7-0.69-2.99-2.08-2.26
		c-0.01-0.69-1.26-2.35-1.72-2.67c-0.14,0.26-0.28,0.52-0.42,0.77c0.02,0.04,0.04,0.08,0.06,0.12c-0.38-0.32-0.15-0.95-0.54-1.49
		c-0.42-0.58-1.35-1.01-1.48-1.72c-0.16-0.04-0.32-0.08-0.48-0.12c-0.13,0.16-0.04,0.01-0.06,0.24c-0.18,0.03-0.22,0.1-0.42,0.24
		c-0.16-0.28-0.32-0.55-0.48-0.83v-0.12c-0.48,0.03-1.25-1.01-1.49-1.43c-0.12-0.06-0.24-0.12-0.36-0.18
		c-0.08,0.16-0.16,0.32-0.24,0.48c-0.02,0.06-0.24-0.07-0.47-0.06c-0.15-0.21,0-0.33-0.24-0.71c-0.16,0.22-1.34-1.1-1.49-1.49h-0.12
		c-0.08,0.12-0.16,0.24-0.24,0.36c-0.16,0.02-0.32,0.04-0.48,0.06c0.09-0.29-1.71-1.94-2.44-2.14c-0.04-0.04-0.08-0.08-0.12-0.12
		c-0.06,0.18-0.12,0.36-0.18,0.54c-0.79-0.73-1.58-1.47-2.38-2.2h-0.24c-0.02,0.16-0.04,0.32-0.06,0.48
		c-1.77-1.15-3.51-2.39-5.29-3.57c-0.69-0.45-1.29-1.13-2.14-1.42c-0.19-0.13-0.17-0.04-0.42-0.06c0.22,1.27,3.59,3.7,4.58,4.81
		c0.48,0.54,0.79,1.35,1.49,1.66c-0.08,0.23-0.11,0.2-0.24,0.36c0.44,0.51,0.87,1.03,1.31,1.54c0.12,0.22,0.06,0.12-0.06,0.36
		c0.24,0.42,0.44,0.44,0.71,0.71c-0.24,0.08-0.48,0.16-0.71,0.24c0.05,0.65,0.95,1.64,1.55,1.96c-0.1,0.06-0.2,0.12-0.3,0.18v0.18
		c0.39,0.53,1.13,0.59,1.54,1.07h-1.01c0,0.78,0.63,1.41,1.25,1.6c0.08,0.44,0.06,0.77,0.89,0.89c-0.19,0.18-0.39,0.1-0.53,0.36
		c-0.13,0.15-0.08,0.03-0.06,0.24c-0.11,0.34,1.03,1.25,1.37,1.6v0.06c-0.81,0.32,0.84,0.96,1.13,1.19
		c-0.32,0.06-0.63,0.12-0.95,0.18c0.07,1.01,1.22,1.71,1.72,2.2h0.12c-0.25,0.14-0.49,0.16-0.53,0.36
		c-0.16,0.13-0.04,0.07-0.12,0.24c0.81,0.5,1.35,1.81,2.2,2.08c-0.21,0.2-0.68,0.16-0.89,0.36c-0.04,0.02-0.08,0.04-0.12,0.06
		c0.17,0.75,1.05,1.29,1.72,1.54c0,0.23,0.02,0.1-0.06,0.3c0.27,0.21,0.81,0.37,1.01,0.65c-0.25-0.01-0.81,0.06-1.01,0.3
		c0.15,1.01,1.65,1.66,2.38,2.14c-0.04,0.02-0.08,0.04-0.12,0.06c0.08,0.11,0.01,0.05-0.18,0.06c-0.06,0.14-0.12,0.28-0.18,0.42
		c0.46,0.8,2.1,1.81,3.09,2.02c-0.22,0.1-0.44,0.09-0.59,0.24c-0.15,0.07,0.04,0.07-0.12,0.12c0.26,0.99,2.41,1.92,3.45,2.14
		c-0.14,0.16,0.05,0.14-0.3,0.18c-0.04,0.18-0.08,0.36-0.12,0.53c0.73,0.76,2.01,1.22,3.15,1.55c-0.19,0.17-0.31,0.2-0.42,0.47
		c1.03,0.44,2.06,0.87,3.09,1.31c-0.11,0.12-0.2,0.17-0.3,0.3h0.18c-0.11,0.17-0.11,0.15-0.3,0.24v0.06
		c0.64,0.34,2.68,0.74,2.79,1.37c0.16-0.06,0.05,0.03,0.12-0.12c0.12,0.17,0.06,0.26-0.06,0.47c0.9,0.4,2.1,0.34,2.79,0.95
		c1.89,1.68,5.44,2.98,6.18,5.35c-0.77-0.12-1.54-0.24-2.32-0.36c-1.15-0.39-2.3-0.79-3.45-1.19C36.8,69.3,36.02,68.41,35,67.8
		c-0.51-0.14-1.03-0.28-1.54-0.41c-0.65-0.33-1.41-1.04-1.84-1.25c-0.42-0.2-1.29-0.07-1.72-0.42c-0.49-0.38-0.58-0.63-1.19-0.83
		c-0.32,0.06-0.63,0.12-0.95,0.18c-0.98-0.33-1.82-0.86-2.91-1.01c0.04,0.1,0.08,0.2,0.12,0.3c-1.39,0.34-2.39-0.82-3.51-0.95
		c0.04,0.06,0.08,0.12,0.12,0.18v0.06c-1.25,0.01-1.8-0.36-2.67-0.77c-0.2,0.04-0.4,0.08-0.59,0.12c0.01,0.24,0.06,0.29,0.18,0.53
		c-0.84-0.44-2.99-0.73-3.56-0.65c0.05,0.22,0.21,0.5,0.3,0.54v0.06c-0.49-0.22-3.11-0.75-3.86-0.71v0.06
		c0.08,0.14,0.16,0.28,0.24,0.42c-0.44,0.27-2.57-0.58-3.57-0.59c-0.06,0.06-0.12,0.12-0.18,0.18c0.06,0.14,0.12,0.28,0.18,0.42
		c-1.73-0.42-6.33-1.45-7.96-0.83C0.04,62.43,0.02,62.47,0,62.51c2.16,0.5,4.94,1.53,7.01,2.73c0.61,0.75,1.93,1.55,3.45,1.55v0.06
		c-0.27,0.09-0.47,0.25-0.59,0.48c-0.12,0.11-0.04,0-0.12,0.18c0.88,0.32,1.98,0.7,3.03,0.71c-0.04,0.06-0.08,0.12-0.12,0.18
		c-0.1,0.12-0.2,0.24-0.3,0.36v0.06c0.56,0.45,1.29,0.29,2.08,0.59c0.1,0.11,0.03,0.21,0.06,0.42c0.99,0.2,1.98,0.39,2.97,0.59
		c-0.14-0.02-0.28-0.04-0.42-0.06c0.06,0.06,0.12,0.12,0.18,0.18c-0.33,0.12-0.32,0.31-0.48,0.53c0.89,0.69,2.37,0.07,3.62,0.53
		h-0.24c-0.06,0.06-0.12,0.12-0.18,0.18c0.09,0.16,0.11,0.13,0.24,0.24c-0.06,0.04-0.12,0.08-0.18,0.12
		c-0.04,0.06-0.08,0.12-0.12,0.18c0.82,0.41,2.66,0.29,3.56,0c-0.1,0.37-0.03,0.3-0.12,0.77c1.03,0.03,1.73-0.27,2.61-0.36
		c0.38-0.04,0.37,0.21,0.59,0.18c-0.08,0.14-0.16,0.28-0.24,0.42v0.06c1.21,0.24,2.39-0.22,3.33-0.47c-0.1,0.16-0.2,0.32-0.3,0.47
		c0.89,0.35,2.62-0.32,3.33-0.59c0.1,0.06,0.2,0.12,0.3,0.18c-0.06,0.08-0.12,0.16-0.18,0.24c0.55-0.14,1.11-0.28,1.66-0.41
		c1.01-0.23,1.6,0.13,2.56-0.06c1.43-0.28,3.51-0.4,4.46-0.24c-1.6,0.8-4.69,1.39-6.77,2.2c-0.55,0.1-1.11,0.2-1.66,0.3h0.18
		c-0.08,0.04-0.16,0.08-0.24,0.12c0.1,0.16,0.13,0.2,0.3,0.3c-0.38,0.31-2.8,1.19-3.39,1.19c0.02,0.31-0.03,0.36,0.3,0.42
		c-0.97,0.36-1.94,0.71-2.91,1.07c0.04,0.24,0,0.18,0.12,0.3c0.06,0.08,0.12,0.16,0.18,0.24c-1.23,0.24-2.41,1.25-3.33,1.9
		c0.06,0.28,0.01,0.19,0.24,0.3c-2.06,1.07-3.83,3.11-5.17,5.11c-0.3,0.45-1.29,1.52-0.89,2.2c0.08,0.12,0.07,0.1,0.18,0.18
		c0.81-0.89,1.62-1.78,2.44-2.67c1.29-1.22,3.76-2.27,5.7-2.73c-0.02,0.17,0.03,0.32,0.18,0.47c1.14-0.6,2.64-1.7,3.98-1.9
		c0.15,0.3,0.18,0.48,0.48,0.65c0.76-0.5,1.72-1.19,2.26-1.9h0.3v0.3c0.06,0.06,0.12,0.12,0.18,0.18c0.7-0.24,0.87-0.89,1.37-1.31
		c0.77-0.53,1.54-1.07,2.32-1.6h0.06c-0.04,0.32-0.11,0.32,0,0.48c-0.1,0.25-0.06,0.06-0.24,0.24h0.12c0.07,0.09,0.01,0.05,0.12,0
		c0.02,0.22,0.04,0.44,0.06,0.65h0.24c0.12-0.25,0.7-0.76,0.83-0.77c0.12-0.3,0.24-0.59,0.36-0.89c0.79-1.26,2.07-2.16,2.97-3.27
		c0.26-0.32,1.76-1.18,1.78-1.01c0.1-0.08,0.11-0.13,0.18-0.24c0.75,1.31-0.47,6.23-0.54,7.96h-0.06c-0.02-0.1-0.04-0.2-0.06-0.3
		c-0.04,0.04-0.08,0.08-0.12,0.12c0.08,0.33,0.01,0.21,0.24,0.24c-0.02,0.18-0.04,0.36-0.06,0.53c-0.02-0.06-0.04-0.12-0.06-0.18
		h-0.06c0,0.23-0.02,0.62-0.03,0.95h0.03c-0.01,0.02-0.02,0.05-0.04,0.07c-0.01,0.29-0.03,0.52-0.03,0.52
		c0.04,0.06,0.08,0.12,0.12,0.18c-0.16,0.17-0.38,1.31-0.36,1.6c0.08-0.04,0.16-0.08,0.24-0.12c-0.1,0.29-0.01,0.18-0.24,0.24
		c0.07,0.4,0.14,4.74-0.3,5.11c0.24,0.26-0.23,4.81-0.18,5.88c0.05,1.04-0.64,2.03-0.36,3.03v0.06c0.21,0.3,0.45,0.04,0.77,0.12
		c0.08,0.02,0.4,0.53,0.59,0.66c0.18-0.16,0.36-0.32,0.53-0.48c0.43-1.46,0.3-3.82,0.3-5.7c0.02,0.69,0.04,1.39,0.06,2.08
		c0.02-0.77,0.04-1.54,0.06-2.32c0.02,0.16,0.04,0.32,0.06,0.48c0.2-0.52-0.22-0.79-0.12-1.43c0.08-0.47,0.16-0.95,0.24-1.43
		c-0.02,0.06-0.04,0.12-0.06,0.18H44.8c0-0.35,0.03-0.64,0.06-0.89v-0.36h0.05c0.04-0.22,0.09-0.42,0.12-0.59
		c0.31-1.44-0.21-4.17,0.24-5.47c0.13-0.38-0.05-1.21-0.12-1.42l0.3-3.45c0.06,0.17,0.15,0.06,0.18-0.06c0.12-0.58-0.15-1.66,0-2.26
		c0.1-0.42,0.35-1.29,0.3-2.02c0.02,0.06,0.04,0.12,0.06,0.18c0.11-0.27,0.11-0.67,0.24-0.89c0.18,0.09,0.2,0.1,0.42,0.06
		c0.12,0.4,0.19,0.09,0.18,0.42c0.11-0.08,0.04-0.01,0.12-0.12c0.75,0.83,2.02,3.02,3.27,4.04h0.06c0.06-0.14,0.12-0.28,0.18-0.42
		c1.21,0.6,2.1,1.91,3.09,2.79c0.1-0.02,0.2-0.04,0.3-0.06c0-0.32-0.03-0.17,0-0.59h0.12c-0.02,0.06-0.04,0.12-0.06,0.18
		c0.14-0.03,0.07-0.01,0.24-0.12c0.02,0.04,0.04,0.08,0.06,0.12c-0.06,0.04-0.12,0.08-0.18,0.12v0.06c0.91,0.16,2.26,1.93,3.03,1.9
		h0.3c-0.02-0.12-0.04-0.24-0.06-0.36c-0.02-0.04-0.04-0.08-0.06-0.12c0.63,0.12,2.29,2.19,2.79,1.84c0.29,0.1,0.14-0.3,0.18-0.42
		c-0.04-0.02-0.08-0.04-0.12-0.06c1.26,0.08,1.55,1.25,2.79,1.43c0.25-0.23,0.26-0.3,0.18-0.59c1.05,0.2,2.33,1.03,3.45,1.19
		c0.01-0.13-0.01-0.05-0.06-0.24c2.36,0.66,7.7,3.58,8.44,4.93c0.12-0.04,0.24-0.08,0.36-0.12c-0.09-0.18-0.13-0.38-0.12-0.71
		c-0.02,0.06-0.04,0.12-0.06,0.18c-0.2-0.2-0.08-0.23-0.18-0.48c0.14-0.15,0.12-0.01,0.24-0.18h0.12c-0.21-0.13-0.09-0.08-0.3,0
		h-0.06c0.07-0.27,0.11-0.24,0.24-0.42c-0.25-0.03-0.28-0.1-0.3,0.12c-0.22-0.25-0.39-1.01-0.53-1.13
		c-1.48-1.22-3.31-2.92-5.17-4.22c-0.67-0.47-1.4-1.43-2.26-1.49c0.12-0.22,0-0.13,0.3-0.18c-0.02-0.12-0.04-0.24-0.06-0.36
		c-1.35-0.48-2.69-1.79-4.16-1.84v-0.06c0.41-0.11,0.33-0.29,0.59-0.3c-0.04-0.14-0.08-0.28-0.12-0.42
		c-1.13-0.35-2.44-0.97-3.69-0.95c0.04-0.12,0.23-0.28,0.36-0.48c0.04-0.04,0.08-0.08,0.12-0.12c-0.6-0.6-2.26-0.89-3.33-0.95
		c0.01-0.29,0.1-0.21-0.24-0.3h0.42c0.02-0.04,0.04-0.08,0.06-0.12c-1.03-0.31-2.25-0.5-3.56-0.47c0.08-0.58-5.27-1.92-5.35-1.9
		c-0.11-0.14-0.08-0.02,0-0.18c-0.16-0.02-0.32-0.04-0.48-0.06c1.52-0.76,6.07,1.11,6.48,0.89c0.36,0.3,0.69,0.09,0.83,0.54
		c0.18-0.16-0.01-0.06,0.24-0.06c0.11-0.24,0.11-0.17,0.12-0.42c1.19,0.36,2.38,0.71,3.57,1.07c0.08-0.22,0.02-0.3,0-0.71
		c1.31,0.33,2.5,0.73,3.98,0.89c-0.06-0.16-0.12-0.32-0.18-0.48c0.22,0.08,0.09,0.09,0.3,0c0.05-0.14,0.01-0.05-0.12-0.3
		c0.83,0.12,1.66,0.24,2.5,0.36h0.95c-0.07-0.26-0.12-0.23-0.24-0.42c0.26-0.06,0.51-0.12,0.77-0.18c0.02-0.04,0.04-0.08,0.06-0.12
		h3.39c-0.08-0.21-0.13-0.21-0.24-0.36c0.06,0.02,0.12,0.04,0.18,0.06c-0.04-0.15,0.03-0.03-0.12-0.18
		c0.08-0.02,0.16-0.04,0.24-0.06c0.11,0.04,0.5-0.07,0.24-0.12c0.28-0.25,2.35-0.05,2.85-0.06c0.02-0.06,0.04-0.12,0.06-0.18
		c-0.17-0.35-0.28-0.79-0.59-1.01c-0.04-0.06-0.08-0.12-0.12-0.18V71.6c0.25,0.02,2.29,0.24,3.03-0.06c0.49-0.2,0.19-0.35,0.83-0.36
		c-0.02-0.16-0.04-0.32-0.06-0.47h0.42v-0.06c-0.12-0.02-0.24-0.04-0.36-0.06c-0.04-0.14-0.08-0.28-0.12-0.41
		c0.12-0.02,0.24-0.04,0.36-0.06v-0.06c-0.12-0.02-0.24-0.04-0.36-0.06c0.79-0.43,1.78-0.6,2.79-0.59c0.01-0.51,0.27-0.81-0.24-1.07
		h0.24c0.09-0.14,0.04-0.06-0.12-0.12c0.97-0.4,3.29-0.29,3.27-1.43c0.18-0.06-0.22-0.17-0.36-0.18c0.57-0.9,2.46-0.72,3.09-1.43
		c0.14-0.19,0.01-0.19-0.12-0.41c2.64-1.19,5.48-1.51,7.96-2.79C93.13,61.91,93.15,61.85,93.17,61.8z M79.8,44.27h0.06
		c-0.04,0.04-0.08,0.08-0.12,0.12C79.76,44.35,79.78,44.31,79.8,44.27z M65.06,41v0.12H65C65.02,41.08,65.04,41.04,65.06,41z
		 M49.79,61.32c0.04-0.02,0.08-0.04,0.12-0.06c-0.02,0.03,0.04,0.05-0.12,0.12V61.32z M49.55,13.96h0.06
		c-0.02,0.06-0.04,0.12-0.06,0.18V13.96z M46.47,68.33h0.06c-0.02,0.06-0.04,0.12-0.06,0.18V68.33z M26.56,72.85
		c0.02-0.04,0.04-0.08,0.06-0.12h0.06C26.64,72.77,26.6,72.81,26.56,72.85z M43.38,84.2c0.12,0.13,0.05,0.11,0.12,0.3
		C43.37,84.37,43.41,84.43,43.38,84.2z M44.68,91.33v-0.24c0.02,0.08,0.04,0.16,0.06,0.24H44.68z M44.92,68.57
		c0.02-0.06,0.04-0.12,0.06-0.18C45.03,68.54,45,68.44,44.92,68.57z M47.18,71.48v-0.06c0.06-0.02,0.12-0.04,0.18-0.06h0.12
		C47.36,71.46,47.39,71.44,47.18,71.48z M48.5,70.04c0,0.01-0.01,0.01-0.01,0.02C48.53,70.02,48.53,70.02,48.5,70.04z M82.89,38.33
		c-0.02-0.04-0.04-0.08-0.06-0.12c-0.02,0.04-0.04,0.08-0.06,0.12H82.89z M52.7,52.76h0.06c-0.02-0.06-0.04-0.12-0.06-0.18V52.76z
		 M71.9,55.26h-0.12c-0.02,0.04-0.04,0.08-0.06,0.12C71.78,55.34,71.84,55.3,71.9,55.26z M40.7,62.81v0.12
		c0.11-0.08,0.04,0,0.12-0.12H40.7z M79.56,68.39h-0.12v0.18C79.48,68.51,79.52,68.45,79.56,68.39z M48.19,70.71
		c-0.04-0.04-0.08-0.08-0.12-0.12C48.15,70.7,48.08,70.62,48.19,70.71z M26.32,72.97c0.08,0.11,0,0.04,0.12,0.12
		C26.4,73.04,26.36,73.01,26.32,72.97z M59.12,74.04H59C59.11,74.09,59.02,74.09,59.12,74.04z M43.91,76.59v0.3
		c0.02,0.02,0.04,0.04,0.06,0.06c0.04-0.02,0.08-0.04,0.12-0.06C44.03,76.66,44.07,76.71,43.91,76.59z M43.61,79.44v0.24
		c0.04-0.08,0.08-0.16,0.12-0.24H43.61z M43.44,82.29v0.24c0.03-0.06,0.06-0.11,0.08-0.17c0-0.02,0-0.05,0-0.07H43.44z M45.22,84.2
		h0.06c-0.02-0.06-0.04-0.12-0.06-0.18V84.2z M42.96,86.1v0.24h0.06c0.02-0.08,0.04-0.16,0.06-0.24H42.96z M43.02,88.59
		c0.15-0.18,0.18-0.81,0.06-1.07c0,0.46-0.02,0.79-0.12,1.01C42.98,88.55,43,88.57,43.02,88.59z M75.22,89.13
		c-0.02-0.06-0.04-0.12-0.06-0.18v0.18H75.22z M45.04,90.08c0.02-0.1,0.04-0.2,0.06-0.3h-0.18c-0.02,0.11-0.04,0.23-0.05,0.36
		C44.92,90.12,44.98,90.1,45.04,90.08z M42.07,98.46c0.04,0.04,0.08,0.08,0.12,0.12h0.06C42.14,98.46,42.25,98.53,42.07,98.46z"/>
</g>
</svg>
