<?xml version="1.0"?>
<svg xmlns:rdf="http://www.w3.org/1999/02/22-rdf-syntax-ns#" xmlns="http://www.w3.org/2000/svg" xmlns:dc="http://purl.org/dc/elements/1.1/" xmlns:cc="http://web.resource.org/cc/" xmlns:xlink="http://www.w3.org/1999/xlink" id="Layer_1" enable-background="new 0 0 360 252" xml:space="preserve" viewBox="0 0 360 252" version="1.1" y="0px" x="0px">
  <path d="m160.92 7.493c4.708-0.74 9.468-0.972 14.188-1.576 3.744-0.145 7.5-0.086 11.215 0.428 4.535 0.034 9.046 0.637 13.584 0.544 4.872-0.184 9.692 0.687 14.518 1.27 3.523 0.37 6.817 1.847 10.32 2.309 5.129 0.69 10.28 1.273 15.342 2.416 3.663 0.874 7.388 1.414 11.078 2.144 6.975 1.75 13.945 3.61 20.647 6.289 2.502 1.03 5.131 1.712 7.58 2.896 2.004 0.952 3.859 2.24 5.94 3.038 1.55 0.598 3.095 1.234 4.534 2.1 3.676 2.212 7.415 4.502 10.275 7.825 1.827 2.148 4.118 3.869 5.626 6.313 1.229 1.726 1.757 3.814 2.497 5.784 1.55 0.276 3.022-0.408 4.423-1.001 3.498-1.585 7.709-1.094 10.918 1.007 1.907 1.287 3.97 2.323 5.844 3.659 3.33 2.678 6.149 5.944 9.265 8.87 1.804 1.652 2.979 3.849 4.015 6.07 2.804 4.992 6.002 9.9 7.36 15.583 1.32 3.864 1.831 7.937 2.716 11.917 0.792 3.883 0.729 7.878 1.19 11.805 0.271 2.329 0.173 4.687-0.146 7.005-0.514 3.514-0.262 7.109-0.987 10.601-0.633 3.012-0.585 6.133-1.25 9.141-0.723 3.375-1.12 6.854-2.454 10.058-1.574 4.841-3.472 9.629-6.244 13.871-3.472 4.604-7.046 9.217-11.501 12.842-2.295 1.672-4.861 2.952-6.825 5.079-4.856 4.059-10.057 7.775-15.832 10.291-2.995 1.231-5.818 2.866-8.868 3.96-3.219 1.137-6.212 2.979-9.617 3.521-3.13 0.478-5.785 2.451-8.886 3.039-4.747 0.918-9.449 2.104-14.24 2.729-3.742 1.121-7.659 1.038-11.512 0.938-4.622-0.269-9.251 0.642-13.859 0.044-3.007-0.438-6.044-0.521-9.068-0.544-3.541-0.022-6.777-1.892-10.32-1.917-5.158-0.134-10.281-0.952-15.443-0.752-5.115-0.358-10.24-0.2-15.347 0.248-5.424 0.553-10.638 2.303-15.895 3.708-2.896 0.852-5.636 2.182-8.295 3.616-2.507 1.336-4.479 3.459-6.69 5.22-3.115 2.508-5.167 6.07-7.237 9.478-3.664 6.188-5.908 13.269-6.3 20.529-1.622-3.323-2.029-7.107-2.329-10.771-0.191-5.506-0.594-11.124 0.707-16.53 0.816-3.833 2.85-7.257 3.626-11.104-2.965 0.355-5.667 1.755-8.524 2.548-9.248 2.433-18.827 3.153-28.346 3.212-5.121 0.07-10.212-0.548-15.317-0.764-6.877-0.626-13.669-2.095-20.279-4.12-3.977-1.163-8.151-1.706-11.889-3.633-4.422-1.938-8.615-4.354-12.906-6.573-1.194-0.647-2.23-1.542-3.26-2.427-2.712-2.396-6.034-4.005-8.403-6.824-2.375-2.871-5.2-5.33-7.355-8.397-1.625-2.499-3.705-4.637-5.298-7.155-1.218-2.459-2.352-4.967-3.729-7.34-1.809-4.192-3.393-8.495-4.85-12.836-0.768-2.143-0.354-4.452-0.716-6.652-0.365-1.827-2.486-1.975-3.761-2.844-4.09-2.153-5.622-6.921-7.13-11.077-0.825-2.663-1.949-5.233-2.59-7.956-0.426-2.819-0.524-5.688-0.365-8.53-0.141-6.319-0.202-12.657 0.22-18.971 0.563-4 2.717-7.465 4.16-11.154 1.658-3.437 2.797-7.179 5.061-10.271 2.88-3.96 5.447-8.204 8.938-11.64 3.523-4.021 7.86-7.082 11.838-10.567 1.809-1.472 4.038-2.229 5.944-3.553 3.644-2.46 7.364-4.841 11.331-6.712 5.266-2.426 10.024-6.027 15.642-7.606 4.643-1.958 9.19-4.175 13.933-5.891 5.831-1.711 11.578-3.733 17.462-5.273 5.257-1.277 10.46-2.805 15.768-3.845 10.423-1.535 20.738-3.936 31.255-4.704 4.98-0.69 9.9-1.856 14.9-2.44z" fill="#fff"/>
  <g>
    <path d="m169.69 0.568c4.567-0.249 9.167-0.958 13.734-0.279 2.364 0.307 4.722 0.827 7.121 0.764 3.905-0.122 7.804 0.403 11.711 0.225 5.477-0.287 10.857 0.977 16.208 2.002 7.936 1.142 15.856 2.435 23.782 3.654 4.777 1.352 9.645 2.305 14.455 3.504 10.24 1.789 19.876 6.018 29.345 10.301 3.278 1.399 5.82 4.063 8.928 5.783 2.971 1.651 5.073 4.467 7.697 6.595 3.344 2.854 5.942 6.475 8.899 9.722 3.05 0.096 6.178-0.292 9.144 0.714 4.175 1.36 8.53 2.648 12.044 5.478 1.804 1.352 3.694 2.615 5.194 4.345 2.521 2.887 5.388 5.438 7.789 8.438 3.271 4.52 5.722 9.613 7.726 14.853 1.637 3.704 2.644 7.646 3.768 11.534 1.091 3.616 1.611 7.388 1.906 11.154 0.249 4.229 1.031 8.418 0.829 12.671 0.112 5.876-1.091 11.641-1.768 17.441-1.03 8.084-2.506 16.222-5.753 23.695-2.359 4.418-4.604 8.962-7.762 12.846-3.61 4.539-7.977 8.4-12.765 11.549-3.912 2.514-7.575 5.419-11.322 8.181-2.524 1.911-5.509 2.975-8.16 4.66-2.923 1.856-6.183 2.979-9.289 4.441-2.604 1.26-5.49 1.65-8.146 2.771-7.167 2.939-14.821 4.21-22.384 5.567-10.249 1.807-20.677 1.197-31.02 1.377-3.925 0.104-7.813-0.516-11.726-0.763-3.435-0.665-6.891-1.221-10.313-1.935-3.098-0.613-6.259-0.141-9.379-0.457-2.017-0.229-4.044-0.39-6.067-0.307-3.531 0.145-7.067-0.331-10.591 0.077-3.85 0.471-7.785 0.438-11.547 1.531-2.998 0.865-5.616 2.674-8.469 3.908-3.499 1.476-6.815 3.425-9.583 6.113-2.479 1.885-3.852 4.789-5.562 7.344-1.525 2.4-2.422 5.163-4.015 7.525-1.845 2.666-2.445 5.952-3.302 9.048-0.501 3.334-1.557 6.65-1.219 10.063 0.132 1.801 0.712 3.522 1.021 5.298-4.97-2.293-7.738-7.578-9.435-12.671-1.615-4.661-1.521-9.658-1.826-14.526-0.211-4.937 0.463-9.843 1.002-14.733-3.805 0.396-7.57 1.146-11.378 1.546-10.919 1.084-21.909 0.672-32.853 0.244-8.118-0.906-16.1-2.801-23.994-4.924-4.422-1.195-8.797-2.62-13.013-4.464-2.782-1.205-5.26-3.021-7.963-4.389-5.477-2.755-10.029-7.032-14.64-11.075-5.442-5.59-10.731-11.521-14.465-18.514-1.635-3.192-3.583-6.212-4.844-9.595-2.309-4.708-2.721-10.066-4.131-15.071-0.613-1.133-1.719-1.833-2.614-2.699-2.313-1.974-3.34-4.985-4.856-7.565-2.113-3.689-3.256-7.845-4.475-11.908-1.151-3.757-0.764-7.747-1.134-11.617-0.243-6.469-0.426-12.971 0.141-19.427 0.259-5.6 2.572-10.794 4.918-15.743 1.706-2.881 2.437-6.299 4.501-8.957 2.957-3.889 5.668-7.986 8.953-11.598 1.747-1.929 3.902-3.388 5.743-5.215 1.859-1.822 3.855-3.479 5.912-5.056 3.077-2.391 6.614-4.048 9.654-6.497 2.211-1.774 4.89-2.683 7.312-4.073 2.539-1.453 5.229-2.596 7.71-4.155 3.266-2.027 6.929-3.185 10.419-4.7 2.909-1.124 5.649-2.688 8.614-3.675 1.424-0.491 2.867-0.948 4.269-1.526 4.983-2.076 10.212-3.393 15.351-4.987 2.758-0.87 5.64-1.312 8.352-2.36 1.485-0.574 3.051-0.866 4.609-1.114 12.797-2.483 25.563-5.264 38.515-6.756 2.693-0.365 5.384-0.777 8.034-1.4 2.455-0.592 5.007-0.462 7.466-1.024 2.98-0.68 6.02-0.724 9.01-1.199m-8.77 6.925c-5.002 0.583-9.921 1.75-14.91 2.43-10.517 0.769-20.833 3.169-31.255 4.704-5.308 1.041-10.51 2.567-15.769 3.845-5.883 1.54-11.63 3.563-17.462 5.273-4.742 1.715-9.29 3.932-13.932 5.891-5.617 1.58-10.375 5.181-15.643 7.606-3.967 1.871-7.687 4.251-11.33 6.712-1.906 1.322-4.137 2.081-5.944 3.553-3.978 3.486-8.315 6.548-11.838 10.567-3.49 3.436-6.058 7.679-8.938 11.64-2.263 3.091-3.4 6.834-5.06 10.271-1.444 3.689-3.599 7.155-4.161 11.154-0.421 6.313-0.36 12.651-0.22 18.971-0.159 2.843-0.062 5.71 0.365 8.53 0.642 2.722 1.766 5.292 2.59 7.956 1.508 4.156 3.04 8.925 7.13 11.077 1.273 0.869 3.396 1.017 3.761 2.845 0.361 2.199-0.051 4.51 0.716 6.651 1.458 4.341 3.041 8.644 4.85 12.836 1.376 2.373 2.51 4.881 3.729 7.34 1.592 2.52 3.673 4.656 5.298 7.155 2.155 3.067 4.979 5.526 7.355 8.397 2.37 2.819 5.69 4.429 8.402 6.825 1.03 0.884 2.066 1.777 3.261 2.426 4.291 2.22 8.482 4.635 12.905 6.574 3.738 1.926 7.912 2.469 11.89 3.632 6.608 2.025 13.401 3.495 20.278 4.121 5.105 0.215 10.197 0.834 15.318 0.763 9.518-0.059 19.098-0.779 28.345-3.212 2.858-0.793 5.561-2.191 8.525-2.548-0.777 3.849-2.812 7.271-3.626 11.104-1.301 5.406-0.898 11.024-0.707 16.53 0.299 3.662 0.707 7.446 2.329 10.771 0.393-7.262 2.636-14.342 6.3-20.529 2.07-3.406 4.122-6.97 7.237-9.478 2.211-1.761 4.184-3.884 6.689-5.22 2.661-1.435 5.4-2.766 8.295-3.616 5.257-1.405 10.471-3.155 15.896-3.708 5.104-0.448 10.229-0.606 15.347-0.248 5.162-0.2 10.285 0.618 15.443 0.752 3.543 0.025 6.778 1.895 10.319 1.917 3.025 0.022 6.063 0.105 9.069 0.544 4.608 0.598 9.237-0.313 13.859-0.044 3.852 0.102 7.769 0.185 11.512-0.938 4.791-0.623 9.493-1.811 14.24-2.729 3.1-0.588 5.756-2.563 8.886-3.039 3.405-0.543 6.398-2.386 9.617-3.521 3.05-1.094 5.873-2.729 8.868-3.96 5.774-2.516 10.976-6.232 15.832-10.291 1.964-2.127 4.529-3.407 6.824-5.079 4.455-3.625 8.03-8.238 11.501-12.842 2.773-4.242 4.67-9.03 6.244-13.871 1.334-3.203 1.732-6.683 2.454-10.058 0.666-3.008 0.618-6.129 1.251-9.141 0.727-3.49 0.475-7.087 0.987-10.601 0.319-2.319 0.418-4.676 0.146-7.004-0.463-3.928-0.397-7.923-1.189-11.806-0.885-3.98-1.396-8.053-2.716-11.917-1.358-5.683-4.559-10.591-7.36-15.583-1.034-2.222-2.211-4.418-4.015-6.069-3.114-2.927-5.936-6.192-9.266-8.871-1.874-1.336-3.936-2.372-5.843-3.659-3.209-2.101-7.42-2.592-10.918-1.007-1.4 0.593-2.873 1.277-4.423 1.001-0.74-1.968-1.27-4.059-2.497-5.784-1.508-2.444-3.799-4.165-5.626-6.313-2.861-3.323-6.602-5.613-10.276-7.825-1.438-0.864-2.983-1.5-4.534-2.1-2.081-0.798-3.937-2.085-5.939-3.038-2.449-1.186-5.078-1.865-7.58-2.896-6.702-2.679-13.674-4.539-20.648-6.289-3.689-0.729-7.415-1.27-11.077-2.144-5.062-1.143-10.214-1.726-15.343-2.416-3.503-0.462-6.797-1.938-10.319-2.309-4.824-0.583-9.646-1.453-14.518-1.269-4.539 0.092-9.05-0.511-13.584-0.544-3.715-0.515-7.471-0.573-11.215-0.429-4.71 0.628-9.47 0.86-14.18 1.6z" fill="#010101"></path>
    <text font-family="Verdana" font-size="20" font-weight="normal" style="stroke: none; stroke-width: 1; stroke-dasharray: ; stroke-linecap: butt; stroke-linejoin: miter; stroke-miterlimit: 10; fill: #000000; opacity: 1;" transform="translate(30 80)">Lorem ipsum dolor sit amet</text>
  </g>
</svg>
