<?xml version="1.0" encoding="utf-8"?>
<!-- Generator: Adobe Illustrator 15.0.0, SVG Export Plug-In  -->
<!DOCTYPE svg PUBLIC "-//W3C//DTD SVG 1.1 Tiny//EN" "http://www.w3.org/Graphics/SVG/1.1/DTD/svg11-tiny.dtd" [
	<!ENTITY ns_flows "http://ns.adobe.com/Flows/1.0/">
]>
<svg version="1.1" baseProfile="tiny"
	 xmlns="http://www.w3.org/2000/svg" xmlns:xlink="http://www.w3.org/1999/xlink" xmlns:a="http://ns.adobe.com/AdobeSVGViewerExtensions/3.0/"
	 x="0px" y="0px" width="363px" height="600px" overflow="visible" xml:space="preserve">
<defs>
</defs>
<path fill="#000100" d="M139.22,345.56c1.06,4.66-0.07,11.1-0.07,11.1l-2.58,1.57l-0.72-2.69
	C138.38,354.99,139.22,345.56,139.22,345.56 M152.75,359.03l3.25,2.31l2.37-1.83l-1.27-1.59l-1.7-11.88
	C155.48,347.71,154.45,358.8,152.75,359.03 M143.13,358.65l1.31,2.19c0-1.99,4.38-2.15,4.38-2.15c-1.78,0-2.31-15.76-2.31-15.76
	L143.13,358.65z M283.27,282.89c0,0-2.13,7.78-5.49,10.81c1.5,0.78,2.99,1.59,4.47,2.42C283.23,292.98,283.84,288.66,283.27,282.89
	 M245,313.8c1.39-1.13,4.43-2.92,6.31-4.53c-1.37-0.51-3.72-1.24-5.1-1.7c-0.02,1.83-0.73,3.95-2.83,6.23
	C243.5,313.69,244.14,314.5,245,313.8 M242.51,240.57c-0.15,0.16-1.85-1.38-3.24-0.79c-0.86,0.37-1.77,1.11-2.66,2.1
	c-5.7-2.71-6.85-9.92-7.95-19.29c-0.16-1.33,0.32-5.09-1.46-3.33c0,0-3.45,19.36,5.69,28.32c-3.53,7.43-5.22,19.71-0.3,28.96
	c0,0,13.55,4.08,21.57,7.61c0.31-0.01,0.36-0.53,0-0.77c-5.78-3.82-14.61-8.29-17.86-9.6C230.15,271.29,233.33,248.58,242.51,240.57
	 M233.12,309.06c1.53-0.34,6.29-1.71,8.78-3.45c-1.08-0.27-2.89-1.14-4.27-1.59c-0.79,2.12-3.84,4.08-6.31,4.62
	C231.31,308.63,232.14,309.72,233.12,309.06 M219.98,245.73c0,0,0.02-4.22-1.69-5.45c-5.68-4.1-21.28-10.21-42.41-2.57
	c-0.66,0.24-1.7,1.43-1.98,1.99C180.35,237.35,199.05,232.53,219.98,245.73 M133.23,238.89c-11.45-9.38-20.41-9.97-24.56-8.66
	c-1.26,0.4-3.17,3.09-3.34,3.19c12.03-4.56,26.7,5.39,28.15,6.4C133.9,239.64,133.48,239.1,133.23,238.89 M181.05,303.26
	c-0.93,0.39-0.86,1.64-0.51,1.92c10.62,8.52,24.24,4.7,28.83,2.49c1.59-0.69,0.79-1.88,0.89-1.94
	C194.32,312.08,182.13,304.01,181.05,303.26 M182.8,354.12l2.73,1.54c0,0,0.94-4.31,4.85-3.64c0,0-2.01-1.6-4.73,1.08
	c0,0-2.13-4.42-2.85-9.94C182.8,343.17,182.13,353.19,182.8,354.12 M172.22,355.62c0.42,0.08,4.1,0.84,4.81,2.6
	c0,0,0.8-3.9,2.83-3.9c0,0-1.36-0.28-2.58,0.67c0,0-1.94-7.42-1.8-13.5c0,0-0.71,11.66-0.1,13.73
	C175.38,355.23,173.14,355.67,172.22,355.62 M166.7,358.76l0.34-2.04l1.3-0.83c-2.01-0.54-3.4-12.68-3.4-12.68
	c-0.4,2.56-1.01,14.11-1.01,14.11L166.7,358.76z M205.8,353.28l-0.22,0.13c0.04-0.02,0.09-0.04,0.13-0.04
	C205.75,353.35,205.78,353.32,205.8,353.28 M110.34,281.48c-1.59-1.34-3.08-3.03-4.12-4.74c-0.22,0-2.5,0-2.72,0
	c1.62,2.4,4.11,4.06,5.49,4.63C110.34,281.84,110.34,281.48,110.34,281.48 M220.7,115.11c-36.74-4.3-68.02,6.18-89.63,24.45
	c-17.96,15.2-26.4,34.33-31.98,46.98l-1.21,2.74c-8.81,19.69-3.78,37.25-1.98,42.31c-4.24,5.48-5.6,12.25-4.86,18.4
	c1.72,0.46,3.44,0.89,5.17,1.29c-1.54-5-2.02-12.76,5.04-20.62c8.56-9.53,9.01-19.79,8.27-24.36c-0.29-1.76-1.26-2.05-1.26-2.05
	s1.49,10.89-8.04,20.38c-4.44-16.59,2.11-33.33,2.11-33.33c20.46-58.36,69.04-69.79,96.29-71.25
	c-37.63,9.56-45.46,50.52-44.54,77.18c0.11,3.08,1.25,2.02,1.27,0c0.29-29.48,12.86-74.36,62.26-76.61c0.04,0,0.08,0.01,0.13,0.01
	c0.42,0.06,0.8,0.12,1.2,0.16c124.58,12.67,98.96,113.15,98.96,113.15c0.38,9.76-7.88,33.31-20.36,44.45
	c-1.62,1.45-5.49,1.74-6.2,0.42c-2.77-5.16-10-13.11-13.97-13.91c0,0,13.89,11.6,12.25,24.06c-0.05,0.3-0.1,0.62-0.16,0.95
	l-0.99,4.58c-0.39,1.44-0.86,2.9-1.38,4.38c1,0.58,2.01,1.15,3.02,1.73c1.6-4.47,2.56-9.9,3.06-13.3
	c13.7-11.12,30.13-30.56,31.85-60.13c0,0,7.74-33.95-13.48-67.05C296.74,137.04,256.88,119.33,220.7,115.11 M238.1,385.66
	c-2.84,3.76-26.55,40.92-52.62,47.74c-2.59,0.68-4.62,1.48-6.9,1.59c-6.26,0.3-13.02-4.79-17.51-5.52
	c-5.27-0.86-10.63,2.27-13.13,0.42c-2.84-2.1-2.76-5.99-2.91-6.21l-0.12-0.17l-0.07-0.2c0,0-1.19-14.04-11.03-27.8
	c-0.82-1.08-4.55-6.52-3.19-12.23c-0.92-2.15-0.65-4.71-0.08-6.81c-1.02-1.15-1.94-2.92-2.73-5.32c-1.6-0.73-3.52-2.82-3.79-8.56
	c-0.11-2.26,0.04-5.06,0.46-8.28l0.06-1.58c-0.7-1.96-2.01-7.61,1.52-16.42c0.01-0.53,0.05-1.87,0-3.69
	c-0.86-2.62-2.78-6.96-6.43-8.61c-2.92,0.39-16.42,1.18-21.55-16.28c-0.12-0.36-2.59-8.44,0.04-14.03
	c-1.1-3.17-3.2-10.85-1.11-17.69c1.13,0.23,2.26,0.39,3.4,0.5c-0.83,2.35-1.73,6.71,0.1,12.06c0.3,0.88,1.97,2.04,2.39,1.31
	c0.82-1.43,1.52-4.17,1.31-9.87c0,0,0.47,0.39,0.64,1.24c0.62,3.01,1.31,10.31-2.27,13.06c-4.58,3.5-1.88,26.7,17.81,25.62
	c0,0,2.87,1.35,5.19,3.41c0.77,0.68,1.8,0.42,1.67-0.53c-1.14-8.34-4.08-17.47-11.45-17.18c0,0,7.82-3.51,12.4,8.9
	c0,0,3.23-1.08,0.82-4.32c-2.35-3.13,2.1-14.58,2.42-15.32c-0.13,0.81-1.94,14,2.16,17.49c0,0,1.13,2.51,1.08,6.59
	c-0.04,1.88-0.29,4.11-1.07,6.57c0.1-0.64,1.26-8.39-0.82-10.2c-1.26-1.12-3.01,6.73-3.05,6.96c-0.73,4.54-1.09,10.09,0.21,14.58
	c0.41,1.43,1.22,2.73,1.68,4.15c0.05,0.16-0.56,0.45-1-0.08l-1.61-2.42c0,0-3.65,10.34-0.42,14.49c5.91-3.48,5.78-11.56,5.78-11.56
	c0.93,4.5-0.74,11.3-4.03,14.06l0.27,1.73l0.09-0.02c0.74-4.39,5.66,2.42,5.66,2.42c0.81-0.68,1.62-0.95,2.42-0.95
	c2.3,0,4.49,1.66,5.77,3.36c0.78,1.01,1.4,1.18,1.4,1.19c6.43-6.13,10.51,1.27,10.51,1.27c6.28-10.6,10.82-0.74,10.82-0.74
	c4.32-11.33,10.19-2.73,10.19-2.73c4.48-9.17,8.33-1.05,8.33-1.05c1.79-6.47,6.65-4.14,6.65-4.14c1.65-5.98,4.62-6.45,5.81-6.15
	c0.2-0.37,4.83-0.37,0.51-7.24c0,0,2.37,0.87,3.09,3.09c0.32,0.97,1.21-0.26,0.84-2.11c-0.53-2.67-1.79-4.85-1.79-4.85
	c-4.77-7.24-14.27-12.64-17.03-12.6c-0.19,0.01-0.38,0.01-0.59,0.02c0.62-2.41,0.37-4.47,0-5.9c-3.51-2.15-7.31-7.11-11.76-15.7
	c-1.02-1.55,1.43-0.05,1.95,0.83c2.32,3.93,8.58,12.09,12.2,12.14c8.01,0.11,13.95-5.78,28.22-4.82c0.61,0.04,1.43,0,1.03,0.85
	c0,0-13.82-0.95-21.94,5.36c-2.23,1.74-4.93,3.08-7.51,2.33c0.67,1.63,0.86,3.16,0.92,3.9c8.61-0.28,18.85,5.75,22.61,8.17
	c20.16,5.76,34.71-3.61,42.41-10.84c4.13-3.87,6.29-7.13,6.29-7.13c0.48-1.08,1.02-2.01,1.59-2.81c0.97,0.36,1.94,0.71,2.92,1.05
	c0.08,0.03,0.15,0.05,0.23,0.08c-1.43,7.52,6.07,10.48,6.07,10.48c2.04-0.42,3.28-3.05,5.18-4.93c1.02,0.68,3.13,2.44,3.58,3.58
	c-1.88,1.91-5.58,4.8-6.71,5.76c-2.33,1.97-4.76,2.19-6.82,1.49c-1.81-0.61-3.11-2.21-4.07-3.98c-1.6,7.47-4.65,17.88-5.83,21.84
	l-0.16,0.96C260.49,375.79,239.61,383.27,238.1,385.66 M210.58,360.39c-1.8,0-2.92,1.48-2.36,2.96c-0.04,0.33-0.33,0.26-0.41,0.08
	c-0.48-1,0.09-2.62,0.09-2.62c0.34-0.53-0.18-0.68-0.49-0.83c-0.18-0.08-0.19-0.26-0.19-0.26c1.42,0,2.76-1.38,3.6-2.53
	c-3.23,1.5-3.72,1.55-4.8,3.08c-0.7,0.97-0.13,2.25,0.6,3.25c1.01,0.38,2.18,1.02,3.28,1.71c2.11,0.65,3.29,3.43,3.58,3.68
	c1.66-1.21,3.57-3,4.06-4.34c0.23-1.17,0.25-2.63,0.32-2.55c0.17-2.62-1.38-4.75-1.99-5.77
	C211.78,356.11,210.58,360.39,210.58,360.39 M209.41,346.16c0.04-0.02,1.19-0.47,1.5-1.26c1.48-2.56,0.09-6.02-0.72-7.26
	c-0.27-0.41-1.35,0.29-1.35,0.29c0.27,1.43-1.68,3.27-2.52,4.01C204.62,343.35,208.18,348.3,209.41,346.16 M202.57,354.43
	c0.15,0,1.83,1.63,3.41-0.54c2.12-2.92,0.49-6.37-0.62-7.83c-0.54,1.2-2.24,2.58-3.07,3.36c-0.11,0.21-0.2,0.42-0.28,0.64
	c0.01-0.01,0.03-0.02,0.03-0.02c-0.01,0.01-0.03,0.03-0.04,0.04C201.33,352,202.05,353.97,202.57,354.43 M199.4,368.49
	c-1.53,0-2.15,1.46-2.4,2.47c0.73,0.68,1.92,1.59,2.93,1.43c0,0,0.8,0.36,1.73,1.03c0.63,0.59,2.28,2.16,2.62,2.92
	c1,0.17,2.72,0.1,3.46-2.07c0,0,2.7-1.21,2.57-5.53c-0.13-4.32-6.74-2.42-5.79-1.89c0.95,0.54,0.79,2.02,0.79,2.02
	c-1.75-2.02-2.95-0.39-2.95-0.39c0.88,1.17,0.27,1.78-0.47,2.1c-0.61,0.26-0.48-0.03-0.4-0.26c0.24-0.68-1.03-1.58-1.03-1.58
	c0.55,0,0.55-1.21,0.55-1.21c1.88,0.43,2.3-1.79,2.38-2.78C198.8,363.93,199.4,368.49,199.4,368.49 M177.74,393.31
	c0,0,5.04,2.87,6.65-1.09c1.17-2.83-0.82-6.67-2.02-8.64l-0.75-0.26c-1.12,0.03-1.68,1.3-2.36,1.67c-1.35,0.72-2.24,0.9-2.49,1.97
	c0.05,0.22,0.1,0.44,0.15,0.68C177.29,389.08,177.81,392.24,177.74,393.31 M186.01,389.5c0,0,2.67,2.19,6.23-3.5
	c0.88-4.34-2.17-7.46-3.39-8.52c-1.95-0.08-2.03,1.51-2.85,2.28c-0.93,0.88-2.46,1.03-2.56,2.07c0.07,0.14,0.12,0.27,0.22,0.41
	C184.05,383.15,186.08,387.97,186.01,389.5 M193.48,382.58c0.19,0.5,0.35,0.7,0.51,1.01c5.36,1.99,8.71-4.56,9.54-6.42
	c-0.32-0.87-0.99-1.72-2.24-2.49c0,0-3.11-0.69-3.11,0.81c0,1.26-1.94,3.79-4.42,2.69c-0.43-0.19-0.64-0.73,0-0.76
	c0.88-0.03,1.87-0.43,1.87-2.06c0,0,5.12-1.37,2.28-2.83c0,0-1.13-0.42-2.22-0.59c-1.89,0.51-1.4,2.86-1.4,2.86
	c-2.61-0.21-3.58,1.61-3.91,2.41C191.31,378.31,193.48,382.58,193.48,382.58 M193.56,355.97c0,1.68,0.2,5.08,1.44,6.86
	c0.51,0.55,0.69,0.53,1.22,0.27c2.76-0.56,5.87-6,3.28-9.54C197.24,350.45,194.87,353.55,193.56,355.97 M186.51,361.04l0.8,5.65
	c0,0,0.2,0.47,0.82,0.76l0.88,0.33c1.61,0.47,4.31,0.17,4.96-3.61l-1.72-6.21C188.76,354.26,187.01,359.61,186.51,361.04
	 M178.13,362.54c0.53,2.07,0.91,4.14,0.66,6.21c0,0,0.43,0.47,0.79,0.79l0.84,1.09c1.69,1.01,4.19,1.6,5.96-2.14l-0.69-5.38
	c-0.24-1.13-0.77-2.49-1.25-3.06C181.52,357.34,179.22,361.01,178.13,362.54 M169.27,373.13c0.9,1.01,2.07,1.91,2.07,1.91
	c2.27,1.71,2.75,3.05,3.73,2.97c0.94-0.08,1.95-2.75,2.44-7.1c0,0,0.71-5.4-0.68-8c-3.78-7.09-7.2,0.84-8,2.63
	C168.04,367.32,168.37,372.11,169.27,373.13 M167.43,390.12c0.23,0.87,0.86,5.2,0.93,6.56c1.35,0.58,6.6,2.49,8.31-2.68
	c0,0,0.35-3.14-0.73-5.59c-1.82-1.35-3.06,0.05-4.67,0.21C169.65,388.79,168.14,389.15,167.43,390.12 M156.88,375.85
	c0,0,0.03,0.02,0.05,0.05l1.2,0.94c2.04,1.41,6.22,3.27,8.84-2.24c-0.1-3.41-0.43-6.81-1.04-10.22c-4.45-4.58-7.57,0.13-8.99,2.19
	C156.72,369.7,156.61,372.81,156.88,375.85 M166.52,392.31c-0.09-0.29-0.25-0.97-0.87-2.06c-0.18-0.11-0.35-0.21-0.53-0.3
	c-1.07-0.54-1.86,0.38-2.81,0.54c-1.1,0.19-2.32-0.28-3.01,0.21c1.28,11.72,7.46,7.26,7.46,7.26
	C167.53,396.55,167.11,394.22,166.52,392.31 M154.53,390.88c-1.18-0.15-2.09-0.74-2.79-0.42c-0.03,0.26-0.05,0.49-0.07,0.75
	c-0.21,0.7,0.45,5.18,1.13,6.08c1.12,1.48,1.93,1.37,3.39,1.42c1.66-1.64,1.97-5.72,1.7-7.24
	C156.71,390.55,155.51,391.01,154.53,390.88 M145.19,375.79c0.01,0.45,0.77,1.61,1.82,1.95c1.5,0.49,3.76,0.88,5.89-0.06
	c0,0,2.53-0.51,2.66-0.67c0.63-3.11,0.27-7.33,0.2-10.59c-3.3-5.05-7.54-2.71-9.35-1.36C145.82,368.91,145.15,373.11,145.19,375.79
	 M150.2,390.41c-0.49-0.73-1.65-0.39-2.39-0.64c-0.8-0.26-1.17-1.07-1.89-1.03c-0.04,0.08-1.24,2.81,0.59,7.08
	c0.87,1.22,3,3.46,3.81,0.87C149.09,395.32,149.82,391.9,150.2,390.41 M136.57,373.69c0.31,0.35,0.62,0.64,0.93,0.88
	c1.75,1.44,3.43,2.07,4.64,1.86l1.87-0.95l1.28-10.23c-0.42-0.83-0.87-1.53-1.33-2.13c-2.75-3.7-5.97-2.69-7.41-2.19
	C135.82,362.96,133.46,370.26,136.57,373.69 M144.46,388.94c-0.13,0.01-0.73-3.23-3.21-3.89c-0.73,0.29-1.27,0.88-1.27,0.88v0.07
	c-0.25,0.88-0.09,2.62-0.05,3.09c0.08,1.09,1.72,3.13,1.92,3.36c1.69,1.86,2.05,1.89,2.36,1.78
	C143.75,392.07,144.17,389.97,144.46,388.94 M140.04,384.16c-0.18-1.21-0.82-2.13-1.48-2.78h-0.05c-0.31,0.01-1.52,0.78-1.84,1.58
	c-0.26,1.35,0.07,3.33,0.59,5.3c0.66,0.75,1.21,2.01,1.64,0.94c-0.14-0.65-0.24-1.26-0.35-1.84
	C138.17,384.93,139.32,384.31,140.04,384.16 M138.47,380.3c1.38-0.22,1.37-1.45,1.12-2.44c-0.17-0.07-0.34-0.16-0.52-0.24
	c-0.02,0.29-0.05,0.56-0.09,0.8c-0.18,1.02-0.57,1.59-0.99,1.9C138.17,380.33,138.32,380.32,138.47,380.3 M130.09,357.39
	c-0.61-1.05-1.54-2.15-2.5-1.81c-0.31,2.68-0.44,5-0.33,6.89c0.07,1.58,0.28,2.77,0.55,3.65c0.05,0.08,0.1,0.15,0.15,0.22
	c0.25,0.69,0.53,1.35,0.88,0.7L130.09,357.39z M134.02,371.31c-0.05-2.12-0.05-7.98,1.43-10.34c-1.35-2.81-4.06-3.9-4.3-2.96
	c-0.66,2.94-2.43,12.43,1.55,13.88C133.27,372.13,134.08,372.03,134.02,371.31 M134.96,382.56c0.21-0.9,0.65-2,1.59-2.22
	c1.09-0.58,1.49-1.37,1.61-2.05c0.06-0.32,0.05-0.6,0.01-0.86c-0.6-0.8-1.26-1.11-1.9-1.13c-0.81,0.19-1.78,0.78-2.31,1.71
	C132.92,380.45,133.98,381.84,134.96,382.56 M250.85,343.92c0.49-1.9,0.88-3.85,1.13-5.7c1.67-8.39,2.53-15.23,2.68-16.46
	c-0.32,0.36-0.63,0.72-0.96,1.08c-2.59,2.83-5.17,5.17-7.7,7.13c0.52,5.54-1.45,12.67-2.64,15.04c-2.41,4.81-4.45,3.66-3.92-0.8
	c0.33-2.77,0.22-6.3-1.54-9.15c-4.04,1.99-7.79,3.06-11.07,3.59l0.05,0.04c4,34.83-21.13,47.08-23.31,48.07
	c-0.79,0.06-0.25-0.93,0.13-1.17c6.71-4.38,12.38-11.81,15.15-17.75c-3.42,3.55-6.53,3.08-6.53,3.08c0.1,2.2-3.13,4.13-3.13,4.13
	c-0.21,2.59-3.4,3-4.46,2.67c0.61,3.18-2.86,4.52-3.71,5.39c-2.32,2.38-5.05,2.22-6.3,2.08c-0.88,0.56-1.04,1.51-1.04,1.51
	c-0.13,0.87-1.86,2.17-3.4,3.14c-1.8,1.14-3.63,1.33-4.85,0.93c0,0-0.64,5.39-5.12,4.58c-0.75-0.13-1.61-0.45-2.61-0.99
	c0,0-1.91,7.14-9.66,4.03c0,0-0.45,1.41-1.93,1.96c-3.28,1.53-7.1-3.11-7.1-3.11c-0.25,0.94-0.89,1.64-1.25,2.16
	c-0.69,0.74-2.06,1.33-2.8,1.25c-1.94-0.25-2.77-1.74-3.74-2.47c-2.31,2.03-4.65,0.14-5.43-0.88c-0.85-0.85-0.86-0.9-1.23-1.86
	c-1.4,0.19-2.96-1.3-3.71-2.22c-0.35-0.25-1.13-1.47-1.56-2.28c-1.98,0-4.74-2.33-4.5-6.49c-0.2-0.07-0.4-0.18-0.58-0.27
	c0.09,5.94,2.85,9.98,4.3,11.68c1.03,0.78,1.99,1.24,2.05,1.26l2.19-0.34c0,0-0.88,4,4.34,3.95c0,0,3.75,9.36,3.09,10.94
	c0,0-0.16,0.14-0.3-0.38c-0.46-1.81-1.92-8-5.24-9.46c-2.55-1.11-2.98-1.4-3.16-2.59c-1.2-0.92-2.17,0.01-2.24,0.08
	c4.77,6.92,6.76,15.16,8.51,22.68c0,0,0.46,3.01,2.94,4.3c2.28,1.18,5.41-2.64,9.63-1.91c4.56,0.79,11.98,6.84,18.12,6.34
	c6.78-0.55,14.33-3.94,22.39-9.02c14.17-9.68,26.25-25.05,31.4-32.08c1.6-2.18-0.1-1.1-1.44-0.25c-9.73,6.18-16.97,12.49-19.77,15.2
	c-0.71,0.68-1.18,0.22-1.29,0.33c9.38-12.63,32.21-24.16,37.79-31.58c0.75-1.23,2.57-2.84,3.1-4.3c1.37-4.5,0.99-9.72,0.51-13
	c-0.29-1.96-0.96-1.05-1.27,0.08c-1.49,5.28-4.87,10.85-6.9,13.25c-0.79,0.93-2.53,1.15-2.65,1.27c3.89-5.4,7.77-15.61,9.92-24.59
	c0.19-0.66,0.38-1.33,0.57-2.04c0.02,0.09,0.06,0.16,0.06,0.25l0.04-0.09C250.89,344.09,250.89,344,250.85,343.92 M154.16,402.01
	c-1.28,1.27-2.63,1.23-3.55,0.65c-0.36-0.07-0.66-0.01,0.26,0.76c0.81,0.54,3.26,0.52,3.26,0.52c4.04,1.72,4.25,7.44,5.36,8.55
	c0,0-0.54-8.07-0.89-9.06C156.42,404.6,154.16,402.01,154.16,402.01 M166.44,403.95c-3.37,0.63-5.41-0.96-5.41-0.96
	c-0.23,0.21-0.96,0.53-0.06,1.1c1.46,0.92,2.92,1.33,2.92,1.33c4.12,2.35,3.24,7.64,3.24,7.64c1.62-1.08,0-6.11,0-6.11
	C167.2,406.96,166.77,404.72,166.44,403.95 M196.14,389.7l-1.11,1.6c-3.12,3.65-6.96,1.81-6.96,1.81c-0.83,2.29-2.41,4.4-4.64,5.14
	c-0.08,0.43-0.14,0.43-0.12,0.86c2.42-0.09,5.38-3.38,5.38-3.38c1.9,0.52,3.52-0.25,4.78-1.36c-0.07,1.53,0.06,4.54,2.02,5.21
	c-1.38-1.54-0.75-5.07-0.11-7.47c0.2-0.31,0.38-0.61,0.53-0.88C196.34,390.44,196.1,389.83,196.14,389.7 M153.76,287.47
	c0,0,0-0.02,0-0.04C153.75,287.45,153.76,287.47,153.76,287.47 M193.98,345.37c-1.45-0.1-1.69,1.57-1.24,4.82
	c0.15-0.32,0.88-3.27,2.91-3.38l2.08-0.17c-1.47-4.38-6.86-9.68-11.49-10.23c-0.23-0.03-0.61,0-0.61,0.29
	c5.61,1.32,8.68,6.34,9.81,8.58C194.98,345.18,194.58,345.37,193.98,345.37 M180.13,396.65c-0.12-0.31-0.79,0.45-0.67,1.05
	c-3.68,6.13-8.55,4.58-8.55,4.58c-2.03,0.94,1.46,2.05,1.67,2.12c0.96,1.43,2.38,4.15,1.5,6.82c1.9-1.34,1.56-5.23,0.69-7.19
	c1.61-0.45,2.59-1.19,3.75-2.36c0.59-0.62,2.23,0.93,1.36,3.33c0.04-0.03,0.4,0.61,0.6-0.18c0.24-0.97,0.36-1.97,0.49-2.96
	c0.1-0.84,0.1-1.57,0.02-2.26C180.85,398.64,180.55,397.73,180.13,396.65 M117.08,276.85c-0.67,0.35-1.61,0.54-2.87,0.47
	c-1.58-0.09-3.61-0.3-5.24-0.64c2.42,4.05,5.21,6.4,7.04,7.62c1.18,0.79,0.76,1.04-0.03,0.94c-2-0.25-1.7-0.2-4.22-0.64
	c-0.97-0.08-2.44,0.82-2.24,0.95c6.38,4.15,15.12,1.15,18.98-1.68c2.7-1.98,2.33-0.69,1.4,0.83c-6,9.81-16.17,9.05-17.89,8.83
	c-0.2,0.98,0.66,1.28,1.44,1.35c13.66,1.31,20.03-10.07,22.99-20.46c0.36-0.92,0.62-1.91,0.76-2.95c1.13-4.83,1.55-9.12,1.71-11.38
	c0.03-0.38,0.29-0.72,0.61-1.02c0.64,2.79,1.72,5.31,1.95,8.94c-0.97,12.98-7.58,21.87-7.58,21.87c-1.98,7.02,2.52,15.28,2.52,15.28
	c3.42,5.21,0.36,10.42,0.36,10.42c-0.25,1.24-0.35,2.36-0.35,3.38c0,5.88,2.86,10.36,4.22,11.25c0.41,0.25,1.15-1.11,1.14-1.34
	c-1.81-1.56-2.87-3.3-3.51-5.05l-0.57-2.15c-0.56-3.09,0.11-5.61,0.14-5.73c0.29-1.05,1.13-1.86,1.29-3.13
	c0.27-2.08,0.37-6.83-1.64-8.21c-0.65-0.44-2.2-7.4-2.2-7.4c-0.31-2.07-0.49-4.1-0.51-5.35l0.03-0.92c0.04-0.21,0.08-0.34,0.15-0.34
	c0.43,0,1.5-1.2,2.3-2.19c0.48-0.59,1.07-0.5,1.14-0.22c0.16,0.66,0.34,0.97,0.34,0.97l1.09,0.72l4.63,2.31l0.7,0.71
	c0.98,1.64,4.18,7.2,11.75,10.08l1,0.47c0.96,1.28,3.25,4.57,5.04,8.7l0.27,0.63c1.04,2.51,1.89,5.3,2.12,8.15l0.08,1.16
	c0.02,0.46,0.02,0.95-0.01,1.42l-0.15,1.48c-0.14,0.98-0.36,1.95-0.7,2.9c-0.43,1.21-1.1,1.94-0.74-0.89
	c0.13-1.04,0.2-2.25,0.16-3.6l-0.04-0.67c-0.02-0.47-0.07-0.96-0.13-1.45l-0.12-0.92c-0.34-2.2-1.01-4.69-2.18-7.4l-0.08-0.21
	c-1.11-2.51-2.65-5.22-4.73-8.06l-0.17-0.22c-0.05-0.07-0.08-0.13-0.14-0.19c0,0-7.06-1.58-11.74-9.71l-0.48-0.54
	c0,0-6.25-2.54-6.25-2.41v0.25c0.07,1.72,0.21,3.3,0.39,4.75l0.26,1.75c0.68,4.24,1.67,7.37,2.17,9.96l0.07,0.26
	c0.27,1.58,0.22,2.89,0.01,4.46c-0.01,0.04-0.01,0.08-0.03,0.11c-0.17,0.58-0.41,1.15-0.76,1.73c-1.16,1.92-1.24,4.05-0.9,5.98
	l0.09,0.4c0.07,0.36,0.16,0.7,0.26,1.05l0.13,0.37c0.79,2.39,2.43,5.05,2.57,5.26c0.4,0.01,0.88-0.6,0.8-0.77
	c-1.27-2.76,1.26-4.12,1.91-1.51c0.71,2.87-5.78,8.99-5.78,8.99c6.04,5.49,3.82,9.06,2.63,10.66c-0.22,0.29-0.32,1.01,0.01,1.29
	c6.14-4.66,0.27-11.96,0.27-11.96c5.17-6.26,7.72-7.66,10.99-7.8c-3.11,1.3-5.41,3.72-6.98,8.57c0.54,0.36,0.74-0.12,1.13-0.76
	c1.64-2.61,5.67-8.78,13.21-6.47c0.92,0.84,1.42,1.72,1.42,2.15c0,1.61-0.89,3.95-0.89,3.95c0.41-0.31,2.43,1.07,2.78,0.74
	c8.52-8.1-0.07-23.56-0.07-23.56l-5.29-9.76c-9.9-5.04-13.06-10.21-13.06-10.21l-5.76-3.23c0.81-1.58,1.39-3.06,1.81-4.46
	c2.43-8.3,3.51-19.74,0.48-27.97c-0.29-0.8-1.47-1.98-1.95-1.65l-8.35-4.4c-16.71-15.66-31.28-3.79-31.28-3.79
	c-2.96,2.7-1.07,4.86-1.07,4.86c-0.54-2.42,2.16-2.69,2.16-2.69c-0.18,1.39-0.32,2.72-0.42,4.01c0.53,0.09,1.05,0.18,1.58,0.26
	c0.01-0.09,0.02-0.2,0.03-0.29l0.02-0.17c0.08-0.75,0.67-4.35,0.67-4.35c1.39-1.23,3.41-1.36,2.93,0.28
	c-0.02,0.19-0.47,3.17-0.73,4.88c1.37,0.13,11.82,1.31,14.84,1.46c1.65,0.08,2.74,1.37,2.97,2.84c-7.84-1.11-14.66-1.89-20-2.27
	c-13.2-0.94-26.68-11.32-27.23-20.97c-0.27-4.84,4.68-10.69,13.76-16.07c-2.02-7.43,0.32-18.14,2.76-24.93
	c-30.52,12.48-37.47,31.46-36.86,42.16c0.58,10.24,6.22,20.17,15.86,27.96c8.65,6.98,19.68,11.42,30.27,12.17
	C105.86,275.47,111.08,276.04,117.08,276.85 M155.56,441.68c-23.87-6.07-33.86-18.11-34.8-26.52c-0.76-6.82,7.75-10.86,12.02-12.78
	c0.47-0.21,1.79-1.32,2.27-1.52c-3.16-5.8-8.2-11.86-6.21-18.94c-0.92,0.37-3.51,1.47-4.41,1.88c-15.64,7.02-24.03,19.66-22.46,33.8
	c1.07,9.61,6.87,19.02,16.33,26.49c9.3,7.34,22.07,12.82,36.92,15.85c27.42,5.59,45.59,17.41,52.54,34.18
	c7.38,17.83,11.24,42.2-4.67,71.69c-12,22.24-21.27,31.9-19.52,33.65c1.75,1.75,8.06-3.52,24.67-27.92
	c16.41-24.11,22.73-59.42,12.67-83.71C214.18,471.57,201.88,453.45,155.56,441.68 M279.58,296.36
	c-18.19-10.2-61.71-20.76-86.03-26.15c-3.03-0.67-6.07-1.33-9.1-1.97c0.58-1.14,1.67-2.05,2.97-2.02c4.92,0.1,29.72,6.97,37.41,8.84
	c-0.96-4.98-1.95-7.77-2.17-8.7c-0.42-1.86,2.39,0.15,3.47,0.27c0.35-1.02,0.23-2.19-0.46-2.39c-2.93-0.84-7.59-3.1-10.98-4.85
	c-26.28-20.05-50.6-6.86-55.36-3.74c-0.48,0.32-0.95,0.76-0.27,0.99c3.75-1.69,7.11-2.73,9.99-3.39c-2.72,1.25-6.96,3.71-9.35,7.9
	c-0.27,0.47-0.51,0.96-0.73,1.48c-5.78,5.18-5.26,23.92-5.24,24.82c0.03-0.09,0.3-0.24,2.31,0.52c-0.47-9.48,1.96-12.24,3.27-13.04
	c1.6,4.18,4.68,9.06,9.89,14.74c-0.86-1.03-4.54-6.69-7.14-13.4l-0.27-0.77c-1.66-4.61-2.24-9.59,0.1-13.77l0.58-0.92
	c0.27-0.41,0.57-0.79,0.93-1.19l0.52-0.56c0.29-0.29,0.62-0.57,0.97-0.88l0.9-0.69c0.95-0.68,2.02-1.29,3.24-1.87l1.41-0.59
	c2.15-0.85,4.71-1.53,7.76-2.03c-2.1,0.81-5.61,2.43-8.5,5.18l-0.68,0.67c-0.36,0.38-0.7,0.79-1.03,1.19l-0.12,0.18
	c-0.32,0.41-0.63,0.86-0.9,1.3l-0.19,0.31c-2.38,4.12-2.96,9.81,1.25,17.48c2.06,3.77,4.38,6.91,6.82,9.54l0.44,0.46
	c4.73,4.98,9.81,8.05,14.06,9.92l0.12,0.05c0.48,0.24-1.67,1.57-2.2,1.4l-1.08-0.36c-7.61-2.69-12.78-7.75-13.39-8.31
	c0.23,0.27-1.58,0.45-1.35,0.72c14.76,17.22,34.26,15.73,44.86,6.48c0.47-0.41,1.24-0.18,1.11,0.3c-0.33,1.15-0.87,1.92-0.87,1.92
	c0.05,0.8,0.73,0.89,1.01,0.64c1.12-1.03,2.1-2.08,2.96-3.15c-5.85-1.71-11.77-2.91-17.66-4.65c-0.71-0.21-1.25-0.74-1.64-1.41
	c33.02,7.75,58.15,15.53,68.38,21.27c6.69,3.75,13.59,10.59,12.91,18.54c-0.37,4.31-3.72,14.06-24.15,24.69
	c-0.44,8.89-2.03,18.55-9.63,25.29c40.7-15.74,52.91-34.63,54.07-48.25C304.08,319.68,295.18,305.1,279.58,296.36 M40.36,8.12
	c-1.62-0.54-3.32-1-5.17-1.28c0,0-3.45,1.9,2.88,7.25C35.14,8.84,37.61,9.41,40.36,8.12 M326.38,83.2
	c-22.39-18.8-56.71-35.29-102.12-46.59c-18.08-4.5-47.1-12.3-87.21-19.2c-4.25-0.73-14.76-2.38-24.03-3.75
	c-11.68-2.83-38.15-9.78-46.79-10.89C63.08,2.35,54.29,2.92,41.93,0c-1.72,0.02-13.79,4.3-8.65,5.46l41.08,9.2
	c0,0,4.9,2.14,5.13,4.64c0.23,2.5-23.04,7.67-30.86,7.81c-0.24,1.74,0.15,2.29,1.31,2.53c0.69,0.14,26.56-0.52,33.31-1.51
	c4.11-0.61,16.07-2.88,29.28-1.96c2.25,0.43,7.68,0.58,14.17,1.57C182.12,36.21,269.04,61.9,309,95.01
	c18.98,15.73,36.17,45.43,30.5,62.89c-2.13,6.56-11.49,10.37-18.32,13.23c5.2,6.84,7.16,20.05,7.16,26.1
	c16.19-6.69,27.57-23.91,30.54-33.03C368.46,134.68,354.92,107.16,326.38,83.2 M78.32,18.57c-0.4-1.05-1.66-1.97-3.39-2.58
	c-20.57-0.72-38.18,3.01-51.59,6.15c0,0-9.03-1.47-11.99-2.52c-0.22,0.45,0.24,0.64,0.57,0.81c2.77,1.38,9.39,2.71,9.39,2.71
	s-14.44,4.1-21.02,3.74c-0.42,0.67-0.37,0.83,0.11,0.85c9.3,0.38,20.76-2.75,23.14-3.32C37.82,20.98,57.75,17.85,78.32,18.57
	 M282.44,261.31c2.34,1.59,9.22,7.64,9.44,8.86c12.63-22.19,18.8-69.07,0.32-86.95C309.42,211.85,293.34,255.94,282.44,261.31
	 M149.06,240.13c0.02-0.08,0.77-2.26,0.45-2.37c-0.92-0.32-4.46-0.97-4.43,0.52c0.02,0.89,3.07,1.98,3.25,2.05
	c-0.02,0.09-0.37,1.38-0.52,1.94c-0.31-0.31-0.58-0.66-0.83-0.85c-0.44-0.33-0.93-0.55-1.55-0.61c-0.62-0.05-0.91,0.22-1.22,0.58
	c0.11,0.08,0.24-0.03,0.44-0.1c1.59-0.56,2.25,0.77,3.01,1.53c-0.2,0.76-0.41,1.52-0.61,2.29c-1.04-0.17-1.96-1.53-2.4-2.1
	c-0.24-0.32-0.33-0.4-0.19,0.1c0.5,1.87,2.39,2.74,2.39,2.74c0.39,0.15,0.69-0.07,0.72-0.19c0.21-0.77,0.41-1.54,0.62-2.31
	c0.1,0.1,1.85,2.51,3.67,1.51C153.67,243.86,151.26,241.03,149.06,240.13 M145.85,237.98c0.41-0.36,3.11,0.03,3.01,0.41
	c-0.13,0.47-0.28,1.04-0.41,1.51C147.91,239.71,145.12,238.59,145.85,237.98 M151.37,243.86c-0.96,0.59-2.31-0.35-3.03-1.06
	c0.2-0.74,0.4-1.47,0.59-2.21C150.48,241.13,152.33,243.26,151.37,243.86"/>
</svg>
