<?xml version="1.0" encoding="utf-8"?>
<!-- Generator: Adobe Illustrator 14.0.0, SVG Export Plug-In  -->
<!DOCTYPE svg PUBLIC "-//W3C//DTD SVG 1.1 Tiny//EN" "http://www.w3.org/Graphics/SVG/1.1/DTD/svg11-tiny.dtd" [
	<!ENTITY ns_flows "http://ns.adobe.com/Flows/1.0/">
]>
<svg version="1.1" baseProfile="tiny"
	 xmlns="http://www.w3.org/2000/svg" xmlns:xlink="http://www.w3.org/1999/xlink" xmlns:a="http://ns.adobe.com/AdobeSVGViewerExtensions/3.0/"
	 x="0px" y="0px" width="108px" height="116px" viewBox="-0.56 -0.99 108 116" xml:space="preserve">
<defs>
</defs>
<path d="M103.9,3.44c-0.07,1.55,1.97,1.62,2.4,2.68c-1.76,2.61,2.04,5.01-0.7,7.13c1.34,4.8-3.67,6.85-3.38,11.23
	c-2.47,0.63-4.51,2.47-6.77,3.67c-1.55,0.14-2.04-0.42-3.03,1.06c1.98,4.31,3.46,10.1,1.34,14.9l-0.99-0.35
	c0.56,7.98-7.4,11.51-8.81,18.64l-0.35-3.74l-1.69,3.11c-0.49-0.07-0.28-1.55-1.34-1.06c-1.76,1.34-0.78,3.74-2.4,5.08h-0.99
	c0.63-0.5,0-1.55,0.63-2.05c-0.35-0.78-1.48-0.85-1.97-0.28c-3.38,2.75-2.12,6.57-2.4,10.17c2.61,2.47-0.78,5.37,0.35,8.12
	c0.21,2.89-0.14,5.15-1.69,7.76c-0.14,2.47-0.07,5.01-1.06,7.13c-0.56-2.9,1.27-6.99-0.28-10.17c-1.97,0.5-0.28,3.67-2.75,3.74
	c-1.13-2.4,2.75-3.95,1.34-6.43c-7.47,4.59-3.67,13.48-5.71,20.62c-0.49,0.78-0.42,2.12-1.34,2.4c0.07-4.17,2.33-8.75,0.99-13.56
	c-2.82,0.71-3.38,3.18-5.43,5.08c0.42,2.12-1.34,3.39-2.04,5.08c-0.71-1.06,2.61-5.65-1.34-4.73c-1.62,1.06-0.28,4.24-2.68,4.02
	c-0.07-1.13,1.06-2.54-0.35-3.39c-1.69,0-2.61,1.98-4.37,1.69c-2.89,2.33-1.83,7.06-5.43,8.19c-0.21-1.69,1.69-3.32,2.04-5.08
	c0.99-2.83,2.19-5.51,2.68-8.47c-3.67-1.06-2.19,3.88-4.37,5.36c-2.33,1.77-2.54,4.94-4.79,6.15c-2.89,1.9-2.26,6.28-5.71,7.13
	l-0.7-0.71c2.61-5.29,9.59-7.91,8.81-14.54c0.42-1.84,0.78-3.18-0.35-4.8c0.35,5.79-6.27,4.8-8.81,8.82
	c-0.42-0.07-1.06,0.28-1.34-0.35v-0.64c2.96-2.61,6.77-4.52,8.81-7.83c0.35,0.07,0.78-0.07,0.99,0.35l0.35-0.35l-2.33-2.33
	c-2.47,0.99-5.71,1.34-6.77,4.02c-1.69-3.18,3.81-4.52,5.71-6.78c0.92-1.76,5.01-1.76,3.38-4.02c-1.69-0.42-2.61,0.99-3.74,2.05
	l-0.63-1.41c-0.84,1.34-2.12,1.48-3.38,1.7c0.99-1.55,2.82-2.82,3.03-4.73c-2.61-2.61-4.65,2.33-7.47,2.4
	c0.56-1.69,2.4-1.69,3.38-3.03l-1.34-0.35c0.99-1.41,2.82-0.78,3.74-2.4c-0.92-2.61-3.38-0.71-4.72-0.35
	c0.21-1.41,1.76-2.26,2.68-3.39c-2.26-2.82-4.16,1.48-6.42,1.7l-3.38,1.41c-0.28-0.85,0.35-1.83,1.34-2.4
	c-2.75-0.49,0.35-2.4-1.34-3.39c0.21-0.21,0.42-0.35,0.35-0.71c-0.63-0.78-1.34-1.2-2.4-0.99c-3.46,1.91-7.26,2.96-10.79,4.73H7.45
	c0.71-1.62,3.31-1.69,4.72-3.03c2.26,0.21,3.81-1.48,5.43-2.68c0.28-3.46,3.1-4.94,5.78-6.5c2.47-0.56,4.51-3.11,7.4-1.7
	c2.26,1.98,5.29,1.13,7.83,0.35c1.48-3.32,8.32-2.96,6.42-7.41c-1.41,0.99-2.75,2.19-4.44,2.68c-0.56-0.78,0.42-1.98,1.06-2.4
	c1.2-0.92,2.75-3.81,5.43-2.68c0.28-0.92,1.34-1.62,1.97-2.4c2.18,0.42,3.74-2.89,6.49-2.68c0.63-0.99,2.4-1.62,1.97-3.04
	c-1.97,0.35-5.08,0-6.77,2.05h-0.99c-0.28-2.68,3.74-1.27,5.08-3.11c3.95-0.57,4.51-4.94,6.77-7.41l-0.35-0.35
	c-2.26,1.13-4.37,2.61-6.77,3.39c0.07-2.33,3.17-1.69,3.38-3.74c2.33-1.27,6.56-2.47,6.13-6.07c-1.55,0-4.3,0.64-5.08-1.06
	c2.26-1.55,6.2,1.98,6.77-1.69c-1.2-0.56-2.75-2.12-2.04-3.39c1.27-1.34,3.46-2.4,5.08-0.99l0.35,0.35
	c1.62-3.32,5.15-2.61,7.75-3.04c1.2,1.34,3.24,1.69,4.72,0.63c2.04-3.18,4.58-6.99,3.03-10.8c-0.64-0.5-1.48-0.57-1.97-1.41
	c0.63-1.7,4.09,0.71,4.02-1.98l1.69-1.06c-0.21-2.05-2.96-0.99-3.03-2.68c2.04-0.49,4.94,0.99,6.77,0
	c-0.28-3.11,3.46-1.91,5.08-1.69C99.95-0.23,101.22,2.59,103.9,3.44z"/>
<path d="M5.76,7.18c0.14,2.05-1.62,3.32-3.38,3.74c-2.26-0.07-2.82-2.26-2.04-4.09C1.25,4.36,4.56,5.56,5.76,7.18z"/>
<path d="M46.72,14.31c1.06,7.63-3.74,12.36-8.46,17.93c-1.9,0.78-3.46,4.38-5.78,4.09L20.99,49.19c2.89-4.87,7.54-9.04,10.5-13.91
	c-2.11-2.12-4.02,1.48-5.78-1.34l-2.68,2.05c-0.85-0.28-0.63-0.78-0.35-1.34l3.03-2.4c-2.89,0.42,0.28-3.46-2.68-3.04
	c-1.48-1.55-1.48-3.95-2.4-5.44l1.69-2.05c-1.2-0.57-2.47,0.92-3.74,1.34c-2.96,0.49-5.5,1.76-8.46,2.4
	c4.51-3.81,11.28-3.46,16.28-6.78c1.2-0.21,2.68-0.5,3.39-1.34l-0.71-0.71l-8.46-0.35c4.3-0.92,9.02-0.71,12.9-2.68
	c-0.78-0.99-2.61-0.84-3.74-1.69c4.86,0.07,11.07-3.25,15.58,0.71L46.72,14.31z"/>
<path d="M18.94,16.29c-0.99,0.63-2.47,0.28-3.74,0.35C16.26,16.01,17.74,16.43,18.94,16.29z"/>
<path d="M20.28,28.5c-3.53,1.63-6.84,3.96-10.44,5.44c-0.64-0.21-0.28-0.92-0.35-1.34c4.37-0.35,7.19-4.45,11.14-5.79L20.28,28.5z"
	/>
<path d="M14.57,42.06c0.21,2.05-1.55,2.97-3.03,3.74L7.1,46.5c0.07-2.4,1.34-5.29,3.74-6.78C12.67,39.02,14.15,40.65,14.57,42.06z"
	/>
<path fill="#E6E7E8" d="M56.52,50.53c-1.06-0.57-2.61-0.99-3.74-0.35c1.06-1.2,2.33-1.77,3.74-1.97V50.53z"/>
<path d="M101.85,61.4c-0.28,4.8-6.13,4.1-7.75,8.47c0.35-4.02,2.89-7.06,5.43-10.17C100.72,59.21,101.85,60.27,101.85,61.4z"/>
<path d="M18.94,73.9c0.07,1.2-1.27,0.35-1.69,1.06C16.54,75.66,18.17,73.61,18.94,73.9z"/>
<path d="M90.01,74.96c0.92,1.06-0.42,2.26-1.34,2.68c-0.28-0.56-0.92-0.21-0.71-0.99C87.47,75.38,88.95,74.6,90.01,74.96z"/>
<path d="M14.57,75.94c-0.28,1.55-2.33,1.7-3.74,2.05C11.19,76.65,13.23,76.44,14.57,75.94z"/>
<path d="M20.63,76.3c-0.92,1.41-2.75,2.19-4.37,2.68c-0.56,0.35-0.85,1.41-1.69,1.06C16.26,78.63,18.31,76.79,20.63,76.3z"/>
<path d="M101.85,82.72c2.68,4.52-2.33,8.82,0.35,12.92c-0.14,0.42,0.28,1.06-0.35,1.34c-0.7-1.27-1.62-3.88-3.74-2.4
	c-1.62,4.8-2.19,10.09-3.03,15.25h-0.63c0-4.38,1.06-8.33,1.69-12.5c-0.63-1.27-2.04-0.49-3.1-0.7l-0.28-2.4
	c-5.57,4.09-11,10.66-14.95,16.66l-0.63-0.71c4.51-5.01,7.61-10.73,12.48-15.6c-0.85-0.92-2.61-0.99-2.68-2.33
	c3.17-0.28,0.71-3.46,3.74-4.09c-1.97-1.13,0.49-2.89,0.63-4.38C93.96,80.25,99.81,77,101.85,82.72z"/>
<path d="M25.71,85.12c0,0.35,0.07,0.78-0.35,0.99h-0.64C24.72,85.62,25.22,85.05,25.71,85.12z"/>
<path d="M24.02,94.94c0.78,3.88,0.57,8.54-3.73,10.52l-4.37,3.39c-0.42-0.78,0.78-2.26,0.35-3.74c-3.31-2.12-2.89,3.25-5.43,4.38
	c-1.98,1.48-2.82,3.88-4.72,4.8l7.75-10.17l-0.99-1.7c-3.24,0.64-4.02,5.08-7.83,4.38c2.96-1.27,5.08-3.81,6.77-6.42
	c-1.97-1.06-3.03,2.05-5.08,2.05c0.71-2.68,5.15-2.47,4.09-5.44c1.97-3.81,6.27-3.32,9.45-4.73C22.18,91.69,23.17,93.88,24.02,94.94
	z"/>
<path d="M83.94,94.94c-0.84,2.61-4.09,3.6-6.13,5.44c-0.85,0.78-1.97,2.47-3.38,2.68c1.76-3.81,5.92-4.87,8.46-8.12H83.94z"/>
<path d="M91.07,102.06c-0.14,3.46-2.33,6.07-3.38,9.11h-1.06c0.14-2.61,3.24-4.87,3.03-8.12C90.08,102.7,90.15,101.64,91.07,102.06z
	"/>
</svg>
