<?xml version="1.0" encoding="utf-8"?>
<!-- Generator: Adobe Illustrator 15.0.0, SVG Export Plug-In  -->
<!DOCTYPE svg PUBLIC "-//W3C//DTD SVG 1.1 Tiny//EN" "http://www.w3.org/Graphics/SVG/1.1/DTD/svg11-tiny.dtd" [
	<!ENTITY ns_flows "http://ns.adobe.com/Flows/1.0/">
]>
<svg version="1.1" baseProfile="tiny"
	 xmlns="http://www.w3.org/2000/svg" xmlns:xlink="http://www.w3.org/1999/xlink" xmlns:a="http://ns.adobe.com/AdobeSVGViewerExtensions/3.0/"
	 x="0px" y="0px" width="130px" height="120px" overflow="visible" xml:space="preserve">
<defs>
</defs>
<path d="M94.11,35.02c0,0-3.08,0.44-5.21,0.51c-1.14,0.04-3.11,0.34-5.01,0.81c2.97-0.54,6.97-0.76,8.4-0.78
	C94.12,35.53,94.11,35.02,94.11,35.02z M95.77,22.15c0,0.01,0,0.02,0,0.03c0.03-0.02,0.06-0.05,0.1-0.07
	C95.83,22.12,95.8,22.14,95.77,22.15z M104.52,33.97c0.03-0.8,0.11-2.48,0.91-3.9c0.8-1.42,1.32-3.56,1.47-4.68s2.24-2.13,2.85-4.11
	c0.41-1.33,1.3-3.83,0.82-5.85c-0.35-1.48-1.02-2.02-0.84-4.93c0.18-2.91,0.26-2.8-0.87-3.71c-0.52-0.42-1.78-1.15-2.81-1.04
	c-0.59,0.06-2.01,0.5-2.48,1.05c-0.47,0.54-1.4,2.81-1.4,2.81c-0.38,1.03-1.06,1.53-1.66,2.69c-0.7,1.36,0.61,1.72-1.86,3.22
	c-1.33,0.81-1.22,1.97-1.22,1.97s-1.09,3.14-1.69,4.27c-0.23,0.43-0.14,0.49,0.05,0.41c0.08-0.61,0.75-1.81,1.07-2.25
	c0.75-1.01,1.46-0.97,3.3-2.08c0,0,0.01,0,0.01-0.01c-0.6,0.39-1.34,0.93-2.29,1.7c-0.64,0.67-1.44,2.01-1.84,2.71
	c-0.08,0.04-0.17,0.08-0.26,0.13c-0.01-0.05-0.01-0.11,0-0.17c-1.1,0.84-2.28,1.68-3.79,1.91c-1.93,0.3-4.5,1.68-5.95,2.06
	c-1.46,0.37-0.97-0.01-1.92-0.47s-2.02-1.48-2.48-2.29c-0.83-1.46-1.49-1.57-1.36-1.11c0.14,0.46,0.56,1.22,0.56,1.22
	s-0.19,0.36-0.14,0.66c0.23,1.3,0.88,1.45,1.28,2.3c0.39,0.86,1.88,2.32,2.44,2.73c0.56,0.41,1.12,0.82,2.12,0.58
	c1-0.24,7.6-1.34,8.02-1.39c0.42-0.05,0.38,3.9-0.13,5.54c-0.31,1.1-0.31,1.1-0.31,1.1c1.45-2.04,1.39-7.93,1.39-7.93
	s0.11-0.64,1.55-0.85c-1.02,4.28,0.33,8.59,0.32,9.43c0.04,0.08,0.07,0.17,0.1,0.26c0.14,0.39-3.9,1.34-9.18,1.23
	c-5.29-0.1-8.58,0.78-8.58,0.78c0.93-0.64,2.53-1.19,4.18-1.6c-0.86,0.15-1.64,0.34-2.24,0.54c-2.68,0.93-3.51,1.54-3.17,3.08
	s1.84,7.07,1.66,8.94c-0.18,1.86,0.71,7.44,1.01,7.68c0.47,0.38-0.13,1.17-0.99,1.56c-0.86,0.39-1.66,0.91-0.39,0.77
	c1.27-0.14,4.41-0.39,4.41-0.39s-0.62,4.95-0.74,5.81c-0.12,0.87-0.33,1.71-0.33,1.71s-3.14,0.25-2.91,0.74
	c0.22,0.49,9.27,3.44,9.27,3.44s1-1.05,0.41-2.48c0.82-0.3,0.3-0.8,0.43-1.97c0.13-1.17,0.76-6.42-0.08-9.36
	c-0.83-2.95-1.86-4.55-0.14-5.63c1.32-0.83,4.98-4.27,6.95-6.47c1.27-0.02,2.56-0.49,3.69-1.96c0.78-1.3,1.78-2.92,1.55-6.15
	c0.03,0.02,0.07,0.04,0.1,0.07c0,0-0.91-2.47,0.33-4.44c0.35-0.56,0.8-1.33,1.26-2.18c-0.1,0.7-0.25,1.42-0.42,2.08
	c-0.4,1.57,0.05,1.81,0.17,1.23c0.13-0.58,0.86-2.56,0.86-2.56s-0.34,1.41-0.59,3.43c-0.25,2.02,1.41-0.06,1.41-0.06
	S104.49,34.77,104.52,33.97z M85.9,45.37c-0.21-0.79-0.72-2.7-0.71-3c0.01-0.3,1.27-0.14,1.27-0.14s0.69,0.09,1.64,0.24
	c-0.36,0.62-0.82,1.4-1.11,1.89C86.45,45.27,86.12,46.16,85.9,45.37z M87.25,47.68c-0.57-1.38-0.63-1.95-0.63-1.95l1.78-2.85
	l3.5,0.76C91.91,43.64,87.85,46.55,87.25,47.68z M102.25,11.44c-0.02-0.31-0.01-0.6,0.23-1.1c0.16-0.34,0.32-0.59,0.53-0.96
	c-0.02,0.05-0.03,0.09-0.05,0.13c-0.18,0.31,0.19,0.41,0.68,0.59C103.2,10.22,102.57,11,102.25,11.44z M102.24,13.83
	c-0.02-0.14-0.03-0.3-0.02-0.46C102.22,13.53,102.22,13.69,102.24,13.83z M85.27,28.2c0,0,1.15-0.44,2.02-0.48
	C85.59,29.3,85.27,28.2,85.27,28.2z M96.76,25.08c-3.61,2.11-10.2,2.26-10.2,2.26s-0.6,0.63-1.72,0.33
	c-1.12-0.29-1.37-0.63-1.96-1.34c-0.6-0.71-1.04-1.25-1.04-1.25c-0.1-0.4,0.07-0.4,0.96,0.48c1.69,1.68,3.24,2.18,4.98,1.47
	c1.74-0.71,5.27-0.53,6.37-1.26c0.82-0.55,2.72-1.25,3.99-1.89c2.41-1.22,4.22-2.26,4.22-2.26S98.65,24.3,96.76,25.08z
	 M105.15,17.22c-0.05-0.02-0.08-0.05-0.08-0.05s0,0.02,0,0.04c-1.27-0.07-2.41,0.45-3.11,1.03c-0.33,0.28-0.77,0.77-1.25,1.28
	c-0.64,0.34-1.16,0.68-1.38,0.95c-0.62,0.74-1.54,0.98-2.61,1.42c0.04-0.06,0.08-0.13,0.12-0.22c0.14-0.24,0.34-0.48,0.57-0.7
	c0.46-0.31,0.84-0.55,1.2-0.83c0.01-0.01,0.03-0.01,0.04-0.02c0.75-0.34,1.22-1.28,2.7-2.59c1.48-1.31,3.83-0.31,3.83-0.31
	C105.18,17.22,105.16,17.22,105.15,17.22z M102.61,14.71c0.31,0.24,0.74,0.45,0.98,0.54c-0.17,0.25-0.54,0.77-0.94,1.15
	c-0.15,0.14-0.31,0.23-0.54,0.34c0.17-0.15,0.3-0.31,0.37-0.53C102.64,15.66,102.73,15.14,102.61,14.71z M106.85,13.13
	c0,0-0.38,0.37-0.87,0.76c-0.46,0.2-1.88,0.44-2.39,0.37c-0.53-0.07-0.75-0.5-0.59-0.84c0.16-0.35,0.87-0.51,0.87-0.51
	s1.64-0.15-0.23-0.51c-0.31-0.06-0.14-0.29-0.05-0.38c0.1-0.09,0,0,0.02-0.21c0.02-0.21,0.51-0.12,0.51-0.12s-0.6-0.47-0.65-0.59
	c-0.05-0.11,0.1-0.18,0.25-0.34c0.15-0.16,0.74-1.36,0.74-1.36c-0.03-0.85,0.69-1.47,1.1-1.75c1.77,0.11,2.79,2.69,2.43,3.66
	c-0.31,0.84-0.36,1.47-0.23,2.08C107.46,13.65,107.03,13.88,106.85,13.13z M106.87,9.8c0.65-0.01,0,0-0.12-0.11
	c-0.11-0.11-0.26-0.13-0.64-0.27c-0.38-0.14-0.49-0.18-0.49-0.18l-0.27,0.15c0,0,0.27,0.19,0.41,0.31c0.14,0.12-0.18,0.13-0.23,0.2
	c-0.1,0.19-0.13,0.44-0.03,0.7c0.1,0.26,0.46,0.33,0.57,0.21c0.11-0.12,0.33-0.1,0.47,0.05c0.14,0.15,0.38-0.41-0.07-0.61
	c-0.27-0.12-0.5-0.18-0.62-0.23c0-0.01,0.01-0.02,0.01-0.03C105.88,9.8,106.22,9.8,106.87,9.8z"/>
<path d="M75.73,60.52c-0.82-0.71-1.15-1.86-1.29-2.29c-0.15-0.44-0.44-0.58-0.54-1.39c-0.1-0.81-0.23-3.98,0.11-5.57
	c0.34-1.59,0.26-3.68,0.27-5.04c0.01-1.37,0.87-6.03,0.84-9.12c-0.03-3.09-1.11-8.06-1.11-8.06s-1.08-1.32,0.18-3.58
	c1.26-2.25,2.35-4.49,2.9-5.83s0.36-2.87,1.39-4.09c1.03-1.22,2.86-4.74,2.78-6.09c-0.08-1.36-4.62-5.52-4.62-5.52
	s-0.99-0.27-1.69-1.02c-0.57-0.61-0.7-1.69-0.95-1.47c-0.12,0.1-0.15,0-0.15-0.03c0,0.03,0,0.14-0.03,0.42
	c-0.08,0.83-0.3,1.22-0.01,1.37c0.29,0.15-0.07,0.92,0.43,1.22c0.49,0.3,1.49,0.12,1.79,1.14c0.14,0.47,2.17,3.46,2.65,3.67
	c-0.87-1.2-2.32-3.3-2.57-3.88c-0.25-0.58-0.31-0.75-0.58-0.81s-0.49,0.12-0.57-0.18c-0.08-0.3-0.68-0.5-0.51-0.57
	c0.17-0.07,0.31,0.39,0.88,0.4c0.57,0.02,0.58,0.3,0.58,0.3s0.9,2.12,1.38,2.77c0.48,0.64,1.41,1.13,1.39,2.05
	c-0.01,0.92,0.45,0.84,0.34,0.63c-0.11-0.21-0.62,1.31-1.25,1.92c-0.37,0.36-0.97,1.1-1.42,1.71c-0.38,0.58-0.69,1.01-0.62,0.88
	c0.06-0.11,0.31-0.47,0.62-0.88c0.3-0.46,0.65-1.01,0.89-1.45c-0.5,0.73-1.58,1.85-1.84,2.81c-0.05,0.28-1.28,0.71-1.18,0.06
	c0.1-0.65,0.63-1.26,0.63-1.26s0.23-0.1,0.31-0.1c0,0.08,0.17-0.21,0.17-0.21s0.13-0.08,0.24-0.1c0.12-0.01-0.26-0.65-0.06-0.63
	c0.2,0.01,0.19-0.02,0.32-0.28c0.12-0.25,0.33,0.15,0.57,0.2c0.24,0.05-0.27-0.28-0.66-0.58c-0.39-0.3-0.28-0.36-0.05-0.38
	c0.23-0.03,0.56,0.12,0.56,0.12s-0.29-0.16-0.2-0.68c0.09-0.52,0.24-0.26,0.45-0.45c0.21-0.18-0.34-0.54-0.29-1.06
	c0.02-0.17-0.02-0.15,0.16-0.57c0.18-0.41-0.5-0.29-0.75-0.37s-0.14-0.18,0.23-0.62c0.38-0.44-0.75-0.1-1.11-0.13
	c-0.36-0.03-0.51-0.01-0.05-0.42c0.45-0.41-0.19-0.29-0.38-0.19c-0.18,0.1-0.38,0.13-0.66,0.08c-0.28-0.04-0.08-0.34-0.11-0.53
	c-0.02-0.19-0.31,0.04-0.37,0.16c-0.06,0.13-0.39-0.03-0.68-0.15c0,0-0.24,0.23-0.5,0.02l-0.31,0.04c0,0-0.18,0.41-0.37,0.48
	c-0.19,0.06-0.86,0.03-0.86,0.03s-0.18-0.17-0.49,0.14c0,0-0.04,0.32-0.06,0.44c-0.02,0.12-0.05,0.24-0.03,0.36
	c0.01,0.12-0.41,0.13-0.41,0.13S69.27,8.47,69,8.5c-0.27,0.03-0.09,0.52-0.09,0.52s-0.16,0.25-0.16,0.29c0,0.04,0,0,0.19,0.6
	c0.19,0.6-0.1,0.13-0.29,0.47c-0.19,0.34-0.06,0.16,0.13,0.38c0.18,0.21,0.03,0.27-0.17,0.53s0.11,0.53,0.59,0.63
	c0.48,0.09-0.5,0.79-0.5,0.79s-0.31,1.07,0.8,1.25c0.3,0.05,0.28,0.73,0.48,0.71c0.03,0,0.5,0.01,0.65-0.05c0,0,0,0.01,0.01,0.01
	c0,0,0.03,1.12-0.56,1.35c-0.67,0.26-2.25,0.42-2.25,0.42s-1.1-0.33-1.31,0.95c-0.18,1.1,0.2,3.71,0.2,3.71s-2.03,3.36-2.42,3.86
	c-0.39,0.5-0.39,0.5-0.39,0.5s-0.89,1.57-1.31,1.9c-0.41,0.33-1,1.4-1.02,2.04c-0.01,0.64,0.23,1.06,0.6,1.11
	c0.37,0.04,0.8-0.19,0.8-0.19l0.75-0.55l-0.25-0.51c0,0-0.38-0.86,0.3-1.22c0.68-0.36,2.15-2.46,2.15-2.46s0.21,1.61-0.5,2.52
	c-0.7,0.91-1.82,3.6-1.55,5.75c0.27,2.15,0.86,8.91,0.76,10.29c-0.1,1.38,0.12,3.08,0.1,4.36c-0.02,1.28-0.42,2.42-0.47,2.79
	c-0.04,0.37,0.67,1.01,1.08,2.05c0.41,1.04,0.92,2.98,0.92,2.98s-0.52,0.89-0.69,1.73c-0.17,0.84,0.52,2.67,0.33,3.33
	c-0.19,0.66,0.16,1.25,0.89,1.25c0.73,0,1.95,0.3,2.09-2.91c0.4-1.14,0.4-2.6-0.15-3.35c-0.55-0.75-0.55-0.75-0.55-0.75l-0.1-0.81
	c0,0,1.27-0.8,1.23-1.8c-0.04-1-0.23-1.06-0.51-1.85c-0.28-0.78-0.1-0.81,0.07-1.56c0.18-0.75-0.32-1.05-0.12-1.71
	c0.19-0.66,0.31-1.13,0.09-2.11c-0.21-0.97-0.56-2.3-0.55-2.93c0.01-0.64,0.96-6.04,1.09-7.88c0.09,0.26,0.18,0.62,0.27,1.08
	c0.46,1.8,1.41,5.32,2,6.4c0.8,1.47-0.07,2.13,0.22,2.84c0.3,0.71-0.72,5.08-0.28,8.03c0.44,2.95,0.54,3.75,0.2,4.28
	c-0.34,0.52-0.04-0.34-0.36-1.73c-0.32-1.39-1.35-4.68-0.98-8.21c0.06-0.58,0.09-1.27,0.09-2.02c0,0.01,0,0.02,0,0.03
	c-0.13,1.11-0.62,4.45-0.12,6.94s1.31,3.84,1.11,4.41c-0.2,0.57-0.55,0.71-0.66,1.27c-0.11,0.56,0.35,1.32,0.99,2.06
	c0.64,0.74,1.5,1.72,2.64,2.12c1.14,0.4,2.12-0.54,2.12-0.54S76.55,61.24,75.73,60.52z M71.01,16.37c0,0-0.1,0.05-0.26,0.1
	c-0.49,0.4-1.44,0.46-2.32,0.57c-0.88,0.11-1.05,0.45-1.05,0.45c-0.47,0.56-0.65,1-0.69,1.48c0.01,0.23,0.02,0.46,0.04,0.7
	c0.01,0.11,0.02,0.21,0.03,0.31c0.04,0.2,0.08,0.42,0.12,0.65c0.06,0.34,0.3,3.86,0.3,3.86s-0.02,0.47-0.08,1.79
	c-0.07,1.32-1.31,3.05-1.31,3.05c-0.91,4.69-0.2,9.63-0.24,10.39s-0.04,2.32,0.43,3.83c0.47,1.51,0.74,3.41,0.35,4.69
	c-0.38,1.28,0.35,2.91,0.62,4.52c0.27,1.61,0.36,2.28-0.22,2.56c-0.91,0.44-0.3-0.23-0.49-0.62c-0.19-0.38-0.16-1.28-0.58-2.39
	c-0.41-1.11-0.69-3.26-0.64-5.59c0.04-2.08-0.57-8.81-0.8-12.2c-0.23-3.38,0.93-5.35,0.93-5.35c1.57-1.59,1.48-3.51,1.48-3.51
	s-0.03-1.54,0.09-2.18c0.15-0.79-0.02-2.18-0.02-2.18s0.16-0.28,0.06-1.32c-0.06-0.37-0.1-0.69-0.08-1.01
	c-0.06-1.2,0.03-2.13,0.66-2.33c0.5-0.16,1.08-0.07,1.98,0.02c0.58,0.06,1.11-0.08,1.41-0.18c0,0,0,0,0,0
	C71.25,16.07,71.01,16.37,71.01,16.37z M70.65,14.6c0.01-0.01,0.02-0.01,0.02-0.02C70.74,14.74,70.69,14.67,70.65,14.6z M73.7,13.78
	c-0.22,0.83-1.15,1.76-1.12,1.35c0.03-0.41,0.03-0.41,0.03-0.41s-0.59-0.17-0.61,0.32c-0.01,0.36-0.06,0.57,0.18,0.62
	c-0.55-0.01-0.97-0.28-1.44-1.13c-0.31-0.55-0.46-0.5-0.58-1.11c0,0-0.15-0.58-0.15-1.17c0-0.59-0.04-0.95-0.06-1.1
	c-0.02-0.16,0.32-0.73,0.89-1.2c0.1-0.08,0.23-0.17,0.36-0.25c0.54,0.07,1.94,0.36,1.55,1.7c-0.15,0.47-0.4,0.7-0.35,1.1
	c0.05,0.4,0.05,0.4,0.05,0.4s0.39-0.78,0.8-0.75C73.66,12.16,73.92,12.94,73.7,13.78z M78.69,9.23c-0.08,0.66-0.83,1.57-1.17,2.36
	c-0.06,0.14-0.16,0.32-0.28,0.53c0.09-0.14,0.17-0.26,0.21-0.37C77.74,11.08,78.6,9.97,78.69,9.23z M69.38,34.91
	c-0.03,3.38,0.73,6.47,0.84,7.36c0.07,0.56,0.23,1.27,0.31,2c-0.09-2.93-0.49-6.37-0.88-8.28C69.48,35.34,69.38,34.91,69.38,34.91z
	 M70.56,45.57c0.05-0.42,0.03-0.86-0.02-1.3C70.55,44.72,70.56,45.16,70.56,45.57z M71.59,11.83c-0.25-0.42-0.88,0.03-0.88,0.03
	s0.17,0.45,0.36,0.28c0.2-0.17,0.21-0.01,0.21-0.01l0.57,0.12C71.84,12.24,71.84,12.24,71.59,11.83z M72.66,13.18
	c-0.89,0.03-0.87,0.19-0.87,0.19C72.7,14.15,73.11,13.17,72.66,13.18z M71.99,14.05c-0.41-0.03-0.49,0.08-0.49,0.08
	c0.57,0.52,1.8,0.28,1.42-0.16C72.92,13.98,72.4,14.08,71.99,14.05z"/>
<path d="M45.67,6.92c0,0.11,0,0.23,0,0.34C45.68,7.14,45.68,7.03,45.67,6.92z M20.1,28.91c0.87-0.17,1.32-0.12,2.5-0.66
	c1.18-0.55,4.93-1.94,6.41-2.96c1.48-1.02,2.32-2.24,3.22-2.94c0.9-0.7,3.27-2.5,3.27-2.5l0.72,4.08c0,0-0.84-0.37-1.67,0.15
	c-2.24,1.35,0.22,6.86,0.65,7.53c0.43,0.67,4.35,8.17,4.36,9.06c0.01,0.88-0.02,1.41-0.03,2.12c-0.01,0.71,0.91,1.07,0.91,1.07
	s-0.34,0.12-0.87,0.96c-0.53,0.84,2.58,2.51,3.4,2.7c0.82,0.19,3.29-0.73,3.29-0.73s0.57-1.29,0.34-3.38
	c-0.23-2.1-2.56-6.39-2.56-6.39s0.11-2.22,1.12-1.07c1.01,1.15,2.94,4.95,4.42,7.99c1.49,3.04,1.94,4.77,2.22,8.1
	c0.28,3.33,3.64,8.94,3.64,8.94s0,0-0.24,0.99c-0.25,0.99,0.56,1.1,0.92,1.15c0.36,0.06,2.76,0.9,3.79,1.43
	c1.03,0.53,3.05,0.34,4.45,0.13c1.4-0.21-0.92-1.95-2.04-2.47c-1.12-0.52-1.74-2.14-1.74-2.14s-0.25-0.71-0.5-1.56
	c0.26,1.26,0.48,2.21,0.58,2.35c0.31,0.41-0.53,0.05-0.53,0.05s-0.51,0.22-1.63-2.77c-1.13-2.99-1.79-9.02-2.6-12.39
	s-1.94-7.95-3.52-10.28c-1.58-2.33-3.81-7.25-3.88-7.86C48.43,27,48.43,27,48.43,27s-0.38-0.23-0.58-0.48
	c-0.21-0.25-0.73-3.38-0.45-4.9c0.28-1.53,0.42-1.8,0.49-2.78c0.07-0.98,1.35-1.45,1.53-2.17c0.19-0.72,0.34-0.91,1.15-0.81
	c0.64,0.08,1.05,0.58,1.19,0.78c0.51,0.2,1.14,0.45,1.45,0.67c0.57,0.39,1.7,0.91,3.93,0.27c2.24-0.64,4.29-2.94,4.75-3.6
	c0.46-0.66,1.7-0.68,1.7-0.68s0.03-0.53,0.55-0.67c0.52-0.13,0.09-0.8,0.15-1.07s0.08-0.89-0.12-1.14c-0.2-0.25-1.22-0.6-1.61-0.92
	c-0.39-0.32-0.89,0.79-1.16,0.72c-0.27-0.06-0.41,0.3-0.25,0.99c0.16,0.69-0.4,1.18-1.1,1.33c-0.69,0.15-5.04,0.89-5.38,1.01
	c-0.23,0.08-0.43,0.39-0.73,0.29c0.04,0.07,0.07,0.12,0.07,0.12s0.08,0.3,0.03,0.66c-0.05,0.36-1.91-1.96-3.46-2.35
	c-1.55-0.39-3.76-0.85-4.19-0.72c-0.33,0.1-0.8-0.49-1.14-0.67c-0.29,0.05-0.41,0.07-0.27-0.02c0.07-0.05,0.17-0.03,0.27,0.02
	c0.39-0.06,1.08-0.19,1.85-0.21c0.65-0.01,1.29,0.11,1.97,0.31c-0.34-0.16-0.67-0.31-1.02-0.46c-1.02-0.44-2.25-0.33-2.25-0.33
	c-0.41-0.49-0.31-2-0.18-2.46c0.04-0.13,0.05-0.3,0.05-0.48c-0.03,0.21-0.11,0.46-0.28,0.85c-0.5,1.13-1.56,1.56-2.48,1.59
	c0.78-0.22,1.62-1.85,0.59-1.89c0,0-0.73-0.47-0.41-0.5c0.32-0.03,0.48-0.47,0.34-0.77c-0.14-0.31-0.34-1.14-0.34-1.14
	s0.17-0.44,0.83-0.18c0,0,0,0,0.27-0.45l0.55,0.16c0,0,0,0-0.39-0.6c-0.23-0.36-1.36,0.23-1.4-0.09c-0.04-0.32-0.88-0.4-0.68-1.43
	c0.12-0.61,0.05-0.86-0.02-0.97C42.6,1.8,42.9,1.8,43.12,1.78c0.7-0.06,1.74,1.36,1.89,1.96c0.15,0.58,0.31,0.9,0.53,1.68
	c-0.02,0.85,0.09,1.19,0.12,1.5c0-0.31-0.01-0.62,0.06-0.81c0.14-0.37,0.19-2.02,0.19-2.02S45.54,3.89,45.62,3
	c0.08-0.89-0.66-1.39-1.07-1.89c-0.41-0.49-1.45-1.58-3.75-0.89c-3.35,1-2.16,1.62-2.46,3.4c-0.33,1.88,0.66,2.77,0.66,2.77
	s0,0.37,0.16,1.06s0.87,0.26,0.87,0.26s0.33,0.59,0.46,1.81c-2.43,0.48-4.17,1.61-5.81,2.81s-1.76,1.75-2.44,2.78
	c-0.68,1.03-0.69,2.62-1.44,3.84c-0.75,1.21-2.08,2.04-3.65,3.06c-1.57,1.02-4.65,4.47-5.57,5c-0.92,0.52-1.03,0.35-1.62,0.45
	c-0.75,0.13,0.72-0.31-0.13-0.05c-0.86,0.25-0.86-0.24-0.04-0.05c0.82,0.19-0.66,0.33-0.66,0.33s0.69,0.19-0.58,0.74
	C17.28,28.98,19.24,29.07,20.1,28.91z M41.97,9.48c0.17,0.06,0.35,0.12,0.57,0.21C42.36,9.67,42.17,9.6,41.97,9.48z M39.16,6.21
	c0.21,0.48,0.48,0.87,0.48,0.87s0,0,0.03,0.04C39.13,6.79,39.07,6.46,39.16,6.21z M40.19,28.48c0,0,1.32,2.4,2,4.63
	c0.69,2.23,1.11,2.82,1.11,2.82s1.93,4.68,1.91,5.3c-0.02,0.62-0.93,0.43-1.66,1.03c-0.73,0.59-1.11,0.36-1.11,0.36
	s0.77-3.05-0.26-5.16c-0.42-0.87-1.28-3.63-2.24-5.74c-0.23-0.51,0-3.62-3.39-6.4C35.31,24.31,39.06,25.23,40.19,28.48z
	 M20.38,27.38c0,0,1.34,0.06,2.68-1.39c1.35-1.44,4.77-4.13,6.33-5.33c1.55-1.2,1.86-2.46,2.04-3.18c0.19-0.72,1.69-3.95,4.64-5.36
	c0,0-2.49,2.34-2.78,4.57c-0.29,2.23-0.79,3.34-2.24,4.61c-1.45,1.28-4.72,2.38-6.03,3.38c-1.31,1-3.53,3.12-4.09,2.91
	C20.38,27.38,20.38,27.38,20.38,27.38z M51.77,16.64c0,0-0.01,0-0.02-0.01c0.04,0.05,0.07,0.09,0.07,0.09S51.8,16.69,51.77,16.64z
	 M59.88,57.84c0.06,0.23,0.13,0.45,0.19,0.67c-0.29-1.41-0.63-3.21-0.9-4.73C59.43,55.58,59.73,57.28,59.88,57.84z M58.69,51.06
	c0.08,0.49,0.26,1.51,0.48,2.72c-0.26-1.8-0.49-3.69-0.51-4.66c-0.04-1.94-1.17-5.81-3.54-11.25c-2.37-5.44-5.94-10.51-5.98-11.65
	c-0.04-1.15,0.02-3.8,0.27-4.79l1.57-5.08c0,0,0.34,0.11,0.77,0.28c-0.22-0.27-0.93-0.96-1.22,0.47c-0.34,1.71-1.72,4.48-1.57,8.26
	c0.14,1.31,0.63,2.5,1.7,4.17c1.07,1.67,4.77,8.75,6.43,13.37C58.75,47.53,58.42,49.41,58.69,51.06z M53.4,13.31
	c0.21,0.33,0.39,0.48,0.54,0.53c-0.22-0.37-0.99-1.51-2.47-2.04c-0.9-0.32-1.68-0.62-2.4-0.83c0.65,0.3,1.32,0.63,2.12,1.03
	C52.4,12.6,52.76,12.31,53.4,13.31z M44.2,5.32c-0.06-0.02-0.22-0.09-0.27-0.1C44.09,5.28,44.17,5.31,44.2,5.32z"/>
<path d="M15.89,9.94c0.12,0.1,0.3,0.24,0.5,0.41c0.04-0.01,0.07-0.01,0.07-0.01S16.22,10.15,15.89,9.94z M44.63,62.34
	c-0.08-0.63-0.83-1.26-0.83-1.26s0.04-1.76-0.01-2.5c-0.05-0.75-0.7-1.04-1.23-1.6c-0.52-0.56-4.15-4.44-5.67-5.39
	c-1.52-0.95-2.87-3.25-3.66-4.44c-0.79-1.18-2.9-5.95-4.16-8.6c-1.26-2.65-3.29-3.98-4.05-4.79c-0.76-0.81-1.34-1.63-1-2.7
	c0.34-1.07,1.04-5.83,0.89-7.58c-0.15-1.75-0.37-2.78-0.65-3.59c-0.28-0.8,0.12-5.25-0.18-6.43c-0.3-1.18-1.02-1.63-1.7-2.26
	c-1.76-1.6-4.97-2.88-6.19-3.13c-1.21-0.26-0.7-0.37-1.23-1.6c-0.53-1.24-0.86-1.14-0.86-1.14c-1.54-0.65-1.39,0.43-1.29,0.95
	c0.1,0.48-0.71,0.52-0.64,0.78c0.24,0.89-0.01,0.43,0.45,1.22c0.46,0.79,1.09,0.87,1.85,1c0.42,0.08,0.99,0.4,1.41,0.67
	c-0.13-0.11-0.21-0.17-0.21-0.17c0.73,0.59,1.76,0.82,2.02,1.17c0.27,0.35,1.51,1.28,2.38,1.99c0.86,0.71,1.12,1.26,1.05,2.45
	c-0.04-0.62-0.46-1.01-0.7-1.31c-0.24-0.31-0.97-1.22-1.7-1.81c-0.47-0.38-1.6-1.3-2.34-1.91c-0.13,0.03-0.42,0.1-0.55,0.25
	c-0.17,0.2-0.54,0.22-0.54,0.22s-0.46-0.12-1.07-0.34c-0.23-0.09-0.79,0.46-0.79,0.46s-0.39,0.32-0.86,0.02
	c-0.21-0.14-0.43,0.92-0.43,0.92s-0.53-0.08-0.49,0.48c0.02,0.25-0.35,0.4-0.35,0.4l-1.28-0.03l0.57,0.64c0,0-0.86,0.51-0.59,0.64
	c0.27,0.13,0.55,0.54,0.55,0.54l0.11,0.42c0,0,0.15,1,1.06,1.97c0.75,0.8,0.98,1.9,1.08,2.23c0.1,0.33,0.51,0.86,0.98,1.35
	c0.43,0.46,0.83,0.91,1.2,1.1c0.13,0.1,0.28,0.18,0.43,0.26c0.01,0.45-0.33,1.67-0.61,1.99c-0.35,0.4-1.36,1.47-1.04,3.02
	c0.33,1.55,1.48,2.04,1.48,2.04s-0.09,2.66,0.51,4.35c0.6,1.68-0.46,2.69-0.4,3.62c0.06,0.93-2.53,5.37-3.45,6.78
	c-1.87,2.86-2.02,4.35-2.86,5.94c-1.21,1.98-0.26,3.98,0.02,4.3c0.28,0.32,4.01,3.55,5.57,5.06s4.89,3.24,5.24,3.51
	c0.35,0.27,0.79,0.02,0.79,0.02s1.12,0.05,1.7,1.2c0.04,0.07,0.08,2.24,0.05,3.29c-0.04,1.36,1.1,2.55,1.71,0.94
	c0.61-1.61,2.29-5.69,2.19-6.5c-0.09-0.82-2.49-1.45-3.01-1.34c-0.52,0.11-0.97-0.01-2.17-1.06c-1.19-1.05-0.21-0.36-0.54-1.42
	c-0.33-1.06-2.33-2.99-3.36-3.26c-1.03-0.27-1.89-1.41-2.31-1.65c-0.43-0.23-0.01-0.67,1.44-2c1.45-1.33,3.15-4.55,3.47-5.32
	c0.32-0.77,1.08-1.79,2.14-2.8c0.69,0.85,3.82,4.05,4.33,4.43c0.51,0.38,1.79,1.57,2.36,2.39c0.58,0.82,2.57,3.24,4.08,4.67
	c1.52,1.43,6.8,6.67,6.92,6.88c0.13,0.22,1.37,2.01,1.16,2.32c-0.2,0.31-1.48,3.09-0.44,3.06c1.05-0.03,3.67-2.33,4.17-2.63
	C45.08,63.43,44.71,62.97,44.63,62.34z M14.83,9.19c-0.15-0.11-0.71-0.19-1.05-0.22c-0.34-0.04-0.61-0.29-0.79-0.54
	C12.8,8.18,12.47,7.89,12.4,7.7c-0.07-0.2-0.07-0.6-0.07-0.6c-0.03-0.26,0.45-0.18,0.53-0.11c0.08,0.07,0.46-0.03,0.46-0.03
	s-0.02-0.39,0.12-0.47c0.15-0.09,0.1-0.38-0.05-0.69c-0.14-0.32-0.39-0.33-0.39-0.33s0.11-0.15,0.36-0.21
	c0.24-0.06,0.55,0.6,0.55,0.6s0.62,0.79,0.77,1.31c0.14,0.52-0.52,1.3-0.15,1.53c0.37,0.22,0.89,0.84,0.89,0.84
	S14.98,9.31,14.83,9.19z M12.27,17.54c0,0,0-0.02,0-0.06c0.01,0.03,0.03,0.06,0.04,0.09L12.27,17.54z M19.37,13.08l0.43,0.34
	c0,0-0.19-0.05-0.62,0C18.75,13.48,19.37,13.08,19.37,13.08z M16.13,21.36c-0.41,0.32-0.84,0.18-0.97-0.16
	c-0.13-0.34,0.23-0.94,0.23-0.94s1-1.23-0.51-0.18c-0.25,0.17-0.3-0.1-0.3-0.23c0-0.13,0,0-0.13-0.15
	c-0.14-0.15,0.26-0.43,0.26-0.43s-0.73,0.1-0.84,0.05s-0.06-0.19-0.07-0.4c-0.01-0.21-0.43-1.43-0.43-1.43
	c-0.83-0.76-0.41-2.19-0.39-2.24c1.15-1.73,3.05-0.49,3.81,0.32c0.12,0.12,0.21,0.25,0.29,0.37c0.13-0.04,0.59-0.17,0.64,0.08
	c0.06,0.29,0.13,0.71,0.05,0.83c-0.06,0.09-0.23,0.18-0.3,0.21c0.06,0.43,0.07,0.92,0.12,1.5c0.01,0.2,0.02,0.37,0.02,0.53
	C17.29,20.44,16.54,21.04,16.13,21.36z M19.98,19.82c-0.44,0.26-2.1,0.89-2.14,1.46c-0.04,0.58-0.17,0.65-0.17,0.65
	s-0.21-0.43,0-0.8c0.11-0.2-0.13-0.25-0.37-0.26c0.33-0.28,0.6-0.51,0.67-0.54c0.2-0.09-0.21-2.56-0.21-2.56s0.01,0.28-0.02,0.65
	c0.01-0.38-0.02-0.78-0.13-1.22c0,0,1.47,1.8,2,1.91c0.53,0.11,0.98-0.06,0.98-0.06S20.42,19.56,19.98,19.82z M20.78,17.54
	c-0.11,0.33-0.07,1.28-0.25,1.36c-0.95,0.39-0.85-0.12-1.1-0.31c-0.24-0.19-0.04-0.74,0.24-0.94c0.28-0.2,0.41-0.14,0.29-0.47
	c-0.12-0.32-0.35-0.55-0.73-0.56c-0.37-0.01-0.08-0.31-0.17-0.52c-0.09-0.21,0.65-0.35,1.06-0.56c0.41-0.2,0.17-0.16-0.18-0.19
	c-0.35-0.03-0.39-0.1-0.47-0.42c-0.08-0.31,1.04-0.48,1.04-0.48C21.46,14.97,20.89,17.21,20.78,17.54z M42.94,58.35
	c-0.28-0.15-0.52-0.02-0.88-0.19c-0.36-0.17-0.55-1.59-1.33-2.28c-0.78-0.69-2.85-2.48-3.95-3.05s-3.27-1.66-4.59-3.5
	c-1.33-1.84-2.77-7.69-3.38-9.82c-0.61-2.13-3.18-3.81-4.39-4.57c-1.21-0.76-2.04-2.18-2.41-3.25c-0.36-1.06,0.38-5.57,0.38-5.57
	s0.85-0.62,1.03-1.94c0.19-1.32-0.95-2.5-1.07-3.14s0.41-1.58,0.87-2.55c0.46-0.97,0.12-3.39,0.09-3.56
	c-0.04-0.17-0.79-1.58-1.12-2.47c-0.33-0.89-2.17-2.73-2.17-2.73c2.57,1.5,3.2,2.76,3.56,3.7c0,0,0.6,2.45,0.53,3.96
	c-0.07,1.51,0,2.29,0.24,3.68c0.84,3.4-0.14,8.37-0.46,10.05c-0.31,1.68,0.72,2.61,0.72,2.61s1.69,1.37,3,2.96
	c1.31,1.59,3.16,6.5,4.52,9.15c1.36,2.65,3.55,5.19,4.28,5.79c2.33,1.38,4.7,4.33,5.74,5.25C43.2,57.81,43.22,58.5,42.94,58.35z
	 M15.32,16.67c-0.26,0.1-0.46,0.22-0.57,0.27c0-0.01-0.01-0.02-0.01-0.03c-0.12-0.13,0.11-0.36,0.54-0.81c0.44-0.45,0,0-0.15,0.01
	c-0.15,0.01-0.26,0.09-0.62,0.26c-0.35,0.17-0.45,0.21-0.45,0.21l-0.08,0.29c0,0,0.31-0.05,0.49-0.08c0.18-0.02-0.04,0.21-0.02,0.29
	c0.06,0.2,0.21,0.39,0.46,0.5c0.25,0.11,0.54-0.09,0.53-0.25c-0.01-0.16,0.15-0.3,0.35-0.29C15.98,17.04,15.76,16.5,15.32,16.67z"/>
<path d="M106.42,91.55c-0.04-0.02-0.07-0.03-0.11-0.05c-0.68-1.76-1.47-3.41-2.34-4.96c-0.08,0.08-0.15,0.16-0.18,0.22
	c-0.19,0.32-0.77,1.43-1.15,1.67c-0.38,0.24-0.67-0.79-0.86-1.51c-0.19-0.72-1.34-2.63-1.34-2.63l-0.67,0.32
	c0,0-0.58-0.24-0.29-1.11l-1.34,0.08c0,0-2.4-0.32-2.88-0.32c-0.48,0-2.49-0.64-2.49-0.64s-1.15-1.11-1.44-0.48l0.58,0.95
	c0,0,0.67,0.24,0.67,0.48c0,0.24,1.06,0.24,1.34,0.16c0.29-0.08,0.96-0.16,1.34,0s0.38,0.96-0.1,1.67
	c-0.48,0.72-2.21,1.11-3.65,1.43s-1.92-0.24-1.92-0.24s-0.77-1.11-1.34-1.59c-0.58-0.48-0.86-1.35-0.86-1.35
	c-0.29-0.64-0.77-0.88-0.77-0.88l-0.86-0.56c0,0-0.19,0.72,0.19,1.27s2.49,3.1,3.17,3.58s0.77,0.79,2.21,0.95s0.86,0.56,0.48,0.96
	c-0.38,0.4-1.92,2.23-2.78,2.7c-0.86,0.48-1.06,2.38-0.86,3.26c0.19,0.87-0.58,1.99-0.96,2.23c-0.38,0.24-2.11,2.54-2.21,3.18
	c-0.01,0.06-0.03,0.13-0.05,0.2c8.4,0.97,16.44,2.42,24.02,4.29C108.9,100.2,108.02,95.73,106.42,91.55z M92.28,95.42
	c-0.1,0.24-0.48,1.59-0.38,2.78c0.1,1.19,0,1.11-0.58,1.59c-0.58,0.48-1.25-0.64-1.25-0.64l-0.38-0.63c0,0-0.48-1.03-0.29-1.51
	c0.19-0.48,1.14-0.96,1.73-1.51C91.9,94.79,92.38,95.18,92.28,95.42z M36.96,68.12c0.31-0.16,0.61-0.32,0.92-0.47
	c0-0.01,0-0.01,0.01-0.02C37.57,67.8,37.27,67.96,36.96,68.12z M77.17,64.99c0.35,0.11,0.69,0.23,1.03,0.35
	C77.54,65.1,77.17,64.99,77.17,64.99z M44.02,95.1c-0.19-0.64-1.44-0.48-1.06-2.38c0.38-1.91,0.96-2.7,0.58-2.94
	c-0.38-0.24-0.77-0.79-1.44-0.88c-0.67-0.08-1.06,0.08-1.44-0.56c-0.38-0.64-0.67-0.95-1.73-1.11c-1.06-0.16-3.07-0.16-4.03-0.72
	c-0.96-0.56-1.92-2.62-2.97-3.18s-2.49-1.91-2.11-1.03c0.38,0.88,1.82,2.55,1.82,2.55s-0.86-0.64-1.73-1.03
	c-0.86-0.4-0.96-1.27-1.06-1.83c-0.1-0.56-0.96-1.35-1.53-1.43c-0.58-0.08-1.25-0.95-1.54-1.51c-0.29-0.56-0.29-1.43-0.19-2.54
	c0.01-0.11,0.02-0.2,0.03-0.3c-0.57,0.53-1.08,1.03-1.54,1.49c-6.87,7.25-11.08,16.55-11.32,26.73c10.57-2.49,21.99-4.16,33.98-4.88
	c0.04-0.7,0.01-1.43-0.33-1.8C45.84,97.09,44.21,95.74,44.02,95.1z M86.33,80.23c0.29-0.4,0-0.64-0.29-0.71
	c-0.29-0.08-1.63,0.32-1.92,0.24c-0.29-0.08,0-0.79,0-1.99l-0.86,0.08c0,0-0.58,0.63-0.77,0.95c-0.19,0.32-0.38,0.79-0.96,0.24
	l-0.39-0.96c0,0-0.96-0.79-1.25-0.87c-0.29-0.08-0.58-0.56-1.06-0.72c-0.48-0.16-0.67-0.16-0.77,0.24c-0.1,0.4,0.96,0.96,1.63,1.19
	c0.67,0.24,0.67,0.48,0.1,0.96c-0.58,0.48-1.25,0.64-1.25,0.64s0.67-0.32,0.77-0.88c0.1-0.56-0.96-0.79-1.25-0.79
	c-0.29,0-1.54-0.96-1.92-1.11c-0.38-0.16-0.67-0.16-1.25,0.08c-0.58,0.24-0.67,0.79-0.86,1.19c-0.19,0.4-1.06,1.35-1.06,1.35
	s-1.34,0.32-1.92,0.32s-1.06-0.24-1.15-0.64c-0.09-0.4,0.1-1.19,0.29-1.75c0.19-0.56,0.67-0.32,1.25-0.4
	c0.58-0.08,0.77-0.71,0.77-0.95c0-0.24-0.29-0.95-0.67-1.11c-0.38-0.16,0.96-0.32,1.25-0.32c0.29,0,1.44-0.79,1.44-0.79
	s0.96-0.64,1.06-0.96c0.1-0.32,1.06-0.87,1.06-0.87s0.19-0.64,0.58-0.88c0.38-0.24,0.67,1.11,0.67,1.11s0.48,0.16,1.15,0.08
	c0.67-0.08,0.96-0.24,1.25-0.32c0.29-0.08,1.06-0.4,1.06-0.4s0-1.03,0.19-1.27c0.19-0.24,0.86-0.32,1.34-0.72
	c0.48-0.4,0.86-0.48,1.25-0.64c0.38-0.16,0.19-0.87,0.19-0.87l-1.06,0.08c0,0-1.15,0.32-1.54,0c-0.31-0.26,0-0.92,0.24-1.29
	c-0.4-0.18-0.78-0.35-1.14-0.51c-0.09,0.1-0.18,0.2-0.25,0.29c-0.38,0.56-0.38,0.88-0.19,1.35c0.19,0.48,0.19,1.51,0.19,1.51
	s-0.86,0.24-0.67,0.64c0.19,0.4-1.05,1.11-1.05,1.11s-0.48-0.32-0.96-0.96c-0.48-0.63,0.29-1.11,0.29-1.11s-0.58,0.08-0.86,0.4
	c-0.29,0.32-1.44,0.16-1.73-0.24c-0.29-0.4,0.1-1.43,0.38-2.15c0.17-0.42,0.83-1.36,1.49-2.12c-5.09-1.63-10.58-2.53-16.31-2.53
	c-8.32,0-16.15,1.88-22.98,5.2c-0.09,0.25-0.19,0.46-0.29,0.57c-0.38,0.4,0.77,1.51,1.25,1.59c0.48,0.08,2.4,0.16,2.5,1.11
	c0.1,0.96,0.77,2.23,1.53,2.15c0.77-0.08,0.38-0.8,0.1-1.51c-0.29-0.71,0.77-3.34,0.77-3.34s-0.29-1.35,0.96-0.95
	c1.25,0.4,2.59,0.56,2.3,1.03c-0.29,0.48,0.58,1.27,0.58,1.27s-0.19-0.88,0.58-0.95c0.77-0.08,1.06,0.24,1.25,0.79
	c0.19,0.56,1.63,1.11,1.73,1.35c0.1,0.24-0.38,1.67-0.38,1.67s2.11-0.32,1.25,0.4c-0.46,0.38-0.58,0.95-1.25,0.88
	c-0.67-0.08-1.73,0.32-2.11,0.4c-0.38,0.08-2.01,1.19-1.15,0.95c0.86-0.24,1.63-0.56,1.82-0.08c0.19,0.48,0.77,0.72,0.77,0.72
	s-0.38,1.03-0.86,1.35c-0.48,0.32-0.67,1.03-0.48,0.32c0.19-0.72,0.86-1.67,0.38-1.67c-0.48,0-0.77,0.48-1.15,0.72
	c-0.38,0.24-0.96,0.64-0.96,0.64s-1.63,1.99-2.01,1.99s0.1,0.88-0.48,1.35c-0.58,0.48-0.86,0.32-1.15,0.95
	c-0.29,0.64-0.23,1.49-0.77,1.67c-0.48,0.16-0.77-0.4-0.77-0.4s-1.34-0.16-1.92-0.16c-0.58,0-1.73-0.16-2.4,0.4
	c-0.67,0.56-1.06,1.11-0.58,2.07c0.48,0.96,0.86,1.35,1.54,1.19c0.67-0.16,0.38-0.88,1.06-1.03c0.67-0.16,1.34-0.16,0.77,0.24
	c-0.58,0.4-0.67,1.11-0.67,1.11s0.77,0,1.44,0.08c0.67,0.08,1.63,0.32,1.06,0.79c-0.58,0.48-0.1,0.88-0.1,0.88l2.11,0.88
	c0,0,0.58-1.19,2.4-0.95c1.82,0.24,3.26,0.32,3.74,0.56c0.48,0.24,1.15,1.03,1.82,0.95c0.67-0.08,1.82,0.08,2.21,0.72
	c0.38,0.64-0.19,1.11-0.19,1.11s0.86,0,1.34-0.08c0.48-0.08,1.06,0.4,1.44,0.56c0.38,0.16,1.44,0.63,2.11,0.71
	c0.67,0.08,2.11,0.56,1.92,1.35s-0.77,0.95-1.06,1.51c-0.29,0.56-1.63,2.62-1.92,2.94c-0.29,0.32-0.96,0.48-1.34,0.71
	c-0.01,0-0.01,0.01-0.01,0.01c1.13-0.02,2.25-0.03,3.39-0.03c6.69,0,13.25,0.31,19.62,0.88c-0.05-0.19-0.11-0.38-0.16-0.54
	c-0.29-0.79-0.67-1.67-1.15-2.31c-0.48-0.64,0.19-1.43,0.48-1.83c0.29-0.4-0.48-2.15-0.67-2.62c-0.19-0.48-0.77-0.64-0.86-1.19
	c-0.09-0.56-0.58-1.03-0.96-1.03s-0.86,0-1.25-0.24c-0.38-0.24-1.54-0.08-2.78,0.08s-2.3-0.08-2.97-0.72
	c-0.67-0.64-0.96-1.27-1.54-2.39s0-2.47,0.48-3.02c0.48-0.56,1.06-1.83,1.06-1.83s0.29-0.8,0.77-0.95c0.48-0.16,0.86-1.11,0.86-1.11
	c0.58-0.63,1.25-0.24,1.54-0.32c0.29-0.08,1.25-0.08,1.73-0.16c0.48-0.08,1.05-0.08,1.53-0.16c0.48-0.08,0.67-0.16,1.92,0l0.48,0.72
	c0,0,0.86,0.4,1.73,0.63c0.86,0.24,0.77,0,1.34,0c0.58,0,1.92,0.16,2.88,0.32c0.96,0.16,0.96-0.08,1.44-0.16
	C85.95,81.11,86.04,80.63,86.33,80.23z M71.84,69.5c0.29-0.16,0.1,0.4,0.38,0.72c0.29,0.32,0.96,1.67,0.96,1.67s0.48,0.16,0.38,0.64
	c-0.1,0.48,0.09,0.88-0.58,0.95c-0.67,0.08-1.92,0.95-1.54-0.08c0,0,0.67-1.27,0.29-1.83s-0.67-1.51-0.67-1.51
	S71.56,69.66,71.84,69.5z M68.1,66.24c-0.19,0.64-2.32,0.67-2.4,0.32c-0.19-0.88-1.44-0.96-1.63-1.51c-0.19-0.56,0.48-0.8,0.86-0.88
	c0.39-0.08,1.25-0.08,1.92,0.08c0.67,0.16,1.15,0.16,1.15,0.16S68.29,65.6,68.1,66.24z M69.73,71.41c0.48-0.4,0.86,0.08,0.96,0.64
	c0.1,0.56-0.96,1.35-0.96,1.35C68.87,73.63,69.25,71.8,69.73,71.41z"/>
<path d="M0,112.5c0,0,30.17-10.22,62.29-10.22s58.7,11.28,58.7,11.28S71.05,94.98,0,112.5z"/>
</svg>
