<svg xmlns="http://www.w3.org/2000/svg" xmlns:xlink="http://www.w3.org/1999/xlink" version="1.1" baseProfile="tiny" x="0px" y="0px" width="64px" height="64px" viewBox="0 0 64 64" xml:space="preserve">
<g id="Layer_1" display="none">
    <path display="inline" d="M47.729,43.921l9.301,2.658l-7.081-6.851c0.647-1.669,1.085-3.439,1.256-5.294L60.935,32l-9.896-2.477   c-0.269-1.726-0.742-3.381-1.423-4.929l7.413-7.172l-10.011,2.861c-1.029-1.303-2.218-2.466-3.536-3.475l2.875-10.06l-7.253,7.499   c-1.513-0.633-3.126-1.064-4.799-1.309L31.778,2.843l-2.499,9.983c-1.752,0.188-3.427,0.617-5.011,1.23l-7.07-7.309l2.75,9.625   c-1.496,1.062-2.841,2.317-3.992,3.743l-9.431-2.695l6.934,6.707c-0.819,1.738-1.389,3.609-1.675,5.578L2.62,32l9.019,2.256   c0.176,2.103,0.668,4.111,1.448,5.977l-6.56,6.347l8.721-2.492c1.229,1.725,2.726,3.237,4.43,4.49l-2.479,8.675l6.264-6.476   c1.902,0.835,3.956,1.38,6.112,1.58l2.204,8.801l2.226-8.895c2.074-0.27,4.044-0.857,5.866-1.717l6.487,6.706l-2.603-9.107   C45.276,46.938,46.616,45.518,47.729,43.921z"/>
</g>
</svg>
