<?xml version="1.0" encoding="utf-8"?>
<!-- Generator: Adobe Illustrator 15.0.1, SVG Export Plug-In  -->
<!DOCTYPE svg PUBLIC "-//W3C//DTD SVG 1.1 Tiny//EN" "http://www.w3.org/Graphics/SVG/1.1/DTD/svg11-tiny.dtd" [
	<!ENTITY ns_flows "http://ns.adobe.com/Flows/1.0/">
]>
<svg version="1.1" baseProfile="tiny"
	 xmlns="http://www.w3.org/2000/svg" xmlns:xlink="http://www.w3.org/1999/xlink" xmlns:a="http://ns.adobe.com/AdobeSVGViewerExtensions/3.0/"
	 x="0px" y="0px" width="363px" height="750px" viewBox="-0.15 -0.14 363 750" overflow="visible" xml:space="preserve">
<defs>
</defs>
<polygon fill="#3C711D" points="163.19,321.86 93.85,350.19 67.85,368.86 180.19,326.53 "/>
<polygon fill="#A9C811" points="155.34,476.89 99.85,491.53 67.85,368.86 173.85,326.19 "/>
<path fill="#1B262B" d="M194.69,21.28c-16.33,4,4.17,24.58-20.96,26.33c0.67,3.79,5.92,4.44,5.21,8.08
	c-1.38,1.38-3.71,0.12-0.58,4.08c0.21,1.02-2.48-0.33-2.48,3.23c5.17,5.17-0.15,10.23,4.06,19.61c22.04-5.38,22.51-2.27,23.03,9.06
	c0.88,19.35-15.49,47.87-23.35,51.25c-11.42,4.91-52.52,11.69-26.82,40.94c4.58,5.21-7.29,38.51,2.05,96
	c6.91,42.57,6.67,69,6.67,126c0,56.33-10.33,96.44-26,151c-7.07,24.62-17.49,31.81-26.33,63.33c-6.62,23.61-27.67,57.67-42,77.33
	c-30.4,41.71-58.72,34.28-43,39.5c6.55,2.17,18.8-4.3,30.5-16c5.42-5.42,15.36-7.43,23-5.83c11.17,2.33,24.22,14.73,23.67-22.5
	c-0.75-50.55,38.05-78.31,45.75-103.58c9.75-32,20.05-32.07,30.5-75.75c2.91-12.17,9.83-24.75,18.79-33.71
	c3.88-3.88,5.83,35.83,26.04,54.12c16.16,14.63,30.11,39.21,40.42,51.42c36.4,43.09,44.52,62.17,51.5,82.67
	c10.17,29.83-10.18,57.98,0.71,47.09c12.76-12.76,1.96-29.75,10.12-35.59c14.61-10.43,20.39-5.44,16.58-15.75
	c-3.38-9.16-15.39-7.49-21.92-19.42c-41.43-75.77-24.89-46.92-41-76c-15-27.08-29.5-54.83-41.33-61.67
	c-3.17-33.42-3.81-49.34-9.67-70.33c-20.44-73.25,26-94.33,0-135.33c-11.89-18.76-27.31-23.81-33.03-41.38
	c-8.22-25.24,3.36-38.58,13.53-61.37c26.82-60.12,15.75-56.06,9.46-72.54c-3.78-9.89,0.32-33.84,6.04-45.21
	C261.1,6.36,194.69,21.28,194.69,21.28z"/>
<path fill="#1B262B" d="M150.85,266.69c-48.67,41.5-57.58,38.42-70.17,48.33c-19.68,15.51-15.67,16.67-22,17.83
	c-13.28,2.45-20.15-3.19-15.49,1.47c3.43,3.43,7.91,5.61,12.16,6.03c4.47,0.44,6.67-3.67,14.17,2.5c7.25-5.92,11.41-13.5,11-17.67
	c25.5-15,52.62-23.83,71.67-30.33C156.01,293.56,150.85,266.69,150.85,266.69z"/>
<path fill="#4EB9B1" d="M216.58,121.86c-33.59,30.39-46.33,25.11-52.43,26.46c-30.79,6.79-18.74,35.63-11.8,42.57
	c0,0-4.24,9.22-4.24,35.22c0,25.72,5.85,65.2,10.08,129.5c3.62,54.92-1.54,69.25-20.67,116.25c37.25-2.09,45.23,3.53,66.16-15.87
	c9.4-8.72,36.51-6.46,59.88,7.83c-20.04-27.62-45.85-56.17-33.96-94.46c11.58-37.31,16.69-59.94-11.08-82.5
	c-44.62-36.24-16.18-66.22-8.12-90.42c2.52-7.56,7.61-13.96,6.47-19.82c-1.02-5.26-10.64-7.58-12.27-18.01
	C201.63,139.57,216.58,121.86,216.58,121.86z"/>
<path fill="#B4A521" d="M200.19,102.19c-1.3,10.95-8.63,16.26-3.08,15.6c20.14-2.38,18.64,7.44,22,1.4c3.02-5.44-7.81-5.81,7-3.58
	c20.12,3.03,16,21.38,26.58,27.25c6.64,3.69,19.42-5.25,35.29,6c26.12,23,27,19.5,39.75,18c-32.88,0-36.04-32.99-54.89-31.73
	c-14.73,0.98-13.63,1.07-15.48-0.94c-7.91-8.58-18.52-24.91-30.27-24.19c-9.73,0.6-9.91,1.91-5.1-2.9c3.38-3.38,4.3-4.26,7.31-3.12
	c7.69,2.9,11.2,6.61,12.44,3.71c8.69-20.27,41.61-25.68,27.29-22.83c-23.92,4.75-24.18,12.51-32.83,9.83
	c-6.76-2.09-14.25,0.7-14.75,3.87c-1.09,6.91-3.46,7.9-5.25,7.32C207.15,102.99,200.71,97.84,200.19,102.19z"/>
<path fill="#FFD453" d="M152.19,294.86c-3.83,9.33,0.99,22.18,4.25,19.57c16.7-13.3,27.14-21.33,46.4-26.47
	c10.34-2.76,20.61-0.35,14.49-3.93c-4.42-2.58-5.33-5.64-10.14-9.01c-4.78-3.35-11.7,0.68-16.03,3.38
	c-10.11,6.31-17.8,13.96-24.13,13.96C155.63,292.36,152.19,294.86,152.19,294.86z"/>
<path fill="#FFD453" d="M171.19,189.19v40.67c71-15.5,97.83-37.17,125-57.67l-32.67-24.33C239.35,166.56,226.1,176.86,171.19,189.19
	z"/>
<path fill="#1B262B" d="M204.6,143.86c-9.5,25.75,5.06,15.36,41.12,76.38c5.02,8.48-6.62,26.62-9.87,51.96
	c-7.7,60.01-13.83,57.83-9.17,62.5c3.83,3.83,13.33,1.33,18.67,14.33c7.9,19.25,2.83,3.33,8.17,3.33c3,0,2.69-19.1-4-21.67
	c-3.96-1.52-2.33-3.33-18.83-5c-3.32-0.33,27.8-57.33,33.5-82.83c1.25-5.61,4.18-21.56,1.08-26.08
	c-14.17-20.65-18.94-37.34-24.34-47.25c-16.48-30.27-7.08-32.42-23.12-42.31C212.05,123.66,204.6,143.86,204.6,143.86z"/>
<g>
	<path fill="#FFD453" d="M205.98,184.71c-3.23-11.36-5.23-23.15-4.33-34.98c0.58-7.68,2.7-18.62,11.11-21.24
		c5.92-1.85,11.63,2.96,15.29,6.99c8.31,9.15,12.9,21.75,16.68,33.28c-0.07-0.22,0.88-0.92,0.75-1.3
		c-4.19-12.78-9.45-27.22-19.82-36.39c-5.05-4.47-11.77-5.92-16.95-0.97c-4.45,4.25-6.37,10.99-7.34,16.83
		c-2.17,12.95,0.31,26.62,3.86,39.08C205.16,185.77,206.09,185.11,205.98,184.71L205.98,184.71z"/>
</g>
<path fill="#A2641A" d="M121.85,574.53l32.33,17.67c-30.38,30.38-41.26,65.41-49.1,89.91c-4.8,15,2.05,30.08-3.73,33.61
	c-16.25,9.92-14.75,16.65-25.84,33.81h-2.67c12.57-31.88,7.54-32.97-2.25-32.97c-23,0-15.5,30.6-48.5,25.06
	c-11-1.85-25.83-12.02-21.25-10.75c45.62,12.62,94.5-82.68,104.98-109.02C119.42,587.72,121.85,574.53,121.85,574.53z"/>
<path fill="#A2641A" d="M245.19,584.53l32.5-27.17c20.67,34,30.08,64.68,45.75,84.09c8.5,10.53,23.44,12.14,23.17,17.36
	c-1.03,19.44,6.37,20.68,16,35.31l-3.25,2.5c-13.55-26.11-23.09-22.16-28.04-16.46c-14.92,17.18,1.54,25.22-13.21,39.99
	c-6.08,6.08-30.07,8.01-26.75,6.47c45.62-21.12,5.08-94.25-5.42-108.25C266.77,592.82,245.19,584.53,245.19,584.53z"/>
<path fill="#ECAB24" d="M227.49,12.1c4.68,3.44,16.02,12.45,18.86,7.26c10.67-19.5-11.83-19-9.5-19c2.17,0,10.17-2.5,14.83,5.67
	c6.47,11.32-1.67,18.5-7.67,18.5c-3,0,5,10.67,12.67,7.17c11.72-5.35-0.94-16.56,7.33-24.83c11.08-11.08,19.35,11.93,16.83,8
	c-6.92-10.8-21.67-6.5-11.08,6.92c5.04,6.4,0.75,14.47-0.08,16.25c19.39,7.72,30.33-1.67,34.67-10.67
	c4.9-10.18,17.88,0.05,11.83-2.33c-11.12-4.38-16.42,33.25-41.58,23.42c-18.01-7.04-27.25,7.08-17.58,2.58
	c5.23-2.43,20.25-0.17,20.67,9.5c1.04,24.16-26.17,17.33-19.67,18c4.48,0.46,8.7-2.5,12.17-9.83c4.83-10.2-9.91-11.86-17.08-8.58
	c-19.5,8.92-21.36,31.56-38.5,21.5c-14.69-8.62-6.12-19.38,1.39-20.61c1.88-0.31-3.97,3.53-3.39,6.36c1.89,9.19,15.25,2.25,18.25-10
	c4.16-16.97-11.12-12.87-10.12-4.67c0.5,4.09-11.17-11.86-16.54-17.17c0,8.67,0.17,12.41,10,16.67c2.16,0.94-10.5,2.08-17.42-12.42
	c-4.6-9.65,0.19-8.98-4.58-13.75c-4.92-4.92-4,7.34-0.45,10.89c-8.33-3.72-10.48-16.48,0.56-25.72
	C203.01,2.22,216.02,3.67,227.49,12.1z"/>
<g>
	<path fill="#E2CD5C" d="M111.34,297.11l2.77-1.85c-2.56-1.65-5.1-2.4-6.51-1.4c-1.22,0.87-4.25,0.88,0.42,62.67
		c0.08,1.01,6.24,1.72,5.9-1.48c-0.57-5.35-2.64-19.03-3.86-57.52C110.03,296.62,110.51,296.54,111.34,297.11z"/>
	<path fill="#E2CD5C" d="M119.31,306.72c5.05,7.41,10.93,17.82,14.21,27.27l4.38-1.79c0,0-3.8-10.12-14.95-26.89L119.31,306.72z"/>
</g>
<path fill="#1B262B" d="M245.41,333.48c10.51,1.03,6.32,9.85,13.76,16.63c9.74,8.88,15.53,27.69,8.81,17.66
	c-8.66-12.91-8.65-12.02-12.36-16.27c2.27,14.46,15,17.7,14.78,27.2c-0.11,4.73-1.31-2.31-7.03-8.07
	c-5.83-5.88-6.82-6.33-12.22-15.22C240,337.06,245.41,333.48,245.41,333.48z"/>
<path fill="#1B262B" d="M235.25,327.99c-11.62,2.81,1.58,4.48,9.01,18.06c5.1,9.33,1.19,16.97,5.72,19.14
	c5.57,2.66,14.21,8.41,12.89,6.86c-11.94-13.97-12.38-6.73-11.72-18.99c1.01-18.65,2.35-17.52-4.79-22.56
	C240.3,326.21,235.25,327.99,235.25,327.99z"/>
<path fill="#1B262B" d="M249.99,338.33c6.21,1.6,15.41,3.82,19.22,8.39c4.47,5.35,16.77,1.1,10.49,0.27
	c-15.65-2.06-18.31-13.15-26.71-14.46S249.99,338.33,249.99,338.33z"/>
</svg>
