<?xml version="1.0" encoding="utf-8"?>
<!-- Generator: Adobe Illustrator 15.0.0, SVG Export Plug-In  -->
<!DOCTYPE svg PUBLIC "-//W3C//DTD SVG 1.1 Tiny//EN" "http://www.w3.org/Graphics/SVG/1.1/DTD/svg11-tiny.dtd" [
	<!ENTITY ns_flows "http://ns.adobe.com/Flows/1.0/">
]>
<svg version="1.1" baseProfile="tiny"
	 xmlns="http://www.w3.org/2000/svg" xmlns:xlink="http://www.w3.org/1999/xlink" xmlns:a="http://ns.adobe.com/AdobeSVGViewerExtensions/3.0/"
	 x="0px" y="0px" width="200px" height="130px" overflow="visible" xml:space="preserve">
<defs>
</defs>
<path fill="#B2B2B2" d="M159.14,70.82l-7.52,4.27c2.79,10.62,6.74,14.71,11.6,12.11c2.33,3.63,4.08,4.66,5.25,2.92
	c2.27,3.56,5.31,4.21,9.13,1.94c0.26,1.17,0.91,1.81,1.88,2.01c-0.45,2.85,0.52,4.47,2.79,4.92c5.96-2.01,7.06-4.08,3.04-6.48
	c2.91-1.49,2.85-3.11-0.13-4.73c-1.75-3.37-4.14-4.08-7.25-2.2C177.79,71.34,171.51,66.35,159.14,70.82"/>
<path fill="#B2B2B2" d="M190.1,102.11c0.26-0.26,0.39-0.65,0.39-1.04c0-0.39-0.13-0.71-0.39-1.04c-0.26-0.26-0.52-0.39-0.78-0.39
	c-0.39,0-0.65,0.13-0.91,0.39c-0.19,0.32-0.32,0.65-0.32,1.04c0,0.39,0.13,0.78,0.32,1.04c0.26,0.26,0.52,0.39,0.91,0.39
	C189.58,102.5,189.84,102.37,190.1,102.11"/>
<path fill="#CCCCCC" d="M153.01,8.82c-2.98-3.04-6.74-4.6-11.08-4.6c-4.41,0-8.03,1.55-11.14,4.6c-3.04,3.04-4.6,6.74-4.6,11.08
	c0,4.34,1.55,8.1,4.6,11.14c3.11,3.04,6.74,4.6,11.14,4.6c4.34,0,8.1-1.56,11.08-4.6c3.04-3.04,4.6-6.8,4.6-11.14
	C157.61,15.56,156.05,11.86,153.01,8.82"/>
<path fill="#CCCCCC" d="M8.81,36.15c-1.69,1.68-2.53,3.76-2.53,6.15s0.84,4.4,2.53,6.09c1.68,1.68,3.76,2.53,6.15,2.53
	c2.4,0,4.41-0.84,6.09-2.53c1.62-1.68,2.53-3.69,2.53-6.09s-0.91-4.47-2.53-6.15c-1.68-1.62-3.69-2.46-6.09-2.46
	C12.57,33.69,10.49,34.54,8.81,36.15"/>
<path fill="#CCCCCC" d="M72.75,95.36c0-2.33-1.62-4.41-4.92-6.09c-3.24-1.68-7.26-2.53-11.79-2.53c-4.66,0-8.42,0.78-11.47,2.27
	c-3.11,1.49-4.34,3.3-3.76,5.25c0.65,1.94,2.59,3.89,5.96,5.96c3.24,2.13,6.93,3.24,10.88,3.43c3.89,0.13,7.38-0.58,10.49-2.2
	C71.19,99.83,72.75,97.82,72.75,95.36"/>
<path fill="#CCCCCC" d="M30.77,84.8c0.71-0.71,1.1-1.55,1.1-2.66c0-0.91-0.39-1.81-1.1-2.59c-0.78-0.71-1.62-1.1-2.66-1.1
	c-0.26,0-0.58,0.06-0.84,0.13c0.19-0.65,0.26-1.36,0.26-2.07c0-2.59-0.97-4.79-2.85-6.67c-1.68-1.62-3.63-2.59-5.96-2.72
	c0.13-0.32,0.13-0.78,0.13-1.17c0-1.23-0.45-2.2-1.3-3.11c-0.78-0.78-1.81-1.23-3.04-1.23c-1.17,0-2.14,0.45-3.04,1.23
	c-0.84,0.91-1.23,1.88-1.23,3.04c0,1.23,0.39,2.2,1.23,3.04c0.13,0.13,0.32,0.32,0.45,0.45c-0.19,0.13-0.32,0.32-0.52,0.45
	c-1.81,1.88-2.79,4.08-2.79,6.67s0.97,4.86,2.79,6.67c1.81,1.81,4.08,2.72,6.67,2.72c2.53,0,4.66-0.84,6.48-2.59
	c0.13,0.65,0.45,1.04,0.91,1.49c0.71,0.78,1.62,1.1,2.66,1.1C29.15,85.9,29.99,85.58,30.77,84.8"/>
<path fill="#AAAAAA" d="M0,53.65c0,0.84,0.26,1.49,0.78,2.01c0.39,0.39,0.78,0.58,1.23,0.78c-0.06,0.13-0.06,0.26-0.06,0.45
	c0,1.36,0.52,2.59,1.49,3.63C4.41,61.48,5.64,62,7.06,62c1.42,0,2.59-0.52,3.56-1.49c1.04-1.04,1.55-2.27,1.55-3.63
	c0-1.43-0.52-2.59-1.55-3.63c-0.97-0.97-2.14-1.49-3.56-1.49c-0.71,0-1.36,0.13-2.01,0.45c-0.06-0.13-0.19-0.32-0.39-0.45
	c-0.45-0.58-1.1-0.84-1.94-0.84c-0.78,0-1.42,0.26-1.94,0.84C0.26,52.35,0,53,0,53.65"/>
<path fill="#CCCCCC" d="M128.13,7.13c-8.68-5.25-16.19-6.35-22.74-3.43c-4.41-3.04-9.2-4.21-14.25-3.5
	c-6.15-0.58-11.53,0.52-16,3.37L73.2,3.7c-3.37-1.81-10.49-1.94-21.38-0.45c-7.06,1.81-10.43,5.05-10.04,9.72
	c-0.19,0.07-0.32,0.07-0.52,0.13c-1.43-0.71-3.04-1.17-4.6-1.49c-0.32-0.71-0.78-1.43-1.49-2.07c-1.17-1.1-2.72-1.62-4.4-1.62
	c-1.68,0-3.17,0.52-4.41,1.62c-1.23,1.1-1.81,2.46-1.81,4.02c0,0,0,0.13,0,0.19c-1.23,0.65-2.4,1.49-3.43,2.59
	C17.75,19.57,16,23.52,16,28.12c0,3.89,1.23,7.25,3.69,10.3c-0.65,0.32-1.17,0.84-1.68,1.36c-1.43,1.43-2.46,2.92-3.04,4.66
	c-4.53,3.76-4.34,7.97,0.52,12.5c0,11.6,3.3,17.56,9.78,17.94C24.23,80.07,27.53,85,35.43,89.66c1.81,1.1,3.95,2.2,6.35,3.37
	c0,0,0,0-0.13,0h20.86v9.13c9.2,11.98,23,16.32,41.52,13.08c9.2,0.45,15.03-2.27,17.43-8.1c14.77-1.1,20.92-3.63,18.27-7.58
	c10.95-1.1,18.27-4.47,21.96-9.91c0.39-0.65,0.78-1.23,1.1-2.01c5.51-1.04,8.81-4.21,9.98-9.78c10.36-7.45,12.44-14.96,6.41-22.54
	c2.14-6.02,0.84-10.11-3.82-12.24c-3.43-8.16-9.07-15.22-16.97-21.25C153.27,9.66,143.23,4.8,128.13,7.13"/>
<path fill="#ACACAC" d="M162.85,98.02c-1.29,0-2.33,0.26-3.3,0.71c-0.91,0.52-1.36,1.16-1.36,1.81c0,0.65,0.45,1.3,1.36,1.81
	c0.97,0.46,2.01,0.71,3.3,0.71c1.3,0,2.46-0.26,3.37-0.71c0.84-0.52,1.36-1.17,1.36-1.81c0-0.65-0.52-1.29-1.36-1.81
	C165.32,98.28,164.15,98.02,162.85,98.02"/>
<path fill="#B1B1B1" d="M26.88,97.95c-1.43-1.43-3.17-2.2-5.25-2.2c-2.07,0-3.82,0.78-5.31,2.2c-1.42,1.49-2.14,3.24-2.14,5.31
	c0,2.07,0.71,3.82,2.14,5.25c1.49,1.49,3.24,2.2,5.31,2.2c2.07,0,3.82-0.71,5.25-2.2c1.49-1.43,2.2-3.18,2.2-5.25
	C29.09,101.19,28.37,99.44,26.88,97.95"/>
<path fill="#C1C1C1" d="M21.05,47.49c-0.19,0-0.32,0-0.52-0.06V82.8c1.43-0.2,2.85-0.65,4.6-1.1c1.81,3.04,4.4,3.63,7.84,1.88
	c-0.06,0.52,0.07,1.1,0.45,1.75V68.87c-0.97,0.26-2.01,0.65-3.04,1.04c1.04-3.37-0.19-4.73-3.63-4.15
	c-2.07-3.43-2.85-7.19-2.46-11.14C25.33,50.47,24.29,48.14,21.05,47.49"/>
<path fill="#C1C1C1" d="M20.53,47.43c-7.06-1.55-8.16-5.64-3.11-12.18c-5.64-0.97-8.61,1.94-9.07,8.88c1.1,3.82,3.11,5.38,6.09,4.73
	c-0.26,3.76,0.84,6.28,3.3,7.58c-0.32,2.07-0.52,4.08-0.52,6.15c-3.56,1.04-4.66,3.24-3.56,6.61l-2.72,4.21
	c-2.01,7.77,1.1,10.95,9.59,9.39V47.43"/>
<path fill="#C1C1C1" d="M87.06,97.95c-0.71,0-1.43,0-2.2,0v14.96c1.1,0.32,2.2,0.71,3.43,1.17c3.17,0.32,6.28,0.45,9.39,0.32v-12.96
	C86.87,108.38,83.31,107.15,87.06,97.95"/>
<path fill="#C1C1C1" d="M84.86,97.95c-4.86-0.07-9.07-0.32-12.83-0.71v10.95c3.11,1.29,7.32,2.85,12.83,4.73V97.95"/>
<path fill="#C1C1C1" d="M46.32,70.55v3.82C46.96,72.62,46.96,71.39,46.32,70.55"/>
<path fill="#C1C1C1" d="M46.32,74.37v-3.82c-0.13-0.13-0.26-0.26-0.45-0.39c-0.91-3.37-5.05-3.82-12.44-1.3v16.45
	c1.17,1.88,4.4,4.15,9.52,6.74c1.1,1.55,2.2,2.98,3.37,4.27V83.96c-1.23-2.59-1.55-5.18-0.97-7.64
	C45.73,75.54,46.12,74.89,46.32,74.37"/>
<path fill="#C1C1C1" d="M59.14,93.81c-2.01-1.04-3.63-2.2-4.79-3.63c-2.33-2.53-1.68-4.14,2.01-4.99c-1.94-2.85-5.18-3.04-9.59-0.39
	c-0.13-0.26-0.32-0.52-0.45-0.84v12.37c3.56,3.69,7.9,5.64,12.83,5.64V93.81"/>
<path fill="#C1C1C1" d="M66.59,103.72c-1.49,0.78,0.26,2.33,5.44,4.47V97.24c-5.44-0.71-9.72-1.81-12.89-3.43v8.16
	c1.56,0.06,3.11-0.13,4.79-0.45C68.34,101.71,69.18,102.36,66.59,103.72"/>
<path fill="#C1C1C1" d="M123.47,100.74v3.5l1.62-1.23l10.62-0.65C131.05,102.17,126.9,101.58,123.47,100.74"/>
<path fill="#C1C1C1" d="M123.47,104.24v-3.5c-1.43-0.32-2.66-0.71-3.89-1.17c-4.02,0.97-7,1.23-9,0.97v13.02
	c5.18-0.78,8.16-2.91,9.13-6.41L123.47,104.24"/>
<path fill="#C1C1C1" d="M97.69,114.41c2.33-0.06,4.66-0.26,7-0.65c2.14,0.06,4.08,0,5.9-0.2v-13.02c-3.69-0.52-4.15-2.91-1.23-7.38
	c-4.53,3.5-8.42,6.28-11.66,8.29V114.41"/>
<path fill="#CCCCCC" d="M116.02,82.92c-4.15,4.41-4.99,7.51-2.4,9.14l6.67,6.74c1.04,8.29,5.44,12.11,12.96,11.59
	c4.15,3.24,7.32,4.28,9.52,2.85c3.24,3.82,5.12,4.73,5.7,2.59c2.27,0.45,3.37,0.45,3.24,0c1.62-2.07,1.23-3.11-0.91-2.98
	c3.43-1.49,4.73-2.14,3.82-2.14c-0.91-2.07-2.2-2.33-4.08-0.78c-0.52,0.58-1.43,0.9-2.66,0.84c0.33-3.3-1.43-5.18-5.44-5.51
	c-0.39-4.6-2.46-7.12-6.22-7.58c-0.13-3.37-2.07-6.22-5.76-8.55C137.72,82.99,132.86,80.92,116.02,82.92"/>
<path fill="#999999" d="M161.82,76.12l0.32-0.45c-1.49-0.78-2.53-0.78-3.04,0l-0.65,1.42C160,75.8,161.17,75.41,161.82,76.12"/>
<path fill="#999999" d="M163.11,75.09l-0.45-0.97c-2.72-1.75-4.47-0.97-5.38,2.33C158.64,73.92,160.59,73.47,163.11,75.09"/>
<path fill="#999999" d="M143.16,58.5c-0.13,0-0.13-0.13-0.26-0.13l-5.44,0.52c-0.06,0-0.2,0.06-0.26,0.13
	c-0.06,0.13-0.06,0.19-0.06,0.32s0,0.19,0.06,0.32c1.49,1.62,3.43,2.27,6.02,1.75c0.06-0.13,0.13-0.13,0.19-0.13l0.13-0.13
	l-0.39-0.32c-1.75,0.84-3.43,0.45-5.05-1.17l4.66-0.32c0.19,0.19,0.26,0.78,0.39,1.49l0.39,0.32C144,59.86,143.94,58.96,143.16,58.5
	"/>
<path fill="#F0F0F0" d="M143.16,60.83c-0.13-0.71-0.19-1.29-0.39-1.49l-4.66,0.32C139.73,61.29,141.41,61.68,143.16,60.83"/>
<path d="M142.06,59.73c0-0.13-0.06-0.26-0.13-0.39l-2.27,0.19v0.19c0,0.26,0.13,0.39,0.39,0.52c0.19,0.13,0.45,0.26,0.84,0.26
	c0.32,0,0.65-0.13,0.84-0.26C142,60.12,142.06,59.99,142.06,59.73"/>
<path fill="#999999" d="M141.28,52.35l-0.58,0.52c4.21,2.14,5.05,4.34,2.59,6.48C146.46,56.95,145.75,54.62,141.28,52.35"/>
<path fill="#999999" d="M151.71,69.52v-0.13c2.66-6.41,0-9.91-7.77-10.49C151.06,60.45,153.66,63.94,151.71,69.52"/>
<path fill="#FFFFFF" d="M176.2,54.16c0.45-0.84,0.58-1.43,0.39-1.55c-1.1-0.71-3.04-0.91-5.77-0.65
	C171.08,54.62,172.89,55.33,176.2,54.16"/>
<path fill="none" stroke="#999999" stroke-width="1.35" stroke-linecap="round" stroke-linejoin="round" d="M176.59,52.61
	c-1.1-0.71-3.04-0.91-5.77-0.65c0.26,2.66,2.07,3.37,5.38,2.2C176.65,53.32,176.78,52.74,176.59,52.61"/>
<path d="M173.87,52.87c0.26-0.13,0.33-0.26,0.33-0.45c0-0.06,0-0.06,0-0.06h-1.82l0,0c0,0.26,0.06,0.39,0.33,0.52
	c0.13,0.13,0.32,0.13,0.52,0.19C173.48,53,173.67,53,173.87,52.87"/>
<path fill="#999999" d="M170.63,54.29l0.26,0.45c2.79,1.88,4.34,2.14,4.6,0.78v-0.39c-2.46,0.78-4.08-0.19-4.86-2.79V54.29"/>
<path fill="#999999" d="M172.38,51.57c-0.71-0.39-1.62-0.32-2.79,0.19l-0.97,1.43C169.98,52.35,171.27,51.77,172.38,51.57"/>
<path fill="#999999" d="M179.05,54.94c0.06-0.13,0.06-0.32-0.06-0.52c-0.91-1.88-2.07-2.66-3.37-2.46
	C176.59,52.41,177.75,53.52,179.05,54.94"/>
</svg>
