<?xml version="1.0" encoding="utf-8"?>
<!-- Generator: Adobe Illustrator 15.0.2, SVG Export Plug-In  -->
<!DOCTYPE svg PUBLIC "-//W3C//DTD SVG 1.1//EN" "http://www.w3.org/Graphics/SVG/1.1/DTD/svg11.dtd" [
	<!ENTITY ns_flows "http://ns.adobe.com/Flows/1.0/">
]>
<svg version="1.1"
	 xmlns="http://www.w3.org/2000/svg" xmlns:xlink="http://www.w3.org/1999/xlink" xmlns:a="http://ns.adobe.com/AdobeSVGViewerExtensions/3.0/"
	 x="0px" y="0px" width="50px" height="30px" overflow="visible" xml:space="preserve">
<defs>
</defs>
<path d="M0.088,6.142c1.959,3.94,4.73,7.563,8.289,10.6c5.664,4.836,12.475,7.459,19.372,7.959l-0.586,5.841
	c-0.035,0.342,0.141,0.67,0.445,0.83c0.303,0.161,0.671,0.124,0.937-0.098l8.813-7.349l6.217-5.184
	c0.199-0.168,0.311-0.41,0.303-0.672c-0.005-0.24-0.115-0.468-0.296-0.623c-0.014-0.013-0.027-0.021-0.042-0.031l-7.172-5.38
	l-8.078-6.055c-0.273-0.203-0.635-0.225-0.93-0.054c-0.294,0.17-0.457,0.494-0.416,0.829l0.676,5.679
	c-4.044-0.488-7.991-2.13-11.325-4.974c-2.337-1.994-4.134-4.383-5.389-6.985c-0.099-0.205-0.28-0.361-0.497-0.436
	c-0.217-0.069-0.457-0.049-0.659,0.055L0.449,5.017C0.043,5.234-0.115,5.73,0.088,6.142z"/>
</svg>
