<?xml version="1.0" encoding="utf-8"?>
<!-- Generator: Adobe Illustrator 15.0.0, SVG Export Plug-In  -->
<!DOCTYPE svg PUBLIC "-//W3C//DTD SVG 1.1 Tiny//EN" "http://www.w3.org/Graphics/SVG/1.1/DTD/svg11-tiny.dtd" [
	<!ENTITY ns_flows "http://ns.adobe.com/Flows/1.0/">
]>
<svg version="1.1" baseProfile="tiny"
	 xmlns="http://www.w3.org/2000/svg" xmlns:xlink="http://www.w3.org/1999/xlink" xmlns:a="http://ns.adobe.com/AdobeSVGViewerExtensions/3.0/"
	 x="0px" y="0px" width="500px" height="600px" overflow="visible" xml:space="preserve">
<defs>
</defs>
<path d="M342.11,81.12c1.13-1.66,6.57-9.26,12.79-11.76c-1.11,3.56-2.8,13.57-1.82,16.72l0.11,0.37l0.36-0.13
	c6.28-2.29,14.23-11.71,16.67-14.74c-0.7,9.11-2.07,18.16-3.54,23.32l-0.33,1.15l0.91-0.77c3.11-2.61,9.67-4.3,16.71-4.3
	c4.47,0,8.48,0.69,11.41,1.96c-4.57,2.56-14.34,11.34-16.26,13.34l-0.63,0.65l0.91-0.03c0.78-0.03,1.63-0.05,2.54-0.05
	c4.05,0,17.7,0.41,24.99,5.6c-1.12,1.3-5.6,2.81-9.93,4.27c-4.28,1.44-8.71,2.94-10.97,4.51l-0.95,0.66h1.16
	c0.18,0,17.64,0.2,30.45,17.34c-0.25,0.13-0.71,0.24-1.53,0.24c-1.49,0-3.62-0.36-5.88-0.73c-2.66-0.44-5.4-0.9-7.67-0.9
	c-2.07,0-3.45,0.4-4.21,1.21l-0.31,0.34l0.4,0.23c1.16,0.67,2.38,1.35,3.62,2.05c8.43,4.71,17.96,10.04,20.2,17.6
	c-1.34,0.1-2.97-0.33-4.88-0.84c-2.16-0.57-4.6-1.22-7.19-1.22c-2.64,0-5,0.67-7.19,2.06l-0.42,0.26l0.38,0.32
	c6.27,5.35,17.87,15.25,33.04,15.9c-3.16,5.96-12.26,6.43-15.03,6.43c-4.32,0-7.48-0.88-8.37-1.76l-0.6,0.4
	c0.09,0.22,8.94,22.09,24.72,26.43c-2.24,1.78-6.42,2.75-11.89,2.75c-7.03,0-13.57-1.63-15.13-3.18l-0.54,0.49l0.1,0.11
	c8.62,9.11,19,22.53,20.29,35.31c-5.34-5.7-15.37-8.93-20.69-9.64l-0.73-0.1l0.37,0.64c4.07,7.07,8.29,12.18,12.01,16.69
	c5.45,6.61,9.5,11.51,10.1,18.8c-1.88-2.79-5.14-4.21-9.7-4.21c-3.4,0-6.98,0.76-10.03,1.5l-0.94,0.23l0.86,0.45
	c4.64,2.41,10.5,16.34,9.74,22.41c-2.22-4.14-6.98-4.8-9.75-4.8c-1.62,0-2.75,0.21-2.8,0.22l-0.65,0.12l0.45,0.48
	c2.94,3.18,6.25,23.37,1.84,33.5c-0.25-7.4-5.71-16.53-9.36-20.84l-0.81-0.96l0.17,1.25c0.57,4.05-0.39,12.8-5.09,16.64
	c0.12-3.4-1.69-13.03-5.4-16.94l-0.42-0.45l-0.19,0.58c-2.62,8.02-1.28,17.59-0.48,23.31c0.21,1.54,0.4,2.83,0.45,3.75
	c-6.05-5.82-8.8-20.19-8.82-20.27l2.99-84.56l-5.8-0.92C382.91,143.26,351.19,86.77,342.11,81.12 M113.63,106.83
	c-4.05,0-17.7,0.41-24.99,5.6c1.12,1.3,5.6,2.81,9.93,4.27c4.28,1.44,8.71,2.94,10.97,4.51l0.95,0.66l-1.16,0
	c-0.18,0-17.65,0.21-30.45,17.34c0.25,0.13,0.71,0.24,1.53,0.24c1.49,0,3.62-0.36,5.88-0.73c2.66-0.44,5.4-0.9,7.68-0.9
	c2.07,0,3.45,0.4,4.21,1.21l0.31,0.34l-0.4,0.23c-1.16,0.67-2.37,1.35-3.62,2.04c-8.43,4.71-17.96,10.04-20.2,17.6
	c1.35,0.1,2.97-0.33,4.88-0.84c2.15-0.57,4.6-1.22,7.19-1.22c2.64,0,4.99,0.67,7.19,2.06l0.42,0.26l-0.38,0.32
	c-6.27,5.35-17.87,15.25-33.04,15.9c3.16,5.96,12.26,6.43,15.03,6.43c4.32,0,7.48-0.88,8.37-1.76l0.59,0.4
	c-0.09,0.22-8.94,22.09-24.72,26.43c2.24,1.78,6.42,2.75,11.89,2.75c7.03,0,13.57-1.63,15.05-3.09l0.31,0.2
	c0.01-0.01,0.03-0.03,0.04-0.04c-0.01,0.01-0.03,0.03-0.04,0.04l0.31,0.2l-0.11,0.12c-8.61,9.1-18.99,22.52-20.28,35.3
	c5.34-5.7,15.37-8.93,20.69-9.64l0.73-0.1l-0.37,0.64c-4.07,7.07-8.29,12.18-12.01,16.69c-5.46,6.61-9.5,11.51-10.1,18.8
	c1.88-2.79,5.14-4.21,9.7-4.21c3.4,0,6.98,0.76,10.02,1.5l0.95,0.23l-0.86,0.45c-4.64,2.41-10.51,16.34-9.74,22.41
	c2.22-4.14,6.98-4.8,9.75-4.8c1.62,0,2.75,0.21,2.8,0.22l0.65,0.12l-0.45,0.48c-2.95,3.18-6.24,23.37-1.84,33.5
	c0.25-7.4,5.71-16.53,9.36-20.84l0.81-0.96l-0.17,1.25c-0.57,4.05,0.39,12.8,5.09,16.64c-0.12-3.4,1.69-13.03,5.4-16.94l0.42-0.45
	l0.19,0.58c2.61,8.01,1.28,17.59,0.48,23.31c-0.21,1.54-0.4,2.84-0.45,3.75c6.05-5.82,8.79-20.2,8.82-20.35l-3-84.48l5.8-0.92
	c-6.84-74.8,26.16-132.43,34.44-140.25c-1.24-1.37-7.15-7.61-13.43-10.02c1.11,3.56,2.81,13.57,1.83,16.72l-0.11,0.37l-0.36-0.13
	c-6.28-2.29-14.23-11.71-16.67-14.74c0.7,9.11,2.06,18.16,3.53,23.32l0.33,1.15l-0.91-0.77c-3.11-2.61-9.67-4.3-16.72-4.3
	c-4.47,0-8.48,0.69-11.41,1.96c4.57,2.56,14.34,11.34,16.26,13.34l0.63,0.65l-0.91-0.03C115.39,106.85,114.54,106.83,113.63,106.83
	 M244.34,319.97c-6.52-8.99-5.67-1.83-18.2,20.88c-12.53,22.72,0.69,28.92,10.47,36.95c-0.26-4.99,4.25-19.62,3.47-25.99
	c3.73,8.95,4.63,9.81,4.63,9.81s0.51-0.86,4.24-9.81c-0.77,6.37,3.74,21,3.48,25.99c9.78-8.03,23-14.23,10.47-36.95
	C250.38,318.13,250.86,310.98,244.34,319.97 M343.97,320.08c-18.71,49.71-62.32-5.74-74.96,0.52c-1.14,0.57-0.57,2.21,0.36,2
	c13.29-3.02,59.4,52.44,77.41-0.69C347.64,319.44,345.2,316.82,343.97,320.08 M220.31,322.61c0.94,0.21,1.5-1.43,0.36-2
	c-12.64-6.27-56.25,49.19-74.95-0.52c-1.23-3.27-3.66-0.65-2.82,1.83C160.91,375.04,207.02,319.59,220.31,322.61 M130.72,434.78
	c-6.57-20.26,5.43-30.77,6.59-44.17c0.26-3-0.03-6.14-1.19-9.57c2.07-9.29-15.59-33.83-22.89-43.47
	c-1.15-4.96-0.15-10.13,6.21-14.35c19.25-12.78,16.06-25.55,16.06-25.55s-12.88,1.67-14.54,8.52c-1.66,6.85-7.76,22.59-15.79,22.59
	c2.24-8.34,3.04-21.01,2.28-25.83c0,0-3.12,7.22-4.64,16.66c-8.21-5.79-7.72-14.95-7.72-14.95c-2.7,2.22-6.02,11.53-5.62,18.56
	c-13.25-3.03-27.58-16.14-35.96-30.36c3.54,17.36,13.28,31.94,26.59,40.61c-1.2,0.11-2.36,0.24-3.47,0.41
	c-14.38,2.2-19.46,32.01-35.3,37.52c-7.27,2.52-14.89-4.16-20.07-15.02c0.42,11.43,10.82,22.58,18.94,22.95
	c19.07,0.87,29.38-24.16,37.13-26.2c5.52-1.45,9.75,0.26,13.45,2.75c-6.73,4.32-14.02,9.28-19.92,18.27
	c-11.79,17.97,2.06,50.89-9.03,73.51c-5.08,10.37-16.2,12.71-27.7,8.52c7.48,10,23.92,8.66,31.58,0
	c18.01-20.36,11.89-54.71,17.73-65.17c5.63-10.1,12.69-12.31,19.24-14.01c-5.72,9.52-13.53,19.53-17.01,34.56
	c-5.28,22.84,17.41,45.33,14.2,72.03c-1.47,12.24-10.91,20.44-22.68,22.89c9.88,5.04,24.48-5.15,28.83-17.23
	c10.22-28.42-5.85-56.43-3.72-69.17c1.61-9.63,5.51-15.31,9.75-19.79c-0.48,12.06-2.25,26.05,1.49,40.68
	c5.78,22.62,34.03,22.96,43.19,47.07c4.2,11.06,0.17,25.11-8.27,36.35c10.21-3.69,17.53-23.42,15.73-36.61
	C159.93,456.76,134.6,446.75,130.72,434.78 M473.58,356.38c-0.42,11.43-10.82,22.58-18.94,22.95c-19.07,0.87-29.38-24.16-37.12-26.2
	c-5.52-1.45-9.75,0.26-13.45,2.75c6.73,4.32,14.03,9.28,19.92,18.27c11.79,17.97-2.06,50.89,9.03,73.51
	c5.08,10.37,16.2,12.71,27.7,8.52c-7.48,10-23.92,8.66-31.58,0c-18.01-20.36-11.89-54.71-17.73-65.17
	c-5.63-10.1-12.69-12.31-19.24-14.01c5.72,9.52,13.53,19.53,17.01,34.56c5.28,22.84-17.42,45.33-14.21,72.03
	c1.47,12.24,10.91,20.44,22.68,22.89c-9.88,5.04-24.48-5.15-28.83-17.23c-10.22-28.42,5.85-56.43,3.72-69.17
	c-1.61-9.63-5.51-15.31-9.75-19.79c0.48,12.06,2.25,26.05-1.49,40.68c-5.78,22.62-34.03,22.96-43.19,47.07
	c-4.2,11.06-0.18,25.11,8.27,36.35c-10.21-3.69-17.53-23.42-15.73-36.61c4.24-31.02,29.57-41.03,33.45-53
	c6.57-20.26-5.43-30.77-6.59-44.17c-0.26-3,0.03-6.14,1.18-9.57c-2.09-9.4,16.03-34.42,23.16-43.81c1.02-4.86-0.07-9.88-6.28-14
	c-16.54-10.97-16.52-21.94-16.18-24.82c-1.42-0.43-2.86-0.86-4.33-1.28c-0.68,4.11-0.57,8.21,1.29,12.86
	c5.15,12.91,29.53,16.75,18.54,31.67c-10.99,14.92-22.29,26.96-20.57,38.67c0.7,4.78-4.93-0.42-12.81-6.97
	c-1.93-0.42-4.05-0.68-6.26-0.59c3.21,4.43,6.68,10.52,6.79,16.24c0.34,17.4-7.8,36.82,9.68,44.41
	c-4.97,5.62-24.26,6.91-27.79-18.39c-0.7-5.07-3.45-3.25-3.57,0.89c-0.12,4.14-4.41,31.95-1.62,41.78
	c3.36,11.83,3.25-7.08,6.01-1.38c2.76,5.7,8.46,26.74-17.56,66.99c-23.88,36.96-27.01,49.89-26.02,56.72
	c0.97,6.67,3.77,16.43-24.82,14.7c-0.24,0.07-3.49-2.89-6.31-2.74c-2.32,0.12-4.19,3.35-5.27,3.4v-0.01
	c-30.51,4-27.2-6.61-26.43-13.46c0.77-6.89-3.66-20.05-28.72-55.59c-27.3-38.73-22.28-60.07-19.7-65.92
	c2.57-5.85,3.07,13.05,6.05,1.03c2.47-9.98-2.71-37.52-2.97-41.65c-0.26-4.13-3.06-5.8-3.6-0.69c-2.7,25.48-22.02,25.3-27.17,19.96
	c17.22-8.58,8.46-27.52,8.24-44.92c-0.08-5.86,3.35-12.3,6.48-16.93c-3.34-0.96-6.31-1.26-8.79-1.23c-6.03,5.17-10,8.38-9.41,4.34
	c1.72-11.71-8.24-24.67-19.23-39.59c-10.99-14.92,13.05-17.96,18.19-30.87c2.51-6.3,1.45-11.73-0.51-17.54
	c-5.5,2.04-10.33,4.32-14.43,6.84l-3.95-73.82c3.89-1.27,49.59-15.86,93.57-15.86c3.76,0,7.46,0.11,10.99,0.32l0.31,0.02l0.07-0.3
	c7.93-35.6,3.5-178.14-8.86-202.04C222.21,2.73,232.75,0,243.91,0c12.05,0,23.86,3.21,33.29,9.03
	c-6.3,43.42-11.03,147.15-4.69,202.04l0.04,0.35l0.35-0.02c2.62-0.18,5.5-0.27,8.57-0.27c32.82,0,82.22,10.33,94.09,15.69
	l-2.46,75.95c2.04,7.55,9.67,26.9,17.41,26.9c-2.24-8.34-2.21-19.9-1.45-24.72c0,0,2.91,5.14,3.63,15.27
	c8.21-5.79,7.23-15.55,7.23-15.55c2.7,2.22,6.03,11.53,5.62,18.56c13.25-3.03,27.58-16.14,35.96-30.36
	c-3.55,17.37-13.29,31.95-26.62,40.62c1.14,0.1,2.25,0.23,3.31,0.39c14.38,2.2,19.46,32.01,35.31,37.52
	C460.77,373.92,468.39,367.24,473.58,356.38 M362.93,241.39c0,2.66,1.66,4.82,3.7,4.82c2.04,0,3.7-2.17,3.7-4.82
	c0-2.66-1.66-4.82-3.7-4.82C364.59,236.57,362.93,238.73,362.93,241.39 M360.8,287.61c0,2.66,1.66,4.82,3.7,4.82s3.7-2.16,3.7-4.82
	c0-2.66-1.66-4.83-3.7-4.83S360.8,284.95,360.8,287.61 M337.89,235.84c0,2.66,1.66,4.82,3.7,4.82c2.04,0,3.7-2.16,3.7-4.82
	c0-2.66-1.66-4.82-3.7-4.82C339.55,231.01,337.89,233.18,337.89,235.84 M335.08,279.53c0,2.66,1.66,4.82,3.7,4.82
	c2.04,0,3.7-2.16,3.7-4.82c0-2.66-1.66-4.82-3.7-4.82C336.74,274.71,335.08,276.87,335.08,279.53 M313.56,230.28
	c0,2.66,1.66,4.82,3.7,4.82s3.7-2.16,3.7-4.82c0-2.66-1.66-4.82-3.7-4.82S313.56,227.62,313.56,230.28 M309.12,276
	c0,2.66,1.66,4.82,3.7,4.82c2.04,0,3.7-2.16,3.7-4.82c0-2.66-1.66-4.82-3.7-4.82C310.78,271.17,309.12,273.34,309.12,276
	 M285.14,224.73c0,2.66,1.66,4.82,3.7,4.82c2.04,0,3.7-2.16,3.7-4.82c0-2.66-1.66-4.82-3.7-4.82
	C286.8,219.9,285.14,222.07,285.14,224.73 M282.63,270.44c0,2.66,1.66,4.82,3.7,4.82s3.7-2.16,3.7-4.82c0-2.66-1.66-4.82-3.7-4.82
	S282.63,267.78,282.63,270.44 M260.44,32.63c0,2.66,1.66,4.82,3.7,4.82c2.04,0,3.7-2.16,3.7-4.82c0-2.66-1.66-4.82-3.7-4.82
	C262.1,27.81,260.44,29.97,260.44,32.63 M260.44,64.8c0,2.66,1.66,4.82,3.7,4.82c2.04,0,3.7-2.16,3.7-4.82
	c0-2.66-1.66-4.82-3.7-4.82C262.1,59.97,260.44,62.14,260.44,64.8 M260.44,96.98c0,2.66,1.66,4.82,3.7,4.82
	c2.04,0,3.7-2.16,3.7-4.82c0-2.66-1.66-4.82-3.7-4.82C262.1,92.15,260.44,94.32,260.44,96.98 M267.84,197.47
	c0-2.66-1.66-4.82-3.7-4.82c-2.04,0-3.7,2.16-3.7,4.82c0,2.66,1.66,4.82,3.7,4.82C266.18,202.29,267.84,200.12,267.84,197.47
	 M259.21,130.5c0,2.66,1.66,4.82,3.7,4.82c2.04,0,3.7-2.16,3.7-4.82c0-2.66-1.66-4.83-3.7-4.83
	C260.87,125.67,259.21,127.83,259.21,130.5 M259.21,162.28c0,2.66,1.66,4.82,3.7,4.82c2.04,0,3.7-2.16,3.7-4.82
	c0-2.66-1.66-4.82-3.7-4.82C260.87,157.46,259.21,159.62,259.21,162.28 M255.34,268.42c0,2.66,1.66,4.82,3.7,4.82s3.7-2.16,3.7-4.82
	c0-2.66-1.66-4.82-3.7-4.82S255.34,265.76,255.34,268.42 M236.03,89.77c-2.04,0-3.7,2.17-3.7,4.83c0,2.66,1.66,4.82,3.7,4.82
	c2.04,0,3.7-2.16,3.7-4.82C239.73,91.93,238.07,89.77,236.03,89.77 M234.09,273.25c2.04,0,3.7-2.16,3.7-4.82
	c0-2.66-1.66-4.82-3.7-4.82s-3.7,2.16-3.7,4.82C230.39,271.08,232.05,273.25,234.09,273.25 M237.79,195.85
	c0-2.66-1.66-4.82-3.7-4.82s-3.7,2.16-3.7,4.82c0,2.66,1.66,4.82,3.7,4.82S237.79,198.51,237.79,195.85 M239.73,159.19
	c0-2.66-1.66-4.82-3.7-4.82c-2.04,0-3.7,2.16-3.7,4.82c0,2.66,1.66,4.82,3.7,4.82C238.07,164.02,239.73,161.85,239.73,159.19
	 M239.73,126.65c0-2.66-1.66-4.82-3.7-4.82c-2.04,0-3.7,2.17-3.7,4.82c0,2.66,1.66,4.82,3.7,4.82
	C238.07,131.47,239.73,129.31,239.73,126.65 M234.09,58.36c-2.04,0-3.7,2.16-3.7,4.82c0,2.66,1.66,4.83,3.7,4.83s3.7-2.17,3.7-4.83
	C237.79,60.53,236.13,58.36,234.09,58.36 M227.9,29.62c0,2.66,1.66,4.82,3.7,4.82c2.04,0,3.7-2.16,3.7-4.82
	c0-2.66-1.66-4.82-3.7-4.82C229.56,24.79,227.9,26.96,227.9,29.62 M208.05,224.73c0,2.66,1.66,4.82,3.7,4.82
	c2.04,0,3.7-2.16,3.7-4.82c0-2.66-1.66-4.82-3.7-4.82C209.71,219.9,208.05,222.07,208.05,224.73 M204.71,268.42
	c0,2.66,1.66,4.82,3.7,4.82s3.7-2.16,3.7-4.82c0-2.66-1.66-4.82-3.7-4.82S204.71,265.76,204.71,268.42 M179.16,227.98
	c0,2.66,1.66,4.82,3.7,4.82c2.04,0,3.7-2.16,3.7-4.82c0-2.66-1.66-4.82-3.7-4.82C180.82,223.15,179.16,225.32,179.16,227.98
	 M178.15,268.42c0,2.66,1.66,4.82,3.7,4.82c2.04,0,3.7-2.16,3.7-4.82c0-2.66-1.66-4.82-3.7-4.82
	C179.8,263.6,178.15,265.76,178.15,268.42 M152.67,232.65c0,2.66,1.66,4.82,3.7,4.82s3.7-2.16,3.7-4.82c0-2.66-1.66-4.82-3.7-4.82
	S152.67,229.99,152.67,232.65 M152.67,270.44c0,2.66,1.66,4.82,3.7,4.82s3.7-2.16,3.7-4.82c0-2.66-1.66-4.82-3.7-4.82
	S152.67,267.78,152.67,270.44 M127.49,238.21c0,2.66,1.66,4.82,3.7,4.82s3.7-2.16,3.7-4.82c0-2.66-1.66-4.82-3.7-4.82
	S127.49,235.55,127.49,238.21 M136.43,273.98c0-2.66-1.66-4.83-3.7-4.83s-3.7,2.16-3.7,4.83c0,2.66,1.66,4.82,3.7,4.82
	S136.43,276.64,136.43,273.98 M332.47,375.71c-1.2-1.5-19.63,4.24-19.52,36.84c0.02,4.83-0.34,12.15-0.97,20.49
	c-0.49,12.42-1.6,26.31-3.91,36c-1.73,11.8-3.76,21.65-5.86,25.49c-0.11-0.31-0.2-0.62-0.29-0.94c0.23,2.34-0.1,6.07-2.9,10.9
	c-1.76,3.03,2.15,10.52-6.14,14.98c-1.09,0.59-1.08,2.15-1.24,3.56c-0.43,3.67-0.98,7.34-2.96,10.32c-0.98,1.49-2.28,1.28-5.05,1.03
	c-0.87-0.07-1.6-0.39-2.05,0.95c-0.94,2.86-1.07,5.18-2.04,5.83c-0.63,0.41-3.63-1.11-5.45-3.24c-1.39-1.63-2.16-0.75-2.95,0.89
	c-1.17,2.4-1.13,5.17-3.79,6.76c-1.25,0.75-3.99-3.53-4.89-4.65c-0.63-0.78-1.85-1.26-2.44,0.6c-1.18,3.67-0.82,6.58-5.2,9.09
	c-4.06,2.35-5.4-6.76-7.29-6.42c-1.89-0.34-2.75,7.8-7.12,6.88c-4.38-0.92-3.77-6.3-5.9-8.89c-0.54-0.67-1.8-1.18-2.73-0.12
	c-1.41,1.59-2.88,5.26-4.63,4.59c-2.58-0.98-2.91-4.4-3.69-6.32c-0.54-1.32-1.52-2.49-2.92-0.86c-2.13,2.5-3.92,3.51-5.02,2.41
	c-1.2-1.21-1.47-4.12-2.91-6.02c-0.63-0.83-1.25-0.52-2.27-0.86c-9.74-3.3-4.34-12.68-9.92-16c-5.58-3.33-2.87-12.22-4.63-15.26
	c-1.7-2.92-2.42-5.46-2.66-7.54c-2.42-5.11-4.96-16.86-7.14-30.1c-1.36-6.29-2.37-13.92-3.09-21.65
	c-1.42-11.52-2.38-22.11-2.56-28.43c-0.93-32.58-19.54-37.26-20.68-35.69c-3.05,4.19-5.89,10.63-5.41,20.65
	c0.76,15.68,6.7,26.22-4.64,36.38c5.86,1.55,17.38-4.73,17.85-27.31c0.12-5.62,7.64-4.6,8.68,13.18c0.22,3.73,4.8,35.46,1.54,46.02
	c-3.25,10.57-5.32-2.64-6.01,0.12c-1.45,5.81-2.92,21.47,19.75,53.46c22.67,31.99,30.17,48.73,29.58,54.97
	c-1,10.62,0.46,15.05,22.85,10.33c2.72-0.87,3.95-3.57,6.27-3.62c2.55,0,3.55,2.42,6.1,3.2c22.27,3.38,21.78-0.52,21.12-11.63
	c-0.38-6.26,6.38-22.9,28-56.17c21.62-33.27,19.66-48.83,18.02-54.55c-0.77-2.72-2.42,10.59-6,0.23
	c-3.59-10.36-0.04-42.33,0.06-46.07c0.46-17.82,7.94-19.27,8.24-13.67c1.2,22.53,12.91,28.14,18.71,26.26
	c-11.64-9.49-6.05-20.37-5.8-36.07C338.69,385.99,335.65,379.72,332.47,375.71 M182.41,406.37c-0.98,5.18-0.33,20.8,6.66,26.09
	c2.49,1.9-2.75-13.55,0.73-24.38C188.29,406.2,183.39,401.19,182.41,406.37 M227.82,429.9l17.55,4.36c0,0,0.34-19.51,0-25.25
	c-0.34-5.74-5.2-16.29-8.69-16.29c-3.49,0-8.94,8.49-8.85,14.46C227.94,415.67,227.82,429.9,227.82,429.9 M236.48,518.55
	c-0.18,4.32-1.26,10.88-1.42,15.76c-0.03,0.97,1.68,8.71,4.78,12.95c2.15,2.94,6.1-6.46,6.29-8.7c0.19-2.23,0.93-14.14,0.37-15.38
	C245.94,521.94,238.58,517.39,236.48,518.55 M223.86,514.67c-0.31,1.49-1.19,14.01-1.11,15.54c0.17,3.47,1.98,8.77,4.21,10.92
	c2.23,2.15,6.06-5.31,6.37-8.04c0.31-2.72,1.11-12.91,1.18-14.73C234.01,517.21,224.23,514.41,223.86,514.67 M226.32,408.32
	c-0.17-5.73-4.96-13.08-7.2-12.85c-2.23,0.23-7.71,10.81-7.23,16.52c0.44,5.27,1.14,11.71,1.6,16.07
	c3.21,2.53,12.83,1.38,12.83,1.38S226.49,414.06,226.32,408.32 M221.7,514.65c0,0-3.16-7.46-5.69-2.41
	c-4.04,8.03-2.46,21.25-0.83,24.7c1,2.13,3.33,0.68,5.23-3.85C219.92,529.09,221.7,514.65,221.7,514.65 M217.58,507.61
	c0,0-0.76-12.35-3.31-9.92c-2.56,2.43-8.58,11.58-9.4,18.52c-0.82,6.94-0.11,14.11,7.01,16.43
	C211.88,532.64,209.74,512.13,217.58,507.61 M197.88,474.48c0.86-0.83,2.53-3.06,0.43-3.31c-2.1-0.25-4.39,3.65-5.2,7.28
	c-0.8,3.63-0.1,5.1,2.04,8.6c0.66,1.08-0.19-5.84,5.63-6.2c2.54-0.16,5.08,2.07,5.07-3.81c-0.01-5.1-2.97-5.79-5.01-5.88
	c-2.04-0.1-1.49,2.58,0.18,2.58s2.35,2.98-1.7,3.72C195.28,478.2,197.02,475.31,197.88,474.48 M197.29,502.87
	c1.2,2.23,0.9-5.5,5.15-6.51c2.03-0.48,6.97-0.77,7.13-5.73c0.17-4.96-3.63-9.16-5.61-9.27c-1.98-0.11-1.89,2.32,0,2.88
	c1.89,0.55,0.93,3.47-0.63,4.13c-1.57,0.66-2.5,0.52-3.4-1.57c-0.91-2.1,3.55-4.33,0.66-4.33c-1.32,0-4.3,1.44-5.14,6.72
	C194.65,494.2,195.06,498.77,197.29,502.87 M203.18,517.86c2.14-0.55-0.67-6.17,8.78-18.25c1.16-1.48-0.49-3.81-3.05-4.35
	c-2.55-0.56-2.39,1.43-0.58,2.1c1.81,0.68,2.15,2.97-1.57,3.41c-3.71,0.44,0.16-3.42-2.48-3.41c-2.64,0.02-4.36,0.87-5.94,7.37
	C196.77,511.25,199.47,517.97,203.18,517.86 M210.48,405.94c-0.07-2.64-3.39-13.22-7.6,0.08c-4.08,12.94-1.29,21.23-1.2,25.25
	c0.09,4.02,10.73-3.38,10.73-3.38C211.67,419.62,210.6,410.3,210.48,405.94 M197.57,399.46c-1.8,0.92-5.02,0.81-6.08,8.29
	c-1.46,10.34-1.93,26.94,8.73,40.5c3.12,3.98-0.9-9.52,0.66-14.26c-2.82-4.84-2.03-20.51-0.64-24.36
	C202.62,403.06,198.5,398.98,197.57,399.46 M192,477.4c0.57,2.34,1.57-4.19,4.79-6.29c3.21-2.09,4.78-0.22,6.35-2.65
	c1.57-2.42,1.07-9.37-3.05-9.92c-4.13-0.55,0.33,4.96-2.97,5.84c-3.3,0.88-1.32-3.42-2.14-5.4c-0.82-1.99-3.13-1.77-4.04,0.66
	C190.02,462.07,191.23,474.21,192,477.4 M304.32,432.47c4.18-3.17,6.08-10.01,6.73-16.12c0.02-2.18,0.03-4.25,0.02-6.19
	c-0.01-0.98,0.02-1.93,0.04-2.86c-0.04-0.33-0.09-0.65-0.14-0.92c-0.97-5.18-5.87-0.17-7.38,1.72
	C307.07,418.92,301.83,434.36,304.32,432.47 M299.74,458.99c-0.83,1.98,1.15,6.28-2.15,5.4c-3.3-0.88,1.15-6.4-2.97-5.84
	c-4.12,0.55-4.62,7.5-3.05,9.92c1.57,2.43,3.14,0.56,6.35,2.65c3.22,2.09,4.22,8.63,4.79,6.29c0.78-3.19,1.98-15.33,1.07-17.75
	C302.88,457.22,300.56,457,299.74,458.99 M301.38,488.03c-0.52,0.64-0.53,1.59-0.12,2.8c0.01,0.03,0.12,0.28,0.26,0.71
	C301.37,490.42,301.32,489.25,301.38,488.03 M301.6,478.45c-0.81-3.62-3.1-7.52-5.2-7.28c-2.1,0.25-0.43,2.48,0.43,3.31
	c0.87,0.83,2.6,3.72-1.45,2.97c-4.05-0.74-3.38-3.72-1.71-3.72c1.67,0,2.23-2.67,0.19-2.58c-2.04,0.09-5,0.78-5.01,5.88
	c-0.01,5.87,2.54,3.64,5.08,3.81c5.81,0.36,4.97,7.28,5.62,6.2C301.69,483.54,302.4,482.08,301.6,478.45 M286.38,497.37
	c1.81-0.67,1.97-2.66-0.58-2.1c-2.56,0.55-4.21,2.87-3.05,4.35c9.45,12.07,6.64,17.7,8.78,18.25c3.71,0.11,6.4-6.61,4.83-13.12
	c-1.58-6.5-3.3-7.35-5.94-7.37c-2.64-0.01,1.24,3.85-2.47,3.41C284.24,500.33,284.57,498.05,286.38,497.37 M297.43,502.87
	c2.23-4.11,2.64-8.67,1.85-13.68c-0.83-5.28-3.82-6.72-5.14-6.72c-2.89,0,1.57,2.23,0.66,4.33c-0.91,2.09-1.83,2.23-3.4,1.57
	c-1.57-0.66-2.53-3.58-0.64-4.13c1.9-0.56,1.98-2.98,0-2.88c-1.98,0.11-5.77,4.3-5.61,9.27c0.17,4.96,5.1,5.25,7.13,5.73
	C296.52,497.37,296.22,505.1,297.43,502.87 M301.74,407.75c-1.05-7.49-4.35-7.15-6.07-8.29c-1.18-0.79-5.14,3.18-2.86,10.1
	c1.69,5.14,1.8,19.65-0.87,24.85c1.57,4.73-2.06,17.83,1.06,13.84C303.68,434.69,303.2,418.09,301.74,407.75 M290.53,406.03
	c-4.21-13.31-7.53-2.72-7.6-0.08c-0.12,4.36-1.19,13.68-1.93,21.95c0,0,10.64,7.4,10.73,3.38
	C291.82,427.25,294.62,418.97,290.53,406.03 M280.44,497.69c-2.56-2.43-3.31,9.92-3.31,9.92c7.84,4.52,5.7,25.03,5.7,25.03
	c7.12-2.32,7.84-9.49,7.01-16.43C289.02,509.27,283,500.11,280.44,497.69 M274.3,533.09c1.9,4.52,4.23,5.97,5.23,3.85
	c1.63-3.45,3.21-16.67-0.83-24.7c-2.54-5.05-5.7,2.41-5.7,2.41S274.79,529.09,274.3,533.09 M273.72,395.47
	c-2.23-0.23-7.02,7.11-7.19,12.85c-0.17,5.74,0,21.12,0,21.12s9.61,1.15,12.82-1.38c0.46-4.36,1.15-10.8,1.59-16.07
	C281.43,406.28,275.96,395.7,273.72,395.47 M260.21,518.37c0.07,1.82,0.87,12.01,1.18,14.73c0.31,2.72,4.14,10.19,6.38,8.04
	c2.22-2.15,4.04-7.45,4.21-10.92c0.07-1.54-0.81-14.05-1.12-15.54C270.48,514.41,260.71,517.21,260.21,518.37 M265.09,407.17
	c0.08-5.96-5.36-14.46-8.85-14.46c-3.49,0-8.35,10.56-8.7,16.29c-0.35,5.74,0,25.25,0,25.25l17.55-4.36
	C265.09,429.9,264.98,415.67,265.09,407.17 M258.23,518.55c-2.1-1.16-9.46,3.39-10.02,4.63c-0.56,1.24,0.19,13.15,0.37,15.38
	c0.19,2.23,4.14,11.64,6.29,8.7c3.1-4.24,4.81-11.99,4.78-12.95C259.49,529.44,258.41,522.87,258.23,518.55 M350.14,295.77
	c-25.07-6.7-56.23-11.62-87.73-13.89c-1.51,4.18-2.85,8.12-4.35,11.49c-1.24,2.8-5.06-0.94-4.12-3.69c0.86-2.5,1.76-5.27,2.79-8.18
	c-3.45-0.21-6.89-0.39-10.33-0.54l0.78,19.91h-4.68v-20.06c-2.76-0.1-5.51-0.17-8.25-0.23c1.37,3.19,2.53,6.29,3.49,9.1
	c0.94,2.75-2.88,6.49-4.12,3.69c-1.7-3.84-3.44-8.27-5.55-12.86c-1.05-0.01-2.1-0.02-3.15-0.02c-34.31,0-63.06,3.64-83.64,10.43
	c2.58,6.77,4.56,12.75,1.63,20.1c-5.15,12.91-28.67,16.06-17.68,30.98c10.99,14.91,16.57,17.85,16.06,26.64
	c-0.16,2.81,1.23,2.8,4.22,1.16c9.65-5.29,31.97-25.36,43.43-12.12c12.45,14.38-4.79,24.05,3.69,40.39c2.64-4,7.06,0.11,8.05,1.39
	c1.04,1.34,1.87,2.9,2.39,1.64c0.52-1.26,1.46-5.05,2.92-4.82s3.29,2.95,3.93,4.16c0.64,1.21,0.9,2.67,1.97,1.03
	c1.06-1.64,4.15-8.4,5.95-8.75c1.8-0.35,5.58,2.87,6.96,5.05c1.37,2.18,2.31,2.07,3.05,0.69c0.73-1.38,5.02-9.87,7.42-9.87
	c2.4,0,5.49,1.6,9.48,10.21c0.77,1.66,1.96,2.19,2.67,0.66c3.87-8.72,6.56-10.87,8.97-10.87c2.41,0,6.69,8.49,7.42,9.87
	c0.73,1.38,1.68,1.5,3.05-0.69c1.37-2.18,5.15-5.4,6.95-5.05c1.8,0.34,4.88,7.11,5.95,8.75c1.07,1.64,1.32,0.17,1.97-1.03
	c0.64-1.2,2.52-3.59,3.93-4.16c1.84-0.75,4.16,3.04,4.68,4.3c0.51,1.26,1.18-0.79,2.22-2.14c1.04-1.34,5.16-5.03,7.74,0
	c8.94-16.56-8.64-26.28,3.9-40.76c15-17.33,48.79,23.75,48.1,11.86c-0.52-8.78,4.62-12.62,15.61-27.54
	c10.99-14.92-12.53-18.07-17.68-30.98C348.02,305.59,348.6,300.76,350.14,295.77 M146.44,101.55c17.41-37.42,42.7-67.87,69.43-83.63
	c5.28,20.86,10.43,146.19,4.84,185.64c-26.59,0.52-74.64,8.1-95.99,15.12C120.64,182.04,128.34,140.47,146.44,101.55 M141.53,191.91
	c33.71-6.39,70.22-9.03,70.22-9.03l-55.38-11.67c0,0,1.15-54.15,43.95-126.08C200.32,45.14,141.04,110.68,141.53,191.91
	 M280.43,17.92c26.74,15.76,52.02,46.21,69.43,83.63c18.11,38.92,25.81,80.49,21.71,117.13c-21.35-7.02-69.4-14.6-95.99-15.12
	C269.99,164.11,275.15,38.78,280.43,17.92 M343.16,171.22l-55.38,11.67c0,0,36.51,2.64,70.22,9.03
	c0.49-81.23-58.79-146.78-58.79-146.78C342,117.07,343.16,171.22,343.16,171.22 M218.99,367.69c1.95,3.02-0.43,3.33-2.31,0.11
	c-13.99-21.06,3.75-38.9,10-51.64c-2.21,0.79-4.77,1.29-7.74,1.27c-17.98-0.06-23.91,8.57-44,8.55
	c-26.96-0.03-29.13-20.26-28.16-34.97l36.48-5.75c11.92,12.73,32.33,36.53,50.65,22.78l6.18-5.64
	C234.3,318.25,202.86,342.58,218.99,367.69 M182.01,306.5c0-6.38-3.87-11.56-8.64-11.56s-8.65,5.17-8.65,11.56
	c0,6.38,3.87,11.56,8.65,11.56S182.01,312.89,182.01,306.5 M261.77,315.83c6.09,12.76,24.28,30.72,10.16,51.98
	c-1.89,3.21-4.26,2.91-2.31-0.11c16.13-25.12-15.31-49.45-21.1-65.28l3.58,3.27c-0.03-0.24-0.04-0.45-0.02-0.63
	c17.9,18.49,38.52-3.08,51.47-17.02l39.21,9c-0.19,13.65-4.89,28.93-28.31,28.96c-20.09,0.02-26.01-8.61-43.99-8.55
	C267.05,317.46,264.18,316.82,261.77,315.83 M308.61,306.5c0,6.38,3.87,11.56,8.65,11.56s8.65-5.17,8.65-11.56
	c0-6.38-3.87-11.56-8.65-11.56S308.61,300.12,308.61,306.5 M406.14,121.81c15.96-6.49,61.76-53.27,73.73-82.09
	c1.14-2.74,4.82-6.72,8-6.72c3.49,0,5.51,4.78,5.84,13.82c2.08,57.12-11.01,104.95-22.37,135.02
	c-14.35,37.99-31.85,63.93-42.5,74.62c-1.03-0.25-5.24-6.47-9.12-12.91c2.43,1.73,7.39,4.83,11.81,4.97l0.38,0.01l0-0.38
	c-0.07-5.25-1.18-22.75-12.1-33.24c1.49,0.33,3.2,0.5,4.95,0.5c4.54,0,13.22-1.21,20.43-9.32l0.35-0.39l-0.49-0.19
	c-8.76-3.41-11.28-5.8-18.76-12.88c-1.54-1.46-3.3-3.12-5.36-5.03c0.44,0.06,0.9,0.09,1.37,0.09c7.7,0,18.59-7.87,21.57-15.59
	l0.24-0.63l-0.66,0.14c-2.49,0.54-4.99,0.81-7.43,0.81c-11.42,0-19.06-5.99-21.5-8.22c2.55,0.44,8.59,1.38,12.15,1.09l0.46-0.04
	l-0.14-0.44c-2.08-6.41-5.89-15.42-15.26-21.08c0.89,0.05,2.09,0.1,3.38,0.1c5.33,0,8.52-0.75,9.49-2.22l0.11-0.17l-0.08-0.18
	C418.76,128.44,409.06,123.16,406.14,121.81 M451.16,164.77c0,0-0.37,14.16-14.63,26.48c6.69,8.59,16.04,8.5,16.04,8.5
	c25.31-35.62,38.21-108.19,35.78-143.2C481.77,125.37,451.16,164.77,451.16,164.77 M22.59,181.83
	C11.23,151.77-1.86,103.94,0.22,46.82C0.55,37.77,2.57,33,6.06,33c3.18,0,6.86,3.98,8,6.72c11.97,28.81,57.77,75.6,73.73,82.09
	c-2.92,1.35-12.62,6.63-18.46,19.45l-0.08,0.18l0.11,0.17c0.96,1.48,4.15,2.22,9.48,2.22c1.29,0,2.48-0.05,3.38-0.1
	c-9.37,5.66-13.19,14.67-15.26,21.08l-0.14,0.44l0.46,0.04c3.55,0.29,9.6-0.65,12.15-1.09c-2.44,2.22-10.08,8.22-21.51,8.22
	c-2.44,0-4.93-0.27-7.43-0.81l-0.66-0.14l0.24,0.63c2.98,7.72,13.87,15.59,21.57,15.59c0.47,0,0.93-0.03,1.37-0.09
	c-2.06,1.91-3.82,3.57-5.36,5.04c-7.47,7.08-9.99,9.47-18.75,12.87l-0.49,0.19l0.35,0.39c7.2,8.11,15.89,9.32,20.43,9.32
	c1.75,0,3.45-0.17,4.95-0.5c-10.93,10.48-12.03,27.99-12.1,33.24l0,0.38l0.38-0.01c4.42-0.14,9.39-3.24,11.81-4.97
	c-3.88,6.45-8.09,12.66-9.12,12.91C54.44,245.76,36.93,219.82,22.59,181.83 M41.69,199.76c0,0,9.34,0.09,16.04-8.5
	c-14.27-12.33-14.63-26.48-14.63-26.48S12.49,125.37,5.92,56.56C3.48,91.57,16.39,164.13,41.69,199.76"/>
</svg>
