<?xml version="1.0" encoding="utf-8"?>
<!-- Generator: Adobe Illustrator 15.0.1, SVG Export Plug-In  -->
<!DOCTYPE svg PUBLIC "-//W3C//DTD SVG 1.1 Tiny//EN" "http://www.w3.org/Graphics/SVG/1.1/DTD/svg11-tiny.dtd" [
	<!ENTITY ns_flows "http://ns.adobe.com/Flows/1.0/">
]>
<svg version="1.1" baseProfile="tiny"
	 xmlns="http://www.w3.org/2000/svg" xmlns:xlink="http://www.w3.org/1999/xlink" xmlns:a="http://ns.adobe.com/AdobeSVGViewerExtensions/3.0/"
	 x="0px" y="0px" width="611px" height="499px" viewBox="-0.81 -0.33 611 499" overflow="visible" xml:space="preserve">
<defs>
</defs>
<path d="M460.17,0c-2.59,0.09-3.04,0.51-3.32,3.09c157.44,135.5,29.97,162.54-30.28,162.54c-0.04,0.52-0.04,1.03-0.07,1.55
	c-16.53-11.87-44.79-7.51-66.6-9.36c-32.88-2.78-38.07-27.76-53.61-28.02v-0.01c-0.13-0.01-0.25,0.01-0.38,0
	c-0.13,0-0.25-0.01-0.38,0v0.01c-15.53,0.26-20.73,25.24-53.61,28.02c-22.6,1.92-52.13-2.83-68.35,10.71
	c-0.02-0.96-0.05-1.92-0.12-2.9c-60.26,0-187.72-27.04-30.28-162.54c-0.28-2.58-0.73-3-3.32-3.09
	c-251.92,123.6-141.29,259.57,5.17,259.57c-0.5-20.68,8.68-36.41,16.77-52.04c1.93,49.16,8.43,33.02-3.69,69.93
	c-7.71,23.5-20.95,45.88,18.12,80.99c39.08,35.11,39.33,30.11,48.7,44.17c5.66,8.5-26.33,20.39,8.5,50.69
	c34.83,30.29,38.8,10.19,39.64,4.53c0.85-5.66-9.91,5.81-22.65-6.08c-12.74-11.9-21.88-35.96,7.01-45.87
	c28.17-9.67,14.23,27.64,37.03,29.3v0.15c0.33-0.04,0.67-0.06,1.02-0.06c0.13,0,0.25-0.02,0.38-0.02c0.13,0.01,0.25,0.02,0.38,0.02
	c0.36,0,0.69,0.03,1.02,0.06v-0.15c22.79-1.66,8.96-38.97,37.13-29.3c28.88,9.91,19.75,33.97,7.01,45.87
	c-12.74,11.89-23.5,0.42-22.65,6.08c0.85,5.67,4.81,25.77,39.64-4.53c34.83-30.3,2.83-42.2,8.5-50.69
	c9.38-14.06,9.63-9.06,48.7-44.17c39.08-35.11,25.84-57.5,18.12-80.99c-11.85-36.09-5.9-21.46-3.83-66.73
	c7.63,14.6,15.58,29.58,15.11,48.84C601.47,259.57,712.09,123.6,460.17,0z M253.2,315.27c-4.96-0.42-10.04-6.04-12.04-8.63
	c-6.65-8.64-24.07,3.25-36.69-16.35c-5.63-8.74-1.43-23.54-5.22-30.1c-1.17-2.02-1.41-3.85,1.98-2.26
	c13.31,6.23,22.23,3.54,32.76,13.55c18.62,17.71,7.21,35.81,20.48,41.1C257.42,313.75,255.77,315.48,253.2,315.27z M411.57,260.19
	c-3.8,6.55,0.41,21.36-5.23,30.1c-12.62,19.6-30.03,7.71-36.69,16.35c-2,2.59-7.08,8.21-12.03,8.63c-2.58,0.22-4.22-1.51-1.28-2.69
	c13.27-5.29,1.86-23.39,20.48-41.1c10.53-10.02,19.45-7.33,32.76-13.55C412.98,256.33,412.73,258.17,411.57,260.19z M284.2,447.65
	c-28.17,3.04-30.16-22.44-15.29-30.02c12.13-6.19,18.12,15.01,32.56,18.98c1.68,0.46,3.15,0.68,4.43,0.73
	c1.29-0.05,2.76-0.27,4.43-0.73c14.45-3.97,20.44-25.16,32.57-18.98c14.87,7.58,12.87,33.06-15.29,30.02
	c-10.14-1.1-7.36,18.15-22.05,17.27C290.88,465.8,294.35,446.55,284.2,447.65z M342.94,498.5c-12.38,1.52-13.49-8.5-36.1-7.46h-1.86
	c-22.6-1.04-23.72,8.98-36.1,7.46c-12.71-1.56-6.11-27.32-2.64-24.56c3.47,2.77,6.22,4.61,14.52,4.89
	c8.69,0.28,8.25-15.23,12.05-15.23c3.5,0,4.13,3.88,12.82,3.88s9.88-3.88,13.38-3.88c3.8,0,1.65,14.17,11.55,14.17
	c9.91,0,11.55-1.06,15.02-3.82C349.04,471.18,355.65,496.94,342.94,498.5z"/>
<path fill="#FFFFFF" d="M61.67,210.03c21.39,13.39,50.5,22.09,86.53,25.88l-1.61,5.84c-92.47-9.41-117.2-51.33-123.71-75.6
	c-2.37-8.83-3.08-17.69-2.47-26.31c-0.1,7.99,0.97,16.08,3.46,24.02C29.7,182.45,42.42,197.99,61.67,210.03z M592.3,139.84
	c0.1,7.99-0.97,16.08-3.46,24.02c-5.83,18.59-18.55,34.13-37.8,46.17c-21.39,13.39-50.5,22.09-86.54,25.88l1.61,5.84
	c92.46-9.41,117.2-51.33,123.71-75.6C592.19,157.33,592.91,148.46,592.3,139.84z M425.27,208.88c-4.81,12.83-67.75,3.61-83.38,8.02
	c-15.63,4.41-36.88,38.48-36.88,38.48s-20.83-34.07-36.46-38.48c-15.63-4.41-78.57,4.81-83.38-8.02
	c4.81,12.83,67.75,6.18,83.38,10.59s36.46,38.48,36.46,38.48s21.25-34.07,36.88-38.48C357.52,215.06,420.46,221.71,425.27,208.88z
	 M185.17,308.66c0,32.17,68.65,63.11,68.65,83.28C253.82,367.59,185.17,335.72,185.17,308.66z M356.62,391.94
	c0-20.17,68.65-51.11,68.65-83.28C425.27,335.72,356.62,367.59,356.62,391.94z M402.57,233.42c6.99,14.26-68.58,32.55-51.94,66.55
	C335.55,270.37,411.01,250.64,402.57,233.42z M259.77,299.97c16.63-34.01-58.93-52.29-51.94-66.55
	C199.38,250.64,274.84,270.37,259.77,299.97z M258.16,399.3c34.98-14.49-9.58-78.2,5.1-84.27
	C245.54,322.35,289.06,387.08,258.16,399.3z M347.57,315.03c14.68,6.07-29.88,69.78,5.1,84.27
	C321.78,387.08,365.3,322.35,347.57,315.03z"/>
</svg>
