<?xml version="1.0" encoding="utf-8"?>
<!-- Generator: Adobe Illustrator 15.0.0, SVG Export Plug-In  -->
<!DOCTYPE svg PUBLIC "-//W3C//DTD SVG 1.1 Tiny//EN" "http://www.w3.org/Graphics/SVG/1.1/DTD/svg11-tiny.dtd" [
	<!ENTITY ns_flows "http://ns.adobe.com/Flows/1.0/">
]>
<svg version="1.1" baseProfile="tiny"
	 xmlns="http://www.w3.org/2000/svg" xmlns:xlink="http://www.w3.org/1999/xlink" xmlns:a="http://ns.adobe.com/AdobeSVGViewerExtensions/3.0/"
	 x="0px" y="0px" width="80px" height="250px" overflow="visible" xml:space="preserve">
<defs>
</defs>
<path fill="#231F20" d="M38.29,242.36l0.15,0l-0.01,0.49c-0.34,0.75-0.68,1.5-1.02,2.25c1.76,0.8,3.77,0.83,5.55,0.09
	c-0.31-0.76-0.63-1.52-0.94-2.28l0.01-0.49l0.15,0c0.3,0.01,0.55-0.31,0.56-0.71c0.01-0.4-0.23-0.72-0.54-0.73l-3.89-0.07
	c-0.3-0.01-0.55,0.31-0.56,0.71C37.75,242.03,37.99,242.36,38.29,242.36z M41.79,241.1c0,0,0.59,0.16,0.59,0.66
	c-0.01,0.5-0.5,0.44-0.5,0.44l-0.22,0.89l0.72,1.91c0,0-1.4,0.42-2.65,0.3c0,0,2.1-0.66,1.77-1.57c-0.33-0.9-0.33-0.9-0.33-0.9
	l0.01-0.65l-1.6-0.03C39.58,242.16,41.78,241.75,41.79,241.1z"/>
<path fill="#231F20" d="M31.66,144.49c0,0,0.16,4.89-5.68,4.89s-10.58-6.31-10.89-11.52c-0.32-5.21-0.63-7.58-4.42-7.42
	c-3.79,0.16-10.26,9.16-3.47,28.89c6.79,19.73,4.73,19.57-0.47,33.62c-5.21,14.05-13.42,31.57,3,41.36
	c16.42,9.79,61.72,12.47,67.56-7.74c5.84-20.21-8.21-35.52-9.63-41.36c-1.42-5.84-1.89-9.31,1.11-15.63
	c3-6.31,5.44-20.02-1.11-24.78c-1.74-1.26-4.58,1.1-4.74,4.1c-0.16,3-5.84,17.84-17.52,7.58c0,0-2.37-105.45-2.37-110.34
	c0-4.89,2.84-9.32,5.21-10.58c2.37-1.26,1.26-3.95,0.95-5.37c-0.32-1.42-2.84-12.16-2.84-13.42c0-1.26-0.63-2.05,2.37-3.63
	c3-1.58,4.1-7.73,1.42-10.89c-2.69-3.16-9.79-3-11.84,4.42c-2.05,7.42-8.53,30.46-9.31,32.52c-0.79,2.05,0.79,3,1.58,3.63
	c0.79,0.63,2.37,0.79,2.37,5.84C32.93,53.72,31.66,144.49,31.66,144.49z"/>
<path fill="#231F20" d="M29.45,34.49c-0.09,1.15-0.96,2.02-1.94,1.94c-0.98-0.08-1.7-1.08-1.61-2.23c0.09-1.15,0.96-2.02,1.94-1.94
	C28.82,32.34,29.54,33.34,29.45,34.49z"/>
<rect x="28.15" y="34.67" transform="matrix(0.9802 0.1981 -0.1981 0.9802 7.553 -5.153)" fill="#231F20" width="2.76" height="1.02"/>
<ellipse transform="matrix(0.9968 0.0797 -0.0797 0.9968 2.3796 -2.2543)" fill="#231F20" cx="29.41" cy="28.67" rx="1.78" ry="2.09"/>
<rect x="29.89" y="28.99" transform="matrix(0.9802 0.1979 -0.1979 0.9802 6.4546 -5.6043)" fill="#231F20" width="2.76" height="1.02"/>
<ellipse transform="matrix(0.9968 0.0801 -0.0801 0.9968 1.9394 -2.4074)" fill="#231F20" cx="30.99" cy="22.98" rx="1.77" ry="2.09"/>
<rect x="31.47" y="23.3" transform="matrix(0.9801 0.1985 -0.1985 0.9801 5.3788 -6.0452)" fill="#231F20" width="2.76" height="1.02"/>
<ellipse transform="matrix(0.9969 0.0788 -0.0788 0.9969 1.4577 -2.5065)" fill="#231F20" cx="32.49" cy="17.22" rx="1.78" ry="2.09"/>
<rect x="32.97" y="17.54" transform="matrix(0.9803 0.1977 -0.1977 0.9803 4.2457 -6.4336)" fill="#231F20" width="2.76" height="1.02"/>
<ellipse transform="matrix(0.9968 0.0798 -0.0798 0.9968 1.0359 -2.6995)" fill="#231F20" cx="34.31" cy="11.62" rx="1.78" ry="2.09"/>
<rect x="34.78" y="11.94" transform="matrix(0.9802 0.198 -0.198 0.9802 3.1791 -6.9122)" fill="#231F20" width="2.76" height="1.02"/>
<ellipse transform="matrix(0.9968 0.0794 -0.0794 0.9968 0.5595 -2.8425)" fill="#231F20" cx="36.04" cy="5.62" rx="1.78" ry="2.09"/>
<rect x="36.52" y="5.94" transform="matrix(0.9802 0.198 -0.198 0.9802 2.0269 -7.3768)" fill="#231F20" width="2.76" height="1.02"/>
<path fill="#FFFFFF" d="M1.67,211.5c0,0,3.24-10.26,7.73-19.89c4.5-9.63,6.32-12.71,0.48-29.44c-5.84-16.73-4.19-25.65-0.08-29.05
	c0,0-4.74,1.11-4.74,10.26c0,9.16,4.74,19.65,6.87,28.65c2.13,9-5.68,24.78-7.89,30.54C1.83,208.34,1.67,211.5,1.67,211.5z"/>
<path fill="#FFFFFF" d="M13.51,132.18c0,0-0.32,3.08-0.32,4.66c0,1.58,0.08,9.08,7.81,12.94c0,0-6.16-4.58-6.39-10.5
	C14.38,133.36,13.51,132.18,13.51,132.18z"/>
<path fill="#FFFFFF" d="M58.82,223.42c4.73,3.63,9.89,5.9,11.89,4.31c2-1.58-2.84-7.37-6.21-9.68c-3.37-2.32-7.68-5.26-9.68-2.84
	C52.81,217.63,55.33,220.75,58.82,223.42z"/>
<path fill="#FFFFFF" d="M58.02,160.99c0,0,6.16-3.63,6.55-9.08c0.4-5.45,1.5-5.84,2.29-5.84c0,0-2.37-0.87-2.84,1.89
	C63.55,150.72,64.1,154.67,58.02,160.99z"/>
<path fill="#FFFFFF" d="M68.29,147.17c0,0,4.89,8.52,0.71,18.31c-4.19,9.79-6.32,15.63-0.47,26.68c5.84,11.05,8.36,20.29,8.36,20.29
	s-1.66-8.53-5.92-17.44c-4.26-8.92-7.66-14.29-4.26-21.86C70.1,165.56,74.6,152.22,68.29,147.17z"/>
<path fill="#FFFFFF" d="M75.55,211.81c-0.95-5.76-7.89-19.65-10.74-26.83c-2.84-7.18,0.71-12.79,3.55-19.57
	c2.84-6.79,0.95-14.68,0-16.34c-0.95-1.66-1.81-3.08-3,4.34c-1.18,7.42-9.47,9.87-12,9.87c-1.57,0-4.68-0.91-8.18-2.16
	c-0.65,1.89-2.55,1.89-6.57,1.89c-5.16,0-6.63-1.37-6.63-2.84c0-0.59-0.03-2.2-0.08-4.53c-0.86-0.41-1.59-0.76-2.13-1.05
	c-4.18-2.21-5.45,0-4.18,3.79c1.26,3.79,2.29,12.08,0.32,19.73c-1.97,7.66-5.29,10.02-5.29,18.94c0,7.69,3.7,10.33,9.47,10.91v-1.68
	c0-0.87,0.71-1.58,1.58-1.58h14.92c0.87,0,1.58,0.71,1.58,1.58v1.43c4.49-0.12,8.8,0.43,11.05,1.41c2.53,1.1,9.08,6.94,11.52,8.29
	C73.18,218.76,76.49,217.58,75.55,211.81z"/>
<circle fill="#231F20" cx="29.56" cy="168.75" r="0.9"/>
<circle fill="#231F20" cx="48.08" cy="168.75" r="0.89"/>
<path fill="#FFFFFF" d="M47.34,169.33c0,0.87-0.71,1.58-1.58,1.58h-14.1c-0.87,0-1.58-0.71-1.58-1.58v-1.37
	c0-0.87,0.71-1.58,1.58-1.58h14.1c0.87,0,1.58,0.71,1.58,1.58V169.33z"/>
<path fill="#231F20" d="M47.34,169.64c0,0.87-0.71,1.58-1.58,1.58h-14.1c-0.87,0-1.58-0.71-1.58-1.58v-1.37
	c0-0.87,0.71-1.58,1.58-1.58h14.1c0.87,0,1.58,0.71,1.58,1.58V169.64z"/>
<path fill="#FFFFFF" d="M47.34,169.33c0,0.87-0.71,1.58-1.58,1.58h-14.1c-0.87,0-1.58-0.71-1.58-1.58v-1.37
	c0-0.87,0.71-1.58,1.58-1.58h14.1c0.87,0,1.58,0.71,1.58,1.58V169.33z"/>
<circle fill="#231F20" cx="32.22" cy="168.77" r="0.76"/>
<circle fill="#231F20" cx="34.88" cy="168.77" r="0.76"/>
<circle fill="#231F20" cx="37.55" cy="168.77" r="0.76"/>
<circle fill="#231F20" cx="40.22" cy="168.77" r="0.76"/>
<circle fill="#231F20" cx="42.89" cy="168.77" r="0.76"/>
<circle fill="#231F20" cx="45.55" cy="168.77" r="0.76"/>
<circle fill="#231F20" cx="29.56" cy="183.69" r="0.89"/>
<circle fill="#231F20" cx="48.08" cy="183.32" r="0.89"/>
<path fill="#231F20" d="M47.35,184.23c0.02,0.87-0.67,1.59-1.55,1.61l-14.1,0.28c-0.87,0.02-1.59-0.68-1.61-1.55l-0.03-1.37
	c-0.02-0.87,0.67-1.59,1.55-1.61l14.1-0.28c0.87-0.02,1.59,0.67,1.61,1.55L47.35,184.23z"/>
<path fill="#FFFFFF" d="M47.35,183.92c0.02,0.87-0.67,1.59-1.55,1.61l-14.1,0.28c-0.87,0.02-1.59-0.67-1.61-1.55l-0.03-1.37
	c-0.02-0.87,0.67-1.59,1.55-1.61l14.1-0.28c0.87-0.02,1.59,0.67,1.61,1.55L47.35,183.92z"/>
<circle fill="#231F20" cx="32.22" cy="183.66" r="0.76"/>
<circle fill="#231F20" cx="34.89" cy="183.61" r="0.76"/>
<circle fill="#231F20" cx="37.55" cy="183.56" r="0.76"/>
<circle fill="#231F20" cx="40.22" cy="183.5" r="0.76"/>
<path fill="#231F20" d="M42.12,183.47c-0.01-0.42,0.33-0.77,0.75-0.78c0.42-0.01,0.77,0.33,0.78,0.75c0.01,0.42-0.33,0.77-0.75,0.78
	C42.48,184.22,42.13,183.89,42.12,183.47z"/>
<circle fill="#231F20" cx="45.56" cy="183.4" r="0.76"/>
<circle fill="#231F20" cx="30.29" cy="196.23" r="0.89"/>
<path fill="#231F20" d="M47.69,199.05c0.08-0.49,0.54-0.82,1.02-0.74c0.49,0.08,0.82,0.54,0.74,1.03c-0.08,0.49-0.54,0.82-1.03,0.74
	C47.94,200,47.61,199.54,47.69,199.05z"/>
<path fill="#231F20" d="M47.75,199.96c-0.14,0.86-0.95,1.45-1.81,1.3l-13.92-2.26c-0.86-0.14-1.45-0.95-1.3-1.81l0.22-1.35
	c0.14-0.86,0.95-1.44,1.81-1.3l13.92,2.26c0.86,0.14,1.44,0.95,1.3,1.81L47.75,199.96z"/>
<path fill="#FFFFFF" d="M47.75,199.65c-0.14,0.86-0.95,1.45-1.81,1.31l-13.92-2.26c-0.86-0.14-1.45-0.95-1.3-1.81l0.22-1.35
	c0.14-0.86,0.95-1.45,1.81-1.3l13.92,2.26c0.86,0.14,1.44,0.95,1.3,1.81L47.75,199.65z"/>
<circle fill="#231F20" cx="32.91" cy="196.68" r="0.76"/>
<path fill="#231F20" d="M34.79,196.98c0.07-0.42,0.46-0.7,0.88-0.63c0.41,0.06,0.7,0.46,0.63,0.87c-0.07,0.42-0.46,0.7-0.88,0.63
	C35,197.79,34.72,197.4,34.79,196.98z"/>
<circle fill="#231F20" cx="38.18" cy="197.53" r="0.76"/>
<path fill="#231F20" d="M40.06,197.84c0.07-0.41,0.46-0.7,0.88-0.63c0.41,0.07,0.7,0.46,0.63,0.88c-0.07,0.42-0.46,0.7-0.88,0.63
	S39.99,198.25,40.06,197.84z"/>
<path fill="#231F20" d="M42.69,198.27c0.07-0.42,0.46-0.7,0.88-0.63c0.42,0.07,0.7,0.46,0.63,0.88c-0.07,0.41-0.46,0.7-0.88,0.63
	C42.91,199.07,42.62,198.68,42.69,198.27z"/>
<circle fill="#231F20" cx="46.08" cy="198.82" r="0.76"/>
<circle fill="#231F20" cx="26.77" cy="181.16" r="0.58"/>
<circle fill="#231F20" cx="27.24" cy="206.16" r="0.58"/>
<circle fill="#231F20" cx="50.08" cy="206.16" r="0.58"/>
<circle fill="#231F20" cx="48.66" cy="211.6" r="0.58"/>
<path fill="#231F20" d="M72.44,215.31c0-0.32,0.26-0.58,0.58-0.58c0.32,0,0.58,0.26,0.58,0.58c0,0.32-0.26,0.58-0.58,0.58
	C72.7,215.89,72.44,215.63,72.44,215.31z"/>
<circle fill="#231F20" cx="55.63" cy="216.55" r="0.61"/>
<circle fill="#231F20" cx="69.52" cy="226.92" r="0.61"/>
<circle fill="#231F20" cx="62.71" cy="183.74" r="0.58"/>
<circle fill="#231F20" cx="59.52" cy="189.99" r="0.66"/>
<circle fill="#231F20" cx="66.43" cy="197.21" r="0.66"/>
<circle fill="#231F20" cx="67.44" cy="151.22" r="0.58"/>
<path fill="#231F20" d="M46.87,163.75c0-0.32,0.26-0.58,0.58-0.58c0.32,0,0.58,0.26,0.58,0.58c0,0.32-0.26,0.58-0.58,0.58
	C47.13,164.33,46.87,164.07,46.87,163.75z"/>
<circle fill="#231F20" cx="27.45" cy="156.38" r="0.58"/>
<path fill="#FFFFFF" d="M46.58,214.89H31.66c-1.04,0-1.89-0.85-1.89-1.89v-6.71c0-1.04,0.85-1.89,1.89-1.89h14.92
	c1.05,0,1.9,0.85,1.9,1.89v1.74h1.71c0.49,0,0.89,0.36,0.89,0.8v4.6c0,0.44-0.4,0.8-0.89,0.8h-2.18
	C47.65,214.65,47.13,214.89,46.58,214.89L46.58,214.89z"/>
<path fill="#231F20" d="M46.58,204.71c0.87,0,1.58,0.71,1.58,1.58v2.05h2.03c0.32,0,0.57,0.22,0.57,0.49v4.6
	c0,0.27-0.25,0.48-0.57,0.48h-2.33c-0.29,0.4-0.75,0.66-1.28,0.66H31.66c-0.87,0-1.58-0.71-1.58-1.58v-6.71
	c0-0.87,0.71-1.58,1.58-1.58H46.58 M46.58,204.08H31.66c-1.22,0-2.21,0.99-2.21,2.21V213c0,1.22,0.99,2.21,2.21,2.21h14.92
	c0.59,0,1.16-0.24,1.57-0.66h2.04c0.67,0,1.21-0.5,1.21-1.12v-4.6c0-0.62-0.54-1.12-1.21-1.12h-1.4v-1.42
	C48.79,205.07,47.8,204.08,46.58,204.08L46.58,204.08z"/>
<path fill="#FFFFFF" d="M38.61,163.17c-5.61,0-6.79-1.63-6.79-3c0-0.54-0.03-1.87-0.07-3.88c-0.06-3.11-0.16-7.81-0.23-13.2
	c0.21-14.96,1.24-89.83,1.24-94.42c0-4.25-1.11-4.94-1.92-5.45c-0.14-0.09-0.27-0.17-0.39-0.27c-0.07-0.06-0.15-0.12-0.23-0.18
	c-0.81-0.62-2.16-1.66-1.4-3.63c0.8-2.08,7.34-25.39,9.31-32.5c1.32-4.78,4.71-6.48,7.44-6.48c1.86,0,3.61,0.75,4.67,2
	c1.36,1.59,1.88,4.05,1.39,6.58c-0.41,2.13-1.48,3.83-2.85,4.56c-2.45,1.29-2.39,1.98-2.31,2.93c0.01,0.18,0.03,0.37,0.03,0.57
	c0,1.04,1.77,8.74,2.53,12.03c0.15,0.64,0.26,1.12,0.31,1.35c0.04,0.18,0.09,0.38,0.15,0.6c0.4,1.51,1,3.78-1.18,4.94
	c-2.15,1.15-5.13,5.41-5.13,10.44c0,4.8,2.31,107.83,2.37,110.3c0,0.01,0.01,0.03,0.01,0.04c0,0.02,0,0.04-0.01,0.05
	c-0.03,0.56,0,1.13,0.03,1.63c0.02,0.31,0.03,0.59,0.03,0.84C45.61,163.17,43.7,163.17,38.61,163.17L38.61,163.17z"/>
<path fill="#231F20" d="M45.58,0.32c1.81,0,3.52,0.73,4.56,1.95c2.68,3.16,1.58,9.31-1.42,10.89c-3,1.58-2.37,2.37-2.37,3.63
	c0,1.26,2.53,12,2.84,13.42c0.32,1.42,1.42,4.1-0.95,5.37c-2.37,1.26-5.21,5.68-5.21,10.58c0,4.89,2.37,110.34,2.37,110.34
	c-0.01-0.01-0.01-0.01-0.01-0.01s0.01,0.01,0.01,0.01c-0.05,0.91,0.05,1.86,0.05,2.52c0,4-1.68,4-6.84,4
	c-5.16,0-6.63-1.37-6.63-2.84c0-1.39-0.19-8.28-0.29-17.08c0.16-11.46,1.24-89.74,1.24-94.42c0-5.05-1.58-5.21-2.37-5.84
	c-0.79-0.63-2.37-1.58-1.58-3.63c0.79-2.05,7.26-25.1,9.31-32.52C39.55,2.14,42.71,0.32,45.58,0.32 M45.4,156.49
	c0.01,0.01,0.01,0.01,0.01,0.01S45.4,156.49,45.4,156.49L45.4,156.49 M45.58,0c-2.78,0-6.24,1.73-7.59,6.6
	c-1.97,7.12-8.51,30.43-9.3,32.49c-0.81,2.09,0.61,3.17,1.45,3.82c0.08,0.06,0.16,0.12,0.22,0.17c0.13,0.1,0.26,0.19,0.41,0.28
	c0.78,0.49,1.84,1.16,1.84,5.32c0,4.55-1.03,79.45-1.24,94.42c0.07,5.4,0.16,10.09,0.23,13.2c0.04,1.94,0.07,3.35,0.07,3.88
	c0,1.44,1.21,3.16,6.95,3.16c5.21,0,7.16,0,7.16-4.31c0-0.25-0.01-0.54-0.03-0.85c-0.02-0.49-0.05-1.05-0.03-1.59
	c0.01-0.03,0.01-0.05,0.01-0.08c0-0.03,0-0.05-0.01-0.07c-0.07-2.99-2.37-105.49-2.37-110.27c0-4.96,2.93-9.17,5.04-10.3
	c2.29-1.22,1.64-3.66,1.26-5.12c-0.06-0.21-0.11-0.42-0.15-0.59c-0.05-0.23-0.16-0.71-0.31-1.34c-0.69-3-2.53-10.98-2.53-12.01
	c0-0.21-0.01-0.4-0.03-0.58c-0.07-0.89-0.12-1.53,2.23-2.77c1.42-0.75,2.51-2.49,2.93-4.67c0.5-2.57-0.04-5.08-1.42-6.71
	C49.28,0.77,47.48,0,45.58,0L45.58,0z"/>
<circle fill="#231F20" cx="38.77" cy="158.85" r="0.9"/>
<circle fill="#231F20" cx="38.77" cy="152.75" r="0.9"/>
<circle fill="#231F20" cx="38.77" cy="146.33" r="0.9"/>
<circle fill="#231F20" cx="38.77" cy="138.7" r="0.9"/>
<path fill="#231F20" d="M37.77,110c0-0.45,0.36-0.82,0.82-0.82c0.45,0,0.81,0.37,0.81,0.82s-0.37,0.82-0.81,0.82
	C38.13,110.81,37.77,110.45,37.77,110z"/>
<circle fill="#231F20" cx="38.48" cy="98" r="0.82"/>
<path fill="#231F20" d="M37.5,84.53c0-0.45,0.36-0.82,0.82-0.82c0.45,0,0.82,0.37,0.82,0.82s-0.37,0.82-0.82,0.82
	C37.87,85.35,37.5,84.98,37.5,84.53z"/>
<path fill="#231F20" d="M37.4,69.22c0-0.45,0.37-0.82,0.82-0.82c0.45,0,0.81,0.36,0.81,0.82c0,0.45-0.36,0.81-0.81,0.81
	C37.76,70.03,37.4,69.67,37.4,69.22z"/>
<circle fill="#231F20" cx="35.4" cy="125.6" r="0.74"/>
<circle fill="#231F20" cx="41.87" cy="125.6" r="0.74"/>
<path fill="#231F20" d="M43.73,80.87h-11.2c0,0.14,0,0.28,0,0.42h11.21C43.73,81.15,43.73,81.01,43.73,80.87z M31.98,160.06
	c0,0.04,0,0.08,0,0.11c0,0.11,0.01,0.21,0.02,0.32h13.34c0.02-0.14,0.04-0.27,0.06-0.42H31.98z M44.65,123.13H31.96
	c0,0.14,0,0.28-0.01,0.42h12.71C44.66,123.41,44.66,123.27,44.65,123.13z M32.73,65.25h10.66c0-0.14,0-0.28-0.01-0.42H32.74
	C32.74,64.96,32.74,65.11,32.73,65.25z M43.03,46.44c0-0.12,0-0.22,0-0.29c0-0.1,0-0.19,0-0.29H32.7c0.04,0.18,0.07,0.37,0.09,0.58
	H43.03z M43.88,87.98H32.44c0,0.14,0,0.28,0,0.42h11.46C43.89,88.26,43.88,88.12,43.88,87.98z M44.17,100.92h-11.9
	c0,0.14,0,0.28-0.01,0.42h11.92C44.17,101.2,44.17,101.06,44.17,100.92z M43.56,73.04H32.63c0,0.14,0,0.28-0.01,0.42h10.94
	C43.57,73.32,43.56,73.17,43.56,73.04z M32.84,56.51h10.37c0-0.14-0.01-0.28-0.01-0.42H32.85C32.85,56.23,32.85,56.37,32.84,56.51z
	 M44.03,94.82H32.34c0,0.14,0,0.28-0.01,0.42h11.7C44.04,95.1,44.03,94.96,44.03,94.82z M44.3,107.08H32.18c0,0.14,0,0.28-0.01,0.42
	h12.14C44.3,107.36,44.3,107.22,44.3,107.08z M44.42,112.71H32.1c0,0.14,0,0.28,0,0.42h12.33
	C44.43,112.99,44.43,112.85,44.42,112.71z M44.86,132.44H31.83c0,0.14,0,0.28,0,0.42h13.04C44.87,132.72,44.86,132.58,44.86,132.44z
	 M44.95,136.44H31.77c0,0.14,0,0.28,0,0.42h13.19C44.95,136.72,44.95,136.58,44.95,136.44z M45.38,157.28H31.93
	c0,0.14,0,0.29,0.01,0.42H45.4C45.39,157.56,45.39,157.42,45.38,157.28z M44.76,127.81H31.89c0,0.14,0,0.28,0,0.42h12.88
	C44.76,128.09,44.76,127.95,44.76,127.81z M44.54,118.13H32.03c0,0.14,0,0.28,0,0.42h12.53C44.55,118.41,44.54,118.27,44.54,118.13z
	 M45.04,140.6H31.72c0,0.14-0.01,0.28-0.01,0.42h13.34C45.05,140.88,45.04,140.74,45.04,140.6z M45.34,154.17H31.87
	c0,0.14,0.01,0.28,0.01,0.42h13.48C45.35,154.46,45.35,154.32,45.34,154.17z M45.12,144.28H31.7c0,0.14,0,0.28,0,0.42h13.43
	C45.13,144.56,45.13,144.42,45.12,144.28z M45.28,151.12H31.81c0,0.14,0,0.28,0.01,0.42h13.47
	C45.28,151.4,45.28,151.26,45.28,151.12z M45.2,147.8H31.75c0,0.14,0,0.28,0.01,0.42h13.45C45.21,148.09,45.21,147.95,45.2,147.8z"
	/>
<path fill="#231F20" d="M36.61,45.3c0,0,0.05-2.05,1.42-2.05c1.37,0,1.31,2.26,1.31,2.26h-2.74V45.3z"/>
<path fill="#231F20" d="M14.17,130.51l-0.11-0.05l0.16-0.36c0.48-0.44,0.96-0.88,1.43-1.33c-1.04-1.12-2.49-1.77-4.02-1.78
	c0,0.65-0.01,1.3-0.01,1.95l-0.16,0.36l-0.11-0.05c-0.22-0.1-0.5,0.06-0.63,0.35c-0.13,0.29-0.05,0.6,0.17,0.7l2.81,1.25
	c0.22,0.1,0.5-0.06,0.63-0.34C14.46,130.92,14.39,130.61,14.17,130.51z M11.23,130.35c0,0-0.39-0.3-0.23-0.66
	c0.16-0.36,0.5-0.17,0.5-0.17l0.43-0.59l0.07-1.61c0,0,1.15,0.12,2.03,0.59c0,0-1.74-0.17-1.78,0.6c-0.04,0.76-0.04,0.76-0.04,0.76
	l-0.21,0.47l1.16,0.51C13.17,130.26,11.44,129.88,11.23,130.35z"/>
<path fill="#231F20" d="M61.27,220.41c-0.32,0.34-0.47,0.71-0.34,0.83c0.13,0.12,0.49-0.06,0.81-0.4c0.32-0.34,0.47-0.71,0.34-0.83
	C61.94,219.89,61.58,220.07,61.27,220.41z M62.02,217.42c-1.1-0.37-3.63,1.88-3.63,3.53c0,0.84,0.74,1.1,1.79,1.95
	c3.25,2.61,5.73,3.47,5.73,3.47c-1.68-0.95-3.84-2.37-4.42-2.84c-0.58-0.47,1.37-2.52,1.69-2.95c0.31-0.42,1.37-0.73,1.37-0.73
	c3.1,1.47,3.89,5.94,3.89,5.94C68.81,220.73,62.02,217.42,62.02,217.42z M62.45,220c-0.11,0.53-0.76,2.04-2.1,1.63
	c-0.69-0.21-0.53-0.84-0.21-1.42c0.32-0.58,0.9-1.21,1.68-1.26C61.81,218.94,62.55,219.47,62.45,220z"/>
<path fill="#231F20" d="M61.58,223.77c0,0,0-1.07,0.75-0.67c0.75,0.4,3.2,2.17,3.2,2.17s-2.88-2.21-2.96-2.92
	c-0.08-0.71,0.79-1.66,1.46-1.18c0.67,0.47,3.04,2.68,3.04,2.68s-2.72-2.76-2.8-3.12c-0.08-0.36-0.17-0.88,0.29-0.89
	c0.46-0.02-0.25-0.41-0.25-0.41l-2.76,2.25C61.54,221.68,60.83,222.94,61.58,223.77z"/>
<path fill="#231F20" d="M58.58,220.1c-0.43,0.91-0.63,1.93,1.07,3.16c1.7,1.22,4.22,2.49,4.22,2.49s-4.78-2.64-4.93-3.98
	c-0.16-1.34,0.43-1.11,0.43-1.11L58.58,220.1z"/>
<path fill="#231F20" d="M65.65,196.46c-0.06,0.05-0.14,0.05-0.2,0l-5.03-5.29c-0.05-0.06-0.05-0.14,0-0.19l0,0
	c0.06-0.05,0.14-0.05,0.2,0l5.03,5.29C65.71,196.32,65.7,196.41,65.65,196.46L65.65,196.46z"/>
<path fill="#231F20" d="M62.8,192.91c0,0-0.87,0.28-0.87,0.79c0,0.52,0.12,1.46,1.19,1.46c1.06,0,1.77-0.36,1.7-0.95
	C64.73,193.62,63.75,192.95,62.8,192.91z"/>
<path fill="#231F20" d="M62.8,192.91c0,0-0.87,0.28-0.87,0.79c0,0.52,0.12,1.46,1.19,1.46c1.06,0,1.77-0.36,1.7-0.95
	C64.73,193.62,63.75,192.95,62.8,192.91z"/>
<path fill="#FFFFFF" d="M62.96,192.63c0,0-0.87,0.28-0.87,0.79c0,0.51,0.12,1.46,1.19,1.46c1.06,0,1.77-0.35,1.7-0.95
	C64.89,193.34,63.9,192.67,62.96,192.63z"/>
<circle fill="#FFFFFF" cx="62.29" cy="204.63" r="3.32"/>
<path fill="#231F20" d="M65.44,204.63c-0.04,1.14-1.26,2.21-1.26,2.21c1.03-1.02,0.44-2.37,0.44-2.37c0.27,1.14-0.4,2.53-1.97,2.53
	c-2.13,0-2.37-1.46-2.37-1.46c-0.2-0.47-0.2-1.26-0.2-1.26c-0.63,1.62-0.04,2.45-0.04,2.45c-0.91-0.75-1.07-2.48-1.07-2.48
	s-0.39,3.51,3.08,3.63C65.56,207.99,65.44,204.63,65.44,204.63z M61.72,202.22c0.08-0.02,0.14-0.1,0.12-0.18l-0.07-0.35
	c-0.02-0.09-0.1-0.14-0.18-0.12c-0.09,0.02-0.14,0.1-0.13,0.18l0.07,0.35C61.55,202.18,61.63,202.24,61.72,202.22z M62.88,202.27
	c0.08,0.02,0.17-0.03,0.19-0.12l0.09-0.35c0.02-0.08-0.03-0.17-0.11-0.19c-0.08-0.02-0.17,0.03-0.19,0.11l-0.09,0.34
	C62.74,202.17,62.79,202.25,62.88,202.27z M64.32,202.9l0.22-0.28c0.05-0.07,0.04-0.17-0.03-0.22c-0.07-0.05-0.17-0.04-0.22,0.03
	l-0.21,0.28c-0.05,0.07-0.04,0.17,0.03,0.22C64.17,202.98,64.27,202.96,64.32,202.9z M64.93,204.33l0.35-0.03
	c0.09-0.01,0.15-0.09,0.15-0.17c-0.01-0.09-0.09-0.15-0.17-0.14l-0.36,0.03c-0.09,0.01-0.15,0.08-0.14,0.17
	C64.76,204.28,64.84,204.34,64.93,204.33z M60.38,202.93c0.04,0.08,0.14,0.11,0.21,0.07c0.08-0.04,0.11-0.14,0.07-0.21l-0.17-0.31
	c-0.04-0.08-0.14-0.11-0.21-0.06c-0.08,0.04-0.11,0.14-0.07,0.21L60.38,202.93z M59.53,204.2l0.3,0.19
	c0.07,0.05,0.17,0.02,0.22-0.05c0.04-0.07,0.02-0.17-0.05-0.22l-0.3-0.19c-0.08-0.05-0.17-0.02-0.22,0.05
	C59.43,204.05,59.46,204.15,59.53,204.2z"/>
<circle fill="#FFFFFF" cx="52.97" cy="199.11" r="3.31"/>
<path fill="#231F20" d="M56.13,199.11c-0.04,1.15-1.26,2.21-1.26,2.21c1.03-1.03,0.43-2.37,0.43-2.37c0.28,1.14-0.39,2.53-1.97,2.53
	c-2.13,0-2.37-1.46-2.37-1.46c-0.2-0.47-0.2-1.26-0.2-1.26c-0.63,1.62-0.04,2.44-0.04,2.44c-0.91-0.75-1.07-2.49-1.07-2.49
	s-0.4,3.51,3.08,3.63C56.25,202.46,56.13,199.11,56.13,199.11z M52.4,196.69c0.09-0.02,0.14-0.1,0.12-0.18l-0.07-0.35
	c-0.02-0.09-0.1-0.14-0.18-0.13c-0.08,0.02-0.14,0.1-0.13,0.19l0.07,0.35C52.23,196.65,52.32,196.71,52.4,196.69z M53.56,196.75
	c0.08,0.02,0.17-0.03,0.19-0.11l0.09-0.34c0.02-0.08-0.03-0.17-0.11-0.19c-0.09-0.02-0.17,0.03-0.19,0.12l-0.09,0.34
	C53.43,196.64,53.48,196.73,53.56,196.75z M55.01,197.37l0.21-0.28c0.05-0.07,0.04-0.17-0.03-0.22c-0.07-0.05-0.17-0.04-0.22,0.03
	l-0.22,0.28c-0.05,0.07-0.04,0.17,0.03,0.22C54.85,197.45,54.95,197.44,55.01,197.37z M55.61,198.81l0.35-0.03
	c0.09-0.01,0.15-0.08,0.14-0.17c-0.01-0.09-0.08-0.15-0.17-0.14l-0.35,0.04c-0.09,0.01-0.15,0.08-0.14,0.17
	C55.45,198.75,55.53,198.82,55.61,198.81z M51.06,197.41c0.04,0.08,0.14,0.1,0.21,0.06c0.08-0.04,0.11-0.13,0.07-0.21l-0.17-0.31
	c-0.04-0.08-0.14-0.11-0.21-0.07c-0.08,0.04-0.11,0.14-0.07,0.21L51.06,197.41z M50.21,198.67l0.3,0.19
	c0.08,0.05,0.17,0.02,0.22-0.05c0.05-0.08,0.02-0.17-0.05-0.22l-0.3-0.19c-0.07-0.04-0.17-0.02-0.22,0.05
	C50.12,198.53,50.14,198.63,50.21,198.67z"/>
<circle fill="#FFFFFF" cx="70.49" cy="211.1" r="3.31"/>
<path fill="#231F20" d="M73.65,211.1c-0.04,1.14-1.26,2.21-1.26,2.21c1.03-1.03,0.43-2.37,0.43-2.37c0.27,1.14-0.4,2.53-1.97,2.53
	c-2.13,0-2.37-1.46-2.37-1.46c-0.2-0.47-0.2-1.26-0.2-1.26c-0.63,1.62-0.04,2.45-0.04,2.45c-0.91-0.75-1.07-2.49-1.07-2.49
	s-0.39,3.51,3.08,3.63C73.77,214.46,73.65,211.1,73.65,211.1z M69.92,208.69c0.09-0.02,0.14-0.1,0.13-0.18l-0.07-0.35
	c-0.02-0.08-0.1-0.14-0.19-0.12s-0.14,0.1-0.12,0.19l0.07,0.35C69.76,208.65,69.84,208.71,69.92,208.69z M71.08,208.75
	c0.09,0.02,0.17-0.03,0.19-0.12l0.09-0.34c0.02-0.08-0.03-0.17-0.11-0.19c-0.08-0.02-0.17,0.03-0.19,0.12l-0.08,0.34
	C70.95,208.64,71,208.72,71.08,208.75z M72.53,209.37l0.22-0.28c0.05-0.07,0.04-0.17-0.03-0.22c-0.07-0.05-0.17-0.04-0.22,0.03
	l-0.22,0.28c-0.05,0.07-0.04,0.17,0.03,0.22C72.37,209.45,72.47,209.44,72.53,209.37z M73.14,210.8l0.35-0.03
	c0.09-0.01,0.15-0.09,0.14-0.17c-0.01-0.09-0.08-0.15-0.17-0.14l-0.36,0.03c-0.08,0.01-0.15,0.08-0.14,0.17
	C72.97,210.75,73.05,210.81,73.14,210.8z M68.58,209.4c0.04,0.08,0.14,0.11,0.21,0.07c0.08-0.04,0.11-0.13,0.07-0.21l-0.16-0.31
	c-0.04-0.08-0.14-0.1-0.21-0.06c-0.08,0.04-0.11,0.13-0.07,0.21L68.58,209.4z M67.74,210.67l0.3,0.19c0.07,0.05,0.17,0.02,0.22-0.05
	c0.04-0.07,0.02-0.17-0.05-0.22l-0.3-0.19c-0.07-0.05-0.17-0.02-0.22,0.05C67.64,210.53,67.66,210.62,67.74,210.67z"/>
<circle fill="#FFFFFF" cx="41.27" cy="7.85" r="1.4"/>
<path fill="#231F20" d="M39.73,7.85c0-0.85,0.69-1.54,1.54-1.54l0,0c0.85,0,1.54,0.69,1.54,1.54l0,0c0,0.85-0.69,1.54-1.54,1.54l0,0
	C40.42,9.39,39.73,8.7,39.73,7.85L39.73,7.85z M40.01,7.85c0,0.69,0.56,1.26,1.26,1.26l0,0c0.7,0,1.26-0.56,1.26-1.26l0,0
	c0-0.69-0.56-1.26-1.26-1.26l0,0C40.58,6.59,40.02,7.15,40.01,7.85L40.01,7.85L40.01,7.85z"/>
<path fill="#231F20" d="M40.81,6.52c0,0-0.94,0.94,0.14,1.8c0,0-0.14,0.43-0.57,0.43c0,0,0.36,0.72,1.65,0.22
	c0,0-0.72-0.43-0.22-0.65c0.5-0.22,0.65-0.65,0.65-0.93c0-0.29-0.22-0.79-0.43-0.79c-0.22,0,0.57,0.5,0,1.01
	C41.45,8.1,40.38,7.6,40.81,6.52z"/>
<ellipse fill="#231F20" cx="41.42" cy="7.09" rx="0.32" ry="0.22"/>
<circle fill="#FFFFFF" cx="39.51" cy="13.72" r="1.4"/>
<path fill="#231F20" d="M37.97,13.72c0-0.85,0.69-1.55,1.54-1.55l0,0c0.85,0,1.54,0.69,1.54,1.55l0,0c0,0.85-0.69,1.54-1.54,1.54
	l0,0C38.66,15.27,37.97,14.58,37.97,13.72L37.97,13.72z M38.25,13.72c0,0.69,0.56,1.26,1.26,1.26l0,0c0.69,0,1.26-0.56,1.26-1.26
	l0,0c0-0.7-0.56-1.26-1.26-1.26l0,0C38.82,12.47,38.26,13.03,38.25,13.72L38.25,13.72L38.25,13.72z"/>
<path fill="#231F20" d="M39.04,12.39c0,0-0.93,0.94,0.15,1.8c0,0-0.15,0.43-0.58,0.43c0,0,0.36,0.72,1.65,0.22
	c0,0-0.72-0.43-0.22-0.65c0.5-0.22,0.65-0.65,0.65-0.93c0-0.29-0.22-0.79-0.43-0.79c-0.22,0,0.57,0.5,0,1.01
	C39.69,13.97,38.61,13.47,39.04,12.39z"/>
<ellipse fill="#231F20" cx="39.66" cy="12.97" rx="0.32" ry="0.22"/>
<circle fill="#FFFFFF" cx="37.85" cy="19.56" r="1.4"/>
<path fill="#231F20" d="M36.31,19.56c0-0.85,0.69-1.54,1.54-1.54l0,0c0.85,0,1.54,0.69,1.54,1.54l0,0c0,0.85-0.69,1.54-1.54,1.54
	l0,0C37,21.11,36.31,20.42,36.31,19.56L36.31,19.56z M36.6,19.56c0,0.69,0.56,1.25,1.26,1.26l0,0c0.69,0,1.26-0.56,1.26-1.26l0,0
	c0-0.69-0.56-1.26-1.26-1.26l0,0C37.16,18.3,36.6,18.87,36.6,19.56L36.6,19.56L36.6,19.56z"/>
<path fill="#231F20" d="M37.39,18.23c0,0-0.93,0.93,0.15,1.79c0,0-0.15,0.43-0.58,0.43c0,0,0.36,0.72,1.65,0.21
	c0,0-0.72-0.43-0.21-0.65c0.5-0.21,0.65-0.65,0.65-0.93c0-0.29-0.21-0.79-0.43-0.79c-0.21,0,0.58,0.5,0,1.01
	C38.03,19.81,36.96,19.31,37.39,18.23z"/>
<ellipse fill="#231F20" cx="38" cy="18.81" rx="0.32" ry="0.22"/>
<circle fill="#FFFFFF" cx="36.28" cy="25.56" r="1.4"/>
<path fill="#231F20" d="M34.73,25.56c0-0.85,0.69-1.54,1.54-1.54l0,0c0.85,0,1.54,0.69,1.54,1.54l0,0c0,0.85-0.69,1.54-1.54,1.54
	l0,0C35.42,27.11,34.73,26.42,34.73,25.56L34.73,25.56z M35.02,25.56c0,0.69,0.56,1.26,1.26,1.26l0,0c0.7,0,1.26-0.56,1.26-1.26l0,0
	c0-0.69-0.56-1.26-1.26-1.26l0,0C35.58,24.31,35.02,24.87,35.02,25.56L35.02,25.56L35.02,25.56z"/>
<path fill="#231F20" d="M35.81,24.23c0,0-0.93,0.93,0.14,1.8c0,0-0.14,0.43-0.58,0.43c0,0,0.36,0.72,1.65,0.21
	c0,0-0.72-0.43-0.22-0.65c0.5-0.22,0.65-0.65,0.65-0.94c0-0.29-0.21-0.79-0.43-0.79c-0.22,0,0.58,0.5,0,1.01
	C36.46,25.81,35.38,25.31,35.81,24.23z"/>
<ellipse fill="#231F20" cx="36.42" cy="24.81" rx="0.32" ry="0.22"/>
<circle fill="#FFFFFF" cx="34.7" cy="31.48" r="1.4"/>
<path fill="#231F20" d="M33.15,31.48c0-0.85,0.69-1.54,1.54-1.54l0,0c0.85,0,1.54,0.69,1.54,1.54l0,0c0,0.85-0.69,1.54-1.54,1.54
	l0,0C33.84,33.02,33.15,32.33,33.15,31.48L33.15,31.48z M33.44,31.48c0,0.69,0.56,1.26,1.26,1.26l0,0c0.69,0,1.26-0.56,1.26-1.26
	l0,0c0-0.69-0.56-1.26-1.26-1.26l0,0C34,30.22,33.44,30.79,33.44,31.48L33.44,31.48L33.44,31.48z"/>
<path fill="#231F20" d="M34.23,30.15c0,0-0.93,0.93,0.14,1.8c0,0-0.14,0.43-0.57,0.43c0,0,0.36,0.72,1.65,0.22
	c0,0-0.72-0.43-0.22-0.65c0.5-0.22,0.65-0.65,0.65-0.93c0-0.29-0.21-0.79-0.43-0.79s0.58,0.5,0,1
	C34.88,31.73,33.8,31.23,34.23,30.15z"/>
<ellipse fill="#231F20" cx="34.84" cy="30.73" rx="0.32" ry="0.22"/>
<path fill="#FFFFFF" d="M31.72,37.24c0-0.77,0.63-1.4,1.4-1.4c0.77,0,1.4,0.63,1.4,1.4c0,0.78-0.63,1.4-1.4,1.4
	C32.35,38.64,31.72,38.02,31.72,37.24z"/>
<path fill="#231F20" d="M31.58,37.24c0-0.85,0.69-1.54,1.54-1.54l0,0c0.85,0,1.54,0.69,1.54,1.54l0,0c0,0.85-0.69,1.55-1.54,1.55
	l0,0C32.27,38.79,31.58,38.09,31.58,37.24L31.58,37.24z M31.86,37.24c0,0.7,0.56,1.26,1.26,1.26l0,0c0.69,0,1.26-0.56,1.26-1.26l0,0
	c0-0.69-0.56-1.26-1.26-1.26l0,0C32.42,35.98,31.86,36.55,31.86,37.24L31.86,37.24L31.86,37.24z"/>
<path fill="#231F20" d="M32.65,35.91c0,0-0.93,0.93,0.14,1.8c0,0-0.14,0.43-0.58,0.43c0,0,0.36,0.72,1.65,0.22
	c0,0-0.72-0.43-0.22-0.65c0.5-0.21,0.65-0.65,0.65-0.93c0-0.29-0.22-0.79-0.43-0.79c-0.22,0,0.58,0.5,0,1.01
	C33.3,37.5,32.22,36.99,32.65,35.91z"/>
<ellipse fill="#231F20" cx="33.26" cy="36.49" rx="0.32" ry="0.22"/>
<path fill="#231F20" d="M42.87,30.99v-0.47c0,0-2.29,0.39-3.16-0.16v1.19c0,0,0.71,0.55,2.13,0.55
	C43.27,32.1,42.87,30.99,42.87,30.99z M41.21,31.62l-1.18-0.39v-0.47c0,0,0.63,0.39,1.26,0.39L41.21,31.62z"/>
<path fill="#231F20" d="M31.14,212v-3.21h0.79c0,0-0.05,1.21,0.47,1.21c0.53,0,0.74-0.52,0.74-1.26c0-0.74,0-0.74,0-0.74h0.95v0.53
	h2.05v-0.68h1.1c0,0,0.21,0.37,0.58,0.37s0.63-0.63,0.63-0.63h0.95c0,0-0.05,1.24,1.24,1.24c1.29,0,1.66-0.76,1.66-0.76h2.52v-0.95
	h2.68v4.05h-2.58v0.31h-2.63v0.42h-2.68v-0.74h-2.74v0.47h-2.84v0.47L31.14,212z"/>
<path fill="#231F20" d="M32.03,212.84c0,0,0.1,1.05,0.89,1.05c0.79,0,13.37,0,13.89,0c0.53,0,0.79-0.31,0.79-1.74h-1.84
	c0,0,0,0.31,0,0.68s-0.9,0.37-0.9,0.37v-1.05H43.4v1.16h-1.47v-0.84h-1.79v0.84h-0.84v-1.21h-2.16v1c0,0-0.58-0.05-0.58-0.53
	c0-0.47,0-0.47,0-0.47H34.4v1c0,0-0.58,0.16-0.58-0.26H32.03z"/>
<path fill="#231F20" d="M32.43,212.43c-0.17-0.63-0.21-1.34-0.21-1.83l0,0c0-0.36,0.02-0.6,0.02-0.6l0,0l1.47-172.53l0,0l0.31,0
	l-1.47,172.55c0,0-0.02,0.23-0.02,0.59l0,0c0,0.48,0.04,1.17,0.2,1.75l0,0c0.16,0.59,0.44,1.03,0.86,1.12l0,0l-0.07,0.31
	C32.91,213.64,32.6,213.06,32.43,212.43L32.43,212.43z"/>
<polygon fill="#231F20" points="35.19,209.68 35.22,31.3 35.22,31.3 35.54,31.3 35.51,209.66 35.77,213.3 35.45,213.32
	35.19,209.68 "/>
<polygon fill="#231F20" points="37.74,213.3 37.98,210 36.95,25.31 37.27,25.31 38.29,210.01 38.06,213.32 37.74,213.3 "/>
<polygon fill="#231F20" points="39.98,213.28 40.82,209.98 38.24,20.03 38.55,20.03 41.13,210.02 40.29,213.35 39.98,213.28 "/>
<path fill="#231F20" d="M42.68,213.48c0,0,0.01,0,0.04-0.05l0,0c0.03-0.05,0.06-0.14,0.09-0.24l0,0c0.06-0.22,0.11-0.52,0.15-0.87
	l0,0c0.07-0.69,0.08-1.55,0.08-2.23l0,0c0-0.68-0.02-1.19-0.02-1.19l0,0L40.11,13.47l0.31-0.01l2.92,195.42c0,0,0.02,0.51,0.02,1.2
	l0,0c0,1.03-0.03,2.45-0.24,3.18l0,0c-0.08,0.24-0.14,0.44-0.37,0.52l0,0L42.68,213.48L42.68,213.48z"/>
<path fill="#231F20" d="M44.85,213.05c0,0,0.02,0,0.05-0.05l0,0c0.03-0.05,0.07-0.13,0.11-0.23l0,0c0.07-0.21,0.12-0.53,0.16-0.88
	l0,0c0.08-0.72,0.1-1.62,0.1-2.38l0,0c0-0.87-0.03-1.55-0.03-1.55l0,0L41.65,8.32l0.31-0.01l3.59,199.63c0,0,0.03,0.68,0.03,1.56
	l0,0c0,1.16-0.04,2.62-0.28,3.36l0,0c-0.08,0.24-0.17,0.45-0.41,0.5l0,0L44.85,213.05L44.85,213.05z"/>
</svg>
