<?xml version="1.0" encoding="utf-8"?>
<!-- Generator: Adobe Illustrator 14.0.0, SVG Export Plug-In  -->
<!DOCTYPE svg PUBLIC "-//W3C//DTD SVG 1.1 Tiny//EN" "http://www.w3.org/Graphics/SVG/1.1/DTD/svg11-tiny.dtd" [
	<!ENTITY ns_flows "http://ns.adobe.com/Flows/1.0/">
]>
<svg version="1.1" baseProfile="tiny"
	 xmlns="http://www.w3.org/2000/svg" xmlns:xlink="http://www.w3.org/1999/xlink" xmlns:a="http://ns.adobe.com/AdobeSVGViewerExtensions/3.0/"
	 x="0px" y="0px" width="84px" height="103px" viewBox="-0.34 -0.88 84 103" xml:space="preserve">
<defs>
</defs>
<path fill="#A87C4F" d="M58.95,101.66c0.1-6.17,0.14-8.61-0.58-13.36c0.71-0.21,0.82-0.55,0.82-0.6c0-2.88-0.32-10.64-0.62-11.49
	c-2.19-16.19-4.41-30.05-9.61-44.61l-0.12-0.13c-0.38,0.2-0.75,0.4-1.12,0.59l-0.3,0.11c-0.18,0.11-0.36,0.2-0.54,0.3l-0.01,0.11
	l0.02-0.01c1.98,11.41,5.54,24.9,2.56,36.47c2.92,1.48,0.48,7.19-0.09,9.87c1.3,0.32,1.21,0.75,1.09,2.03
	c-0.39,2.62-1.21,4.75-1.92,7.01c1.7,2.39-0.29,7.76-1.86,13.58L58.95,101.66z"/>
<path fill="#37B34A" d="M48.16,22.9c1.77-0.96,2.81-2.27,4.53-3.25c-0.95-1.13-2.55-0.93-3.63-1.8c5.5,1.09,8.9-2.05,14.37-4.82
	c-0.55-1.49-4.57-2.22-3.25-3.23c2.7-0.48,6.17,1.84,9.58,1.53c4.31-0.39,8.38-2.72,12.03-2.75c-10-9.8-35.76-7.18-38.69,9.54
	C39.22,1.4,26.86-3.84,10.31,2.78C16.44,5.61,22.49,8.64,30,8.69c-1.6,0.5-3.2,1-4.13,1.82c3.04,3.41,7.92,6.19,11.37,7.39
	c-0.66-0.1-1.44,0.04-2.29,0.36c-0.13,0.84,1.59,0.91,0.52,1.55C22.59,8.26-0.81,24.1,0.02,36.47c3.3-2.13,6.71-4.21,11.52-5.59
	c1.67-2.51,4.56-6.13,7.1-7.14c-0.8,1.54-1.81,2.98-1.28,5.19c1.68-0.3,10.05-0.79,14.23-5.22c0.85,0.23-1.27,3.45-1.03,3.37
	c2.2,0.13,4.72-0.39,6.61,0.37c-0.34,2.57-3.03,3.09-4.53,4.55c-11.75,11.46-5.35,36.57,9.16,45.3c-1.17-5.22-2.83-10.69-3.01-15.41
	c-1.79-2.68-5.01-5.96-5.07-9.96c1.23,1.65,2.56,3.1,4.53,3.24c-0.55-5.99,2.17-11.13-2.36-17.35c1.89-0.54,1.73,3.02,3.5,2.71
	c0.11-2.1,0.36-4.13,1.54-5.69c2.24,0.84,3.82,5.39,6.85,3.16c0.36-0.44,0.72-0.86,1.13-1.27c0.09-0.15,0.18-0.29,0.27-0.44
	c0.24-0.43,0.5-0.84,0.77-1.25c0.38-1.4,2.11-2.14,1.34-4.12c1.51-0.42,3.42,1.77,4.14,0.77c0.62-1.46-1.43-2.57-0.79-3.62
	c3.49,6.21,8.84,8.67,14.4,10.71c-0.17-1.92-0.82-4.07-0.66-5.82c1.74,2.76,3.63,5.21,5.02,8.66c0.78,0.24,1.55,0.5,2.31,0.81
	c0.57,0.09,1.12,0.19,1.69,0.3c0.95,0.05,1.9,0.13,2.85,0.19c0.17,0.01,0.32,0.04,0.46,0.09c0.4-0.01,0.8-0.02,1.21-0.03
	c0.31-0.01,0.6,0.01,0.88,0.06C76.87,27.14,64.67,18.54,48.16,22.9z"/>
</svg>
