<?xml version="1.0" encoding="utf-8"?>
<!-- Generator: Adobe Illustrator 15.0.1, SVG Export Plug-In  -->
<!DOCTYPE svg PUBLIC "-//W3C//DTD SVG 1.1 Tiny//EN" "http://www.w3.org/Graphics/SVG/1.1/DTD/svg11-tiny.dtd" [
	<!ENTITY ns_flows "http://ns.adobe.com/Flows/1.0/">
]>
<svg version="1.1" baseProfile="tiny"
	 xmlns="http://www.w3.org/2000/svg" xmlns:xlink="http://www.w3.org/1999/xlink" xmlns:a="http://ns.adobe.com/AdobeSVGViewerExtensions/3.0/"
	 x="0px" y="0px" width="479px" height="129px" viewBox="-0.55 -0.54 479 129" overflow="visible" xml:space="preserve">
<defs>
</defs>
<path fill="#5A3D1C" d="M54.84,116.85c1.7-1.57,3.62-2.67,5.03-4.6c1.56-2.14,2.6-4.32,3.59-6.77c1.67-4.16,1.93-8.79,1.69-13.23
	c-0.21-3.68-1.08-7.07-1.76-10.66c-0.76-4.03-1.05-7.51-0.87-11.23c0.08-1.56,0.24-3.17,0.48-4.87c-1.26,8.79-4.98,17.38-1.95,26.25
	c-3.51-7.98-3.06-16.91-2.22-25.38c0.05-0.48,0.11-0.96,0.18-1.44c-1.24,2.07-2.07,4.26-3.11,6.44c-2.18,4.55-3.37,9.01-3.62,14.06
	c-0.26,5.3,1.51,10.24,2.9,15.27c0.89,3.24,1.21,6.44,1.28,9.79C56.49,112.84,55.76,114.68,54.84,116.85z M8.17,77.81
	c-0.57-0.34-1.14-0.79-1.6-1.26c0.9,2.34,2.03,4.4,3.99,6.03c2.69,2.24,6.12,3.57,9.45,4.51c6.25,1.75,13.22,2.24,19.4-0.06
	c4.39-1.63,7.75-4.59,10.07-8.64c1.78-3.12,3.33-6.3,5.36-9.28l0.06-0.29c-0.93,1.08-2.02,2.11-2.96,3.07
	c-2.02,2.03-4.21,4.34-6.76,5.76c-3.49,1.94-7.36,3.03-11.31,3.62c-1.49,0.22-2.94,0.58-4.45,0.71c-0.89,0.08-2.08,0.36-2.94,0.05
	c0.58,0.21,1.51-0.43,2.04-0.61c0.88-0.3,1.58-0.62,2.4-1.08c3.25-1.85,6.89-3.18,10.26-4.8c1.48-0.71,2.72-1.65,3.92-2.69
	c-4.52,1.25-9.32,1.3-14.13,1.53c-7,0.33-13.8,3.63-20.68,3.72C9.45,78.12,8.94,78.27,8.17,77.81z M32.83,115.24
	c0.97,2.77,1.67,5.59,1.76,8.54c0.03,1.15-0.34,1.65-0.81,2.58c-0.22,0.44-0.27,0.96-0.61,1.33c-0.18,0.2-0.51,0.22-0.72,0.46
	c4.93-1.1,10.47-3.35,13.79-7.28c2.67-3.17,4.37-7.02,4.96-11.11c0.53-3.68,0.27-6.99-0.19-10.65c-0.63-5.03-2.99-12.52,0.43-17.19
	c-6.12,8.36-7.4,17.97-8.86,27.88c-0.41-1.39-0.42-2.75-0.44-4.2c-0.05-3.37,0.2-6.65,0.82-9.88c0.52-2.68,1.3-5.32,2.38-7.93
	c-1.75,1.3-3.49,2.5-4.75,3.58c-1.81,1.56-4.21,2.58-5.97,4.19C27.99,101.6,30.33,108.07,32.83,115.24z M27.72,90.74
	c-0.62-0.33-1.23-0.36-1.92-0.48c-3.81-0.64-8.13,0-11.57,1.71c-2.11,1.04-3.48,2.14-4.4,4.37c-0.92,2.22-0.87,5.41-0.78,7.79
	c0.05,1.4,0.57,12.89-3.77,9.71c4.39,3.5,10.23,4.48,15.44,2.29c9.02-3.81,4.79-12.09,9.15-18.87c1.24-1.94,2.71-3.36,4.81-4.26
	c-2.82-0.02-5.47,0.93-7.8,2.49c-4.31,2.88-6.34,5.25-9.64,9.15c0.06-1.3,0.32-2.76,0.95-3.92c0.79-1.45,4.93-8.36,7.89-9.85
	C26.69,90.56,27.25,90.49,27.72,90.74z M71.07,107.86c2.57,3.94,7.1,5.16,11.54,5.62c2.62,0.27,5.29,0.73,7.93,0.75
	c1.78,0.01,3.53-0.3,5.29-0.53c-2.73,0.36-6.13-6.43-7.31-8.04c-1.91-2.61-5.55-3.62-8.21-5.32c-1.66-1.06-3.32-2.06-4.78-3.43
	c-1.17-1.1-2.08-2.38-3.13-3.55c-0.57-0.64-1.23-1.28-1.76-1.93c-0.2-0.25-0.4-0.47-0.6-0.68c0.88,2.21,2.98,9.25,5,12.15
	c-0.6-0.6-1.24-1.15-1.81-1.78c-1.63-1.79-2.39-4.08-3.94-5.89c-1.13-1.33-1.89-2.65-2.58-4.15
	C67.69,96.78,67.81,102.87,71.07,107.86z M0.01,54.84c-0.08,2.83,0.84,6.15,2.19,8.69c2.09,3.9,5.02,6.29,9.02,8.04
	c1.66,0.73,3.44,1.56,5.27,1.64c1.44,0.07,2.86-0.4,4.24-0.72c0.9-0.21,1.85-0.5,2.57-0.95c-4.59-0.63-11.69-2.24-14.35-6.42
	c0.73-0.23,1.28-0.04,2.01,0.12c2.15,0.47,4.29,0.94,6.43,1.41c2.25,0.49,4.49,0.98,6.74,1.48c-0.08-0.08-0.16-0.16-0.23-0.24
	c-0.43-0.5-0.93-0.82-1.36-1.28c-3.09-3.33-7.07-4.01-11.12-5.5c-0.96-0.35-6.21-2.66-9.25-4.45C0.89,55.89-0.01,55.23,0.01,54.84z
	 M175.26,9.33c-1.73-0.98-3.51-1.93-5.11-3.29c1.45,1.23,1.79,3.69,1.39,5.43c-2.62,11.4-5.89,19.95,2.28,30.29
	c1.04,1.32,2.29,2.52,3.39,3.8c0.55,0.63,1.14,1.26,1.78,1.84c-1.08-3.47-1.4-7.06-1.61-10.71c-0.27-4.69,0.2-9.36,2.11-13.69
	c-1.69,5.23-0.53,12.47,0.74,17.76c0.07,0.31,0.19,0.6,0.31,0.89c0.12-1.54,0.56-2.96,0.74-4.55c0.81-7.43,4.69-14.32,0.76-21.69
	C180.38,12.35,177.87,10.81,175.26,9.33z M151.07,12.09c-2.59-0.01-5-0.35-5.12-1.93c0.4,5.36,2.59,11.61,5.78,15.93
	c1.42,1.93,2.95,4.02,4.77,5.59c1.36,1.18,2.9,2.23,4.38,3.25c1.34,0.92,2.76,2,4.17,2.79c0.89,0.5,1.74,1,2.57,1.55
	c-1.74-1.79-3.44-3.58-5.13-5.41c-1.98-2.14-3.61-4.7-5.19-7.14c-0.88-1.35-1.19-2.8-2.21-4.05c0.73,0.61,1.3,1.69,2.03,2.4
	c1.81,1.76,3.69,3.49,5.74,4.98c0.55,0.4,1.17,0.69,1.79,0.98c-0.49-1.81-0.39-3.5-0.61-5.34c-0.23-1.93-0.46-3.82-0.84-5.74
	c-0.61-3.14-2.63-7.1-5.93-7.97C156.44,11.76,153.67,12.09,151.07,12.09z M209.11,0.15c-0.5,4.07-12.33-0.94-15.38,1.3
	c-3.62,2.65-3.37,7.27-5.42,10.76c3.23-5.48,7.49-5,12.54-7.46c-6.38,3.11-10.61,7.75-12.77,14.58c-0.27,0.84-0.61,1.66-0.86,2.48
	c-0.15,0.52-0.11,0.99-0.08,1.46c1.53-3.25,5.15-6.73,7.32-8.41c3-2.33,7.01-3.01,10.16-5.06C207.03,8.22,210.94,3.46,209.11,0.15z
	 M155.1,45.24c-0.04-0.01-0.09-0.02-0.13-0.03l0.08,0.18C155.07,45.33,155.09,45.29,155.1,45.24z M148.2,46.06
	c1.94-0.6,4.75-1.35,6.77-0.85l-0.15-0.33c-0.53-0.19-1.07-0.38-1.65-0.5c-5-1.05-9.92-2.25-15.04-2.56
	c-2.8-0.17-5.73-0.21-8.47-0.71c2.42,0.44,6.49-0.98,9.16-0.97c3.34,0.01,6.68,0.14,10.01,0.21c-2.61-2.49-5.78-4.25-9.19-5.27
	c-6.05-1.81-12.81-1.29-18.41,1.6c-2.5,1.29-4.67,3.62-7.68,3.28C123.81,49.63,135.45,49.98,148.2,46.06z M134.03,56.97
	c-0.7,0.73-1.62,1.17-2.36,1.85c1.78-1.97,2.86-4.54,5.01-6.38c0.98-0.84,2.05-1.56,3.14-2.22c-0.26,0.04-0.52,0.08-0.79,0.11
	c-1.52,0.2-3.03,0.28-4.55,0.53c-1.51,0.25-2.98,0.51-4.43,1c-1.53,0.51-3.32,1-4.48,2.17c-2.98,3.02-0.43,13.92-4.76,14.58
	c0.14,0.4,0.61,0.21,0.96,0.28c0.61,0.12,1.11,0.15,1.77,0.1c4.06-0.26,8.77-1.37,11.01-5.12c1.43-2.4,2.19-5.09,3.7-7.44
	c0.71-1.1,1.47-2.16,2.41-3.07c0.64-0.61,1.52-1.11,2.17-1.73c-1.62,0.58-3.2,1.43-4.63,2.13
	C136.57,54.57,135.27,55.67,134.03,56.97z M105.71,49.12c2.72,6.72,11.52,11.54,17.17,4.85c0.9-1.06,1.84-2.01,2.96-2.62
	c-0.93,0.5-4.57-0.24-5.62-0.22c-2.59,0.04-5.18,0.31-7.74-0.31c1.03,0.25,4.19-0.81,5.3-0.95c2.48-0.29,4.96-0.55,7.46-0.71
	c-0.13-0.06-0.26-0.12-0.39-0.19c-0.92-0.48-1.84-1.1-2.72-1.7c-1.62-1.1-3.81-1.66-5.75-1.96c-2.06-0.32-4.5,0.75-5.97,2.17
	C109.51,48.36,107.05,50.53,105.71,49.12z M155.41,73.88c0.16-0.71-0.29-1.42-1.01-1.58c-0.71-0.16-1.42,0.29-1.57,1.01
	c-0.16,0.71,0.29,1.42,1.01,1.58C154.55,75.05,155.25,74.6,155.41,73.88z M39.46,47.7c1.38,0.3,2.75-0.57,3.06-1.96
	c0.3-1.38-0.57-2.75-1.96-3.06c-1.38-0.3-2.75,0.57-3.06,1.96C37.2,46.03,38.08,47.4,39.46,47.7z M134.52,27.26
	c-12.49-3-27.05-4.66-39.64-1.47c-9.26,2.35-16.74,8.08-22.01,15.61c-2.58,3.05-4.8,6.38-6.9,9.79
	c-4.44,7.22-13.79,13.72-22.22,14.63c-11.32,1.22-21.05-8.31-20.12-19.36c0.43-5.1,2.85-10.11,7.65-12.35
	c3.22-1.5,13.37-2.51,16.24,0.08c4.86,4.4,5.57,12.26,2.06,17.7c-3.72,5.76-12.5,6.7-13.97-1.41c-0.05-0.27-0.09-0.56-0.11-0.85
	c0.83,0.8,1.87,1.39,3.08,1.66c3.46,0.76,6.88-1.43,7.64-4.89c2.11-9.6-10.12-9.08-13.16-2.06c-1.29,3-2.05,6.83-0.36,9.83
	c1.53,2.74,4.72,3.86,7.7,4.09c6.66,0.5,12.63-3.08,14.45-9.63c1.81-6.52-0.28-13.63-5.91-17.54c-5.57-3.87-13.66-4.95-19.57-1.24
	c-5.91,3.71-8.61,11.05-9.74,17.62c-1.01,5.87-0.74,12.21,3.1,17.06c4.47,5.66,12.12,7.74,19.04,6.39
	c7.92-1.55,14.56-6.98,20.14-12.53c1.96-1.96,3.71-4.03,5.34-6.2c-0.03,0.08-0.07,0.17-0.1,0.25c-5.18,14.13-4,32.84,9.08,42.4
	c11.99,8.77,27.7,3.46,34.03-9.34c5.34-10.81,4.93-29.24-10-31.56c-7.87-1.22-16.52,2.73-21.39,8.89
	c-6.38,8.08,1.57,21.1,11.35,17.81c7.23-2.43,10.88-11.99,0.99-14.14c-4.03-0.88-8,1.61-9.01,5.58c-1.84-3.42-1.9-7.52,1.17-10.4
	c3.99-3.75,10.61-4.08,15.62-2.68c22.77,6.39,2.76,43.65-15.8,35.39C72.41,89.6,67.58,75.5,67.91,64.56
	c0.46-15.05,10.17-28.19,23.9-34c16.42-6.96,35.38-3.41,50.74,4.59c6.27,3.27,11.89,7.4,17.33,11.75
	c-6.45,0.11-12.72,2.52-17.29,7.38c-8.71,9.25-8.05,25.43,0.96,34.29c4.89,4.81,12.16,6.14,17.93,2.09
	c4.06-2.85,6.51-7.7,7.09-12.56c0.59-4.95-1.07-9.98-5.3-12.85c-4.37-2.96-10.85-3.27-15.23-0.15c-4.62,3.28-4.53,9.46-1.52,13.82
	c2.49,3.61,6.51,4.94,10.44,2.77c1.63-0.9,3.19-2.32,3.6-4.21c0.44-2.01-0.58-3.99-1.99-5.37c-5.76-5.61-10.88,3.55-5.19,4.79
	c1.82,0.4,3.62-0.75,4.02-2.58c0.03-0.13,0.05-0.27,0.06-0.4c0.73,1.57,0.73,3.62,0.09,5.04c-1.21,2.69-4.41,3.25-6.83,1.86
	c-2.82-1.62-3.94-5.1-3.28-8.17c1.34-6.28,8.25-8.41,13.47-5.29c2.71,1.62,4.77,4.35,5.3,7.49c0.57,3.4-0.72,6.8-2.83,9.44
	c-4.1,5.12-11.17,7.27-16.39,2.52c-4.6-4.19-6.61-11.19-5.11-17.19c1.7-6.8,7.47-11.22,14-13.02c10.19-2.81,16.64,1.09,24.84,6.6
	c12.98,8.72,28.36,13.77,43.86,15.51c11.6,1.3,22.08-0.06,32.68-4.89l-4.51,1.14c-4.31,1.09-11.62-0.94-16.03-1.51
	c-5.49-0.72-10.99-1.68-16.3-3.3c-8.01-2.44-19.25-7.79-23.5-15.63c-2.37-4.38-2.95-9.51-2.18-14.39
	c1.55-9.76,8.48-19.26,18.47-21.48c6.63-1.47,14.35,0.34,18.92,5.57c5.48,6.27,5.54,16.27,1.95,23.46
	c-2.08,4.16-5.76,7.73-10.54,8.33c-5.19,0.66-10.02-2.4-12.65-6.74c-2.97-4.9-3.28-11.27-0.83-16.45c1.95-4.11,6.1-7.96,10.97-7.42
	c4.77,0.54,7.5,5.24,7.68,9.68c0.15,3.62-1.44,8.31-5.48,9.08c-2.07,0.39-4.43-0.53-5.83-2.18c0.2,0.08,0.4,0.14,0.62,0.19
	c2.42,0.53,4.81-1,5.34-3.42c1.29-5.89-7.58-7.21-9.73-2.33c-1.19,2.71,0.66,6.26,2.54,8.17c2.3,2.35,5.57,2.98,8.35,1.08
	c2.98-2.03,4.73-5.81,5.3-9.27c1.11-6.76-3.54-12.23-10.27-12.95c-7.71-0.82-12.09,6.41-13.46,13.05
	c-1.48,7.15,0.59,14.23,7.15,18.01c6.44,3.71,14.08,2.63,19.29-2.64c4.95-5.01,7.28-12.31,6.5-19.26
	c-0.9-8.08-5.87-14.57-13.12-18.1c-10.54-5.13-22.79-3.77-31.58,4.13c-9.42,8.46-14.28,22.27-9.85,34.07
	c-4.92-2.8-9.81-5.68-14.7-8.51C158.38,37.58,147.52,30.39,134.52,27.26z M218,40.63c-1.61-0.35-2.63-1.95-2.28-3.56
	c0.35-1.61,1.95-2.64,3.56-2.28c1.61,0.35,2.63,1.95,2.28,3.56C221.21,39.97,219.61,40.99,218,40.63z M156.17,74.12
	c-0.26,1.18-1.42,1.92-2.6,1.67c-1.18-0.26-1.92-1.42-1.67-2.6c0.26-1.18,1.42-1.92,2.6-1.67
	C155.68,71.78,156.43,72.94,156.17,74.12z M193.02,61.41c0.45,0.1,0.74,0.55,0.64,1c-0.1,0.45-0.55,0.74-1,0.64
	c-0.46-0.1-0.74-0.55-0.64-1C192.12,61.59,192.56,61.31,193.02,61.41z M190.6,58.19c0.65,0.14,1.05,0.78,0.91,1.43
	c-0.14,0.65-0.78,1.05-1.43,0.91c-0.65-0.14-1.06-0.78-0.91-1.42C189.31,58.46,189.95,58.05,190.6,58.19z M187.28,53.95
	c0.96,0.21,1.58,1.17,1.36,2.13c-0.21,0.97-1.17,1.58-2.13,1.36c-0.96-0.21-1.58-1.17-1.36-2.13
	C185.36,54.35,186.31,53.74,187.28,53.95z M85.57,72.55c0.51-2.31,2.79-3.77,5.09-3.26c2.31,0.51,3.77,2.79,3.26,5.09
	c-0.51,2.31-2.79,3.77-5.09,3.26C86.52,77.14,85.06,74.85,85.57,72.55z M39.26,48.88c-1.96-0.43-3.2-2.37-2.77-4.33
	c0.43-1.96,2.37-3.2,4.33-2.77c1.96,0.43,3.2,2.37,2.77,4.33C43.16,48.06,41.22,49.3,39.26,48.88z M87.24,72.91
	c-0.3,1.38,0.57,2.75,1.96,3.06c1.38,0.3,2.75-0.57,3.06-1.96c0.3-1.38-0.57-2.75-1.96-3.06C88.91,70.66,87.55,71.53,87.24,72.91z
	 M218.06,39.5c1.11,0.24,2.21-0.46,2.45-1.57c0.24-1.11-0.46-2.2-1.57-2.45c-1.11-0.24-2.21,0.46-2.45,1.57
	C216.24,38.16,216.95,39.25,218.06,39.5z"/>
<path fill="#5A3D1C" d="M421.62,110.3c0.07-3.35,0.39-6.55,1.28-9.79c1.39-5.03,3.16-9.97,2.9-15.27
	c-0.25-5.05-1.44-9.51-3.62-14.06c-1.04-2.17-1.88-4.37-3.11-6.44c0.07,0.48,0.13,0.96,0.17,1.44c0.84,8.48,1.29,17.4-2.22,25.38
	c3.03-8.86-0.69-17.45-1.95-26.25c0.24,1.71,0.41,3.31,0.48,4.87c0.18,3.72-0.11,7.2-0.87,11.23c-0.68,3.59-1.55,6.98-1.76,10.66
	c-0.25,4.44,0.02,9.07,1.69,13.23c0.99,2.45,2.03,4.63,3.59,6.77c1.41,1.94,3.33,3.03,5.03,4.6
	C422.3,114.52,421.57,112.69,421.62,110.3z M467.76,77.96c-6.88-0.09-13.67-3.39-20.67-3.72c-4.81-0.23-9.61-0.28-14.13-1.53
	c1.21,1.04,2.44,1.98,3.92,2.69c3.37,1.62,7.01,2.94,10.26,4.8c0.82,0.46,1.51,0.78,2.4,1.08c0.53,0.18,1.47,0.82,2.04,0.61
	c-0.86,0.31-2.04,0.02-2.94-0.05c-1.51-0.13-2.96-0.49-4.45-0.71c-3.95-0.59-7.82-1.68-11.31-3.62c-2.55-1.42-4.74-3.73-6.76-5.76
	c-0.95-0.95-2.03-1.99-2.96-3.07l0.06,0.29c2.04,2.98,3.58,6.16,5.37,9.28c2.31,4.05,5.67,7.01,10.06,8.64
	c6.18,2.3,13.15,1.81,19.4,0.05c3.33-0.94,6.76-2.27,9.46-4.51c1.96-1.63,3.09-3.69,3.98-6.03c-0.47,0.47-1.03,0.92-1.6,1.26
	C469.12,78.11,468.61,77.97,467.76,77.96z M443.44,95.42c-1.77-1.61-4.17-2.62-5.98-4.19c-1.26-1.08-3-2.28-4.75-3.58
	c1.08,2.61,1.87,5.25,2.39,7.93c0.63,3.23,0.88,6.51,0.82,9.88c-0.02,1.44-0.03,2.81-0.44,4.2c-1.46-9.91-2.75-19.52-8.86-27.88
	c3.42,4.68,1.06,12.17,0.43,17.19c-0.46,3.66-0.72,6.97-0.19,10.65c0.59,4.09,2.28,7.94,4.96,11.1c3.31,3.93,8.86,6.18,13.79,7.28
	c-0.2-0.24-0.54-0.26-0.72-0.46c-0.34-0.37-0.39-0.9-0.61-1.33c-0.47-0.94-0.85-1.43-0.81-2.58c0.09-2.95,0.79-5.77,1.76-8.54
	C447.73,107.92,450.07,101.45,443.44,95.42z M451.98,90.72c2.95,1.49,7.1,8.41,7.89,9.86c0.63,1.15,0.9,2.62,0.95,3.91
	c-3.3-3.9-5.34-6.27-9.64-9.15c-2.33-1.56-4.98-2.51-7.8-2.49c2.1,0.9,3.57,2.32,4.81,4.26c4.36,6.79,0.13,15.07,9.15,18.87
	c5.21,2.2,11.05,1.21,15.44-2.29c-4.34,3.18-3.82-8.31-3.77-9.71c0.09-2.39,0.13-5.57-0.78-7.79c-0.92-2.24-2.3-3.33-4.4-4.37
	c-3.44-1.7-7.76-2.34-11.57-1.71c-0.69,0.12-1.3,0.14-1.92,0.48C450.81,90.33,451.37,90.41,451.98,90.72z M411.38,90.93
	c-0.69,1.5-1.45,2.82-2.58,4.15c-1.55,1.82-2.31,4.1-3.94,5.9c-0.57,0.63-1.22,1.18-1.81,1.78c2.02-2.9,4.12-9.94,5-12.15
	c-0.2,0.21-0.4,0.43-0.6,0.68c-0.53,0.66-1.19,1.29-1.76,1.93c-1.05,1.16-1.97,2.45-3.14,3.55c-1.46,1.38-3.12,2.37-4.78,3.43
	c-2.66,1.7-6.3,2.71-8.21,5.32c-1.18,1.61-4.58,8.4-7.31,8.04c1.76,0.23,3.51,0.55,5.29,0.53c2.64-0.02,5.3-0.48,7.93-0.75
	c4.44-0.46,8.96-1.68,11.54-5.62C410.25,102.72,410.37,96.63,411.38,90.93z M475.88,56.5c-3.04,1.79-8.29,4.09-9.25,4.45
	c-4.04,1.49-8.03,2.17-11.12,5.5c-0.42,0.46-0.93,0.78-1.36,1.28c-0.07,0.08-0.15,0.16-0.23,0.24c2.25-0.49,4.49-0.98,6.74-1.48
	c2.14-0.47,4.29-0.94,6.43-1.41c0.73-0.16,1.29-0.35,2.02-0.12c-2.66,4.18-9.75,5.79-14.35,6.42c0.73,0.45,1.68,0.73,2.58,0.95
	c1.38,0.33,2.8,0.79,4.24,0.72c1.83-0.08,3.62-0.91,5.27-1.64c4-1.75,6.93-4.13,9.02-8.04c1.36-2.53,2.28-5.86,2.19-8.69
	C478.07,55.07,477.17,55.74,475.88,56.5z M296.04,15.26c-3.93,7.37-0.04,14.26,0.76,21.69c0.17,1.59,0.61,3,0.74,4.55
	c0.13-0.29,0.24-0.58,0.31-0.89c1.27-5.29,2.43-12.54,0.74-17.76c1.91,4.33,2.38,9,2.11,13.69c-0.21,3.64-0.53,7.24-1.61,10.7
	c0.64-0.58,1.23-1.21,1.78-1.84c1.1-1.27,2.35-2.48,3.39-3.79c8.17-10.34,4.9-18.89,2.28-30.28c-0.4-1.74-0.07-4.21,1.38-5.44
	c-1.6,1.36-3.38,2.31-5.11,3.29C300.18,10.66,297.67,12.2,296.04,15.26z M320.76,11.83c-3.3,0.87-5.32,4.83-5.93,7.97
	c-0.37,1.91-0.61,3.8-0.84,5.73c-0.22,1.84-0.11,3.53-0.61,5.34c0.61-0.29,1.23-0.57,1.79-0.98c2.05-1.49,3.93-3.22,5.74-4.98
	c0.73-0.71,1.3-1.79,2.03-2.4c-1.02,1.24-1.33,2.69-2.21,4.04c-1.58,2.44-3.21,5.01-5.19,7.14c-1.69,1.83-3.39,3.62-5.13,5.41
	c0.84-0.56,1.68-1.05,2.57-1.55c1.4-0.79,2.83-1.87,4.17-2.79c1.48-1.02,3.02-2.07,4.38-3.25c1.83-1.58,3.35-3.66,4.78-5.6
	c3.18-4.33,5.37-10.57,5.78-15.93c-0.12,1.58-2.53,1.93-5.12,1.93C324.39,11.94,321.62,11.61,320.76,11.83z M273.44,9.64
	c3.14,2.05,7.16,2.74,10.16,5.06c2.17,1.68,5.79,5.17,7.32,8.41c0.03-0.47,0.07-0.94-0.08-1.46c-0.25-0.82-0.59-1.64-0.86-2.48
	c-2.16-6.83-6.39-11.47-12.77-14.58c5.05,2.46,9.31,1.98,12.54,7.46c-2.05-3.49-1.8-8.11-5.42-10.76
	c-3.05-2.24-14.89,2.77-15.38-1.3C267.12,3.3,271.03,8.07,273.44,9.64z M323.01,45.23l0.08-0.18c-0.04,0.01-0.09,0.02-0.13,0.03
	C322.97,45.13,322.99,45.18,323.01,45.23z M364.5,39.8c-3.02,0.34-5.18-1.99-7.68-3.28c-5.6-2.89-12.37-3.41-18.41-1.6
	c-3.4,1.02-6.58,2.78-9.19,5.27c3.34-0.07,6.68-0.2,10.02-0.21c2.67-0.01,6.74,1.41,9.16,0.97c-2.74,0.5-5.67,0.54-8.47,0.71
	c-5.12,0.31-10.04,1.51-15.04,2.56c-0.58,0.12-1.11,0.31-1.65,0.5l-0.15,0.33c2.02-0.5,4.83,0.25,6.77,0.85
	C342.61,49.83,354.25,49.48,364.5,39.8z M339.85,53.62c-1.43-0.7-3.01-1.55-4.63-2.13c0.66,0.62,1.53,1.11,2.17,1.73
	c0.94,0.91,1.7,1.96,2.41,3.06c1.51,2.35,2.27,5.04,3.7,7.44c2.24,3.75,6.95,4.86,11.01,5.12c0.66,0.04,1.16,0.02,1.77-0.1
	c0.35-0.07,0.82,0.13,0.96-0.28c-4.33-0.66-1.78-11.56-4.76-14.58c-1.16-1.18-2.95-1.66-4.48-2.18c-1.45-0.49-2.92-0.75-4.42-1
	c-1.51-0.25-3.03-0.33-4.55-0.53c-0.27-0.04-0.53-0.08-0.79-0.11c1.1,0.67,2.16,1.38,3.15,2.22c2.15,1.85,3.23,4.41,5.01,6.38
	c-0.74-0.68-1.66-1.12-2.36-1.85C342.79,55.52,341.49,54.42,339.85,53.62z M367.65,47.33c-1.46-1.43-3.91-2.49-5.97-2.17
	c-1.94,0.3-4.14,0.86-5.75,1.96c-0.89,0.6-1.8,1.23-2.72,1.7c-0.13,0.07-0.26,0.13-0.39,0.19c2.49,0.16,4.98,0.42,7.46,0.71
	c1.12,0.13,4.27,1.2,5.3,0.95c-2.56,0.62-5.14,0.35-7.73,0.31c-1.05-0.02-4.69,0.73-5.62,0.22c1.13,0.61,2.07,1.56,2.96,2.62
	c5.65,6.69,14.44,1.87,17.17-4.85C371.01,50.38,368.55,48.2,367.65,47.33z M324.22,74.74c0.71-0.16,1.16-0.86,1.01-1.58
	c-0.16-0.71-0.86-1.17-1.58-1.01s-1.17,0.86-1.01,1.58C322.8,74.44,323.51,74.9,324.22,74.74z M440.55,44.5
	c-0.3-1.38-1.67-2.26-3.06-1.96c-1.38,0.3-2.26,1.67-1.96,3.06c0.3,1.38,1.67,2.26,3.06,1.96C439.98,47.25,440.86,45.88,440.55,44.5
	z M308.27,44.05c-4.89,2.84-9.78,5.72-14.71,8.51c4.43-11.8-0.43-25.62-9.85-34.07c-8.8-7.9-21.05-9.26-31.59-4.13
	c-7.25,3.53-12.22,10.02-13.12,18.1c-0.78,6.96,1.55,14.25,6.5,19.26c5.21,5.27,12.84,6.35,19.29,2.64
	c6.56-3.78,8.64-10.86,7.15-18.01c-1.38-6.63-5.76-13.87-13.46-13.05c-6.72,0.72-11.38,6.19-10.27,12.95
	c0.57,3.47,2.32,7.24,5.3,9.27c2.79,1.9,6.06,1.26,8.36-1.08c1.87-1.91,3.72-5.46,2.54-8.17c-2.15-4.88-11.03-3.56-9.74,2.33
	c0.53,2.42,2.92,3.95,5.34,3.42c0.21-0.05,0.42-0.11,0.62-0.19c-1.4,1.65-3.76,2.57-5.83,2.18c-4.04-0.76-5.62-5.46-5.48-9.08
	c0.18-4.44,2.92-9.14,7.68-9.68c4.87-0.55,9.02,3.31,10.96,7.42c2.45,5.18,2.15,11.54-0.83,16.45c-2.63,4.34-7.46,7.4-12.65,6.74
	c-4.78-0.6-8.46-4.17-10.54-8.33c-3.59-7.19-3.53-17.2,1.95-23.46c4.57-5.23,12.29-7.04,18.92-5.57
	c9.99,2.22,16.92,11.72,18.47,21.48c0.77,4.88,0.19,10.01-2.18,14.39c-4.25,7.84-15.49,13.18-23.5,15.63
	c-5.31,1.62-10.8,2.58-16.29,3.3c-4.4,0.57-11.72,2.6-16.03,1.51l-4.51-1.14c10.59,4.82,21.08,6.19,32.67,4.88
	c15.5-1.74,30.88-6.79,43.86-15.51c8.2-5.51,14.64-9.4,24.84-6.6c6.53,1.8,12.3,6.22,14,13.02c1.5,6-0.5,13-5.11,17.19
	c-5.22,4.75-12.29,2.6-16.39-2.52c-2.11-2.63-3.4-6.04-2.83-9.44c0.53-3.14,2.59-5.87,5.3-7.49c5.22-3.12,12.12-0.99,13.47,5.29
	c0.66,3.08-0.46,6.55-3.28,8.17c-2.42,1.39-5.63,0.83-6.83-1.86c-0.64-1.42-0.64-3.47,0.09-5.04c0.01,0.13,0.03,0.26,0.06,0.4
	c0.4,1.82,2.2,2.97,4.02,2.58c5.69-1.25,0.58-10.4-5.19-4.79c-1.41,1.38-2.43,3.36-1.99,5.37c0.42,1.88,1.97,3.31,3.6,4.21
	c3.93,2.16,7.95,0.83,10.44-2.77c3.01-4.36,3.1-10.54-1.52-13.82c-4.39-3.12-10.86-2.81-15.23,0.15c-4.24,2.87-5.9,7.9-5.31,12.85
	c0.58,4.86,3.03,9.71,7.09,12.56c5.77,4.05,13.04,2.72,17.93-2.09c9.01-8.86,9.67-25.04,0.96-34.29
	c-4.57-4.86-10.84-7.26-17.29-7.38c5.44-4.35,11.05-8.48,17.33-11.75c15.35-7.99,34.32-11.54,50.74-4.59
	c13.74,5.82,23.45,18.96,23.9,34.01c0.33,10.94-4.5,25.04-15.27,29.83c-18.56,8.26-38.56-29-15.8-35.39
	c5.01-1.41,11.64-1.07,15.62,2.68c3.07,2.89,3.01,6.98,1.17,10.4c-1.01-3.97-4.98-6.46-9.01-5.58c-9.9,2.15-6.24,11.71,0.98,14.14
	c9.79,3.29,17.74-9.72,11.35-17.81c-4.87-6.16-13.52-10.11-21.39-8.89c-14.92,2.32-15.34,20.74-10,31.56
	c6.32,12.81,22.04,18.11,34.03,9.34c13.08-9.57,14.26-28.28,9.08-42.4c-0.03-0.08-0.07-0.17-0.1-0.25c1.62,2.17,3.38,4.25,5.34,6.2
	c5.57,5.56,12.22,10.98,20.13,12.54c6.92,1.36,14.57-0.73,19.04-6.39c3.84-4.86,4.1-11.19,3.1-17.06
	c-1.13-6.57-3.83-13.92-9.74-17.62c-5.91-3.71-14-2.63-19.57,1.24c-5.63,3.92-7.72,11.03-5.91,17.54
	c1.82,6.55,7.79,10.13,14.45,9.63c2.98-0.23,6.16-1.35,7.7-4.09c1.68-3,0.93-6.84-0.36-9.83c-3.04-7.02-15.26-7.53-13.16,2.06
	c0.76,3.46,4.18,5.65,7.64,4.89c1.21-0.26,2.25-0.86,3.08-1.66c-0.03,0.29-0.06,0.57-0.11,0.85c-1.47,8.11-10.25,7.17-13.97,1.41
	c-3.51-5.43-2.8-13.29,2.06-17.7c2.87-2.6,13.02-1.58,16.24-0.08c4.81,2.24,7.22,7.25,7.65,12.35c0.93,11.05-8.8,20.58-20.12,19.36
	c-8.43-0.91-17.78-7.41-22.22-14.63c-2.1-3.41-4.31-6.73-6.9-9.78c-5.28-7.52-12.75-13.26-22.01-15.61
	c-12.58-3.19-27.15-1.53-39.64,1.47C330.54,30.23,319.68,37.43,308.27,44.05z M256.5,38.2c-0.35-1.61,0.67-3.21,2.28-3.56
	c1.61-0.35,3.21,0.67,3.56,2.28c0.35,1.61-0.67,3.21-2.28,3.56S256.85,39.82,256.5,38.2z M323.56,71.37
	c1.18-0.26,2.34,0.49,2.6,1.67c0.26,1.18-0.49,2.34-1.67,2.6c-1.18,0.26-2.34-0.49-2.6-1.66C321.63,72.79,322.38,71.63,323.56,71.37
	z M286.04,61.9c0.1,0.46-0.19,0.9-0.64,1c-0.46,0.1-0.91-0.19-1-0.64c-0.1-0.45,0.19-0.9,0.64-1
	C285.5,61.15,285.94,61.44,286.04,61.9z M288.89,58.95c0.14,0.65-0.27,1.28-0.91,1.42c-0.64,0.14-1.28-0.27-1.42-0.91
	c-0.14-0.65,0.27-1.28,0.91-1.43C288.11,57.9,288.74,58.31,288.89,58.95z M292.92,55.17c0.21,0.96-0.4,1.92-1.36,2.13
	c-0.97,0.21-1.92-0.4-2.13-1.36c-0.21-0.96,0.4-1.92,1.36-2.13C291.75,53.59,292.7,54.2,292.92,55.17z M389.23,77.49
	c-2.31,0.51-4.59-0.95-5.09-3.26c-0.51-2.31,0.95-4.59,3.26-5.09c2.31-0.51,4.59,0.95,5.09,3.26
	C392.99,74.7,391.53,76.98,389.23,77.49z M434.47,45.95c-0.43-1.96,0.81-3.9,2.77-4.33c1.96-0.43,3.9,0.81,4.33,2.77
	c0.43,1.96-0.81,3.9-2.77,4.33C436.84,49.15,434.9,47.91,434.47,45.95z M387.76,70.81c-1.38,0.3-2.26,1.67-1.96,3.06
	c0.3,1.38,1.67,2.26,3.06,1.96c1.38-0.3,2.26-1.67,1.96-3.06C390.51,71.38,389.15,70.5,387.76,70.81z M261.57,36.9
	c-0.24-1.11-1.34-1.81-2.45-1.57c-1.11,0.24-1.81,1.34-1.57,2.45c0.24,1.11,1.34,1.81,2.45,1.57
	C261.11,39.1,261.81,38.01,261.57,36.9z"/>
</svg>
