<?xml version="1.0" encoding="utf-8"?>
<!-- Generator: Adobe Illustrator 15.0.1, SVG Export Plug-In  -->
<!DOCTYPE svg PUBLIC "-//W3C//DTD SVG 1.1 Tiny//EN" "http://www.w3.org/Graphics/SVG/1.1/DTD/svg11-tiny.dtd" [
	<!ENTITY ns_flows "http://ns.adobe.com/Flows/1.0/">
]>
<svg version="1.1" baseProfile="tiny"
	 xmlns="http://www.w3.org/2000/svg" xmlns:xlink="http://www.w3.org/1999/xlink" xmlns:a="http://ns.adobe.com/AdobeSVGViewerExtensions/3.0/"
	 x="0px" y="0px" width="248px" height="235px" viewBox="-0.34 -0.87 248 235" overflow="visible" xml:space="preserve">
<defs>
</defs>
<path fill-rule="evenodd" d="M194.97,170.13c-6.35,2.34-11.12,7.66-11.14,15.47c0,2.24,2.12,5.15,1.86,7.42
	c-0.38,3.27-7.32,12.44-9.28,16.7c-3.05,6.64-5.43,12.33-6.19,19.18c-3.01-0.31-3.75-0.05-4.33,4.33c-4.95,0-9.9,0-14.85,0
	c5.38-13.08,19.31-18.33,17.32-37.12c-0.83-7.84-5.25-14.74-4.95-24.75c-5,1.6-9.46,3.74-12.37,7.42
	c-0.06-14.71-20.64-6.71-33.41-6.81c-3.41,17.62-11.09,32.88-8.04,55.06c-1.94,1.68-1.92,2.93-1.24,6.19c-4.74,0-9.49,0-14.23,0
	c7.86-17.79,2.07-40.28,1.24-61.25c-8.84,7.66-20.19,12.16-29.08,1.24c-3.31,5.38,0.15,11.44,0,17.32c-0.14,5.5-2.5,11.07-2.47,16.7
	c0.03,7.36,1.66,13.41,3.09,20.41c-2.38,0.83-2.44,1.63-1.24,5.57c-4.95,0-9.9,0-14.85,0c7.76-18.96,0.41-35.01-2.47-53.82
	c-2.43-15.83-11.97-29.13-13.61-44.54c-0.76-7.11,1.36-13.82,1.24-21.03c-0.31-18.48-10.2-37.66-5.57-59.39
	c-7.56,0.39-16.03-1.57-20.42-6.19c0.73-1.56,4.41-2.95,0-3.09c1.14-2.37,3.69-3.32,4.95-5.57C-3.16,35.66-7.17,3.96,16.18,1.24
	C4.4,5.79,5.93,26.6,22.37,25.98c7.44-0.28,24.85-7,34.03-1.24c11.36-5.95,22.26,2.79,32.79,1.86c15.01-1.33,8.96-22.04-0.62-26.6
	c24.57,0.98,24.32,40.52-1.86,39.59c3.8,2.8,9.13,4.07,12.37,7.42c-1.93,3.63-5.89,5.25-9.9,6.8c11.07,6.88,20.59,15.29,28.46,25.36
	c35.42,5.8,73.47-1.03,109.5,0.62c8.22,10.77,11.92,22.63,11.14,38.97c-0.14,2.87-1.05,5.65-0.62,8.66c1.3,9.08,8.24,16.4,9.28,26.6
	c2.01,19.73-12.84,39.15-0.62,51.97c-7.02,0.21-11.54-7.43-13.61-14.23c-4.52,8.28-6.96,21.88-4.95,34.64
	c-1.62,1.67-3.96,2.64-3.09,6.8c-4.74,0-9.49,0-14.23,0c9.71-13.97,9.41-44.52,1.24-60.01c-1.5,0.37-0.57,4.59-1.86,6.8
	C204.67,188.9,190.06,182.55,194.97,170.13z M232.09,178.17c4.06-10.55,11.63-29.31,2.48-40.21
	C234.08,151.48,224.73,166.29,232.09,178.17z"/>
</svg>
