<?xml version="1.0" encoding="utf-8"?>
<!-- Generator: Adobe Illustrator 15.0.0, SVG Export Plug-In  -->
<!DOCTYPE svg PUBLIC "-//W3C//DTD SVG 1.1 Tiny//EN" "http://www.w3.org/Graphics/SVG/1.1/DTD/svg11-tiny.dtd" [
	<!ENTITY ns_flows "http://ns.adobe.com/Flows/1.0/">
]>
<svg version="1.1" baseProfile="tiny"
	 xmlns="http://www.w3.org/2000/svg" xmlns:xlink="http://www.w3.org/1999/xlink" xmlns:a="http://ns.adobe.com/AdobeSVGViewerExtensions/3.0/"
	 x="0px" y="0px" width="362px" height="600px" overflow="visible" xml:space="preserve">
<defs>
</defs>
<path d="M62.81,213.99C17.26,152.21,44.62,47.28,81.64,14.87c0,0.03,0.01,0.06,0.01,0.09c7.01-7.58,17.7-12.68,27.03-14.33
	c16.49-2.92,25.71,4.97,27.22,11.01c1.86,7.48-2.91,14.51-9.49,17.58c-12.01,5.62-21.7,1.75-23.09-2.34
	c-2.81-8.27,8.68-12.31,14.45-12.01c10.43,0.55,8.94,7.25,4.81,7.25c-4.13,0-0.18-5.79-4.91-6.1c-4.25-0.27-15.52,3.84-11.23,10.39
	c1.34,2.05,9.2,4.37,18.04,0.31c5.04-2.31,10.72-8.26,9.15-14.14c-1.56-5.82-8.47-11.45-24.96-8.53
	c-9.42,1.67-20.12,8.06-26.16,20.02c9.65,76.5,78.65,105.8,111.24,147.93l0,0c0,0,37.02,24.24,32.28-1.52
	c-5.12-27.82,5.16-66.37,14.52-88.01c-36.55,8.38-52.68,40.71-58.71,57.44c2.93,1.62,7.75,4.57,15.27,9.86
	c1.84-18.99,14.94-50.19,33.24-55.44c-24.33,12.87-23.85,75.92-23.85,75.92l-27.73-20.17l-11.44-8.72
	c7.91-27.89,44.11-65.16,84.18-69.52c-14.98,20.8-24.8,69.52-15.94,106.95c5.67,23.94-20.29,14.85-31.4,9.99
	c8.3,17.64,9.57,38.23-1.48,65.1l-8.32,5.62c37.86-105.25-88.54-101.68-117.52-216.52C58.3,74.4,31.53,156.07,77.08,217.85
	c45.55,61.77-29.96,47.66-29.96,47.66c13,29.22,81.9,35.46,127.81-3.23c12.17,45.86-107.15,71.5-52.41,92.35
	c30.57,11.65,28.23,25.9,12.48,33.38c18.52,1.59,53.87-24.44,56.06-102.13l4.16,9.78c0,92.56-56.99,106.29-76.18,96.51
	c15.75-7.49,20.64-24.13-9.93-35.78c-54.73-20.85,58.66-52.31,60.11-82.78C123.3,312.3,42.95,302.84,24.86,254.79
	C24.86,254.79,108.36,275.76,62.81,213.99 M176.8,314.39c-3.22-4.51-17.26,6.8-23.71,21.84c-6.63,15.45,15.91-4.78,15.91-4.78
	s-10.61,5.2-11.65,3.12c-1.04-2.08,12.27-17.68,15.39-14.77c3.12,2.91-3.93,23.31-11.23,34.74c-2.3-4.79-9.57-9.78-18.72-20.18
	c27.14-24.8,32.45-42.28,34.01-51.17c0,0-16.8,36.13-59.02,56.47c32.53,5.9,40.27,17.73,36.25,31.2
	C169.74,357.34,182.5,322.37,176.8,314.39 M274.04,55.63c-30.58,29.33-36.09,70.3-21.63,125.21c8.04,30.54-30.57,45.87-39.73,43.99
	l-1.98,9.29c8.45,1.73,60.95-9.6,49.71-54.27c-0.81-3.21-27.5-79.15,23.78-124.66c8.91-4.13,18.18-3.77,25.07-1.11
	c13.81,5.31,16.47,12.72,14.99,17.84c-1.49,5.17-8.5,7.08-13.37,6.53c-8.54-0.96-13.43-6.31-13.51-8.47
	c-0.26-6.91,10.14-4.88,13.24-2.74c3.44,2.39-2.19,4.97,0.93,6.86c3.13,1.88,7.31-2.51-0.33-7.68c-4.23-2.87-14.77-5.04-16.42,2.49
	c-0.81,3.73,4.75,11.07,16.4,12.3c6.38,0.68,13.19-2.46,15.19-8.97c1.62-5.26-1.76-15.44-15.57-20.75
	c-5.35-2.06-11.91-3.19-18.33-2.89c0.02-0.02,0.04-0.03,0.07-0.05c-69.47,0-131.66,43.47-144.14,76.13l8.58,6.55
	C169.47,98.59,222.46,58.34,274.04,55.63 M185.33,243.67c16.12-35.36-49.4-119.29-112.19-138.63c0,0-22.39,77.54,35.96,129.09
	c-13.35-16.7-43.86-60.37-27.87-118.38c65.86,33.87,96.85,95.87,97.65,118.55c-12.59-21.56-50.18-69.85-88.08-77.57
	c7.9,39.1,25.17,66.46,51.17,77.41c-30.16-26.86-36.19-61.6-36.19-61.6c24.33,10.72,57.58,58.71,64.29,72.83
	c-8.09,9.13-39.65,25.87-76.31,28.1c5.69-5.96,28.71-24.58,58.71-33.33c-30.27-1.25-77.84,36.39-77.84,36.39
	C120.49,289.11,176.44,263.15,185.33,243.67 M358.24,154.64c-2.61,4.81-8.38,10.19-18.06,6.88c-10.65-3.64-6.36-14.02-2.49-16.03
	c4.94-2.57,9.35-1.5,10.9,2.04c0.52,1.17,1.46,5.75-2.63,7.17c-3.48,1.2-4.47-1.82-3.43-3.59c1.71-2.91,6.74,0.1,5.33-3.57
	c-1.44-3.77-7.36-2.36-9.59-0.65c-2.15,1.64-5.67,10.13,5.25,12.86c5.41,1.35,10.03-2.02,12.53-5.49c3.2-4.44,3.85-15.14-4.73-19.58
	c-16.59-8.58-27.46,5.51-30.78,17.06c-5.59,19.41-1.74,48.23-28.55,61.03c2.47,4.05,1.39,10.4-5.12,14.8
	c-6.41,4.34-12.86,2.5-19.21,4.31c-16.85,9.82-53.61,35.42-41.86,66.29c12.02,31.6,8.43,52.48,4.27,63.44
	c-0.77,3.96-1.94,7.9-3.64,11.75C198.72,436.14,98.76,440.22,47.59,502c-41.22,49.76-29.99,86.33-8.97,89.93
	c20.16,3.45,63.07-24.13,76.37-38.24c16.64-17.67,33.39-51.3,15.91-54.81c-8.04-1.61-22.78,0.62-40.66,13.83
	c-16.71,12.34-29.22,35.93-21.42,37.65c6.8,1.5,25.39-7.56,30.65-16.77c2.91-5.1-4.21-8.81-8.4-5.49
	c4.99-6.24,15.18-0.83,10.19,8.53c-4.99,9.36-30.76,23.42-37.13,20.59c-11.87-5.27,2.13-30.45,17.78-44.1
	c16.22-14.14,43.34-23.02,54.86-18.72c16.69,6.24,0.36,44.93-22.88,66.87c-14.1,13.31-56.94,43.99-81.48,38.38
	c-20.78-4.76-36.17-42.28,4.16-92.77c49.09-61.45,124.15-64.87,169.88-116.93c-0.03,0.01-0.07,0.01-0.1,0.01
	c-55.12,28.76-88.56-1.71-142.96,20c-44.5,17.75-59.28,45.56-52.14,55.38c6.84,9.42,40.16,6.71,53.47,2.25
	c16.67-5.59,41.94-21.54,36.28-30.04c-2.61-3.9-10.16-7.69-24.97-5.45c-13.83,2.1-31.89,13.01-29.45,16.9
	c2.13,3.39,15.01,4.1,22.23-0.02c2.12-1.21,4.18-3.72,3.82-5.2c-0.31-1.3-2.82-1.68-4.5-1.36c2.01-1.21,5.49-0.67,5.75,1.25
	c0.26,1.92-0.83,4.77-4.55,6.99c-8.75,5.22-28.27,5.11-29.5,1.01c-2.29-7.66,18.31-18.93,32.39-22.25c14.59-3.44,32.35,0.38,35,7.27
	c3.85,10-24.46,29.05-46.03,35.87c-14.63,4.62-52.18,8.35-59.75-4.04c-6.42-10.48,7.81-44.3,55.86-62.4
	c60.1-22.63,80.65,10.12,146.33-19.5c36.34-16.39,15.6-79.09-5.62-100.31c-21.22-21.22,20.86-26.36,62.27-56.81
	c5.69-4.18,8.14-15.09,14.79-19.32c2.74-1.75,6.1-2.32,9.17-1.9c15.36-20.22,1.09-38.85-1.81-56.26
	c-2.01-12.06,2.9-28.56,20.01-28.06c9.07,0.27,13.68,9.24,13.49,15.08c-0.15,4.82-2.56,11.35-11.5,12.58
	c-9.84,1.35-10.57-8.52-8.31-11.65c2.88-3.98,6.77-4.88,9.4-2.72c0.87,0.72,3.43,3.96,0.76,6.69c-2.27,2.33-4.24,0.34-4.12-1.47
	c0.19-2.97,5.35-2.59,2.78-4.93c-2.63-2.4-6.73,1.06-7.82,3.29c-1.04,2.14-0.45,10.22,9.23,8.05c4.8-1.08,7.11-5.56,7.7-9.29
	c0.76-4.76-2.97-13.45-11.48-13.55c-16.47-0.19-19.45,15.22-17.49,25.63c3.19,17.03,16.94,37.52,2.93,57.69
	c0.21,0.1,0.41,0.2,0.61,0.31c28.36-12.22,22.96-39.29,29.06-58.94c4.11-13.24,17.5-27.46,34.57-18.24
	C361.3,137.38,361.4,148.82,358.24,154.64 M210.57,266.84c5.3,0.54,11.32,0.76,14.4,0.83c1.27-2.55,2.76-5.03,4.42-7.4
	c-2.65-0.18-5.57-0.68-8.02-1.34C217.59,261.46,213.94,264.09,210.57,266.84 M221.04,279.3c-4.21-0.14-12.34-1.19-17.88-2.39
	c0,1.95,0.86,4,2.66,6.27c0.32,0.41,1.62,2.12,3.46,4.85c4.97,0.75,9.19,0.83,11.38,0.79C220.33,285.58,220.49,282.4,221.04,279.3
	 M225.58,305.89c-2.11-0.07-4.39-0.46-6.48-1c2.28,4.56,4.53,9.67,6.46,15.12c1.64,0.35,2.96,0.51,3.97,0.56
	C228.57,316,227.27,311.11,225.58,305.89 M229.92,322.52c-1.33-0.06-2.56-0.25-3.68-0.53c3.24,9.7,5.37,20.4,4.82,31.14
	C232.2,345.5,232.37,335.32,229.92,322.52 M222.86,298.16c-0.88-2.32-1.49-4.61-1.88-6.87c-2.74-0.11-6.86-0.82-10.7-1.73
	c2.27,3.47,5.13,8.18,8.01,13.78c2.66,0.48,4.99,0.61,6.64,0.62C224.29,302.06,223.61,300.14,222.86,298.16 M223.99,269.75
	c-4.02-0.18-10.21-0.97-14.55-1.95c-0.73,0.62-1.47,1.23-2.17,1.86c-2.3,2.07-3.66,4.07-4.02,6.18c6.38,0.72,14.55,1.15,18.22,1.32
	C222.08,274.63,222.93,272.16,223.99,269.75 M240.91,247.14c-5.93,3.37-12.11,6.96-18.02,10.82c3.36,0.47,6.1,0.51,7.85,0.46
	C233.78,254.33,237.28,250.56,240.91,247.14 M227.43,283.18l-0.74,6.38c45.75,17.77,44.18,60.25,15.62,81.29
	C283.68,348.94,271.96,298.78,227.43,283.18 M236.1,334.51v5.1c15.5,10,6.21,31.24,6.21,31.24
	C256.98,344.87,236.1,334.51,236.1,334.51 M248.93,327.41l0.47-0.21c-5.44-12.34-13.79-13.7-14.19-13.73l-1.31-0.09l3.58,14.53
	l0.67,0.06c9.23,0.86,14.92,8.59,15.87,18.99l0.89-2.23c10.83-28.46-22.7-44.43-23.03-44.57l0.54,3.27
	c1.2,0.53,28.03,12.59,21.92,36.77c-1.85-8.44-6.9-13.06-15.34-14.05l-2.59-10.52C239.09,316.28,245.09,318.69,248.93,327.41"/>
</svg>
