<?xml version="1.0" encoding="utf-8"?>
<!-- Generator: Adobe Illustrator 14.0.0, SVG Export Plug-In  -->
<!DOCTYPE svg PUBLIC "-//W3C//DTD SVG 1.1 Tiny//EN" "http://www.w3.org/Graphics/SVG/1.1/DTD/svg11-tiny.dtd" [
	<!ENTITY ns_flows "http://ns.adobe.com/Flows/1.0/">
]>
<svg version="1.1" baseProfile="tiny"
	 xmlns="http://www.w3.org/2000/svg" xmlns:xlink="http://www.w3.org/1999/xlink" xmlns:a="http://ns.adobe.com/AdobeSVGViewerExtensions/3.0/"
	 x="0px" y="0px" width="79px" height="102px" viewBox="-0.43 -0.83 79 102" xml:space="preserve">
<defs>
</defs>
<path d="M31.86,31.64c-11.51-13.79-23.04,0-23.04,0C22.58,43.74,31.86,31.64,31.86,31.64z"/>
<path d="M9.46,34.93c10.88,20.52,23.04,0,23.04,0C19.38,45.98,9.46,34.93,9.46,34.93z"/>
<path d="M9.46,27.03c13.12-11.04,23.04,0.01,23.04,0.01C21.63,6.52,9.46,27.03,9.46,27.03z"/>
<path d="M31.31,45.25c-0.66,0.55-0.63,1.41-0.33,2.14c0.12,0.31,0.29,0.59,0.48,0.83c0.69,0.88,1.66,1.45,2.68,1.88
	c0.91,0.38,4.67,1.23,5,1.2v0.01c0.01,0.11,4.12-0.81,5.07-1.21c1.02-0.43,2-0.99,2.69-1.87c0.18-0.24,0.35-0.52,0.48-0.83
	c0.29-0.73,0.32-1.58-0.33-2.14c-0.92-0.77-2.24-0.26-3.19,0.18c-0.5,0.23-0.98,0.51-1.44,0.81l-0.59,0.41l0-16.59l-2.61-4.04v-0.1
	l-0.03,0.05l-0.03-0.05v0.1l-2.62,4.04l0,16.6l-0.59-0.41c-0.47-0.3-0.95-0.57-1.45-0.81C33.55,44.98,32.24,44.48,31.31,45.25z"/>
<path d="M78.35,12.14c0.12-0.82-0.34-1.61-1.11-1.9c-7.53-2.92-14.97-4.55-21.19-5.46l0.58-0.32c0.53-0.3,0.85-0.88,0.8-1.49
	c-0.05-0.61-0.46-1.14-1.04-1.34C56.18,1.55,51.59,0.01,38.74,0h-0.06h-0.04C25.81,0,21.23,1.54,21.01,1.62
	c-0.58,0.2-0.99,0.73-1.04,1.34c-0.05,0.61,0.26,1.2,0.8,1.49l0.79,0.43C15.5,5.81,8.36,7.42,1.13,10.22
	c-0.77,0.29-1.23,1.08-1.11,1.9c0,0.01,2.21,15.35,5.01,31.5c1.4,8.07,2.95,16.34,4.45,23.01c1.57,6.74,2.81,11.57,4.43,13.85
	c2.66,3.45,8.66,8.17,14.13,12.25c5.45,4.04,10.3,7.3,10.31,7.31c0.3,0.21,0.64,0.31,0.99,0.31c0.35,0,0.7-0.1,1-0.31
	c0.01-0.01,4.77-3.26,10.13-7.31c5.38-4.08,11.29-8.8,13.95-12.24l0-0.01c1.62-2.27,2.86-7.1,4.43-13.84
	C73.37,46.65,78.35,12.16,78.35,12.14z M30.86,6.43l-4.83-2.65c2.63-0.35,6.71-0.68,12.61-0.68h0.03v0l0.03,0
	c5.94,0,10.03,0.34,12.67,0.69l-4.82,2.64l-7.85,4.3L30.86,6.43z M3.73,13.02c8.43-3.1,16.75-4.57,23.07-5.27l2.57,1.41l8.58,4.72
	c0.23,0.13,0.49,0.19,0.75,0.19c0.26,0,0.52-0.06,0.75-0.19l8.6-4.71l2.72-1.5c6.42,0.66,15.08,2.12,23.87,5.36
	c-0.61,4.13-2.51,16.79-4.81,29.99c-0.47,2.72-0.96,5.45-1.46,8.14c-0.96-1.7-2.52-3.15-4.71-3.5c-0.37-0.06-0.75-0.09-1.12-0.09
	c-2.53,0.01-4.63,1.23-6.41,2.27c-2.19,1.31-4.36,2.52-6.64,3.25c-3.3,1.07-6.82,1.6-10.34,1.83c-3.51-0.24-7.01-0.78-10.29-1.83
	c-2.28-0.73-4.46-1.95-6.63-3.25c-1.79-1.05-3.88-2.28-6.42-2.29c-0.36,0-0.75,0.03-1.15,0.09c-2.17,0.35-3.73,1.8-4.69,3.5
	C7.06,35.42,4.46,18.01,3.73,13.02z M65.41,65.86c-0.43,1.98-0.88,3.83-1.33,5.47c-2.12,4.81-6.79,8.09-11.92,9.98
	c-3.93,1.44-8.17,2.22-12.39,2.52l-1.3,0c-4.13-0.3-8.36-1.09-12.29-2.53c-5.13-1.88-9.8-5.17-11.92-9.98
	c-0.44-1.64-0.89-3.49-1.32-5.47c-0.61-2.69-1.22-5.65-1.83-8.76l0-0.01l0.03-0.36l0-0.09c0.17-1.11,0.36-2.15,0.67-3.1
	c0.55-1.67,1.79-3.05,3.29-3.26c0.24-0.04,0.47-0.06,0.72-0.06c1.6-0.01,3.32,0.87,5.06,1.92c2.22,1.33,4.56,2.66,7.19,3.5
	c3.55,1.14,7.26,1.7,10.92,1.95l0.1,0.01h0.05h0.02l0.29-0.02c3.64-0.24,7.34-0.8,10.88-1.94c2.62-0.85,4.96-2.17,7.18-3.51
	c1.72-1.04,3.44-1.91,5.05-1.89c0.24,0,0.47,0.01,0.71,0.05c1.5,0.2,2.73,1.58,3.29,3.26c0.32,0.94,0.5,1.98,0.67,3.08v0.03
	c0.01,0.09,0.02,0.25,0.03,0.43C66.63,60.2,66.01,63.17,65.41,65.86z M18.51,80.3c2.09,1.48,4.41,2.63,6.76,3.49
	c3.21,1.17,6.57,1.93,9.94,2.36c-0.26,2.35-1.33,3.55-2.42,4.36c-0.34,0.24-0.67,0.42-0.99,0.57c-0.53-0.39-1.08-0.79-1.63-1.2
	C25.91,86.75,21.28,83.07,18.51,80.3z M39.34,96.43c-1.08-0.74-2.96-2.04-5.2-3.64l0.17-0.11c1.59-1.1,3.2-3.15,3.54-6.25
	c0.17,0.01,0.35,0.04,0.52,0.05l1.5,0.01c0.52-0.04,1.03-0.11,1.55-0.16c0.26,2.47,1.46,4.72,3.39,6.21
	C42.45,94.25,40.46,95.65,39.34,96.43z M48.35,89.91c-0.43,0.32-0.85,0.64-1.27,0.95c-1.74-1-2.82-2.75-3.03-4.85
	c3.08-0.45,6.12-1.15,9.03-2.21c2.37-0.87,4.72-2.05,6.83-3.55C57.15,83.03,52.56,86.75,48.35,89.91z"/>
<path d="M61.74,54.49c-1.32,0.08-1.92,0.79-2.03,0.83c-1.83,1.36-6.94,2.91-11.39,3.91c-4.04,0.93-7.62,1.52-8.28,1.63l-1.74,0
	c-0.66-0.11-4.23-0.7-8.27-1.63c-4.45-1.01-9.56-2.55-11.48-3.99c-0.02,0.03-0.61-0.69-1.95-0.77c-0.68-0.04-1.58,0.44-1.95,1.18
	c-0.4,0.72-0.53,1.55-0.54,2.69l0.05,0.35c0.71,2.64,1.42,5.27,2.12,7.92c0.61,2.32,1.46,4.81,3.19,6.96
	c2.04,2.5,4.83,3.68,7.72,4.58c3.53,1.1,7.25,1.7,10.97,1.85l1.98,0c3.78-0.15,7.49-0.75,11.02-1.85c2.89-0.9,5.69-2.08,7.71-4.58
	c1.74-2.14,2.59-4.63,3.21-6.95c0.7-2.64,1.41-5.27,2.12-7.91l0.04-0.43c-0.01-1.1-0.15-1.91-0.54-2.62
	C63.32,54.93,62.42,54.45,61.74,54.49z M46.15,68.92c-1.22,0.24-2.28,0.39-3.17,0.5v-6.38c1.24-0.23,2.84-0.54,4.59-0.92l-0.58,6.63
	C46.7,68.81,46.41,68.87,46.15,68.92z M46.82,70.59l-0.53,6.02c-1.1,0.21-2.2,0.39-3.32,0.51v-5.92
	C44.02,71.08,45.33,70.88,46.82,70.59z M49.37,61.71c1.92-0.46,3.89-0.97,5.75-1.55l-1.52,6.72c-1.69,0.6-3.31,1.08-4.81,1.45
	L49.37,61.71z M56.7,59.63c0.79-0.28,1.55-0.57,2.24-0.89l-1.78,6.7c-0.53,0.24-1.05,0.47-1.58,0.68l1.3-5.76
	C56.94,60.09,56.86,59.83,56.7,59.63z M56.57,67.64l-1.56,5.87c-0.4,0.28-0.82,0.55-1.27,0.78l1.37-6.07
	C55.6,68.03,56.08,67.84,56.57,67.64z M38.2,63.52l1.93,0l0.21-0.02c0,0,0.33-0.05,0.86-0.14l0,6.24c-0.71,0.06-1.12,0.07-1.13,0.07
	h-1.83c0,0-0.4-0.01-1.1-0.06v-6.25c0.53,0.09,0.85,0.14,0.85,0.14L38.2,63.52z M31.36,68.75l-0.58-6.63
	c1.75,0.38,3.34,0.7,4.59,0.93v6.38C34.28,69.29,32.91,69.08,31.36,68.75z M35.37,71.21v5.93c-1.12-0.12-2.23-0.3-3.33-0.51
	l-0.52-6.03C33.01,70.88,34.32,71.08,35.37,71.21z M21.79,67.64c0.48,0.2,0.96,0.39,1.43,0.57l1.37,6.07
	c-0.44-0.22-0.85-0.49-1.24-0.75L21.79,67.64z M21.21,65.44l-1.78-6.71c0.69,0.31,1.44,0.6,2.21,0.88
	c-0.16,0.21-0.25,0.47-0.19,0.74l1.29,5.76C22.24,65.91,21.73,65.68,21.21,65.44z M23.22,60.14c1.86,0.59,3.83,1.1,5.75,1.56
	l0.58,6.63c-1.5-0.37-3.12-0.85-4.81-1.46L23.22,60.14z M26.6,75.14l-1.4-6.23c1.59,0.53,3.11,0.95,4.51,1.28l0.53,6.05
	c-0.76-0.18-1.52-0.39-2.27-0.62C27.49,75.46,27.05,75.3,26.6,75.14z M40.08,77.35l-1.88,0c-0.35-0.01-0.7-0.05-1.06-0.07v-5.89
	c0.68,0.05,1.07,0.06,1.08,0.06l1.86,0.01c0.02,0,0.42-0.01,1.11-0.06l0,5.88C40.83,77.29,40.45,77.33,40.08,77.35z M50.37,75.62
	c-0.74,0.23-1.5,0.43-2.27,0.62l0.53-6.04c1.41-0.33,2.92-0.75,4.51-1.28l-1.41,6.23C51.29,75.31,50.85,75.47,50.37,75.62z"/>
<path d="M46.5,31.64c0,0,9.28,12.11,23.04,0.01C69.54,31.65,58.03,17.86,46.5,31.64z"/>
<path d="M45.85,34.94c0,0,12.17,20.51,23.05,0C68.9,34.95,58.98,45.99,45.85,34.94z"/>
<path d="M68.9,27.05c0,0-12.16-20.51-23.04,0C45.86,27.04,55.79,15.99,68.9,27.05z"/>
<polyline points="14.51,16.95 14.51,16.94 14.51,16.95 "/>
<path d="M28.74,15.37l0.41,0.06c0.56,0,1.08-0.36,1.26-0.92c0.22-0.7-0.16-1.45-0.86-1.67c-0.7-0.23-1.45,0.16-1.67,0.86
	C27.66,14.4,28.04,15.14,28.74,15.37z"/>
<path d="M23.88,14.48h0.05c0.71,0,1.3-0.56,1.33-1.27c0.03-0.73-0.54-1.35-1.27-1.38c-0.73-0.03-1.35,0.54-1.38,1.27
	C22.58,13.83,23.15,14.45,23.88,14.48z"/>
<path d="M9.73,20.5c0.38,0,0.76-0.16,1.02-0.48l0,0c0.47-0.57,0.39-1.4-0.17-1.87c-0.57-0.47-1.4-0.39-1.87,0.18v0
	c-0.47,0.56-0.39,1.4,0.18,1.87C9.13,20.4,9.43,20.5,9.73,20.5z"/>
<path d="M13.82,17.14c0.23,0,0.47-0.06,0.69-0.19h0v0c0.63-0.38,0.83-1.2,0.45-1.82c-0.38-0.63-1.2-0.83-1.83-0.45l0.69,1.13
	l-0.69-1.13c-0.63,0.38-0.83,1.19-0.44,1.82C12.94,16.91,13.38,17.14,13.82,17.14z"/>
<path d="M33.32,17.42c0.21,0.11,0.43,0.17,0.65,0.17c0.46,0,0.91-0.24,1.16-0.67c0.36-0.64,0.14-1.45-0.5-1.81v0
	c-0.64-0.36-1.45-0.14-1.81,0.5C32.47,16.25,32.69,17.06,33.32,17.42z"/>
<path d="M18.69,15.05L19.02,15c0.71-0.19,1.13-0.91,0.94-1.62c-0.19-0.71-0.92-1.13-1.62-0.94c-0.71,0.19-1.13,0.91-0.94,1.62
	C17.56,14.66,18.1,15.05,18.69,15.05z"/>
<path d="M37.54,20.29c0.24,0.19,0.54,0.29,0.83,0.29c0.39,0,0.78-0.17,1.04-0.51c0.45-0.57,0.35-1.41-0.22-1.86v0
	c-0.58-0.46-1.41-0.36-1.87,0.22C36.87,19,36.97,19.84,37.54,20.29L37.54,20.29z"/>
<path d="M61.95,15.91C62.1,15.97,62.26,16,62.42,16c0.53,0,1.04-0.32,1.24-0.85c0.26-0.68-0.08-1.45-0.77-1.71
	c-0.68-0.26-1.45,0.08-1.71,0.77C60.92,14.88,61.26,15.65,61.95,15.91z"/>
<path d="M66.49,18.15L66.49,18.15c0.22,0.13,0.45,0.19,0.68,0.19c0.45,0,0.89-0.23,1.14-0.65c0.38-0.63,0.17-1.44-0.45-1.82
	c-0.63-0.38-1.45-0.17-1.82,0.46C65.67,16.96,65.87,17.77,66.49,18.15z"/>
<path d="M57.11,14.65l0.19,0.01c0.65,0,1.22-0.48,1.32-1.14c0.1-0.73-0.41-1.4-1.13-1.5c-0.73-0.1-1.4,0.4-1.5,1.13
	C55.88,13.87,56.39,14.55,57.11,14.65z"/>
<path d="M42.32,18.66c0.28,0,0.56-0.09,0.8-0.27c0.58-0.44,0.7-1.27,0.26-1.86c-0.44-0.59-1.27-0.7-1.86-0.26
	c-0.58,0.44-0.7,1.27-0.26,1.86C41.52,18.48,41.91,18.66,42.32,18.66z"/>
<path d="M52.01,14.62l0.17-0.01c0.72-0.1,1.24-0.76,1.14-1.49c-0.09-0.73-0.76-1.24-1.48-1.15c-0.72,0.09-1.24,0.76-1.15,1.48
	C50.77,14.13,51.35,14.62,52.01,14.62z"/>
<path d="M46.9,16c0.17,0,0.35-0.03,0.51-0.1v0c0.68-0.29,0.99-1.07,0.71-1.74c-0.28-0.67-1.06-0.99-1.74-0.71
	c-0.67,0.29-0.99,1.06-0.71,1.74C45.89,15.7,46.38,16,46.9,16z"/>
<path fill="#FFFFFF" d="M46.55,6.44l4.82-2.64c-2.64-0.35-6.73-0.69-12.67-0.69l-0.03,0v0h-0.03c-5.9,0-9.97,0.34-12.61,0.68
	l4.83,2.65l7.84,4.31L46.55,6.44z"/>
</svg>
