<?xml version="1.0" encoding="utf-8"?>
<!-- Generator: Adobe Illustrator 15.0.1, SVG Export Plug-In  -->
<!DOCTYPE svg PUBLIC "-//W3C//DTD SVG 1.1 Tiny//EN" "http://www.w3.org/Graphics/SVG/1.1/DTD/svg11-tiny.dtd" [
	<!ENTITY ns_flows "http://ns.adobe.com/Flows/1.0/">
]>
<svg version="1.1" baseProfile="tiny"
	 xmlns="http://www.w3.org/2000/svg" xmlns:xlink="http://www.w3.org/1999/xlink" xmlns:a="http://ns.adobe.com/AdobeSVGViewerExtensions/3.0/"
	 x="0px" y="0px" width="462px" height="20px" viewBox="-0.62 -0.03 462 20" overflow="visible" xml:space="preserve">
<defs>
</defs>
<path fill="#5A3D1C" d="M210.93,6.67c-3.74-2.21-8.4-3.08-12.62-1.77c-1.93,0.6-3.53,1.78-5.28,2.76c-1.76,0.98-3.62,1.85-5.45,2.71
	c-2.12,0.99-4.04,1.04-6.31,0.6h-0.3c-0.12-1.42-0.74-2.5-1.48-2.5c-0.83,0-1.5,1.35-1.5,3.01c0,1.66,0.67,3.01,1.5,3.01
	c0.7,0,1.29-0.97,1.45-2.27c1.21,1.24,2.58,1.99,4.34,2.09c1.96,0.12,3.92-0.52,5.67-1.36c4.11-1.98,7.69-5.89,12.66-5.12
	c2.53,0.39,5.13,1.89,5.95,4.45c0.61,1.92,0.33,4.58-1.54,5.72c-1.69,1.03-3.9,0.49-4.75-1.33c-0.76-1.62-0.65-4.21,1.29-4.95
	c0.97-0.37,2.15-0.08,2.71,0.84c0.05,0.08,0.09,0.17,0.12,0.25c-0.33-0.28-0.76-0.45-1.22-0.45c-1.06,0-1.93,0.86-1.93,1.93
	c-0.01,2.25,2.32,2.27,3.36,0.77c1.35-1.95-0.75-4.49-3.04-4.1c-5.23,0.89-2.98,9.08,1.61,9c2.51-0.04,4.75-2.17,4.94-4.66
	c0.2-2.67-1.65-5.23-3.57-6.89c-1.85-1.6-4.16-2.44-6.61-2.06c-2.17,0.33-4.05,1.5-5.93,2.56c-2.18,1.23-4.47,2.46-6.88,3.17
	s-4.77,0.35-7.17-0.16c0.01-0.15,0.02-0.3,0.02-0.45c0-0.02,0-0.05,0-0.07c0.08,0.03,0.15,0.06,0.22,0.08
	c0.24,0.05,0.46-0.01,0.69,0.05c4.98,1.3,8.98-2.05,13.03-4.18c3.86-2.03,9.13-2.46,13.19-0.95c4.27,1.59,7.42,4.95,11.43,6.92
	c2.9,1.42,7.21,2.58,9.81-0.08c1.98-2.03,1.74-6.27-1.09-7.51c-1.66-0.73-3.08,0.34-3.72,1.65c-0.71,1.44-0.48,3.18,1.35,3.18
	c1.02,0,1.84-0.82,1.84-1.84s-0.82-1.84-1.84-1.84c-0.14,0-0.27,0.02-0.4,0.05c1.41-1.75,3.64,0.6,3.78,2.55
	c0.33,4.51-4.01,4.58-7.17,3.81C217.81,12.23,214.61,8.84,210.93,6.67z M189.49,3.81c-1.07,0.26-2.23,0.32-2.78,0.35
	c-2.03,0.09-4.21,0.14-4.9,2.46c-0.17,0.56-0.2,1.03-0.2,1.62c0,0.2,0.04,0.4,0.09,0.59c0.53-0.42,1.05-0.62,1.67-0.92
	c1.32-0.65,2.8-0.69,4.21-0.99c-1.45,0.31-3.01,0.74-4.1,1.79c-0.49,0.47-0.85,1.15-0.97,1.82c-0.03,0.13,0.02,0.25,0,0.37
	c0.47-0.57,1.1-0.26,1.74-0.35c3.37-0.47,6.59-2.11,7.58-5.58c0.34-1.19,0.23-2.3-0.04-3.45C192.08,2.82,190.85,3.48,189.49,3.81z
	 M191.78,1.52c0.03-0.2,0-0.39-0.14-0.56C191.69,1.15,191.74,1.33,191.78,1.52z M169.93,11.52c0-0.46-0.38-0.84-0.84-0.84H0.84
	C0.38,10.68,0,11.05,0,11.52s0.38,0.84,0.84,0.84h168.25C169.55,12.36,169.93,11.98,169.93,11.52z M177.31,11.48
	c0-1.01-0.6-1.84-1.34-1.84c-0.74,0-1.34,0.82-1.34,1.84c0,1.02,0.6,1.84,1.34,1.84C176.71,13.32,177.31,12.5,177.31,11.48z
	 M173.8,11.48c0-0.74-0.6-1.34-1.34-1.34s-1.34,0.6-1.34,1.34c0,0.74,0.6,1.34,1.34,1.34S173.8,12.22,173.8,11.48z"/>
<path fill="#5A3D1C" d="M250.1,13.3c3.74,2.21,8.4,3.08,12.62,1.77c1.93-0.6,3.53-1.78,5.28-2.76c1.76-0.99,3.62-1.85,5.45-2.71
	c2.12-0.99,4.04-1.04,6.31-0.6h0.3c0.12,1.42,0.73,2.5,1.48,2.5c0.83,0,1.5-1.35,1.5-3.01c0-1.66-0.67-3.01-1.5-3.01
	c-0.7,0-1.29,0.97-1.45,2.27c-1.21-1.24-2.58-1.99-4.34-2.09c-1.96-0.12-3.92,0.52-5.67,1.36c-4.11,1.98-7.69,5.89-12.66,5.12
	c-2.53-0.39-5.13-1.89-5.95-4.45c-0.61-1.91-0.33-4.58,1.54-5.72c1.69-1.03,3.9-0.49,4.75,1.33c0.76,1.62,0.65,4.21-1.29,4.95
	c-0.98,0.37-2.15,0.08-2.71-0.84c-0.05-0.08-0.09-0.17-0.12-0.25c0.33,0.28,0.75,0.45,1.22,0.45c1.06,0,1.93-0.86,1.93-1.92
	c0-2.25-2.32-2.27-3.36-0.77c-1.35,1.95,0.75,4.49,3.04,4.1c5.23-0.89,2.98-9.08-1.61-9c-2.51,0.04-4.75,2.17-4.94,4.66
	c-0.2,2.67,1.65,5.23,3.57,6.89c1.85,1.6,4.16,2.44,6.61,2.06c2.17-0.33,4.05-1.5,5.93-2.56c2.18-1.23,4.47-2.46,6.88-3.17
	c2.41-0.71,4.77-0.35,7.17,0.16c-0.01,0.15-0.02,0.29-0.02,0.45c0,0.03,0,0.05,0,0.07c-0.08-0.03-0.15-0.06-0.22-0.08
	c-0.24-0.05-0.45,0.01-0.69-0.05c-4.98-1.3-8.98,2.05-13.03,4.19c-3.86,2.03-9.13,2.46-13.19,0.95c-4.27-1.59-7.42-4.95-11.43-6.92
	c-2.9-1.42-7.21-2.58-9.81,0.08c-1.98,2.03-1.74,6.26,1.09,7.51c1.66,0.73,3.08-0.33,3.72-1.65c0.71-1.44,0.48-3.18-1.36-3.18
	c-1.02,0-1.84,0.82-1.84,1.84c0,1.02,0.82,1.84,1.84,1.84c0.14,0,0.27-0.02,0.4-0.05c-1.41,1.75-3.63-0.6-3.78-2.55
	c-0.33-4.51,4.01-4.58,7.17-3.81C243.22,7.74,246.42,11.12,250.1,13.3z M271.54,16.16c1.07-0.26,2.22-0.32,2.78-0.35
	c2.03-0.09,4.21-0.13,4.9-2.46c0.17-0.56,0.2-1.04,0.2-1.62c0-0.2-0.04-0.4-0.09-0.59c-0.53,0.42-1.05,0.62-1.67,0.92
	c-1.32,0.65-2.8,0.69-4.21,0.99c1.45-0.31,3.01-0.74,4.1-1.79c0.49-0.47,0.85-1.15,0.97-1.82c0.03-0.13-0.02-0.25,0-0.37
	c-0.47,0.57-1.1,0.26-1.74,0.35c-3.37,0.47-6.59,2.11-7.58,5.58c-0.34,1.19-0.23,2.3,0.04,3.45
	C268.95,17.14,270.17,16.49,271.54,16.16z M269.24,18.45c-0.03,0.2,0,0.39,0.14,0.56C269.33,18.82,269.29,18.63,269.24,18.45z
	 M291.1,8.45c0,0.47,0.38,0.84,0.84,0.84h168.25c0.46,0,0.84-0.38,0.84-0.84c0-0.46-0.38-0.84-0.84-0.84H291.94
	C291.47,7.61,291.1,7.98,291.1,8.45z M283.72,8.49c0,1.02,0.6,1.84,1.34,1.84c0.74,0,1.34-0.82,1.34-1.84c0-1.02-0.6-1.84-1.34-1.84
	C284.32,6.65,283.72,7.47,283.72,8.49z M287.23,8.49c0,0.74,0.6,1.34,1.34,1.34c0.74,0,1.34-0.6,1.34-1.34s-0.6-1.34-1.34-1.34
	C287.83,7.15,287.23,7.75,287.23,8.49z"/>
</svg>
