<?xml version="1.0" encoding="utf-8"?>
<!-- Generator: Adobe Illustrator 15.0.0, SVG Export Plug-In  -->
<!DOCTYPE svg PUBLIC "-//W3C//DTD SVG 1.1 Tiny//EN" "http://www.w3.org/Graphics/SVG/1.1/DTD/svg11-tiny.dtd" [
	<!ENTITY ns_flows "http://ns.adobe.com/Flows/1.0/">
]>
<svg version="1.1" baseProfile="tiny"
	 xmlns="http://www.w3.org/2000/svg" xmlns:xlink="http://www.w3.org/1999/xlink" xmlns:a="http://ns.adobe.com/AdobeSVGViewerExtensions/3.0/"
	 x="0px" y="0px" width="120px" height="240px" overflow="visible" xml:space="preserve">
<defs>
</defs>
<path d="M105.58,106.15c-0.59-2.48-2.72-10.26-3.14-11.91c-0.42-1.64-3.49-13.24-3.95-15.61c-0.45-2.37-2.58-9.61-3.11-11.87
	c-0.53-2.27-1.71-4.33-2.23-5.8c-0.53-1.46-1.02-3.52-1.33-5.09c-0.31-1.57-1.57-3.7-2.24-5.48c-0.66-1.78-1.22-3.14-1.43-3.46
	c-0.21-0.31-1.29-1.71-1.99-3.11c-0.7-1.4-1.29-2.52-1.5-3.15c-0.21-0.63-1.22-0.14-1.47-0.31c-0.25-0.18-1.19-1.43-1.95-2.8
	c-0.77-1.36-1.54-3.25-1.75-6.35c-0.21-3.11,3.56-5.38,5.17-6.67c1.61-1.29,5.62-5.07,6.98-6.29c1.36-1.22,4.85-5.55,6.18-6.77
	c1.33-1.22,3.25-4.47,3.7-5c0.46-0.52,0.25-3.63-0.11-4.61c-0.35-0.98-1.6-1.6-2.73-1.78c-1.11-0.17-6.77-0.04-6.77-0.04
	S82.12-0.02,78.59,0c-3.54,0.02-6.19-0.1-7.91,0.49c-1.72,0.58-3.75,1.79-4.78,2.7c-1.02,0.91-3.06,2.82-3.55,3.36
	c-0.49,0.55-3.42,2.81-3.72,3.27c-0.29,0.45-2.01,1.62-3.33,2.74c-1.33,1.12-1.34,2.55-1.78,3.92c-0.44,1.36-0.26,3.05-0.04,3.52
	c0.23,0.47,1.31,0.43,1.55-0.16c0.25-0.59,0.35-1.48,0.89-3.24c0.54-1.77,1.57-2.06,2.08-2.49c0.5-0.41,0.56,0.05,0.43,0.62
	c-0.12,0.55-0.06,2.64,0.04,3.65c0.1,0.99,0.28,1.99,0.51,3.14c0.23,1.15,0.83,1.9,1.45,1.88c0.86-0.12,0.78-0.78,0.86-1.83
	c0.07-1.05,0.43,0.38,1.17,0.29c0.73-0.09,0.64-2.05,0.63-2.99c-0.02-0.95,0.28-1.85,0.31-3.28c0.04-1.43,0.72-0.5,0.87,0.12
	c0.16,0.63-0.05,1.57,0.4,2.37c0.46,0.8,1.63-0.25,1.61-1.24c-0.02-1-0.21-3.04-0.12-4.26c0.09-1.22,1.55-2.47,2.41-3.51
	c0.86-1.05,0.94-0.96,2.19-2.07c1.25-1.11,3.53-0.68,7.39-0.33c3.86,0.35,7.47,1.56,8.64,2.11c1.19,0.49-1.37,1.71-2.73,2.63
	c-1.35,0.93-3.82,2.38-7.63,3.86s-8.56,5.17-11.26,8.15c-2.7,2.97-3.82,3.31-5.78,4.19c-1.95,0.88-1.81,0.09-2.23-0.93
	c-0.42-1.02-2.19-2.28-3.87-2.37c-1.68-0.1-3.49-1.3-1.72-0.93c1.77,0.38,1.86,0.56,1.03-0.37c-0.84-0.94-4.31-3.58-8.6-6.34
	c-5.41-3.74-9.36-4.19-14.35-4.3c-4.99-0.1-9.22,3.77-10.3,5.49c-1.08,1.71,0.04,3-0.88,3.73c-0.91,0.73-2.72,3.66-3.49,4.89
	c-0.77,1.22-1.5,4.36-1.22,7.96c0.28,3.6,1.47,7.61,2.06,9.22c0.59,1.6,1.82,4.4,3.53,7.19c1.71,2.8,3.77,4.26,3.21,3.11
	c-0.56-1.16-0.8-2.24,0-1.44c0.81,0.8,1.19,1.64,1.4,2.24c0.21,0.59,0.87,2.79,1.92,4.26c1.05,1.46,2.58,2.06,2.65,1.88
	c0.07-0.18,0.21-0.91-0.87-2.23c-1.89-2.2-1.29-3.11-0.95-2.62c0.35,0.48,1.85,2.24,3,2.97c1.15,0.73,2.41,1.25,3.07,1.77
	c0.66,0.52,1.01,0.95,1.29-0.17c0.28-1.12-0.11-2.4,0.66-1.78c0.77,0.63,1.64,0.38,1.37,0.07c-0.28-0.32-1.05-1.3-0.63-0.98
	c0.42,0.31,0.28-0.38-0.24-0.87s-0.63-1.01,0.18-0.38c0.8,0.62,1.45,0.92,1.41,1.61c-0.05,0.7,0,7.96,0.04,9.55
	c0.05,1.59,0.85,6.29,1.2,8.54c0.35,2.23,0.07,5.72,0.07,6.24c0,0.52-0.56,7.02-0.6,8.87c-0.03,1.85-0.98,3.18-1.85,4.57
	c-0.87,1.39-2.27,3.71-2.59,4.75c-0.31,1.05-2.51,4.99-2.83,6c-0.31,1.01-3.88,7.22-4.68,8.52c-0.81,1.3-2.87,4.23-4.33,6.25
	c-1.47,2.02-5.01,1.81-6.79,1.52c-1.78-0.3-5.4-0.29-7.03-0.29c-1.64,0-3.98,0.74-5.57,1.69c-1.59,0.96-1.99,2-1.82,2.35
	c0.18,0.34,1.54,0.51,2.32-0.22c0.79-0.71,3.05-1.29,3.63-1.24c0.57,0.06-0.24,0.69-0.87,1.3c-0.63,0.61-1.05,1.98-1.36,3.24
	c-0.32,1.28-0.14,3.6,0.03,4.61c0.17,1.02,1.5-0.24,1.71-0.06c0.21,0.17,1.41-0.18,1.81-0.35c0.4-0.17,0.91-0.68,0.93-1.45
	c0.12-1.69,1.15-2.76,2.16-3.18c1.02-0.41,3.48,0.03,4.63-0.31c1.15-0.33,2.18-0.39,4.03-0.17c1.85,0.21,2.83,0.08,3.62-0.87
	c0.79-0.95,3.36-3.98,4.1-4.94c0.75-0.96,5.17-6.08,6.4-7.17c1.24-1.09,5.87-7.05,6.82-8.43c0.96-1.37,3.47-5.49,4.52-6.59
	c1.05-1.08,1.45-1.69,1.63-2.58c0.19-0.88,0.4-2.35,0.8-5.07c0.4-2.73,0.75-4.12,1.09-7.75c0.35-3.63,0.88-7,1.02-9.64
	c0.14-2.62,0.09-6.12,0.04-7.47c-0.04-1.35,0.1-1.42,0.98-1.35c0.88,0.07,1.51,0.44,2.37,0.93c0.86,0.49,1.33,0.93,2.07,1.77
	c0.75,0.84,1.7,2.63,2.16,3.35c0.47,0.72,1.49,2.05,1.59,2.65c0.09,0.61-0.19,0.74,0.23,1.4c0.42,0.66,0.72,1.21,1.21,2.26
	c0.49,1.05,0.21,2.03-0.51,3c-0.72,0.97-2.82,2.14-4.28,3.54c-1.46,1.4-1.86,4.81-1.93,7.07c-0.07,2.26-0.67,3.89-0.84,5.1
	c-0.16,1.21-0.81,3.32-1.09,4.49c-0.28,1.16-0.86,4.96-0.86,6.72c0,1.77,0.35,6.42,0.42,8.52c0.07,2.1,0.12,4.48,0.53,4.94
	c0.42,0.47,0.79,0.23,1.14,0.74c0.35,0.51,2.4,6.82,2.82,7.77c0.42,0.96,2.77,7.67,3.59,9.43c0.81,1.76,2.72,7.3,3.05,9.59
	c0.33,2.28-1.21,3.25-2.3,5.42c-1.09,2.17-1.49,6.17-1.58,8.38c-0.09,2.21-0.98,4.82-1.66,5.8c-0.68,0.97-3.21,6.84-3.7,8.49
	c-0.49,1.65-2.09,6.64-2.12,7.97c-0.02,1.32-0.86,4.93-0.98,6.6c-0.12,1.68-1.42,6.62-2,8.38c-0.58,1.77-1.6,3.68-2.86,5.19
	c-1.26,1.51-2.05,3.05-2.03,4.31c0.02,1.26-1.93,4.1-2.84,5.51c-0.91,1.42-1.19,4.33-1.42,5.71c-0.23,1.37-1.54,4.04-2.35,5.3
	c-0.82,1.25-2.28,3.77-2.91,4.72c-0.63,0.95-1.3,2-0.93,3.1c0.37,1.1,3.12,0.39,3.4,0.65c0.28,0.25,2.07,0.28,2.77,0.31
	c0.91,0.18,1.82-0.77,2.61-0.68c1.72,0.29,2.28-0.75,2.61-0.75c0.56,0.03,1.24-0.34,2.56-1.51c1.53-1.21,1.44-1.89,1.32-3.65
	c-0.11-1.77,0.3-4.34,0.89-5.91c0.58-1.58,0.3-1.8,0.56-4.15c0.26-2.35,1.07-3.54,1.79-4.28c0.72-0.75,1.19-1.28,1.37-2.54
	c0.19-1.26,0.16-2.58,0.98-5.17c0.82-2.58,2.12-4.96,3.4-7.23c1.28-2.29,3.24-5.95,4.49-7.92c1.26-1.97,3.63-6.21,4.47-8.1
	c0.84-1.89,1.17-1.72,1.28-0.86c0.12,0.86,2.21,6.42,2.54,7.31c0.32,0.88,3.32,7.47,4.17,9.36c0.83,1.88,2.02,4.91,2.49,5.84
	c0.46,0.94,0.81,3.24,0.81,3.7s0.11,3.31,0.19,3.54c0.07,0.24,0.56,0.86,0.68,1.3c0.11,0.44,0.14,2.25,0.02,2.91
	c-0.12,0.66-1.21,3.52-1.98,4.4c-0.77,0.88-1.4,1.39-1.77,2.63c-0.37,1.24,0.4,2.61,0.56,2.93c0.16,0.34,0.74,0.77,1.63,1.27
	c1.93,0.48,3.45-0.26,4.21-0.77c0.77-0.51,1.32-0.2,1.39,0.33c0.07,0.53,0.4,1.16,1.03,1.38c2.38,0.41,3.03-1.07,3.24-1.7
	c0.21-0.63,0.17-1.19,0.31-2.27c0.14-1.09-0.17-2.73-0.25-4.08c-0.07-1.37-0.03-4.05-0.07-5.94c-0.04-1.89-0.15-2-0.15-3.92
	c0-1.92-0.63-3.28-1.36-4.36c-0.74-1.08-2.34-4.64-2.72-6.78c-0.39-2.13-1.36-8.83-1.19-11.07c0.17-2.24-1.54-10.02-2.03-12.15
	c-0.49-2.13-2.3-6.46-2.69-7.89c-0.38-1.43-0.21-4.22-0.07-6.43c0.14-2.2,0.07-6.88-0.25-7.82c-0.31-0.94-0.1-1.47,0.56-2.86
	c0.66-1.4,4.15-6.56,5.79-9.15c1.64-2.58,4.68-8.86,6.35-12.19c1.68-3.31,4.57-11.91,5.21-13.9c0.62-1.99,0.73-1.35,1.78-1.6
	c1.04-0.25,8.73-2.55,11-3.28C108.3,111.56,106.17,108.63,105.58,106.15z M29.9,54.45c0,0,1.15,1.52,1.41,1.9
	c0.26,0.39-0.16,0.82-0.49,0.48c-0.33-0.35-1.08-1.15-1.2-1.64C29.49,54.7,29.55,53.86,29.9,54.45z M31.85,58.96
	c-0.23,0.13-1.71-0.63-2.48-1.29c-0.77-0.66-1.29-1.95-1.27-2.36c0.02-0.4,0.01-0.24,0.54,0.25c0,0,2.11,2.09,2.7,2.41
	C31.93,58.28,32.08,58.84,31.85,58.96z M33.18,54.71c-0.44-0.53-1.8-2.54-1.92-3.08c-0.12-0.54-0.22-1.48,0.49-0.4
	c0,0,1.21,1.97,1.59,2.53C33.72,54.31,33.61,55.24,33.18,54.71z M34.22,48.02c-0.33,0.07-0.54-0.58-0.54-0.58
	c-0.72-1.07,0.51-0.16,0.51-0.16C34.56,47.65,34.55,47.95,34.22,48.02z M37.59,56.55c-0.09,0.07-1.49-1.35-1.93-1.94
	c-0.44-0.58-0.9-2.21-0.76-2.46c0.14-0.26,0.56,0.02,0.56,0.02s0.82,1.62,1.63,2.62C37.9,55.8,37.69,56.48,37.59,56.55z
	 M46.05,44.29c-0.47,0.66-0.98,1.75-1.19,2.45c-0.21,0.7-1.28,2.35-2.07,3.27c-0.8,0.94-2.45,2.24-2.45,2.24s-0.63,0.19-0.98,0.7
	c-0.35,0.51-0.47,0.44-1.16,0.68c-1.54-0.6-4.07-9.57-3.37-9.43c0.7,0.14,0.3,0.58,0.76,0.95c0.44,0.35,2.34,0.42,3.81-0.63
	c1.46-1.05,1.85-2.9,2.45-3.88c0.59-0.97,1.86-0.9,1.86-0.9c0.6,0.02,2.08,1.67,2.59,2.18C46.81,42.44,46.5,43.65,46.05,44.29z
	 M54.6,26.31c-0.65-0.37-1.38-0.58-1.54-0.86c-0.15-0.28,0.23-0.57,0.23-0.57s1.59,0.43,1.96,1.08
	C55.61,26.61,55.25,26.68,54.6,26.31z"/>
</svg>
