<?xml version="1.0" encoding="utf-8"?>
<!-- Generator: Adobe Illustrator 15.0.1, SVG Export Plug-In  -->
<!DOCTYPE svg PUBLIC "-//W3C//DTD SVG 1.1 Tiny//EN" "http://www.w3.org/Graphics/SVG/1.1/DTD/svg11-tiny.dtd" [
	<!ENTITY ns_flows "http://ns.adobe.com/Flows/1.0/">
]>
<svg version="1.1" baseProfile="tiny"
	 xmlns="http://www.w3.org/2000/svg" xmlns:xlink="http://www.w3.org/1999/xlink" xmlns:a="http://ns.adobe.com/AdobeSVGViewerExtensions/3.0/"
	 x="0px" y="0px" width="309px" height="89px" viewBox="-0.69 -0.06 309 89" overflow="visible" xml:space="preserve">
<defs>
</defs>
<path fill="#FFBF00" d="M206.43,35.06c-2.15,1.59-2.61,4.63-1.01,6.79c1.59,2.15,4.63,2.61,6.78,1.01c2.16-1.59,2.61-4.63,1.02-6.79
	C211.62,33.92,208.58,33.47,206.43,35.06z M211.16,41.29c-1.26,0.93-3.03,0.67-3.96-0.59s-0.66-3.03,0.59-3.96
	c1.26-0.93,3.03-0.67,3.96,0.59C212.68,38.59,212.42,40.36,211.16,41.29z M208.31,37.51c-0.81,0.6-0.98,1.74-0.38,2.54
	c0.6,0.81,1.74,0.98,2.54,0.38c0.81-0.6,0.98-1.74,0.38-2.54C210.26,37.08,209.12,36.91,208.31,37.51z M217.32,33.41
	c-1.62,0.4-2.53,2.38-2.03,4.41c0.5,2.04,2.23,3.36,3.85,2.96c1.62-0.4,2.53-2.37,2.03-4.41C220.67,34.34,218.94,33.01,217.32,33.41
	z M220.01,36.57c0.29,1.19-0.24,2.34-1.19,2.57c-0.95,0.23-1.95-0.54-2.25-1.73c-0.29-1.19,0.24-2.34,1.19-2.57
	C218.71,34.61,219.71,35.39,220.01,36.57z M217.91,35.66c-0.61,0.15-0.95,0.89-0.76,1.65c0.19,0.76,0.83,1.26,1.44,1.11
	c0.61-0.15,0.95-0.89,0.76-1.65C219.17,36.01,218.52,35.51,217.91,35.66z M197.3,40.98c0.5,2.04,2.22,3.36,3.85,2.96
	c1.62-0.4,2.53-2.38,2.03-4.41c-0.5-2.04-2.22-3.36-3.85-2.96C197.71,36.97,196.8,38.95,197.3,40.98z M202.03,39.73
	c0.29,1.19-0.24,2.34-1.19,2.57c-0.95,0.23-1.95-0.54-2.25-1.73s0.24-2.34,1.19-2.57C200.73,37.77,201.73,38.55,202.03,39.73z
	 M199.93,38.82c-0.61,0.15-0.95,0.89-0.76,1.65c0.19,0.76,0.83,1.26,1.44,1.11c0.61-0.15,0.95-0.89,0.76-1.65
	C201.18,39.17,200.54,38.67,199.93,38.82z M198.3,64.88c0.39-3.77,0.33-7.84-1.11-11.39c-0.41-1.02-1.06-2.09-1.87-3.06
	c-1.66-1.99-4.01-3.61-6.46-3.64c-0.39-0.01-0.79-0.04-1.2-0.07c2.16,2.85,5.47,6.39,6.05,10.06c0.1,0.65,0.3,1.27,0.37,1.93
	c0.05,0.43,0.22,1.1,0.13,1.53c-0.3-0.2-0.48-0.91-0.65-1.26c-0.33-0.65-0.54-1.35-0.88-2c-0.86-1.68-1.69-3.36-2.81-4.87
	c-1.01-1.36-2.54-3.59-4.17-4.25c0.2,0.08,0.76,3.18,0.92,3.59c0.47,1.28,1.08,2.51,1.6,3.77c0.82,1.98,1.65,3.98,2.41,5.99
	c1.88,4.98,4.62,9.2,9.07,12.26C197.2,71.73,198.05,67.35,198.3,64.88z M192.41,70.53c-0.54-2.76-2.55-5.79-2.63-8.57
	c0.01,0.5,0.03,1-0.03,1.48c-0.08,0.65-0.23,1.29-0.29,1.95c-0.25,2.75-0.68,5.72-2.16,8.1c0.27-2.96,0.49-5.93,0.49-8.9
	c0-2.16,0.41-5.25-0.79-7.15c0.53,0.85,0.17,3.71,0.05,4.66c-0.25,1.87-0.83,3.72-1.41,5.51c-0.31,0.97-0.89,1.86-1.45,2.7
	c-0.61,0.91-1.14,1.85-1.71,2.78c-1.15,1.91-1.72,4.66-1.46,6.85c0.32,2.74,1.95,4.35,3.31,6.58c-1.02-1.66,1.21-3.48,2.28-4.22
	C190.76,79.42,193.46,75.92,192.41,70.53z M209.4,44.73c-2.81-0.09-5.53,0.68-8.28,1.12c-0.9,0.15-1.78,0.25-2.66,0.3
	c1.27-0.07,4.76,5.5,5.51,6.5c1.76,2.36,3.44,4.78,5.28,7.08c-2.24-2.21-4.59-4.33-7.04-6.31c-1.97-1.59-5.1-3.05-6.66-5.02
	c1.07,1.35,1.99,2.78,2.75,4.4c0.56,1.21,1.08,2.47,1.3,3.79c0.18,1.1,0.14,2.22,0.42,3.3c0.75,2.92,3.11,5.73,5.72,7.2
	c2.82,1.58,6.17,0.83,8.91-0.55c1.06-0.53,2.12-1.42,3.31-1.65c0.93-0.17,1.94,0.09,2.86,0.24c-0.69-0.54-1.15-1.13-1.24-2.03
	c-0.14-1.42,0.29-2.89,0.51-4.28c0.56-3.57,0.24-7.1-2.1-10C215.87,46.23,212.72,44.84,209.4,44.73z M203.62,66.73
	c-0.67-0.34-1.3-0.68-1.92-1.12c-0.18-0.13-0.35-0.26-0.53-0.39c0.71,0.52,1.3,3.49,1.83,4.41c0.7,1.22,1.59,2.92,2.77,3.73
	c-0.8-0.38-1.56-0.88-2.21-1.49c-0.65-0.6-1.26-1.28-1.82-1.96c-0.51-0.62-1.02-1.21-1.37-1.95c-0.44-0.94-0.72-1.96-1.02-2.95
	c-0.95,2.68,0.28,5.89,1.8,8.11c1.43,2.08,3.58,3.53,5.94,4.33c1.11,0.38,2.24,0.65,3.4,0.83c0.59,0.09,1.16,0.16,1.75,0.04
	c-1.08,0.22-2.54-4.1-2.76-4.71c-0.49-1.32-1.17-2.57-2.03-3.67C206.43,68.61,205.15,67.5,203.62,66.73z M181.21,73.31
	c-0.33,0.59-0.74,1.09-1.21,1.54c-2.24,2.15-5.43,2.84-7.94,4.6c2.69-2.95,6.79-4.29,9.18-7.54c-0.58,0.79-2.54,1.42-3.47,1.8
	c-0.67,0.27-1.38,0.46-2.07,0.67c-4.38,1.32-7.69,4.27-7.58,9.08c0.01,0.59-0.06,1.19,0.06,1.77c0.09,0.43,0.26,0.84,0.37,1.27
	c-0.16-0.72,0.36-0.99,0.96-1.15c0.42-0.11,0.87-0.05,1.31-0.09c6.61-0.63,7.58-6.51,10.09-11.4
	C181.01,73.67,181.11,73.49,181.21,73.31z M194.65,70.79c0.82,0.5,1.3,3.73,1.5,4.65c0.37,1.8,0.47,3.68,0.03,5.48
	c0.3-1.23-0.55-3.8-0.84-5.05c-0.41-1.81-1.16-3.43-2.08-5.03c0,0.02,0.01,0.03,0.01,0.05c0.16,0.73,0.34,1.42,0.34,2.18
	c0.02,2.92-0.65,5.86-0.23,8.78c0.38,2.63,2.49,6.01,5.35,6.6c-1.75-1.26-0.12-3.03,0.75-4.32c2.26-3.35,1.85-7.01-0.37-9.84
	c-0.7-0.89-1.57-1.69-2.59-2.38C195.95,71.51,195.28,71.18,194.65,70.79z M212.87,68.65c-0.61,0-1.21,0.08-1.82,0.07
	c-0.33,0-0.65,0.02-0.95,0.14c1.3,1.31,3.18,2.62,4.01,4.27c0.11,0.21,0.17,0.48,0.3,0.68c-0.56-0.82-1.98-1.86-2.85-2.43
	c-0.65-0.42-1.49-0.81-2.21-0.96c0.08,0.48,0.27,0.93,0.46,1.4c1.7,4.21,4.69,6.1,8.97,4.27c-1.02,0.44-1.83-4.2-1.93-4.61
	c-0.19-0.76-0.5-1.35-0.93-1.79C215.22,68.97,214.19,68.65,212.87,68.65z M204.15,26.75c-0.32-0.07-0.64-0.14-0.96-0.22
	c-1.87-0.47-3.67-1.13-5.67-0.89c-2.7,0.32-4.95,2.21-6.71,4.16c-1.27,1.41-2.06,3.21-3.48,4.51c-0.6,0.54-1.38,1.01-2.04,1.48
	c-0.19,0.14-0.33,0.26-0.47,0.41c0.25-0.08,0.5-0.17,0.75-0.26c0.73-0.26,1.41-0.65,2.07-1.04c0.87-0.5,1.77-0.95,2.64-1.45
	c0.72-0.42,1.49-0.78,2.15-1.28c1.25-0.95,2.67-2.12,3.56-3.41c-0.25,2.76-5.5,5.54-7.61,6.82c-0.76,0.46-1.49,0.96-2.29,1.33
	c0.22-0.01,0.45-0.03,0.7-0.05c0.92-0.07,1.84-0.07,2.75-0.16c3.36-0.32,7.31-1.16,9.57-3.92
	C200.31,31.31,201.28,26.17,204.15,26.75z M191.72,24.55c0.03,0.71-0.03,1.42-0.11,2.13c0.38-0.96,0.76-1.91,1.07-2.9
	c0.86-2.76,1.83-5.87,1.99-8.78c-0.01,1.83-0.33,3.73-0.54,5.55c-0.13,1.07-0.38,2.13-0.47,3.2c-0.06,0.69-0.11,1.37-0.18,2.05
	c0.15-0.25,0.3-0.49,0.45-0.75c1.28-2.23,2.97-4.18,4.21-6.43c1.38-2.51,1.45-4.98,2.04-7.7c0.06-0.26,0.14-0.56,0.31-0.78
	c0.17-0.22,0.41-0.17,0.56-0.37c-2.4-0.86-5.07,0.36-6.96,1.89c-2.36,1.9-3.54,5.09-3.12,8.07
	C191.19,21.34,191.66,22.91,191.72,24.55z M202.06,16.81c-1.51,1.17-2.64,2.7-3.63,4.32c-0.4,0.65-0.84,1.26-1.31,1.85
	c0.41-0.24,0.81-0.48,1.19-0.77c3.33-2.57,7-4.73,11.22-5.31c-0.61,0.28-1.18,0.63-1.75,1c-0.35,0.23-0.64,0.52-1.02,0.72
	c-2.76,1.44-5.44,3.44-7.79,5.49c0.03,0,0.05,0.01,0.08,0.01c2.83,0.2,5.61,1.05,8.44,0.34c3.65-0.92,4.36-3.84,6.79-6.14
	c0.36-0.34,0.88-0.73,1.37-0.83c0.47-0.1,0.99,0,1.47-0.07c-0.75-0.67-1.41-1.43-2.2-2.05c-1.31-1.02-2.92-1.56-4.57-1.67
	C207.28,13.49,204.43,14.97,202.06,16.81z M189.24,14c-0.08-0.7-0.13-1.4-0.21-2.1c-0.15-1.27-0.18-2.49-0.47-3.73
	c-0.11-0.48-0.15-0.96-0.3-1.44c1.04,1.37,1.36,3.31,1.79,4.94c0.27,1.01,0.52,2.03,0.76,3.06c0.06-0.16,0.13-0.31,0.19-0.46
	c0.3-0.74,0.57-1.5,0.91-2.22c0.71-1.5,0.9-3.29,0.35-4.87c-0.26-0.74-0.85-1.44-1.54-2.13c-1.57-1.57-3.67-3.09-3.64-4.87
	c-0.35,0.29-0.53,0.75-0.72,1.15c-0.4,0.83-0.7,1.68-0.87,2.58c-0.42,2.21-0.38,4.33,0.56,6.41c0.5,1.1,1.15,1.99,1.87,2.96
	c0.51,0.7,1,1.45,1.54,2.14C189.4,14.94,189.3,14.46,189.24,14z M205.07,31.25c-0.68,0.43-1.28,1.05-1.94,1.53
	c-0.48,0.35-0.95,0.74-1.39,1.15c0.25,0.09,0.51,0.15,0.74,0.2c2.35,0.56,4.61-0.77,6.46-2.05c1.58-1.09,2.77-3.38,4.96-3.18
	c-0.32-0.31-0.68-0.56-1.07-0.77c-2.39-1.27-5.95-0.78-8.16,0.34c-0.82,0.41-1.57,0.69-2.18,1.38c-0.51,0.57-0.97,0.99-1.32,1.67
	c-0.23,0.44-0.45,0.92-0.71,1.36c0.84-0.63,1.66-1.27,2.59-1.76c1.57-0.83,3.22-1.66,4.97-2.03
	C206.95,29.7,206.1,30.59,205.07,31.25z M246.42,21.26c-0.29,0.85-0.77,1.53-1.29,2.25c-0.35,0.48-0.71,0.97-1.08,1.41
	c1.91-1.08,3.59-2.92,4.91-4.66c0.89-1.17,1.6-2.72,1.74-4.2c0.06-0.68,0.18-1.56-0.17-2.2c1.16,2.12,0.62,4.63-0.25,6.69
	c-0.35,0.83-0.79,1.65-1.28,2.43c0.17-0.12,0.35-0.23,0.53-0.34c1.17-0.7,2.18-1.63,3.11-2.62c0.85-0.9,1.75-1.88,2.18-3.05
	c0.97-2.63-0.73-5.18-1.55-7.62c-0.31-0.93-0.87-1.81-0.6-2.82c0.19-0.72,0.61-1.35,1.12-1.88c-0.37,0.25-0.79,0.37-1.19,0.55
	c-4.04,1.79-6.45,6.02-6.03,10.41C246.76,17.52,247.07,19.4,246.42,21.26z M278.21,13.41c-1.08-1.61-3.11-3.2-5-3.79
	c-2.63-0.82-5.8-0.55-8.4,0.25c-2.86,0.87-5.35,2.72-7.2,5.06c-1.22,1.55-2.13,3.31-3.39,4.83c-0.93,1.12-1.98,1.97-3.2,2.68
	c4.64-0.76,9.72-4.59,13.4-7.4c0.85-0.65,1.8-1.23,2.69-1.83c-0.68,2.68-3.13,4.22-5.3,5.6c-2.1,1.34-5.29,4.15-7.77,4.46
	c1.8-0.23,3.72-0.7,4.75-0.85c3.44-0.51,6.47-1.5,9.24-3.63C271.15,16.4,273.8,12.55,278.21,13.41z M282.28,21.42
	c-2.13-3.3-6.36-5.02-10.1-3.48c-1.63,0.67-2.98,1.84-4.42,2.82c-0.17,0.11-0.33,0.22-0.5,0.33c0.04-0.01,0.07-0.03,0.11-0.04
	c1.86-0.59,3.8-0.96,5.75-0.9c2.19,0.07,3.82,1.14,5.84,1.53c-0.36,0.08-0.79-0.11-1.16-0.14c-4-0.36-8.05-0.09-11.81,1.4
	c0.17,0,0.35,0,0.52,0.02c0.73,0.09,1.49,0.12,2.17,0.42c2.33,1,3.8,3.45,6.41,4.19c2.8,0.8,5.05-0.78,7.65-1.43
	c0.97-0.25,1.49,0.39,2.26,0.86C284.15,25.13,283.4,23.15,282.28,21.42z M256.59,14.23c-0.11-0.49-0.14-1.05-0.19-1.43
	c-0.15-1.18,0.38-2.64,0.77-3.76c0.7-2.03,2.83-4.6,5.05-4.88c-0.98,1.06-2.01,2.42-2.53,3.8c-0.48,1.29-1.26,2.62-1.34,4.03
	c0.08-1.39,4.61-3.23,5.64-3.84c1.53-0.89,4.26-2.37,4.24-4.47c-0.01-0.82,0.02-1.61,0.72-2.19c-1.65-0.62-3.41-1.03-5.19-0.87
	C256.54,1.23,252.14,7.83,256.59,14.23z M290.52,39.33c-0.29-1.63-0.62-3.13-1.32-4.65c-0.87-1.89-1.9-3.63-3.41-5.09
	c-1.15-1.11-2.68-1.86-4.3-1.57c-0.9,0.16-1.9,0.47-2.8,0.85c2.64,0.38,6.58,1.95,7.71,4.64c-0.98-2.32-4.88-3.18-7.02-3.4
	c-0.38-0.04-0.74-0.03-1.11-0.06c0.85,0.07,2.62,3.32,3.09,3.96c0.86,1.17,1.81,2.76,3.17,3.39c1.8,0.83,3.73-0.52,5.34,1.03
	C290.14,38.69,290.27,39.08,290.52,39.33z M170.54,65.92c0.65-0.48,0.78-1.39,0.31-2.04c-0.48-0.65-1.39-0.78-2.04-0.3
	c-0.65,0.48-0.78,1.39-0.31,2.04C168.97,66.26,169.89,66.4,170.54,65.92z M176.15,21.52c0.66-0.49,0.8-1.41,0.31-2.07
	c-0.49-0.66-1.41-0.8-2.07-0.31s-0.8,1.41-0.31,2.07S175.49,22,176.15,21.52z M162.92,1.29c-0.09,0.59-0.2,1.16-0.33,1.72
	c0.1-0.37,0.19-0.76,0.25-1.15C162.83,1.85,162.92,1.29,162.92,1.29z M174.92,73.77c4.15-1.25,8.15-3.89,10-7.93
	c2.16-4.73,1.2-10.58-1.11-15.07c-0.98-1.91-2.28-3.53-3.74-5c1.6,0.07,3.17,0.05,4.67-0.04c2.62-0.17,15.55-1.09,9.55-6.46
	c-3.35-3-11.21-0.68-16.27-0.11c1.08-0.55,2.12-1.18,3.1-1.81c4.77-3.06,9.55-7.86,9.54-13.92c-0.01-5-3.5-10.69-7.74-13.28
	c-4.53-2.76-10.87-2.29-15.07,0.88c-4.81,3.62-8.36,11.43-3.8,16.59c4.11,4.66,11.34,5.08,16.16,1.35c2.3-1.78,4.26-4.45,4.5-7.43
	c0.21-2.63-1.13-5.12-3.27-6.61c-2.45-1.71-5.68-1.92-8.38-0.69c-2.39,1.1-4.95,3.82-3.82,6.66c2.15,5.4,12.21,2.49,8.54-2.47
	c-1.01-1.37-2.94-1.66-4.31-0.64c-1.17,0.87-1.55,2.4-1,3.69c-0.88-1.19-1.08-2.94-0.4-4.21c1.3-2.43,4.75-2.79,7.04-1.72
	c2.66,1.24,3.53,4.16,2.72,6.86c-1.66,5.48-8.03,8.01-12.99,5.18c-5.43-3.11-5.15-9.69-1.42-14.03c3.58-4.16,9.38-5.69,14.45-3.45
	c4.52,1.99,6.83,6.68,7.49,11.37c0.36,2.59,0.13,5.27-1.13,7.6c-1.26,2.35-3.35,4.12-5.56,5.55c-3.76,2.44-9.08,4.56-13.53,3.1
	c-4.16-1.37-10.49-7.47-11.8-11.66c-3.04-9.77,3.27-14.86,5.23-23.05c-1.43,5.99-8.22,10.14-9.55,16.62
	c-1.19,5.76,1.45,13.8,5.56,18.07c0.44,0.46,0.92,0.9,1.41,1.32L159.88,39c2.96,2.31,5.92,4.08,9.41,5.48
	c3.83,1.54,7.2,3.64,9.97,6.74c2.43,2.73,4.45,6.12,4.33,9.89c-0.12,3.96-2.27,7.8-5.47,10.11c-3.5,2.53-8.72,3.57-12.75,1.71
	c-3.81-1.75-4.91-6.1-3.98-9.94c0.94-3.88,4.05-6.7,8.17-6.41c3.81,0.27,7.04,3.12,6.34,7.15c-0.59,3.4-5.17,8.27-8.26,4.27
	c-0.23-0.29-0.42-0.63-0.58-1c1.21,1.18,3.13,1.35,4.53,0.32c4.44-3.28-2.44-9.94-5.66-4c-2.23,4.12,1.52,7.6,5.68,7
	c4.33-0.62,6.61-4.86,5.94-8.96c-0.71-4.32-4.45-7.06-8.69-7.33c-4.31-0.27-7.89,2.05-9.52,6.02c-1.66,4.02-1.47,9.14,2.12,12.05
	C165.11,75.09,170.59,75.07,174.92,73.77z M173.82,18.42c1.08-0.8,2.6-0.57,3.4,0.51c0.8,1.08,0.57,2.6-0.51,3.4
	c-1.08,0.8-2.6,0.57-3.4-0.51C172.52,20.74,172.75,19.21,173.82,18.42z M168.23,62.78c1.08-0.8,2.6-0.57,3.4,0.51
	c0.8,1.08,0.57,2.6-0.51,3.4c-1.08,0.8-2.6,0.57-3.4-0.51C166.93,65.1,167.16,63.58,168.23,62.78z M271.93,39.92
	c0.07,0.04,0.14,0.07,0.21,0.11c-3.36-2.83-8.07-3.8-12.32-2.54c-3.21,0.95-5.66,2.94-7.72,5.52c-0.69,0.86-1.37,1.81-2.31,2.42
	c-0.74,0.47-1.56,0.6-2.41,0.69c2.14,1.55,4.07,3.29,6.88,2.53c1.04-0.28,2.19-0.51,3.06-1.17c0.92-0.69,1.7-1.47,2.68-2.07
	c2.46-1.51,5.02-2.32,7.88-2.74c2.59-0.38,5.09-0.53,7.26,1.12c0.32,0.24,0.62,0.5,0.93,0.75c-1.43-1.94-3.01-3.33-5.24-4.28
	c-3.46-1.46-6.85-0.46-10.15,0.8c2.31-1.59,5.26-2.5,8.07-2.26C269.83,38.86,270.97,39.45,271.93,39.92z M288.07,62.33
	c0.24,0.18-0.13,3.9-0.12,4.2c0.04,1.89,0.17,3.79,0.47,5.65c-0.13-0.79-0.61-1.89-0.88-2.65c-0.53-1.48-1-2.96-1.41-4.49
	c-0.23-0.85-0.25-1.72-0.39-2.59c-0.06-0.38-0.13-0.8-0.13-1.21c-0.5,0.65-0.96,1.31-1.27,2.15c-0.83,2.21-0.69,4.43-0.09,6.68
	c0.68,2.56,1.78,5.1,3.76,6.93c1.17,1.08,2.7,2.22,4.26,2.69c-0.03-0.08-0.07-0.1-0.14-0.09c0.02-0.33-0.34-0.56-0.41-0.86
	c-0.12-0.47-0.19-0.93-0.03-1.4c0.29-0.88,0.59-1.76,0.9-2.64c1.3-3.73,0.04-7.53-2.41-10.37
	C289.54,63.59,288.83,62.92,288.07,62.33z M267.62,57.3c-0.75,0.56-0.92,1.62-0.36,2.38c0.56,0.76,1.62,0.92,2.38,0.36
	c0.75-0.56,0.92-1.62,0.36-2.38C269.44,56.9,268.38,56.74,267.62,57.3z M233.74,18.25c0.49-0.36,0.59-1.04,0.23-1.53
	c-0.36-0.48-1.04-0.59-1.53-0.23c-0.49,0.36-0.59,1.04-0.23,1.53C232.57,18.5,233.25,18.61,233.74,18.25z M302.01,45.17
	c-2.49-0.6-4.97,0.21-6.98,1.69c-1.85,1.35-3.49,3.37-3.1,5.8c0.34,2.14,2.06,4.05,4.06,4.81c2.19,0.83,4.78,0.07,5.86-2.1
	c0.9-1.82-0.62-6.66-3.29-4.69c-0.79,0.58-0.95,1.69-0.37,2.48c0.58,0.79,1.69,0.95,2.48,0.37c0.54-0.4,0.79-1.05,0.7-1.68
	c0.15,0.22,0.26,0.47,0.31,0.74c0.22,1.16-0.65,2.24-1.54,2.86c-2.53,1.75-6.15,0.58-6.41-2.7c-0.2-2.64,1.79-5.06,4.27-5.74
	c1.99-0.54,4.14,0.04,5.68,1.38c1.9,1.64,2.54,4.2,1.82,6.59c-0.94,3.11-3.78,5.61-6.85,6.52c-5.15,1.53-10.46-2.52-11.42-7.6
	c-1.2-6.32-1.64-12.12-5.5-17.57c-3.14-4.43-8.69-9.37-13.86-11.28c-8.93-3.29-19.14-0.04-27.96,2.27c1.58-1.01,2.97-2.29,4.01-4.01
	c1.96-3.26,2.19-7.31,0.39-10.69c-1.3-2.44-3.51-4.55-5.99-5.79c-2.37-1.18-4.87-1.14-7.3-0.15c-5.24,2.14-10.27,7.36-7.94,13.37
	c1.02,2.64,3.25,4.59,6.1,4.89c2.83,0.3,6.01-0.77,8.02-2.8c1.92-1.94,2.6-5.05,1.12-7.46c-2.25-3.65-9.15-3.15-10.22,1.27
	c-0.32,1.35-0.06,2.57,0.98,3.54c2.29,2.15,8.31-0.11,5.75-3.57c-0.83-1.12-2.41-1.36-3.53-0.53c-0.74,0.55-1.09,1.42-1.01,2.27
	c-0.38-0.51-0.62-1.11-0.65-1.69c-0.16-3.38,5.06-4.1,6.75-1.71c2.19,3.1-0.07,7.4-3.42,8.36c-3.78,1.09-9.91-1.04-9.55-5.76
	c0.27-3.57,3.78-7.36,6.8-9.01c2.98-1.62,6.4-0.87,8.85,1.35c2.46,2.22,4.07,5.77,4.12,9.08c0.11,6.7-7.43,8.55-12.12,10.55
	c-2.52,1.07-10.6,4.58-7.45,8.63c1.4,1.8,3.57,1.24,5.53,0.94c4.37-0.66,8.9-2.33,13.21-3.43c9.04-2.3,19.05-6.83,28.25-2.42
	c5.9,2.83,12.04,9.42,12.93,16.03c0.81,5.99-3.61,15.2-9.43,17.75c-4.97,2.18-12.84,1.15-15.34-4.31c-1.77-3.87,0.08-10.21,2.99-13
	c3.68-3.53,11.28-2.06,13.35,3.04c1.24,3.05,0.48,6.83-2.83,8.13c-0.09,0.03-0.18,0.06-0.28,0.09c0.85-1.37,0.83-3.17-0.18-4.54
	c-5.16-6.97-13.2,9.03-0.73,7.64c6.05-0.67,8.29-9.55,6.44-14.16c-3.16-7.85-13.38-4.75-18.42-0.31c-3.25,2.87-5.76,6.84-5.34,11.33
	c0.46,4.77,3.95,8.85,8.25,10.74c5.01,2.19,10.75,1.3,15.26-1.63c4.22-2.74,7.39-8.42,8.72-14.04c0.09,0.52,0.21,1.04,0.38,1.55
	c0.46,1.39,1.28,2.58,2.3,3.62c1.89,1.92,4.23,3.65,7.01,3.79c3.76,0.19,7.33-2.14,9.67-4.91c2.05-2.41,3.35-5.55,2.38-8.7
	C306.94,48.05,304.75,45.84,302.01,45.17z M232.05,16.17c0.75-0.56,1.82-0.4,2.38,0.36c0.56,0.75,0.4,1.82-0.36,2.38
	c-0.75,0.56-1.82,0.4-2.38-0.36C231.13,17.79,231.29,16.73,232.05,16.17z M266.55,60.35c-0.92-1.24-0.66-2.99,0.58-3.91
	c1.24-0.92,2.99-0.66,3.91,0.58c0.92,1.24,0.66,2.99-0.58,3.91C269.22,61.86,267.47,61.6,266.55,60.35z"/>
<path fill="#FFBF00" d="M94.89,35.91c-1.59,2.15-1.14,5.19,1.01,6.78c2.15,1.59,5.19,1.14,6.79-1.01c1.59-2.15,1.14-5.19-1.01-6.79
	C99.52,33.3,96.48,33.76,94.89,35.91z M96.34,37.17c0.93-1.26,2.7-1.52,3.96-0.59c1.26,0.93,1.52,2.7,0.59,3.96
	c-0.93,1.26-2.7,1.52-3.96,0.59C95.68,40.2,95.42,38.42,96.34,37.17z M97.24,37.73c-0.6,0.81-0.43,1.95,0.38,2.55
	c0.81,0.6,1.95,0.43,2.54-0.38c0.6-0.81,0.43-1.95-0.38-2.54C98.97,36.75,97.84,36.92,97.24,37.73z M86.93,36.21
	c-0.5,2.04,0.41,4.01,2.03,4.41c1.62,0.4,3.35-0.92,3.85-2.96s-0.41-4.01-2.03-4.41C89.16,32.85,87.43,34.17,86.93,36.21z
	 M90.34,34.68c0.95,0.23,1.48,1.39,1.19,2.57c-0.29,1.19-1.3,1.96-2.25,1.73s-1.48-1.39-1.19-2.57S89.39,34.45,90.34,34.68z
	 M88.74,36.61c-0.19,0.76,0.15,1.5,0.76,1.65s1.26-0.35,1.44-1.11c0.19-0.76-0.15-1.5-0.76-1.65
	C89.58,35.35,88.93,35.84,88.74,36.61z M108.76,36.41c-1.62-0.4-3.35,0.93-3.85,2.96c-0.5,2.04,0.41,4.01,2.03,4.41
	c1.62,0.4,3.35-0.93,3.85-2.96C111.3,38.78,110.39,36.81,108.76,36.41z M108.32,37.84c0.95,0.23,1.48,1.38,1.19,2.57
	c-0.29,1.19-1.3,1.96-2.25,1.73c-0.95-0.23-1.48-1.39-1.19-2.57C106.36,38.38,107.37,37.61,108.32,37.84z M106.73,39.77
	c-0.19,0.76,0.15,1.5,0.76,1.65c0.61,0.15,1.26-0.35,1.44-1.11c0.19-0.76-0.15-1.5-0.76-1.65C107.56,38.51,106.91,39,106.73,39.77z
	 M108.4,73.29c4.44-3.06,7.19-7.27,9.07-12.26c0.76-2.01,1.58-4.01,2.41-5.99c0.52-1.26,1.13-2.49,1.6-3.77
	c0.15-0.41,0.71-3.51,0.92-3.59c-1.63,0.66-3.16,2.89-4.17,4.25c-1.12,1.51-1.95,3.2-2.81,4.87c-0.34,0.65-0.55,1.35-0.88,2
	c-0.17,0.35-0.36,1.06-0.65,1.26c-0.09-0.43,0.09-1.1,0.13-1.53c0.07-0.66,0.27-1.27,0.37-1.92c0.58-3.67,3.89-7.21,6.05-10.06
	c-0.41,0.03-0.81,0.06-1.2,0.07c-2.46,0.04-4.81,1.65-6.47,3.64c-0.81,0.98-1.46,2.04-1.87,3.06c-1.44,3.55-1.5,7.62-1.11,11.39
	C110.05,67.19,110.9,71.57,108.4,73.29z M121.49,82.12c1.07,0.74,3.3,2.55,2.28,4.22c1.36-2.22,2.99-3.84,3.31-6.58
	c0.26-2.2-0.3-4.94-1.46-6.85c-0.56-0.93-1.1-1.87-1.71-2.78c-0.56-0.84-1.14-1.72-1.45-2.7c-0.58-1.79-1.16-3.64-1.41-5.51
	c-0.12-0.95-0.48-3.8,0.05-4.66c-1.19,1.9-0.79,4.99-0.79,7.15c0,2.97,0.22,5.94,0.49,8.9c-1.48-2.38-1.92-5.35-2.16-8.1
	c-0.06-0.66-0.22-1.3-0.29-1.95c-0.06-0.49-0.04-0.99-0.03-1.48c-0.08,2.78-2.09,5.81-2.63,8.57
	C114.63,75.76,117.33,79.26,121.49,82.12z M90.12,48.68c-2.34,2.9-2.66,6.44-2.1,10c0.22,1.39,0.65,2.86,0.51,4.28
	c-0.09,0.9-0.55,1.48-1.24,2.03c0.92-0.15,1.93-0.42,2.86-0.24c1.19,0.22,2.25,1.11,3.31,1.65c2.74,1.38,6.09,2.13,8.91,0.55
	c2.61-1.47,4.97-4.28,5.72-7.2c0.28-1.08,0.24-2.2,0.42-3.3c0.22-1.32,0.74-2.58,1.3-3.79c0.76-1.62,1.68-3.05,2.75-4.4
	c-1.56,1.97-4.69,3.43-6.66,5.02c-2.45,1.98-4.79,4.1-7.04,6.31c1.84-2.3,3.52-4.72,5.28-7.08c0.75-1.01,4.24-6.57,5.51-6.5
	c-0.88-0.05-1.77-0.16-2.66-0.3c-2.75-0.45-5.47-1.21-8.28-1.12C95.38,44.68,92.23,46.07,90.12,48.68z M100.64,69.76
	c-0.86,1.1-1.53,2.35-2.02,3.67c-0.23,0.61-1.69,4.93-2.76,4.72c0.59,0.12,1.16,0.05,1.75-0.04c1.16-0.17,2.29-0.45,3.4-0.82
	c2.36-0.8,4.51-2.25,5.94-4.33c1.52-2.22,2.75-5.42,1.8-8.11c-0.3,0.99-0.58,2.01-1.02,2.95c-0.34,0.74-0.86,1.33-1.37,1.95
	c-0.56,0.68-1.17,1.36-1.82,1.96c-0.65,0.61-1.41,1.11-2.22,1.49c1.18-0.8,2.07-2.51,2.77-3.73c0.53-0.92,1.12-3.89,1.83-4.41
	c-0.18,0.13-0.35,0.26-0.53,0.39c-0.61,0.44-1.25,0.78-1.92,1.12C102.95,67.34,101.67,68.44,100.64,69.76z M127.18,73.69
	c2.51,4.89,3.49,10.77,10.09,11.4c0.44,0.04,0.89-0.02,1.31,0.09c0.6,0.16,1.12,0.44,0.96,1.15c0.12-0.42,0.29-0.84,0.37-1.27
	c0.12-0.58,0.04-1.18,0.06-1.77c0.12-4.82-3.2-7.77-7.58-9.08c-0.69-0.21-1.4-0.4-2.07-0.67c-0.92-0.38-2.89-1.01-3.47-1.8
	c2.39,3.26,6.48,4.6,9.18,7.54c-2.51-1.76-5.7-2.45-7.94-4.6c-0.47-0.45-0.88-0.96-1.21-1.54
	C126.99,73.33,127.08,73.51,127.18,73.69z M111.56,71.74c-1.02,0.69-1.89,1.49-2.59,2.38c-2.21,2.83-2.63,6.49-0.37,9.84
	c0.87,1.29,2.5,3.05,0.75,4.32c2.87-0.58,4.98-3.96,5.35-6.59c0.42-2.92-0.25-5.86-0.23-8.78c0-0.75,0.19-1.45,0.34-2.18
	c0-0.02,0.01-0.03,0.01-0.05c-0.92,1.6-1.66,3.22-2.08,5.03c-0.29,1.25-1.14,3.82-0.84,5.05c-0.44-1.8-0.34-3.68,0.03-5.48
	c0.19-0.92,0.68-4.15,1.49-4.65C112.82,71.01,112.15,71.35,111.56,71.74z M92.17,69.54c-0.43,0.44-0.74,1.03-0.93,1.79
	c-0.1,0.41-0.91,5.05-1.93,4.62c4.28,1.83,7.27-0.06,8.97-4.28c0.19-0.46,0.38-0.92,0.46-1.4c-0.73,0.15-1.57,0.54-2.21,0.96
	c-0.87,0.57-2.29,1.61-2.85,2.43c0.14-0.2,0.2-0.47,0.3-0.68c0.83-1.66,2.71-2.97,4.01-4.27c-0.3-0.12-0.62-0.15-0.95-0.14
	c-0.61,0.01-1.21-0.07-1.82-0.07C93.91,68.49,92.88,68.81,92.17,69.54z M108.99,32.62c2.26,2.77,6.21,3.61,9.57,3.92
	c0.91,0.09,1.83,0.09,2.75,0.16c0.25,0.02,0.48,0.04,0.7,0.05c-0.8-0.37-1.54-0.88-2.29-1.33c-2.12-1.28-7.36-4.06-7.61-6.82
	c0.89,1.3,2.31,2.46,3.56,3.42c0.66,0.5,1.43,0.87,2.15,1.28c0.87,0.5,1.77,0.95,2.64,1.45c0.66,0.39,1.34,0.78,2.07,1.04
	c0.24,0.08,0.49,0.18,0.75,0.26c-0.14-0.14-0.28-0.27-0.47-0.41c-0.66-0.48-1.44-0.94-2.04-1.49c-1.42-1.3-2.21-3.1-3.48-4.51
	c-1.76-1.96-4.01-3.85-6.71-4.16c-2-0.24-3.8,0.42-5.67,0.89c-0.32,0.08-0.64,0.16-0.96,0.22
	C106.82,26.01,107.79,31.14,108.99,32.62z M117.13,19.56c0.41-2.98-0.76-6.17-3.12-8.07c-1.89-1.53-4.56-2.75-6.96-1.89
	c0.16,0.2,0.4,0.16,0.57,0.37c0.17,0.23,0.26,0.52,0.31,0.78c0.59,2.72,0.66,5.2,2.04,7.7c1.24,2.25,2.93,4.2,4.21,6.43
	c0.15,0.26,0.3,0.5,0.45,0.75c-0.07-0.68-0.12-1.36-0.18-2.05c-0.1-1.07-0.34-2.13-0.47-3.2c-0.22-1.81-0.53-3.72-0.54-5.55
	c0.16,2.9,1.13,6.01,1.99,8.78c0.31,0.99,0.69,1.94,1.07,2.9c-0.08-0.71-0.14-1.42-0.11-2.13
	C116.44,22.75,116.91,21.18,117.13,19.56z M97.73,13.52c-1.65,0.11-3.26,0.65-4.57,1.67c-0.79,0.62-1.46,1.38-2.2,2.05
	c0.48,0.07,1-0.03,1.47,0.07c0.49,0.11,1.01,0.5,1.37,0.83c2.43,2.3,3.15,5.22,6.8,6.14c2.84,0.71,5.62-0.14,8.44-0.34
	c0.03,0,0.05,0,0.08-0.01c-2.34-2.05-5.02-4.05-7.78-5.49c-0.38-0.2-0.66-0.5-1.02-0.72c-0.57-0.36-1.14-0.71-1.75-1
	c4.23,0.58,7.89,2.74,11.22,5.31c0.38,0.29,0.78,0.53,1.19,0.77c-0.46-0.59-0.9-1.19-1.3-1.85c-0.99-1.62-2.12-3.15-3.63-4.32
	C103.66,14.81,100.81,13.32,97.73,13.52z M118.63,15.24c0.54-0.69,1.03-1.45,1.54-2.14c0.72-0.97,1.37-1.85,1.87-2.96
	c0.94-2.08,0.98-4.2,0.56-6.41c-0.17-0.9-0.46-1.76-0.87-2.58c-0.19-0.4-0.37-0.87-0.72-1.15c0.03,1.78-2.07,3.3-3.64,4.87
	c-0.69,0.69-1.28,1.39-1.54,2.13c-0.56,1.58-0.36,3.37,0.35,4.87c0.34,0.73,0.62,1.48,0.91,2.22c0.06,0.15,0.12,0.3,0.19,0.46
	c0.24-1.03,0.5-2.05,0.76-3.06c0.43-1.63,0.75-3.57,1.79-4.94c-0.15,0.48-0.19,0.95-0.3,1.44c-0.29,1.25-0.32,2.47-0.47,3.73
	c-0.08,0.7-0.13,1.4-0.21,2.1C118.8,14.3,118.7,14.77,118.63,15.24z M100.09,28.93c1.75,0.37,3.4,1.2,4.97,2.03
	c0.93,0.49,1.75,1.14,2.59,1.77c-0.26-0.45-0.48-0.92-0.71-1.36c-0.36-0.69-0.82-1.1-1.32-1.68c-0.62-0.69-1.37-0.97-2.19-1.38
	c-2.21-1.12-5.77-1.6-8.16-0.34c-0.39,0.21-0.75,0.46-1.07,0.77c2.19-0.2,3.38,2.09,4.96,3.18c1.85,1.28,4.12,2.61,6.46,2.05
	c0.22-0.05,0.48-0.11,0.74-0.2c-0.45-0.41-0.91-0.8-1.39-1.15c-0.66-0.48-1.26-1.1-1.94-1.53C102,30.43,101.15,29.54,100.09,28.93z
	 M61.53,15.44c0.42-4.39-1.99-8.63-6.03-10.41c-0.4-0.18-0.83-0.3-1.19-0.55c0.51,0.54,0.93,1.16,1.12,1.88
	c0.27,1.01-0.29,1.89-0.6,2.82c-0.82,2.44-2.52,4.99-1.55,7.62c0.43,1.17,1.33,2.16,2.18,3.05c0.93,0.99,1.94,1.92,3.11,2.62
	c0.18,0.11,0.36,0.22,0.53,0.34c-0.49-0.78-0.93-1.6-1.28-2.43c-0.87-2.06-1.41-4.57-0.25-6.69c-0.35,0.63-0.24,1.52-0.17,2.2
	c0.14,1.48,0.85,3.04,1.74,4.2c1.32,1.74,3,3.58,4.91,4.66c-0.37-0.44-0.74-0.93-1.08-1.41c-0.52-0.72-1-1.4-1.29-2.25
	C61.03,19.23,61.34,17.36,61.53,15.44z M40.07,18.64c2.77,2.13,5.8,3.12,9.24,3.63c1.03,0.15,2.95,0.62,4.75,0.85
	c-2.49-0.32-5.68-3.13-7.77-4.46c-2.16-1.38-4.62-2.91-5.3-5.6c0.89,0.6,1.83,1.18,2.69,1.83c3.68,2.81,8.76,6.64,13.4,7.4
	c-1.21-0.71-2.27-1.56-3.2-2.68c-1.26-1.52-2.17-3.28-3.39-4.83c-1.84-2.34-4.34-4.19-7.2-5.06c-2.6-0.79-5.77-1.07-8.4-0.25
	c-1.89,0.59-3.92,2.18-5,3.79C34.3,12.38,36.95,16.24,40.07,18.64z M23.1,26.84c0.77-0.47,1.28-1.11,2.26-0.86
	c2.6,0.66,4.85,2.23,7.65,1.43c2.6-0.74,4.07-3.19,6.41-4.19c0.69-0.3,1.45-0.33,2.17-0.42c0.18-0.02,0.35-0.03,0.52-0.02
	c-3.76-1.49-7.81-1.76-11.81-1.4c-0.37,0.03-0.8,0.22-1.16,0.14c2.02-0.39,3.64-1.46,5.84-1.53c1.96-0.06,3.9,0.31,5.75,0.9
	c0.04,0.01,0.07,0.02,0.11,0.04c-0.17-0.11-0.33-0.22-0.5-0.33c-1.44-0.98-2.8-2.15-4.42-2.82c-3.74-1.54-7.97,0.18-10.1,3.48
	C24.7,22.99,23.95,24.96,23.1,26.84z M44.34,0.45C42.56,0.3,40.8,0.7,39.15,1.33c0.7,0.58,0.73,1.37,0.72,2.19
	c-0.03,2.1,2.71,3.58,4.24,4.47c1.04,0.61,5.57,2.45,5.64,3.84c-0.08-1.41-0.86-2.74-1.34-4.03c-0.52-1.38-1.54-2.74-2.53-3.8
	c2.22,0.27,4.35,2.85,5.05,4.88c0.39,1.12,0.92,2.58,0.77,3.76c-0.05,0.38-0.08,0.94-0.19,1.43C55.96,7.67,51.56,1.07,44.34,0.45z
	 M18.22,38.28c1.62-1.55,3.54-0.2,5.34-1.03c1.36-0.63,2.31-2.22,3.17-3.39c0.47-0.64,2.24-3.9,3.09-3.96
	c-0.36,0.03-0.73,0.02-1.11,0.06c-2.14,0.22-6.05,1.08-7.02,3.4c1.13-2.7,5.07-4.27,7.71-4.64c-0.91-0.38-1.91-0.69-2.81-0.85
	c-1.63-0.29-3.16,0.45-4.31,1.57c-1.5,1.46-2.54,3.2-3.4,5.09c-0.69,1.51-1.03,3.02-1.32,4.65C17.83,38.91,17.96,38.52,18.22,38.28z
	 M139.6,65.45c0.48-0.65,0.34-1.56-0.3-2.04c-0.65-0.48-1.56-0.34-2.04,0.31c-0.48,0.65-0.34,1.56,0.31,2.04
	C138.21,66.23,139.12,66.09,139.6,65.45z M134.02,21.04c0.49-0.66,0.35-1.58-0.31-2.07c-0.66-0.49-1.58-0.35-2.07,0.31
	c-0.49,0.66-0.35,1.58,0.31,2.07C132.61,21.84,133.54,21.7,134.02,21.04z M145.27,1.69c0.06,0.39,0.14,0.77,0.25,1.15
	c-0.13-0.56-0.25-1.13-0.33-1.71C145.18,1.13,145.26,1.69,145.27,1.69z M146.66,71.95c3.59-2.91,3.78-8.03,2.12-12.05
	c-1.64-3.96-5.22-6.29-9.52-6.02c-4.24,0.27-7.98,3-8.69,7.32c-0.67,4.1,1.61,8.34,5.94,8.96c4.15,0.59,7.91-2.89,5.68-7
	c-3.22-5.94-10.1,0.72-5.66,4c1.4,1.04,3.32,0.87,4.53-0.32c-0.16,0.37-0.36,0.71-0.58,1c-3.09,4-7.67-0.87-8.26-4.27
	c-0.7-4.03,2.53-6.88,6.34-7.15c4.12-0.29,7.23,2.52,8.17,6.41c0.93,3.84-0.16,8.19-3.98,9.94c-4.04,1.86-9.25,0.82-12.75-1.71
	c-3.2-2.31-5.35-6.15-5.47-10.11c-0.12-3.77,1.9-7.15,4.33-9.89c2.76-3.1,6.14-5.2,9.97-6.74c3.49-1.4,6.44-3.17,9.41-5.48
	l-0.13,0.02c0.49-0.42,0.97-0.86,1.42-1.32c4.11-4.28,6.75-12.31,5.56-18.07c-1.34-6.48-8.13-10.63-9.55-16.62
	c1.95,8.19,8.27,13.28,5.23,23.05c-1.31,4.19-7.64,10.29-11.8,11.66c-4.46,1.46-9.77-0.66-13.53-3.09c-2.21-1.43-4.3-3.2-5.56-5.55
	c-1.25-2.33-1.49-5.01-1.13-7.6c0.66-4.69,2.98-9.38,7.49-11.38c5.07-2.24,10.88-0.71,14.45,3.45c3.74,4.35,4.02,10.93-1.42,14.03
	c-4.95,2.83-11.33,0.3-12.99-5.18c-0.82-2.69,0.06-5.61,2.72-6.86c2.29-1.07,5.74-0.71,7.04,1.72c0.68,1.28,0.48,3.02-0.4,4.21
	c0.55-1.28,0.17-2.82-1-3.69c-1.37-1.01-3.3-0.72-4.31,0.65c-3.67,4.96,6.39,7.86,8.54,2.47c1.13-2.84-1.42-5.56-3.82-6.66
	c-2.7-1.24-5.93-1.02-8.38,0.68c-2.15,1.49-3.48,3.98-3.27,6.61c0.24,2.98,2.2,5.65,4.5,7.43c4.82,3.73,12.05,3.31,16.16-1.35
	c4.56-5.16,1.01-12.97-3.8-16.6c-4.2-3.16-10.53-3.64-15.07-0.87c-4.24,2.59-7.74,8.28-7.74,13.27c-0.01,6.06,4.77,10.86,9.54,13.92
	c0.98,0.63,2.02,1.26,3.1,1.82c-5.06-0.57-12.92-2.9-16.27,0.11c-5.99,5.38,6.93,6.3,9.55,6.46c1.49,0.1,3.06,0.11,4.67,0.04
	c-1.46,1.47-2.76,3.1-3.74,5c-2.31,4.49-3.27,10.34-1.1,15.07c1.85,4.04,5.85,6.68,10,7.93C137.51,74.9,142.98,74.92,146.66,71.95z
	 M134.78,21.65c-0.8,1.08-2.32,1.31-3.4,0.51c-1.08-0.8-1.31-2.32-0.51-3.4c0.8-1.08,2.32-1.31,3.4-0.51
	C135.35,19.05,135.58,20.57,134.78,21.65z M140.37,66.02c-0.8,1.08-2.32,1.31-3.4,0.51c-1.08-0.8-1.31-2.32-0.51-3.4
	c0.8-1.08,2.32-1.31,3.4-0.51C140.94,63.41,141.17,64.94,140.37,66.02z M39.34,38.61c2.81-0.25,5.76,0.67,8.07,2.26
	c-3.3-1.26-6.7-2.26-10.15-0.8c-2.23,0.94-3.81,2.34-5.24,4.28c0.31-0.25,0.61-0.51,0.93-0.75c2.17-1.65,4.67-1.49,7.26-1.12
	c2.86,0.42,5.42,1.23,7.88,2.74c0.99,0.61,1.77,1.38,2.68,2.07c0.87,0.66,2.03,0.89,3.07,1.17c2.81,0.76,4.74-0.97,6.88-2.53
	c-0.85-0.08-1.68-0.22-2.41-0.69c-0.94-0.6-1.62-1.55-2.31-2.41c-2.06-2.58-4.51-4.57-7.72-5.52c-4.25-1.26-8.96-0.29-12.32,2.54
	c0.07-0.04,0.14-0.07,0.21-0.11C37.12,39.28,38.27,38.7,39.34,38.61z M17.93,64.16c-2.45,2.84-3.71,6.64-2.41,10.37
	c0.31,0.88,0.61,1.76,0.9,2.64c0.16,0.48,0.09,0.93-0.03,1.4c-0.08,0.3-0.43,0.53-0.41,0.86c-0.07-0.02-0.12,0.01-0.14,0.09
	c1.56-0.46,3.09-1.6,4.26-2.69c1.98-1.83,3.08-4.37,3.76-6.93c0.6-2.25,0.74-4.47-0.09-6.68c-0.31-0.83-0.77-1.5-1.27-2.15
	c0,0.41-0.07,0.84-0.13,1.21c-0.14,0.87-0.16,1.74-0.39,2.59c-0.41,1.53-0.89,3.01-1.41,4.49c-0.27,0.76-0.75,1.86-0.88,2.65
	c0.3-1.87,0.44-3.76,0.47-5.65c0.01-0.3-0.36-4.02-0.12-4.2C19.27,62.76,18.56,63.43,17.93,64.16z M38.09,57.49
	c-0.56,0.75-0.4,1.82,0.36,2.38c0.76,0.56,1.82,0.4,2.38-0.36c0.56-0.75,0.4-1.82-0.36-2.38C39.72,56.58,38.65,56.74,38.09,57.49z
	 M75.89,17.85c0.36-0.49,0.26-1.17-0.23-1.53c-0.49-0.36-1.17-0.26-1.53,0.23c-0.36,0.49-0.26,1.17,0.23,1.53
	C74.84,18.44,75.53,18.34,75.89,17.85z M0.33,50.55c-0.98,3.15,0.33,6.29,2.38,8.7c2.34,2.76,5.92,5.1,9.67,4.9
	c2.78-0.14,5.12-1.87,7.01-3.79c1.02-1.04,1.84-2.23,2.3-3.62c0.17-0.51,0.29-1.02,0.38-1.55c1.33,5.62,4.5,11.3,8.72,14.04
	c4.51,2.93,10.25,3.83,15.26,1.63c4.3-1.88,7.79-5.96,8.25-10.74c0.43-4.48-2.09-8.46-5.34-11.32c-5.04-4.44-15.25-7.54-18.41,0.31
	c-1.85,4.6,0.38,13.48,6.43,14.16c12.47,1.39,4.43-14.62-0.73-7.65c-1.02,1.37-1.03,3.17-0.18,4.54c-0.1-0.03-0.19-0.06-0.28-0.09
	c-3.31-1.29-4.07-5.07-2.83-8.13c2.07-5.11,9.67-6.58,13.35-3.04c2.91,2.79,4.76,9.13,2.99,13c-2.5,5.46-10.37,6.49-15.34,4.31
	c-5.82-2.55-10.24-11.76-9.43-17.75c0.9-6.61,7.04-13.21,12.93-16.03c9.2-4.41,19.22,0.12,28.25,2.42c4.31,1.1,8.84,2.77,13.2,3.42
	c1.96,0.3,4.13,0.86,5.53-0.94c3.15-4.06-4.93-7.56-7.45-8.63c-4.7-2-12.23-3.85-12.12-10.55c0.05-3.32,1.67-6.86,4.13-9.08
	c2.45-2.22,5.87-2.97,8.85-1.35c3.02,1.64,6.54,5.44,6.8,9.01c0.35,4.72-5.77,6.85-9.55,5.76c-3.35-0.96-5.61-5.26-3.41-8.36
	c1.69-2.39,6.91-1.67,6.75,1.71c-0.03,0.58-0.27,1.19-0.65,1.69c0.08-0.85-0.27-1.72-1.01-2.27c-1.12-0.83-2.7-0.59-3.53,0.53
	c-2.56,3.45,3.46,5.72,5.75,3.57c1.04-0.97,1.3-2.19,0.98-3.54c-1.07-4.42-7.97-4.92-10.22-1.27c-1.48,2.41-0.8,5.52,1.12,7.46
	c2.01,2.03,5.19,3.1,8.02,2.8c2.85-0.3,5.08-2.26,6.1-4.89c2.33-6.01-2.69-11.23-7.94-13.37c-2.43-0.99-4.93-1.03-7.3,0.15
	c-2.48,1.23-4.69,3.34-5.99,5.79c-1.8,3.38-1.58,7.43,0.39,10.69c1.04,1.72,2.43,2.99,4.01,4c-8.82-2.31-19.03-5.56-27.96-2.27
	c-5.18,1.91-10.73,6.85-13.87,11.28c-3.86,5.44-4.3,11.25-5.5,17.57c-0.96,5.09-6.28,9.13-11.42,7.6c-3.07-0.91-5.9-3.41-6.85-6.52
	c-0.72-2.38-0.07-4.94,1.82-6.59c1.54-1.34,3.69-1.92,5.68-1.38c2.49,0.68,4.48,3.1,4.28,5.74c-0.25,3.28-3.87,4.46-6.41,2.7
	c-0.89-0.62-1.76-1.7-1.54-2.86c0.05-0.28,0.16-0.52,0.31-0.74c-0.09,0.62,0.16,1.28,0.7,1.68c0.79,0.58,1.9,0.42,2.48-0.37
	c0.58-0.79,0.42-1.9-0.37-2.48c-2.66-1.97-4.19,2.87-3.28,4.69c1.08,2.17,3.67,2.92,5.85,2.1c2-0.76,3.72-2.67,4.06-4.81
	c0.38-2.43-1.26-4.45-3.1-5.8c-2.02-1.48-4.5-2.29-6.98-1.69C3.35,45.67,1.15,47.88,0.33,50.55z M76.41,18.39
	c-0.56,0.75-1.62,0.92-2.38,0.36s-0.91-1.62-0.36-2.38c0.56-0.76,1.62-0.92,2.38-0.36C76.8,16.57,76.96,17.63,76.41,18.39z
	 M37.63,60.78c-1.24-0.92-1.5-2.67-0.58-3.91c0.92-1.24,2.67-1.5,3.91-0.59c1.24,0.92,1.5,2.67,0.58,3.91
	C40.62,61.43,38.87,61.69,37.63,60.78z"/>
</svg>
