<?xml version="1.0" encoding="utf-8"?>
<!-- Generator: Adobe Illustrator 15.0.1, SVG Export Plug-In  -->
<!DOCTYPE svg PUBLIC "-//W3C//DTD SVG 1.1 Tiny//EN" "http://www.w3.org/Graphics/SVG/1.1/DTD/svg11-tiny.dtd" [
	<!ENTITY ns_flows "http://ns.adobe.com/Flows/1.0/">
]>
<svg version="1.1" baseProfile="tiny"
	 xmlns="http://www.w3.org/2000/svg" xmlns:xlink="http://www.w3.org/1999/xlink" xmlns:a="http://ns.adobe.com/AdobeSVGViewerExtensions/3.0/"
	 x="0px" y="0px" width="212px" height="344px" viewBox="-0.35 -0.77 212 344" overflow="visible" xml:space="preserve">
<defs>
</defs>
<path fill="#C6874A" d="M68.21,253.29c0.8-12.83,0.31-30.16-2.48-53.62l-9.22-8.61l-4.61,0.61c0,0-20.24,33.18-22.17,61.34
	C35.61,252.6,54.71,251.46,68.21,253.29z"/>
<path d="M69.61,254.99l-1.6-0.22c-4.87-0.66-10.98-0.99-18.17-0.99c-8.83,0-16.93,0.51-20.01,0.73l-1.72,0.12l0.12-1.72
	c1.93-28.21,21.55-60.66,22.38-62.02l0.37-0.61l6.02-0.8l10.14,9.46l0.06,0.54c2.55,21.4,3.39,39.53,2.49,53.89L69.61,254.99
	L69.61,254.99z M49.84,250.78c6.56,0,12.25,0.27,16.96,0.82c0.72-13.8-0.12-31.01-2.5-51.21l-8.3-7.75l-3.19,0.42
	c-2.66,4.53-19.09,33.32-21.45,58.34C35.22,251.16,42.26,250.78,49.84,250.78L49.84,250.78z"/>
<path fill="#FFFFFF" d="M29.73,253.02c-1.13,16.55,4.05,31.37,23.4,36.72c0,0,12.81,0.16,15.09-36.45
	C54.71,251.46,35.61,252.6,29.73,253.02z"/>
<path d="M53.12,290.91C53.12,290.91,53.12,290.91,53.12,290.91l-0.32-0.04c-17.48-4.83-25.64-17.6-24.25-37.93l0.07-1.02l1.02-0.07
	c3.1-0.22,11.28-0.74,20.2-0.74c7.31,0,13.54,0.34,18.52,1.01l1.08,0.15l-0.07,1.09C67.07,290.48,53.69,290.91,53.12,290.91
	L53.12,290.91z M30.84,254.12c-0.96,18.4,6.57,29.98,22.4,34.43c1.24-0.17,11.52-2.51,13.73-34.24c-4.69-0.57-10.45-0.86-17.12-0.86
	C41.85,253.46,34.46,253.88,30.84,254.12L30.84,254.12z"/>
<polygon points="18.2,257.56 67.32,258.77 65.51,248.82 17.6,249.42 "/>
<ellipse fill="#FCEE21" cx="25.28" cy="253.94" rx="3.77" ry="3.01"/>
<ellipse fill="#FCEE21" cx="38.54" cy="253.94" rx="3.77" ry="3.01"/>
<ellipse fill="#FCEE21" cx="53.61" cy="254.25" rx="3.77" ry="3.01"/>
<path fill="#C6874A" d="M52.74,183.68c0,0,8.55,112.18-11.84,150.01c0,0,6.91,11.52,43.43,0.33l0.99-14.8l36.52-1.97
	c0,0-2.96,14.81-6.58,21.39c0,0,16.12,6.58,42.44,0.33c0,0,36.19-55.27-5.59-168.76"/>
<path d="M135.55,343.17c-12.92,0-20.41-2.97-20.87-3.15l-1.56-0.64l0.81-1.48c2.71-4.93,5.1-14.89,6.02-19.06l-33.23,1.8
	l-0.97,14.51l-0.99,0.3c-37.21,11.4-44.84-0.48-45.15-0.99l-0.44-0.73l0.41-0.75c19.96-37.02,11.75-148.07,11.67-149.18l2.99-0.23
	c0.35,4.56,8.22,111.33-11.54,149.92c2.11,1.98,11.39,8.03,40.19-0.6l1.01-15.09l39.78-2.15l-0.38,1.9
	c-0.11,0.57-2.63,13.06-5.94,20.22c4.53,1.37,18.76,4.64,39.37-0.12c1.59-2.7,9.05-16.39,12.37-40.94
	c3.43-25.35,3.01-67.78-18.42-125.99l2.81-1.04c21.69,58.92,22.05,101.94,18.54,127.66c-3.83,28.02-12.73,41.86-13.1,42.44
	l-0.33,0.5l-0.58,0.14C149.38,342.47,141.82,343.17,135.55,343.17L135.55,343.17z"/>
<ellipse transform="matrix(0.8668 -0.4986 0.4986 0.8668 -7.2585 23.5479)" fill="#C6874A" cx="40.45" cy="25.36" rx="19.93" ry="25.02"/>
<path d="M44.61,50.72c-8.68,0-17.61-5.76-22.73-14.67c-3.5-6.09-4.9-12.91-3.94-19.22c0.98-6.43,4.28-11.57,9.3-14.45
	C29.97,0.8,33.02,0,36.3,0c8.68,0,17.61,5.76,22.73,14.67c3.5,6.09,4.9,12.91,3.94,19.22c-0.98,6.43-4.28,11.57-9.3,14.45
	C50.94,49.92,47.89,50.72,44.61,50.72L44.61,50.72z M36.3,3C33.55,3,31,3.66,28.73,4.98c-4.21,2.42-6.99,6.79-7.83,12.3
	c-0.86,5.64,0.41,11.77,3.58,17.27c4.6,8,12.51,13.17,20.13,13.17c2.75,0,5.29-0.66,7.57-1.98c4.21-2.42,6.99-6.79,7.83-12.3
	c0.86-5.64-0.41-11.77-3.58-17.27C51.83,8.17,43.93,3,36.3,3L36.3,3z"/>
<ellipse fill="#FBD4BD" cx="100.72" cy="246.31" rx="35.93" ry="46.99"/>
<path fill="#FFFFFF" d="M150.83,256.2c-0.11,2.77-0.21,4.94-0.31,6.28c-0.92,12.43,7.4,38.66,29.82,33.14
	c10.44-2.57,16.66-19.04,17.2-39.42H150.83z"/>
<path d="M174.44,297.54C174.44,297.54,174.44,297.54,174.44,297.54c-6.02,0-11.25-2.36-15.57-7c-7.06-7.6-10.13-19.91-9.52-28.15
	c0.09-1.26,0.2-3.36,0.31-6.24l0.04-1.13h49.04l-0.03,1.2c-0.59,22.39-7.53,37.92-18.09,40.52
	C178.5,297.28,176.42,297.54,174.44,297.54L174.44,297.54z M151.96,257.37c-0.09,2.33-0.18,4.07-0.27,5.19
	c-0.56,7.54,2.37,19.35,8.9,26.38c3.85,4.15,8.51,6.25,13.85,6.25c0,0,0,0,0,0c1.79,0,3.68-0.24,5.62-0.72
	c9.17-2.26,15.5-16.76,16.27-37.1H151.96L151.96,257.37z"/>
<path fill="#C6874A" d="M153.51,170.41c0,0-1.97,67.08-2.68,85.79h46.71C198.37,225,184.57,184.01,153.51,170.41z"/>
<path d="M199,257.7h-49.73l0.06-1.56c0.71-18.48,2.66-85.1,2.68-85.77l0.06-2.22l2.04,0.89c30.66,13.43,45.81,54.03,44.92,87.2
	L199,257.7L199,257.7z M152.39,254.7h43.68c0.38-31.13-13.48-68.4-41.12-81.97C154.61,184.28,153.06,236.5,152.39,254.7
	L152.39,254.7z"/>
<polygon points="47.95,34.51 28.98,20.82 31.9,16.77 50.88,30.45 47.95,34.51 "/>
<polygon points="98.25,274.1 90.03,251.3 94.73,249.6 102.95,272.41 98.25,274.1 "/>
<polygon points="87.54,270.01 85.07,265.66 106.16,253.69 108.63,258.04 87.54,270.01 "/>
<path fill="#C6874A" d="M92.71,27.67c-50.37,0-91.21,36.89-91.21,82.39c0,5.63,0.63,11.12,1.82,16.43
	c8.43,37.63,45.25,65.96,89.39,65.96c39.4,0,72.95-22.56,85.71-54.16c3.56-8.81,5.5-18.32,5.5-28.24
	C183.93,64.56,143.09,27.67,92.71,27.67z"/>
<path d="M92.71,193.95c-43.93,0-82.14-28.23-90.86-67.13C0.62,121.32,0,115.68,0,110.06C0,63.8,41.59,26.17,92.71,26.17
	c51.12,0,92.71,37.63,92.71,83.89c0,9.89-1.89,19.58-5.61,28.8C166.51,171.81,131.5,193.95,92.71,193.95L92.71,193.95z M92.71,29.17
	C43.24,29.17,3,65.46,3,110.06c0,5.4,0.6,10.82,1.78,16.1c8.41,37.54,45.39,64.79,87.93,64.79c37.58,0,71.47-21.39,84.32-53.22
	c3.58-8.86,5.39-18.17,5.39-27.68C182.43,65.46,142.18,29.17,92.71,29.17L92.71,29.17z"/>
<circle fill="#FBD4BD" cx="83.63" cy="134.88" r="44.23"/>
<polygon points="145.4,256.43 203.7,257.86 201.55,246.06 144.69,246.77 "/>
<ellipse fill="#FCEE21" cx="153.81" cy="252.14" rx="4.47" ry="3.58"/>
<ellipse fill="#FCEE21" cx="169.54" cy="252.14" rx="4.47" ry="3.58"/>
<polygon points="156.84,285.2 155.1,284.21 162.35,271.45 164.09,272.43 156.84,285.2 "/>
<polygon points="38,280.03 36.61,279.25 42.4,269.05 43.79,269.84 38,280.03 "/>
<polygon points="33.57,89.7 21.06,78.29 24.43,74.6 36.93,86 33.57,89.7 "/>
<polygon points="116.22,86.36 113.23,82.35 132.18,68.19 135.17,72.19 116.22,86.36 "/>
<ellipse cx="51.26" cy="107.35" rx="13.43" ry="11.04"/>
<path d="M78.18,134.94l-1.86,0.67l-10.26,4.09l6.95,6.21l5.7-9.44l12.85,12.13l5.68-17.89l10.4,16.53l7.74-17.15
	C115.38,130.08,86.36,127.62,78.18,134.94z"/>
<path d="M52.69,147.22l-0.6-1c-6.02-9.97-4.11-28.99-4.03-29.8l2.33,0.24c-0.02,0.18-1.78,17.76,3.15,27.34
	c5.74-3.17,34.09-17.87,62.02-15.39l-0.21,2.34C85,128.27,54,146.44,53.69,146.62L52.69,147.22L52.69,147.22z"/>
<polygon points="80.71,37.01 76.51,16.37 78.81,15.9 83.01,36.54 80.71,37.01 "/>
<polygon points="99.97,39.67 97.68,39.13 105.2,7.12 107.49,7.65 99.97,39.67 "/>
<polygon points="125.4,42.56 123.32,41.48 133.12,22.76 135.2,23.85 125.4,42.56 "/>
<polygon points="135.3,47.39 134.06,45.4 150.16,35.43 151.39,37.42 135.3,47.39 "/>
<polygon points="50.42,338.42 48.52,337.79 52.12,326.99 54.02,327.62 50.42,338.42 "/>
<polygon points="72.6,337.21 70.6,337.21 70.6,329.47 72.6,329.47 72.6,337.21 "/>
<polygon points="126.76,340.92 124.78,340.69 125.68,333.13 127.66,333.37 126.76,340.92 "/>
<polygon points="146.03,340.99 144.03,340.99 144.03,333.25 146.03,333.25 146.03,340.99 "/>
<ellipse cx="66.99" cy="210.34" rx="3.28" ry="3.12"/>
<ellipse cx="135.58" cy="208.46" rx="3.28" ry="3.12"/>
<polygon points="190.65,218.75 188.55,217.7 195.1,204.59 181.23,203.86 188.69,186.9 171.29,195.6 178.5,176.13 164.48,184.67 
	163.25,182.66 183.05,170.61 175.56,190.84 193.45,181.9 184.74,201.7 198.8,202.44 190.65,218.75 "/>
<polygon points="36.94,228.08 24.39,221.61 39.46,221.34 20.73,209.24 43.61,214.19 38.1,201.93 46.53,202.94 46.25,205.27 
	41.94,204.75 47.65,217.46 32.81,214.26 47.21,223.55 33.74,223.79 38.01,225.99 36.94,228.08 "/>
<ellipse transform="matrix(0.7053 0.7089 -0.7089 0.7053 87.7171 -114.6596)" fill="#C6874A" cx="181.77" cy="48.18" rx="25.07" ry="29.38"/>
<path d="M203.76,26.3c-4.53-4.55-10.81-7.06-17.68-7.06c-8.32,0-16.76,3.65-23.15,10.01c-5.84,5.81-9.4,13.23-10.03,20.89
	c-0.31,3.8,0.13,7.44,1.24,10.76c1.06-0.29,2.12-0.56,3.18-0.82c-1.03-2.97-1.45-6.23-1.17-9.67c0.56-6.88,3.79-13.57,9.07-18.83
	c5.78-5.75,13.38-9.05,20.85-9.05c5.99,0,11.45,2.17,15.36,6.1c4.38,4.4,6.49,10.57,5.93,17.35c-0.56,6.88-3.79,13.57-9.07,18.83
	c-5.78,5.75-13.38,9.05-20.84,9.05c-1.77,0-3.49-0.2-5.14-0.57c0.45,1.17,0.83,2.37,1.2,3.53c1.29,0.19,2.6,0.31,3.94,0.31
	c8.32,0,16.76-3.65,23.15-10.01c5.84-5.81,9.4-13.23,10.03-20.89C211.27,38.47,208.83,31.39,203.76,26.3z"/>
<polygon points="174.46,61.3 170.52,58.23 185.4,39.09 189.35,42.16 174.46,61.3 "/>
</svg>
