<?xml version="1.0" encoding="utf-8"?>
<!-- Generator: Adobe Illustrator 14.0.0, SVG Export Plug-In  -->
<!DOCTYPE svg PUBLIC "-//W3C//DTD SVG 1.1 Tiny//EN" "http://www.w3.org/Graphics/SVG/1.1/DTD/svg11-tiny.dtd" [
	<!ENTITY ns_flows "http://ns.adobe.com/Flows/1.0/">
]>
<svg version="1.1" baseProfile="tiny"
	 xmlns="http://www.w3.org/2000/svg" xmlns:xlink="http://www.w3.org/1999/xlink" xmlns:a="http://ns.adobe.com/AdobeSVGViewerExtensions/3.0/"
	 x="0px" y="0px" width="283px" height="394px" viewBox="-0.6 -0.55 283 394" xml:space="preserve">
<defs>
</defs>
<path fill="#333333" d="M184.8,67.05c-1,0.2-1.9,0.4-2.7,0.7c-1.6,0.6-2.5,1.4-2.9,2.4c-0.4-0.2-0.6-0.2-0.9-0.4
	c-3.8-1.8-6-2.8-6.3-3c-3.2-1.1-6.7-1.6-10.4-1.6c-5.3,0.5-9.1,1.4-11.7,2.6c-1.7,1.2-3.1,2.2-4.1,2.9c-0.9-0.5-1.6-0.9-2.2-1.4
	c-0.8-0.5-1.7-1.5-2.7-2.7c-0.8-1-1.7-1.8-2.6-2.4c0-0.2,0-0.2,0-0.4c0-1.9-0.7-3.9-2.1-6c-0.1,0-1.6-1.9-4.7-5.6
	c-4.6-5.6-6.9-11.7-6.9-18.4c0-0.3,0.1-1.5,0.4-3.8c0.2-2.2,0.3-3.5,0.3-3.7c0-6.7-1.9-12.5-5.7-17.3c-3.8-5-8.8-8-14.8-8.7
	c-6.6-1-13.5,1-20.6,5.7c-8.1,5.4-15.9,14.1-23.2,26c-2.6,4.3-5,9.2-7.5,14.8c-1.3,3.2-3.3,8.2-5.9,15.3c-0.5,1.6-1.1,4-1.8,7.4
	c0,0.4-0.1,0.8-0.2,1c-2,2.1-4,4-5.6,5.8c-3.2,3.2-5,5.6-5.4,7.2c-3.6,3.7-6.1,7-7.8,9.8c-2.2,3.6-3.2,7.4-3.2,11.2
	c0,1.2,0,2.2,0.1,2.8c0.1,2,0.5,3.7,1.1,5.2c1.8,5,5.3,7.4,10.4,7.4c7.5,0,14.2-3.5,20-10.5c1.9-2.2,3.6-4.9,5.2-7.7
	c0.8-1.5,1.6-3,2.2-4.5c1-1.7,1.7-3.9,2.4-6.4c0.3-1.4,0.8-3.5,1.5-6.4c1.2-5.1,3.4-9.1,6.4-11.9c3.9-3.6,7.1-6.5,9.3-8.6
	c0.3,1.1,0.8,2.5,1.5,4.2c1.3,3.1,2.9,6.1,4.8,8.9c3,4.4,6.1,7.5,9.2,9.5c2.4,1.3,4.9,2,7.4,2c0.2,0,0.5,0,0.9-0.2
	c-0.4,1-0.6,2.4-0.6,4c0,1.9,0.9,4.2,2.8,7c2.1,3,3.4,5.5,3.8,7.5c0.2,1.2,0.5,3.7,0.8,7.5c0.1,0.4,0.2,0.8,0.2,1.2
	c-0.4,0.2-0.8,0.4-1.3,0.7c-2.5,1.3-5.4,3.3-8.5,5.8c-8.3,7-12.5,12.9-12.5,17.8c0,0.1,0.1,0.7,0.2,2c0.3,1.2,0.6,1.9,1.2,1.9
	c0.4,0,0.5-0.1,0.6-0.2c0.1,0.1,0.3,0.2,0.4,0.3c0.2,0,0.7-0.3,1.5-1c0.9-0.5,1.7-0.8,2.6-0.8l-0.1,0.2c-2.4,4.1-3.6,8.3-3.6,12.8
	c0,0,0,0.7,0,2c0.2,1.3,0.9,1.9,2.1,1.9c0,0,0.4-0.3,1-0.9c0.6-0.6,1.5-1,2.6-1c0.9,0,1.6-0.2,2.2-0.3c-0.3,0.8-0.8,1.7-1.2,2.9
	c-2.2,5.7-3.3,10.5-3.3,14.4v2.1c-2.9,0.3-6.4,0.9-10.5,1.8c-4.3,1-8.3,2.1-12,3.2c-1.4,0.4-2.8,0.9-4.1,1.3
	c-5,1.8-9.2,3.7-12.6,5.9c-0.7,0.4-1.5,1-2.2,1.4c-4.3,2.8-7.9,5.7-10.9,8.5c-0.6,0.6-1.3,1.3-2.1,2.3c-1.7,1.8-3.7,4.1-6,7
	c-4.8,5.8-7.8,12.2-9.1,19.3c-0.1,0.6-0.4,2.2-1.2,5.1c-0.4,1.1-0.7,2.5-1.1,3.9c-1.3,5.2-1.9,8.8-1.9,10.6c0,0.1,0,1.2,0.3,3.5
	c0.1,0.6,0.2,1.2,0.4,1.6c0.1,0.2,0.1,0.4,0.2,0.5c-0.4,0.3-0.8,0.5-1.3,0.9c-4.1,2.6-7.5,4.6-10,6c-0.5,0.3-1,0.6-1.5,0.7
	c-3.7,1.9-6.6,4-8.6,6.6c-1.8,2.3-2.7,4.6-2.7,6.9c0,0,0.1,0.4,0.2,1.3c0,0.5,0,1.1,0.1,1.8c0.3,2.3,0.9,4.5,1.6,6.5v0.1
	c2.2,6.1,5.6,9.2,10.3,9.4c-0.2,0.4-0.4,1.1-0.5,1.9c-0.1,1-0.2,1.9-0.2,2.6c0,4.7,1.2,10.3,3.8,16.9c0.9,2.3,1.8,4.5,2.9,6.6
	c1.6,3.4,3.4,6.7,5.4,9.7c1.5,2.1,4,4.7,7.6,8c0.3,0.2,2.5,2.1,6.6,5.6c0.8,0.7,1.7,1.5,2.6,2.2c2.2,1.9,4.4,3.7,6.8,5.6
	c-6.1,0.3-11.2,2.5-15.5,6.6c-1.6,1.6-3,3.4-4,5.2c-0.9,1.7-1.3,2.9-1.3,3.9c0,0.9,0.3,2,0.8,3.4c0.8,1.9,1.9,3.6,3.3,5.2
	c4,4.5,9.8,6.8,17.6,6.8c14.1,0,25.6-5.2,34.4-15.5c3-3.6,5.4-7.4,7.2-11.6c1.5-3.3,2.2-5.6,2.2-7.1c0-2.3-0.3-4.7-0.8-7.3
	c2.1,0.5,6.4,2.4,12.5,5.7c3.6,1.9,7,3.9,10.4,5.9c5.5,2.1,11.6,4,18.6,5.6c1,0.3,2.1,0.5,3.2,0.8c11.8,2.5,23.4,3.8,35,3.8
	c6.7,0,11.9-0.7,15.5-2c1.6-0.6,2.7-1.1,3.3-1.7c0,0.6,0,1.1,0,1.7c0,1.6,0.4,3.8,1,6.6c0.3,1.6,0.7,3.7,1.4,6.4
	c0.1,0.2,0.1,1-0.1,2.3c0.1,1.6,0.5,3,1.3,4.1c2.5,3.7,8.8,5.5,18.5,5.5c1.4,0,2.5-0.3,3.6-1.1c0.2,0.2,0.3,0.6,0.7,1
	c0.8,1.3,1.9,2.4,3.2,3.5c0.1,0,0.1,0,0.2,0c3.8,2.9,8.8,4.4,15.1,4.4c3.2,0,6-1.2,8.3-3.5c0.3,0.5,0.9,1.1,2.1,1.7
	c1.8,1.2,4.1,1.8,6.6,1.8c1.7,0,3.7-1.5,6-4.4c0.1-0.1,0.2-0.3,0.4-0.5c0.2,0.1,0.3,0.4,0.6,0.5c0.1,0.2,0.3,0.4,0.6,0.5
	c1.5,1.3,3.1,2,4.9,2c1.3,0,3-0.9,5.1-2.5c0.5-0.4,1.1-0.9,1.7-1.5c2.6-2.4,3.9-4,3.9-4.7c0-2.5-1.4-5.3-4.2-8.3
	c-1.2-1.1-2.2-1.9-3-2.1c-0.3,0-0.5-0.1-0.7,0c0.4-1,0.8-1.9,1.3-2.9c1.2-2.9,1.9-4.5,1.9-4.8c0-2.3-1.3-4.7-3.8-7.2
	c-1.6-1.5-3.5-2.9-5.7-4c-0.8-0.5-1.7-0.9-2.5-1.2c-0.2-0.2-0.4-0.3-0.6-0.3c-2.9-1.3-5.4-1.9-7.6-1.9c-1.9,0-3.1,0.5-3.6,1.6
	c-0.3-0.5-0.6-1-0.9-1.3c-0.7-1.2-1.3-2-1.7-2.5c-4.4-3.9-10.6-5.4-18.6-4.6c-2.2,0.2-4.1,0.5-5.8,1c-0.7,0.2-1.4,0.4-2,0.7
	c-1.5,0.5-2.4,1-2.9,1.5c-1.2-0.5-2.3-1-3.5-1.3c0-0.1,0-0.1,0-0.2c0-0.2,0-0.5,0-0.8c-0.1-0.9-0.3-1.9-0.7-2.9
	c-0.3-0.7-0.6-1.3-1-1.9c-1.2-2-1.8-3.8-1.8-5.3c0-0.8,0.3-1.7,0.9-2.5c0-0.1,0.7-0.9,1.9-2.1c1.7-2,2.6-4.4,2.6-7.2
	c0-0.6,0-0.8-0.1-1c-0.3-0.4-0.9-0.7-1.9-0.7c0.9-4.3,1.9-8.2,3-11.6c0.8-2.4,1.6-4.5,2.6-6.5c0.5-0.9,1-1.9,1.7-3
	c0.2-0.4,0.6-0.8,0.8-1.2c1-1.6,2.2-3.1,3.5-4.8c1.9-2.3,3.3-4.3,4.2-6c0.2-0.4,0.5-0.9,0.7-1.2c0-0.2,0-0.3,0.1-0.3
	c0.2-0.6,0.4-1.3,0.6-2c0.1,0,0.1-0.1,0.1-0.1c0.1-0.6,0.2-1.3,0.3-1.9c0.5-2.5,0.8-5.4,0.8-8.7c0-2.1-0.3-4.3-0.9-6.4
	c-0.2-1.2-0.6-2.4-1-3.5c-0.6-1.4-1-2.1-1.4-2.4c-0.4-0.4-0.6,0-0.6,1c0,0.3,0.3,2.1,0.8,5.5c0.5,3.3,0.7,5.2,0.7,5.6
	c0,0.3,0,0.6,0,0.9c-0.1,4.1-1.1,8.1-3,12.2c-0.1,0.3-0.2,0.5-0.4,0.9c-0.8,1.7-2.1,3.9-3.7,6.4c-0.1,0-0.1,0.1-0.1,0.1
	c-0.8,1.1-1.5,2.3-2.3,3.5l0,0c-0.7,1-1.3,1.9-1.9,2.9c-0.3,0.5-0.7,1-1,1.5c-0.7,1.1-1.3,2.1-1.8,3.1h-0.1
	c-0.2-0.2-0.5-0.4-0.8-0.4c-0.6,0-1,0.1-1.1,0.2c-0.3,0.2-0.4,0.3-0.4,0.3c-0.3,0.1-0.6,0.2-1.1,0.2c-1.6,0.2-4.4,0.3-8.4,0.3
	c-6.4,0-11.7-0.3-15.8-0.8c-1-0.2-1.9-0.4-2.7-0.5c-2.6-0.6-4.5-1.4-5.8-2.3c-1-1-1.7-1.6-2.1-2c-0.6-0.3-1.7-0.4-3.3-0.1
	c1.2-1,2.1-2,2.8-3.2c0.9-1.5,1.6-3.2,1.9-4.9c0.1-0.8,0.1-1.5,0.1-2.3c-0.2-2.6-0.3-4.2-0.3-4.8c0-0.8,0-1.8-0.1-2.8
	c-0.1-2-0.2-4.4-0.6-7v-0.1c-0.1-1.6-0.4-3-0.5-4.4c-0.1-0.1-0.1-0.3-0.1-0.5c-0.3-1.7-0.5-3.2-0.9-4.5c-0.7,2.5-1,5.6-1,9.5
	c0,0.1,0,0.1,0,0.1c0,2.3,0,5.5,0.1,9.9c0,0.5,0,0.9,0,1.2c-0.1,3.6-0.5,6.4-1.3,8.6c-0.5,1.1-1.4,2.2-2.7,3.2
	c-0.1,0-0.2,0.1-0.3,0.2c-0.5,0.3-1,0.7-1.7,0.9c-5.2,2.6-14,3.9-26.1,3.9c-0.6,0-1.1,0-1.7-0.1c-2-0.1-4.8-0.4-8.3-0.8
	c-6.7-0.8-13-2-18.6-3.4c-17.4-4.5-26.1-11.2-26.1-20.2c0-0.2,0.1-1,0.3-2.1c0.2-1.3,0.3-2,0.3-2.3c0-2.2,0.6-5,2-8
	c0.5-1.1,1.1-2.3,1.7-3.6c0.2-0.4,0.4-0.8,0.6-1.1c2.1-4,3.1-6.5,3.1-7.4c0-0.2-0.1-0.5-0.3-0.9c0-0.2,0-0.5,0-0.6
	c-0.3,0.5-0.6,0.9-0.8,1.4c-1.1,2.1-2.4,4.6-4.1,7.8c-0.1,0.2-0.2,0.3-0.2,0.5c-0.6,1-1.2,2.1-1.8,3.2c-2.2,4.9-3.4,9.2-3.5,13
	c0,0.1,0,0.1,0,0.2c0,0.1,0,0.1,0,0.2c0.1,2.6,0.7,5,1.7,7.2c1.7,3.7,5,6.9,9.6,9.6v0.1c-0.6,0.7-0.9,1.7-1.2,2.9
	c-0.2,0.9-0.3,2.4-0.3,4.5c0,0.9,0.6,2.9,1.9,6c1.1,3.1,1.7,5.9,1.7,8.3c0,1.5-0.3,3.2-0.9,5c-0.6,1.7-1.5,3.6-2.6,5.6
	c-1.9,3.1-3,5.5-3.4,7c0-0.1,0-0.1-0.1-0.1c-0.1-0.7-0.4-1.2-0.5-1.8c-1.4-3.9-2.1-6.1-2.1-6.5c0-1.6-1.2-4.5-3.8-8.5
	c-2.5-4.1-5.5-8-9-11.9c-2.7-3.1-5.3-5.6-7.7-7.6c-0.4-0.2-0.8-0.5-1-0.7c-0.1-0.1-0.3-0.2-0.4-0.3c0.4,0,0.6,0,1,0
	c3.5-0.3,7.5-1.6,11.6-4.1c4.5-2.5,6.8-4.6,6.8-6.3c0-0.3,0-0.5-0.1-0.6c0-0.1-0.1-0.1-0.1-0.2c-1.6-0.2-3.2,0.4-4.7,1.6
	c-2.4,2-4.2,3.2-5.6,3.9c-0.6,0.2-1.4,0.5-2.5,0.9c-1.2,0.3-2.6,0.8-4.4,1.2c-0.4,0.1-0.6,0.2-1,0.3c-0.9,0.2-1.5,0.5-2.1,0.7
	c-0.7,0.3-1.1,0.6-1.4,1c-2.6-1.6-5-2.4-6.9-2.1c-0.6,0.1-1.2,0.2-1.7,0.6c0.2,0,0.3,0.1,0.3,0.3c2.3,1,4.6,2.2,6.7,3.7
	c0.4,0.2,0.7,0.4,1,0.6c0.1,0.1,0.1,0.1,0.2,0.1c0.4,0.3,0.8,0.6,1.1,0.9c0.4,0.3,0.8,0.7,1.3,1c5.4,4.4,10.4,10.4,14.9,17.9
	c3.1,5,5.5,10,7.2,15.1c0.9,2.9,1.7,5.4,2.1,7.8c0.3,1.7,0.4,3.3,0.4,4.9c0,1.1-0.5,3-1.5,5.8c-1.5,4.2-3.5,7.9-6,11.3
	c-7.7,10.5-18.8,15.7-33.2,15.7c-6.8,0-12-1.7-15.6-5.4c-2.3-2.4-3.5-4.7-3.5-6.7c0-4,3.6-7.5,10.9-10.5c3.3-1.4,6.5-2.5,9.7-3.4
	c0.8,0.5,1.6,1.2,2.4,1.7c4.6,3.3,7.5,5.1,8.4,5.1c0.6,0,1.1-0.3,1.4-0.6c0.2-0.3,0.3-0.4,0.3-0.7c0-1.5-1.1-2.9-3.3-4.3
	c-3.3-1.9-6.2-3.6-8.6-5c-3.3-2-6.6-4.3-9.6-6.8c-0.4-0.2-0.8-0.5-1.1-0.9c-5.7-4.6-10.7-10.1-15.2-16.4c-1.3-1.9-2.6-3.9-3.7-6.2
	c-0.4-0.7-0.7-1.5-1-2.4c-0.7-1.4-1.8-4.1-3.3-8.3c-0.7-1.8-1.2-4.7-1.7-8.5c-0.1-1.3-0.4-2.5-0.5-3.5c-0.4-1.6-0.7-2.9-1.1-4.1
	c0.6,0,1.1-0.1,1.6-0.3c0.3-0.1,0.6-0.3,0.9-0.4c0.7-0.5,1.1-1,1.1-1.5c0-0.3,0-0.5-0.1-0.5c-0.2,0-0.3,0-0.3,0
	c-1.3-0.3-2.3-0.4-2.9-0.4c-3.4,0-6.2-2.5-8.3-7.4c0,0,0-0.1-0.1-0.2c-1.3-2.9-2-5.4-2.2-7.4c0-0.3,0-0.6,0-0.8
	c0-2.8,1.5-5.4,4.5-7.9c1.3-1,3.1-2.2,5.4-3.4c0.4-0.4,0.9-0.6,1.5-0.9c0.9-0.6,2-1.1,3.1-1.6c5.4-2.7,8.7-4.5,10-5.2
	c0.3-0.3,0.5-0.5,0.9-0.7c2.4-1.7,3.5-3.4,3.5-5.1c0-0.2,0-0.4,0-0.5v-0.1c0-0.1-0.1-0.2-0.1-0.2c-0.9,0.3-2.7,1.3-5.5,3.2
	c0.4-6.4,1.3-12.4,2.8-18.3c2-7.4,4.8-14.1,8.4-20c0.2-0.3,0.4-0.6,0.5-0.9c2.4-3.7,4.6-6.7,6.9-9.2c0.9-0.9,1.7-1.7,2.6-2.5
	c2.9-2.6,6.3-5.1,10.1-7.6c3.2-1.9,6.1-3.6,8.9-4.9c1.8-0.9,3.5-1.6,5.1-2.2c1.2-0.5,2.3-0.8,3.3-1.1c0.2-0.1,0.5-0.1,0.7-0.2
	c3-0.7,9.8-1.9,20.2-3.4c6.4-1,9.6-2.1,9.6-3.2c0-0.7-0.5-1.1-1.7-1.4c2.1-0.9,3.5-1.5,4.2-1.5c0,0.2-0.1,0.8-0.5,1.6
	c-0.3,0.7-0.2,1.2,0.1,1.5c0.8,0.8,3.4,1.4,7.8,1.8l-0.2,0.1c-0.7,0.5-1.3,1.6-2,3.4c-0.1,0.2-0.2,0.6-0.3,1.1
	c-1.3-0.2-2.9-0.3-4.7-0.3c-5.3,0.7-10.2,1.8-14.3,3.2c-0.3,0.1-0.5,0.2-0.8,0.3c-3.6,1.3-8.2,3.5-13.8,6.4
	c2.5-0.7,7.3-2.2,14.3-4.7c0.5-0.2,1.1-0.4,1.7-0.5c5.6-1.8,9.8-2.7,12.6-2.7c0.3,0,1.8,0.2,4.2,0.4c-0.1,0.3-0.1,0.6-0.3,1
	s-0.4,1.8-0.9,4c-0.4,2.1-0.7,3.5-0.8,4.2c-2.8,1.2-5.2,2.4-7.3,3.7c-0.4,0.3-0.8,0.5-1.2,0.8c-2.1,1.5-4.1,3.2-6.1,5.1
	c-1.9,2-3.4,3.6-4.2,5.2c0.9-0.5,4.4-2.8,10.3-7.2c0.8-0.4,1.4-0.9,2.1-1.3c2.5-1.5,4.9-2.6,7-3.5c0.4,1.2,1.2,2.5,2.2,3.9
	c1.1,1.5,2.3,2.8,3.7,4c-1,1.2-2.1,2.5-3.1,4c-1.4,1.8-2.3,3.1-2.9,4c-0.3,0.5-0.6,0.7-0.6,0.9l0.2,0.1c0.3-0.1,0.5-0.4,0.9-0.6
	c1.1-1.1,3.1-3.1,5.9-6c0.4-0.4,0.7-0.8,1.1-1c0.1,0.1,0.3,0.1,0.4,0.3c0.1,0,0.8,0.7,2,1.8c1.5,1.2,3.4,2.4,5.5,3.4
	c6,2.8,13.6,4.5,22.7,4.8c0.3,1.2,1.9,2.4,4.4,3.8c3.3,1.6,6.7,2.4,10.4,2.4c3.5,0,6.7-0.5,9.7-1.6c2.8-1.1,4.4-2.3,4.8-3.5
	c4,1.6,8.2,2.3,12.7,2.3c5,0,9.4-1.5,13.3-4.6c1.8-1.5,3.5-3.5,5-5.7c2.4,1.5,4.2,2.7,5.7,3.8c0.3,0.3,0.7,0.7,1.2,1
	c1.3,1.1,3.1,2.6,5.4,4.5c2.7,2.2,4.8,3.6,6.6,4.4l-0.2-0.2c-3.1-4-6.1-7.3-9.1-9.9c-0.9-0.7-1.7-1.4-2.6-1.9
	c-1.3-1.1-3.1-2.4-5.5-3.9c1-1.9,1.9-3.9,2.6-6c0.2-0.5,0.4-0.9,0.5-1.3c0.8,0.3,2.3,0.8,4.5,1.6c4.6,1.7,9.6,4.4,14.9,7.8
	c1.9,1.3,3.7,2.6,5.6,3.9c2.4,1.8,4.5,3.9,6.4,6.1c0.6,0.8,1.2,1.7,1.7,2.6c1.3,1.8,2.9,4.6,4.8,8c3.1,4.6,5.4,10.1,7.1,16.5
	c1.7,5.9,2.5,11.6,2.5,17c0,3.1-1.1,9.2-3.1,18.5c-2.2,9.2-3.3,13.9-3.3,14c0,0.3,0.2,0.6,0.3,0.7c0.1,0,0.3,0,0.6,0
	c1-1.6,2.2-4.8,3.6-9.4c0.7-1.9,1.3-4,1.9-6.3c2.4-8.4,3.6-14.3,3.6-17.6c0-6.8-0.5-12.4-1.6-16.6c-1.2-5.2-3.7-11-7.5-17.3
	c-2.1-3.8-3.7-6.8-4.9-8.6c-0.2-0.4-0.5-0.8-0.7-1.2c-2-2.7-4.3-5.1-6.9-7.1c-3.5-2.9-7-5.3-10.1-7.3c-0.4-0.2-0.7-0.4-1-0.6
	c-7.4-4.5-13.1-6.7-17.5-6.7c-0.1,0-0.3,0-0.4,0c0.2-0.7,0.3-1.3,0.3-1.8c0-0.6,0-1.3,0-2c4.3,0.6,11,2.5,19.8,5.9
	c3.1,1.1,6.1,2.2,9,3.5c2.9,1.1,5.8,2.4,8.7,3.6c0.1-0.2,0.1-0.4,0.2-0.5c-1.8-1.5-3.8-2.9-6.1-4.2c-7.8-4.7-18.4-8.3-31.9-10.9
	c-0.2-2.1-0.6-3.9-1.1-5.4c-0.3-0.6-0.5-1.5-0.9-2.8c0-0.1,0-0.1,0-0.1c3.5-0.2,8.4-0.3,14.6-0.3c2.5,0,7.2,0.5,14.2,1.7
	c3.4,0.5,6.7,1,9.7,1.6c1.1,0,2.6,0.2,4.5,0.5c-5.1-2.3-9.1-3.8-12-4.4c-3.5-0.7-13.5-1.3-29.7-1.8c0.4-0.4,0.7-1.3,1-2.9
	c0.2-2.3,0.3-3.9,0.5-4.7h1.5c2.2,0,3.3-0.8,3.5-2.1c-0.1-1.9,0-3.2,0.2-4.1c1.3,0.4,2.2,0.2,2.7-0.9c0.3-0.5,0.4-1.2,0.4-1.9
	c0-0.3-0.2-1-0.6-2.1c-0.5-1.2-0.9-1.8-1-1.9c0.1-0.1,0.7-0.2,1.6-0.3c1-0.2,1.7-0.2,2.1-0.2h1.7c0.1-0.1,0.1-0.5,0.1-1.2
	c0-4.8-1.7-9.6-5.2-14.5c-1.3-1.8-2.5-3.1-3.7-3.9c-0.2-0.2-0.5-0.4-0.7-0.5c1.3-1.7,2.4-3.4,3.1-5.3c0.6-1.6,1-2.9,1-3.9
	c0-2.2-0.4-5.4-1-9.5c-0.6-4.5-1.1-7.5-1.3-9c-0.2-1-0.3-2.6-0.4-4.6c0-2.1-0.2-3.7-0.3-4.7c-0.4-1.6-0.7-2.7-1-3.5
	c1-0.5,2-1.5,2.9-3.3c0.4-0.7,0.7-1.4,1-2c0.3,4.8,1.6,9.6,3.9,14.4c1.5,3.1,3.8,6.9,7,11.4c0.7,1,1.5,2,2.3,3.1
	c5.8,7.7,9.3,12.8,10.9,15.2c4,6.1,6.8,12.1,8.5,18c0.1-0.3,0.1-0.5,0.1-0.9c0.2,0.4,0.3,0.9,0.4,1.4c0.5,2.6,0.9,4.1,0.9,4.5
	c0,0.2-0.1,1.2-0.3,3.3c-0.1,2.4,0,4.6,0.4,6.6c0.9,6.2,3.6,9.4,8,9.4c8.7,0,14.5-5.8,17.4-17.3c1.4-5.8,2-12.2,1.7-19
	c0-6.7-0.4-12.8-1.1-18.3c-1-6.4-2.5-12.7-4.6-19c-0.5-1.7-1.1-4.7-1.9-9.2c-0.7-4.2-1.5-7.4-2.2-9.5c-2.4-6-5.4-10.8-9-14.3
	c-1.4-1.3-2.6-2.1-3.5-2.4c-1-1.9-2.4-4.5-4.2-7.8c-2.6-4.7-4.2-8.5-5.2-11.5c-1.4-4.5-3.1-8.5-5.1-11.9c-2.5-4.4-5.7-8.3-9.4-11.7
	c-2.3-2.3-6.1-3.4-11.6-3.1c-6,0.1-10.3,2-13.1,5.7c-0.9,1.2-1.8,3.2-2.8,5.8c-1.2,3.1-2,5.1-2.5,6c-0.7,1.2-2,3-3.9,5.7
	c-1.7,2.3-3,4.3-3.8,5.8c-0.9,1.8-3.6,3.9-7.9,6.2C186.8,63.45,185,65.35,184.8,67.05z M204.1,52.05c0.7-1.1,1.3-2.1,1.8-3
	c1.1-2.1,2.3-4.7,3.4-8c1.2-3.1,2-5.2,2.7-6.3c1.2-1.8,2.6-3.3,4.6-4.1c2.2-1,5.2-1.4,9.2-1.4c1.8,0,3.5,0.3,5.3,1
	c2.7,1.2,5.2,3.4,7.7,6.5c0.1,0.2,0.2,0.3,0.4,0.5l0,0c2.6,3.6,5.4,9,8.3,16c4.3,10.5,6.6,16,6.8,16.5c2.3,4.6,4.4,7.1,6.7,7.5
	c0.6,0.7,1.2,1.7,2,2.7c3.3,4.2,5.5,8,6.5,11.1c0.7,2.1,1.3,5.1,2.1,9.1c0.9,4.2,1.6,7.1,2.1,8.8c2.5,8.5,4,14.8,4.8,19
	c0.7,4.5,1.1,10.2,1.1,17c0.4,5.8,0,11.5-1.3,17.2c-2.5,11.1-7.8,16.7-16.1,16.7c-1.8,0-3.1-0.8-3.9-2.4c-0.6-1.2-1-3.3-1.3-6.3
	c-0.5-4.7-0.8-7.6-0.9-8.6c-0.5-2.9-1.3-5.6-2.3-7.9c0-1-0.2-2-0.3-3.1c-0.8-3.3-2.3-6.8-4.5-10.5c-0.2-0.3-0.3-0.4-0.4-0.6
	c-2.4-3.7-6.4-9-12.4-16c-1.6-1.8-3-4.2-4.4-7c-0.2-0.5-0.4-1-0.6-1.5c-2.1-4.7-3.5-7.5-4-8.5c-0.8-1.2-1.4-2.6-1.9-4.2
	c-0.4-1.8-0.7-3.3-1-4.2c-0.1-0.4-0.2-1.1-0.3-2.2c-0.2-1-0.4-1.7-0.4-2.2s-0.1-1-0.3-1.3c1.3-1.3,2.9-2.7,4.8-4.4
	c1.3-1.1,3.1-2.7,5.6-4.7c-0.5,0.5-0.7,1.5-0.9,2.9c-0.1,0.5-0.1,1.5-0.1,3c0,4.9,1.8,10.4,5.1,16.4c0.3,0.5,0.7,1.1,1,1.8
	c1,1.6,2.3,3.6,4,6.3c2.3,3.7,4.1,6.7,5.4,9c2.3,4.3,4,8.8,5.3,13.5c0.5,2.3,1.1,6,1.8,10.7c0.2,1.3,0.4,2.3,0.6,3.3
	c0.3,1.7,0.7,3,1.2,3.8c0.9,1.7,2.5,2.5,4.6,2.5c2.6,0,4.5-1.8,5.4-5.5c0.3-1.1,0.5-2.4,0.6-3.8c0-0.6,0-1.2,0-2
	c0-5.7-1-11-2.9-15.9c-1-2.5-3.4-7-7.2-13.5c-0.3-0.6-0.6-1.2-1-1.8c-3.1-5.6-5.6-10.7-7.4-15.5c-3-7.7-5.3-16.3-7-26.1
	c0.2-0.7,0.3-1.3,0.3-1.9c0-0.8-0.2-1.5-0.4-2.2c-1.3,2.2-2.3,4.1-3,5.5c-1.5,2.7-3.2,4.9-5.1,6.4c-4.2,2.7-7.2,4.8-8.9,6.1
	c-1.9,1.4-3.3,2.9-4,4.2c-0.5-1-1.4-2.2-2.5-3.6c-2.1-2.6-3.6-3.4-4.5-2.4c0.5,0.6,1,1.2,1.2,2c0.2,0.2,0.3,0.9,0.5,1.8
	c0.2,0.7,0.8,1.4,1.8,2.1c0.9,0.6,1.4,1.3,1.4,1.9c-0.3,0.9-0.6,1.8-0.9,2.7c-0.8,1.7-1.5,2.6-2.1,2.6c-1.2,0-2.1-0.9-2.8-2.5
	c-0.8-1.7-1.7-2.6-2.7-2.6c-0.3,0-0.5,0.2-0.7,0.3c-0.2,0.2-0.3,0.4-0.5,0.9c0.6,0.3,1,0.8,1.5,1.6c0.2,0.3,0.3,0.6,0.4,0.9
	c0.2,0.5,0.4,1,0.5,1.3c0.9,2,2.4,3,4.3,3c-0.2,0.7-0.2,1.8-0.2,3.3c0,1.3,0.4,5.7,1.2,13.5c0.7,7.7,1.1,12.4,1.1,14
	c0,2.7-1.4,5.4-4,8c-3.8,3.9-9.4,6.2-16.9,7c-2,0.2-4,0.3-6.2,0.3c-8.2,0-13.2-0.4-15-1.3c-0.3-0.5-0.7-0.8-1.2-1
	c0.2-0.5,0.3-0.9,0.3-1.5c0-0.1-0.1-0.3-0.4-0.8c-0.3-0.4-0.5-0.7-0.8-1c-1,0.4-1.6,0.8-1.7,1.3c0,0.4-0.1,0.7-0.1,1.3
	c-0.5,0.9-3.8,1.4-9.8,1.4c-0.1,0-0.2,0-0.3,0c-13.4,0-24.4-3.3-33.2-9.9c-0.1-0.8-0.3-1-0.7-0.8c-0.1,0-0.2,0-0.3,0
	c-0.3-0.3-0.7-0.6-1.1-1c-3.1-2.6-5.6-5.4-7.7-8.5c-1.4-2.3-2.4-4-2.6-5.3c-0.4-1.7-0.8-4-1.1-7c-0.2-3.2-0.5-5.6-0.7-7
	c-0.1-1.8-1.4-4.3-3.5-7.5c-2-3-3-5.3-3-7c0-1.1,0.4-2.5,1.4-4.3c0.6-1.2,1.1-2.2,1.5-3c0.3-0.7,0.6-1.3,0.7-1.7
	c-2.4,2.2-4.1,3.7-4.9,4.7c-4.5-1.5-8.3-3.6-11.2-6c-0.4-0.4-0.8-0.7-1-1c-1.9-1.6-3.8-4.1-5.9-7.4c-2.2-5-3.7-8.3-4.6-10.2
	c0.9-0.9,1.6-1.6,2.1-2.1c0.4-0.4,0.9-0.8,1.3-1.3c0,0.4,0,0.8,0,1c0,0.3,0.3,1.2,1.2,2.6c1,1.8,2.3,3.4,3.8,5
	c0.1,0.1,0.3,0.3,0.5,0.5c1.3,1.3,2.6,2.4,4.1,3.2c3.2,2.1,6.6,3.1,10.4,3.1c1.2,0,2.3-0.6,3.2-1.6c0.9-1,1.3-2,1.3-3
	c0-0.8-1.5-3.4-4.6-7.7c-2.7-4.5-4.2-9-4.4-13.5c-0.1-0.6-0.2-1.3-0.2-1.9c1.1-10.4,1.6-15.6,1.6-15.7c0-0.4-0.1-0.6-0.2-0.7
	c0-0.1,0-0.2-0.2-0.3c1.3-3.1,2-5.2,2-6.4c0-0.6-0.1-1-0.2-1.3c-2.2,2.5-4.3,6.2-6.5,11.2c-2.7,6.1-4.7,10.2-6,12.3
	c-4.6,7.5-12,15.5-22.2,24.2c-3.4,2.8-5.6,6.6-6.9,11.6c-0.6,2.7-1,4.8-1.3,6.2c-0.6,2.4-1.2,4.5-1.9,6.1c-0.8,1.9-1.5,3.7-2.3,5.3
	c-1.3,2.9-2.9,5.5-4.5,7.7c-5.1,6.7-11.8,10.1-20,10.1c-3.2,0-5.5-1.9-6.8-5.5c-0.7-1.9-1-4-1.1-6.2c0-0.1,0-0.2,0-0.3
	c0-2.9,1.5-6.7,4.4-11.2c1-1.5,1.9-2.8,2.6-4.1c1.9-2.9,3.1-5.1,3.9-6.6c2.7-2.4,4.5-4.1,5.4-5.1c0.9-1,1.6-1.8,2.1-2.7
	c-0.1,0.8-0.4,1.5-0.5,2c-0.8,2.2-2.2,4.9-4.3,8.3c-1.4,2.4-2.2,4.7-2.2,6.8c0,0.4,0,0.8,0,1.1c0,0.6,0,1.1,0.1,1.3
	c0.3,0.8,0.8,1.6,1.9,2.3v-0.1c0-0.2,0-0.3-0.1-0.4c0-0.6-0.1-1.3-0.4-2.2c-0.2-1.1-0.3-1.8-0.3-2.1c0-1.5,0.4-3.1,1.3-4.8
	c0.4-0.8,1.4-2.4,3-4.7c3-4.5,4.6-8.8,5-12.8c0.2-3.2,1.3-7,3.1-11.5c1.1-2.6,2.9-6.3,5.4-11.1c1.4-2.6,3.6-7.1,6.9-13.4
	c3.1-5.6,6.2-10.3,9.4-14c8.7-10.5,19.2-15.8,31.6-15.8c6.7,0,11.8,3.5,15,10.4c2,4.2,3,8.1,3,11.7c0,0.3-0.1,1.7-0.4,4
	c-0.2,2.4-0.4,3.7-0.4,4c0,2.7,0.5,5.7,1.4,8.8c0.9,3.5,2.1,6.4,3.6,8.5c0.9,1.2,2,2.7,3.4,4.4c1.4,2,2.6,3.4,3.4,4.3
	c0.7,0.7,1.1,1.9,1.5,3.6c-1.5,0.2-3.3,1.1-5.2,2.7c-3.2,2.4-4.7,4.2-4.7,5.4c0,0.3,0,0.6,0,0.6s0-0.1,0.1-0.2l0.5,0.1
	c0.8-1.2,1.9-2.5,3.5-3.7c1.8-1.5,3.4-2.3,4.8-2.3c0.5,0,1.1,0.1,1.7,0.3c0.4,1,0.8,1.7,1.4,2.1c0.2-0.1,0.3-0.4,0.4-0.9
	c0.5,0.5,1.4,1.3,2.7,2.6c2.9,2.7,6.2,4.2,9.9,4.2c0.7,0,1.2-0.3,1.6-1c-0.5-0.6-1.7-1.2-3.6-1.9c-0.2-0.1-0.5-0.1-0.6-0.2
	c0.8-0.3,2.5-0.9,5-1.7c3.6-1.3,7.1-2,10.6-2c2.5,0,7.4,1.8,14.6,5.1c6.9,3.2,10.3,4.9,10.3,5.4c0,0.3-0.1,0.6-0.3,1.1
	c-0.2,0.4-0.3,0.7-0.4,0.8l0.3,0.1c0.8-0.9,1.3-1.4,1.5-1.7c0.6-0.8,1-1.5,1-1.9c0-0.9-1.6-2.1-4.9-3.7c-1.5-0.6-2.7-1.2-3.8-1.6
	c0-0.1,0.1-0.1,0.1-0.2c0.6-0.8,1.4-1.3,2.1-1.3c6.8,0,10.6,0.5,11.7,1.3c0.3,0.2,0.6,0.7,0.6,1.4c0.1,0.9,0.2,1.5,0.5,2h0.6
	c0.1,0,0.3,0,0.5-0.2c0.4-0.3,0.6-1.1,0.6-2.5c0-1.3-1-2.5-3-3.5c-1.8-0.8-4-1.3-6.6-1.3c-0.2,0-0.4,0-0.6,0c1.6-1.4,4-3.3,7.1-5.7
	c2.9-2.3,5.2-4.7,7.2-7C203,53.45,203.5,52.75,204.1,52.05z M242,78.55l0.8,3.3c0,5.5,1.3,11.2,3.6,17.1c1.3,3.4,3.8,8.2,7.2,14.2
	c0.2,0.3,0.4,0.5,0.5,0.8c3.9,6.6,6.4,11.5,7.7,14.8c2.4,5.6,3.5,10.9,3.5,16c0,0.1-0.1,1.7-0.5,4.7c-0.7,2.9-2,4.4-3.6,4.4
	c-1,0-2.1-2.9-3.5-8.8c-1.1-5.1-1.7-8.4-1.7-9.7c0-1.7-1.8-5.9-5.3-12.2c-0.3-0.6-0.6-1.2-1-1.9c-0.3-0.5-0.6-1-0.9-1.5
	c-2.9-5.3-5.1-8.8-6.3-10.4c-0.3-0.4-0.6-0.7-0.9-1.2c-2.2-3.4-3.9-7.3-5-11.9c-1-5.9-2-10.2-2.8-13c0.4-0.3,0.8-0.6,1.1-1
	c2.9-2.6,5.1-5,6.3-7.3C241.3,75.65,241.6,76.95,242,78.55z M214.5,143.25c0.6-0.5,1.2-1.1,1.8-1.7c0.2,0.4,0.7,1.2,1.4,2.4l0,0
	c0.3,0.3,0.5,0.7,0.8,1.1c1.9,2.6,3.1,4.3,3.5,5.1c0.6,1.3,1.2,2.8,1.7,4.6c0.3,1,0.7,2.5,1.2,4.4l-0.3,0.1
	c-1.1-0.3-2.3-0.1-3.4,0.2c-1.2,0.4-1.8,1-1.8,1.8c0,0.4,0.3,1,1,1.9c0.7,1,1.1,2,1.1,2.9h-0.2c-1.7-0.3-3-0.3-3.6,0
	c-0.3,0.1-0.5,0.2-0.6,0.5c-0.2,0.2-0.3,0.5-0.3,0.9c0,0.2,0.1,0.8,0.2,1.7c0.2,0.8,0.2,1.5,0.2,1.8c-0.2,1.5-1.2,2.2-3,2
	c-1-0.1-1.6-0.2-1.7-0.2c-0.3,0.1-0.4,0.2-0.5,0.3c-0.2,0.2-0.3,0.3-0.3,0.6l0.6,2.3c0.2,0.7-0.1,1.7-1,3.1
	c-1.3-0.2-2.2-0.2-2.8-0.1c-0.8-0.5-1.2-0.2-1.2,1.1c0,0.1,0.2,0.8,0.5,2c-3,0.4-4.9,1.4-5.7,3c-0.1,0.3-0.3,0.5-0.3,0.9
	c0.2,0,0.4,0,0.8,0.2c0.1,0.1,0.4,0.1,0.5,0.2c0.1,0,0.4,0,0.5,0c0.6,0,1.1-0.1,1.3-0.3c0.3-0.4,0.6-0.6,1.1-0.7
	c0.6-0.3,1.5-0.4,2.6-0.5c0.2,0.5,0.4,1.1,0.6,1.6c0.6,2.2,1.1,4.1,1.4,5.9c-1.4,0-2.7,0-3.8,0.1c-1.5,0.1-2.6,0.5-3.4,0.9
	c-0.9,0.6-1.4,1.2-1.4,1.9v0.7c0.1,0.1,0.2,0.3,0.2,0.4c0.3,0.2,0.6,0.3,1.1,0.3c0.3,0,0.8-0.2,1.8-0.7c0.6-0.3,1.7-0.5,3.4-0.5
	c0.7-0.1,1.6-0.1,2.5-0.1c0.1,0.5,0.1,1,0.1,1.5c0,0.4-0.1,1-0.4,1.8c-0.1,0.6-0.2,1.2-0.5,1.9c-0.7,2.4-1.7,4.5-2.9,6.5
	c-0.2-0.1-0.4-0.2-0.7-0.4c-3.1-1.7-5.4-2.7-6.8-2.7c-0.7,0-1.2,0.2-1.5,0.6c-0.1,0.2-0.1,0.4-0.1,0.7c0-0.2,0.6,0.1,1.8,0.6
	c1,0.5,2.5,1.3,4.4,2.4c0.6,0.3,1.1,0.6,1.6,0.9c-1.3,1.8-2.7,3.3-4.3,4.5c-3.5,2.8-7.8,4.2-12.7,4.2c-3.2,0-6.5-0.6-10-1.9
	c-1.5-0.5-2.9-1.1-4.4-1.8c-2.9-1.6-5-2.7-6.2-3.2c2.8-2.1,4.3-3.7,4.3-4.9c0-0.2-0.1-0.5-0.1-0.6c0,0-0.1-0.1-0.1-0.2
	c-0.3-0.1-0.4-0.2-0.5-0.2c-0.1,0-0.4,0-0.7,0c-1,0-2,0.5-3.1,1.4c-1.6,1.4-2.9,2.5-3.9,3.2c-4.3,3.1-10.2,4.7-17.7,4.7
	c-10.8,0-19.5-3-26-9.1c2-1.3,3.9-1.9,5.6-1.9c0,0,0.3,0.2,0.6,0.7c0.5,0.6,1.1,0.9,1.8,0.9c0.5,0,0.9-0.2,1.3-0.5
	c0.3-0.4,0.6-0.9,0.6-1.4c0-2.7-1.7-3.8-4.9-3.2c-2.5,0.5-4.9,1.7-7,3.6c-1.8-2.1-3.3-4.2-4.4-6.5c1-0.2,1.9-0.3,2.7-0.3
	c0.6,0,1.3,0.1,2.2,0.3c0.5,0,0.9-0.5,0.9-1.5c0-2.5-2.4-2.9-7.1-1.4c-0.4-1.1-0.6-2-0.6-2.6c0-1,0.4-2.8,1.2-5.3
	c1,0.1,2.1,0.2,3.2,0.3c0.4,0,0.6-0.1,0.7-0.2c0.1,0,0.1-0.2,0.2-0.3c-0.7-1-1.4-1.5-2.2-1.7c-0.3-0.1-0.7-0.2-1.2-0.2
	c0.6-2.1,1-3.5,1-4.1c0-0.4,0-0.5-0.1-0.6c1.5,0.1,3.1,0.2,5.1,0.4c2.4,0.2,4.1,0.8,5.1,2.1c0.5,0.6,0.9,1.6,1.2,3
	c0.1-0.4,0.5-0.9,0.9-1.5c0.4-0.5,0.6-0.9,0.6-1.3c0-1.5-1.3-2.7-3.7-3.7c-3.1-1.3-7.8-2-14.2-2.3v-1.5c0.3-0.4,0.5-0.9,0.4-1.4
	c0-0.9-1-1.3-2.9-1.3c-1.4,0-3,0.4-4.8,1.1c-0.2,0.2-0.5,0.3-0.7,0.4c-1.3,0.6-2.1,0.9-2.5,1.1c-0.1-0.2-0.1-0.8-0.1-1.6
	c0-2.2,0.6-4.9,2-8.2c1.2-3.2,1.9-5.7,1.9-7.2c0-1-0.1-1.8-0.2-2.1c0-0.1,0-0.2,0-0.3c-0.1-0.4-0.5-0.6-0.9-0.8
	c-0.2-0.1-0.5-0.2-0.7-0.2c-1.3,0-2.5,0.2-3.7,0.4c-0.3,0.1-0.8,0.3-1.7,0.6c0-0.1-0.1-0.1-0.1-0.3c0,0,0-0.3,0-0.7
	c0-2.3,0.9-5.3,2.7-8.9c1.8-3.3,2.7-5,2.7-5.1c0-1.1-1.5-1.4-4.7-0.5c-1.5,0.4-2.6,0.9-3.4,1.4c0.2-0.7,0.4-1.3,0.8-2
	c0.8-2,1.8-3.9,2.9-5.7c2.4-4,5.4-7.6,9.1-10.8c2.4-2.2,4.8-4,7-5.4c0.3,1.9,0.5,3.4,0.8,4.6c0.2,1.2,1.1,2.9,2.6,5.1
	c1.7,2.5,3.7,4.9,6.1,7c0,0.1,0,0.1,0.1,0.2c0.5,0.5,1.2,1,1.8,1.6c0.5,0.4,1,0.7,1.5,1.1c-1.7,2.8-2.5,5.5-2.5,8
	c0,2.8,0.7,5.3,2.2,7.3c2.7,3.9,7.6,5.8,14.7,5.8c4.7,0,9-0.8,12.9-2.4c1.3-0.6,2.6-1.2,3.8-1.9c3-1.8,5.4-3.8,7-6
	c4,0,6.8-0.5,8.5-1.2c0.5,0.7,1.4,1.2,2.8,1.7c1.8,0.5,4.6,1,8.2,1.2c0,0,0,0.1-0.1,0.1c-0.1,0.3-0.3,0.7-0.3,1.1
	c0,1.2,0.5,2.8,1.3,4.6c0.4,0.7,0.7,1.3,1.1,2c2.4,4.2,5.5,6.2,9.5,6.2c1.3,0,2.6-0.2,4-0.6c3.9-1.1,7.4-4.1,10.5-8.7
	c1.4-2.1,2.6-4.4,3.6-6.8c0.2-0.4,0.3-0.8,0.4-1.1c0.1,0.2,0.2,0.3,0.3,0.6c0.2,0.4,0.5,0.9,0.8,1.6c0.9,1.5,1.4,2.8,1.4,3.8
	c0,0.8-0.1,1.6-0.1,2.3c-0.1,0.2-0.1,0.4-0.1,0.7c0,0,0,0.2-0.1,0.2v0.1c-0.9,6.2-4.7,11.6-11.3,16.4c-3.9,2.5-6.6,4.2-8,5.1
	c-0.6,0.3-1.1,0.7-1.5,1.1c-1,0.7-1.6,1.4-1.9,2c-0.2,0.2-0.3,0.5-0.3,0.7c0,0.6,0.1,0.9,0.2,1c0.2,0.2,0.4,0.3,0.5,0.4
	c0.2,0,0.5,0,0.9,0c0,0,0.1,0,0.3-0.1c0.5-0.3,1.4-0.9,2.7-1.7c1.2-0.8,3-1.9,5-3.3c3.3-2.2,6-4.1,7.8-5.6c1.3-1.1,2.3-2.1,3-2.8
	c0.3-0.4,0.7-1.3,1.3-2.8c0.5-1.3,1-3,1.7-5.2c0-0.1,0-0.1,0-0.1c1.5-4.6,2.3-7.4,2.3-8.4c0-2.3-0.9-4.5-2.5-6.9
	c0-0.1,0-0.1-0.1-0.1c-0.6-0.9-1.1-1.4-1.5-1.5V143.25z M213.1,144.45c-0.4,0.5-0.9,1.2-1.3,2.2c-1.6,3.1-2.6,5-3.1,5.9
	c-3.1,5.2-6.8,7.9-10.9,7.9c-0.8,0-1.6-0.2-2.3-0.3c-2.9-0.7-5.1-2.5-6.9-5.5c-0.9-2-1.5-3.4-1.9-4.1c-0.3-0.6-0.6-1-0.9-1.3
	c1.9,0.1,3.9,0.2,6.2,0.2c0.1,0,0.1,0,0.2,0c0.7,0,1.4,0,2.2,0c0.9,0,1.9,0,2.8-0.1C203.7,148.95,209,147.35,213.1,144.45z
	 M210.8,181.85c-0.1-0.3-0.2-0.4-0.2-0.6c0.5,0.2,0.9,0.4,1.2,0.6c-0.1-0.1-0.2-0.1-0.2-0.1C211.3,181.75,211.1,181.75,210.8,181.85
	z M127.6,138.85c0.1-0.3,0.2-0.6,0.3-0.9c2.1,1.5,4.3,2.7,6.6,3.9c3,1.4,6.1,2.6,9.5,3.4c-0.2,0-0.3,0.2-0.4,0.2c-1.4,0.8-2,2.1-2,4
	c0,0.5,0.1,1,0.5,1.5c0.5,0.9,1.5,1.3,2.7,1.3c0.2,0,0.3,0,0.4-0.1c-0.5-0.4-0.7-0.9-0.7-1.5c0-0.7,0.3-1.2,1.2-1.8
	c0-1.2,0-1.7,0-1.9c0-0.5-0.1-1-0.3-1.3c4.8,1.1,10.1,1.8,15.8,1.8c-2.5,1.6-4.2,2.7-5.2,3.2c-3.8,2.2-7.4,3.6-10.7,4.3h-0.1
	c-1.4,0.3-2.7,0.5-4,0.5c-0.7,0-1.5,0-2.2-0.1c-5.1-0.4-8.7-1.9-10.8-4.7c-1.4-1.8-2-3.9-2-6.2
	C126.2,142.75,126.6,140.95,127.6,138.85z M152.3,217.75c3.5,0,7.9-1.6,13-4.8c0.5-0.4,0.9-0.6,1.4-0.9c1.3,1.4,3.5,3,6.7,4.8
	c0.5,0.2,1.1,0.5,1.6,0.7c-1.4,0.5-3.2,1.1-5.3,2c-2,0.8-4.4,1.2-7.1,1.2c-3,0-6.1-0.7-9.4-1.9c-1.3-0.5-2.4-0.9-3.2-1.1
	C150.7,217.75,151.6,217.75,152.3,217.75z M129.8,304.95c2.8,0.3,5.6,0.5,8.5,0.6c0.6,0,1.2,0,1.9,0.1c1.4,0,2.8,0,4.3,0
	c0.7,0,1.3,0,2.1,0l0,0c7.6-0.2,13.6-1.1,18.3-2.8c1-0.4,1.9-0.9,2.8-1.4c0.8-0.4,1.5-0.8,2.1-1.2c0.2-0.1,0.4-0.2,0.5-0.3
	c0,0.2,0.1,0.5,0.3,0.8c0.9,2.3,4.6,4.2,10.9,5.6c0.7,0.1,1.5,0.3,2.2,0.5c0.3,0,0.5,0.1,0.7,0.1c5.6,1,11,1.5,16.2,1.5h0.1
	c0.6,0,1.3,0,1.9,0c2.8-0.1,5.1-0.2,6.8-0.4c0.4-0.1,0.9-0.1,1.3-0.1c-0.1,0-0.1,0.1-0.1,0.2c-2,4.4-3,8.9-3,13.6
	c0,0.4,0,0.7,0.1,0.7c0.4,0.4,1,0.6,2.1,0.7c-1.1,2.2-2.5,4.3-4.2,6.4c-0.6,0.8-0.9,2.4-0.9,4.6c0,2.3,0.6,4.3,1.8,5.9
	c0.5,0.8,0.8,1.5,1.1,2.3c0.3,0.6,0.5,1.3,0.5,2c-2.1-0.5-4-0.9-5.8-0.9c-4-0.3-7,0.6-9.1,2.8c-1.7,1.7-2.9,4.2-3.3,7.5
	c-0.1,0.7-0.2,1.8-0.3,3.3c-0.6,0.1-1.2,0.3-1.8,0.4c-0.8,0.4-1.5,0.6-2,0.8c-2.3,0.5-7.4,0.8-15.2,0.8c-11,0-22-1.1-33-3.4
	c-2.2-0.4-4.3-0.9-6.4-1.4l0,0c-0.1-0.1-0.1-0.1-0.1-0.1c-1.8-0.5-3.4-0.8-5-1.3c-4-1.2-7.6-2.5-10.9-3.9c-0.5-0.3-1-0.6-1.5-0.9
	c-3.4-2-6.4-3.7-9.1-5.1c-1.7-1-3.3-1.9-4.7-2.5c-3.4-1.8-6-2.8-7.8-2.9c1.5-1.3,3-4.6,4.6-10c0.6-1.9,1.1-3.6,1.5-5
	c0.8-2.6,1.1-4.5,1.3-5.5c0-0.1,0-0.3,0-0.5c0-2.9-0.8-5.9-2.1-9.1c-0.8-2-1.3-3.8-1.7-5.5c-0.2-1.1-0.4-2.2-0.4-3.3
	c0-0.1,0-0.2,0.1-0.4c0.1-0.8,0.2-1.4,0.4-2.1c2.8,1.5,6.1,2.8,9.8,4.1c5.6,1.7,11.7,3.1,18.1,4.1
	C125.7,304.55,127.8,304.85,129.8,304.95z M248.2,354.45c-0.2-0.3-0.4-0.6-0.6-0.9h0.6c0.1,0,0.7-0.1,1.5-0.3
	c0.7-0.2,1.1-0.3,1.5-0.3c1.1,0,2.3,0.1,3.3,0.4c1.1,0.2,2.2,0.6,3.2,1.1c1.8,0.9,3.5,2.1,5,3.8c1.2,1.2,2.1,2.5,2.9,3.9
	c0.6,1.2,1,1.9,1,2.4c0,1.9-1.9,5.9-5.4,11.9l0,0c-0.2,0.2-0.3,0.5-0.5,0.7c0,0,0,0,0,0.1c-0.1,0.2-0.3,0.4-0.5,0.7l-1.3,2.2
	c-0.1,0.2-0.2,0.3-0.3,0.3c-1.3,2.3-2.3,3.8-2.7,4.4c-1,1.5-1.9,2.6-2.7,3.4c-0.3,0.3-0.6,0.6-0.9,0.7c-0.7,0.7-1.5,1.1-2.1,1.1
	c-0.6,0-1.8-0.4-3.6-1c0-0.1,0-0.1,0-0.1c-1.2-0.4-2-0.7-2.3-0.9c0.3-0.2,0.4-0.6,0.7-0.9c0.8-1.3,1.6-2.8,2.2-4.5
	c0-0.1,0-0.2,0-0.2l0.1-0.1c0-0.1,0-0.2,0-0.3c0.1-0.1,0.2-0.3,0.3-0.5c0.1-0.6,0.2-1.1,0.2-1.5c0-0.5-0.2-1.2-0.6-2.1
	c-0.7,0.5-1.4,1.5-2,2.9c-0.9,2.6-1.5,3.9-1.6,4.1c-0.9,1.8-2.3,3.2-4,4c-1.5,0.7-3.3,1.1-5.3,1.1c-3.2,0-6.1-0.4-8.4-1.1
	c-2.3-0.6-4.1-1.6-5.4-2.9c-0.5-0.5-1.3-1.4-2.3-2.7c-0.4-0.5-0.7-0.9-1.1-1c0.5-0.8,1-1.7,1.3-2.7c1-2.6,1.5-4.7,1.5-6.6
	c0-0.3,0-0.6-0.1-0.8c0-0.2-0.1-0.4-0.1-0.6c-0.3,0.4-0.7,1.1-1.3,2.3c-0.1,0-0.1,0.1-0.2,0.2c-1,2-1.6,3.2-1.7,3.7
	c-1.8,3.1-3.8,4.6-6,4.6c-7.2,0-11.9-1.7-14-5.2c-0.8-1.2-1.2-2.5-1.3-3.9c0-1.4,0-2.3-0.1-2.5c-0.1-1.5-0.6-3.9-1.4-6.9
	c-0.5-2.5-0.8-4.7-0.8-6.5c0-3.5,0.7-6.1,2.1-8c1.7-2.2,4.7-3.4,9.1-3.4c1.7,0,4.6,0.9,8.9,2.8c4.2,1.8,7.3,2.7,9.2,2.7
	c0.3,0,0.5-0.1,0.6-0.1c0.1-0.1,0.2-0.2,0.2-0.2c0-0.2,0.1-0.4,0.2-0.7c-1.9-1-3.6-1.9-5.2-2.6c0.3-0.1,0.6-0.4,1-0.6
	c2.1-0.9,5.3-1.3,9.8-1.3c7.2,0,12.2,2.4,15.3,7.3c0.5,1,1.3,2.3,2.2,4c0.2,0.3,0.4,0.6,0.5,1c0.1,0.1,0.2,0.1,0.2,0.1
	c1,1.5,2.2,2.1,3.5,2.1c0.3,0,0.6,0,0.7,0c0-0.1,0.1-0.1,0.1-0.1c0-0.1,0.1-0.2,0.2-0.4c0,0,0-0.2,0-0.6c0,0-0.4-0.8-1.3-2.1
	c-0.4-0.4-0.7-0.9-1-1.5C248.8,355.45,248.5,354.95,248.2,354.45z M271.6,381.65c0,0.1-0.1,0.2-0.1,0.3c-0.4,0.6-1.4,1.6-2.9,3
	c-2.3,2-4.1,2.9-5.6,2.9c-0.3-0.4-0.7-0.6-1-0.9c-0.8-0.7-1.5-1-2.3-1h-0.1c1-1.6,2-3.4,3.1-5.5c0.3-0.4,0.5-0.8,0.7-1.1
	c0.9-1.9,1.9-3.8,2.8-5.8c0.3,0.4,1.1,1.4,2.6,3.3C270.6,379.05,271.6,380.65,271.6,381.65z M100.8,36.75c0.3-0.6,0.5-1.1,0.8-1.7
	c-0.2,1.1-0.4,2.3-0.5,3.6c-0.5,3.1-0.6,5.6-0.6,7.6c0,1.2,0.1,2.4,0.2,3.9c0.1,0.6,0.2,1.3,0.3,1.9c0.2,1.4,0.6,3.2,1.2,5.7
	c0.4,1.9,1.8,4.4,4,7.5c2.1,3,3.2,4.4,3.2,4.4c-0.4,1.1-1.2,1.7-2.2,1.7c-3.5,0-6.6-1-9.6-2.9c-0.1-0.1-0.2-0.2-0.3-0.2
	c-0.1-0.2-0.4-0.4-0.7-0.6c-0.9-0.8-2.3-2-4-3.7c-0.3-0.3-0.5-0.6-0.9-1.2c-0.4-0.8-1-1.8-1.6-3.3c-0.4-0.8-0.8-1.7-1.1-2.5
	c2.6-3.1,4.6-6,6-8.7C95.3,47.65,97.2,43.75,100.8,36.75z"/>
<path fill="#E6E6E6" d="M204.7,56.25c0.6-0.8,1.3-1.6,1.9-2.3c3-3.8,4.7-6.4,5.2-7.7c1.4-3.5,3.9-6.5,7.5-9c3.6-2.5,7-3.7,10.3-3.7
	c0.4,0,0.7,0,1.1,0.1c1.2,0,2.4,0.3,3.5,0.8c1.9,0.8,3.3,1.9,4.3,3.3l0.7-0.5l0,0c-0.2-0.2-0.3-0.3-0.4-0.5c-2.5-3.1-5-5.3-7.7-6.5
	c-1.8-0.7-3.5-1-5.3-1c-4,0-7,0.4-9.2,1.4c-2,0.8-3.4,2.3-4.6,4.1c-0.7,1.1-1.5,3.2-2.7,6.3c-1.1,3.3-2.3,5.9-3.4,8
	c-0.5,0.9-1.1,1.9-1.8,3c-0.6,0.7-1.1,1.4-1.8,2.2c-2,2.3-4.3,4.7-7.2,7c-3.1,2.4-5.5,4.3-7.1,5.7c0.2,0,0.4,0,0.6,0
	c2.6,0,4.8,0.5,6.6,1.3c2,1,3,2.2,3,3.5c0,1.4-0.2,2.2-0.6,2.5l0.1,0.2c0.8-0.6,1.5-1.5,2.1-2.4c1-1.4,1.4-2.4,1.4-3.1
	c0-1-0.4-1.7-1.1-2.4c-0.9-0.6-1.3-1.3-1.3-2.2C198.8,63.75,200.8,61.05,204.7,56.25z"/>
<path fill="#FFFFFF" d="M206.6,53.95c-0.6,0.7-1.3,1.5-1.9,2.3c-3.9,4.8-5.9,7.5-5.9,8.1c0,0.9,0.4,1.6,1.3,2.2
	c0.7,0.7,1.1,1.4,1.1,2.4c0,0.7-0.4,1.7-1.4,3.1c-0.6,0.9-1.3,1.8-2.1,2.4l-0.1-0.2c-0.2,0.2-0.4,0.2-0.5,0.2h-0.6
	c-0.3-0.5-0.4-1.1-0.5-2c0-0.7-0.3-1.2-0.6-1.4c-1.1-0.8-4.9-1.3-11.7-1.3c-0.7,0-1.5,0.5-2.1,1.3c0,0.1-0.1,0.1-0.1,0.2
	c1.1,0.4,2.3,1,3.8,1.6c3.3,1.6,4.9,2.8,4.9,3.7c0,0.4-0.4,1.1-1,1.9c-0.2,0.3-0.7,0.8-1.5,1.7l-0.3-0.1c0.1-0.1,0.2-0.4,0.4-0.8
	c0.2-0.5,0.3-0.8,0.3-1.1c0-0.5-3.4-2.2-10.3-5.4c-7.2-3.3-12.1-5.1-14.6-5.1c-3.5,0-7,0.7-10.6,2c-2.5,0.8-4.2,1.4-5,1.7
	c0.1,0.1,0.4,0.1,0.6,0.2c1.9,0.7,3.1,1.3,3.6,1.9c-0.4,0.7-0.9,1-1.6,1c-3.7,0-7-1.5-9.9-4.2c-1.3-1.3-2.2-2.1-2.7-2.6
	c-0.1,0.5-0.2,0.8-0.4,0.9c-0.6-0.4-1-1.1-1.4-2.1c-0.6-0.2-1.2-0.3-1.7-0.3c-1.4,0-3,0.8-4.8,2.3c-1.6,1.2-2.7,2.5-3.5,3.7
	l-0.5-0.1c-0.1,0.1-0.1,0.2-0.1,0.2s0-0.3,0-0.6c0-1.2,1.5-3,4.7-5.4c1.9-1.6,3.7-2.5,5.2-2.7c-0.4-1.7-0.8-2.9-1.5-3.6
	c-0.8-0.9-2-2.3-3.4-4.3c-1.4-1.7-2.5-3.2-3.4-4.4c-1.5-2.1-2.7-5-3.6-8.5c-0.9-3.1-1.4-6.1-1.4-8.8c0-0.3,0.2-1.6,0.4-4
	c0.3-2.3,0.4-3.7,0.4-4c0-3.6-1-7.5-3-11.7c-3.2-6.9-8.3-10.4-15-10.4c-12.4,0-22.9,5.3-31.6,15.8c-3.2,3.7-6.3,8.4-9.4,14
	c-3.3,6.3-5.5,10.8-6.9,13.4c-2.5,4.8-4.3,8.5-5.4,11.1c-1.8,4.5-2.9,8.3-3.1,11.5c-0.4,4-2,8.3-5,12.8c-1.6,2.3-2.6,3.9-3,4.7
	c-0.9,1.7-1.3,3.3-1.3,4.8c0,0.3,0.1,1,0.3,2.1c0.3,0.9,0.4,1.6,0.4,2.2c0.4,0.4,0.9,1.3,1.6,2.4c0.6,1.1,0.9,2,0.9,2.6
	c0,0.5-0.3,1.2-0.7,1.8c-0.5,0.6-1,1-1.5,1c-1.9,0-3.3-1.2-4.3-3.6c-0.9-2.1-1.1-4.4-0.8-7c-0.7,0.5-1.5,1-2.3,1.8c-1,1-2,2.4-3.2,4
	c-1.2,2-2.2,3.9-3,5.7c0.1,2.2,0.4,4.3,1.1,6.2c1.3,3.6,3.6,5.5,6.8,5.5c8.2,0,14.9-3.4,20-10.1c1.6-2.2,3.2-4.8,4.5-7.7
	c0.8-1.6,1.5-3.4,2.3-5.3c0.7-1.6,1.3-3.7,1.9-6.1c0.3-1.4,0.7-3.5,1.3-6.2c1.3-5,3.5-8.8,6.9-11.6c10.2-8.7,17.6-16.7,22.2-24.2
	c1.3-2.1,3.3-6.2,6-12.3c2.2-5,4.3-8.7,6.5-11.2c0.1,0.3,0.2,0.7,0.2,1.3c0,1.2-0.7,3.3-2,6.4c0.2,0.1,0.2,0.2,0.2,0.3
	c0.1,0.1,0.2,0.3,0.2,0.7c0,0.1-0.5,5.3-1.6,15.7c0,0.6,0.1,1.3,0.2,1.9c0.2,4.5,1.7,9,4.4,13.5c3.1,4.3,4.6,6.9,4.6,7.7
	c0,1-0.4,2-1.3,3c-0.9,1-2,1.6-3.2,1.6c-3.8,0-7.2-1-10.4-3.1c-1.5-0.8-2.8-1.9-4.1-3.2c-0.2-0.2-0.4-0.4-0.5-0.5
	c-1.5-1.6-2.8-3.2-3.8-5c-0.9-1.4-1.2-2.3-1.2-2.6c0-0.2,0-0.6,0-1c-0.4,0.5-0.9,0.9-1.3,1.3c-0.5,0.5-1.2,1.2-2.1,2.1
	c0.9,1.9,2.4,5.2,4.6,10.2c2.1,3.3,4,5.8,5.9,7.4c0.2,0.3,0.6,0.6,1,1c2.9,2.4,6.7,4.5,11.2,6c0.8-1,2.5-2.5,4.9-4.7
	c-0.1,0.4-0.4,1-0.7,1.7c3.3,2.5,5.8,7,7.2,13.6c1.1,5.1,1.8,7.8,1.9,8.2c0.8,3.1,1.9,5.7,3.1,7.8c2.7,4.5,7.2,8.1,13.5,11
	c5.6,2.5,11.1,3.7,16.5,3.7c3.5,0,6.4-0.4,8.7-1.3c2.9-1.2,4.4-3.1,4.4-5.7c0-0.2-0.1-0.8-0.3-1.8c-0.3-1-0.4-1.6-0.4-1.9
	c0-0.9,1.4-1.6,4.1-2.3c2.2-0.4,4.1-0.7,5.9-0.7c3.6,0,6.1,0.9,7.6,2.7c0.9,1.1,1.5,3,1.8,5.6c0.3,2.9,0.6,4.8,1.1,5.7
	c0.9,1.7,2.7,2.5,5.4,2.5c3.8,0,7.9-0.9,12.1-2.8c4.6-1.9,6.9-4,6.9-6.3c0-2.2-0.3-6-1-11.4c-0.7-5.3-1-8.6-1-10.1
	c0-0.4,0.4-0.9,1.3-1.9c0.8-0.7,1.2-1.4,1.4-2.1c-0.1-0.3-0.2-0.6-0.4-0.9c-0.5-0.8-0.9-1.3-1.5-1.6c0.2-0.5,0.3-0.7,0.5-0.9
	c0.2-0.1,0.4-0.3,0.7-0.3c1,0,1.9,0.9,2.7,2.6c0.7,1.6,1.6,2.5,2.8,2.5c0.6,0,1.3-0.9,2.1-2.6c0.3-0.9,0.6-1.8,0.9-2.7
	c0-0.6-0.5-1.3-1.4-1.9c-1-0.7-1.6-1.4-1.8-2.1c-0.2-0.9-0.3-1.6-0.5-1.8c-0.2-0.8-0.7-1.4-1.2-2c0.9-1,2.4-0.2,4.5,2.4
	c1.1,1.4,2,2.6,2.5,3.6c0.7-1.3,2.1-2.8,4-4.2c1.7-1.3,4.7-3.4,8.9-6.1c1.9-1.5,3.6-3.7,5.1-6.4c0.7-1.4,1.7-3.3,3-5.5
	c0.2,0.7,0.4,1.4,0.4,2.2c0,0.6-0.1,1.2-0.3,1.9c1.7,9.8,4,18.4,7,26.1c1.8,4.8,4.3,9.9,7.4,15.5c0.4,0.6,0.7,1.2,1,1.8
	c3.8,6.5,6.2,11,7.2,13.5c1.9,4.9,2.9,10.2,2.9,15.9c0,0.8,0,1.4,0,2c-0.1,1.4-0.3,2.7-0.6,3.8c-0.9,3.7-2.8,5.5-5.4,5.5
	c-2.1,0-3.7-0.8-4.6-2.5c-0.5-0.8-0.9-2.1-1.2-3.8c-0.2-1-0.4-2-0.6-3.3c-0.7-4.7-1.3-8.4-1.8-10.7c-1.3-4.7-3-9.2-5.3-13.5
	c-1.3-2.3-3.1-5.3-5.4-9c-1.7-2.7-3-4.7-4-6.3c-0.3-0.1-0.6-0.2-0.7-0.2c-1.7,0-3.1,0.9-4.3,2.7c-1.1,1.6-1.7,3.8-2,6.6
	c1.4,2.8,2.8,5.2,4.4,7c6,7,10,12.3,12.4,16c0.1,0.2,0.2,0.3,0.4,0.6c2.2,3.7,3.7,7.2,4.5,10.5c0.1,1.1,0.3,2.1,0.3,3.1
	c1,2.3,1.8,5,2.3,7.9c0.1,1,0.4,3.9,0.9,8.6c0.3,3,0.7,5.1,1.3,6.3c0.8,1.6,2.1,2.4,3.9,2.4c8.3,0,13.6-5.6,16.1-16.7
	c1.3-5.7,1.7-11.4,1.3-17.2c0-6.8-0.4-12.5-1.1-17c-0.8-4.2-2.3-10.5-4.8-19c-0.5-1.7-1.2-4.6-2.1-8.8c-0.8-4-1.4-7-2.1-9.1
	c-1-3.1-3.2-6.9-6.5-11.1c-0.8-1-1.4-2-2-2.7c-2.3-0.4-4.4-2.9-6.7-7.5c-0.2-0.5-2.5-6-6.8-16.5c-2.9-7-5.7-12.4-8.3-16l-0.7,0.5
	c-1-1.4-2.4-2.5-4.3-3.3c-1.1-0.5-2.3-0.8-3.5-0.8c-0.4-0.1-0.7-0.1-1.1-0.1c-3.3,0-6.7,1.2-10.3,3.7c-3.6,2.5-6.1,5.5-7.5,9
	C211.3,47.55,209.6,50.15,206.6,53.95z"/>
<path fill="#E6E6E6" d="M165.6,117.25c0,0.3,0.1,0.9,0.4,1.9c0.2,1,0.3,1.6,0.3,1.8c0,2.6-1.5,4.5-4.4,5.7c-2.3,0.9-5.2,1.3-8.7,1.3
	c-5.4,0-10.9-1.2-16.5-3.7c-6.3-2.9-10.8-6.5-13.5-11c-1.2-2.1-2.3-4.7-3.1-7.8c-0.1-0.4-0.8-3.1-1.9-8.2
	c-1.4-6.6-3.9-11.1-7.2-13.6c-0.4,0.8-0.9,1.8-1.5,3c-1,1.8-1.4,3.2-1.4,4.3c0,1.7,1,4,3,7c2.1,3.2,3.4,5.7,3.5,7.5
	c0.2,1.4,0.5,3.8,0.7,7c0.3,3,0.7,5.3,1.1,7c0.2,1.3,1.2,3,2.6,5.3c2.1,3.1,4.6,5.9,7.7,8.5c0.4,0.4,0.8,0.7,1.1,1
	c0.1,0,0.2,0,0.3,0c0.4-0.2,0.6,0,0.7,0.8c8.8,6.6,19.8,9.9,33.2,9.9c0.1,0,0.2,0,0.3,0l-0.1-1.5c3.8-1.1,6.6-2.9,8.5-5.5
	c1.6-2,2.9-5.1,4.2-9.3h0.3c0.8,4.8,2.7,8.6,6,11.7c2.7,2.6,6,4.3,10,4.9c1,0.2,2.1,0.2,3.2,0.2c0.6-0.1,1.5,0,2.7,0.1l0.1,0.7
	c7.5-0.8,13.1-3.1,16.9-7c2.6-2.6,4-5.3,4-8c0-1.6-0.4-6.3-1.1-14c-0.8-7.8-1.2-12.2-1.2-13.5c0-1.5,0-2.6,0.2-3.3
	c-1.9,0-3.4-1-4.3-3c-0.1-0.3-0.3-0.8-0.5-1.3c-0.2,0.7-0.6,1.4-1.4,2.1c-0.9,1-1.3,1.5-1.3,1.9c0,1.5,0.3,4.8,1,10.1
	c0.7,5.4,1,9.2,1,11.4c0,2.3-2.3,4.4-6.9,6.3c-4.2,1.9-8.3,2.8-12.1,2.8c-2.7,0-4.5-0.8-5.4-2.5c-0.5-0.9-0.8-2.8-1.1-5.7
	c-0.3-2.6-0.9-4.5-1.8-5.6c-1.5-1.8-4-2.7-7.6-2.7c-1.8,0-3.7,0.3-5.9,0.7C167,115.65,165.6,116.35,165.6,117.25z"/>
<path fill="#E6E6E6" d="M232.7,89.15c0-1.5,0-2.5,0.1-3c0.2-1.4,0.4-2.4,0.9-2.9c-2.5,2-4.3,3.6-5.6,4.7c-1.9,1.7-3.5,3.1-4.8,4.4
	c0.2,0.3,0.3,0.8,0.3,1.3s0.2,1.2,0.4,2.2c0.1,1.1,0.2,1.8,0.3,2.2c0.3,0.9,0.6,2.4,1,4.2c0.5,1.6,1.1,3,1.9,4.2
	c0.5,1,1.9,3.8,4,8.5c0.2,0.5,0.4,1,0.6,1.5c0.3-2.8,0.9-5,2-6.6c1.2-1.8,2.6-2.7,4.3-2.7c0.1,0,0.4,0.1,0.7,0.2
	c-0.3-0.7-0.7-1.3-1-1.8C234.5,99.55,232.7,94.05,232.7,89.15z"/>
<path fill="#C4C4C4" d="M174.9,128.65c-1.3,4.2-2.6,7.3-4.2,9.3c-1.9,2.6-4.7,4.4-8.5,5.5l0.1,1.5c6,0,9.3-0.5,9.8-1.4
	c0-0.6,0.1-0.9,0.1-1.3c0.1-0.5,0.7-0.9,1.7-1.3c0.3,0.3,0.5,0.6,0.8,1c0.3,0.5,0.4,0.7,0.4,0.8c0,0.6-0.1,1-0.3,1.5
	c0.5,0.2,0.9,0.5,1.2,1c1.8,0.9,6.8,1.3,15,1.3c2.2,0,4.2-0.1,6.2-0.3l-0.1-0.7c-1.2-0.1-2.1-0.2-2.7-0.1c-1.1,0-2.2,0-3.2-0.2
	c-4-0.6-7.3-2.3-10-4.9c-3.3-3.1-5.2-6.9-6-11.7H174.9z"/>
<path fill="#E6E6E6" d="M33.3,89.35c-0.7,1.3-1.6,2.6-2.6,4.1c-2.9,4.5-4.4,8.3-4.4,11.2c0,0.1,0,0.2,0,0.3c0.8-1.8,1.8-3.7,3-5.7
	c1.2-1.6,2.2-3,3.2-4c0.8-0.8,1.6-1.3,2.3-1.8c0.1-0.1,0.1-0.2,0.1-0.3v0.3h-0.1c-0.3,2.6-0.1,4.9,0.8,7c1,2.4,2.4,3.6,4.3,3.6
	c0.5,0,1-0.4,1.5-1c0.4-0.6,0.7-1.3,0.7-1.8c0-0.6-0.3-1.5-0.9-2.6c-0.7-1.1-1.2-2-1.6-2.4c0.1,0.1,0.1,0.2,0.1,0.4v0.1
	c-1.1-0.7-1.6-1.5-1.9-2.3c-0.1-0.2-0.1-0.7-0.1-1.3c0-0.3,0-0.7,0-1.1c0-2.1,0.8-4.4,2.2-6.8c2.1-3.4,3.5-6.1,4.3-8.3
	c0.1-0.5,0.4-1.2,0.5-2c-0.5,0.9-1.2,1.7-2.1,2.7c-0.9,1-2.7,2.7-5.4,5.1C36.4,84.25,35.2,86.45,33.3,89.35z"/>
<path fill="#FFFFFF" d="M34.9,93.45v-0.3c0,0.1,0,0.2-0.1,0.3H34.9z"/>
<path fill="#999999" d="M242.8,81.85l-0.8-3.3c-0.4-1.6-0.7-2.9-0.8-3.6c-1.2,2.3-3.4,4.7-6.3,7.3c-0.3,0.4-0.7,0.7-1.1,1
	c0.8,2.8,1.8,7.1,2.8,13c1.1,4.6,2.8,8.5,5,11.9c0.3,0.5,0.6,0.8,0.9,1.2c1.2,1.6,3.4,5.1,6.3,10.4c-0.4-1.5-0.6-3-0.6-4.4
	s0.2-2.4,0.6-2.7c0.4-0.3,1-0.4,2.1-0.4c0.4,0,1.1,0.2,1.9,0.5c0.3,0.2,0.5,0.3,0.8,0.4c-3.4-6-5.9-10.8-7.2-14.2
	C244.1,93.05,242.8,87.35,242.8,81.85z"/>
<path fill="#C4C4C4" d="M254.1,113.95c-0.1-0.3-0.3-0.5-0.5-0.8c-0.3-0.1-0.5-0.2-0.8-0.4c-0.8-0.3-1.5-0.5-1.9-0.5
	c-1.1,0-1.7,0.1-2.1,0.4c-0.4,0.3-0.6,1.3-0.6,2.7s0.2,2.9,0.6,4.4c0.3,0.5,0.6,1,0.9,1.5c0.4,0.7,0.7,1.3,1,1.9
	c3.5,6.3,5.3,10.5,5.3,12.2c0,1.3,0.6,4.6,1.7,9.7c1.4,5.9,2.5,8.8,3.5,8.8c1.6,0,2.9-1.5,3.6-4.4c0.4-3,0.5-4.6,0.5-4.7
	c0-5.1-1.1-10.4-3.5-16C260.5,125.45,258,120.55,254.1,113.95z"/>
<path fill="#C4C4C4" d="M216.3,141.55c-0.6,0.6-1.2,1.2-1.8,1.7v0.2c0.4,0.1,0.9,0.6,1.5,1.5c0.1,0,0.1,0,0.1,0.1
	c1.6,2.4,2.5,4.6,2.5,6.9c0,1-0.8,3.8-2.3,8.4c0,0,0,0,0,0.1c-0.7,2.2-1.2,3.9-1.7,5.2c-0.6,1.5-1,2.4-1.3,2.8
	c-0.7,0.7-1.7,1.7-3,2.8c-1.8,1.5-4.5,3.4-7.8,5.6c-2,1.4-3.8,2.5-5,3.3c-1.3,0.8-2.2,1.4-2.7,1.7c0.3,0.1,0.5,0.1,0.7-0.1
	c0.5,0.8,1.3,2.5,2.4,5.1c1.3,3.1,2,5.4,2,6.7c0,0.5,0,1.1-0.1,1.6c-0.2,3.3-0.9,6.3-2.2,9c-1,1.8-2.1,3.4-3.5,5
	c-3.9,4.3-8.9,6.5-15.1,6.8c3.5,1.3,6.8,1.9,10,1.9c4.9,0,9.2-1.4,12.7-4.2c1.6-1.2,3-2.7,4.3-4.5c-0.5-0.3-1-0.6-1.6-0.9
	c-1.9-1.1-3.4-1.9-4.4-2.4c-1.2-0.5-1.8-0.8-1.8-0.6c0-0.3,0-0.5,0.1-0.7c0.3-0.4,0.8-0.6,1.5-0.6c1.4,0,3.7,1,6.8,2.7
	c0.3,0.2,0.5,0.3,0.7,0.4c1.2-2,2.2-4.1,2.9-6.5c0.3-0.7,0.4-1.3,0.5-1.9c0.3-0.8,0.4-1.4,0.4-1.8c0-0.5,0-1-0.1-1.5
	c-0.9,0-1.8,0-2.5,0.1c-1.7,0-2.8,0.2-3.4,0.5c-1,0.5-1.5,0.7-1.8,0.7c-0.5,0-0.8-0.1-1.1-0.3c0-0.1-0.1-0.3-0.2-0.4v-0.7
	c0-0.7,0.5-1.3,1.4-1.9c0.8-0.4,1.9-0.8,3.4-0.9c1.1-0.1,2.4-0.1,3.8-0.1c-0.3-1.8-0.8-3.7-1.4-5.9c-0.2-0.5-0.4-1.1-0.6-1.6
	c-1.1,0.1-2,0.2-2.6,0.5c-0.5,0.1-0.8,0.3-1.1,0.7c-0.2,0.2-0.7,0.3-1.3,0.3c-0.1,0-0.4,0-0.5,0c-0.1-0.1-0.4-0.1-0.5-0.2
	c-0.4-0.2-0.6-0.2-0.8-0.2c0-0.4,0.2-0.6,0.3-0.9c0.8-1.6,2.7-2.6,5.7-3c-0.3-1.2-0.5-1.9-0.5-2c0-1.3,0.4-1.6,1.2-1.1
	c0.6-0.1,1.5-0.1,2.8,0.1c0.9-1.4,1.2-2.4,1-3.1l-0.6-2.3c0-0.3,0.1-0.4,0.3-0.6c0.1-0.1,0.2-0.2,0.5-0.3c0.1,0,0.7,0.1,1.7,0.2
	c1.8,0.2,2.8-0.5,3-2c0-0.3,0-1-0.2-1.8c-0.1-0.9-0.2-1.5-0.2-1.7c0-0.4,0.1-0.7,0.3-0.9c0.1-0.3,0.3-0.4,0.6-0.5
	c0.6-0.3,1.9-0.3,3.6,0h0.2c0-0.9-0.4-1.9-1.1-2.9c-0.7-0.9-1-1.5-1-1.9c0-0.8,0.6-1.4,1.8-1.8c1.1-0.3,2.3-0.5,3.4-0.2l0.3-0.1
	c-0.5-1.9-0.9-3.4-1.2-4.4c-0.5-1.8-1.1-3.3-1.7-4.6c-0.4-0.8-1.6-2.5-3.5-5.1c-0.3-0.4-0.5-0.8-0.8-1.1l0,0
	C217,142.75,216.5,141.95,216.3,141.55z"/>
<path fill="#FFFFFF" d="M214.8,148.15c-0.3-0.7-0.6-1.2-0.8-1.6c-0.1-0.3-0.2-0.4-0.3-0.6c-0.1,0.3-0.2,0.7-0.4,1.1
	c-1,2.4-2.2,4.7-3.6,6.8c-3.1,4.6-6.6,7.6-10.5,8.7c-1.4,0.4-2.7,0.6-4,0.6c-4,0-7.1-2-9.5-6.2c-0.4-0.7-0.7-1.3-1.1-2
	c-0.8-1.8-1.3-3.4-1.3-4.6c0-0.4,0.2-0.8,0.3-1.1c0.1,0,0.1-0.1,0.1-0.1c-3.6-0.2-6.4-0.7-8.2-1.2c-1.4-0.5-2.3-1-2.8-1.7
	c-1.7,0.7-4.5,1.2-8.5,1.2c-1.6,2.2-4,4.2-7,6c-1.2,0.7-2.5,1.3-3.8,1.9c-3.9,1.6-8.2,2.4-12.9,2.4c-7.1,0-12-1.9-14.7-5.8
	c-1.5-2-2.2-4.5-2.2-7.3c0-2.5,0.8-5.2,2.5-8c-0.5-0.4-1-0.7-1.5-1.1c-0.6-0.6-1.3-1.1-1.8-1.6c-0.1-0.1-0.1-0.1-0.1-0.2
	c-0.4,0.5-0.7,0.9-1.1,1.3c0,0.1,0,0.1,0.1,0.1c0.1,0.1,0.2,0.3,0.2,0.6c0,0.4-0.3,1-1.1,1.9c-1.2,1.8-2,2.9-2.2,3.3
	c-2.3,3.5-3.4,6.7-3.4,9.5c0,5.4,1.9,9.8,5.6,13.4c1.2,1.1,2.6,2.1,4.2,3.1c1.2,0.7,3.5,1.8,6.7,3.3c2,0.9,3,1.5,3,2.1
	c0,0.3-0.1,0.6-0.3,1c-0.2,0.3-0.4,0.6-0.7,0.7c0,0.1,0,0.1-0.1,0.2c0,0.4,0,0.7-0.1,0.9c-3.7-0.5-7-1.4-10-2.7
	c-2-0.9-3.9-2-5.7-3.2c-1.5-1-2.7-2.3-3.8-3.5c-2.8-3.3-4.2-7.1-4.2-11.4c-0.4,0-1,0.1-1.7,0.3c-0.8,0.3-1.3,0.4-1.6,0.4v-4.1
	c1.3-4.7,2-7.3,2-7.8c-0.8,0.1-1.9,0.3-3.3,0.6c-1.4,0.2-2.2,0.4-2.5,0.4v-3.8c0.1-1.9,0.8-4.1,1.9-6.5c0.5-1.1,1.2-2.4,2.2-4.1
	c-1.3-0.1-4,1.5-7.8,4.6c-2.2,1.8-3.8,3.3-4.8,4.6c-0.4,0.7-0.6,1.3-0.8,2c0.8-0.5,1.9-1,3.4-1.4c3.2-0.9,4.7-0.6,4.7,0.5
	c0,0.1-0.9,1.8-2.7,5.1c-1.8,3.6-2.7,6.6-2.7,8.9c0,0.4,0,0.7,0,0.7c0,0.2,0.1,0.2,0.1,0.3c0.9-0.3,1.4-0.5,1.7-0.6
	c1.2-0.2,2.4-0.4,3.7-0.4c0.2,0,0.5,0.1,0.7,0.2c0.4,0.2,0.8,0.4,0.9,0.8c0,0.1,0,0.2,0,0.3c0.1,0.3,0.2,1.1,0.2,2.1
	c0,1.5-0.7,4-1.9,7.2c-1.4,3.3-2,6-2,8.2c0,0.8,0,1.4,0.1,1.6c0.4-0.2,1.2-0.5,2.5-1.1c0.2-0.1,0.5-0.2,0.7-0.4
	c1.8-0.7,3.4-1.1,4.8-1.1c1.9,0,2.9,0.4,2.9,1.3c0.1,0.5-0.1,1-0.4,1.4v1.5c6.4,0.3,11.1,1,14.2,2.3c2.4,1,3.7,2.2,3.7,3.7
	c0,0.4-0.2,0.8-0.6,1.3c-0.4,0.6-0.8,1.1-0.9,1.5c-0.3-1.4-0.7-2.4-1.2-3c-1-1.3-2.7-1.9-5.1-2.1c-2-0.2-3.6-0.3-5.1-0.4
	c0.1,0.1,0.1,0.2,0.1,0.6c0,0.6-0.4,2-1,4.1c0.5,0,0.9,0.1,1.2,0.2c0.8,0.2,1.5,0.7,2.2,1.7c-0.1,0.1-0.1,0.3-0.2,0.3
	c-0.1,0.1-0.3,0.2-0.7,0.2c-1.1-0.1-2.2-0.2-3.2-0.3c-0.8,2.5-1.2,4.3-1.2,5.3c0,0.6,0.2,1.5,0.6,2.6c4.7-1.5,7.1-1.1,7.1,1.4
	c0,1-0.4,1.5-0.9,1.5c-0.9-0.2-1.6-0.3-2.2-0.3c-0.8,0-1.7,0.1-2.7,0.3c1.1,2.3,2.6,4.4,4.4,6.5c2.1-1.9,4.5-3.1,7-3.6
	c3.2-0.6,4.9,0.5,4.9,3.2c0,0.5-0.3,1-0.6,1.4c-0.4,0.3-0.8,0.5-1.3,0.5c-0.7,0-1.3-0.3-1.8-0.9c-0.3-0.5-0.6-0.7-0.6-0.7
	c-1.7,0-3.6,0.6-5.6,1.9c6.5,6.1,15.2,9.1,26,9.1c7.5,0,13.4-1.6,17.7-4.7c1-0.7,2.3-1.8,3.9-3.2c1.1-0.9,2.1-1.4,3.1-1.4
	c0.3,0,0.6,0,0.7,0c0.1,0,0.2,0.1,0.5,0.2c0,0.1,0.1,0.2,0.1,0.2c0,0.1,0.1,0.4,0.1,0.6c0,1.2-1.5,2.8-4.3,4.9
	c1.2,0.5,3.3,1.6,6.2,3.2c1.5,0.7,2.9,1.3,4.4,1.8c6.2-0.3,11.2-2.5,15.1-6.8c1.4-1.6,2.5-3.2,3.5-5c1.3-2.7,2-5.7,2.2-9
	c0.1-0.5,0.1-1.1,0.1-1.6c0-1.3-0.7-3.6-2-6.7c-1.1-2.6-1.9-4.3-2.4-5.1c-0.2,0.2-0.4,0.2-0.7,0.1c-0.2,0.1-0.3,0.1-0.3,0.1
	c-0.4,0-0.7,0-0.9,0c-0.1-0.1-0.3-0.2-0.5-0.4c-0.1-0.1-0.2-0.4-0.2-1c0-0.2,0.1-0.5,0.3-0.7c0.3-0.6,0.9-1.3,1.9-2
	c0.4-0.4,0.9-0.8,1.5-1.1c1.4-0.9,4.1-2.6,8-5.1c6.6-4.8,10.4-10.2,11.3-16.4v-0.1c0.1,0,0.1-0.2,0.1-0.2c0-0.3,0-0.5,0.1-0.7
	c0-0.7,0.1-1.5,0.1-2.3C216.2,150.95,215.7,149.65,214.8,148.15z M178.5,152.25c2.2,0,3.8,1.1,5,3.2c0.1,0.4,0.3,0.8,0.5,1.3
	c0.1,0.4,0.5,2.3,1.1,5.9c0.1,1.2,1,2,2.5,2.6c1.7,0.5,2.6,1,2.7,1.3c0.3,1.1,0.5,2.7,0.5,5c0,0.6-0.2,1.4-0.6,2.4
	c-0.1,0.3-0.3,0.7-0.5,1.1c-0.3,0.8-0.6,1.5-1.1,2.3c-0.6,1.1-1.3,2.1-2,3.1c-2.4,3.2-5.1,5.4-8,6.5c-1.3,0.4-2.6,0.6-4,0.6
	c-6.6,0-12-2.6-16-7.6c-0.4,1-0.6,1.5-0.6,1.9c0,0.6,1.8,2.4,5.6,5c4.6,3.2,7.5,5.7,9,7.2c1-1.5,3.4-3.1,7.1-4.7
	c0.4,0,0.5,0,0.5,0.1c0.1,0.1,0.1,0.1,0.2,0.2l0.2-0.1c0.1,0,0.1,0.3,0.1,0.6c0,0.6-0.6,1.2-2.1,1.8c-1.9,0.7-3.1,1.4-3.9,2.1
	c-0.4,0.5-0.7,1.2-1,2.2c-0.3,1.2-0.6,2-0.9,2.3c-0.6-0.5-1.1-1.1-1.6-1.9c-0.6-0.9-1-1.7-1.3-2.2c-1.3-2-3.3-3.5-5.9-4.6
	c-3.1-1.4-5.2-2.7-6.4-4c-0.9-1.1-1.4-2.4-1.4-4c0-0.9,0.3-1.8,0.7-2.6c0.2-0.4,0.3-0.7,0.6-0.9c-1.3-1.8-2.3-3.7-3-5.9
	c-0.7-1.7-0.9-3-0.9-3.7c-0.1-0.9-0.1-1.7-0.1-2.5c0.1-1.3,0.1-2.3,0.3-3c0.1-0.1,0.2-0.3,0.3-0.5c0.3-0.9,0.8-1.5,1.4-1.8
	c0.5-0.3,1.2-0.3,2.2-0.2c2.3,0.2,4-0.3,5.1-1.8c0,0,0.5-0.7,1.4-2.3c0.8-1.1,1.4-2,2.2-2.7c2.1-1.9,4.7-2.3,7.8-1.3
	c0.3,0,0.4,0.1,0.7,0.2l0.5,0.1c0.2-0.2,0.7-0.3,1.4-0.5C177.4,152.35,178,152.25,178.5,152.25z"/>
<path fill="#333333" d="M183.5,155.45c-1.2-2.1-2.8-3.2-5-3.2c-0.5,0-1.1,0.1-1.7,0.2c-0.7,0.2-1.2,0.3-1.4,0.5c0,0.2,0.2,0.5,0.4,1
	c3.2,0.5,5.2,1.6,5.8,3.3c0.5,1,0.7,2.4,1,4.4c0.6,1.3,1.4,2.3,2.4,3.1c0.5,0.5,1.2,0.9,1.8,1.2c0.9,0.3,1.4,0.7,1.7,1
	c0.5,0.5,0.7,1.2,0.7,2.2c-0.2,1.2-0.6,2.4-1,3.5c-0.6,1.6-1.4,3.2-2.3,4.7c-1,1.5-2.1,2.9-3.3,3.9c-0.4,0.3-0.7,0.6-1,0.9
	c-2.7,1.9-5.8,2.8-9.4,2.8c-4.5,0-8.2-1.9-11.2-5.9c-0.1,0-0.2-0.1-0.2-0.1c-0.7-1-1.3-2.1-2-3.4c-1.1-2.1-1.9-4.3-2.5-6.9
	c-0.5-1.8-0.7-3.1-0.7-3.9c0-0.7,0.3-1.1,0.9-1.4c0.1,0,0.5-0.1,1.3-0.1c0.3-0.1,0.7-0.1,1-0.2c0.2,0,0.3,0,0.4-0.1
	c2.5-0.4,4.4-1.8,5.8-4.2c0.1,0,0.6-1,1.6-2.8c1.3-1.8,3.1-2.7,5.2-2.7c0.3,0,0.5,0.1,1,0.4c0.5,0.2,1.3,0,2.1-0.8
	c-0.3-0.1-0.4-0.2-0.7-0.2c-3.1-1-5.7-0.6-7.8,1.3c-0.8,0.7-1.4,1.6-2.2,2.7c-0.9,1.6-1.4,2.3-1.4,2.3c-1.1,1.5-2.8,2-5.1,1.8
	c-1-0.1-1.7-0.1-2.2,0.2c-0.6,0.3-1.1,0.9-1.4,1.8c-0.1,0.2-0.2,0.4-0.3,0.5c-0.2,0.7-0.2,1.7-0.3,3c0,0.8,0,1.6,0.1,2.5
	c0,0.7,0.2,2,0.9,3.7c0.7,2.2,1.7,4.1,3,5.9c-0.3,0.2-0.4,0.5-0.6,0.9c-0.4,0.8-0.7,1.7-0.7,2.6c0,1.6,0.5,2.9,1.4,4
	c1.2,1.3,3.3,2.6,6.4,4c2.6,1.1,4.6,2.6,5.9,4.6c0.3,0.5,0.7,1.3,1.3,2.2c0.5,0.8,1,1.4,1.6,1.9c0.3-0.3,0.6-1.1,0.9-2.3
	c0.3-1,0.6-1.7,1-2.2c0.8-0.7,2-1.4,3.9-2.1c1.5-0.6,2.1-1.2,2.1-1.8c0-0.3,0-0.6-0.1-0.6l-0.2,0.1c-0.1-0.1-0.1-0.1-0.2-0.2
	c0-0.1-0.1-0.1-0.5-0.1c-3.7,1.6-6.1,3.2-7.1,4.7c-1.5-1.5-4.4-4-9-7.2c-3.8-2.6-5.6-4.4-5.6-5c0-0.4,0.2-0.9,0.6-1.9
	c4,5,9.4,7.6,16,7.6c1.4,0,2.7-0.2,4-0.6c2.9-1.1,5.6-3.3,8-6.5c0.7-1,1.4-2,2-3.1c0.5-0.8,0.8-1.5,1.1-2.3c0.2-0.4,0.4-0.8,0.5-1.1
	c0.4-1,0.6-1.8,0.6-2.4c0-2.3-0.2-3.9-0.5-5c-0.1-0.3-1-0.8-2.7-1.3c-1.5-0.6-2.4-1.4-2.5-2.6c-0.6-3.6-1-5.5-1.1-5.9
	C183.8,156.25,183.6,155.85,183.5,155.45z"/>
<path fill="#FAC4AF" d="M175.4,152.95l-0.5-0.1c-0.8,0.8-1.6,1-2.1,0.8c-0.5-0.3-0.7-0.4-1-0.4c-2.1,0-3.9,0.9-5.2,2.7
	c-1,1.8-1.5,2.8-1.6,2.8c-1.4,2.4-3.3,3.8-5.8,4.2c0.1,0.2,0.2,0.3,0.3,0.5c0.6,1.3,1.2,3.8,1.7,7.2c0.5,3.6,1.1,5.9,1.8,6.7
	c1.2,1.5,2.8,2.6,5,3.1c1.5,0.4,3.6,0.6,6.4,0.6c2.7,0,4.6-0.3,5.7-1c0.3-0.1,0.6-0.4,0.9-0.6c0.7-0.9,1.3-2.1,1.8-3.9
	c0.5-1.8,1-3.3,1.3-4.4c0.1-0.2,0.1-0.5,0.1-0.7c0.4-1.8,0.4-3.3,0-4.8l0.8-0.9c-1-0.8-1.8-1.8-2.4-3.1c-0.3-2-0.5-3.4-1-4.4
	c-0.6-1.7-2.6-2.8-5.8-3.3C175.6,153.45,175.4,153.15,175.4,152.95z M175.4,158.95l0.2-0.2c0.9,0.2,1.8,0.7,2.7,1.6
	c0.9,0.9,1.3,1.6,1.4,2.2v0.1c0,1.8-0.5,3.3-1.5,4.7c0,0.1-0.1,0.3-0.2,0.4c-0.9,1-1.9,1.5-3.1,1.7c0-0.3-0.2-1.3-0.7-3
	c0-0.2-0.1-0.3-0.1-0.5c-0.6-2-0.9-3.2-0.9-3.5c0-0.7,0.3-1.4,0.8-2.2C174.5,159.65,174.9,159.25,175.4,158.95z"/>
<path fill="#FCDFD2" d="M175.6,158.75l-0.2,0.2c-0.5,0.3-0.9,0.7-1.4,1.3c-0.5,0.8-0.8,1.5-0.8,2.2c0,0.3,0.3,1.5,0.9,3.5
	c0,0.2,0.1,0.3,0.1,0.5c0.5,1.7,0.7,2.7,0.7,3c1.2-0.2,2.2-0.7,3.1-1.7c0.1-0.1,0.2-0.3,0.2-0.4c1-1.4,1.5-2.9,1.5-4.7v-0.1
	c-0.1-0.6-0.5-1.3-1.4-2.2C177.4,159.45,176.5,158.95,175.6,158.75z"/>
<path fill="#F59C80" d="M185,164.75l-0.8,0.9c0.4,1.5,0.4,3,0,4.8c0,0.2,0,0.5-0.1,0.7c-0.3,1.1-0.8,2.6-1.3,4.4
	c-0.5,1.8-1.1,3-1.8,3.9c-0.3,0.2-0.6,0.5-0.9,0.6c-1.1,0.7-3,1-5.7,1c-2.8,0-4.9-0.2-6.4-0.6c-2.2-0.5-3.8-1.6-5-3.1l-2,1.7
	c3,4,6.7,5.9,11.2,5.9c3.6,0,6.7-0.9,9.4-2.8c0.3-0.3,0.6-0.6,1-0.9c1.2-1,2.3-2.4,3.3-3.9c0.9-1.5,1.7-3.1,2.3-4.7
	c0.4-1.1,0.8-2.3,1-3.5c0-1-0.2-1.7-0.7-2.2c-0.3-0.3-0.8-0.7-1.7-1C186.2,165.65,185.5,165.25,185,164.75z"/>
<path fill="#F59C80" d="M157.8,163.25c-0.8,0-1.2,0.1-1.3,0.1c-0.6,0.3-0.9,0.7-0.9,1.4c0,0.8,0.2,2.1,0.7,3.9
	c0.6,2.6,1.4,4.8,2.5,6.9c0.7,1.3,1.3,2.4,2,3.4l2.2-1.6c-0.7-0.8-1.3-3.1-1.8-6.7c-0.5-3.4-1.1-5.9-1.7-7.2
	c-0.1-0.2-0.2-0.3-0.3-0.5c-0.1,0.1-0.2,0.1-0.4,0.1C158.5,163.15,158.1,163.15,157.8,163.25z"/>
<path fill="#FAC4AF" d="M161,179.05l2-1.7l-2.2,1.6C160.8,178.95,160.9,179.05,161,179.05z"/>
<path fill="#C4C4C4" d="M133.7,174.05c-0.1,0.1-0.2,0.1-0.3,0.1c-1.7,0-4.5-1.3-8.7-3.8c-0.1-0.1-0.2-0.1-0.3-0.1
	c-3.8-2.3-6.2-4.1-7.3-5.3c0,0-0.1-0.1-0.1-0.2c-0.7-0.7-1.5-2.4-2.7-5c-1.2-3-1.8-4.8-1.8-5.7c0-3.8,0.5-6.8,1.6-9.1
	c0.7-1.5,2.9-4.7,6.5-9.3c0.1-0.2,0.4-0.5,0.6-0.7c0.1,0,0.3,0,0.4,0.1c0.4-0.4,0.7-0.8,1.1-1.3c-2.4-2.1-4.4-4.5-6.1-7
	c-1.5-2.2-2.4-3.9-2.6-5.1c-0.3-1.2-0.5-2.7-0.8-4.6c-2.2,1.4-4.6,3.2-7,5.4c-3.7,3.2-6.7,6.8-9.1,10.8c-1.1,1.8-2.1,3.7-2.9,5.7
	c1-1.3,2.6-2.8,4.8-4.6c3.8-3.1,6.5-4.7,7.8-4.6c-1,1.7-1.7,3-2.2,4.1c-1.1,2.4-1.8,4.6-1.9,6.5v3.8c0.3,0,1.1-0.2,2.5-0.4
	c1.4-0.3,2.5-0.5,3.3-0.6c0,0.5-0.7,3.1-2,7.8v4.1c0.3,0,0.8-0.1,1.6-0.4c0.7-0.2,1.3-0.3,1.7-0.3c0,4.3,1.4,8.1,4.2,11.4
	c1.1,1.2,2.3,2.5,3.8,3.5c1.8,1.2,3.7,2.3,5.7,3.2c3,1.3,6.3,2.2,10,2.7c0.1-0.2,0.1-0.5,0.1-0.9
	C133.7,174.15,133.7,174.15,133.7,174.05z"/>
<path fill="#333333" d="M133.4,174.15c0.1,0,0.2,0,0.3-0.1c0.3-0.1,0.5-0.4,0.7-0.7c0.2-0.4,0.3-0.7,0.3-1c0-0.6-1-1.2-3-2.1
	c-3.2-1.5-5.5-2.6-6.7-3.3c-1.6-1-3-2-4.2-3.1c-3.7-3.6-5.6-8-5.6-13.4c0-2.8,1.1-6,3.4-9.5c0.2-0.4,1-1.5,2.2-3.3
	c0.8-0.9,1.1-1.5,1.1-1.9c0-0.3-0.1-0.5-0.2-0.6c-0.1,0-0.1,0-0.1-0.1c-0.1-0.1-0.3-0.1-0.4-0.1c-0.2,0.2-0.5,0.5-0.6,0.7
	c-3.6,4.6-5.8,7.8-6.5,9.3c-1.1,2.3-1.6,5.3-1.6,9.1c0,0.9,0.6,2.7,1.8,5.7c1.2,2.6,2,4.3,2.7,5c0,0.1,0.1,0.2,0.1,0.2
	c1.1,1.2,3.5,3,7.3,5.3c0.1,0,0.2,0,0.3,0.1C128.9,172.85,131.7,174.15,133.4,174.15z"/>
<path fill="#EE4130" d="M211.8,146.65c0.4-1,0.9-1.7,1.3-2.2c-4.1,2.9-9.4,4.5-15.9,4.9c-0.9,0.1-1.9,0.1-2.8,0.1
	c-0.8,0-1.5,0-2.2,0c-0.1,0-0.1,0-0.2,0c0,0,0,0.1,0,0.2c0,0.3,0,0.7-0.2,1.3c-0.1,0.7-0.1,1.3-0.1,1.5c0,1.9,0.4,3.4,1,4.6
	c0.6,1.1,1.5,2.1,2.8,3.1c0.7,0.1,1.5,0.3,2.3,0.3c4.1,0,7.8-2.7,10.9-7.9C209.2,151.65,210.2,149.75,211.8,146.65z M199.5,152.45
	c0.1,0.2,0.2,0.5,0.4,0.7c0.7-0.7,1.4-1,2.1-1c0.6,0,1,0.3,1.3,0.7c0.3,0.4,0.3,0.8,0.3,1.3c0,0.8-0.3,1.5-1,2.3c-0.6,0.7-1.3,1-2,1
	c-0.4,0-0.9-0.2-1.3-0.5c-0.3,0.4-0.8,0.7-1.4,0.7c-0.8,0-1.3-0.5-1.6-1.4c0-1,0-1.6,0-1.6c0-2,0.3-3,1-3.2c0.3-0.1,0.5-0.1,0.9,0
	C198.6,151.65,199.1,151.95,199.5,152.45z"/>
<path fill="#333333" d="M199.9,153.15c-0.2-0.2-0.3-0.5-0.4-0.7c-0.4-0.5-0.9-0.8-1.3-1c-0.4-0.1-0.6-0.1-0.9,0
	c-0.7,0.2-1,1.2-1,3.2c0,0,0,0.6,0,1.6c0.3,0.9,0.8,1.4,1.6,1.4c0.6,0,1.1-0.3,1.4-0.7c0-0.1-0.1-0.2-0.1-0.2
	c-0.5-0.5-0.6-1-0.6-1.6c0-0.4,0.3-0.9,1-1.7C199.6,153.45,199.7,153.25,199.9,153.15z"/>
<path fill="#FFFFFF" d="M199.9,153.15c-0.2,0.1-0.3,0.3-0.3,0.3c-0.7,0.8-1,1.3-1,1.7c0,0.6,0.1,1.1,0.6,1.6c0,0,0.1,0.1,0.1,0.2
	c0.4,0.3,0.9,0.5,1.3,0.5c0.7,0,1.4-0.3,2-1c0.7-0.8,1-1.5,1-2.3c0-0.5,0-0.9-0.3-1.3c-0.3-0.4-0.7-0.7-1.3-0.7
	C201.3,152.15,200.6,152.45,199.9,153.15z"/>
<path fill="#C54D35" d="M186.7,150.55c0.4,0.7,1,2.1,1.9,4.1c1.8,3,4,4.8,6.9,5.5c-1.3-1-2.2-2-2.8-3.1c-0.6-1.2-1-2.7-1-4.6
	c0-0.2,0-0.8,0.1-1.5c0.2-0.6,0.2-1,0.2-1.3c0-0.1,0-0.2,0-0.2c-2.3,0-4.3-0.1-6.2-0.2C186.1,149.55,186.4,149.95,186.7,150.55z"/>
<path fill="#C54D35" d="M127.9,137.95c-0.1,0.3-0.2,0.6-0.3,0.9c-1,2.1-1.4,3.9-1.4,5.6c0,2.3,0.6,4.4,2,6.2
	c2.1,2.8,5.7,4.3,10.8,4.7c-1.3-0.9-2.4-2.1-3.4-3.7c-1.6-2.2-2.4-4.1-2.4-5.7c0-0.5,0.2-1.5,0.6-2.6c0.3-0.7,0.5-1.1,0.7-1.5
	C132.2,140.65,130,139.45,127.9,137.95z"/>
<path fill="#EE4130" d="M134.5,141.85c-0.2,0.4-0.4,0.8-0.7,1.5c-0.4,1.1-0.6,2.1-0.6,2.6c0,1.6,0.8,3.5,2.4,5.7
	c1,1.6,2.1,2.8,3.4,3.7c0.7,0.1,1.5,0.1,2.2,0.1c1.3,0,2.6-0.2,4-0.5h0.1c3.3-0.7,6.9-2.1,10.7-4.3c1-0.5,2.7-1.6,5.2-3.2
	c-5.7,0-11-0.7-15.8-1.8c0.2,0.3,0.3,0.8,0.3,1.3c0,0.2,0,0.7,0,1.9c0-0.1,0-0.1,0.1-0.2c0.8-0.5,1.7-0.8,2.4-0.8
	c0.5,0,0.8,0,0.9,0.1c0,0,0.1,0,0.1,0.2c0.5-0.1,0.8,0,0.9,0.2c0,0.1,0,0.3,0,0.7c0,0.7-0.4,1.5-1.2,2.2c-0.8,0.9-1.7,1.2-2.4,1.2
	c-0.4,0-0.8,0-1.2-0.3c-0.1,0-0.1,0-0.1,0c-0.1,0.1-0.2,0.1-0.4,0.1c-1.2,0-2.2-0.4-2.7-1.3c-0.4-0.5-0.5-1-0.5-1.5
	c0-1.9,0.6-3.2,2-4c0.1,0,0.2-0.2,0.4-0.2C140.6,144.45,137.5,143.25,134.5,141.85z"/>
<path fill="#FFFFFF" d="M145.8,148.65c-0.1,0.1-0.1,0.1-0.1,0.2c-0.9,0.6-1.2,1.1-1.2,1.8c0,0.6,0.2,1.1,0.7,1.5c0,0,0,0,0.1,0
	c0.4,0.3,0.8,0.3,1.2,0.3c0.7,0,1.6-0.3,2.4-1.2c0.8-0.7,1.2-1.5,1.2-2.2c0-0.4,0-0.6,0-0.7c-0.1-0.2-0.4-0.3-0.9-0.2
	c0-0.2-0.1-0.2-0.1-0.2c-0.1-0.1-0.4-0.1-0.9-0.1C147.5,147.85,146.6,148.15,145.8,148.65z"/>
<path fill="#FFFFFF" d="M165.3,212.95c-5.1,3.2-9.5,4.8-13,4.8c-0.7,0-1.6,0-2.3,0c0.8,0.2,1.9,0.6,3.2,1.1c3.3,1.2,6.4,1.9,9.4,1.9
	c2.7,0,5.1-0.4,7.1-1.2c2.1-0.9,3.9-1.5,5.3-2c-0.5-0.2-1.1-0.5-1.6-0.7c-3.2-1.8-5.4-3.4-6.7-4.8
	C166.2,212.35,165.8,212.55,165.3,212.95z"/>
<path fill="#D5D5D5" d="M133.3,306.85c1.8,0,3.4,0.1,5,0.1c3.1,0,5.8-0.1,8.3-0.3v-1c-0.8,0-1.4,0-2.1,0c-1.5,0-2.9,0-4.3,0
	c-0.7-0.1-1.3-0.1-1.9-0.1c-2.9-0.1-5.7-0.3-8.5-0.6c-2-0.1-4.1-0.4-6.1-0.6c-6.4-1-12.5-2.4-18.1-4.1c-3.7-1.3-7-2.6-9.8-4.1
	c-0.2,0.7-0.3,1.3-0.4,2.1c-0.1,0.2-0.1,0.3-0.1,0.4c0,1.1,0.2,2.2,0.4,3.3c0.4,1.7,0.9,3.5,1.7,5.5c1.3,3.2,2.1,6.2,2.1,9.1
	c0,0.2,0,0.4,0,0.5c-0.2,1-0.5,2.9-1.3,5.5c-0.4,1.4-0.9,3.1-1.5,5c-1.6,5.4-3.1,8.7-4.6,10c1.8,0.1,4.4,1.1,7.8,2.9
	c1.4,0.6,3,1.5,4.7,2.5c-0.3-0.4-0.6-0.7-0.9-1.1c-2.1-2.4-3.1-4.6-3.1-6.9c0-6.5,2.2-12.7,6.7-18.8c4.9-6.3,10.3-9.6,16.2-9.6
	c0.4,0,0.9,0,1.6,0C126.9,306.65,129.6,306.65,133.3,306.85z"/>
<path fill="#FFFFFF" d="M138.3,306.95c-1.6,0-3.2-0.1-5-0.1c-3.7-0.2-6.4-0.2-8.2-0.3c-0.7,0-1.2,0-1.6,0c-5.9,0-11.3,3.3-16.2,9.6
	c-4.5,6.1-6.7,12.3-6.7,18.8c0,2.3,1,4.5,3.1,6.9c0.3,0.4,0.6,0.7,0.9,1.1c2.7,1.4,5.7,3.1,9.1,5.1c0.5,0.3,1,0.6,1.5,0.9
	c3.3,1.4,6.9,2.7,10.9,3.9c-0.6-0.8-1.3-1.6-1.9-2.6c-0.1-0.3-0.3-0.5-0.5-0.8c-0.8-1.3-1.2-2.1-1.2-2.5c0-2,0.6-3.7,1.8-5.3
	c0.4-0.4,0.8-0.9,1.1-1.3c0.1-0.1,0.1-0.2,0.1-0.3c0.3-1.4,0.8-2.3,1.5-2.7c0.1,0.1,0.2,0.3,0.2,0.7c0.1,0.6,0.1,1.5,0.1,2.7
	c0,2.2,0.3,3.9,0.9,5.2c0.2,0.4,1.4,2.4,3.4,6v0.3c-0.6-0.3-1.1-0.6-1.7-0.9c0.5,0.8,0.9,1.7,1.3,2.9c2.1,0.5,4.2,1,6.4,1.4
	c11,2.3,22,3.4,33,3.4c7.8,0,12.9-0.3,15.2-0.8c0.5-0.2,1.2-0.4,2-0.8c0.6-0.1,1.2-0.3,1.8-0.4c0.1-1.5,0.2-2.6,0.3-3.3
	c0.4-3.3,1.6-5.8,3.3-7.5c2.1-2.2,5.1-3.1,9.1-2.8c-0.2-1.8-1-4.4-2.1-7.9c-1.6-4.7-2.5-7.7-2.5-8.7c0-0.9,0.9-2.5,2.5-4.8
	c1.5-2.2,2.4-4.2,2.4-5.9c0-0.6-0.3-1.6-0.8-3.2c-0.4-1.7-0.6-2.9-0.6-3.6c0.4,0,0.9-0.4,1.4-0.9c-0.6,0-1.3,0-1.9,0h-0.1
	c-5.2,0-10.6-0.5-16.2-1.5c-0.2,0-0.4-0.1-0.7-0.1c-0.7-0.2-1.5-0.4-2.2-0.5c-6.3-1.4-10-3.3-10.9-5.6l-2.9,0.7
	c-0.9,0.5-1.8,1-2.8,1.4c-4.7,1.7-10.7,2.6-18.3,2.8l0,0v1C144.1,306.85,141.4,306.95,138.3,306.95z M171.7,315.45
	c1.9-1.8,4.1-2.7,6.9-2.7c5.1,0,9,0.7,11.6,2.1c3.2,1.7,4.8,4.6,4.8,8.5c0,1.1,0,2.1-0.2,3.1c-0.2,1.6-0.7,2.9-1.4,3.9
	c-0.6,0.8-1.6,1.8-3.2,3c-0.1-0.4-0.4-0.7-0.5-1c-2-3.7-4.9-6.9-8.5-9.7c-2.2-1.5-3.9-2.7-5-3.4
	C174.3,317.85,172.8,316.55,171.7,315.45z M188,334.95c1.6-0.4,3.5-0.7,5.5-1.2c-7.2,4.7-16.4,7.2-27.9,7.2
	c-9.3,0-18.1-1.3-26.4-3.6c-5.9-1.7-10-3.4-12.7-5.1c-2.7-1.8-4.3-3.8-4.9-5.9c-0.1-0.7-0.3-2.7-0.3-5.8c0-3.5,0.2-5.6,0.3-6.5
	c0.5-2.5,1.6-4.3,3.5-5.3c0,0.1,0.1,0.2,0.1,0.3c0,0.3,0.1,0.5,0.1,0.9c0,0.6-0.2,2-0.8,4c-0.3,1.2-0.5,2.4-0.7,3.6
	c0,0.9-0.1,1.8-0.1,2.7l0.8-0.4c2,5,8.6,9,19.9,12.1c4.8,1.3,10.2,2.4,16,3.1c4.7,0.6,8.4,0.9,11.3,0.9c4,0,6.5,0,7.2,0
	c0.7-0.1,1.3-0.1,2-0.3l0.1,0.8c1.9-0.4,4.1-0.8,6.5-1.4C187.6,335.05,187.8,335.05,188,334.95z"/>
<path fill="#E6E6E6" d="M178.6,312.75c-2.8,0-5,0.9-6.9,2.7c1.1,1.1,2.6,2.4,4.5,3.8c1.1,0.7,2.8,1.9,5,3.4c3.6,2.8,6.5,6,8.5,9.7
	c0.1,0.3,0.4,0.6,0.5,1c1.6-1.2,2.6-2.2,3.2-3c0.7-1,1.2-2.3,1.4-3.9c0.2-1,0.2-2,0.2-3.1c0-3.9-1.6-6.8-4.8-8.5
	C187.6,313.45,183.7,312.75,178.6,312.75z"/>
<path fill="#333333" d="M193.5,333.75c-2,0.5-3.9,0.8-5.5,1.2c-0.2,0.1-0.4,0.1-0.5,0.1c-2.4,0.6-4.6,1-6.5,1.4
	c-1.7,0.3-3.2,0.5-4.5,0.8c-5.1,0.7-10.2,1.1-15.3,1.1c-6.4,0-12.9-0.9-19.6-2.7c-5.6-1.5-9.8-3.1-12.5-4.8
	c-2.9-1.8-4.5-3.6-5.1-5.4c-0.2-0.6-0.3-2.3-0.3-5.2c0-0.9,0.1-1.8,0.1-2.7c0.2-1.2,0.4-2.4,0.7-3.6c0.6-2,0.8-3.4,0.8-4
	c0-0.4-0.1-0.6-0.1-0.9c0-0.1-0.1-0.2-0.1-0.3c-1.9,1-3,2.8-3.5,5.3c-0.1,0.9-0.3,3-0.3,6.5c0,3.1,0.2,5.1,0.3,5.8
	c0.6,2.1,2.2,4.1,4.9,5.9c2.7,1.7,6.8,3.4,12.7,5.1c8.3,2.3,17.1,3.6,26.4,3.6C177.1,340.95,186.3,338.45,193.5,333.75z"/>
<path fill="#E6E6E6" d="M176.5,337.25c1.3-0.3,2.8-0.5,4.5-0.8l-0.1-0.8c-0.7,0.2-1.3,0.2-2,0.3c-0.7,0-3.2,0-7.2,0
	c-2.9,0-6.6-0.3-11.3-0.9c-5.8-0.7-11.2-1.8-16-3.1c-11.3-3.1-17.9-7.1-19.9-12.1l-0.8,0.4c0,2.9,0.1,4.6,0.3,5.2
	c0.6,1.8,2.2,3.6,5.1,5.4c2.7,1.7,6.9,3.3,12.5,4.8c6.7,1.8,13.2,2.7,19.6,2.7C166.3,338.35,171.4,337.95,176.5,337.25z"/>
<path fill="#D5D5D5" d="M201.8,312.95c0.5,1.6,0.8,2.6,0.8,3.2c0,1.7-0.9,3.7-2.4,5.9c-1.6,2.3-2.5,3.9-2.5,4.8c0,1,0.9,4,2.5,8.7
	c1.1,3.5,1.9,6.1,2.1,7.9c1.8,0,3.7,0.4,5.8,0.9c0-0.7-0.2-1.4-0.5-2c-0.3-0.8-0.6-1.5-1.1-2.3c-1.2-1.6-1.8-3.6-1.8-5.9
	c0-2.2,0.3-3.8,0.9-4.6c1.7-2.1,3.1-4.2,4.2-6.4c-1.1-0.1-1.7-0.3-2.1-0.7c-0.1,0-0.1-0.3-0.1-0.7c0-4.7,1-9.2,3-13.6
	c0-0.1,0-0.2,0.1-0.2c-0.4,0-0.9,0-1.3,0.1c-1.7,0.2-4,0.3-6.8,0.4c-0.5,0.5-1,0.9-1.4,0.9C201.2,310.05,201.4,311.25,201.8,312.95z
	"/>
<path fill="#333333" d="M127.3,340.75c0-1.2,0-2.1-0.1-2.7c0-0.4-0.1-0.6-0.2-0.7c-0.7,0.4-1.2,1.3-1.5,2.7c0,0.1,0,0.2-0.1,0.3
	c-0.1,0.5-0.2,1-0.2,1.4c0,0.3,0,0.6,0,0.9c0,1.7,0.4,3.3,1.4,5.1c0.9,1.5,2,2.7,3.3,3.6c0.6,0.3,1.1,0.6,1.7,0.9v-0.3
	c-2-3.6-3.2-5.6-3.4-6C127.6,344.65,127.3,342.95,127.3,340.75z"/>
<path fill="#E6E6E6" d="M131.2,354.25L131.2,354.25c-0.4-1.2-0.8-2.1-1.3-2.9c-1.3-0.9-2.4-2.1-3.3-3.6c-1-1.8-1.4-3.4-1.4-5.1
	c0-0.3,0-0.6,0-0.9c0-0.4,0.1-0.9,0.2-1.4c-0.3,0.4-0.7,0.9-1.1,1.3c-1.2,1.6-1.8,3.3-1.8,5.3c0,0.4,0.4,1.2,1.2,2.5
	c0.2,0.3,0.4,0.5,0.5,0.8c0.6,1,1.3,1.8,1.9,2.6c1.6,0.5,3.2,0.8,5,1.3C131.1,354.15,131.1,354.15,131.2,354.25z"/>
<path fill="#E6E6E6" d="M247.6,353.55c0.2,0.3,0.4,0.6,0.6,0.9c0.3,0.5,0.6,1,1,1.4c0.3,0.6,0.6,1.1,1,1.5c0.9,1.3,1.3,2.1,1.3,2.1
	l3.1,1.2c2.6,0.6,4.6,1.8,5.9,3.7c1.1,1.6,1.6,3.6,1.6,5.9c0,0.8-0.2,1.7-0.5,2.7c-0.3,0.6-0.8,1.6-1.5,2.8l1.1,0.7l0,0
	c3.5-6,5.4-10,5.4-11.9c0-0.5-0.4-1.2-1-2.4c-0.8-1.4-1.7-2.7-2.9-3.9c-1.5-1.7-3.2-2.9-5-3.8c-1-0.5-2.1-0.9-3.2-1.1
	c-1-0.3-2.2-0.4-3.3-0.4c-0.4,0-0.8,0.1-1.5,0.3c-0.8,0.2-1.4,0.3-1.5,0.3H247.6z"/>
<path fill="#E6E6E6" d="M251.5,360.05c-0.1,0.2-0.2,0.3-0.2,0.4c0,0-0.1,0-0.1,0.1c-0.1,0-0.4,0-0.7,0c-1.3,0-2.5-0.6-3.5-2.1
	c0,0-0.1,0-0.2-0.1c-0.1-0.4-0.3-0.7-0.5-1c-0.9-1.7-1.7-3-2.2-4c-3.1-4.9-8.1-7.3-15.3-7.3c-4.5,0-7.7,0.4-9.8,1.3
	c-0.4,0.2-0.7,0.5-1,0.6c1.6,0.7,3.3,1.6,5.2,2.6c-0.1,0.3-0.2,0.5-0.2,0.7c0,0-0.1,0.1-0.2,0.2c-0.1,0-0.3,0.1-0.6,0.1
	c-1.9,0-5-0.9-9.2-2.7c-4.3-1.9-7.2-2.8-8.9-2.8c-4.4,0-7.4,1.2-9.1,3.4c-1.4,1.9-2.1,4.5-2.1,8c0,1.8,0.3,4,0.8,6.5
	c0.8,3,1.3,5.4,1.4,6.9c0.1,0.2,0.1,1.1,0.1,2.5c0.1,1.4,0.5,2.7,1.3,3.9c2.1,3.5,6.8,5.2,14,5.2l0.7-3.5c-1.6-0.5-3.6-2-6-4.5
	c-2.7-3.1-4-5.4-4-7c0-2.6,1.1-4.9,3.4-6.8c2.2-1.8,4.9-2.7,7.9-2.7c2.2,0,4.7,0.5,7.6,1.4c1.5,0.6,3.9,1.5,7.1,2.7h1.4v-3.5
	c-0.3-0.2-1-1.1-2.1-2.7c-1-1.4-1.7-2.4-2-2.7h6.8c2.9,0.1,6.3,2.2,10.2,6.5c0,0.1,0.1,0.2,0.1,0.2c0.1,0.1,0.3,0.4,0.5,0.6
	c1.9,2.1,4.2,5,7,8.5c1.9-1.4,3.3-2.5,4.2-3.4c1.8-1.6,2.2-3.3,1.3-4.9L251.5,360.05z"/>
<path fill="#FFFFFF" d="M251.5,359.45c0,0.4,0,0.6,0,0.6l3.1,0.6L251.5,359.45z"/>
<path fill="#FFFFFF" d="M254.6,360.65c0.9,1.6,0.5,3.3-1.3,4.9c-0.9,0.9-2.3,2-4.2,3.4c-2.8-3.5-5.1-6.4-7-8.5
	c-0.2-0.2-0.4-0.5-0.5-0.6c0,0-0.1-0.1-0.1-0.2c-3.9-4.3-7.3-6.4-10.2-6.5h-6.8c0.3,0.3,1,1.3,2,2.7c1.1,1.6,1.8,2.5,2.1,2.7v3.5
	h-1.4c-3.2-1.2-5.6-2.1-7.1-2.7c-2.9-0.9-5.4-1.4-7.6-1.4c-3,0-5.7,0.9-7.9,2.7c-2.3,1.9-3.4,4.2-3.4,6.8c0,1.6,1.3,3.9,4,7
	c2.4,2.5,4.4,4,6,4.5l-0.7,3.5c2.2,0,4.2-1.5,6-4.6c0.1-0.5,0.7-1.7,1.7-3.7c0.1-0.1,0.1-0.2,0.2-0.2c0.6-1.2,1-1.9,1.3-2.3
	c0,0.2,0.1,0.4,0.1,0.6c0.1,0.2,0.1,0.5,0.1,0.8c0,1.9-0.5,4-1.5,6.6c-0.3,1-0.8,1.9-1.3,2.7c0.4,0.1,0.7,0.5,1.1,1
	c1,1.3,1.8,2.2,2.3,2.7c1.3,1.3,3.1,2.3,5.4,2.9c2.3,0.7,5.2,1.1,8.4,1.1c2,0,3.8-0.4,5.3-1.1c1.7-0.8,3.1-2.2,4-4
	c0.1-0.2,0.7-1.5,1.6-4.1c0.6-1.4,1.3-2.4,2-2.9c0.4,0.9,0.6,1.6,0.6,2.1c0,0.4-0.1,0.9-0.2,1.5c-0.1,0.2-0.2,0.4-0.3,0.5
	c0,0.1,0,0.2,0,0.3l-0.1,0.1c-0.1,0.5-0.1,1-0.1,1.5c0,1.6,1,2.8,2.9,3.5c0.7,0.3,1.7,0.5,3.2,0.8c0.8-0.8,1.7-1.9,2.7-3.4
	c0.4-0.6,1.4-2.1,2.7-4.4c0.1,0,0.2-0.1,0.3-0.3l1.3-2.2c0.2-0.3,0.4-0.5,0.5-0.7c0-0.1,0-0.1,0-0.1c0.2-0.2,0.3-0.5,0.5-0.7
	l-1.1-0.7c0.7-1.2,1.2-2.2,1.5-2.8c0.3-1,0.5-1.9,0.5-2.7c0-2.3-0.5-4.3-1.6-5.9C259.2,362.45,257.2,361.25,254.6,360.65z"/>
<path fill="#E6E6E6" d="M246.6,388.95c0,0,0,0,0,0.1c1.8,0.6,3,1,3.6,1c0.6,0,1.4-0.4,2.1-1.1c0.3-0.1,0.6-0.4,0.9-0.7
	c-1.5-0.3-2.5-0.5-3.2-0.8c-1.9-0.7-2.9-1.9-2.9-3.5c0-0.5,0-1,0.1-1.5c0,0,0,0.1,0,0.2c-0.6,1.7-1.4,3.2-2.2,4.5
	c-0.3,0.3-0.4,0.7-0.7,0.9C244.6,388.25,245.4,388.55,246.6,388.95z"/>
<path fill="#FFFFFF" d="M268.5,384.25c0.4-0.3,1.2-1.1,2.5-2.3h0.5c0-0.1,0.1-0.2,0.1-0.3c0-1-1-2.6-2.8-4.8
	c-1.5-1.9-2.3-2.9-2.6-3.3c-0.9,2-1.9,3.9-2.8,5.8c-0.2,0.3-0.4,0.7-0.7,1.1v1.5c0.5,0,1.2,0.5,2.1,1.4c1,0.9,1.7,1.3,2.1,1.3
	C267.6,384.65,268.1,384.45,268.5,384.25z"/>
<path fill="#E6E6E6" d="M271,381.95c-1.3,1.2-2.1,2-2.5,2.3c-0.4,0.2-0.9,0.4-1.6,0.4c-0.4,0-1.1-0.4-2.1-1.3
	c-0.9-0.9-1.6-1.4-2.1-1.4v-1.5c-1.1,2.1-2.1,3.9-3.1,5.5h0.1c0.8,0,1.5,0.3,2.3,1c0.3,0.3,0.7,0.5,1,0.9c1.5,0,3.3-0.9,5.6-2.9
	c1.5-1.4,2.5-2.4,2.9-3H271z"/>
<path fill="#999999" d="M101.6,35.05c-0.3,0.6-0.5,1.1-0.8,1.7c-3.6,7-5.5,10.9-5.8,11.5c-1.4,2.7-3.4,5.6-6,8.7
	c0.3,0.8,0.7,1.7,1.1,2.5c0.6,1.5,1.2,2.5,1.6,3.3c0.4,0.6,0.6,0.9,0.9,1.2c1.7,1.7,3.1,2.9,4,3.7c-1.6-1.7-2.4-3.8-2.4-6.4
	c0-2.3,0.5-4.3,1.6-5.9c0.8-1.1,2.4-2.9,4.9-5.2c-0.1-1.5-0.2-2.7-0.2-3.9c0-2,0.1-4.5,0.6-7.6C101.2,37.35,101.4,36.15,101.6,35.05
	z"/>
<path fill="#C4C4C4" d="M101,52.05c-0.1-0.6-0.2-1.3-0.3-1.9c-2.5,2.3-4.1,4.1-4.9,5.2c-1.1,1.6-1.6,3.6-1.6,5.9
	c0,2.6,0.8,4.7,2.4,6.4c0.3,0.2,0.6,0.4,0.7,0.6c0.1,0,0.2,0.1,0.3,0.2c3,1.9,6.1,2.9,9.6,2.9c1,0,1.8-0.6,2.2-1.7
	c0,0-1.1-1.4-3.2-4.4c-2.2-3.1-3.6-5.6-4-7.5C101.6,55.25,101.2,53.45,101,52.05z"/>
<path fill="#FFFFFF" d="M213.2,201.25c-0.1,0.4-0.3,0.8-0.5,1.3c-0.7,2.1-1.6,4.1-2.6,6c2.4,1.5,4.2,2.8,5.5,3.9
	c0.9,0.5,1.7,1.2,2.6,1.9c3,2.6,6,5.9,9.1,9.9l0.2,0.2c-1.8-0.8-3.9-2.2-6.6-4.4c-2.3-1.9-4.1-3.4-5.4-4.5c-0.5-0.3-0.9-0.7-1.2-1
	c-1.5-1.1-3.3-2.3-5.7-3.8c-1.5,2.2-3.2,4.2-5,5.7c0.2,0.4,0.3,1,0.3,1.6c0,3.3-2.7,5.4-8.2,6.5c-2.4,0.4-6,0.7-11,0.7
	c-2.5,0-5.7,0.8-9.7,2.7s-8.1,2.7-12.2,2.7c-3.5,0-8.2-1.1-14.2-3.3c-2.4-0.9-6.1-2.5-11.1-4.9c-1.4-0.6-5.7-1.6-12.9-3
	c-6.4-1.2-10.8-2.8-13.1-4.5c-0.3-0.2-0.5-0.4-0.8-0.6c-0.4,0.2-0.6,0.5-0.9,0.6l-0.2-0.1c0-0.2,0.3-0.4,0.6-0.9
	c-2.4-2.3-4.4-5.5-6-9.9c-0.4-0.9-0.6-1.7-0.9-2.5c-0.7,0.4-1.3,0.9-2.1,1.3c-5.9,4.4-9.4,6.7-10.3,7.2c0.8-1.6,2.3-3.2,4.2-5.2
	c2-1.9,4-3.6,6.1-5.1c0.4-0.3,0.8-0.5,1.2-0.8c-0.2-0.4-0.3-0.7-0.4-1c-0.9-2.3-1.8-4.1-2.8-5.6c-1.1-1.5-2.6-2.9-4.3-4
	c-0.6,0.1-1.2,0.3-1.7,0.5c-7,2.5-11.8,4-14.3,4.7c5.6-2.9,10.2-5.1,13.8-6.4c-0.9-0.5-1.9-0.8-3-1.2c-3.8-1.2-8.6-1.8-14.5-1.8
	c-0.2,0-0.4,0-0.6,0c-1,0.3-2.1,0.6-3.3,1.1c-1.6,0.6-3.3,1.3-5.1,2.2c-2.8,1.3-5.7,3-8.9,4.9c-3.8,2.5-7.2,5-10.1,7.6
	c-2.2,3.4-4.6,7.6-7.1,12.9c-0.1,0-0.1,0.1-0.2,0.2c-4.4,9.2-6.9,15.9-7.6,20.2c-0.1,0.7-0.1,1.3-0.1,1.9c0,0.5,0.2,1.9,0.6,3.9
	c0.5,2.1,0.8,3.4,0.8,3.9c0,1.2-0.5,2.6-1.4,4.2c-0.2,0.3-0.4,0.5-0.6,0.8c0,0.1,0,0.3,0,0.5c0,1.7-1.1,3.4-3.5,5.1
	c-0.4,0.2-0.6,0.4-0.9,0.7c-1.3,0.7-4.6,2.5-10,5.2c-1.1,0.5-2.2,1-3.1,1.6c-0.6,0.3-1.1,0.5-1.5,0.9c-2.3,1.2-4.1,2.4-5.4,3.4
	c-3,2.5-4.5,5.1-4.5,7.9c0,0.2,0,0.5,0,0.8c0.2,2,0.9,4.5,2.2,7.4c0.1,0.1,0.1,0.2,0.1,0.2c2.1,4.9,4.9,7.4,8.3,7.4
	c0.6,0,1.6,0.1,2.9,0.4c0,0,0.1,0,0.3,0c0.1,0,0.1,0.2,0.1,0.5c0,0.5-0.4,1-1.1,1.5c-0.3,0.1-0.6,0.3-0.9,0.4c1,0.2,2.2,0.4,3.9,0.4
	c1.2,7.8,2.5,14.1,3.7,18.7c1.7,6.5,3.9,12.1,6.4,16.7c3.1,5.6,7.2,10.4,12.2,14.6l-0.2,0.2c3,2.5,6.3,4.8,9.6,6.8
	c2.4,1.4,5.3,3.1,8.6,5c2.2,1.4,3.3,2.8,3.3,4.3c0,0.3-0.1,0.4-0.3,0.7c-0.3,0.3-0.8,0.6-1.4,0.6c-0.9,0-3.8-1.8-8.4-5.1
	c-0.8-0.5-1.6-1.2-2.4-1.7c-3.2,0.9-6.4,2-9.7,3.4c-7.3,3-10.9,6.5-10.9,10.5c0,2,1.2,4.3,3.5,6.7c3.6,3.7,8.8,5.4,15.6,5.4
	c14.4,0,25.5-5.2,33.2-15.7c2.5-3.4,4.5-7.1,6-11.3c1-2.8,1.5-4.7,1.5-5.8c0-1.6-0.1-3.2-0.4-4.9c-0.4-2.4-1.2-4.9-2.1-7.8
	c-1.7-5.1-4.1-10.1-7.2-15.1c-4.5-7.5-9.5-13.5-14.9-17.9c-0.5-0.3-0.9-0.7-1.3-1c-0.3-0.3-0.7-0.6-1.1-0.9c-0.1,0-0.1,0-0.2-0.1
	c-0.3-0.2-0.6-0.4-1-0.6c-2.1-1.5-4.4-2.7-6.7-3.7c0-0.2-0.1-0.3-0.3-0.3c0.5-0.4,1.1-0.5,1.7-0.6l-0.2-1.1c2.5-0.8,5-2.3,7.3-4.4
	c2.8-2.8,5.6-6.6,8.1-11.4c2-4.1,3.7-8.4,5-12.9c1.1-4,1.7-7,1.7-9.1c0-2.2-0.2-4.1-0.6-5.9c-0.4-1.5-1.1-3.1-2.1-5
	c1.7,1.1,3.2,2.4,4.5,3.9c0.2,0.3,1.1,1.5,2.5,3.5c1.7,2.4,3.9,3.5,6.7,3.5c0.7,0,1.4-0.1,2.3-0.4c0.4-0.1,1.1-0.4,1.9-0.7
	c0.2-0.5,0.5-0.9,0.8-1.4c0,0.1,0,0.4,0,0.6c0.2,0.4,0.3,0.7,0.3,0.9c0,0.9-1,3.4-3.1,7.4c-0.2,0.3-0.4,0.7-0.6,1.1
	c-0.6,1.3-1.2,2.5-1.7,3.6c-1.4,3-2,5.8-2,8c0,0.3-0.1,1-0.3,2.3c-0.2,1.1-0.3,1.9-0.3,2.1c0,9,8.7,15.7,26.1,20.2
	c5.6,1.4,11.9,2.6,18.6,3.4c3.5,0.4,6.3,0.7,8.3,0.8c0.6,0.1,1.1,0.1,1.7,0.1c12.1,0,20.9-1.3,26.1-3.9c0.7-0.2,1.2-0.6,1.7-0.9
	c0.1-0.1,0.2-0.2,0.3-0.2c1.3-1,2.2-2.1,2.7-3.2c0.8-2.2,1.2-5,1.3-8.6c0-0.3,0-0.7,0-1.2c-0.1-4.4-0.1-7.6-0.1-9.9c0,0,0,0,0-0.1
	c0-3.9,0.3-7,1-9.5c0.4,1.3,0.6,2.8,0.9,4.5c0,0.2,0,0.4,0.1,0.5c0.1,1.4,0.4,2.8,0.5,4.4v0.1c0.4,2.6,0.5,5,0.6,7
	c0.1,1,0.1,2,0.1,2.8l1.9-2.9c1,6.2,2.3,10.3,4,12.1c0.7,0.8,4.2,2,10.6,4c6.7,1.9,11.1,2.9,13.3,2.9s3.9-0.4,5-1.1
	c2.9-2.1,6-4,9.3-5.7c0,0,0-0.1,0.1-0.1c1.6-2.5,2.9-4.7,3.7-6.4c0.2-0.4,0.3-0.6,0.4-0.9c1.9-4.1,2.9-8.1,3-12.2c0-0.3,0-0.6,0-0.9
	c0-0.4-0.2-2.3-0.7-5.6c-0.5-3.4-0.8-5.2-0.8-5.5c0-1,0.2-1.4,0.6-1c0.4,0.3,0.8,1,1.4,2.4c0.4,1.1,0.8,2.3,1,3.5
	c0.6,2.1,0.9,4.3,0.9,6.4c0,3.3-0.3,6.2-0.8,8.7c-0.1,0.6-0.2,1.3-0.3,1.9l0.6,0.1v0.1c0,0.5-0.1,0.9-0.1,1.5
	c-0.4,2.7-1.8,6.4-4.2,11.1c-0.3,0.7-0.6,1.3-0.8,1.9c-2.7,5.5-4.2,8.9-4.5,10.1c0.5,0.3,1.3,0.3,2.5,0.3c1.8-0.2,2.8-0.3,3-0.3
	l0.1,0.3c0,0.3,0.2,0.4,0.5,0.4c-0.5,1.3-1.3,2.8-2.3,4.2c-0.5,0.9-1.3,2-2.4,3.6c-1.8,2.8-2.8,5.8-2.8,8.9c0,1,0.4,2.6,1,4.9
	c0.7,2.4,1,3.6,1,3.7c0,1.3-0.4,2.5-1.3,3.4v5.5h0.7l0.2,0.7c1.7-0.5,3.6-0.8,5.8-1c8-0.8,14.2,0.7,18.6,4.6l2.4-1.4
	c0-1.6,1.6-6.8,5-15.6c3.3-8.9,5.1-14.8,5.1-17.8c0-0.5-0.5-2.4-1.4-5.6c0-0.9,0.2-1.2,0.6-1c0.2,0.1,0.3,0.2,0.3,0.2
	c0.5-1.1,1.6-2.7,3.2-4.8c2.4-2.9,3.5-5,3.5-6.3c0-1.3-0.5-2.6-1.6-3.9c-1.1-1.2-1.6-2.1-1.6-2.6v-0.4l-0.3-0.1
	c-1.4,4.6-2.6,7.8-3.6,9.4c-0.3,0-0.5,0-0.6,0c-0.1-0.1-0.3-0.4-0.3-0.7c0-0.1,1.1-4.8,3.3-14c2-9.3,3.1-15.4,3.1-18.5
	c0-5.4-0.8-11.1-2.5-17c-1.7-6.4-4-11.9-7.1-16.5c-1.9-3.4-3.5-6.2-4.8-8c-0.5-0.9-1.1-1.8-1.7-2.6c-1.9-2.2-4-4.3-6.4-6.1
	c-1.9-1.3-3.7-2.6-5.6-3.9c-5.3-3.4-10.3-6.1-14.9-7.8C215.5,202.05,214,201.55,213.2,201.25z M247.6,243.65
	c-0.2,0.9-0.3,1.6-0.3,1.8c0,1.7,0.9,3.9,2.9,6.5c1.9,2.7,2.8,5.5,2.8,8.3c0,0.3-0.1,1.2-0.4,2.6c-0.2,1.4-0.4,2.2-0.4,2.5
	c0,0.5,0.3,1.3,0.9,2.5c0.5,1.2,0.7,2,0.7,2.3s-0.1,0.6-0.3,0.9c-0.2,0.3-0.4,0.4-0.7,0.6c-0.4-0.6-0.7-1.1-1.1-1.6
	c-1.2-2.1-1.8-3.6-1.7-4.7c0.4-1.5,0.7-3,0.7-4.6l-1.1-0.1c0,0.6-0.2,1.7-0.5,3.2c-0.4,1.6-0.6,2.6-0.6,3.3c0,0.8,0.3,1.7,0.8,2.9
	v1.6c-1.1-0.5-1.8-1.2-2.3-2c-0.4-0.7-0.5-1.6-0.5-2.6c0-0.6,0.1-1.8,0.5-3.6c0.3-1.7,0.5-2.9,0.5-3.6c0-1.4-1.8-3.4-5.2-5.9
	c-3.7-2.6-6.7-3.6-9.1-3c-0.2-0.5-0.2-0.9-0.2-1c2-0.3,3.8-0.3,5.6,0c2.6,0.5,5,1.5,7,3.3l1.9-1.1c-1.3-2.5-1.9-4.6-1.9-6.6
	c0-0.2,0.1-0.9,0.4-1.8c0.2-0.9,0.2-1.6,0.2-1.9c0-0.9-1.1-2.5-3.6-4.6c-1.3-1.2-2.4-2.1-3.1-2.9c-0.8-0.8-1.3-1.4-1.4-1.9
	c0.1-0.1,0.1-0.2,0.1-0.4c2.5,0.6,4.8,2,6.9,4.3c2,2,2.9,3.9,2.9,5.4C248,242.05,247.9,242.65,247.6,243.65z M238.3,235.45
	c0.5,0.5,0.9,1,1.4,1.7c1,1.3,1.8,2.7,2.5,4.3c0.7,1.4,1,2.3,1,2.8c0,0.7-0.1,1.4-0.5,2.2c-0.5,1-1,1.5-1.7,1.5c-0.7,0-1.4,0-2-0.1
	h-0.1c-0.7-0.3-1.6-0.5-2.3-0.9c-1.5-0.6-2.4-1.3-2.8-1.9v-0.7c0-0.1,0.3-0.1,0.7-0.1c0,0,0.8,0.3,2.5,1.1c1.6,0.6,2.6,1,3.1,1
	c0.7,0,1.1-0.5,1.4-1.6c0-1.1-2.8-4.3-8.3-9.8C234.7,233.35,236.4,233.45,238.3,235.45z"/>
<path fill="#333333" d="M247.5,252.15c0.2,0.4,0.5,0.8,0.7,1.3c1.7,2.9,2.5,5.1,2.5,6.7c0,0.2,0,0.4,0,0.6c0,1.6-0.3,3.1-0.7,4.6
	c-0.1,1.1,0.5,2.6,1.7,4.7c0.4,0.5,0.7,1,1.1,1.6c0.3-0.2,0.5-0.3,0.7-0.6c0.2-0.3,0.3-0.6,0.3-0.9s-0.2-1.1-0.7-2.3
	c-0.6-1.2-0.9-2-0.9-2.5c0-0.3,0.2-1.1,0.4-2.5c0.3-1.4,0.4-2.3,0.4-2.6c0-2.8-0.9-5.6-2.8-8.3c-2-2.6-2.9-4.8-2.9-6.5
	c0-0.2,0.1-0.9,0.3-1.8c0.3-1,0.4-1.6,0.4-1.9c0-1.5-0.9-3.4-2.9-5.4c-2.1-2.3-4.4-3.7-6.9-4.3c0,0.2,0,0.3-0.1,0.4
	c0.1,0.5,0.6,1.1,1.4,1.9c0.7,0.8,1.8,1.7,3.1,2.9c2.5,2.1,3.6,3.7,3.6,4.6c0,0.3,0,1-0.2,1.9c-0.3,0.9-0.4,1.6-0.4,1.8
	C245.6,247.55,246.2,249.65,247.5,252.15z"/>
<path fill="#333333" d="M248.5,267.15c0-0.7,0.2-1.7,0.6-3.3c0.3-1.5,0.5-2.6,0.5-3.2c0-2.7-1.4-5.1-4-7.4c-2-1.8-4.4-2.8-7-3.3
	c-1.8-0.3-3.6-0.3-5.6,0c0,0.1,0,0.5,0.2,1c2.4-0.6,5.4,0.4,9.1,3c3.4,2.5,5.2,4.5,5.2,5.9c0,0.7-0.2,1.9-0.5,3.6
	c-0.4,1.8-0.5,3-0.5,3.6c0,1,0.1,1.9,0.5,2.6c0.5,0.8,1.2,1.5,2.3,2v-1.6C248.8,268.85,248.5,267.95,248.5,267.15z"/>
<path fill="#333333" d="M239.7,237.15c-0.5-0.7-0.9-1.2-1.4-1.7c-1.9-2-3.6-2.1-5.1-0.5c5.5,5.5,8.3,8.7,8.3,9.8
	c-0.3,1.1-0.7,1.6-1.4,1.6c-0.5,0-1.5-0.4-3.1-1c-1.7-0.8-2.5-1.1-2.5-1.1c-0.4,0-0.7,0-0.7,0.1v0.7c0.4,0.6,1.3,1.3,2.8,1.9
	c0.7,0.4,1.6,0.6,2.3,0.9h0.1c0.6,0.1,1.3,0.1,2,0.1c0.7,0,1.2-0.5,1.7-1.5c0.4-0.8,0.5-1.5,0.5-2.2c0-0.5-0.3-1.4-1-2.8
	C241.5,239.85,240.7,238.45,239.7,237.15z"/>
<path fill="#D5D5D5" d="M203.9,218.05c0-0.6-0.1-1.2-0.3-1.6c-3.9,3.1-8.3,4.6-13.3,4.6c-4.5,0-8.7-0.7-12.7-2.3
	c-0.4,1.2-2,2.4-4.8,3.5c-3,1.1-6.2,1.6-9.7,1.6c-3.7,0-7.1-0.8-10.4-2.4c-2.5-1.4-4.1-2.6-4.4-3.8c-9.1-0.3-16.7-2-22.7-4.8
	c-2.1-1-4-2.2-5.5-3.4c-1.2-1.1-1.9-1.8-2-1.8c-0.1-0.2-0.3-0.2-0.4-0.3c-0.4,0.2-0.7,0.6-1.1,1c-2.8,2.9-4.8,4.9-5.9,6
	c0.3,0.2,0.5,0.4,0.8,0.6c2.3,1.7,6.7,3.3,13.1,4.5c7.2,1.4,11.5,2.4,12.9,3c5,2.4,8.7,4,11.1,4.9c6,2.2,10.7,3.3,14.2,3.3
	c4.1,0,8.2-0.8,12.2-2.7s7.2-2.7,9.7-2.7c5,0,8.6-0.3,11-0.7C201.2,223.45,203.9,221.35,203.9,218.05z"/>
<path fill="#D5D5D5" d="M175.7,289.05c0,0.8,0,1.5-0.1,2.3c-0.3,1.7-1,3.4-1.9,4.9c-0.7,1.2-1.6,2.2-2.8,3.2
	c1.6-0.3,2.7-0.2,3.3,0.1c0.4,0.4,1.1,1,2.1,2c1.3,0.9,3.2,1.7,5.8,2.3c0.8,0.1,1.7,0.3,2.7,0.5c4.1,0.5,9.4,0.8,15.8,0.8
	c4,0,6.8-0.1,8.4-0.3c0.5,0,0.8-0.1,1.1-0.2c0,0,0.1-0.1,0.4-0.3c0.1-0.1,0.5-0.2,1.1-0.2c0.3,0,0.6,0.2,0.8,0.4h0.1
	c0.5-1,1.1-2,1.8-3.1c0.3-0.5,0.7-1,1-1.5c0.6-1,1.2-1.9,1.9-2.9l0,0c0.8-1.2,1.5-2.4,2.3-3.5c-3.3,1.7-6.4,3.6-9.3,5.7
	c-1.1,0.7-2.8,1.1-5,1.1s-6.6-1-13.3-2.9c-6.4-2-9.9-3.2-10.6-4c-1.7-1.8-3-5.9-4-12.1l-1.9,2.9
	C175.4,284.85,175.5,286.45,175.7,289.05z"/>
<path fill="#E6E6E6" d="M227.3,285.95c-0.1,0-0.1,0.1-0.1,0.3c-0.2,0.3-0.5,0.8-0.7,1.2c-0.9,1.7-2.3,3.7-4.2,6
	c-1.3,1.7-2.5,3.2-3.5,4.8c-0.2,0.4-0.6,0.8-0.8,1.2c-0.7,1.1-1.2,2.1-1.7,3c-1,2-1.8,4.1-2.6,6.5c-1.1,3.4-2.1,7.3-3,11.6
	c1,0,1.6,0.3,1.9,0.7c0.1,0.2,0.1,0.4,0.1,1c0,2.8-0.9,5.2-2.6,7.2c-1.2,1.2-1.9,2-1.9,2.1c-0.6,0.8-0.9,1.7-0.9,2.5
	c0,1.5,0.6,3.3,1.8,5.3c0.4,0.6,0.7,1.2,1,1.9c0.4,1,0.6,2,0.7,2.9c0,0.3,0,0.6,0,0.8c0,0.1,0,0.1,0,0.2c1.2,0.3,2.3,0.8,3.5,1.3
	c0.5-0.5,1.4-1,2.9-1.5c0.6-0.3,1.3-0.5,2-0.7l-0.2-0.7h-0.7v-5.5c0.9-0.9,1.3-2.1,1.3-3.4c0-0.1-0.3-1.3-1-3.7
	c-0.6-2.3-1-3.9-1-4.9c0-3.1,1-6.1,2.8-8.9c1.1-1.6,1.9-2.7,2.4-3.6c1-1.4,1.8-2.9,2.3-4.2c-0.3,0-0.5-0.1-0.5-0.4l-0.1-0.3
	c-0.2,0-1.2,0.1-3,0.3c-1.2,0-2,0-2.5-0.3c0.3-1.2,1.8-4.6,4.5-10.1c0.2-0.6,0.5-1.2,0.8-1.9c2.4-4.7,3.8-8.4,4.2-11.1
	c0-0.6,0.1-1,0.1-1.5v-0.1l-0.6-0.1c0,0,0,0.1-0.1,0.1C227.7,284.65,227.5,285.35,227.3,285.95z"/>
<path fill="#333333" d="M259.1,288.65v0.4c0,0.5,0.5,1.4,1.6,2.6c1.1,1.3,1.6,2.6,1.6,3.9c0,1.3-1.1,3.4-3.5,6.3
	c-1.6,2.1-2.7,3.7-3.2,4.8c0,0-0.1-0.1-0.3-0.2c-0.4-0.2-0.6,0.1-0.6,1c0.9,3.2,1.4,5.1,1.4,5.6c0,3-1.8,8.9-5.1,17.8
	c-3.4,8.8-5,14-5,15.6c0,0.4,0,0.5,0.1,0.6c0,0.1,0,0.2,0,0.2c0.1,0.1,0.2,0.2,0.4,0.2c0.1,0.1,0.2,0.1,0.5,0.1c0.1,0,0.1,0,0.2,0
	c0.1,0,0.3,0,0.5-0.1c1.4-1.2,3.5-6.5,6.5-15.8c3-9.7,4.6-15.2,4.6-16.3c0-2.2-0.7-4.5-2.1-7c0-0.1-0.1-0.3-0.1-0.4
	c2.4-2.3,4.1-4.3,5.2-5.7c1.8-2.5,2.8-4.8,2.8-6.7c0-1.3-0.4-2.5-1.2-3.6c-0.9-1.3-2.3-2.4-4.2-3.2L259.1,288.65z"/>
<path fill="#D5D5D5" d="M75.3,183.95c-0.2,0.1-0.5,0.1-0.7,0.2c0.2,0,0.4,0,0.6,0c5.9,0,10.7,0.6,14.5,1.8c1.1,0.4,2.1,0.7,3,1.2
	c0.3-0.1,0.5-0.2,0.8-0.3c4.1-1.4,9-2.5,14.3-3.2c1.8,0,3.4,0.1,4.7,0.3c0.1-0.5,0.2-0.9,0.3-1.1c0.7-1.8,1.3-2.9,2-3.4l0.2-0.1
	c-4.4-0.4-7-1-7.8-1.8c-0.3-0.3-0.4-0.8-0.1-1.5c0.4-0.8,0.5-1.4,0.5-1.6c-0.7,0-2.1,0.6-4.2,1.5c1.2,0.3,1.7,0.7,1.7,1.4
	c0,1.1-3.2,2.2-9.6,3.2C85.1,182.05,78.3,183.25,75.3,183.95z"/>
<path fill="#D5D5D5" d="M47.2,199.95c-0.9,0.8-1.7,1.6-2.6,2.5c-2.3,2.5-4.5,5.5-6.9,9.2c-0.1,0.3-0.3,0.6-0.5,0.9
	c-3.6,5.9-6.4,12.6-8.4,20c-1.5,5.9-2.4,11.9-2.8,18.3c2.8-1.9,4.6-2.9,5.5-3.2c0,0,0.1,0.1,0.1,0.2v0.1c0.2-0.3,0.4-0.5,0.6-0.8
	c0.9-1.6,1.4-3,1.4-4.2c0-0.5-0.3-1.8-0.8-3.9c-0.4-2-0.6-3.4-0.6-3.9c0-0.6,0-1.2,0.1-1.9c0.7-4.3,3.2-11,7.6-20.2
	c0.1-0.1,0.1-0.2,0.2-0.2C42.6,207.55,45,203.35,47.2,199.95z"/>
<path fill="#D5D5D5" d="M111.7,186.05c-2.4-0.2-3.9-0.4-4.2-0.4c-2.8,0-7,0.9-12.6,2.7c1.7,1.1,3.2,2.5,4.3,4c1,1.5,1.9,3.3,2.8,5.6
	c0.1,0.3,0.2,0.6,0.4,1c2.1-1.3,4.5-2.5,7.3-3.7c0.1-0.7,0.4-2.1,0.8-4.2c0.5-2.2,0.7-3.6,0.9-4S111.6,186.35,111.7,186.05z"/>
<path fill="#D5D5D5" d="M103.3,201.55c0.3,0.8,0.5,1.6,0.9,2.5c1.6,4.4,3.6,7.6,6,9.9c0.6-0.9,1.5-2.2,2.9-4c1-1.5,2.1-2.8,3.1-4
	c-1.4-1.2-2.6-2.5-3.7-4c-1-1.4-1.8-2.7-2.2-3.9C108.2,198.95,105.8,200.05,103.3,201.55z"/>
<path fill="#D5D5D5" d="M18.5,292.25c-1.7,0-2.9-0.2-3.9-0.4c-0.5,0.2-1,0.3-1.6,0.3c0.4,1.2,0.7,2.5,1.1,4.1c0.1,1,0.4,2.2,0.5,3.5
	c0.5,3.8,1,6.7,1.7,8.5c1.5,4.2,2.6,6.9,3.3,8.3c0.3,0.9,0.6,1.7,1,2.4c1.1,2.3,2.4,4.3,3.7,6.2c4.5,6.3,9.5,11.8,15.2,16.4
	c0.3,0.4,0.7,0.7,1.1,0.9l0.2-0.2c-5-4.2-9.1-9-12.2-14.6c-2.5-4.6-4.7-10.2-6.4-16.7C21,306.35,19.7,300.05,18.5,292.25z"/>
<path fill="#D5D5D5" d="M90.5,254.05c-0.9,0.3-1.6,0.4-2.3,0.4c-2.8,0-5-1.1-6.7-3.5c-1.4-2-2.3-3.2-2.5-3.5
	c-1.3-1.5-2.8-2.8-4.5-3.9c1,1.9,1.7,3.5,2.1,5c0.4,1.8,0.6,3.7,0.6,5.9c0,2.1-0.6,5.1-1.7,9.1c-1.3,4.5-3,8.8-5,12.9
	c-2.5,4.8-5.3,8.6-8.1,11.4c-2.3,2.1-4.8,3.6-7.3,4.4l0.2,1.1c1.9-0.3,4.3,0.5,6.9,2.1c0.3-0.4,0.7-0.7,1.4-1
	c0.6-0.2,1.2-0.5,2.1-0.7c0.4-0.1,0.6-0.2,1-0.3c1.8-0.4,3.2-0.9,4.4-1.2c1.1-0.4,1.9-0.7,2.5-0.9c1.4-0.7,3.2-1.9,5.6-3.9
	c1.5-1.2,3.1-1.8,4.7-1.6l0.6-0.4c-1-2.2-1.6-4.6-1.7-7.2c0-0.1,0-0.1,0-0.2c0-0.1,0-0.1,0-0.2c0.1-3.8,1.3-8.1,3.5-13
	c0.6-1.1,1.2-2.2,1.8-3.2c0-0.2,0.1-0.3,0.2-0.5c1.7-3.2,3-5.7,4.1-7.8C91.6,253.65,90.9,253.95,90.5,254.05z"/>
<path fill="none" stroke="#2E3191" stroke-linecap="round" stroke-linejoin="round" d="M242.1,360.45c-0.2-0.2-0.4-0.5-0.5-0.6"/>
</svg>
