<?xml version="1.0" encoding="utf-8"?>
<!-- Generator: Adobe Illustrator 15.0.0, SVG Export Plug-In  -->
<!DOCTYPE svg PUBLIC "-//W3C//DTD SVG 1.1 Tiny//EN" "http://www.w3.org/Graphics/SVG/1.1/DTD/svg11-tiny.dtd" [
	<!ENTITY ns_flows "http://ns.adobe.com/Flows/1.0/">
]>
<svg version="1.1" baseProfile="tiny"
	 xmlns="http://www.w3.org/2000/svg" xmlns:xlink="http://www.w3.org/1999/xlink" xmlns:a="http://ns.adobe.com/AdobeSVGViewerExtensions/3.0/"
	 x="0px" y="0px" width="305px" height="50px" viewBox="-1.91 -2.51 305 50" overflow="visible" xml:space="preserve">
<defs>
</defs>
<path fill="none" stroke="#000000" stroke-width="3.8046" stroke-miterlimit="10" d="M1.9,26.12V0 M11.51,26.12V0 M21.12,26.12V0
	 M30.74,26.12V15.67 M40.35,26.12V15.67 M49.96,26.12V15.67 M59.57,26.12V15.67 M69.18,26.12V15.67 M78.79,26.12V15.67 M88.4,26.12
	V0 M98.01,26.12V0 M107.62,26.12V15.67 M117.24,26.12V15.67 M126.85,26.12V0 M136.46,26.12V15.67 M146.07,26.12V0 M155.68,26.12
	V15.67 M165.29,26.12V15.67 M174.9,26.12V0 M184.51,26.12V0 M194.12,26.12V15.67 M203.74,26.12V15.67 M213.35,26.12V0 M222.96,26.12
	V15.67 M232.57,26.12V15.67 M242.18,26.12V0 M251.79,26.12V0 M261.4,26.12V0 M271.01,26.12V15.67 M280.62,26.12V15.67 M290.23,26.12
	V15.67 M299.85,26.12V0"/>
<path fill="#231F20" d="M18.63,45.35c-3.09,0-5.2-2.89-5.25-8.12c0-5.33,2.31-8.22,5.52-8.22c3.31,0,5.23,2.97,5.23,8
	c0,5.38-2.02,8.34-5.47,8.34H18.63z M18.73,43.7c2.16,0,3.21-2.55,3.21-6.59c0-3.89-0.97-6.44-3.21-6.44
	c-1.95,0-3.21,2.48-3.21,6.44c-0.05,4.11,1.22,6.59,3.19,6.59H18.73z"/>
<path fill="#231F20" d="M67.87,31.27h-0.05l-2.75,1.48l-0.41-1.63l3.45-1.85h1.82v15.81h-2.07V31.27z"/>
<path fill="#231F20" d="M113.23,45.09v-1.31l1.68-1.63c4.04-3.84,5.89-5.88,5.89-8.27c0-1.61-0.75-3.09-3.11-3.09
	c-1.44,0-2.63,0.73-3.36,1.34l-0.68-1.51c1.07-0.9,2.65-1.61,4.48-1.61c3.38,0,4.82,2.33,4.82,4.6c0,2.92-2.12,5.28-5.45,8.49
	l-1.24,1.17v0.05h7.08v1.78H113.23z"/>
<path fill="#231F20" d="M162.63,42.65c0.61,0.37,2,0.97,3.5,0.97c2.72,0,3.6-1.73,3.58-3.06c-0.02-2.21-2.02-3.16-4.09-3.16h-1.19
	v-1.6h1.19c1.56,0,3.53-0.8,3.53-2.68c0-1.27-0.8-2.38-2.77-2.38c-1.26,0-2.48,0.56-3.16,1.04l-0.58-1.56
	c0.85-0.61,2.46-1.22,4.16-1.22c3.11,0,4.52,1.85,4.52,3.77c0,1.65-1,3.04-2.92,3.75v0.05c1.95,0.36,3.53,1.82,3.53,4.04
	c0,2.53-1.99,4.74-5.76,4.74c-1.78,0-3.33-0.56-4.11-1.07L162.63,42.65z"/>
<path fill="#231F20" d="M219.11,45.09v-4.3h-7.35V39.4l7.05-10.12h2.31v9.85h2.21v1.65h-2.21v4.3H219.11z M219.11,39.13v-5.3
	c0-0.83,0.02-1.65,0.07-2.48h-0.07c-0.49,0.92-0.88,1.61-1.31,2.36l-3.87,5.37v0.05H219.11z"/>
<path fill="#231F20" d="M266.05,45.35c-3.09,0-5.21-2.89-5.25-8.12c0-5.33,2.31-8.22,5.52-8.22c3.31,0,5.23,2.97,5.23,8
	c0,5.38-2.02,8.34-5.47,8.34H266.05z M266.15,43.7c2.17,0,3.21-2.55,3.21-6.59c0-3.89-0.97-6.44-3.21-6.44
	c-1.95,0-3.21,2.48-3.21,6.44c-0.05,4.11,1.22,6.59,3.19,6.59H266.15z"/>
</svg>
