<?xml version="1.0" encoding="utf-8"?>
<!-- Generator: Adobe Illustrator 15.0.1, SVG Export Plug-In  -->
<!DOCTYPE svg PUBLIC "-//W3C//DTD SVG 1.1 Tiny//EN" "http://www.w3.org/Graphics/SVG/1.1/DTD/svg11-tiny.dtd" [
	<!ENTITY ns_flows "http://ns.adobe.com/Flows/1.0/">
]>
<svg version="1.1" baseProfile="tiny"
	 xmlns="http://www.w3.org/2000/svg" xmlns:xlink="http://www.w3.org/1999/xlink" xmlns:a="http://ns.adobe.com/AdobeSVGViewerExtensions/3.0/"
	 x="0px" y="0px" width="150px" height="326px" viewBox="-0.64 -0.74 150 326" overflow="visible" xml:space="preserve">
<defs>
</defs>
<path fill="#1D1D1B" d="M25.33,281.01c-6.57-2.09-0.79-16.98-0.79-17.41c0-0.43-3.9-5.85-5.27-7.73c-1.37-1.88,0.14-4.48,0-4.91
	c-0.14-0.43-0.29-7.37-0.29-7.37s-3.54-6.07-5.63-12.28c-2.46-5.92,1.45-9.46,1.95-9.97c0.5-0.5,0.79-2.89,0.79-6.07
	c0-3.18,0.87-3.4,3.61-2.67c-3.76-9.9,1.08-15.17,1.59-16.97c-0.58-1.23,0.58-10.11,0.58-10.11c-1.04,0.99-2.19,1.14-3.26,0.78
	c-0.64-0.22-2.59-1.14-3.42-3.03c-1.43-3.45-1.34-10.24-1.34-10.24s-1.03-1.03-2.33-0.83c-0.32,0.05-1.77-0.17-2.11-0.58
	c-3.4-4.2-2.86-16.72-2.86-16.72s-0.87-1.69-2.5-2.36C2.41,151.86,0,145.59,0,144.25c0-1.35-0.19-8.76,2.12-12.23
	c0.8-7.75,3.72-15.18,5.02-17.48c0.27-0.47,0.88-1.28,1.2-1.72c6.81-10.35,18.1-19.2,39.76-35.73c2.08-1.59,8.29-5.85,17.68-15.68
	c13.87-14.16,12.57-37.13,12.57-37.13S76.91,6.8,63.62,7.96c-13.29,2.31-9.97,12.72-9.97,12.72s2.12,4.43,1.06,5.3
	c-0.1,4.72-2.12,4.43-2.12,4.43s-0.68,3.85-3.95,2.5c-1.83,0-1.64-0.68-1.64-0.68s-1.64,0.39-1.83-0.58s-2.12-2.02-1.16-2.89
	c0.67-1.83-2.41-4.14,0-8.28c-1.64-0.39,0.19-4.24,0.19-4.24s-2.31-0.87,1.93-4.91c0.19-1.83,2.79-3.85,2.79-3.85
	s-1.44-1.93,5.88-3.37c4.14-4.24,9.15-4.24,12.62-4.04c4.07,0.28,16.52,4.38,19.36,22.85c0.12,0.74,0.42,2.87,0.54,3.96
	c0.63,5.96,0.92,26.89-21.67,48.26c0,0-31.39,26.37-27.24,37.87c0.13,0.37,1.2,1.42,1.54,1.53c5.07,1.66,8.67-7.08,20-7.13
	c0.28,0,1.15,0.18,1.59,0.43c1.02,0.57,2.86,1.54,3.97,1.75c1.39,0.25,4.76,3.21,6.7,4.14c0.28,0.13,0.9,0.4,1.2,0.58
	c1.34,0.84,5.46,2.81,10.3-0.97c6.57-6.07-0.29-11.12-0.29-11.12s-3.25-1.88-2.02-4.55c1.23-2.67,2.96-7.59,2.53-10.4
	s-2.6-4.84,0.29-8.16c2.24-2.75,7.95-1.23,7.95-1.23s13,1.81,20.95-8.88c4.59-6.16,10.14-5.86,12.26-4.88
	c0.42,0.19,1.08,1.13,1.25,1.53c0.86,2.01,2.38,5.97,4.92,6.09c0,0,1.48,0.16,2.59-0.25c0.19-0.07,1.03-0.14,1.31-0.04
	c1,0.35,2.05,2.1,1.37,6.72c0,0,1.61-1.06,2.19-0.48c1.06-1.44,2.02-0.19,2.02-0.19s1.06,0,1.35,1.25c1.25-0.1,1.44,1.16,1.54,1.64
	c0.1,0.48,1.16-0.67,1.06,0.96c-0.1,1.64,0.67,4.82-0.38,5.59c1.06,0.1,3.56-1.16,3.66-5.49c2.21,7.8-5.59,8.86-5.59,8.86
	s-0.38,2.31-2.31,2.31c0.29,1.06-0.48,2.02-0.48,2.02l0.87,0.29c0,0-1.54,1.45-1.93,1.59c-0.38,0.15,0.87,3.32,4.58-0.87
	c0,0-1.4,9.25-8.24,3.32c-4.14,0.67-3.66-0.48-3.66-0.48s-1.69,1.88-2.99,1.83c-0.71,0.41,0.38,4.04,2.79,4.24
	c-6.55,2.12-6.74-4.82-6.74-4.82s-1.93-0.29-2.02-2.02c-1.83,0.96-3.66-1.16-3.66-1.16s-0.48,4.14,1.54,4.91
	c-6.64-2.02-3.56-8.86-3.56-8.86s-1.35-5.78,1.44-6.36c2.79-0.58,4.24,0.38,4.72-1.35c0.48-1.73-2.21-3.66-4.53-2.6
	c-2.31,1.06-5.39,4.43-6.26,5.11c-0.87,0.67-4.62,7.61-8.86,6.74c-4.24-0.87-5.2,4.33-4.62,5.97c0.58,1.64,1.73,8.96,5.68,9.25
	s6.36,5.01,5.59,8.38c-0.72,3.14-4.45,28.11-14.23,31.66c-0.71,0.26-3.95,0.66-4.6,0.58c-1.56-0.2-2.45-0.99-3.32-0.92
	c-2.56,0.19-3.05,1.67-5.78,3.55c0,0-6.65,6.17-9.82,5.97c-6.4-1.1-3.16-2.46-7.93-6.22c-0.25-0.2-1.35-0.71-1.59-0.74
	c-2.99-0.3-3.48,1.85-3.48,1.85s-2.31,7.32-1.06,11.46c1.19,3.92-2.47,8.71,11.4,25.59c0.77,0.94,4.46,4.47,5.65,4.75
	c4.24-0.39,7.22,1.54,7.22,1.54s12.04,9.05,11.85,20.32c10.69-2.22,14.54,3.27,14.54,3.27l2.12,0.1c0,0,0.19-1.93,0.87-1.93
	c1.06-1.16,1.06-1.16,1.06-1.16s0.58-1.54,1.73-1.54c1.16,0,1.64-2.02,2.6-1.73s1.25-0.96,1.64-0.29c0.39,0.67-1.25,7.22,0.39,11.46
	c1.54,3.56-0.48,4.04-0.48,4.04s1.54,2.41,1.93,2.51c0.38,0.1,0.58-1.16,1.25-0.87s2.12-0.1,2.41,0.77c0.29,0.87,1.54,0.1,1.93,1.93
	c1.16,0.1,0.96,1.64,0.96,1.64s-0.39,1.64-1.16,1.83c-0.77,0.19,1.45,2.7-0.77,3.66c-1.54,0.63-2.02,0.38-2.02,0.38
	s1.88,5.88-2.46,5.83c3.32,1.4,2.94,4.67,2.94,4.67s1.73-1.93,14.35,0c-14.93-0.38-13.1,1.25-13.1,1.25s1.35,1.06,1.64,1.73
	c0.72,0.67,10.21-0.58,15.89,3.75c0,0-9.68-3.13-14.79-1.88c0,0.65-0.14,1.54-0.14,1.54s11.65,5.3,13.58,7.47
	c-9.39-4.72-13.92-5.92-13.92-5.92s-0.29,2.17-0.72,2.26c1.59,0.87,8.96,5.01,10.4,7.61c-5.92-3.37-9.15-5.73-11.03-5.4
	c-1.59,1.74-3.85,1.88-4.33,1.88c-0.58,0.24-1.73,1.16-2.7,1.16c1.4-0.91,1.64-1.3,1.64-1.3s-1.25-0.1-1.59,0.1
	c-0.34,0.19-1.69,0.19-1.83,0c-0.14,0.1-1.3,4.29-3.85,4.33c1.69-2.36,1.59-3.95,1.59-3.95s-1.64,1.06-2.41,0.34
	c-1.16,0.87-2.22-0.14-2.22-0.14s-0.77,0.82-1.49,0.29c-1.21,0.91-2.17,0.05-2.17,0.05s-1.69,2.65-2.07,2.84
	c-0.39,0.19,0.1-3.8-0.14-4.43c-1.01,0.87-3.32-2.12-5.35-2.6c-0.43,1.83-0.96,2.99-1.11,3.42c0,0-1.01,3.81-0.58,5.01
	c0.43,1.2,1.3,2.12,2.07,1.63c0.77-0.48,2.6-3.95,2.6-3.95l0.34,3.56c0,0,1.73-0.14,2.74-1.59c1.01-1.45,2.6-3.42,4.53-3.18
	c2.99,0.58,1.59,5.73,1.59,5.73s2.17,1.69,2.36,2.55c0.91-0.82,2.26-2.75,3.03-4.33c0.63,3.71-1.45,6.6-1.45,6.6
	s2.75,3.23,1.06,5.83c0.67,3.76-1.54,5.44-1.54,5.44s-0.68,0.34-1.06,0.53c-1.78,2.6-1.69,0.29-2.55,0.87
	c-2.21,2.6-3.85,1.21-3.85,1.21s-3.95,2.74-4.86-0.34c-3.23,0.43-3.68-0.8-3.68-0.8c0.43,2.82,5.63,10.55,8.81,11.92
	c2.1-5.92,5.56-3.97,5.56-3.97s1.23-3.9,4.19-1.16c6.36-6.21,8.16,6.14,8.16,6.14s3.11,2.46,0.51,8.16
	c0.58-2.96-1.59-5.06-1.59-5.06c-0.65-0.22-0.58,1.66-0.58,1.66s1.08,9.9-2.82,8.45c2.75-2.1-0.65-6.86-0.65-6.86
	s-0.29,3.32-1.73,3.61c-1.08,7.22-2.24,8.24-4.19,8.52c0.79-0.22,1.23-2.31,1.23-2.31s-0.94,1.37-2.53-1.66
	c-2.17,7.73-5.2,6.86-5.2,6.86s2.46-2.89,1.52-3.68c-4.48,1.88-6.57-3.76-7.22-7.59c-0.65-3.83-2.24-1.81-2.24-1.81
	s0.65,8.67-3.68,8.09c2.67-3.04,0.22-5.92,0.22-5.92s-0.29,1.23-1.8,1.3c-6.57-1.45-4.62-9.25-4.62-9.25s0-2.31-2.75-3.11
	c-4.33-1.3-4.91-4.77-4.98-6.07c-0.07-1.3,0-2.24-5.35-5.49c-5.34-3.25-3.97-8.67-6.79-17.12c-2.82-8.45-10.33-9.68-10.33-9.68
	c-0.4-0.11-1.37,0-1.37,0c-5.2,2.02-8.74-3.32-8.74-3.32s-2.46-5.13-6.14-4.7c-4.7,2.09-7.51-0.14-7.51-0.14s-1.23,6.5,3.39,5.99
	c3.97-1.16,5.71-1.95,8.81,1.23c1.63,1.67,2.19,3.85,1.68,5.98c0,0,5.11,4.35-1.32,9.04c2.67-5.13,0.07-6.14,0.07-6.14
	s-2.1,3.03-3.04,3.03c-0.94,0,0.36,6.5-3.61,7.87c0.87-2.6,1.52-3.83-0.65-4.26c-1.16,0.43-1.88,1.37-3.97,0.14
	c-1.59,2.38-2.31,3.76-3.83,4.33c0,0,0.72-1.88,0.22-3.18c-0.51-1.3-2.38,0.94-3.18-2.53c-0.43-0.29-1.45,1.59-1.45,1.59
	s0.43,4.34-2.31,4.99c1.45-3.11,0.07-3.68,0.07-3.68L25.33,281.01z"/>
<path fill="#FFFFFF" d="M124.73,89.15c0,0-3.8,6.07-0.29,9c3.52,2.94,6.36-0.34,6.36-0.34s-3.51-3.71-1.01-10.16
	c-0.04,4.64,0.03,9.05,3.31,10.33c0.36,0.14,1.95,0.17,2.26,0.08c3.53-1,3.04-3.67,3.04-3.67s1.49-1.64,1.06-2.36
	c-0.43-0.72-4.91-1.16-4.48-7.95c2.6,8.86,6.26,5.87,6.26,5.87s2.79-2.46,2.7-8.38c-1.25,0-1.16-1.88-1.16-1.88s-1.4,0.29-1.3-0.87
	c0,0-1.16,0.19-1.35-0.67c-0.58-0.15-0.53,0.67-0.53,0.67s-1.21-1.16-1.83-0.1c-0.63,1.06-1.49,2.74-2.55,3.13
	c0.43-1.54,0.96-2.26,0.87-3.76c-0.1-1.49,0.34-5.97-1.97-5.78c-2.31,0.19-5.3,1.2-6.93-2.75c-1.64-3.95-3.08-5.2-4.05-4.86
	c0,0-5.2-1.11-9.87,5.49s-15.41,9.44-21.19,8.38c-5.78-1.06-6.84,0.58-7.56,2.7c-1.16,3.56,1.54,5.73,0.63,9.49
	c0,0-0.62,5.03-2.57,6.83c-0.15,0.14-0.6,0.67-0.64,0.82c-0.42,1.66,1.23,2.71,1.23,2.71s4.81,2.17,4.19,7.22
	c0,0-0.72,7.73-9.92,8.08c-0.33,0.01-1.34-0.05-1.89-0.21c-1.24-0.35-3.6-1.19-5.68-2.87c-2.99-2.41-3.52-2.65-4.33-2.94
	c-0.82-0.29-3.32-1.3-4.24-1.88c-1.16-0.46-4.12-0.41-6.02,0.29c-0.26,0.1-1.27,0.47-2.22,0.86c-1.53,0.62-4.35,2.03-8.71,5.11
	c0,0-4.14,2.65-6.5-0.05c-2.36-2.7-0.67-7.22-0.67-7.22s1.52-8.07,15.39-21.65c13.43-13.15,25.07-20.54,32.44-43.28
	c0.24-0.75,0.83-3.59,0.96-4.52l0,0c2.07-10.78-1.01-36.21-19.79-36.88c0,0-5.01-0.29-10.79,3.76C49.15,9.6,44.77,13.4,45.06,26.98
	c0.01,0.27,0.11,0.88,0.25,0.98c0.41,0.29,1.22,0.92,1.22,1.28c0,0.48-1.16,0.29-1.16,0.29s-0.1,1.35,1.54,0.48
	c1.64-0.87,0,0.77,0,0.77l1.73-0.39c0,0,0.19,0.87-0.29,1.16c-0.48,0.29,1.25-0.29,1.44-0.58c0.19-0.29,0.19,1.35-0.29,1.54
	c-0.48,0.19,1.64,0.1,2.02-2.79c0.38-2.89,1.06-2.31,1.06-2.31l0.48,1.93c0,0,0.87-1.83-0.38-4.91c-1.25-3.08,1.44,0.87,1.44,0.87
	s-1.45-4.24-1.83-6.45c-0.38-2.22-1.06-8.19,9.73-11.56C73.4,4.39,79.27,17.01,79.37,22.5c0,0,3.9,26.34-17.91,45.27
	c-21.82,18.93-57,38.14-58.44,64.72c-1.81,3.83-2.1,11.56-2.1,11.56s1.88,6.5,3.18,7.59c1.3,1.08,3.9,1.44,3.97,4.41
	c0.07,2.96,1.23,12.5,2.38,14.3c1.16,1.81,4.7,0.94,4.77,2.24c0.07,1.3-0.29,12.42,3.9,12.86c1.66,0.58,3.54-1.95,3.54-1.95
	l-0.22,4.84c0,0-0.65,6.36-0.51,7.01c0.14,0.65-3.04,7.73-2.1,11.27s1.66,7.73,1.66,7.73s-3.47-2.17-4.12-0.87s0.36,6.93-1.73,8.6
	c-2.09,1.66-2.09,8.74-1.01,10.19c1.08,1.44,3.76,8.81,5.2,10.98c0.58,2.89,0.58,7.58,0.36,8.38c-0.22,0.79-0.07,3.32,1.23,5.27
	c1.3,1.95,3.97,6.72,3.97,6.72s-2.54,7.61-2.17,11.99c0.51,5.92,4.26,5.13,4.26,4.84c0,0,0.87,1.59,0.36,3.11
	c1.01-0.58,0.79-4.12,0.79-4.12s1.3-1.88,2.09-1.88s0.29,2.46,2.46,2.17c1.44,0.22,1.01,2.09,1.08,3.25
	c0.72,0.22,3.11-4.41,3.11-4.41s1.66,1.8,3.76,0.22c2.02-0.15,2.17,1.37,1.73,3.97c2.1-1.66,1.95-6.93,1.95-6.93
	s2.53-1.52,3.47-3.47c2.82-0.65,1.52,4.98,1.52,4.98s3.54-3.25-0.65-7.15c1.01-2.96-0.87-7.51-5.27-7.95
	c-2.89-0.22-5.56,2.46-7.51,0c0,0-2.17-2.38-0.65-6.79c2.67,2.6,7.44,0.79,7.44,0.79s3.39-1.37,6.36,3.47
	c2.96,4.84,6.14,4.62,8.67,4.55c2.53-0.07,7.22,0.87,10.47,4.99c3.25,4.12,4.19,13.36,4.19,13.36s0.58,6.94,5.27,8.52
	c4.7,1.59,4.84,5.35,4.84,5.35s0.72,5.42,4.55,5.92c4.41,0.29,3.03,5.92,3.03,5.92s-0.65,7.66,5.06,5.2
	c3.25-0.15,2.02,5.78,2.02,5.78s1.52-2.6,1.59-8.09c1.23-2.24,2.89,0.51,2.89,0.51s2.89,10.98,7.22,8.74c2.1,1.73-0.29,3.9-0.29,3.9
	s3.25-3.04,3.83-8.09c1.16,2.46,1.52,3.32,2.67,3.76c1.23-0.36-0.07,1.52-0.07,1.52s2.17-1.66,2.46-7.95c1.59-1.3,1.95-4.7,1.95-4.7
	s4.04,4.98,2.17,7.51c1.88-1.88,0.94-8.81,0.94-8.81s0.29-1.88,1.3-1.52c1.01,0.36,2.02,3.68,2.02,3.68s0.43-3.76-1.44-5.35
	c-0.51-2.09-1.23-7.08-4.04-7.8c-2.17-0.15-3.47,1.88-3.47,1.88s-2.02-1.66-2.46-0.94c-0.58,0.22-1.45,1.08-1.45,1.95
	c-2.24-0.58-2.46-0.29-2.96,0.07c-0.51,0.36-2.31,2.1-2.67,4.26c-2.74-0.29-9.9-8.89-10.04-13.58c2.53,1.3,3.83,0.72,4.62,0.65
	c0.79-0.07,0.72,3.47,4.91,0.22c1.3,1.52,3.76-1.15,3.76-1.15s1.23,0.29,1.23,0.72s0.65-1.52,2.17-1.81
	c1.59-1.01,1.01-4.91,1.01-4.91s1.73-3.27-0.87-5.8c1.52-2.02,1.52-4.74,1.52-4.74s-1.93,3.35-2.57,3.2c0-1.15-2.92-2.84-2.92-2.84
	s1.59-5.42-1.37-5.49c-2.96-0.07-3.47,5.27-7.44,4.91c-0.14-0.72-0.14-2.67-0.14-2.67s-1.95,3.03-2.67,3.11
	c-1.3,0.22-3.04-2.02-2.46-4.77c0,0,1.95-5.78,1.95-6.28s1.95-0.07,3.68,1.81c0.65-0.29,2.7,0.96,2.7,0.96l-0.1,3.15l1.52-2.46
	c0,0,1.3,1.08,2.24,0c0.94,0.58,2.02-0.31,2.02-0.31s1.42,1.78,2.36-0.1c0.72,1.44,2.04-0.31,2.04-0.31s1.08,0.65-0.43,4.04
	c1.23-1.88,2.46-4.12,2.46-4.12s2.46,0.51,3.9-0.22c0.87,0.22,1.3,0.29,1.3,0.29s4.26-0.58,4.41-6.65
	c-0.07-5.06-3.83-6.36-3.83-6.36s1.52-2.74-2.96-5.71c4.77-1.08,2.82-6.43,2.82-6.43s4.19,0.58,2.67-2.74
	c1.59-2.38,0.65-2.96,0.65-2.96s-0.36-1.66-1.08-1.59c-0.72,0.07-1.16-0.94-1.16-0.94s-1.45-0.29-1.81-0.29s-0.94,1.23-1.45,1.23
	s-2.24-3.9-2.24-3.9s1.59-0.65,0.72-2.31c-0.87-1.66-2.24-7.01-0.58-11.99c-1.01,0.43-1.45,0.07-1.45,0.07s-1.08,1.81-2.1,1.88
	c-1.01,0.07-1.37,0.72-1.37,0.72s-1.3,1.73-1.66,1.81c-0.36,0.07-0.36,2.02-0.36,2.02h-2.82c0,0-4.55-5.56-15.17-3.18
	c0,0-0.14-12.5-11.7-20.52c-3.32-1.73-6.93-1.16-6.93-1.16s-16.4-13.15-17.12-28.1c0,0,0.14-1.66-0.58-3.47
	c-1.01-1.3,0.87-11.2,1.73-12.57c0.87-1.37,3.9-3.1,8.09,1.74c2.31,3.47,3.18,4.33,7.59,3.18c0,0,7.01-4.69,8.38-6.36
	c1.37-1.66,4.91-3.4,6.65-2.38c1.73,1.01,7.87,0.79,10.91-4.62c6.43-9.61,8.45-27.31,8.45-27.31s0.36-4.7-4.98-6.14
	S97.5,99.19,97.5,99.19s-0.51-6.07,5.71-6.14c0,0,3.39,0.51,6.43-4.7c1.8-3.03,3.68-3.4,3.68-3.4s2.38-4.84,8.45-3.54
	c3.61,0.65,2.24,4.12,2.24,4.12s-1.08,2.38-4.55,1.52c-3.47-0.87-2.02,5.49-1.52,6.5c0.51,1.01,2.24,3.39,4.7,3.47
	C120.76,94.14,122.35,89.37,124.73,89.15z"/>
<path fill="#1D1D1B" d="M106.58,75.28c0,0,4.41,6.79,4.7,8.09c-0.22-5.49-0.51-10.98,0.79-12.21
	C108.89,74.71,106.58,75.28,106.58,75.28z"/>
<path fill="#1D1D1B" d="M105.13,76.13c0,0,3.32,6.21,0.22,11.2c0.72-7.44-3.9-9.75-3.9-9.75L105.13,76.13z"/>
<path fill="#1D1D1B" d="M96.54,78.53c0,0,5.56,8.38,3.61,12.93c3.76-5.27,2.6-8.24,2.6-8.24s-0.51-4.04-3.39-5.27
	C97.62,78.25,96.54,78.53,96.54,78.53z"/>
<path fill="#1D1D1B" d="M98.2,96.74c0,0,0.43-1.44,1.52-2.53c0.79-9.25-12.28-10.4-12.28-10.4S97.48,93.13,98.2,96.74z"/>
<path fill="#1D1D1B" d="M85.56,99.03c0,0,2.74-5.78,7.58-4.33c4.84,1.44,4.84,3.18,4.84,3.18s-0.65,2.46,0.87,5.56
	C95.38,100.4,94.3,96.86,85.56,99.03z"/>
<path fill="#1D1D1B" d="M88.95,107.57c0,0,4.84-5.42,10.54-2.53c1.59,4.41,4.19,5.13,4.19,5.13s5.13-0.79,5.56,7.37
	c-1.94-4.33-3.79-4.92-5.12-5.02c-0.8-0.06-1.85,0.08-2.66-0.3c-0.81-0.37-1.9-1-2.98-2.05C96.32,108.08,94.88,107.5,88.95,107.57z"
	/>
<path fill="#1D1D1B" d="M94.18,115.59c0,0,3.76-4.34,9.75,0.22c4.62,3.9,4.48,5.35,4.48,5.35s-1.59,8.09-2.1,8.74
	C106.02,127.58,104.43,117.04,94.18,115.59z"/>
<path fill="#1D1D1B" d="M91.84,121.95c0,0,5.42,2.24,4.77,5.92c0,1.08,1.23,1.37,1.23,1.37s3.11,2.17,2.31,6.36
	c-1.66-2.67-2.96-3.18-2.96-3.18s-0.65,0.87,1.08,5.2c1.37,4.84,0.07,7.95-0.79,9.68c-0.87,1.73,5.49-4.48,8.02-14.09
	C101.66,122.38,94.66,121.3,91.84,121.95z"/>
<path fill="#1D1D1B" d="M89.84,131.6c0,0,3.54,13.44-0.65,16.9c1.95,1.66,6.07,0.29,6.07,0.29S97.93,138.97,89.84,131.6z"/>
<path fill="#1D1D1B" d="M80.69,131.27c0,0,7.8,8.16,5.42,17.63c-2.46,1.52-5.71,4.48-5.71,4.48s-6,5.13-8.81,4.62
	c4.41-3.97,8.02-6.14,9.46-9.75S80.69,131.27,80.69,131.27z"/>
<path fill="#1D1D1B" d="M67.66,120.36c0,0,8.81-0.72,10.26,12.13c1.45,12.86-6.57,17.84-6.57,17.84s-1.52,0.65-2.67-0.94
	c-1.08,1.3-1.73,3.32-3.18,3.25c-0.94-0.79-3.28-2.43-6-0.87c0.58-5.13,2.31-8.52,3.39-8.81c1.08-0.29,3.69,0.5,4.55,1.3
	c0.87,0.79,6.79-2.38,5.63-12.86c-1.16,5.42-4.55,6.14-4.55,6.14S73.81,124.33,67.66,120.36z"/>
<path fill="#1D1D1B" d="M120.28,64.52c0,0-6.94,10.5-5.2,16.66c-3.08-3.28-0.7-12.59-0.7-12.59S117.2,65.1,120.28,64.52z"/>
<path fill="#FFFFFF" d="M125.41,99.84c0,0,0.67,1.16,2.21,0.53c-0.29,1.01-0.29,3.42,1.64,3.8
	C125.7,104.37,125.41,99.84,125.41,99.84z"/>
<path fill="#FFFFFF" d="M117.12,93.82c0,0-0.1,1.4,1.2,2.21c-0.72,1.88,0.19,3.85,0.19,3.85S115.58,97.92,117.12,93.82z"/>
<path fill="#FFFFFF" d="M136.05,98.74c0,0,1.3-0.14,1.83-1.25c2.02,2.41,4.24,0.19,4.24,0.19S140.38,102.68,136.05,98.74z"/>
<path fill="#FFFFFF" d="M143.95,87.66c0,0-0.29,1.4-1.3,2.07c5.15-1.16,5.3-4.58,5.3-4.58S146.31,88.24,143.95,87.66z"/>
<path fill="#1D1D1B" d="M51.92,11.36c-0.36,0.04-0.81,0.25-0.53,1.17c0,0,1.25,1.69,1.4,1.78c0.29-0.87,0.58-1.23,0.58-1.23
	l-0.93-1.46C52.43,11.63,52.13,11.34,51.92,11.36z"/>
<path fill="#1D1D1B" d="M54.45,5.43c0,0,2.19,2.92,2.24,4.45c1.01-0.58,1.3-0.72,1.3-0.72s-0.77-4.31-1.88-4.89
	C55,5,54.45,5.43,54.45,5.43z"/>
<path fill="#1D1D1B" d="M60.37,1.89c0,0,1.18,4.26,1.23,5.66c1.3-0.58,1.4-0.33,1.4-0.33s-0.51-4.79-1.47-5.47
	C61.23,1.79,60.37,1.89,60.37,1.89z"/>
<path fill="#1D1D1B" d="M66.8,0.95c0,0-0.75,5.44-1.37,6.07c1.4,0.14,2.26,0.38,2.26,0.38s0.79-5.97-0.02-6.31
	C67.42,0.95,66.8,0.95,66.8,0.95z"/>
<path fill="#1D1D1B" d="M73.37,2.61c0,0-2.55,2.67-2.46,6c0.96,0.19,1.52,1.16,1.52,1.16s1.45-5.06,3.76-5.35
	C75.13,3.36,73.37,2.61,73.37,2.61z"/>
<path fill="#1D1D1B" d="M78.28,6.3c0,0-3.32,2.38-4.04,5.13c0.29,0.38,1.3,1.52,1.3,1.52s4.12-4.74,4.7-4.7
	C79.61,7.14,78.28,6.3,78.28,6.3z"/>
<path fill="#1D1D1B" d="M77.27,16.34c0,0,4.19-3.2,5.92-2.24c-0.34-1.01-1.08-2.74-1.08-2.74s-5.35,1.95-5.78,3.25
	C76.72,15.38,77.27,16.34,77.27,16.34z"/>
<path fill="#1D1D1B" d="M79.3,24.86c0,0,4.19-3.37,7.08,0c0.3,2.18,0.19,2.33,0.29,4.26c0,0-5.08-2.67-7.29-0.94
	C79.66,27.03,79.3,24.86,79.3,24.86z"/>
<path fill="#1D1D1B" d="M79.01,34.98c0,0,5.88-1.33,7.22,2.53c-0.1,2.5-0.79,4.84-0.79,4.84s-3.66-3.76-7.03-3.66
	C78.6,37.82,79.01,34.98,79.01,34.98z"/>
<path fill="#1D1D1B" d="M78.43,19.16c0,0,3.93-2.87,6.43-1.23c0.58,1.25,0.65,2.17,0.65,2.17s-5.3-0.02-6.36,1.52
	C79.15,21.23,78.43,19.16,78.43,19.16z"/>
<path fill="#1D1D1B" d="M76.33,45.3c0,0,6.43,1.23,6.72,4.12c-0.67,1.45-2.02,3.54-2.02,3.54s-4.17-4.21-6-4.41
	C75.42,47.59,76.33,45.3,76.33,45.3z"/>
<path fill="#1D1D1B" d="M71.49,55.78c0,0,5.08,2.99,4.98,5.2c0.87-0.77,1.45-2.17,1.45-2.17s-0.7-4.6-4.84-5.85
	C72.79,54.02,71.49,55.78,71.49,55.78z"/>
<path fill="#1D1D1B" d="M67.66,61.05c0,0,4.89,2.26,4.41,6.21c-1.06,1.93-2.67,2.75-2.67,2.75s-1.35-6.31-3.76-6.5
	C66.7,62.26,67.66,61.05,67.66,61.05z"/>
<path fill="#1D1D1B" d="M58.2,70.37c0,0,4.48,4.55,3.61,7.15c1.35-1.16,2.46-2.53,2.46-2.53s-0.99-5.97-3.97-6.65
	C59.33,69.22,58.2,70.37,58.2,70.37z"/>
<path fill="#1D1D1B" d="M51.48,75.57c0,0,5.71,2.75,4.62,7.08c2.09-1.95,2.96-2.53,2.96-2.53s0.14-3.97-4.7-6.65
	C53.15,74.56,51.48,75.57,51.48,75.57z"/>
<path fill="#1D1D1B" d="M46.43,79.47c0,0,5.49,3.03,4.98,7.8c-1.81,2.1-2.96,3.32-2.96,3.32s-0.07-6-5.71-8.31
	C44.12,80.99,46.43,79.47,46.43,79.47z"/>
<path fill="#1D1D1B" d="M39.42,85.11c0,0,5.78,1.66,6.43,8.52c-1.16,1.37-2.24,3.04-2.24,3.04s-2.53-8.31-8.52-8.53
	C36.53,86.55,39.42,85.11,39.42,85.11z"/>
<path fill="#1D1D1B" d="M29.38,95.44c0,0,3.18,1.66,4.62,1.81c1.45,0.15,5.42,4.12,5.63,4.7c0.51-0.79,1.23-2.02,1.23-2.02
	s-2.53-2.96-3.4-3.9s-1.95-1.52-2.89-1.81c-0.94-0.29-3.76-2.75-3.76-2.75l-7.58,6.86c0,0,3.25,0.43,3.68,1.52
	c0.43,1.08,2.96,1.59,3.32,2.1c0.36,0.5,4.33,2.24,4.62,2.82c0.29,0.58,2.38,2.53,2.38,2.53l0.72-2.02c0,0-3.32-2.09-4.26-3.9
	c-0.94-1.81-2.6-3.61-3.4-3.83s-2.38-1.16-2.02-1.66C28.66,95.37,29.38,95.44,29.38,95.44z"/>
<path fill="#1D1D1B" d="M20.64,100.78c0,0,2.38,6.14,4.55,6.36c2.17,0.22,2.38,1.08,3.11,1.01c0.72-0.07,2.38-0.51,2.38-0.51
	s0.72-0.36,0.65,0.65c0.22,0.94-4.48,2.02-5.85,1.73s1.37,1.52,3.11,1.52c1.73,0,2.74-0.94,3.03-1.23c0.29-0.29,0.79,0.36,0.65,0.65
	c-0.14,0.29-2.38,1.73-3.25,1.73c-0.87,0-3.83,0.43-6.93-0.5c-3.11-0.94-4.19-1.16-4.62-1.73c-0.43-0.58-2.31-4.05-2.17-4.33
	C15.44,105.84,19.48,101.07,20.64,100.78z"/>
<path fill="#1D1D1B" d="M30.15,114.39c0,0,4.91,2.6,11.17,1.44c-2.6-0.38-3.09-1.35-3.09-1.35s-3.08,0.19-5.87-0.67
	C31.79,114.39,30.15,114.39,30.15,114.39z"/>
<path fill="#1D1D1B" d="M9.47,113.45c0,0,3.37,6.07,8.57,6.45c6.65,0.67,13.68-0.67,15.31-1.15c1.64-0.48,2.02-0.58,2.02-0.58
	s-1.54,2.79-3.37,3.47c-1.83,0.67-7.99,3.56-11.56,3.37c-3.56-0.19-0.77,1.35-0.77,1.35s3.76,2.12,8.67-0.38
	c-1.06,2.79-5.59,3.85-5.59,3.85s-7.13-0.1-9.34-1.83c-2.21-1.73-6.26-5.39-6.26-6.84c0-1.45-0.58-3.08-0.58-3.08
	S8.6,114.7,9.47,113.45z"/>
<path fill="#1D1D1B" d="M5.2,127.87c0,0,2.99,3.56,5.01,5.01c2.02,1.44,4.33,4.82,7.9,4.72c4.91,1.35,7.61-1.54,7.61-1.54
	s1.83-2.6,2.89-2.6c1.06,0,2.6-3.28,2.6-3.28s1.54-1.06,2.6-1.54c1.06-0.48,3.08-2.89,3.37-3.47c0.29-0.58,0.87-1.06,1.73-1.16
	c0.87-0.1-0.77,0.77-0.96,1.83c-0.19,1.06-2.21,5.78-2.7,6.17s-0.58,1.83-1.06,2.41c-0.48,0.58-1.64,3.56-2.7,4.14
	c-1.06,0.58-5.59,3.85-6.84,3.95c-1.25,0.1-6.26,0.67-7.42,0.1c-1.16-0.58-4.72-3.56-5.97-4.14c-1.25-0.58-6.16-7.32-6.36-8.09
	C4.72,129.61,4.53,128.06,5.2,127.87z"/>
<path fill="#1D1D1B" d="M1.11,138.63c0,0,3.56,0.77,3.85,1.35c0.29,0.58,3.85,2.31,4.53,2.41c0.68,0.1,4.14,3.18,5.01,3.85
	c0.87,0.68,5.68,3.47,7.32,3.28c1.64-0.19,4.82-1.83,5.97-5.58c1.16-3.76,1.83-1.45,1.83-1.45s-0.67,8.38-3.66,9.63
	c1.54,0.96,3.76-1.83,4.04-1.83s1.93-2.12,2.89-2.5c0.96-0.38,3.27-3.95,3.85-5.3c0.58-1.35,2.31-3.66,2.89-4.04
	c0.58-0.38,3.28-5.3,4.14-6.55c0.87-1.25,4.72-5.87,5.49-5.87c0.77,0-0.19,1.25-0.96,2.02c-0.77,0.77-4.53,7.22-5.3,9.73
	s-2.02,6.07-2.5,7.42c-0.48,1.35-0.96,5.3-1.73,6.36c-0.77,1.06-1.45,2.6-1.83,2.98c-0.39,0.39-1.73,2.41-2.5,2.51
	c2.99,0.58,5.78-2.12,6.45-2.41c-0.29,1.54-0.96,2.89-1.25,3.56c-0.29,0.67-2.7,3.56-4.14,3.76c-1.45,0.19-2.5,0.58-3.56,0.58
	c-1.06,0-5.59-1.45-8.76-4.33c-3.18-2.89-6.07-5.97-6.84-6.45c-0.77-0.48-5.68-5.39-6.55-5.78c-0.87-0.39-2.89-1.64-4.53-2.7
	c-1.64-1.06-3.76-1.25-4.77,0.58C0.73,140.95,1.11,138.63,1.11,138.63z"/>
<path fill="#1D1D1B" d="M6.38,153.01c0,0,2.6,2.12,3.47,2.41c0.87,0.29,1.73,1.16,1.73,1.16s-3.85,2.12-3.85,2.79
	C7.93,158.12,8.79,154.65,6.38,153.01z"/>
<path fill="#1D1D1B" d="M8.46,161.49c0,0,2.89,1.16,5.49-0.29c1.25-0.67,1.35-0.58,1.35-0.58s0.96,1.64,1.25,1.93
	s-2.02,0.96-2.5,1.64c-0.48,0.67-2.31,1.93-2.7,1.93c-0.39,0-2.7-1.83-2.7-1.83L8.46,161.49z"/>
<path fill="#1D1D1B" d="M9.63,169.12c0,0,2.89,2.12,4.14,1.64c1.25-0.48,4.53-1.73,4.53-1.73s-3.56,4.24-3.56,4.91
	c0.67-2.12-0.87-1.93-1.73-1.93C12.14,172.01,9.44,170.95,9.63,169.12z"/>
<path fill="#1D1D1B" d="M15.99,177.38c0,0,5.2-0.87,5.59-1.92c0.48,0.1,0.39,1.64,0.39,1.64s-4.14,3.85-5.88,2.21
	C15.99,177.96,15.99,177.38,15.99,177.38z"/>
<path fill="#1D1D1B" d="M16.45,181.04c0,0,4.62,2.99,5.97-0.96c0.58,1.06,0.31,2.55,0.31,2.55s-2.72,2.84-3.97,1.69
	C17.22,183.45,16.45,181.04,16.45,181.04z"/>
<path fill="#1D1D1B" d="M16.76,162.55c0,0,5.1,12.23,5.78,22.34c0.96-7.71-1.25-15.03-1.25-15.03S18.88,163.51,16.76,162.55z"/>
<path fill="#1D1D1B" d="M15.03,157.25c0,0,1.25,3.85,3.95,5.68c2.7,1.83,4.24,4.43,4.72,6.45s4.14,8.28,4.14,9.73
	s5.1,7.32,13.1,6.55c7.99-0.77,8.38,0.29,8.38,0.29s2.41,1.73,3.08-1.25c0.67-2.99,0.87-4.33,1.35-5.2
	c0.48-0.87,2.12-5.01-1.45-13.29c-3.56-8.28-1.06-18.78-0.58-19.65c0.48-0.87,4.91-4.33,7.61-5.88s4.43-2.99,4.53-4.72
	s-0.29-7.61-1.06-8.57c-0.77-0.96-1.25-3.95-2.12-4.72c-0.87-0.77,0.58,7.42-0.38,9.82c-0.96,2.41-3.37,3.08-4.04,4.24
	c-0.67,1.16,0.1-3.56,0.19-4.24c0.1-0.67-2.02,1.45-3.18,2.5c-1.16,1.06-0.77-1.15-0.77-1.15s-4.04,4.91-4.91,5.49
	c-0.87,0.58-2.31,6.26-2.12,8.76c0.19,2.5,0.1,4.53-0.1,5.39c-0.19,0.87-0.19,6.65-0.19,7.9c0,1.25,1.06,7.71,1.25,8.47
	c0.19,0.77,0.67,5.3-1.93,7.71c-2.6,2.41-7.22,1.06-7.99,0.77s-6.74-3.37-9.05-8.96c-2.31-5.59-3.08-5.39-3.56-5.59
	S16.38,159.46,15.03,157.25z"/>
<path fill="#1D1D1B" d="M37.57,187.59c0,0,6.26,3.27,6.65,3.85c0.38,0.58,3.66,0.96,5.97,1.06c2.31,0.1,10.79,0.96,11.94,1.06
	c1.16,0.1-0.38-2.99,0.19-3.76c0.58-0.77,2.02-4.72,1.45-6.07c-1.16-1.35-3.47-6.17-3.47-6.17s-0.67,5.2-1.64,5.68
	c-0.96,0.48-3.66,3.66-3.85,4.33c-0.19,0.67-1.16,0.96-3.37,0.77c-2.21-0.19-4.43-0.29-5.87-0.1c-1.45,0.19-1.73,0.1-2.41,0
	C42.48,188.17,38.43,188.07,37.57,187.59z"/>
<path fill="#1D1D1B" d="M74.94,206.56c-2.7-1.73-16.28-3.37-17.82-3.37c-1.54,0-9.05-0.48-11.46-1.73
	c-2.41-1.25-3.08-3.18-7.03-4.53c-3.95-1.35-9.34-9.25-9.34-9.25s6.16,6.26,8.28,6.36c2.12,0.1,5.01,2.5,5.88,2.69
	c0.87,0.19,5.49,0.48,6.74,0.48c1.25,0,9.92,0.1,11.17,0.77s5.39,1.64,6.36,1.83c0.96,0.19-0.48-3.47-0.58-4.91
	c-0.1-1.44-0.19-3.37-0.58-4.24c-0.38-0.87-0.19-3.56-0.19-3.56s6.07,6.65,6.93,7.32c0.87,0.67-0.67,4.82-0.67,5.78
	S74.74,203.77,74.94,206.56z"/>
<path fill="#1D1D1B" d="M67.81,199.82c0,0,8.67,8.38,9.34,9.73c0.67,1.35,9.87,10.5,16.69,8.09c-0.12-0.77-0.22-0.96-0.22-0.96
	s-7.71,2.02-15.79-7.51c-8.09-9.54-9.25-10.11-9.25-10.11S68.58,200.01,67.81,199.82z"/>
<path fill="#1D1D1B" d="M78.02,195.87c0,0,0.1,11.85-1.45,12.04c1.64,1.64,1.83,2.02,1.83,2.02s2.99-10.98,1.06-13.58
	C79.08,196.06,78.02,195.87,78.02,195.87z"/>
<path fill="#1D1D1B" d="M84.18,199.15c0,0,0.48,12.33-2.7,13.87c1.83,1.25,2.6,1.73,2.6,1.73s3.18-11.27,2.6-13.77
	C85.73,199.73,84.18,199.15,84.18,199.15z"/>
<path fill="#1D1D1B" d="M75.9,212.63c0,0-5.68-1.45-10.79-1.35c-5.11,0.1-15.99-2.41-20.9-7.03s-12.81-6.16-12.81-6.16
	s8.86,5.39,11.36,8.38c2.5,2.99,9.44,5.97,12.52,6.26s-7.51,0.29-11.08-1.74c2.7,1.83,10.11,5.2,21.67,4.72
	c7.8-1.06,9.34,1.93,9.34,1.93s-1.06-2.7-0.38-3.08C75.52,214.17,74.46,212.73,75.9,212.63z"/>
<path fill="#1D1D1B" d="M28.32,205.7c0,0,4.91,10.88,17.53,15.79c5.01,2.31,6.65,2.6,13.58,3.56c0,0,11.56,2.6,12.52,4.82
	c1.93-3.66,3.85-4.14,3.85-4.14s-2.5-5.39-12.91-6.55C52.5,218.03,34.97,216.39,28.32,205.7z"/>
<path fill="#1D1D1B" d="M67.23,233.82c-0.67-0.77-3.76-2.41-3.76-2.41s-1.45-1.44-3.85-1.73c-2.89-0.1-9.25-2.02-9.25-2.02
	s13,8.38,13.58,10.31c0-1.64,2.89-2.22,2.89-2.22l-1.45-0.67C65.4,235.07,66.17,234.11,67.23,233.82z"/>
<path fill="#1D1D1B" d="M47.01,231.22c0,0,4.62,3.56,4.91,4.91c0.29,1.35,2.6,4.43,3.08,5.49c0.48,1.06,8.67,12.71,4.04,19.55
	c-1.73,0.48-2.02,2.7-2.02,2.7s3.95-0.48,8.19,1.35c4.24,1.83,7.03-1.25,7.03-1.25s-2.7,1.25-5.39,0.38
	c-2.7-0.87-4.43-1.92-7.9-1.64s1.93-1.54,2.31-3.95c0,0-0.87-7.03-0.19-8.77c-0.77-2.7,0.29-4.62,0.29-4.62s-0.29-1.35,0.48-2.12
	c0.77-0.77-2.7-4.53-4.82-5.97s-4.53-3.37-4.53-3.37S49.03,231.8,47.01,231.22z"/>
<path fill="#1D1D1B" d="M24.47,217.25c-0.46,0.08-3.27-2.46-3.66-2.31c0,0,2.82,3.22,3.36,3.18c1.95-0.14,6.85-0.04,10.99,3.95
	c6.65,6.36,9.54,15.41,9.54,15.41s0.29,0.77,1.16,0.39c0.58-0.39,0-1.25,0-1.25s-4.82-13.2-12.42-17.05
	C27.72,216.68,26.59,216.87,24.47,217.25z"/>
<path fill="#1D1D1B" d="M34.87,255.49c0,0-5.59-1.45-7.22-10.21s-7.9-9.34-8.67-9.63c-0.72-0.07-0.87,0.36-0.87,0.36
	s-0.29,0.43,0.65,0.51c0.94,0.07,6.86,2.17,7.88,8.67C27.65,251.69,31.47,255.32,34.87,255.49z"/>
<path fill="#1D1D1B" d="M43.25,256.31c0,0,3.9-2.75,2.67-6.21c2.82,2.1,1.37,7.51,1.37,7.51S45.42,255.59,43.25,256.31z"/>
<path fill="#1D1D1B" d="M48.43,258.79c0,0,5.63-6.21,3.47-12.35c6.72,10.11,0.14,16.76,0.14,16.76s-1.88-1.37-2.24-2.46
	C49.29,259.58,48.43,258.79,48.43,258.79z"/>
<path fill="#1D1D1B" d="M28.56,249.21c0,0,1.88,4.84,4.77,4.98c2.89,0.14,7.8-1.95,9.68-6.79c1.52-3.9-0.29-7.37-0.29-7.37
	s-0.07-1.95-1.44-3.61c-1.08,3.47,2.02,9.46-4.33,12.64c-2.53,1.08-2.96,0.58-2.96,0.58s2.74-2.31,2.82-6
	c-0.07-2.24-0.29-2.74-0.29-2.74S33.33,249.28,28.56,249.21z"/>
<path fill="#1D1D1B" d="M25.19,223.03c0,0-4.12,6.94-1.88,15.03c-1.45-1.37-3.18-1.81-3.18-1.81S20.42,224.91,25.19,223.03z"/>
<path fill="#1D1D1B" d="M24.95,239.89c0,0,7.87-5.63,8.38-10.26c0.36-2.02,0.72-2.6,0.72-2.6s1.66,4.62,1.01,7.51
	c-0.65,2.89-1.23,3.9-1.59,4.41c-0.36,0.51-3.97,6-6.79,4.77C26.39,241.62,24.95,239.89,24.95,239.89z"/>
<path fill="#1D1D1B" d="M17.87,224.4c0,0-2.67,4.04,1.01,11.63c0.58,0,0.72,0.07,0.72,0.07S16.93,229.17,17.87,224.4z"/>
<path fill="#1D1D1B" d="M85.05,270.8c0.66-0.44,6.17-1.35,7.13-1.93c-0.39-0.87-0.68-3.85-9.44-2.5c-3.08,3.37-8.86,2.89-8.86,2.89
	S81.29,273.31,85.05,270.8z"/>
<path fill="#1D1D1B" d="M92.32,274.37c0,0-0.96,4.24,1.54,4.43c2.5,0.19-10.88,6.65-17.14,1.35c4.04,1.35,5.97-0.1,5.97-0.1
	s3.95,0.1,6.45-2.31c-1.25-0.1-3.27-1.06-3.27-1.06L92.32,274.37z"/>
<path fill="#1D1D1B" d="M94.15,284.34c0,0,0.77,2.79,1.73,3.18c-4.14,4.53-10.79,1.54-10.79,1.54S91.55,287.32,94.15,284.34z"/>
<path fill="#1D1D1B" d="M96.9,290.65c0,0,0.29,2.41,1.06,2.89c-0.96,0.87-5.01,2.12-6.74,0.96C92.37,292.86,96.9,290.65,96.9,290.65
	z"/>
<path fill="#1D1D1B" d="M89.1,299.79c0,0,4.72-1.93,5.68,0.48c0.96,2.41,3.56,7.61,5.78,6.26c2.22-1.35,2.02-5.87,5.39-2.79
	c3.37,3.08,4.04,3.75,4.14,4.33c0.1,0.58,0-4.24-6.26-6.17c-1.16-0.87-3.66,3.95-3.66,3.95s-2.25,0.5-3.26-4.22
	c-0.08-0.36-1.23-2.77-2.01-3.08c-1.7-0.68-4.01-0.4-4.46-0.21C89.77,298.64,89.1,299.79,89.1,299.79z"/>
<path fill="#1D1D1B" d="M79.37,229.29c0,0,1.25,1.25,4.33,2.51c-0.96,1.44-4.72,2.5-4.72,2.5s-9.25,1.16-11.17,6.65
	c-1.93,5.49-0.77,8.77-0.77,8.77s-2.99-6.07,0.38-11.27c2.51-2.99,3.95-3.76,3.95-3.76S78.02,232.37,79.37,229.29z"/>
<path fill="#1D1D1B" d="M85.82,232.76c0,0,3.08,0.77,3.66,2.41c0.58,1.64-0.58,2.6-0.58,2.6s-3.95,0.67-4.53,1.45
	c-0.58,0.77-7.51,0.39-9.25,2.5s-5.2,4.91-3.56,10.79c-3.56-2.02-0.77-11.56-0.77-11.56s1.25-3.66,7.32-4.14
	C84.18,236.32,85.43,235.36,85.82,232.76z"/>
<path fill="#1D1D1B" d="M109.71,300.18c0,0,5.3-1.54,7.42,4.82c1.64,5.68,1.35,7.03,1.35,7.03s0.96-4.14,0.1-7.42
	c-0.87-3.27-5.68-6.26-7.32-5.78C109.61,299.31,109.71,300.18,109.71,300.18z"/>
<path fill="#1D1D1B" d="M113.56,313.37c0,0,0.96-2.99,2.41-1.64c1.35,1.83,2.41,3.66,0,9.25
	C117.51,315.3,114.62,313.28,113.56,313.37z"/>
<path fill="#1D1D1B" d="M114.81,297.1c0,0,7.12,4.62,6.74,10.3c0.96-3.18-0.87-6.45-0.87-6.45S114.81,294.88,114.81,297.1z"/>
<path fill="#1D1D1B" d="M106.56,313.75c-0.08,0.4,0.54,0.91,0.96,1.17c1.41,0.89,4.29,3.34,2.66,7.79c2.21-2.5,1.83-7.9,1.83-7.9
	s0.19-2.02-3.18-1.93C107.15,312.94,106.65,313.35,106.56,313.75z"/>
<path fill="#1D1D1B" d="M95.16,311.64c0,0,3.66,1.25,2.89,5.49c1.83-2.6,0.29-6.93,0.29-6.93s-0.58-1.93-1.83-0.87
	C95.26,310.39,94.78,311.16,95.16,311.64z"/>
<path fill="#1D1D1B" d="M120.42,308.03c0.16-0.15,0.96-0.15,1.2,0.07c0.73,0.67,2.05,2.43,0.97,5.71c-0.12-2-1.29-3.45-1.96-4.12
	C120.36,309.42,119.94,308.46,120.42,308.03z"/>
<path fill="#1D1D1B" d="M123.67,303.91c-0.21,0.08,0.05,1.19,0.28,1.37c0.65,0.52,1.94,1.73,1.94,3.09
	c0.57-1.41-0.35-2.99-0.87-3.72C124.82,304.38,124.03,303.77,123.67,303.91z"/>
<path fill="#1D1D1B" d="M22.64,239.89c0,0-0.48,4.53,0.48,7.13s2.22,6.45,2.5,7.03s-1.54,0.38-2.41-1.83
	c-0.87-2.22-3.37-3.85-3.37-7.03c0-3.18-2.41-5.49-2.41-5.49s-1.2-1.93,1.61-2.7c2.82-0.77,3.78,1.64,3.78,1.64L22.64,239.89z"/>
<path fill="#1D1D1B" d="M44.19,267.72c-0.25-0.3-1.38-0.9-1.97-0.92s-1.27,0.09-2.01,0.41c0,0,5.13,0.07,4.7,6.72
	c1-0.96,0.74-3.21,0.45-4.63C45.27,268.87,44.57,268.18,44.19,267.72z"/>
<path fill="#1D1D1B" d="M36.67,270.39c0,0,3.32,1.59,1.3,6.79c1.59-0.87,1.44-4.12,1.44-4.12S39.42,270.32,36.67,270.39z"/>
<path fill="#1D1D1B" d="M29.74,271.48c0,0,1.59,0.36,0.5,5.49c0.94-1.59,1.23-3.32,1.23-3.32S31.47,270.83,29.74,271.48z"/>
<path fill="#1D1D1B" d="M25.6,277.33c0.08,0.33,0.45,0.69,0.74,0.94c0.7,0.59,1.89,1.96,1.89,4.41c0.81-2.17-0.04-4.46-0.52-5.46
	c-0.16-0.34-0.39-0.65-0.57-0.77c-0.33-0.23-0.87-0.5-1.3-0.12C25.51,276.61,25.51,277,25.6,277.33z"/>
<path fill="#1D1D1B" d="M33.91,276.7c0.48,0.63,1.09,2.07,0.82,5.19c1.62-1.95,1.46-4.47,1.28-5.61c-0.06-0.38-0.56-2.56-2.07-1.62
	C32.63,275.31,33.64,276.35,33.91,276.7z"/>
<path fill="#1D1D1B" d="M41.22,275.89c0.77,0.61,2.32,2.18,2.32,5.05c1.37-3.47,0.51-5.56,0.51-5.56s-0.87-2.53-2.31-1.08
	C40.79,274.95,40.96,275.69,41.22,275.89z"/>
<path fill="#1D1D1B" d="M49.04,271.79c0.66,0.56,1.65,1.83,1.32,4.31c1.92-3.07-1.03-5.65-1.03-5.65s-0.75-0.7-1.03-0.28
	C48.03,270.59,48.74,271.53,49.04,271.79z"/>
<path fill="#1D1D1B" d="M78.31,214.27c0,0,0.58,3.76,5.3,5.97c0.48,1.35-1.83,2.6-1.83,2.6s2.12,0.19,2.79-1.35
	c0.39,0.1,0.87,0.87,0.87,0.87s-2.12,1.16-1.35,2.6c0.96-2.02,2.12-1.83,2.12-1.83s1.25,1.54,1.25,2.31c0,0.77-1.64,3.56-1.64,3.56
	s2.31-1.83,2.41-2.7c0.48-0.29,0.67,1.93,0.67,1.93s1.54-1.54-3.85-7.61c-1.64-2.12-3.37-2.5-3.37-2.5L78.31,214.27z"/>
<path fill="#1D1D1B" d="M90.49,246.88c0.17,0.16,0.58,0.83,0.29,1.05c-0.29,0.22-0.87-0.29-0.98-0.42c-0.38-0.44-1.23-1.55-1.4-2.83
	c-0.22-1.66-0.79-2.6-1.59-3.03c-0.79-0.43-2.17-2.6-5.42-1.23c-3.25,1.37-3.61,2.6-3.61,2.6s0.29-1.95,3.61-3.32
	c3.32-1.37,5.49,1.23,5.49,1.23s2.24,1.88,2.17,3.76C89.3,245.65,90.07,246.48,90.49,246.88z"/>
<path fill-rule="evenodd" fill="#1D1D1B" d="M97.09,231.03c0,0-4.72,1.93-4.14,6.84c0,0-1.73-4.91-4.82-5.39
	c3.56,2.79,3.95,5.88,3.95,5.88s1.16,5.2,7.8,5.2c6.55-0.19,7.61-4.72,7.61-4.72s4.33,5.01,7.03,1.64
	c-3.56,1.25-6.45-2.22-6.45-2.22s-1.93-6.74-7.42-7.8c-5.97-1.25-8.48,0.77-8.48,0.77S95.64,230.06,97.09,231.03z"/>
<path fill-rule="evenodd" fill="#1D1D1B" d="M117.03,233.05c0,0,2.31,2.12,1.25,5.49c-1.35,3.08-5.39,3.66-5.39,3.66
	s8.09,5.2,9.15,7.42c-1.06-2.89-2.02-3.47-2.02-3.47s2.6-0.48,2.79-2.79c0.19-2.31-0.96-3.47-0.96-3.47s0.87-0.19,1.45,0.19
	c0.38-1.35-3.66-1.73-3.66-1.73S119.43,233.05,117.03,233.05z"/>
<path fill-rule="evenodd" fill="#FFFFFF" d="M98.44,231.22c0,0,5.12-0.25,8,5.2c0.2,0.39,0.41,1.85,0.3,2.12
	c-1.94,5.13-7.91,4.14-7.91,4.14s-5.1-0.58-5.2-4.43C93.52,234.4,95.35,232.18,98.44,231.22z"/>
<path fill-rule="evenodd" fill="#FFFFFF" d="M114.71,242.39c0,0,2.41-0.29,4.33-2.7c1.54-0.67,2.22,0.48,2.22,0.48
	s3.27,4.53-2.12,5.39C117.6,244.12,114.71,242.39,114.71,242.39z"/>
<path fill-rule="evenodd" fill="#1D1D1B" d="M86.23,256.26c2.66,0.23,7.1,1.96,8.14,10.66c0.05,0.41,0.06,2.2,0.03,2.63
	c-0.49,7.29-0.44,7.89,2.11,7.8c2.65-0.09,8.57-7.6,14.08-3.63c0,0,0.89,0.8,1.88,1.85c0.33,0.35,0.67,0.73,0.99,1.11
	c0.62,0.74,1.16,1.53,1.69,2.01c0.24-0.29,0.1-0.29,0.1-0.29s-0.25-1.67-4.44-5.29c-4.98-3.57-11.55,2.22-14.3,3.27
	c-2.79,1.06-1.45-6.55-1.45-6.55s0.1-1.73-0.1-3.18c-1.29-10.54-6.14-11.33-8.88-10.89"/>
<path fill-rule="evenodd" fill="#1D1D1B" d="M108,272.13c0,0,1.58-0.69,1.22-2.8c-0.04-0.57,0.32-0.32,0.32-0.32s0.16,0,0.24,0.65
	c0.08,0.57-0.2,1.99-0.97,2.64C108.56,272.22,108,272.13,108,272.13z"/>
<path fill-rule="evenodd" fill="#1D1D1B" d="M110.72,278.32c0,0-0.34-3.18-2.89-3.32c-0.57,0.48-0.83,1.27-0.96,1.83
	c-0.09,0.39-0.31,0.72-0.5,0.7c-0.19-0.02-0.37-0.1-0.32-0.37c0.1-0.53,0.53-1.44,0.53-1.44s-0.78,0.15-1.01,1.27
	c-0.03,0.13-0.37,0.81-0.54,0.68c-0.13-0.1-0.18-0.56-0.1-0.72c0.17-0.36,0.44-0.84,0.44-0.84s-0.77-0.46-2.37,3.46
	c-0.04,0.11-0.56,0.65-0.63,0.51c-0.07-0.15-0.04-0.46-0.02-0.65c0.01-0.11,1.09-2.6,1.33-2.74c-0.68,0.19-1.59,1.97-1.59,1.97
	s-0.38-0.92,0.91-2.22c-0.48-0.24-1.35,0.43-1.35,0.43s0.82-1.73,5.01-2.41C110.86,273.79,110.72,278.32,110.72,278.32z"/>
<path fill-rule="evenodd" fill="#1D1D1B" d="M107.68,276.2c0,0-0.24,0.82,0.63,0.72c0.53-0.39-0.14-0.67-0.14-0.67
	S107.88,276.05,107.68,276.2z"/>
<path fill-rule="evenodd" fill="#1D1D1B" d="M88.9,264.4c2.76-0.27,5.49,0.72,5.88,5.15c0,0-0.38-4.77-5.97-4.53
	c-5.59,0.24-6.55-0.82-6.55-0.82S85.53,264.74,88.9,264.4z"/>
<path fill-rule="evenodd" fill="#1D1D1B" d="M96.95,276.78c0,0-1.45,2.79-3.13,1.44c-1.69-1.35-1.01-3.95-1.01-3.95
	s1.93-7.99-4.91-8.47c-3.8-0.24-5.25,0.63-5.25,0.63s7.8-1.59,9.39,2.89c0.82,3.56-0.15,5.54,0.05,6.45c0,0.96-0.34,3.52,2.94,3.47
	C96.27,279.14,96.95,276.78,96.95,276.78z"/>
<path fill-rule="evenodd" fill="#1D1D1B" d="M101.98,237.74c0,0,0.72-0.94,1.45-0.58c0.48,0.24,0.13,1.14-0.15,1.73
	c-0.15,0.3-0.54,0.73-0.88,0.8c-0.34,0.08-0.74,0.01-0.99-0.58C101.25,238.32,101.98,237.74,101.98,237.74z"/>
<path fill-rule="evenodd" fill="#FFFFFF" d="M102.12,238.43c0,0,0.29-0.37,0.57-0.23c0.19,0.1,0.05,0.46-0.06,0.69
	c-0.06,0.12-0.22,0.29-0.35,0.32s-0.29,0-0.39-0.23C101.84,238.66,102.12,238.43,102.12,238.43z"/>
<path fill-rule="evenodd" fill="#1D1D1B" d="M118.45,242.58c0,0,1.66-0.79,2.46,0.22c0.29,1.23-1.3,1.37-1.3,1.37
	s-0.58,0.43-1.37-0.36C117.65,243.02,118.45,242.58,118.45,242.58z"/>
<path fill-rule="evenodd" fill="#FFFFFF" d="M118.93,242.94c0,0,0.75-0.36,1.11,0.1c0.13,0.55-0.59,0.62-0.59,0.62
	s-0.26,0.2-0.62-0.16C118.58,243.14,118.93,242.94,118.93,242.94z"/>
<path fill="#1D1D1B" d="M95.28,283.82c0.47,0.85,1.68,2.77,3.06,3.07c0,0,0.48,0.15,0.53,0.34c0.05,0.19-0.62,0.24-0.62,0.24
	s-1.93-0.14-3.32-3.32c-0.48-1.16-0.19-0.92-0.19-0.92S95.14,283.58,95.28,283.82z"/>
<path fill="#1D1D1B" d="M96.66,287.71c0,0,0.34,1.15,3.85,0.96c0.72,0.05,0.72,0.62,0.72,0.62s-0.14,0.24-0.67,0.24
	c-0.96-0.05-2.79-0.05-3.9-0.96c-0.68-0.67-0.53-1.11-0.53-1.11S96.41,287.23,96.66,287.71z"/>
<path fill="#1D1D1B" d="M95.5,279.67c0.01,0.23,0.1,2.99,1.01,3.95c0.91,0.96,0.72,1.3,0.72,1.3s-0.48,0.92-1.25-0.48
	c-0.77-1.4-0.99-3.62-1.01-4.29c-0.05-0.51,0.19-0.63,0.19-0.63S95.49,279.44,95.5,279.67z"/>
<path fill="#1D1D1B" d="M97.57,276.83c0,0-0.92,1.01-0.67,3.61c0,0.82-0.69,0.65-0.86,0.1c-0.24-0.79-0.3-2.06,0.86-3.56
	C97.38,276.49,97.57,276.83,97.57,276.83z"/>
<path fill="#1D1D1B" d="M100.82,291.32c0,0,1.97-0.34,2.94-1.2c0.77-0.67,1.01-0.14,1.01-0.14s0.14,0.48-0.48,0.77
	C103.66,291.03,102.46,291.8,100.82,291.32z"/>
<path fill="#1D1D1B" d="M113.22,289.63c0,0,0.91-1.01,0.91-1.4s0.34-0.38,0.34-0.38s0.29-0.07,0.24,0.38
	C114.67,288.86,113.32,289.59,113.22,289.63z"/>
<path fill="#1D1D1B" d="M106.79,291.56c0,0,0.96-0.94,0.99-1.61c0.03-0.48,0.24-0.36,0.24-0.36s0.17,0,0.17,0.41
	c0,0.41-0.77,1.4-0.77,1.4L106.79,291.56z"/>
<path fill="#1D1D1B" d="M110.67,290.38c0,0,0.7-0.7,0.72-1.16c0.03-0.46,0.31-0.43,0.31-0.43s0.19-0.05,0.19,0.46
	c0,0.5-0.87,1.25-0.87,1.25L110.67,290.38z"/>
<path fill="#1D1D1B" d="M114.81,281.98c0,0,1.2,1.69,1.2,2.58c0.24-0.62,0.27-1.03,0.27-1.03s-0.58-1.69-0.99-1.93
	c-0.41-0.24-0.53-0.14-0.53-0.14S114.72,281.76,114.81,281.98z"/>
<path fill="#1D1D1B" d="M102.48,272.67c0,0-1.81,0.93-3.68,0.58c-0.76-0.15-0.04,0.36-0.04,0.36s3.07,0.18,3.94-0.65
	C103.06,272.42,102.48,272.67,102.48,272.67z"/>
<path fill="#1D1D1B" d="M104,246.77c-2.96,1.37-4.19,4.77-4.41,4.62c-0.22-0.15-0.07-1.23-0.07-1.23s-0.14-1.01-0.65-0.36
	c-1.66,2.1-1.52,4.98-1.52,4.98s-0.65-2.31-1.08-1.3c-0.15,2.75,1.37,4.91,1.37,4.91c-0.2,0-0.86-0.26-2.26-1.98
	c-0.09-0.1-0.34,0.08-0.31,0.28c0.16,1.18,1.7,2.16,2.07,2.71c-1.08-0.51-0.94,0.5-0.94,0.5s0.24,1.86,4.36,2.79
	c4.41,4.04,7.56,1.54,8.21,0.67c0.65-0.87,1.3-0.36,1.3-0.36s1.95-1.15,2.38-2.09c4.19-3.25,1.45-7.51,1.45-7.51s-0.36-0.65,0-0.94
	c0.36-0.29,0.87,0.58,0.87,0.58s2.17,3.54-0.51,6.94c1.8,0.22,4.7-1.81,5.56-4.04c0.51-1.37,0.65-1.52,0.65-1.52
	s0.58,0.51,0.29,1.59c0.4,0.35,1.28-0.57,1.79-1.18c0.23-0.27,0.43-0.71,0.38-0.99c-0.08-0.44-0.38-1.01-1.44-1.01
	c0,0-4.48-0.43-6.43-2.31c-0.8-0.9-1.74-0.31-2.24,0.14c-0.22,0.2-0.51,0.65-0.62,1.06c-0.14,0.57-0.17,1.37,0.49,1.97
	c0.15,0.14,0.57,0.49,0.54,0.62c-0.05,0.24-0.2,0.54-0.62,0.41c-0.65-0.22-2.38-2.67-0.79-4.41c0,0,2.02-2.02,4.19,0
	c0,0,2.02,1.37,5.35,1.81c3.32,0.43,2.53,2.31,2.53,2.31s-1.52,2.38-3.25,2.53c-0.51,0.14-0.36-0.72-0.36-0.72s-1.52,4.98-6.36,4.41
	c-2.31,3.03-3.9,3.03-3.9,3.03s-0.72-0.22-1.01,0.29s-4.98,3.83-8.67-0.51c-6-1.52-4.41-4.48-4.41-4.48s-1.73-1.73-1.16-2.89
	c0.65-0.65,1.59,1.08,1.59,1.08s-1.15-4.04-0.07-4.55c0.79-0.29,0.72,0.51,0.72,0.51s1.08-4.48,2.6-4.12
	c0.79,0.07,0.29,0.51,0.29,0.51S102.12,245.76,104,246.77z"/>
<path fill="#1D1D1B" d="M120.35,266.04c0,0,2.21-1.4,2.26-2.46c0.14-0.82,0.53-0.58,0.53-0.58s0.29,0.38,0.1,0.92
	c-0.19,0.53-1.45,2.31-2.36,2.55C119.97,266.71,120.35,266.04,120.35,266.04z"/>
<path fill="#FFFFFF" d="M126.47,262.4c0,0,7.27,4.45,8.52,5.61c-6.4-4.09-8.76-4.36-8.76-4.36S126.61,262.83,126.47,262.4z"/>
<path fill="#1D1D1B" d="M85.43,264.47c-0.29-0.15-0.65-3.04-1.37-5.06c-0.72-2.02-1.37-0.65-1.37-0.65s-3.61,5.73-4.19-3.04
	c-0.58-8.76,4.62-11.41,4.62-11.41c3.56-2.17,4.33,2.46,4.33,2.46s0.58,3.32,4.72,3.13c2.26-0.1,5.59,0.87,5.59,0.87l0.38-0.39
	c0,0-3.83-1.08-6.14-0.94c-2.31,0.15-3.68-1.37-4.04-2.82c-0.36-1.44-1.23-4.84-5.06-3.03c-3.83,1.81-5.42,8.31-4.98,12.21
	c0.43,3.9,1.37,8.24,4.98,3.68c1.37-0.72,2.02,5.06,2.02,5.06L85.43,264.47z"/>
<path fill="#1D1D1B" d="M76.62,230.74c0,0-2.09-0.22-4.04,0.43c-1.95,0.65-1.88,0.07-1.88,0.07s1.08-1.37,4.34-1.66
	c3.25-0.29,2.46,0.79,2.46,0.79S77.34,230.74,76.62,230.74z"/>
<path fill="#1D1D1B" d="M66.51,234.78c0,0,2.02-1.01,3.76-1.23c1.3-0.14,1.08-0.65,1.08-0.65s-0.29-0.51-1.37-0.22
	C68.89,232.98,66.51,234.78,66.51,234.78z"/>
<path fill="#1D1D1B" d="M64.56,238.18c0,0.75,3.9-2.53,3.9-2.53s0.58-0.29,0.65-0.58c0.07-0.29-0.87-0.07-0.87-0.07
	S64.56,238.03,64.56,238.18z"/>
<path fill="#1D1D1B" d="M66,238.61c0,0-2.6,2.17-2.96,2.89c-0.22-1.08,2.82-3.32,2.82-3.32s0.51-0.43,0.58-0.22
	C66.51,238.18,66,238.61,66,238.61z"/>
<path fill="#1D1D1B" d="M61.89,244.82c0,0,2.1-3.39,3.04-3.75c0.94-0.36,0.22-0.72,0.22-0.72S61.45,243.23,61.89,244.82z"/>
<path fill="#1D1D1B" d="M64.05,243.45c0,0-0.87,2.31-1.37,2.67c-0.51,0.36-0.65,0.94-0.65,1.45
	C62.03,248.07,60.59,246.92,64.05,243.45z"/>
<path fill="#1D1D1B" d="M62.9,248.87c0,0-1.08,1.23-1.59,2.89c-0.79,0.43,0.87-3.18,0.87-3.18s0.14-0.43,0.43-0.43
	S62.9,248.87,62.9,248.87z"/>
<path fill="#1D1D1B" d="M63.48,251.97c0,0-1.01,2.67-0.79,3.47s0,0.99-0.24,1.05c-0.24,0.05-0.51-0.04-0.62-0.61
	c-0.21-1.15,0.14-4.19,1.23-4.84C64.13,250.39,63.48,251.97,63.48,251.97z"/>
<path fill="#1D1D1B" d="M64.49,254.65c0,0-0.29,3.32-0.29,3.83c0,0.51-0.79-0.29-0.79-0.5c0-0.22,0.07-3.61,0.58-3.97
	C64.49,253.64,64.49,254.65,64.49,254.65z"/>
<path fill="#1D1D1B" d="M64.92,257.25c0,0-0.07,3.54,1.01,4.19c1.08,0.65,1.01,0.22,1.01,0.22s-0.94-2.67-0.94-3.4
	c0-0.72-0.21-1.3-0.43-1.3S64.92,257.25,64.92,257.25z"/>
<path fill="#1D1D1B" d="M67.09,259.63c0,0,0.79,2.82,1.01,3.1s0.79,0.43,0.79,0.43s0.14-0.43,0.07-0.72
	c-0.07-0.29-0.51-1.88-0.72-2.09C68.03,260.14,67.23,259.56,67.09,259.63z"/>
<path fill="#1D1D1B" d="M69.04,260.28c0,0,0.22,2.46,1.3,2.74c1.08,0.29,1.01-0.07,1.01-0.36c0-0.29-1.16-0.15-1.37-1.08
	C69.76,260.64,69.04,260.28,69.04,260.28z"/>
<path fill="#1D1D1B" d="M71.71,262.67c0,0,1.3,1.16,1.59,1.3c0.29,0.14,0.79,0.29,1.01-0.07c0.22-0.36,0-0.51-0.43-0.65
	c-0.43-0.14-1.52-1.37-1.66-1.59c-0.14-0.22-0.5-0.51-0.65-0.29C71.42,261.58,71.49,262.67,71.71,262.67z"/>
<path fill="#1D1D1B" d="M75.4,263.6c0.65,0.22,1.44,0.58,1.88,0.51c0.43-0.07,0.72-0.36,1.37-0.22c0.65,0.14,1.37,0.5,1.59,0.43
	c0.21-0.07,0.58-0.36,0.21-0.58c-0.36-0.22-1.3-0.51-1.59-0.51s-0.36,0.22-1.23,0.07c-0.87-0.14-1.3-0.43-1.59-0.58
	c-0.29-0.14-0.72-0.29-1.01-0.29c-0.29,0-1.01-0.07-0.51,0.36C75.03,263.24,75.4,263.6,75.4,263.6z"/>
<path fill="#1D1D1B" d="M90.13,225.61c0,0,1.23-3.47-3.32-6.07s-11.41-8.16-11.77-9.75c8.6,7.88,12.42,9.1,12.42,9.1
	s3.97,2.1,3.9,6.21c0.07,1.08-0.51,0.94-0.51,0.94S90.2,226.19,90.13,225.61z"/>
<path fill="#1D1D1B" d="M76.05,212.25c0,0,0.94,1.66,1.3,1.73c0.36,0.07-0.22-1.23-0.51-1.52
	C76.55,212.17,76.05,212.25,76.05,212.25z"/>
<path fill="#1D1D1B" d="M75.54,213.83c0,0,0.36,0.94,0.94,1.3c0.58,0.36,0.87,0.15,0.87,0.15s-0.79-1.16-0.94-1.37
	C76.26,213.69,75.47,213.47,75.54,213.83z"/>
<path fill="#1D1D1B" d="M76.98,216.8c0,0,0.87,1.44,0.29,1.73c-1.37-0.65-1.88-3.11-1.88-3.11L76.98,216.8z"/>
<path fill="#1D1D1B" d="M75.76,218.38c0,0,0.36,2.1,1.66,2.89c0.72,0.15,0.07-0.87,0.07-0.87L75.76,218.38z"/>
<path fill="#1D1D1B" d="M75.54,220.91c0,0,1.23,2.82,2.53,3.18c0.79,0.07,0.36-0.87,0.36-0.87L75.54,220.91z"/>
<path fill="#1D1D1B" d="M75.68,223.51c0,0,1.08,2.02,2.02,2.38c0.94,0.36,0.87-0.43,0.87-0.43S75.54,223.8,75.68,223.51z"/>
<path fill="#1D1D1B" d="M77.92,227.2c0,0,1.45,2.82,5.85,4.04c0.58,0.07,0.51-0.36,0.51-0.36l-0.51-0.43L77.92,227.2z"/>
<path fill="#1D1D1B" d="M118.95,229.94c0,0-1.59-1.3-2.02-4.34c-0.43-3.03-5.61-4.57-6.55-4.65c4.84-1.37,7.13,4.36,7.13,4.36
	L118.95,229.94z"/>
<path fill="#1D1D1B" d="M114.18,229.51c0,0-2.46-5.78-5.63-7.95c-3.18-2.17-2.89-3.54-8.96-4.84c5.71-0.58,11.63,5.85,11.63,5.85
	S114.62,227.34,114.18,229.51z"/>
<path fill="#1D1D1B" d="M112.74,226.62c0,0-5.42-6.5-12.35-5.63c-4.62,0.65-6.21,2.53-6.21,2.53s-0.94,0.51-1.01-0.07
	s0.51-1.3,0.51-1.3s2.74-3.97,12.42-2.53C113.68,224.89,112.74,226.62,112.74,226.62z"/>
<path fill="#1D1D1B" d="M113.46,227.2c0,0,3.47-0.43,4.26,0.51c-0.43-3.11-1.66-3.9-1.66-3.9s-3.25,0.5-3.39,1.37
	C112.52,226.04,113.46,227.2,113.46,227.2z"/>
<path fill="#1D1D1B" d="M92.37,228.86c0,0-1.59,1.01-1.01,2.17c-1.23,0.65-0.94-0.79-0.94-0.79S90.92,228.79,92.37,228.86z"/>
<path fill="#1D1D1B" d="M91.86,228.28c0,0,0.51-0.72,1.66-0.72c0.07-0.65-1.95-0.15-1.95-0.15s-0.36,0.44-0.36,0.65
	C91.21,228.28,91.86,228.28,91.86,228.28z"/>
<path fill="#1D1D1B" d="M93.96,226.26c0,0,1.23-0.65,2.53-0.22c0.72,0.14,0.79-0.58,0.79-0.58s0.07-0.43-1.16-0.43
	s-2.53,0.36-2.6,0.79C93.45,226.26,93.96,226.26,93.96,226.26z"/>
<path fill="#1D1D1B" d="M96.41,223.8c0,0,2.02,0.65,2.17,1.08c0.14,0.43,1.08,0.15,1.15-0.14c0.07-0.29,0.14-0.51-0.36-0.79
	c-0.51-0.29-2.24-0.79-2.6-0.79S96.13,223.8,96.41,223.8z"/>
<path fill="#1D1D1B" d="M99.74,223.37c0,0,2.1,1.08,2.31,1.52c0.22,0.43,0.58,0.15,0.58,0.15s0.07-0.94-1.08-1.81
	c-1.16-0.87-1.95-0.94-1.95-0.94S99.16,223.01,99.74,223.37z"/>
<path fill="#1D1D1B" d="M103.35,223.95c0,0,1.88,1.73,2.02,2.38c0.58,0.87,0.72-0.36,0.72-0.36s-0.65-1.37-1.37-1.95
	C104,223.44,103.35,223.66,103.35,223.95z"/>
<path fill="#1D1D1B" d="M106.67,225.32c0,0,1.66,1.59,1.52,2.89c0.14,0.43,0.36,0.51,0.36,0.51l0.43-0.65c0,0-0.65-2.82-1.73-3.03
	C106.17,224.81,106.6,224.96,106.67,225.32z"/>
<path fill="#1D1D1B" d="M110.36,229.08c0,0,1.3,2.96,1.23,3.83s0.43,0.29,0.43,0.29l0.22-1.3
	C112.23,231.89,111.15,228.86,110.36,229.08z"/>
<path fill="#1D1D1B" d="M112.23,243.02c0,0-2.46-1.8-5.27,0.43c-1.01,0.65-1.23,0.36-1.23,0.36s-1.01-1.08,4.33-2.31
	C111.87,241.28,112.23,243.02,112.23,243.02z"/>
<path fill="#1D1D1B" d="M114.33,233.48c0,0-0.36,1.08,0,2.17c0.51-0.36,0.72,0.07,0.72,0.07s-0.58,0.65-0.36,1.3
	c0.22,0.65,0.79,1.95-0.07,2.89c-0.29-0.15-0.94,0.14-0.94,0.14s1.15-1.37,0.43-2.89C113.39,235.65,113.17,234.35,114.33,233.48z"/>
<path fill="#1D1D1B" d="M89.26,249.09c0,0-1.16,2.96,0.22,6.07c0.72-3.03,3.47-5.42,3.47-5.42S90.2,250.1,89.26,249.09z"/>
<path fill="#FFFFFF" d="M89.82,249.66c0,0-0.92,2.5-0.27,3.97c0.34-1.45,2.02-3.67,2.02-3.67S90.27,250.14,89.82,249.66z"/>
<path fill="#1D1D1B" d="M85.07,243.59c0,0-1.52,2.96-1.08,5.63c-1.81-1.81-2.53-3.97-2.53-3.97S82.4,243.81,85.07,243.59z"/>
<path fill="#FFFFFF" d="M83.48,244.23c0,0-0.25,2.41-0.07,3.48c-0.72-0.72-1.37-2.82-1.37-2.82S82.42,244.32,83.48,244.23z"/>
<path fill="none" stroke="#1D1D1B" d="M106.58,266.9c0,0,0.75-0.99,0.89-2.22"/>
<path fill="none" stroke="#1D1D1B" d="M108.31,266.61c0,0,1.61-1.28,1.97-3.23"/>
<path fill="none" stroke="#1D1D1B" d="M110.09,266.42c0,0,1.93-2.31,1.85-3.83"/>
<path fill="none" stroke="#1D1D1B" d="M117.29,265.84c0,0,0.07-3.18-5.42-3.61"/>
<path fill="none" stroke="#1D1D1B" d="M112.45,266.71c0,0,1.81-2.82,1.88-3.9"/>
<path fill="none" stroke="#1D1D1B" d="M114.86,266.37c0,0,1.13-1.97,1.13-3.06"/>
<path fill="#FFFFFF" d="M127.38,259.15c0,0,7.9,3.08,8.86,3.66c0.96,0.58-8.67-4.43-8.67-4.43L127.38,259.15z"/>
<path fill="#FFFFFF" d="M127.24,255.25c0,0,6.6-0.48,12.23,1.92c-9.49-1.88-11.94-0.91-11.94-0.91L127.24,255.25z"/>
<path fill="#FFFFFF" d="M124.59,252.5c0,0,1.64-1.83,10.35-1.06c-8.67-0.82-10.93,0.34-10.93,0.34L124.59,252.5z"/>
<path fill-rule="evenodd" fill="#1D1D1B" d="M102.7,251.24c0,0,0.29-0.37,0.57-0.23c0.19,0.09,0.05,0.45-0.06,0.69
	c-0.06,0.12-0.22,0.29-0.35,0.32c-0.13,0.03-0.29,0-0.39-0.23C102.41,251.47,102.7,251.24,102.7,251.24z"/>
<path fill-rule="evenodd" fill="#1D1D1B" d="M104.72,252.39c0,0,0.29-0.37,0.58-0.23c0.19,0.1,0.05,0.46-0.06,0.69
	c-0.06,0.12-0.22,0.29-0.35,0.32c-0.13,0.03-0.29,0-0.39-0.23C104.44,252.62,104.72,252.39,104.72,252.39z"/>
<path fill-rule="evenodd" fill="#1D1D1B" d="M99.96,254.27c0,0,0.29-0.37,0.57-0.23c0.19,0.09,0.05,0.45-0.06,0.69
	c-0.06,0.12-0.22,0.29-0.35,0.32c-0.13,0.03-0.29,0-0.39-0.23C99.67,254.5,99.96,254.27,99.96,254.27z"/>
<path fill-rule="evenodd" fill="#1D1D1B" d="M101.93,254.9c0,0,0.29-0.37,0.57-0.23c0.19,0.09,0.05,0.45-0.06,0.69
	c-0.06,0.12-0.22,0.29-0.35,0.32c-0.13,0.03-0.29,0-0.39-0.23C101.64,255.13,101.93,254.9,101.93,254.9z"/>
<path fill-rule="evenodd" fill="#1D1D1B" d="M104.63,255.86c0,0,0.29-0.37,0.58-0.23c0.19,0.09,0.05,0.45-0.06,0.69
	c-0.06,0.12-0.22,0.29-0.35,0.32c-0.13,0.03-0.29,0-0.39-0.23C104.34,256.09,104.63,255.86,104.63,255.86z"/>
<path fill-rule="evenodd" fill="#1D1D1B" d="M106.41,258.36c0,0,0.29-0.37,0.57-0.23c0.19,0.1,0.05,0.46-0.06,0.69
	c-0.06,0.12-0.22,0.29-0.35,0.32c-0.13,0.03-0.29,0-0.39-0.23C106.12,258.59,106.41,258.36,106.41,258.36z"/>
<path fill-rule="evenodd" fill="#1D1D1B" d="M98.99,257.79c0,0,0.29-0.38,0.57-0.23c0.19,0.09,0.05,0.46-0.06,0.69
	c-0.06,0.12-0.22,0.29-0.35,0.32s-0.29,0-0.39-0.23C98.71,258.01,98.99,257.79,98.99,257.79z"/>
<path fill-rule="evenodd" fill="#1D1D1B" d="M101.16,258.36c0,0,0.29-0.37,0.57-0.23c0.19,0.1,0.05,0.46-0.06,0.69
	c-0.06,0.12-0.21,0.29-0.35,0.32c-0.13,0.03-0.29,0-0.39-0.23C100.87,258.59,101.16,258.36,101.16,258.36z"/>
<path fill-rule="evenodd" fill="#1D1D1B" d="M103.62,258.65c0,0,0.29-0.37,0.57-0.23c0.19,0.1,0.05,0.46-0.06,0.69
	c-0.06,0.12-0.22,0.29-0.35,0.32c-0.13,0.03-0.29,0-0.39-0.23C103.33,258.88,103.62,258.65,103.62,258.65z"/>
<path fill-rule="evenodd" fill="#1D1D1B" d="M121.39,260.1c0,0-0.29-0.37-0.57-0.23c-0.19,0.09-0.05,0.45,0.06,0.69
	c0.06,0.12,0.22,0.29,0.35,0.32c0.13,0.03,0.29,0,0.39-0.23C121.67,260.33,121.39,260.1,121.39,260.1z"/>
<path fill-rule="evenodd" fill="#1D1D1B" d="M119.22,259.62c0,0-0.29-0.38-0.57-0.23c-0.19,0.1-0.05,0.46,0.06,0.69
	c0.06,0.12,0.22,0.29,0.35,0.32c0.13,0.03,0.29,0,0.39-0.23C119.51,259.85,119.22,259.62,119.22,259.62z"/>
<path fill-rule="evenodd" fill="#1D1D1B" d="M122.78,258.22c0,0-0.29-0.37-0.57-0.23c-0.19,0.1-0.05,0.46,0.06,0.69
	c0.06,0.12,0.22,0.29,0.35,0.32c0.13,0.03,0.29,0,0.39-0.23C123.07,258.45,122.78,258.22,122.78,258.22z"/>
<path fill-rule="evenodd" fill="#1D1D1B" d="M124.18,260.34c0,0-0.29-0.37-0.58-0.23c-0.19,0.1-0.05,0.46,0.06,0.69
	c0.06,0.12,0.22,0.29,0.35,0.32c0.13,0.03,0.29,0,0.39-0.23C124.47,260.57,124.18,260.34,124.18,260.34z"/>
<path fill-rule="evenodd" fill="#1D1D1B" d="M122.01,263.04c0,0-0.29-0.37-0.57-0.23c-0.19,0.09-0.05,0.45,0.06,0.69
	c0.06,0.12,0.22,0.29,0.35,0.32s0.29,0,0.39-0.23C122.3,263.26,122.01,263.04,122.01,263.04z"/>
<path fill-rule="evenodd" fill="#1D1D1B" d="M119.51,261.83c0,0-0.29-0.37-0.57-0.23c-0.19,0.09-0.05,0.46,0.06,0.69
	c0.06,0.12,0.22,0.29,0.35,0.32c0.13,0.03,0.29,0,0.39-0.23C119.8,262.06,119.51,261.83,119.51,261.83z"/>
<path fill-rule="evenodd" fill="#1D1D1B" d="M84.62,242.25c0,0,10.93,3.03,17,7.66c0.48,0.39,0.67,0.05,0.67,0.05
	s0.43-0.29-0.19-0.72C101.47,248.8,93.09,243.31,84.62,242.25z"/>
<path fill-rule="evenodd" fill="#1D1D1B" d="M88.52,242.25c0,0,9.63,3.71,13.44,6.26c0.72,0.43,0.68-0.19,0.68-0.19
	s0.14-0.48-0.19-0.58C101.86,247.45,93.81,242.78,88.52,242.25z"/>
<path fill-rule="evenodd" fill="#1D1D1B" d="M101.55,252.91c0,0-9.43-3.81-20.55-2.65c14.21,0.45,19.51,3,19.51,3
	s0.2,0.18,0.63,0.06C101.57,253.2,101.55,252.91,101.55,252.91z"/>
<path fill-rule="evenodd" fill="#1D1D1B" d="M99.3,255.06c0,0-9.54,0.19-14.54,0.96c5.11-1.78,14.4-1.44,14.4-1.44l0.34,0.19
	L99.3,255.06z"/>
<path fill-rule="evenodd" fill="#1D1D1B" d="M101.95,256.72c0,0-16.81,0.1-21.33,1.83c6.65-3.52,20.85-2.36,20.85-2.36
	S102,256.47,101.95,256.72z"/>
<path fill-rule="evenodd" fill="#1D1D1B" d="M98.97,258.62c0,0-11.03,1.59-14.3,3.13c-3.61,1.11-6.74,1.25-6.74,1.25
	s5.59-1.21,6.74-1.83C85.82,260.54,94.92,258.19,98.97,258.62z"/>
<path fill-rule="evenodd" fill="#1D1D1B" d="M101.04,260.59c0,0-8.62-1.01-14.06,1.25c7.03-2.74,14.06-1.73,14.06-1.73
	S101.42,260.5,101.04,260.59z"/>
<path fill="#1D1D1B" d="M117.28,265.52c0,0,2.48-0.03,2.92-0.79c0.43-0.54,0.68-0.19,0.68-0.19s0.11,0.41-0.25,0.72
	c-0.37,0.3-2.14,1.05-3.04,0.82S117.28,265.52,117.28,265.52z"/>
<path fill="#1D1D1B" d="M124.66,232.67c0,0,0.51,0.93-0.05,1.75c-0.22,0.47,0.49,0.63,0.49,0.63s0.42,0.12,0.55-0.72
	c0.13-0.83-0.09-1.77-0.52-1.88C124.72,232.33,124.66,232.67,124.66,232.67z"/>
<path fill="#1D1D1B" d="M122.77,231.57c0,0,0.61,0.87,0.14,1.74c-0.17,0.49,0.55,0.57,0.55,0.57s0.43,0.07,0.47-0.78
	c0.04-0.84-0.29-1.75-0.72-1.82C122.78,231.22,122.77,231.57,122.77,231.57z"/>
<path fill="#1D1D1B" d="M120.97,231.22c0,0,0.62,0.87,0.14,1.74c-0.17,0.49,0.55,0.57,0.55,0.57s0.43,0.07,0.47-0.78
	c0.04-0.84-0.29-1.75-0.72-1.82C120.98,230.88,120.97,231.22,120.97,231.22z"/>
<path fill="#1D1D1B" d="M114.33,216c0,0-1.34,1.81-1.08,2.92c0.25,0.63,0.69,0,0.69,0L114.33,216z"/>
<path fill="#1D1D1B" d="M115.58,215.66c0,0-0.89,0.03-0.93,1.41c0.09,0.82,0.71,0.25,0.71,0.25L115.58,215.66z"/>
<path fill="#1D1D1B" d="M118.57,214.12c0,0-2.26,1.06-2.41,2.45c0.04,0.84,0.81,0.28,0.81,0.28L118.57,214.12z"/>
<path fill="#1D1D1B" d="M112.69,217.98c0,0-0.94,1-0.45,1.95c0.37,0.52,0.61-0.13,0.61-0.13L112.69,217.98z"/>
</svg>
