<?xml version="1.0" encoding="utf-8"?>
<!-- Generator: Adobe Illustrator 15.0.0, SVG Export Plug-In  -->
<!DOCTYPE svg PUBLIC "-//W3C//DTD SVG 1.1 Tiny//EN" "http://www.w3.org/Graphics/SVG/1.1/DTD/svg11-tiny.dtd" [
	<!ENTITY ns_flows "http://ns.adobe.com/Flows/1.0/">
]>
<svg version="1.1" baseProfile="tiny"
	 xmlns="http://www.w3.org/2000/svg" xmlns:xlink="http://www.w3.org/1999/xlink" xmlns:a="http://ns.adobe.com/AdobeSVGViewerExtensions/3.0/"
	 x="0px" y="0px" width="475px" height="600px" overflow="visible" xml:space="preserve">
<defs>
</defs>
<path fill="#00A0BF" d="M271.82,164.83c-4.06,0-7.35,3.47-7.35,7.75s3.29,7.75,7.35,7.75c4.06,0,7.35-3.47,7.35-7.75
	S275.88,164.83,271.82,164.83"/>
<ellipse fill="none" stroke="#000000" cx="271.82" cy="172.58" rx="7.35" ry="7.75"/>
<path fill="#00A0BF" d="M198.69,166.29c-4.06,0-7.35,3.47-7.35,7.75c0,4.28,3.29,7.75,7.35,7.75c4.06,0,7.35-3.47,7.35-7.75
	C206.04,169.76,202.75,166.29,198.69,166.29"/>
<ellipse fill="none" stroke="#000000" cx="198.69" cy="174.04" rx="7.35" ry="7.75"/>
<path fill="#FF917F" d="M255.15,287.96c3.24-4.99,5.45-14.85,5.57-18.56c-1.16-5.66-10.39-12.4-14.33-15.27l-0.6-0.44
	c-3.1-2.27-5.89-2.52-6.95-2.52c-0.61,0-1.14,0.08-1.47,0.22c-0.42,0.18-0.79,0.43-1.2,0.7c-0.69,0.46-1.4,0.93-2.34,1.04
	c-1.44,0.17-3.93-0.52-5.09-1.78c-0.58-0.62-1.32-1.29-2.81-1.29c-1.58,0-3.73,0.78-6.38,2.32c-9.72,5.66-10.43,13.73-9.32,17.6
	c0.14,0.49,0.33,1.42,0.57,2.61c0.94,4.64,2.7,13.27,5.67,16.39c0.29,0.3,0.58,0.62,0.88,0.95c3.47,3.74,8.23,8.87,18.33,8.87h0
	c0.75,0,1.53-0.03,2.32-0.09C247.57,297.99,252.37,292.23,255.15,287.96"/>
<path d="M246.64,253.77l-0.6-0.44c-3.2-2.35-6.1-2.6-7.2-2.6c-0.68,0-1.26,0.09-1.64,0.25c-0.45,0.19-0.87,0.47-1.27,0.73
	c-0.68,0.45-1.32,0.87-2.15,0.97c-1.31,0.15-3.67-0.5-4.73-1.65c-0.69-0.74-1.54-1.43-3.13-1.43c-1.69,0-3.84,0.78-6.6,2.38
	c-9.95,5.8-11.08,14.19-9.93,18.18c0.14,0.47,0.51,1.42,0.75,2.59c0.95,4.68,2.95,13.28,6,16.5c0.28,0.3,0.58,0.61,0.88,0.94
	c3.53,3.8,8.36,9,18.65,9h0c0.76,0,1.55-0.03,2.35-0.09c9.75-0.71,14.64-6.58,17.47-10.93c3.29-5.05,6.15-15.01,6.26-18.81
	C260.58,263.5,250.96,256.92,246.64,253.77 M235.69,298.77c-10.1,0-14.86-5.13-18.33-8.87c-0.3-0.33-0.6-0.65-0.88-0.95
	c-2.97-3.12-4.73-11.75-5.67-16.39c-0.24-1.18-0.43-2.12-0.57-2.61c-1.11-3.87-0.4-11.93,9.32-17.6c2.65-1.54,4.79-2.32,6.38-2.32
	c1.49,0,2.23,0.67,2.81,1.29c1.17,1.26,3.66,1.96,5.09,1.78c0.94-0.11,1.65-0.58,2.34-1.04c0.4-0.27,0.78-0.52,1.2-0.69
	c0.32-0.14,0.86-0.22,1.47-0.22c1.05,0,3.84,0.25,6.95,2.52l0.6,0.44c3.94,2.88,13.17,9.61,14.33,15.27
	c-0.12,3.71-2.32,13.57-5.57,18.56c-2.78,4.27-7.58,10.04-17.14,10.73C237.22,298.74,236.44,298.77,235.69,298.77L235.69,298.77z"/>
<path d="M304.88,144.91c-19.3-2.61-41.21-3.73-57.27,8.76c-2.2,1.71-2.61,5.31-2.12,7.47c0,0,12.33-13.09,34.98-13.86
	c25.52-0.87,31.12,1.37,36.35,1.49"/>
<path d="M351.06,108.85c-1.61-8.18-15.93-20.08-32.37-25.4c-9.31-3.01-30.71-16.6-64.57-24.07c-21.19-4.68-52.45,3.97-59.17,8.46
	c0,0-4.61,4.11-6.35,5.73c-1.12-0.12-1.74-0.12-1.74-0.12s-10.49,8.63-16.89,32.74c-4.15,15.62-14.94,34.86-20.58,38.68
	c-5.64,3.82,2.16,17.93,8.47,19.25c3.98-3.49,7.5-11.72,12.12-16.1c7.42-7.04,26.18-22.22,67.56-19.92
	c50.79,2.82,57.32,14.74,69.38,18.26c3.98,1.16,35.23,16.9,40.67,25.56c4.48,7.14,7.72,0.08,5.8-4.07
	c-1.7-3.68-8.06-18.83-7.67-27.06C346.33,127.98,354.8,127.85,351.06,108.85"/>
<path d="M159.29,163.52c7.55,1.25,13.82-6.91,15.91-11.02c19.84-3.07,36.77,7.88,39.17,9.21c2.41,1.33,5.98,0.75,5.98,0.75
	l-6.72-7.84c0,0-20.83-6.51-36.6-4.73c-7.22,0.82-10.52,1.74-16.02,1.12c0,0,5.06,2.23,11.37,1.66c2.82-0.17-8.13,13.11-13.78,8.47"
	/>
<path d="M296.23,145.59c5.23,3.36,16.31,11.55,26.89,12.39l-2.18,0.37c-10.58-0.83-25.02-9.4-30.25-12.76"/>
<path d="M260.93,330.77c6.89-10.27,47.56-54.18,56.77-82.37c6.61-20.22,7.72-40.38,7.47-53.33s-3.95-43.66-3.95-43.66l-1.86-0.75
	c1.49,10.46,3.53,30.71,3.75,44.32c0.23,13.61-2.7,26.7-5.42,41.99c-2.71,15.3-19.75,42.16-29.38,54.28
	c-9.63,12.12-18.09,23.88-29.88,31.7c-12.01,7.97-34.29,3.67-39.46-1.06c-4.72-4.32-14.48-14.42-20.13-22.88
	s-20.25-29.84-26.23-44.45c-5.98-14.61-10.79-49.8-11.29-57.1c-0.5-7.3-2.49-26.72-2.74-38.34l-4.57-1.83
	c0,0,7.55,70.13,16.52,96.77c8.96,26.64,39.09,61.75,49.05,73.2c9.96,11.45,11.7,34.61,11.7,34.61l22.51,17.93
	C253.82,379.82,255.76,338.48,260.93,330.77"/>
<path d="M225.66,230.77c-1.41-1.49-3.32-1.66-3.24,0c0.08,1.66,0.75,2.99-0.67,2.82c-1.41-0.17-2.9-1.09-4.15-3.95
	c-1.24-2.86-1.41-0.37-1.24,0.79c0.17,1.16,2.24,6.06,6.64,7.63c4.4,1.58,3.65-0.08,6.47,0.91c2.82,1,4.57,4.07,4.48,7.72
	c-0.08,3.65,1.85,0.54,1.84-0.75c-0.01-1.28,0.79-5.54,2.54-6.99c1.74-1.46,4.38-2.42,6.04-2.39c4.63,0.08,8.84-1.83,9.34-4.73
	c0.5-2.91-0.91-1.91-1.66-1c-0.75,0.91-3.49,3.48-4.73,2.07c-1.25-1.41,0.17-3.49-0.25-4.61c-0.42-1.12-2.66-1.04-3.49,0.46
	c-0.83,1.49-4.45,6.14-9.3,6.14C229.26,234.92,227.16,232.35,225.66,230.77"/>
<path d="M310.48,161.13c0,0-7.59,7.3-12.08,8.8c-6.28,2.09-7.71-6.58-23.16-6.97c-14.69-0.37-19.51,12.22-23.03,19.05
	c-0.66,1.29,1.45,1.61,1.89,0.52c0,0,5.73-15.55,17.53-15.58c10.12-0.02,13.19,7.47,18.92,7.53c9.88,0.1,19.92-12.64,19.92-12.64"/>
<path d="M292.22,165.91c-3.24-3.24-10.25-7.55-17.84-7.55c-7.25,0-13.93,4.02-17.68,10.83c-0.46,0.83,0,1.18,0.58,0.34
	c4.41-6.39,10.34-9.11,17.59-9.11c7.59,0,13.71,3.11,16.95,6.35"/>
<path d="M292.22,173.75c-15.85,17.76-31.39,8.26-35.71,8.88c-0.87,0.12-0.66,0.59,0.06,0.56c4.36-0.18,23.2,10.48,38.72-10.1"/>
<path d="M269.92,182.6c-2.93,0-5.53-0.45-7.66-0.83c-1.76-0.31-3.15-0.55-4.02-0.4l-0.17-0.98c1.04-0.18,2.51,0.07,4.36,0.4
	c6.24,1.09,16.68,2.92,27.52-8.97l0.74,0.67C283.18,180.73,275.86,182.6,269.92,182.6"/>
<path d="M271.29,167.44c-1.92,0-3.49,1.75-3.49,3.9c0,2.15,1.56,3.9,3.49,3.9c1.93,0,3.49-1.75,3.49-3.9
	C274.78,169.19,273.22,167.44,271.29,167.44 M272.01,171.16c-0.82,0-1.48-0.74-1.48-1.66c0-0.92,0.66-1.66,1.48-1.66
	c0.82,0,1.48,0.74,1.48,1.66C273.49,170.42,272.83,171.16,272.01,171.16"/>
<path d="M199.39,169.18c-1.93,0-3.48,1.75-3.48,3.9s1.56,3.9,3.48,3.9c1.92,0,3.49-1.75,3.49-3.9S201.32,169.18,199.39,169.18
	 M200.11,172.91c-0.82,0-1.48-0.74-1.48-1.66s0.66-1.66,1.48-1.66c0.82,0,1.48,0.74,1.48,1.66S200.93,172.91,200.11,172.91"/>
<path d="M219.6,183.19c-5.54-6.61-7.67-20.8-22.24-20.8c-14.53,0-16.85,10.03-19.92,9.45c-4.42-0.84-8.55-4.15-10.37-7.14
	c0,0-1.08-0.33-0.5,1.08c0.58,1.41,6.24,9.02,13.86,11.95c6.47,2.49,4.15-11.58,19.87-9.79c10.24,1.17,13.49,11.95,17.43,16.06
	C218.71,185.02,220.13,183.82,219.6,183.19"/>
<path d="M180.47,171.76c5.71-7.91,12.5-8.43,18.51-8.11c7.79,0.42,14.66,3.58,21.04,10.1c0.71,0.73,1.01-0.1,0.6-0.62
	c-5.64-7.17-12.7-10.98-20.5-11.41c-6.01-0.32-14.8,1.16-20.52,9.07"/>
<path d="M196.92,184.21c-4.29,0-8.33-1.57-11.1-4.33c-1.61-1.6-2.57-3.43-2.57-4.9h1c0,1.19,0.87,2.8,2.27,4.19
	c1.23,1.22,4.69,4.04,10.39,4.04c0.04,0,0.07,0,0.11,0c1.81-0.01,3.87-0.39,6.05-0.78c4.23-0.77,8.6-1.56,11.49,0.34l-0.55,0.83
	c-2.56-1.69-6.73-0.93-10.76-0.2c-2.23,0.41-4.33,0.79-6.22,0.8C196.99,184.21,196.96,184.21,196.92,184.21"/>
<path d="M178.52,174.98c0.5,4.4,5.26,11.62,13.53,12.46c7.35,0.75,18.53-2.51,22.99,2.07c0.52,0.53,2.05-0.43,1.27-0.91
	c-6.27-4.3-15.01-3.24-21.44-3.24c-7.22,0-13.36-6.07-12.87-10.39"/>
<path d="M298.28,343.22c-59.26,55.77,113.04,81.17,82.16,92.95c-30.87,11.79-63.24,25.56-13.94,37.02
	c-54.28-27.77,106.56-22.41,20.91-60.25c-85.65-37.85-5.97-82.66-11.45-108.06c-5.48-25.4,2.69-31.12,35.36-30.38
	c36.35,0.83,41.66-38.68,60.42-33.2c-13.78-12.12-26.56,27.55-65.07,25.56c-26.25-1.36-30.71-70.54-54.44-86.54
	c0,0-21.8-30.27-31.01-28.9c-1.29,18.68,27.67,86.56-52.98,165.48c-10.24,31.55,6.56,87.57-20.29,105.99
	c-26.85,18.42-58.72,39.84-34.82,56.77c23.9,16.93,91.13,7.47,64.73,44.32c-26.39,36.85,35.31,12.95,25.13,30.38
	c15.71-17.43-25.38-12.2-17.16-22.24c49.14-60.06-56.77-56.93-14.94-81.33c41.83-24.4,28.38-30.87,27.88-63.74
	c-0.5-32.87,48.3-90.63,59.26-126.74"/>
<path d="M58.1,436.18c-3.65,21.91,59.76,84.66,36.85,98.27c-22.91,13.61-38.18,9.63-48.14,2.99s-16.6,10.96,12.28,22.91
	c28.88,11.95,50.37-3.46,63.41-22.24c19.59-28.22-31.87-83.66,2.99-94.28"/>
<path d="M78.01,566.64c11.53,5.54,35.75,8.69,24.93,18.95c-10.82,10.26,19.9,13.05,9.1,17.57c13.55-3.21-12.36-8.06-0.95-17.39
	s-1.65-16.96-10.17-21.22"/>
<path d="M171.96,347.21c6.64,17.93,13.79,53.65-14.11,77.93c-35.85,31.2-80.32,20.18-101.09,7.97c-8.47-4.98-19.92-22.91-23.4-33.12
	l13.94,10.46C11.45,376.4,3.98,374.59,0,377.58c9.59-14.07,19.92,8.96,41.33,4.48c26.39-24.9,12.78-34.19,9.96-42.83
	c-2.08-6.35,1-11.95,11.95-17.43c-9.46-6.47-5.48-22.04,1-25.4c0-4.98-10.79-5.08-21.91-22.1c-16.93-25.91,19.92-60.07,38.84-93.99
	c13.26-23.78,12.45-79.11,41.66-117.96C146.18,31.33,190.06,0.96,261.18,6.6c67.72,5.37,81.08,41.17,78.43,52.79
	c19.25,8.63,19.92,21.25,20.58,31.54c0.67,10.29-2.99,18.26-11.62,23.24c0,0-41.83-18.92-97.88-38.59
	c-56.05-19.67-91.59,62.74-94.08,86.12c-4.23,23.13,16.35,98.61,16.35,98.61c4.32,19.18,4.81,42.09-14.36,53.38"/>
<path d="M309.73,382.06c-20.42,7.97,52.28,84.56,4.48,125.74c25.15-43.07-28.44-48.8-25.89-81.42l4.73-13.2
	c-2.54,32.62,41.83,46.81,27.64,84.28c30.35-37.82-42.58-115.74-22.16-123.7"/>
<path d="M343.28,60.12l-0.87-0.48c2.68-4.86,2.12-11.19-1.58-17.82c-6.14-11-21.38-22.55-41.58-23.52l0.05-0.99
	c20.58,1,36.12,12.79,42.4,24.03C345.52,48.18,346.1,55.02,343.28,60.12"/>
<path d="M345.96,62.7l-0.75-0.65c2.95-3.42,5.13-9.73,3.38-16.13C347.22,40.95,343,34.16,330.63,30l0.32-0.95
	c12.79,4.3,17.18,11.4,18.6,16.6C351.52,52.87,348.85,59.34,345.96,62.7"/>
<path d="M359.01,80.06l-0.93-0.34c1.58-4.34,0.79-9.13-2.09-12.82c-2.81-3.6-7.06-5.48-11.37-5.03l-0.1-0.99
	c4.64-0.49,9.23,1.53,12.26,5.41C359.87,70.25,360.71,75.4,359.01,80.06"/>
<path d="M354.4,77.02l-0.91-0.41c1.18-2.63,0.3-7.27-2.01-10.56c-2.09-2.99-5.06-4.49-8.35-4.25l-0.08-0.99
	c3.66-0.28,6.93,1.38,9.24,4.67C354.83,69.09,355.73,74.05,354.4,77.02"/>
<path d="M218.11,476.18c36.85,23.24,33.93,41.01,29.21,49.3c2.66-27.39-38.64-30.06-50.23-51.92
	c-19.82-37.38,87.08-38.42,61.03-140.04l-6.65,37.22c5.23,65.44-79.96,60.02-57.6,105.94c10.83,22.24,62.08,26.23,50.79,54.45
	c8.63-6.31,17.26-29.55-19.59-52.78"/>
<path d="M221.6,359.61c-2.77-10.73-12.33-21.47-23.4-33.91c-12.73-14.29-27.15-30.49-35.32-51.2l0.93-0.37
	c8.11,20.55,22.47,36.68,35.14,50.91c11.16,12.53,20.8,23.36,23.62,34.32L221.6,359.61z"/>
<path d="M265.77,415.76c-6.49-18.91-33.09-32.24-61.25-46.35c-21.88-10.96-44.51-22.3-59.47-37.11l0.7-0.71
	c14.84,14.7,37.4,26,59.21,36.93c28.35,14.2,55.12,27.62,61.75,46.92L265.77,415.76z"/>
<path d="M266.87,412.73c-6.49-18.91-33.09-32.24-61.25-46.35c-21.88-10.96-44.51-22.3-59.47-37.11l0.7-0.71
	c14.84,14.7,37.4,26,59.21,36.93c28.35,14.2,55.12,27.62,61.75,46.92L266.87,412.73z"/>
<path d="M31.91,357.68c-1.5-3.69-1.55-7.03-0.16-9.92c3.39-7.08,14.73-10.49,24.73-13.5l0.48-0.14l0.29,0.96l-0.48,0.14
	c-9.8,2.95-20.92,6.3-24.12,12.98c-1.28,2.67-1.22,5.65,0.18,9.12L31.91,357.68z"/>
<path d="M43.97,382.52c-10.83-4.63-16.36-10.11-16.46-16.28c-0.19-12.57,22.44-24.06,29.37-27.29l0.42,0.9
	c-6.8,3.16-28.98,14.4-28.8,26.37c0.09,5.74,5.42,10.92,15.85,15.38L43.97,382.52z"/>
<path d="M31.24,388.29c-15.8,1.25-23.79,15.94-23.29,29.13c4.75-13.2,12.47-24.9,37.87-23.65"/>
<path fill="#FFFFFF" d="M287.49,65.69c0.55,0.55,1.1,0.88,1.53,0.42c6-5.99,13.68-18.18,18.08-29.49
	c4.95-11.23,4.35-21.82,3.39-21.39c0.31,0.14,0,10.1-5.29,20.86C300.42,46.9,292.67,58.52,287,64.15
	C286.65,64.53,286.94,65.14,287.49,65.69"/>
<path fill="#FFFFFF" d="M277.55,62.72l-0.71-0.7c11.4-11.4,16.81-40.9,1.97-55.75l0.7-0.7c6.93,6.94,10.21,17.5,9.22,29.75
	C287.86,46.2,283.58,56.7,277.55,62.72"/>
<path fill="#FFFFFF" d="M327.6,29.82c-6.38,6.02-13.44,14.62-19.66,22.97c-5.21,6.99-9.7,13.02-12.97,15.88l0.66,0.75
	c3.35-2.93,7.87-9,13.11-16.04c6.01-8.06,13.02-17.47,19.52-23.55C327.91,29.69,327.88,30.02,327.6,29.82"/>
<path fill="#FFFFFF" d="M337.46,42.87c-6.8,3.62-13.01,8.62-18.83,14.13c-5.67,5.36-11.01,10.42-16.75,13.14l0.43,0.9
	c5.87-2.79,11.28-7.91,17-13.32c5.76-5.45,11.63-11,18.32-14.57C337.46,42.87,337.59,43.19,337.46,42.87"/>
<path fill="#FFFFFF" d="M83.28,289.03c-20.06-8.33-30.8-18.07-32.83-29.79c-3.82-22.03,24.33-47.6,54.14-74.67
	c30.81-27.99,62.68-56.92,66.83-86.47l1.97,0.28c-4.26,30.25-36.39,59.44-67.47,87.66c-29.39,26.69-57.15,51.91-53.52,72.85
	c1.91,10.99,12.26,20.24,31.64,28.29L83.28,289.03z"/>
<path fill="#FFFFFF" d="M59.87,211.63v-0.79c28.01-25.83,56.78-61.92,78.25-91.08c26.5-35.98,47.42-64.4,65.43-66.66
	c4.9-0.62,9.48,0.79,13.6,4.17l-1.26,1.54c-3.73-3.06-7.69-4.28-12.09-3.73c-17.16,2.15-38.9,31.68-64.08,65.86
	c-21.52,29.23-47.87,61.49-76.02,87.45L59.87,211.63z"/>
<path fill="#FFFFFF" d="M230.06,51.75c0.93-1.14,1.18-2.45-0.75-3.9c-6.44-4.74-16.15-9.29-27.18-7.84
	c-10.97,1.32-21.1,7.87-29.71,15.68c-17.25,15.99-30.8,37.01-43.36,55.91c-12.4,19.05-23.67,36.4-33.02,47.99
	c-9.21,11.73-16.6,17.25-16.03,17.4c0.31,0.1,8.42-5.28,18.22-16.9c9.95-11.45,21.69-28.56,34.41-47.17
	c12.83-18.44,26.66-38.92,43.29-53.8c8.27-7.32,17.64-12.96,26.9-13.93c9.28-1.12,17.45,2.68,23.36,7
	C227.7,53.31,229.13,52.89,230.06,51.75"/>
<path fill="#FFFFFF" d="M112.59,113.69l-2.41,2.52c20.5-32.79,41.29-60.33,60.37-74.8c15.96-12.1,30.89-17.41,44.38-15.78
	c17.38,2.1,27.74,15.57,31.34,26.47l-1.89,0.62c-3.41-10.34-13.23-23.12-29.68-25.11C197.92,25.59,162.36,34.08,112.59,113.69"/>
<path fill="#FFFFFF" d="M290.61,549.36c-8.23-1.7-12.72-4.11-14.11-7.58c-1.76-4.38,1.69-9.41,5.69-15.24
	c4.94-7.21,10.54-15.38,7.71-24.17c-3.16-9.82-16.17-18.73-39.76-27.25c-13.76-4.97-19.64-8.71-20.3-12.94
	c-0.69-4.42,4.47-8.39,11.61-13.89c15.64-12.04,41.81-32.19,32.36-78.49c-3.8-18.62,9.26-37.84,24.38-60.1
	c25.19-37.07,56.55-83.21,31.7-152.77l1.88-0.67c25.19,70.51-6.48,117.11-31.92,154.56c-14.87,21.88-27.71,40.78-24.08,58.58
	c9.7,47.51-17.09,68.14-33.09,80.46c-6.35,4.89-11.36,8.75-10.85,12c0.51,3.26,6.55,6.88,19.01,11.37
	c24.21,8.74,37.61,18.07,40.98,28.51c3.13,9.73-3.02,18.7-7.97,25.91c-3.67,5.36-6.85,9.98-5.48,13.37
	c1.11,2.75,5.25,4.83,12.67,6.37L290.61,549.36z"/>
<path d="M217.45,359.39c-9.06-13.15-18.69-21.42-32.03-32.86c-9.1-7.81-20.43-17.54-34.49-31.39l1.4-1.42
	c14.01,13.81,25.31,23.51,34.39,31.3c13.45,11.54,23.17,19.89,32.37,33.25L217.45,359.39z"/>
<path d="M267.37,400.15c-9.25-16.35-25.24-25.56-43.74-36.22c-23.78-13.7-50.74-29.24-68.2-64.5l1.78-0.88
	c17.2,34.72,43.88,50.09,67.41,63.66c17.98,10.36,34.96,20.14,44.48,36.96L267.37,400.15z"/>
<path d="M362.02,268.78c13.28,40.5,80.17,22.16,83.16,63.66c4.98-40.34-61.67-36.02-76.36-78.51"/>
<path d="M367.29,272.32c26.89,60.52-10.92,80.18,37.88,111.07c-48.97-20.92-25.48-40.92-54.11-97.19"/>
<path fill="#FFFFFF" d="M375.33,477.49c-17.63-5.05-26.27-10.18-26.42-15.68c-0.23-8.27,18.69-14.84,33.9-20.12
	c6.76-2.35,12.59-4.37,14.61-5.9c1.23-0.94,1.78-1.95,1.68-3.09c-0.54-5.98-18.33-15.02-37.17-24.59
	c-12.18-6.19-25.99-13.21-36.98-20.31c-33.7-21.76-18.3-58.58,1.96-97.58c21.68-41.74,33.32-70.64,12.19-120.01l0.92-0.39
	c21.29,49.77,9.59,78.86-12.23,120.86c-24.08,46.37-32.18,76.99-2.3,96.29c10.95,7.07,24.14,13.77,36.89,20.25
	c19.92,10.12,37.12,18.86,37.71,25.39c0.13,1.49-0.56,2.83-2.07,3.97c-2.14,1.63-7.76,3.58-14.88,6.05
	c-14.11,4.9-33.44,11.62-33.23,19.15c0.14,4.94,8.78,9.91,25.7,14.75L375.33,477.49z"/>
<path fill="#FFFFFF" d="M357.12,72.75c-14.27-11.74-37.04-1.98-50.07,3.6l0.39,0.91c12.87-5.52,35.44-15.19,49.29-3.52
	C356.82,73.4,356.96,73.07,357.12,72.75"/>
<path fill="#FFFFFF" d="M361.01,84.92c-13.15-7.34-31.5-7.16-37.57-3.9l0.47,0.88c6.03-3.24,24.55-3.34,37.4,4.32
	C361.17,85.79,361.06,85.36,361.01,84.92"/>
<path fill="#FFFFFF" d="M363.23,95.77c-5.07-2.72-12.85-4.36-20.14-4.36v1c7.89,0,15.34,1.79,19.96,4.39
	C363.12,96.46,363.18,96.12,363.23,95.77"/>
<path fill="#FFFFFF" d="M261.33,55.04c-5.49-14.99-28.88-52.86-70.66-48.13l-0.82-0.43c43.05-4.88,67.71,32.48,73.35,47.88
	L261.33,55.04z"/>
<path fill="#FFFFFF" d="M269.03,55.04C268,30.46,254.08,2.8,239.23,0.95L238.52,0c17.2,2.15,33.9,32.81,34.86,55.77l-2.24-0.73
	H269.03z"/>
<path fill="#FFFFFF" d="M121.35,238.32c-8.67-19.07-17.56-38.67-8.74-59.58c-0.39,0.34-0.79,0.67-1.22,0.94
	c-0.47,0.29-0.97,0.5-1.48,0.63c-7.56,20.99,1.46,40.87,9.63,58.84c9.13,20.08,17.75,39.05,2.22,56.27
	c-11.57,12.82-24.11,19.77-34.19,25.35c-13.48,7.47-23.22,12.86-17.53,26.97c1.59,3.94,3.93,8.04,6.4,12.38
	c6.05,10.61,12.31,21.59,7.61,30.62c-5.25,10.1-23.62,16.5-56.14,19.54l0.18,1.98c33.25-3.12,52.13-9.86,57.72-20.61
	c5.2-9.99-1.34-21.44-7.65-32.52c-2.44-4.28-4.75-8.33-6.28-12.14c-5.03-12.47,3.13-17,16.65-24.48
	c10.21-5.65,22.91-12.69,34.7-25.76C139.65,278.56,130.76,259.01,121.35,238.32"/>
<path fill="#FFFFFF" d="M28.11,412.27l-0.19-1.98c34.84-3.27,54.71-10.09,60.75-20.85c5.13-9.14-0.21-20.04-5.37-30.59
	c-1.56-3.18-3.02-6.19-4.22-9.15c-5.57-13.83,4.57-18.88,18.61-25.88c10.95-5.46,24.58-12.26,36.52-25.49
	c15.58-17.27,7.29-38.37-1.48-60.71c-9.75-24.84-20.81-53,0.49-79.87l1.56,1.24c-20.59,25.98-10.23,52.38-0.2,77.91
	c9.01,22.93,17.51,44.59,1.11,62.78c-12.19,13.51-26.01,20.4-37.11,25.94c-14.05,7.01-22.53,11.24-17.65,23.36
	c1.17,2.9,2.62,5.87,4.16,9.02c5.13,10.5,10.95,22.39,5.31,32.44C84.02,401.79,63.64,408.94,28.11,412.27"/>
<path fill="#FFFFFF" d="M28.11,412.27l-0.19-1.98c39.11-3.67,60.04-10.07,65.87-20.16c4.17-7.21,0.24-15.81-3.92-24.92
	c-1.07-2.33-2.17-4.75-3.14-7.15c-5.99-14.87,7.94-24.35,25.58-36.36c11.15-7.59,23.79-16.19,34.4-27.95
	c15.58-17.27,7.5-37.74-1.04-59.41c-9.52-24.13-20.3-51.47,1-78.35l1.56,1.24c-20.6,25.98-10.49,51.6-0.71,76.38
	c8.78,22.26,17.08,43.29,0.67,61.47c-10.76,11.93-23.51,20.61-34.75,28.26c-17.56,11.95-30.24,20.58-24.85,33.97
	c0.95,2.37,2.05,4.76,3.1,7.07c4.38,9.59,8.52,18.64,3.83,26.74C89.33,401.82,67.91,408.54,28.11,412.27"/>
<path d="M228.97,366.22c-2.23-16.62-13.04-30.61-25.55-46.82c-12.91-16.71-27.54-35.65-35.58-61.68l0.95-0.29
	c7.99,25.85,22.56,44.72,35.42,61.36c12.61,16.32,23.49,30.41,25.75,47.3L228.97,366.22z"/>
<path d="M154.04,352.5c30.91,50.33,182.09,52.97,176.78,229.25c6.87-182.26-145.87-182.09-176.78-232.42"/>
<path d="M144.38,375.21c30.91,50.33,170.33,13.08,172.32,193.59c6.87-182.25-139.01-147.73-169.92-198.06"/>
<path d="M256.26,270.74c-2.68-0.76-9.85-6.86-12.01-9.1c-2.16-2.24-5.98-0.54-10.46-0.91c-4.48-0.37-7.97-1.04-10.83,0.83
	c-1.5,0.98-5.36,6.63-7.22,7.22c-1.04,0.33-0.43,1.84,0.79,2.32c4.65,1.82,8.52,15.26,21.58,14.44
	c9.21-0.58,15.17-11.33,17.03-12.91C255.73,272.14,256.74,270.87,256.26,270.74 M235.28,284.46c-5.72-0.25-7.05-3.98-7.05-3.98
	c2.32,1.25,8.88,2.66,15.69,1.16C243.82,283.83,240.1,284.67,235.28,284.46 M234.79,264.42v-2.12l-0.87-0.06c0,0,0.31,1.56,0,2.43
	c-2.74-0.06-9.77-0.44-9.77-0.44v-2.55c2.86-0.81,18.18,0,18.18,0s2.18,1.87,2.05,2.99C242.63,264.73,234.79,264.42,234.79,264.42"
	/>
<path fill="#FFFFFF" d="M108.13,384.15c-25.41,0-58.84-8.45-98.4-29.4l0.47-0.88c39.45,20.89,72.73,29.32,97.96,29.32
	c21.25,0,36.78-5.98,45.48-15.52c10.46-11.48,10.46-27.89-0.01-43.89l0.83-0.55c10.74,16.41,10.71,33.27-0.08,45.11
	C145.52,378.06,129.71,384.15,108.13,384.15"/>
<path fill="#FFFFFF" d="M116.29,388.04c-25.42,0-58.84-8.45-98.41-29.4l0.47-0.88c39.45,20.89,72.74,29.32,97.96,29.32
	c21.25,0,36.78-5.98,45.48-15.52c10.46-11.48,10.46-27.89-0.01-43.89l0.83-0.55c10.74,16.41,10.71,33.27-0.08,45.11
	C153.68,381.95,137.87,388.04,116.29,388.04"/>
<path fill="#FFFFFF" d="M121.63,395.24c-25.41,0-58.84-8.45-98.4-29.4l0.47-0.88c39.45,20.89,72.73,29.32,97.96,29.32
	c21.25,0,36.78-5.98,45.48-15.52c10.47-11.48,10.46-27.89-0.01-43.89l0.83-0.55c10.74,16.41,10.71,33.27-0.08,45.11
	C159.01,389.14,143.21,395.24,121.63,395.24"/>
<path fill="#FFFFFF" d="M96.11,435.53c-18.59,0-41.81-7.66-68.44-32.31l0.68-0.73c48.87,45.26,86.1,32.74,103.94,21.24
	c21.47-13.83,32.83-36.97,30.57-43.75l0.94-0.32c2.4,7.21-8.76,30.58-30.97,44.9C124.5,429.94,112,435.53,96.11,435.53"/>
<path fill="#FFFFFF" d="M104.16,440.85c-18.83,0-42.64-7.67-69.93-32.94l0.68-0.73c27.07,25.07,50.64,32.66,69.26,32.67
	c14.56,0,26.09-4.64,33.91-9.21c24.04-14.03,36.22-39.26,33.73-49.79l0.97-0.23c2.56,10.82-9.77,36.63-34.19,50.88
	C130.64,436.14,118.93,440.85,104.16,440.85"/>
<path fill="#FFFFFF" d="M250.43,84.83c2.18,0,4.2-4.42,1.42-4.42C249.67,80.41,247.65,84.83,250.43,84.83"/>
<path fill="#FFFFFF" d="M245.62,81.68c2.18,0,4.2-4.42,1.42-4.42C244.86,77.26,242.84,81.68,245.62,81.68"/>
<path fill="#FFFFFF" d="M244.17,78.03c2.18,0,4.2-4.42,1.42-4.42C243.4,73.6,241.39,78.03,244.17,78.03"/>
<path fill="#FFFFFF" d="M246.41,75.04c2.18,0,4.2-4.42,1.42-4.42C245.65,70.62,243.63,75.04,246.41,75.04"/>
<path fill="#FFFFFF" d="M250.02,73.42c2.18,0,4.2-4.42,1.42-4.42C249.26,69,247.24,73.42,250.02,73.42"/>
<path fill="#FFFFFF" d="M253.88,75.91c2.18,0,4.2-4.42,1.42-4.42C253.12,71.49,251.1,75.91,253.88,75.91"/>
<path fill="#FFFFFF" d="M255.99,79.65c2.18,0,4.2-4.42,1.42-4.42C255.23,75.22,253.21,79.65,255.99,79.65"/>
<path fill="#FFFFFF" d="M254.38,82.51c2.18,0,4.2-4.42,1.42-4.42C253.61,78.08,251.59,82.51,254.38,82.51"/>
<path fill="#FFFFFF" d="M248.39,74.37c-0.83,1.45-1.03,3.18-0.46,4.75c0.58,1.58,2.32,1.9,3.69,1.1c1.98-1.16,3.44-3.61,2.57-5.88
	c-0.31-0.81-1.21-1.28-2.03-1.29c-1.43-0.03-2.61,1.18-3.27,2.31c-0.49,0.84-0.62,2.32,0.52,2.71c1.17,0.39,2.36-0.63,2.9-1.56
	c0.14-0.24,0.1-0.18-0.14,0.2c-0.28,0.35-0.64,0.59-1.09,0.73c-0.37,0.03-0.46,0.04-0.26,0.04c-0.33-0.07-0.41-0.07-0.23-0.01
	c-0.28-0.17-0.34-0.19-0.19-0.08c0.13,0.13,0.09,0.09-0.11-0.14c0.04,0.06,0.07,0.12,0.1,0.18c-0.21-0.43-0.08-0.22-0.05-0.04
	c0-0.33-0.01-0.39-0.03-0.17c0.08-0.35,0.09-0.41,0.02-0.18c0.06-0.22,0.17-0.42,0.33-0.59c-0.06,0.08-0.12,0.16-0.19,0.24
	c-0.3,0.37,0.52-0.42,0.03-0.04c0.38-0.24,0.47-0.3,0.27-0.2c0.12-0.05,0.25-0.1,0.38-0.15c0.39-0.04,0.49-0.05,0.3-0.05
	c0.36,0.07,0.45,0.09,0.27,0.04c-0.17-0.07-0.09-0.03,0.22,0.13c-0.14-0.09-0.33-0.39,0.03,0.09c-0.07-0.09-0.12-0.2-0.17-0.3
	c-0.07-0.18-0.05-0.11,0.06,0.19c-0.03-0.1-0.05-0.19-0.07-0.29c-0.03-0.14-0.04-0.28-0.05-0.42c0.05,0.67,0.03,0.03,0.05-0.14
	c0.04-0.37-0.16,0.57,0,0.01c0.02-0.07,0.05-0.14,0.08-0.21c-0.25,0.68-0.15,0.34-0.05,0.16c0.48-0.85,0.63-2.32-0.52-2.71
	C250.13,72.42,248.92,73.44,248.39,74.37"/>
<path fill="#FFFFFF" d="M229.97,65.83c2.18,0,4.2-4.42,1.42-4.42C229.21,61.4,227.19,65.83,229.97,65.83"/>
<path fill="#FFFFFF" d="M231.84,68.82c2.18,0,4.2-4.42,1.42-4.42C231.08,64.39,229.06,68.82,231.84,68.82"/>
<path fill="#FFFFFF" d="M235.08,70.93c2.18,0,4.2-4.42,1.42-4.42C234.32,66.51,232.3,70.93,235.08,70.93"/>
<path fill="#FFFFFF" d="M238.44,72.55c2.18,0,4.2-4.42,1.42-4.42C237.68,68.13,235.66,72.55,238.44,72.55"/>
<path fill="#FFFFFF" d="M241.18,69.81c2.18,0,4.2-4.43,1.42-4.43C240.42,65.39,238.4,69.81,241.18,69.81"/>
<path fill="#FFFFFF" d="M242.3,66.57c2.18,0,4.2-4.43,1.42-4.43C241.54,62.15,239.52,66.57,242.3,66.57"/>
<path fill="#FFFFFF" d="M241.55,63.84c2.18,0,4.2-4.42,1.42-4.42C240.79,59.41,238.77,63.84,241.55,63.84"/>
<path fill="#FFFFFF" d="M229.23,62.59c2.18,0,4.2-4.42,1.42-4.42C228.47,58.17,226.45,62.59,229.23,62.59"/>
<path fill="#FFFFFF" d="M234.07,62.61c-0.21,0.82-0.39,1.61-0.22,2.46c0.13,0.65,0.66,1.16,1.35,1.13c2.18-0.09,4.54-2.35,4.06-4.66
	c-0.44-2.1-3.28-2.3-4.67-1.07c-1.31,1.16-1.88,3.13-0.71,4.59c0.98,1.22,2.27,1.77,3.83,1.44c1.1-0.23,2.27-1.56,2.26-2.7
	c0-0.69-0.05-1.21-0.3-1.86c-0.45-1.16-2.1-0.58-2.76-0.05c-0.93,0.75-1.49,1.97-1.04,3.13c-0.07-0.23-0.09-0.24-0.05-0.02
	c-0.01-0.27-0.01-0.3,0-0.09c0.75-0.9,1.51-1.8,2.26-2.7c-0.34,0.07,0.56-0.02,0.06-0.02c-0.19-0.01-0.12,0,0.21,0.05
	c-0.09-0.01-0.17-0.04-0.26-0.07c-0.11-0.03-0.22-0.09-0.33-0.14c0.55,0.27,0.11,0.04-0.02-0.06c-0.09-0.07-0.17-0.15-0.25-0.24
	c-0.12-0.14-0.08-0.08,0.13,0.17c-0.05-0.06-0.09-0.13-0.14-0.2c-0.06-0.08-0.1-0.18-0.15-0.27c-0.1-0.21,0.12,0.54,0.04,0.07
	c-0.02-0.2-0.02-0.08,0.01,0.35c0.02-0.21-0.01-0.08-0.09,0.4c-0.19,0.83-1.01,1.54-1.79,1.79c0.25-0.08-0.62,0.02-0.16,0.04
	c0.18,0.02,0.12,0.01-0.2-0.03c0.12,0.02,0.23,0.06,0.34,0.11c-0.23-0.14-0.26-0.15-0.11-0.04c0.14,0.14,0.1,0.09-0.11-0.14
	c-0.09-0.33-0.11-0.4-0.07-0.21c-0.01-0.12-0.01-0.23-0.01-0.35c0.1-0.41,0.12-0.51,0.06-0.3c0.23-0.7,0.46-0.89,1.05-1.27
	c-0.2,0.11-0.12,0.08,0.25-0.08c-0.36,0.14,0.5-0.02,0.1,0c0.45,0.38,0.9,0.75,1.35,1.13c-0.11-0.55-0.06,0.35-0.01-0.16
	c-0.06,0.55,0.01-0.01,0.04-0.12c0.25-0.99,0-2.22-1.25-2.22C235.57,60.4,234.36,61.5,234.07,62.61"/>
<path fill="#FFFFFF" d="M256.86,69.56c2.18,0,4.2-4.42,1.42-4.42C256.1,65.14,254.08,69.56,256.86,69.56"/>
<path fill="#FFFFFF" d="M257.49,72.43h0.25c1.23,0,2.32-1.1,2.67-2.21c0.31-0.98-0.04-2.22-1.25-2.22h-0.25
	c-1.23,0-2.32,1.1-2.67,2.21C255.92,71.19,256.28,72.43,257.49,72.43"/>
<path fill="#FFFFFF" d="M261.59,75.04h0.37c1.23,0,2.32-1.1,2.67-2.21c0.31-0.98-0.04-2.22-1.25-2.22h-0.38
	c-1.22,0-2.31,1.1-2.67,2.21C260.03,73.81,260.38,75.04,261.59,75.04"/>
<path fill="#FFFFFF" d="M266.82,74.67c2.18,0,4.19-4.42,1.42-4.42C266.06,70.24,264.04,74.67,266.82,74.67"/>
<path fill="#FFFFFF" d="M272.47,68.16v-0.25c0-0.51-0.05-1-0.47-1.35c-0.39-0.33-0.94-0.36-1.41-0.23c-1.09,0.29-2.26,1.51-2.26,2.7
	v0.25c0,0.51,0.05,1,0.48,1.35c0.39,0.33,0.93,0.36,1.41,0.23C271.3,70.57,272.47,69.35,272.47,68.16"/>
<path fill="#FFFFFF" d="M271.37,64.32c-0.04-0.04-0.08-0.08-0.12-0.12c-0.86-0.86-2.35,0.09-2.94,0.79
	c-0.69,0.83-1.13,2.17-0.27,3.03c0.04,0.04,0.08,0.08,0.12,0.12c0.86,0.86,2.35-0.09,2.94-0.79
	C271.8,66.52,272.24,65.19,271.37,64.32"/>
<path fill="#FFFFFF" d="M266.25,61.78h-0.75c-1.23,0-2.32,1.1-2.67,2.21c-0.31,0.98,0.04,2.22,1.25,2.22h0.75
	c1.23,0,2.32-1.1,2.67-2.21C267.82,63.01,267.46,61.78,266.25,61.78"/>
<path fill="#FFFFFF" d="M258.61,65.58c2.18,0,4.2-4.42,1.42-4.42C257.85,61.15,255.83,65.58,258.61,65.58"/>
<path fill="#FFFFFF" d="M266.12,66.76h-0.25c-1.23,0-2.32,1.1-2.67,2.21c-0.31,0.98,0.04,2.22,1.25,2.22h0.25
	c1.23,0,2.32-1.1,2.67-2.21C267.69,67.99,267.33,66.76,266.12,66.76"/>
<path fill="#FFFFFF" d="M265.5,66.63c0.09,0.01,0.18,0.02,0.27,0.04c0.24,0.2,0.47,0.4,0.71,0.6c-0.01-0.03-0.02-0.06-0.04-0.09
	c-0.48-1.14-2.08-0.6-2.76-0.05c-0.91,0.74-1.52,1.99-1.04,3.13c0.25,0.6,0.85,0.77,1.44,0.79c1.22,0.05,2.33-1.14,2.67-2.21
	C267.08,67.83,266.7,66.68,265.5,66.63"/>
<path fill="#FFFFFF" d="M223.95,125.07c-0.27-1.7-0.39-3.68,1.24-4.7c1.32-0.83,2.84-1.39,4.36-1.74c1.77-0.41,3.13,1.25,2.72,2.99
	c-0.16,0.66-1.9,1.01-2.41,1.14c-0.95,0.23-1.95,0.14-2.86-0.21c-1.04-0.39-2.38,1.69-1.19,2.14c2.25,0.85,6.24,0.31,7.74-1.84
	c1.46-2.1,0.98-5.07-1.36-6.33c-2.07-1.12-5.97,1.06-7.67,2.12c-2.65,1.66-3.09,4.62-2.63,7.51
	C222.11,127.52,224.12,126.15,223.95,125.07"/>
<path fill="#FFFFFF" d="M202.93,87.69c-1.68-0.76-2.99-1.44-4.75-0.73c-0.47,0.19-0.81,0.76-0.87,1.24
	c-0.21,1.91,1.36,3.14,3.1,3.61c0.32-0.72,0.63-1.45,0.95-2.17c-2.11-0.06-7.31,0.62-7.22,3.81c0.09,3.06,3.99,2.88,6.27,2.52
	c0.06-0.71,0.12-1.43,0.19-2.14c-2.84,0.49-9.47,2.42-8.76,6.59c0.58,3.4,5.09,4.04,6.7,1.07c0.25-0.46,0.29-1.46-0.5-1.39
	c-3.44,0.31-8.13,4.08-8.44,7.69c-0.39,4.47,6.85,2.92,8.85,1.35c0.61-0.48,0.94-2.31-0.34-1.86c-3.68,1.29-6.65,6.17-4.43,9.78
	c2.2,3.6,5.97-0.96,6.21-3.35c0.09-0.9-0.93-1.01-1.47-0.52c-1.86,1.68-4.72,6.03-2.06,8.26c3.72,3.12,6.91-1.42,7.79-4.48
	c-0.67,0.09-1.35,0.18-2.02,0.28c-0.1,2.17-0.27,5.21,2.74,4.39c2.35-0.63,2.47-4.43,2.49-6.28c-0.66,0.35-1.32,0.7-1.99,1.05
	c1.03,1.46,1.87,4.95,4.34,4.28c2.38-0.64,1.92-4.02,1.62-5.76c-0.66,0.44-1.32,0.87-1.98,1.31c2.01,2.59,3.37,4.4,6.73,2.69
	c2.67-1.36,2.01-5.03,0.81-7.06c-0.6-1.02-1.92,0.31-1.99,1.05c-0.21,2.33,2.34,3.85,4.29,2.01c3.06-2.88,1.8-5.86-0.79-8.72
	c-0.53,0.64-1.07,1.27-1.6,1.91c4.14,2.89,5.67-0.49,5.15-4.65c-0.61,0.5-1.22,1-1.83,1.49c4.23,4.33,7.19-4.57,0.66-5.21
	c-1.09-0.11-2.11,2.08-0.71,2.21c0.55,0.37,1.1,0.73,1.65,1.09c-0.78-0.8-1.92,0.78-1.83,1.49c0.18,1.4,0.05,2.74-1.49,1.66
	c-0.98-0.69-2.39,1.04-1.6,1.91c1.82,1.19,1.88,2.61,0.18,4.25c-0.66,0.35-1.32,0.7-1.99,1.05c1.19,1.39,0.5,2.54-2.07,3.46
	c-0.55-0.73-1.11-1.46-1.68-2.18c-0.75-0.97-2.14,0.37-1.98,1.31c0.6,3.51-1.36-0.22-2.01-1.15c-0.64-0.91-1.98,0.21-1.99,1.05
	c-0.01,1.29-1.17,2.72-1.08,0.77c0.07-1.46-1.76-0.63-2.02,0.28c-1.55,5.39-7.11,1.62-2.91-2.19c-0.49-0.17-0.98-0.34-1.47-0.52
	c-2.88-1.9-2.84-3.52,0.11-4.85c-0.11-0.62-0.23-1.24-0.34-1.86c-0.54,0.42-7.22,2.29-5.58-1.25c0.8-1.72,3.4-3.81,5.32-3.99
	c-0.17-0.46-0.33-0.93-0.5-1.39c-1.85-2.57-1.55-4.01,0.91-4.32c0.86-0.31,1.78-0.47,2.67-0.63c1.11-0.19,1.71-2.38,0.19-2.14
	c-1.09,0.17-2.15,0.13-3.24-0.06c0.19-0.56,0.37-1.12,0.56-1.68c0.9-0.23,1.81-0.31,2.73-0.23c0.88,0.03,2.14-1.85,0.95-2.17
	c-2.87-0.79-0.8-0.28,0.14,0.14C202.76,90.28,204.1,88.22,202.93,87.69"/>
<path fill="#FFFFFF" d="M204.88,92.19c0.33,0.81,0.78,1.53,1.16,2.32c0.26-0.58,0.52-1.16,0.78-1.73c-2.31,0.96-4.72,0.98-5.09,4
	c-0.3,2.46,3.94,1.73,5.1,1.25c0.93-0.38,1.32-2.28-0.08-2.04c-2.7,0.48-6.93,2.55-8.73,4.66c-0.28,0.33-0.64,1.19-0.13,1.51
	c0.86,0.55,0.92,0.57,1.94,0.65c0.06-0.69,0.12-1.38,0.18-2.07c-2.12,1.37-4.46,3.58-3.16,6.28c1.11,2.31,5.67,1.39,7.56,1.07
	c-0.31-0.18-0.62-0.35-0.94-0.53c0.17,0.5,0.33,1,0.5,1.49c0.19,0.58,0.67,0.67,1.2,0.42c2.39-1.1,2.97-3.6,3.63-5.94
	c-0.67,0.09-1.35,0.18-2.02,0.28c-0.14,1.88-0.79,3.62-0.05,5.43c0.62,1.51,3.14,1.14,4.21,0.56c2.75-1.48,5.95-5.26,2.99-8.06
	c-0.62-0.58-1.63,0.36-1.78,0.95c-0.24,0.95-0.39,1.65-0.55,2.6c-0.19,1.14,1.26,0.86,1.7,0.28c3.58-4.61-3.36-13.53-8.71-11.76
	c-0.59,0.2-1.53,1.15-1.04,1.84c0.87,1.24,1.8,1.69,3.32,1.66c1.43-0.03,1.59-1.37,2.62-1.8c1.14-0.47,1.16-2.55-0.34-1.93
	c-1.04,0.43-2.4,2.36-3.69,0.53c-0.35,0.61-0.7,1.23-1.04,1.84c3.05-1.01,9.91,5.47,7.56,8.5c0.57,0.09,1.14,0.19,1.71,0.28
	c0.15-0.68,0.29-1.36,0.44-2.04c-0.59,0.32-1.19,0.63-1.78,0.95c3.06,2.89-4.08,6.27-3.88,2.54c0.05-0.98,0.33-1.95,0.4-2.94
	c0.1-1.46-1.76-0.63-2.02,0.28c-0.36,1.27-0.67,3.4-2.02,4.02c0.4,0.14,0.8,0.28,1.2,0.42c-0.17-0.5-0.33-1-0.5-1.49
	c-0.16-0.47-0.45-0.61-0.93-0.53c-0.82,0.14-1.64,0.24-2.47,0.3c-0.69,0.04-1.38,0-2.07-0.11c-1.59-0.25-1.49-1.41,0.31-3.46
	c0.61-0.4,1.5-1.97,0.18-2.07c-0.35-0.11-0.7-0.23-1.05-0.34c-0.04,0.5-0.09,1.01-0.13,1.51c1.25-1.46,5.32-3.3,7.21-3.64
	l-0.08-2.03c-1.75,0.72-2.06-0.61-0.8-0.89c0.55-0.12,0.96-0.29,1.48-0.5c0.6-0.25,1.07-1.12,0.78-1.74
	c-0.38-0.79-0.83-1.51-1.16-2.32C206.31,89.51,204.45,91.16,204.88,92.19"/>
<path fill="#FFFFFF" d="M185.57,129.7c-0.34,0.46-0.53,0.93-0.54,1.5c-0.01,1.54,2.07,0.57,2.08-0.56c0-0.19-0.01-0.16,0.04-0.29
	c-0.1,0.19-0.21,0.37-0.31,0.56c0.02-0.03,0.05-0.06,0.07-0.1c0.29-0.4,0.62-1.11,0.13-1.51
	C186.59,128.93,185.86,129.3,185.57,129.7"/>
<path fill="#FFFFFF" d="M181.82,126.1c1.09,0,2.1-2.21,0.71-2.21C181.44,123.88,180.43,126.1,181.82,126.1"/>
<path fill="#FFFFFF" d="M181.07,129.33c1.09,0,2.1-2.21,0.71-2.21C180.69,127.12,179.68,129.33,181.07,129.33"/>
<path fill="#FFFFFF" d="M183.73,120.24c0.55,0,1-0.15,1.45-0.48c0.43-0.32,0.8-1.05,0.52-1.56c-0.3-0.55-0.99-0.31-1.38-0.02
	c0.35-0.26,0.43-0.15,0.12-0.15c-0.61,0-1.16,0.55-1.33,1.1C182.94,119.62,183.12,120.25,183.73,120.24"/>
<path fill="#FFFFFF" d="M186.71,118.92c1.09,0,2.1-2.21,0.71-2.21C186.33,116.7,185.33,118.92,186.71,118.92"/>
<path fill="#FFFFFF" d="M184.06,127.38h1c0.61,0,1.16-0.55,1.33-1.1c0.16-0.49-0.02-1.11-0.63-1.11h-1c-0.61,0-1.16,0.55-1.33,1.1
	C183.28,126.77,183.45,127.38,184.06,127.38"/>
<path fill="#FFFFFF" d="M189.96,131.33c0.41-0.12,0.81-0.13,1.23-0.13c0.61,0,1.16-0.55,1.34-1.1c0.16-0.49-0.02-1.11-0.63-1.11
	c-0.59,0-1.18,0.03-1.75,0.2c-0.58,0.17-1.08,0.74-1.13,1.35C188.97,131.09,189.41,131.49,189.96,131.33"/>
<path fill="#FFFFFF" d="M193.95,131c0.3-0.08,0.53-0.22,0.76-0.42l-0.52,0.28c0.03-0.01,0.06-0.02,0.1-0.03
	c0.59-0.15,1.08-0.75,1.13-1.35c0.05-0.57-0.4-0.94-0.94-0.79c-0.3,0.08-0.53,0.22-0.76,0.42c0.18-0.09,0.35-0.18,0.52-0.28
	c-0.03,0.01-0.07,0.02-0.1,0.03c-0.59,0.16-1.08,0.75-1.13,1.35C192.95,130.77,193.4,131.14,193.95,131"/>
<path fill="#FFFFFF" d="M203.81,128.71c1.09,0,2.1-2.21,0.71-2.21C203.43,126.5,202.42,128.71,203.81,128.71"/>
<path fill="#FFFFFF" d="M169.02,140.6c0-1.29-0.01-2.58,0.2-3.86c0.04-0.23,0.28-1.45,0.68-1.38c0.61,0.11,1.2,1.24,1.6,1.66
	c0.78,0.84,2.41-1.04,1.6-1.91c-0.61-0.66-1.41-2.11-2.51-1.98c-1.1,0.14-1.97,0.75-2.56,1.68c-1.18,1.87-1.09,4.22-1.08,6.34
	C166.95,142.7,169.02,141.73,169.02,140.6"/>
<path fill="#FFFFFF" d="M176.95,139.03c0.78-0.44,1.36-1.14,1.44-2.05c0.06-0.67-0.28-1.32-0.66-1.85c-0.76-1.04-2.55,0.65-1.9,1.54
	c0.17,0.23,0.31,0.45,0.43,0.71c0.01,0.02,0.06,0.28,0.06,0.15c-0.02,0.2,0,0.14,0.07-0.17c0.06-0.1,0.14-0.19,0.22-0.27
	c-0.51,0.28-0.96,0.89-0.86,1.5C175.85,139.19,176.5,139.28,176.95,139.03"/>
<path fill="#FFFFFF" d="M166.99,133.81c0.37-0.43,0.63-0.94,0.7-1.5c0.08-0.57-0.42-0.93-0.94-0.79c-0.61,0.16-1.05,0.74-1.13,1.35
	c0.02-0.08,0.05-0.15,0.08-0.23c-0.08,0.15-0.09,0.16-0.04,0.06c-0.33,0.38-0.6,1.13-0.13,1.51
	C165.99,134.6,166.66,134.18,166.99,133.81"/>
<path fill="#FFFFFF" d="M165.63,131.53c1.09,0,2.1-2.21,0.71-2.21C165.25,129.32,164.25,131.53,165.63,131.53"/>
<path fill="#FFFFFF" d="M180.03,118.07c0.18,0.03,0.27,0.23,0.32,0.38c-0.02-0.07-0.03-0.16-0.04-0.23
	c0.02,0.27,0.01,0.01,0.01-0.04c0.01-0.12,0.02-0.23,0.04-0.34c-0.04,0.26,0.01-0.03,0.02-0.08c0.02-0.06,0.04-0.12,0.06-0.17
	c-0.07,0.15-0.07,0.16-0.02,0.04c0.13-0.26-0.18,0.22-0.01,0c-0.12,0.15-0.31,0.28-0.51,0.29c0.62-0.04,1.15-0.52,1.33-1.1
	c0.15-0.46-0.01-1.14-0.63-1.11c-1.19,0.07-1.97,1.14-2.24,2.22c-0.14,0.56-0.42,2.12,0.46,2.28c0.61,0.11,1.16-0.25,1.45-0.78
	C180.49,119.06,180.64,118.18,180.03,118.07"/>
<path fill="#FFFFFF" d="M183.98,115.39c1.71,0.47,3.23-1.21,3.29-2.84c0.02-0.56-0.37-0.94-0.94-0.79
	c-0.56,0.15-1.11,0.75-1.13,1.35c0,0.01-0.05,0.34-0.01,0.16c-0.02,0.07-0.09,0.19,0,0.07c-0.16,0.22-0.01,0.01,0.05-0.03
	c0.09-0.05,0.12,0-0.07-0.05c-0.59-0.16-1.18,0.29-1.45,0.78C183.5,114.44,183.39,115.23,183.98,115.39"/>
<path fill="#FFFFFF" d="M181.8,110.06c0-0.52-0.04-1.08-0.61-1.29c-1.05-0.38-2.38,1.7-1.19,2.14c0.02,0.01,0.05,0.02,0.07,0.03
	c-0.12-0.1-0.24-0.2-0.36-0.3c-0.09-0.13,0.01,0.13,0.01-0.02C179.74,112.16,181.81,111.19,181.8,110.06"/>
<path fill="#FFFFFF" d="M188.96,104.27c0.71,0.24,1.35-0.27,1.7-0.85c0.31-0.51,0.23-1.13,0.01-1.66c-0.25-0.57-1.04-0.3-1.38-0.02
	c-0.45,0.37-0.76,1-0.52,1.56c0.08,0.2-0.19,0.14,0.14-0.4c0.23-0.23,0.46-0.45,0.68-0.68c-0.02,0.01-0.04,0.02-0.05,0.03
	c0.18-0.05,0.35-0.1,0.53-0.14c0.03,0,0.05,0.01,0.08,0.01C189.1,101.77,187.77,103.86,188.96,104.27"/>
<path fill="#FFFFFF" d="M188.23,98.66c-1.89,2.71-4.16,4.69-6.97,6.4c-1.02,0.62-1.05,2.77,0.34,1.93c3.17-1.92,5.83-4.15,7.96-7.21
	C190.43,98.54,189.12,97.38,188.23,98.66"/>
<path fill="#FFFFFF" d="M180.31,107.74v-0.17c0-1.54-2.08-0.57-2.08,0.56v0.17C178.23,109.83,180.31,108.87,180.31,107.74"/>
<path fill="#FFFFFF" d="M172.75,101.66c-0.13,2.09,0.7,3.92,2.23,5.32c0.86,0.79,2.47-1.11,1.6-1.91c-1.14-1.04-1.85-2.4-1.76-3.97
	C174.92,99.57,172.82,100.54,172.75,101.66"/>
<path fill="#FFFFFF" d="M175.62,107.32c1.11-0.69,1.99-1.56,2.68-2.67c0.26-0.42,0.3-1.17-0.26-1.36c-0.59-0.2-1.17,0.32-1.45,0.78
	c-0.32,0.52-0.75,0.97-1.31,1.31c-0.5,0.31-0.97,0.87-0.86,1.5C174.52,107.47,175.18,107.6,175.62,107.32"/>
<path fill="#FFFFFF" d="M178.89,95.85c-0.01,2.28,0.08,4.47,2.6,5.27c1.06,0.34,2.39-1.76,1.19-2.14c-1.79-0.57-1.72-2.08-1.71-3.69
	C180.97,93.75,178.9,94.72,178.89,95.85"/>
<path fill="#FFFFFF" d="M177.08,89.64c0.17,0.78,0.72,1.26,1.53,1.09c0.8-0.16,1.46-0.82,1.84-1.51c0.24-0.43,0.32-1.16-0.26-1.35
	c-0.58-0.19-1.19,0.31-1.45,0.78c-0.16,0.29,0.17-0.19-0.05,0.06c0.03-0.04,0.31-0.22,0.09-0.1c0.09-0.05,0.17-0.06,0.27-0.04
	c0.12,0.03,0.13,0.24,0.07-0.01C178.84,87.19,176.85,88.57,177.08,89.64"/>
<path fill="#FFFFFF" d="M180.33,88.5c1.01,0.49,2.09,0.81,3.15,1.16c1.06,0.35,2.39-1.74,1.19-2.14c-1.06-0.35-2.14-0.67-3.15-1.16
	C180.53,85.88,179.18,87.94,180.33,88.5"/>
<path fill="#FFFFFF" d="M181.64,94.02c0.72,1.09,2,1.48,3.25,1.5c1.09,0.02,2.1-2.19,0.71-2.21c-0.72-0.01-1.63-0.17-2.06-0.83
	C182.83,91.4,181.03,93.09,181.64,94.02"/>
<path fill="#FFFFFF" d="M186.95,93.13c0-0.65,0.01-1.3-0.18-1.92c-0.41-1.35-2.37,0.04-2.06,1.08c0.14,0.46,0.16,0.92,0.16,1.4
	C184.87,95.23,186.95,94.26,186.95,93.13"/>
<path fill="#FFFFFF" d="M182.57,87.88c1.22,0.03,2.38,0.43,3.58,0.63c0.62,0.1,1.15-0.24,1.45-0.78c0.2-0.35,0.35-1.25-0.26-1.35
	c-1.36-0.22-2.67-0.67-4.06-0.7C182.18,85.64,181.17,87.84,182.57,87.88"/>
<path fill="#FFFFFF" d="M192.01,86.55c-0.01,0.31,0.09-0.19,0.2-0.29c0.17-0.14,0.33-0.27,0.49-0.4c-0.24,0.16,0.44-0.04,0.04-0.02
	c-0.62,0.02-1.15,0.54-1.33,1.1c-0.15,0.48,0.02,1.13,0.62,1.11c1.14-0.04,2.02-0.9,2.06-2.05c0.02-0.56-0.37-0.94-0.94-0.79
	C192.58,85.35,192.03,85.95,192.01,86.55"/>
<path fill="#FFFFFF" d="M185.81,83.69c1.85,0.75,4.11,0.19,4.73-1.9c0.15-0.49-0.02-1.11-0.63-1.11c-0.61,0-1.17,0.55-1.33,1.1
	c-0.1,0.32-0.03,0.06,0.03,0.01c0.14-0.11-0.2,0.02-0.24,0.02c-0.48,0.04-0.93-0.09-1.36-0.26
	C185.97,81.13,184.63,83.21,185.81,83.69"/>
<path fill="#FFFFFF" d="M188.39,78.41c-0.2,0.23-0.38,0.53-0.5,0.67c-0.33,0.37-0.59,1.13-0.13,1.51c0.47,0.39,1.14-0.02,1.47-0.39
	c0.2-0.23,0.38-0.53,0.5-0.66c0.33-0.38,0.59-1.13,0.13-1.51C189.39,77.62,188.72,78.03,188.39,78.41"/>
<path fill="#FFFFFF" d="M188.97,75.56c0.67-0.11,1.15-0.73,1.45-1.28c0.23-0.43,0.32-1.16-0.26-1.35c-0.58-0.19-1.19,0.31-1.45,0.78
	c-0.21,0.34-0.06,0.25,0.45-0.29C188.04,73.6,187.45,75.81,188.97,75.56"/>
<path fill="#FFFFFF" d="M191.08,73.45c0.45,0.43-0.5,1.49-0.72,1.91c-0.23,0.43-0.33,1.16,0.26,1.36c0.57,0.19,1.2-0.31,1.45-0.78
	c0.69-1.33,2.01-3.06,0.61-4.39C191.84,70.74,190.23,72.63,191.08,73.45"/>
<path fill="#FFFFFF" d="M193.61,79.87c0.66,0.35,1.2,0.93,1.78,1.38c0.94,0.72,2.53-1.2,1.6-1.91c-0.73-0.56-1.38-1.17-2.2-1.61
	c-0.53-0.28-1.23,0.38-1.45,0.78C193.07,79.01,193.08,79.59,193.61,79.87"/>
<path fill="#FFFFFF" d="M195.33,82.24c-0.03,0.53,0.1-0.17,0.34-0.25c-0.21,0.08-0.45,0.05-0.67,0.04c-0.52-0.02-1.03-0.17-1.53-0.3
	c-0.79-0.22-1.55-0.53-2.31-0.84c-1.03-0.42-2.37,1.66-1.19,2.14c2.19,0.88,7.21,2.65,7.44-1.35
	C197.49,80.14,195.39,81.12,195.33,82.24"/>
<path fill="#FFFFFF" d="M184.77,78.76c0.34,0.25,0.58,0.72,0.59,1.15c0.05,1.54,2.11,0.57,2.08-0.56c-0.03-0.92-0.29-1.92-1.07-2.5
	C185.43,76.15,183.84,78.06,184.77,78.76"/>
<path fill="#FFFFFF" d="M185.94,83.24c0.95,0.78,1.96,1.48,2.99,2.16c0.99,0.66,2.56-1.27,1.6-1.91c-1.02-0.68-2.04-1.37-2.99-2.16
	C186.63,80.59,185.03,82.5,185.94,83.24"/>
<path fill="#FFFFFF" d="M240.23,122.57c1.72,2.12,4.29,5.12,7.33,4.62c1.11-0.18,1.71-2.39,0.19-2.14
	c-2.09,0.34-4.48-2.61-5.62-4.02C241.32,120.03,239.54,121.72,240.23,122.57"/>
<path fill="#FFFFFF" d="M247.89,122.53c2.9-0.79,5.9-0.8,8.87-1.13c1.07-0.12,2.06-2.36,0.71-2.21c-3.14,0.34-6.32,0.37-9.39,1.2
	C247.01,120.68,246.41,122.93,247.89,122.53"/>
<path fill="#FFFFFF" d="M257.41,115.93c0.02,4.2-1.99,7.99-3.43,11.84c-0.57,1.53,1.54,1.13,1.96,0.01c1.51-4.03,3.56-8,3.54-12.4
	C259.48,113.83,257.4,114.8,257.41,115.93"/>
<path fill="#FFFFFF" d="M256.92,118.19c0.2,3.84,5.11,6.32,8.4,7c1.09,0.23,2.39-1.89,1.19-2.14c-2.82-0.58-7.36-2.61-7.53-5.95
	C258.9,115.75,256.86,117.12,256.92,118.19"/>
<path fill="#FFFFFF" d="M269.38,125.12c0.65-1.54,0.97-3.18,1.33-4.81c0.35-1.59-1.7-1.21-1.96,0c-0.36,1.63-0.67,3.27-1.33,4.81
	c-0.21,0.49,0.06,1.11,0.63,1.11C268.7,126.22,269.15,125.66,269.38,125.12"/>
<path fill="#FFFFFF" d="M268.28,113.27c0.3,0.77,0.47,1.58,0.83,2.32c0.54,1.13,2.38-0.53,1.9-1.54c-0.35-0.74-0.53-1.56-0.83-2.32
	c-0.22-0.58-1.05-0.29-1.38-0.02C268.34,112.08,268.06,112.69,268.28,113.27"/>
<path fill="#FFFFFF" d="M268.5,128.23c1.28-1.07,2.93-1.54,4.39-2.32c0.51-0.27,0.96-0.9,0.86-1.5c-0.11-0.59-0.75-0.67-1.2-0.42
	c-1.65,0.89-3.44,1.45-4.91,2.66c-0.41,0.34-0.81,1.03-0.52,1.56C267.41,128.74,268.13,128.54,268.5,128.23"/>
<path fill="#FFFFFF" d="M277.03,125.22c-0.31,0.4-0.52,0.82-0.54,1.34c-0.03,1.54,2.05,0.57,2.08-0.56
	c-0.01-0.13-0.01-0.17,0.01-0.09c-0.1,0.19-0.21,0.37-0.31,0.56l0.1-0.12c0.3-0.39,0.61-1.11,0.13-1.51
	C278.04,124.44,277.33,124.82,277.03,125.22"/>
<path fill="#FFFFFF" d="M278.9,126.16V126c0-1.54-2.08-0.57-2.08,0.56v0.17C276.83,128.26,278.9,127.29,278.9,126.16"/>
<path fill="#FFFFFF" d="M273.12,107.43c0.28,0.15,0.54,0.34,0.83,0.5c0.53,0.28,1.23-0.38,1.45-0.78c0.28-0.5,0.27-1.07-0.26-1.35
	c-0.28-0.15-0.54-0.34-0.83-0.5c-0.53-0.28-1.23,0.39-1.45,0.78C272.58,106.57,272.59,107.14,273.12,107.43"/>
<path fill="#FFFFFF" d="M281.51,99.99c-0.35,0.45-0.66,0.94-0.97,1.42c-0.1,0.15-0.25,0.34-0.42,0.55
	c-0.26,0.31,0.14-0.11-0.15,0.15c-0.18,0.15-0.09,0.06-0.02,0.03c-0.58,0.22-1.08,0.7-1.13,1.35c-0.05,0.52,0.4,1,0.94,0.79
	c0.77-0.29,1.36-0.78,1.87-1.42c0.25-0.31,0.48-0.66,0.7-1c0.22-0.34,0.35-0.54,0.51-0.75c0.3-0.39,0.61-1.11,0.13-1.51
	C282.52,99.21,281.82,99.6,281.51,99.99"/>
<path fill="#FFFFFF" d="M284.07,102.41c-1.61,1.38-3.47,2.49-5.15,3.79c-1.34,1.04-3.42,2.59-3.25,4.51
	c0.12,1.36,2.15-0.01,2.06-1.08c0.01,0.08,0.8-0.78,1.02-0.99c0.69-0.62,1.43-1.17,2.17-1.72c1.33-0.98,2.76-1.85,4.01-2.93
	C285.97,103.11,285.32,101.34,284.07,102.41"/>
<path fill="#FFFFFF" d="M278.83,109.89c-1.33,2.56-3.71,5.53-2.25,8.53c0.55,1.12,2.39-0.54,1.9-1.54c-1.04-2.13,1.13-4.6,2.07-6.41
	C281.3,109.01,279.47,108.67,278.83,109.89"/>
<path fill="#FFFFFF" d="M281.49,114.37c-0.89,1.78-3.65,7.33,0.17,7.53c1.09,0.06,2.11-2.14,0.71-2.21
	c-1.6-0.08,0.46-4.01,0.83-4.75C283.94,113.48,282.11,113.14,281.49,114.37"/>
<path fill="#FFFFFF" d="M281.64,119.91c-0.03,1.56-0.56,3.36,0.57,4.66c0.74,0.86,2.38-1.01,1.6-1.91
	c-0.64-0.73-0.11-2.44-0.09-3.31C283.75,117.82,281.66,118.79,281.64,119.91"/>
<path fill="#FFFFFF" d="M284.79,123.23c-0.44,2.4-1.16,5.7,1.44,7.1c0.96,0.52,2.32-1.53,1.19-2.14c-1.75-0.94-0.83-4.02-0.55-5.52
	c0.1-0.57-0.44-0.93-0.94-0.79C285.3,122.05,284.91,122.63,284.79,123.23"/>
<path fill="#FFFFFF" d="M288.28,128.21c-0.03,1.79-1.09,6.65,1.6,7.1c1.09,0.18,2.38-1.94,1.19-2.14c-1.62-0.27-0.74-4.38-0.72-5.52
	C290.38,126.12,288.3,127.09,288.28,128.21"/>
<path fill="#FFFFFF" d="M292.43,133.03c0.01,2.12,0.63,6.93,3.86,5c0.5-0.3,0.97-0.88,0.86-1.51c-0.1-0.58-0.75-0.69-1.2-0.42
	c-1.24,0.74-1.44-2.93-1.45-3.63C294.5,130.93,292.42,131.9,292.43,133.03"/>
<path fill="#FFFFFF" d="M295.67,136.84c-0.1-0.28,0.02,0.16,0.04,0.24c0.04,0.21,0.07,0.42,0.1,0.62c0.08,0.49,0.18,0.95,0.35,1.42
	c0.15,0.42,0.46,0.78,0.89,0.92c0.66,0.22,1.31-0.18,1.83-0.52c0.44-0.29,0.79-1.06,0.52-1.56c-0.31-0.57-0.98-0.29-1.38-0.02
	c0.09-0.07,0.08-0.07-0.03,0c0.21-0.11-0.13-0.04,0.13-0.04c0.09,0,0.19,0.1,0.05-0.03c0.15,0.15-0.05-0.11-0.08-0.19
	c-0.11-0.25,0.05,0.17-0.03-0.1c-0.03-0.09-0.05-0.18-0.07-0.27c-0.15-0.67-0.18-1.35-0.41-1.99c-0.22-0.58-1.06-0.29-1.38-0.02
	C295.72,135.66,295.46,136.26,295.67,136.84"/>
<path fill="#FFFFFF" d="M298.99,137.34c0.54,1.04,1.23,2.08,2.24,2.71c1.23,0.77,2.5,0.4,3.62-0.37c1.15-0.78,0.48-2.5-0.86-1.59
	c-1.32,0.9-2.63-1.39-3.1-2.3C300.32,134.68,298.48,136.34,298.99,137.34"/>
<path fill="#FFFFFF" d="M302.31,133.35c0.84,1.07,1.44,2.28,2.68,2.95c0.42,0.23,1.02-0.22,1.26-0.51c0.28-0.34,0.49-0.71,0.69-1.1
	c0.22-0.43,0.33-1.16-0.26-1.35c-0.56-0.19-1.21,0.3-1.45,0.78c-0.09,0.18-0.19,0.41-0.31,0.56c0.42-0.17,0.84-0.34,1.26-0.51
	c-0.88-0.48-1.37-1.6-1.97-2.36c-0.37-0.48-0.94-0.38-1.38-0.02C302.47,132.08,301.94,132.88,302.31,133.35"/>
<path fill="#FFFFFF" d="M305.05,130.14c0.45,1.46,1.4,3.02,2.92,3.52c0.67,0.22,1.4-0.47,1.58-1.07c0.21-0.72,0.25-1.48,0.05-2.2
	c-0.39-1.35-2.36,0.03-2.06,1.08c0.11,0.37,0.16,0.74,0.05,1.12c0.53-0.35,1.05-0.71,1.57-1.07c-1.02-0.33-1.75-1.48-2.05-2.46
	C306.7,127.71,304.73,129.09,305.05,130.14"/>
<path fill="#FFFFFF" d="M304.95,125.57c0.82,0.7,1.07,1.88,1.99,2.49c0.71,0.46,1.57-0.27,1.78-0.95c0.16-0.53,0.22-1.05,0.22-1.61
	c0-1.54-2.07-0.57-2.08,0.56c0,0.36,0,0.7-0.11,1.05c0.59-0.32,1.19-0.63,1.78-0.95c-0.89-0.59-1.17-1.79-1.99-2.49
	C305.66,122.9,304.06,124.81,304.95,125.57"/>
<path fill="#FFFFFF" d="M304.8,118.42c0.35,0.89,0.6,1.86,1.16,2.66c0.59,0.84,1.71-0.06,1.93-0.77c0.16-0.53,0.22-1.05,0.22-1.61
	c0-1.54-2.07-0.57-2.08,0.56c0,0.36,0,0.7-0.11,1.05c0.64-0.26,1.29-0.51,1.93-0.77c-0.56-0.79-0.81-1.76-1.16-2.66
	c-0.23-0.58-1.05-0.29-1.38-0.02C304.86,117.23,304.58,117.84,304.8,118.42"/>
<path fill="#FFFFFF" d="M302.64,111.61c0.76,1.11,1.22,2.37,2.12,3.39c0.41,0.46,1.21,1.02,1.83,0.62c0.77-0.51,1.27-1.13,1.36-2.07
	c0.06-0.57-0.4-0.94-0.94-0.79c-0.59,0.16-1.07,0.75-1.13,1.35c0.12-0.14,0.25-0.28,0.37-0.41c0.25-0.03,0.51-0.07,0.77-0.1
	c-1.27-0.55-1.74-2.46-2.47-3.52C303.82,109.01,302.02,110.7,302.64,111.61"/>
<path fill="#FFFFFF" d="M302.31,106.46c0.91,1.13,1.87,2.26,3.18,2.95c0.63,0.33,1.42-0.56,1.57-1.07c0.34-1.14,0.24-2.21,0.05-3.36
	c-0.1-0.6-0.75-0.66-1.2-0.42c-0.52,0.27-0.96,0.9-0.86,1.5c0.13,0.77,0.28,1.52,0.05,2.28c0.53-0.35,1.05-0.71,1.58-1.07
	c-0.97-0.52-1.79-1.52-2.47-2.36c-0.38-0.47-0.94-0.38-1.38-0.02C302.48,105.18,301.94,106,302.31,106.46"/>
<path fill="#FFFFFF" d="M302.31,99.16c0.36,1.02,1.15,2.07,1.99,2.73c1.44,1.13,2.89-0.05,3.42-1.51c0.18-0.49-0.04-1.11-0.63-1.11
	c-0.63,0-1.13,0.56-1.33,1.1c-0.09,0.26,0.05-0.03,0.26-0.16c0.18-0.11,0.33-0.01,0.06-0.12c-0.22-0.09-0.54-0.43-0.74-0.65
	c-0.47-0.51-0.89-1.18-1.13-1.83c-0.21-0.59-1.06-0.28-1.38-0.02C302.35,97.98,302.1,98.57,302.31,99.16"/>
<path fill="#FFFFFF" d="M302.73,94.45c0.19,0.65,0.6,1.36,1.21,1.7c1.18,0.66,2.18-0.36,2.62-1.41c0.21-0.49-0.06-1.11-0.63-1.11
	c-0.65,0-1.1,0.56-1.33,1.1c0.06-0.28,0.26-0.46,0.62-0.55c0.29,0.03,0.36,0.02,0.19-0.03c0.07,0.05,0.06,0.05-0.03-0.02
	c-0.08-0.06-0.16-0.13-0.23-0.2c-0.08-0.08-0.15-0.18-0.23-0.32c-0.04-0.06-0.2-0.46-0.14-0.26
	C304.39,92.02,302.43,93.4,302.73,94.45"/>
<path fill="#FFFFFF" d="M302.78,95.73c-1.28,3.03-2.68,6.01-4.03,9.01c-0.66,1.48,1.15,1.84,1.71,0.57
	c1.43-3.19,2.91-6.36,4.27-9.58C305.37,94.24,303.24,94.64,302.78,95.73"/>
<path fill="#FFFFFF" d="M294.36,102.58c-2.11,1.69-3.29,4.39-4.03,6.93c-0.74,2.54,0.55,4.38,2.71,5.55
	c0.96,0.52,2.32-1.52,1.19-2.14c-1.87-1.02-2.31-2.33-1.65-4.34c0.52-1.59,1.32-3.36,2.65-4.43
	C296.3,103.31,295.65,101.55,294.36,102.58"/>
<path fill="#FFFFFF" d="M293.15,115.48c-0.77,2.2-2.84,6.33,0.39,7.54c1.04,0.39,2.38-1.69,1.19-2.14c-1.98-0.75-0.06-4.11,0.39-5.4
	C295.65,113.95,293.55,114.35,293.15,115.48"/>
<path fill="#FFFFFF" d="M299.62,119.47c-0.96,2.83-2.46,6.14-5.8,6.53c-1.06,0.12-2.05,2.37-0.71,2.21
	c4.68-0.54,7.08-4.65,8.47-8.74C302.11,117.93,300.01,118.33,299.62,119.47"/>
<path fill="#FFFFFF" d="M297.75,125.82c0.63,2.12,0.01,3.7-1.16,5.48c-0.27,0.41-0.29,1.17,0.26,1.36c0.6,0.2,1.16-0.33,1.45-0.78
	c1.44-2.21,2.28-4.52,1.5-7.13C299.4,123.39,297.44,124.77,297.75,125.82"/>
<path fill="#FFFFFF" d="M299.73,128.88v1.16c0,1.54,2.08,0.57,2.08-0.56v-1.16C301.81,126.78,299.73,127.75,299.73,128.88"/>
<path fill="#FFFFFF" d="M290.86,111.61c0.73,1.49,1.88,5.43,4.18,4.78c0.58-0.17,1.08-0.74,1.13-1.35c0.05-0.56-0.39-0.95-0.94-0.79
	c-0.33,0.09-1.13-1.4-1.31-1.74c-0.43-0.79-0.76-1.63-1.15-2.44C292.21,108.94,290.37,110.61,290.86,111.61"/>
<path fill="#FFFFFF" d="M292.19,104.31c0.78,1.18,1.55,2.37,2.42,3.49c0.75,0.96,1.67,2.12,2.91,2.45c0.74,0.2,1.32-0.46,1.57-1.07
	c0.12-0.28,0.22-0.55,0.33-0.83c0.21-0.48-0.06-1.11-0.63-1.11c-0.65,0-1.1,0.56-1.33,1.1c-0.12,0.28-0.22,0.56-0.33,0.83
	c0.53-0.36,1.05-0.71,1.58-1.07c-1.09-0.29-1.92-1.48-2.57-2.33c-0.74-0.97-1.39-2-2.06-3.02
	C293.38,101.7,291.57,103.38,292.19,104.31"/>
<path fill="#FFFFFF" d="M295.34,101.98c0.83,1.66,1.66,3.51,3.34,4.45c0.5,0.28,1.26-0.38,1.45-0.78c0.29-0.6,0.52-1.16,0.34-1.82
	c-0.37-1.36-2.34,0.03-2.06,1.08c0,0.06,0,0.11,0.01,0.17c0.48-0.26,0.97-0.52,1.45-0.78c-1.31-0.73-2-2.58-2.63-3.85
	C296.68,99.32,294.84,100.98,295.34,101.98"/>
<path fill="#FFFFFF" d="M294.51,96.67c0.63,1.67,1.62,4.89,3.67,5.28c1.09,0.21,2.39-1.91,1.19-2.14c-0.87-0.16-1.35-1.17-1.74-1.87
	c-0.49-0.9-0.87-1.86-1.23-2.82C295.98,93.99,294.12,95.63,294.51,96.67"/>
<path fill="#FFFFFF" d="M306.1,143.04c-0.85,3.79,5.11,3.02,7.21,2.18c2.4-0.96,3.8-2.43,4.78-4.79c0.65-1.57,0.92-3.33,1.37-4.96
	c0.4-1.42,1.98-4.65,3.4-5.41c1.07-0.57,1.1-2.7-0.35-1.93c-2.78,1.48-4.48,5.45-5.28,8.31c-0.88,3.11-1.26,5.88-4.77,6.98
	c-0.52,0.17-4.61,0.57-4.4-0.38C308.42,141.45,306.37,141.84,306.1,143.04"/>
<path fill="#FFFFFF" d="M317.58,143.48c1.03,2.61,3.45,0.79,4.57-0.73c2.01-2.72,1.31-5.34,1.24-8.45c-0.04-1.54-2.1-0.57-2.07,0.56
	c0.03,1.48,0.31,2.95,0.29,4.42c-0.02,0.72-1.41,4.46-2.12,2.66C319.03,140.8,317.18,142.44,317.58,143.48"/>
<path fill="#FFFFFF" d="M329.89,132.12c-0.48,0.39-1.1,1.22-1.8,1.05c-0.6-0.14-1.17,0.27-1.45,0.78c-0.21,0.39-0.34,1.21,0.26,1.35
	c1.6,0.38,2.7-0.67,3.85-1.6c0.42-0.34,0.81-1.03,0.52-1.57S330.26,131.81,329.89,132.12"/>
<path fill="#FFFFFF" d="M326.69,134.87c2.37,1.75,4.76,2.69,7.61,1.51c1.14-0.47,1.16-2.56-0.34-1.93
	c-2.09,0.87-4.01-0.26-5.67-1.48C327.34,132.26,325.76,134.18,326.69,134.87"/>
<path fill="#FFFFFF" d="M333.6,127.98c0.25,1.4,0.98,3.4,2.59,3.68c0.61,0.11,1.15-0.25,1.45-0.78c0.2-0.36,0.35-1.25-0.26-1.35
	c-1.12-0.2-1.55-1.65-1.72-2.63C335.42,125.53,333.41,126.91,333.6,127.98"/>
<path fill="#FFFFFF" d="M333.82,155.49c-0.81,2.56,2.07,5.75,4.64,4.12c0.5-0.32,0.97-0.87,0.86-1.51c-0.1-0.56-0.76-0.71-1.2-0.42
	c-1.05,0.67-2.67-1.13-2.33-2.19c0.16-0.49-0.02-1.11-0.63-1.11C334.54,154.38,333.99,154.93,333.82,155.49"/>
<path fill="#FFFFFF" d="M336.01,152.11c0.57,1.15,1.08,2.32,1.72,3.43c0.49,0.86,1.39,2.45,2.62,2.02c0.58-0.2,1.08-0.71,1.13-1.35
	c0.05-0.53-0.4-0.98-0.94-0.79c0.25-0.09-0.17-0.31-0.34-0.54c-0.34-0.46-0.62-0.97-0.9-1.47c-0.5-0.92-0.93-1.89-1.39-2.83
	C337.35,149.45,335.51,151.11,336.01,152.11"/>
<path fill="#FFFFFF" d="M338.58,149.23c0.42,1.28,0.78,2.56,1.72,3.57c0.42,0.44,1.18-0.06,1.47-0.39c0.93-1.1,0.72-2.66,0.7-3.99
	c-0.01-1.54-2.08-0.57-2.08,0.56c0,0.49,0.03,0.97,0.03,1.46c0,0.27-0.02,0.53-0.04,0.79c-0.02,0.22-0.13,0.29,0.06,0.07
	c0.49-0.13,0.98-0.26,1.47-0.39c-0.7-0.74-0.96-1.8-1.27-2.74C340.2,146.81,338.24,148.19,338.58,149.23"/>
<path fill="#FFFFFF" d="M340.47,147.65c1.27,1.37,2.34,3.25,3.15,4.93c0.6,1.24,1.13,2.75,2.33,3.54c0.99,0.65,2.56-1.28,1.6-1.91
	c-1.3-0.85-1.64-2.63-2.44-3.89c-1-1.56-1.76-3.2-3.03-4.58C341.29,144.9,339.67,146.78,340.47,147.65"/>
<path fill="#FFFFFF" d="M342.07,142.25c0.56,1.68,1.15,3.41,2.39,4.73c0.59,0.62,1.64-0.4,1.78-0.95c0.37-1.5-0.37-2.72-0.86-4.09
	c-0.21-0.59-1.06-0.28-1.38-0.02c-0.48,0.39-0.73,0.98-0.52,1.56c0.25,0.71,0.99,1.77,0.8,2.55c0.59-0.32,1.19-0.63,1.78-0.95
	c-0.99-1.05-1.48-2.56-1.93-3.9C343.68,139.84,341.72,141.22,342.07,142.25"/>
<path fill="#FFFFFF" d="M336.03,135.31c2.22-0.75,3.38-3.03,3.33-5.29c-0.05-2.68-2.1-4.96-3.93-6.69c-0.85-0.8-2.46,1.1-1.6,1.91
	c0.97,0.92,1.84,1.89,2.56,3.01c0.74,1.16,1.75,4.27-0.17,4.92C335.18,133.53,334.59,135.8,336.03,135.31"/>
<path fill="#FFFFFF" d="M335.78,123.96c0.33-1.36,0.12-2.6-0.36-3.9c-0.49-1.36-1.56-3.11-0.97-4.56c0.61-1.51-1.51-1.1-1.96,0
	c-1.23,3.03,2.03,5.56,1.33,8.47C333.44,125.54,335.49,125.15,335.78,123.96"/>
<path fill="#FFFFFF" d="M322.71,112.29c2.83,2.52,6.81,3.74,9.44,0.27c0.92-1.22-0.4-2.36-1.33-1.12c-1.81,2.39-4.78,0.47-6.5-1.06
	C323.44,109.6,321.83,111.51,322.71,112.29"/>
<path fill="#FFFFFF" d="M328.72,106.56c0.27-0.24,0.35-0.08-0.06-0.18c-0.33-0.08-0.64-0.24-0.95-0.39
	c-0.82-0.39-1.58-0.91-2.32-1.42c-1.12-0.77-2.21-1.6-3.24-2.48c-0.9-0.76-2.5,1.15-1.6,1.91c1.47,1.25,3.04,2.41,4.68,3.42
	c1.2,0.74,3.05,1.9,4.35,0.74C330.6,107.24,329.95,105.46,328.72,106.56"/>
<path fill="#FFFFFF" d="M317.88,97.06c-0.93,3.33,2.84,7.26,6.2,6.72c1.11-0.18,1.71-2.39,0.19-2.14c-1.88,0.31-4.96-2.66-4.42-4.57
	C320.28,95.49,318.21,95.88,317.88,97.06"/>
<path fill="#FFFFFF" d="M310.94,95.67c1.44,3.15,9.14-2.29,10.27-3.97c0.92-1.37-0.96-1.69-1.71-0.57c-0.42,0.62-6.14,4.15-6.66,3
	C312.32,93,310.48,94.66,310.94,95.67"/>
<path fill="#FFFFFF" d="M312.23,92.97c1.01-1.16,3.39-1.44,4.8-2.02c1.9-0.78,3.74-1.67,5.5-2.72c1.03-0.61,1.06-2.76-0.34-1.93
	c-2.2,1.31-4.71,2.72-7.22,3.34c-1.59,0.39-2.97,0.95-4.07,2.21C309.88,93.02,311.22,94.13,312.23,92.97"/>
<path fill="#FFFFFF" d="M327.16,92.19c-4.95,5.5,5.55,8.08,9.28,8.64c1.08,0.16,2.1-2,0.71-2.21c-1.79-0.27-11.31-2.35-8.65-5.31
	C329.53,92.16,328.18,91.05,327.16,92.19"/>
<path fill="#FFFFFF" d="M335.66,98.02c4.08,3.78,1,11.14,2.67,15.92c0.4,1.14,2.26-0.5,1.9-1.54c-1.77-5.07,1.55-12.09-2.97-16.28
	C336.4,95.32,334.79,97.21,335.66,98.02"/>
<path fill="#FFFFFF" d="M342.23,109.79c-0.03,2.37-0.29,4.72-0.23,7.09c0.04,1.49-0.01,4.14,1.67,4.82
	c1.03,0.42,2.37-1.66,1.19-2.14c-1.19-0.48-0.81-4.27-0.79-5.2c0.03-1.71,0.21-3.42,0.24-5.13
	C344.32,107.69,342.24,108.66,342.23,109.79"/>
<path fill="#FFFFFF" d="M347.01,118.23c-0.29,0.08-0.53,0.22-0.76,0.42c0.17-0.09,0.35-0.18,0.52-0.28
	c-0.03,0.01-0.07,0.02-0.1,0.03c-0.58,0.15-1.08,0.75-1.13,1.35c-0.05,0.57,0.39,0.94,0.94,0.79c0.3-0.08,0.53-0.22,0.76-0.42
	c-0.17,0.09-0.35,0.18-0.53,0.28c0.03-0.01,0.07-0.02,0.1-0.03c0.58-0.15,1.08-0.75,1.13-1.35
	C348,118.46,347.56,118.09,347.01,118.23"/>
<path fill="#FFFFFF" d="M348.56,369.49c-25.76-22.98-14.51-52.62-2.61-83.99c11.96-31.52,25.52-67.25,4.68-102.92l0.86-0.5
	c21.08,36.08,7.43,72.05-4.61,103.78c-12.29,32.4-22.91,60.37,2.34,82.9L348.56,369.49z"/>
<path fill="#FFFFFF" d="M365.33,346.07c-19.92-14.85-13.19-37.09-5.4-62.83c9.22-30.47,19.67-65-6.68-100.6l0.4-0.3
	c26.5,35.8,16.01,70.46,6.76,101.04c-7.74,25.57-14.42,47.65,5.22,62.29L365.33,346.07z"/>
<path d="M60.04,429.56c-0.87,0.99-1.3,2.16-0.17,3.45c3.89,4.52,4.52,12.99,0.7,20.38c-3.58,7.36-11.75,14.09-21.06,14.06
	c-9.57,0.46-16.68-9.66-14.24-19.46c1.45-9.59,10.36-18.79,19.4-16.04c9.16,3.07,7.36,16.13,1.31,21.32c-2.94,2.73-6.8,5.01-10,4.2
	c-3.28-0.73-4.78-4.38-4.07-7.32c1.24-6.19,7.08-9.09,10.37-8.43c3.52,0.55,4.4,2.87,4.55,2.46c0.01,0.08-0.84-2.76-5.03-3.44
	c-3.86-0.65-10.62,2.54-11.83,10.02c-0.66,3.52,1.71,8.52,6.51,9.04c4.6,0.45,8.75-2.13,12-5.4c3.27-3.35,5.64-8.07,5.61-13.38
	c0.1-5.18-3.39-11.15-9.24-12.48c-12.08-2.96-21.9,8.55-23.54,19.31c-1.03,5.55-0.16,11.78,3.38,16.57
	c3.47,4.83,9.44,7.48,15.07,7.43c23.67-0.81,34.96-29.01,23.86-41.81C62.24,428.44,60.9,428.56,60.04,429.56"/>
<path d="M372.99,303.03c0.75,0.54,1.19,1.29,0.53,2.42c-2.21,3.77-3.56,9.48-1.3,14.89c1.9,5.41,7.65,10.01,14.29,10.06
	c6.43,0.35,13.86-4,15.73-10.36c2.14-6.62-3.47-13.88-10.13-13.48c-6.63-0.02-11.73,6.41-11.31,12.08c0.22,6.08,8.03,7.44,10.82,3.9
	c3.22-3.16,2.33-7.58,0.81-9.37c-1.59-1.91-3.09-2.22-2.89-2.38c0,0.04,1.83,0.1,3.64,2.33c1.88,1.95,2.79,7.19-1.17,10.77
	c-3.38,4.1-13.19,1.99-13.06-5.84c-0.25-6.65,5.67-13.93,13.73-13.85c8.14-0.3,14.84,8.92,12.11,16.96
	c-2.62,7.97-10.9,12.54-18.57,12.3c-7.85-0.06-14.78-5.51-17.08-11.99c-2.7-6.46-1.15-13.23,1.48-17.72
	C371.32,302.56,372.25,302.48,372.99,303.03"/>
<path d="M367.3,218.72c1,0.14,1.81,0.64,1.75,2.07c-0.22,4.78,1.46,10.98,6.46,15.04c4.65,4.24,12.58,5.73,19.08,2.44
	c6.45-2.87,11.51-10.89,10.03-18c-1.36-7.5-10.55-11.58-16.82-7.86c-6.48,3.31-8.19,12.16-4.81,17.43
	c3.37,5.72,11.65,3.1,12.56-1.75c1.51-4.71-1.68-8.51-4.08-9.45c-2.53-1.02-4.14-0.57-4.02-0.83c0.02,0.03,1.83-0.82,4.73,0.38
	c2.81,0.91,6.47,5.49,4.44,11c-1.25,5.69-11.76,8.61-15.73,1.03c-3.72-6.3-1.64-16.45,6.27-20.4c7.74-4.35,18.94,1.01,20.51,10.22
	c1.59,9.1-4.24,17.74-11.81,21.36c-7.67,3.87-17.12,2.16-22.72-2.89c-5.96-4.83-8.02-12.17-7.76-17.89
	C365.44,219.12,366.29,218.57,367.3,218.72"/>
<path fill="#FFFFFF" d="M235.28,284.46c-5.72-0.25-7.05-3.98-7.05-3.98c2.32,1.25,8.88,2.66,15.69,1.16
	C243.82,283.83,240.1,284.67,235.28,284.46"/>
<path fill="#FFFFFF" d="M234.79,264.42v-2.12l-0.87-0.06c0,0,0.31,1.56,0,2.43c-2.74-0.06-9.77-0.44-9.77-0.44v-2.55
	c2.86-0.81,18.18,0,18.18,0s2.18,1.87,2.05,2.99C242.63,264.73,234.79,264.42,234.79,264.42"/>
<path d="M158.24,152.98c-0.77,0.07-1.38,0.34-1.3,1.14c0.63,5.34,0.82,13.09,4.32,20.76c3.2,7.66,9.73,14.53,16.83,18.38
	c6.65,4.12,14.03,7.24,15.06,12.22c0.41,4.87-2.7,7.52-2.06,7.57c-0.32-0.09,3.46-2.29,3.02-8.11c-1.38-5.96-8.97-9.17-15.25-13.49
	c-6.77-4.04-12.39-10.44-15.29-17.7c-3.08-7.08-3.21-14.49-3.83-19.89C159.67,153.16,159.01,152.91,158.24,152.98"/>
<path d="M162.85,147.29c-0.44-0.15-0.86-0.1-1.09,0.6c-3.69,8.91-6.71,27.97,2.71,40.4c3.76,6.02,9.03,11.28,8.02,15.95
	c-1.7,4.24-5.51,4.83-5,5.12c-0.29-0.27,3.83-0.36,5.71-5.28c0.89-5.4-4.43-10.62-7.89-16.66c-8.64-12.16-5.55-30.14-1.94-38.99
	C163.57,147.84,163.29,147.45,162.85,147.29"/>
<path fill="#FFFFFF" d="M82.7,443.07c-1.38,0.35-2.38,1.27-1.62,3.56c5.48,15.05,18.15,31.66,26.46,52.13
	c3.98,10.04,6.83,21.75,2.78,31.88c-4.22,10.03-13.58,17.73-23.7,20.91c-20.82,6.52-41.73-0.24-53.87-7.3
	c-12.7-7.25-16.92-15.79-17.15-15.11c-0.14,0.13,4,9.42,16.99,17.31c12.47,7.6,33.69,15.05,56.02,8.29
	c10.89-3.52,21.11-11.62,25.94-23.09c4.58-11.89,1.29-24.53-2.66-34.95c-8.38-21.11-20.95-38.05-25.87-51.79
	C85.44,443.18,84.12,442.71,82.7,443.07"/>
<path fill="#FFFFFF" d="M87.83,202.06c-0.96-0.34-1.7,0.11-2.05,1.95c-1.6,12.67,7.15,29.68,13.2,44.58
	c6.2,14.14,12.65,33.65,0.78,45.46c-11.33,10.98-27.11,13.24-37.19,15.28c-10.48,1.75-17.04,2.18-16.75,2.54
	c0.17,0.11,6.97,0.15,17.68-1.23c10.33-1.77,26.25-3.38,38.63-15.22c6.08-6.05,8.27-15.6,7.08-24.13
	c-1.02-8.64-4.06-16.72-7.11-24.26c-6.02-14.86-14.46-27.32-12.97-46.47C89.34,199.35,88.84,202.43,87.83,202.06"/>
<path fill="#FFFFFF" d="M73.35,215.84c-0.42-0.16-1.77,1.16-2.11,2.73c-1.71,11.11,6.95,24.97,12.95,38.3
	c3.04,6.7,6.09,13.99,6.1,21.56c0.25,7.68-4.68,14.41-10.91,18.08c-12.65,7.44-26.52,9.01-35.99,10.46
	c-9.64,1.22-15.62,1.55-15.37,1.71c0.16,0.03,6.34-0.07,16.1-1.15c9.61-1.32,23.47-2.68,36.41-10.32
	c6.37-3.76,11.55-11.11,11.19-19.19c-0.08-7.94-3.18-15.29-6.18-22.02c-5.99-13.29-13.81-26.36-12.16-36.16
	C73.62,218.67,73.82,216.02,73.35,215.84"/>
</svg>
