<svg xmlns="http://www.w3.org/2000/svg" xmlns:xlink="http://www.w3.org/1999/xlink" version="1.1" id="Layer_1" x="0px" y="0px" width="100.0px" height="100px" viewBox="0 0 2834.65 2834.65" enable-background="new 0 0 2834.65 2834.65" xml:space="preserve">
<g>
    <path d="M1277.106,1017.253c-4.868,10.336-10.752,20.195-17.036,29.776c-3.131,4.804-6.445,9.489-9.814,14.142   c-3.399,4.631-6.975,9.132-10.608,13.594l-5.572,6.596l-5.75,6.452c-3.917,4.228-7.882,8.423-12.01,12.465   c-2.019,2.07-4.147,4.024-6.253,6.005c-2.097,1.993-4.217,3.963-6.413,5.849c-4.296,3.888-8.838,7.488-13.349,11.14   c-4.631,3.491-9.215,7.069-14.04,10.316c-4.721,3.404-9.692,6.434-14.594,9.593c-5.048,2.905-10.008,6.001-15.226,8.631   c-5.124,2.816-10.417,5.3-15.723,7.781c-2.624,1.309-5.374,2.321-8.063,3.488c-2.714,1.101-5.384,2.336-8.166,3.263   c-5.52,1.978-11.027,4.027-16.679,5.631c-5.592,1.821-11.298,3.218-17.007,4.639c-5.698,1.471-11.51,2.401-17.274,3.622   l7.682-8.623l0.056,31.387l0.027,15.685c-0.042,5.23,0.096,10.45,0.255,15.668l0.666,31.295l0.689,15.575l0.351,7.776l0.495,7.618   l-2.776-6.83l26.982,30.36l2.885,3.246l0.08,4.757c0.372,22.105,0.799,44.211,0.963,66.317l0.68,66.316l0.68,66.316l0.411,66.317   l0.372,132.633l-0.284,132.633l-0.346,66.317l-0.669,66.316l-0.684,66.316c-0.216,22.105-0.429,44.211-0.866,66.317l-1.133,66.316   c-0.422,22.106-0.656,44.211-1.233,66.316l-1.573,66.316c-0.504,22.105-1.035,44.211-1.757,66.316l-0.09-1.104   c0.534,4.334,0.766,8.27,0.863,12.43c0.075,4.115-0.021,8.254-0.447,12.452c-0.415,4.191-1.151,8.453-2.562,12.766   c-1.481,4.242-3.645,8.891-8.087,12.378c-2.173,1.688-4.865,2.974-7.555,3.414c0.305-0.081-1.023,0.232-0.828,0.219   c0.107-0.01,0.207-0.056,0.28-0.127c0,0-0.079,0.06-0.124,0.075c-0.228,0.121-0.604,0.453-0.985,0.943   c-1.59,2.032-2.972,5.521-4.01,8.958c-2.104,7.026-3.369,14.655-4.407,22.264c-2.041,15.287-2.97,30.849-3.843,46.403   l-1.108,23.378l-0.536,11.705c-0.286,3.89-0.286,7.837-1.108,11.668c0.447-3.865,0.069-7.784-0.021-11.676l-0.486-11.698   l-0.891-23.428c-0.26-7.819-0.347-15.647-0.32-23.491c0.036-7.845,0.207-15.704,0.68-23.6c0.505-7.903,1.189-15.812,2.969-23.91   c0.971-4.062,1.998-8.157,4.88-12.555c0.754-1.092,1.7-2.228,3.042-3.263c0.357-0.26,0.668-0.498,1.08-0.754   c0.512-0.285,1.05-0.544,1.596-0.767c1.088-0.394,0.727-0.278,1.968-0.621c1.162-0.26,2.043-0.835,2.894-1.573   c1.698-1.459,3.021-4.208,3.866-7.336c0.822-3.166,1.25-6.668,1.378-10.254c0.147-3.583,0.014-7.261-0.277-10.936   c-0.296-3.63-0.776-7.473-1.406-10.853l-0.065-0.35l-0.025-0.756c-0.723-22.105-1.254-44.211-1.758-66.316l-1.573-66.316   c-0.577-22.105-0.811-44.211-1.233-66.316l-1.133-66.316c-0.437-22.106-0.65-44.211-0.866-66.317l-0.684-66.316l-0.669-66.316   l-0.346-66.317l-0.284-132.633l0.372-132.633l0.411-66.317l0.68-66.316l0.68-66.316c0.164-22.106,0.591-44.211,0.963-66.317   l2.965,8.003l-25.936-31.258l-2.663-3.209l-0.114-3.622l-0.254-8.123l-0.091-7.976l-0.163-15.931l0.406-31.738   c0.089-5.288,0.198-10.574,0.488-15.847l0.718-15.825l1.436-31.633l0.336-7.408l7.347-1.216c5.437-0.9,10.945-1.501,16.35-2.634   c5.416-1.083,10.848-2.135,16.182-3.605c5.395-1.252,10.664-2.944,15.964-4.562c2.672-0.747,5.234-1.81,7.868-2.68   c2.603-0.952,5.272-1.746,7.824-2.839c5.16-2.048,10.33-4.099,15.358-6.485c5.119-2.199,10.011-4.87,15.01-7.352   c4.856-2.739,9.802-5.351,14.524-8.347c4.823-2.837,9.433-6.015,14.106-9.113c4.568-3.247,9.137-6.505,13.569-9.96   c2.261-1.671,4.453-3.431,6.626-5.215c2.183-1.774,4.392-3.522,6.499-5.391c4.302-3.639,8.462-7.445,12.59-11.297l6.081-5.899   l5.929-6.064l5.782-6.215l5.643-6.353c3.7-4.292,7.36-8.632,10.853-13.11c3.533-4.449,6.902-9.029,10.175-13.684   C1271.014,1026.893,1274.22,1022.177,1277.106,1017.253z"/>
    <path d="M1270.073,796.066c0,0,0.293,2.019,0.696,5.509c0.387,3.491,0.945,8.458,1.421,14.378   c0.589,5.924,1.055,12.803,1.616,20.144c0.52,7.32,1.075,15.128,1.63,22.935c0.301,3.89,0.603,7.779,0.899,11.608   c0.415,3.808,0.544,7.606,0.964,11.23c0.415,3.622,0.548,7.192,0.995,10.507c0.413,3.323,0.583,6.533,0.946,9.452   c0.421,2.903,0.693,5.61,0.931,8.023c0.271,2.403,0.622,4.473,0.823,6.218c0.449,3.473,0.591,5.533,0.591,5.533   s-1.06-1.719-2.715-4.857c-0.788-1.579-1.918-3.465-2.831-5.747c-0.951-2.27-2.022-4.848-3.064-7.709   c-1.069-2.853-1.981-6.002-2.97-9.347c-1.032-3.34-1.706-6.926-2.537-10.631c-0.439-1.85-0.75-3.747-1.046-5.669   c-0.32-1.92-0.619-3.868-0.892-5.835c-0.585-3.93-0.86-7.947-1.264-11.956c-0.215-4.017-0.463-8.034-0.51-11.991   c-0.021-3.955-0.058-7.849,0.145-11.61c0.266-7.525,0.988-14.525,1.888-20.49c0.845-5.969,1.909-10.902,2.769-14.333   C1269.399,797.995,1270.073,796.066,1270.073,796.066z"/>
    <path d="M1837.164,2437.849c-1.242-23.848-11.358-33.072-18.504-36.622l-2.125-18.728l4.155-970.807l2.712-104.44l12.456-19.27   l0.079-2.322c0.115-3.33,2.758-81.942-0.026-114.242c-2.33-27.042-2.63-30.517-11.279-38.889c-0.978-0.948-2.117-2.049-3.455-3.467   l-1.255-1.332l-1.694-0.689c-152-61.797-199.841-121.653-206.624-141.836c4.442-23.449-3.011-38.073-8.881-45.511   c5.461-12.531,11.645-42.053,18.305-111.596c8.1-84.59-9.844-142.754-24.263-189.491c-5.682-18.42-10.591-34.328-13.255-49.521   c-8.018-45.71-4.439-82.947-3.091-96.965c0.226-2.358,0.372-3.876,0.423-4.999c0.52-1.217,2.179-3.84,3.307-5.625   c4.583-7.246,10.228-16.175,5.416-23.716c-2.579-10.044-6.596-78.024-8.687-124.457c0.45-5.944,3.958-55.027-0.067-91.138   l-0.159-1.428l-0.625-1.295c-11.301-23.398-57.228-35.262-136.505-35.262c-12.702,0-22.308,0.353-26.197,0.522   c-3.888-0.17-13.495-0.522-26.197-0.522c-79.279,0-125.206,11.864-136.507,35.262l-0.625,1.295l-0.159,1.428   c-4.025,36.11-0.517,85.194-0.067,91.138c-2.091,46.433-6.106,114.412-8.687,124.457c-4.813,7.541,0.834,16.469,5.416,23.716   c1.128,1.785,2.787,4.408,3.307,5.625c0.051,1.123,0.197,2.641,0.423,4.999c1.349,14.018,4.929,51.255-3.089,96.965   c-2.664,15.191-7.573,31.099-13.255,49.518c-14.419,46.737-32.363,104.903-24.263,189.494   c6.66,69.543,12.845,99.064,18.304,111.596c-5.868,7.438-13.323,22.062-8.88,45.511c-6.783,20.183-54.624,80.039-206.624,141.836   l-1.694,0.689l-1.255,1.331c-1.338,1.42-2.477,2.521-3.455,3.467c-8.649,8.374-8.948,11.849-11.279,38.892   c-2.784,32.299-0.141,110.911-0.026,114.241l0.079,2.322l12.456,19.27l2.708,104.257l4.158,970.99l-2.124,18.728   c-7.146,3.551-17.262,12.774-18.504,36.622c-0.815,15.673-6.733,153.807,36.034,177.628c22.199,12.363,46.284,14.956,62.578,14.956   c8.662,0,14.892-0.741,16.961-1.026l294.477,0.99v0.052l9.773-0.019l9.804,0.011v-0.044l294.477-0.99   c2.069,0.284,8.3,1.026,16.961,1.026c0.001,0,0,0,0.003,0c16.294,0,40.377-2.596,62.575-14.956   C1843.897,2591.659,1837.979,2453.522,1837.164,2437.849z M1792.953,2600.794c-19.049,10.607-40.096,12.834-54.4,12.834   c-0.001,0-0.003,0-0.003,0c-9.043,0-14.997-0.916-15.042-0.922l-0.674-0.109l-304.153,1.023l-1.186,0.006l-304.999-1.026   l-1.343,0.104c-0.06,0.008-6.012,0.925-15.056,0.925c-14.304,0-35.353-2.227-54.401-12.834   c-24.04-13.389-30.51-102.833-27.427-162.07c1.023-19.664,8.946-22.582,10.308-22.938l6.662,0.123l3.684-32.497l-4.164-972.158   l-2.834-109.159l-12.492-19.326c-0.421-13.434-2.391-81.614,0.048-109.909c2.091-24.257,2.091-24.257,6.225-28.259   c0.801-0.777,1.696-1.644,2.701-2.668c194.833-79.569,214.686-151.318,215.437-154.342l0.47-1.893l-0.41-1.905   c-5.573-25.864,7.315-36.084,7.758-36.428l37.492-26.766l-38.744,10.272c-2.884-7.875-9.147-32.189-16.06-104.379   c-2.403-25.095-2.394-47.806-0.836-68.563c90.59-14.654,233.051-27.665,375.602-0.29c1.58,20.835,1.597,43.643-0.818,68.853   c-6.915,72.195-13.177,96.508-16.061,104.38l-38.706-10.252l37.345,26.664c0.551,0.423,13.441,10.643,7.868,36.507l-0.41,1.905   l0.47,1.893c0.751,3.024,20.604,74.774,215.437,154.342c1.004,1.024,1.9,1.891,2.701,2.668c4.133,4.003,4.133,4.003,6.225,28.259   c2.437,28.289,0.469,96.474,0.048,109.909l-12.492,19.326l-2.838,109.342l-4.159,971.483l-0.003,0.492l2.829,24.94l0.086,7.53   l7.429-0.099c1.353,0.353,9.287,3.26,10.31,22.94C1823.463,2497.961,1816.992,2587.405,1792.953,2600.794z"/>
    <polygon points="1021.391,1386.349 1022.359,1423.665 1026.339,2353.171 1808.311,2353.171 1812.291,1423.665 1813.259,1386.349     "/>
</g>
</svg>
