<?xml version="1.0" encoding="utf-8"?>
<!-- Generator: Adobe Illustrator 15.0.0, SVG Export Plug-In  -->
<!DOCTYPE svg PUBLIC "-//W3C//DTD SVG 1.1 Tiny//EN" "http://www.w3.org/Graphics/SVG/1.1/DTD/svg11-tiny.dtd" [
	<!ENTITY ns_flows "http://ns.adobe.com/Flows/1.0/">
]>
<svg version="1.1" baseProfile="tiny"
	 xmlns="http://www.w3.org/2000/svg" xmlns:xlink="http://www.w3.org/1999/xlink" xmlns:a="http://ns.adobe.com/AdobeSVGViewerExtensions/3.0/"
	 x="0px" y="0px" width="180px" height="160px" overflow="visible" xml:space="preserve">
<defs>
</defs>
<path fill="#EB2D7C" d="M80.81,0.52c0.05-0.17,0.2-0.89,0.55-0.27c4.57,7.98,9.6,15.56,14.19,23.41c2.01,3.45,4.14,6.91,6.12,10.29
	c4.2,7.15,8.78,13.92,12.67,21.26c0.38,0.72,1.55,0.83,2.38,0.78c3.19-0.16,5.89-0.93,9.45-0.88c0.14,0,0.99-0.55,1.27-0.55h6.38
	c0.29-0.54,0.88-0.58,1.31-0.59l3.24-0.02l2.83-0.61l3.84-0.02l7.8-1.15l5.25-0.05c0.14,0,0.57-0.6,0.71-0.6l3.94-0.01
	c3.32-0.6,7.31-0.68,11-1.29c-4.51,4.29-8.12,9.15-12.37,13.34c-8.9,8.81-18.32,17.11-27.22,25.89c-0.22,0.22-0.9,0.89-0.94,1.08
	c-0.14,0.59-0.02,1.13,0.33,1.67L155.53,126c2.05,3.31,4.18,6.63,6.26,9.89c2.51,3.93,4.58,8.27,6.82,12.45
	c0.28,0.53-0.45,0.33-0.65,0.28l-7.99-1.84c-0.11-0.02-0.5-0.52-0.67-0.57c-0.28-0.08-1.25,0.08-1.52-0.03
	c-4.41-1.8-9.2-3.27-13.69-4.85c-0.71-2.34-1.79-4.18-2.75-5.77c-0.29-0.49-0.3-1.57-0.43-1.86c-1.23-2.58-2.63-5.01-4.05-6.89
	c-0.29-1.86-0.88-3.21-1.98-4.94c-0.16-1.23-0.65-3.2-2.14-4.21c-0.42-1.19-0.77-2.71-1.91-3.8c-0.26-2.48-1.56-4.76-2.42-5.7
	c-1.9-4.32-3.44-8.09-5.66-11.33c-0.3-0.44-0.35-1.46-0.87-2.2c-1.38-1.97-1.8-4.58-3.15-6.6c-0.73-1.08-1.16-2.26-1.83-3.66
	c-3.62-7.51-7.37-15.38-11.04-22.85c-2-4.08-3.9-8.24-5.92-12.37c-3.39-6.94-6.71-14.03-10.39-20.66c-0.13-0.24-1.09-0.63-1.36-0.63
	l-3.53,0.04l-5.25,1.31c-0.43,0.1-0.77,0.85-0.89,1.49L59.17,140.45c-0.97,1.8-2.27,3.02-3.88,3.73c0.32,0.64-0.04,1-0.44,0.8
	c-1.18,0.89-2.47,1.5-3.49,2.47c-0.47-0.2-0.65,0.37-0.94,0.55c-1.3,0.82-2.21,2.1-3.3,3.05c-1.77,0.4-3.38,1.23-3.92,2.35
	c-0.21,0.43-1.06,0.22-0.51-0.05c0-0.55-0.3-2.25,0-2.62c0.48-0.62,0.81-1.67,0.4-2.57c-0.3-0.67,0.69-1.74,0.81-2.57
	c0.07-0.44-0.09-1.8,0-2.23c0.03-0.16,0.51-0.57,0.52-0.61c0.3-2.74,0.87-5.14,0.69-8.19c0.55-0.3,0.47-0.87,0.55-1.32
	c0.76-4.17,1.49-8.39,1.86-12.91c0.02-0.18,0.52-0.59,0.52-0.6l2.79-16.6c0.14-0.93-0.76-1.54-1.42-2.06
	c-1.59-1.26-4.47-0.96-5.8-2.5c-0.42-0.49-1.03-0.23-1.57-0.27c0.14-0.5,0-1.03-0.48-1.2c-0.71-0.26-1.22-1.03-1.67-1.06
	c-1.68-0.12-2.64-1.13-3.96-1.5c-0.76-1.71-2.8-2.53-4.76-3.19c-1.31-1.04-2.64-1.72-4-2.75c-0.57-0.43-1.78-0.2-2.34-0.78
	c-0.6-0.62-1.25-1.38-1.98-1.65l-4.81-1.92c-1.81-0.97-3.7-1.96-5.39-3c-1.21,0.17-2.05-0.35-2.75-0.83c0.06-0.27,0-0.63-0.3-0.79
	c-3.15-1.7-6.46-3.18-9.59-5.21c1.06-0.33,2.41-0.18,3-1.02c0.19-0.27,1.09,0.33,1.75,0.21c3.85-0.72,7.44-1.58,11.79-2.19
	c-0.09,0.01,0.75-0.4,1.05-0.45c0.43-0.07,1.79,0.02,1.88-0.01c2.55-0.93,5.04-0.92,7.23-1.77c0.29-0.11,1.36,0.08,1.59-0.07
	c1.02-0.64,2.58-0.64,4.07-0.85l6.3-1.49c2.98,0.14,5.59-0.97,8.23-1.41c3.19-0.53,6.61-1.22,9.92-1.77
	c1.15-0.19,2.38-1.16,2.28-2.57c0.43-1.26,1.03-2.57,1.31-4.21c0.62-0.73,1.03-1.93,1.13-3.4c2.42-6.5,5.04-12.98,7.3-19.96
	c0.03-0.07,0.49-0.47,0.54-0.63c0.07-0.21,0-0.89,0-0.88c0.93-1.21,0.83-3.06,1.82-4.14c0.06-0.07-0.08-1,0-1.2
	c0.17-0.45,1.04-1.56,1.21-2.02c0.08-0.21-0.04-1.12,0.01-1.18c1.08-1.26,0.9-3.13,1.75-4.25l1.41-4.69
	C77.32,9.95,79.31,5.31,80.81,0.52z M106.27,106.13c1.08,0.14,2.16,0.53,2.78,1.09l4.09,8.81c0.04,0.09,0.5,0.48,0.55,0.64
	c0.07,0.2,0.02,0.88-0.01,0.8c1.17,3.03,2.86,5.4,3.65,8.46c0.7,0.98,1.45,1.91,1.74,3.11c0.37,1.5,1.3,2.69,1.39,4.5
	c-0.42-0.15-0.61-0.55-0.9-0.68c-0.22-0.09-1.08,0.13-1.31-0.04c-1.33-0.96-3.26-1.43-5.24-2.39c0.18,0.09-0.54,0.08-0.74-0.02
	c-1.51-0.78-3.44-1.11-5.17-1.76c-2.07,0.12-3.33-1.13-4.43-1.86c-0.43-0.29-1.49-0.12-0.96,0.04c-3.29-1.05-5.42-1.9-7.33-3.08
	c-0.23-0.14-0.95,0.06-1.12,0c-0.17-0.06-0.55-0.55-0.71-0.6c-0.5-0.19-2.12-0.43-2.63-0.61c-0.16-0.06-0.55-0.58-0.7-0.61
	c-0.47-0.09-2.06-0.22-2.63,0.07c-2.3,1.21-4.02,2.92-6.54,4.22c-2.67,2.19-5.55,4.13-8.74,6.05c-0.19-0.68-0.05-2.34-0.08-3.29
	c0-0.25,0.54-1.09,0.59-1.38c0.06-0.31-0.06-1.31,0-1.62c0.06-0.3,0.56-1.12,0.61-1.42c0.08-0.43-0.07-1.79,0-2.22
	c0.05-0.29,0.62-1.15,0.6-1.49c-0.12-1.19,0.02-2.31,0.39-3.28c-0.7-0.29-0.01-0.57,0.22-0.62c-0.18-2.69,0.74-4.28,1.3-6.39
	c0.07-0.24,0.72-0.77,1.03-0.77h5.67c0.14,0,0.55-0.57,0.71-0.6c0.49-0.09,2.03,0.07,2.53,0c0.43-0.06,1.7-0.61,2.12-0.61h3.44
	c0.14,0,0.59-0.62,0.75-0.6c2.54,0.39,4.85-0.51,6.95-0.54c2.38-0.03,3.99-1.1,6.65-0.72C105.05,106.76,105.95,106.08,106.27,106.13
	z M83.04,53.35c0.11-0.13,0.48-0.49,0.58-0.59c0.41,0.38,0.68,0.93,0.98,1.55l18.71,39.52c0.16,0.32,0.11,0.79-0.23,1.1
	c-0.4,0.37-0.78,0.78-1.34,0.85l-6.76,0.65c-0.3,0.04-1.13,0.57-1.42,0.61c-0.51,0.08-2.11-0.07-2.63,0c-0.43,0.05-1.7,0.6-2.12,0.6
	h-4.25c-0.42,0-1.7,0.57-2.12,0.56c-2.25-0.07-3.95,0.4-5.8,0.04c-0.71-0.14-1.48-0.89-1.2-1.59c0.07-0.19,0.63-0.59,0.63-0.73
	v-2.73c0-0.28,0.55-1.12,0.6-1.42c0.07-0.43-0.07-1.79,0-2.22c0.05-0.3,0.56-1.12,0.61-1.42c0.07-0.43-0.08-1.79,0-2.22
	c0.05-0.29,0.59-1.13,0.61-1.44l0.61-5.86c0.03-0.28,0.55-1.11,0.6-1.4c0.08-0.48-0.09-1.96,0-2.43c0.03-0.16,0.53-0.57,0.54-0.63
	l0.75-6.44c0-0.06,0.53-0.48,0.54-0.64l0.6-6.07c0.04-0.28,0.55-1.11,0.6-1.4c0.07-0.43-0.08-1.79,0-2.23
	c0.05-0.29,0.56-1.12,0.61-1.41c0.07-0.43-0.03-1.79,0.02-2.22C82.77,53.67,82.97,53.42,83.04,53.35z"/>
</svg>
