<?xml version="1.0" encoding="utf-8"?>
<!-- Generator: Adobe Illustrator 15.0.1, SVG Export Plug-In  -->
<!DOCTYPE svg PUBLIC "-//W3C//DTD SVG 1.1 Tiny//EN" "http://www.w3.org/Graphics/SVG/1.1/DTD/svg11-tiny.dtd" [
	<!ENTITY ns_flows "http://ns.adobe.com/Flows/1.0/">
]>
<svg version="1.1" baseProfile="tiny"
	 xmlns="http://www.w3.org/2000/svg" xmlns:xlink="http://www.w3.org/1999/xlink" xmlns:a="http://ns.adobe.com/AdobeSVGViewerExtensions/3.0/"
	 x="0px" y="0px" width="462px" height="434px" viewBox="-0.81 -0.39 462 434" overflow="visible" xml:space="preserve">
<defs>
</defs>
<path fill="#F15A24" d="M392.95,112.74c2.8,0.93,3.38,5.53,5.53,6.73c1.17-0.96-1.03-3.66,0.46-4.38c2.27-1.09-0.41,5.6,1.5,3.69
	c0.84-0.84,1.9-5.02,2.9-5.8c1.27-0.98,3.44,1.09,2.11-0.73c-2.35-3.21-10.47-3.13-15.12,0.13
	C389.14,113.21,391.52,112.26,392.95,112.74"/>
<path fill="#FFFF00" d="M369.99,86.43c-0.68-0.23-1.36-0.42-2.04-0.58c0.26,0.42,0.48,0.93,0.68,1.49c0.93,0.26,1.63,1.5,1.63,3
	c0,1.09-0.38,2.05-0.94,2.59c-0.22,3.76-1.69,6.67-3.47,6.67c-1.94,0-3.5-3.42-3.5-7.64c0-2.88,0.73-5.39,1.81-6.69
	c-5.19-0.39-9.94,0.85-12.86,2.36c-0.02,0.01-0.04,0.02-0.06,0.03c-0.61,0.32-1.14,0.66-1.57,0.99c-0.02,0.02-0.05,0.04-0.07,0.05
	c-0.2,0.16-0.38,0.31-0.53,0.47c-0.03,0.02-0.05,0.05-0.07,0.08c-0.15,0.16-0.28,0.31-0.38,0.46c0,0,0,0,0,0.01
	c-0.1,0.15-0.16,0.29-0.21,0.43c-0.01,0.03-0.02,0.05-0.03,0.08c-0.04,0.13-0.05,0.26-0.04,0.39c0,0.02,0.01,0.05,0.01,0.07
	c0.02,0.13,0.07,0.25,0.15,0.36c8.19,11.17,23.05,8.12,34.78,15.6C375.4,97.26,379.48,89.6,369.99,86.43"/>
<path fill="#FFFF00" d="M417.87,88.28c-0.02-0.04-0.05-0.09-0.09-0.16c0-0.01-0.01-0.02-0.02-0.02c-0.04-0.07-0.09-0.15-0.14-0.24
	c0,0,0-0.01-0.01-0.01c-0.06-0.09-0.13-0.2-0.21-0.31c-0.01-0.01-0.02-0.03-0.03-0.04c-0.16-0.24-0.36-0.51-0.59-0.79l-0.02-0.03
	c-0.12-0.14-0.24-0.29-0.38-0.44c-0.01-0.01-0.02-0.02-0.02-0.03c-0.27-0.3-0.58-0.6-0.92-0.89c-0.01-0.01-0.03-0.02-0.04-0.03
	c-0.35-0.29-0.73-0.57-1.14-0.8c0,0-0.01,0-0.01-0.01c-0.2-0.11-0.41-0.22-0.63-0.31c-0.02-0.01-0.03-0.02-0.05-0.02
	c-0.44-0.18-0.9-0.31-1.39-0.38c-0.02,0-0.04-0.01-0.06-0.01c-0.24-0.03-0.5-0.04-0.75-0.04c-0.02,0-0.03,0-0.05,0
	c-0.26,0.01-0.53,0.04-0.81,0.09h0c0.25,0.26,0.49,0.56,0.72,0.9c0,0,0,0,0,0c0.93-0.27,2.02,0.67,2.44,2.11
	c0.34,1.17,0.13,2.29-0.46,2.82c0.5,2.74,0.01,5.03-1.3,5.43c-1.55,0.48-3.66-1.88-4.71-5.27c-0.43-1.38-0.61-2.72-0.57-3.85
	c0,0,0,0,0,0c-3.98,3.68-2.07,8.6-2.38,14.92c0,0.06,0,0.12-0.01,0.18c-0.02,0.37-0.05,0.74-0.09,1.12
	c-0.01,0.1-0.01,0.21-0.03,0.31c-0.05,0.48-0.12,0.97-0.21,1.47c0.1,0.38,0.33,0.05,0.4-0.13c2.89-7.27,13.61-3.66,13.61-15.47
	c0,0-0.01-0.02-0.03-0.05C417.88,88.29,417.87,88.29,417.87,88.28"/>
<path fill="#FFFFFF" d="M413.67,86.81c-0.42-1.44-1.51-2.38-2.44-2.1c0,0,0,0,0,0c-0.93,0.28-1.34,1.66-0.92,3.09
	c0.42,1.44,1.52,2.38,2.45,2.11c0.17-0.05,0.32-0.15,0.46-0.27C413.79,89.1,414.01,87.97,413.67,86.81"/>
<path fill="#FFFFFF" d="M370.26,90.34c0-1.5-0.7-2.74-1.63-3c-0.11-0.03-0.23-0.05-0.35-0.05c-1.09,0-1.98,1.37-1.98,3.05
	c0,1.69,0.89,3.06,1.98,3.06c0.38,0,0.74-0.18,1.04-0.47C369.89,92.39,370.26,91.44,370.26,90.34"/>
<path d="M119.09,381.23c0.72,4.3-6.57,2.15-14.45,3.18c-10.1,1.33-20.77,7.48-27.86-9.87c-3.61-8.83-22.08-32.15-23.4-40.11
	c-1.32-7.96-7.32-8.28-9.23-17.19c-1.91-8.91,7-23.4,11.78-29.13c4.77-5.73,11.3-25.95,12.89-33.9h2.55c0,0,10.7,21.57,4.97,30.32
	c2.78,1.16,4.58-0.4,8.72-2.94c1.43,5.89,4.78,25.87,4.78,25.87c-3.58,4.06-10.93,16-9.31,20.77c1.62,4.78,6.45,29.61,13.85,33.91
	c7.4,4.3,6.09-0.81,12.77,1.19C107.15,363.33,118.37,376.94,119.09,381.23 M427.77,128.78c1.91,2.86,5.41,6.53,5.41,6.53
	s-6.37-0.96-8.28,2.39c-1.91,3.34-7.41,4.3-6.22,9.07c-0.31,4.49-0.28,9.64-0.29,15.36c-0.01,1.79,5.03,14.37,5,16.16
	c-0.03,1.79-5.11-7.22-5.17-5.44c-0.12,3.46-0.32,7.08-0.67,10.83c-0.59,6.36-1.04,36.1-2.29,42.36c-1.25,6.26-3.41-7.25-5.17-1.11
	c-1.89,6.59-4.13,9.54-6.57,15.63c-2.36,5.89-11.27,30.6-14.44,36.1c-3.17,5.5-1.04-8.38-4.58-3.11
	c-7.51,11.2-15.67,21.82-25.35,26.98c-14.33,7.64-33.67,14.33-33.67,14.33c-0.96,7.32-1.19,19.9,1.03,32
	c2.23,12.1-1.59,23.88,0.64,31.84s1.75,17.84,5.25,22.84c9.19,13.12,9.47,3.21,17.74,3.85s14.25,8.56,15.21,15.25
	c0.96,6.68-6.68,7.4-10.51,7.4c0.64-2.86-4.78-11.14-7-8.28c1.59,3.25,3.9,5.73,3.9,8.28c0,2.55,0.56,4.14-6.13,3.82
	s-9.14,1.27-18.46,1.27c-18.46,0-13.37-12.97-16.71-20.14c-3.34-7.16-19.58-30.56-20.77-33.67s-4.54-13.13-4.54-13.13
	s-1.19,2.15-2.15,1.43c-0.24-7.88-9.79-26.03-11.22-32.23c-1.43-6.21-12.18-23.64-20.29-32.23c-11.46,4.3-25.07-0.24-25.07-0.24
	c3.82-3.34,0.39-4.51,0.39-4.51s-22.22,5.74-27,5.18c4.32-3.01,3.25-4.98,3.25-4.98s-13.41-8.1-35.38,1.45
	c-7.25,9.71-28.33,29.61-32.79,35.02c-4.46,5.41-5.09,7.96-2.23,11.14c2.87,3.18,16.87,27.7,20.69,28.65
	c3.82,0.96,17.33-2.63,18.46,11.46c1.05,13.11-9.93,13.11-9.87,10.5c6.05-5.41-4.14-13.69-4.14-13.69s-4.22-1.55-3.82,0.95
	c6.37,2.23,7.28,8.68,5.69,12.18c-1.59,3.5-5.37,1.19-14.92,2.15c-9.55,0.96-11.94-7.16-17.19-12.1
	c-5.25-4.93-21.97-32.31-26.27-37.57c-4.3-5.25-11.46-5.73-8.12-16.24c3.34-10.5-6.68-56.35-6.68-56.35s0,2.87-6.69,6.21
	c3.34-7.16-6.69-31.52-6.69-31.52s-5.73,2.39-8.12,0c3.82-7.16-3.82-22.44-3.82-22.44s-2.39,1.91-5.25,2.87
	c-2.39-7.16,0-25.79,0-25.79s-0.48,3.34-3.34,3.82c-3.82-11.94,3.34-27.22,3.34-27.22s-2.87-0.48-5.25,1.91
	c0-6.21,4.78-17.19,10.51-28.65c0.48-15.76,5.25-65.1,3.98-76.88c-1.27-11.78-9.63-48.96-28.57-41.55
	c-7.32,2.87-8.04,12.26-8.99,17.35c-0.96,5.09,1.67,13.77-2.47,18.23c-0.72-1.55-3.58-2.33-3.58-2.33s-0.6,2.45-3.23,6.75
	c-0.82-1.82-4.06-2.98-4.06-2.98L8.5,75.61l-1.63-4.42L3.4,68.29l-1.66-5.66c0,0-2.92-9.18-1.21-15.99
	C8.77,13.9,22.03,8.44,22.03,8.44s2.23-1.11-2.23-2.71C22.03,3.82,34.92,4.3,34.92,4.3S34.49,0.04,31.9,0
	c22.44,0,47.91,10.66,61.28,46.48c11.65,31.22,11.46,67.33,17.19,83.98c6.37-1.18,27.38,0,27.38,0s-6.37-2-8.28-3.91
	c11.46-1.91,29.93-1.27,29.93-1.27s-4.46-0.64-5.1-2.55c15.28-1.91,42.66,2.55,53.48,6.9c10.82,4.35,35.66,9.02,35.66,9.02
	s-1.28-3.18-4.46-5.73h17.83l-2.55-2.86c12.1-1.59,18.46,1.91,39.48,0l3.82-7h-2.23l5.69-9.53l-3.35,0.06l5.97-8.48l-4.78-0.48
	l6.8-10.03l-1.43-2.11c0,0,2.87-1.27,7.32-9.87c-13.05-17.83-6.05-46.16-6.05-46.16l-3.5-1.91l9.55-0.64c0,0-0.64-1.27-2.87-1.91
	c13.05-2.23,24.83,9.23,36.93,17.51c8.12-6.37,22.76-5.73,22.76-5.73l-5.07-6.47c0,0,5.71,1.46,8.58,5.28
	c0.64-0.95,5.33-5.09,5.33-5.09s-1.25,3.19-1.03,5.65c5.09,1.27,9.23,2.23,16.87,5.41c6.81-10.19,25.15-19.74,36.61-21.65
	c1.27,1.91,5.51,0.27,5.51,0.27l-1.69,3.23l1.53,0.96l-1.21,2.55c0,0-3.9,16.08-11.78,28.33c-3.62,5.63,0.76,16,0.76,16
	c3.82,5.25,10.39,10.75,10.39,19.34c-1.91-0.96-5.73,0-5.73,0s6.21,8.6,5.73,14.33c-2.87-1.43-5.72,0-5.72,0s1.66,4.3,1.66,7.64
	c10.03,8.12,30.32,9.55,31.76,15.76c-6.69-3.34-23.88-8.6-29.61-10.5c4.77,4.78,11.94,6.21,14.33,10.5
	c-6.13-3.27-12.95-7.23-15.99-8.31C429.09,126.81,428.05,128.78,427.77,128.78 M392.95,112.74c2.8,0.93,3.38,5.53,5.53,6.73
	c1.17-0.96-1.03-3.66,0.46-4.38c2.27-1.09-0.41,5.6,1.5,3.69c0.84-0.84,1.9-5.02,2.9-5.8c1.27-0.98,3.44,1.09,2.11-0.73
	c-2.35-3.21-10.46-3.13-15.12,0.13C389.14,113.21,391.52,112.26,392.95,112.74 M383.28,106.65c-7.88-9.39-3.8-17.05-13.29-20.22
	c-0.68-0.23-1.36-0.42-2.04-0.58c0.26,0.42,0.48,0.93,0.68,1.49c-0.11-0.03-0.23-0.05-0.35-0.05c-1.09,0-1.98,1.37-1.98,3.05
	c0,1.69,0.89,3.06,1.98,3.06c0.38,0,0.74-0.18,1.04-0.47c-0.22,3.76-1.69,6.67-3.47,6.67c-1.94,0-3.5-3.42-3.5-7.64
	c0-2.88,0.73-5.39,1.81-6.69c-5.19-0.39-9.94,0.85-12.86,2.36c-0.02,0.01-0.04,0.02-0.06,0.03c-0.61,0.32-1.14,0.65-1.57,0.99
	c-0.02,0.02-0.05,0.04-0.07,0.05c-0.2,0.16-0.38,0.31-0.53,0.47c-0.03,0.03-0.05,0.05-0.07,0.08c-0.15,0.16-0.28,0.31-0.38,0.46
	c0,0,0,0,0,0.01c-0.1,0.15-0.16,0.29-0.21,0.43c-0.01,0.03-0.02,0.05-0.03,0.08c-0.04,0.13-0.05,0.26-0.04,0.39
	c0,0.02,0.01,0.05,0.01,0.07c0.02,0.13,0.07,0.25,0.15,0.36C356.7,102.23,371.55,99.17,383.28,106.65 M408.35,138.8
	c-1.11-3.5-7.64-9.55-7.64-9.55l-1.43-7.64c0.32,3.82-8.28,13.53-16.55,15.6c3.74,0.48,14.66-4.46,15.61-6.69
	C400.08,131,406.6,135.78,408.35,138.8 M417.9,88.34c0,0-0.01-0.02-0.03-0.05c0-0.01,0-0.01-0.01-0.02
	c-0.02-0.04-0.05-0.09-0.09-0.16c0-0.01-0.01-0.02-0.01-0.02c-0.04-0.07-0.09-0.15-0.15-0.24c0,0,0-0.01-0.01-0.01
	c-0.06-0.09-0.13-0.2-0.21-0.31c-0.01-0.01-0.02-0.03-0.03-0.04c-0.16-0.24-0.36-0.51-0.59-0.79c-0.01-0.01-0.02-0.02-0.02-0.03
	c-0.12-0.14-0.24-0.29-0.38-0.44c-0.01-0.01-0.02-0.02-0.02-0.03c-0.27-0.3-0.58-0.6-0.92-0.89c-0.01-0.01-0.03-0.02-0.04-0.03
	c-0.35-0.29-0.73-0.56-1.14-0.8c0,0-0.01,0-0.01-0.01c-0.2-0.11-0.41-0.22-0.63-0.31c-0.02-0.01-0.03-0.01-0.05-0.02
	c-0.44-0.18-0.9-0.31-1.39-0.38c-0.02,0-0.04-0.01-0.06-0.01c-0.24-0.03-0.5-0.04-0.75-0.04c-0.02,0-0.03,0-0.05,0
	c-0.26,0.01-0.53,0.04-0.81,0.09h0c0.25,0.26,0.49,0.56,0.72,0.9c-0.93,0.27-1.34,1.66-0.92,3.09c0.42,1.44,1.51,2.38,2.45,2.11
	c0.17-0.05,0.32-0.15,0.46-0.27c0.5,2.74,0.01,5.03-1.3,5.43c-1.55,0.48-3.66-1.88-4.71-5.27c-0.43-1.38-0.61-2.72-0.57-3.85l0,0
	c0,0,0,0,0,0c-3.98,3.68-2.07,8.6-2.38,14.92c0,0.06,0,0.12-0.01,0.18c-0.02,0.37-0.05,0.74-0.09,1.12
	c-0.01,0.1-0.01,0.21-0.03,0.31c-0.05,0.48-0.12,0.97-0.21,1.47c0.1,0.38,0.33,0.05,0.4-0.13C407.18,96.55,417.9,100.16,417.9,88.34
	 M389.46,384.93c-7.79-4.05-10.54-6.13-13.63-13.15c-3.09-7.01-2.47-5.21,0.21-18.93c2.68-13.72,6.5-23.12,2.02-28.31
	c-4.48-5.19-4-18.31-14.24-24.55c-2.11,2.64-35.82,16.7-35.82,16.7l-0.83,8.99c11.72,4.04,21.87,16.28,24.53,20.08
	c2.66,3.8-0.63,7.62-1.52,13.99c-0.89,6.37-0.78,13.25,0.62,22.2c1.4,8.95-0.47,13.27,7.56,20.93c8.03,7.67,10.94,7.47,16.39,6.21
	c5.3-1.23,10.38,0.47,12.26-2.87c1.88-3.34-1.54-16.22-3.36-17.61c4.12,2.6,5.79,6.64,6.23,10.93c0.11,1.1-0.51,4.5,0.6,4.14
	C399.48,397.99,397.26,388.97,389.46,384.93"/>
</svg>
