<?xml version="1.0" encoding="utf-8"?>
<!-- Generator: Adobe Illustrator 14.0.0, SVG Export Plug-In  -->
<!DOCTYPE svg PUBLIC "-//W3C//DTD SVG 1.1 Tiny//EN" "http://www.w3.org/Graphics/SVG/1.1/DTD/svg11-tiny.dtd" [
	<!ENTITY ns_flows "http://ns.adobe.com/Flows/1.0/">
]>
<svg version="1.1" baseProfile="tiny"
	 xmlns="http://www.w3.org/2000/svg" xmlns:xlink="http://www.w3.org/1999/xlink" xmlns:a="http://ns.adobe.com/AdobeSVGViewerExtensions/3.0/"
	 x="0px" y="0px" width="549px" height="542px" viewBox="-0.54 -0.11 549 542" xml:space="preserve">
<defs>
</defs>
<path fill="#B3D570" d="M173.55,378.15c0,0-15.53,17.08-27.95,26.4c-12.42,9.32-8.54,13.2-24.07,14.75s-40.37-6.21-52.79,0.78
	s-17.08,26.4,2.33,33.38s20.19,0,23.29,15.53c3.11,15.53,0,54.34,35.71,55.12c35.71,0.78,41.92-18.63,41.92-24.84
	c0-6.21-3.11-27.95-18.63-38.82c-15.53-10.87,6.21-15.53,9.32-23.29c3.11-7.76,34.94-35.71,34.94-35.71S189.85,379.7,173.55,378.15z
	"/>
<path fill="#B3D570" d="M171.27,170.83c0,0-17.08-15.53-26.4-27.95s-13.2-8.54-14.75-24.07c-1.55-15.53,6.21-40.37-0.78-52.79
	c-6.99-12.42-26.4-17.08-33.38,2.33c-6.99,19.41,0,20.19-15.53,23.29c-15.53,3.11-54.34,0-55.12,35.71
	c-0.78,35.71,18.63,41.92,24.84,41.92c6.21,0,27.95-3.11,38.82-18.63c10.87-15.53,15.53,6.21,23.29,9.32
	c7.76,3.11,35.71,34.94,35.71,34.94S169.72,187.14,171.27,170.83z"/>
<path fill="#B3D570" d="M362.02,187.55c0,0,21.65-16.24,33.61-29.35c11.96-13.11,20.92-18.4,22.47-25.38
	c3.65-16.43-5.21-44.29,3.88-57.45c9.09-13.17,34.06-14.81,41.92,6.21c7.86,21.02,5.05,29.65,24.07,33.38
	c19.02,3.73,56.03-8.78,55.61,29.6c-0.42,38.38-24.58,44.56-32.24,44.4c-7.65-0.16-36.53-0.22-55.2-10.34
	c-30.24-16.38-11.28-1.23-31.83,5.43c-9.69,3.14-51.24,55.9-51.24,55.9S363.31,205.1,362.02,187.55z"/>
<path fill="#B3D570" d="M380.49,371.01c0,0,26.68,11.04,40.71,21.9c14.03,10.86,12.71,27.57,29.5,28.72
	c16.79,1.16,32.61-7.96,46.47,0.04c13.86,7.99,17.53,32.75-2.79,42.29c-20.32,9.54-26.75-1.02-28.93,18.23
	c-2.17,19.26,13.44,48.55-24.84,51.24c-38.29,2.7-39.91-21.86-40.37-29.5c-0.46-7.64-3.13-20.16,5.43-39.59
	c13.87-31.47,6.99-28.73-7.76-45.03c-6.83-7.55-68.76-33.02-68.76-33.02S363.1,373.71,380.49,371.01z"/>
<path fill="#B3D570" d="M303.9,186.24c-36.52-46.18-46.63-90.96-23.65-147.62c-15.54,20.95-22.93,62.71-21.94,81.93
	c1.31,25.5,8.29,49.66,24.98,72.78l-6.26,6.68l5.81,8.62L303.9,186.24z"/>
<path fill="#B3D570" d="M284.05,249.81l-6.6,7.12l6.86,8.74l22.53-23.92C239.17,175.64,230.04,88.54,275.17,0
	c-30.86,36.53-38.57,100.7-38.56,119.93C236.66,197.39,263.92,224.69,284.05,249.81z"/>
<path fill="#B3D570" d="M237.88,355.54c36.52,46.18,46.63,90.96,23.64,147.62c15.55-20.94,22.93-62.71,21.94-81.92
	c-1.31-25.5-8.28-49.66-24.98-72.78l6.27-6.69l-5.81-8.62L237.88,355.54z"/>
<path fill="#B3D570" d="M257.74,291.97l6.6-7.12l-6.86-8.74l-22.53,23.92c67.67,66.11,76.8,153.22,31.68,241.76
	c30.86-36.54,38.57-100.7,38.55-119.94C305.13,344.4,277.86,317.1,257.74,291.97z"/>
<path fill="#B3D570" d="M355.54,303.9c46.18-36.52,90.96-46.63,147.62-23.65c-20.95-15.54-62.71-22.93-81.93-21.94
	c-25.5,1.31-49.66,8.29-72.78,24.98l-6.68-6.26l-8.62,5.81L355.54,303.9z"/>
<path fill="#B3D570" d="M291.97,284.05l-7.12-6.6l-8.74,6.86l23.92,22.53c66.11-67.67,153.22-76.81,241.76-31.68
	c-36.53-30.86-100.7-38.57-119.94-38.56C344.4,236.66,317.1,263.92,291.97,284.05z"/>
<path fill="#B3D570" d="M186.25,237.88c-46.18,36.52-90.96,46.63-147.62,23.64c20.94,15.55,62.71,22.93,81.92,21.94
	c25.5-1.31,49.66-8.28,72.78-24.98l6.69,6.27l8.62-5.81L186.25,237.88z"/>
<path fill="#B3D570" d="M249.81,257.74l7.12,6.6l8.74-6.86l-23.92-22.53C175.64,302.61,88.54,311.75,0,266.62
	c36.54,30.86,100.7,38.57,119.94,38.55C197.39,305.13,224.69,277.86,249.81,257.74z"/>
<path fill="#4DB757" d="M363.66,182.56c0,0,39.42-38.3,44.17-42.15c7.98-6.46,7.62-16.7,4.77-33.09
	c-2.84-16.39-4.76-36.59,23.14-42.9c31.29-7.08,32.98,15.83,35.11,24.38c2.13,8.55-2.84,20.67,13.5,22.8
	c16.34,2.14,51.85-11.25,61.81,21.38c5.31,17.38-4.99,39.84-9.08,46.5c-8.87,14.42-45.7,14.8-54.71,11.71
	c-8.78-3.01-35.04-11.94-39.22-14.74c-4.65-3.11-8.53,1.42-8.53,1.42s-51.29,47.81-61.24,69.18l-3.36-2.7l-3.75-3.71
	c0,0,28.56-34.98,66.92-69.18c0,0-7.82-6.41-8.52-11.4c0,0,30.55,17.1,61.1,23.51c30.55,6.41,48.31-3.56,51.86-24.23
	s0.71-37.76-20.6-39.9c-21.31-2.14-55.42,8.55-64.65-15.68c0,0,9.95,11.76,19.18,8.55c0,0-3.55-3.92-4.26-8.91
	c-0.71-4.99-3.91-37.41-29.13-34.56c-25.22,2.85-17.41,56.29-17.41,56.29s3.32,10.97-16.93,26.97c0,0-34.22,33.96-51.27,57.47
	l-5.33-4.99L363.66,182.56z"/>
<path fill="#4DB757" d="M517.04,124.42c0,0,15.27,4.99,15.27,20.31l-2.49,2.85l1.42,3.56c0,0-2.13,0.71-1.78,2.14
	c0.36,1.43,0.36-0.36,0.36,2.14s-5.68,10.33-6.75,14.25c-1.07,3.92-2.13-0.71-1.78,0.36c0.36,1.07-1.06,3.56-1.06,3.56l-2.13,0.36
	l-6.75,5.7l-1.07-0.36l-3.2,2.14l-1.78-1.42l-5.68,2.14l-1.78-4.28c0,0-0.71,1.78-2.13,2.14s-2.84,1.07-2.84,1.07
	s3.91-3.56,7.82-14.61c0,0-1.78,11.4,0.36,11.4c2.13,0,4.26-1.42,4.26-1.42s2.13-13.9,1.78-16.39c-0.36-2.49,2.84,12.11,1.77,16.03
	c0,0,4.62-10.33,4.97-25.3c0,0,1.42,19.95,0.71,22.8c-0.71,2.85,6.75-8.2,5.33-18.53l2.84,8.55c0,0,4.97-7.48-7.1-25.3
	c0,0,5.68,3.92,9.59,8.55c0,0-1.78-7.84-6.75-13.18c0,0,4.97,2.85,8.53,6.41C526.99,140.1,525.57,131.9,517.04,124.42z"/>
<polygon fill="#4DB757" points="492.53,170.02 488.27,175.01 488.27,181.07 491.82,177.51 "/>
<path fill="#4DB757" d="M482.23,177.86c0,0-0.36-3.92,0-4.99c0.36-1.07,4.98-5.7,4.98-5.7l-1.07,6.41L482.23,177.86z"/>
<polygon fill="#4DB757" points="483.65,165.39 476.55,170.02 476.19,174.3 479.39,171.09 "/>
<polygon fill="#4DB757" points="470.15,169.67 470.51,166.1 480.1,162.9 471.57,170.02 "/>
<polygon fill="#4DB757" points="465.89,167.17 461.98,167.17 462.34,164.68 470.86,162.19 "/>
<polygon fill="#4DB757" points="426.24,171.79 425.93,175.18 423.17,174.56 417.34,166.25 "/>
<polygon fill="#4DB757" points="419.8,177.33 410.59,169.95 414.58,179.18 418.88,180.1 "/>
<polygon fill="#4DB757" points="403.23,175.79 411.51,180.41 413.05,186.25 409.67,185.33 "/>
<polygon fill="#4DB757" points="400.47,180.1 406.91,185.94 408.45,190.56 403.54,188.71 "/>
<path fill="#4DB757" d="M187.65,368.87c0,0-31.69,28.73-59.22,52.07c-14.73,12.49-35.07-7.62-58,1.09
	c-22.93,8.71-7.72,29.37-0.02,28.54c7.69-0.83,15.77,1.92,17.7,5.35c0,0-3.33-11.57-8.22-13.64c0,0,13.17-2.98,16.84,26.2
	c3.68,29.18,0.21,45.12,23.79,47.24c23.58,2.12,47.13-5.62,43.72-27.56c-3.41-21.94-14.78-31.09-14.78-31.09
	s-11.08,7.95-15.44,20.35c0,0-6.1-18.02,71.53-91.8l9.51,1.56c0,0-50.09,45.37-57.37,59.65c0,0-6.22,4.82,2.07,14.3
	c8.29,9.48,29.33,49.42-12.37,63.08c-42.59,13.95-54.14-11.26-55.86-27.16c-1.72-15.9,2.92-44.94-21.47-40.22
	c0,0-15.96,1.21-18.58-18.23s22.52-26.82,43.08-23.86c20.56,2.97,38.19,12.47,85.91-59.63L187.65,368.87z"/>
<path fill="#4DB757" d="M146.99,472.63c0,0,13.53,0.35,12.45,19.15l-2.22-1.32l-0.05,6.75c0,0-2.16-0.8-2.08-0.03
	c0.08,0.77,0.08,0.77,0.08,0.77l-1.17,1.16c0,0-0.35,1.59-1.26,2.73c-0.92,1.14-3.49,3.75-3.49,3.75l-0.96-4.05l-2.9,6.8l-1.53-4.5
	l-3.35,5.03c0,0,1.63-11.33,0.62-18.23l4.3,10.95c0,0,1.22-7.92-0.58-14.98l5.68,14.17c0,0,1.05-9.45-2.26-16.1l6.83,10.42
	l-2.28-9.09l4.04,1.38C156.89,487.39,155.38,475.87,146.99,472.63z"/>
<polygon fill="#4DB757" points="137.74,509.43 138.68,498.96 133.01,508.91 135,510.51 "/>
<polygon fill="#4DB757" points="126.37,509.89 132.99,499.05 130.25,509.73 128.08,511.26 "/>
<polygon fill="#4DB757" points="121.39,509.39 126.57,499.75 124.7,508.77 122.61,511.07 "/>
<polygon fill="#4DB757" points="115.99,507.38 120.56,499.36 118.86,507.58 117.26,509.57 "/>
<polygon fill="#4DB757" points="112.83,504.6 115.71,495.21 109.96,502.06 109.98,504.65 "/>
<path fill="#4DB757" d="M76.92,443.63c0,0-2.49,3.38-5.16,2.63c-2.67-0.75-3.3-1.72-3.3-1.72s4.05-0.96,3.25-1.13
	c-0.8-0.17-3.47-0.92-3.47-0.92l-1.82-0.06l3.34-2.7l-3.47-0.92l-1.93-3.42l3.16,0.44l-1.44-3.74l4.32,1.61l-0.19-4.13l7.27,7.26
	l-5.41-2.01l2.1,2.63l-5.52-0.7l4.78,3.37l-2.71,1.33l3.44,0.66l-1.03,2.45L76.92,443.63z"/>
<polygon fill="#4DB757" points="74,428.64 77.63,433.44 77.05,428.05 74.26,426.28 "/>
<polygon fill="#4DB757" points="79.38,428.06 81.91,432.2 81.89,427.27 79.62,425.44 "/>
<polygon fill="#4DB757" points="133.32,451.8 136.31,450.7 136.32,448.36 140.03,446.66 140.64,442.71 146.17,441.07 145.5,437.25 
	150.31,436.21 150.33,431.54 153.2,431.75 153.26,429.92 157.03,428.74 157.15,425.09 163.74,423.6 163.52,419.21 172.05,414.14 
	172.03,411.55 178.65,407.98 176.86,405.83 182.36,403.94 182.34,401.35 187.79,398.95 187.8,396.61 191.08,395.74 189.63,394.34 
	193.82,392.33 185.16,393.78 187.89,395.05 183.98,397.28 186.45,398.57 177.93,401.31 180.69,402.83 174.27,405.86 176.23,407.2 
	167.87,411.48 170.8,412.2 160.62,418.75 162.43,421.15 154.34,423.06 155.56,424.74 148.94,428.32 150.85,429.15 143.89,429.64 
	148.55,434.32 141.03,434.36 143.33,436.45 136.49,437.96 141.98,440.74 133.75,441.37 137.78,445.09 132.26,444.39 135.21,447.7 
	122.76,447.75 "/>
<polygon fill="#4DB757" points="133.51,455.93 122.75,452.42 130.94,458.54 133.53,458.52 "/>
<polygon fill="#4DB757" points="131.01,461.65 122.33,458.18 127.87,463.8 130.49,464.04 "/>
<polygon fill="#4DB757" points="126.3,466.05 120.95,464.55 124.84,469.32 127.12,468.81 "/>
<path fill="#4DB757" d="M406.2,372.9c0,0,33.77,35.27,37.17,39.52c5.7,7.14,14.72,6.81,29.18,4.27
	c14.45-2.54,32.26-4.26,37.83,20.71c6.24,28-13.95,29.51-21.49,31.42c-7.54,1.91-18.22-2.54-20.1,12.08
	c-1.88,14.62,9.92,46.39-18.85,55.3c-15.32,4.75-35.13-4.46-41-8.13c-12.71-7.93-13.05-40.88-10.33-48.95
	c2.66-7.86,10.53-31.35,13-35.09c2.74-4.16-1.25-7.63-1.25-7.63s-42.15-45.89-61-54.79l2.38-3.01l3.28-3.35
	c0,0,30.84,25.55,61,59.87c0,0,5.65-6.99,10.05-7.63c0,0-15.08,27.33-20.74,54.67c-5.65,27.33,3.15,43.23,21.36,46.4
	c18.22,3.18,33.3,0.64,35.18-18.43c1.88-19.07-7.54-49.58,13.82-57.85c0,0-10.37,8.9-7.54,17.16c0,0,3.46-3.18,7.85-3.81
	c4.4-0.63,32.98-3.5,30.47-26.06C503.96,417,456.83,424,456.83,424s-9.67,2.97-23.78-15.15c0,0-29.94-30.62-50.67-45.87l4.4-4.77
	L406.2,372.9z"/>
<path fill="#4DB757" d="M457.46,510.13c0,0-4.4,13.67-17.91,13.67l-2.51-2.22l-3.14,1.27c0,0-0.63-1.91-1.89-1.59
	c-1.26,0.32,0.31,0.32-1.88,0.32c-2.2,0-9.11-5.08-12.56-6.04c-3.46-0.95,0.63-1.91-0.31-1.59c-0.94,0.32-3.14-0.95-3.14-0.95
	l-0.31-1.91l-5.03-6.04l0.32-0.95l-1.89-2.86l1.26-1.59l-1.88-5.09l3.77-1.59c0,0-1.57-0.64-1.89-1.91
	c-0.31-1.27-0.94-2.54-0.94-2.54s3.14,3.5,12.88,6.99c0,0-10.05-1.59-10.05,0.32s1.25,3.81,1.25,3.81s12.25,1.91,14.45,1.59
	c2.2-0.32-10.68,2.54-14.14,1.59c0,0,9.11,4.13,22.3,4.45c0,0-17.59,1.27-20.11,0.64c-2.51-0.64,7.23,6.04,16.34,4.77l-7.54,2.54
	c0,0,6.6,4.45,22.3-6.35c0,0-3.46,5.08-7.54,8.58c0,0,6.91-1.59,11.62-6.04c0,0-2.51,4.45-5.65,7.63
	C443.64,519.03,450.87,517.76,457.46,510.13z"/>
<polygon fill="#4DB757" points="417.26,488.2 412.86,484.39 407.52,484.39 410.66,487.56 "/>
<path fill="#4DB757" d="M410.34,478.98c0,0,3.46-0.32,4.4,0c0.94,0.32,5.03,4.45,5.03,4.45l-5.65-0.95L410.34,478.98z"/>
<polygon fill="#4DB757" points="421.34,480.26 417.26,473.9 413.49,473.58 416.31,476.44 "/>
<polygon fill="#4DB757" points="417.57,468.18 420.71,468.49 423.54,477.07 417.26,469.45 "/>
<polygon fill="#4DB757" points="419.77,464.36 419.77,460.87 421.97,461.19 424.17,468.81 "/>
<polygon fill="#4DB757" points="415.7,428.89 412.71,428.61 413.25,426.14 420.58,420.93 "/>
<polygon fill="#4DB757" points="410.81,423.12 417.33,414.89 409.19,418.46 408.37,422.3 "/>
<polygon fill="#4DB757" points="412.17,408.3 408.1,415.71 402.95,417.09 403.76,414.06 "/>
<polygon fill="#4DB757" points="408.37,405.83 403.22,411.59 399.15,412.97 400.78,408.58 "/>
<path fill="#4DB757" d="M179.42,186.38c0,0-28.73-31.69-52.07-59.22c-12.49-14.73,7.62-35.07-1.09-58
	c-8.71-22.93-29.37-7.72-28.54-0.03c0.83,7.69-1.93,15.78-5.35,17.7c0,0,11.57-3.33,13.64-8.22c0,0,2.98,13.17-26.2,16.84
	c-29.18,3.68-45.12,0.21-47.24,23.79c-2.12,23.58,5.62,47.13,27.56,43.72c21.94-3.41,31.09-14.78,31.09-14.78
	s-7.94-11.07-20.35-15.44c0,0,18.02-6.1,91.8,71.53l-1.56,9.51c0,0-45.38-50.09-59.65-57.37c0,0-4.83-6.22-14.31,2.07
	c-9.48,8.29-49.43,29.33-63.08-12.37c-13.95-42.6,11.26-54.14,27.16-55.86c15.9-1.72,44.94,2.92,40.22-21.47
	c0,0-1.21-15.96,18.23-18.58c19.43-2.62,26.82,22.52,23.86,43.08c-2.97,20.56-12.47,38.19,59.63,85.91L179.42,186.38z"/>
<path fill="#4DB757" d="M75.66,145.72c0,0-0.35,13.53-19.15,12.45l1.32-2.22l-6.75-0.05c0,0,0.8-2.16,0.03-2.08
	c-0.77,0.08-0.77,0.08-0.77,0.08l-1.16-1.17c0,0-1.59-0.35-2.73-1.26c-1.14-0.92-3.75-3.48-3.75-3.48l4.05-0.96l-6.8-2.9l4.5-1.52
	l-5.03-3.35c0,0,11.33,1.63,18.23,0.62l-10.95,4.3c0,0,7.92,1.22,14.98-0.58l-14.17,5.69c0,0,9.45,1.05,16.1-2.26l-10.42,6.83
	l9.09-2.28l-1.38,4.04C60.9,155.62,72.41,154.11,75.66,145.72z"/>
<polygon fill="#4DB757" points="38.85,136.47 49.33,137.41 39.38,131.74 37.78,133.73 "/>
<polygon fill="#4DB757" points="38.4,125.1 49.23,131.71 38.56,128.98 37.03,126.81 "/>
<polygon fill="#4DB757" points="38.9,120.12 48.54,125.3 39.52,123.43 37.22,121.34 "/>
<polygon fill="#4DB757" points="40.91,114.71 48.93,119.29 40.7,117.59 38.71,115.99 "/>
<polygon fill="#4DB757" points="43.68,111.56 53.07,114.44 46.22,108.69 43.63,108.71 "/>
<path fill="#4DB757" d="M104.65,75.65c0,0-3.38-2.49-2.63-5.16c0.75-2.67,1.72-3.3,1.72-3.3s0.96,4.05,1.13,3.25
	c0.17-0.8,0.92-3.47,0.92-3.47l0.06-1.82l2.7,3.34l0.92-3.47l3.42-1.93l-0.44,3.16l3.73-1.44l-1.61,4.33l4.13-0.19l-7.26,7.27
	l2.01-5.41l-2.63,2.1l0.7-5.53l-3.38,4.78l-1.33-2.71l-0.67,3.44l-2.45-1.03L104.65,75.65z"/>
<polygon fill="#4DB757" points="119.64,72.73 114.85,76.36 120.23,75.78 122.01,72.99 "/>
<polygon fill="#4DB757" points="120.23,78.11 116.09,80.64 121.02,80.62 122.85,78.35 "/>
<polygon fill="#4DB757" points="96.49,132.05 97.59,135.04 99.93,135.05 101.62,138.76 105.58,139.37 107.22,144.9 111.04,144.23 
	112.08,149.04 116.75,149.06 116.54,151.93 118.36,151.99 119.55,155.76 123.19,155.88 124.68,162.47 129.07,162.25 134.15,170.78 
	136.74,170.76 140.31,177.38 142.45,175.59 144.34,181.09 146.93,181.07 149.34,186.52 151.68,186.53 152.55,189.8 153.95,188.36 
	155.96,192.55 154.5,183.89 153.24,186.62 151,182.71 149.71,185.18 146.98,176.66 145.46,179.42 142.43,173 141.08,174.96 
	136.81,166.6 136.09,169.53 129.54,159.35 127.14,161.16 125.22,153.07 123.54,154.29 119.97,147.67 119.14,149.58 118.65,142.62 
	113.96,147.28 113.93,139.76 111.84,142.06 110.32,135.22 107.54,140.71 106.91,132.48 103.2,136.51 103.9,130.99 100.59,133.94 
	100.54,121.49 "/>
<polygon fill="#4DB757" points="92.36,132.24 95.86,121.48 89.74,129.67 89.77,132.26 "/>
<polygon fill="#4DB757" points="86.64,129.74 90.11,121.06 84.48,126.6 84.25,129.22 "/>
<polygon fill="#4DB757" points="82.24,125.03 83.73,119.68 78.97,123.57 79.47,125.85 "/>
<path fill="#FFFFFF" d="M147.39,173.6c0,0-5.81-23.69,22.42-38.03l7.03-1.91l9.31-9.27c0,0,38.77-52.3,92.9-42.65
	c0,0,11.47-3.74,15.64,2.13l3.01,0.51c0,0,12.06-4.16,15.39,3.63c0,0,0.92-2.42,6.86-0.91c5.94,1.52,7.44,4.87,7.44,4.87l8.11,3.95
	c0,0,48.83,22.7,48.61,85.13l0.24,4.69c0,0,9.6,13.49,1.04,24.44c-8.56,10.94-15.36,23.73-15.36,23.73l-0.93,5.52l3.08,6.2
	l-15.91,5.57l-5.12,8.94c0,0,4.08,6.37,10.86,5.97c6.78-0.4,26.96-6.8,28.63-4.46c1.67,2.35,4.76,2.36,2.91,7.21
	c-1.85,4.85-3.21,15.98-3.21,15.98s-26.1-1.31-35.01,14.74l-0.97,4.22l16.1,4.01l-3.03,8.78c0,0,12.29,6.72,13.78,13.17
	c0,0,5.65-18.15,17.96-23.81c0,0-11.74,14.53-12.45,30.94l3.1,0.01l4.12-9.11l6.87-0.91l2.42,0.92l3.02-2.59l10.46-0.81l5.1,3.44
	c0,0-16.78,19.88-24.43,34.59l4.68-0.24l8.79-3.16c0,0,11.98-6.75,12.46,5.72c0.48,12.47-5.29,9.95-8.59,23.33l-19.09,6.07
	l2.34,1.43c0,0,25.93,5.41,33.16,26.76c0,0-16.61-17.78-33.85-19.65c0,0,16.34,28.57,9.86,45.54c0,0-0.61-26.95-16.57-39.45
	l-1.35,1.83c0,0,3.77,38.84-6.29,49.53c0,0,6.11-42.33-1.24-47.7c0,0-7.53,41.57-18.68,46.4c-11.14,4.83-61.71-22.81-81.2-23.52
	c-19.5-0.71-31.89,2.36-31.89,2.36s-51.13-39.61-74.12-47.1c-23-7.5-13.6-20.36-13.6-20.36s16.57-40.05,5.84-68.19l-31.7-4.84
	l-10.62-4.38l0.09-3.6c0,0,4.12-9.11,6.14-14.97c2.02-5.85,6.37-4.09,6.37-4.09s16.14-3.39,20.04-5.35
	c3.91-1.96-15.58-5.77-15.58-5.77s-19.22-11.5-7.28-39.43C147.44,191.68,153.46,195.79,147.39,173.6z"/>
<path fill="#F6921E" d="M317.17,216.67c6.99,2.33,28.73,11.65,28.73,11.65l11.91,4.57l11.81,3.43l0.41-2.39
	c0,0,6.8-12.79,15.36-23.73c8.56-10.94-1.04-24.44-1.04-24.44l-0.24-4.69c0.21-62.43-48.61-85.13-48.61-85.13l-8.11-3.95
	c0,0-1.5-3.35-7.44-4.87c-5.94-1.52-6.86,0.91-6.86,0.91c-3.33-7.79-15.39-3.63-15.39-3.63l-3.01-0.51
	c-4.17-5.87-15.64-2.13-15.64-2.13c-54.12-9.65-92.9,42.65-92.9,42.65l-9.31,9.27l-7.03,1.91c-28.23,14.33-22.42,38.03-22.42,38.03
	c6.06,22.19,0.05,18.08-11.9,46c-11.94,27.92,7.28,39.43,7.28,39.43s16.35,3.2,16.09,5.24l2.26-1.02c0,0,6.21-5.43,13.97-12.42
	s14.75-16.3,24.84-21.74c10.09-5.44,22.52-10.87,30.28-10.87c7.76,0,9.04-2.09,9.04-2.09s32.89-1.79,44.53-3.35
	C283.79,212.78,310.19,214.34,317.17,216.67z"/>
<path fill="#231F20" d="M258.59,240.89c1.28,1.59,1.91,3.69,1.54,5.86c-0.68,4.02-4.49,6.73-8.51,6.05
	c-4.02-0.68-6.73-4.49-6.05-8.51c0.12-0.72,0.35-1.39,0.65-2.01c-3.82,3.38-6.58,8.3-7.31,13.76c-1.25,9.41,4.34,16.63,11.93,17.51
	c7.21,0.84,15.36-4.16,19.02-12.26c1.52-3.35,2.11-6.87,1.86-10.15C268.36,248.88,262.68,244.27,258.59,240.89z"/>
<g>
	<ellipse fill="#F6921E" cx="315.43" cy="126.8" rx="40.18" ry="32.03"/>
	<ellipse fill="#F6931E" cx="315.44" cy="126.88" rx="39.76" ry="31.81"/>
	<ellipse fill="#F6941D" cx="315.46" cy="126.96" rx="39.33" ry="31.6"/>
	<ellipse fill="#F6951D" cx="315.47" cy="127.03" rx="38.91" ry="31.39"/>
	<ellipse fill="#F6961C" cx="315.49" cy="127.11" rx="38.49" ry="31.18"/>
	<ellipse fill="#F7971C" cx="315.5" cy="127.19" rx="38.07" ry="30.97"/>
	<ellipse fill="#F7981C" cx="315.52" cy="127.26" rx="37.65" ry="30.76"/>
	<ellipse fill="#F7991B" cx="315.53" cy="127.34" rx="37.23" ry="30.55"/>
	<ellipse fill="#F79A1B" cx="315.55" cy="127.42" rx="36.8" ry="30.34"/>
	<ellipse fill="#F79B1A" cx="315.56" cy="127.49" rx="36.38" ry="30.13"/>
	<ellipse fill="#F79C1A" cx="315.58" cy="127.57" rx="35.96" ry="29.92"/>
	<ellipse fill="#F79D1A" cx="315.6" cy="127.65" rx="35.54" ry="29.71"/>
	<ellipse fill="#F79E19" cx="315.61" cy="127.72" rx="35.12" ry="29.5"/>
	<ellipse fill="#F89F19" cx="315.63" cy="127.8" rx="34.7" ry="29.29"/>
	<ellipse fill="#F8A018" cx="315.64" cy="127.88" rx="34.27" ry="29.08"/>
	<ellipse fill="#F8A118" cx="315.66" cy="127.95" rx="33.85" ry="28.87"/>
	<ellipse fill="#F8A218" cx="315.67" cy="128.03" rx="33.43" ry="28.66"/>
	<ellipse fill="#F8A317" cx="315.69" cy="128.1" rx="33.01" ry="28.45"/>
	<ellipse fill="#F8A417" cx="315.7" cy="128.18" rx="32.59" ry="28.24"/>
	<ellipse fill="#F8A517" cx="315.72" cy="128.26" rx="32.17" ry="28.03"/>
	<ellipse fill="#F8A616" cx="315.73" cy="128.33" rx="31.75" ry="27.82"/>
	<ellipse fill="#F8A716" cx="315.75" cy="128.41" rx="31.32" ry="27.61"/>
	<ellipse fill="#F9A815" cx="315.76" cy="128.49" rx="30.9" ry="27.4"/>
	<ellipse fill="#F9A915" cx="315.78" cy="128.56" rx="30.48" ry="27.19"/>
	<ellipse fill="#F9AA15" cx="315.79" cy="128.64" rx="30.06" ry="26.98"/>
	<ellipse fill="#F9AB14" cx="315.81" cy="128.72" rx="29.64" ry="26.77"/>
	<ellipse fill="#F9AC14" cx="315.83" cy="128.79" rx="29.22" ry="26.55"/>
	<ellipse fill="#F9AD13" cx="315.84" cy="128.87" rx="28.79" ry="26.34"/>
	<ellipse fill="#F9AE13" cx="315.86" cy="128.95" rx="28.37" ry="26.13"/>
	<ellipse fill="#F9AF13" cx="315.87" cy="129.02" rx="27.95" ry="25.92"/>
	<ellipse fill="#FAB012" cx="315.89" cy="129.1" rx="27.53" ry="25.71"/>
	<ellipse fill="#FAB112" cx="315.9" cy="129.18" rx="27.11" ry="25.5"/>
	<ellipse fill="#FAB211" cx="315.92" cy="129.25" rx="26.69" ry="25.29"/>
	<ellipse fill="#FAB311" cx="315.93" cy="129.33" rx="26.26" ry="25.08"/>
	<ellipse fill="#FAB411" cx="315.95" cy="129.41" rx="25.84" ry="24.87"/>
	<ellipse fill="#FAB510" cx="315.96" cy="129.48" rx="25.42" ry="24.66"/>
	<ellipse fill="#FAB610" cx="315.98" cy="129.56" rx="25" ry="24.45"/>
	<ellipse fill="#FAB70F" cx="315.99" cy="129.64" rx="24.58" ry="24.24"/>
	<ellipse fill="#FBB70F" cx="316.01" cy="129.71" rx="24.16" ry="24.03"/>
	<ellipse fill="#FBB80F" cx="316.02" cy="129.79" rx="23.74" ry="23.82"/>
	<ellipse fill="#FBB90E" cx="316.04" cy="129.87" rx="23.31" ry="23.61"/>
	<ellipse fill="#FBBA0E" cx="316.05" cy="129.94" rx="22.89" ry="23.4"/>
	<ellipse fill="#FBBB0D" cx="316.07" cy="130.02" rx="22.47" ry="23.19"/>
	<ellipse fill="#FBBC0D" cx="316.09" cy="130.1" rx="22.05" ry="22.98"/>
	<ellipse fill="#FBBD0D" cx="316.1" cy="130.17" rx="21.63" ry="22.77"/>
	<ellipse fill="#FBBE0C" cx="316.12" cy="130.25" rx="21.21" ry="22.56"/>
	<ellipse fill="#FBBF0C" cx="316.13" cy="130.33" rx="20.78" ry="22.35"/>
	<ellipse fill="#FCC00B" cx="316.15" cy="130.4" rx="20.36" ry="22.14"/>
	<ellipse fill="#FCC10B" cx="316.16" cy="130.48" rx="19.94" ry="21.93"/>
	<ellipse fill="#FCC20B" cx="316.18" cy="130.56" rx="19.52" ry="21.72"/>
	<ellipse fill="#FCC30A" cx="316.19" cy="130.63" rx="19.1" ry="21.5"/>
	<ellipse fill="#FCC40A" cx="316.21" cy="130.71" rx="18.68" ry="21.29"/>
	<ellipse fill="#FCC509" cx="316.22" cy="130.79" rx="18.25" ry="21.08"/>
	<ellipse fill="#FCC609" cx="316.24" cy="130.86" rx="17.83" ry="20.87"/>
	<ellipse fill="#FCC709" cx="316.25" cy="130.94" rx="17.41" ry="20.66"/>
	<ellipse fill="#FDC808" cx="316.27" cy="131.02" rx="16.99" ry="20.45"/>
	<ellipse fill="#FDC908" cx="316.28" cy="131.09" rx="16.57" ry="20.24"/>
	<ellipse fill="#FDCA08" cx="316.3" cy="131.17" rx="16.15" ry="20.03"/>
	<ellipse fill="#FDCB07" cx="316.32" cy="131.25" rx="15.73" ry="19.82"/>
	<ellipse fill="#FDCC07" cx="316.33" cy="131.32" rx="15.3" ry="19.61"/>
	<ellipse fill="#FDCD06" cx="316.35" cy="131.4" rx="14.88" ry="19.4"/>
	<ellipse fill="#FDCE06" cx="316.36" cy="131.48" rx="14.46" ry="19.19"/>
	<ellipse fill="#FDCF06" cx="316.38" cy="131.55" rx="14.04" ry="18.98"/>
	<ellipse fill="#FDD005" cx="316.39" cy="131.63" rx="13.62" ry="18.77"/>
	<ellipse fill="#FED105" cx="316.41" cy="131.71" rx="13.2" ry="18.56"/>
	<ellipse fill="#FED204" cx="316.42" cy="131.78" rx="12.77" ry="18.35"/>
	<ellipse fill="#FED304" cx="316.44" cy="131.86" rx="12.35" ry="18.14"/>
	<ellipse fill="#FED404" cx="316.45" cy="131.94" rx="11.93" ry="17.93"/>
	<ellipse fill="#FED503" cx="316.47" cy="132.01" rx="11.51" ry="17.72"/>
	<ellipse fill="#FED603" cx="316.48" cy="132.09" rx="11.09" ry="17.51"/>
	<ellipse fill="#FED702" cx="316.5" cy="132.17" rx="10.67" ry="17.3"/>
	<ellipse fill="#FED802" cx="316.51" cy="132.24" rx="10.25" ry="17.09"/>
	<ellipse fill="#FFD902" cx="316.53" cy="132.32" rx="9.82" ry="16.88"/>
	<ellipse fill="#FFDA01" cx="316.55" cy="132.4" rx="9.4" ry="16.67"/>
	<ellipse fill="#FFDB01" cx="316.56" cy="132.47" rx="8.98" ry="16.46"/>
	<ellipse fill="#FFDC00" cx="316.58" cy="132.55" rx="8.56" ry="16.24"/>
	<ellipse fill="#FFDD00" cx="316.59" cy="132.63" rx="8.14" ry="16.03"/>
</g>
<g>
	<ellipse fill="#F6921E" cx="319.5" cy="185.68" rx="29.11" ry="29.55"/>
	<ellipse fill="#F6931E" cx="319.49" cy="185.66" rx="28.82" ry="29.32"/>
	<ellipse fill="#F6941D" cx="319.48" cy="185.64" rx="28.54" ry="29.1"/>
	<ellipse fill="#F6951D" cx="319.47" cy="185.63" rx="28.25" ry="28.87"/>
	<ellipse fill="#F6961C" cx="319.47" cy="185.61" rx="27.96" ry="28.64"/>
	<ellipse fill="#F7971C" cx="319.46" cy="185.59" rx="27.67" ry="28.41"/>
	<ellipse fill="#F7981C" cx="319.45" cy="185.57" rx="27.38" ry="28.19"/>
	<ellipse fill="#F7991B" cx="319.44" cy="185.55" rx="27.09" ry="27.96"/>
	<ellipse fill="#F79A1B" cx="319.43" cy="185.53" rx="26.81" ry="27.73"/>
	<ellipse fill="#F79B1A" cx="319.42" cy="185.51" rx="26.52" ry="27.5"/>
	<ellipse fill="#F79C1A" cx="319.41" cy="185.49" rx="26.23" ry="27.27"/>
	<ellipse fill="#F79D1A" cx="319.4" cy="185.47" rx="25.94" ry="27.05"/>
	<ellipse fill="#F79E19" cx="319.39" cy="185.45" rx="25.65" ry="26.82"/>
	<ellipse fill="#F89F19" cx="319.38" cy="185.44" rx="25.36" ry="26.59"/>
	<ellipse fill="#F8A018" cx="319.37" cy="185.42" rx="25.08" ry="26.36"/>
	<ellipse fill="#F8A118" cx="319.36" cy="185.4" rx="24.79" ry="26.14"/>
	<ellipse fill="#F8A218" cx="319.35" cy="185.38" rx="24.5" ry="25.91"/>
	<ellipse fill="#F8A317" cx="319.34" cy="185.36" rx="24.21" ry="25.68"/>
	<ellipse fill="#F8A417" cx="319.33" cy="185.34" rx="23.92" ry="25.45"/>
	<ellipse fill="#F8A517" cx="319.32" cy="185.32" rx="23.63" ry="25.23"/>
	<ellipse fill="#F8A616" cx="319.31" cy="185.3" rx="23.35" ry="25"/>
	<ellipse fill="#F8A716" cx="319.3" cy="185.28" rx="23.06" ry="24.77"/>
	<ellipse fill="#F9A815" cx="319.3" cy="185.26" rx="22.77" ry="24.54"/>
	<ellipse fill="#F9A915" cx="319.29" cy="185.25" rx="22.48" ry="24.31"/>
	<ellipse fill="#F9AA15" cx="319.28" cy="185.23" rx="22.19" ry="24.09"/>
	<ellipse fill="#F9AB14" cx="319.27" cy="185.21" rx="21.9" ry="23.86"/>
	<ellipse fill="#F9AC14" cx="319.26" cy="185.19" rx="21.61" ry="23.63"/>
	<ellipse fill="#F9AD13" cx="319.25" cy="185.17" rx="21.33" ry="23.4"/>
	<ellipse fill="#F9AE13" cx="319.24" cy="185.15" rx="21.04" ry="23.18"/>
	<ellipse fill="#F9AF13" cx="319.23" cy="185.13" rx="20.75" ry="22.95"/>
	<ellipse fill="#FAB012" cx="319.22" cy="185.11" rx="20.46" ry="22.72"/>
	<ellipse fill="#FAB112" cx="319.21" cy="185.09" rx="20.17" ry="22.49"/>
	<ellipse fill="#FAB211" cx="319.2" cy="185.07" rx="19.88" ry="22.26"/>
	<ellipse fill="#FAB311" cx="319.19" cy="185.05" rx="19.6" ry="22.04"/>
	<ellipse fill="#FAB411" cx="319.18" cy="185.04" rx="19.31" ry="21.81"/>
	<ellipse fill="#FAB510" cx="319.17" cy="185.02" rx="19.02" ry="21.58"/>
	<ellipse fill="#FAB610" cx="319.16" cy="185" rx="18.73" ry="21.35"/>
	<ellipse fill="#FAB70F" cx="319.15" cy="184.98" rx="18.44" ry="21.13"/>
	<ellipse fill="#FBB70F" cx="319.14" cy="184.96" rx="18.15" ry="20.9"/>
	<ellipse fill="#FBB80F" cx="319.13" cy="184.94" rx="17.87" ry="20.67"/>
	<ellipse fill="#FBB90E" cx="319.13" cy="184.92" rx="17.58" ry="20.44"/>
	<ellipse fill="#FBBA0E" cx="319.12" cy="184.9" rx="17.29" ry="20.21"/>
	<ellipse fill="#FBBB0D" cx="319.11" cy="184.88" rx="17" ry="19.99"/>
	<ellipse fill="#FBBC0D" cx="319.1" cy="184.86" rx="16.71" ry="19.76"/>
	<ellipse fill="#FBBD0D" cx="319.09" cy="184.85" rx="16.42" ry="19.53"/>
	<ellipse fill="#FBBE0C" cx="319.08" cy="184.83" rx="16.13" ry="19.3"/>
	<ellipse fill="#FBBF0C" cx="319.07" cy="184.81" rx="15.85" ry="19.08"/>
	<ellipse fill="#FCC00B" cx="319.06" cy="184.79" rx="15.56" ry="18.85"/>
	<ellipse fill="#FCC10B" cx="319.05" cy="184.77" rx="15.27" ry="18.62"/>
	<ellipse fill="#FCC20B" cx="319.04" cy="184.75" rx="14.98" ry="18.39"/>
	<ellipse fill="#FCC30A" cx="319.03" cy="184.73" rx="14.69" ry="18.17"/>
	<ellipse fill="#FCC40A" cx="319.02" cy="184.71" rx="14.4" ry="17.94"/>
	<ellipse fill="#FCC509" cx="319.01" cy="184.69" rx="14.12" ry="17.71"/>
	<ellipse fill="#FCC609" cx="319" cy="184.67" rx="13.83" ry="17.48"/>
	<ellipse fill="#FCC709" cx="318.99" cy="184.65" rx="13.54" ry="17.25"/>
	<ellipse fill="#FDC808" cx="318.98" cy="184.64" rx="13.25" ry="17.03"/>
	<ellipse fill="#FDC908" cx="318.97" cy="184.62" rx="12.96" ry="16.8"/>
	<ellipse fill="#FDCA08" cx="318.96" cy="184.6" rx="12.67" ry="16.57"/>
	<ellipse fill="#FDCB07" cx="318.96" cy="184.58" rx="12.39" ry="16.34"/>
	<ellipse fill="#FDCC07" cx="318.95" cy="184.56" rx="12.1" ry="16.12"/>
	<ellipse fill="#FDCD06" cx="318.94" cy="184.54" rx="11.81" ry="15.89"/>
	<ellipse fill="#FDCE06" cx="318.93" cy="184.52" rx="11.52" ry="15.66"/>
	<ellipse fill="#FDCF06" cx="318.92" cy="184.5" rx="11.23" ry="15.43"/>
	<ellipse fill="#FDD005" cx="318.91" cy="184.48" rx="10.94" ry="15.2"/>
	<ellipse fill="#FED105" cx="318.9" cy="184.46" rx="10.65" ry="14.98"/>
	<ellipse fill="#FED204" cx="318.89" cy="184.45" rx="10.37" ry="14.75"/>
	<ellipse fill="#FED304" cx="318.88" cy="184.43" rx="10.08" ry="14.52"/>
	<ellipse fill="#FED404" cx="318.87" cy="184.41" rx="9.79" ry="14.29"/>
	<ellipse fill="#FED503" cx="318.86" cy="184.39" rx="9.5" ry="14.07"/>
	<ellipse fill="#FED603" cx="318.85" cy="184.37" rx="9.21" ry="13.84"/>
	<ellipse fill="#FED702" cx="318.84" cy="184.35" rx="8.92" ry="13.61"/>
	<ellipse fill="#FED802" cx="318.83" cy="184.33" rx="8.64" ry="13.38"/>
	<ellipse fill="#FFD902" cx="318.82" cy="184.31" rx="8.35" ry="13.16"/>
	<ellipse fill="#FFDA01" cx="318.81" cy="184.29" rx="8.06" ry="12.93"/>
	<ellipse fill="#FFDB01" cx="318.8" cy="184.27" rx="7.77" ry="12.7"/>
	<ellipse fill="#FFDC00" cx="318.79" cy="184.25" rx="7.48" ry="12.47"/>
	<ellipse fill="#FFDD00" cx="318.79" cy="184.24" rx="7.19" ry="12.24"/>
</g>
<path fill="#231F20" d="M305.05,253.39c0,0-0.01-0.72-0.95-0.44c0,0-8.79,4.6-19.49,2.28c-10.71-2.32-29.49-22.53-38.29-28.53
	c-8.79-6-19.51-15.94-46.28,1.99c0,0-13.7,27.63-0.17,59.08c0,0,0.21,0.27,0.47,0.17c0.26-0.1,0.15-0.39,0.15-0.39l-0.03-0.2
	c0,0-2.1-5.43-2.48-10.31c0,0,9.76,26,29.83,31.71c20.07,5.71,25-2.1,25-2.1s-4.46,1.96-3.45-0.97c1.01-2.93,11.39-3.5,21.97-19.27
	c0,0-2.53,10.93-15.61,21.11c0,0,9.11-2.46,17.4-15.65c0,0-1.4,6.73-4.92,12.34c0,0,23.62-21.94,30.04-44.64
	C301.46,258.4,304.08,256.41,305.05,253.39z M230.72,302.27c-35.89-2.96-32.16-64.8-22.77-74.57c0,0,5.76-3.93,15.66-5.23
	c0,0,8.23-1.67,18.4,7.37c13.94,12.39,31.17,24.28,37.69,28.41C277.22,265.98,263.06,304.94,230.72,302.27z"/>
<path fill="#231F20" d="M181.21,250.55c0,0-2.58,8.44-11.33,12.11c-4.99,2.09-15.43,7.85-29.96,9.38c-9.12,0.96-4.83,6.98-9.49,12
	c-6.07,6.53-4.52,11.02,18.67,12.02c18.89,0.81,53.43,7.65,58.78,37.11c0,0,5.08-1.55,11.61-1.48c0,0-16.87,8.17-17.17,20.16
	c0,0,3.56,5.42,8.85,8.72c0,0-12.49-3.49-16.07,1.42c-3.58,4.9-2.65,11.59-2.65,11.59l-5.46-2.29c0,0-0.53-15.23,11.92-15.54
	c0,0-4.46-2.13-2.55-7.31c1.91-5.19,5.26-8.75,7.72-11.09c0,0-3.17-32.2-54.04-36.66c-50.87-4.46-21.58-9.23-21.13-25.38
	C129.22,263.59,159.23,271.65,181.21,250.55z"/>
<path fill="#231F20" d="M388.2,212.89c6.15-5.85,6.3-18.47-3.97-29.49c-10.27-11.03-12.99-10.2-12.99-10.2s-5.75-10.26-28.75-13.12
	c0,0-21.36-9.54-42.7-11.6c0,0-11.16-4.21-17.15-3.93c0,0-17.77-7.91-29.86-6.59c0,0-18.48-8.28-32.79-4.5c0,0-13.29-5.34-23.6-0.89
	c0,0-16.89-5.43-32.73,4.28c-15.83,9.72-19.12,21.55-19.19,34.19c-0.07,12.63,5.61,20.3-5.06,37.6
	c-10.67,17.3-22.24,47.61,15.61,57.36l3.34-1.2c0.41,0.38,0.89,0.63,0.89,0.63l7.83-2.03l4.07-4.22c0,0,2.93-9.37,17.92-21.14
	c-3.07,13.36,1.1,27.71,1.1,27.71c-1.37-12.88,1.6-24.69,3.83-31.34c2.42-1.68,5.07-3.39,8-5.12c26.37-15.51,28.41-7.25,36.4-11.75
	c0,0,34.09-0.1,47.09-3.75c0,0,16.28,3.44,29.22,4.25c12.94,0.81,30.43,13.4,37.69,13.25c0,0,12.26,6.89,17.89,8.18
	c5.63,1.3,3.3-5.29,4.14-8.25C375.28,228.26,382.05,218.73,388.2,212.89z M366.6,231.26c-0.26,3.05-11.05-0.32-10.95-5.46
	c0.09-5.15,2.58-13.76,2.58-13.76s-4.37,9.07-5.34,13.29c0,0-6.74,0.15-14.3-3.96c-7.56-4.12-20.53-6.82-26.17-7
	c-5.65-0.18-24.89-2.4-27.02-5.08c0,0-18.5,5.65-45.07,4c0,0-6.4-3.4-4.81-21.97c0,0-4.75,8.23-1.09,21.75
	c0,0-16.83,6.45-24.27,1.58c-7.44-4.87-5.36-17.17-5.36-17.17s-3.61,4.55,1.12,22.39c0,0-11.9,7.8-15.5,9.25
	c-3.6,1.46-11.81,4.2-14.47-2.96c-2.66-7.16-2.09-21.26-2.09-21.26s-5.64,15.05,1.61,31.76c0,0,0.92,2.22-0.64,3.76
	c-1.55,1.55-5.92,9.07-5.92,9.07s-12.51-0.82-17.54-16.9c0,0-0.66,14.6,16.48,20.08c0,0-2.45,6.07-6.24,8.52
	c-8.51-2.27-27.23-9.26-27.07-26.79c0.22-22.68,19.86-27.32,19.32-53.27c-0.57-27.2,0.12-35.86,13.35-42.4
	c13.24-6.54,26.07-3.08,27.62-1.53c0,0-1.69,6.94-8.23,13.58c-6.54,6.64-15.77,20.05-12.34,36.37c0,0,0-19.87,12.71-32.44
	c12.71-12.57,9.24-18.06,14.1-19.3c4.86-1.24,12.3-1.02,14.47,1.41c0,0-9.89,6.59-9.86,33.95c0,0,3.91-26.18,13.92-33.53
	c0,0,16.24-4.48,29.62,3.45c0,0-8.21,7.39-10.22,25.38c0,0,5.69-19.95,14.28-24.95c0,0,14.61-0.89,25.26,6.33
	c0,0-7.42,7.27-7.87,19.06c0,0,4.01-14.55,12.3-19.35c0,0,9.45,0.56,15.39,5.18c0,0,21.01-0.58,42.24,11.26
	c0,0,20.67,1.43,26.62,10.44c0,0,3.87,9.17-2,19.54c0,0,5.75-6.51,6.56-15.93c0,0,24.28,16.75,10.73,31.23
	C368.96,223.4,366.86,228.21,366.6,231.26z"/>
<path fill="#8F3F97" d="M251.81,221.51c-1.87,0.78-3.75,0.55-4.19-0.52c-0.16-0.38-0.11-0.81,0.09-1.24
	c-1.46,0.92-2.28,2.22-1.87,3.2c0.5,1.19,2.59,1.45,4.68,0.58c1.73-0.72,2.89-1.99,2.96-3.08
	C253.05,220.86,252.48,221.23,251.81,221.51z"/>
<path fill="#8F3F97" d="M256.04,224.12c-1.87,0.78-3.75,0.55-4.19-0.52c-0.16-0.38-0.11-0.81,0.09-1.24
	c-1.46,0.92-2.28,2.22-1.87,3.2c0.5,1.19,2.59,1.45,4.68,0.58c1.73-0.72,2.89-1.99,2.96-3.08
	C257.27,223.47,256.7,223.84,256.04,224.12z"/>
<path fill="#8F3F97" d="M259.73,226.8c-1.87,0.78-3.75,0.55-4.19-0.52c-0.16-0.38-0.11-0.8,0.09-1.24
	c-1.47,0.92-2.28,2.22-1.87,3.21c0.5,1.19,2.59,1.45,4.68,0.57c1.73-0.72,2.89-1.99,2.96-3.08
	C260.96,226.15,260.39,226.52,259.73,226.8z"/>
<path fill="#8F3F97" d="M263.52,229.66c-1.87,0.78-3.75,0.55-4.19-0.52c-0.16-0.38-0.11-0.8,0.09-1.23
	c-1.46,0.92-2.28,2.22-1.87,3.2c0.5,1.19,2.59,1.45,4.68,0.57c1.73-0.72,2.89-1.99,2.96-3.08
	C264.75,229.01,264.19,229.38,263.52,229.66z"/>
<path fill="#8F3F97" d="M268.2,233.28c-1.87,0.78-3.74,0.55-4.19-0.52c-0.16-0.38-0.11-0.8,0.09-1.24c-1.46,0.92-2.28,2.22-1.87,3.2
	c0.5,1.19,2.59,1.45,4.68,0.58c1.73-0.72,2.89-1.99,2.96-3.08C269.43,232.64,268.87,233.01,268.2,233.28z"/>
<path fill="#8F3F97" d="M273.32,237.37c-1.87,0.78-3.75,0.55-4.19-0.52c-0.16-0.38-0.11-0.8,0.09-1.24
	c-1.46,0.92-2.28,2.22-1.87,3.21c0.5,1.19,2.59,1.45,4.68,0.57c1.73-0.72,2.89-1.99,2.96-3.08
	C274.55,236.73,273.98,237.1,273.32,237.37z"/>
<path fill="#8F3F97" d="M279.71,241.55c-1.87,0.78-3.75,0.55-4.19-0.52c-0.16-0.38-0.11-0.8,0.09-1.24
	c-1.46,0.92-2.28,2.22-1.87,3.2c0.5,1.19,2.59,1.45,4.68,0.57c1.72-0.72,2.89-1.99,2.96-3.08
	C280.94,240.9,280.37,241.27,279.71,241.55z"/>
<path fill="#8F3F97" d="M287.08,246.02c-1.87,0.78-3.74,0.55-4.19-0.52c-0.16-0.37-0.11-0.8,0.1-1.24
	c-1.47,0.92-2.28,2.22-1.87,3.21c0.5,1.19,2.59,1.45,4.68,0.58c1.73-0.72,2.89-1.99,2.96-3.08
	C288.32,245.38,287.75,245.74,287.08,246.02z"/>
<path fill="#8F3F97" d="M294.04,249.09c-1.29,0.99-2.76,1.13-3.28,0.33c-0.19-0.28-0.22-0.65-0.14-1.04c-0.95,1.03-1.35,2.26-0.87,3
	c0.59,0.9,2.23,0.73,3.67-0.37c1.19-0.91,1.85-2.18,1.72-3.09C294.87,248.33,294.5,248.74,294.04,249.09z"/>
<path fill="#8F3F97" d="M248.01,218.71c-1.87,0.78-3.75,0.55-4.19-0.52c-0.16-0.38-0.11-0.8,0.09-1.24
	c-1.46,0.92-2.28,2.22-1.87,3.2c0.5,1.19,2.59,1.45,4.68,0.57c1.73-0.72,2.89-1.99,2.96-3.08
	C249.24,218.06,248.67,218.43,248.01,218.71z"/>
<path fill="#8F3F97" d="M243.45,216.65c-1.87,0.78-3.74,0.55-4.19-0.52c-0.16-0.38-0.11-0.8,0.09-1.24
	c-1.46,0.92-2.28,2.22-1.87,3.2c0.5,1.19,2.59,1.45,4.68,0.58c1.73-0.72,2.89-1.99,2.96-3.08
	C244.68,216,244.12,216.37,243.45,216.65z"/>
<path fill="#231F20" d="M312.57,269.85c0,0-10.14,0.7-17.59,20.04c-7.82,20.28-4.71,25.8-4.71,25.8s16.49-16.38,23.01-16.6
	l-2.13,2.59c0,0,5.45,5.86,6.12,8.8c0,0,4.61-17.7-5.86-39.21L312.57,269.85z"/>
<path fill="#231F20" d="M329.72,253.42c1.08,1.48,1.58,3.46,1.24,5.51c-0.64,3.81-3.97,6.43-7.44,5.84
	c-1.81-0.31-3.29-1.43-4.21-2.97c0.3,6.56,3.96,11.96,9.25,12.85c6.37,1.08,12.68-4.79,14.09-13.11c0.71-4.19,0.03-8.2-1.62-11.28
	C337.03,252.13,332.9,253.01,329.72,253.42z"/>
<path fill="#231F20" d="M373.55,305.93c-12.59-0.32-25.09-2.83-34.18-11.26c-4.4-4.09-7.82-2.33-9.59-2.42
	c-0.72-2.53-1.85-5.37-3.1-8.18c2.35,0.1,7.77-0.3,13.79-5.07c0,0-0.3,3.31-4.78,5.39c0,0,11.47-2.83,18.28-21.17
	c2.16-5.81,5.87-9.38,9.64-11.58c4.9-1.5,9.83-1.83,11.72-1.85c2.84-0.03,3.39-1.75,3.39-1.75c-3.67-5.78-14.49-13.55-14.49-13.55
	l-6.44-1.61c6.65,3.45,11.65,12.03,11.65,12.03s-3.02,1.04-7.49,1.58c-4.47,0.53-4.1-0.18-3.63-1.39c0.46-1.21,5.19-1.7,5.19-1.7
	c-7.15-3.53-12.56,0.98-30.64,7.22c-13.04,4.5-18.19,2.01-20.05,0.27c-0.18-1.8-0.28-3.73-0.25-5.85c0,0-0.5-1.12-1.54-1.12
	c0,0-1.86,14.83,5.71,26.56c5.89,9.13,8.29,27.08,8.29,27.08l2.12-2.39c0,0,2.66,6.65,7.01,9.44c0,0-2.03-4.62-3.47-9.16
	c1.72,0.06,4.47,0.07,9.72,4.11c10.97,8.44,28.3,10.8,28.3,10.8c-0.59,5.06-4.61,5.93-4.61,5.93l4.52,0.76
	C373.67,313.24,373.55,305.93,373.55,305.93z M313.38,254.73c3.86,2.64,14.28,3,23.93-1.31c10.96-4.9,16.57-4.85,17.26-4.82
	c-1.34,2.07-4.02,6.64-5.27,11.75c-1.66,6.81-8.96,22.08-25.45,17.74c-1.73-3.47-3.31-6.43-4.07-8.02
	C318.45,267.28,314.97,262.92,313.38,254.73z"/>
<path fill="#231F20" d="M353.49,260.02c0,0,1.83,5.99,11.07,4.71c9.25-1.28,22.49-9.36,30.05-3.7c4.15,3.11,1.49,9.54-0.49,12.05
	c-1.97,2.51-1.54,12.13-1.54,12.13s-0.76,4.85-9.04,3.12c-12.96-2.71-24.61,3.59-29.2,15.46l-2.76-0.47c0,0,2.97-19.12,29.92-19.73
	c0,0,8.49,1.67,7.62-3.87c-0.99-6.36,0.44-7.15,1.95-10c1.51-2.84,2.78-10.67-11.79-5.09c-16.84,6.45-26.04,4.38-26.69-2.44
	L353.49,260.02z"/>
<polygon fill="#8F3F97" points="313.23,243.16 309.68,241.27 310.2,240.45 313.42,241.25 "/>
<polygon fill="#8F3F97" points="313.6,239.48 310.65,238.53 310.86,238.11 314.04,238.39 "/>
<polygon fill="#8F3F97" points="314.05,236.78 311.38,236.14 311.67,235.6 314.49,235.31 "/>
<polygon fill="#8F3F97" points="313.62,233.1 311.83,233.5 311.85,233 313.79,231.77 "/>
<path fill="#231F20" d="M349.13,338.27c0,0,3.48,6.96-5.66,11.09l0.86,1c0,0,5.2-2.22,6.3,1.41c1.11,3.63,3.36,6.59,3.36,6.59
	l0.37-1.15c0,0-3.66-8.88,1.93-12.41c5.58-3.53,7.09-3.27,7.09-3.27s-2.45-0.76-5.3-0.21c-2.85,0.55-5.29-0.49-7.85-4.42
	C348.59,334.39,349.13,338.27,349.13,338.27z"/>
<path fill="#231F20" d="M369.78,338.31c0,0,7.34-2.72,9.41-5.81c2.07-3.09-6.22-15.16-20.08-14.57c0,0-3.44,0.53-8.55,13.76
	c0,0-1.78,3.08-3.06,0.9c0,0-3.72-9.51-18.25-9.04c0,0-11.78,3.52-11.37,21.48c0,0-0.7,0.06-1.67-1.31c0,0-4.02-10.83-18.58-11.23
	c0,0-13.86,9.71-12.57,22.48c0,0-3.99-13.06-18.22-12.37c0,0-13.13,9.49-12.72,24.35c0,0-4.55-21.47-13.87-23.85
	c0,0-10.44,2.71-14.14,24.63c0,0,2.09-24.6-4.39-35.16c0,0,6.22-0.15,9.49,10.04c0,0,6.84-4.87,16.3-3.79c0,0-3.32,1.33-3.69,2.48
	c0,0,4.57,1.46,7.41,7.1c0,0,5.15-10.14,18.29-11.53c0,0-3.6,1.97-3.24,2.89c0,0,8.15-1.38,15.95,2.35c0,0,8.45-13.37,21.71-15.43
	c0,0-3.38,1.67-1.24,3.23c2.15,1.57,9.48,2.98,11.45,5.55c0,0,5.8-13.99,20.41-22.02c0,0-1.96,2.42-1.96,4.49
	c0,0,10.23,1.56,16.13,8.4c0,0,4.48-10.25,11.08-13.62c0,0-0.84,1.92,1.14,2.43c0,0,20.03-1.43,22.76,16.06
	C383.71,331.2,377.95,338.83,369.78,338.31z"/>
<path fill="#231F20" d="M374.16,337.08c0,0,6.72-2.35,11.07,0.19l-0.59,14.23c0,0,0.98,1.07,1.82-0.08
	c0.84-1.15,8.2-20.29,8.2-20.29s1.54-2.2,6.91-2.71l0.43,4.33l3.72-5.96c0,0,5.99-1.83,11.98,0.09l-23.55,37.06
	c0,0,2.59-0.08,3.43-0.46c0.84-0.37,0.8-0.9,0.8-0.9s16.74-27.25,28.66-37.49c0,0-7.04-4.93-22.05-0.88l-1.49,1.94l-1.65-1.7
	c0,0-4.79,0.09-8.6,2.03c-3.81,1.94-4.04,8.61-4.04,8.61S387.46,329.38,374.16,337.08z"/>
<path fill="#231F20" d="M381.1,327.32c0,0,6.64-24,27.17-26.39c0,0-17.4,10.31-19.76,32.46l0.08,1.56l-2.37-0.23
	c0,0-0.45-13.67,9.59-25.23c0,0-9.72,5.59-13.4,20.28L381.1,327.32z"/>
<path fill="#231F20" d="M398.33,361.29c0,0-11.22,3.79-12.71-5.76c0,0-0.92-0.67-1.63,0.5c0,0-8.86,12.7-15.01,13.99
	c-6.15,1.29-12.62-7.81-12.66-9.1c0,0-0.67-0.63-0.88,0.62c-0.22,1.25-3.25,13.13-9.58,16.97c-6.33,3.84-17.64,11.22-21.35,4.14
	c0,0-2.06-4.65-1.63-9.22c0,0-0.53-0.95-1.37-0.06c-0.84,0.89-2.29,16.65-14.3,21.51c0,0-11.97,4.68-15.01-8.9
	c0,0-0.78-0.48-1.23,1.17c0,0-1.88,19.3-19.52,25.96c0,0-7.12,2.41-12.12-6.69c-5-9.1-7.6-19.18-7.6-19.18s-0.75-0.64-1.26,1.34
	c0,0-3.81,9.34-8.73,10.92c0,0-10.37-2.78-16.49-9.32c-6.12-6.54-2.76-13.2-1-15.49c0,0-0.53-0.95-1.34-0.22
	c-0.81,0.72-4.89,5.54-5.82,7.96c0,0-1.87,0.89-5.27-1.41c-3.4-2.29-17.42-7.93-20.59-9.5c-3.18-1.57-4.64-10.25-3.2-15.68
	c1.43-5.43,2.76-13.3,3.33-16.64c0,0,5.33-2.02,6.71,7.16l7.27-8.41l-1.38-7.12l-15.55-20.01l-3.09-1.04c0,0,0.98,22.71-1.32,45.55
	c0,0-1.45,12.66-1.34,15.09c0.11,2.43,0.36,2.99,4.96,4.28c4.6,1.29,21.38,7.91,26.86,13.14c0,0,3.29,1.93,5.99,2.22
	c0,0,9.88,10.78,19.86,13.85c0,0,8.33,6.74,18.11,12c9.78,5.27,10.7,5.94,19.08,2.19c8.38-3.75,32.18-20.38,46.97-24.42
	c0,0,13.2-2.76,25.26-11.04c0,0,5.59-3.53,18.34-6.71c10.33-2.57,19.88-5.59,29.73-8.92c9.85-3.32,10.87-4.31,12.79-5.41
	c3.24-1.86,7.2-2.91,9.4,0.39c0,0,2.5,5.58-2.45,11.45c0,0-3.52,4.57-3.54,9.73c0,0-28.5-3.43-52.18,23.71c0,0,8.68-4.55,13.71-3.71
	c0,0,18.82,15.91,0.06,76.07c0,0,0.89,0.84,2.62-1.28c0,0,18.19-28.24,12.53-66.03c0,0,15.77,8.51,15.12,51.08
	c0,0,2.12-0.33,2.85-2.62c0,0,6.26-30.95-8.81-55.86c0,0,18.96,1.82,39.93,30.49c0,0,1.05-1.11,0.11-3.68
	c-0.94-2.57-19.46-37.61-40.43-35.73c0,0,15.98,0.12,19.29-11.28c2.95-10.19,3.94-11.64,7.68-15.39
	c3.34-3.36-0.25-21.46-16.63-11.58C402.38,361.8,398.33,361.29,398.33,361.29z"/>
<path fill="#231F20" d="M384.26,413.55c0,0-2.3,31.96-18.46,50.23c0,0-4.58,4.74-12.44,0.31c-7.85-4.42-53.56-25.22-84.85-25.34
	c0,0-15.13,3.99-21.54,1.18c-6.41-2.8-26.16-26.44-64.01-42.81c-37.84-16.37-25.79-20.53-22.03-30.56
	c3.76-10.03,17.55-42.81,0.42-67.72l9.2,2.59c0,0,13.12,20.11-2.48,63.59c0,0-9.52,15.6,0.85,19.42
	c10.37,3.81,58.9,30.25,69.59,40.32c10.69,10.06,17.21,16.33,65.28-1.37c0,0-18.71,10.95-11.63,11.8
	c7.08,0.85,54.63,16.79,60.21,20.49c5.57,3.69,21.08,3.56,26.17-53.06L384.26,413.55z"/>
<path fill="#F6921E" d="M407.63,438.07c0,0-4.44-29.37-21.83-41l5.06,0.11C390.86,397.18,405.95,410.83,407.63,438.07z"/>
<path fill="#F6921E" d="M394.03,399.02c0,0,16.19,1.96,32.52,16.85c0,0-9.93-16.13-34.81-20.07L394.03,399.02z"/>
<path fill="#231F20" d="M253.96,369.43c0,0-2.74,7.02-7.84,8.23c-5.11,1.2-15.69,1.22-17.98-5.1c0,0-1.73,7.19,12.08,7.98
	c13.81,0.79,11.37,2.95,11.37,2.95s6.33-3.83,16.38-6.78c0,0-4.85-1.85-10.63,0.27C257.34,376.97,253.83,374.83,253.96,369.43z"/>
<path fill="#231F20" d="M285.71,357.24c0,0-0.95,11.72-8.73,15.05c0,0,10.63-0.27,12.25,6.97c0,0,0.53-12.3,10.41-15.79
	C299.62,363.47,288.16,365.65,285.71,357.24z"/>
<path fill="#231F20" d="M307.75,359.68c0,0,10.59-4.66,11.11-10.77c0,0,4.25,6.91,13.8,3.88c0,0-8.8,4.71-9.24,14.96l-0.88-0.92
	c0,0-2.23-9.67-13.33-6.64C309.21,360.18,308.13,360.49,307.75,359.68z"/>
<path fill="#8F3F97" d="M143.95,290.94c-3.41-0.58-5.69-3.89-5.1-7.4c0.34-2.02,1.57-3.67,3.19-4.59c-3.21,0.1-6.01,2.45-6.56,5.73
	c-0.63,3.75,1.89,7.3,5.64,7.93c2.35,0.4,4.62-0.45,6.15-2.06C146.24,290.98,145.11,291.14,143.95,290.94z"/>
<path fill="#8F3F97" d="M150.76,291.2c-3.41-0.58-5.69-3.88-5.1-7.4c0.34-2.02,1.57-3.67,3.19-4.59c-3.21,0.1-6.01,2.45-6.56,5.73
	c-0.63,3.75,1.89,7.3,5.64,7.93c2.35,0.4,4.62-0.45,6.14-2.06C153.05,291.24,151.92,291.4,150.76,291.2z"/>
<path fill="#8F3F97" d="M157.09,290.91c-3.12-0.52-5.2-3.59-4.65-6.84c0.32-1.88,1.44-3.41,2.93-4.26c-2.93,0.1-5.5,2.28-6.01,5.33
	c-0.59,3.47,1.71,6.76,5.14,7.34c2.15,0.36,4.22-0.42,5.62-1.92C159.19,290.94,158.15,291.08,157.09,290.91z"/>
<path fill="#8F3F97" d="M163.16,291.56c-2.45-0.42-4.09-2.83-3.66-5.39c0.25-1.48,1.14-2.68,2.31-3.36c-2.31,0.08-4.33,1.8-4.73,4.2
	c-0.46,2.74,1.35,5.33,4.04,5.78c1.69,0.29,3.33-0.33,4.43-1.51C164.81,291.59,163.99,291.71,163.16,291.56z"/>
<path fill="#8F3F97" d="M169.24,293.01c-2.12-0.36-3.53-2.55-3.13-4.9c0.23-1.35,1.01-2.46,2.03-3.08c-2,0.09-3.77,1.67-4.14,3.87
	c-0.42,2.5,1.13,4.85,3.47,5.25c1.46,0.25,2.89-0.34,3.85-1.42C170.67,293.02,169.96,293.13,169.24,293.01z"/>
<path fill="#8F3F97" d="M174.61,293.88c-1.93-0.32-3.22-2.21-2.88-4.21c0.19-1.16,0.89-2.09,1.81-2.62c-1.82,0.06-3.4,1.4-3.72,3.27
	c-0.36,2.13,1.07,4.16,3.19,4.51c1.33,0.22,2.62-0.26,3.48-1.17C175.91,293.9,175.26,293.99,174.61,293.88z"/>
<path fill="#8F3F97" d="M179.93,296.17c-1.93-0.32-3.22-2.21-2.88-4.21c0.19-1.15,0.89-2.09,1.81-2.62c-1.82,0.06-3.4,1.4-3.72,3.27
	c-0.36,2.13,1.07,4.15,3.19,4.51c1.33,0.22,2.62-0.26,3.48-1.17C181.23,296.19,180.59,296.28,179.93,296.17z"/>
<path fill="#8F3F97" d="M184.74,298.51c-1.93-0.33-3.22-2.21-2.88-4.21c0.19-1.15,0.89-2.09,1.81-2.62c-1.82,0.06-3.4,1.4-3.72,3.27
	c-0.36,2.13,1.07,4.15,3.19,4.51c1.33,0.22,2.62-0.26,3.48-1.18C186.04,298.53,185.4,298.62,184.74,298.51z"/>
<path fill="#8F3F97" d="M189.49,302.1c-1.95-0.55-3.26-2.59-2.89-4.55c0.21-1.12,0.94-1.96,1.88-2.35c-1.86-0.21-3.53,0.9-3.88,2.75
	c-0.4,2.12,1.07,4.33,3.26,4.93c1.35,0.36,2.64,0.03,3.5-0.78C190.79,302.26,190.14,302.28,189.49,302.1z"/>
<path fill="#8F3F97" d="M194.06,304.68c-1.63-0.44-2.71-2.27-2.38-4.06c0.19-1.03,0.8-1.82,1.6-2.2c-1.55-0.13-2.96,0.92-3.27,2.61
	c-0.36,1.94,0.85,3.91,2.68,4.39c1.12,0.3,2.21-0.04,2.95-0.8C195.15,304.8,194.61,304.83,194.06,304.68z"/>
<path fill="#8F3F97" d="M197.65,307.04c-1.45-0.38-2.39-2.06-2.09-3.73c0.17-0.96,0.72-1.7,1.43-2.07c-1.38-0.09-2.62,0.92-2.91,2.5
	c-0.33,1.8,0.74,3.61,2.35,4.03c1,0.26,1.96-0.08,2.62-0.79C198.62,307.13,198.14,307.17,197.65,307.04z"/>
<path fill="#8F3F97" d="M200.87,309.53c-1.25-0.32-2.05-1.8-1.79-3.29c0.15-0.87,0.62-1.53,1.24-1.88
	c-1.19-0.05-2.26,0.87-2.51,2.28c-0.28,1.61,0.62,3.2,2.01,3.55c0.86,0.21,1.7-0.1,2.27-0.75
	C201.71,309.59,201.29,309.64,200.87,309.53z"/>
<path fill="#8F3F97" d="M382.89,275.44c-0.55-0.47-1.23-0.7-1.9-0.72c0.21,0.1,0.41,0.21,0.6,0.37c1.07,0.92,1.19,2.52,0.27,3.59
	c-0.64,0.75-1.62,1.02-2.52,0.81c0.69-1.25,0.44-2.85-0.68-3.81c-0.55-0.47-1.22-0.7-1.9-0.72c0.21,0.1,0.42,0.21,0.6,0.37
	c1.07,0.92,1.19,2.53,0.27,3.59c-0.65,0.76-1.64,1.03-2.55,0.8c0.42-1.05,0.17-2.29-0.74-3.07c-0.49-0.42-1.09-0.62-1.68-0.64
	c0.18,0.09,0.37,0.19,0.53,0.33c0.76,0.65,0.97,1.7,0.6,2.58c-0.02-0.03-0.05-0.05-0.07-0.08c0.01,0.04,0.04,0.08,0.05,0.12
	c-0.09,0.2-0.19,0.38-0.34,0.55c-0.67,0.79-1.77,0.99-2.66,0.57c-0.03-0.69-0.33-1.37-0.89-1.86c-0.46-0.4-1.03-0.59-1.59-0.61
	c0.18,0.08,0.35,0.18,0.5,0.31c0.9,0.77,1,2.12,0.23,3.02s-2.12,1-3.02,0.23c-0.1-0.09-0.2-0.19-0.28-0.29
	c0.14,0.47,0.4,0.91,0.8,1.25c1.08,0.93,2.71,0.8,3.64-0.27c0.3-0.35,0.48-0.76,0.56-1.18c0.03,0.03,0.05,0.07,0.08,0.09
	c1.14,0.98,2.86,0.85,3.84-0.29c0.03-0.04,0.05-0.08,0.08-0.12c1.25,1.03,3.08,0.91,4.18-0.27c0,0,0,0,0,0
	c1.28,1.1,3.22,0.96,4.32-0.33C384.32,278.49,384.17,276.55,382.89,275.44z"/>
<path fill="#8F3F97" d="M363.63,280.17c0.35,0.49,0.51,1.11,0.41,1.74c-0.21,1.24-1.37,2.09-2.61,1.92
	c0.33,0.39,0.79,0.68,1.34,0.77c1.23,0.21,2.4-0.62,2.61-1.86C365.58,281.56,364.8,280.43,363.63,280.17z"/>
<path fill="#8F3F97" d="M359.12,282.11c0.35,0.49,0.51,1.11,0.4,1.75c-0.21,1.24-1.37,2.08-2.6,1.91c0.33,0.4,0.79,0.69,1.34,0.78
	c1.23,0.21,2.4-0.62,2.61-1.86C361.07,283.49,360.29,282.37,359.12,282.11z"/>
<path fill="#8F3F97" d="M324.92,418.35c-0.99,0.38-1.96,0.77-2.91,1.16l3.52,1.54c0.82-0.43,1.61-0.84,2.38-1.23L324.92,418.35z"/>
<path fill="#8F3F97" d="M315.95,422.05l3.71,2.19c0.98-0.55,1.95-1.09,2.91-1.61l-3.41-1.94
	C318.06,421.14,316.99,421.6,315.95,422.05z"/>
<path fill="#8F3F97" d="M328.17,417.11l2.19,1.48c1.24-0.62,2.35-1.16,3.29-1.61l-1.83-1.2
	C330.58,416.22,329.36,416.66,328.17,417.11z"/>
<path fill="#8F3F97" d="M335.56,416.07c0.82-0.39,1.3-0.6,1.3-0.6c1.24-1.64-1.41-0.95-1.41-0.95c-0.46,0.16-0.91,0.31-1.37,0.47
	L335.56,416.07z"/>
<path fill="#8F3F97" d="M301.94,430.1l7.46,0.52c0.56-0.39,1.12-0.79,1.7-1.17l-3.63-2.39l6.71,0.41c0.55-0.34,1.12-0.69,1.69-1.03
	l-3.59-2.76c-9.96,3.23-16.76,8.33-16.76,8.33c2.34,0.39,9.1,2.38,9.1,2.38c0.04-0.04,0.09-0.07,0.13-0.11L301.94,430.1z"/>
<path fill="#F6921E" d="M381.12,400.14c0,0,10.79,13.6,3.79,54.38c0,0,10.24-30.58,0.29-57.29L381.12,400.14z"/>
<path fill="#231F20" d="M174.76,133.83c0,0,35.61-61.1,105.31-55c0,0,13.31-2.4,17.98,3.55c0,0,11.05-4.33,16.64,2.29
	c0,0,10.55-1.32,14.47,6.05c0,0,71.99,29.19,57.36,97.44l-7.43-7.96c0,0,12.33-48.51-49.94-86.38c0,0,8.26,9.14,10.13,34.75
	c0,0-5.33-36.69-23.9-40.86c0,0,6.17,32.7-2.01,54.73c0,0,6.62-51.97-6.25-57.24c0,0-11.96-8.13-42.98,43.07
	c0,0,9.47-26.02,28.59-43.44c0,0-9.44-12.87-49.97,27.44c0,0,9.97-17.76,33.37-29.99c0,0-56.01-7.65-91.66,51.12
	C184.47,133.4,177.21,133.55,174.76,133.83z"/>
<path fill="#932923" d="M191.76,126.37c0,0,3.77-2.46,21.09,0.46c0,0-9.28-4.67-19.2-4.02L191.76,126.37z"/>
<path fill="#932923" d="M196.99,119.34c0,0,0.42-1.48,2.54-2.84c0,0,6.58-0.26,13.44,2.96
	C212.98,119.46,201.04,117.79,196.99,119.34z"/>
<path fill="#932923" d="M202.11,114.53c0,0,0.4-1.48,2.33-2.88c0,0,5.9-0.38,11.98,2.71C216.42,114.36,205.76,112.91,202.11,114.53z
	"/>
<path fill="#932923" d="M206.51,109.73c0,0,0.59-1.42,2.53-2.59c0,0,5.37,0.26,10.38,3.96C219.42,111.1,210.04,108.53,206.51,109.73
	z"/>
<path fill="#932923" d="M211.54,105.42c0,0,0.55-1.43,2.1-2.66c0,0,4.35,0.07,8.95,4.21C222.59,106.97,214.32,104.14,211.54,105.42z
	"/>
<path fill="#932923" d="M217.25,100.21c0,0,1.03-1.14,2.72-1.88c0,0,3.27,1.05,5,5.77C224.97,104.1,219.9,99.71,217.25,100.21z"/>
<path fill="#932923" d="M222.6,97.43c0,0,0.93-1.03,2.46-1.68c0,0,2.99,0.97,4.6,5.26C229.66,101.01,225.01,96.99,222.6,97.43z"/>
<path fill="#932923" d="M228.56,93.73c0,0,0.9-0.75,2.28-1.1c0,0,2.48,1.25,3.47,5.14C234.31,97.77,230.68,93.69,228.56,93.73z"/>
<path fill="#932923" d="M234.46,90.92c0,0,0.79-0.68,2-1.02c0,0,2.1,0.99,2.83,4.3C239.28,94.21,236.28,90.82,234.46,90.92z"/>
<path fill="#8F3F97" d="M192.1,334.81c0,0,4.74,0.46,7.22,3.11c0,0-1.58-3.88-7.49-7.63L192.1,334.81z"/>
<path fill="#8F3F97" d="M191.45,327.48c0,0,5.29,2.27,8.27,6.04c0,0-2.16-5.53-8.54-10.57L191.45,327.48z"/>
<path fill="#8F3F97" d="M191.1,320.36c0,0,4.99,3.08,7.93,7.01c0,0-2.63-6.81-7.93-10.11L191.1,320.36z"/>
<path fill="#FFFFFF" d="M291.78,394.66c0,0-1.19,9.09-5.3,12.01C286.48,406.67,294.04,403.65,291.78,394.66z"/>
<path fill="#FFFFFF" d="M320.39,383.15c0,0,0.52,6.11-5.07,10.67C315.32,393.82,323.58,390.74,320.39,383.15z"/>
<path fill="#FFFFFF" d="M355.96,367.13c0,0-0.52,8.17-6.5,11.98C349.46,379.11,358.46,375.81,355.96,367.13z"/>
<path fill="#FFFFFF" d="M383.15,360.02c0,0-4.4,9.75-11.24,11.52C371.91,371.54,381.25,371.23,383.15,360.02z"/>
<path fill="#FFFFFF" d="M241.84,401.46c0,0,6.19,0.02,8.55-6.29C250.39,395.16,248.28,404.61,241.84,401.46z"/>
<path fill="#231F20" d="M216.36,364.37c0,0,6.77,2.69,7.97,7.8l0.43-4.06C224.76,368.12,221.76,364.51,216.36,364.37z"/>
<path fill="#B8E4FA" d="M208.09,230.25c0,0-15.53,62.5,24.07,69.1c0,0-31.44-10.48-15.53-72.98
	C216.63,226.37,211.59,227.92,208.09,230.25z"/>
<path fill="#B8E4FA" d="M267.49,343.99c0,0-15.14,10.09-10.09,30.67c0,0,5.05-1.55,9.71,0C267.1,374.66,260.89,362.62,267.49,343.99
	z"/>
<path fill="#B8E4FA" d="M240.31,344.38c0,0-10.09,5.82-11.26,24.84c0,0,0.78,6.21,10.48,6.6
	C239.54,375.82,229.83,360.68,240.31,344.38z"/>
<path fill="#B8E4FA" d="M219.35,333.12c0,0-12.81,7.38-13.97,17.47c0,0,1.94,6.21,9.71,9.7
	C215.08,360.29,207.32,346.71,219.35,333.12z"/>
<path fill="#B8E4FA" d="M329.6,325.36c0,0-9.71,6.21-8.93,19.41c0.78,13.2,16.3,3.49,16.3,3.49S316.79,348.26,329.6,325.36z"/>
<path fill="#B8E4FA" d="M359.1,319.92c0,0-7.76,8.15-6.21,14.75c1.55,6.6,13.59,3.1,15.92,1.55
	C368.8,336.23,352.11,336.61,359.1,319.92z"/>
<path fill="#B8E4FA" d="M209.65,362.24c0,0-7.38-1.17-12.03,0.78s-2.72,7.76-2.72,7.76l9.7,3.88
	C204.6,374.66,191.4,366.51,209.65,362.24z"/>
<path fill="#B8E4FA" d="M226.73,376.99c0,0-6.99,6.99,5.43,16.3c0,0-3.88-8.54,1.16-12.42
	C233.33,380.87,228.28,379.31,226.73,376.99z"/>
<path fill="#B8E4FA" d="M274.09,375.82c0,0-17.47,5.82-19.41,9.32c-1.94,3.49,10.87,33,19.02,24.07
	C273.7,409.21,250.41,391.35,274.09,375.82z"/>
<path fill="#B8E4FA" d="M304.36,363.4c0,0-12.81,6.21-12.03,15.92c0.78,9.71,6.99,14.36,14.36,13.2
	C306.69,392.51,286.9,380.09,304.36,363.4z"/>
<path fill="#B8E4FA" d="M340.08,352.92c0.91-0.73-11.65,4.27-12.81,14.75c-1.16,10.48,0.78,12.81,3.88,15.53
	C331.15,383.2,328.43,362.24,340.08,352.92z"/>
<path fill="#B8E4FA" d="M369.58,340.88c0,0-15.53,3.88-14.75,11.65c0.78,7.76,10.48,14.36,14.75,13.97
	C369.58,366.5,351.33,351.37,369.58,340.88z"/>
<path fill="#B8E4FA" d="M399.47,331.18l-3.11,0.39l-9.32,22.13c0,0,0,4.27,5.82,6.21C392.87,359.91,391.71,340.5,399.47,331.18z"/>
<path fill="#FFF100" d="M298.15,334.29c0,0-10.09,8.15-10.48,17.86c-0.39,9.7,2.72,10.48,16.3,5.44
	c13.59-5.05,11.65-12.04,9.32-14.36s-10.87-7.76-10.87-7.76s10.09,13.59,1.94,15.92C296.21,353.69,296.6,340.89,298.15,334.29z"/>
<path fill="#8F3F97" d="M178.01,310.8c0,0,2.91,40.18-9.32,58.81c0,0,9.32-15.14,13.39-12.23c0,0,2.91-33.19,0.58-45.42
	L178.01,310.8z"/>
<path fill="#932923" d="M172.19,140.78c0,0-9.9,0-12.23,14.56s1.16,37.85-11.06,55.32c0,0,11.65-14.56,15.14-42.51
	C167.53,140.19,172.19,140.78,172.19,140.78z"/>
<path fill="#932923" d="M152.58,254.71c0,0-19.41-5.43-13.97-31.44C138.61,223.27,141.72,246.17,152.58,254.71z"/>
<path fill="#932923" d="M167.33,247.33c0,0-27.17-13.59-7.38-48.52C159.96,198.81,151.81,233.36,167.33,247.33z"/>
<path fill="#932923" d="M179.76,187.55c0,0-9.32,43.09,6.99,40.37C186.74,227.92,175.49,210.46,179.76,187.55z"/>
<path fill="#932923" d="M221.68,213.56c0,0-18.25,5.82-13.97-21.35C207.71,192.21,209.65,214.73,221.68,213.56z"/>
<path fill="#932923" d="M208.87,136.7c0,0-5.82-1.55-8.15,1.94c-2.33,3.49-8.93,14.36-13.97,20.96s-3.88,17.08-3.88,17.08
	S194.9,143.3,208.87,136.7z"/>
<path fill="#932923" d="M236.82,138.25l-17.08,1.55c0,0-8.93,11.65-10.09,29.89C209.65,169.7,213.53,140.97,236.82,138.25z"/>
<path fill="#932923" d="M241.87,166.98c0,0,5.05-18.63,12.81-23.68c0,0,8.54,0.39,15.53,2.72
	C270.2,146.02,250.41,142.14,241.87,166.98z"/>
</svg>
