<?xml version="1.0" encoding="utf-8"?>
<!-- Generator: Adobe Illustrator 15.1.0, SVG Export Plug-In  -->
<!DOCTYPE svg PUBLIC "-//W3C//DTD SVG 1.1//EN" "http://www.w3.org/Graphics/SVG/1.1/DTD/svg11.dtd" [
    <!ENTITY ns_flows "http://ns.adobe.com/Flows/1.0/">
]>
<svg version="1.1"
     xmlns="http://www.w3.org/2000/svg" xmlns:xlink="http://www.w3.org/1999/xlink" xmlns:a="http://ns.adobe.com/AdobeSVGViewerExtensions/3.0/"
     x="0px" y="0px" width="42px" height="100px" viewBox="0 0 42 100"
     overflow="visible" enable-background="new 0 0 42 100" xml:space="preserve">
<defs>
</defs>
<path fill="#FFFFFF" stroke="#000000" stroke-width="0.15" d="M21.218,0.296
    c-0.161,0-1.803,0.241-5.088,0.913c-0.162,0.035-0.432,0.057-0.26-0.08c-1.498,0.307-2.482,0.51-2.749,0.583
    c-0.604,0.164-0.921,0.111-1.532,0.141c-0.674,0.031-1.455,0.352-2.039,0.522C8.158,2.783,7.601,2.987,6.602,3.509
    C5.404,4.136,4.663,5.043,4.363,5.767c-0.657,1.584-1.2,4.291-1.2,4.291s-0.225,0.898-0.244,1.293s-0.15,2.726-0.15,5.668
    c0,2.942-0.025,5.968-0.025,5.968s0.038,1.109,0.206,1.815c0.169,0.707,0.32,1.095,0.32,2.034c0,0.17-0.074,0.54-0.084,1.034
    c-0.017,0.847-0.032,2.056-0.044,3.232c-0.205,0.121-0.166,0.942-0.166,0.942v2.813L2.943,48.649l-0.021,4.464l0.051,14.275
    c0,0-0.104,2.812-0.112,3.007c-0.048,0.671-0.223,3.491-0.223,6.702c0,3.855,0.142,6.395,0.142,6.395l0.527,5.415
    c0,0,0.541,4.769,1.015,6.55s0.868,2.965,5.23,3.635c4.691,0.722,7.539,0.91,11.668,0.91s6.97-0.188,11.66-0.91
    c4.36-0.67,4.756-1.854,5.229-3.635c0.475-1.781,1.014-6.55,1.014-6.55l0.527-5.415c0,0,0.143-2.537,0.143-6.395
    c0-3.211-0.176-6.031-0.225-6.702c-0.009-0.194-0.111-3.007-0.111-3.007l0.051-14.275l-0.021-4.464l-0.035-13.791v-2.813
    c0,0,0.039-0.822-0.164-0.942c-0.012-1.176-0.026-2.385-0.045-3.232c-0.01-0.494-0.084-0.864-0.084-1.034
    c0-0.939,0.149-1.327,0.319-2.034c0.169-0.706,0.206-1.815,0.206-1.815s-0.023-3.025-0.023-5.968c0-2.943-0.133-5.273-0.149-5.668
    c-0.021-0.395-0.244-1.293-0.244-1.293s-0.542-2.707-1.196-4.291c-0.303-0.725-1.043-1.631-2.24-2.258
    c-1-0.522-1.557-0.727-2.947-1.135c-0.584-0.17-1.365-0.49-2.039-0.522c-0.611-0.029-0.93,0.023-1.534-0.141
    c-0.267-0.073-1.251-0.276-2.749-0.583c0.172,0.137-0.098,0.115-0.26,0.08C23.013,0.537,21.38,0.296,21.218,0.296z"/>
<path fill="#5A5E5D" d="M21.214,42.585c-4.196-0.004-8.17,0.448-11.838,1.574c-1.348-4.055-2.569-8.122-3.519-12.212
    c3.693-2.186,8.94-3.117,15.357-3.104c6.417-0.013,11.665,0.918,15.358,3.104c-0.951,4.091-2.172,8.158-3.521,12.213
    C29.384,43.033,25.41,42.581,21.214,42.585z"/>
<path fill="#5A5E5D" d="M26.299,1.209c-3.285-0.672-4.919-0.913-5.081-0.913c-0.161,0-1.803,0.241-5.088,0.913
    c-0.158,0.034-0.416,0.056-0.273-0.067c0.004-0.005,0.009-0.008,0.014-0.013c-0.004,0.001-0.007,0.002-0.011,0.003
    c0.04-0.108,0.107-0.185,0.218-0.205c0.139-0.027,0.876-0.2,1.291-0.287C18.186,0.467,20.535,0,21.205,0
    c0.672,0,3.021,0.467,3.837,0.64c0.415,0.087,1.153,0.26,1.291,0.287c0.112,0.021,0.19,0.091,0.229,0.203
    c0,0-0.004-0.001-0.005-0.001c0.002,0.002,0.005,0.003,0.007,0.005C26.724,1.265,26.46,1.243,26.299,1.209z"/>
<path fill="#5A5E5D" stroke="#000000" stroke-width="0.05" d="M4.923,76.308
    C4.402,63.014,4.46,49.788,4.419,36.522l0.036-0.339l0.1,0.078c0.369,0.287,0.715,0.602,1.042,0.937
    c0.266,0.277,0.424,0.624,0.52,0.992c0.723,2.349,1.296,4.741,1.829,7.139l0.001,0.004c0.404,2.031,0.582,4.104,0.669,6.17
    c0.271,8.205,0.185,16.416,0.04,24.623c-0.097,5.336-0.774,10.694-2.58,15.739l-0.151,0.403c-0.004-0.04-0.008-0.084-0.012-0.133
    C5.449,86.863,5.081,81.57,4.923,76.308z"/>
<path fill="#5A5E5D" stroke="#000000" stroke-width="0.05" d="M37.504,76.407
    c0.521-13.294,0.464-26.519,0.504-39.786l-0.036-0.339l-0.101,0.078c-0.368,0.287-0.715,0.603-1.041,0.937
    c-0.266,0.277-0.426,0.624-0.521,0.992c-0.724,2.349-1.297,4.742-1.828,7.14l-0.003,0.004c-0.401,2.031-0.581,4.103-0.669,6.17
    c-0.271,8.205-0.186,16.417-0.04,24.624c0.099,5.337,0.775,10.696,2.581,15.741l0.15,0.401c0.004-0.038,0.009-0.085,0.012-0.132
    C36.977,86.962,37.345,81.669,37.504,76.407z"/>
<path fill="#5A5E5D" d="M11.93,60.673c0.06,3.431,0.03,7.16-0.08,11.75c-0.09,3.83-0.24,7.869-0.47,13.119
    c-0.01,0.45-0.24,0.551-0.51,0.672c-0.19,0.078-0.4,0.17-0.56,0.39c0.19-0.47,0.28-0.82,0.29-1.08c0.65-14.91,1.07-31.24-0.69-39.41
    c-0.03-0.14-0.03-0.23,0.01-0.27c0.01-0.02,0.03-0.03,0.07-0.03c0.13,0,0.39,0.16,0.77,0.49c0.36,1.71,0.56,3.48,0.67,4.67
    C11.71,53.764,11.87,56.753,11.93,60.673z"/>
<path fill="#5A5E5D" d="M32.529,46.124c-1.68,7.78-1.408,22.82-0.68,39.39c0.01,0.329,0.15,0.77,0.36,1.26
    c-0.38-0.74-1.16-0.39-1.181-1.229c-0.189-4.369-0.359-8.75-0.471-13.119c-0.09-3.922-0.14-7.842-0.08-11.75
    c0.061-3.23,0.182-6.49,0.5-9.7c0.15-1.52,0.352-3.13,0.67-4.68C32.42,45.644,32.63,45.684,32.529,46.124z"/>
<path fill="#E3E4E4" d="M19.538,40.398c-0.194,0-0.271,0.245-0.311,0.44c-0.038,0.193-0.194,0.89-0.232,1.032
    c-0.039,0.143-0.13,0.143-0.194,0.155c-0.064,0.013-1.94,0.129-4.319,0.427c-2.378,0.297-2.985,0.593-3.671,0.774
    c-0.685,0.181-0.852,0.025-1.216-0.438c-0.363-0.465-0.802-1.744-1.034-2.559c-0.232-0.814-0.918-3.203-1.267-4.559
    c-0.349-1.356-0.31-2.131-0.232-2.971c0.077-0.839,0.722-1.085,0.722-1.085s4.165-2.152,13.43-2.152
    c9.267,0,13.431,2.152,13.431,2.152s0.646,0.247,0.723,1.085c0.078,0.839,0.115,1.615-0.229,2.971
    c-0.351,1.356-1.034,3.745-1.269,4.559c-0.231,0.814-0.672,2.094-1.033,2.559c-0.364,0.463-0.53,0.619-1.219,0.438
    c-0.685-0.181-1.291-0.478-3.67-0.774c-2.379-0.297-4.254-0.414-4.318-0.427c-0.062-0.013-0.154-0.013-0.193-0.155
    c-0.037-0.142-0.193-0.839-0.23-1.032c-0.039-0.195-0.116-0.44-0.312-0.44H19.538z"/>
<linearGradient id="SVGID_1_" gradientUnits="userSpaceOnUse" x1="6.7285" y1="-679.2563" x2="35.1396" y2="-679.2563">
    <stop  offset="0" style="stop-color:#FFFFFF"/>
    <stop  offset="1" style="stop-color:#9A9999"/>
</linearGradient>
<path fill="url(#SVGID_1_)" d="M19.538,40.398c-0.194,0-0.271,0.245-0.311,0.44c-0.038,0.193-0.194,0.89-0.232,1.032
    c-0.039,0.143-0.13,0.143-0.194,0.155c-0.064,0.013-1.94,0.129-4.319,0.427c-2.378,0.297-2.985,0.593-3.671,0.774
    c-0.685,0.181-0.852,0.025-1.216-0.438c-0.363-0.465-0.802-1.744-1.034-2.559c-0.232-0.814-0.918-3.203-1.267-4.559
    c-0.349-1.356-0.31-2.131-0.232-2.971c0.077-0.839,0.722-1.085,0.722-1.085s4.165-2.152,13.43-2.152
    c9.267,0,13.431,2.152,13.431,2.152s0.646,0.247,0.723,1.085c0.078,0.839,0.115,1.615-0.229,2.971
    c-0.351,1.356-1.034,3.745-1.269,4.559c-0.231,0.814-0.672,2.094-1.033,2.559c-0.364,0.463-0.53,0.619-1.219,0.438
    c-0.685-0.181-1.291-0.478-3.67-0.774c-2.379-0.297-4.254-0.414-4.318-0.427c-0.062-0.013-0.154-0.013-0.193-0.155
    c-0.037-0.142-0.193-0.839-0.23-1.032c-0.039-0.195-0.116-0.44-0.312-0.44H19.538z"/>
<path fill="#E3E4E4" d="M6.672,89.425c-0.29-3.933-0.524-7.868-0.713-11.81l2.526-3.319c-0.011,0.641-0.021,1.278-0.032,1.92
    C8.356,81.501,7.7,85.796,6.672,89.425z"/>
<linearGradient id="SVGID_2_" gradientUnits="userSpaceOnUse" x1="5.6787" y1="-724.7368" x2="8.2046" y2="-724.7368">
    <stop  offset="0" style="stop-color:#FFFFFF"/>
    <stop  offset="1" style="stop-color:#9A9999"/>
</linearGradient>
<path fill="url(#SVGID_2_)" d="M6.672,89.425c-0.29-3.933-0.524-7.868-0.713-11.81l2.526-3.319c-0.011,0.641-0.021,1.278-0.032,1.92
    C8.356,81.501,7.7,85.796,6.672,89.425z"/>
<path fill="#E3E4E4" d="M35.755,89.432c0.29-3.933,0.524-7.869,0.714-11.81l-2.525-3.32c0.01,0.641,0.021,1.279,0.032,1.92
    C34.07,81.507,34.726,85.8,35.755,89.432z"/>
<linearGradient id="SVGID_3_" gradientUnits="userSpaceOnUse" x1="33.6631" y1="-724.7432" x2="36.1885" y2="-724.7432">
    <stop  offset="0" style="stop-color:#FFFFFF"/>
    <stop  offset="1" style="stop-color:#9A9999"/>
</linearGradient>
<path fill="url(#SVGID_3_)" d="M35.755,89.432c0.29-3.933,0.524-7.869,0.714-11.81l-2.525-3.32c0.01,0.641,0.021,1.279,0.032,1.92
    C34.07,81.507,34.726,85.8,35.755,89.432z"/>
<path fill="#E3E4E4" d="M5.151,67.312c-0.114-3.809-0.194-7.641-0.246-11.48l3.626,0.549c0.066,3.821,0.068,7.651,0.036,11.487
    C7.422,67.757,6.283,67.57,5.151,67.312z"/>
<linearGradient id="SVGID_4_" gradientUnits="userSpaceOnUse" x1="4.6245" y1="-704.7256" x2="8.3066" y2="-704.7256">
    <stop  offset="0" style="stop-color:#FFFFFF"/>
    <stop  offset="1" style="stop-color:#9A9999"/>
</linearGradient>
<path fill="url(#SVGID_4_)" d="M5.151,67.312c-0.114-3.809-0.194-7.641-0.246-11.48l3.626,0.549
    c0.066,3.821,0.068,7.651,0.036,11.487C7.422,67.757,6.283,67.57,5.151,67.312z"/>
<path fill="#E3E4E4" d="M37.275,67.317c0.113-3.808,0.193-7.64,0.246-11.481l-3.627,0.549c-0.066,3.822-0.068,7.651-0.035,11.488
    C35.005,67.764,36.143,67.576,37.275,67.317z"/>
<linearGradient id="SVGID_5_" gradientUnits="userSpaceOnUse" x1="33.5576" y1="-704.73" x2="37.2412" y2="-704.73">
    <stop  offset="0" style="stop-color:#FFFFFF"/>
    <stop  offset="1" style="stop-color:#9A9999"/>
</linearGradient>
<path fill="url(#SVGID_5_)" d="M37.275,67.317c0.113-3.808,0.193-7.64,0.246-11.481l-3.627,0.549
    c-0.066,3.822-0.068,7.651-0.035,11.488C35.005,67.764,36.143,67.576,37.275,67.317z"/>
<path fill="#E3E4E4" d="M4.865,52.322c-0.047-5.16-0.047-10.325-0.013-15.457c0.207,0.182,0.406,0.372,0.598,0.568
    c0.233,0.244,0.379,0.554,0.469,0.905c0.717,2.328,1.292,4.719,1.826,7.128c0.4,2.007,0.579,4.071,0.666,6.138
    c0.03,0.905,0.056,1.812,0.077,2.717C7.113,53.832,5.91,53.16,4.865,52.322z"/>
<linearGradient id="SVGID_6_" gradientUnits="userSpaceOnUse" x1="4.5474" y1="-688.4688" x2="8.2075" y2="-688.4688">
    <stop  offset="0" style="stop-color:#FFFFFF"/>
    <stop  offset="1" style="stop-color:#9A9999"/>
</linearGradient>
<path fill="url(#SVGID_6_)" d="M4.865,52.322c-0.047-5.16-0.047-10.325-0.013-15.457c0.207,0.182,0.406,0.372,0.598,0.568
    c0.233,0.244,0.379,0.554,0.469,0.905c0.717,2.328,1.292,4.719,1.826,7.128c0.4,2.007,0.579,4.071,0.666,6.138
    c0.03,0.905,0.056,1.812,0.077,2.717C7.113,53.832,5.91,53.16,4.865,52.322z"/>
<path fill="#E3E4E4" d="M37.561,52.328c0.047-5.16,0.047-10.326,0.014-15.457c-0.207,0.182-0.404,0.372-0.599,0.568
    c-0.233,0.244-0.379,0.554-0.47,0.906c-0.717,2.328-1.291,4.719-1.826,7.128c-0.398,2.007-0.578,4.071-0.666,6.138
    c-0.029,0.905-0.055,1.811-0.077,2.717C35.314,53.837,36.516,53.166,37.561,52.328z"/>
<linearGradient id="SVGID_7_" gradientUnits="userSpaceOnUse" x1="33.6562" y1="-688.4751" x2="37.3174" y2="-688.4751">
    <stop  offset="0" style="stop-color:#FFFFFF"/>
    <stop  offset="1" style="stop-color:#9A9999"/>
</linearGradient>
<path fill="url(#SVGID_7_)" d="M37.561,52.328c0.047-5.16,0.047-10.326,0.014-15.457c-0.207,0.182-0.404,0.372-0.599,0.568
    c-0.233,0.244-0.379,0.554-0.47,0.906c-0.717,2.328-1.291,4.719-1.826,7.128c-0.398,2.007-0.578,4.071-0.666,6.138
    c-0.029,0.905-0.055,1.811-0.077,2.717C35.314,53.837,36.516,53.166,37.561,52.328z"/>
<path fill="#E3E4E4" d="M5.367,73.494c-0.074-1.839-0.139-3.687-0.196-5.541c1.13,0.258,2.247,0.441,3.39,0.551
    c-0.009,0.92-0.019,1.84-0.032,2.761l-2.455,2.659C5.855,74.164,5.386,73.957,5.367,73.494z"/>
<linearGradient id="SVGID_8_" gradientUnits="userSpaceOnUse" x1="4.8906" y1="-713.8647" x2="8.2803" y2="-713.8647">
    <stop  offset="0" style="stop-color:#FFFFFF"/>
    <stop  offset="1" style="stop-color:#9A9999"/>
</linearGradient>
<path fill="url(#SVGID_8_)" d="M5.367,73.494c-0.074-1.839-0.139-3.687-0.196-5.541c1.13,0.258,2.247,0.441,3.39,0.551
    c-0.009,0.92-0.019,1.84-0.032,2.761l-2.455,2.659C5.855,74.164,5.386,73.957,5.367,73.494z"/>
<path fill="#E3E4E4" d="M37.059,73.5c0.074-1.84,0.141-3.687,0.196-5.541c-1.13,0.258-2.247,0.441-3.39,0.551
    c0.008,0.92,0.019,1.841,0.031,2.761l2.453,2.662C36.572,74.169,37.039,73.962,37.059,73.5z"/>
<linearGradient id="SVGID_9_" gradientUnits="userSpaceOnUse" x1="33.585" y1="-713.8706" x2="36.9746" y2="-713.8706">
    <stop  offset="0" style="stop-color:#FFFFFF"/>
    <stop  offset="1" style="stop-color:#9A9999"/>
</linearGradient>
<path fill="url(#SVGID_9_)" d="M37.059,73.5c0.074-1.84,0.141-3.687,0.196-5.541c-1.13,0.258-2.247,0.441-3.39,0.551
    c0.008,0.92,0.019,1.841,0.031,2.761l2.453,2.662C36.572,74.169,37.039,73.962,37.059,73.5z"/>
<g>
    <path fill="#5B5E5D" d="M9.744,87.703c1.714,2.162,7.599,2.21,11.443,2.213
        c3.844-0.003,9.734-0.098,11.447-2.26c0.959,2.496,2.701,7.498,2.703,7.5c-0.459,0.391-1.061,0.627-2.127,0.937
        c-2.678,0.618-6.291,1.056-12.027,1.082c-5.736-0.026-9.347-0.464-12.025-1.082c-1.057-0.307-1.629-0.472-2.086-0.858
        C7.072,95.23,8.786,90.198,9.744,87.703z"/>
    <path fill="#0A0C06" d="M21.184,97.19L21.184,97.19c-5.109-0.023-8.931-0.367-12.028-1.082L9.14,96.103
        c-1.044-0.303-1.62-0.47-2.078-0.857l-0.005-0.005v-0.007c0-0.006,1.717-5.047,2.673-7.537l0.01-0.025l0.017,0.021
        c1.744,2.199,7.808,2.204,11.431,2.207c2.175-0.002,4.47-0.042,6.521-0.32c2.515-0.341,4.169-0.992,4.914-1.934l0.018-0.021
        l0.01,0.025c0.551,1.435,1.49,4.038,2.644,7.331c0.033,0.096,0.054,0.152,0.059,0.166l0.01,0.01l-0.014,0.011
        c-0.48,0.409-1.12,0.646-2.133,0.939C30.117,96.823,26.294,97.167,21.184,97.19z M7.09,95.229c0.451,0.378,1.024,0.544,2.058,0.844
        l0.015,0.005c3.094,0.714,6.914,1.058,12.021,1.081c5.108-0.023,8.929-0.367,12.023-1.082c1.002-0.29,1.638-0.524,2.112-0.926
        c-0.007-0.019-0.021-0.062-0.056-0.159c-1.147-3.274-2.082-5.866-2.634-7.305c-0.769,0.949-2.378,1.579-4.918,1.924
        c-2.052,0.278-4.349,0.318-6.524,0.32c-3.617-0.003-9.664-0.008-11.438-2.197C8.815,90.17,7.172,94.985,7.09,95.229z"/>
</g>
<path fill="#E3E4E4" d="M9.308,95.189c0.493-1.852,1.116-3.607,1.813-5.312c0.213-0.502,0.576-0.601,1.025-0.466
    c0.015,0.005,0.029,0.011,0.044,0.015c2.591,0.812,6.333,0.927,9.024,0.928c2.69-0.001,6.433-0.116,9.021-0.928
    c0.021-0.006,0.039-0.012,0.058-0.018c0.442-0.13,0.803-0.029,1.015,0.469c0.697,1.705,1.32,3.463,1.812,5.312
    c0.082,0.363,0.192,0.479-0.528,0.667c-1.226,0.342-3.562,0.711-7.187,0.94c-0.815,0.06-1.619-0.117-2.429-0.179
    c-0.589-0.021-1.177-0.026-1.764-0.026s-1.175,0.007-1.765,0.026c-0.809,0.062-1.611,0.236-2.428,0.179
    c-3.623-0.229-5.96-0.601-7.185-0.94C9.114,95.669,9.225,95.552,9.308,95.189z"/>
<linearGradient id="SVGID_10_" gradientUnits="userSpaceOnUse" x1="8.9668" y1="-735.958" x2="32.8984" y2="-735.958">
    <stop  offset="0" style="stop-color:#FFFFFF"/>
    <stop  offset="1" style="stop-color:#9A9999"/>
</linearGradient>
<path fill="url(#SVGID_10_)" d="M9.308,95.189c0.493-1.852,1.116-3.607,1.813-5.312c0.213-0.502,0.576-0.601,1.025-0.466
    c0.015,0.005,0.029,0.011,0.044,0.015c2.591,0.812,6.333,0.927,9.024,0.928c2.69-0.001,6.433-0.116,9.021-0.928
    c0.021-0.006,0.039-0.012,0.058-0.018c0.442-0.13,0.803-0.029,1.015,0.469c0.697,1.705,1.32,3.463,1.812,5.312
    c0.082,0.363,0.192,0.479-0.528,0.667c-1.226,0.342-3.562,0.711-7.187,0.94c-0.815,0.06-1.619-0.117-2.429-0.179
    c-0.589-0.021-1.177-0.026-1.764-0.026s-1.175,0.007-1.765,0.026c-0.809,0.062-1.611,0.236-2.428,0.179
    c-3.623-0.229-5.96-0.601-7.185-0.94C9.114,95.669,9.225,95.552,9.308,95.189z"/>
<path fill="#E40F1B" d="M8.396,98.882c-3.283-0.694-3.646-1.817-4.074-3.429c-0.228-0.854-0.47-2.393-0.661-3.764
    c0.136-0.495,0.356-0.437,0.433,0.112v0.005c0.319,2.34,0.642,4.614,2.859,5.418c0.228,0.082,0.474,0.147,0.743,0.196
    c0.074,0.015,0.136,0.026,0.189,0.043c0.714,0.142,1.429,0.271,2.144,0.388c0.072,0.012,0.146,0.022,0.219,0.034
    c1.109,0.207,1.791,0.761,2.118,1.599c-0.873-0.108-1.801-0.24-2.814-0.396C9.131,99.027,8.747,98.958,8.396,98.882z"/>
<path fill="#E40F1B" d="M35.447,97.234c-0.223,0.079-0.461,0.141-0.717,0.188c-0.074,0.015-0.138,0.026-0.189,0.043
    c-0.715,0.142-1.43,0.271-2.145,0.388c-0.072,0.012-0.146,0.022-0.22,0.034c-1.106,0.207-1.792,0.761-2.118,1.599
    c0.873-0.108,1.803-0.24,2.812-0.396c0.425-0.062,0.808-0.131,1.16-0.207c3.28-0.694,3.646-1.817,4.074-3.429
    c0.227-0.854,0.469-2.393,0.658-3.764c-0.137-0.495-0.355-0.437-0.436,0.112v0.005c-0.317,2.34-0.641,4.614-2.857,5.418
    C35.463,97.228,35.455,97.231,35.447,97.234"/>
<path fill="#F2F1F1" stroke="#000000" stroke-width="0.05" d="M21.216,3.639
    c-2.398,0.005-4.812,0.496-7.257,0.719c-0.623,0.047-0.603-0.095-0.438-0.438c0.269-0.499,0.591-0.922,0.996-1.233
    c0.272-0.205,0.54-0.344,0.809-0.425c2.096-0.613,5.195-1.325,5.891-1.327c0.695,0.001,3.793,0.713,5.889,1.326
    c0.271,0.081,0.536,0.22,0.809,0.425c0.406,0.312,0.729,0.734,0.996,1.233c0.164,0.344,0.186,0.485-0.438,0.438
    C26.027,4.135,23.613,3.644,21.216,3.639z"/>
<path fill="#B2ADAD" stroke="#000000" stroke-width="0.05" d="M11.135,3.376
    c-0.745,0.379-1.148,1.059-0.921,1.481c0.229,0.423,0.991,0.378,1.727-0.017c0.65-0.351,1.066-1.075,0.914-1.357
    C12.628,3.06,11.68,3.098,11.135,3.376z"/>
<path fill="#B2ADAD" stroke="#000000" stroke-width="0.05" d="M6.16,5.14
    C5.315,5.976,4.369,7.633,4.966,8.365c0.474,0.58,1.732,0.146,2.945-1.054c1.211-1.2,1.949-2.658,1.416-3.186
    C8.795,3.597,7.372,3.94,6.16,5.14z"/>
<path fill="#B2ADAD" stroke="#000000" stroke-width="0.05" d="M31.299,3.376
    c0.744,0.379,1.146,1.059,0.92,1.481C31.99,5.28,31.228,5.235,30.492,4.84c-0.65-0.351-1.066-1.075-0.916-1.357
    C29.804,3.06,30.752,3.098,31.299,3.376z"/>
<path fill="#B2ADAD" stroke="#000000" stroke-width="0.05" d="M36.271,5.14
    c0.846,0.836,1.791,2.493,1.194,3.225c-0.474,0.58-1.733,0.146-2.944-1.054c-1.213-1.2-1.949-2.658-1.416-3.186
    C33.637,3.597,35.059,3.94,36.271,5.14z"/>
<path fill="#F2F1F1" d="M6.198,97.714c-1.054-0.642-1.725-1.633-2.036-2.953c-0.079-0.381-0.156-0.817-0.232-1.278
    c0.063-0.092,0.114-0.135,0.154-0.133c0.053,0.002,0.087,0.081,0.106,0.221c0.085,0.585,0.223,1.119,0.419,1.597
    c0.298,0.729,0.731,1.325,1.318,1.775c0.526,0.402,1.175,0.688,1.96,0.843c0.862,0.163,1.723,0.33,2.635,0.479
    c0.593,0.137,0.827,0.389,0.899,0.691c-1.146-0.098-2.26-0.281-3.346-0.547C7.352,98.269,6.727,98.036,6.198,97.714z"/>
<path fill="#F2F1F1" d="M36.228,97.714c1.056-0.642,1.726-1.633,2.036-2.953c0.078-0.381,0.156-0.817,0.232-1.278
    c-0.063-0.092-0.114-0.135-0.155-0.133c-0.054,0.002-0.086,0.081-0.106,0.221c-0.084,0.585-0.222,1.119-0.418,1.597
    c-0.299,0.729-0.729,1.325-1.318,1.775c-0.524,0.402-1.174,0.688-1.959,0.843c-0.861,0.163-1.725,0.33-2.637,0.479
    c-0.592,0.137-0.826,0.389-0.896,0.691c1.146-0.098,2.261-0.281,3.346-0.547C35.074,98.269,35.699,98.036,36.228,97.714z"/>
<path fill="none" stroke="#0A0C06" stroke-width="0.15" d="M7.123,29.925
    c1.262-8.24,2.731-16.284,4.908-23.664c0.928-2.608,1.77-3.455,2.827-3.859c2.068-0.64,5.607-1.466,6.356-1.468
    c0.749,0.002,4.287,0.828,6.354,1.468c1.059,0.404,1.898,1.251,2.828,3.859c2.176,7.38,3.646,15.424,4.906,23.664"/>
<path fill="none" stroke="#000000" stroke-width="0.15" d="M5.97,29.193
    C6.697,22.402,7.703,14.905,8.962,6.91"/>
<path fill="none" stroke="#000000" stroke-width="0.15" d="M33.656,6.91
    c1.261,7.995,2.268,15.492,2.992,22.283"/>
<path fill="none" stroke="#000000" stroke-width="0.05" d="M21.211,23.982
    c-3.404,0.002-6.758,0.478-9.969,1.415c-0.298,0.083-0.461,0.083-0.553-0.004c-0.11-0.102-0.12-0.326-0.034-0.749
    c0.098-0.472,0.191-0.794,0.603-0.973c2.838-1.074,5.997-1.575,9.939-1.575c0.01,0,0.018,0,0.026,0c3.943,0,7.103,0.5,9.938,1.574
    c0.412,0.179,0.506,0.502,0.604,0.974c0.086,0.422,0.075,0.646-0.033,0.749c-0.045,0.045-0.109,0.067-0.199,0.067
    s-0.203-0.021-0.352-0.062c-3.211-0.937-6.562-1.413-9.969-1.415"/>
<path fill="none" stroke="#000000" stroke-width="0.05" d="M31.646,24.461l0.082,0.039
    c-6.935-2.129-14.089-2.113-21.016,0.016l0.025-0.054"/>
<path fill="none" stroke="#000000" stroke-width="0.05" d="M4.53,9.039
    C3.344,23.903,3.462,39.105,3.576,53.806c0,10.238,0.198,34.853,2.025,42.287"/>
<path fill="none" stroke="#020101" stroke-width="0.05" d="M36.826,96.093
    c4.184-7.203,1.22-87.065,1.22-87.065"/>
<path fill="none" stroke="#000000" stroke-width="0.15" d="M36.68,31.337
    c-3.262-3.12-8.609-4.775-15.466-4.786c-6.856,0.011-12.204,1.666-15.466,4.786"/>
<path fill="#0A0C06" d="M21.562,3.005c0,0.184-0.202,0.333-0.45,0.333c-0.25,0-0.453-0.149-0.453-0.333s0.203-0.333,0.453-0.333
    C21.359,2.672,21.562,2.822,21.562,3.005z M21.531,3.005c0-0.166-0.188-0.302-0.42-0.302c-0.232,0-0.421,0.136-0.421,0.302
    s0.188,0.302,0.421,0.302C21.343,3.307,21.531,3.172,21.531,3.005z"/>
<path fill="none" stroke="#000000" stroke-width="0.05" d="M11.381,1.856l-0.046,0.046
    c-0.451,0.442-1.209,0.702-1.818,0.911L9.501,2.819L9.252,2.904c-0.804,0.274-1.564,0.533-2.32,0.913
    c-2,1.12-2.287,2.064-2.915,4.135L3.992,8.034C3.864,8.452,3.764,8.887,3.666,9.307L3.649,9.384
    c-0.014,0.059-0.028,0.12-0.042,0.185c-0.155,0.679-0.367,1.607-0.718,2.138"/>
<path fill="none" stroke="#000000" stroke-width="0.05" d="M31.051,1.859c0,0,3.676,1.605,4.432,1.985
    c1.987,1.114,3.678,7.343,4.03,7.878"/>
<path fill="none" stroke="#000000" stroke-width="0.05" d="M36.48,92.407
    c-0.271,2.588-0.457,3.298-3.246,4.104c-3.094,0.716-6.914,1.06-12.022,1.082c-5.107-0.022-8.927-0.366-12.021-1.082
    c-2.787-0.809-2.974-1.519-3.245-4.104"/>
<path fill="none" stroke="#000000" stroke-width="0.05" d="M35.496,97.231
    c0.229-0.669,0.226-0.845-0.037-1.708l-0.033-0.1c-0.846-2.483-1.716-5.054-2.67-7.533c-0.439-0.95-0.83-1.396-1.88-1.396
    c-0.065,0-7.054,0.47-9.587,0.47c-0.049-0.002-6.309-0.238-9.523-0.463c-0.07-0.004-0.138-0.007-0.203-0.007
    c-1.053,0-1.444,0.446-1.886,1.397c-0.942,2.449-1.802,4.98-2.634,7.431l-0.067,0.199c-0.262,0.862-0.266,1.039-0.038,1.709"/>
<path fill="#FFFFFF" stroke="#000000" stroke-width="0.05" d="M3.455,34.792
    c0.287-0.071,0.346,0.003,0.423,0.306c0.102-0.01,0.192-0.071,0.271-0.185c0.079-0.124-0.031-0.241,0.1-0.416
    c0.142-0.165,0.176-0.225,0.384-0.07c0.039-0.546,0.149-0.854,0.37-0.788c0.018,0.058,0.036,0.118,0.053,0.178
    c0.341,1.137,0.673,2.28,0.995,3.431c-0.255,0.086-0.428,0.033-0.528-0.18c-0.148-0.314-0.304-0.623-0.517-0.895
    c-0.136,0.066-0.262,0.145-0.381,0.236c-0.055,0.042-0.108,0.086-0.161,0.134c-0.014,0.013-0.028,0.025-0.042,0.038
    c-0.009-0.347-0.184-0.344-0.405-0.214c0.059,0.27,0.042,0.431-0.05,0.484c-0.172,0.095-0.349,0.188-0.527,0.278
    c-0.154,0.078-0.311,0.153-0.469,0.228c-0.763,0.356-1.573,0.673-2.409,0.969c-0.312,0.095-0.491-0.072-0.537-0.502
    c-0.002-1.19,1.05-2.131,2.951-2.869c0.084-0.033,0.169-0.065,0.256-0.096C3.319,34.83,3.392,34.808,3.455,34.792z"/>
<path fill="#FFFFFF" stroke="#000000" stroke-width="0.05" d="M38.979,34.792
    c-0.287-0.071-0.346,0.003-0.424,0.306c-0.102-0.01-0.191-0.071-0.271-0.185c-0.078-0.124,0.031-0.241-0.101-0.416
    c-0.142-0.165-0.175-0.225-0.384-0.07c-0.039-0.546-0.148-0.854-0.37-0.788c-0.019,0.058-0.036,0.118-0.054,0.178
    c-0.34,1.137-0.672,2.28-0.994,3.431c0.255,0.086,0.429,0.033,0.527-0.18c0.146-0.314,0.305-0.623,0.518-0.895
    c0.137,0.066,0.262,0.145,0.381,0.236c0.055,0.042,0.107,0.086,0.161,0.134c0.015,0.013,0.026,0.025,0.041,0.038
    c0.009-0.347,0.185-0.344,0.403-0.214c-0.057,0.27-0.041,0.431,0.052,0.484c0.173,0.095,0.349,0.188,0.526,0.278
    c0.153,0.078,0.312,0.153,0.471,0.228c0.763,0.356,1.572,0.673,2.408,0.969c0.312,0.095,0.49-0.072,0.535-0.502
    c0.004-1.19-1.049-2.131-2.951-2.869c-0.082-0.033-0.168-0.065-0.256-0.096C39.113,34.83,39.041,34.808,38.979,34.792z"/>
<path fill="#FBC800" d="M0.028,37.728c0.045-0.992,0.834-1.806,2.246-2.474c-1.132,0.583-2.267,1.884-2.031,2.638
    C0.104,37.908,0.027,37.862,0.028,37.728z"/>
<path fill="#FBC800" d="M42.404,37.728c-0.045-0.992-0.834-1.806-2.244-2.474c1.133,0.583,2.269,1.884,2.029,2.638
    C42.33,37.908,42.406,37.862,42.404,37.728z"/>
<polyline fill="none" stroke="#000000" stroke-width="0.05" points="33.713,55.25 36.543,54.317
    39.4,53.375 "/>
<polyline fill="none" stroke="#000000" stroke-width="0.05" points="8.682,55.39 5.39,54.287
    2.994,53.484 "/>
<path fill="none" stroke="#000000" stroke-width="0.05" d="M8.729,72.187c0,0-0.97,1.332-2.156,2.961
    s-2.529,1.682-2.984,0.117C3.134,73.7,2.76,72.421,2.76,72.421"/>
<path fill="none" stroke="#000000" stroke-width="0.05" d="M33.703,72.315c0,0,1.004,1.339,2.23,2.976
    c1.229,1.637,2.555,1.678,2.95,0.092s0.719-2.883,0.719-2.883"/>
<polyline fill="none" stroke="#000000" stroke-width="0.05" points="21.15,1.349 21.322,1.349 21.307,2.5
    21.15,2.5 21.158,1.349 17.511,2.192 14.229,2.953 "/>
<polyline fill="none" stroke="#000000" stroke-width="0.05" points="13.588,3.859 17.541,2.984 21.15,2.5
    21.307,2.5 28.916,3.906 "/>
<polyline fill="none" stroke="#000000" stroke-width="0.05" points="21.322,1.349 24.479,2.102 28.244,3 "/>
<g>
    <path fill="#272A27" d="M21.207,28.95C14.79,28.937,9.543,29.868,5.85,32.053
        C5.8,31.839,5.761,31.631,5.73,31.432c3.017-2.886,8.03-4.778,15.478-4.79c7.447,0.012,12.46,1.904,15.477,4.79
        c-0.03,0.199-0.069,0.407-0.119,0.621C32.872,29.868,27.624,28.937,21.207,28.95z"/>
    <path fill="#0A0C06" d="M5.839,32.078l-0.005-0.021c-0.048-0.21-0.089-0.42-0.12-0.622l-0.001-0.008l0.006-0.005
        c1.571-1.502,3.617-2.672,6.083-3.477c2.665-0.869,5.829-1.312,9.405-1.318c3.576,0.006,6.74,0.449,9.404,1.318
        c2.466,0.804,4.513,1.974,6.083,3.477l0.006,0.005L36.7,31.435c-0.032,0.208-0.072,0.417-0.119,0.622l-0.005,0.021l-0.019-0.011
        c-3.527-2.087-8.504-3.101-15.217-3.101h-0.268c-6.712,0-11.689,1.014-15.216,3.101L5.839,32.078z M21.341,28.934
        c3.243,0,6.145,0.249,8.623,0.738c2.59,0.512,4.808,1.305,6.591,2.356c0.045-0.195,0.083-0.394,0.113-0.591
        c-3.262-3.117-8.607-4.77-15.46-4.78c-6.853,0.011-12.199,1.664-15.461,4.78c0.029,0.192,0.067,0.391,0.113,0.591
        c1.784-1.052,4.001-1.845,6.59-2.356c2.479-0.49,5.379-0.738,8.623-0.738H21.341z"/>
</g>
</svg>
