<?xml version="1.0" encoding="utf-8"?>
<!-- Generator: Adobe Illustrator 15.0.0, SVG Export Plug-In  -->
<!DOCTYPE svg PUBLIC "-//W3C//DTD SVG 1.1 Tiny//EN" "http://www.w3.org/Graphics/SVG/1.1/DTD/svg11-tiny.dtd" [
	<!ENTITY ns_flows "http://ns.adobe.com/Flows/1.0/">
]>
<svg version="1.1" baseProfile="tiny"
	 xmlns="http://www.w3.org/2000/svg" xmlns:xlink="http://www.w3.org/1999/xlink" xmlns:a="http://ns.adobe.com/AdobeSVGViewerExtensions/3.0/"
	 x="0px" y="0px" width="75px" height="130px" overflow="visible" xml:space="preserve">
<defs>
</defs>
<path d="M5.72,0.16c8.6-0.42,17.45,0.07,25.8,0.32c3.29,0.1,6.48,0.16,9.5,0.37c7.55,0.52,14.76,0.5,22.43,0.57
	c3.59,0.43,6.35,1.73,8.26,3.82c0.21,0.23,0.62,0.46,0.66,0.81c0.33,3.43,0.02,6.84,0.04,10.38c0.02,3.78,0.08,7.7,0.37,11.35
	c0.07,0.94,0.43,1.81,0.33,2.79c-0.33,3.56-0.04,7.52,0.02,11.08c-0.31,1.54-0.46,3.08-1.32,4.15c-0.62,0.78-1.44,1.38-2.15,1.76
	c-1.46,0.25-2.66,0.26-3.92,0.16c-6.63-0.53-13.86-0.22-20.82-0.28c-0.2,0-0.88,0.36-1.07,0.5c-0.25,0.19-0.94,0.85-1.1,1.11
	c-0.3,0.46-0.62,0.98-0.62,1.33c-0.03,2.76-0.47,5.37-0.07,7.99c0.05,0.31,0.33,0.86,0.66,0.94c2.96,0.65,7.1,0.85,10.53,0.46
	c2.38,0.24,4.84,0.41,7.44,0.41c0.18,0,0.7-0.76,0.87-0.77c1.23-0.07,2.32,0.01,3.17,0.14c1.18,0.56,2.01,1.05,2.62,1.87
	c0.52,0.69,0.86,1.54,0.75,2.72c0.27,1.19,0.75,2.09,1.36,2.88c0.51,0.67,0.47,1.82,0.49,2.85l0.35,38.86
	c-0.29,0.79-0.31,1.74-0.73,2.54c-1.54,2.89-2.77,6.21-4.16,9.14c-0.95,2-2.83,3.14-4.51,3.91c-1.12,1.08-2.15,1.69-3.31,2.25
	c-0.29,0.14-0.49,0.7-0.93,0.48c-0.3-0.15-0.76-0.17-0.88-0.5c-0.06-0.18-0.04-0.8,0.01-0.87c2.53-3.22,4.31-6.89,6-10.91
	c1.02-2.43,1.52-5.66,2.49-8.41c-0.12-0.94,0.12-1.79,0.41-2.49l0.58-15.26l-0.01-15.15c-0.07-1.28-0.58-2.4-1.11-3.4
	c-0.25-0.48-0.45,0.34-0.44,0.53c0.37,5.94-0.02,12.58,0.14,18.83l0.41,3.71c-0.1,1.76-0.16,3.71-0.2,5.66l-0.43,2.56
	c-0.32,1.04-0.94,1.85-1.55,2.54c-1.19,0.73-2.55,1.3-4.17,1.36l-17.58,0.03l-3.3,0.39l-10.06,0.08c-4.52-1.85-8.17-4.51-10.1-8.78
	c-0.23-0.51-0.49-1.06-0.5-1.61c-0.06-3.04,0.42-6.29,0.04-8.82l0.34-2.3c0.09-4.27,0.01-8.62-0.38-12.53
	c0.28-1.8,0.19-3.57,0.33-5.24c-0.19-0.01-0.5-0.09-0.65,0.19c-0.49,0.9-0.97,1.91-1.21,2.92c-0.4,1.67-1.04,3-1.65,4.33L9.88,88.28
	l-1.12,1.89C7.98,94.4,6.49,97.8,6.05,102.2l0,2.83c-0.62,2.83-1.11,5.98-1.29,9.3c-0.17,2.96-0.47,5.89-0.48,8.89
	c0,0.92,0.18,1.79,0.18,2.54c-0.38,1.42-1.22,2.25-2.32,2.72c-0.26,0.11-0.72-0.04-1-0.21c-0.45-0.28-1.09-0.74-1.09-1.07L0,110.36
	L0.39,108c0.13-2.73-0.12-5.31-0.15-7.61c1.6-8.76,3.59-17.17,6.18-24.93l0.67-3.49c0.5-1.34,0.96-2.86,1.52-4.33
	c0.76-2.01,1.88-3.89,3.08-5.59c0.37-0.52,0.27-1.28,0.48-1.98c0.37-1.24,1.02-2.38,2.13-2.87c0.77-0.34,1.92-0.26,2.99-0.22
	c0.89,0.67,1.37,1.84,2.13,2.6l13.11-0.01c1.11-0.05,1.9-0.74,2.25-1.69c-0.06-1.11-0.07-2.39,0.12-3.03
	c-0.33-1.4-0.46-2.85-1.23-3.57c-0.48-0.79-1.23-1.36-1.89-2.02c-3.92-0.85-8.54-1.13-13.39-0.98c-5.37-0.8-9.76-2.74-13.56-5.14
	c-2.34-1.48-3.85-4.15-3.67-8C0.93,32.94,1.1,30.51,1,28.25l-0.39-2.83C0.36,19.77,0.58,14.64,0.62,8.85C0.93,6.78,1,4.49,1.94,3
	c0.71-1.13,1.73-2.12,3.11-2.55C5.19,0.41,5.58,0.17,5.72,0.16z M7.27,2.39c-0.5,0.02-1.01,0.25-1.46,0.47
	C5.32,3.1,4.85,3.53,4.55,4c-0.8,1.26-1.17,2.96-1.86,4.4L2.53,28.86c0,1.28,0.1,2.5,0.48,3.33c0.1,5.23,2.73,8,5.7,10.28
	c2.71,1.4,5.6,2.61,8.88,3.53l44.86,0.07c1.69-0.36,3.57-0.56,5.52-0.41c0.84-0.27,1.36-0.9,1.79-1.48
	c0.94-1.25,1.42-2.94,1.98-4.59c0.03-4.06-0.22-8.43-0.32-11.74c-0.1-3.38-0.32-6.59-0.5-9.7l0.01-8.42c0-0.58-0.58-0.93-0.78-1.45
	c-0.35-0.89-0.99-1.56-1.85-1.94c-5.23-2.3-12.87-2.82-20.47-2.53c-3.07-0.79-7-1.26-11.05-1.34C27.16,2.28,17.12,2.01,7.27,2.39z
	 M20.61,61.74c-0.77,0.03-1.31,0.6-1.73,1.75l-0.71,26.53c-0.06,4.82,1.82,7.89,4.51,10.02c0.76,0.61,1.95,0.75,2.99,1.46
	c1.66,0.5,4.08,0.63,6.33,0.9c7.45,0.89,15.16,2.08,23.76,1.52c0.95-0.06,1.86-0.39,2.62-0.84c1.37-0.81,2.3-2.17,3.21-3.5
	c0.26-1.13,0.32-2.45,0.64-3.51c0.04-9.96,0.31-19.81,0.2-29.97c0-0.13-0.2-0.55-0.29-0.66c-0.59-0.75-1.32-1.46-1.71-2.77
	c0.02,0.08-0.16-0.27-0.36-0.27c-4.12-0.03-8.14-0.19-11.91-0.6C39.17,61.62,29.61,61.4,20.61,61.74z M12.74,63.13
	c-0.17-0.05-0.81,0.7-0.92,0.89l-1.23,2.01c-2.03,5.84-4,11.82-5.43,18.09c-1.25,5.46-1.97,11.33-3.78,16.15
	c-0.38,8.17-0.06,17.15-0.16,25.72c0,0.25,0.17,0.48,0.35,0.65c0.05,0.05,0.44,0.08,0.51,0.02c0.2-0.14,0.26-0.44,0.31-0.68
	c0.54-2.62,1-5.52,1.24-8.35l-0.01-7.41c0.27-4.58,1.25-8.64,1.87-12.99c0.56-1.46,0.81-3.09,1.35-4.69
	c0.77-2.25,1.77-4.34,2.42-6.88c1.13-4.43,1.36-9.73,2.93-13.88c0.93-2.46,2.52-4.55,3.54-7.09c0.07-0.19-0.15-0.59-0.31-0.61
	C14.35,63.96,13.61,63.37,12.74,63.13z M16.63,9.25c2.07-0.26,4.95-0.41,6.92,0.1c0.98,0.25,1.94,0.65,2.71,1.24l2.14,2.1
	c1.3,1.44,1.22,5.34,0.21,7.08c-0.73,2.31-2.68,3.48-5.57,3.61c-1.68,0.08-3.28-0.01-4.78-0.2c-0.94-0.44-2-0.79-2.89-1.29
	l-1.32-1.32c-0.6-0.88-0.88-2.05-1.32-3.21V13.5c0.69-1.96,1.92-3.35,3.64-4.14C16.42,9.33,16.58,9.25,16.63,9.25z M64.54,66.07
	c0.02-0.01-0.06,0.05-0.09,0.06c-0.35,0.17-0.28,0.62-0.19,0.84l1.81,4.21l0.39,3.03C66.1,79.06,66.3,82.94,66.24,88
	c-0.04,3.51,0.15,7.96-0.58,11.38c0.22,7.1-1.69,12.5-3.65,17.41c-1.23,3.07-2.74,5.88-4.55,8.29c-0.33,0.43,0.29,0.38,0.36,0.32
	c1.77-1.35,3.76-2.44,5.41-3.71c1.2-1.6,2.11-3.29,2.76-5.24c0.91-2.73,2.49-4.8,2.9-7.92c0.33-8.14,0.22-16.79,0.14-25.19
	c-0.01-1.51-0.45-2.91-0.55-4.38l-0.23-10.52c-0.01-0.43-0.38-0.95-0.69-1.4c-0.18-0.28-0.95-1.09-1.22-1.19
	C65.79,65.66,65.16,65.87,64.54,66.07z M16.57,10.57c-0.08,0.03-0.34,0.15-0.4,0.21c-0.72,0.72-1.39,1.44-1.99,2.25
	c-0.23,1.7-0.32,3.52-0.06,4.93c0.68,1.18,1.14,2.29,2.08,2.86c0.95,0.58,1.93,1.04,3.07,1.32c0.61,0.15,1.27,0.27,1.94,0.23
	c2.66-0.16,4.75-1.38,5.89-3.55c-0.01,0.02-0.01-0.53,0.05-0.69c0.57-1.41,0.47-3.62-0.45-4.58c-1.29-1.35-2.66-2.72-4.51-3.29
	h-4.61C17.37,10.27,16.76,10.5,16.57,10.57z M56.15,12.89l3.26,0c2.03,0.28,3.26,1.92,3.28,4.14c0.03,2.95-1.94,4.35-4.64,4.66
	c-2.59,0.3-4.16-1.13-4.81-3.14c-0.21-0.64-0.05-1.39-0.09-2.22c0.24-0.54,0.62-1.04,0.93-1.61C54.72,14.05,55.3,13.27,56.15,12.89z
	 M62.64,29.76c0.22-0.09,0.4,0.16,0.66,0.29l0.16,7.28c0.01,0.31-0.89,0.72-0.91,0.47l-0.3-2.75c-0.07-0.53-0.78-0.33-1.15-0.27
	c-0.32,0.05-0.76,0.13-0.86,0.49c-0.07,0.24,0.2,0.51,0.17,0.74c-0.03,0.29-0.19,0.63-0.39,0.75c-0.22,0.13-0.56,0.11-0.62-0.2
	c-0.04-0.22,0.04-1.05-0.04-1.23c-0.13-0.31-0.38-0.58-0.77-0.51c-0.82,0.14-1.72,0.07-2.65,0.09c0.02,0.7,0.19,1.38-0.16,1.84
	c-0.17,0.23-0.62,0.27-0.72-0.02c-0.17-0.51,0.12-1.41-0.17-1.62c-0.58-0.42-1.32-0.42-2.26-0.36c-0.15,0.01-0.39,0.28-0.49,0.54
	c-0.19,0.5,0.28,0.98,0.02,1.47c-0.15,0.29-0.61,0.37-0.68,0.2c-0.21-0.51-0.11-1.32-0.14-2.06c-0.91-0.3-1.76,0.09-2.66-0.01
	c-0.2-0.02-0.18,0.36-0.25,0.86c-0.08,0.6-0.09,1.51-0.08,2.39c-0.36-0.03-1.08,0.17-1.08-0.36l0-6.89
	c-0.01-0.3,0.63-0.63,0.83-0.27c0.27,0.5,0.19,1.7,0.2,2.55c0,0.29,0.17,0.69,0.32,0.68c0.88-0.03,1.88,0.15,2.61-0.03
	c0.15-0.63,0.02-1.26,0.15-1.75c0.06-0.23,0.28-0.58,0.53-0.47c0.37,0.18,0.35,0.66,0.34,1.04c0,0.31-0.25,1.01,0.28,1.14
	c0.42,0.1,1.37,0.02,2.19,0.04c0.48,0.01,0.12-0.93,0.27-1.32c0.11-0.27,0.32-0.64,0.56-0.55c0.13,0.05,0.41,0.36,0.43,0.47
	c0.06,0.28,0,1.19,0,1.48h3.25c-0.07-0.77,0.09-1.41,0.26-1.97c0.06-0.19,0.51,0.03,0.63,0.36c0.18,0.52,0.21,1.08,0.3,1.62h1.83
	l0.2-3.91C62.44,29.95,62.58,29.78,62.64,29.76z M37.45,48.49c-0.42,0.12-1.01,0.32-1.01,0.71c-0.03,3.29-0.11,6.73,0.18,9.54
	c0.43,0.76,2.33,0.9,2.98,0.15L40,53.85c0.03-1.45,0.05-3.01-0.19-4.17c-0.1-0.46-0.57-0.82-0.93-1
	C38.45,48.46,37.93,48.36,37.45,48.49z M56.55,14.58c-0.72,0.38-1.41,0.92-1.79,1.84v2.03c0,0.42,0.84,0.79,1.25,1.42
	c0.16,0.24,0.77,0.31,1.1,0.36c0.86,0.12,1.51,0.09,2.11-0.1c0.51-0.17,1.05-0.54,1.13-0.97c0.11-0.59,0.38-1.17,0.64-1.68
	c0.12-0.24,0.13-1.22,0.03-1.35c-0.53-0.67-0.92-1.35-1.54-1.8C58.46,14.29,57.29,14.2,56.55,14.58z"/>
</svg>
