<?xml version="1.0" encoding="utf-8"?>
<!-- Generator: Adobe Illustrator 15.0.0, SVG Export Plug-In  -->
<!DOCTYPE svg PUBLIC "-//W3C//DTD SVG 1.1 Tiny//EN" "http://www.w3.org/Graphics/SVG/1.1/DTD/svg11-tiny.dtd" [
	<!ENTITY ns_flows "http://ns.adobe.com/Flows/1.0/">
]>
<svg version="1.1" baseProfile="tiny"
	 xmlns="http://www.w3.org/2000/svg" xmlns:xlink="http://www.w3.org/1999/xlink" xmlns:a="http://ns.adobe.com/AdobeSVGViewerExtensions/3.0/"
	 x="0px" y="0px" width="460px" height="664px" overflow="visible" xml:space="preserve">
<defs>
</defs>
<path d="M20.99,379.81c0.24,0.08,0.6,0.25,1.05,0.46C21.7,380.13,21.35,379.99,20.99,379.81 M228.83,191.01
	c2.47,0.2,6.01-3.67,7.2-4.85c-2.38-1.19-5.94-2.38-9.51-1.19c0,1.19-0.5,2.57-0.5,2.57C226.03,188.73,226.36,190.81,228.83,191.01
	 M209.4,197.59c1.39,0.05,4.06-3.12,5.94-3.22c1.88-0.1,0.35-1.13-0.69-1.32c-2.51-0.46-4.83-3.67-8.12-2.94
	C203.68,190.75,202.95,197.36,209.4,197.59 M233.39,212.14l-13.55,3.71c-9.27,3.09-8.76,8.32-14.5,14.85
	c-0.82,0.93-3.61,2.08-3.47,3.12c0.09,0.6,12.97,6.98,12.97,6.98c10.25,3.42,27.23-6.44,33.07-9.5c-9.5,1.19-29.63,10.21-35.27,3.94
	c-0.74-1.41-0.59-2.82,0-3.94c0,0,2.1-3.86,6.16-6.04c7.54-0.2,11.75-0.89,13.07-1.68c2.77-1.68,4.55-3.34,6.83-3.64
	c9.08-1.18,20.3,1.36,23.17-5.72C251.92,216,242.3,211.25,233.39,212.14 M426.12,503.37c-5.94,8.32-8.32,17.82-1.19,27.32
	c4.75,7.13,17.82,8.32,24.95,2.38c-7.72,10.1-21.98,10.69-29.5,1.58c-6.44-7.79-7.35-19.78-3.15-30.27
	c-3.09-2.89-6.59-9.96-9.61-18.21c-0.82,4.85-2.19,9.79-4.08,14.82c-4.75,11.88-13.07,22.57-13.07,35.64
	c0,5.94,3.37,19.4,18.81,21.39c-12.87,3.96-23.71-10.55-23.56-19.8c0.21-13.07,3.91-25.64,8.66-37.52
	c2.65-7.08,2.38-13.17,0.43-18.82c-4,11.24-9.83,23.31-18,33.11c-24.13,28.91,9.91,75.91,37.42,85.42
	c-17.57-0.9-50.42-24.11-53.59-59.97c-5.05,5.97-9.57,6.8-11.75,16.41c-2.68,11.82,7.45,20.37,10.69,36.83
	c2.57,13.07-10.1,29.5-23.17,23.76c13.07,0,20.2-13.96,17.82-25.84c-2.38-11.88-17.27-27.25-14.81-39.11
	c3.2-15.42,15.63-18.77,21.86-28.52c0.39-2.37,0.9-4.77,1.56-7.21c0.44-1.62,0.83-3.18,1.2-4.69c-0.72-4.96-3.44-9.83-5.93-15.95
	c-11.18,4.28-24.73,10.37-24.38,31.03c0.74,43.81-26,44.62-27.92,50.94c-3.01,9.9,17.46,14.24,15.45,29.85
	c-1.49,11.49-15.94,24.95-30.59,21.78c7.92,0.2,24.43-9.35,24.95-22.38c-0.98-12.12-20.7-17.9-19-30.54
	c1.38-10.25,20.73-10.97,24.54-24.31c3.29-11.52,0.16-26.82-4.83-42.97c-1.06,6.16-2.57,11.99-3.89,16.83
	c-8.51,31.25-40.69,53.86-47.52,53.86c4.5-2.28,31.89-23.19,39.11-48.08c-3.47,1.66-7.65,1.51-11.09-0.35
	c-3.96-2.13-6.58-6.09-6.33-10.58c0.18-3.21,2.76-6.41,5.94-6.83c3.71-0.5,6.88,1.93,7.23,5.04c-1.38-2-3.82-3.35-5.6-3.41
	c-2.63-0.08-4.7,2.52-4.96,5.02c-0.36,3.5,2.66,7.31,6.03,8.24c5.44,1.5,8.09-2.23,10.4-5.84c0.02-0.21,0.05-0.41,0.06-0.62
	c0.76-12.28,7.49-32.87-5.54-46.73c-12.71-13.52-17.82-20.2-9.5-39.21c8.32-16.63,3.56-24.95,1.19-41.58
	c-0.4-2.37-0.27-4.74,0.16-7.01c-0.67,2.07-1.18,4.42-1.45,7.21c-1.12,11.89-3.96,45.99-27.52,43.76c15.91,0,19.54-23.28,21-37.85
	c-5.74,13.27-19.96,27.75-29.41,22.8c12.67,3.37,32.47-41.98,34.85-49.11c5.94-13.07,16.13-51.14,8.32-40.39
	c-2.38,3.27-18.86,11.29-21.38,14.26c-2.52,2.97-5.64,8.61,3.86,14.7c9.5,6.09,7.72,7.87,6.34,13.51
	c2.38-11.88-19.6-6.65-20.79-22.09c-1.19-16.63,29.6-21.57,24.85-35.82c-1.19-4.75-11.88-8.32-15.45-15.45
	c-2.38-5.94-1.19-11.88,0-17.82c3.56-13.07,16.63-17.82,19.01-30.89c-0.36-1.09-0.73-2.41-1.13-3.8
	c-14.57,17.48-37.37,28.4-57.88,29.25c-16.08,0.67-30.72-4.47-41.11-9.58c5.35,6.84,10.45,13.89,12.8,19.17
	c-1.81,1.58-10.2-6-11.05-3.9c-3.61,8.96,0.44,21.53,3.33,28.27c4.75,9.5,8.32,17.82,21.39,21.39
	c-15.74,0.3-22.57-11.14-26.49-19.68c1.19,1.19-5.52,9.32-4.33,18.83c0,7.13,6.91,24.91,16.57,19.86
	c-8.32,9.5-21.39-10.69-21.39-17.82c-1.19-9.5,7.12-26.58,2.38-30.89c-1.19,0-3.72,5.55-6.34,8.71
	c-17.82,16.63,13.46,36.43,7.52,54.26c-4.75,11.88-11.88,24.95,0,35.64c5.94,4.75,16.63,7.13,20.2,1.19
	c-1.58,8.71-20.7,8.71-26.78,2.58c-0.32-0.32-0.56-0.52-0.77-0.65c3.32,10.25,13.35,22.8,19.24,27.38c0,0-5.11-0.88-10.36-3.75
	c0.53,1.1,0.85,1.77,0.85,1.77c0,3.56,1.19,10.69,1.19,14.26c-1.19,11.88-11.88,11.88-17.82,20.2
	c-9.5,14.26,17.82,23.76,22.57,35.64c4.75,15.44-3.56,27.32-11.88,38.02c-4.75,5.94-21.38,27.33-3.56,27.33
	c-22.97,0-7.81-21.39-3.06-27.33c8.32-10.69,16.63-22.57,11.88-38.02c-2.13-5.33-10.34-9.23-17.89-13.19
	c7.22,11.47,15.38,24.48-1.23,40.91c-3.84,3.8-6.92,7.49-9.43,11c3.47,42.27-2.71,97.34-9.68,102.36c8.32-39.57,8.16-70.95,4.8-94.6
	c-4.59,8.36-6.3,15.08-8.66,18.86c-0.53-7.95,3.21-16.02,7.85-24.08c-5.83-34.38-18.19-50.77-18.19-50.77
	c8.22,19.01,1.47,26.14-2.1,40.39s-13.63,27.03-10.71,47.82c-7.72-15.49,1.91-35.78,5.47-50.04c3.56-14.26,0.25-46.3-5.5-46.5
	c-15.84-1.39,4.62,25.56,2.99,41.33c-1.22,10.88-6.19,21.74-13.77,29.19c-9.47,9.31-17.4,14.13-14.5,27.68
	c1.45,6.78-0.38,14.76-5.9,21.05c-3.6,4.1-15.88,6.49-18.99-1.32c2.22,4.53,10.75,3.07,14.4-0.41c6.06-5.77,4.62-13.49,3.17-20.26
	c-2.9-13.55,5.04-18.37,14.5-27.68c7.58-7.45,12.55-18.31,13.77-29.19c1.4-13.56-29.36-53.88-30.43-89.97
	c-1.09,1.34-2,3.17-2.65,5.63c-10.69,33.27,19.27,48.77,19.45,79.75c0.07,12.77-10.69,29.55-26.58,25.99
	c14.11,0.99,19.01-17.82,17.82-26.14c-2.38-30.89-32.08-46.33-21.38-79.6c4.53-16.98,23.58-47.06,4.84-62.2
	c-0.68,9.04-4.01,19.5-11.44,29.72c-4.95,6.8-13.15,13.19-18.54,20.15c0.44,2.36,1.54,4.64,3.56,6.79
	c8.65,9.16,21.14,16.09,15.64,29.31c1.19-13.07-13.07-17.82-20.2-23.76c-1.43-1.22-2.67-2.42-3.76-3.59
	c-3.57,12.31,10.54,13.91,19.01,21.71c11.61,10.7,8.42,24.75-2.84,25.44c14.26-5.94,7.13-19.01-3.56-24.95
	c-9.5-4.75-23.76-9.5-19.01-23.76c0.67-1.33,1.46-2.64,2.33-3.94c-8.8-16.14,12.77-27.75,13.77-47.93
	c1.19-16.63-15.1-40.44-23.76-45.29c-10.5-5.99-21.35-5.5-20.59-1.63c1.58,8.12,32.51,15.93,24.75,35.05
	c-4.81,11.85-12,8.95-14.99,7.59c8.8,3.39,13.07-7.86,9.64-14.72c-4.75-8.32-14.11-12.77-21.24-18.71
	c-7.13-4.75-13.92-10.9-8.46-18.12c5.05-6.68,12.28-5.34,20.59-4.16c21.38,4.75,11.48-8.91,16.24-21.98
	c7.13-21.39,35.7-10.4,41.58-39.21c-1.78,1.04-7.28,3.27-11.29,1.19c-4.01-2.08-7.43-6.68-4.16-10.69v3.56
	c4.75,7.13,14.26,2.38,16.63-3.56c1.09-3.28,0.43-7.06-0.38-10.99c-3.82-1.38-8.05-3.14-12.69-4.31
	c-12.44-3.12-13.66,4.16-14.85,8.17c-1.83-15.68,15.83-13.03,26.26-15.19c0.09-0.89,0.23-1.76,0.47-2.63
	c4.75-15.45,26.14-22.57,15.44-40.39c-7.13-14.26-15.44-23.76-19.01-39.21c-3.56-14.26-2.38-28.51,5.94-40.4
	c4.75-7.13,11.88-13.07,14.26-21.38c0,0-9.5,8.12-18.22,18.81c-8.71,10.69-8.91,19.41-9.11,27.52c-5.94-8.32,1.19-22.57,5.94-29.7
	c7.13-10.69,17.82-17.82,22.57-29.7c2.38-8.32,0-21.38,8.32-27.33c4.75-3.56,10.69-2.38,14.26-3.56c7.13-2.38,7.13-7.13,10.69-11.88
	c3.56-4.75,11.88-11.88,17.82-7.13c2.38,0,3.56,1.19,5.94,1.19c0,0-2.38-12.13,4.6-17.82c-1.78,5.35-0.74,10.54,3.71,10.69
	c2.38-5.94,7.13-7.13,11.88-9.5c5.94-2.38,11.88-7.13,17.82-8.32C200.39-1.56,205.14,2,211.08,2c4.75,0,10.69-2.38,15.44,0
	c5.94,2.38,8.32,7.13,15.44,10.69c5.94,1.19,10.69,3.56,16.63,3.56c16.63-1.19,23.76-7.13,36.83,5.94
	c8.32,9.5,17.18,19.64,28.51,16.63c-0.99,2.18-9.7,4.36-15.05,2.18c-2.57,3.76,8.96,7.21,10.83,12.12
	c6.16,16.17,18.48,17.78,33.92,21.35c34.45,8.32,6.67,36.45,17.82,57.03c3.86,7.13,19.01,20.2,29.7,11.88
	c-7.28,9.65-20.2,12.03-27.33,8.32c3.9,5.49,9.65,10.36,19.01,16.63c13.07,8.76,34.45,12.33,45.15,4.01l0.74-0.85
	c-5.79,12.14-35.2,14.25-48.26,5.48c-0.74-0.5-1.45-0.98-2.14-1.46c11.76,13.97,34.53,33.8,53.23,21.33
	c-11.76,9.43-24.01,9.6-34.8,5.7c2.1,5.29,3.37,10.9,3.91,14.12c2.38,10.69,9.95,35.42,24.95,31.26
	c-15.45,7.13-23.67-12.08-27.92-22.18c-0.51-1.21-1.06-2.38-1.65-3.52c1,7.01,0.81,14.31-0.13,22.33c-0.03,0.28-0.05,0.54-0.08,0.81
	c14.04,12.33,41.07,20.47,41.07,48.3c-4.41-21.26-26.59-29.18-42.12-38.5c-0.66,7.48-0.18,13.68,5.73,21.56
	c4.57,6.09,17.82,21.53,29.85,13.96c-6.53,8.17-17.64,4.3-21.38,2.54c-8.91-4.18-20.39-15.41-23.76-29.87
	c-4.75,9.5,4.75,20.2,10.69,27.32c8.32,10.69,14.26,21.39,15.45,34.45c1.19,9.5-3.56,20.2-1.19,28.51
	c3.56,7.13,13.07,15.45,21.38,9.5c-0.59,3.42-6.39,7.28-13.66,4.6c-7.28-2.67,3.41,4.9,3.41,4.9c5.94,3.56,9.06,9.5,6.68,16.63
	c-5.94,13.07-20.2,13.07-13.07,30.89c7.13,15.45,33.27,21.38,32.08,38.02C455.82,476.04,434.43,490.3,426.12,503.37 M94.25,178.83
	c-8.71-17.03-1.39-34.06-5.35-41.38C81.58,152.29,87.13,169.92,94.25,178.83 M68,393.96c-3.72,8.16-12.4,17.76-15.46,26.85
	c3.44-3.81,6.84-7.65,9.37-11.71C64.94,403.05,67.47,398.92,68,393.96 M246.17,59.63c17.82,5.94,17.82,34.45,22.57,49.9
	c2.38,11.88,4.75,24.95,9.5,36.83c3.32,5.81,8.65,16.27,18.31,21.3c-2.21-14.44-3.57-29.29-7.06-43.28c0,0-6.76,16.99,1.58,27.32
	C277.81,150.91,272.57,57.15,246.17,59.63 M265.08,119.96c-0.6-2.93-1.17-5.83-1.73-8.65c-0.61-1.97-1.29-4.19-2.06-6.56L250.48,102
	l-3.27,1.29c0.57,3.4,1.12,6.86,1.68,10.33c0.86-0.04,1.71-0.03,2.57,0.05C251.47,121.19,259.21,120.95,265.08,119.96
	 M256.72,126.77c-1.58-1.14-2.77-0.42-2.77-0.42l-0.05,5.15C253.9,131.5,260.27,129.32,256.72,126.77 M247.66,138.44
	c2.14,13.77,6.27,27.79,17.25,33.46c5.29,2.73,14.39,2.21,22.16-1.72c-20.84,0.82-30.36-13.87-35.81-32.51
	C250.09,137.96,248.88,138.21,247.66,138.44 M248.49,130.22l-0.65-3.84l-0.99,0.64l0.47,2.51L248.49,130.22z M231.28,59.63
	c7.23,7.32,9.95,14.4,11.07,22.02c1.59,4.83,2.81,10.26,3.88,15.99c4.73,0.31,8.88,2.11,13.81,3.32
	C254.61,85.04,245.65,64.42,231.28,59.63 M244.56,104.34l-0.98,0.39c0.2,3.05,0.52,6.24,1.06,9.59c0.5-0.14,1.01-0.25,1.51-0.35
	C245.61,110.73,245.09,107.5,244.56,104.34 M239.59,116.06c-0.58-3.17-1.1-6.2-1.6-9.11l-0.59,0.23c0.51,3.21,0.76,6.48,0.85,9.8
	c0.46-0.25,0.91-0.49,1.38-0.71C239.61,116.2,239.6,116.13,239.59,116.06 M217.42,59.63c-0.32,13.46,9.11,19.6,16.24,35.05
	c0.78,1.64,1.43,3.31,1.98,5.02c0.32-0.14,0.64-0.28,0.96-0.41C233.68,84.16,229.89,72.24,217.42,59.63 M153.66,483.57
	c0,0-15.84-13.07,0,20.59c3.66,7.77,6.04,19.06,7.43,31.92c2.87-4.73,5.64-9.44,7.62-14.1
	C176.63,503.37,158.41,496.63,153.66,483.57 M299.39,182.99c-0.98-4.3-1.78-8.68-2.49-13.1c-10.05-5.16-21.03-16.48-24.05-21.75
	c-3.14-7.85-5.23-16.21-6.99-24.41l-0.47,1.84c-6.14,2.28-2.64,2.18-5.61,7.72c-0.84,1.57-3.21,2.79-6.18,3.72
	c4.98,18.2,13.77,32.53,34.28,32.73c0.14-0.07,0.28-0.14,0.41-0.22c-0.09,0.08-0.2,0.14-0.29,0.22c1.79,0.01,3.66-0.07,5.63-0.28
	c-2.17,0.38-4.22,0.6-6.18,0.69c-7.26,5.36-19.44,6.15-26.69,2.34c-10.78-5.67-15.42-19.58-17.96-33.3
	c-1.96,0.25-3.75,0.43-5.13,0.55c-0.27,12.66,0.69,24.9,8.73,35.09c8.32,10.69,24.55,14.2,38.31,8.95
	c-14.26,8.32-34.35,2.77-43.07-8.95c-7.84-10.54-8.57-22.7-8.2-35.17l-10.52-2.22c0-2.38,0-4.75-2.38-5.94
	c9.7-13.07,8.24-8.24,13.53-11.94c-0.04-3.63-0.26-7.23-0.81-10.76l-1.24,0.49c0,0-2.97,3.99-2.97,4.3c0,0.31-4.95,1.07-4.95,1.07
	l-3.56,5.15l-5.94,1.19v-8.52c0-1.19,1.19-1.19,2.38-2.38v-1.19c5.29-1.47,9.81-4.62,14.66-7.27c-0.59-1.92-1.3-3.81-2.18-5.67
	c-7.13-15.44-15.88-24.11-20-37.35c-2.77,6.34-3.76,9.7-12.28,11.68l-6.6,0.71c-6.07-1.4-6.47-1.29-11.47-1.23
	c-4.16,0.05-8.91-6.91-11.71,2.63c-1,3.39-6.22,3.9-9.23,7.24c-10.69,14.26-26.73,28.07-21.98,45.89c1.14,4.94,3.25,9.93,5.51,14.98
	c4.15-5.09,10.16-10.23,10.84-14.98c7.13-1.19,15.23,0,22.36,0l1.58,1.21c2.38,0,3.66-1.21,4.85-1.21l8.12,4.46l-2.77,3.76
	c0,0-21.53-0.05-28.81-0.64c-1.04,1.04,1.68,2.23,1.68,2.23h-7.91c0,0,2.08,2.97,2.52,3.12c-2.08,0.59-5.94,0-5.94,0l1.49,2.52
	c0,0-4.46,0.65-6.2,3.54c1.1,2.45,2.19,4.9,3.17,7.38c4.71,1.29,7.6,1.63,13.57-2.69c0.48-0.35-3.43-2.44-3.34-3.02
	c0.09-0.58,7.19,0.17,6.7-0.15c-0.39-0.25-3.3-2.39-3.06-2.57c0.78-0.59,6.69,0.22,7.52-0.3c0.93-0.57-2.7-2.4-1.78-2.43
	c5.4-0.12,12.98,0.26,20.99,0.25c1.19,0,2.38,0,3.56,0c2.38,2.38,3.61,2.6,3.27,7.28c0,1.19-0.89,3.42-0.89,4.6h-2.38
	c-2.38,1.19-0.2,4.75-1.39,5.94c-3.56,0-10.05,7.03-17.43,7.62c-8.32,1.19-8.38-2.36-15.51-4.74c-2.23-0.89-4.63-1.3-7-1.2
	c1.08,4.3,1.54,8.64,0.92,13.02c-3.27,23.07,5.35,30.94,11.29,48.77c3.56,10.69,8.42,17.78,17.82,30.39
	c0.94,1.26,2.09,2.72,3.36,4.31c0.17,0.16,24.26,22.26,54.12,20.34c22.47-1.44,45.4-19.26,52.58-35.07
	c-0.05-0.09-0.1-0.19-0.16-0.27c0.26-0.38,0.52-0.78,0.78-1.19c0,0,0,0,0,0C298.18,228.2,303.76,202.09,299.39,182.99
	 M162.47,157.94c0.39,1.97,4.46,4.65,9.21,2.48c-4.31-2.05-4.36-7.03-4.36-7.03S161.77,154.47,162.47,157.94 M173.46,154.87
	c0.66,0,1.19-0.67,1.19-1.49c0-0.82-0.53-1.48-1.19-1.48c-0.66,0-1.19,0.66-1.19,1.48C172.27,154.2,172.8,154.87,173.46,154.87
	 M180.19,154.27c0.6,0,1.09-0.4,1.09-0.89c0-0.49-0.49-0.89-1.09-0.89s-1.09,0.4-1.09,0.89
	C179.1,153.88,179.59,154.27,180.19,154.27 M185.44,151.7c2.48-0.4,1.98-3.17,1.68-4.06c-0.3-0.89-2.67-0.4-2.67-0.4
	S185.73,150.41,185.44,151.7 M428.2,452.58c17.38,12.62,4.31,31.33-1.63,42.47C431.59,485.83,465.03,462.67,428.2,452.58
	 M424.34,461.39c-9.23-3.91-12.41,29.91-6.41,41.37c0.55-1.21,1.16-2.4,1.85-3.55C426.71,487.72,434.63,465.74,424.34,461.39"/>
</svg>
