<?xml version="1.0" encoding="utf-8"?>
<!-- Generator: Adobe Illustrator 15.0.0, SVG Export Plug-In  -->
<!DOCTYPE svg PUBLIC "-//W3C//DTD SVG 1.1 Tiny//EN" "http://www.w3.org/Graphics/SVG/1.1/DTD/svg11-tiny.dtd" [
	<!ENTITY ns_flows "http://ns.adobe.com/Flows/1.0/">
]>
<svg version="1.1" baseProfile="tiny"
	 xmlns="http://www.w3.org/2000/svg" xmlns:xlink="http://www.w3.org/1999/xlink" xmlns:a="http://ns.adobe.com/AdobeSVGViewerExtensions/3.0/"
	 x="0px" y="0px" width="512px" height="778px" overflow="visible" xml:space="preserve">
<defs>
</defs>
<path d="M213.6,416.78c-0.49,0.11-1,0.18-1.53,0.18c-1.04,0-2.05-0.12-3.02-0.36c-3.76,12.37-13.81,31.56-40.59,48.91
	c27.27,73.56,42.58,163.34,42.83,164.8v0.03c0,0,0-0.01,0-0.02c0,0,0,0.02,0,0.02v-0.03c0.25-1.46,15.56-91.24,42.83-164.8
	C227.48,448.24,217.41,429.15,213.6,416.78 M212.41,557.67c0,0-9.85-75.68-10.4-81.22c-0.47-4.77,3.32-10.4,8.51-10.4
	c5.17,0,9.85,2.97,10.4,8.51C221.39,479.32,212.41,557.67,212.41,557.67 M211.3,227c0,0-20.67-65,0-169.5
	C231.96,162,211.3,227,211.3,227 M364.14,285.2c0.38-26.51,12.69-60.09,0.83-76.2c-5.73,16.99-38.68,66.3-72.64,93.33
	c-3.46,2.75-5.62,1.36-2.82-2.48c17.15-23.48,43.69-64.54,56.89-95.9l0,0.01c0,0,40.54-40.61,68.05-23.6
	c-5.52-13.67-34.21-16.25-61.58-1.93c-20.82-15.83-18.54-71.86-34.96-77.82c1.99,29.71-2.21,101.4-24.83,152.86
	c-1.91,4.34-4.75,4.24-4.03-0.25c9.13-57.35,15.92-151.54-27.08-212.96c-1.81-2.58-8.5-9.25-13.5-10
	c42.03,58.73,30.5,170.25,11.5,199.25c10.99-75.65-14.82-166.54-46.12-210.47c4.07-7.9,8.01-14.34,11.45-19.03
	c-4.86,3.72-9.73,8.77-14.5,14.92c-4.77-6.16-9.64-11.2-14.5-14.92c3.44,4.69,7.38,11.13,11.45,19.03
	c-31.3,43.93-57.1,134.82-46.11,210.47c-19-29-30.53-140.52,11.5-199.25c-5,0.75-11.69,7.42-13.5,10
	c-43,61.42-36.21,155.6-27.08,212.96c0.71,4.49-2.13,4.59-4.03,0.25C105.89,202,101.69,130.31,103.68,100.6
	c-16.42,5.96-14.14,61.99-34.96,77.82c-27.37-14.32-56.06-11.74-61.58,1.93c27.51-17.01,68.05,23.6,68.05,23.6l0-0.01
	c13.2,31.36,39.75,72.43,56.9,95.91c2.8,3.83,0.63,5.23-2.82,2.48C95.31,275.3,62.36,225.99,56.63,209
	c-11.87,16.1,0.45,49.69,0.83,76.2c-30.04-4.97-56.31,6.1-57.46,20.62c19.2-22.25,62.69-2.26,70.48,1.57
	c20.09,10.5,49.44,20.84,66.04,26.12c3.89,1.24,3.1,2.85-0.05,2.76C95.13,335.16,48.3,323,48.3,323
	c14.86,12.41,23.02,31.28,31.24,46.27c-27.58,0.34-46.92,14.37-46.74,27.89c13.38-19.15,47.55-11.83,63.34-7.15
	c2.5,1.49,5.22,2.45,8.24,2.73l50-46.82l5.67,5.15c-19.13,24.11-56.17,59.29-56.17,59.29c10.17,0,20.32,1.64,25.48,5.1
	c11.97-13.71,43.27-57.72,43.27-57.72s5,2.75,7.5,4.25c-2.5,7.5-27.75,46-45.33,62.83c8.17-1,18.07,2.24,22.33,3.17
	c9.13-11.75,19.92-28.45,29.09-43.38c-0.68,36.54-25.26,74.92-71.92,91.88c1.29,0.25,2.79,0.18,3.96,0.06
	c52.02-7.94,96.83-61.54,88.85-123.21c-33.12-2.16-59.32-29.69-59.32-63.35c0-28.77,19.13-53.05,45.35-60.86
	c-25.51-79.45-3.38-159.92,17.65-203.95c21.01,43.98,43.11,124.33,17.73,203.69c26.7,7.51,46.27,32.02,46.27,61.12
	c0,34.01-26.73,61.77-60.33,63.43c-7.93,61.64,36.86,115.2,88.86,123.14c1.17,0.12,2.67,0.19,3.96-0.06
	c-46.66-16.97-71.24-55.35-71.92-91.88c9.17,14.94,19.95,31.63,29.09,43.38c4.26-0.93,14.17-4.17,22.33-3.17
	C269.21,408,243.96,369.5,241.46,362c2.5-1.5,7.5-4.25,7.5-4.25s31.3,44.01,43.27,57.72c5.16-3.45,15.31-5.1,25.48-5.1
	c0,0-37.04-35.19-56.17-59.29l5.67-5.15l49.99,46.82v0.01l0,0l0,0c3.03-0.28,5.75-1.24,8.25-2.73c15.8-4.68,49.95-12,63.33,7.15
	c0.18-13.52-19.16-27.55-46.74-27.89c8.22-15,16.38-33.86,31.24-46.27c0,0-46.84,12.16-88.17,13.28c-3.15,0.08-3.94-1.53-0.05-2.76
	c16.62-5.29,46.02-15.65,66.11-26.16c8-3.94,51.26-23.71,70.4-1.54C420.44,291.29,394.17,280.23,364.14,285.2 M329.88,166.64
	c0.03,0.08,0.05,0.15,0.08,0.23c2.74,8.02,5.36,15.7,9.63,20c0,0,0,0,0,0l0,0.01l-18.45,33.73
	C324.91,202.16,328.19,181.56,329.88,166.64 M82.01,186.87c4.28-4.29,6.9-11.97,9.63-20c0.03-0.08,0.05-0.15,0.08-0.23
	c1.69,14.93,4.97,35.52,8.75,53.97L82.01,186.87z M73.77,289.45c-0.63-3.99-1.99-9.69-3.62-16.51c-1.67-6.97-3.97-16.63-5.31-24.65
	c0.85,1.25,1.72,2.53,2.62,3.86c10.14,14.94,22.86,33.67,37.26,48.38L73.77,289.45z M103.42,372.25
	c-5.62-1.46-13.58-12.89-20.07-22.19c-2.33-3.35-4.62-6.63-6.9-9.68c17.6,5.68,32.83,9.25,46.58,10.92L103.42,372.25z
	 M345.15,340.38c-2.28,3.05-4.57,6.34-6.9,9.68c-6.48,9.29-14.44,20.71-20.05,22.19c-0.01,0-0.01,0-0.02,0l-19.61-20.95
	C312.32,349.62,327.54,346.06,345.15,340.38 M354.13,252.15c0.9-1.33,1.77-2.61,2.62-3.86c-1.33,8.02-3.64,17.68-5.31,24.65
	c-1.63,6.81-2.99,12.52-3.62,16.5c0,0,0,0-0.01,0v0l-30.95,11.07C331.27,285.81,343.99,267.08,354.13,252.15 M159.8,290
	c0,28.44,23.06,51.5,51.5,51.5s51.5-23.06,51.5-51.5s-23.06-51.5-51.5-51.5S159.8,261.56,159.8,290 M211.3,264.33
	c14.18,0,25.67,11.49,25.67,25.67s-11.49,25.67-25.67,25.67s-25.67-11.49-25.67-25.67S197.12,264.33,211.3,264.33"/>
</svg>
