<?xml version="1.0" encoding="utf-8"?>
<!-- Generator: Adobe Illustrator 15.0.1, SVG Export Plug-In  -->
<!DOCTYPE svg PUBLIC "-//W3C//DTD SVG 1.1 Tiny//EN" "http://www.w3.org/Graphics/SVG/1.1/DTD/svg11-tiny.dtd" [
	<!ENTITY ns_flows "http://ns.adobe.com/Flows/1.0/">
]>
<svg version="1.1" baseProfile="tiny"
	 xmlns="http://www.w3.org/2000/svg" xmlns:xlink="http://www.w3.org/1999/xlink" xmlns:a="http://ns.adobe.com/AdobeSVGViewerExtensions/3.0/"
	 x="0px" y="0px" width="519px" height="108px" viewBox="-0.52 -0.7 519 108" overflow="visible" xml:space="preserve">
<defs>
</defs>
<path fill="#5A3D1C" d="M409.47,52.71c0.96,0,1.74,0.78,1.74,1.74l0,0c0,0.96-0.78,1.74-1.74,1.74H109.82
	c-0.96,0-1.74-0.78-1.74-1.74l0,0c0-0.96,0.78-1.74,1.74-1.74H409.47z"/>
<path fill="#5A3D1C" d="M417.9,54.25c0-1.29-1.04-2.33-2.33-2.33c-1.29,0-2.33,1.04-2.33,2.33c0,1.29,1.05,2.33,2.33,2.33
	C416.86,56.58,417.9,55.54,417.9,54.25z M426.51,53.89c0-2.08-1.44-3.77-3.23-3.77c-1.78,0-3.23,1.69-3.23,3.77
	c0,2.08,1.44,3.76,3.23,3.76C425.07,57.66,426.51,55.97,426.51,53.89z M435.57,53.44c0-3.27-1.69-5.92-3.77-5.92
	c-2.08,0-3.77,2.65-3.77,5.92c0,3.27,1.69,5.92,3.77,5.92C433.89,59.36,435.57,56.71,435.57,53.44z M499.97,59.12
	c-6.51,0.72-12.8-0.87-18.74-3.46c-1.03-0.45-2.06-0.91-3.09-1.38c-11.45,5.19-23.55,11.11-36.03,4c-1.33-0.76-3.18-1.49-4.12-2.7
	l0.36,4.3c6.21,10.32,18.97,16.09,30.81,14.97c6.39-0.6,13.15-2.34,18.93-5.14c5.61-2.72,10.82-6.37,16.28-9.41
	c4.71-2.61,8.34-3.92,13.75-4.16c-1.13,0.05-2.88-0.87-4.61-1.89c-1.64,0.97-3.27,2.03-4.33,2.45
	C506.21,57.89,503.14,58.77,499.97,59.12z M437.93,46.77l-0.36,4.3c0.94-1.21,2.79-1.94,4.12-2.7c13.61-7.76,26.78,0,39.15,5.39
	c5.94,2.59,12.22,4.19,18.73,3.46c3.17-0.35,6.25-1.24,9.21-2.41c2.19-0.86,6.73-4.42,8.92-4.32c-5.42-0.25-9.05-1.55-13.75-4.17
	c-5.46-3.03-10.66-6.68-16.28-9.4c-5.77-2.8-12.54-4.53-18.93-5.14C456.9,30.68,444.14,36.45,437.93,46.77z M454.07,60
	c3.76,0,6.8-3.04,6.8-6.8c0-3.76-3.05-6.8-6.8-6.8c-3.75,0-6.8,3.04-6.8,6.8C447.27,56.96,450.31,60,454.07,60z M449.42,53.31
	c0-2.5,2.03-4.53,4.54-4.53c2.5,0,4.53,2.03,4.53,4.53c0,2.5-2.03,4.54-4.53,4.54C451.46,57.84,449.42,55.81,449.42,53.31z
	 M456.84,53.32c0-1.73-1.4-3.13-3.13-3.13c-1.73,0-3.13,1.4-3.13,3.13c0,1.73,1.4,3.13,3.13,3.13
	C455.44,56.46,456.84,55.05,456.84,53.32z M451.58,53.38c0-1.15,0.93-2.09,2.08-2.09c0.53,0,1.01,0.2,1.38,0.53
	c-0.62,0.15-1.08,0.7-1.08,1.36c0,0.77,0.63,1.4,1.4,1.4c-0.38,0.53-1,0.88-1.7,0.88C452.51,55.46,451.58,54.53,451.58,53.38z
	 M411.76,22.62c0.03-0.1,0.07-0.21,0.11-0.31C411.8,22.42,411.77,22.52,411.76,22.62z M427.96,44.75c-1.35-0.74-2.45-1.61-3.63-2.59
	c-2.97-2.46-6.35-5.85-7.77-9.51c1.75,2.7,4.56,4.17,7.18,5.9c1.29,0.85,2.53,1.75,3.87,2.52c0.87,0.5,4.53,1.55,4.95,2.31
	c-0.41-0.75-0.61-1.67-0.89-2.43c-0.52-1.45-0.71-2.86-0.87-4.4c-0.37-3.6-1.28-7-3.16-10.13c-0.9-1.5-1.98-2.56-3.69-3.07
	c-1.99-0.6-3.9-0.53-5.92-0.17c-1.44,0.25-3.27,0.86-4.73,0.52c-0.56-0.13-1.6-0.44-1.54-1.09c-0.63,1.9-1.37,3.7-1.57,5.73
	c-0.4,4.04,0.51,8.5,3.19,11.64c4.01,4.69,10.45,6.03,16.41,5.78C429.17,45.45,428.54,45.08,427.96,44.75z M451.92,14.98
	c-0.83,2.06-0.25,4.41,0.52,6.39c0.91,2.33,1.51,4.35,0.82,6.86c-0.36,1.33-0.97,2.54-1.66,3.72c1.86-3.18,10.05-7.53,6.56-12.64
	c2.93-0.23,0.57,9.69-0.08,10.99c1.63-0.41,3.23-1.02,4.77-1.69c1.36-0.59,2.12-1.12,2.65-2.53c1.2-3.16,0.08-6.18-0.65-9.31
	c-0.56-2.38-0.06-5.24,2.52-6.13c-3.42-0.56-7.19-0.87-10.54,0.19C454.79,11.47,452.74,12.93,451.92,14.98z M468.56,18.82
	c-0.67,2.02-0.36,4.07-0.82,6.11c-0.18,0.82-0.58,1.84-1.15,2.46c-0.14,0.15-0.28,0.28-0.42,0.41c0.04,0,0.07,0,0.11,0
	c3.02-1.04,5.68-2.92,6.95-5.93c-0.02,2.38-1.37,4.23-2.89,5.94c0.32-0.37,4.5-0.72,5.15-0.92c6.3-1.89,0.03-10.12,5.83-12.49
	c-1.15-0.14-2.31-0.26-3.46-0.41c-1.36-0.18-3.03,0.22-4.33,0.61C471.48,15.23,469.27,16.71,468.56,18.82z M436.35,17.25
	c-1.92,1.63-3.14,3.73-3.8,6.15c-0.79,2.85-1.01,5.89-0.99,8.84c0.02,2.67,0.29,5.38,1.13,7.93c0.47,1.41,1.14,2.68,1.91,3.9
	c-0.03-0.24-0.06-0.48-0.08-0.72c-0.61-6.58,2.77-11.92,5.88-17.32c0.24-0.42,0.55-0.79,0.92-1.1c-3.68,4.43-4.22,11.12-4.19,16.63
	c0,0.92-0.01,1.83-0.02,2.75c0.32-0.55,0.67-1.08,1.12-1.55c0.84-0.91,1.79-1.75,2.73-2.57c1.97-1.74,3.83-3.59,5.65-5.48
	c1.91-1.99,3.75-3.89,4.36-6.66c0.3-1.36,0.38-2.75,0.06-4.11c-0.4-1.72-1.25-3.28-1.79-4.95c-1.04-3.23-0.96-7.23,2.08-9.3
	c-2.85,0.76-5.55,2.21-8.18,3.51C440.77,14.35,438.36,15.56,436.35,17.25z M420.34,18.37c-0.69-1.11-1.09-2.52-1.34-3.8
	c-0.17-0.85-0.4-1.55-0.46-2.41c0.81,1.79,1.8,3.65,3.13,5.11c0.8,0.88,1.72,1.66,2.72,2.34c-0.02-0.22-0.03-0.45-0.02-0.68
	c0.03-0.97-0.2-1.92-0.14-2.9c0.16-2.5,0.38-5.84-1.69-7.66c-0.35-0.31-5.96-2.48-5.98-2.46c-0.31,0.41-0.49,1.11-0.69,1.59
	c-1.47,3.53-1.18,7.91,1.29,10.9c1.05,1.28,2.91,2.83,4.6,3.16c0.48,0.1,0.98,0.18,1.48,0.22
	C422.07,20.83,421.14,19.67,420.34,18.37z M438.92,4.25c-0.95,1.53-1.24,3.24-1.16,5.03c0.01,0.37,0.03,0.73,0.05,1.08
	c1.47-2.59,4.17-6.31,7.26-6.99c-0.89,1.71-2.58,2.84-3.78,4.32c-0.93,1.16-1.87,2.72-2.3,4.13c1.11,0.33,2.61-0.18,3.79-0.42
	c4.33-0.88,5.02-3.74,6.38-7.47c0.26-0.7,0.57-1.68,1.18-2.18c0.61-0.51,1.56-0.63,2.28-1c-2.28-0.35-4.21-1.05-6.55-0.44
	C443.54,0.96,440.36,1.92,438.92,4.25z M427.72,23.11c0.41,1.08,0.9,2.14,1.32,3.23c-0.07-0.75-0.1-1.51-0.14-2.23
	c-0.05-1.18-0.3-2.37-0.21-3.56c0.33-3.94,0.34-8.27,2.33-11.81c-1.62,2.88-1.07,6.83-1.04,9.99c0.02,1.7-0.31,3.32-0.12,5.02
	c0.07,0.62,0.08,1.21,0.09,1.82c0.59-4.4,2.41-7.92,5.12-11.63c2.75-3.76-0.01-8.66,1.52-12.85c0.16-0.44,0.57-0.63,0.7-1.04
	c-0.05,0.16-1.07,0.57-2.3,1.06c-1.75,0.69-3.96,1.54-4.47,2.01c-2.75,2.52-4.1,6.34-4.51,9.97
	C425.63,16.56,426.49,19.86,427.72,23.11z M465.9,27.94c0.07-0.03,0.13-0.05,0.19-0.07c0.03-0.02,0.06-0.05,0.09-0.07
	c-0.03,0-0.07,0-0.1,0L465.9,27.94z M487.79,20.71c-2.44,0.36-4.88,1.33-6.61,3.06c-0.46,0.46-0.86,1.08-1.2,1.64
	c0.68-1.11,8.77,0.15,10.28,0.07c-1.92,0.82-4.03,1.24-6.06,1.72c-1.45,0.34-2.91,0.6-4.36,0.9c0.4-0.08,2.68,1.79,3.17,2.03
	c1.5,0.73,3.2,1.29,4.89,1.35c4.57,0.19,5.71-3.05,7.39-6.58c0.88-1.85,2.3-2.48,4.27-2.69c-2.88,0.31-6.56-1.69-9.64-1.67
	C489.21,20.56,488.5,20.61,487.79,20.71z M475.39,80.07c-0.65-0.19-4.82-0.55-5.15-0.92c1.51,1.71,2.86,3.56,2.88,5.95
	c-1.27-3.01-3.92-4.89-6.94-5.93c-0.04,0-0.08,0-0.11,0c0.14,0.12,0.28,0.26,0.41,0.41c0.57,0.62,0.97,1.64,1.15,2.46
	c0.46,2.04,0.15,4.1,0.82,6.11c0.71,2.11,2.92,3.59,4.98,4.21c1.31,0.39,2.97,0.79,4.33,0.61c1.15-0.15,2.31-0.27,3.46-0.41
	C475.42,90.19,481.7,81.96,475.39,80.07z M479.71,78.86c1.45,0.3,2.92,0.56,4.37,0.9c2.03,0.47,4.14,0.9,6.06,1.72
	c-1.5-0.07-9.59,1.19-10.28,0.07c0.34,0.56,0.74,1.18,1.2,1.64c1.73,1.73,4.18,2.71,6.61,3.06c0.71,0.1,1.42,0.16,2.11,0.16
	c3.08,0.01,6.76-1.99,9.64-1.67c-1.97-0.22-3.39-0.84-4.27-2.69c-1.67-3.52-2.81-6.77-7.39-6.58c-1.68,0.07-3.38,0.63-4.88,1.36
	C482.39,77.07,480.11,78.94,479.71,78.86z M465.8,79.02l0.17,0.14c0.04,0,0.07,0,0.1,0c-0.03-0.02-0.06-0.05-0.09-0.07
	C465.93,79.07,465.87,79.05,465.8,79.02z M452.33,85.6c-0.77,1.98-1.35,4.34-0.52,6.39c0.82,2.05,2.88,3.51,4.92,4.15
	c3.35,1.06,7.12,0.75,10.54,0.19c-2.58-0.9-3.08-3.75-2.52-6.13c0.73-3.13,1.85-6.15,0.65-9.31c-0.54-1.41-1.29-1.94-2.65-2.53
	c-1.54-0.67-3.15-1.28-4.78-1.69c0.65,1.3,3.01,11.22,0.08,10.99c3.5-5.11-4.7-9.46-6.55-12.64c0.69,1.18,1.29,2.39,1.66,3.72
	C453.84,81.25,453.24,83.27,452.33,85.6z M449.12,87.97c0.54-1.67,1.39-3.23,1.79-4.95c0.31-1.37,0.24-2.75-0.06-4.12
	c-0.61-2.77-2.45-4.67-4.36-6.65c-1.82-1.89-3.68-3.75-5.64-5.48c-0.93-0.82-1.88-1.65-2.73-2.57c-0.44-0.48-0.8-1-1.11-1.55
	c0.01,0.92,0.02,1.83,0.02,2.75c-0.02,5.52,0.51,12.2,4.19,16.63c-0.36-0.31-0.68-0.69-0.92-1.1c-3.11-5.4-6.49-10.74-5.88-17.32
	c0.02-0.24,0.06-0.48,0.08-0.72c-0.77,1.22-1.44,2.49-1.91,3.9c-0.84,2.55-1.12,5.26-1.13,7.93c-0.02,2.95,0.21,5.98,0.99,8.84
	c0.66,2.42,1.88,4.52,3.8,6.14c2.01,1.7,4.42,2.9,6.77,4.06c2.63,1.3,5.33,2.74,8.18,3.5C448.16,95.2,448.08,91.21,449.12,87.97z
	 M413.2,83.26c1.46-0.35,3.29,0.26,4.73,0.51c2.02,0.36,3.93,0.42,5.92-0.17c1.71-0.51,2.79-1.58,3.69-3.07
	c1.87-3.12,2.79-6.53,3.16-10.13c0.16-1.53,0.35-2.94,0.87-4.4c0.27-0.76,0.48-1.68,0.89-2.43c-0.42,0.77-4.08,1.82-4.95,2.31
	c-1.34,0.77-2.58,1.67-3.87,2.52c-2.62,1.73-5.43,3.2-7.18,5.9c1.41-3.66,4.8-7.06,7.77-9.51c1.18-0.98,2.29-1.84,3.63-2.59
	c0.58-0.32,1.2-0.69,1.82-1c-5.97-0.26-12.41,1.08-16.41,5.77c-2.68,3.14-3.59,7.6-3.19,11.64c0.2,2.03,0.94,3.83,1.57,5.73
	C411.6,83.7,412.63,83.4,413.2,83.26z M438.87,95.15c0.43,1.41,1.37,2.97,2.3,4.13c1.2,1.49,2.89,2.61,3.78,4.32
	c-3.08-0.68-5.79-4.4-7.26-7c-0.01,0.35-0.03,0.71-0.05,1.09c-0.07,1.78,0.22,3.49,1.17,5.02c1.44,2.33,4.62,3.29,7.14,3.95
	c2.33,0.61,4.26-0.1,6.55-0.45c-0.72-0.36-1.67-0.49-2.28-1c-0.61-0.5-0.92-1.48-1.18-2.18c-1.36-3.73-2.05-6.59-6.38-7.48
	C441.48,95.33,439.98,94.83,438.87,95.15z M411.76,84.66c-0.03-0.1-0.07-0.21-0.11-0.31C411.67,84.45,411.7,84.55,411.76,84.66z
	 M424.13,90.94c-0.06-0.97,0.17-1.92,0.14-2.89c0-0.23,0-0.46,0.02-0.68c-0.99,0.67-1.92,1.45-2.72,2.33
	c-1.34,1.46-2.32,3.32-3.13,5.11c0.06-0.86,0.29-1.56,0.46-2.42c0.25-1.28,0.66-2.69,1.34-3.8c0.8-1.3,1.73-2.46,2.9-3.41
	c-0.5,0.04-0.99,0.12-1.48,0.21c-1.69,0.34-3.55,1.88-4.6,3.17c-2.46,2.99-2.76,7.38-1.29,10.9c0.2,0.48,0.38,1.19,0.69,1.59
	c0.02,0.02,5.63-2.15,5.98-2.46C424.51,96.78,424.29,93.44,424.13,90.94z M434.99,93.04c-2.71-3.71-4.53-7.24-5.12-11.63
	c-0.01,0.6-0.03,1.2-0.09,1.82c-0.19,1.7,0.14,3.32,0.12,5.02c-0.03,3.16-0.59,7.11,1.04,9.99c-1.99-3.54-2.01-7.87-2.34-11.82
	c-0.1-1.19,0.16-2.38,0.21-3.56c0.03-0.72,0.07-1.48,0.13-2.23c-0.42,1.08-0.91,2.15-1.32,3.22c-1.23,3.26-2.09,6.55-1.69,10.04
	c0.41,3.62,1.76,7.44,4.51,9.96c0.51,0.47,2.72,1.31,4.47,2.01c1.23,0.49,2.25,0.9,2.3,1.06c-0.13-0.41-0.54-0.6-0.7-1.04
	C434.98,101.69,437.73,96.79,434.99,93.04z"/>
<path fill="#5A3D1C" d="M102.55,56.54c1.29,0,2.33-1.04,2.33-2.33s-1.04-2.33-2.33-2.33c-1.29,0-2.33,1.04-2.33,2.33
	S101.26,56.54,102.55,56.54z M94.84,57.62c1.78,0,3.23-1.69,3.23-3.77c0-2.08-1.45-3.77-3.23-3.77s-3.23,1.69-3.23,3.77
	C91.61,55.93,93.06,57.62,94.84,57.62z M86.32,59.32c2.08,0,3.77-2.65,3.77-5.92c0-3.27-1.69-5.92-3.77-5.92s-3.77,2.65-3.77,5.92
	C82.55,56.67,84.24,59.32,86.32,59.32z M8.95,56.68c-1.07-0.42-2.69-1.48-4.34-2.45C2.88,55.25,1.13,56.17,0,56.12
	c5.42,0.25,9.05,1.55,13.75,4.16c5.46,3.03,10.66,6.68,16.28,9.4c5.77,2.8,12.54,4.54,18.93,5.14c11.85,1.12,24.6-4.65,30.81-14.97
	l0.36-4.3c-0.94,1.21-2.79,1.94-4.12,2.7c-12.47,7.11-24.57,1.19-36.03-4c-1.04,0.47-2.07,0.93-3.09,1.38
	c-5.94,2.59-12.22,4.19-18.74,3.46C14.98,58.74,11.91,57.85,8.95,56.68z M49.38,31.76c-6.39,0.6-13.15,2.34-18.93,5.14
	c-5.61,2.72-10.82,6.37-16.28,9.41c-4.71,2.61-8.34,3.92-13.75,4.16c2.19-0.1,6.73,3.45,8.92,4.32c2.96,1.17,6.04,2.06,9.21,2.41
	c6.51,0.72,12.8-0.88,18.74-3.46c12.36-5.39,25.54-13.16,39.15-5.39c1.33,0.76,3.18,1.49,4.12,2.69l-0.36-4.31
	C73.98,36.41,61.22,30.64,49.38,31.76z M70.86,53.16c0-3.76-3.04-6.8-6.8-6.8c-3.76,0-6.8,3.04-6.8,6.8c0,3.76,3.04,6.8,6.8,6.8
	C67.81,59.96,70.86,56.92,70.86,53.16z M64.16,57.8c-2.5,0-4.54-2.03-4.54-4.54c0-2.5,2.03-4.54,4.54-4.54
	c2.5,0,4.53,2.03,4.53,4.54C68.7,55.77,66.67,57.8,64.16,57.8z M64.41,56.42c1.73,0,3.13-1.41,3.13-3.13c0-1.73-1.4-3.13-3.13-3.13
	c-1.73,0-3.13,1.4-3.13,3.13C61.28,55.01,62.68,56.42,64.41,56.42z M64.46,55.42c-0.7,0-1.32-0.35-1.7-0.88c0.77,0,1.4-0.63,1.4-1.4
	c0-0.66-0.46-1.21-1.08-1.36c0.37-0.32,0.85-0.53,1.38-0.53c1.15,0,2.09,0.93,2.09,2.09C66.55,54.49,65.62,55.42,64.46,55.42z
	 M106.26,22.27c0.03,0.1,0.07,0.21,0.1,0.31C106.36,22.48,106.32,22.38,106.26,22.27z M88.33,45.72c5.97,0.26,12.41-1.08,16.41-5.78
	c2.68-3.14,3.59-7.6,3.19-11.64c-0.2-2.02-0.94-3.83-1.57-5.73c0.06,0.65-0.98,0.95-1.54,1.09c-1.46,0.35-3.29-0.26-4.73-0.51
	c-2.02-0.36-3.93-0.42-5.92,0.17c-1.71,0.51-2.79,1.58-3.69,3.07c-1.88,3.12-2.79,6.52-3.16,10.13c-0.16,1.53-0.35,2.94-0.87,4.4
	c-0.27,0.76-0.48,1.68-0.89,2.43c0.41-0.77,4.08-1.82,4.95-2.31c1.34-0.77,2.58-1.67,3.87-2.52c2.62-1.73,5.42-3.2,7.18-5.9
	c-1.41,3.66-4.8,7.06-7.77,9.51c-1.18,0.98-2.29,1.84-3.63,2.59C89.58,45.04,88.96,45.41,88.33,45.72z M61.29,10.79
	c-3.35-1.06-7.12-0.75-10.54-0.19c2.58,0.9,3.08,3.75,2.52,6.13c-0.73,3.13-1.85,6.15-0.65,9.31c0.54,1.41,1.29,1.94,2.65,2.53
	c1.54,0.67,3.15,1.28,4.78,1.69c-0.65-1.3-3.01-11.22-0.08-10.99c-3.49,5.11,4.7,9.46,6.56,12.64c-0.69-1.18-1.29-2.39-1.66-3.72
	c-0.69-2.51-0.09-4.53,0.82-6.86c0.77-1.98,1.35-4.33,0.52-6.39C65.38,12.89,63.33,11.43,61.29,10.79z M44.58,14.57
	c-1.31-0.39-2.98-0.79-4.33-0.61c-1.15,0.15-2.3,0.27-3.46,0.41c5.81,2.37-0.47,10.6,5.84,12.49c0.65,0.19,4.83,0.55,5.15,0.92
	c-1.51-1.71-2.86-3.56-2.89-5.95c1.27,3.01,3.92,4.89,6.95,5.93c0.04,0,0.08,0,0.11,0c-0.14-0.13-0.28-0.26-0.41-0.41
	c-0.57-0.62-0.97-1.64-1.15-2.46c-0.46-2.04-0.15-4.1-0.82-6.11C48.85,16.67,46.64,15.19,44.58,14.57z M75.01,13.16
	c-2.63-1.3-5.33-2.74-8.18-3.5c3.03,2.07,3.12,6.07,2.08,9.3c-0.54,1.67-1.39,3.23-1.79,4.95c-0.32,1.37-0.24,2.75,0.06,4.12
	c0.61,2.77,2.45,4.67,4.36,6.66c1.82,1.89,3.68,3.74,5.64,5.48c0.93,0.82,1.88,1.66,2.73,2.57c0.44,0.48,0.8,1,1.11,1.55
	c-0.01-0.92-0.02-1.83-0.02-2.75c0.02-5.52-0.51-12.21-4.2-16.63c0.36,0.31,0.68,0.68,0.92,1.1c3.11,5.4,6.49,10.74,5.88,17.32
	c-0.02,0.24-0.06,0.48-0.08,0.72c0.77-1.22,1.44-2.49,1.91-3.9c0.84-2.55,1.11-5.26,1.13-7.93c0.02-2.95-0.21-5.99-0.99-8.84
	c-0.66-2.42-1.88-4.52-3.8-6.14C79.76,15.52,77.35,14.31,75.01,13.16z M94.88,21.74c0.5-0.04,0.99-0.12,1.48-0.21
	c1.69-0.34,3.55-1.88,4.6-3.16c2.46-3,2.76-7.38,1.29-10.9c-0.2-0.48-0.38-1.19-0.69-1.59c-0.02-0.03-5.63,2.15-5.98,2.46
	c-2.07,1.82-1.85,5.16-1.69,7.67c0.06,0.97-0.17,1.92-0.14,2.89c0.01,0.23,0,0.45-0.02,0.68c0.99-0.67,1.92-1.46,2.72-2.34
	c1.33-1.46,2.32-3.32,3.13-5.11c-0.06,0.86-0.29,1.57-0.46,2.42c-0.26,1.28-0.66,2.69-1.34,3.8C96.98,19.63,96.05,20.79,94.88,21.74
	z M72.07,0.26c-2.33-0.61-4.26,0.09-6.55,0.44c0.71,0.36,1.66,0.49,2.28,1c0.6,0.5,0.92,1.48,1.18,2.18
	c1.36,3.73,2.05,6.59,6.38,7.47c1.18,0.24,2.68,0.75,3.79,0.42c-0.43-1.41-1.37-2.97-2.3-4.13c-1.2-1.49-2.89-2.6-3.78-4.32
	c3.08,0.68,5.79,4.4,7.26,7c0.01-0.35,0.03-0.71,0.05-1.09c0.07-1.78-0.22-3.49-1.17-5.02C77.77,1.88,74.58,0.92,72.07,0.26z
	 M92.09,13.03c-0.42-3.63-1.77-7.44-4.52-9.96c-0.51-0.47-2.71-1.31-4.47-2c-1.23-0.49-2.25-0.9-2.3-1.06
	c0.13,0.41,0.55,0.6,0.7,1.04c1.52,4.2-1.23,9.09,1.52,12.85c2.71,3.72,4.53,7.23,5.12,11.63c0.01-0.6,0.03-1.2,0.09-1.82
	c0.19-1.7-0.14-3.32-0.12-5.02c0.03-3.15,0.59-7.1-1.04-9.99c1.99,3.54,2.01,7.87,2.34,11.81c0.1,1.19-0.15,2.38-0.21,3.56
	c-0.03,0.72-0.07,1.48-0.14,2.23c0.42-1.08,0.92-2.15,1.32-3.22C91.64,19.82,92.5,16.52,92.09,13.03z M52.05,27.77
	c-0.03,0-0.07,0-0.1,0c0.03,0.02,0.06,0.05,0.09,0.07c0.06,0.02,0.12,0.04,0.18,0.07L52.05,27.77z M28.23,20.52
	c-3.08-0.02-6.76,1.99-9.64,1.68c1.97,0.21,3.39,0.84,4.27,2.69c1.68,3.53,2.82,6.77,7.39,6.58c1.68-0.07,3.38-0.63,4.89-1.36
	c0.49-0.24,2.77-2.11,3.17-2.03c-1.46-0.3-2.92-0.56-4.36-0.9c-2.04-0.47-4.14-0.9-6.07-1.72c1.5,0.07,9.59-1.19,10.28-0.08
	c-0.34-0.56-0.74-1.18-1.2-1.64c-1.73-1.73-4.17-2.7-6.61-3.06C29.63,20.57,28.92,20.52,28.23,20.52z M36.89,92.52
	c1.15,0.15,2.31,0.26,3.46,0.41c1.36,0.18,3.03-0.22,4.33-0.61c2.06-0.62,4.27-2.1,4.98-4.21c0.67-2.01,0.36-4.07,0.82-6.11
	c0.18-0.82,0.59-1.84,1.15-2.46c0.14-0.15,0.27-0.28,0.41-0.41c-0.04,0-0.07,0-0.11,0c-3.02,1.04-5.68,2.93-6.95,5.93
	c0.02-2.38,1.37-4.24,2.89-5.95c-0.32,0.36-4.5,0.72-5.15,0.92C36.43,81.92,42.7,90.15,36.89,92.52z M35.24,76.79
	c-1.51-0.73-3.2-1.29-4.89-1.36c-4.57-0.19-5.71,3.05-7.39,6.58c-0.88,1.85-2.3,2.47-4.27,2.69c2.88-0.31,6.56,1.69,9.64,1.67
	c0.69,0,1.4-0.05,2.11-0.16c2.44-0.36,4.88-1.33,6.61-3.06c0.46-0.46,0.86-1.08,1.2-1.64c-0.68,1.11-8.77-0.15-10.28-0.08
	c1.93-0.82,4.03-1.24,6.07-1.72c1.45-0.34,2.91-0.6,4.37-0.9C38.01,78.9,35.73,77.03,35.24,76.79z M52.14,79.05
	c-0.03,0.02-0.06,0.05-0.09,0.07c0.03,0,0.07,0,0.1,0l0.17-0.14C52.26,79.01,52.2,79.03,52.14,79.05z M64.97,78.7
	c0.36-1.33,0.97-2.54,1.65-3.72c-1.86,3.18-10.05,7.53-6.56,12.64c-2.93,0.23-0.57-9.69,0.08-10.99c-1.63,0.42-3.23,1.02-4.78,1.69
	c-1.36,0.59-2.12,1.11-2.65,2.53c-1.2,3.16-0.09,6.18,0.65,9.31c0.56,2.38,0.06,5.24-2.52,6.13c3.42,0.56,7.19,0.87,10.54-0.19
	c2.04-0.65,4.1-2.1,4.92-4.15c0.83-2.06,0.25-4.41-0.52-6.39C64.88,83.23,64.28,81.21,64.97,78.7z M66.92,97.24
	c2.85-0.76,5.55-2.21,8.18-3.51c2.35-1.16,4.76-2.36,6.77-4.06c1.92-1.62,3.14-3.73,3.8-6.14c0.78-2.85,1.01-5.89,0.99-8.84
	c-0.02-2.67-0.29-5.38-1.13-7.93c-0.47-1.41-1.14-2.68-1.91-3.9c0.03,0.24,0.06,0.48,0.08,0.72c0.62,6.58-2.76,11.92-5.88,17.32
	c-0.24,0.42-0.55,0.79-0.92,1.1c3.69-4.43,4.22-11.12,4.19-16.63c0-0.92,0.01-1.83,0.02-2.75c-0.32,0.55-0.67,1.07-1.11,1.55
	c-0.85,0.91-1.79,1.74-2.73,2.57c-1.97,1.74-3.82,3.59-5.64,5.48c-1.91,1.99-3.75,3.89-4.36,6.65c-0.3,1.37-0.38,2.75-0.06,4.12
	c0.4,1.71,1.25,3.28,1.79,4.95C70.05,91.17,69.96,95.17,66.92,97.24z M106.47,84.31c0.63-1.9,1.37-3.7,1.57-5.73
	c0.4-4.04-0.51-8.5-3.19-11.64c-4.01-4.69-10.44-6.03-16.41-5.78c0.62,0.31,1.25,0.68,1.83,1c1.35,0.75,2.45,1.61,3.64,2.59
	c2.97,2.46,6.35,5.85,7.77,9.51c-1.75-2.7-4.56-4.17-7.18-5.9c-1.29-0.85-2.53-1.75-3.87-2.52c-0.87-0.5-4.53-1.55-4.95-2.31
	c0.41,0.75,0.62,1.67,0.89,2.43c0.52,1.45,0.71,2.86,0.87,4.4c0.37,3.6,1.29,7,3.16,10.12c0.9,1.5,1.99,2.56,3.69,3.07
	c1.99,0.59,3.9,0.53,5.92,0.17c1.44-0.25,3.27-0.86,4.73-0.52C105.49,83.36,106.53,83.66,106.47,84.31z M75.46,95.53
	c-4.33,0.88-5.02,3.74-6.38,7.48c-0.25,0.7-0.57,1.68-1.18,2.18c-0.61,0.51-1.56,0.63-2.28,1c2.28,0.35,4.21,1.05,6.55,0.44
	c2.51-0.66,5.7-1.62,7.14-3.95c0.95-1.53,1.24-3.24,1.17-5.02c-0.02-0.38-0.04-0.74-0.05-1.09c-1.47,2.59-4.17,6.32-7.26,7
	c0.89-1.72,2.58-2.84,3.78-4.32c0.93-1.16,1.87-2.72,2.31-4.13C78.14,94.79,76.64,95.29,75.46,95.53z M106.47,84.31
	c-0.03,0.1-0.07,0.21-0.1,0.31C106.43,84.51,106.46,84.41,106.47,84.31z M95.68,98.56c0.35,0.31,5.96,2.48,5.98,2.46
	c0.31-0.41,0.49-1.11,0.69-1.59c1.47-3.53,1.18-7.91-1.29-10.9c-1.05-1.28-2.91-2.83-4.6-3.16c-0.49-0.1-0.98-0.18-1.48-0.22
	c1.17,0.96,2.1,2.12,2.9,3.41c0.69,1.11,1.09,2.52,1.34,3.8c0.17,0.85,0.4,1.56,0.46,2.42c-0.81-1.79-1.8-3.65-3.13-5.11
	c-0.8-0.88-1.72-1.66-2.72-2.34c0.02,0.23,0.03,0.45,0.02,0.68c-0.03,0.98,0.2,1.92,0.14,2.89C93.83,93.4,93.61,96.74,95.68,98.56z
	 M81.62,105.85c-0.16,0.44-0.57,0.63-0.71,1.04c0.05-0.16,1.07-0.57,2.3-1.06c1.76-0.7,3.96-1.54,4.47-2
	c2.75-2.52,4.1-6.34,4.52-9.97c0.4-3.49-0.46-6.79-1.69-10.04c-0.41-1.07-0.9-2.14-1.32-3.23c0.07,0.75,0.1,1.51,0.14,2.23
	c0.05,1.18,0.31,2.37,0.21,3.56c-0.33,3.94-0.34,8.27-2.34,11.82c1.62-2.88,1.07-6.83,1.04-9.99c-0.02-1.7,0.31-3.32,0.12-5.02
	c-0.07-0.62-0.09-1.21-0.09-1.82c-0.59,4.39-2.41,7.92-5.12,11.63C80.39,96.76,83.15,101.65,81.62,105.85z"/>
</svg>
