<?xml version="1.0" encoding="utf-8"?>
<!-- Generator: Adobe Illustrator 15.0.0, SVG Export Plug-In  -->
<!DOCTYPE svg PUBLIC "-//W3C//DTD SVG 1.1 Tiny//EN" "http://www.w3.org/Graphics/SVG/1.1/DTD/svg11-tiny.dtd" [
	<!ENTITY ns_flows "http://ns.adobe.com/Flows/1.0/">
]>
<svg version="1.1" baseProfile="tiny"
	 xmlns="http://www.w3.org/2000/svg" xmlns:xlink="http://www.w3.org/1999/xlink" xmlns:a="http://ns.adobe.com/AdobeSVGViewerExtensions/3.0/"
	 x="0px" y="0px" width="360px" height="550px" overflow="visible" xml:space="preserve">
<defs>
</defs>
<path d="M73.23,146.95c-2.47,2.13-9.11,8.42-9.11,14.49c0,2.38,0.82,5.43,1.89,8.38c-4.32,0.43-6.94,0.84-6.94,0.84
	s-3.16,27.71,4.81,40.93c-1.43,2.3-3.59,6.13-4.26,9.28c-1.03,4.84,0.66,17.81,2.76,26.06c2.1,8.25,19.14,44.96,19.14,44.96v13.48
	l7.05,12.77c-0.39,2.21-1.45,9.39,0.14,15.74c2.01,8.05,34.21,18.16,58.82,18.16c2.96,0,6.95-0.27,9.59-0.54
	c21.86-2.26,28.15-8.88,29.85-11.1c6.91-1.43,57.74-12.02,75.28-25.22c19.71-14.84,35.16-37.65,24.83-74.23
	c0.74,0.14,1.46,0.23,2.15,0.23c0.33,0,0.66,0,0.97-0.06c7.93-1.26,10.2-9.44,10.94-10.1c0.63-0.56,21.59-10.15,26.58-16.65
	c5.75-7.5,5.44-28.11,5.08-35.77c1.07,0.26,2.06,0.44,2.95,0.53c6.87-22.32,22.4-123.57-66.08-164.79c0.9-3.05-0.95-6.94-4.65-9.27
	c-4.24-2.67-9.29-2.28-11.28,0.87c-0.35,0.56-0.58,1.17-0.7,1.8c-79.9-26.64-140.89,22.11-147.43,45.87
	c-27.2-3.44-71.95-7.68-82.58,2.35c0,0-25.5,15.54-22.83,53.45c2.99,42.34,55.98,29.98,72.98,24.9L73.23,146.95z M78.2,149.8
	c1.99-4.71,1.99-29.48,1.99-29.48h0c1.61-9.35,4.43-22.63,8.91-34.85c19.62,22.3,41.33,53.97,89.5,52.18
	c29.98-1.11,59.47-10.26,59.47-10.26s27.36,17.65,53.86,32.35l-71.43,12.53c-0.39-1.92-0.88-3.67-1.46-5.19
	c-4.46-11.6-15.09-11.37-41.63-9.81c-15.18,0.89-30.05,4.92-40,8.21l-8.76-6.72l-3.38,0.18l5.85,8.74c-3.69,1.37-5.85,2.3-5.85,2.3
	s-17.38,0.36-15.65,0.65c-3.47-0.62-7.02-1.05-10.55-1.34l1.34-8.75l-2.38-1.6l-4.96,9.99c-7.98-0.33-15.55-0.03-21.51,0.41
	c-1.15-2.94-2.07-5.92-2.07-7.9C69.48,158.06,77.06,152.49,78.2,149.8 M170.66,168.58h7.64l25.87,15.76l-1.78,1.38L170.66,168.58z
	 M196.14,187.31l-3.27,4.52l-30.23-20.28h3.7L196.14,187.31z M202.91,180.15l-17.76-11.91h4.48l15.19,9.25L202.91,180.15z
	 M325.07,212.34c-4.75,6.19-24.75,14.64-25.53,15.34c-1.01,0.9-3.53,3.72-4.16,5.05c-1.18,2.47-1.79,3.01-5.87,3.49
	c-5.57,0.64-13.35-4.71-13.84-6.27c-0.48-1.56,4.56-16.44,4.56-16.44l-0.56-0.22l-8.78,18.9l0.51,0.41c0.25,0.2,3.48,2.78,7.51,5.06
	c12.99,36.09-3.03,60.3-20.7,74.32c-15.25,12.1-56.23,20.48-66.66,22.46l-2.81-9.25h-1.74l-3.17,12.01
	c-2.16,2.43-8.86,7.74-27.12,9.63c-26.46,2.75-62.96-11.02-64.34-16.51c-1.66-6.64,0.59-12.76,0.61-12.84l0.14-0.65
	c0,0-6.13-8.48-6.91-13.38c-0.78-4.9,0.42-7.06,0.67-11.63c0.25-4.56-19.4-39.71-21-45.8c-1.6-6.09-1.8-21.33-1.08-24.08
	c0.43-1.62,2.18-3.53,4-5.17c7.52,4.75,17.84,0.84,24.39-2.66l-6.32,36.6l6.91,5.57l0.82,8.92l17.36-3.01l0.56-5.91
	c0,0,17.1-4.61,18.73-5.8c1.63-1.19,1.49-7.58,0-10.21c-1.49-2.63-5.8-0.94-5.8-0.94v5.35l-14.05,1.78c0,0-17.66,3.56-18.84-0.67
	c-0.78-2.79,7.54-37.28,7.54-37.28c1.22-3.55,3.94-11.75,4.17-14.97c0.3-4.16-2-7.69,5.65-8.32c14.35-1.19,12.24,3.76,13.09,11.39
	l-0.07-0.04l-4.4,30.03l9.81,2.92l6.49-14.83c21.03,13.86,65.48,2.16,76.47-4.2c7.35-4.25,10.29-16.42,10.23-27.6l66.91-16.67
	c-5.6,5.7-8.71,13.38-8.84,17.78l1.66,0.65c1.82-4.63,7.82-17.65,18.56-21.27l2.79-0.7c1.73-0.29,3.56-0.34,5.5-0.07
	c14.08,1.87,19.96,11.78,20.66,13.06C329,178.05,331.35,204.15,325.07,212.34 M334.54,166.59l-0.82-0.02
	c-6.67-2.11-77.79-38.83-89.2-46.3l14.71-6.26c13.11,8.6,70.01,46.9,76.41,50.56L334.54,166.59z M159.79,40.87
	c1.87-2.24-6.02-7.14-18.06-6.91c4.11-4.53,25.21-4.68,31.89-7.8c5.17-2.42,3.79-10.04-14.05-11.15
	c43.56-12.64,94.85,18.43,94.85,18.43s-4.01-13.38-19.49-20.96c47.26,8.92,64.69,39.99,74.94,56.49
	c10.26,16.5,21.41,60.21,16.61,73.25c2.23-28.03-32.52-103.81-66.57-115.4c4.91,5.65,16.5,36.8,15.61,43.34
	c-20.23-51.89-89.97-44.82-91.21-43.11c13.08,2.08,48.15,17.39,57.75,37.91c-15.46-23.16-62.44-26.54-62.44-26.54l-8.97,5.88
	l28.38,16.87c0,0-48.39-12.49-49.95-8.92c-1.56,3.57,57.76,23.47,74.03,44.6c-35.78-22.47-90.48-42.7-110.38-46.38
	C123.44,45.44,158.67,42.21,159.79,40.87 M16,66.92l-0.4-0.41c8.93-8.75,20.23-12.35,32.32-11.66
	c19.16,1.11,39.11,13.44,58.03,36.85c32.32,39.99,62.46,49.22,128.32,32.87l0.65,1.43c-21.11,5.24-39.13,8.5-55.24,8.5
	c-29.46,0-52.54-10.91-76.52-40.57C85.16,71.66,65.4,58.81,47.52,57.77C36.47,57.13,24.2,58.89,16,66.92 M325.48,181.66
	c0.29,1.49-1.23,2.05-1.23,2.05s-8.58-5.91-13.05-4.57c-4.46,1.34-9.81,10.26-6.24,13.53c3.57,3.27,1.49,11.89,1.49,11.89
	l-8.62,3.97l-2.08,7.33l-8.17,1.78v-9.11l6.98-3.38v-8.57l-6.98-5.11c0,0,17.98-19.33,24.53-19.92
	C318.64,170.96,325.18,180.17,325.48,181.66 M154.15,272.69c-1.45-0.83-39.4,1-39.4,1l-20.29,0.22l-3.57,5.79
	c0,0,1.79,9.41,6.84,9.6c13.16,0.51,53.52,13.68,53.52,13.68l10.41-8.33l-2.38-13.68C159.27,280.97,155.6,273.52,154.15,272.69
	 M148.53,286.62l-42.35-5.73c0,0-2.01-1.93-0.18-1.98c9.59-0.25,40.84-0.35,42.53-0.54C148.97,280.82,148.53,286.62,148.53,286.62
	 M138.75,229.53l59.76,25.72l-7.43,25.72c0,0-1.95-14.37-5.06-20.22c-3.1-5.85-47.28-27.88-47.28-27.88V229.53z M107.16,308.47
	l39.47,10.03l-6.64,6.69l-32.83-12.26V308.47z M249.21,226.19c-1.78,14.1-5.35,63.55-33.45,76.79c17.39-30.85,5.77-55.16,5.77-55.16
	S232.26,246.79,249.21,226.19 M332.95,316.83c-8.6,8.06-16.79,17.04-23.22,29.07c-2.78,5.2-82.93,47.21-84.76,52.81
	c-1.83,5.6,74.09-38.46,76.94-33.3c3.04,5.5-0.64,21.9-0.97,25.27c-2.65,27.16-91.05,50.28-100.35,72.85
	c-4.8,11.67-90.65,22.98-93.36,27.95c-3.62,6.63,47.09-10.01,45.95-4.46c-3.07,15.07-16.83,40.11-22.25,45.41
	c-6.31,6.18-14.64-1.85-24.45,9.97c0,0-6.98,4.91-8.03-5.13c-1.44-13.78-22.07-48.39-33.23-59.54c-4.46-4.46,24.08,5.58,21.33-2.45
	c0,0-11.75-4.68-30.25-9.37c-20.1-5.09,7.36-20.52,7.36-20.52s14.87-2.65-9.37-13.6C43.71,427,80.92,410.6,79.06,400.57
	c-0.96-5.2,56.71,22.81,57.09,10.26c0.1-3.13-31.13-2.95-62.57-22.84l-25.52-22.88c0,0,6.93-28.62-2.38-41.33
	c4.97-9.39,17.2-6.95,28.54-17.84c1.7,0.95,7.65,8.7,7.73,12.19c0.22,9.82-1.73,20.39,3.27,22.6c34.16,20.28,65.41,22.3,109.12,5.65
	c64.97-12.79,89.9-34.72,97.23-46.08c12.96-20.09,5.06-54.54,5.06-54.54s21.25-14.89,38.2-9.48c4.55,2.36,4.26,12.69,7.58,19.87
	c2,4.31,11.58,12.79,13.83,14.64C360.27,275.02,349.56,301.27,332.95,316.83"/>
</svg>
