<?xml version="1.0" encoding="utf-8"?>
<!-- Generator: Adobe Illustrator 15.0.0, SVG Export Plug-In  -->
<!DOCTYPE svg PUBLIC "-//W3C//DTD SVG 1.1 Tiny//EN" "http://www.w3.org/Graphics/SVG/1.1/DTD/svg11-tiny.dtd" [
	<!ENTITY ns_flows "http://ns.adobe.com/Flows/1.0/">
]>
<svg version="1.1" baseProfile="tiny"
	 xmlns="http://www.w3.org/2000/svg" xmlns:xlink="http://www.w3.org/1999/xlink" xmlns:a="http://ns.adobe.com/AdobeSVGViewerExtensions/3.0/" x="0px" y="0px" width="130px" height="240px" overflow="visible" xml:space="preserve">
<defs>
</defs>
<path d="M82.73,63.66c0,0,5.55,3.25,7.68,4.6c2.12,1.35,6.98,4.95,8.5,6.11c1.52,1.17,5.55,4.9,7.2,5.46
	c1.65,0.57,1.65,0.09,2.91,0.57c1.26,0.47,3.17,1.99,4.86,3.08c1.69,1.08,3.38,2.6,4.43,4.29c1.04,1.69,1.78,1.43,2.47,2.34
	c0.7,0.91,2.99,4.16,3.13,4.77c0.13,0.6-0.15,1.19-0.48,1.24c-0.33,0.04,2.47,2.88,1.95,3.55c-0.47,0.35,0.74,0.95,0.98,1.45
	c0.23,0.49-0.39,1.71-1.7,0.52c-1.3-1.19-2.88-2.8-3.86-3.17c-0.98-0.37-2.04-0.97-2.93-1.52c-0.89-0.54-1.58,0.2,0.29,2.99
	c1.86,2.8,2.95,4.75,2.13,5.42c-0.83,0.67-1.41,0.28-2.87-2c-1.45-2.28-2.58-2.91-3.14-3.84c-0.56-0.93-2.37-3.29-3.01-3.97
	c-0.65-0.67-3.12-3.85-4.07-4.72c-0.95-0.87-2.69-3.38-4.57-4.25c-1.88-0.87-6.91-4.53-8.38-5.23c-1.47-0.69-8.21-4.66-10.87-5.7
	c-2.66-1.04-6.56-3.53-8.41-4.77c-1.85-1.25-3.79-2.95-5.5-3.58c-1.71-0.63-5.97-2.34-6.77-2.54c-0.8-0.19-2.06-0.67-2.47-0.93
	c-0.41-0.26,1.72,3.32-0.04,5.18c-0.3,0.21-0.89,0.36-1.02,0.39c-0.13,0.02,0.8-1,0.78-1.78c-0.02-0.78-0.02-3.04-1.91-4.19
	c-1.89-1.15-2.65-1.85-5.25-2.97c-2.6-1.13-3.79-1.82-3.79-1.82s-0.07,0.8,0,1c0.06,0.19-1.28-0.48-0.56,2.69
	c0,0,2.02,7.33,3.67,9.93c1.65,2.61,3.6,5.46,2.95,9.29c-0.65,3.81,0.43-1.83-2-5.55c-2.43-3.73-3.64-5.29-3.99-5.38
	c-0.35-0.09,1.22,4.25,3.04,6.46c1.82,2.21,0.04,0.82-2.08-1.95c-2.13-2.78,0.09,3.82,2.47,6.03c2.39,2.21,4.73,3.25,5.2,4.38
	c0.48,1.13-2.73-1.87-5.5-2.34c-2.78-0.47,1.67,3.32,3.01,4.9c1.34,1.58,5.84,6.78,6.82,7.9c0.98,1.13,5.84,6.8,6.74,8.1
	c0.9,1.3,4.9,7.76,4.77,10.41c-0.13,2.64,0.05,7.07-0.95,9.41c-1,2.34-4.42,7.5-8.41,9.93c-3.99,2.42-8.67,5.59-9.67,6.15
	c-1,0.57-1.65,3.3-3.52,5.47c-1.86,2.17-5.29,6.24-7.37,8.15c-2.08,1.9-5.55,5.29-6.2,7.28c-0.65,2-1.82,5.68-2.43,7.03
	c-0.61,1.35-0.91,1.97-1.17,2.57c-0.26,0.61,3.59,2.87,4.71,4.25c1.13,1.39,5.52,6.71,6.61,9.13c1.08,2.43,4.07,9.67,4.94,12.18
	c0.87,2.52,2.52,6.29,3.21,7.89c0.7,1.61,1.86,5.29,2.3,7.2c0.43,1.91,2.83,6.29,3.65,7.88c0.81,1.59,1.88,2.63,2.13,3.21
	c0.26,0.58,0.87,3.71,0.32,4.83c-0.55,1.13-1.59,3.15-5.18,2.92c-3.58-0.23-5.58-0.75-9.37-1.04c-3.79-0.29-3.87-0.46-7.81-0.58
	c-3.93-0.12-9.57-0.2-10.61-1.1c-1.04-0.9-2.05-4.02,0.29-5.09c2.34-1.07,3.9-1.71,6.8-1.88c2.89-0.18,5.12-1.18,5.87-1.62
	c0.75-0.44,1.99-1.24,2.19-1.88c0.2-0.63,0.38-1.36,0.35-2.08c-0.03-0.72,0-1.45-0.55-2.23c-0.55-0.78-1.56-2.57-2.28-3.9
	c-0.72-1.33-0.96-3.24-3.12-5.75c-2.17-2.51-6.24-8.29-7.69-10.38c-1.44-2.08-4.74-6.39-4.77-6.94c-0.03-0.55-1.85,2.89-2.52,4.22
	c-0.66,1.33-2.8,5.26-3.03,6.33c-0.24,1.07-0.9,3.96-1.19,4.48c-0.29,0.52,0.06,2.69-0.2,3.99c-0.26,1.3-0.95,3.21-1.21,5.49
	c-0.26,2.28-0.15,2.2-0.18,4.54c-0.03,2.34-0.6,7.75-1.16,9.86c-0.55,2.11-1.62,6.42-2.69,8.67c-1.07,2.26-2.69,3.64-5.41,3.47
	s-4.57-1.59-5.2-5.78c-0.64-4.19-0.64-6.77-0.03-9.39c0.6-2.63,1.33-4.74,1.3-5.84c-0.03-1.1,0.32-6.54,1.01-8.47
	c0.7-1.94,2.55-4.36,2.72-5.29c0.17-0.93,0.92-2.72,1.21-3.5c0.29-0.78,1.07-1.73,1.28-3.09c0.2-1.36,0.8-2.11,1.12-3.27
	c0.32-1.15,2.52-9.45,3.01-11.45c0.49-2,1.59-9.08,1.19-9.34c-0.4-0.26-1.65-1.07-1.75-2.85c-0.1-1.78,0.3-3.42,0.74-5.03
	c0.43-1.61,1.6-5.9,2.17-7.18c0.56-1.28,2.51-7.13,2.75-7.72c0.24-0.59,2.47-6.33,2.89-7.24c0.41-0.91,2.34-5.51,3.01-7
	c0.67-1.5,4.79-9.78,5.38-10.64c0.58-0.87,3.55-5.32,4.42-6.4c0.87-1.09,3.54-3.84,2.06-5.01c-1.47-1.17-4.9-4.47-5.62-6
	c-0.71-1.54-2.27-4.77-4.1-6.57c-1.82-1.8-4.85-4.66-6.24-5.79c-1.39-1.13-2.82-3.3-3.99-4.97c-1.17-1.67-1.73-3.16-3.12-4.23
	c-1.39-1.06-2.69-2.34-4.34-3.45c-1.65-1.11-4.31-4.4-4.53-6.96C5.3,71.6,5.3,69.99,5.56,68.5c0.26-1.5,0.14-1.32,0.08-1.73
	c-0.06-0.4,0.08-0.81,0.25-1.29c0.18-0.48,0.18-4.03,0.13-5.42c-0.04-1.39-0.3-2.56-0.39-3.18c-0.07-0.5-0.4-0.11,0.08,2.62
	c0.52,3.03-0.84-1.5-0.96-2.75c-0.12-1.24-0.17-1.24-1.24-1.93c-1.07-0.69-3.58-2.14-3.5-4.11c0.08-1.96,0.55-3.04,0.95-3.55
	c0.41-0.52,0.9-1.53,1.36-2.28c0.46-0.75,0.61-1.18,0.96-1.36c0.35-0.17-0.43-0.9,0-1.82c0.44-0.92-0.2-0.43-1.1,1.33
	c-0.9,1.76-1.22,2-1.44,2.63c-0.23,0.63-0.75-0.61-0.29-1.94c0.46-1.33,0.38-1.65,1.24-2.81c0.87-1.16,1.67-1.7,1.94-2.08
	c0.26-0.37-0.07-3.06-0.77-1.42c-0.69,1.65-0.43-0.6,0.05-2.25S3.03,33,3.76,31.61c0.74-1.39,1.34-2.47,0.52-1.64
	c-0.82,0.82,0.96-1.3,2.01-1.52c1.06-0.22,0.61-0.8,0.26-1.06c-0.34-0.26-1.81-1.58-2.53-2.77c-0.73-1.18-0.96-2.31,0.02-3.41
	c0.98-1.1,0.87-0.49,0.98-1.42c0.12-0.92-0.11-1.1,0.38-1.39c0.49-0.29,0.17-1.18,0.37-1.88c0.2-0.69,1.27-1.01,1.62-1.47
	c0.34-0.47,0.08-2.25,0.06-2.72c-0.03-0.46,0.17-1.39,1.47-1.21c1.3,0.17,1.57-0.15,1.68-0.96c0.12-0.8,1.18-1.88,2.52-2.86
	c1.33-0.98,2.08-2.22,3.9-2.86c1.82-0.64,1.33-0.84,2.25-0.9c0.93-0.06-0.2-0.58-0.98-0.26c-0.78,0.32,0.34-0.55,1.24-0.49
	c0.9,0.06,0.23-0.43-0.2-0.46c-0.43-0.03,0.52-0.23,1.01-0.12c0.49,0.12,0.54-1.17,2.62-1.91c2.08-0.74,0.78,0-0.3,0.78
	s1.45-0.39,2.64-0.48c1.19-0.08,0.17,0.24-0.83,0.78c-1,0.54,1.91,0.07,3.19,0.52c1.28,0.46,3.19,1.02,4.51,2.91
	c1.32,1.89,1.76,1.59,2.97,3.67c1.21,2.08,2.54,4.31,3.44,4.8c0.9,0.5,3.55,1.59,3.93,3.53c0.37,1.94-0.29,3.64,1.07,6.25
	c1.36,2.6,3.09,6.71,3.3,8.47c0.2,1.76-0.01,3.73,0.79,4.98c0.8,1.26,3.14,2.85,3.9,2.91c0.76,0.06-1.32,0.09-2.69-0.76
	c-1.36-0.85,3.13,2.28,4.82,2.34c1.69,0.07-1.29,0.3-2.45-0.11c0,0,4.12,3.4,6.77,3.08c2.65-0.33-2.54,1.15-3.88,0.02
	c-1.34-1.13,2.04,2.45,4.03,2.6c2,0.15-0.73,0.5-1.6,0.11c-0.87-0.39,3.9,3.25,4.98,3.77c1.08,0.52,4.79,2.95,5.55,3.43
	c0.76,0.48,4.95,3.15,6,4.08c1.04,0.92,2.43,1.73,4.02,2.37C78.72,60.99,82.73,63.66,82.73,63.66z"/>
</svg>
