<?xml version="1.0" encoding="utf-8"?>
<!-- Generator: Adobe Illustrator 14.0.0, SVG Export Plug-In . SVG Version: 6.00 Build 43363)  -->
<!DOCTYPE svg PUBLIC "-//W3C//DTD SVG 1.1//EN" "http://www.w3.org/Graphics/SVG/1.1/DTD/svg11.dtd">
<svg version="1.1" id="Layer_1" xmlns="http://www.w3.org/2000/svg" xmlns:xlink="http://www.w3.org/1999/xlink" x="0px" y="0px"
     width="148.133px" height="79.893px" viewBox="0 0 148.133 79.893" enable-background="new 0 0 148.133 79.893"
     xml:space="preserve">
<g>
    <path fill="#BFBFBF" d="M148.133,49.947L20.467,58.948v20.944L148.133,49.947 M148.133,49.947L148.133,49.947"/>
    <rect x="15.769" y="3.828" fill="#F4F0E3" width="4.53" height="13.38"/>
    <rect x="20.3" y="3.828" fill="#A9A996" width="4.568" height="13.38"/>
    <path fill="#F4F0E3" d="M4.748,77.379c0.761,0.97,1.867,1.597,3.114,1.597c1.249,0,2.352-0.627,3.114-1.597
        c0.762,0.97,1.866,1.597,3.114,1.597s2.354-0.627,3.114-1.597c0.757,0.965,1.855,1.588,3.095,1.597V64.488
        C9.21,64.494,0.216,68.643,0,78.583"/>
    <path fill="#A9A996" d="M20.319,64.486h-0.02v14.485l0.02,0.002c1.245,0,2.352-0.627,3.114-1.597
        c0.76,0.97,1.865,1.597,3.114,1.597c1.246,0,2.352-0.627,3.112-1.597c0.763,0.97,1.867,1.597,3.115,1.597
        c1.246,0,2.354-0.627,3.113-1.597c0.763,0.97,1.868,1.597,3.114,1.597c0.584,0,1.131-0.147,1.633-0.396
        C40.421,68.635,31.417,64.486,20.319,64.486z"/>
    <polygon fill="#4B606C" points="13.762,21.758 8.622,70.998 20.3,70.998 20.3,21.758  "/>
    <polygon fill="#14303E" points="26.876,21.758 20.3,21.758 20.3,70.998 32.017,70.998     "/>
    <rect x="17.241" y="25.38" fill="#F4F0E3" width="3.059" height="10.146"/>
    <rect x="20.3" y="25.38" fill="#A9A996" width="3.096" height="10.146"/>
    <rect x="20.3" y="15.335" fill="#14303E" width="9.251" height="7.227"/>
    <rect x="11.086" y="15.335" fill="#4B606C" width="9.214" height="7.227"/>
    <rect x="14.297" y="1.74" fill="#4B606C" width="6.003" height="2.704"/>
    <rect x="20.3" y="1.74" fill="#14303E" width="6.04" height="2.704"/>
    <rect x="18.044" y="0" fill="#4B606C" width="2.256" height="2.706"/>
    <rect x="20.3" y="0" fill="#14303E" width="2.293" height="2.706"/>
    <path fill="#F4F0E3" d="M124.304,81.802c-2.841-2.704-5.789-5.396-8.854-8.069l0.329-0.376c3.07,2.678,6.027,5.377,8.871,8.085"/>
    <polyline fill="#F4F0E3" points="96.726,58.783 96.726,58.783 97.021,58.381  "/>
    <path fill="#F4F0E3" d="M87.188,51.5L87.188,51.5v0.002l-0.277,0.414c-3.268-2.185-6.629-4.341-10.092-6.459"/>
    <path fill="#F4F0E3" d="M56.137,33.324c3.622,1.847,7.147,3.729,10.584,5.649l0.002-0.002l-0.244,0.438
        c-3.433-1.919-6.955-3.8-10.567-5.643L56.137,33.324"/>
    <path fill="#F4F0E3" d="M45.137,28.533c-3.568-1.654-7.222-3.271-10.955-4.845l0.194-0.463c3.739,1.575,7.398,3.194,10.973,4.854"
        />
    <path fill="#F4F0E3" d="M11.795,15.159l0.161-0.475c3.838,1.317,7.598,2.682,11.282,4.082l-0.179,0.468
        C19.383,17.835,15.628,16.475,11.795,15.159z"/>
    <rect x="23.238" y="18.766" fill="#F4F0E3" width="0.002" height="0.003"/>
    <path fill="#F4F0E3" d="M-10.971,7.621c3.912,1.074,7.753,2.19,11.521,3.353l-0.149,0.479c-3.763-1.157-7.596-2.274-11.505-3.35"/>
</g>
</svg>