<?xml version="1.0" encoding="utf-8"?>
<!-- Generator: Adobe Illustrator 15.0.0, SVG Export Plug-In  -->
<!DOCTYPE svg PUBLIC "-//W3C//DTD SVG 1.1 Tiny//EN" "http://www.w3.org/Graphics/SVG/1.1/DTD/svg11-tiny.dtd" [
	<!ENTITY ns_flows "http://ns.adobe.com/Flows/1.0/">
]>
<svg version="1.1" baseProfile="tiny"
	 xmlns="http://www.w3.org/2000/svg" xmlns:xlink="http://www.w3.org/1999/xlink" xmlns:a="http://ns.adobe.com/AdobeSVGViewerExtensions/3.0/"
	 x="0px" y="0px" width="600px" height="360px" overflow="visible" xml:space="preserve">
<defs>
</defs>
<path d="M104.21,98.62c6.23,0.45,11.32,1.78,15.51,3.6c-3.36-0.18-6.46-0.62-9.11-1.31l-0.07-0.02l-0.07,0.03
	c-1.48,0.64-3.57,1.05-6.21,1.22c-8.89,0.59-21.69-1.7-36.68-6.57c-12.13-3.94-28.81-8.15-39.23-8.15c-3.62,0-6.24,0.52-7.78,1.55
	c-0.59,0.39-0.85,0.86-0.77,1.39c0.27,1.99,5.67,4.47,9.71,6.06c-5.36-1.6-10.98-4.03-13.58-6.66l-0.09-0.05
	C10.8,88.06,2.34,83.43,0,77.67c5.77,5.77,12.57,7.48,16.2,7.99l0.06,0.01l0.06-0.02c2.23-0.96,6.01-1.5,10.64-1.5
	c5.6,0,15.1,0.78,28.57,4.5c2.34,0.65,4.7,1.31,7.03,1.97c11.81,3.32,22.97,6.46,28.97,6.58c0.4,0.01,0.78,0.01,1.15,0.01
	c4.77,0,7.36-0.68,7.69-2.03c0.4-1.6-2.5-3.5-5-4.82c-6.69-3.52-22.28-8.48-35.96-8.48c-2.96,0-5.64,0.25-7.99,0.73
	c2.08-1.11,6.4-2.09,12.53-2.09c3.71,0,7.66,0.35,11.73,1.05c10.54,1.81,21.62,5.28,28.9,9.07l0.15,0.08l0.11-0.13
	c3.36-3.77,9.98-6.83,15.94-8.56c-4.26,1.86-11.77,5.61-12.36,9.06c-0.16,0.97,0.22,1.85,1.14,2.62c2.56,2.14,6.88,3.22,12.84,3.22
	c10.71,0,26.62-3.56,42.55-9.52c13.43-5.02,25.73-7.68,35.57-7.68c2.59,0,5.05,0.18,7.32,0.54c5.44,0.86,9.14,2.63,10.69,5.11
	c0.84,1.35,1.01,2.88,0.5,4.53c-0.49,1.59-1.59,3.26-3.28,4.97c-6.8,6.9-21.93,13.18-37.63,15.62c-3.29,0.51-6.58,0.77-9.78,0.77
	c-9.98,0-17.26-2.45-20.36-4.95c4.13,1.42,8.92,2.15,14.27,2.15h0c14.54,0,30.22-5.34,37.58-10.37c3.75-2.56,5.52-5.02,4.97-6.94
	c-0.65-2.31-4.39-3.63-11.11-3.95c-7.23-0.34-20.02,3.63-33.57,7.85c-2.67,0.83-5.37,1.67-8.06,2.48
	c-9.8,2.97-19.01,4.55-27.41,4.71c-5.51-2.62-12.18-4.28-20.43-4.09L104.21,98.62z M247.2,113.92c3.36,0,7.2-1.09,10.53-2.98
	c3.95-2.25,6.64-5.34,7-8.08c0.18-1.33-0.21-2.52-1.12-3.43c-1.23-1.23-3.35-1.9-5.97-1.9c-3.36,0-7.2,1.09-10.53,2.98
	c-3.95,2.25-6.64,5.34-7,8.08c-0.18,1.33,0.21,2.52,1.12,3.43C242.46,113.24,244.58,113.92,247.2,113.92 M176.35,101.41
	L176.35,101.41c2.44,0,5.4-0.42,8.34-1.17c5.17-1.33,9.38-3.52,10.23-5.31c0.17-0.36,0.19-0.69,0.06-0.99
	c-0.41-0.9-2.29-1.44-5.03-1.44c-2.44,0-5.4,0.42-8.34,1.17c-5.17,1.34-9.38,3.52-10.23,5.31c-0.17,0.36-0.2,0.7-0.06,0.99
	C171.73,100.88,173.61,101.41,176.35,101.41 M98.97,120.51c-0.34,1.51,0.21,3.28,1.5,4.85c1.7,2.06,4.39,3.39,6.86,3.39
	c0.86,0,1.64-0.16,2.32-0.48c1.1-0.51,1.81-1.38,2.06-2.5c0.34-1.5-0.2-3.24-1.46-4.8c-0.98,0.14-1.88,0.19-2.6,0.19
	c-0.74,0-1.46-0.04-2.14-0.13c-2.11-0.27-3.86-1.14-5.39-2.42C99.54,119.1,99.14,119.74,98.97,120.51 M262.62,162.42
	c2.54,0,5.45-0.82,7.98-2.26c2.99-1.7,5.02-4.04,5.3-6.11c0.13-1-0.16-1.88-0.84-2.56c-0.93-0.92-2.52-1.43-4.5-1.43
	c-2.54,0-5.45,0.82-7.98,2.26c-2.99,1.7-5.02,4.04-5.3,6.1c-0.13,1,0.16,1.88,0.84,2.57C259.05,161.91,260.65,162.42,262.62,162.42
	 M246.44,197.42c-0.12-0.79-0.52-1.38-1.2-1.74c-0.48-0.26-1.07-0.39-1.75-0.39c-2.32,0-5.36,1.54-7.57,3.83
	c-1.9,1.96-2.92,4.2-2.67,5.83c0.12,0.79,0.52,1.38,1.2,1.74c0.48,0.26,1.07,0.39,1.75,0.39c2.32,0,5.36-1.54,7.57-3.83
	C245.66,201.29,246.69,199.05,246.44,197.42 M276.08,182.48c-0.87-5.83,1.75-11.71,7.79-17.47c6.19-5.91,8.45-12.5,6.21-18.08
	c-2.36-5.9-9.35-9.42-18.68-9.42c-8.96,0.02-19.07,4.94-23.08,11.2c-2.4,3.75-3.02,7.51-1.74,10.59c1.31,3.14,4.56,5.49,9.21,6.68
	c-2.62-2.19-4.09-4.73-4.25-7.4c-0.17-2.8,1.09-5.65,3.56-8.03c6.02-5.78,14.08-6.22,16.41-6.22c1.14,0,2.21,0.08,3.18,0.25
	c3.88,0.66,6.37,2.28,7.41,4.83c1.41,3.45,0.01,8.27-4.07,13.92c-5.43,7.54-7.23,13.35-5.84,18.84c1.47,5.8,6.69,11.24,15.89,16.52
	C283.19,195.24,277.14,189.62,276.08,182.48 M258.05,203.55c2.29-6.77,1.93-12.76-1.01-16.87c-2.33-3.25-6.16-5.04-10.78-5.04
	c-3.71,0-7.88,1.16-12.06,3.36c-7.87,4.14-14.55,13.18-15.2,20.6c-0.35,3.96,0.53,7.21,2.54,9.4c2.55,2.79,6.88,3.67,12.08,2.44
	c-3.34-0.72-5.81-2.3-7.2-4.58c-1.45-2.4-1.65-5.51-0.56-8.76c2.5-7.44,9.31-12.67,14.59-14.38c1.5-0.49,2.89-0.73,4.15-0.73
	c2.25,0,4.07,0.78,5.4,2.31c2.26,2.61,2.99,7.27,2.1,13.48c-1.3,9.08-0.25,15,3.4,19.22c0.29,0.34,0.61,0.66,0.94,0.97
	c0.32-1.73,0.73-3.45,1.2-5.13C255.73,215.45,255.86,209.99,258.05,203.55 M274.03,230.86c-4.04-0.85-8.44-2.39-11.85-5.17
	c-0.32,0.82-0.62,1.66-0.89,2.52c2.63,1.23,5.82,2.11,9.59,2.65H274.03z M276.48,231.31c0,0.03,0,0.06,0,0.08
	c0.29,0.01,0.58,0.03,0.88,0.05C277.08,231.4,276.78,231.35,276.48,231.31 M368.99,204.94c0.25-1.63-0.77-3.87-2.67-5.83
	c-2.21-2.29-5.25-3.83-7.57-3.83c-0.68,0-1.27,0.13-1.75,0.39c-0.67,0.37-1.08,0.95-1.2,1.74c-0.25,1.63,0.77,3.87,2.67,5.83
	c2.21,2.29,5.25,3.83,7.57,3.83c0.68,0,1.27-0.13,1.75-0.39C368.47,206.32,368.87,205.74,368.99,204.94 M346.74,223.98
	c3.66-4.22,4.7-10.14,3.4-19.22c-0.89-6.21-0.16-10.87,2.1-13.48c2.07-2.39,5.36-2.94,9.55-1.58c5.28,1.71,12.09,6.94,14.59,14.38
	c1.09,3.25,0.89,6.36-0.56,8.76c-1.38,2.29-3.86,3.86-7.2,4.58c5.2,1.23,9.53,0.35,12.08-2.44c2.01-2.19,2.88-5.44,2.54-9.4
	c-0.65-7.41-7.33-16.46-15.2-20.6c-4.18-2.2-8.35-3.36-12.06-3.36c-4.62,0-8.45,1.79-10.78,5.04c-2.95,4.1-3.3,10.09-1.01,16.87
	c2.66,7.85,2.28,14.25-1.13,19c-1.32,1.85-3.02,3.33-4.9,4.52c0.11,0.72,0.19,1.44,0.27,2.16
	C342.01,228,344.77,226.25,346.74,223.98 M333.61,230.49c-0.1-0.36-0.2-0.71-0.31-1.07c-2.87,1.06-5.83,1.67-8.43,2.01
	C328.11,231.31,331.01,230.99,333.61,230.49 M212.17,148.09c-0.59-0.98-1.25-1.9-1.96-2.75c-2.34-0.1-4.69-0.61-7.15-1.55
	l-0.23-0.09l2.6-4.77l0.17,0.06c0.8,0.26,1.58,0.49,2.35,0.7c4.88-4.04,6.34-8.53,6.35-8.58l0.06-0.18l14.34,2.55
	c-6.76-3.34-12.32-9.35-14.4-15.71c-1.24-3.78-1.08-7.29,0.44-10.17c-8.94,3.29-31.36,10.4-58.11,10.4c-10.73,0-21-1.18-30.51-3.5
	l-0.07-0.02l-0.05-0.06c-3.31-4.34-8.23-6.83-13.51-6.83c-2.59,0-5.18,0.58-7.71,1.72c0.27-0.01,0.54-0.01,0.81-0.01
	c9.29,0,14.03,5.09,15.27,9.45c1.93,6.8-2.01,12.68-6.49,15.27c-2.01,1.16-4.08,1.74-6.16,1.74c-5.56,0-11.01-4.29-14.96-11.76
	c-4.54-8.6-13.56-18.85-30.74-18.85c-4.82,0-10.08,0.81-15.69,2.4c2.52-0.38,6.02-0.77,9.93-0.77c11.65,0,26.47,3.36,30.96,19.36
	c2.73,9.72,11.26,16.25,21.25,16.25c4.77,0,9.34-1.53,13.22-4.44l0.1-0.04c0.2-0.02,0.4-0.05,0.6-0.07l-0.14-0.31
	c0.39-0.31,0.78-0.64,1.16-0.99c5.44-4.94,7-13.43,3.63-19.75l-0.27-0.5l0.53,0.19c8.09,2.94,21.67,6.44,40.43,6.44
	c10.14,0,20.85-1.02,31.84-3.04l0.14-0.02l0.08,0.11c2.62,3.57,3.16,7.12,1.56,10.27c-2.4,4.73-9.46,8.03-17.18,8.03
	c-0.51,0-1.02-0.01-1.53-0.04c-5.41-0.32-9.69-2.65-10.64-5.8c-0.64-2.12,0.28-4.35,2.6-6.37c-3.67,1.03-6.55,3.3-7.8,6.18
	c-1,2.3-0.84,4.76,0.44,6.9c0.04,0.06,0.08,0.13,0.12,0.19c1.47-0.32,3-0.95,4.63-1.91l0.26,0.34c-1.21,1.21-2.59,2.1-4,2.76
	c2.68,3.06,8.19,5.9,16.85,5.9c2.98,0,6.22-0.34,9.64-1c1.6-0.31,3.17-0.73,4.66-1.26l0.11-0.04l0.09,0.07
	c2.35,1.85,3.99,4.23,4.74,6.88c2.21,7.8-2.31,14.54-7.44,17.51c-2.3,1.33-4.68,2-7.06,2c-6.38,0-12.64-4.92-17.17-13.5
	c-2.79-5.27-6.35-10.61-11.98-14.55c-0.48,0.04-0.95,0.07-1.41,0.07c-4.48,0-7.76-2.03-10.54-5.19c-3.14-0.7-6.68-1.08-10.67-1.08
	c-4.39,0-9.3,0.47-14.6,1.38c2.45-0.24,4.88-0.36,7.23-0.36c13.37,0,30.39,3.86,35.54,22.23c3.14,11.19,12.97,18.7,24.46,18.7h0
	c0.4,0,0.81-0.01,1.21-0.03c-0.53-0.8-0.99-1.64-1.35-2.53l-0.1-0.24l12.09-2.78l0.08,0.15c0.32,0.65,0.65,1.26,0.97,1.85
	c1.51-0.9,2.94-1.95,4.28-3.16C214.89,165.65,216.55,155.35,212.17,148.09 M294.36,76.77c-3.01-2.78-4.77-5.41-5.46-6.56
	c-0.37,4.41,0.47,8.46,2.49,12.05l0.12,0.2l-0.21,0.1c-2.07,0.98-4.29,1.77-6.61,2.36l-0.09,0.02l-0.08-0.05
	c-1.15-0.74-2.36-1.42-3.59-2.03c-3.15-1.53-6.64-2.65-10.4-3.33c-2.67-0.48-5.45-0.72-8.27-0.72c-12.65,0-25.3,4.95-33.01,12.92
	c-9.42,9.73-10.03,22.01-1.64,30.79c-1.97-7.41-0.75-14.36,3.56-20.13c6.84-9.17,19.69-13.37,28.72-13.39
	c7.3,0,13.13,2.21,16.08,6.07c2.35,3.09,2.88,7.07,1.57,11.82c-1.78,6.45-13.38,12.23-25.66,18.35c-2.42,1.2-4.86,2.42-7.25,3.65
	c-16.86,8.7-19.75,20.11-19.97,26.14c-0.31,8.46,3.88,14.97,7.91,17.43c5.13,3.14,10.71,4.73,16.59,4.73
	c6.66,0,12.27-2.1,15.71-4.31c-2.29,0.64-7.28,1.83-12.61,1.83c-6.85,0-12-1.89-15.31-5.63c-4.75-5.36-6.56-10.67-5.37-15.77
	c2.72-11.71,20.33-20.17,33.33-25.52c17.26-7.1,29.52-13.01,29.93-24.57c0.14-3.92-0.77-7.54-2.7-10.76l-0.12-0.19l0.2-0.11
	c1.32-0.74,2.57-1.53,3.72-2.38c-0.56-2.31-1.12-5.39-1.36-9.03C294.49,79.43,294.42,78.09,294.36,76.77 M302.2,92.3l-0.12,0.19
	c-1.93,3.22-2.84,6.84-2.7,10.76c0.41,11.56,12.67,17.47,29.93,24.57c13.01,5.35,30.62,13.81,33.33,25.52
	c1.18,5.1-0.62,10.41-5.38,15.77c-3.31,3.74-8.46,5.63-15.31,5.63c-5.33,0-10.32-1.19-12.61-1.83c3.44,2.2,9.05,4.31,15.71,4.31l0,0
	c5.88,0,11.46-1.59,16.59-4.73c4.03-2.46,8.22-8.97,7.91-17.43c-0.22-6.03-3.11-17.44-19.97-26.14c-2.39-1.23-4.83-2.45-7.25-3.65
	c-12.28-6.12-23.88-11.9-25.66-18.35c-1.31-4.76-0.78-8.73,1.57-11.82c2.94-3.86,8.78-6.07,16.01-6.07
	c9.1,0.02,21.95,4.21,28.79,13.39c4.3,5.77,5.52,12.71,3.55,20.12c8.39-8.78,7.77-21.05-1.64-30.79
	c-7.71-7.97-20.36-12.92-33.01-12.92c-2.81,0-5.59,0.24-8.27,0.72c-3.75,0.68-7.25,1.8-10.4,3.33c-1.24,0.6-2.44,1.28-3.59,2.03
	l-0.08,0.05l-0.09-0.02c-2.32-0.58-4.54-1.38-6.61-2.36l-0.21-0.1l0.11-0.2c2.03-3.59,2.86-7.64,2.49-12.05
	c-0.66,1.09-2.29,3.53-5.04,6.17c-0.05,1.48-0.1,2.96-0.19,4.48c-0.21,3.76-0.77,6.94-1.32,9.3c1.01,0.72,2.09,1.4,3.22,2.03
	L302.2,92.3z M286.98,260.42c-5.18-8.9-10.08-17.31-10.78-26.58c-0.07-0.87-0.12-1.72-0.16-2.54h-5.65
	c0.52,13.62,4.72,20.84,10.58,29.54c11.28,16.73,14.53,33.96,9.94,52.68c-1.19,4.84-3.07,7.29-5.59,7.29
	c-1.81,0-3.47-1.29-4.38-2.15c1.09,2.64,3.07,4.29,5.23,4.29c2.28,0,4.61-1.79,6.58-5.03c2.18-3.59,3.93-10.44,4.19-18.81
	c-0.06-1.55-0.06-3.16-0.01-4.82c-0.36-10.07-2.87-21.67-9.05-32.33L286.98,260.42z M300.14,202.34c-0.24,0.12-0.38,0.19-0.4,0.2h0
	l-0.19-0.39l0.39-0.19h0c0.1-0.05,0.21-0.11,0.33-0.17c0.79-3.46,1.21-7.24,1.28-11.3c-0.43,0.44-0.89,0.83-1.37,1.16
	c-0.72,1.94-1.67,4.16-2.88,6.29l-0.19,0.33l-0.19-0.33c-1.02-1.79-1.85-3.64-2.52-5.34c-0.59-0.18-1.16-0.45-1.7-0.78
	c0.14,3.78,0.59,7.31,1.38,10.55l0.03,0.11l-0.08,0.08c-1.14,1.27-2.37,2.29-3.66,3.05l-0.18,0.11l-0.11-0.17
	c-0.62-0.95-1.29-1.82-1.96-2.59c-1.71-1.95-3.62-3.38-5.66-4.23c-1.45-0.61-2.95-0.92-4.47-0.92c-6.88,0-13.78,6.33-18,16.53
	c-5.09,12.3-5.52,27.74-1.17,39.01c-1.64-15.37,1.46-29.13,8.39-37.02c2.95-3.36,6.41-5.3,9.48-5.31c2.33,0,4.42,0.93,6.07,2.7
	c2.16,2.32,4.59,7.12,4.01,16.86c1.6-1.46,7.59-7.46,7.5-15.31v-0.08l0.05-0.06c0.95-1.23,1.83-2.6,2.61-4.07l0.19-0.36l0.19,0.36
	c0.78,1.47,1.66,2.84,2.61,4.07l0.05,0.07l-0.01,0.09c-1.04,9.79,5.88,14.46,7.51,15.42c-0.61-9.83,1.83-14.67,4-16.99
	c1.65-1.77,3.74-2.7,6.04-2.7c3.11,0.01,6.56,1.95,9.51,5.31c6.93,7.89,10.03,21.65,8.39,37.02c4.34-11.27,3.91-26.71-1.18-39.01
	c-4.22-10.19-11.11-16.53-18-16.53c-1.52,0-3.03,0.31-4.47,0.92c-2.04,0.86-3.94,2.28-5.66,4.23c-0.68,0.77-1.34,1.65-1.96,2.59
	l-0.11,0.17l-0.18-0.1c-1.28-0.75-2.51-1.78-3.66-3.05l-0.08-0.08l0.03-0.11c0-0.01,0-0.02,0.01-0.03
	C300.15,202.33,300.14,202.34,300.14,202.34 M323.23,231.3h-5.65c-0.04,0.82-0.09,1.67-0.16,2.54c-0.6,7.87-4.5,14.96-8.62,22.46
	c-1.01,1.84-2.06,3.74-3.06,5.66c-13.22,25.42-7.66,49.81-4.67,56.35c1.91,4.17,4.16,5.05,5.72,5.05c2.2,0,4.43-1.81,5.77-4.6
	c-0.92,0.86-2.53,2.05-4.27,2.05c-2.52,0-4.41-2.45-5.59-7.29c-4.59-18.72-1.34-35.96,9.94-52.68
	C318.51,252.14,322.71,244.92,323.23,231.3 M354.13,108.58c-0.37-2.74-3.05-5.84-7-8.08c-3.33-1.9-7.17-2.98-10.53-2.98
	c-2.62,0-4.74,0.68-5.97,1.9c-0.92,0.91-1.3,2.1-1.12,3.43c0.37,2.74,3.05,5.84,7,8.08c3.33,1.9,7.17,2.98,10.53,2.98h0
	c2.62,0,4.74-0.68,5.97-1.9C353.92,111.1,354.31,109.92,354.13,108.58 M422.85,98.99c-0.86-1.79-5.06-3.98-10.23-5.31
	c-2.93-0.76-5.89-1.17-8.34-1.17c-2.74,0-4.62,0.54-5.03,1.44c-0.13,0.29-0.11,0.62,0.06,0.99c0.85,1.79,5.06,3.98,10.23,5.31
	c2.93,0.76,5.89,1.17,8.34,1.17c2.74,0,4.62-0.54,5.03-1.44C423.04,99.68,423.02,99.35,422.85,98.99 M482.52,125.77
	c0.25,1.12,0.97,1.99,2.06,2.5c0.68,0.32,1.46,0.48,2.31,0.48h0c2.46,0,5.16-1.33,6.86-3.39c1.3-1.57,1.84-3.34,1.5-4.85
	c-0.17-0.76-0.57-1.38-1.13-1.88c-1.53,1.28-3.26,2.14-5.37,2.4c-0.68,0.09-1.4,0.13-2.14,0.13c-0.73,0-1.64-0.05-2.64-0.19
	C482.72,122.52,482.19,124.27,482.52,125.77 M323.63,160.16c2.53,1.44,5.43,2.26,7.98,2.26h0c1.98,0,3.58-0.51,4.5-1.43
	c0.68-0.68,0.97-1.57,0.84-2.57c-0.28-2.07-2.31-4.41-5.3-6.1c-2.52-1.44-5.43-2.26-7.98-2.26c-1.98,0-3.58,0.51-4.5,1.43
	c-0.68,0.68-0.97,1.57-0.84,2.56C318.61,156.12,320.64,158.46,323.63,160.16 M322.03,182.17c1.39-5.49-0.41-11.3-5.84-18.84
	c-4.08-5.65-5.48-10.47-4.07-13.92c1.04-2.54,3.53-4.16,7.41-4.83c0.97-0.17,2.04-0.25,3.18-0.25c2.33,0,10.39,0.45,16.41,6.22
	c2.47,2.37,3.74,5.22,3.57,8.03c-0.17,2.67-1.63,5.21-4.25,7.4c4.65-1.19,7.9-3.55,9.21-6.68c1.28-3.07,0.66-6.83-1.74-10.59
	c-4.01-6.26-14.12-11.19-23.02-11.2c-9.4,0-16.39,3.52-18.75,9.42c-2.24,5.58,0.03,12.17,6.22,18.08
	c6.03,5.76,8.65,11.64,7.79,17.47c-1.06,7.14-7.11,12.76-12,16.21C315.34,193.41,320.56,187.98,322.03,182.17 M388.84,138.94
	l2.6,4.77l-0.23,0.09c-2.47,0.94-4.83,1.45-7.2,1.55c-0.71,0.85-1.37,1.77-1.96,2.75c-4.38,7.26-2.72,17.56,3.78,23.47
	c1.34,1.22,2.79,2.28,4.31,3.18c0.33-0.59,0.66-1.21,0.98-1.87l0.08-0.15l12.09,2.78l-0.1,0.24c-0.36,0.89-0.82,1.74-1.36,2.54
	c0.39,0.02,0.78,0.03,1.17,0.03c11.5,0,21.33-7.52,24.46-18.7c5.15-18.37,22.17-22.23,35.54-22.23c2.36,0,4.78,0.12,7.23,0.36
	c-5.3-0.92-10.2-1.38-14.59-1.38c-3.97,0-7.49,0.38-10.62,1.07c-2.79,3.17-6.06,5.2-10.55,5.2c-0.47,0-0.96-0.02-1.45-0.07
	c-5.64,3.94-9.2,9.27-11.99,14.55c-4.53,8.58-10.79,13.5-17.17,13.5c-2.38,0-4.76-0.67-7.06-2c-5.14-2.96-9.66-9.71-7.44-17.51
	c0.75-2.64,2.39-5.02,4.74-6.88l0.09-0.07l0.11,0.04c1.5,0.53,3.07,0.95,4.66,1.26c3.42,0.66,6.66,1,9.64,1
	c8.67,0,14.19-2.85,16.86-5.91c-1.4-0.66-2.77-1.55-3.97-2.75l0.26-0.34c1.61,0.95,3.13,1.58,4.59,1.9
	c0.04-0.06,0.08-0.12,0.12-0.18c1.28-2.15,1.44-4.6,0.44-6.9c-1.25-2.88-4.13-5.15-7.8-6.18c2.32,2.01,3.24,4.25,2.6,6.37
	c-0.95,3.14-5.22,5.47-10.64,5.8c-0.51,0.03-1.02,0.04-1.53,0.04c-7.72,0-14.78-3.3-17.18-8.03c-1.6-3.15-1.06-6.7,1.56-10.27
	l0.08-0.11l0.13,0.02c10.99,2.02,21.7,3.04,31.84,3.04c18.76,0,32.34-3.5,40.43-6.44l0.53-0.19l-0.27,0.5
	c-3.37,6.32-1.81,14.81,3.63,19.75c0.38,0.35,0.77,0.67,1.16,0.99l-0.14,0.31c0.2,0.02,0.4,0.05,0.6,0.07l0.11,0.04
	c3.88,2.9,8.45,4.44,13.21,4.44c9.99,0,18.52-6.53,21.25-16.25c4.49-16,19.31-19.36,30.96-19.36c3.96,0,7.5,0.39,10.02,0.78
	c-5.65-1.64-10.96-2.46-15.82-2.46c-17.12,0-26.15,10.28-30.71,18.9c-3.95,7.47-9.4,11.76-14.96,11.76c-2.08,0-4.15-0.59-6.16-1.74
	c-4.48-2.58-8.42-8.46-6.49-15.27c1.24-4.36,5.98-9.45,15.27-9.45c0.27,0,0.54,0,0.81,0.01c-2.53-1.14-5.11-1.72-7.71-1.72
	c-5.27,0-10.2,2.49-13.51,6.83l-0.05,0.06l-0.07,0.02c-9.52,2.33-19.78,3.5-30.51,3.5c-26.75,0-49.17-7.11-58.11-10.4
	c1.52,2.89,1.67,6.39,0.44,10.17c-2.08,6.36-7.63,12.37-14.4,15.71l14.34-2.55l0.06,0.18c0.02,0.05,1.48,4.54,6.37,8.58
	c0.78-0.21,1.58-0.44,2.39-0.71L388.84,138.94z M296.31,118.48c-1.04,1.32-6.76,7.56-24.08,11.76c14.04,2.22,21.11,6.73,24.08,15.34
	c2.97-8.61,10.04-13.12,24.08-15.34C303.08,126.04,297.36,119.79,296.31,118.48 M296.31,189.85c4.51,0,8.18-5,8.18-11.14
	c0-6.14-3.67-11.13-8.18-11.13c-4.51,0-8.18,4.99-8.18,11.13C288.13,184.85,291.8,189.85,296.31,189.85 M490.05,98.19l0.01,0.43
	c-6.23,0.45-11.31,1.78-15.5,3.6c3.34-0.18,6.43-0.62,9.06-1.31l0.07-0.02l0.07,0.03c1.48,0.64,3.57,1.05,6.21,1.22
	c8.89,0.6,21.69-1.7,36.68-6.57c12.13-3.94,28.81-8.15,39.23-8.15c3.62,0,6.24,0.52,7.78,1.55c0.59,0.39,0.84,0.86,0.77,1.39
	c-0.27,2.01-5.76,4.51-9.8,6.09c6.2-1.82,12.48-4.66,14.53-7.72l0.07-0.07c3.92-1.53,14.03-8.05,16.64-13.27
	c-3.97,4.85-14.95,9.26-18.31,10.06l-0.06,0.02l-0.06-0.02c-2.28-0.84-5.88-1.3-10.14-1.3c-5.6,0-15.1,0.78-28.58,4.5
	c-2.34,0.65-4.7,1.31-7.03,1.97c-11.81,3.32-22.97,6.46-28.97,6.58c-5.55,0.11-8.48-0.57-8.84-2.01c-0.4-1.6,2.5-3.5,5-4.82
	c6.69-3.52,22.28-8.48,35.96-8.48c2.96,0,5.65,0.25,8,0.73c-2.08-1.11-6.4-2.09-12.53-2.09c-3.71,0-7.66,0.35-11.73,1.05
	c-10.54,1.81-21.62,5.28-28.9,9.07l-0.15,0.08l-0.11-0.13c-3.36-3.77-9.98-6.83-15.94-8.56c4.26,1.86,11.77,5.61,12.36,9.06
	c0.16,0.97-0.22,1.85-1.14,2.62c-2.56,2.14-6.88,3.22-12.84,3.22c-10.71,0-26.62-3.56-42.55-9.52c-13.43-5.02-25.73-7.68-35.57-7.68
	c-2.59,0-5.05,0.18-7.32,0.54c-5.44,0.86-9.14,2.63-10.69,5.11c-0.84,1.35-1.01,2.88-0.5,4.53c0.49,1.59,1.59,3.26,3.28,4.96
	c6.8,6.9,21.93,13.18,37.63,15.62c3.29,0.51,6.58,0.77,9.78,0.77c9.99,0,17.26-2.45,20.36-4.95c-4.13,1.42-8.92,2.15-14.27,2.15
	c-14.54,0-30.22-5.34-37.58-10.37c-3.75-2.56-5.52-5.02-4.97-6.94c0.65-2.31,4.39-3.63,11.11-3.95c7.24-0.34,20.02,3.63,33.58,7.85
	c2.67,0.83,5.37,1.67,8.05,2.48c9.67,2.94,19.12,4.54,27.45,4.71C475.12,99.66,481.8,98,490.05,98.19 M45.55,85.17
	c-8.95-6.78-19.44-10.22-31.19-10.22c-0.29,0-0.59,0-0.89,0.01c10.38,0.77,19.05,3.76,26.37,9.1L45.55,85.17z M55.07,93.21
	l-7.27-1.74c3.86,4.14,6.97,8.5,9.77,12.62c2.23-0.35,4.94-0.41,7.52-0.18C61.33,99.63,58.14,96.22,55.07,93.21 M70.45,110.07
	c-2.41-0.83-6.05-1.44-10.05-1.7c4.9,7.13,10.78,14.64,18.58,15.13c0.43,0.03,0.91,0.04,1.42,0.04c1.38,0,2.83-0.1,4.1-0.29
	c-0.09-1.14-0.71-2.58-1.52-3.54C78.36,118.14,74.06,113.97,70.45,110.07 M96.69,116.61c-1.39,0.93-3.45,1.68-4.98,1.94l1.48,2.27
	C94.77,119.81,96.03,117.96,96.69,116.61 M84.86,95.04l3.32,0.39c-6.6-6.55-13.85-10.03-22.53-10.76
	C73.55,86.05,79.87,89.47,84.86,95.04 M111.84,118.96c-5.55,0-9.59-5.56-14.26-12c-0.93-1.29-1.9-2.62-2.92-3.96l-4.38-0.4
	c1.06,1.78,2.02,3.55,2.94,5.26c3.48,6.44,6.49,12,12.33,12.73c0.66,0.08,1.36,0.12,2.08,0.12c2.23,0,6.16-0.42,8.99-3
	C114.95,118.55,113.37,118.96,111.84,118.96 M159.78,142.18c0.89,0,1.83-0.09,2.79-0.25c2.37-0.41,5.65-1.18,8.4-3.2
	c-1.86,0.87-3.61,1.29-5.31,1.29c-6.65,0-11.47-6.67-17.05-14.4c-0.65-0.89-1.3-1.81-1.98-2.73c-2.19-0.27-4.71-0.89-6.6-1.41
	c0.84,1.47,1.63,2.94,2.41,4.37C147.19,134.62,151.31,142.18,159.78,142.18 M108.93,98.72c15.14,2.36,22.62,10.26,27.03,16.27
	l4.7,0.66C134.2,108.13,124.81,99.77,108.93,98.72 M173.25,106.37c-6.29-3.25-13.06-5.03-20.6-5.42c6.81,0.96,12.73,2.89,18,5.88
	L173.25,106.37z M177.56,111.68c1.1,0.95,2.19,1.98,3.25,3.08l3.83-0.38c-1.2-1.08-2.41-2.1-3.62-3.04L177.56,111.68z
	 M199.02,131.23c-1.97-2.71-4.28-5.83-6.85-8.9l-4.84,0.68c2.48,3.74,4.53,7.52,6.51,11.19L199.02,131.23z M203.45,143.47
	c5.29,1.97,10.01,1.96,15.63-0.06c2.7-0.97,5.81-2.87,5.93-6.47c-1.61,2.84-4.81,4.34-9.31,4.34c-2.92,0-6.4-0.63-10.06-1.82
	L203.45,143.47z M225.17,76.87c2.21-2.22,5.39-3.44,8.94-3.44c3,0,6.02,0.87,8.81,2.53c-3.71-4.65-9.15-5.64-11.56-6.07
	c-1.28-0.23-2.62-0.35-4-0.35c-6.41,0-14.29,2.65-17.62,8.55c4.52,1.04,8.71,2.98,12.46,5.78
	C222.29,81.14,223.31,78.73,225.17,76.87 M209.7,185.7c2.82-0.06,8.11-0.98,11.61-3.14c-2.04,0.63-3.88,0.94-5.59,0.94
	c-6.85,0-10.37-5.17-12.89-10.29l-11.26,2.59C194.21,181.97,201.29,185.9,209.7,185.7 M189.57,164.18c3.64,0,6.59-2.5,6.59-5.57
	c0-3.07-2.96-5.57-6.59-5.57c-3.64,0-6.59,2.5-6.59,5.57C182.98,161.68,185.94,164.18,189.57,164.18 M554.43,84.05
	c7.32-5.34,15.99-8.33,26.37-9.1c-0.3,0-0.59-0.01-0.88-0.01c-11.75,0-22.24,3.44-31.19,10.22L554.43,84.05z M536.7,104.1
	c3.22-4.74,6.14-8.73,9.77-12.62l-7.27,1.74c-3.07,3-6.26,6.42-10.02,10.7c1.03-0.09,2.08-0.14,3.12-0.14
	C533.88,103.78,535.36,103.88,536.7,104.1 M533.87,108.37c-4.01,0.26-7.65,0.88-10.05,1.7c-3.61,3.89-7.91,8.07-12.53,9.62
	c-0.82,0.96-1.43,2.41-1.52,3.54c1.28,0.19,2.73,0.29,4.1,0.29c0.52,0,1-0.02,1.42-0.04C523.1,123.01,528.98,115.5,533.87,108.37
	 M497.59,116.61c0.65,1.34,1.92,3.2,3.5,4.21l1.48-2.27C501.04,118.29,498.98,117.55,497.59,116.61 M528.62,84.67
	c-8.69,0.74-15.93,4.21-22.53,10.76l3.32-0.39C514.41,89.47,520.72,86.05,528.62,84.67 M496.69,106.96c-4.67,6.44-8.71,12-14.26,12
	h0c-1.53,0-3.1-0.41-4.79-1.24c2.82,2.59,6.75,3,8.99,3c0.72,0,1.42-0.04,2.08-0.12c5.84-0.73,8.85-6.29,12.33-12.73
	c0.93-1.72,1.88-3.49,2.95-5.27l-4.38,0.4C498.59,104.34,497.63,105.67,496.69,106.96 M423.3,138.73c2.75,2.02,6.03,2.79,8.4,3.2
	c0.96,0.17,1.9,0.25,2.79,0.25c8.48,0,12.59-7.56,17.35-16.32c0.78-1.43,1.58-2.9,2.41-4.37c-1.89,0.52-4.42,1.14-6.6,1.41
	c-0.67,0.92-1.33,1.83-1.98,2.73c-5.58,7.73-10.41,14.4-17.05,14.4h0C426.91,140.03,425.16,139.6,423.3,138.73 M485.34,98.72
	c-15.88,1.05-25.26,9.42-31.73,16.92l4.7-0.66C462.72,108.98,470.21,101.08,485.34,98.72 M421.02,106.37l2.6,0.45
	c5.27-2.98,11.19-4.92,18-5.88C434.08,101.33,427.31,103.12,421.02,106.37 M413.26,111.34c-1.21,0.93-2.43,1.95-3.62,3.04l3.83,0.38
	c1.05-1.1,2.14-2.13,3.25-3.08L413.26,111.34z M400.43,134.2c1.98-3.67,4.03-7.45,6.51-11.19l-4.84-0.68
	c-2.57,3.08-4.87,6.2-6.85,8.9L400.43,134.2z M369.26,136.94c0.12,3.61,3.23,5.51,5.93,6.47c5.62,2.02,10.34,2.03,15.63,0.06
	l-2.19-4.01c-3.66,1.19-7.14,1.82-10.06,1.82h0C374.07,141.28,370.87,139.78,369.26,136.94 M369.11,76.87
	c1.85,1.86,2.87,4.27,2.96,7.01c3.75-2.8,7.95-4.75,12.46-5.78c-3.34-5.91-11.22-8.55-17.62-8.55c-1.38,0-2.72,0.12-4,0.35
	c-2.41,0.43-7.84,1.42-11.56,6.07c2.79-1.66,5.81-2.53,8.81-2.53C363.72,73.43,366.9,74.65,369.11,76.87 M402.7,175.8l-11.25-2.59
	c-2.53,5.11-6.04,10.29-12.89,10.29l0,0c-1.71,0-3.56-0.31-5.59-0.94c3.5,2.16,8.79,3.08,11.61,3.14
	C392.96,185.88,400.07,181.97,402.7,175.8 M404.7,153.05c-3.64,0-6.59,2.5-6.59,5.57c0,3.07,2.96,5.57,6.59,5.57s6.59-2.5,6.59-5.57
	C411.3,155.54,408.34,153.05,404.7,153.05 M295.02,80.76c0.4,5.86,1.62,10.27,2.31,12.37l0.01,0.62l0.1-0.28l0.06,0.16l0-0.33
	c0.68-2.18,1.85-6.6,2.18-12.46c0.2-3.6,0.27-7.09,0.34-10.46c0.2-9.73,0.37-18.14,3.73-22.77c1.44-1.98,3.05-3.03,4.66-3.03
	c2.72,0,5.32,2.89,7.55,8.37c10.06-10.93,4.36-16.93-3.5-25.19c-5.91-6.22-13.27-13.95-15.52-26.04L296.91,0l-0.09,0l0.01,1.58
	c-2.11,12.14-9.38,19.95-15.22,26.22c-7.76,8.34-13.39,14.39-3.21,25.23c2.17-5.53,4.76-8.45,7.49-8.45c1.6,0,3.21,1.03,4.66,2.98
	c3.42,4.6,3.69,13,4,22.73C294.66,73.67,294.77,77.16,295.02,80.76 M297.55,241.88l-0.6-0.02l-17.48-8.48
	c2.7,3.93,16.04,23.95,17.25,36.39c0.17-0.11,0.36-0.18,0.58-0.18c0.21,0,0.41,0.06,0.58,0.18c1.21-12.44,14.55-32.45,17.25-36.39
	L297.55,241.88z M296.64,317.28c-2.08,3.23-6.58,8.31-11.29,8.31c-1.67,0-3.2-0.65-4.57-1.92c-0.12,4.15,1.92,6.79,4.7,10.4
	c0.12,0.16,0.25,0.32,0.38,0.49c-0.32-2.11-0.08-3.77,0.69-4.73c0.45-0.55,1.05-0.84,1.73-0.84c1.22,0,2.49,0.93,3.29,2.43
	c0.84,1.57,1.1,4.36,1.42,7.89c0.45,4.88,1.06,11.51,3.65,18.01c2.47-7.23,2.47-14.1,2.46-19.16c0-2.38,0-4.44,0.25-6.02
	c0.43-2.74,2.06-3.97,3.47-3.97c0.75,0,1.47,0.33,2.02,0.93c0.81,0.88,1.23,2.27,1.2,3.95c0.61-0.63,1.23-1.19,1.83-1.74
	c2.21-2.01,4.12-3.77,4.6-7.57c-1.12,0.95-2.96,1.85-5.21,1.85C304.9,325.57,300.39,324.49,296.64,317.28"/>
</svg>
