<?xml version="1.0" encoding="utf-8"?>
<!-- Generator: Adobe Illustrator 14.0.0, SVG Export Plug-In  -->
<!DOCTYPE svg PUBLIC "-//W3C//DTD SVG 1.1 Tiny//EN" "http://www.w3.org/Graphics/SVG/1.1/DTD/svg11-tiny.dtd" [
	<!ENTITY ns_flows "http://ns.adobe.com/Flows/1.0/">
]>
<svg version="1.1" baseProfile="tiny"
	 xmlns="http://www.w3.org/2000/svg" xmlns:xlink="http://www.w3.org/1999/xlink" xmlns:a="http://ns.adobe.com/AdobeSVGViewerExtensions/3.0/"
	 x="0px" y="0px" width="307px" height="356px" viewBox="-0.83 -0.23 307 356" xml:space="preserve">
<defs>
</defs>
<path fill="#FAFA00" d="M153.4,185.64c-0.94,0.15-1.88,0.42-2.83,0.83c-0.93,0.4-1.71,0.7-2.38,0.95c-0.17-0.11-0.33-0.22-0.5-0.34
	c-5.32-3.62-12.18-4.98-17.11,0.26c-0.1,0.11-0.19,0.22-0.28,0.33c-4.7-3.69-11.18-6.39-19-4.66c-16.59,3.67-15.08,9.83-18.33,11.25
	c-3.25,1.42-7.13,1.11-7.89-2.61c-0.76-3.71,2.83-6.46,7.11-7.13c4.28-0.67,15.48-2.59,19.2-6.82c3.72-4.23,3.68-8.06,1.73-8.85
	c-1.95-0.79-6.67,1.77-9.52,2.21c-2.85,0.44-6.54-0.99-6.12-4.16c0.42-3.17,4.32-5.06,7.85-4.69c3.53,0.36,7.62-2.65,7.68-5.76
	s-4.41-6.07-6.87-6.6c-2.46-0.53-6.29-1.62-10.33-0.06c-4.04,1.56-5.94,2.89-9.18,3.43c-3.53,0.58-4.87-2.86-4.38-4.4
	c0.49-1.54,1.1-2.83,3.91-2.12c2.81,0.71,8.74,1.25,11.44,1.02c2.7-0.24,8.07-3.26,12.21-2.45c4.15,0.82,14.16,6.56,19.94,7.31
	c4.96,0.64,15.3-1.3,22.35,0.83c-0.37,2.98-1.52,6.04-2.05,8.86c-1.11,5.99,8,16.82,10.49,20.42c0.46,0.67,0.98,1.31,1.55,1.94
	c-1.97-0.15-3.88,0.18-5.57,0.93C155.5,185.45,154.45,185.47,153.4,185.64z"/>
<path fill="#FAFA00" d="M148.71,231.24c0.21-0.32,0.44-0.66,0.67-1c-0.02,0.32-0.05,0.63-0.11,0.93c-0.33,1.68-0.67,4.52-0.95,7.96
	C147.21,236.5,147.17,233.58,148.71,231.24z"/>
<path fill="#FAFA00" d="M113.49,225.39c-5.81-3.3-1.26-6.92,1.93-8.7c3.19-1.77,14.34-4.05,19-6.97c0.07-0.04,0.14-0.09,0.21-0.13
	c0.45,0.98,0.78,1.89,0.9,2.7c0.06,0.38,0.1,0.74,0.13,1.11c-0.36,0.27-0.73,0.56-1.08,0.86
	C128.92,218.98,119.3,228.69,113.49,225.39z"/>
<path fill="#FAFA00" d="M156.78,239.66c3.2,2.97,0.81,7.54-3.82,4.79c-0.23-0.13-0.45-0.28-0.67-0.43c0.7-4.34,1.84-7.4,2.86-9.92
	C155.11,236.59,155.62,238.59,156.78,239.66z"/>
<path fill="#FAFA00" d="M157.59,221.19c0.32-0.9,0.58-1.04,1.22-0.19c-0.51,1-0.97,2.02-1.38,3.04
	C157.43,222.74,157.38,221.77,157.59,221.19z"/>
<path fill="#FAFA00" d="M94.13,173.64c2.5-0.39,7.65,1.94,13.43,2.31c2.59,0.16-14.35,5.87-16.3,5.08
	C90.05,177.92,91.63,174.03,94.13,173.64z"/>
<path fill="#FAFA00" d="M79.39,173.92c2.69,3.23-0.37,11.74-6.5,6.3c-1.35-1.2-2.09-4.06-1.2-6.57
	C72.57,171.15,76.7,170.69,79.39,173.92z"/>
<path fill="#FAFA00" d="M42.25,128.76c-2.66-1.53-4.38-3.52-4.21-5.92c0.18-2.4,2.03-6.11,5.95-4.83c3.91,1.29,7.51,3.28,7.5,6.75
	C51.48,128.24,46.26,131.06,42.25,128.76z"/>
<path fill="#FAFA00" d="M15.58,162.66c3.59,2,5.19,2.85,6.86,1.86c1.67-0.99,4.32-2.71,5.34-2.03c1.02,0.68,0.69,3.29-1.24,3.77
	c-1.93,0.48-3.24-0.63-4.96-0.71c-1.73-0.08-5.05-0.29-7.27,1.88c-2.22,2.17-5.84,2.37-7.37,1.88c-2.43-0.78-2.15-4.41-0.32-5.61
	C8.43,162.49,11.98,160.66,15.58,162.66z"/>
<path fill="#FAFA00" d="M3.15,114.39c2.85-0.44,4.9,4.53,6.04,6c1.14,1.47,3.52,3.83,7.34,3.79c3.83-0.05,8.6,2.5,7.63,6.84
	c-0.97,4.35-5.93,4.4-8.86,1.84c-1.98-1.73-2.62-6.44-4.49-9.08c-1.87-2.63-6.07-3.8-7.51-4.86C1.86,117.88,0.3,114.84,3.15,114.39z
	"/>
<path fill="#FAFA00" d="M35.31,136.96c1.39,0.7,1.4,1.97,0.8,2.8c-0.6,0.82-1.43,0.22-2.15-0.94
	C33.14,137.5,33.93,136.26,35.31,136.96z"/>
<path fill="#FAFA00" d="M57.69,172.91c0.88,0.96,0.95,2.59,0.35,3.41c-0.6,0.83-1.73,0.63-2.6-0.32c-1.03-1.13-0.89-2.23-0.3-3.06
	C55.74,172.12,56.81,171.95,57.69,172.91z"/>
<path fill="#FAFA00" d="M233.87,78.87c-2.08,2.33-4.57,4.22-6.98,3.16c-2.41-1.06-2.78-5.55,0.04-7.64c1.88-1.39,3.78-1.98,5.4-1.12
	C233.94,74.12,235.95,76.54,233.87,78.87z"/>
<path fill="#FAFA00" d="M249.19,62.57c-0.57,2.85-3.22,5.99-6.29,4.58c-3.08-1.41-2.32-5.1,0.04-6.87c1.59-1.2,5.2-0.92,7.45-1.89
	c2.25-0.97,3.79-3.9,4.8-4.8c1.01-0.9,3.52-1.58,3.39,0.6c-0.12,2.19-4.14,2.92-5.41,3.53C251.9,58.34,249.76,59.73,249.19,62.57z"
	/>
<path fill="#FAFA00" d="M211.86,98.51c-0.8,0.04-1.49-0.43-1.86-1.08c-0.59-1.02,0.43-1.61,2-1.84c0.34-0.05,0.65-0.04,0.92,0.02
	c-0.11,0.16-0.21,0.33-0.3,0.51C212.24,96.85,211.98,97.66,211.86,98.51z"/>
<path fill="#FAFA00" d="M253.11,238.74c0,0,20.22,9.96,22.48,15.92c2.26,5.96-4.46,4.1-7.86-0.63c-1.55-2.15-8.33-9.26-11.63-11.62
	C252.8,240.06,250.6,238.49,253.11,238.74z"/>
<path fill="#FAFA00" d="M216.74,200.96c1.34,0.96,2.84,1.69,4.43,2.09c5.6,9.84,13.07,20.48,11.34,19.46
	c-2.07-1.22-22.06-20.09-30.74-17.59c-8.67,2.5-9.16,2.28-7.78,6.97c1.38,4.69,9.88,12.29,12.83,14.77
	c2.95,2.49,1.03,4.82-0.28,7.72c-1.3,2.9,0.74,9.34,4.04,11.7c3.3,2.35,0.46,5.44-3.4,3.7c-3.87-1.74-5.68-5.46-5.53-10.33
	c0.15-4.87-1.52-16.66-5.27-21.25c-3.75-4.59-16.2-1.47-15.9,5.64c0.29,7.11,5.75,9.85,4.49,13.94c-1.26,4.08-4.51,2.91-5.35-0.37
	c-0.85-3.29-1.37-13.11-6.27-19.67c-4.9-6.56-8.46-9.62-14.53-12.93c-6.07-3.31-6.75-8.26-3.52-13.5c3.22-5.24,6.66-2.53,9.44,1.62
	c1.28,1.91,4.74,3.51,9.19,4.14c-3.38-3.12-5.95-7.1-8.34-11.23c-2.57-4.44-4.93-9.05-7.87-12.96c-3.42-4.55-2.91-11.98-0.2-18.06
	c2.71-6.08,7.59-13.9,8.01-17.8c0.43-3.9-3.37-20.17-1.7-25.12c1.68-4.96,5.08-4.45,6.17-2.47c1.08,1.97-0.69,8.09-3.01,15.23
	c-2.32,7.15,2.99,15.79,6.69,18.53c3.7,2.74,9.85,4.74,12.42,2.9c3.29-2.36,4.66-7.88,5.21-12.22c0.09-0.68,1.26,10.31-0.86,16.8
	c-1.28,3.92-6.19,10.91-5.73,14.84c1.5,12.88,27.27,8.21,28.21,24.45c0.18,3.01-0.97,5.64-2.87,7.86c0.46-0.2,0.92-0.4,1.34-0.62
	c1.47-0.76,2.6-1.63,3.43-2.58C214.62,197.24,214.86,199.62,216.74,200.96z"/>
<path fill="#FAFA00" d="M235.35,260.96c0.32-3.58,7.32-6.89,7.75,0.12c0.09,1.54-1.19,3.72-3.24,4.7
	C237.8,266.77,235.03,264.55,235.35,260.96z"/>
<path fill="#FAFA00" d="M222.98,316.23c-1.59-3.14-2.56-6.53-0.46-8.62c2.1-2.1,6.97-0.65,8,3.17c0.69,2.54,0.53,4.78-1.03,6.13
	C227.94,318.25,224.57,319.37,222.98,316.23z"/>
<path fill="#FAFA00" d="M262.56,292.39c-2.03-0.83-5.39-2.04-5.47-3.42c-0.08-1.38,2.49-2.86,4.24-1.45
	c1.75,1.41,1.64,3.35,2.75,4.95c1.11,1.61,3.17,4.74,6.64,5.26c3.47,0.52,6.11,3.65,6.71,5.36c0.96,2.72-2.51,4.94-4.83,4.12
	c-2.32-0.83-6.39-2.78-7.04-7.37C264.92,295.23,264.59,293.22,262.56,292.39z"/>
<path fill="#FAFA00" d="M238.78,333.37c0.6,2.16-1.16,5.84-1.07,8.6c0.1,2.75,2.55,5.57,3.08,7.01c0.53,1.43,0.22,4.34-2.03,3.32
	c-2.25-1.03-1.37-5.55-1.49-7.13c-0.13-1.59-0.71-4.4-3.46-6.16c-2.76-1.77-4.97-5.84-2.23-8.49
	C234.32,327.86,237.9,330.16,238.78,333.37z"/>
<path fill="#FAFA00" d="M211.44,286.86c-0.64-1.92,0.52-3.11,1.84-3.31c1.31-0.21,1.52,1.11,1.12,2.85
	C213.94,288.37,212.07,288.78,211.44,286.86z"/>
<path fill="#FAFA00" d="M249.45,276.22c-0.87,0.13-1.61-0.41-1.56-1.52c0.04-1.11,0.99-2.14,1.85-2.28
	c0.86-0.13,1.43,0.66,1.38,1.77C251.06,275.5,250.31,276.09,249.45,276.22z"/>
<path fill="#FAFA00" d="M250.36,213.58c3.5,0.15,6.46,2.98,7.25,4.62c1.24,2.6-1.97,5.18-4.37,4.6c-2.39-0.57-6.64-2.08-7.78-6.59
	c-1.13-4.5-1.67-6.47-3.78-7.08c-2.11-0.61-5.57-1.46-5.8-2.82c-0.23-1.37,2.17-3.12,4.06-1.9c1.89,1.22,1.98,3.16,3.25,4.64
	C244.47,210.54,246.86,213.43,250.36,213.58z"/>
<path fill="#FAFA00" d="M128.12,26.26c-1.83-2.53-2.22-8.06,0.08-9.1c2.3-1.04,7.06,1.2,5.15,9.76
	C132.99,28.48,129.95,28.78,128.12,26.26z"/>
<path fill="#FAFA00" d="M119.99,122.27c1.87,1.18,3.05,6.89-2.15,6.32c-1.66-0.18-2.9-3.06-2.39-4.8
	C115.95,122.04,118.13,121.1,119.99,122.27z"/>
<path fill="#FAFA00" d="M141.33,134.71c-1.7-3.1-6.08-10.06-4.81-21.77c1.28-11.71-3.52-16.42-4.66-18.17
	c-1.42-2.17-8.68-14.13-9.1-19.23s1.28-6.02,3.9-5.26c2.62,0.76,3.04,11.54,2.9,15.29c-0.14,3.75,1.99,8.63,4.89,10.9
	c2.89,2.26,11.41,6.39,11.42,10.42c0.01,4.03-6.36,10.47-4.49,19.54c1.86,9.07,3.45,10.95,5.59,14.18
	C146.54,141.2,143.03,137.81,141.33,134.71z"/>
<path fill="#FAFA00" d="M184.26,100.29c-3.74-4.83-5.87-8.34-4.95-12.33c0.62-2.66,4.96-3.49,7.65,0.56
	c2.14,3.23,3.91,6.11,3.85,26.7C190.81,115.22,188.04,105.18,184.26,100.29z"/>
<path fill="#FAFA00" d="M206.97,116.61c1-2.11,2.4-3.53,4.22-3.54c1.83-0.01,4.75,1.17,4.01,4.21c-0.74,3.04-2.03,5.88-4.66,6.08
	C207.92,123.56,205.47,119.78,206.97,116.61z"/>
<path fill="#FAFA00" d="M220.1,91.43c1.53-1.92,1.5-5.22,1.96-6.5c0.47-1.27,2.35-3.06,3.28-1.07c0.92,1.99-2.27,4.53-3.1,5.67
	s-2.06,3.37-1.22,6.15c0.84,2.78-0.01,6.8-3.39,7.01c-3.37,0.21-4.46-3.4-3.21-6.08C215.27,94.81,218.57,93.35,220.1,91.43z"/>
<path fill="#FAFA00" d="M202.92,144.92c-1-0.62-0.38-1.62,0.89-2.57c1.44-1.07,2.93-0.27,2.26,1.39
	C205.39,145.4,203.93,145.54,202.92,144.92z"/>
<path fill="#FAFA00" d="M184.37,61.75c-1.88,3.07-9.62,2.92-6.9-3.54c0.6-1.42,2.71-2.81,4.99-2.78
	C184.74,55.45,186.25,58.67,184.37,61.75z"/>
<path fill="#FAFA00" d="M172.85,26.43c-0.95-2.04,0.01-3.72-0.26-5.66c-0.28-1.93-0.75-5.66-3.62-7.66c-2.88-2-3.86-5.98-3.64-7.79
	c0.35-2.86,4.44-3.31,6.15-1.54c1.71,1.77,4.49,5.32,3.04,9.73c-1.46,4.41-2.06,6.36-0.61,8c1.45,1.64,3.92,4.22,3.39,5.49
	C176.76,28.29,173.8,28.48,172.85,26.43z"/>
<path fill="#FAFA00" d="M176.55,45.1c-0.83-0.26-0.99-1.23-0.45-2.2c0.63-1.15,1.57-1.34,2.4-1.08c0.83,0.26,1.26,1.08,0.73,2.06
	C178.69,44.86,177.39,45.36,176.55,45.1z"/>
<path fill="#32DA00" d="M76.3,256.23c-4.69,0.01-3.04-5.45-0.07-8.01c2.98-2.57,15.74-5.59,19.14-8.15
	C95.37,240.06,80.99,256.22,76.3,256.23z"/>
<path fill="#32DA00" d="M52.19,171.65c0,0-29.33,15.81-34.64,14.34c-5.32-1.47-2.05-5.77,2.14-7.73
	C23.87,176.29,47.53,173.47,52.19,171.65z"/>
<path fill="#32DA00" d="M92.68,166.85c-0.91-0.93-1-2.1-0.1-2.73c0.28-0.19,1.09-0.4,2.28-0.59
	C93.85,164.51,93.11,165.64,92.68,166.85z"/>
<path fill="#32DA00" d="M162.95,127.86c0.48,2.65,0.89,4.92,0.98,6.24c0.19,2.88-3.27,9.71-8.39,9.52c0.55-1.7,1.04-3.39,1.46-4.94
	c0.57-2.14,1.01-4.02,1.29-5.3C158.95,130.26,160.93,128.4,162.95,127.86z"/>
<path fill="#32DA00" d="M171.05,135.43c-0.03,0.15-0.07,0.29-0.1,0.44c-1.67-2.23-2.54-4.27-2.82-6.15
	C169.93,131.48,171.37,133.96,171.05,135.43z"/>
<path fill="#32DA00" d="M228.47,135.15c-1.31,3.06-3.17,5.82-5.96,5.58c-0.08-0.01-0.16-0.03-0.24-0.04
	c1.69-2.29,3.97-4.88,6.44-7.71C228.87,133.6,228.82,134.33,228.47,135.15z"/>
<path fill="#32DA00" d="M187.17,121.01c0.23,0.72,0.53,1.59,0.77,2.45c-0.39,1.34-0.78,2.65-1.17,3.91
	c-1.09-0.13-2.35-1.04-2.38-2.5c-0.05-2.13,1.42-3.22,1.92-5s1.5-5.18-0.23-8c-1.28-2.08-1.25-4.7-0.8-6.53
	c1.73,3.21,2.92,7.05,3.61,11.08C187.29,118.32,186.69,119.52,187.17,121.01z"/>
<path fill="#32DA00" d="M238.36,113.48c0.04,0.28,0.05,0.56,0.05,0.85c-0.3-1.58-0.99-3-1.89-4.35c0.6-0.34,1.16-0.71,1.62-1.12
	c1.94-1.75,2.49-5.23,3.2-6.48c0.71-1.26,3.01-2.8,3.63-0.55c0.62,2.25-3.18,4.36-4.25,5.42
	C239.65,108.28,237.97,110.41,238.36,113.48z"/>
<path fill="#32DA00" d="M180.96,140.35c0.58-0.44,1.12-0.56,1.59-0.47c-0.15,0.4-0.3,0.81-0.46,1.24c-0.61,0.18-1.24,0.29-1.9,0.31
	C180.28,141.06,180.54,140.67,180.96,140.35z"/>
<path fill="#32DA00" d="M245.79,287.82c-2.3,1.55-5.93-6.35-6.69-11.49c-0.28-1.92-1.15-5.13-2.31-8.7
	c0.32,0.05,0.63,0.07,0.93,0.04c0.09-0.01,0.18-0.02,0.28-0.04c1.97,4.77,4.78,10.84,7.72,13.28
	C247.9,282.71,248.09,286.27,245.79,287.82z"/>
<path fill="#32DA00" d="M205.21,221.92c-0.04-1.41,0.83-2.48,4.33-1.44c6.04,1.8,11.51,6.08,13.28,7.55
	c2.75,8.11,7.8,21.21,10.75,28.67c-0.22,0.18-0.43,0.38-0.64,0.59c-1.06-2.49-2.14-4.7-3.11-6.25c1.46,3.38,0.64,6.52-0.77,7.15
	c-1.41,0.62-1.81-3.95-1.31-6.55c0.5-2.6-0.7-5.83-2.44-7.57c-1.74-1.74-5.22-5.21-6.42-3.75c-1.21,1.46,4.28,24.92,7.4,32.52
	c3.12,7.6,3.86,9.85,2.81,11.04c-1.05,1.2-3-4.28-2.98-6.07c0.02-1.8-12.45-42.7-14.56-47.9c-0.02-0.05-0.04-0.1-0.06-0.15
	c-0.37-1.92-1.56-3.71-3.13-5.25C207.26,223.13,206.12,222.17,205.21,221.92z"/>
<path fill="#32DA00" d="M193.13,224.31c2.37,1.06,2.68,4.66,2.75,7.62c-0.98-1.82-2.18-3.53-3.55-4.58
	c-0.54,1.49-1.89,13.72-1.15,20.66c0.74,6.94-0.23,12.21,9.75,41.53c9.98,29.32,16.16,40.52,15.47,45.18
	c-0.68,4.67-7.57,4.62-8.71,0.71c-1.63-5.59-1.31-12.01-2.17-17.76c-1.23-8.15-4.22-15.01-7.15-22.61
	c-3.34-8.65-3.97-18.23-5.83-27.31c-1.45-7.11-3.22-14.15-4.6-21.27c-0.19-0.98-0.51-2.6-0.94-4.63c0.32-0.55,0.59-1.19,0.79-1.96
	c1.67-6.49-0.86-8.43-2.95-12.41C185.33,225.04,191.56,223.61,193.13,224.31z"/>
<path fill="#32DA00" d="M198.8,239.8c0-0.04-0.01-0.08-0.01-0.12l0.25,0.46c0.04,0.28,0.08,0.56,0.12,0.85
	C198.95,240.52,198.82,240.1,198.8,239.8z"/>
<path fill="#32DA00" d="M131.1,190.55c3.02-5.11,9.64-4.1,14.12-1.59c-0.8,0.83-1.19,2.18-1.61,5.07c-0.7,4.79,0.3,7.67,4.02,11.15
	c7.03,6.56,14.74,8.52,19.15,11.64c3.57,2.53,6.59,7.47,7.62,9.26c0.1,2.21,0.38,4.66,0.91,7.26c1.51,7.39,3.07,18.79,2.45,22.76
	c-0.62,3.98-0.32,8.13,1.46,10.98c1.78,2.84,4.14,8.2,2.23,11.43c-1.91,3.23-5.15,1.7-6.79,0.38c-1.64-1.32-2.94-4.97-1.96-8.38
	c0.98-3.41,3.4-8.68,2.64-11.48c-0.77-2.8-2.66-6.61-3.03-10.08c-0.37-3.47,0.39-18.21-0.37-23.35c-0.76-5.14-3.45-5.27-4.7-4.91
	c-1.25,0.36-2.55,4.3-2.83,5.95c-0.28,1.64,1.25,7.24,0.91,9.57c-0.34,2.33-3.33,0.95-2.83-1.65c0.5-2.6,1.33-10.43-1.22-13.73
	c-2.54-3.29-3.91-6.26-5.31-5.63c-1.41,0.63-0.94,4.51-0.25,7.45c0.69,2.93-0.79,8.94-1.96,11.51c-1.17,2.57-4.15,16.38-1.95,34.3
	c2.2,17.92,8.93,30.52,11.61,35.34c2.68,4.82,0.96,13.58-1.59,14.98c-2.56,1.4-6.9-2.94-5.55-7.58c1.36-4.63,0.3-11.03-0.42-15.07
	c-0.72-4.04-4.98-23.15-5.9-28.03c-0.92-4.88,1.03-31.58,1.81-35.82c0.78-4.24-6.87-21.72-9.69-23.37
	c-2.83-1.65-2.85,0.15-3.39,1.64c-0.54,1.5-1.95,6.81,0.69,10.53c2.65,3.71,1.12,5.71-0.55,6.19c-1.66,0.48-3.5-1.68-3.38-3.05
	c0.12-1.38,3.11-12.29,1.04-16.38C134.4,203.68,129.51,193.24,131.1,190.55z"/>
<path fill="#32DA00" d="M254.6,152.73c-0.56-3.36,5.05-8.05,7.12-1.75c0.45,1.38-0.2,3.68-1.84,5.08
	C258.22,157.45,255.16,156.08,254.6,152.73z"/>
<path fill="#32DA00" d="M262.61,205.26c-1.1,1.6-3.92,3.43-6.12,0.94c-2.2-2.5-3.9-5.36-2.48-7.78c1.42-2.42,6.22-2.25,8.08,0.99
	C263.32,201.57,263.71,203.65,262.61,205.26z"/>
<path fill="#32DA00" d="M299.69,186.1c-2.31-0.2-6.5-1.01-8.19-5.06c-1.69-4.05-2.47-5.81-4.52-6.08c-2.05-0.28-5.41-0.58-5.82-1.82
	c-0.4-1.25,1.59-3.22,3.53-2.34c1.94,0.87,2.3,2.67,3.69,3.87c1.4,1.21,4.04,3.58,7.33,3.22c3.29-0.35,6.46,1.87,7.42,3.3
	C304.65,183.44,302.01,186.3,299.69,186.1z"/>
<path fill="#32DA00" d="M279.53,235.41c-2.3-0.4-2.57-4.75-3.07-6.17c-0.49-1.42-1.7-3.85-4.64-4.81c-2.94-0.96-5.94-4.15-4.07-7.23
	s5.69-1.83,7.27,0.9c1.06,1.83,0.33,5.61,1.08,8.12c0.75,2.5,3.66,4.49,4.49,5.67C281.42,233.07,281.83,235.81,279.53,235.41z"/>
<path fill="#32DA00" d="M241.51,180.98c0.06,1.91-1.55,2.73-2.59,1.13c-1.04-1.6-0.27-2.97,0.89-3.47
	C240.96,178.14,241.46,179.29,241.51,180.98z"/>
<path fill="#32DA00" d="M269.33,162.29c-0.22-1.03,0.39-2.2,1.15-2.53c0.76-0.33,1.46,0.26,1.69,1.29c0.26,1.21-0.29,1.93-1.04,2.25
	S269.55,163.32,269.33,162.29z"/>
<path fill="#32DA00" d="M188.3,58.61c0.14-0.67,0.32-1.27,0.56-1.74c3.16-6.1,6.5,0.63,5.15,6.76c-0.61,2.79-1.45,13.36-0.96,17.7
	c0.48,4.35,0.81,7.24-0.79,5.05c0,0-3.76-13.47-4.21-22.63C188.85,62.28,188.84,60.34,188.3,58.61z"/>
<path fill="#32DA00" d="M194.05,114.6c0.51,2.54-0.25,32.17,7.99,37.35c8.25,5.17,8.42,5.72,11.19,1.23
	c2.77-4.48,2.76-16.77,2.64-20.93s3.13-4.29,6.4-5.33c3.27-1.04,6.97-7.32,6.49-11.67c-0.48-4.34,4.03-4.28,5.42,0.08
	c1.39,4.35-0.3,8.49-4.32,11.87c-4.02,3.38-12.29,13.21-13.28,19.52c-0.99,6.31,10.47,14.06,15.97,8.71
	c5.49-5.35,3.77-11.7,7.96-13.63c4.19-1.93,5.58,1.52,3.56,4.57c-2.03,3.04-9.54,10.54-11.29,19.19c-1.75,8.65-3.57,14.6-1.86,21.86
	c1.71,7.25,0.15,10.48-6.37,11.66c-6.52,1.17-6.82-3.53-5.49-8.75c1.34-5.23-5.91-17.62-18.31-22.67c-2.7-1.1-6.43-2.43-9.83-3.76
	c-1.12-1.35-1.57-3.13-0.83-5.69c3.27-11.4,6.02-21.18,3.06-33.32c-0.6-2.44-0.6-5.05-0.35-7.81
	C193.46,114.94,193.91,113.9,194.05,114.6z"/>
<path fill="#32DA00" d="M189.55,128.16c-0.11,2.05-0.33,4.05-0.67,5.93c-0.25,1.38-1.18,3.06-2.58,4.47
	C187.46,135.16,188.56,131.53,189.55,128.16z"/>
<path fill="#209C00" d="M3.54,182.12c-0.02,5.72,5.31,16.55,33.45-0.63c6.37-3.89,11.97-6.82,16.89-9.01
	c0.07-0.1,0.14-0.2,0.23-0.29c1.09-1.19,2.37-1.78,3.62-1.33c14.38-5.69,22.35-4.66,26.92-3.76c2.71,0.53,5.13,1.44,7.59,2.12
	c0.01-0.81,0.16-1.6,0.43-2.37c-0.91-0.93-1-2.1-0.1-2.73c0.28-0.19,1.09-0.4,2.28-0.59c1.07-1.04,2.45-1.91,4.07-2.51
	c4.32-1.58,8.47,0.51,10.54-1.45c0.8-0.76,1.32-1.66,1.42-2.59c-5.75,0.21-11.47,0.71-16.81,2.32c-10.78,3.26-33.17,9.03-56.3,9.92
	C14.66,170.11,3.56,176.4,3.54,182.12z M19.69,178.26c4.18-1.96,27.84-4.79,32.5-6.61c0,0-29.33,15.81-34.64,14.34
	C12.24,184.52,15.51,180.22,19.69,178.26z"/>
<path fill="#209C00" d="M170.95,135.86c0.03-0.15,0.07-0.29,0.1-0.44c0.32-1.47-1.12-3.95-2.92-5.71c-0.09-0.63-0.12-1.24-0.1-1.83
	c2.79,2.46,4.62,6.01,4.3,9.64c-0.37-0.41-0.75-0.83-1.12-1.31C171.12,136.1,171.04,135.98,170.95,135.86z"/>
<path fill="#209C00" d="M158.28,133.38c-0.28,1.28-0.72,3.16-1.29,5.3c-2.9-5.1-6.52-10.2-1.45-12.93c2.2-1.18,4.6-1.36,6.88-0.82
	c0.17,1.01,0.35,1.99,0.52,2.94C160.93,128.4,158.95,130.26,158.28,133.38z"/>
<path fill="#209C00" d="M186.07,111.87c1.73,2.82,0.72,6.22,0.23,8s-1.96,2.87-1.92,5c0.03,1.46,1.29,2.37,2.38,2.5
	c0.39-1.26,0.78-2.56,1.17-3.91c-0.24-0.86-0.54-1.74-0.77-2.45c-0.48-1.49,0.12-2.69,1.71-4.59c0.66,3.86,0.87,7.9,0.67,11.74
	c-0.99,3.38-2.09,7-3.25,10.4c-1.13,1.14-2.57,2.09-4.2,2.56c0.16-0.42,0.31-0.84,0.46-1.24c-0.47-0.09-1.02,0.02-1.59,0.47
	c-0.42,0.32-0.68,0.71-0.77,1.08c-0.46,0.02-0.92,0-1.39-0.07c-0.03-0.31,0.09-0.52,0.28-0.73c1-1.14,2.57-1.92,3.83-1.72
	c0.05-0.14,0.1-0.27,0.15-0.41c0.68-1.89,1.69-4.78,2.79-8.22c-2.31-0.75-4.12-4.25-2.08-7.88c2.11-3.75,1.9-6.63,0.88-9.57
	c-0.83-2.39-3.27-6.92-1.08-10.18c0.62,0.84,1.18,1.74,1.7,2.69C184.82,107.16,184.8,109.79,186.07,111.87z"/>
<path fill="#209C00" d="M236.79,267.62c1.16,3.57,2.03,6.78,2.31,8.7c0.76,5.14,4.39,13.05,6.69,11.49c2.3-1.55,2.11-5.1-0.06-6.91
	c-2.95-2.44-5.75-8.51-7.72-13.28c0.29-0.04,0.58-0.09,0.86-0.16c0.96,2.33,1.76,4.19,2.31,5.36c3.53,7.48,10.43,10.43,6.26,16.31
	c-4.17,5.88-10.62-3.67-10.87-8.51c-0.14-2.63-1.67-9.28-3.04-14.8C234.5,266.76,235.67,267.44,236.79,267.62z"/>
<path fill="#209C00" d="M215.35,246.31c-0.11-0.23-0.21-0.46-0.31-0.65c-1.26-2.48-3.24-6.35-5.05-9.92c0.51-0.9,1.12-1.9,1.45-3.24
	c0.24-0.94,0.24-1.86,0.06-2.76c0.02,0.05,0.04,0.1,0.06,0.15c2.11,5.21,14.58,46.11,14.56,47.9c-0.02,1.79,1.92,7.27,2.98,6.07
	c1.05-1.19,0.31-3.44-2.81-11.04c-3.11-7.6-8.61-31.05-7.4-32.52c1.21-1.46,4.69,2.01,6.42,3.75c1.74,1.74,2.94,4.97,2.44,7.57
	c-0.5,2.6-0.09,7.18,1.31,6.55c1.41-0.62,2.23-3.76,0.77-7.15c0.97,1.55,2.04,3.76,3.11,6.25c-0.46,0.47-0.88,0.99-1.22,1.58
	c-0.25-0.97-0.41-1.55-0.41-1.55s0.53,3.2-2.9,3.73c-3.43,0.53-4.29-5.03-3.17-6.91c1.11-1.88,1.73-5.86-0.06-6.91
	c-1.8-1.05-4.35-4.34-4.98-3.27c-0.64,1.08,6.42,28.33,8.13,31.86c1.71,3.53,4.75,8.92,1.46,10.98c-3.29,2.06-5.52-1.77-6.02-6.77
	c-0.44-4.36-4.57-23-7.52-31.42C216.09,247.87,215.8,247.1,215.35,246.31z"/>
<path fill="#209C00" d="M187.93,246.48c1.38,7.12,3.15,14.16,4.6,21.27c1.86,9.09,2.49,18.66,5.83,27.31
	c2.93,7.6,5.93,14.46,7.15,22.61c0.87,5.75,0.54,12.17,2.17,17.76c1.14,3.92,8.03,3.96,8.71-0.71c0.68-4.66-5.49-15.86-15.47-45.18
	c-9.98-29.32-9.01-34.59-9.75-41.53c-0.74-6.94,0.61-19.17,1.15-20.66c1.36,1.05,2.56,2.76,3.55,4.58
	c-0.07-2.97-0.38-6.56-2.75-7.62c-1.57-0.7-7.8,0.73-8.29,3.18c-0.34-0.65-0.67-1.35-0.97-2.14c-2.13-5.6,6.11-7.13,9.85-5.74
	c3.57,1.33,3.89,10.47,5.32,20.53l-0.25-0.46c0.01,0.04,0.01,0.09,0.01,0.12c0.03,0.3,0.15,0.72,0.36,1.18
	c0.03,0.19,0.06,0.38,0.09,0.58c0.43,2.85,1.08,5.1,1.89,6.87c-3.37-0.43-5.76-4.18-5.05-6.96c1.04-4.09-3.15-8.71-3.15-8.71
	s-1.24,20.27,4.72,41c5.74,19.99,5.93,22.4,14.1,40.17c8.16,17.78,9.79,23.79,4.75,28.81c-5.04,5.02-14.17-1.76-12.97-10.82
	c1.64-12.36-2.48-24.74-6.82-35.96c-2.35-6.09-3.5-12.52-4.33-18.97c-0.71-5.41-2.44-10.36-3.42-15.76
	c-1.27-7.03-2.4-12.89-3.41-17.81c0.54-0.37,1.03-0.89,1.44-1.58C187.42,243.87,187.74,245.5,187.93,246.48z"/>
<path fill="#209C00" d="M222.83,228.04c-1.77-1.47-7.25-5.75-13.28-7.55c-3.5-1.04-4.38,0.03-4.33,1.44
	c0.9,0.25,2.05,1.21,3.16,2.58c-1.16-1.14-2.53-2.15-3.91-2.97c-4.13-2.44-7.45-8-6.01-10.54c2.31-3.04,13.3,2.65,24.1,9.41
	c0.45,1.89,0.72,3.67,0.89,5.21c0.24,2.16,5.91,17.62,10.92,30.53c-0.26,0.17-0.52,0.36-0.77,0.57
	C230.63,249.25,225.58,236.15,222.83,228.04z"/>
<path fill="#209C00" d="M128.73,197.55c0.76,2.46,2.06,4.91,3.32,7.19c0.96,1.74,1.9,3.38,2.57,4.85c0.45,0.98,0.78,1.89,0.9,2.7
	c0.06,0.38,0.1,0.74,0.13,1.11c0.07,0.93,0.05,1.84-0.03,2.72c-0.01,0.08-0.01,0.17-0.02,0.25c-0.14,0.06-0.28,0.12-0.42,0.17
	c-4.68,4.44-12.7,11.65-20.18,11.32c-8.45,4.58-19.1,9.61-30.42,13.1c-15.05,4.63-19.28,7.42-18.27,14.17
	c0.72,4.81,8.16,10.94,21.51-3.55c19-20.63,29.14-22.63,34.68-23.07c4.31-0.34,8.11,0.61,12.19-0.77c1.47,2.66,5.04,3.25,6.69,0.98
	c1.08-1.48,1.62-3.26,1.38-5.01c1.43-0.49,3.02-0.9,4.86-1.29c0.61,1.46,1.11,2.93,1.42,4.34c0.28,1.24,0.41,2.42,0.35,3.47
	c-0.02,0.32-0.05,0.63-0.11,0.93c-0.33,1.68-0.67,4.52-0.95,7.96c-0.13,1.56-0.24,3.25-0.34,5c-0.5,8.6-0.61,18.86,0.29,24.42
	c1.49,9.18,5.9,28.03,3.45,37.44c-2.45,9.42,1.57,18.99,8.58,17.66c7.01-1.33,9.37-13.27,3.09-22.78
	c-4.99-7.56-8.41-15.03-10.94-35.3c-1-7.99-1.01-14-0.53-18.7c0.1-1.01,0.23-1.95,0.37-2.84c0.7-4.34,1.84-7.4,2.86-9.92
	c0.28-0.68,0.54-1.33,0.8-1.94c1.36-3.37,1.48-6.14,1.48-8.13c0-1.29-0.05-2.26,0.16-2.84c0.32-0.9,0.58-1.04,1.22-0.19
	c0.36,0.48,0.83,1.26,1.51,2.42c0.12,0.21,0.26,0.44,0.4,0.68c2.23,3.83-0.4,10.62,0.29,13.55c0.03,0.12,0.06,0.22,0.09,0.32
	c0.04,0.14,0.09,0.27,0.15,0.4c0.97,2.23,3.53,2.3,4.92,0.49c1.53-2-0.29-5.95-0.65-9.42c-0.37-3.47,0.39-5.92,3.28-4.96
	c2.89,0.96,1.68,22.31,1.31,26.44c-0.37,4.12,4,6.67,2.91,11.46c-1.1,4.79-3.67,10.88-2.67,17.97c1,7.09,14.94,6.9,14.18-2.94
	c-0.75-9.84-5.15-10.59-5.02-16.67s-0.08-9.81-1.14-16.21c-0.22-1.34-0.47-2.86-0.73-4.45c-0.42-0.97-0.67-2.07-0.66-3.29
	c0-0.29,0-0.58,0-0.87c-0.5-3.22-0.95-6.38-1.16-8.69c-1.16-4.59-3.2-9.01-6.25-12.08c-5.2-5.24-18.29-9.09-19.33-17.12
	c-0.79-6.09,2.08-10.58,6.29-12.46c-1.03-0.11-2.07-0.1-3.12,0.07c-0.94,0.15-1.88,0.42-2.83,0.83c-0.93,0.4-1.71,0.7-2.38,0.95
	c-0.17-0.11-0.33-0.22-0.5-0.34c-5.32-3.62-12.18-4.98-17.11,0.26c-0.1,0.11-0.19,0.22-0.28,0.33
	C127.68,190.69,127.67,194.12,128.73,197.55z M95.37,240.06c0,0-14.38,16.16-19.07,16.17c-4.69,0.01-3.04-5.45-0.07-8.01
	C79.21,245.65,91.96,242.63,95.37,240.06z M142.61,213.93c-1.22,0.38-2.44,0.78-3.65,1.2c0-1.19,0.31-2.18,0.94-2.57
	c0.01,0,0.02-0.01,0.03-0.01c0.21-0.12,0.45-0.18,0.73-0.15C141.13,212.44,141.82,213.01,142.61,213.93z M136.47,207.78
	c-2.07-4.1-6.96-14.55-5.37-17.24c3.02-5.11,9.64-4.1,14.12-1.59c-0.8,0.83-1.19,2.18-1.61,5.07c-0.7,4.79,0.3,7.67,4.02,11.15
	c7.03,6.56,14.74,8.52,19.15,11.64c3.57,2.53,6.59,7.47,7.62,9.26c0.1,2.21,0.38,4.66,0.91,7.26c1.51,7.39,3.07,18.79,2.45,22.76
	c-0.62,3.98-0.32,8.13,1.46,10.98c1.78,2.84,4.14,8.2,2.23,11.43c-1.91,3.23-5.15,1.7-6.79,0.38c-1.64-1.32-2.94-4.97-1.96-8.38
	c0.98-3.41,3.4-8.68,2.64-11.48c-0.77-2.8-2.66-6.61-3.03-10.08c-0.37-3.47,0.39-18.21-0.37-23.35c-0.76-5.14-3.45-5.27-4.7-4.91
	c-1.25,0.36-2.55,4.3-2.83,5.95c-0.28,1.64,1.25,7.24,0.91,9.57c-0.34,2.33-3.33,0.95-2.83-1.65c0.5-2.6,1.33-10.43-1.22-13.73
	c-2.54-3.29-3.91-6.26-5.31-5.63c-1.41,0.63-0.94,4.51-0.25,7.45c0.69,2.93-0.79,8.94-1.96,11.51c-1.17,2.57-4.15,16.38-1.95,34.3
	c2.2,17.92,8.93,30.52,11.61,35.34c2.68,4.82,0.96,13.58-1.59,14.98c-2.56,1.4-6.9-2.94-5.55-7.58c1.36-4.63,0.3-11.03-0.42-15.07
	c-0.72-4.04-4.98-23.15-5.9-28.03c-0.92-4.88,1.03-31.58,1.81-35.82c0.78-4.24-6.87-21.72-9.69-23.37
	c-2.83-1.65-2.85,0.15-3.39,1.64c-0.54,1.5-1.95,6.81,0.69,10.53c2.65,3.71,1.12,5.71-0.55,6.19c-1.66,0.48-3.5-1.68-3.38-3.05
	C135.55,222.79,138.54,211.88,136.47,207.78z"/>
<path fill="#209C00" d="M305.93,182.57c-0.32-6.51-7.39-6.04-10.49-6.38c-3.1-0.34-5.79-1.38-8.27-4.9
	c-2.48-3.51-6.61-3.25-8.17-1.32c-1.56,1.94-0.43,4.92,0.75,5.54c1.17,0.62,6,0.38,7.77,3.48c1.77,3.11,3.24,8.4,9.03,9.79
	C302.35,190.17,306.11,186.14,305.93,182.57z M299.69,186.1c-2.31-0.2-6.5-1.01-8.19-5.06c-1.69-4.05-2.47-5.81-4.52-6.08
	c-2.05-0.28-5.41-0.58-5.82-1.82c-0.4-1.25,1.59-3.22,3.53-2.34c1.94,0.87,2.3,2.67,3.69,3.87c1.4,1.21,4.04,3.58,7.33,3.22
	c3.29-0.35,6.46,1.87,7.42,3.3C304.65,183.44,302.01,186.3,299.69,186.1z"/>
<path fill="#209C00" d="M282.2,232.53c-1.16-2.46-3.99-4.25-4.84-5.68c-1.59-2.67,1.07-6.55-0.8-10.03
	c-1.88-3.47-6.62-6.19-11.41-1.31c-4.8,4.88,0.39,11.07,2.43,11.14c2.04,0.08,4.98,1.04,5.48,2.96c1.39,5.34,3.82,8.67,5.93,8.44
	C281.11,237.83,283.36,234.99,282.2,232.53z M279.53,235.41c-2.3-0.4-2.57-4.75-3.07-6.17c-0.49-1.42-1.7-3.85-4.64-4.81
	c-2.94-0.96-5.94-4.15-4.07-7.23s5.69-1.83,7.27,0.9c1.06,1.83,0.33,5.61,1.08,8.12c0.75,2.5,3.66,4.49,4.49,5.67
	C281.42,233.07,281.83,235.81,279.53,235.41z"/>
<path fill="#209C00" d="M234.95,180.07c0.14,2.68,2.54,5.06,4.94,5.04c2.39-0.01,4.49-2.29,3.77-4.72
	C241.38,172.82,234.81,177.39,234.95,180.07z M239.81,178.64c1.15-0.5,1.66,0.65,1.7,2.34c0.06,1.91-1.55,2.73-2.59,1.13
	C237.88,180.51,238.65,179.14,239.81,178.64z"/>
<path fill="#209C00" d="M253.32,194.95c-4.07,1.52-5,5.66-3.73,8.59c1.27,2.93,5.23,7.43,9.41,6.51c4.19-0.92,5.84-4.04,5.29-7
	C262.99,196.09,257.38,193.43,253.32,194.95z M262.61,205.26c-1.1,1.6-3.92,3.43-6.12,0.94c-2.2-2.5-3.9-5.36-2.48-7.78
	c1.42-2.42,6.22-2.25,8.08,0.99C263.32,201.57,263.71,203.65,262.61,205.26z"/>
<path fill="#209C00" d="M258.37,158.29c3.11-1.13,4.98-4.11,4.54-7.15c-0.34-2.33-1.73-3.97-4.36-4.85
	c-2.63-0.88-6.74,1.58-7.78,5.46C249.71,155.64,255.26,159.41,258.37,158.29z M259.87,156.06c-1.65,1.39-4.71,0.03-5.27-3.33
	c-0.56-3.36,5.05-8.05,7.12-1.75C262.17,152.37,261.52,154.67,259.87,156.06z"/>
<path fill="#209C00" d="M244.32,191.17c-0.68-1.05,0.53-2.93,2.21-3.21c2.51-0.42,3.54,2.96,1.62,4.25
	C246.23,193.49,245.01,192.22,244.32,191.17z"/>
<path fill="#209C00" d="M271.54,164.26c1.79-0.55,2.02-3.12,1.19-5.02c-0.25-0.57-0.6-0.86-2.55-0.46
	c-1.96,0.41-2.67,1.38-2.32,3.47C268.21,164.35,269.75,164.81,271.54,164.26z M271.12,163.31c-0.76,0.33-1.57,0.01-1.79-1.02
	c-0.22-1.03,0.39-2.2,1.15-2.53c0.76-0.33,1.46,0.26,1.69,1.29C272.43,162.26,271.88,162.98,271.12,163.31z"/>
<path fill="#209C00" d="M221.17,203.05c1.1,0.28,2.25,0.4,3.42,0.32c2.97-0.21,6.1-1.69,9-5.07c5.69-6.61-0.64-19.89-0.17-27.84
	c0.47-7.95,6.19-16.37,12.04-21.53c5.85-5.16,2.19-14.79-5.28-10.92s-5.89,7.87-8.86,13.62c-2.97,5.75-10.13,0.23-11.7-3.77
	c-0.47-1.18-0.1-2.65,0.82-4.36c3,2.2,6.64,1.24,8.57-0.97c2.1-2.41,4.47-7.91,1.85-11.3c-0.1-0.14-0.21-0.26-0.32-0.38
	c0.91-1.05,1.82-2.13,2.73-3.23c1.13-1.38,2.06-2.67,2.8-3.89c4.53-0.41,6.77-5.8,6.1-7.37c-0.8-1.88-1.2-4.95,0.32-6.22
	c4.23-3.54,6.19-7.16,5.09-8.97c-1.11-1.81-4.64-2.63-6.37-0.53c-1.73,2.1-2.12,5.42-3.05,6.8c-0.53,0.8-1.34,1.27-2.27,1.65
	c-0.06-0.08-0.12-0.16-0.19-0.25c-3.55-4.57-10.99-2.49-10.76,6.73c0.24,9.22-3.34,6.46-7.71,8.75c-4.37,2.29-4.82,8.43-3.8,13.51
	c1.02,5.07-1.06,11.74-4.15,12.42c-1.05,0.08-2.05-0.71-3-2.15c-2.33,1.07-8.47-1.56-4.08-7.08c0.25-0.32,0.55-0.56,0.87-0.75
	c-4.05-13.69-6.61-37.36-7.15-44.25c-0.77-9.95-0.61-21.7,2.44-32.87c3.04-11.17-4.07-20.3-10.49-13.16c-1.09,1.21-1.75,2.93-2.08,5
	c1.13,0.7,2.03,2.08,2.51,3.63c0.14-0.67,0.32-1.27,0.56-1.74c3.16-6.1,6.5,0.63,5.15,6.76c-0.61,2.79-1.45,13.36-0.96,17.7
	c0.48,4.35,0.81,7.24-0.79,5.05c0,0-3.76-13.47-4.21-22.63c-0.31,0.57-0.73,1.06-1.3,1.44c-0.22,0.15-0.46,0.29-0.69,0.41
	c0.99,7.1,3.16,15.1,4.79,21.48c0.98,1.48,1.83,3.35,2.46,5.67c2.43,8.93,0.11,17.14-0.54,24.34c0.68-2.14,1.12-3.19,1.27-2.48
	c0.51,2.54-0.25,32.17,7.99,37.35c8.25,5.17,8.42,5.72,11.19,1.23c2.77-4.48,2.76-16.77,2.64-20.93s3.13-4.29,6.4-5.33
	c3.27-1.04,6.97-7.32,6.49-11.67c-0.48-4.34,4.03-4.28,5.42,0.08c1.39,4.35-0.3,8.49-4.32,11.87c-4.02,3.38-12.29,13.21-13.28,19.52
	c-0.99,6.31,10.47,14.06,15.97,8.71c5.49-5.35,3.77-11.7,7.96-13.63c4.19-1.93,5.58,1.52,3.56,4.57
	c-2.03,3.04-9.54,10.54-11.29,19.19c-1.75,8.65-3.57,14.6-1.86,21.86c1.71,7.25,0.15,10.48-6.37,11.66
	c-6.52,1.17-6.82-3.53-5.49-8.75c1.34-5.23-5.91-17.62-18.31-22.67c-2.7-1.1-6.43-2.43-9.83-3.76c1.92,2.32,5.81,3.34,9.03,4.72
	c7.2,3.08,22.25,17.67,14.91,25.99c-0.23,2.64,0.01,5.02,1.89,6.36C218.08,201.92,219.58,202.65,221.17,203.05z M240.72,107.23
	c-1.07,1.05-2.75,3.18-2.35,6.25c0.04,0.28,0.05,0.56,0.05,0.85c-0.3-1.58-0.99-3-1.89-4.35c0.6-0.34,1.16-0.71,1.62-1.12
	c1.94-1.75,2.49-5.23,3.2-6.48c0.71-1.26,3.01-2.8,3.63-0.55C245.6,104.06,241.79,106.17,240.72,107.23z M222.28,140.68
	c1.69-2.29,3.97-4.88,6.44-7.71c0.15,0.63,0.11,1.36-0.24,2.18c-1.31,3.06-3.17,5.82-5.96,5.58
	C222.43,140.72,222.35,140.7,222.28,140.68z"/>
<path fill="#B1B100" d="M7.36,159.9c-5.07,2.34-5.49,7.49-3.29,10.01c4.02,4.61,8.95,0.16,11.42-1.39c2.47-1.55,5.06-2.34,8.92-1.19
	c3.86,1.15,6.76-1.44,6.79-3.77c0.03-2.34-2.54-3.87-3.77-3.65c-1.22,0.22-4.64,3.21-7.74,1.95C16.58,160.6,12.42,157.56,7.36,159.9
	z M6.61,163.69c1.82-1.2,5.37-3.03,8.97-1.03c3.59,2,5.19,2.85,6.86,1.86c1.67-0.99,4.32-2.71,5.34-2.03
	c1.02,0.68,0.69,3.29-1.24,3.77c-1.93,0.48-3.24-0.63-4.96-0.71c-1.73-0.08-5.05-0.29-7.27,1.88c-2.22,2.17-5.84,2.37-7.37,1.88
	C4.5,168.52,4.79,164.89,6.61,163.69z"/>
<path fill="#B1B100" d="M1.17,118.83c2.34,2.42,6.36,3.39,7.92,4.73c2.92,2.49,1.35,8.09,4.92,11.42c3.58,3.32,10.21,4.62,13.89-3
	c3.68-7.62-4.86-12.8-7.29-12.08c-2.42,0.72-6.24,0.77-7.59-1.29c-3.75-5.71-7.91-8.63-10.3-7.53
	C0.34,112.18-1.17,116.41,1.17,118.83z M3.15,114.39c2.85-0.44,4.9,4.53,6.04,6c1.14,1.47,3.52,3.83,7.34,3.79
	c3.83-0.05,8.6,2.5,7.63,6.84c-0.97,4.35-5.93,4.4-8.86,1.84c-1.98-1.73-2.62-6.44-4.49-9.08c-1.87-2.63-6.07-3.8-7.51-4.86
	C1.86,117.88,0.3,114.84,3.15,114.39z"/>
<path fill="#B1B100" d="M33.4,135.25c-1.67,0.99-2.21,3.45-0.71,4.86c4.7,4.38,7.43-1.52,6.23-3.34S35.07,134.26,33.4,135.25z
	 M35.31,136.96c1.39,0.7,1.4,1.97,0.8,2.8c-0.6,0.82-1.43,0.22-2.15-0.94C33.14,137.5,33.93,136.26,35.31,136.96z"/>
<path fill="#B1B100" d="M152.96,244.45c4.63,2.75,7.02-1.82,3.82-4.79c-1.15-1.07-1.67-3.07-1.63-5.56c0.28-0.68,0.54-1.33,0.8-1.94
	c1.36-3.37,1.48-6.14,1.48-8.13c0.41-1.02,0.87-2.04,1.38-3.04c0.36,0.48,0.83,1.26,1.51,2.42c-1.65,4.31-2.26,9.18-0.32,12.27
	c0.46,0.73,0.82,1.5,1.1,2.27c0.04,0.14,0.09,0.27,0.15,0.4c1.35,4.06,0.48,8.33-2.06,9.49c-1.38,0.63-4.41,0.32-7.27-0.99
	c0.1-1.01,0.23-1.95,0.37-2.84C152.51,244.17,152.73,244.32,152.96,244.45z"/>
<path fill="#B1B100" d="M134.42,209.73c-4.66,2.91-15.8,5.19-19,6.97c-3.19,1.77-7.74,5.4-1.93,8.7
	c5.81,3.29,15.43-6.42,21.09-11.12c0.36-0.3,0.72-0.59,1.08-0.86c0.07,0.93,0.05,1.84-0.03,2.72c-0.15,0.14-0.3,0.28-0.45,0.42
	c-4.68,4.44-12.7,11.65-20.18,11.32c-2.31-0.1-4.57-0.92-6.67-2.77c-2.18-1.92-4.28-7.55,3.12-11.62c7.4-4.07,17.64-5.11,20.26-8.26
	c0.12-0.15,0.24-0.31,0.34-0.48c0.96,1.74,1.9,3.38,2.57,4.85C134.56,209.64,134.49,209.68,134.42,209.73z"/>
<path fill="#B1B100" d="M139.93,212.54c-0.01,0.01-0.02,0.01-0.03,0.01C139.91,212.55,139.92,212.55,139.93,212.54z"/>
<path fill="#B1B100" d="M148.71,231.24c-1.54,2.35-1.5,5.27-0.39,7.89c-0.13,1.56-0.24,3.25-0.34,5c-1.65-1.73-2.69-4.03-2.35-6.93
	c0.57-4.85,1.9-7.96,3.41-10.43c0.28,1.24,0.41,2.42,0.35,3.47C149.15,230.58,148.93,230.91,148.71,231.24z"/>
<path fill="#B1B100" d="M92.68,166.85c-0.27,0.77-0.42,1.56-0.43,2.37c-0.01,0.17-0.01,0.34,0,0.51c-4.77,2.2-4.57,13.06-4.57,13.06
	s-7.23,2.64-7,8.81c0.23,6.17,8.67,7.59,13.36,3.37c4.69-4.23,8.39-6.75,13.92-8.7c5.31-1.87,12.44-0.66,18.21,3.51
	c-0.21,0.17-0.41,0.36-0.58,0.56c-1.46,1.65-0.42,6.74,3.14,7.21c-1.06-3.42-1.05-6.86,1.56-9.87c-4.7-3.69-11.18-6.39-19-4.66
	c-16.59,3.67-15.08,9.83-18.33,11.25c-3.25,1.42-7.13,1.11-7.89-2.61c-0.76-3.71,2.83-6.46,7.11-7.13
	c4.28-0.67,15.48-2.59,19.2-6.82c3.72-4.23,3.68-8.06,1.73-8.85c-1.95-0.79-6.67,1.77-9.52,2.21c-2.85,0.44-6.54-0.99-6.12-4.16
	c0.42-3.17,4.32-5.06,7.85-4.69c3.53,0.36,7.62-2.65,7.68-5.76s-4.41-6.07-6.87-6.6c-2.46-0.53-6.29-1.62-10.33-0.06
	c-4.04,1.56-5.94,2.89-9.18,3.43c-3.53,0.58-4.87-2.86-4.38-4.4c0.49-1.54,1.1-2.83,3.91-2.12c2.81,0.71,8.74,1.25,11.44,1.02
	c2.7-0.24,8.07-3.26,12.21-2.45c4.15,0.82,14.16,6.56,19.94,7.31c4.96,0.64,15.3-1.3,22.35,0.83c-0.37,2.98-1.52,6.04-2.05,8.86
	c-1.11,5.99,8,16.82,10.49,20.42c0.46,0.67,0.98,1.31,1.55,1.94c-1.97-0.15-3.88,0.18-5.57,0.93c-4.21,1.88-7.08,6.37-6.29,12.46
	c1.04,8.02,14.13,11.87,19.33,17.12c3.05,3.07,5.09,7.49,6.25,12.08c0.74,2.93,1.12,5.93,1.16,8.69c0,0.29,0.01,0.58,0,0.87
	c-0.01,1.22,0.24,2.32,0.66,3.29c1.52,3.48,5.33,5.12,7.92,3.36c0.54-0.37,1.03-0.89,1.44-1.58c0.32-0.55,0.59-1.19,0.79-1.96
	c1.67-6.49-0.86-8.43-2.95-12.41c-0.34-0.65-0.67-1.35-0.97-2.14c-2.13-5.6,6.11-7.13,9.85-5.74c3.57,1.33,3.89,10.47,5.32,20.53
	c0.04,0.28,0.08,0.56,0.12,0.85c0.03,0.19,0.06,0.38,0.09,0.58c0.43,2.85,1.08,5.1,1.89,6.87c2.21,4.83,5.66,6.14,9.57,6.42
	c3.63,0.25,6.26-2.63,5.54-6.23c-0.15-0.74-0.44-1.51-0.89-2.3c-0.59-1.02-1.45-2.05-2.63-3.06c-4.56-3.88-3.91-5.41-2.73-7.51
	c0.51-0.9,1.12-1.9,1.45-3.24c0.24-0.94,0.24-1.86,0.06-2.76c-0.37-1.92-1.56-3.71-3.13-5.25c-1.16-1.14-2.53-2.15-3.91-2.97
	c-4.13-2.44-7.45-8-6.01-10.54c2.31-3.04,13.3,2.65,24.1,9.41c9.2,5.77,18.25,12.32,21.63,14.91c7.35,5.63,15.37,13.01,21.2,22.02
	c5.83,9.01,16.54,9.76,15.58,0.9c-0.96-8.86-23.42-18.37-32.65-23.68c-8.09-4.66-18.68-22.21-23.72-31.18
	c-1.17,0.08-2.32-0.04-3.42-0.32c5.6,9.84,13.07,20.48,11.34,19.46c-2.07-1.22-22.06-20.09-30.74-17.59
	c-8.67,2.5-9.16,2.28-7.78,6.97c1.38,4.69,9.88,12.29,12.83,14.77c2.95,2.49,1.03,4.82-0.28,7.72c-1.3,2.9,0.74,9.34,4.04,11.7
	c3.3,2.35,0.46,5.44-3.4,3.7c-3.87-1.74-5.68-5.46-5.53-10.33c0.15-4.87-1.52-16.66-5.27-21.25c-3.75-4.59-16.2-1.47-15.9,5.64
	c0.29,7.11,5.75,9.85,4.49,13.94c-1.26,4.08-4.51,2.91-5.35-0.37c-0.85-3.29-1.37-13.11-6.27-19.67c-4.9-6.56-8.46-9.62-14.53-12.93
	c-6.07-3.31-6.75-8.26-3.52-13.5c3.22-5.24,6.66-2.53,9.44,1.62c1.28,1.91,4.74,3.51,9.19,4.14c-3.38-3.12-5.95-7.1-8.34-11.23
	c-2.57-4.44-4.93-9.05-7.87-12.96c-3.42-4.55-2.91-11.98-0.2-18.06c2.71-6.08,7.59-13.9,8.01-17.8c0.43-3.9-3.37-20.17-1.7-25.12
	c1.68-4.96,5.08-4.45,6.17-2.47c1.08,1.97-0.69,8.09-3.01,15.23c-2.32,7.15,2.99,15.79,6.69,18.53c3.7,2.74,9.85,4.74,12.42,2.9
	c3.29-2.36,4.66-7.88,5.21-12.22c0.09-0.68,1.26,10.31-0.86,16.8c-1.28,3.92-6.19,10.91-5.73,14.84
	c1.5,12.88,27.27,8.21,28.21,24.45c0.18,3.01-0.97,5.64-2.87,7.86c0.46-0.2,0.92-0.4,1.34-0.62c1.47-0.76,2.6-1.63,3.43-2.58
	c7.33-8.32-7.71-22.91-14.91-25.99c-3.22-1.38-7.11-2.4-9.03-4.72c-1.12-1.35-1.57-3.13-0.83-5.69c3.27-11.4,6.02-21.18,3.06-33.32
	c-0.6-2.44-0.6-5.05-0.35-7.81c0.65-7.2,2.97-15.41,0.54-24.34c-0.63-2.32-1.48-4.19-2.46-5.67c-4.24-6.39-10.92-5.43-12.79-1.61
	c-2.31,4.7-1.58,8.7,4.76,16.23c0.26,0.3,0.51,0.63,0.75,0.95c0.62,0.84,1.18,1.74,1.7,2.69c1.73,3.21,2.92,7.05,3.61,11.08
	c0.66,3.86,0.87,7.9,0.67,11.74c-0.11,2.05-0.33,4.05-0.67,5.93c-0.25,1.38-1.18,3.06-2.58,4.47c-1.13,1.14-2.57,2.09-4.2,2.56
	c-0.61,0.18-1.24,0.29-1.9,0.31c-0.46,0.02-0.92,0-1.39-0.07c-2.05-0.29-4.26-1.43-6.47-3.83c-0.37-0.41-0.75-0.83-1.12-1.31
	c-0.09-0.12-0.17-0.23-0.25-0.35c-1.67-2.23-2.54-4.27-2.82-6.15c-0.09-0.63-0.12-1.24-0.1-1.83c0.26-5.9,6.04-10.16,8.73-14.06
	c3.82-5.52,0.76-12.41-5.86-12.44c-6.62-0.03-9.53,6.7-9.68,12.66c-0.08,2.97,0.54,7.07,1.2,10.88c0.17,1.01,0.35,1.99,0.52,2.94
	c0.48,2.65,0.89,4.92,0.98,6.24c0.19,2.88-3.27,9.71-8.39,9.52c-1.18-0.04-2.44-0.45-3.77-1.37c-7.1-4.91-7.55-16.41-7.57-21.78
	c-0.01-5.37,7.22-11.94,3.37-17.02c-4.45-5.87-12.73-7.81-15.54-13.36c-2.81-5.55,4.19-20.1-3.28-24.01
	c-12.02-6.29-9.38,10.54-3.55,19.81c5.83,9.27,10.35,14.38,9.78,29.37c-0.57,14.99,6.68,23.73,13.41,28.84
	c1.87,1.42,2.91,2.99,3.42,4.64c-2.35-0.62-4.5-0.85-6-0.84c-6.02,0.02-16.73,0.41-21.19-1.27c-4.46-1.68-13.86-6.97-17.47-5.5
	c-3.6,1.47-7.04,4.02-11.58,4.17c-4.54,0.16-8.06-3.67-11.56-2.76c-3.51,0.91-6.69,7.43-2.58,10.44c4.12,3.01,7.37,1.59,12.64-0.87
	c5.28-2.46,9.12-1.23,13.43,0.65c2.65,1.16,3.56,2.73,3.39,4.22c-0.1,0.93-0.63,1.83-1.42,2.59c-2.07,1.96-6.23-0.13-10.54,1.45
	c-1.62,0.6-3,1.47-4.07,2.51C93.85,164.51,93.11,165.64,92.68,166.85z M146.95,140.61c-0.41,0.59-3.93-2.8-5.63-5.9
	c-1.7-3.1-6.08-10.06-4.81-21.77c1.28-11.71-3.52-16.42-4.66-18.17c-1.42-2.17-8.68-14.13-9.1-19.23s1.28-6.02,3.9-5.26
	c2.62,0.76,3.04,11.54,2.9,15.29c-0.14,3.75,1.99,8.63,4.89,10.9c2.89,2.26,11.41,6.39,11.42,10.42c0.01,4.03-6.36,10.47-4.49,19.54
	C143.23,135.5,144.81,137.38,146.95,140.61z M190.81,115.22c0,0-2.77-10.04-6.55-14.93c-3.74-4.83-5.87-8.34-4.95-12.33
	c0.62-2.66,4.96-3.49,7.65,0.56C189.11,91.75,190.87,94.64,190.81,115.22z M253.11,238.74c0,0,20.22,9.96,22.48,15.92
	c2.26,5.96-4.46,4.1-7.86-0.63c-1.55-2.15-8.33-9.26-11.63-11.62C252.8,240.06,250.6,238.49,253.11,238.74z M94.13,173.64
	c2.5-0.39,7.65,1.94,13.43,2.31c2.59,0.16-14.35,5.87-16.3,5.08C90.05,177.92,91.63,174.03,94.13,173.64z"/>
<path fill="#B1B100" d="M54.4,128.05c3.39-4.16,1.81-9.17-1.38-11.5c-3.19-2.33-10.22-4.67-14.12-1.07
	c-3.9,3.6-3.71,7.96-1.28,10.77C43.36,132.87,51.01,132.21,54.4,128.05z M42.25,128.76c-2.66-1.53-4.38-3.52-4.21-5.92
	c0.18-2.4,2.03-6.11,5.95-4.83c3.91,1.29,7.51,3.28,7.5,6.75C51.48,128.24,46.26,131.06,42.25,128.76z"/>
<path fill="#B1B100" d="M71.9,170.34c-2.62,3.14-2.75,7.5-0.38,10.46c1.81,2.27,4.33,3.16,7.68,2.46c3.36-0.71,6.21-5.89,4.9-10.69
	C82.79,167.77,74.51,167.19,71.9,170.34z M79.39,173.92c2.69,3.23-0.37,11.74-6.5,6.3c-1.35-1.2-2.09-4.06-1.2-6.57
	C72.57,171.15,76.7,170.69,79.39,173.92z"/>
<path fill="#B1B100" d="M66.01,131.28c-2.42,2.02-5.62-0.95-4.38-3.52c1.25-2.56,3.34-1.98,4.73-1.28
	C67.75,127.17,67.63,129.93,66.01,131.28z"/>
<path fill="#B1B100" d="M54.11,172.19c-0.08,0.09-0.16,0.19-0.23,0.29c-1.18,1.73,0.13,4.38,2.09,5.81
	c0.62,0.45,1.18,0.55,3.01-1.11c1.83-1.65,1.99-3.14,0.3-5.15c-0.5-0.6-1.03-0.98-1.56-1.17C56.48,170.41,55.21,170.99,54.11,172.19
	z M55.14,172.94c0.6-0.82,1.67-0.99,2.55-0.03c0.88,0.96,0.95,2.59,0.35,3.41c-0.6,0.83-1.73,0.63-2.6-0.32
	C54.4,174.87,54.54,173.77,55.14,172.94z"/>
<path fill="#B1B100" d="M253.88,60.85c4.83-1.87,7.66-4.5,7.22-6.45c-0.44-1.95-3.34-3.74-5.51-2.39c-2.17,1.35-3.52,4.18-4.76,5.13
	c-2.31,1.77-6.22-0.28-9.26,1.84c-3.04,2.12-5.05,6.84,0.02,10.78c5.07,3.94,10.27-1.58,10.12-3.49
	C251.57,64.37,252.15,61.52,253.88,60.85z M253.16,57.72c-1.27,0.62-3.4,2-3.98,4.85c-0.57,2.85-3.22,5.99-6.29,4.58
	c-3.08-1.41-2.32-5.1,0.04-6.87c1.59-1.2,5.2-0.92,7.45-1.89c2.25-0.97,3.79-3.9,4.8-4.8c1.01-0.9,3.52-1.58,3.39,0.6
	C258.45,56.38,254.44,57.11,253.16,57.72z"/>
<path fill="#B1B100" d="M230.08,71.93c-5.75,1.79-7.83,6.49-6.78,10.05c-0.65,0.26-1.23,0.7-1.62,1.37
	c-0.71,1.24-0.98,2.77-1.19,4.12c-1.43-0.25-3.05,0.93-2.54,2.67c0.15,0.53,0.48,0.98,0.87,1.32c-1.19,0.96-2.94,1.54-4.38,2.58
	c-0.91-0.65-2.1-0.89-3.24-0.4c-6.82,2.94-1.83,8.57,0.65,8.15c0.11-0.02,0.22-0.05,0.32-0.08c0.7,1.82,2.4,3.35,5.55,3.89
	c6.33,1.08,8.31-6.24,7.28-7.86c-1.03-1.61-1.87-4.4-0.66-5.81c1.76-2.06,2.94-4.04,3.48-5.67c1.5,0.31,3.07,0.04,4.32-0.69
	c2.59-1.51,6.36-5.68,5.04-9.49C235.87,72.29,232.78,71.09,230.08,71.93z M212.91,95.61c-0.11,0.16-0.21,0.33-0.3,0.51
	c-0.37,0.73-0.63,1.55-0.76,2.39c-0.8,0.04-1.49-0.43-1.86-1.08c-0.59-1.02,0.43-1.61,2-1.84
	C212.33,95.53,212.64,95.55,212.91,95.61z M220.1,91.43c1.53-1.92,1.5-5.22,1.96-6.5c0.47-1.27,2.35-3.06,3.28-1.07
	c0.92,1.99-2.27,4.53-3.1,5.67s-2.06,3.37-1.22,6.15c0.84,2.78-0.01,6.8-3.39,7.01c-3.37,0.21-4.46-3.4-3.21-6.08
	C215.27,94.81,218.57,93.35,220.1,91.43z M232.32,73.27c1.61,0.85,3.63,3.27,1.54,5.6c-2.08,2.33-4.57,4.22-6.98,3.16
	c-2.41-1.06-2.78-5.55,0.04-7.64C228.8,73,230.7,72.41,232.32,73.27z"/>
<path fill="#B1B100" d="M268.68,309.11c5.56,2.97,10.48-0.16,11.26-3.86c1.42-6.76-5.95-8.16-9.03-9.34
	c-3.08-1.17-5.56-2.97-7.16-7.23c-1.6-4.26-5.9-5.11-8.02-3.54c-2.12,1.56-1.76,4.92-0.72,5.88c1.03,0.95,6.05,1.99,7.03,5.64
	C263.03,300.33,263.12,306.14,268.68,309.11z M265.56,299.83c-0.65-4.6-0.97-6.61-3-7.44c-2.03-0.83-5.39-2.04-5.47-3.42
	c-0.08-1.38,2.49-2.86,4.24-1.45c1.75,1.41,1.64,3.35,2.75,4.95c1.11,1.61,3.17,4.74,6.64,5.26c3.47,0.52,6.11,3.65,6.71,5.36
	c0.96,2.72-2.51,4.94-4.83,4.12C270.29,306.37,266.22,304.42,265.56,299.83z"/>
<path fill="#B1B100" d="M229.37,328.08c-6.21,3.71-2.55,11.44-0.49,12.06c2.07,0.63,4.83,2.4,4.82,4.5
	c-0.01,5.84,1.59,9.89,3.81,10.23c2.22,0.34,5.29-1.97,4.76-4.8s-2.95-5.42-3.44-7.11c-0.91-3.16,2.85-6.42,1.86-10.48
	C239.71,328.42,235.58,324.36,229.37,328.08z M231.58,330.51c2.74-2.65,6.31-0.35,7.2,2.86c0.6,2.16-1.16,5.84-1.07,8.6
	c0.1,2.75,2.55,5.57,3.08,7.01c0.53,1.43,0.22,4.34-2.03,3.32c-2.25-1.03-1.37-5.55-1.49-7.13c-0.13-1.59-0.71-4.4-3.46-6.16
	C231.06,337.23,228.84,333.16,231.58,330.51z"/>
<path fill="#B1B100" d="M211.62,290.19c2.45,0.62,5.21-1.15,5.12-3.83c-0.3-8.36-8.25-5.44-8.83-2.66
	C207.34,286.49,209.17,289.57,211.62,290.19z M211.44,286.86c-0.64-1.92,0.52-3.11,1.84-3.31c1.31-0.21,1.52,1.11,1.12,2.85
	C213.94,288.37,212.07,288.78,211.44,286.86z"/>
<path fill="#B1B100" d="M231.82,315.09c0.53-7.48-4.5-11.7-9.07-11.23c-4.57,0.47-6.64,4.46-6.12,7.8c0.52,3.34,3.36,9.01,7.9,9.19
	C229.07,321.03,231.59,318.27,231.82,315.09z M229.5,316.9c-1.56,1.35-4.93,2.47-6.52-0.67c-1.59-3.14-2.56-6.53-0.46-8.62
	c2.1-2.1,6.97-0.65,8,3.17C231.22,313.31,231.06,315.55,229.5,316.9z"/>
<path fill="#B1B100" d="M232.95,257.29c-0.46,0.47-0.88,0.99-1.22,1.58c-0.01,0.02-0.03,0.05-0.04,0.07
	c-1.27,2.23-0.08,5.06,1.83,6.89c0.98,0.94,2.15,1.61,3.28,1.8c0.32,0.05,0.63,0.07,0.93,0.04c0.09-0.01,0.18-0.02,0.28-0.04
	c0.29-0.04,0.58-0.09,0.86-0.16c2.93-0.71,5.1-3.04,5.43-5.91c0.28-2.47-0.71-4.53-3.17-6.13c-1.68-1.09-4.48-0.78-6.76,0.71
	c-0.26,0.17-0.52,0.36-0.77,0.57C233.36,256.88,233.15,257.08,232.95,257.29z M235.35,260.96c0.32-3.58,7.32-6.89,7.75,0.12
	c0.09,1.54-1.19,3.72-3.24,4.7C237.8,266.77,235.03,264.55,235.35,260.96z"/>
<path fill="#B1B100" d="M214.55,297.58c-0.42-1.26,1.32-2.85,3.11-2.69c2.69,0.24,2.83,3.98,0.52,4.78
	C215.89,300.46,214.97,298.84,214.55,297.58z"/>
<path fill="#B1B100" d="M249.61,277.3c1.98-0.09,2.9-2.65,2.57-4.82c-0.1-0.65-0.39-1.05-2.49-1.15c-2.11-0.1-3.1,0.7-3.3,2.93
	C246.18,276.51,247.64,277.39,249.61,277.3z M249.45,276.22c-0.87,0.13-1.61-0.41-1.56-1.52c0.04-1.11,0.99-2.14,1.85-2.28
	c0.86-0.13,1.43,0.66,1.38,1.77C251.06,275.5,250.31,276.09,249.45,276.22z"/>
<path fill="#B1B100" d="M242.47,205.33c-2.04-4.06-6.41-4.45-8.35-2.67c-1.94,1.78-1.22,5.08-0.09,5.92
	c1.13,0.84,6.22,1.34,7.58,4.87c1.36,3.53,2.07,9.3,7.91,11.66c5.84,2.36,10.41-1.26,10.79-5.03c0.69-6.87-6.78-7.49-9.97-8.33
	C247.17,210.92,244.51,209.4,242.47,205.33z M243.2,209.06c1.27,1.48,3.66,4.38,7.16,4.52c3.5,0.15,6.46,2.98,7.25,4.62
	c1.24,2.6-1.97,5.18-4.37,4.6c-2.39-0.57-6.64-2.08-7.78-6.59c-1.13-4.5-1.67-6.47-3.78-7.08c-2.11-0.61-5.57-1.46-5.8-2.82
	c-0.23-1.37,2.17-3.12,4.06-1.9C241.83,205.64,241.93,207.57,243.2,209.06z"/>
<path fill="#B1B100" d="M140.5,28.56c0.41-6.28-9.84-19.91-14.09-12.62c-6.27,10.76,7.79,17.19,7.79,17.19
	C137.01,33.23,140.1,34.84,140.5,28.56z M128.12,26.26c-1.83-2.53-2.22-8.06,0.08-9.1c2.3-1.04,7.06,1.2,5.15,9.76
	C132.99,28.48,129.95,28.78,128.12,26.26z"/>
<path fill="#B1B100" d="M113.7,123.28c-0.85,2.91,1.88,7.36,5.67,7.65c5.87,0.44,6.08-8.97,2.43-11.61
	C118.15,116.68,114.54,120.37,113.7,123.28z M119.99,122.27c1.87,1.18,3.05,6.89-2.15,6.32c-1.66-0.18-2.9-3.06-2.39-4.8
	C115.95,122.04,118.13,121.1,119.99,122.27z"/>
<path fill="#B1B100" d="M206.29,148.09c0.12-0.06,0.24-0.12,0.34-0.2c1.99-1.54,2.53-4.67,1.24-6.51c-1.07-1.52-3.24-2.05-4.79-1.12
	c-0.32,0.19-0.61,0.43-0.87,0.75C197.82,146.53,203.96,149.16,206.29,148.09z M202.92,144.92c-1-0.62-0.38-1.62,0.89-2.57
	c1.44-1.07,2.93-0.27,2.26,1.39C205.39,145.4,203.93,145.54,202.92,144.92z"/>
<path fill="#B1B100" d="M216.85,124.02c1.57-2.55,2.92-8.01-0.04-10.75c-2.96-2.74-6.25-2.34-8.23-0.32
	c-4.66,4.74-3.7,10.49-0.35,12.8C211.59,128.08,215.28,126.58,216.85,124.02z M210.54,123.36c-2.63,0.2-5.07-3.58-3.58-6.75
	c1-2.11,2.4-3.53,4.22-3.54c1.83-0.01,4.75,1.17,4.01,4.21C214.46,120.32,213.17,123.16,210.54,123.36z"/>
<path fill="#B1B100" d="M210.15,134.72c-0.44,1.09-2.54,1.16-3.65,0.02c-1.67-1.71,0.38-4.31,2.4-3.52
	C210.91,132,210.59,133.63,210.15,134.72z"/>
<path fill="#B1B100" d="M180.07,26.08c-0.5-1.31-4.54-4.46-3.79-8.18c0.74-3.71,3.24-8.96-0.43-14.09
	c-3.66-5.13-9.46-4.51-11.8-1.54c-4.27,5.43,1.71,9.96,3.95,12.38c2.24,2.42,3.67,5.12,3.21,9.65c-0.45,4.52,3.02,7.19,5.62,6.73
	C179.41,30.57,180.58,27.4,180.07,26.08z M177.3,27.01c-0.54,1.28-3.5,1.46-4.44-0.58c-0.95-2.04,0.01-3.72-0.26-5.66
	c-0.28-1.93-0.75-5.66-3.62-7.66c-2.88-2-3.86-5.98-3.64-7.79c0.35-2.86,4.44-3.31,6.15-1.54c1.71,1.77,4.49,5.32,3.04,9.73
	c-1.46,4.41-2.06,6.36-0.61,8C175.36,23.16,177.83,25.73,177.3,27.01z"/>
<path fill="#B1B100" d="M188.3,58.61c-0.48-1.55-1.38-2.93-2.51-3.63c-0.19-0.12-0.38-0.22-0.59-0.29
	c-3.27-1.26-6.83-0.17-8.58,2.57c-1.35,2.09-1.38,4.37,0.12,6.9c1.4,2.37,5.86,3.29,9.32,1.45c0.24-0.13,0.47-0.26,0.69-0.41
	c0.56-0.38,0.99-0.87,1.3-1.44C188.85,62.28,188.84,60.34,188.3,58.61z M184.37,61.75c-1.88,3.07-9.62,2.92-6.9-3.54
	c0.6-1.42,2.71-2.81,4.99-2.78C184.74,55.45,186.25,58.67,184.37,61.75z"/>
<path fill="#B1B100" d="M180.38,44.93c1.17-1.92,0.25-3.35-1.55-4.15c-1.81-0.8-3.78,1.09-4.43,3.19c-0.2,0.62-0.12,1.1,1.72,2.13
	C177.96,47.13,179.21,46.85,180.38,44.93z M179.23,43.88c-0.54,0.97-1.84,1.48-2.67,1.22c-0.83-0.26-0.99-1.23-0.45-2.2
	c0.63-1.15,1.57-1.34,2.4-1.08C179.33,42.08,179.76,42.9,179.23,43.88z"/>
</svg>
