<?xml version="1.0" encoding="utf-8"?>
<!-- Generator: Adobe Illustrator 15.0.0, SVG Export Plug-In  -->
<!DOCTYPE svg PUBLIC "-//W3C//DTD SVG 1.1 Tiny//EN" "http://www.w3.org/Graphics/SVG/1.1/DTD/svg11-tiny.dtd" [
	<!ENTITY ns_flows "http://ns.adobe.com/Flows/1.0/">
]>
<svg version="1.1" baseProfile="tiny"
	 xmlns="http://www.w3.org/2000/svg" xmlns:xlink="http://www.w3.org/1999/xlink" xmlns:a="http://ns.adobe.com/AdobeSVGViewerExtensions/3.0/"
	 x="0px" y="0px" width="600px" height="220px" overflow="visible" xml:space="preserve">
<defs>
</defs>
<path d="M571.64,111.71l-0.96-4.98l23.44-25.37l-5.62-8.99L569,98.1v5.3l-2.41,0.84l-0.72-1.68l-1.69,0.48v4.94l-1.56,0.36v-2.89
	l-1.57-0.24v2.05l-2.53-0.12v-1.45l-29.98-15.65l-1.57,8.43l23.12,11.32h-1.69v1.68l-25.08,24.2l-17.3,2.05l-84.04-18.3l-1.08-1.93
	l-1.92-0.09l-0.97,1.18h-1.08l4.82-8.67l-5.54-1.2l-6.14,9.03l-40.94-8.79l4.21-6.62l-4.09-0.96l-4.46,6.98l-11.92-3.25l-0.12-2.29
	l2.65-0.6v-1.08l-4.7,0.24v3.73l-11.44-2.65l-0.24-0.96l1.44-0.96v-1.93l-2.89-0.6l-1.57-2.41v-6.26c0,0-0.72-0.24-3.85,0
	c-3.97-4.82-20.75-6.98-26.37-7.54c-2.77-3.54-8.82-4.99-11.84-5.52c1.54-0.49,2.3-1.03,3.18-1.51l-0.12-5.9l9.45-2.77v0.66h3.01
	l0.3-1.44h1.57v0.72l23.96-2.35v2.29L553.1,55l7.3-3.33l-248.58,9.39l-0.16,1.36l-1.93,0.08l-0.02-1l-3.01,0.12v2.29h-1.75
	l-0.12-1.89h-2.49l16.86-6.9l12.6,0.72C382.99,37,434.43,19.81,485.92,2.87c-1.28-1.12-4.17-4.5-12.52-1.93
	c-8.35,2.57-76.22,24.84-89.65,29.3c-24.24,8.05-71.56,25-85.89,28.25c-1.23,0.28-2.53-0.12-2.53-0.12l-0.72-1.44h-0.84v2.29
	l-3.13,0.6l-0.4-2.61l-1.85-0.32l-0.32-2.81c0,0-0.32-1.52-4.09-1.52c-3.77,0-4.49,2.01-4.49,2.01v3.05h-8.43l-0.8,1.28l-10.43-2.97
	v-1.77L120.88,5.76l-19.5,1.2l154.11,50.32l11.92,4.74v1.65h-4.39l-0.24-1.08h-2.23l-0.42,1.62l-2.71-0.06v-1.26l-9.51,0.78L0,62.59
	v2.17l247.9,1.93l9.69,1.14l0.24-1.14l2.47,0.24l0.42,1.2h2.79l0.16-0.88l10.27,0.88v1.69h-1.85l0.24,4.94c0,0,0.09,0.09,0.25,0.23
	c-4.58-0.3-15.78-0.93-20.08-0.43c-5.46,0.64-5.82,6.16-5.82,6.16l-5.36,0.3c0,0,0.06-1.08,0-1.62c-0.66-0.48-3.13,0-3.13,0v1.58
	c-5.22,0-17.4,0.4-18.44,3.29c-0.8-0.08-4.74,0.32-5.46,0.72c0,0-4.16-1-6.98,3.29c-1.84,2.81-1.28,6.9,0,8.67
	c-9.75-0.16-12.04,0.44-13.97,1.17c-3.25,0.24-19.34,3.01-22.07,5.58c-2.73,2.57-14.61,19.1-14.61,19.1l-3.69,2.37
	c0,0-4.98,15.93,4.33,21.87c-2.73,3.05-6.74,7.38-6.74,7.38h-4.82l5.62,3.69l0.8-1.77l7.06-7.22c0,0,7.89,5.82,15.69,8.35
	c6.69,2.16,17.94,4.73,30.57,7.32l-0.35,1.23l-2.29,1.32v5.06h-1.2v2.29h2.11l0.47,1.36c-2.59,1.2-4.43,4.15-4.43,7.61
	c0,4.52,3.13,8.19,6.98,8.19c1.37,0,2.65-0.47,3.73-1.27c0.73,0.31,1.52,0.48,2.34,0.48c3.86,0,6.98-3.67,6.98-8.19
	c0-4.52-3.13-8.19-6.98-8.19c-1.37,0-2.65,0.47-3.73,1.27c-0.26-0.11-0.52-0.2-0.79-0.27l-0.06-1.6l1.32-0.6v-3.25h-1.08l0.17-4.8
	c24.52,4.93,53.06,9.78,63.28,11.78v8.93c-1.68-0.54-3.46-0.61-5.17-0.08c-5.15,1.58-7.8,7.81-5.93,13.91
	c1.87,6.1,7.56,9.77,12.71,8.19c4.97-1.52,7.6-7.38,6.09-13.27l30.11-9.85l0.48-1.38l3.97-0.79l0.84-1.32l23.3-0.28
	c-0.16,0.86-0.24,1.75-0.22,2.67c0.17,6.21,4.76,11.13,10.25,10.98s9.81-5.31,9.64-11.52c-0.05-1.87-0.51-3.61-1.26-5.14l1.27-0.31
	c11.16-0.64,30.42-14.21,31.87-35.48l18.22,1.41l1.44,7.71c0,0,13,3.49,23.24,3.01c0.96-3.25-0.36-7.83,1.32-7.95
	c1.14-0.08,36.88,3.78,63.08,6.65l11.24,21.22l0.74,4.52l3.73,1.14v-1.8l-0.96-0.3l-0.06-4.55l2.39-18.33
	c4.18,0.46,7.35,0.82,9,1.01c4.86,0.56,12.7-0.15,15.09-4.55c2.65-4.88,10.11-19.21,10.11-19.21l1.32-10.23l8.07-6.3v-1.77h3.93
	l0.48,2.57l1.61,0.4l8.91,45.67l7.71-2.25l-11.5-47.84L571.64,111.71z M275.47,83.45h3.85v-2.41c0,0,31.14,4.01,34.91,4.98
	c3.77,0.96,7.54,3.69,7.59,8.03c1.69,0.8,3.85,0.92,3.85,0.92s0.12-2.65,0-3.01c2.05,0.24,7.16,7.87,4.82,11.2
	c-2.61-3.41-8.67,0-8.67,0l-1.25-2.37h-2.25c0,0-2.09,1.44-8.19,0.48c-2.73-9.15-17.18-9.17-17.18-9.17s-0.32,2.59-1.44,5.16
	c-6.58-13.64-16.05-12.04-16.05-12.04V83.45z M227.97,83.45c0,0,1.69,2.31,0.78,7.61c-1.08,0.78-2.74,0.26-2.74,0.26
	c0.82-2.07,0.34-7.12-0.63-7.87H227.97z M168.07,120.46h-0.88l-0.56,1.93h-1.49l-0.84-2.41l-2.09-1.31
	c0.08-0.21,3.37-4.54,3.37-4.54l1.12,2.27h1.36V120.46z M171.69,119.47v3.19l-2.17-0.9l0.3-3.37l4.88-4.63v4.09h3.97v2.41h-1.99
	v1.44h-1.44l-0.18,1.87l-2.11-0.42v-3.79L171.69,119.47z M177.71,127l-1.53,0.93v2.98h-2.57v-5.96h4.09V127z M184.57,148.79
	l0.6-1.81h2.65l0.72-3.73h1.44l1.08,3.13l1.44,0.72l0.72,2.41L184.57,148.79z M222.57,133.3l-13.08-1.61l0.32-1.93
	c0.24,0,9.31,1.14,9.31,1.14l0.4-0.57l-1.77-0.57l-0.4-18.3h1.44l1.2,17.1l2.57,2.35V133.3z M229.64,109.54l-2.44-0.32l3.6-5.7
	l-2.37-0.4l-3.61,5.78l-2.25-0.4l1.52-3.69l-12.36-1.53l-7.24,6.18l-3.84,18.86l4.01,0.72l-0.24,1.87l-6.5-0.98l4.33-20.95
	l-10.11-3.37l-8.99,19.02l-6.98-0.96v-0.96l5.54-0.4l8.51-17.42l-4.82-2.81c0,0,23.84-7.34,45.39-0.72v0.24
	C235.94,103.15,229.64,109.54,229.64,109.54 M248.5,99.83c0,0-4.98-7.71-9.95-9.95c-4.98-2.25-3.81-6.26-1.61-6.42
	c0,0,17.66-1.61,25.52,1.6c2.09,4.5,1.12,5.78,1.12,5.78l0.22,0.65l-8.89,8.34H248.5z M260.71,132.78
	c-1.48,0.22-2.92-0.49-3.89-1.76c0.87,0.76,2.01,1.15,3.2,0.98c2.26-0.33,3.79-2.58,3.43-5.01c-0.36-2.43-2.48-4.13-4.73-3.8
	c-1,0.15-1.85,0.69-2.46,1.44c0.63-1.18,1.66-2.03,2.93-2.22c2.37-0.35,4.63,1.68,5.05,4.54
	C264.65,129.83,263.08,132.43,260.71,132.78 M277.28,189.95c-0.66-0.85-1.41-1.59-2.23-2.21l0.65-9.82l2.53,0.6l0.72,2.41l1.69-0.36
	l0.6-1.08l6.62-0.96l6.02,0.12L277.28,189.95z M271.86,156.5c0.12-2.65,27.69,2.41,27.69,2.41s-0.24,3.85-3.49,4.57
	C273.06,163,271.86,156.5,271.86,156.5 M284.03,130.31c-0.36-2.43-2.48-4.13-4.73-3.8c-1,0.15-1.85,0.69-2.46,1.44
	c0.63-1.18,1.66-2.03,2.93-2.22c2.37-0.35,4.63,1.69,5.05,4.55c0.42,2.86-1.15,5.47-3.52,5.81c-1.48,0.22-2.92-0.49-3.89-1.75
	c0.87,0.76,2.01,1.15,3.2,0.98C282.85,134.98,284.39,132.74,284.03,130.31 M304.04,134.3c-0.36-2.43-2.48-4.13-4.73-3.8
	c-1,0.15-1.85,0.69-2.46,1.44c0.63-1.18,1.66-2.03,2.93-2.22c2.37-0.35,4.63,1.69,5.05,4.55c0.42,2.86-1.15,5.47-3.52,5.82
	c-1.48,0.22-2.92-0.49-3.89-1.76c0.87,0.76,2.01,1.15,3.2,0.98C302.87,138.97,304.41,136.73,304.04,134.3 M298.83,144.7l0.72,2.17
	l8.91,1.08l0.48-1.2l20.59,3.47l6.14,13.27l-1.45,0.67l-3.61-8.42l-12.28-2.36v2.36l-1.56-0.56l-1.81-2.41L304,150.6v2.17h-0.96
	l-1.45-3.07c0,0-7.1-0.78-11.44-1.26c-4.33-0.48,0.6-3.01,0.6-3.01l5.54,0.6l0.36-1.32H298.83z M319.78,136.32
	c-0.36-2.43-2.48-4.13-4.73-3.8c-1,0.15-1.85,0.69-2.46,1.44c0.63-1.18,1.66-2.03,2.93-2.22c2.37-0.35,4.63,1.69,5.05,4.55
	c0.42,2.86-1.15,5.47-3.52,5.82c-1.48,0.22-2.92-0.49-3.89-1.76c0.87,0.76,2.01,1.15,3.2,0.98
	C318.6,140.99,320.13,138.75,319.78,136.32 M308.58,182.44l-12.28-1.99l0.55-2.05l14.28,2.47L308.58,182.44z M312.07,165.16
	l-10.47-1.69l1.45-3.88l11.2,1.35L312.07,165.16z M323.76,166.98c-3.73-0.24-8.8-1.82-8.8-1.82l1.69-3.85l12.04,1.07
	C328.34,163.77,326.78,167.18,323.76,166.98 M328.68,168.17l1.93-4.02c0,0,4.58,1.38,6.62,4.62
	C335.31,168.78,328.68,168.17,328.68,168.17 M342.87,172.72l-20.2-46.06l0.71-0.38l20.23,46.12L342.87,172.72z M341.32,140.22
	c-0.36-2.43-2.48-4.13-4.73-3.8c-1,0.15-1.85,0.69-2.46,1.44c0.63-1.18,1.66-2.03,2.93-2.22c2.37-0.35,4.63,1.69,5.06,4.55
	c0.42,2.86-1.15,5.47-3.52,5.82c-1.48,0.22-2.92-0.49-3.89-1.76c0.88,0.76,2.01,1.15,3.2,0.98
	C340.15,144.89,341.68,142.65,341.32,140.22 M341.13,163.48c0.06-3.1-2.33-9.05-2.33-9.05c3.13,1.22,5.78,3.92,6.18,5.76
	C345.3,161.65,343.77,165,341.13,163.48 M346.89,152.62c-1.18-0.61-1.81-1.75-1.4-2.54c0.41-0.79,1.7-0.93,2.88-0.31
	c1.18,0.61,1.81,1.75,1.4,2.54C349.35,153.1,348.07,153.24,346.89,152.62 M349.89,185.69c-0.79,0-1.43-0.91-1.43-2.04
	s0.64-2.04,1.43-2.04c0.79,0,1.43,0.91,1.43,2.04S350.68,185.69,349.89,185.69 M275.47,114.75l-5.28-8.58
	c29.36,2.89,74.14,16.37,89.55,24.74C338.07,124.59,275.47,114.75,275.47,114.75 M379.57,133.11l-0.8-5.99
	c0,0,9.99,3.39,10.96,11.98C385.43,132.62,379.57,133.11,379.57,133.11 M491.54,140.12l-120.48-21.91l-4.41-5.78l43.42,9.15
	l1.08-0.6l6.62,0.6v1.2l82.11,15.89L491.54,140.12z M509.02,173.73l-10.4-20.3c2.56,0.28,5.01,0.55,7.33,0.81l3.53,19.42
	L509.02,173.73z M511.07,173.41l-0.75,0.12l-3-19.14c1.96,0.22,3.81,0.42,5.51,0.61L511.07,173.41z M508.37,143.85l3.2-1.81
	l12.31,1.42l2.01,3.27L508.37,143.85z"/>
</svg>
