<?xml version="1.0" encoding="utf-8"?>
<!-- Generator: Adobe Illustrator 15.0.0, SVG Export Plug-In  -->
<!DOCTYPE svg PUBLIC "-//W3C//DTD SVG 1.1 Tiny//EN" "http://www.w3.org/Graphics/SVG/1.1/DTD/svg11-tiny.dtd" [
	<!ENTITY ns_flows "http://ns.adobe.com/Flows/1.0/">
]>
<svg version="1.1" baseProfile="tiny"
	 xmlns="http://www.w3.org/2000/svg" xmlns:xlink="http://www.w3.org/1999/xlink" xmlns:a="http://ns.adobe.com/AdobeSVGViewerExtensions/3.0/"
	 x="0px" y="0px" width="607px" height="595px" viewBox="-19.05 -3.5 607 595" overflow="visible" xml:space="preserve">
<defs>
</defs>
<path d="M524.8,513.47c-0.04,0.1-0.08,0.22-0.12,0.32c-26.22-25.23-48.44-67.3-49.18-68.7c0.04-6.29,0.02-25.99-1.84-35.47
	c-1.71-8.73-11.83-18.35-18.04-22.29c-3.66-2.32-17.44-8.93-32.45-9.75c6.74-17.79,11.56-32.58-0.95-48.08
	c0.87-6.06,2.66-11.2,7.79-12.99c1.03,4.47-3.86,6.66,0,7.8c5.13-1.8-0.64-14.5,5.2-15.59c1.67,10.46,3.71,34.73-1.44,57.79
	c11.98-18.96,3.85-57.11,9.24-68.18c8,24.76,9.21,54.68-8.79,77.53c29.5-24.19,32.1-94.01,28.33-118.33
	c7.17-3.01,16.24-17.68,18.58-27.59c0.12,0.74,0.24,1.64,0.4,2.6c-0.75,17.18-9.65,35.13-13.54,40.51
	c5.43-5.1,13.77-20.77,16.5-34.5c0.03,0,0.06,0.01,0.1,0c0.12-0.72,0.19-1.41,0.29-2.12c0.34-2.13,0.52-4.2,0.52-6.16l-0.02-0.01
	c0.96-34.48-30.75-45.11-36.44-65.84c-0.15-0.38-0.24-0.81-0.31-1.26c-0.08-0.36-0.15-0.73-0.21-1.09
	c-2.48-6.67,0.62-18.43-1.03-19.15c-0.57-0.25-0.56,3.64-4.38,4.66c3.8-9.25-9.49-14.77-3.74-17.39c0.97,0.14,3.53,4.06,6.34,6.99
	c-5.77-16.35-8.32-20.26-22.38-30.64c16.77,2.96,30.13,5.26,34.06,35.42c-1.21-38.11-20.9-36.54-42.21-41.3
	c-1.51-1.08-3.11-2.21-4.81-3.43c3.06-0.41,10.95-2.77,11.37-5.81c-4.7,3.28-12.41,1.59-15.01,1.59
	c-0.39-3.46,11.98-10.54,8.49-13.57c-0.57,2.02-8.07,6.2-11.09,5.78c-1.69-10.54-7.18-17.29-12.68-24.02
	c7.18-4.09,13.91-5.08,22.88,5.25c-7.34-13.29-16.2-12.64-25.4-8.37c-3.42-4.31-6.61-8.85-8.63-14.56
	c5.63-14.44,9.5-29.32,2.16-38.03c5.09,8.85,1.51,19.52-3.98,30.37c-0.32-2.4-0.44-4.99-0.33-7.81c0.01,1.44-2.11,2.95-2.6,0
	c-5.89-52.92-44.52-15.04-80.56-13c-25.56,1.45-42.03-13.47-64.97-7.8c-5.19,2.58-10.84,5.06-16.69,7.53
	c-16.27-2.03-31.11-2.18-39.14,4.63c9.22-4.61,19.54-3.7,30.98-1.23c-12.88,5.31-26.25,10.75-37.89,17.09
	c-11.87-2.33-21.78-2.84-29.94,2.36c7.32-2.85,15.25-1.71,24.25,0.91c-11.71,7.12-21.01,15.42-25.13,25.88
	c6.66-9.8,15.72-17.2,25.99-23.39c-8.69,12.97-23.86,19.45-33.79,31.19c4.96,16.26-13.9,18.22-18.19,33.79
	c-1.16,4.23,0.28,9.61,1.51,15.22c-8.13,8.41-19.64,17.32-15.89,27.01c1.16-4.97,1.65-11.29,17.21-18.3
	c0.07,1.58,0.03,3.14-0.23,4.66c-3.35,19.75-24.77,36.24-18.19,57.18c-9.48-4.66-0.47,0.03-2.6,5.2
	C79.33,228.11-29.51,322.17,52.87,351.08c-4.75-2.73-16.61-10.95-12.7-18.98c3.93-8.07,16.21-13.25,19.57,1.29
	c-2.02,3.84-8.09,5.06-5.79,11.8c-0.4-5.19,7.94-8.68,13.21-6.82c-13.53,12.93-32.63,33.03-35.1,67.76
	c5.85-33.49,23.51-49.75,37.89-60.46c0.64,2.46,1.49,4.55,3.03,5.84c-5.09,12.1-8.48,26.77-6.83,44.44
	c-5.75-1.66-13.06-5.47-19.75-12.11c7.89,12.13,31.37,21.1,30.23,25.8c-1.14,4.7-17.17-5.41-18.27,0.43
	c12.12,1.6,17.42,10.58,15.23,13.37c-3.03,3.87-16.91-1.67-20.43-10.77c1.02,8.88,9.14,12.55,7.16,14.64
	c-1.98,2.09-14.79-1.82-19.79-10.46c1.14,7.58,15.62,12.97,15.23,14.02c-4.96,13.25-20.28-13.16-30.9-8.71
	c4.15,0,8.09,4.15,2.63,5.97c-3.54,1.18-16.98-12.43-20.93-18.71c3.84,13.04,26.07,29.12,24.73,32.76
	c-1.34,3.64-22.6-0.92-31.3-3.24c10.56,4.8,41.91,9.53,27.95,20.22c5.11,0.78,9.73-6.54,12.22-4.9c2.49,1.64-4.33,13.77,3.32,16.96
	c-5.21-7.93,1.97-14.13,6.98-14.41c6.6-0.61,5.69,19.79-3.64,27.6c8.64-2.65,12.49-24.55,20.47-27.68
	c4.75-1.86,11.28-0.86,11.91,3.06c0.94,5.81-11,4.32-13.06,10.06c8.25-2.87,15.52,2.35,11.76,8.13c-4.76,7.32-41.9,23.7-48.45,32.74
	c13.65-9.55,43.72-24.67,46.98-20.5c3.26,4.18-24.1,20.11-21.65,22.32c28.27-21.39,50.78-14.26,51.46-6.47
	c0.34,3.89-16.38,16.21-16.38,17.79c14.79-11.42,19.81-8.19,20.47-4.63c3.06,16.67-44.78,11.2-55.85,0.29
	c18.12,20.36,47.27,13.47,49.03,16.78c2.12,8.19-34.47,6.17-41.15,1.52c9.4,8.24,35.86,8.51,45.37,7.4
	c0.12,0.39,0.23,0.77,0.35,1.15c-6.52,6.87-16.43,16.08-14.96,26.88c1.54-4.1,2.5-11.97,16.59-20.66c3.13,14.27-0.1,20.1,2,37.59
	c0.84,0,0.24-57.56,29.54-46.25c-0.75,13.86-3.43,32.81-6.67,46.25c6.07-13.03,8.58-27.59,10.49-42.69
	c12.06,14.11,35.86,28.41,82.72,27.37c-32.62-1.32-66.31-18.14-79.2-44.62c12.02,4.36,27.37,7.53,46.8,7.51
	c1.52,0,3.15-0.25,4.49-0.71c-18.11-0.73-36.54-6.26-51.56-15.55c0.22-2.32,0.4-4.59,0.58-6.85c10.52,1.42,23.9,2.1,31.38,0.72
	c-10.46-0.42-21.02-2.47-30.97-5.9c0.5-6.12,1.15-12.23,2.62-18.84c6.33-28.4,25.14-44.78,45.95-59.34
	c42.34,2.73,92.02,5.74,93.2,79.47c7.36-71.26-37.15-81.83-78.64-89.36c8.57-5.77,17.08-11.63,24.83-18.25
	c39.46,32.4,110.42,27.52,122.82,140.21C359.59,431.93,283.53,434,245.84,395.14c2.44-2.53,4.76-5.17,6.93-7.97
	c49.09,1.92,100.09,10.95,99.58,85.79c9.05-77.97-44.76-87.72-93.51-94.77c2.91-4.97,5.36-10.4,7.25-16.38l11.44,9.95
	c0,0,3.51,2.33,1.84-0.79c-2.06-3.86-4.16-5.78-10.79-22.14v0c-2.46-11.11-10.66-27.51-4.9-37.51
	c13.11,30.63,61.93,25.56,84.57,46.67c1.37,1.28,1.84,9.29,2.29,16.66c0.04,1.5,0.14,3.04,0.3,4.6c0.28,3.91,0.62,7.06,1.19,8.03
	c0.01-0.05,0.02-0.1,0.03-0.16c4.18,19.97,17.31,44.42,44.57,70.93c-12.01-15.61-39.01-46.31-40.74-84.41
	c7.01-17.28,17.36-13.66,22.82-10.02c15.54,8.8,8.04,58.54,21.38,75.67c0.77-1.49-4.28-29.95-2.89-31.14
	c2.91-2.47,6.45-2.51,9.89-3.39c16.75,19.38,15.77,42.56,18.65,68.19c4.55,40.51,32.15,57.17,39.73,54.87
	c0,0-26.54-3.11-34.88-59.22c-3.61-24.26-1.88-48.97-16.2-68.73c0.96-1.38,1.85-3.13,2.62-5.4c0.34-1.05,0.69-2.08,1.05-3.1
	c25.62,7.09,40.53,27.33,47.41,37.81c-10.55-26.14-35.7-38.43-45.76-42.43c0.68-1.84,1.36-3.64,2.03-5.42
	c14.21,1.83,51.08,5.09,48.89,53.31c0.51,2.77,0.99,4.94,1.43,6.66l-0.82-0.9c5.08,20.18,40.17,65.38,51.37,79.44
	c-3.75,13.5-3.87,31.54-1.58,46.77c-13.82-6.46-33.63-19.13-42.1-29.51c9.22,19.58,35.22,31.86,43.1,35.21
	c0.06,0.31,0.12,0.63,0.18,0.93h48.82C571.02,561.98,556.77,528.04,524.8,513.47 M473.36,203.53c8.49,11.07,6.52,35.33-9.84,51.91
	c-0.33-1.82-0.7-3.33-1.09-4.46C474.68,242.44,467.99,218.95,473.36,203.53 M449.43,279.57c5.84,9.33,0.92,69.26,0,18.19
	C449.28,289.37,447.62,283.58,449.43,279.57 M36.21,334.15c-10.23-5.11-8.86-19.01-5.2-25.98c3.66-6.97,10.77-13.19,13-13
	c1.08-2.28,4.92,11.31,5.2,23.39C43.49,319.19,35.81,323.33,36.21,334.15 M49.2,287.37c-4.03,0.26-10.55,3.37-13.8,10.39
	c-2.18,0.84,4.9-18.29,13.8-23.38C56.75,267.11,40.17,285.33,49.2,287.37 M404.75,108c10.06,5.01,16.69,11.72,16.74,11.78
	c0.03,0.26-6.64-6.31-16.76-11.26c-9.95-5.15-22.59-9.14-30.11-10.45c-0.55-0.11-0.67-0.29-0.64-0.47c0.03-0.18,0.27-0.28,0.76-0.18
	C382.34,98.73,394.85,102.8,404.75,108 M392.38,77.46l-25.07,11.58C379.85,82.31,392.38,77.46,392.38,77.46 M374.52,64.78
	c-2.23,5.02-6.67,9.62-9.22,12.2c-0.19,0.19-0.44,0.04-0.68-0.2c-0.24-0.24-0.37-0.51-0.2-0.68c2.53-2.54,6.94-6.94,9.27-11.58
	c3.23-5.06-1.1-8.64-1.1-8.41C372.44,55.33,377.75,59.15,374.52,64.78 M367.31,45.77c-0.15-0.77,5.16,3.04,1.93,8.67
	c-2.23,5.02-6.67,9.62-9.22,12.2c-0.19,0.19-0.44,0.04-0.68-0.2c-0.24-0.24-0.37-0.51-0.2-0.68c2.53-2.54,6.94-6.94,9.27-11.58
	C371.64,49.12,367.31,45.54,367.31,45.77 M360.04,30.15c0.91,9.68-3.42,20.32-6.36,25.96c-0.21,0.43-0.7,0.3-1.23,0.02
	c-0.53-0.28-0.88-0.67-0.7-1.03c2.86-5.46,7.2-15.57,6.79-24.66c0.18-9.59-7.37-14.27-7.11-14.34
	C351.11,15.49,359.63,19.84,360.04,30.15 M338.48,23.64c5.87,6.98,8.58,17.39,9.74,23.25c0.1,0.44-0.33,0.64-0.88,0.74
	c-0.56,0.11-1.05,0.03-1.13-0.34c-1.15-5.74-3.52-15.81-8.74-22.63c-4.9-7.47-12.82-8.29-12.72-8.57
	C324.34,15.81,332.87,15.96,338.48,23.64 M322.19,28.01c7.83,6.1,12.77,16.7,15.46,22.57c0.21,0.44-0.2,0.75-0.76,0.99
	c-0.57,0.24-1.1,0.27-1.28-0.1c-2.65-5.78-7.17-16.09-14.27-22.17c-6.86-6.49-15.17-7.34-15.08-7.76
	C305.94,21.38,314.56,21.51,322.19,28.01 M297.09,28.08c9.18,8.86,16.21,22.25,23.11,27.14c0.47,0.4,0.12,1.11-0.32,0.74
	c-7.22-5.18-15.68-17.4-24.01-26.23c-8.42-9.5-19.75-9.48-19.65-9.83C275.61,19.51,287.64,18.52,297.09,28.08 M270.11,29.22
	c10.69,7.84,17.73,21.3,22.03,29.15c0.33,0.57-0.19,1.22-0.47,0.73c-4.19-7.63-12.75-20.03-22.66-28.06
	c-9.75-8.36-20.45-10.81-20.46-11.14C248.31,19.39,259.54,21.01,270.11,29.22 M248.96,35.69c11.43,6.57,18.94,19.92,24.68,26.3
	c0.42,0.49,0.08,1.21-0.29,0.78c-5.8-6.49-14.72-18.44-25.25-25.19c-10.51-6.86-21.34-7.96-21.31-8.45
	C226.49,28.84,237.57,29.04,248.96,35.69 M237.51,43.78c10.71,5.72,18.28,16.95,24.36,22.05c0.45,0.39,0.85,1.52,0.45,1.17
	c-6.27-5.29-15.56-15.46-25.56-21.43c-9.9-6.3-19.95-6.98-19.98-7.34C216.47,37.88,226.86,37.71,237.51,43.78 M218.48,52.73
	c9.79,2.89,20.42,8.5,26.24,12.37c0.43,0.28,0.25,0.81-0.12,1.34c-0.38,0.53-0.82,0.87-1.19,0.63c-5.65-3.76-15.86-9.47-25.25-12.72
	c-9.34-3.51-17.73-3.78-17.81-4.07C200.14,49.95,208.72,49.57,218.48,52.73 M211.4,62.2c10.2,2.77,20.04,9.43,26.15,13.65
	c0.6,0.51-0.01,0.69-0.17,0.54c-5.61-3.88-16.53-9.39-26.26-12.5c-9.74-3.41-18.4-3.44-18.5-3.73
	C192.38,59.81,201.25,59.17,211.4,62.2 M232.77,82.17c0.42,0.06,0.53,0.2,0.53,0.34c0,0.15-0.18,0.24-0.6,0.18
	c-12.12-2.44-40.75-9.46-40.92-9.58C191.54,72.86,220.74,79.75,232.77,82.17 M222.98,88.79c0.37,0.02,0.47,0.13,0.47,0.25
	c0,0.12-0.15,0.21-0.49,0.19c-10.33-0.84-34.99-3.28-35.14-3.38C187.58,85.68,212.68,87.95,222.98,88.79 M210.59,98.33
	c0.45,0,0.57,0.11,0.57,0.26c0,0.14-0.17,0.26-0.56,0.27c-12.21,0.29-41.27-2.25-41.44-2.39C168.88,96.3,198.44,98.63,210.59,98.33
	 M185.59,108.43c0.44,0,0.55,0.11,0.55,0.25c0,0.14-0.17,0.25-0.55,0.25c-11.84,0-40.21-0.15-40.39-0.25
	C144.92,108.52,173.75,108.43,185.59,108.43 M185.42,123.18c0.53-0.08,0.69,0.04,0.72,0.21c0.03,0.17-0.14,0.34-0.61,0.41
	c-14.48,3.13-49.26-0.5-49.43-0.41C135.73,122.93,171.13,126.31,185.42,123.18 M136.62,141.35c15.88,1.46,33.3,2.4,48.83-1.92
	c-0.38,0.1-0.67,0.5-1.05,0.61c-15.53,4.32-32.95,3.38-48.83,1.92C135.9,141.99,136.29,141.32,136.62,141.35 M145.99,266.77
	c27.12-19.9,31.25-30.94,38.13-48.12l0.66,1.02c-6.88,17.19-8.06,27.11-35.18,47.01c-12.51,9.18-34.58,19.96-43.52,33.25
	C113.05,286.43,133.48,275.95,145.99,266.77 M175.83,198.91c0.31-0.87,0.62-1.03,0.91-0.94c0.29,0.08,0.93,1.55,0.66,2.33
	c-3.31,12.66-18.16,28.7-32.76,39.83c-14.43,11.43-27.22,19.77-27.34,19.94C115.69,260.05,170.34,226,175.83,198.91 M151.93,163.09
	c11.19-0.65,22.61-8.08,28.89-11.89c0.45-0.32,0.66-0.28,0.77-0.15c0.11,0.14,0.02,0.38-0.38,0.66
	c-6.41,3.88-17.72,11.17-29.01,11.78c-10.97,1.27-20.13,1.27-20.25,1.3C131.77,164.63,140.94,164.44,151.93,163.09 M176.07,161.33
	c0.28-0.5,0.49-0.56,0.67-0.49c0.17,0.07,0.2,0.34-0.06,0.8c-8.17,15.03-44.52,26.19-47.02,24.78c-0.09-0.04-0.15-0.1-0.13-0.18
	c0.01,0.07,0.05,0.13,0.13,0.18C132.02,187.48,168.36,175.88,176.07,161.33 M171.44,185.24c0.55-0.41,0.81-0.38,0.96-0.21
	c0.14,0.17,0.04,0.47-0.44,0.83c-14.35,13.61-59.28,23.04-58.9,24.44C111.84,208.76,157.43,198.64,171.44,185.24 M137.06,212.95
	c13.82-4.92,30.47-11.76,35.87-20.76c0.45-0.58,0.73-0.63,0.93-0.49c0.2,0.13,0.18,0.47-0.22,1c-5.64,9.27-22.37,15.99-36.09,20.72
	c-13.92,4.84-24.36,11.29-24.5,11.34C112.73,224.75,123.07,217.99,137.06,212.95 M71.36,378.88c-2.31,5.21-0.57,12.26,5.2,15.59
	c0.47,2.47-3.83,3.29-10.04,1.58c-0.02-18.38,3.78-32.34,8.96-43.32c0.34,0.08,0.7,0.13,1.08,0.17c-2.36,0.71-2.58,15.47-0.33,16.89
	c-0.81-5.46-0.27-13.16,2.93-14.29c-1.05,13.81,8.14,26.47,5.06,30.87C81.96,389.58,74.36,393.19,71.36,378.88 M90.78,492.68
	c-1.17-3.83-4.2-5.72-10.4-2.6c2.63-4.87,12.5-7.18,19.39-7.22C98.09,485.51,90.01,487.57,90.78,492.68 M94.14,466.94
	c-1.17-3.82-4.2-5.72-10.4-2.6c2.63-4.87,12.5-7.18,19.39-7.22C101.45,459.77,93.36,461.83,94.14,466.94 M96.82,190.28
	c-2-9.27,2.78-23.45,16.23-33.16C106.07,175.32,96.82,190.28,96.82,190.28 M104.85,336.27c0.08,0.39,1.89-9.82,10.37-18.38
	c8.25-8.9,22.29-12.7,29.96-14.52c0.18-0.04,0.31-0.06,0.42-0.06c0.69-0.56,1.39-1.11,2.11-1.66
	c14.35-11.68,33.29-22.48,44.72-27.87c0.84-0.4,1.16-0.28,1.29-0.01c0.12,0.27-0.1,0.64-0.83,0.99
	c-11.35,5.36-30.09,15.89-44.43,27.24c-14.78,10.99-23.22,23.93-23.25,24.09c-0.42,0.15,6.51-11.2,19.25-21.84
	c-7.81,1.89-20.82,5.55-28.74,13.82C107.26,326.31,105.16,336.39,104.85,336.27 M109.1,369.38l-0.4,0.91v-0.92
	c1.98-20.84,33.71-49.48,50.76-64.86l1.6-1.45l0.81,0.9l-1.6,1.45C143.35,320.69,111.04,349.01,109.1,369.38 M133.42,473.5
	c-1.69,2.64-9.77,4.71-8.99,9.81c-1.17-3.82-4.2-5.72-10.4-2.6C116.66,475.85,126.52,473.54,133.42,473.5 M129.83,513.45
	c-1.17-3.82-4.2-5.72-10.4-2.6c2.63-4.87,12.5-7.18,19.39-7.22C137.13,506.28,129.05,508.34,129.83,513.45 M138.58,374.28
	c-0.52,0.38,4.8-19.51,19.8-38.94c14.06-19.84,34.73-39.87,43.85-53.57c0.67-1,1.12-1.1,1.45-0.9c0.34,0.2,0.34,0.77-0.26,1.67
	c-9.35,13.99-29.78,33.54-43.97,53C144.4,354.55,138.56,374.07,138.58,374.28 M161.12,381.66c-15.1,32.86-15.68,63.59-16.42,64.17
	c-0.01,0.04-0.01,0.05-0.02,0.03c0.01,0,0.01-0.02,0.02-0.03c0.16-1.19,0.3-31.38,14.76-64.1c14.42-33.82,41.78-67.75,49.45-91.6
	c0.68-1.7,1.31-1.97,1.86-1.77c0.56,0.2,0.74,1.03,0.14,2.53C203.02,315.16,175.75,348.6,161.12,381.66 M192.16,365.41
	c-6.17,11.25-11.46,21.81-13.69,30.09c-2.49,8.32-0.65,13.79-0.74,13.87c0.06,0.33-2.2-5,0.03-13.46
	c1.97-8.38,7.14-19.14,13.22-30.55c12.3-22.56,27.44-49.78,27.49-67.72c0.05-1.28,0.4-1.61,0.83-1.62c0.42,0,0.74,0.51,0.69,1.67
	C219.84,316.26,204.58,343.17,192.16,365.41 M213.31,372.82c-5.3,10.13-9.76,19.74-10.8,27.34c-1.18,7.6,1.34,12.17,1.17,12.34
	c0.01,0.02,0.01,0.02,0,0.01c0,0,0,0,0-0.01c-0.15-0.3-2.56-4.6-1.75-11.89c0.76-7.71,5.11-17.54,10.33-27.81
	c11.09-20.18,21.61-45.71,20.5-61.75c0.01-1.15,0.32-1.46,0.69-1.47c0.37-0.01,0.67,0.44,0.67,1.47
	C235.2,327.44,224.52,352.95,213.31,372.82 M292.9,304.83c-31.86-5.15-40.52-29.53-64.37-51.25c-4.69,15.95,13.24,9.29,10.4,23.39
	c-18.36,8.07-27.84-4.9-34.05-15.13c-1.14-1.11-0.61-1.9,0.27-3.06c6.1,4.2,11.55-2.3,15.59,2.6c6.89-3.76-9.54-5.81-5.2-15.59
	c8.35-2.29,3.56,8.57,10.39,7.8c0.98-5.39-1.11-11.22-3.69-17.56c-0.37-0.91-7.62,3.3-7.99,2.39c-0.37-0.91,6.13-6.94,5.76-7.85
	c-0.53-1.34-1.06-2.69-1.55-4.07c-0.35-0.97-10.38,6.64-10.68,5.65c-0.31-0.99,9.11-10.57,8.85-11.57
	c-0.25-0.98-0.47-1.96-0.65-2.95c-0.19-1.01-13.33,9.48-13.46,8.46c-0.1-0.83,8.46-9.32,11.58-12.99
	c22.54,27.82,56.06,28.24,52.2,75.26c7.07-52.18-28.99-51.54-51.49-82.59c-0.55-9.44-0.38-19.44,0.66-30.64
	c0.19-2.01-13.06,0.6-12.94-1.42c0.12-2.02,16.41-11.28,16.45-13.3c0.05-2.55,0-5.05-0.16-7.48c-0.13-1.97-12.44,2.16-12.95,0.25
	s10.81-9.93,9.9-11.68c-0.11-0.2-0.21-0.41-0.32-0.61c-0.92-1.77-10.44-0.91-10.79-2.87c-0.35-1.96,8.43-6.92,8.67-8.9
	c0.07-0.58,0.15-1.16,0.24-1.74c0.31-2.02-4.48-1.44-3.95-3.42c0.53-1.98,6.4-6.54,7.16-8.44c2.27-5.75,5.49-11.05,9.44-15.88
	c1.83-0.33,4.05-0.05,6.43,0.89c5.13,2.03,9.82,6.66,11.48,11.36c1.66,4.7-0.07,8.38-4.26,9.03c-2.86,0.44-6.73-1.25-9.54-4.19
	c-2.81-2.93-3.93-6.45-2.77-8.67c1.16-2.22,4.35-2.65,7.86-1.06c2.15,0.97,4.05,2.92,4.77,4.89c0.72,1.97,0.13,3.58-1.5,4.04
	c-1.62,0.46-3.23,0.04-5.55-1.23c2.32,2,5.24,2.88,7.31,2.22c2.07-0.67,2.91-2.75,2.09-5.24c-0.82-2.48-3.12-4.89-5.79-6.03
	c-4.36-1.86-8.41-1.16-9.98,1.74c-1.57,2.9-0.32,7.34,3.08,10.96c3.41,3.62,8.21,5.6,11.85,4.9c5.32-1.03,8.01-6.4,6.45-12.42
	c-1.83-7.08-7.27-13.56-13.66-15.9c-1.07-0.39-2.16-0.65-3.23-0.79c5.35-5.27,11.62-9.85,18.51-13.67c1.77-0.98-6.59-7.08-4.77-7.95
	c1.82-0.87,13.84,3.48,15.71,2.72c6.4-2.62,13.14-4.65,20-6.07c0.97-0.2-4.34-8.91-3.36-9.09c0.98-0.18,8.24,8.19,9.21,8.03
	c4.83-0.74,9.69-1.18,14.51-1.29c2.04-0.05-2.31-6.21-0.27-6.14c2.04,0.07,10.49,6.36,12.53,6.55
	c30.61,2.85,57.21,19.62,60.75,53.81c-0.84-0.24-1.69-0.43-2.56-0.58c-0.99-0.17-4.5,1.13-5.51,1.08c-1.01-0.05,0.48-1.45-0.53-1.39
	c-2.25,0.13-4.52,0.53-6.73,1.16c-0.97,0.28-4.74,3.71-5.68,4.07c-0.94,0.37,0.95-2.33,0.05-1.89c-6.44,3.21-11.78,8.53-13.95,15.28
	c-1.31,4.5-3.03,11.53-2.43,18.35c0.96-0.41,3.08-11.93,7.43-13.65c1.68-1.37,3.53-2.76,5.48-4.11c0.83-0.57,3.61-4.53,4.46-5.07
	c0.85-0.54-0.25,2.33,0.62,1.83c1.89-1.11,3.83-2.13,5.76-3c0.93-0.42,4.12-3.79,5.07-4.14c0.95-0.35-0.33,2.31,0.65,2.04
	c3.34-0.92,6.51-1.18,9.25-0.47c0.97,0.25,2.94-1.37,3.79-0.84c0.85,0.53,0.66,3.24,1.32,4c0.2,0.23,0.38,0.46,0.57,0.71
	c0.59,0.8,1.85-0.87,2.26,0.04c0.33,0.74,0.07,3.21,0.1,4.63c0.02,1.01,1.47,0.33,1.62,1.33c0.15,1-0.81,3.64-0.74,4.64
	c0.05,0.62,0.08,1.27,0.1,1.94c-0.88-0.5-2.19-0.82-3.59-1.06c1.35-1.9,2.22-4.28,0.59-6.48c0.24,1.88-3.15,4.14-5.83,5.63
	c-1.99-0.46-3.09-1.18-1.65-2.8c-2.29,0.1-6.5,2.54-8.64,3.19c-1.02,0.31-0.06-2.75-1.01-2.33c-1.22,0.55-4.31,4.61-5.35,5.34
	c-0.63,0.44-1.28-2.37-1.82-1.86c-2.16,2.01-4.06,6.35-4.38,9.3c-2.14-6.77-2.38-1.53-8.76,4.88c11.98,12.51,34.73,6.45,44.58-1.9
	c22.74,15.59,14.78,34.82,16.13,55.6c1.33,20.58,7.69,39.36,2.23,54.17C394.81,301.69,333.06,311.32,292.9,304.83 M367.31,155.51
	c3.84-0.1,6.67,1.72,6.67,1.72s-1.85,2.86-6.67,3.23C368.02,158.24,367.31,155.51,367.31,155.51 M364.12,156.34
	c0,0.46-0.5,0.83-1.11,0.83c-0.62,0-1.11-0.37-1.11-0.83c0-0.46,0.5-0.84,1.11-0.84C363.63,155.5,364.12,155.88,364.12,156.34
	 M408.05,138.65c-4.53-5.93-12.18-10.45-16.69-12.64c-0.33-0.17-0.37-0.3-0.32-0.41c0.05-0.11,0.23-0.13,0.52,0.02
	c4.54,2.2,12.13,6.75,16.65,12.72c4.56,5.92,5.92,12.11,6.01,12.1C414.06,150.68,412.64,144.51,408.05,138.65 M418.2,348.4
	c-4.71,4.84-5.03-2.98-7.29-9.99C416.67,338.29,415.78,348.78,418.2,348.4 M401.17,334.78c8.92,2.16,2.91,15.35,6.79,15.83
	C398.59,354.97,401.54,344.74,401.17,334.78 M399.66,371.74c6.86-6.18,16.75,7.46,19.28,4.48
	C418.3,387.01,409.72,377.87,399.66,371.74 M401.21,361.08c1.87-9.04,17.92-3.9,18.19-7.8
	C425.27,362.36,412.95,360.07,401.21,361.08 M388.31,112.92c-0.65-0.4-0.72-0.68-0.58-0.88c0.13-0.21,0.49-0.22,1.06,0.13
	c8.68,5.66,24.68,13.36,36.94,22.3c12.85,8.39,17.91,20.55,17.61,21.02c0,0.02,0,0.03-0.01,0.02c0,0,0-0.02,0.01-0.02
	c-0.07-0.56-5.07-12.26-17.73-20.34C413.29,126.29,397.06,118.62,388.31,112.92 M231.79,182.9c-0.91-5.58,0.02-11.63,2.43-17.35
	c0.39-0.92,4.25-3.37,4.7-4.26c0.45-0.89-2.5-0.21-1.98-1.06c2.2-3.63,5-6.99,8.3-9.87c0.32-0.28,4.68-0.65,5.01-0.92
	c0.33-0.27-3.39-0.43-3.05-0.69c2.23-1.72,4.64-3.23,7.18-4.51c0.92-0.47,6.35-0.61,7.3-1.02c0.94-0.41-2.6-1.08-1.63-1.43
	c5.42-1.96,11.14-2.99,16.61-3.02c0.99,0,6.17,2.11,7.16,2.17c0.99,0.06-2.21-1.93-1.24-1.8c7.8,1.07,14.57,4.46,18.42,10.39
	c0,1.11-2.39,2.34-3.94,2.43C271.17,150.86,240.13,150.76,231.79,182.9 M387.38,242.81c-28.81-4.4-55.97,6.59-73.25,17.03
	c-3.18,1.11-2.48-2.12,0.38-2.55c7.2-4.17,14.95-17.08,27.02-21.51c7.78,0.71,16.48-2.12,19.41-4.45
	c7.76,0.75,17.39,6.98,25.07,8.39C386.83,240.35,388.36,241.74,387.38,242.81 M317.47,197.16l1.67,0.46
	c-2.83,6.83-4.36,16.5,2.98,16.23c2.35-0.09,4.1-3.03,4.95-4.4c1.42-2.28,1.99-7.2,5.63-8.72c4.61-1.92,7.26,0.27,7.69,1.59
	c1,3.06-4.62,8.76-6.1,10.4c-1.16,1.27-4.46,4.17-6.93,5.33C311.5,225.49,314.13,205.2,317.47,197.16 M274.17,553.68
	c2.95,4.64,4.09,12.21,11.05,19.56h-16.18l0.22-1.37l2.26-17.21C271.52,554.67,272.94,551.75,274.17,553.68 M342.06,259.21
	c11.11-0.63,29.31-4.43,34.61-9.78C376.08,262.82,351.29,265.1,342.06,259.21 M343.76,215.86c-2.43-7.28,5.82-19.36,9.73-17.87
	c1.92,0.73,2.6,1.35,2.28,4.13c-0.33,2.88,2.84,3.75,3.75,1.33c0.97-2.58,0.14-6.29-0.95-9.17c4.21,2.12,6.08,16.86,2.71,17.99
	c-4.22,1.42-3.31-5.1-11.5-4.27C347.73,208.21,344.01,216.62,343.76,215.86 M257.01,168.14c0.96,0.75,0.2,2.63-8.09,3.84
	c1.06,1.06,3.5,1.9,2.65,2.69c-0.7,0.65-7.11,0.89-8.41,0.57c-0.83,0.47,4.8,2.89,3.84,2.97c-0.88,0.47-8.13,1.7-8.95,1.35
	c-0.81,0.54,7.19,1.76,6.23,1.93c-1.96,0.95-7.48,3.03-9.12,3.07c-0.44,0.9,9.85,0.51,9.56,1.47c-0.26,0.84-1.82,1.95-1.96,2.83
	c32.86,10.11,44.69-9.76,58.84-14.66C291.59,162.28,269.6,163.29,257.01,168.14 M260.15,184.12c0,0,0.4-2.53,2.83-3.24h0.5
	c0,0,0.3,2.53,3.24,3.64C263.18,185.63,260.15,184.12,260.15,184.12 M273.9,177.65c-0.62,0-1.11-0.37-1.11-0.83
	c0-0.46,0.5-0.83,1.11-0.83c0.61,0,1.11,0.38,1.11,0.83C275.01,177.27,274.51,177.65,273.9,177.65 M283.4,179.67
	c0.91-1.42,0-5.66,0-5.66c2.73-0.3,8.19,0.81,8.19,0.81S287.04,177.95,283.4,179.67 M464.48,559.83
	c6.32,2.73,11.86,6.31,16.14,10.82v2.6H371.47c17.06-18.55,56.99-24.9,85.8-16.07l-11.3-21.54c-3.2-6.09-2.17-7.81,1.95-1.7
	C449.98,536.98,459.04,551.25,464.48,559.83 M297.34,573.25h-5.45c4.96-31.34-39.32-59.45-30.53-104.64
	C257.11,510.77,302.3,541.9,297.34,573.25 M327.74,573.25h-5.05c-9.01-16.17-17.18-34.04-12.93-55.91
	C307.66,538.22,317.69,556.4,327.74,573.25 M355.31,573.65h-2.89c-2.04-8.4-2.64-17.41-0.73-27.21
	C350.73,556.04,352.33,565.06,355.31,573.65 M144.46,304.24c0.38-0.31,0.76-0.63,1.14-0.94c0.25,0,0.35,0.09,0.38,0.21
	c0.04,0.19-0.14,0.39-0.64,0.51C145.07,304.1,144.76,304.17,144.46,304.24"/>
</svg>
