<?xml version="1.0" encoding="utf-8"?>
<!-- Generator: Adobe Illustrator 14.0.0, SVG Export Plug-In  -->
<!DOCTYPE svg PUBLIC "-//W3C//DTD SVG 1.1 Tiny//EN" "http://www.w3.org/Graphics/SVG/1.1/DTD/svg11-tiny.dtd" [
	<!ENTITY ns_flows "http://ns.adobe.com/Flows/1.0/">
]>
<svg version="1.1" baseProfile="tiny"
	 xmlns="http://www.w3.org/2000/svg" xmlns:xlink="http://www.w3.org/1999/xlink" xmlns:a="http://ns.adobe.com/AdobeSVGViewerExtensions/3.0/"
	 x="0px" y="0px" width="113px" height="68px" viewBox="-0.28 -0.11 113 68" xml:space="preserve">
<defs>
</defs>
<path fill-rule="evenodd" d="M62.95,7.52c0.04,0.21-0.16,0.19-0.09,0.43c-0.25-0.13-0.1-0.23-0.17-0.6
	C62.8,7.38,62.82,7.5,62.95,7.52z"/>
<path fill-rule="evenodd" d="M54.15,19.93c0.06,0.17,0.51-0.05,0.43,0.26c-0.17,0-0.35,0-0.52,0
	C54.11,20.12,54.15,20.05,54.15,19.93z"/>
<path fill-rule="evenodd" d="M102.61,24.68c0.27-0.1,0.21,0.14,0.34,0.17c0.02,0.19-0.3,0.04-0.43,0.09
	C102.57,24.87,102.62,24.79,102.61,24.68z"/>
<path fill-rule="evenodd" d="M22.07,31.75c0.01-0.19,0.37-0.04,0.52-0.09C22.57,32.11,22.33,31.75,22.07,31.75z"/>
<path fill-rule="evenodd" d="M33.28,36.32c-0.29,0.06-0.11-0.35-0.43-0.26C32.93,35.72,33.31,36.04,33.28,36.32z"/>
<path fill-rule="evenodd" d="M34.66,37.52c-0.24,0.37-0.17,0.44-0.17,0.78c-0.25-0.12-0.33-0.47-0.35-0.6
	C34.25,37.57,34.44,37.53,34.66,37.52z"/>
<path fill-rule="evenodd" d="M35.78,39.94c0.01,0.14-0.04,0.33,0.09,0.35c-0.02,0.12-0.26,0.03-0.26,0.17
	c-0.09-0.28-0.42-0.33-0.52-0.6C35.29,39.66,35.38,40.07,35.78,39.94z"/>
<path fill-rule="evenodd" d="M36.22,41.58c0.18,0.05,0.33,0.13,0.26,0.43C36.21,42.04,36.3,41.73,36.22,41.58z"/>
<path fill-rule="evenodd" d="M36.13,48.04c0,0.12,0,0.23,0,0.35c-0.17,0-0.11-0.24-0.35-0.17C35.81,48.06,35.93,48.02,36.13,48.04z"
	/>
<path fill-rule="evenodd" d="M53.98,48.39c0.28,0.1-0.24,0.46,0.26,0.35c0.26,0.13-0.37,0.08-0.52,0.08
	C53.61,48.48,53.97,48.61,53.98,48.39z"/>
<path fill-rule="evenodd" d="M37.16,54.17c0.03,0.14,0.15-0.07,0.17,0.09c0.11-0.04-0.13-0.7,0.34-0.6
	c0.12,0.52-0.24,0.64-0.09,0.95c-0.38,0.09-0.28-0.29-0.6-0.26c0.09-0.08,0.03-0.32,0.26-0.26C37.27,54.15,37.22,54.16,37.16,54.17z
	"/>
<path fill-rule="evenodd" d="M36.82,54.42c0.33-0.13,0.02,0.38,0.34,0.26c-0.11,0.12-0.34,0.11-0.34,0.34
	c-0.07-0.05-0.14-0.09-0.26-0.09C36.51,54.63,36.82,54.69,36.82,54.42z"/>
<path fill-rule="evenodd" d="M33.28,56.15c0.07,0.02,0.09,0.09,0.17,0.09c-0.11,0.28-0.12,0.18-0.17,0.43
	c-0.13-0.07-0.12-0.28-0.17-0.43C33.21,56.25,33.26,56.22,33.28,56.15z"/>
<path fill-rule="evenodd" d="M33.54,57.36c-0.24-0.14-0.44-0.31-0.17-0.52c0.24-0.06,0.17,0.17,0.35,0.17
	C33.61,57.34,33.38,56.92,33.54,57.36z"/>
<path fill-rule="evenodd" d="M112.01,57.36c0.12,0,0.23,0,0.34,0c0,0.12,0,0.23,0,0.34c-0.12-0.09-0.21-0.09-0.26,0.09
	C111.91,57.66,112.16,57.58,112.01,57.36z"/>
<path fill-rule="evenodd" d="M76.92,60.72c0.43-0.11,0.12,0.51,0.34,0.6C76.93,61.69,76.67,60.94,76.92,60.72z"/>
<path fill-rule="evenodd" d="M36.04,62.88c0.19-0.02,0.04,0.31,0.09,0.43c-0.12,0-0.23,0-0.35,0C35.81,63.1,36.08,63.15,36.04,62.88
	z"/>
<path fill-rule="evenodd" d="M57.51,0.53c0.02-0.1,0.09-0.05,0.09,0c0.02-0.23,0.16-0.27,0.34-0.52c0.32-0.07,0.41,0.1,0.69,0.08
	c-0.03,0.2-0.1,0.36-0.17,0.52c0.29,0.08,0.28-0.12,0.26-0.35c0.1,0.01,0.15-0.02,0.17-0.09c0.1,0.02,0.05,0.09,0,0.09
	c0.13,0.01,0.39,0.11,0.6,0.26c-0.03,0.14-0.15-0.08-0.17,0.09c0.15,0.2,0.38-0.25,0.78-0.09c-0.37-0.32,0.27-0.05,0.26-0.43
	c0.34,0.25,1.27,0.58,1.29,1.29C61.7,1.3,61.76,1,61.91,0.79c0.18,0.05,0.32,0.15,0.43-0.09c0.1,0.01,0.07,0.16,0.09,0.26
	c0.28-0.1,0.38-0.78,0.43-0.6c0.07,0.02,0.08-0.03,0.09-0.09c-0.04,0.26,0.19,0.22,0.43,0.26c0.07-0.43-0.35,0.15-0.26-0.26
	c0.14-0.01,0.33,0.04,0.34-0.09c0.1,0.17-0.01,0.37,0.35,0.43c-0.21,0.11-0.17,0.36-0.09,0.43c0.01,0.19-0.31,0.04-0.43,0.09
	c0,0.09,0,0.17,0,0.26c0.34,0.08,0.26-0.26,0.6-0.17c-0.16,0.25-0.14,0.96-0.95,1.21c0,0.08,0,0.17,0,0.26
	c0.15,0.05,0.36-0.25,0.43,0c0.19-0.01,0.19-0.22,0.17-0.43c0.53,0.14-0.13,0.53-0.09,0.95c0.25-0.24,0.13,0.94-0.26,1.03
	c0.08,0.24,0.27-0.12,0.52,0c-0.05,0.44-0.52,0.46-0.6,0.86c-0.06,0.27,0.24,0.17,0.17,0.43c-0.41,0.19,0.05,0.42-0.6,0.52
	c0.31,0.27-0.12,0.23,0.09,0.61c-0.1,0.07-0.23,0.11-0.43,0.08c0,0.14,0,0.29,0,0.43c0.04,0.17,0.33,0.07,0.26,0.34
	c-0.07,0.04-0.14,0.09-0.26,0.09c-0.08,0.57,0.16,0.42,0.43,0.52c-0.09,0.25-0.26,0.29-0.52,0.17c-0.03,0.37,0.29,0.4,0.43,0.6
	c-0.07,0.22-0.38-0.17-0.52,0.08c0.03,0.2,0.41,0.05,0.35,0.35c-0.25-0.26-0.17,0.22,0.09,0.17c-0.06,0.25-0.5,0.14-0.52,0.43
	c0.01,0.1,0.16,0.07,0.26,0.09c-0.25,0.39-0.51,0.6-0.34,1.21c-0.18,0.04-0.23-0.06-0.35-0.09c-0.06,0.43,0.32,0.43,0.35,0.78
	c-0.34-0.21-0.18-0.17-0.09,0.17c-0.16-0.01-0.18,0.11-0.35,0.09c0.09,0.11,0.08,0.32,0.26,0.34c-0.17,0.13-0.24,0.31,0,0.43
	c-0.09,0.12-0.23,0.17-0.35,0.26c0.03,0.48,0,0.5,0.09,0.86c-0.35-0.49-0.64,0.87-0.17,0.86c-0.42,0.38-0.26,0.33-0.43,0.78
	c0.08,0.12,0.23,0.17,0.34,0.26c-0.25,0.1-0.33,0.36-0.52,0.52c0.28,0.04,0.18,0.71-0.09,0.43c0.01,0.25,0.37,0.15,0.34,0.43
	c-0.64-0.18-0.74,0.5-1.21,0.6c-0.02,0.07,0.03,0.08,0.09,0.09c-0.31,0.14,0.1-0.42-0.34-0.43c0.15-0.21-0.12-0.51,0.26-0.6
	c-0.27-0.07-0.21-0.47-0.52-0.52c0.05-0.26,0.18-0.45,0.26-0.69c0.25,0.16,0.6-0.16,0.86-0.26c-0.08-0.21-0.33,0.12-0.6,0
	c-0.17-0.25-0.28-0.22-0.17-0.6c-0.18,0.08-0.26,0.25-0.26,0.52c-0.33-0.04-0.13-0.62-0.43-0.69c-0.17,0.04-0.07,0.33-0.35,0.26
	c0.27,0.2-0.02,0.26,0.09,0.34c-0.21-0.05-0.3,0.35-0.43,0.6c-0.62-0.22-0.2,0.3-0.69,0.43c0.05,0.18,0.43,0.02,0.34,0.35
	c0.15-0.18,0.3-0.15,0.17-0.43c0.3,0.07,0.26,0.54,0.17,0.78c-0.11-0.12-0.41-0.12-0.52,0c0,0.15,0.22,0.51,0.26,0.35
	c-0.15,0.67-1.11,1.13-0.95,2.16c-0.24-0.04-0.47,0.37-0.69,0.6c-0.02-0.07,0.03-0.08,0.09-0.09c-0.18-0.02-0.52-0.33-0.69-0.6
	c-0.19-0.01-0.04,0.31-0.09,0.43c-0.13-0.18-0.32-0.31-0.52-0.43c0.51-0.18,0.16-1.03,0.52-0.95c-0.19-0.08-0.25-0.37,0.09-0.35
	c-0.55-0.4,0.09-1.08-0.26-1.55c0.46-0.04-0.06-0.62,0.6-0.52c-0.2-0.29-0.38,0.12-0.6-0.26c-0.41,0.93-0.28,1.8-0.17,2.84
	c-0.3,0-0.28,0.35-0.09,0.43c-0.03,0.12-0.22,0.07-0.35,0.09c-0.12,0.02-0.03,0.26-0.17,0.26c0.03,0.2,0.41,0.05,0.34,0.35
	c-0.26,0-0.34-0.18-0.52-0.26c-0.14,0.18-0.48,0.15-0.6,0.34c-0.47-0.21-0.44-0.93-1.04-1.21c0.17-0.25,0.03-0.28,0.26-0.43
	c-0.43-0.36-0.31-0.78-0.6-1.21c0.15,0,0.22-0.06,0.26-0.17c-0.01-0.16-0.29-0.05-0.34-0.17c0.23-0.35,0.22-0.13,0.26-0.78
	c-0.15-0.03-0.16,0.07-0.17,0.17c-0.16-0.22,0.24-0.62,0.6-0.6c-0.35-0.39-0.21-0.75-0.6-1.12c0.1-0.17,0.55-0.48,0.17-0.6
	c0.26-0.09,0.22-0.47,0.52-0.52c-0.25-0.04-0.66-0.19-0.52-0.52c0.1,0.02,0.05,0.09,0,0.09c0.34,0.3,0.79-0.94-0.09-0.69
	c0.04-0.28,0.29-0.34,0.43-0.52c-0.3-0.13-0.09-0.77-0.43-0.86c0.77-0.71,0.75-1.98,0.78-3.54c0.15,0.25,0.39-0.34,0.26-0.35
	c-0.02-0.07,0.03-0.08,0.09-0.09c0.07,0.02,0.08-0.03,0.09-0.09c0.17,0.44,0.25-0.27,0.43,0c0.12-0.03,0.07-0.22,0.09-0.34
	c1.01-0.25,0.75-1.23,0.52-1.9c0.06-0.15,0.16-0.01,0.26,0c0.07-0.68-0.13-0.97-0.09-1.64c0.2,0.03,0.36,0.17,0.52,0
	c0.01-0.19-0.31-0.04-0.43-0.09c0.12-0.91,0.01-1.01,0.35-1.64c0.63,0.07,0.21-0.12,0.34-0.34c0.13-0.05,0.45,0.1,0.43-0.09
	c0.27,0.14,0.16,0.64,0.52,0.69c0.49-0.21,0.62-0.31,1.03-0.69C57.85,0.55,57.57,0.65,57.51,0.53z M56.48,2.08
	c0.17,0.05,0.06,0.4,0.26,0.43c0.04-0.15,0.11,0.02,0.26,0c-0.03-0.22-0.28-0.24-0.17-0.6C56.66,1.92,56.54,1.97,56.48,2.08z
	 M55.27,2.51c0.07,0.02,0.1,0.07,0.09,0.17c0.17-0.09,0.35-0.17,0.52-0.26C55.79,2.34,55.41,2.4,55.27,2.51z M56.39,2.95
	C56.73,2.98,56.73,3,57,3.21c-0.07-0.24,0.12-0.22,0.09-0.43c-0.18-0.05-0.25-0.21-0.52-0.17C56.63,2.84,56.39,2.78,56.39,2.95z
	 M56.65,5.28c0.03-0.2,0.38-0.08,0.43-0.26C56.7,5.03,57.09,4.81,57,4.58C56.61,4.61,56.18,5.13,56.65,5.28z M58.29,4.93
	c0.21,0.05,0.14,0.37,0.52,0.26c0-0.09,0-0.17,0-0.26c-0.15-0.03-0.22,0.13-0.26,0c0-0.09,0.07-0.1,0.09-0.17
	C58.47,4.77,58.35,4.81,58.29,4.93z M56.57,6.91c0.3,0.01,0.55-0.02,0.69-0.17c-0.25-0.07,0.11-0.22,0-0.43
	c-0.3-0.01-0.14,0.44-0.43,0.43c-0.2-0.45,0.15-0.35,0.26-0.69c-0.11,0-0.23,0-0.34,0C56.45,6.35,56.7,6.55,56.57,6.91z M53.98,8.29
	c0.14-0.13,0.04-0.4-0.09-0.52C53.69,7.94,53.73,8.17,53.98,8.29z M60.79,8.98c0,0.26,0.3,0.22,0.52,0.26
	c-0.04-0.19-0.15-0.31-0.34-0.34C60.94,8.96,60.89,9,60.79,8.98z M56.13,13.81c0.21,0.04,0.31,0.21,0.43,0.34
	c0.18-0.31-0.28-0.61-0.43-0.86C56.13,13.47,56.13,13.64,56.13,13.81z M56.82,16.14c0.44-0.06,0.63,0.18,0.86-0.09
	C57.3,16.11,57.01,15.82,56.82,16.14z"/>
<path fill-rule="evenodd" d="M74.67,20.45c0.04-0.13,0.11,0.03,0.26,0c0.09-0.44,0.15-0.65,0.09-1.12c0.31,0.08,0.04-0.42,0.43-0.26
	c-0.21-0.3-0.21-0.29-0.26-0.69c0.6-0.12-0.07-0.49,0.09-0.95c0.41-0.24,0.62-0.43,0.52-0.86c0.08,0.07,0.2,0.09,0.34,0.09
	c-0.02-0.15-0.15-0.2-0.34-0.17c0.22-0.27,0.3-0.68,0.43-1.04c-0.37-0.11-0.11,0.41-0.43,0.34c0.06-0.7,0.24-1.7,1.04-1.38
	c0.17-0.01-0.18-0.37,0.26-0.26c-0.04-0.22-0.23-0.29-0.26-0.52c-0.12,0.21-0.32-0.09-0.34,0.09c-0.15-0.06-0.01-0.16,0-0.26
	c-0.41,0.08-0.33-0.31-0.86-0.26c0-0.17,0.24-0.11,0.17-0.35c0.54,0.05,0.54-0.38,0.69-0.86c0.2,0.03,0.36,0.1,0.52,0.17
	c-0.27,0.29-0.02,0.45,0,0.86c0.32,0.06,0.46-0.06,0.6-0.17c-0.01-0.13-0.51,0.17-0.43-0.26c0.05,0.16,0.46-0.04,0.26-0.09
	c-0.01-0.03,0.72,0.26,0.52,0.43c0.27-0.17,0.36-0.03,0.43-0.43c0.13,0.07,0.19,0.22,0.17,0.43c0.44,0.04,0.23-0.18,0.35-0.34
	c0.1,0.13,0.25,0.21,0.26,0.43c0.42-0.34,0.66,0.47,0.86,0c0.14,0.38,0.43,0.09,0.6,0.09c0.16,0.01,0.05,0.29,0.17,0.34
	c0.23,0,0.51,0.05,0.52-0.17c0.35,0.64,1.15-0.08,1.55,0.6c0.11-0.04,0.18-0.11,0.17-0.26c0.25,0.04,0.27,0.31,0.6,0.26
	c0,0.14,0,0.29,0,0.43c0.29,0.13,0.33-0.41,0.52-0.09c0.15-0.03-0.11-0.3,0.26-0.26c0,0.09,0,0.17,0,0.26
	c0.15,0,0.22-0.06,0.26-0.17c0.12,0.29,0.66,0.3,1.03,0.17c0.22,0.2,0.81,0.62,0.86,0.26c0.32,0.09,0.51,0.3,0.69,0.52
	c0.31-0.06,0.4-0.41,0.78-0.17c-0.05,0.07-0.09,0.14-0.09,0.26c0.09-0.06,0.09-0.2,0.26-0.17c-0.09,0.41,0.43,0.21,0.34,0.6
	c0.15,0.03,0.15-0.48-0.09-0.35c0.3-0.43,0.39,0.23,0.6-0.17c0.21,0.01,0.03,0.29,0,0.34c0.27-0.28,0.54-0.28,0.95,0.09
	c0.15-0.44,1.1,0.24,1.64,0.43c0.17,0,0.11-0.24,0.35-0.17c-0.13,0.21,0.29,0.25,0.26,0.08c0.25,0.31,0.33,0.14,0.35,0.52
	c0.29-0.08,0.01-0.19,0.17-0.35c0.3,0.17,0.17,0.11,0.52,0c0.05,0.26,0.39,0.24,0.52,0.43c0.16-0.04,0.22-0.18,0.43-0.17
	c0.05,0.3,0.25,0.44,0.43,0.6c0.21,0.03-0.05-0.39,0.26-0.26c0,0.2,0.15,0.25,0.09,0.52c0.36,0.02,0.36-0.33,0.69-0.34
	c0.12,0.12,0.51,0.41,0.69,0.17c0.3,0.15-0.22,0.17-0.17,0.34c0.06,0.08,0.16,0.13,0.26,0.17c0.28-0.29,0.47-0.25,0.86-0.35
	c0.07,0.08,0.09,0.2,0.09,0.35c0.28,0.02,0.41-0.2,0.43,0.17c0.15-0.27,0.34,0.03,0.52-0.17c0.29,0.08-0.1,0.17-0.09,0.26
	c0.01,0.21,0.28,0.02,0.26-0.09c0.21,0.06-0.16,0.23-0.09,0.43c0.34-0.12,0.57-0.21,0.69-0.35c0.16,0.04,0.22,0.19,0.43,0.17
	c-0.14,0.46-0.72,0.48-0.78,1.03c0.73,0.06,0.5-0.9,0.95-0.69c0.05-0.27-0.16-0.27,0-0.43c0.46,0.27,0.18,0.88-0.35,0.86
	c0.06,0.17,0.23,0.23,0.43,0.26c0.25-0.12,0.07-0.19,0.17-0.52c0.36,0.1,0.34-0.18,0.6-0.17c0.08,0.2,0.37,0.51,0.34,0.09
	c0.2,0.02,0.05,0.38,0,0.43c-0.14,0-0.29,0-0.43,0c0.04,0.27,0.15,0.48,0.26,0.69c0.25-0.08,0.1-0.13,0.09-0.35
	c0.07,0.13,0.27,0.13,0.26,0.35c0.29-0.27,0.26-0.07,0.17,0.17c0.15-0.08,0.33-0.29,0.17,0c0.26-0.22,0.17-0.25,0.6-0.26
	c0.03,0.53,0.99,0.47,1.29,1.12c0.18-0.2-0.04-0.31,0.09-0.6c0.14-0.01,0.33,0.04,0.35-0.09c0.09,0.21-0.12,0.86-0.35,1.04
	c0.08,0.25,0.13,0.1,0.35,0.09c-0.04-0.33,0.04-0.54,0.26-0.6c0.34,0.23,0.3,0.01,0.69,0c-0.02,0.15,0.08,0.18,0.09,0.09
	c0.17,0.12-0.17,0.46-0.35,0.52c-0.06,0.23,0.18,0.17,0.26,0.26c0.01,0.21-0.14,0.27-0.17,0.43c-0.24-0.22-0.39-0.53-0.6-0.78
	c-0.25,0.07-0.1,0.13-0.09,0.34c-0.46-0.11-0.44,0.25-0.86,0.17c-0.04,0.11-0.1,0.25-0.26,0.43c0.11,0.23,0.58-0.13,0.78,0
	c-0.19,0.28,0.08,0.57-0.09,0.77c0.26-0.11,0.77,0.02,0.86-0.26c0.18,0.03-0.12,0.27-0.17,0.34c0.07,0.16,0.26,0.06,0.09,0.26
	c0.07-0.04,0.14-0.09,0.26-0.09c-0.01-0.25-0.35-0.39,0.09-0.43c0.02,0.07-0.03,0.08-0.09,0.08c0.02,0.1,0.09,0.05,0.09,0
	c0.35,0.11-0.26,0.41,0,0.43c-0.03,0.15-0.3-0.11-0.26,0.26c-0.17-0.12-0.37-0.2-0.43-0.43c-0.09,0.02-0.06,0.17-0.17,0.17
	c-0.04,0.21,0.39-0.05,0.26,0.26c-0.29,0.08-0.59-0.26-0.78,0c-0.1-0.01-0.07-0.16-0.09-0.26c-0.15,0.08-0.43,0.03-0.52,0.17
	c-0.25-0.07,0.2-0.13,0.09-0.34c-0.02-0.07-0.09-0.09-0.09-0.17c-0.21,0.05-0.4,0.12-0.43,0.35c-0.44-0.17-1.21-0.19-1.38-0.17
	c-0.08-0.23-0.24-0.39-0.26-0.69c-0.12,0.39-0.68-0.01-0.95,0.35c-0.23,0.06-0.17-0.18-0.26-0.26c-0.17,0.12-0.49,0.08-0.69,0.17
	c-0.14-0.17,0.01-0.11,0-0.35c-0.28-0.07-0.27,0.13-0.34,0.26c-0.11-0.12-0.42-0.04-0.43-0.26c-0.5,0.25-0.09,0.55,0.17,0.86
	c0.51-0.38,0.57,0.01,0.78,0.09c-0.03,0.41-0.35,0.34-0.52,0.43c0.09-0.28-0.74-0.02-0.95,0.17c0.01,0.14-0.04,0.33,0.09,0.34
	c-0.34-0.09-0.02,0.32-0.52,0.35c-0.06-0.21,0.11-1,0.52-0.86c0.04-0.27-0.22-0.24-0.35-0.34c-0.52,0.13-0.29,1.04-0.78,0.78
	c0,0.06,0,0.12,0,0.17c0.17,0.13,0.64-0.03,0.43,0.34c-0.47-0.16-0.2-0.08-0.6-0.08c-0.74-0.86-1.25,0.63-2.24,0.17
	c-0.1-0.36-0.38-0.54-0.86-0.52c-0.08,0.06-0.13,0.16-0.17,0.26c-0.2-0.03-0.37-0.18-0.43,0.09c-0.12-0.03-0.01-0.15,0.09-0.17
	c-0.08-0.09-0.61,0.01-0.69,0.17c-0.14-0.06-0.46-0.53-0.43,0c-0.25-0.12-0.07-0.19-0.17-0.52c-0.5,0.36-0.73,0.17-1.29,0
	c0.02-0.25-0.02-0.44-0.17-0.52c-0.24,0.29-0.42,0.11-0.6,0.43c-0.21-0.03-0.76-0.51-0.34-0.6c-0.44,0.15-1.29,0.44-2.24,0.08
	c0.24-0.26-0.4-0.17-0.26-0.6c-0.68,0.53-1.28-0.26-1.81,0.26c-0.16-0.19-0.34-0.35-0.43-0.6c-0.11,0.12-0.41,0.12-0.52,0
	c-0.25,0.08-0.1,0.13-0.09,0.34c-0.17-0.13-0.69-0.34-0.78-0.26c-0.12-0.03-0.01-0.15,0.08-0.17c-0.01-0.27-0.37,0.39-0.34-0.09
	c-0.55,0.48-1.23-0.15-1.64,0.43c0.35,0.58,0.08,1.1,0.35,1.55c-0.37-0.08,0.33,0.46-0.26,0.43c0.07,0.2,0.02,0.33,0.26,0.52
	c-0.08,0.12-0.23,0.17-0.35,0.26c0.07,0.19,0.17,0.34,0.43,0.34c-0.06,0.27-0.06,0.17,0,0.43c-0.16,0.04-0.16,0.25-0.43,0.17
	c0.22,0.04,0.24,0.27,0.35,0.43c-0.12,0.17-0.38,0.19-0.6,0.26c0.01,0.19,0.22,0.19,0.43,0.17c0.09,0.29-0.27,0.49,0.17,0.43
	c-0.01,0.12-0.02,0.24,0.09,0.26c-0.1,0.1-0.25,0.16-0.17,0.43c-0.14,0.02-0.15-0.08-0.26-0.09c0.06,0.39,0.41,0.09,0.09,0.52
	c0.72,0.57-0.28,1.98,1.12,2.07c-0.03,1.01,0.61-0.1,0.78,0.6c1.13-0.07,1.75,0.33,2.59,0.26c0.08,0.18,0.13,0.38,0.26,0.52
	c0.62-0.3,2.11-0.05,2.67,0.43c0.81-0.18,1.15,0.11,1.98,0.17c0.07,0.1,0.11,0.23,0.09,0.43c0.23,0.06,0.17-0.17,0.34-0.17
	c0.11-0.02-0.24,0.46-0.34,0.26c0.2,0.17,0.53,0.21,0.95,0.34c0.19-0.04,0-0.46,0.17-0.52c0.38,0.32,0.83,0.18,1.21,0.26
	c-0.02,0.15,0.09,0.43-0.17,0.34c0.03,0.51,0.74,0.17,0.69-0.17c0.33,0.12,0.42,0.36,0.86,0.17c0.39,0.41,0.87,0.54,1.55,0.52
	c-0.22,0.1-0.39,0.24-0.6,0.35c0.28,0.11,0.45-0.16,0.86-0.26c0.05,0.11,0.01,0.4,0.26,0.09c-0.06,0.15,0.33,0.23,0.17,0.43
	c0.59-0.06,0.97,0.17,1.46,0.43c-0.11,0.52,0.32,0.48,0.61,0.6c-0.23,0.03-0.99,0.16-1.29-0.08c-0.1,0.01-0.07,0.16-0.09,0.26
	c-0.3-0.03-0.21-0.24-0.52-0.08c-0.04-0.07-0.09-0.14-0.09-0.26c-0.33,0.05-0.4,0.12-0.6-0.09c-0.16,0.1-0.29,0.23-0.43,0.35
	c-0.2-0.5-0.77-0.19-1.12-0.43c-0.12,0.08-0.17,0.23-0.26,0.34c-0.13-0.07-0.27-0.13-0.26-0.34c-0.21-0.01-0.42-0.02-0.43,0.17
	c0.23,0.3,0.42,0.43,0.78,0.43c0.11-0.02,0.09-0.17,0-0.17c0.21-0.21,0.44,0.3,0.78,0.26c-0.24,0.24,0.08,0.36,0.09,0.6
	c0.2,0.02,0.32-0.02,0.34-0.17c-0.32-0.16-0.25-0.5-0.17-0.78c0.21-0.08,0.19,0.64,0.26,0.17c0.17,0.15,0.33,0.31,0.52,0.43
	c0.2,0.03,0.1-0.25,0.26-0.26c0.23-0.06,0.17,0.17,0.34,0.17c-0.28,0.27-0.29,0.22-0.86,0.17c-0.01,0.21,0.66,0.23,0.09,0.26
	c0.16,0.28,0.44,0.06,0.78,0.26c0.1-0.03,0.33-0.41,0-0.34c0.22-0.06,0.29-0.28,0.52-0.34c-0.14,0.15-0.44,0.59-0.26,0.78
	c-0.77-0.09-1.59,0.23-2.07-0.35c-0.25,0.08-0.1,0.13-0.09,0.35c-0.14,0-0.29,0-0.43,0c-0.1-0.46-0.66-0.31-0.95-0.17
	c-0.04-0.32-0.13-0.33,0.09-0.52c-0.12,0.03-0.75,0.29-0.95,0.52c-0.18-0.03-0.17-0.23-0.34-0.26c-0.13,0.21-0.17,0.52-0.17,0.86
	c0.76-0.25,1.57-0.12,1.98,0.43c0.15-0.02,0.2-0.15,0.17-0.34c0.12,0.13,0.22,0.3,0.43,0.34c0.07-0.19,0.33-0.19,0.35-0.43
	c0.21,0.21,0.25,0.25,0.17,0.6c0.34,0.14,0.18-0.22,0.34-0.26c0.26-0.09,0.15,0.19,0.17,0.35c0.22,0.01,0.27-0.13,0.34-0.26
	c0.22,0.25,0.29,0.06,0.6,0c-0.09,0.12-0.14,0.26-0.26,0.34c0.08,0.18,0.18,0.34,0.26,0.52c0.32-0.07,0.01-0.3,0.17-0.43
	c0.1,0.29,0.71,0.17,1.21,0.43c0.19-0.01,0.19-0.22,0.17-0.43c0.18,0.05,0.28,0.18,0.43,0.26c-0.08,0.1-0.19-0.01-0.35,0.17
	c-0.02,0.17,0.86,0.05,0.35,0.17c0.13,0.38,0.36-0.15,0.52-0.26c0.25,0.05-0.13,0.13-0.09,0.26c0.33,0.02,0.68,0.25,1.04,0
	c-0.08,0.22,0.34,0.24,0.34,0.6c-0.15,0.26-0.27-0.24-0.34,0c-0.1-0.01-0.07-0.16-0.09-0.26c-0.6-0.21-1.49,0.45-1.98-0.09
	c-0.19,0.05,0.11,0.13-0.08,0.26c0.28,0.1,0.96,0.45,1.55,0.35c0.39,0.26,1.02,0.63,1.64,0.78c0.17,0.04,0.25-0.12,0.34-0.09
	c0.23,0.07,0.47,0.32,0.78,0.43c0.37,0.13,1.04-0.09,0.78,0.43c0.17,0.03,0.27-0.02,0.26-0.17c0.21,0.08-0.12,0.33,0,0.6
	c-0.01-0.41,0.5-0.23,0.34-0.43c0.05-0.18,0.33,0.12,0.26,0.35c0.27-0.04,0.3,0.15,0.6,0.09c-0.01-0.19-0.22-0.19-0.43-0.17
	c0.03-0.39,0.41,0.1,0.52-0.17c0.36,0.27,0.46,0.77,0.95,0.69c-0.19,0.51,0.77,0.62,0.86,0.26c0.25,0.12-0.21,0.55,0.17,0.6
	c-0.05,0.18-0.18,0.28-0.26,0.43c-0.15-0.17-0.6-0.03-0.6-0.34c-0.11,0.04-0.18,0.11-0.17,0.26c-0.1-0.13-0.22-0.24-0.35-0.34
	c-0.08,0.07-0.06,0.21-0.08,0.52c-0.14-0.12-0.3-0.22-0.35-0.43c-0.12,0.31-0.81,0.05-0.78,0.52c-0.24-0.03-0.62,0-0.69,0.17
	c-0.27-0.1-0.43,0.1-0.52-0.26c-0.09,0.33-0.27,0.04-0.26,0.43c-0.2-0.02-0.32,0.02-0.34,0.17c-0.25-0.19-0.45-0.16-0.43-0.43
	c-0.21,0.04-0.51,0.17-0.78,0c-0.17,0.18-0.31,0.38-0.6,0.43c-0.12-0.05-0.01-0.33-0.17-0.35c-0.19,0.01,0.11,0.22,0,0.43
	c-0.19-0.01-0.18-0.22-0.17-0.43c-0.16,0.35-0.45,0.11-0.78,0.35c0.1-0.11,0.03-0.14,0-0.26c-0.19,0.06-1.23,0.14-1.55-0.17
	c-0.11,0.04-0.18,0.11-0.17,0.26c-0.54-0.41-1.62,0.06-2.16-0.52c-0.43,0.42-0.83-0.2-1.29,0c-0.15-0.22,0.09-0.41-0.26-0.52
	c-0.12,0.06,0.04,0.23-0.09,0.43c-0.14-0.14-0.51-0.07-0.78-0.09c-0.11-0.11-0.11-0.32,0-0.43c-0.88,0.49-1.93-0.27-3.02-0.26
	c0.29-0.29-0.02-0.4-0.34-0.52c0.08,0.34-0.46,0.01-0.52,0.09c-0.25-0.2,0.09-0.49-0.09-0.69c-0.07-0.08-0.21-0.06-0.52-0.09
	c-0.01,0.15,0.11,0.18,0.09,0.35c-0.37,0-0.55,0.25-1.04,0.34c0-0.12,0-0.23,0-0.34c-0.18-0.04-0.16,0.12-0.17,0.26
	c-0.21-0.24-0.59-0.29-0.26-0.6c-0.05-0.07-0.09-0.14-0.09-0.26c-0.28,0.18-0.56,0.36-0.86,0.52c-0.02-0.07,0.03-0.08,0.09-0.09
	c-0.07-0.25-0.28,0.05-0.43,0c0.14-0.17-0.01-0.11,0-0.34c-0.33,0.21-0.59,0.19-1.04,0.08c0.04-0.08,0.08-0.15,0.17-0.17
	c-0.24-0.36-0.78-0.05-0.86,0.26C83.44,41,82.78,41,82.26,40.71c-0.13,0.04,0.03,0.11,0,0.26c-0.33-0.52-0.86,0.13-1.29-0.09
	c-0.11,0.03-0.14,0.15-0.26,0.17c0.2,0.38,0.16,0.6,0.26,0.95c-0.02,0.15-0.15,0.2-0.34,0.17c0.02,0.15,0.15,0.2,0.34,0.17
	c-0.18,0.8,0.02,0.92,0,1.38c-0.01,0.1-0.16,0.07-0.26,0.09c0.19,0.18-0.01,0.28-0.09,0.43c0.06,0.26,0.18-0.08,0.34,0
	c-0.16,0.41-0.01,0.66-0.34,0.95c0.39,0.1,0.22,0.37,0.34,0.6c-0.21,0-0.3,0.32-0.34,0.52c0.01,0.1,0.16,0.07,0.26,0.09
	c-0.06,0.26,0.09,0.31,0.09,0.52c-0.14-0.02-0.15,0.08-0.26,0.09c0.1,0.13,0.28,0.18,0.26,0.43c-0.23-0.03-0.28,0.12-0.26,0.34
	c-0.1-0.1-0.3-0.1-0.52-0.09c0,0.06,0,0.12,0,0.17c0.91,0.13,0.71,1.52,0.43,2.42c0.23,0.22,0.35,0.59,0.09,0.86
	c0.3,0.24,0.31,0.78,0.69,0.95c0.28,0.08,0.18-0.22,0.35-0.26c-0.06-0.09-0.2-0.09-0.17-0.26c0.5-0.05,1.08-0.06,1.38-0.09
	c-0.05,0.38,0.74,0.11,0.95,0.6c0.12-0.13,0.22-0.3,0.43-0.35c0.22,0.01,0.33,0.12,0.35,0.35c0.62-0.09,0.77-0.37,1.21,0
	c-0.15,0.3-0.17-0.22-0.34-0.17c0.12,0.71,0.85,0.47,1.12,0.17c0.15,0.04,0.39,0.41,0.52,0.17c0.09,0.07-0.03,0.3,0.17,0.43
	c0.1,0.03,0.3-0.25,0.09-0.26c0.14-0.19,0.43,0.2,0.52,0.34c0.12-0.03,0.07-0.22,0.09-0.34c0.37,0.3,0.57-0.04,1.03-0.09
	c-0.04,0.18,0.06,0.23,0.09,0.35c0.66,0.05,0.8,0.06,1.29-0.09c-0.01,0.16,0.11,0.18,0.09,0.34c0.12-0.24,0.29-0.17,0.34,0.09
	c0.06-0.14,0.42,0.02,0.34-0.26c0.28,0.31,0.67,0.02,0.78,0.43c0.01-0.09,0.38-0.23,0.17-0.26c0.02-0.25,0.32,0.35,0.43,0
	c0.15,0.06,0.01,0.16,0,0.26c0.07-0.05,0.14-0.09,0.26-0.09c0.05-0.19-0.24-0.27,0.09-0.26c0.34,0.83,1.17,0.48,1.64,0.52
	c0.1,0.24,0.4,0.29,0.69,0.34c-0.21-0.42,1.43-0.06,1.21,0.09c0.71-0.35,1.27,0.15,1.64,0c0.2,0.02,0.2,0.23,0.09,0.34
	c0.43-0.55,0.99,0.02,1.47-0.08c0.26,0.06-0.08,0.18,0,0.34c0.06,0.08,0.16,0.13,0.26,0.17c0.19,0.01,0.04-0.31,0.09-0.43
	c0.59,0.02,1.05,0.35,1.47,0.09c0.65,0.67,1.56,0.19,2.59,0.78c0.03,0.15-0.07,0.16-0.17,0.17c0.05,0.07,0.09,0.14,0.09,0.26
	c0.24,0.01,0.17-0.14,0.35,0c0.01-0.15-0.11-0.18-0.09-0.34c0.44-0.11,0.09,0.25,0.26,0.26c-0.02,0.15-0.15,0.2-0.34,0.17
	c-0.02,0.14,0.08,0.15,0.09,0.26c0.14-0.39,0.58-0.01,0.6-0.43c0.07,0.07,0.24,0.05,0.26,0.17c0.18,0.03-0.02-0.25-0.09-0.26
	c0.09-0.19,0.4,0.11,0.69,0c-0.1,0.27-0.04,0.23,0.09,0.43c0.26-0.16,0-0.31,0.26-0.43c0.08,0.15,0.27,0.19,0.43,0.26
	c0.03,0.2-0.25,0.1-0.26,0.26c0.1,0.18,0.63,0.06,0.6-0.17c0.22,0.11,0.27,0.18,0.17,0.43c0.16-0.04,0.22-0.18,0.43-0.17
	c0.03,0.14-0.08,0.15-0.09,0.26c0.63-0.15,1.03,0.58,1.72,0.26c0.59,0.86,1.78,0,2.16,1.03c0,0.08-0.11,0.07-0.17,0.09
	c0.49,0.46,0.97,0.5,1.55,0.95c-0.28,0.45-0.42,0.11-0.86,0.43c-0.09-0.26-0.2-0.49-0.52-0.52c-0.25,0.12-0.29,0.23-0.52,0
	c-0.2-0.03-0.09,0.25-0.26,0.26c0.13,0.19,0.21-0.06,0.43,0.09c0.01,0.21-0.13,0.27-0.17,0.43c-0.3,0.05-0.82-0.13-0.86,0.17
	c-0.2-0.05,0.1-0.13-0.09-0.26c-0.5,0.13-0.8,0.64-1.29,0.52c-0.14-0.12-0.22-0.3-0.26-0.52c-0.23-0.02-0.37,0.03-0.34,0.26
	c-0.32-0.07-0.07-0.36,0-0.52c0.37,0.06,0.48,0.38,0.78,0.52c0.19-0.77-1.43-1.13-1.98-0.69c0.15,0.21,0.51,0.32,0.86,0.09
	c0.18,0.21,0.03,0.83-0.34,0.78c0.12,0.05,0.01,0.33,0.17,0.34c0.12-0.18-0.03-0.24,0.26-0.34c0.26,0.32,0.77,0.38,0.95,0.78
	c0.13-0.05,0.01-0.09-0.09-0.09c0.2-0.62,0.89,0.24,1.21,0c0.24,0.08-0.12,0.27,0,0.52c-0.16,0.01-0.18-0.11-0.35-0.09
	c0.13,0.44,0.46-0.12,0.6,0.09c-0.01-0.21-0.16-0.27,0-0.43c0.14,0.08,0.2,0.23,0.09,0.34c0.58-0.28,0.78-0.16,1.03,0
	c-0.1,0.85-1.76,0.54-2.24-0.09c-0.27,0.06-0.11,0.23-0.09,0.43c-0.23-0.04-0.48-0.28-0.26-0.52c-0.26,0.01-0.27,0.2-0.6,0.09
	c-0.01,0.1,0.02,0.15,0.09,0.17c-0.57-0.07-1.43-0.29-2.33-0.43c-0.1-0.11-0.03-0.14,0-0.26c-0.28,0.18-0.5,0.05-0.78-0.17
	c-2.55,0.21-4.22-0.74-6.55-0.52c-0.64-0.47-2.63-0.25-3.62-0.43c-0.09-0.11-0.08-0.32-0.17-0.43c-0.47,0.13-0.76,0.45-1.38,0.43
	c-0.05-0.07-0.09-0.14-0.09-0.26c-0.91,0.1-2.04,0.25-2.67-0.09c-0.15,0.07-0.33,0.29-0.17,0c-0.54-0.1-0.47,0.13-1.03,0
	c0.1-0.27-0.13-0.21-0.17-0.34c-0.77,0.58-1.3,0.1-2.16,0.17c-0.04-0.13-0.13-0.22-0.17-0.34c-0.12,0.03-0.07,0.22-0.09,0.34
	c-0.23,0.03-0.49-0.6-0.52,0c-0.79-0.26-1.55-0.34-2.59-0.17c-0.48-0.53-1.53,0.07-2.16-0.6c0.06,0.4-0.79-0.11-1.12,0.43
	c0.19,0.18-0.01,0.28-0.09,0.43c0.35,0.26,0.07,1.09-0.34,1.12c0.01,0.19,0.37,0.04,0.52,0.09c0.01,0.33-0.35,0.28-0.52,0.43
	c0.32,0.38-0.32,0.24,0.09,0.43c-0.02,0.12-0.26,0.03-0.26,0.17c-0.08-0.14-0.45-0.46-0.52-0.86c0.1-0.1,0.25-0.16,0.17-0.43
	c0.16-0.01,0.18,0.1,0.34,0.09c-0.09-0.44-1.01,0.16-0.86-0.35c-0.2,0.28-0.13,0.17-0.52,0.26c0.25,0.01,0.35,0.23,0.69,0.34
	c-0.17,0.31,0.2,0.37,0.09,0.86c-0.31,0.02-0.42-0.2-0.69-0.09c-0.24,0.22-0.09,0.29,0,0.52c-0.1-0.01-0.15,0.02-0.17,0.09
	c0.02-0.15-0.16-0.34-0.6-0.26c-0.13-0.32,0.12-0.62-0.09-0.95c-0.19,0.41-0.8,0.41-0.78,1.03c-0.46-0.05,0.07-0.67-0.26-0.78
	c-0.02-0.07,0.03-0.08,0.09-0.08c0.07,0.02,0.08-0.03,0.09-0.09c0.1,0.01,0.07,0.16,0.09,0.26c0.29-0.33-0.22-0.32-0.35-0.34
	c0-0.14,0-0.29,0-0.43c0.22,0.21,0.2-0.31,0.43-0.35c-0.28-0.16-0.19-0.25-0.43-0.52c-0.28,0.13,0.18,0.21,0.09,0.43
	c-0.1-0.01-0.15,0.02-0.17,0.09c-0.29-0.16-0.07-0.31-0.17-0.69c0.17,0.18,0.23-0.06,0.26-0.26c-0.27-0.04-0.14-0.49-0.52-0.43
	c-0.01-0.45-0.02-0.88-0.26-0.86c-0.17-0.12,0.26-0.36,0.43-0.43c-0.41-0.12-0.38-0.64,0-0.78c-0.17,0.03-0.34-0.16-0.52-0.34
	c0.08-0.29,0.19-0.01,0.34-0.17c-0.09-0.31-0.05-0.75-0.43-0.78c0.34-1.06-0.25-1.85,0.09-2.85c-0.05-0.2-0.13,0.1-0.26-0.09
	c0.11-0.25,0.11-0.61,0-0.86c0.09,0,0.17,0,0.26,0c-0.11-0.21-0.47-0.5,0-0.6c-0.08-0.24-0.23,0.12-0.35-0.09c0-0.11,0-0.23,0-0.34
	c0.15,0.16,0.25-0.04,0.43-0.09c-0.05-0.08-0.1-0.15,0-0.17c-0.18-0.11-0.36-0.21-0.52-0.35c0.26-0.27,0.44-0.65,0.35-1.03
	c-0.1-0.01-0.15,0.02-0.17,0.08c-0.1-0.01,0.04-0.8,0.26-0.52c-0.07-0.31-0.41,0.08-0.35-0.43c0.08,0.07,0.2,0.09,0.35,0.09
	c-0.04-0.16-0.19-0.22-0.17-0.43c-0.17,0.14-0.11-0.01-0.35,0c-0.02-0.15,0.15-0.22,0-0.26c0.04-0.13,0.11,0.03,0.26,0
	c-0.01-0.37-0.35-0.63,0.09-0.78c-0.02-0.15-0.15-0.2-0.35-0.17c-0.04-0.18,0.12-0.17,0.26-0.17c-0.39-0.32-0.26-0.77-0.43-0.95
	c0.11-0.3,0.1-0.71,0.43-0.78c-0.12-0.27,0.04-0.6,0.17-0.86c-0.15,0.11-0.34,0.18-0.35,0.43c-0.28,0.08-0.18-0.22-0.34-0.26
	c0.37-0.17,0.22-0.33,0.09-0.6c0.16,0.04,0.16,0.25,0.43,0.17c-0.25-0.37-0.35-0.91,0-1.21c-0.3,0.04,0.13-0.26-0.34-0.26
	c-0.02-0.15,0.15-0.22,0-0.26c0.04-0.13,0.08,0.01,0.17,0c0.06-0.29-0.14-0.32-0.34-0.34c0.23-0.22-0.11-0.26-0.09-0.52
	c0.31-0.15,0.2-0.72,0.43-0.95c0.01-0.15-0.11-0.18-0.09-0.34c-0.2,0.03-0.2,0.23,0,0.26c-0.03,0.05-0.46,0.2-0.43-0.17
	c0.2,0.02,0.32-0.02,0.35-0.17c-0.16-0.25-0.02-0.39-0.26-0.43c0.4,0.02,0.14-0.21,0.52-0.26c0.02-0.37-0.16-0.53-0.43-0.6
	c0.02-0.2,0.38-0.05,0.43,0c-0.28-0.27,0.26-0.03,0.17-0.34c-0.27-0.13-0.64-0.16-0.86-0.35c0.28-0.22,0.05-0.7-0.09-0.78
	c-0.02-0.19,0.07-0.27,0.26-0.26c-0.25-0.58-0.75-1.27-0.52-2.33c0.47-0.02,0.44-0.5,0.52-0.69c-0.06-0.12-0.23,0.04-0.43-0.09
	c0.1-1.08,0.25-1.9,0-2.59c0.11-0.27,0.18-0.04,0.43-0.17c-0.06-0.16-0.26-0.06-0.09-0.26c-0.53-0.29-0.19-0.8-0.09-1.21
	c-0.38,0.39,0.05-0.46,0.17-0.6c-0.06-0.26-0.18,0.08-0.34,0c0.14-1.73-0.18-2.37,0.26-3.97c-0.06-0.08-0.16-0.13-0.26-0.17
	c0.12-1.06,0.23-1.59,0.26-2.84c0.12,0,0.23,0,0.35,0C74.81,20.55,74.77,20.47,74.67,20.45z M96.23,23.38
	c-0.07-0.13-0.46-0.15-0.52-0.26c-0.44,0.04-0.18,0.69-0.26,0.78c0.1-0.19,0.34-0.23,0.43-0.43c0.01,0.11,0.11,0.12,0.09,0.26
	c-0.05,0-0.1,0.07,0,0.09c0.06-0.28,0.29-0.16,0.35-0.26c-0.05-0.01-0.1-0.01-0.09-0.09C96.28,23.47,96.33,23.4,96.23,23.38z
	 M92.52,34.94c0.09,0.06,0.01,0.26,0.17,0.43c0.35,0.04,0.42-0.35,0.6,0C93.45,34.98,92.9,34.95,92.52,34.94z M103.04,42.78
	c-0.01,0.16-0.29,0.06-0.26,0.26c0.3-0.16,0.28,0.07,0.52,0.17c0.03-0.49,0.41,0.44,0.52-0.09
	C103.34,43.04,103.3,43.03,103.04,42.78z M78.38,16.14c-0.34,0.08-0.06-0.46-0.26-0.52c-0.13,0.01-0.32-0.03-0.34,0.09
	c-0.02,0.36,0.01,0.65-0.26,1.29c0.26,0.06,0.25-0.15,0.52-0.08C78.06,16.24,78.3,16.71,78.38,16.14z M77.69,19.33
	c-0.22,0.01-0.3,0.16-0.43,0.26c0.12,0.03,0.17,0.12,0.35,0.09c0.13-0.33,0.17-0.78,0.09-1.29C77.45,18.54,77.45,19.17,77.69,19.33z
	 M100.54,20.19c0.36-0.1,0.06-0.5-0.09-0.6C100.21,19.65,100.25,20.18,100.54,20.19z M99.85,20.28c-0.18-0.33,0.36-0.37,0.09-0.52
	c-0.04,0.15-0.09-0.04-0.17-0.09C99.66,19.83,99.42,20.3,99.85,20.28z M87.44,20.45c0.18-0.11,0.35-0.22,0.43-0.43
	C87.64,20.03,87.3,20.37,87.44,20.45z M88.3,20.28c-0.05,0.45,0.68,0.12,0.78,0.43c-0.01-0.13,0.03-0.32-0.09-0.34
	c-0.22,0.23-0.25-0.12-0.26-0.26C88.71,20.29,88.51,20.29,88.3,20.28z M101.4,20.71c0.31,0.11,0.32-0.01,0.6,0.09
	c0.08-0.42-0.32-0.22-0.35-0.34c0-0.05-0.01-0.1-0.09-0.09C101.68,20.64,101.3,20.43,101.4,20.71z M92.87,21.31
	c-0.21-0.19-0.23-0.57-0.52-0.69c-0.04,0.11-0.11,0.17-0.26,0.17C92.18,21.28,92.67,21.32,92.87,21.31z M91.31,21.05
	c0-0.09,0-0.17,0-0.26c-0.34,0.07-0.45-0.04-0.6,0.09C90.96,20.9,91.14,21.22,91.31,21.05z M84.42,21.49
	c0.05,0.01,0.1,0.01,0.09,0.09c0.06,0,0.12,0,0.17,0c-0.11-0.32,0.46-0.39,0.17-0.6C84.77,21.2,84.54,21.29,84.42,21.49z
	 M97.26,21.4c0.11,0.12,0.41,0.12,0.52,0c0-0.09,0-0.17,0-0.26c-0.12-0.03-0.16-0.12-0.34-0.08C97.39,21.18,97.31,21.27,97.26,21.4z
	 M93.3,21.4c0,0.09,0,0.17,0,0.26c0.18,0.15,0.17-0.06,0.34,0.09c0.02-0.24,0.28-0.24,0.35-0.43C93.72,21.41,93.61,21.26,93.3,21.4z
	 M79.85,22.18c-0.36-0.11-0.05-0.33,0-0.52c-0.35,0.09-0.38-0.13-0.52-0.26C79.41,21.69,79.62,22.31,79.85,22.18z M94.59,21.49
	c-0.22,0.09-0.41-0.26-0.52,0C94.19,21.61,94.53,21.8,94.59,21.49z M94.68,22.35c0.09-0.12,0.14-0.26,0.26-0.35
	c0,0.05,0.07,0.1,0.09,0c-0.38,0.01-0.55-0.18-0.86-0.17C94.35,22,94.54,21.97,94.68,22.35z M102.01,21.75
	c-0.32,0.17-0.66-0.07-0.86,0.08c0.29,0.03,0.38,0.25,0.52,0.43C101.65,21.76,101.86,22.2,102.01,21.75z M96.75,22.52
	c0.04-0.13,0.13-0.22,0.17-0.34c-0.39,0.13-0.27-0.25-0.6-0.17C96.35,22.28,96.61,22.35,96.75,22.52z M78.47,25.88
	c-0.1-0.07-0.23-0.11-0.43-0.09C77.88,26.18,78.49,26.11,78.47,25.88z M78.73,26.75c0.37,0.12,0.57,0,0.6-0.43
	c-0.2-0.02-0.32,0.02-0.34,0.17c0.1,0.01,0.25-0.02,0.26,0.09C79,26.55,78.8,26.6,78.73,26.75z M78.38,28.3
	c0.28-0.02,0.42,0.2,0.43-0.17C78.6,28.11,78.39,28.11,78.38,28.3z M90.28,32.87c0.03-0.23-0.12-0.28-0.34-0.26
	C89.91,32.84,90.05,32.89,90.28,32.87z M79.07,33.21c0.15-0.16,0.27,0.12,0.34-0.17c-0.12,0.01-0.26-0.35-0.34-0.09
	c0.07,0.02,0.1,0.07,0.08,0.17C79.07,33.12,78.94,33.17,79.07,33.21z M89.85,33.21c0.02-0.23-0.03-0.37-0.26-0.35
	C89.57,33.09,89.62,33.24,89.85,33.21z M91.66,35.11c0.24,0.08,0.4,0.05,0.78,0c-0.06-0.41-0.59-0.27-0.78-0.35
	C91.66,34.88,91.66,35,91.66,35.11z M92.87,35.8c0.16,0.02,0.19-0.1,0.35-0.08c-0.02,0.11-0.13,0.17,0.09,0.17
	c0.04-0.27-0.11-0.35-0.26-0.43C93.04,35.63,92.8,35.56,92.87,35.8z M87.18,36.14c-0.01-0.17,0.71-0.02,0.35-0.26
	c-0.02,0.22-0.15-0.12-0.35,0C87.21,36.03,87.05,36.11,87.18,36.14z M88.12,36.4c0.37,0.11,0.82,0.12,1.29,0
	c0,0.35,0.33,0.2,0.69,0.35c0.01-0.1-0.01-0.24,0.09-0.26c0.24,0.16,0.39,0.42,0.78,0.43c0.01-0.1-0.02-0.25,0.09-0.26
	c-0.04,0.29,0.27,0.41,0.52,0.26c-0.26-0.05-0.49-0.42-0.35-0.6c-0.95,0.13-1.97-0.09-2.84-0.43C88.38,36.14,88.16,36.18,88.12,36.4
	z M93.99,36.32c0.32,0.07,0.4,0.28,0.69,0.08c-0.23-0.09-0.29-0.34-0.52-0.43C94.16,36.14,93.93,36.08,93.99,36.32z M83.47,36.32
	c0,0.12,0.04,0.19,0.09,0.26c0.24,0.07,0.22-0.12,0.43-0.09C84.06,36.16,83.6,36.18,83.47,36.32z M89.07,36.83
	c-0.11,0-0.23,0-0.34,0C88.66,37.17,89.14,37.17,89.07,36.83z M89.07,37.87c0.27,0.04,0.35-0.11,0.43-0.26
	c-0.37,0.12-0.44,0.09-0.6,0.09C89,37.71,89.04,37.79,89.07,37.87z M90.8,37.96c-0.1,0.27,0.14,0.21,0.17,0.34
	c0,0.12-0.04,0.19-0.09,0.26c0.35-0.02,0.25-0.5,0.6-0.52C91.3,37.81,91.12,37.9,90.8,37.96z M94.25,38.73
	c0-0.26-0.08-0.44-0.26-0.52c0.06,0.29-0.35,0.11-0.26,0.43c0.09,0.17,0.82,0.25,0.6,0C94.33,38.7,94.32,38.75,94.25,38.73z
	 M94.68,38.9c0.25-0.19,0.5,0.16,0.6-0.17c-0.3-0.1-0.28-0.13-0.52-0.17C94.61,38.74,94.83,38.73,94.68,38.9z M95.97,39.08
	c-0.1,0.01-0.24-0.02-0.26,0.09c0.3-0.07,0.36,0.1,0.52,0.17c0.05-0.41,0.88,0.14,1.03-0.08c-0.19-0.5-0.79-0.02-1.21-0.43
	C96.05,38.93,95.95,38.94,95.97,39.08z M90.45,41.32c0.05,0.05,0.41,0.2,0.43,0c-0.44,0.05,0-0.3-0.34-0.26
	C90.54,41.18,90.5,41.25,90.45,41.32z M88.99,41.49c0,0.09,0,0.17,0,0.26c0.2-0.12,0.32,0.22,0.34,0c-0.3-0.02,0.16-0.38-0.09-0.35
	C89.23,41.5,89.11,41.5,88.99,41.49z M89.59,41.58c0,0.12,0,0.23,0,0.34c0.16-0.02,0.6-0.46,0.26-0.43
	C89.87,41.82,89.78,41.52,89.59,41.58z M89.85,42.09c0.26,0,0.29,0.22,0.52,0.26c0.15-0.05-0.01-0.41,0.17-0.43
	c0.13,0.02,0.08,0.21,0.09,0.35c0.21,0.03,0.19-0.16,0.43-0.09c0.02-0.16-0.1-0.19-0.09-0.35c0.12,0.03,0.16,0.12,0.34,0.09
	c-0.03,0.12-0.1,0.15,0,0.26c0.32-0.26,0.31-0.06,0.6,0.09c0.02-0.39,0.11-0.43-0.09-0.69c-0.51,0.14-1.26-0.24-1.64,0.09
	c0.21-0.04-0.13,0.48-0.17,0.17c0.05,0,0.1-0.07,0-0.08C90.02,41.92,89.79,41.86,89.85,42.09z M95.63,42.09
	c-0.01-0.15,0.02-0.27,0.09-0.34c-0.16,0.02-0.19-0.1-0.35-0.09C95.33,41.93,95.47,42.01,95.63,42.09z M92.61,42.27
	c0.26-0.08,0.7,0.01,0.69-0.35c-0.39,0.08-0.49-0.14-0.78-0.17C92.33,41.93,92.5,42.13,92.61,42.27z M93.56,42.01
	c0.32-0.05,0.39,0.38,0.6,0.17C94.09,41.87,93.76,41.77,93.56,42.01z M96.92,42.7c-0.05-0.29-0.5-0.19-0.78-0.26
	C96.15,42.93,96.64,42.44,96.92,42.7z M97.01,42.7c0.1,0.04,0.2,0.09,0.26,0.17c-0.05,0-0.1,0.01-0.09,0.09
	c0.37-0.12,0.66,0.08,0.78-0.17c-0.32,0.09-0.28-0.18-0.43-0.26C97.43,42.84,97.1,42.51,97.01,42.7z M95.28,42.87
	c0.07,0.02,0.1,0.07,0.09,0.17c0.23,0.02,0.37-0.03,0.35-0.26C95.44,42.83,95.36,42.58,95.28,42.87z M98.47,56.41
	c0.12-0.28-0.52-0.22-0.52-0.09C98.16,56.32,98.21,56.47,98.47,56.41z M78.04,56.58c0.02-0.07,0.07-0.1,0.17-0.09
	c0.01,0.11,0.03,0.21,0.17,0.17c0.01-0.22-0.13-0.27-0.26-0.34C78.13,56.41,77.75,56.5,78.04,56.58z M97.61,56.75
	c0.15-0.05,0.36-0.04,0.43-0.17c-0.07-0.08-0.55-0.19-0.6,0C97.54,56.59,97.64,56.61,97.61,56.75z M108.65,56.84
	c-0.07,0.18,0.08,0.54,0.17,0.26c-0.19-0.07,0.02-0.53-0.34-0.43C108.48,56.77,108.5,56.87,108.65,56.84z M80.02,57.62
	c0-0.16,0.44-0.29,0.17-0.43C80.12,57.27,79.74,57.46,80.02,57.62z M77.09,58.91c0-0.05,0.01-0.1,0.09-0.09
	c0.09,0,0.1,0.07,0.17,0.09c-0.06-0.27-0.06-0.17,0-0.43c-0.12,0-0.19-0.04-0.26-0.09C77.24,58.71,76.98,58.78,77.09,58.91z"/>
<path fill-rule="evenodd" d="M52.94,22c0.02,0.08,0.51-0.04,0.26,0.26c0.12-0.38,0.67-0.23,0.69-0.78c0.14,0.16-0.07,0.44,0.34,0.26
	c-0.02,0.56,0.92,1.02,0.52,1.81c0.27,0.28,0.6,0.33,0.52,0.78c1.02-0.39,1.51,0.96,2.24,0.26c-0.32-0.31,0.04-0.97-0.26-1.47
	c0.32,0,0.59-0.04,0.6-0.34c-0.15-0.03-0.16,0.07-0.17,0.17c-0.21,0.04-0.19-0.16-0.43-0.09c0.11-0.47,0.23-0.29-0.09-0.52
	c0.18-0.11,0.25-0.33,0.52-0.35c-0.04-0.16-0.25-0.16-0.17-0.43c0.12-0.04,0.62,0.27,0.69-0.09c0.15,0.08,0.19,0.27,0.17,0.52
	c0.32-0.47,0.74-0.25,1.03-0.43c-0.01,0.21-0.02,0.42,0.17,0.43c0.07-0.02,0.08-0.09,0.17-0.09c-0.01-0.16-0.06-0.29-0.17-0.34
	c0.06-0.29,0.29,0.38,0.34,0.09c0.21,0.04,0.01,0.33-0.17,0.26c0.13,0.27,0.42,0.39,0.6,0.6c0.01,0.09-0.37,0.18-0.09,0.26
	c-0.03,0.12-0.22,0.07-0.35,0.09c0.19,0.07,0.23,0.29,0.52,0.26c-0.07,0.27-0.57,0.12-0.52,0.52c0.04,0.19,0.43,0.04,0.6,0.09
	c-0.21,0.19-0.37,0.41-0.17,0.78c-0.31,0.19-0.18,0.32-0.26,0.78c-0.12-0.13-0.42-0.27-0.6-0.09c0.03,0.2,0.27,0.19,0.34,0.34
	c0.15-0.08,0.22-0.24,0.52-0.17c-0.01,0.1,0.02,0.15,0.09,0.17c-0.12,0.02-0.19,0.16-0.52,0.17c0.16,0.33,0.39,0.55,0.69,0.52
	c-0.41,0.68-0.3,1.37,0.09,1.81c-0.21,0.05-0.08,0.44-0.43,0.34c0.31,0.2,0.31,0.88,0.09,1.21c0.27,0.14,0.35-0.32,0.43-0.09
	c0.04,0.18-0.12,0.16-0.26,0.17c0.28,0.82,0.01,1.74,0.52,2.59c-0.07,0.25-0.13,0.1-0.34,0.09c0.32,0.25-0.02,0.71,0.17,1.12
	c-0.18-0.17-0.17,0.04-0.35,0.09c0.08,0.1,0.16,0.03,0.43,0.09c0.13,1.77,0,2.93,0.26,4.23c-0.24,0.02-0.48,0.09-0.43,0.35
	c0.1,0.12,0.33,0.13,0.43,0.26c-0.13,0.37,0.11,0.61-0.17,0.86c0.18,0.08,0.15,0.37,0.43,0.35c-0.23,0.15-0.44,0.66-0.78,0.43
	c0.05,0.07,0.09,0.14,0.09,0.26c0.07-0.04,0.14-0.09,0.26-0.09c0.43,0.73,0.04,1.84,0.52,2.5c-0.01,0.1-0.16,0.07-0.26,0.09
	c0.43,0.32,0,0.79,0,1.04c-0.02,0.84,0.61,2.11,0,2.76c0.16,0.42,0.41,0.52,0.6,0.78c-0.67-0.18-0.05,0.97-0.43,1.29
	c0.28,0.1-0.06,0.32,0.35,0.34c-0.15,0.61-0.36,1.57,0.17,2.07c-0.36,0.83-0.22,1.59,0,1.9c-0.32-0.27-0.09-0.04-0.26,0.34
	c0.36,0.42,0.51,1.61,0.17,1.98c0.11,0.12,0.33,0.13,0.43,0.26c-0.48,0.52,0.27,1.3-0.17,1.72c0.23,0.17,0.12,0.29,0.35,0.34
	c-0.09,0.12-0.08,0.32-0.26,0.35c0.19,0.31,0.34,1.02,0,1.12c0.33,0.18,0.03,0.24-0.09,0.43c0.05,0.1,0.33,0.02,0.52,0.17
	c-0.02,0.1-0.09,0.05-0.09,0c-0.04,0.07-0.13,0.58,0.09,0.52c0,0.17-0.24,0.11-0.17,0.34c-0.32,0.09-0.25-0.21-0.52-0.17
	c-0.17,0.03,0.32,0.59,0.43,0.34c0.21,0.13,0.19,0.36,0.26,0.43c-0.06,0.26-0.18-0.08-0.34,0c0,0.06,0,0.11,0,0.17
	c0.1,0.26,0.33-0.13,0.43,0.09c-0.1,0.17,0.08,0.44-0.17,0.6c0.66,0.47-0.28,1.79,0.26,2.07c-0.23,0.56,0.11,0.3-0.17,0.95
	c-0.46-0.1-0.34-0.46-0.43-0.6c0.27-0.05,0.41-0.12,0.26-0.43c-0.1,0.02-0.05,0.09,0,0.09c-0.41,0.18-0.24-0.48-0.52-0.78
	c0.1,0.1,0.3,0.1,0.52,0.09c-0.16-0.18-0.24-0.46-0.6-0.43c0.42-0.23-0.23-0.55-0.43-0.35c0-0.25-0.37-0.55-0.17-0.86
	c-0.38-0.32-0.36,0.35-0.78,0.09c0.05,0.07,0.09,0.14,0.09,0.26c0.21,0.19,0.58,0.22,0.69,0.52c-0.18,0.09-0.4-0.04-0.43,0.35
	c-0.02,0.21,0.13,0.27,0.26,0.34c-0.02,0.12-0.36,0.16,0,0.17c0.03,0.2-0.25,0.1-0.26,0.26c-0.24,0,0.21-0.24-0.17-0.17
	c-0.05-0.19,0.17-0.12,0.17-0.26c-0.02-0.11-0.26-0.11-0.26,0c-0.08-0.14,0.11-0.23,0.09-0.52c-0.06,0-0.12,0-0.17,0
	c-0.17-0.03,0.02,0.25,0.09,0.26c-0.07,0.25-0.22-0.11-0.43,0c0.12,0.17,0.05,0.53,0.43,0.43c0.06,0.26-0.09,0.31-0.09,0.52
	c-0.27,0.06-0.17-0.24-0.43-0.17c0.16-0.14,0.44,0.07,0.26-0.34c-0.18,0.15-0.25,0.19-0.52,0.09c-0.06-0.27,0.24-0.17,0.17-0.43
	c-0.05-0.2-0.13,0.1-0.26-0.09c0.09-0.35-0.28-0.67,0.09-0.78c-0.37,0.22-0.36-0.49-0.26-0.95c-0.39,0.06-0.12,0.45-0.6,0.52
	c0.19,0.33,0.31-0.31,0.52,0c-0.05,0.08-0.24,0.13-0.09,0.17c-0.02,0.2-0.38,0.05-0.43,0c0.07,0.5-0.13,0.9,0,1.21
	c-0.23-0.03-0.28,0.12-0.26,0.35c-0.31-0.16-0.25,0.02-0.52,0.09c0-1.17-1.34-0.61-1.81-1.21c0.04,0.05,0.34-0.44-0.17-0.35
	c0.04-0.13,0.27-0.07,0.17-0.35c-0.01-0.16-0.29-0.05-0.34-0.17c0.39-0.18-0.3-0.42,0.26-0.43c0.01-0.35-0.22-0.23-0.43-0.17
	c0.17-0.41,0-0.9-0.09-1.04c0.03-0.12,0.22-0.07,0.35-0.09c-0.24-0.18,0.01-0.32-0.26-0.43c-0.11,0.02-0.11,0.26,0,0.26
	c-0.05,0.18-0.33-0.12-0.26-0.34c0.31-0.05,0.42,0.1,0.6,0.17c-0.05-0.36-0.66-0.55-0.78-1.12c-0.03-0.16,0.16-0.56,0.09-0.78
	c-0.08-0.24-0.41-0.62,0.17-0.78c0.01-0.43-0.25-0.06-0.43-0.26c0.11-0.16-0.04-0.4,0.26-0.52c-0.21-0.49-0.37-1.02-0.17-1.38
	c-0.09-0.17-0.15-0.37-0.35-0.43c0.1-0.85,0.19-1.91-0.17-2.67c0.13-0.38,0.27-0.92-0.09-1.04c0.27-0.72,0-1.59-0.35-1.98
	c0.07,0.05,0.14,0.09,0.26,0.09c-0.05-0.07-0.09-0.14-0.09-0.26c-0.27-0.14-0.35,0.32-0.43,0.09c0.4-0.28,0.28-0.55,0.6-0.86
	c-0.03-0.28-0.71-0.2-0.86-0.09c0.09,0.05,0.26,0.09,0.52,0.17c-0.04,0.19-0.15,0.31-0.34,0.35c0-0.12,0-0.23,0-0.35
	c-0.25,0.18-0.02,0.32-0.26,0.52c-0.07-0.04-0.14-0.09-0.26-0.09c0.12-0.41-0.18-1.05,0.17-1.38c-0.07-0.19-0.3-0.22-0.43-0.35
	c0.07-1.24-0.18-1.7-0.35-2.93c0.27,0.04,0.28-0.18,0.26-0.43c-0.24,0.15-0.31,0.16-0.6,0c0.13-0.22,0.26-0.38,0.26-0.52
	c0.04-0.27-0.43-0.03-0.34-0.34c0.07-0.02,0.08,0.03,0.09,0.09c0.1-0.08-0.05-0.24,0.34-0.17c-0.19-0.22-0.22-0.58-0.43-0.78
	c0.34-0.25,0.1-0.75-0.09-1.29c0.09,0,0.17,0,0.26,0c-0.22-0.42-0.1-0.66-0.43-0.95c0.2-0.76-0.07-1.56-0.34-2.5
	c0.39,0.26,0.06-0.15,0.26-0.34c0.24-0.07,0.22,0.12,0.43,0.08c-0.07-0.3-0.39-0.14-0.09-0.43c-0.36,0.19-0.53,0.56-1.03,0.6
	c0.05-0.22,0.45-0.09,0.26-0.35c0.08-0.09,0.16-0.03,0.43-0.08c0.04-0.23-0.43-0.66,0.09-0.6c-0.1-0.38-0.37-0.05-0.52-0.35
	c-0.12,0.08-0.11,0.29-0.26,0.35c-0.14-0.06,0.1-0.47,0.35-0.43c-0.2-0.38-0.18-0.8,0-1.12c-0.02-0.18-0.38-0.02-0.43-0.17
	c0.12-0.16,0.13-0.45,0.35-0.52c-0.15-0.13-0.46-0.12-0.35-0.52c-0.16,0.07-0.06,0.26-0.26,0.09c0.06-0.08,0.16-0.13,0.26-0.17
	c-0.05-0.3-0.4-0.73-0.09-0.6c-0.19-0.19-0.48-0.47-0.17-0.69c-0.16-0.01-0.18,0.1-0.35,0.08c0.01-0.1-0.02-0.15-0.09-0.17
	c0.03-0.23,0.36-0.15,0.43-0.34c-0.51-0.14-0.01-0.5-0.17-0.78c0.14-0.03,0.15,0.08,0.26,0.08c-0.18-0.6-0.75-1.32-0.26-1.9
	c-0.15-0.31-0.27-0.51-0.43-0.6c-0.11-0.55,0.15-0.94-0.34-1.29c0.14-0.18,0.41-0.22,0.6-0.35c-0.01-0.21-0.29-0.02-0.26,0.09
	c-0.35-0.29,0.13-0.5-0.09-0.86c0.07,0.04,0.14,0.09,0.26,0.08c0-0.06,0-0.11,0-0.17c-0.06-0.26-0.18,0.08-0.34,0
	c0.14-0.8-0.1-0.88-0.26-1.29c0.15-0.08,0.27-0.29,0-0.35c0.43-0.45-0.22-1.45,0-2.16c-0.06-0.08-0.16-0.13-0.26-0.17
	c0.09-1.16-0.07-2.01,0.09-2.84c0.06-0.09,0.2-0.09,0.17-0.26c0.18-0.04,0.23,0.06,0.35,0.09c-0.19-0.22,0.17-0.4,0.17-0.69
	c0.08,0.19,0.6,0.02,0.35-0.08c0.18-0.16,0.22,0.13,0.43,0.08c-0.19,0.45,0.15,0.36,0.43,0.52c-0.13,0.16-0.23,0.29,0,0.43
	c-0.08,0.15-0.32,0.14-0.35,0.34c0.02,0.22,0.15-0.12,0.35,0c0.08,1.19,0.67,1.92,0.52,2.76c0.05,0.17,0.4,0.06,0.43,0.26
	c0.12,0.05,0.21-0.33,0.26-0.09C53.28,22.03,52.83,21.66,52.94,22z M59.41,60.63c-0.26-0.17-0.37,0.37-0.69,0
	c0.37,0.33,0.09,0.7,0.09,0.95c0.27,0.04,1.05-0.27,0.78-0.78C59.26,60.85,59.37,60.95,59.41,60.63z M51.39,30.63
	c-0.1-0.07-0.23-0.11-0.43-0.09C50.83,30.94,51.28,30.71,51.39,30.63z M58.46,22.09c-0.09,0-0.17,0-0.26,0
	c0.01-0.33-0.29-0.24-0.35-0.17C58,21.98,58.25,22.37,58.46,22.09z M58.98,27.26c0.11-0.13,0.35-0.26,0.17-0.43
	C58.78,26.8,58.93,27.23,58.98,27.26z M58.2,28.04c-0.26,0-0.21-0.31-0.52-0.26c0.08,0.16-0.26,0.29,0,0.35
	C57.76,27.81,58.17,28.3,58.2,28.04z M58.98,28.64c0.03,0.17-0.12,0.17-0.17,0.26c0.16,0.01,0.06,0.28,0.26,0.26
	c0.01-0.33,0.31-0.38,0.43-0.6C59.29,28.55,59.24,28.71,58.98,28.64z M59.07,29.5c0.41,0,0.66-0.14,0.78-0.43
	C59.44,29.07,59.24,29.27,59.07,29.5z M58.98,30.45c0.12,0.09-0.04,0.14,0.17,0.26c-0.45,0.12,0.05,0.28-0.35,0.52
	c0.24-0.07,0.22,0.12,0.43,0.09c-0.06-0.23,0.17-0.17,0.17-0.34c-0.57-0.16,0.32-0.8,0.09-0.6C59.35,30.42,58.99,30.26,58.98,30.45z
	 M59.84,32.87c-0.01-0.1-0.14-0.09-0.26-0.09c0.02,0.16,0.37,0.43,0.43,0.26c-0.28-0.13,0.15-0.24,0.17-0.35c-0.09,0-0.17,0-0.26,0
	C59.91,32.76,59.93,32.87,59.84,32.87z M59.15,34.76c-0.12,0.05-0.21,0.13-0.26,0.26c0.25,0.13,0.32-0.1,0.43,0.17
	c-0.12,0.19-0.21-0.11-0.26,0.09c0,0.14,0.21,0.37,0.43,0.52c-0.07,0.02-0.17,0-0.17,0.09c0.58-0.09,0.32-0.94,0.52-1.12
	c-0.21,0.15-0.51-0.71-0.26-1.03c-0.11-0.12-0.52-0.15-0.52,0.09c0.41,0.02,0.16,0.73,0.17,0.86c-0.27,0.01-0.04-0.48-0.43-0.34
	C58.77,34.63,59.07,34.59,59.15,34.76z M59.15,36.14c0.23,0.28,0.05,0.29-0.09,0.6c0.37,0.17,0.06,0.53,0.34,0.69
	c0.01-0.22,0.02-0.45,0.26-0.43c-0.22,0.22-0.06,0.38-0.26,0.69c0.38-0.2,0.62-0.99,0.6-1.29c-0.29,0.19-0.17-0.28-0.26-0.34
	C59.61,36.32,59.44,36.15,59.15,36.14z M60.27,37.96c-0.32,0.21-0.21-0.41-0.43-0.43c0,0.29-0.36,0.21-0.43,0.43
	c-0.01,0.26,0.3,0.39,0.09,0.6c0.47-0.12,0.38,0.26,0.43,0.34c0.02-0.07,0.07-0.1,0.17-0.09C59.87,38.34,60.28,38.22,60.27,37.96z
	 M53.63,37.87c-0.15,0-0.5-0.23-0.6,0C53.18,37.87,53.53,38.1,53.63,37.87z M60.1,39.25c-0.33-0.02-0.38-0.31-0.69-0.35
	c0.21,0.51,0.63,0.49,0.17,0.78c0.35,0.68,0.22,1.65,0.09,2.41c0.02-0.1,0.1-0.13,0.17-0.17c0.17,0.33,0.05,0.45,0.35,0.69
	c-0.13,0.1-0.22,0.1-0.35,0c-0.04,0.47,0.01,0.86,0.26,1.03c-0.34,0.12,0.13,0.22-0.17,0.52c0.28,0.08,0.12-0.29,0.35-0.26
	c-0.07,0.16-0.11,0.35-0.26,0.43c0.16,0.01,0.29,0.06,0.35,0.17c-0.42,0.02-0.51,1.29-0.09,0.95c-0.32,1.18,0.13,1.55,0.34,2.67
	c0.03-0.3,0.23,0.01,0.26-0.17c-0.36-0.56,0.01-1.07-0.09-1.47c0.01,0.11,0.03,0.21,0.17,0.17c-0.12-0.2,0.22-0.32,0-0.35
	c-0.01,0.21-0.29,0.02-0.26-0.08c0.12,0.1,0.21,0.09,0.26-0.09c-0.17-0.15-0.25-0.39-0.43-0.52c0.14-0.23-0.07-0.81,0.26-1.04
	c-0.13-0.01-0.32,0.03-0.35-0.09c0-0.08,0-0.17,0-0.26c0.39,0.07-0.2-0.54,0.26-0.78c-0.69,0.02-0.07-1.19-0.26-1.64
	c-0.04-0.11-0.42,0.06-0.34-0.17c-0.04,0.13,0.56-0.13,0.43-0.26c-0.42-0.06,0.09-0.5-0.09-0.52c0.06,0.14-0.41,0.14-0.34,0
	c0.13-0.07,0.27-0.13,0.26-0.35c-0.12-0.26-0.24,0.02-0.35-0.26C60.51,40.28,60.04,39.79,60.1,39.25z M52.68,39.33
	c0.22,0.01,0.12,0.34,0.35,0.35c0.02-0.07,0.07-0.1,0.17-0.09C53.31,39.22,52.71,39.06,52.68,39.33z M53.89,45.03
	c-0.12-0.45,0.16-0.42,0.17-0.95c-0.29,0.06-0.14-0.18-0.09-0.26c-0.23,0.06-0.26,0.32-0.43,0.43
	C53.97,44.38,53.51,44.97,53.89,45.03z M53.81,45.11c-0.12,0.43,0.01,0.55,0.43,0.43C54.25,45.24,53.93,45.27,53.81,45.11z
	 M53.98,46.49c0.16-0.04,0.37-0.03,0.34-0.26c-0.12,0-0.23,0-0.34,0C53.98,46.32,53.98,46.41,53.98,46.49z M53.98,46.58
	c0.12,0.3-0.39,0.41-0.09,0.6c0.12-0.45,0.41-0.04,0.6-0.17c0-0.23,0.05-0.51-0.17-0.52C54.31,46.62,54.11,46.57,53.98,46.58z
	 M60.79,49.42c0.36,0.02,0.34-0.11,0.6,0c-0.04-0.21,0.16-0.19,0.09-0.43C61.17,49.06,60.96,49.21,60.79,49.42z M61.22,50.8
	c0.04-0.27-0.08-0.38-0.35-0.35C60.89,50.68,61,50.79,61.22,50.8z M58.63,51.15c0.16-0.23-0.23-0.29,0.09-0.52
	c-0.2,0-0.25-0.15-0.52-0.09C58.28,50.82,58.46,50.98,58.63,51.15z M58.55,51.67c0.21,0.23-0.02,0.36,0.26,0.52
	c0.05-0.18,0.21-0.25,0.17-0.52C58.87,51.55,58.66,51.55,58.55,51.67z M58.98,54.51c0.15-0.46-0.3-0.34-0.6-0.35
	C58.29,54.56,58.84,54.33,58.98,54.51z M60.19,57.18c0.01-0.21-0.04-0.36-0.17-0.43C59.88,56.88,59.89,57.24,60.19,57.18z
	 M58.98,58.99c0.23,0,0.51,0.05,0.52-0.17c-0.15-0.05-0.36-0.04-0.43-0.17c0.12-0.01,0.09-0.22-0.09-0.17
	C58.88,58.75,58.97,58.67,58.98,58.99z M59.07,60.29c0.1,0.02,0.13,0.1,0.17,0.17c0.24,0.04,0.49-0.37,0.35-0.43
	C59.53,60.24,59.03,59.99,59.07,60.29z M60.27,60.8c0.3,0.1,0.69,0.19,0.43,0.6c0.24-0.06,0.17,0.17,0.34,0.17
	c0.16-0.32,0.24-0.76-0.09-0.95C60.97,61.33,60.38,60.26,60.27,60.8z M56.74,61.15c-0.01-0.22-0.13-0.33-0.35-0.35
	C56.42,61.01,56.45,61.21,56.74,61.15z M60.45,61.93c0.06-0.29-0.14-0.32-0.34-0.35C60.06,61.85,60.18,61.97,60.45,61.93z
	 M56.82,62.27c0.35,0.04,0.31-0.32,0.43-0.52c-0.12,0-0.19-0.04-0.26-0.09C57.12,62.05,56.74,61.93,56.82,62.27z"/>
<path fill-rule="evenodd" d="M23.71,24.24c0.07-0.01,0.26-0.28,0.09-0.26c0.11,0.07,0.25,0.01,0.43,0.34
	c0.9,0.02,1.25,0.3,1.81,0.78c0.4-0.28,1.62-0.12,2.07,0.43c0.17-0.45,0.81,0.1,0.95-0.09c0.13,0.07,0.12,0.28,0.17,0.43
	c0.09,0,0.17,0,0.26,0c0.01-0.12,1.48-0.37,1.12,0.26c0.13,0.2,0.27-0.17,0.26,0.17c0.2-0.02-0.01-0.32-0.09-0.34
	c0.15-0.24,0.23-0.08,0.52-0.09c-0.16,0.2,0.24,0.36-0.09,0.6c0.29,0.3,0.93,0.27,1.12,0.34c0.38,0.15,0.56,0.73,1.03,0.43
	c0.1,0.08-0.02,0.21,0.26,0.26c-0.04,0.13-0.13,0.22-0.17,0.35c0.25-0.23,0.35,0.23,0.69,0.17c0.22,0.46,0.51,0.74,0.69,1.47
	c0.3,0.01,0.32,0.48,0.86,0.43c-0.05,0.57,0.32,0.44,0.6,0.52c0.19,1.21,1.17,1.64,1.55,2.67c-0.24,0.21-0.17,0.23-0.26,0.52
	c0.23-0.06,0.17-0.4,0.34-0.52c0.03,0.16,0.14,0.61,0,0.86c-0.21,0.01-0.27-0.14-0.43-0.17c-0.07,0.02-0.09,0.09-0.17,0.09
	c0.33,0.51,0.74,0.05,1.29,0c-0.04,0.21,0.16,0.19,0.09,0.43c-0.08,0.07-0.2,0.09-0.35,0.09c0.08,0.3,0.55,0.3,0.17,0.6
	c0.16,0.17,0.3,0.15,0.52,0.09c0.05,0.22-0.04,0.31-0.26,0.26c0.13,0.11,0.36,0.41,0.43,0.09c0.23,0.26-0.06,0.39-0.34,0.26
	c0,0.06,0,0.11,0,0.17c0.41,0.01,0.69,0.62,1.21,0.78c-0.16,0.41,0.53,0.73,0.09,0.86c0.11,0.12,0.33,0.13,0.43,0.26
	c-0.28,0.69,1.08,1.3,0.6,1.9c0.72,0.52,0.54,0.82,0.17,1.55c0.22,0.03,0.51,0.07,0.86,0.17c-0.08,0.23-0.22,0.42-0.52,0.43
	c0.09,0.2,0.4,0.18,0.69,0.17c0.04,0.27-0.11,0.35-0.26,0.43c0.08,0.24,0.19-0.26,0.35,0c0.05,0.28-0.03,0.43-0.17,0.52
	c0.28,0.14,0.16,0.87,0.43,1.03c-0.09,0.08-0.03,0.32-0.26,0.26c0.25,0.18,0.2,0.66,0.34,0.95c-0.41-0.04-0.19,0.56-0.52,0.6
	c0.03,0.13,0.15-0.08,0.17,0.09c0.22-0.01,0.14-0.32,0.26-0.43c0.23,0.43,0.46,2.08,0,2.07c0.4,0.24,0.05,0.86,0.26,1.29
	c-0.44,0.23-0.25,0.92-0.35,1.29c-0.42-0.05-0.4,0.34-0.69,0.43c0.16,0.1,0.2,0.22,0,0.35c0.01,0.19,0.22-0.11,0.43,0
	c-0.39,0.54-0.78,0.71-0.6,1.72c-0.18,0.03-0.23,0.17-0.35,0.26c0.04,0.1,0.11,0.18,0.26,0.17c-0.06,0.27-0.26,0.14-0.35,0
	c0.02,0.07-0.03,0.08-0.09,0.09c0.43,0.13-0.2,0.48,0.09,0.69c-0.18,0.07-0.36,0.33-0.52,0.17c-0.04,0.36,0.31,0.32,0.35,0.61
	c-0.17,0.03-0.27-0.02-0.26-0.17c-0.26,0.06,0.08,0.18,0,0.34c-0.15,0.08-0.25,0.27-0.43,0.09c0.22,0.31,0.17,1.06,0.52,1.29
	c-0.32,0.48-0.42,0.77-0.6,1.47c-0.31-0.06-0.22-0.53-0.52-0.6c-0.2,0.32,0.45,0.53,0.43,0.95c-0.12,0-0.23,0-0.35,0
	c0.3,0.31,0.04,0.62-0.34,0.69c0.03,0.12,0.22,0.07,0.34,0.09c-0.07,0.47-0.64,0.52-0.86,0.6c0.01,0.16,0.29,0.05,0.35,0.17
	c-0.19,0.67-0.41,0.78-0.95,1.12c0.09,0.59-0.83,0.8-1.12,1.29c-0.16-0.01-0.29-0.06-0.35-0.17c-0.18,0.11-0.21,0.63-0.52,0.34
	c0.07,0.43-0.38,0.22-0.43,0.69c-0.37-0.1,0.13-0.47-0.35-0.26c-0.15-0.35,0.19-0.65,0.52-0.78c-0.14-0.16-0.27,0.06-0.43-0.17
	c-0.21,0.01-0.02,0.29,0.09,0.26c-0.12,0.2-0.31-0.26-0.69-0.08c0.1-0.21,0.53-0.38,0.69-0.26c0.32-0.19-0.15-0.72,0.17-1.04
	c-0.14,0.21-0.4,0.29-0.69,0.34c0.06,0.08,0.16,0.13,0.26,0.17c-0.16,0.17-0.16,0.07-0.09,0.35c-0.34,0.11-0.21-0.25-0.43-0.26
	c-0.46,0.36-0.13,1.37,0.34,1.21c-0.01-0.1-0.16-0.07-0.26-0.09c0.01-0.1,0.16-0.07,0.26-0.09c0.11,0.2-0.01,0.16,0.09,0.43
	c-0.23,0.08-0.41,0.14-0.52-0.09c-0.2,0.05,0.1,0.13-0.09,0.26c-0.23,0.06-0.17-0.18-0.26-0.26c-0.17,0.16-0.14,0.31-0.43,0.17
	c0.04,0.08,0.08,0.15,0.17,0.17c-0.13,0.18-0.43-0.19-0.35-0.52c0.15,0.01,0.18-0.11,0.35-0.09c0,0.08-0.11,0.07-0.17,0.09
	c0.2,0.28,0.42-0.15,0.35-0.43c-0.23,0.15-0.54,0.21-0.78,0.35c0.21,0.12-0.16,0.26,0.09,0.35c-0.59-0.15-1.1,0.88-1.9,0.78
	c0.02,0.1,0.09,0.05,0.09,0c0.24,0.36-0.75,0.23-0.78,0.6c-0.07-0.07-0.24-0.05-0.26-0.17c-0.18,0.02-0.17,0.23-0.26,0.34
	c-0.83-0.25-1.4,0.62-2.07-0.09c0.05,0.2-0.25,0.33-0.26,0.69c-0.08-0.07-0.19-0.09-0.34-0.09c0.01-0.16,0.29-0.05,0.34-0.17
	c0.06-0.26-0.15-0.25-0.09-0.52c-0.28-0.08-0.12,0.28-0.26,0.35c-0.12-0.06-0.16-0.19-0.17-0.35c-0.25,0.3-1.18,0.53-1.03,0.78
	c-0.45,0.24-0.42-0.72-0.86-0.78c-0.32,0.09-0.21,0.86,0.17,0.78c-0.18,0.57,0.32,0.78,0.09,1.38c-1.06-0.44-0.6-1.93-1.55-2.41
	c0.12-0.47-0.4-0.29-0.26-0.78c-0.69-0.12-0.2,1.16-0.69,0.78c0.27,0.46-0.21,0.69,0.34,0.43c0.06,0.24-0.17,0.17-0.17,0.35
	c0.36,0.12,0.43,0.55,0.78,0.69c0.11,0.62,0.08,1.24,0,1.9c-0.04,0.1-0.78-0.22-0.52,0.17c-0.52,0.02-0.42-1.15-1.29-1.21
	c-0.07-0.5-0.3-0.85-0.43-1.29c0.08,0,0.07-0.11,0.09-0.17c0.15-0.01,0.18,0.11,0.35,0.09c0.02-0.2-0.02-0.32-0.17-0.34
	c0.18-0.1,0.25-0.03,0.52-0.17c-0.05-0.18-0.44-0.02-0.34-0.34c-0.18,0.05-0.17,0.26-0.35,0.09c0.04-0.2-0.06-0.62,0.17-0.86
	c-0.21-0.23-0.39-0.05-0.69-0.26c0.04-0.08,0.08-0.15,0.17-0.17c-0.65-0.53-0.9-1.19-0.78-1.9c-0.37,0.11-0.14,0.01-0.35-0.26
	c0.24,0.07,0.22-0.12,0.43-0.09c-0.19-1.12-0.46-2.03-1.29-2.67c-0.07,0.29-0.08,0.37-0.26,0.69c-0.48-0.27-0.5,0.43-1.04,0
	c-0.06,0.27,0.3,0.11,0.17,0.43c-0.17-0.14-0.11,0.01-0.34,0c-0.03-0.2-0.09-0.37-0.26-0.43c0.06-0.15,0.16-0.01,0.26,0
	c-0.38-0.43-0.22-0.43-0.6-0.77c-0.2,0.31-0.09,0.41-0.17,0.77c-0.64-0.07-1.51-0.31-1.47-0.77c-0.21,0.09-0.18,0.03-0.52,0.09
	c0.17-0.22-0.09-0.71-0.09-0.6c-0.27,0.03,0.22-0.25-0.09-0.26c0.85,0.15,1.16,0.05,2.24,0.17c0.04-0.14,0.38-0.41,0.17-0.52
	c0.26-0.2,0.94,0.02,1.12-0.26c0-0.14,0-0.29,0-0.43c-0.37,0.27-0.17,0.07,0-0.17c-0.16,0.04-0.22,0.19-0.43,0.17
	c0.07-0.07,0.05-0.24,0.17-0.26c-0.47-0.19-1.14-0.77-1.12-1.38c0.39,0.61,1.31,0.7,1.47,1.55c0.27-0.88-0.53-1.95-1.03-3.1
	c-0.05-0.39,0.25-0.69-0.26-0.69c-0.21-1.83-1.43-3.9-1.9-5.95c-0.07,0.05-0.14,0.09-0.26,0.09c0.22-0.44-0.39-1.94-0.78-2.16
	c0.22-0.29-0.14-0.81-0.35-1.03c0.04-0.12,0.08,0.01,0.17,0c-0.2-0.09-0.1-0.47-0.26-0.6c0.06-0.08,0.16-0.13,0.26-0.17
	c-0.06-0.09-0.26-0.01-0.43-0.17c-0.06-0.4-0.05-1.01-0.43-1.03c0.13-0.12,0.37-0.32,0.17-0.52c-0.13,0.04,0.03,0.11,0,0.26
	c-0.45-0.35-0.05-1.12-0.78-1.55c0.24-0.8-0.47-1.55-0.69-2.33c-0.27-0.96-0.32-2.03-0.78-2.93c-0.02-0.2,0.02-0.32,0.17-0.35
	c-0.55-0.23-0.41-1.15-0.95-1.38c-0.22,0.01-0.3,0.16-0.43,0.26c-0.2-0.07-0.63-0.14-0.43-0.34c-0.56,0.39-0.89,0.42-1.64,0.6
	c-0.12,0.17-0.17,0.4-0.43,0.43c0.01,0.33,0.01,0.54,0.09,0.6c-0.73,0.2-0.98,0.72-1.38,0.52c-0.02,0.12-0.1,0.47-0.26,0.69
	c-0.22-0.04-0.33-0.15-0.34,0.17c0.3-0.18,0.08,0.2-0.17,0c0.17,0.7-0.39,0.78-0.43,1.46c-0.47-0.14-0.33,0.46-0.52,0.86
	c-0.22-0.04-0.4-0.3-0.26-0.43c-0.19,0.01-0.19,0.22-0.17,0.43c-0.2-0.03-0.32,0.02-0.35,0.17c-0.19-0.01-0.18-0.22-0.17-0.43
	c-0.06,0-0.12,0-0.17,0c-0.31,0.01,0.18,0.29-0.09,0.26c0.28,0.23,0.46,0.22,0.78,0.26c-0.11,0.12-0.11,0.32,0.09,0.35
	C5.06,38.14,5,37.91,4.74,38.04c0,0.12,0,0.23,0,0.34c0.07,0.19,0.3,0.22,0.43,0.34c-0.28,0.23-0.21,0.46-0.26,0.78
	c-0.28-0.07-0.57-0.12-0.78-0.26c-0.02-0.26,0.28-0.34,0.09-0.52c-0.19,0.04-0.27,0.19-0.43,0.26c-0.25-0.2-0.11-0.33-0.26-0.69
	c0.18,0.21,0.38-0.08,0.52,0.09c-0.01-0.32-0.12-0.22-0.34-0.17c-0.06-0.5,0.3-0.39,0.26-0.69c0.12,0.32,0.43,0.2,0.78,0.43
	c0.13-0.11-0.49-0.65-0.6-0.52c-0.02-0.15,0.12-0.33-0.26-0.43C3.84,36.82,4,36.84,4.14,36.83c-0.16-0.55-0.78-0.65-1.12-1.03
	c-0.25,0.08,0.2,0.13,0.09,0.35c-0.12-0.1-0.21-0.09-0.26,0.08c0.02,0.07,0.09,0.09,0.09,0.17C3.1,36.37,3,36.07,3.28,36.14
	c0.1,0.2-0.04,0.26,0.26,0.34c-0.3-0.2-0.54,1.04-0.78,0.6c-0.44,0.83-0.08,1.45-0.95,2.16c-1.21,0-1.16-1.46-1.38-1.98
	C0.67,37,0.54,36.7,0.78,36.58c-0.32-0.46-0.41-1.14-0.69-1.64c0.25-0.26,0.18-0.76-0.09-0.95c0.08-0.1,0.16-0.03,0.43-0.08
	c-0.29-0.25,0.01-0.22,0-0.61c0.4,0,0.52-0.28,0.6-0.6c0.23,0.3,0.34,0.03,0.52-0.17c0.22,0.34,0.87-0.52,1.47-0.6
	c-0.14-0.43,0.33-0.7,0.17-0.86c0.12-0.14,0.53,0.1,0.43-0.43c0.21,0.01,0.87,0.02,0.95-0.35c0.6,0.18,0.63-0.24,1.21-0.08
	c0.06-0.39-0.24,0.13-0.17-0.26c0.36,0.15,0.59-0.08,0.78,0.17c0.1-0.1,0.16-0.25,0.43-0.17c0.01-0.1-0.02-0.15-0.09-0.17
	c0.61-0.25,1.43-0.3,1.72-0.86c-0.4-0.17-0.69-0.31-1.21-0.17c0.06,0.09,0.2,0.09,0.17,0.26c-0.27-0.08-0.42,0.07-0.78,0.09
	c0-0.14,0-0.29,0-0.43c-0.33,0.28-0.47,0.22-0.95,0.34c0.01-0.45,0.14-0.52-0.26-0.6c-0.02-0.31,0.16-0.42,0.17-0.69
	c0.77-0.12,1.12,0.1,1.47-0.43c0.18,0.05,0.18,0.13,0.09,0.26c0.6-0.55,1.92-0.45,2.5-0.17c0.08-0.34-0.25-0.27-0.43-0.34
	c0.05-0.07,0.09-0.14,0.09-0.26c0.63-0.08,1.7-0.33,1.81-1.21c0.12,0,0.23,0,0.35,0c0.47-0.4-0.32-1.25,0.35-1.21
	c-0.16-0.6-0.61-1.16-0.43-1.72c-0.37-0.23-0.26-0.76,0-1.03c0.25,0.22,0.15,0.09,0.43,0c-0.09,0.33,0.35,0.26,0.09,0.52
	c0.23-0.06,0.7,0.09,1.04,0.52c0.86-0.19,0.73,0.14,1.29,0c0.28,0.91,0.81,1.38,1.29,1.9c0.14,0.02,0.15-0.08,0.26-0.09
	c-0.1-1.1,0.16-1.52-0.26-2.24c0.02-0.2,0.23-0.2,0.35-0.09c-0.07-0.25-0.41-0.22-0.35-0.6c0.09,0,0.17,0,0.26,0
	c-0.25-0.11-0.01-0.38-0.35-0.52c0.13-0.13,0.15-0.36,0.35-0.43c-0.03-0.1-0.41-0.33-0.35,0c-0.09-0.02-0.07-0.64,0.17-0.6
	c-0.01-0.16-0.29-0.05-0.34-0.17c0.07-0.31,0.01-0.31,0.09-0.69c0.21,0.29,0.52,0.04,0.6-0.26c0-0.15-0.06-0.22-0.17-0.26
	c0.42-0.72,1.5-0.08,2.07-0.17c-0.15,0.08-0.27,0.29,0,0.34c-0.06,0.26-0.18-0.08-0.34,0c0.82,0.54,1.02,2.13,0.95,3.28
	c-0.02,0.19,0.07,0.27,0.26,0.26c-0.25,0.5,0.35,1,0.09,1.55c0.08,0,0.07-0.11,0.09-0.17c0.48,0.55,1.06,0,1.55,0.43
	c0.32-0.01,0.22-0.12,0.17-0.34c0.07-0.02,0.08,0.03,0.09,0.09c0.07,0.02,0.08-0.03,0.09-0.09c0.12,0.29,0.31,0.5,0.69,0.52
	c0.12-0.38-0.29-0.22-0.26-0.52c0.47-0.03,0.57,0.12,0.95,0C22.19,24.41,23.13,24.04,23.71,24.24z M8.54,28.38
	c0.18,0.02,0.08,0.32,0.26,0.35c0.41-0.16,0.28-0.39,0.43-0.86c-0.09,0-0.17,0-0.26,0C8.99,28.15,8.79,28.19,8.54,28.38z
	 M23.71,29.5c0.07-0.13,0.28-0.12,0.43-0.17c0.01-0.23-0.14-0.17,0-0.35C23.93,29.04,23.56,29.37,23.71,29.5z M26.73,29.5
	c-0.65,0.38-0.97-0.05-1.47-0.43c-0.05,0.12,0.1,0.45-0.09,0.43c-0.15-0.18,0.06-0.17-0.09-0.35c-0.39-0.03-0.64-0.19-0.78,0.09
	c0.16,0.01,0.29,0.06,0.35,0.17c-0.21,0.04-0.19-0.16-0.43-0.09c-0.05,0.37,0.32,0.31,0.6,0.34c0.03-0.15-0.13-0.22,0-0.26
	c0.08,0.41,0.62,0.36,0.86,0.6c-0.12,0.19-0.21-0.11-0.26,0.09c0.1,0.02,0.05,0.09,0,0.17c0.28,0.08,0.12-0.28,0.35-0.26
	c0.31,0.05,0.46,0.58,0.78,0.34c0.05,0.42,0.45,0.41,0.43,0.69c0.02-0.12,0.19-0.1,0.26-0.17c0.09,0.25,0.26,0.29,0.52,0.17
	c0.03,0.12,0.12,0.16,0.09,0.35c0.34-0.26,0.84,0.06,1.04,0.43c0.6-0.09,0.87,0.11,1.55,0c0.16-0.72-0.31-0.79-0.35-1.12
	c-0.21-0.04-0.19,0.16-0.43,0.09c-0.04-0.36-0.42-0.38-0.6-0.6c-0.03,0.15,0.13,0.22,0,0.26c-0.27,0.01-0.17-0.35-0.34-0.43
	c-0.94,0.16-0.67,0.18-1.29-0.17c0.05-0.19,0.59-0.16,0.43-0.43c-0.04,0.15-0.09-0.04-0.17-0.09c-0.09,0.12-0.08,0.32-0.26,0.34
	c-0.23-0.27-0.63-0.09-0.78,0.17c0-0.09-0.07-0.1-0.09-0.17C26.59,29.63,26.98,29.55,26.73,29.5z M22.42,30.02
	c0.13,0.26,0.49-0.19,0.43,0.17c0.26-0.06,0.5-0.13,0.52-0.43c-0.29,0.11-0.36-0.44-0.52-0.17C23.28,29.92,22.53,29.83,22.42,30.02z
	 M24.58,30.2c-0.08-0.19-0.3-0.67-0.52-0.43c0.1,0.02,0.09,0.14,0.09,0.26C24.47,29.9,24.31,30.26,24.58,30.2z M21.73,31.92
	c0-0.49-0.61,0.22-0.95-0.26c-0.84,0.46,0.09,1.68-0.17,2.59c0.57,0.43,0.37,2.13,0.95,2.85c-0.15,0.89,0.43,2.34,0.78,3.1
	c-0.17,0.21,0.08,0.31-0.17,0.43c0.1,0.04,0.2,0.09,0.26,0.17c-0.05,0.12-0.33,0.01-0.35,0.17c0.44-0.07,0.28,0.53,0.35,0.6
	c0.02-0.1,0.1-0.13,0.17-0.17c0.07,1.32,0.85,2.29,0.6,3.45c0.05,0.15,0.41-0.01,0.43,0.17c-0.01,0.1,0.01,0.24-0.09,0.26
	c0.06-0.19-0.32-0.36-0.34-0.17c0.24-0.04,0.08,0.32,0.26,0.35c0.02-0.07,0.07-0.1,0.17-0.09c-0.19,0.19,0.15,0.29,0.17,0.52
	c-0.12,0.05-0.21,0.13-0.26,0.26c0.31,0.24,0.29,0.8,0.6,1.04c-0.15-0.01-0.22,0.07-0.26,0.17c0.2,0.06,0.3,0.22,0.43,0.34
	c-0.2,0.18,0.16,0.57-0.17,0.78c0.51,0.25,0.83,1.47,0.43,1.98c0.59,0.03,0.06,0.72,0.52,0.78c-0.09,0.26-0.14,0.11-0.26,0
	c-0.03,0.12-0.12,0.17-0.09,0.35c0.22,0.11,0.27-0.34,0.34-0.09c-0.05,0.64,0.24,1.44,0.26,1.98c-0.05,0.12-0.33,0.01-0.35,0.17
	c0.06,0.17,0.48-0.02,0.52,0.17c-0.1,0.67,0.25,0.87,0.17,1.55c0.27-0.01,0.48,0.04,0.6,0.17c-0.2,0.29,0.27,0.61-0.17,0.78
	c0.3,0.04,0.37,0.18,0.52,0.17c-0.11,0.18-0.16,0.73-0.26,1.12c0.31,0.17,0.75,0.88,0.35,1.21c-0.12,1.14-0.14,3.1,0.78,3.88
	c0.12,0.11,0.49-0.02,0.52,0.26c0.1-0.21,0.35-0.28,0.43-0.52c-0.02,0.35-0.01,0.35,0.26,0.26c0.01,0.24-0.14,0.17,0,0.35
	c0.52,0.05,0.75-0.47,1.03-0.17c0.29-0.39,0.44-0.39,0.86-0.6c-0.06,0.17-0.3,0.37,0,0.43c0.06-0.31,0.25-0.39,0-0.6
	c0.16,0.15,0.44-0.07,0.69-0.09c0.26,0.15-0.23,0.27,0,0.35c0.35-0.56,1.17-1.26,2.07-1.29c-0.1-0.33,0.51-0.15,0.69-0.26
	c-0.22-0.53,1.09-0.53,1.55-0.86c0-0.12,0-0.23,0-0.35c0.57,0.17,0.87-0.65,1.29-0.69c-0.04-0.56,0.44-0.59,0.78-0.78
	c0-0.12-0.04-0.19-0.09-0.26c0.1-0.07,0.23-0.11,0.43-0.08c-0.02-0.25,0.02-0.3,0.17-0.17c0.04-0.27-0.26-0.2-0.17-0.52
	c0.62,0.12,0.01-0.49,0.69-0.34c0.01-0.4,0.1-0.86,0.43-0.69c0-0.12,0.04-0.19,0.09-0.26c-0.16-0.16-0.22-0.01-0.43,0
	c0.21-0.2-0.13-0.16-0.09-0.43c0.29-0.02,0.27-0.27,0.09-0.35c0.11-0.01,0.12-0.11,0.26-0.09c-0.06-0.34-0.23-0.58-0.35-0.86
	c0.09,0.32-0.29,0.17-0.35,0.34c0.11,0.24,0.54,0.15,0.52,0.52c-0.09,0-0.1,0.07-0.17,0.09c0.02-0.2-0.02-0.32-0.17-0.34
	c-0.04,0.17-0.57,0.28-0.69,0.08c0.23-0.37,0.31-1.19,0.95-1.38c-0.42-0.2,0.18-0.77,0.26-1.04c-0.19-0.04-0.31-0.15-0.35-0.34
	c0.17,0.18,0.23-0.06,0.26-0.26c-0.2-0.11-0.24-0.39-0.35-0.6c-0.13,0.12-0.23,0.29-0.43,0.35c0-0.09-0.07-0.1-0.09-0.17
	c0.17-0.15,0.31-0.32,0.52-0.43c-0.28-0.37-0.06-1.39,0.17-1.9c0.06,0.23,0.26,0.32,0.43,0.43c-0.46-0.31-0.1-1.05-0.17-1.38
	c0.17,0,0.11,0.24,0.34,0.17c-0.26-0.34,0.11-0.72,0.26-1.12c0.07,0.13,0.13-0.02,0.34,0.09c0.43-1.17,0.12-2.79,0.09-4.31
	c-0.11-0.09-0.26-0.14-0.35-0.26c0.13-0.02,0.31-0.42,0.09-0.52c0,0.26-0.08,0.44-0.26,0.52c-0.14-0.23-0.37-0.35-0.52-0.34
	c0.12-0.13,0.18-0.34,0.26-0.52c-0.5,0.07-0.02-0.29-0.26-0.43c-0.42,0.32-0.35-0.25-0.6,0.09c0.22-0.02,0.21,0.19,0.35,0.26
	c-0.34,0.05-0.3-0.27-0.52-0.35c0.23-0.14,0.33-0.2,0.52,0c0.1-0.27-0.14-0.21-0.17-0.34c0.47,0.02,0.38-0.25,0.95-0.26
	c0-0.12,0-0.23,0-0.34c-0.41,0.31-1.18,0.77-1.55,0.34c0.12-0.12,0.29,0.03,0.34,0c0.78-0.42,0.08-0.29-0.34-0.34
	c0.22,0.01,0.27-0.13,0.34-0.26c-0.23-0.11-0.32-0.23-0.43-0.26c-0.08-0.28,0.28-0.12,0.26-0.35c-0.34,0.08-0.69,0.26-0.95-0.09
	c0.16-0.22,0.45,0.18,0.52-0.17c-0.05-0.01-0.1-0.01-0.09-0.09c0-0.05-0.01-0.1-0.09-0.09c-0.02,0.1-0.1,0.13-0.17,0.17
	c0.13-0.2,0.18-0.16,0.09-0.43c-0.39,0.03-0.35,0.29-0.17,0.52c-0.36-0.1-0.15,0.36-0.35,0.43c-0.36-0.25-0.13-0.24-0.43-0.43
	c0.01-0.15-0.02-0.27-0.09-0.34c0.15-0.01,0.27,0.02,0.35,0.09c-0.15-0.31-0.18-0.38,0.09-0.6c-0.01,0.22,0.13,0.27,0.26,0.34
	c0.23-0.29-0.12-0.58-0.17-0.86c-0.14,0.49-0.47,0.25-0.6,0.69c0.03-0.17-0.12-0.17-0.17-0.26c0.29,0.1,0.07-0.36,0-0.43
	c-0.13,0.25,0.1,0.32-0.17,0.43c-0.17-0.09-0.37-0.15-0.43-0.34c0.39,0.04,0.01-0.75,0.17-0.86c-0.2-0.02-0.69,0.08-0.95,0.26
	c0.22-0.19-0.07-0.48-0.26-0.26c-0.03-0.2-0.18-0.37,0.09-0.43c0.06,0.2,0.22,0.3,0.34,0.43c0.33-0.28,0.68-0.53,0.95-0.86
	c-0.27-0.36-0.19-0.02-0.6-0.17c-0.04,0.21,0.16,0.19,0.09,0.43c-0.42,0.18-0.21-0.1-0.35-0.26c-0.09,0.08-0.03,0.32-0.26,0.26
	c0.01-0.45,0.33-0.44,0.43-0.6c-0.24-0.18-0.98-0.3-0.95-0.09c0.11,0,0.12-0.11,0.26-0.09c-0.21,0.2,0.13,0.23,0.17,0.43
	c-0.21,0.16-0.63-0.17-0.69,0.26c-0.22-0.15-0.29-0.46-0.6-0.52c0.16-0.24,0.34-0.47,0.78-0.43c0.07-0.24-0.12-0.22-0.09-0.43
	c0.25-0.12,0.44,0.23,0.52,0c-0.23-0.06-0.33-0.25-0.52-0.35c0,0.29-0.34,0.23-0.52,0.35c0.06,0.37-0.1,0.53-0.26,0.69
	c-0.51-0.09-0.59-0.23-0.86,0.17c0.07-0.74-0.53-0.27-0.52-0.95c-0.42,0.05-0.33,0.17-0.69,0.17c0.07-0.24-0.12-0.22-0.09-0.43
	c-0.2-0.03-0.33,0.01-0.43,0.09c0-0.09,0-0.17,0-0.26c-0.24-0.07-0.22,0.12-0.43,0.09c0.16-0.16-0.05-0.16,0-0.43
	c-1.04-0.31-2.09-1.07-3.19-1.03c0.05,0,0.1,0.07,0,0.08c-0.07-0.19-0.18-0.33-0.17-0.6c-0.15,0-0.27,0.02-0.34,0.09
	c-0.05-0.38-0.32-0.54-0.78-0.52c-0.11-0.22,0.04-0.27-0.09-0.34c-0.43,0.16-0.87-0.41-1.21-0.09c0-0.12-0.04-0.19-0.09-0.26
	c-0.36,0.28-0.44-0.15-0.6,0.26c-0.1-0.27-0.01-0.2,0-0.52c-0.34,0.29-0.81,0.05-0.95,0.43c0.01-0.21,0.01-0.42-0.09-0.52
	c-0.58,0.19-1.17-0.07-1.72-0.09c0,0.09,0,0.17,0,0.26C21.58,31.41,21.9,31.4,21.73,31.92z M40.1,47.09
	c0.29-0.06,0.11,0.35,0.43,0.26c0.07-0.36-0.11-0.47-0.26-0.6C40.33,46.99,40.1,46.92,40.1,47.09z M31.3,32.26
	c-0.01-0.28-0.11-0.46-0.34-0.52C30.88,32.11,31.1,32.18,31.3,32.26z M33.46,33.3c-0.56-0.5-0.96-1.16-2.07-1.12
	c0.03,0.57,0.6,0.61,0.95,0.86c0.04,0.27-0.18,0.28-0.43,0.26c0.1-0.25,0.05-0.32-0.17-0.43c-0.01,0.13,0.03,0.32-0.09,0.35
	c-0.09-0.08-0.03-0.32-0.26-0.26c-0.04,0.21,0.16,0.19,0.09,0.43c0.13,0.01,0.32-0.03,0.35,0.09c-0.1,0.01-0.25-0.01-0.26,0.09
	c0.37,0.1,1.04,1.01,1.03,0.26c-0.04,0.11-0.11,0.18-0.26,0.17c0.08-0.36,0.06-0.57,0.43-0.78c0.01,0.15-0.02,0.27-0.09,0.34
	C32.98,33.49,33.52,33.24,33.46,33.3z M33.54,34.42c0.47-0.06,0.05,0.28,0.26,0.34c0.02-0.1,0.1-0.05,0.17,0
	c-0.01-0.15,0.02-0.27,0.09-0.34C34.04,34.29,33.28,34.29,33.54,34.42z M33.28,34.33c-0.08,0.12-0.29,0.11-0.35,0.26
	c0-0.15-0.07-0.22-0.17-0.26c-0.02,0.1-0.1,0.05-0.17,0c0.13,0.39,0.51,0.73,0.78,0.52c-0.21-0.06,0.13-0.26,0.17-0.34
	C33.42,34.49,33.4,34.36,33.28,34.33z M34.84,35.28c0.15-0.08,0.46,0,0.43-0.26C35.02,35.01,34.8,35.01,34.84,35.28z M4.14,36.4
	c0.24-0.05,0.48-0.09,0.43-0.43C4.19,35.88,3.99,36.23,4.14,36.4z M4.57,36.4c0.2,0.03,0.37,0.18,0.43-0.08
	c-0.4,0.08-0.07-0.56-0.43-0.52C4.66,36.04,4.66,36.16,4.57,36.4z M5,36.75c0.27-0.1,0.23-0.04,0.43,0.08
	c0.03-0.2,0.1-0.35,0.17-0.52c-0.12-0.03-0.16-0.12-0.34-0.09C5.42,36.65,4.97,36.46,5,36.75z M39.49,41.83
	c0.22-0.09,0.41,0.26,0.52,0c-0.13-0.01-0.08-0.21-0.09-0.34C39.71,41.54,39.48,41.56,39.49,41.83z M39.75,47.27
	c-0.02,0.28,0.15,0.36,0.09,0.69c0.52,0.42,0.21,0.92,0.09,1.55c0.27-0.04,0.19,0.26,0.52,0.17c-0.01-0.36-0.17-0.77,0.26-0.6
	c0-0.12,0-0.23,0-0.34c-0.22-0.01-0.44-0.02-0.43-0.26c0.2,0.03,0.32-0.02,0.34-0.17c-0.05-0.15-0.26-0.14-0.34-0.26
	c0.08-0.21,0.48-0.09,0.43-0.43C40.21,47.53,40.42,47.45,39.75,47.27z M40.18,52.87c-0.23,0.02-0.28,0.18-0.26-0.17
	c-0.21-0.01-0.36,0.04-0.43,0.17C39.7,52.92,40.12,53.19,40.18,52.87z M37.42,59.6c0.3,0.01,0.27-0.3,0.43-0.43
	c-0.34,0.11-0.18-0.28-0.52-0.17C37.43,59.33,37.29,59.35,37.42,59.6z M36.65,60.37c0.01-0.19,0.37-0.04,0.52-0.09
	c0.01-0.42-0.28-0.62,0-0.86c-0.16,0.02-0.19-0.1-0.34-0.09C36.73,59.66,36.5,59.99,36.65,60.37z M36.73,60.98
	c-0.2,0.04,0.2-0.47-0.09-0.52c-0.02,0.13-0.21,0.08-0.35,0.09c0.08,0.25,0.13,0.32,0.17,0.43c0-0.05,0.01-0.1,0.09-0.09
	C36.58,60.98,36.7,61.1,36.73,60.98z M32.85,61.75c0.27-0.04,0.34,0.12,0.52,0.17C33.35,61.69,32.93,61.42,32.85,61.75z"/>
<path fill-rule="evenodd" d="M106.49,20.8c0.11,0.23,0.23,0.5,0.78,0.43c-0.32,0.22-0.98,0.11-0.95,0.69
	c-0.12-0.11-0.13-0.33-0.26-0.43c-0.19,0.14-0.55,0.28-0.52-0.17c-0.23,0.03-0.3,0.22-0.52,0.26c0.12-0.41,0.45-0.83,0-1.21
	c0.29-0.24,0.67,0.37,0.95,0.17c0,0.29-0.34,0.23-0.52,0.35c-0.01,0.15,0.11,0.18,0.09,0.34c0.17-0.06,0.2-0.26,0.34-0.34
	C106.05,21.1,106.42,21.1,106.49,20.8z"/>
<path fill-rule="evenodd" d="M103.73,22.18c-0.14-0.13,0.03-0.34,0.09-0.52c0.3-0.15,0.44,0.29,0.52,0.09
	C104.49,21.91,103.98,22.13,103.73,22.18z"/>
<path fill-rule="evenodd" d="M97.52,23.9c-0.02-0.19,0.07-0.27,0.26-0.26c0.19,0.18-0.07,0.28,0.09,0.43
	c0.16-0.07,0.06-0.26,0.26-0.09c-0.02,0.09-0.17,0.06-0.17,0.17C97.75,24.13,97.79,23.86,97.52,23.9z"/>
<path fill-rule="evenodd" d="M35.87,38.82c-0.08-0.15-0.27-0.19-0.43-0.26c0.07-0.08,0.09-0.19,0.09-0.34
	C35.85,38.21,35.82,38.55,35.87,38.82z"/>
<path fill-rule="evenodd" d="M36.39,39.16c-0.18-0.2,0.4,0.4,0,0.52c0.29,0.16,0.56,0.22,0.52,0.52c0.22-0.04,0.26-0.26,0.52-0.26
	c-0.08,0.37,0.14,0.44,0.34,0.52c0.04,0.17-0.51,0.23-0.09,0.26c-0.01,0.16-0.28,0.06-0.26,0.26c0.05,0.26,0.19,0.44,0.52,0.43
	c-0.1,0.13-0.07,0.38-0.34,0.35c0.05,0.26,0.19,0.44,0.52,0.43c-0.1,0.11-0.08,0.18,0.09,0.17c-0.24,0.26-0.05,0.68,0.17,1.21
	c0.04,0.09,0.25,0.14,0.26,0.17c0.03,0.09-0.18,0.07-0.17,0.09c0.11,0.66,0.46,1.25,0.6,1.98c-0.07,0.04-0.14,0.09-0.26,0.09
	c0.24,0.4-0.05,0.75,0.17,1.03c-0.06,0.19-0.4,0.29-0.52,0.17c0.02,0.15,0.15,0.2,0.35,0.17c-0.26,0.37,0.04,0.5-0.09,0.95
	c-0.38-0.17-0.71,0.24-1.04-0.17c0.41,0.04-0.24-0.49,0.17-0.69c-0.26-0.27-0.34-0.51-0.26-0.95c-0.02-0.15-0.15-0.2-0.35-0.17
	c0,0.14-0.23,0.2-0.26,0.52c-0.27-0.29-0.31-0.61,0.17-0.69c0.01-0.47-0.17-0.67-0.26-1.21c0.07,0.02,0.09,0.09,0.17,0.09
	c-0.51-1.05,0.11-1.29-0.34-2.16c0.2,0.03,0.33-0.01,0.43-0.09c-0.04-0.19-0.42-0.04-0.6-0.09c0.01-0.22-0.19-0.21-0.26-0.34
	c0.08-0.25,0.13,0.2,0.35,0.09c0.12-0.06,0.16-0.19,0.17-0.35c-0.04-0.13-0.11,0.03-0.26,0c0.25-0.35-0.09-0.12,0.26-0.6
	c-0.42-0.51-0.14-1.57-0.78-2.07C35.98,39.1,36.45,39.4,36.39,39.16z"/>
<path fill-rule="evenodd" d="M31.82,35.63c0.01-0.16,0.32,0.07,0.43,0.09c-0.08,0.25-0.08,0.26,0,0.52
	C31.93,36.04,32.06,35.74,31.82,35.63z"/>
<path fill-rule="evenodd" d="M97.35,36.23c0.08,0,0.07,0.11,0.09,0.17c0.15,0.01,0.18-0.11,0.34-0.08
	c-0.03,0.17-0.23,0.17-0.26,0.34c-0.08,0-0.07-0.11-0.09-0.17c-0.07-0.02-0.08,0.03-0.09,0.09C97.13,36.55,97.47,36.43,97.35,36.23z
	"/>
<path fill-rule="evenodd" d="M33.2,36.58c0.2-0.04,0.34,0.21,0.69,0.26c-0.11,0.27-0.18,0.04-0.43,0.17
	c0.1-0.18-0.14-0.41-0.17-0.17c-0.13-0.04,0.01-0.07,0-0.17C33.3,36.59,33.25,36.58,33.2,36.58z"/>
<path fill-rule="evenodd" d="M101.32,44.16c-0.23,0.06-0.17-0.17-0.34-0.17c-0.08,0.04-0.15,0.08-0.17,0.17
	c0.39-0.02-0.34,0.12,0.09-0.35c0.11,0.12,0.37,0.09,0.6,0.09C101.46,44.02,101.34,44.04,101.32,44.16z"/>
<path fill-rule="evenodd" d="M53.81,49.34c0.02-0.1,0.09-0.05,0.09,0c0.11-0.04,0.18-0.11,0.17-0.26c0.08,0.06,0.13,0.16,0.17,0.26
	c0.07,0.01,0.08-0.03,0.09-0.09c0.18,0.03-0.09,0.3-0.26,0.26c0.24,0.18-0.01,0.32,0.26,0.43c0.16,0.23-0.3-0.14-0.43-0.17
	C53.92,49.57,54.08,49.4,53.81,49.34z"/>
<path fill-rule="evenodd" d="M32.68,53.73c0.13-0.14,0.38-0.38,0.6-0.17C33.17,53.59,33,53.71,32.68,53.73z"/>
<path fill-rule="evenodd" d="M30.27,54.86c0.09,0.05,0.02,0.48,0.43,0.43c-0.14,0.17-0.29,0.34-0.6,0.34
	c0.08-0.15,0.38-0.14,0.17-0.34c-0.27-0.01-0.71,0.26-0.52,0.43c-0.06,0.29-0.29-0.38-0.34-0.09
	C29.26,55.03,30.44,55.46,30.27,54.86z"/>
<path fill-rule="evenodd" d="M35.78,55.2c0.08-0.1,0.35-0.09,0.6,0c0,0.08-0.1,0.07-0.17,0.09c-0.02,0.07,0.03,0.08,0.09,0.09
	c-0.15,0.33-0.14-0.19-0.26-0.17c-0.1,0.01-0.07,0.16-0.09,0.26c-0.17-0.14-0.11,0.01-0.35,0C35.6,55.34,36.05,55.29,35.78,55.2z"/>
<path fill-rule="evenodd" d="M29.14,55.89c-0.09,0.17-0.38,0.14-0.34,0.43c-0.3-0.12,0.05-0.56-0.26-0.52
	c0.03-0.11,0.15-0.14,0.17-0.26C28.99,55.71,28.67,56.09,29.14,55.89z"/>
<path fill-rule="evenodd" d="M28.28,55.72c0.2,0.04-0.33,0.37,0.09,0.43c-0.15,0.08-0.19,0.01-0.09,0.34
	c-0.08-0.07-0.2-0.09-0.35-0.08c0.15-0.18,0.19-0.26,0.09-0.52C28.09,55.82,28.26,55.84,28.28,55.72z"/>
<path fill-rule="evenodd" d="M13.88,56.58c0.15,0.02,0.43-0.09,0.34,0.17c-0.13-0.14-0.36,0-0.43,0.17
	C13.56,57.09,13.9,56.73,13.88,56.58z"/>
<path fill-rule="evenodd" d="M26.9,56.84c0.07-0.13,0.22-0.19,0.43-0.17c0,0.09,0,0.17,0,0.26c-0.32-0.09-0.25,0.21-0.52,0.17
	c-0.02-0.15,0.08-0.18,0.09-0.08C27.01,56.99,26.99,56.84,26.9,56.84z"/>
<path fill-rule="evenodd" d="M14.66,57.01c0-0.08-0.11-0.07-0.17-0.09c0.02-0.12,0.71-0.2,0.6,0.09c-0.07,0.02-0.08-0.03-0.09-0.09
	c-0.08,0.25-0.29,0.06-0.34,0.17C14.56,57.08,14.61,57.01,14.66,57.01z"/>
<path fill-rule="evenodd" d="M30.09,57.7c0.02-0.1,0.09-0.05,0.09,0c0.21,0.04,0.19-0.16,0.43-0.08c-0.09,0.32,0.29,0.17,0.35,0.34
	c0.14,0.16-0.52-0.23-0.6,0C30.19,57.95,30.29,57.68,30.09,57.7z"/>
<path fill-rule="evenodd" d="M19.4,58.82c0.1,0.02,0.05,0.09,0,0.09c0.03,0.08,0.23,0.38,0.26,0.17c0.27,0.14-0.18,0.27-0.17,0.43
	c0.02,0.09,0.17,0.06,0.17,0.17c0.13-0.47,0.38,0.01,0.69-0.17c0.18,0.28,0.24,0.68,0.69,0.69c-0.26,0.31,0.06,0.18,0,0.69
	c-0.1-0.13-0.22-0.24-0.35-0.34c-0.06,0.03-0.16,0.49,0,0.69c0.08-0.06,0.13-0.16,0.17-0.26c0.52,0.15-0.26,0.4-0.09,0.43
	c-0.1,0.36-0.28-0.39-0.26,0.09c-0.05-0.24-0.31-0.27-0.52-0.34c-0.01-0.21,0.14-0.27,0.17-0.43c-0.15-0.18-0.36-0.2-0.52-0.09
	c-0.27,0.03,0.22-0.25-0.09-0.26c0.01-0.1,0.16-0.07,0.26-0.09c0.09-0.02,0.06-0.17,0.17-0.17c-0.19-0.01-0.43-0.26-0.69,0
	c-0.08-0.29-0.02-0.85-0.09-1.12C19.25,58.9,19.4,58.94,19.4,58.82z"/>
<path fill-rule="evenodd" d="M35.78,58.82c0.2,0.31-0.3,0.14-0.34,0.52C35.25,59.2,35.66,58.94,35.78,58.82z"/>
<path fill-rule="evenodd" d="M111.66,60.89c-0.28-0.08-0.27,0.13-0.34,0.26c-0.24-0.11,0.11-0.34,0.17-0.43
	c0.26,0.04,0.54,0.64,0.69,0.26c-0.15,0.34-0.15,0.36-0.86,0.52c0.01-0.32,0.12-0.22,0.34-0.17
	C111.66,61.18,111.66,61.04,111.66,60.89z"/>
<path fill-rule="evenodd" d="M20.87,61.93c-0.03-0.12-0.15-0.01-0.17,0.08c-0.13-0.05,0.11-0.46,0.43-0.34
	c0.04,0.21-0.16,0.19-0.09,0.43c-0.09,0-0.17,0-0.26,0C20.77,62,20.8,61.94,20.87,61.93z"/>
</svg>
