<?xml version="1.0" encoding="utf-8"?>
<!-- Generator: Adobe Illustrator 15.0.1, SVG Export Plug-In  -->
<!DOCTYPE svg PUBLIC "-//W3C//DTD SVG 1.1 Tiny//EN" "http://www.w3.org/Graphics/SVG/1.1/DTD/svg11-tiny.dtd" [
	<!ENTITY ns_flows "http://ns.adobe.com/Flows/1.0/">
]>
<svg version="1.1" baseProfile="tiny"
	 xmlns="http://www.w3.org/2000/svg" xmlns:xlink="http://www.w3.org/1999/xlink" xmlns:a="http://ns.adobe.com/AdobeSVGViewerExtensions/3.0/"
	 x="0px" y="0px" width="151px" height="170px" viewBox="-0.64 -0.94 151 170" overflow="visible" xml:space="preserve">
<defs>
</defs>
<g>
	<path d="M24.15,0C9.05,6.9,4.46,22.25,1.12,37.17c-2.86,12.81-0.77,29.13,12.13,35.68c8.65,4.39,19.22,1.81,27.83-1.13
		c13.48-4.59,25.5-12.75,38.2-19.02c17.31-8.55,49.14-28.72,65.02-7.77c2.74,3.61,3.99,8.18,3.36,12.66
		c0.38-1.62,0.75-3.25,1.12-4.87c-0.09,0.38-0.19,0.77-0.28,1.15c0.41-1.62,0.81-3.23,1.22-4.85c-2.59,7.42-9.09,9.4-16.24,7.88
		c-4.71-1-12.04-4.53-11.46-10.33c-0.66,2.77-1.31,5.54-1.97,8.31c0.06-0.24,0.12-0.48,0.18-0.72c-0.13,0.47-0.25,0.94-0.38,1.42
		c0.47-1.14,1.09-1.97,1.94-2.86c2.02-2.11,0.38-7.66,2.35-9.72c-2.5,2.62-2.84,6.31-3.65,9.72c-0.85,3.57-1.38,6.01,1.26,8.98
		c5.18,5.83,16.43,7.68,22.37,2.38c3.2-2.86,3.8-7.4,4.75-11.34c1.12-4.65,1.84-8.45,0.17-13.13
		c-4.11-11.56-16.79-14.34-27.63-12.82c-12.35,1.73-23.76,8.27-34.75,13.75C74.29,46.71,62.34,53.9,49.7,59.52
		c-15.52,6.9-36.83,10.54-44.91-8.35c-1.66-3.88-2.3-8.15-2.46-12.34c-0.08-2.08,0.06-4.16,0.27-6.23c0.27-2.56,2.05-8-0.66,1.52
		c0.4-1.42,0.92-2.8,1.46-4.17c3.43-8.73,9.81-16.31,18.41-20.23C23.73,8.84,22.33,0.83,24.15,0L24.15,0z"/>
</g>
<g>
	<path d="M57.43,34.48c5.02-2.21,11.08-4.02,16.12-0.9c4.11,2.54-6.45-8.4-3.3-3.35c0.63,1.01,1.09,2.12,1.51,3.23
		c1.07,2.82,1.53,5.87,1.85,8.86c1.51,14.31-1.33,29.18-3.92,43.21c-3.01,16.28-6.13,32.3-2.56,48.9
		c4.15,19.27,24.69,39.47,45.54,32.93c2.06-0.65,3.96-1.72,5.77-2.88c-0.47,0.3-6.31-7.62-6.91-7.23
		c-9.46,6.08-21.11,5.22-30.46-0.63c-1.74-1.09-3.89-3.9,0.13,1.01c-0.92-1.13-1.66-2.39-2.41-3.64c-1.71-2.85-2.89-5.98-3.9-9.13
		c-2.21-6.9-2.55-14.33-2.44-21.52c0.2-13.54,3.6-26.55,5.78-39.84c2.16-13.24,4.74-28.43,0.86-41.58
		c-1.71-5.77-6.43-10.12-10.68-14.13c-3.88-3.66-8.86-3.55-13.73-2.12c-1.42,0.42-2.79,1-4.14,1.59
		C51.5,26.82,56.33,34.96,57.43,34.48L57.43,34.48z"/>
</g>
</svg>
