<?xml version="1.0" encoding="utf-8"?>
<!-- Generator: Adobe Illustrator 15.0.1, SVG Export Plug-In  -->
<!DOCTYPE svg PUBLIC "-//W3C//DTD SVG 1.1 Tiny//EN" "http://www.w3.org/Graphics/SVG/1.1/DTD/svg11-tiny.dtd" [
	<!ENTITY ns_flows "http://ns.adobe.com/Flows/1.0/">
]>
<svg version="1.1" baseProfile="tiny"
	 xmlns="http://www.w3.org/2000/svg" xmlns:xlink="http://www.w3.org/1999/xlink" xmlns:a="http://ns.adobe.com/AdobeSVGViewerExtensions/3.0/"
	 x="0px" y="0px" width="274px" height="745px" viewBox="-0.4 -0.23 274 745" overflow="visible" xml:space="preserve">
<defs>
</defs>
<path fill="#1B262B" d="M99.43,14.1c-11.83-8-44.24-2.67-43.83,11.33c0.16,5.5,0.77,8.11,0,8.67c-4,2.92-10.12-6.23-5.88-0.45
	c2.43,3.3,3.19,2.14,3.5,4.12c0.62,2.38-1.85,3.92-3.25,4.62c-4.07,2.05-9.12,2.62-12.5,2.62c6.26,3.74,9.45,7.12,5.62,7.12
	c-2.42,0-1.14,2.68,0.12,3.38c5.04,2.75-1.92,0-2.38,3.12c-0.47,3.23,2.08,1.04,1.75,4.38c-0.75,5.67-5.43,12.88-3.92,13.5
	c8.75,3.58,23.21-3.6,30.83,0.83c5.58,3.25,11.02,31.58,1.75,42.08c-25.12,28.46-39.83,23.64-42.04,28.96
	c-7.12,17.12,5.46,22.6,7.38,29.04c1.56,5.25-1.09,8.08-12.5,29.54c-12.25,23.04-9.34,49.81-7.55,69.51
	c5.76,63.27,7.47,128.87,7.47,160.37c15.17,11.92,191.91,136.66,225.08,160.42c7.82,5.6,16.44,7.91,14,24
	c-1.25,8.25,7.17,0.08,9.63-20.87c0.33-2.79-11.73-7.6-19.54-9.91c-19.59-5.79-18.09-20.22-20.09-26.22
	c-3.97-11.9-12.5-11.5-22.5-9.75c-11.14,1.95-41.32-24.06-90-83.08c-39.23-47.55-67.77-36.15-71.17-47.83
	c-6.05-20.83-0.15-49.67,10.85-48.34c-16.35,19.17,4.87,62.68,13.59,97c15.38,60.51,41.3,155.26,35.97,195.26
	s-7.92,32.02-7.92,42.58c0,14.5-3.66,21.83-12.75,24.58c-9.93,3.01,4.92,6.08,16.67,6.08c15.25,0-0.9-14.97,5-31
	c11.5-31.25,26.45-25.67,30.19-39.06c3.47-12.42-13.49-11.61-18.44-26.69c-4.28-13.05-13-76.9-18-143.92
	c-3.32-44.49,5.29-53.95-10-101.33c-5-15.5,6-25,8.67-97.96c0.71-19.53-15.53-35.57-24.67-44.71
	c-15.97-15.97-19.07-22.17-21.67-27.67c-6.58-13.92,20.79-32.43,47.67-49.92c30.75-20,25.52-47.69,15.88-53.38
	C83.35,103.27,84.9,75.61,90.35,72.27C146.6,37.77,99.43,14.1,99.43,14.1z"/>
<path fill="#1B262B" d="M92.43,157.1c18,0.83,33.64,10.17,43.5,27.67c13.21,23.45,15.84,30.83,24.67,48.67
	c-44.16,19.5-38.83,26.83-66.99,39.64c-26.03,11.84-50.52,27.38-56.5,33.36c-6.67,6.67,10.83,4.67,10.83,15.17
	c11.54,0,22,4.5,22,4.5c-1.41-8.08-12.96-16.55-17-17.83c-9.27-2.96,28.19-17.42,39.82-22.29c35.25-14.75,76.1-31.71,83.1-38.71
	c2.96-2.96,8.58-10.06,5.08-16.83c-25.33-49-23.73-79.27-50-109.54c-16.41-18.9-32.33-10.92-40.83-6.88
	C75.62,120.9,76.4,156.36,92.43,157.1z"/>
<path fill="#97A62A" d="M14.96,253.9c-1.78,31.14,66.45,10.03,57.95-3.64c35.83,29.01,34.43,51.32,28.8,92.89
	c-6.73,49.67,28.89,99.61,62.89,80.61c-33.33,28.67-53.35-11.13-77.5-12c-69.67-2.5-77.02,23.02-76,14.5
	c4.33-35.99,11.65-49.79,8.19-91.47C17.3,310.73,9.33,274.2,14.96,253.9z"/>
<path fill="#97A62A" d="M5.1,214.27c9.5-1.5,17.73-4.77,27.88,5.38c10.12,10.12,21.46,13.79,27.71,10.21
	c-1.58-5.83-10.71-14.42,32.17-41.77c19.53-12.46,29.65-23.82,27-24.82c-17-6.42-25.84-15.29-18.92-38
	c2.05-6.73,4.07-11.4,6.5-16.27c0.86-1.72-5.55-0.26-5.55,0.65c0,9.4-4.54,16.53-25.25,32.58c-9.17,23.33-46.04,59.57-43.04,55.53
	c18.33-24.66,12.52-37.37,20.5-50.5c16.37-26.94,23.5-29.83,21.1-35.4c-23.68,31.99-38.07,29.61-44.26,33.07
	c-2.84,1.59-11.92,16.08,3.83,31.83C22.43,203.93,5.1,214.27,5.1,214.27z"/>
<path fill="#97A62A" d="M87.12,735.48c-15.73,0-20.6,1.53-3.94,5.12c14.67,3.17,27.64,4.38,32.25,1.83
	c2.69-1.48,1.43-13.65-0.33-18.08c-3.75-9.42,8.81-30.81,16.25-38.25c6.24-6.24,8.21-2.21,11.75,2.96
	c6.36,9.28,13.39,25.75,17.25,32.52c0.6,1.05,2.01,0.34,1.25-1.44c-20.33-47.46-14.81-50.02-15.75-57.29
	c-0.62-4.83-17.21-9.36-14.87-7.46c8.5,6.9,15.75,10.75,5.15,22.8c-5.93,6.74-15.66,6.27-24.76,30.19
	c-2.4,4.77-3.06,11.21-1.51,15.14c8.36,21.12-4.67,17.84-12.94,16.73C81.18,738.12,87.12,735.48,87.12,735.48z"/>
<path fill="#1B262B" d="M92.75,285.98c2.58-1.08,5.2-2.18,7.83-3.28c-1.33-3.75-3.13-7.23-5.35-10.38c-0.53,0.25-1.07,0.5-1.63,0.75
	c-26.03,11.84-50.52,27.38-56.5,33.36c-6.67,6.67,10.83,4.67,10.83,15.17c11.54,0,22,4.5,22,4.5c-1.41-8.08-12.96-16.55-17-17.83
	C43.66,305.3,81.12,290.84,92.75,285.98z"/>
<path fill="#1B262B" d="M53.22,316.77c10.12,3,4.34,10.86,10.38,18.93c7.89,10.55,10.02,30.12,5.31,19
	c-6.06-14.31-6.23-13.44-9.06-18.31c-0.5,14.62,11.38,20.21,9.38,29.5c-1,4.62-0.85-2.51-5.38-9.25c-4.62-6.88-5.5-7.5-9.12-17.25
	C47.24,319.26,53.22,316.77,53.22,316.77z"/>
<path fill="#1B262B" d="M44.29,309.45c-11.94,0.56,0.71,4.7,5.44,19.44c3.25,10.12-2.04,16.89,2,19.88
	c4.97,3.67,12.36,10.94,11.36,9.17c-9.09-15.98-10.88-8.95-7.92-20.86c4.51-18.13,5.62-16.76-0.44-23.06
	C49.58,308.66,44.29,309.45,44.29,309.45z"/>
<path fill="#1B262B" d="M56.8,322.4c5.79,2.74,14.41,6.66,17.29,11.87c3.38,6.1,16.26,4.25,10.25,2.25
	c-14.98-4.98-15.5-16.38-23.5-19.25S56.8,322.4,56.8,322.4z"/>
<path fill="#A1551B" d="M75.6,4.77c18.83-10.67,43.33-3.04,53.33,19c8.79,19.38,11.57,51.2,43.67,55.25c23.75,3,22.08-12.25,43-8
	c10.47,2.13,28.03,21.78,16.67,35.42c-9.53,11.44-20.92-1.58-15.17-7.33c-0.84,3.74,5.67,13.37,12.08,4.25
	c3.05-4.34-7.68-15.52-21.92-8.25c-11.45,5.85-29.84,12.11-37.83,11.67c-11.94-0.67-14.86-4.81-16.27-6.21
	c1.02,8.71,8.93,13.43,27.94,8.27c9.44-2.56,21.49,14.69,6.41,29.78c-14.07,14.07,7.17-4.42-3.08-14.67
	c-11.41-11.41-18.83,2.42-26.67,4.5c-13.17,3.5-16.87-9.1-15.49-1.33c1.58,8.92,14.49,11.67,7.79,25.04
	C126.1,103.6,113,109.77,98,109.77c-9.9,0-20.26-33.43-14.74-43c6.83-11.83,6.49-3.63,10.17-11.17c5.35-10.98-9.62-12.09-6.5-6
	c1.88,3.67-9.29-8.19-14.67-13.5c0,8.67,0.17,12.41,10,16.67c2.16,0.94-10.5,2.08-17.42-12.42c-4.6-9.65-2.14-11.31-6.92-16.08
	c-4.92-4.92-1.67,9.67,1.88,13.22c-8.33-3.72-10.48-14.99,0.56-24.23C71.09,4.29,75.6,4.77,75.6,4.77z"/>
<path fill="#A1551B" d="M65.33,76.02c10.35-2,14.93,28.75,7.94,38.39c-6.32,8.72-17.86,19.08-18.81,19.55
	c-6.2,3.11-23.91-29.25-40.2-27.86c-11.37,0.97-11.05,14.09-5.5,16.67c4.67,2.17-20.5-8-1.69-21.62
	c10.44-7.56,22.35,4.79,45.85-3.71C64.64,93.2,65.33,76.02,65.33,76.02z"/>
<path fill="#71521B" d="M106.6,289.27c45-3,66.5-5,106.7-51.06c10.08,43.59,5.8,66.77-28.2,80.31
	C146.77,333.78,106.6,289.27,106.6,289.27z"/>
<path fill="#C49F12" d="M106.6,289.27c47,7,85.5-10.5,107.5-50c12.83,40.83,26.46,88.47-8,108.5
	C147.6,381.77,106.6,289.27,106.6,289.27z"/>
<g>
	<path fill="#9F4718" d="M128.77,250.52c-0.07-0.11-0.14-0.23-0.2-0.34c-0.17,0.04-0.34,0.08-0.49,0.13L128.77,250.52z"/>
	<path fill="#9F4718" d="M141.93,245.93c-14.91-4.76-17.25-2.39-13.36,4.25c3.86-0.86,14.62,1.6,27.26,8.48l0.02,0.01l-0.01,0
		c8.58,4.67,18.03,11.38,26.75,20.48c6.42,6.7,11,0.88,6.5-3.62C189.1,275.52,173.68,256.06,141.93,245.93z"/>
	<path fill="#9F4718" d="M147.43,284.35c1.36-0.37,3.56-0.97,7.12-1.93c-4.78-5.98-9.68-11.67-14-16.78l-5.99,2.63
		C138.77,274.38,143.85,280.53,147.43,284.35z"/>
</g>
</svg>
