<?xml version="1.0" encoding="utf-8"?>
<!DOCTYPE svg PUBLIC "-//W3C//DTD SVG 1.1//EN" "http://www.w3.org/Graphics/SVG/1.1/DTD/svg11.dtd">
<svg version="1.1" id="Layer_1"
	 xmlns="http://www.w3.org/2000/svg" xmlns:xlink="http://www.w3.org/1999/xlink" x="0px" y="0px" width="432px" height="216px"
	 viewBox="0 0 432 216" enable-background="new 0 0 432 216" xml:space="preserve">
<switch>
	<g>
		<g>
			<rect fill="#0091BE" width="432" height="216"/>
			<g>
				<g>
					<path fill="#FFFFFF" d="M38.175,49.742l2.174-0.579L42.87,37.25l-1.92-0.532l0.186-0.855h8.119l-0.185,0.855l-2.175,0.579
						L44.374,49.21l1.92,0.532l-0.185,0.855h-8.12L38.175,49.742z"/>
					<path fill="#FFFFFF" d="M49.47,42.871c2.105-1.318,2.915-2.359,3.331-3.308l-0.161-0.208l-0.07,0.023
						c-0.046,0.022-0.185,0.046-0.277,0.046c-0.786,0-1.48-0.532-1.48-1.596c0-1.25,0.972-2.313,2.175-2.313
						s2.035,0.855,2.035,2.383c0,2.267-1.827,4.464-5.135,5.69L49.47,42.871z"/>
					<path fill="#FFFFFF" d="M58.223,50.713l0.277-0.855c-0.277-3.076-0.74-5.274-1.11-6.478c-0.254-0.763-0.462-0.994-0.948-0.994
						c-0.301,0-0.833,0.115-1.411,0.324l-0.347-0.532c1.318-1.411,2.545-2.429,3.886-2.429c0.926,0,1.435,0.347,1.781,1.202
						c0.439,1.064,0.902,3.262,1.064,6.686l0.186,0.046c0.994-1.041,1.758-2.082,2.382-3.284c-0.693-0.764-0.994-1.735-0.994-2.499
						c0-1.364,0.81-2.197,1.896-2.197c1.134,0,1.851,0.81,1.851,2.013c0,2.498-1.896,4.904-7.634,9.484L58.223,50.713z"/>
					<path fill="#FFFFFF" d="M74.091,48.701c0.879,0,1.828-0.324,2.753-0.856l0.417,0.439c-1.064,1.643-2.614,2.614-4.673,2.614
						c-3.03,0-4.58-1.851-4.58-4.164c0-3.979,3.215-6.985,6.731-6.985c2.267,0,3.562,1.133,3.562,2.613
						c0,2.521-3.192,3.794-7.103,3.679C71.223,47.914,72.264,48.701,74.091,48.701z M75.317,41.899c0-0.578-0.277-0.971-0.856-0.971
						c-1.133,0-2.775,1.781-3.169,4.048C74.392,44.652,75.317,43.357,75.317,41.899z"/>
					<path fill="#FFFFFF" d="M83.476,48.331c0-0.926,0.693-1.643,1.503-1.643c0.972,0,1.874,0.902,1.943,2.567
						c0.647,0.347,1.11,0.486,1.666,0.486c0.81,0,1.272-0.556,1.272-1.365c0-0.671-0.371-1.064-1.666-1.643l-0.995-0.439
						c-1.434-0.624-2.405-1.342-2.405-2.822c0-1.873,1.643-3.724,4.881-3.724c2.359,0,3.794,1.133,3.794,2.336
						c0,0.948-0.625,1.48-1.411,1.48c-1.064,0-1.92-1.041-2.082-2.406c-0.301-0.139-0.647-0.208-0.972-0.208
						c-0.786,0-1.272,0.625-1.272,1.272s0.394,0.995,1.597,1.55l0.994,0.463c1.527,0.717,2.452,1.411,2.452,2.915
						c0,1.734-1.411,3.747-4.673,3.747C85.465,50.898,83.476,49.903,83.476,48.331z"/>
					<path fill="#FFFFFF" d="M100.091,48.701c0.879,0,1.828-0.324,2.753-0.856l0.417,0.439c-1.064,1.643-2.614,2.614-4.673,2.614
						c-3.03,0-4.58-1.851-4.58-4.164c0-3.979,3.215-6.985,6.731-6.985c2.267,0,3.562,1.133,3.562,2.613
						c0,2.521-3.192,3.794-7.103,3.679C97.223,47.914,98.264,48.701,100.091,48.701z M101.317,41.899
						c0-0.578-0.277-0.971-0.856-0.971c-1.133,0-2.775,1.781-3.169,4.048C100.392,44.652,101.317,43.357,101.317,41.899z"/>
					<path fill="#FFFFFF" d="M111.091,48.701c0.879,0,1.828-0.324,2.753-0.856l0.417,0.439c-1.064,1.643-2.614,2.614-4.673,2.614
						c-3.03,0-4.58-1.851-4.58-4.164c0-3.979,3.215-6.985,6.731-6.985c2.267,0,3.562,1.133,3.562,2.613
						c0,2.521-3.192,3.794-7.103,3.679C108.223,47.914,109.264,48.701,111.091,48.701z M112.317,41.899
						c0-0.578-0.277-0.971-0.856-0.971c-1.133,0-2.775,1.781-3.169,4.048C111.392,44.652,112.317,43.357,112.317,41.899z"/>
					<path fill="#FFFFFF" d="M123.062,49.21c0-0.324,0.047-0.671,0.139-1.064l0.926-3.933c0.323-1.364,0.093-2.059-0.902-2.059
						c-0.555,0-1.295,0.277-2.151,0.81l-1.619,7.634h-3.4l1.734-8.166l-1.55-1.018l0.093-0.694l4.812-1.041l0.486,0.301l-0.671,1.99
						l0.231,0.046c1.572-1.411,2.799-2.267,4.232-2.267c2.175,0,2.707,1.989,2.151,4.279l-0.902,3.771
						c-0.277,1.18-0.185,1.295,1.643,1.411l0.116,0.602c-1.11,0.671-2.244,1.087-3.378,1.087
						C123.641,50.898,123.062,50.297,123.062,49.21z"/>
					<path fill="#FFFFFF" d="M136.071,47.151l1.11-5.229h-2.059l0.185-0.855l2.753-1.458l2.591-2.845l0.995,0.162l-0.717,3.4h3.169
						l-0.348,1.596h-3.169l-0.994,4.673c-0.278,1.272-0.231,1.688,0.022,1.943c0.255,0.254,0.718,0.439,1.99,0.439
						c0.416,0,0.74-0.023,1.087-0.046v0.832c-1.597,0.648-3.077,1.134-4.673,1.134C135.47,50.898,135.725,48.724,136.071,47.151z"/>
					<path fill="#FFFFFF" d="M150.878,49.21c0-0.324,0.046-0.671,0.139-1.064l0.925-3.933c0.324-1.364,0.093-2.059-0.901-2.059
						c-0.556,0-1.296,0.277-2.151,0.81l-1.62,7.634h-3.4l3.054-14.389l-1.665-1.018l0.092-0.694l5.021-1.04l0.485,0.3l-1.665,7.843
						l0.23,0.046c1.435-1.227,2.521-1.896,3.817-1.896c2.174,0,2.706,1.989,2.151,4.279l-0.902,3.771
						c-0.277,1.18-0.185,1.295,1.643,1.411l0.115,0.602c-1.11,0.671-2.243,1.087-3.377,1.087
						C151.456,50.898,150.878,50.297,150.878,49.21z"/>
					<path fill="#FFFFFF" d="M163.091,48.701c0.879,0,1.828-0.324,2.753-0.856l0.417,0.439c-1.064,1.643-2.614,2.614-4.673,2.614
						c-3.03,0-4.58-1.851-4.58-4.164c0-3.979,3.215-6.985,6.731-6.985c2.267,0,3.562,1.133,3.562,2.613
						c0,2.521-3.192,3.794-7.103,3.679C160.223,47.914,161.264,48.701,163.091,48.701z M164.317,41.899
						c0-0.578-0.277-0.971-0.856-0.971c-1.133,0-2.775,1.781-3.169,4.048C163.392,44.652,164.317,43.357,164.317,41.899z"/>
					<path fill="#FFFFFF" d="M46.822,68.755v9.336h9.453v6.752h-9.453v16.206h-8.396V61.944h21.372v6.811H46.822z"/>
					<path fill="#FFFFFF" d="M76.167,102.047c-7.398,0-12.8-4.462-12.8-10.979V61.944h8.514V90.95c0,2.642,1.526,4.109,4.286,4.109
						c2.818,0,4.404-1.468,4.404-4.109V61.944h8.161v29.123C88.732,97.585,83.624,102.047,76.167,102.047z"/>
					<path fill="#FFFFFF" d="M109.104,69.107v31.941h-8.396V69.107h-8.455v-7.163h25.248v7.163H109.104z"/>
					<path fill="#FFFFFF" d="M134.167,102.047c-7.398,0-12.8-4.462-12.8-10.979V61.944h8.514V90.95c0,2.642,1.526,4.109,4.286,4.109
						c2.818,0,4.404-1.468,4.404-4.109V61.944h8.161v29.123C146.732,97.585,141.624,102.047,134.167,102.047z"/>
					<path fill="#FFFFFF" d="M173.505,101.284c-3.405,0-4.697-2.35-4.697-5.989v-6.4c0-2.055-1.057-3.816-3.465-3.816h-4.521v15.971
						h-8.396V61.944h14.092c6.341,0,10.158,3.641,10.158,9.277v4.227c0,3.171-1.527,5.578-5.05,6.518
						c3.522,0.822,5.226,3.758,5.226,6.459v6.4c0,1.82,0.587,3.053,1.644,3.992v2.467H173.505z M168.572,71.69
						c0-1.938-0.821-3.17-2.994-3.17h-4.756v10.745h4.403c2.173,0,3.347-1.116,3.347-3.465V71.69z"/>
					<path fill="#FFFFFF" d="M182.426,101.049V61.944h21.783v7.046h-13.387v8.572h9.218v6.341h-9.218v9.806h13.387v7.34H182.426z"/>
					<path fill="#FFFFFF" d="M38.175,131.369l2.174-0.579l2.521-11.913l-1.92-0.532l0.186-0.855h8.119l-0.185,0.855l-2.175,0.579
						l-2.521,11.913l1.92,0.532l-0.185,0.855h-8.12L38.175,131.369z"/>
					<path fill="#FFFFFF" d="M50.071,128.778l1.11-5.229h-2.059l0.185-0.855l2.753-1.458l2.591-2.845l0.995,0.162l-0.717,3.4h3.169
						l-0.348,1.596h-3.169l-0.994,4.673c-0.278,1.272-0.231,1.688,0.022,1.943c0.255,0.254,0.718,0.439,1.99,0.439
						c0.416,0,0.74-0.023,1.087-0.046v0.832c-1.597,0.648-3.077,1.134-4.673,1.134C49.47,132.525,49.725,130.351,50.071,128.778z"/>
					<path fill="#FFFFFF" d="M58.47,124.498c2.105-1.318,2.915-2.359,3.331-3.308l-0.161-0.208l-0.07,0.023
						c-0.046,0.022-0.185,0.046-0.277,0.046c-0.786,0-1.48-0.532-1.48-1.596c0-1.25,0.972-2.313,2.175-2.313
						s2.035,0.855,2.035,2.383c0,2.267-1.827,4.464-5.135,5.69L58.47,124.498z"/>
					<path fill="#FFFFFF" d="M63.476,129.958c0-0.926,0.693-1.643,1.503-1.643c0.972,0,1.874,0.902,1.943,2.567
						c0.647,0.347,1.11,0.486,1.666,0.486c0.81,0,1.272-0.556,1.272-1.365c0-0.671-0.371-1.064-1.666-1.643l-0.995-0.439
						c-1.434-0.624-2.405-1.342-2.405-2.822c0-1.873,1.643-3.724,4.881-3.724c2.359,0,3.794,1.133,3.794,2.336
						c0,0.948-0.625,1.48-1.411,1.48c-1.064,0-1.92-1.041-2.082-2.406c-0.301-0.139-0.647-0.208-0.972-0.208
						c-0.786,0-1.272,0.625-1.272,1.272s0.394,0.995,1.597,1.55l0.994,0.463c1.527,0.717,2.452,1.411,2.452,2.915
						c0,1.734-1.411,3.747-4.673,3.747C65.465,132.525,63.476,131.53,63.476,129.958z"/>
					<path fill="#FFFFFF" d="M79.632,129.772l1.388-5.714l-1.734-1.018l0.093-0.694l5.158-1.041l0.485,0.301l-1.896,7.819
						c-0.301,1.203-0.231,1.295,1.827,1.411l0.116,0.602c-1.342,0.74-2.359,1.087-3.562,1.087
						C79.562,132.525,79.216,131.484,79.632,129.772z M81.991,117.767c0-1.226,0.972-2.683,2.406-2.683
						c0.925,0,1.619,0.647,1.619,1.804c0,1.227-0.972,2.684-2.406,2.684C82.686,119.571,81.991,118.924,81.991,117.767z"/>
					<path fill="#FFFFFF" d="M94.062,130.837c0-0.324,0.047-0.671,0.139-1.064l0.926-3.933c0.323-1.364,0.093-2.059-0.902-2.059
						c-0.555,0-1.295,0.277-2.151,0.81l-1.619,7.634h-3.4l1.734-8.166l-1.55-1.018l0.093-0.694l4.812-1.041l0.486,0.301l-0.671,1.99
						l0.231,0.046c1.572-1.411,2.799-2.267,4.232-2.267c2.175,0,2.707,1.989,2.151,4.279l-0.902,3.771
						c-0.277,1.18-0.185,1.295,1.643,1.411l0.116,0.602c-1.11,0.671-2.244,1.087-3.378,1.087
						C94.641,132.525,94.062,131.924,94.062,130.837z"/>
					<path fill="#FFFFFF" d="M119.471,130.837c0-0.324,0.046-0.671,0.139-1.064l0.925-3.933c0.324-1.364,0.069-2.059-0.832-2.059
						c-0.463,0-1.203,0.277-2.06,0.81l-1.619,7.634h-3.4l1.388-6.547c0.231-1.271,0-1.896-0.879-1.896
						c-0.462,0-1.202,0.277-2.059,0.81l-1.619,7.634h-3.4l1.734-8.166l-1.55-1.018l0.093-0.694l4.812-1.041l0.486,0.301l-0.671,1.99
						l0.231,0.046c1.572-1.411,2.799-2.267,4.187-2.267c1.318,0,2.082,0.948,2.221,2.15l0.231,0.047
						c1.504-1.342,2.729-2.197,4.117-2.197c2.151,0,2.545,2.128,2.036,4.279l-0.902,3.771c-0.277,1.18-0.186,1.295,1.643,1.411
						l0.115,0.602c-1.11,0.671-2.244,1.087-3.377,1.087C120.049,132.525,119.471,131.924,119.471,130.837z"/>
					<path fill="#FFFFFF" d="M124.527,135.14c0-0.579,0.439-1.712,1.804-1.712c0.833,0,1.597,0.602,1.851,2.104
						c0.671-0.462,1.55-1.526,2.128-2.452c-0.81-4.163-1.364-6.546-1.851-7.934c-0.323-0.949-0.578-1.064-1.018-1.064
						c-0.394,0-0.902,0.139-1.434,0.347l-0.348-0.509c1.342-1.503,2.568-2.544,3.909-2.544c0.926,0,1.435,0.347,1.781,1.202
						c0.439,1.064,1.11,4.141,1.435,7.333h0.231c0.693-2.221,1.134-4.464,1.827-8.651h0.277l2.892,1.318
						c-2.405,5.229-4.464,9.577-7.703,13.047c-1.18,1.272-2.359,1.666-3.238,1.666C125.707,137.291,124.527,136.666,124.527,135.14z
						"/>
					<path fill="#FFFFFF" d="M52.929,182.676H38.426v-39.104h14.327c6.341,0,9.805,3.405,9.805,8.983v2.818
						c0,3.699-1.468,6.576-5.46,7.28c4.169,0.881,5.695,3.641,5.695,7.281v3.758C62.793,179.329,59.27,182.676,52.929,182.676z
						 M54.572,153.317c0-1.938-0.821-3.17-2.994-3.17h-4.697v9.981h4.345c2.173,0,3.347-1.115,3.347-3.405V153.317z M54.749,169.406
						c0-2.29-1.175-3.465-3.347-3.465h-4.521V176.1h4.873c2.173,0,2.995-1.175,2.995-3.112V169.406z"/>
					<path fill="#FFFFFF" d="M88.505,182.911c-3.405,0-4.697-2.35-4.697-5.989v-6.4c0-2.055-1.057-3.816-3.465-3.816h-4.521v15.971
						h-8.396v-39.104h14.092c6.341,0,10.158,3.641,10.158,9.277v4.227c0,3.171-1.527,5.578-5.05,6.518
						c3.522,0.822,5.226,3.758,5.226,6.459v6.4c0,1.82,0.587,3.053,1.644,3.992v2.467H88.505z M83.572,153.317
						c0-1.938-0.821-3.17-2.994-3.17h-4.756v10.745h4.403c2.173,0,3.347-1.116,3.347-3.465V153.317z"/>
					<path fill="#FFFFFF" d="M109.874,183.674c-8.045,0-12.859-4.991-12.859-11.978v-17.146c0-6.929,4.814-11.919,12.859-11.919
						c8.103,0,12.858,4.99,12.858,11.919v17.146C122.732,178.683,117.977,183.674,109.874,183.674z M114.277,154.081
						c0-2.643-1.585-4.403-4.403-4.403c-2.76,0-4.346,1.761-4.346,4.403v18.085c0,2.642,1.586,4.403,4.346,4.403
						c2.818,0,4.403-1.762,4.403-4.403V154.081z"/>
					<path fill="#FFFFFF" d="M158.547,182.676h-7.516l-4.639-22.841l-4.814,22.841h-7.457l-8.161-39.104h8.338l4.227,25.6
						l4.933-25.6h6.518l4.697,25.6l4.345-25.6h7.751L158.547,182.676z"/>
					<path fill="#FFFFFF" d="M180.758,183.674c-7.691,0-12.565-4.403-12.565-11.097v-1.997h7.692v1.292
						c0,3.288,1.644,5.05,4.697,5.05c2.994,0,4.462-1.703,4.462-4.404c0-2.818-2.23-4.521-6.752-6.869
						c-4.697-2.525-9.688-5.637-9.688-11.626s4.286-11.391,12.271-11.391c7.164,0,11.92,4.814,11.92,11.038v1.586h-7.574v-1.233
						c0-2.643-1.468-4.697-4.404-4.697c-2.466,0-4.051,1.526-4.051,3.875c0,2.76,2.23,4.286,7.222,6.87
						c5.461,2.994,9.277,6.048,9.277,11.743C193.265,178.154,188.567,183.674,180.758,183.674z"/>
					<path fill="#FFFFFF" d="M197.426,182.676v-39.104h21.783v7.046h-13.387v8.572h9.218v6.341h-9.218v9.806h13.387v7.34H197.426z"
						/>
					<path fill="#FFFFFF" d="M244.505,182.911c-3.405,0-4.697-2.35-4.697-5.989v-6.4c0-2.055-1.057-3.816-3.465-3.816h-4.521v15.971
						h-8.396v-39.104h14.092c6.341,0,10.158,3.641,10.158,9.277v4.227c0,3.171-1.527,5.578-5.05,6.518
						c3.522,0.822,5.226,3.758,5.226,6.459v6.4c0,1.82,0.587,3.053,1.644,3.992v2.467H244.505z M239.572,153.317
						c0-1.938-0.821-3.17-2.994-3.17h-4.756v10.745h4.403c2.173,0,3.347-1.116,3.347-3.465V153.317z"/>
				</g>
			</g>
			<g>
				<polygon fill="#E34F26" points="278.114,168.167 266.007,32.394 398.96,32.394 386.842,168.175 332.45,183.251 				"/>
				<polygon fill="#EE652A" points="332.483,43.494 332.483,171.72 376.461,159.53 386.822,43.494 				"/>
				<polygon fill="#FFFFFF" points="290.775,60.146 295.271,110.506 352.982,110.506 351.05,132.101 332.462,137.122 
					313.914,132.115 312.677,118.238 295.962,118.238 298.343,144.976 332.458,154.446 366.613,144.976 371.184,93.852 
					310.499,93.852 308.975,76.798 372.65,76.798 372.701,76.798 374.19,60.146 				"/>
				<g>
					<polygon fill="#EBEBEB" points="332.483,60.146 290.775,60.146 295.271,110.506 332.483,110.506 332.483,93.852 
						310.499,93.852 308.975,76.798 332.483,76.798 					"/>
					<polygon fill="#EBEBEB" points="332.483,137.11 332.462,137.122 313.914,132.115 312.677,118.238 295.962,118.238 
						298.343,144.976 332.458,154.446 332.483,154.439 					"/>
				</g>
			</g>
		</g>
	</g>
</switch>
</svg>
