<?xml version="1.0" encoding="utf-8"?>
<!-- Generator: Adobe Illustrator 14.0.0, SVG Export Plug-In  -->
<!DOCTYPE svg PUBLIC "-//W3C//DTD SVG 1.1 Tiny//EN" "http://www.w3.org/Graphics/SVG/1.1/DTD/svg11-tiny.dtd" [
	<!ENTITY ns_flows "http://ns.adobe.com/Flows/1.0/">
]>
<svg version="1.1" baseProfile="tiny"
	 xmlns="http://www.w3.org/2000/svg" xmlns:xlink="http://www.w3.org/1999/xlink" xmlns:a="http://ns.adobe.com/AdobeSVGViewerExtensions/3.0/"
	 x="0px" y="0px" width="59px" height="101px" viewBox="-0.2 -0.46 59 101" xml:space="preserve">
<defs>
</defs>
<path fill="#231F20" d="M7.81,22c0.13,0.11,0.3,0.17,0.46,0.17c0.16,0,0.32-0.05,0.45-0.16c0,0,0.72-0.59,1.87-1.19
	c1.15-0.6,2.7-1.18,4.27-1.18c1.5,0.01,2.99,0.49,4.39,2.05c0.13,0.15,0.32,0.24,0.52,0.24l0.17,0c0.38,0,1.25-0.03,2.13-0.35
	c0.86-0.29,1.86-1.1,1.85-2.44c0-0.6-0.18-1.26-0.55-2l-0.1-0.15c-0.08-0.1-2.16-2.38-6.68-2.38c-1.57,0-3.43,0.27-5.6,1
	c-0.16,0.06-0.31,0.17-0.39,0.33L7.65,21.1C7.48,21.4,7.54,21.78,7.81,22z M11.69,16.88c1.92-0.62,3.54-0.84,4.88-0.84
	c2.02,0,3.43,0.5,4.34,0.98c0.46,0.24,0.78,0.48,0.99,0.65l0.23,0.2c0.26,0.55,0.35,0.97,0.35,1.26c-0.02,0.61-0.32,0.85-0.92,1.11
	c-0.5,0.19-1.11,0.25-1.46,0.26c-1.59-1.67-3.47-2.29-5.2-2.29h-0.04c-1.74,0.01-3.35,0.57-4.59,1.17L11.69,16.88z"/>
<path fill="#231F20" d="M9.08,14.43l0.36,0.1l0.27-0.05c0,0,0.68-0.28,1.79-0.57c1.1-0.29,2.6-0.58,4.15-0.58
	c0.78,0,1.56,0.07,2.32,0.25c0.35,0.08,0.71-0.11,0.83-0.45c0.12-0.34-0.03-0.73-0.36-0.88L9.17,7.65C8.94,7.54,8.66,7.56,8.45,7.71
	c-0.21,0.15-0.33,0.4-0.3,0.66l0.59,5.52C8.76,14.12,8.89,14.32,9.08,14.43z M14.62,11.94c-1.91,0.13-3.59,0.59-4.56,0.9L9.7,9.51
	L14.62,11.94z"/>
<path fill="#231F20" d="M14.44,20.14c-0.94,0-1.8,0.18-2.49,0.52c-0.66,0.33-1.32,0.88-1.35,1.8c0.03,0.92,0.69,1.46,1.35,1.79
	c0.69,0.34,1.55,0.51,2.49,0.52c0.94-0.01,1.79-0.18,2.49-0.52c0.67-0.33,1.32-0.88,1.35-1.79c-0.03-0.92-0.69-1.47-1.35-1.8
	C16.23,20.32,15.38,20.14,14.44,20.14z M16.03,22.8c-0.4,0.16-0.96,0.27-1.59,0.27c-0.72,0-1.36-0.15-1.75-0.34
	c-0.19-0.1-0.32-0.2-0.37-0.26l-0.02-0.02c0.06-0.07,0.23-0.23,0.55-0.35c0.4-0.16,0.97-0.27,1.59-0.27c0.71,0,1.36,0.15,1.75,0.35
	c0.2,0.1,0.32,0.2,0.38,0.26l0.02,0.02C16.52,22.52,16.35,22.68,16.03,22.8z"/>
<path fill="#231F20" d="M7.4,24.11c1.35,4.04,14.16,5.77,13.11,1.31c-0.1-0.42-0.52-0.82-0.99-0.69c-0.62,0.18-0.97,0.6-1.52,0.9
	c-1,0.55-2.24,0.63-3.35,0.62c-1.99-0.03-5.52-0.43-6.44-2.51C7.96,23.19,7.22,23.58,7.4,24.11z"/>
<path fill="#231F20" d="M24.72,21.22c-1.29,3.05-4.47,2-4.47,2l4.11,4.58L24.72,21.22z"/>
<path fill="#231F20" d="M6.15,31.79C3.45,38.84,5.1,52.71,5.1,52.71l1.06-15.39c0-3.06,3.64-4,3.64-4c5.29-0.59,8.69,1.29,8.69,1.29
	l0.47-4.58C8.27,28.03,6.15,31.79,6.15,31.79z"/>
<path fill="#231F20" d="M12.91,84.55c1.33,0,2.41-1.08,2.41-2.41c0-1.33-1.08-2.41-2.41-2.41c-1.33,0-2.41,1.08-2.41,2.41
	C10.5,83.47,11.58,84.54,12.91,84.55z M12.91,81.14c0.55,0,1,0.45,1,1c0,0.55-0.45,1-1,1c-0.55,0-1-0.45-1-1
	C11.91,81.59,12.36,81.14,12.91,81.14z"/>
<path fill="#231F20" d="M8.33,81.26c0.81,0,1.47-0.66,1.47-1.47c0-0.81-0.66-1.47-1.47-1.47c-0.81,0-1.47,0.66-1.47,1.47
	C6.86,80.6,7.52,81.26,8.33,81.26z"/>
<path fill="#231F20" d="M57.47,56.79v-0.01c0-1,0-1.95,0-2.91c0-1.91,0-3.82,0-5.72c0-2.1,0-4.21,0-6.31c0-1.96,0-3.92,0-5.87
	c0-1.77,0-3.53,0-5.3c0-0.92,0.16-1.99,0.16-3.15c0-0.53-0.03-1.08-0.15-1.65c-0.46-1.78-1.57-2.64-1.64-3.36l-0.03-0.26
	c-0.07-0.78,0.95-2.11,1.56-3.65c0.95-2.69,1.34-5.57,1.34-8.4c0-1.03-0.05-2.05-0.15-3.05c-0.2-2.07-0.59-4.11-1.13-6.1
	c-0.12-0.44-0.48-0.76-0.93-0.84C56.45,0.21,55.12,0,52.81,0c-4.63,0-13.23,0.85-23.45,5.86C19.13,0.85,10.53,0,5.9,0
	C3.59,0,2.26,0.21,2.21,0.22C1.76,0.29,1.4,0.62,1.28,1.06c-0.55,1.99-0.94,4.03-1.13,6.1C0.05,8.16,0,9.18,0,10.21
	c0,2.82,0.38,5.7,1.33,8.39c0.62,1.55,1.63,2.88,1.56,3.66l-0.03,0.26c-0.07,0.71-1.18,1.57-1.64,3.35
	c-0.12,0.56-0.15,1.11-0.15,1.64c0,1.17,0.16,2.24,0.16,3.16c0,1.76,0,3.53,0,5.3c0,1.96,0,3.91,0,5.87c0,1.4,0,2.8,0,4.2
	c0,0.7,0,1.4,0,2.1c0,1.91,0,3.82,0,5.73c0,0.94,0,1.88,0,2.82v0.09c0,2.26-0.07,4.53-0.13,6.82c-0.04,1.68-0.09,3.38-0.09,5.1
	c0,2.27,0.09,4.58,0.42,6.87c0.48,3.3,1.69,6.72,4.68,8.98c1.86,1.41,3.94,2.38,5.93,3.28c1.44,0.63,2.8,1.13,3.77,1.92
	c1.02,0.8,1.42,2.14,1.99,3.83c0.86,2.43,2.6,4.87,5.21,5.99c0.62,0.25,1.31,0.47,2.05,0.56l0.22,0l0.32-0.01l0.27,0.03l0.19-0.02
	l0.01,0l0.03,0l0.02,0l0.02,0l0.04-0.01l0.01,0l0.38-0.19l0.21-0.21l0,0l0.01-0.02l0.01-0.01l0.01-0.01l0.01-0.02l0,0
	c0.27-0.4,0.27-0.94-0.04-1.35l-0.12-0.19c0.24-0.17,0.94-0.36,1.53-0.44c0.61-0.09,1.1-0.1,1.11-0.1h0.09
	c-0.02,0,0.84,0.02,1.66,0.21c0.4,0.09,0.78,0.23,0.95,0.33l0.01,0L31.9,98.3l0,0l-0.09,0.13c-0.3,0.53-0.14,1.2,0.37,1.53
	c0.28,0.18,0.6,0.23,0.9,0.16c0.1,0,0.23,0.01,0.39,0.01h0.03l0.12,0c0.73-0.08,1.44-0.3,2.04-0.56c2.62-1.12,4.36-3.56,5.21-5.99
	c0.58-1.69,0.98-3.03,2-3.84c0.97-0.79,2.33-1.29,3.77-1.92c2-0.9,4.07-1.88,5.94-3.28c2.99-2.26,4.2-5.68,4.68-8.98
	c0.33-2.3,0.42-4.6,0.42-6.88c0-1.71-0.05-3.41-0.09-5.09C57.54,61.32,57.47,59.04,57.47,56.79z M41.44,87.96
	c-1.74,1.42-2.18,3.35-2.72,4.87c-0.68,1.96-2.15,3.89-3.93,4.62c-0.14,0.06-0.3,0.12-0.45,0.17c-0.15-0.69-0.65-1.2-1.09-1.46
	c-1.59-0.93-3.71-0.86-3.8-0.89H29.3c-0.07,0-1.06,0.02-2.16,0.26c-0.55,0.12-1.13,0.29-1.67,0.63c-0.44,0.26-0.95,0.77-1.09,1.46
	c-0.16-0.05-0.31-0.11-0.46-0.17c-1.77-0.72-3.24-2.65-3.93-4.62c-0.55-1.51-0.98-3.44-2.72-4.86c-0.71-0.57-1.46-0.98-2.2-1.33
	c1.6-1.53,3.69,0.1,5.57,1.15c1.4,0.79,3.34,0.44,4.54-0.57c2.47-2.07,4.23-6.92,2.11-9.82l1.88-0.29l2.24,0.34
	c-1.82,2.75-0.7,7.41,1.7,9.42c1.48,1.25,2.98,1.59,4.81,1c2.07-0.67,4.01-3.1,5.74-1.25C42.92,86.97,42.16,87.38,41.44,87.96z
	 M22.3,78.32c0.53,0.77,1.96,3.61,0.64,4.24c-1,0.47-2.32-0.68-3-1.25c-0.87-0.73-1.46-1.58-2.04-2.48l4.33-0.67L22.3,78.32z
	 M14.13,77.95c-3.04-0.05-5.69-3.1-5.69-7.09V46.37c0-4.02,2.69-7.09,5.75-7.1L29.3,40.7l14.94-1.43c2.99,0.01,5.67,3.08,5.68,7.1
	v24.48c-0.01,3.99-2.66,7.05-5.69,7.09l-15.05-2.31L14.13,77.95z M36.47,78.22l4.3,0.66c-1.12,1.71-2.72,3.93-4.89,3.71
	c-1.57-0.16,0.16-3.73,0.56-4.31L36.47,78.22z M54.99,75.25c-0.43,3.01-1.49,5.74-3.78,7.47c-1.62,1.22-3.52,2.14-5.49,3.01
	c-0.27,0.12-0.55,0.24-0.83,0.36c-0.75-1.94-2.89-2.17-4.95-1.42c-2.25,0.81-3.79,2.58-5.93,0.29c-1.56-1.66-2.01-5.05-0.63-6.91
	l0.13-0.28l1.77,0.27c-1.01,1.57-2.16,4.61-0.16,5.66c1.35,0.71,3.03-0.1,4.19-0.83c1.21-0.76,2.86-2.21,3.27-3.71l1.54,0.24h0.06
	c4.09-0.02,7.19-3.92,7.2-8.54V46.37c-0.01-4.62-3.11-8.52-7.2-8.55L29.3,39.25l-15.04-1.42C10.1,37.85,7,41.75,6.99,46.37v24.48
	c0.01,4.62,3.11,8.52,7.2,8.54h0.06l1.88-0.29c0.35,1.5,2.02,2.87,3.17,3.7c1.16,0.83,2.81,1.48,4.21,0.95
	c2.21-0.83,0.87-4.21-0.11-5.76l1.81-0.27l0.19,0.4c1.55,2.09,0.61,5.46-1,7.19c-1.77,1.9-3.87,0.1-5.69-0.67
	c-2.03-0.87-4.11-0.39-4.86,1.45c-0.29-0.12-0.58-0.25-0.85-0.37c-1.96-0.88-3.87-1.8-5.48-3.01c-2.29-1.72-3.35-4.46-3.78-7.47
	c-0.31-2.14-0.4-4.33-0.4-6.54c0-1.67,0.05-3.35,0.09-5.04c0.05-2.28,0.13-4.57,0.13-6.88h0l0-0.05c0-0.96,0-1.91,0-2.86
	c0-1.91,0-3.82,0-5.73c0-0.7,0-1.4,0-2.1c0-1.41,0-2.81,0-4.2c0-1.96,0-3.92,0-5.87c0-1.77,0-3.53,0-5.3c0-1.15-0.16-2.22-0.16-3.16
	c0-0.42,0.03-0.82,0.1-1.17c0.06-0.72,1.15-1.57,1.63-3.32c0.06-0.26,0.08-0.52,0.08-0.76c-0.07-2.03-1.42-3.46-1.69-4.43
	c-0.84-2.38-1.2-5-1.2-7.61c0-0.96,0.05-1.91,0.14-2.83C2.6,5.7,2.9,4.05,3.31,2.42C3.87,2.37,4.74,2.31,5.9,2.31
	c4.42,0,12.83,0.81,22.88,5.84c0.18,0.09,0.38,0.13,0.57,0.12c0.19,0.01,0.39-0.03,0.57-0.12h0c10.05-5.02,18.47-5.84,22.88-5.84
	c1.17,0,2.04,0.06,2.59,0.11c0.41,1.63,0.71,3.29,0.86,4.95c0.09,0.93,0.13,1.88,0.13,2.83c0,2.61-0.36,5.24-1.2,7.62
	c-0.28,0.97-1.62,2.39-1.69,4.43c0,0.24,0.02,0.5,0.09,0.77c0.48,1.75,1.57,2.59,1.62,3.31c0.07,0.36,0.1,0.75,0.1,1.18
	c0,0.93-0.16,2-0.16,3.15c0,1.76,0,3.53,0,5.3c0,1.96,0,3.91,0,5.87c0,2.1,0,4.2,0,6.31c0,1.91,0,3.82,0,5.72c0,0.96,0,1.91,0,2.87
	l0,0.05c0,2.3,0.07,4.6,0.13,6.88c0.04,1.68,0.09,3.37,0.09,5.03C55.38,70.91,55.3,73.1,54.99,75.25z"/>
<path fill="#231F20" d="M35.46,16.99l-0.1,0.15c-0.37,0.74-0.55,1.4-0.55,2c-0.02,1.35,0.99,2.16,1.85,2.44
	c0.88,0.33,1.76,0.35,2.13,0.35l0.17,0c0.2,0,0.39-0.09,0.52-0.24c1.4-1.56,2.89-2.04,4.39-2.05c1.56,0,3.11,0.58,4.27,1.18
	c1.15,0.6,1.87,1.19,1.87,1.19c0.13,0.1,0.29,0.16,0.45,0.16c0.16,0,0.33-0.06,0.46-0.17c0.26-0.23,0.33-0.6,0.16-0.9l-2.94-5.17
	c-0.09-0.15-0.23-0.27-0.39-0.33c-2.16-0.72-4.02-1-5.6-1C37.62,14.61,35.54,16.89,35.46,16.99z M36.59,17.87l0.22-0.2
	c0.63-0.52,2.31-1.63,5.33-1.64c1.35,0,2.96,0.22,4.88,0.84l1.42,2.51c-1.24-0.6-2.85-1.16-4.59-1.17
	c-1.75-0.01-3.64,0.61-5.24,2.29c-0.35-0.01-0.97-0.07-1.46-0.26c-0.61-0.26-0.91-0.5-0.92-1.11
	C36.23,18.85,36.32,18.43,36.59,17.87z"/>
<path fill="#231F20" d="M40.74,13.57c0.76-0.18,1.54-0.25,2.32-0.25c1.55,0,3.03,0.29,4.12,0.57c1.1,0.29,1.81,0.58,1.82,0.57
	l0.27,0.05l0.37-0.1c0.19-0.11,0.32-0.31,0.34-0.54l0.59-5.52c0.03-0.26-0.09-0.51-0.3-0.66c-0.22-0.15-0.49-0.17-0.73-0.05
	l-9.28,4.58c-0.33,0.16-0.48,0.54-0.36,0.88C40.02,13.46,40.38,13.65,40.74,13.57z M49.01,9.51l-0.35,3.33
	c-0.97-0.32-2.65-0.77-4.56-0.9L49.01,9.51z"/>
<path fill="#231F20" d="M44.28,20.14c-0.94,0-1.8,0.18-2.49,0.52c-0.67,0.33-1.32,0.88-1.35,1.8c0.03,0.92,0.69,1.46,1.35,1.79
	c0.7,0.34,1.55,0.51,2.49,0.52c0.94-0.01,1.79-0.18,2.49-0.52c0.66-0.33,1.33-0.88,1.35-1.79c-0.03-0.92-0.69-1.47-1.35-1.8
	C46.07,20.32,45.22,20.14,44.28,20.14z M45.87,22.8c-0.39,0.16-0.96,0.27-1.59,0.27c-0.72,0-1.36-0.15-1.75-0.34
	c-0.2-0.1-0.32-0.2-0.37-0.26l-0.02-0.02c0.05-0.06,0.22-0.23,0.55-0.35c0.39-0.16,0.96-0.27,1.59-0.27c0.71,0,1.35,0.15,1.75,0.35
	c0.2,0.1,0.32,0.2,0.38,0.26l0.01,0.02C46.36,22.52,46.19,22.68,45.87,22.8z"/>
<path fill="#231F20" d="M51.33,24.07c0.18-0.55-0.61-0.83-0.84-0.31c-0.89,2.02-4.1,2.29-5.99,2.46c-1.06,0.1-2.15-0.03-3.17-0.34
	c-0.77-0.24-1.25-0.91-1.99-1.12c-0.4-0.11-0.99,0.02-1.1,0.5C37.16,30.03,49.97,28.17,51.33,24.07z"/>
<path fill="#231F20" d="M34.35,27.8l4.11-4.58c0,0-3.17,1.05-4.47-2L34.35,27.8z"/>
<path fill="#231F20" d="M39.75,30.03l0.47,4.58c0,0,3.41-1.88,8.7-1.29c0,0,3.64,0.94,3.64,4l1.06,15.39c0,0,1.64-13.86-1.06-20.91
	C52.56,31.79,50.45,28.03,39.75,30.03z"/>
<path fill="#231F20" d="M37.88,29.18c-0.05-0.08-0.63-0.96-1.9-0.97c-0.8,0-1.72,0.35-2.81,1.29v-8.64c0-0.07,0-0.76-0.43-1.53
	c-0.42-0.78-1.42-1.55-2.98-1.53h-0.81c-1.56-0.02-2.55,0.75-2.98,1.53c-0.44,0.77-0.43,1.46-0.43,1.52v8.64
	c-1.09-0.93-2.01-1.28-2.81-1.29c-1.27,0.01-1.85,0.89-1.9,0.97l-0.1,0.28l-0.83,5.99c-0.04,0.29,0.11,0.59,0.38,0.72
	c0.27,0.14,0.59,0.09,0.81-0.12c0,0,0.16-0.16,0.51-0.35c0.35-0.19,0.83-0.37,1.4-0.37c0.77,0.01,1.76,0.3,2.96,1.62
	c0.03,0.04,1.13,1.4,3.23,1.41l0.17-0.02l0.18,0.02v0c2.1-0.01,3.19-1.37,3.25-1.44c1.17-1.29,2.16-1.58,2.93-1.59
	c0.57,0,1.05,0.18,1.4,0.37c0.34,0.19,0.5,0.35,0.51,0.35c0.22,0.21,0.54,0.25,0.81,0.12c0.27-0.13,0.42-0.43,0.38-0.72l-0.82-5.99
	L37.88,29.18z M35.71,33.93c-1.19-0.01-2.63,0.54-4,2.09l-0.14,0.15c-0.27,0.26-0.97,0.8-2.04,0.8l-0.17,0.02l-0.17-0.02
	c-0.72,0-1.26-0.24-1.63-0.47c-0.18-0.12-0.32-0.24-0.41-0.32l-0.11-0.11h0c-1.4-1.58-2.84-2.13-4.03-2.12
	c-0.58,0-1.08,0.12-1.5,0.28l0.6-4.35c0.11-0.1,0.3-0.24,0.63-0.24c0.47-0.01,1.47,0.31,2.99,2.04c0.2,0.22,0.5,0.3,0.78,0.2
	c0.28-0.1,0.46-0.37,0.46-0.66V20.87c0,0,0-0.07,0.03-0.23c0.16-0.52,0.31-1.37,1.97-1.41h0.81c1.15,0.02,1.5,0.42,1.76,0.82
	c0.12,0.21,0.18,0.42,0.21,0.59c0.03,0.16,0.02,0.23,0.03,0.23V31.2c0,0.29,0.18,0.56,0.46,0.66c0.27,0.1,0.58,0.02,0.78-0.2
	c1.52-1.73,2.51-2.05,2.98-2.04c0.28,0,0.44,0.09,0.56,0.18l0.07,0.06l0.6,4.35C36.79,34.06,36.29,33.94,35.71,33.93z"/>
<path fill="#231F20" d="M6.71,16.52c-0.53-2.7-1.35-5.28-1.41-8.06C5.19,2.47,16.76,7.8,18.35,8.69c2.66,1.49,4.63,3.84,6.61,6.1
	c0.63,0.71,2.05,1.94,3.13,1.78c1.81-0.26,2.62,0.15,4.28-0.57c2.13-0.93,3.8-3.91,5.46-5.39c3.13-2.78,6.98-4.16,11.01-4.99
	c7.49-1.55,3.99,8.58,3.52,11c-0.07,0.35,0.51,0.48,0.61,0.14c0.8-2.69,4.22-12.26-1.5-12.44c-3.62-0.12-7.19,0.83-10.54,2.15
	c-3.02,1.19-8.35,8.5-11.32,8.07c-3.89-0.56-7.01-5.13-10.32-7.21c-3.16-1.99-6.95-2.8-10.61-3.28C1.33,3.1,4.28,13.09,5.36,16.76
	C5.6,17.58,6.89,17.41,6.71,16.52z"/>
<path fill="#231F20" d="M45.8,79.73c-1.33,0-2.41,1.08-2.41,2.41s1.08,2.41,2.41,2.41c1.33,0,2.41-1.08,2.41-2.41
	S47.13,79.73,45.8,79.73z M45.8,83.14c-0.55,0-1-0.45-1-1c0-0.55,0.45-1,1-1c0.55,0,1,0.45,1,1C46.8,82.69,46.35,83.14,45.8,83.14z"
	/>
<path fill="#231F20" d="M50.39,78.32c-0.81,0-1.47,0.66-1.47,1.47c0,0.81,0.66,1.47,1.47,1.47c0.81,0,1.47-0.66,1.47-1.47
	C51.85,78.98,51.2,78.32,50.39,78.32z"/>
<path fill="#FFFFFF" d="M13.32,42.44h-1.95c-0.42,0-0.76,0.42-0.76,0.94v1.21C11.31,43.66,12.24,42.91,13.32,42.44z"/>
<path fill="#FFFFFF" d="M11.32,57.83l0.04,0.01h4.82c0.42,0,0.76-0.42,0.76-0.94V44.01h-0.97c-2.55,0-4.65,2.1-4.65,4.71V57.83z"/>
<path fill="#FFFFFF" d="M19.03,57.84h4.82c0.42,0,0.76-0.42,0.76-0.94V44.01h-6.34V56.9C18.27,57.42,18.61,57.84,19.03,57.84z"/>
<path fill="#FFFFFF" d="M26.7,57.84h4.82c0.42,0,0.76-0.42,0.76-0.94V44.01h-6.34V56.9C25.94,57.42,26.28,57.84,26.7,57.84z"/>
<path fill="#FFFFFF" d="M34.36,57.84h4.82c0.42,0,0.76-0.42,0.76-0.94V44.01H33.6V56.9C33.6,57.42,33.94,57.84,34.36,57.84z"/>
<path fill="#FFFFFF" d="M47.61,44.38v-1c0-0.52-0.34-0.94-0.76-0.94h-1.8C46.05,42.88,46.92,43.54,47.61,44.38z"/>
<path fill="#FFFFFF" d="M42.39,44.01h-1.12V56.9c0,0.52,0.34,0.94,0.76,0.94h4.81l0.19-0.05v-9.06
	C47.04,46.11,44.95,44.02,42.39,44.01z"/>
<path fill="#FFFFFF" d="M10.61,70.93v2.86c0,0.52,0.34,0.94,0.76,0.94h4.82c0.42,0,0.76-0.42,0.76-0.94v-0.17h-0.97
	C13.78,73.62,11.84,72.56,10.61,70.93z"/>
<path fill="#FFFFFF" d="M16.94,60.27c0-0.52-0.34-0.94-0.76-0.94h-4.82l-0.04,0.01v7.45c0,2.61,2.09,4.71,4.65,4.71h0.97V60.27z"/>
<path fill="#FFFFFF" d="M18.27,73.79c0,0.52,0.34,0.94,0.76,0.94h4.82c0.42,0,0.76-0.42,0.76-0.94v-0.17h-6.34V73.79z"/>
<path fill="#FFFFFF" d="M24.61,60.27c0-0.52-0.34-0.94-0.76-0.94h-4.82c-0.42,0-0.76,0.42-0.76,0.94v11.24h6.34V60.27z"/>
<path fill="#FFFFFF" d="M32.28,73.79v-0.17h-6.34v0.17c0,0.52,0.34,0.94,0.76,0.94h4.82C31.94,74.73,32.28,74.31,32.28,73.79z"/>
<path fill="#FFFFFF" d="M32.28,60.27c0-0.52-0.34-0.94-0.76-0.94H26.7c-0.42,0-0.76,0.42-0.76,0.94v11.24h6.34V60.27z"/>
<path fill="#FFFFFF" d="M33.6,73.79c0,0.52,0.34,0.94,0.76,0.94h4.82c0.42,0,0.76-0.42,0.76-0.94v-0.17H33.6V73.79z"/>
<path fill="#FFFFFF" d="M39.94,60.27c0-0.52-0.34-0.94-0.76-0.94h-4.82c-0.42,0-0.76,0.42-0.76,0.94v11.24h6.34V60.27z"/>
<path fill="#FFFFFF" d="M42.39,73.62h-1.12v0.17c0,0.52,0.34,0.94,0.76,0.94h4.81c0.42,0,0.76-0.42,0.76-0.94v-2.65
	C46.37,72.65,44.5,73.62,42.39,73.62z"/>
<path fill="#FFFFFF" d="M47.04,66.79v-7.41l-0.19-0.05h-4.81c-0.42,0-0.76,0.42-0.76,0.94v11.24h1.12
	C44.95,71.5,47.04,69.4,47.04,66.79z"/>
<path fill="#231F20" d="M33.6,73.62h6.34h1.33h1.12c2.11,0,3.98-0.97,5.22-2.48c0.97-1.18,1.54-2.7,1.55-4.34V48.73
	c0-1.65-0.58-3.16-1.55-4.34c-0.68-0.84-1.56-1.51-2.57-1.94c-0.81-0.35-1.71-0.54-2.65-0.54H15.97c-0.94,0-1.84,0.19-2.65,0.54
	c-1.08,0.47-2.01,1.21-2.72,2.14c-0.87,1.15-1.39,2.58-1.4,4.14v18.07c0,1.56,0.52,2.99,1.4,4.14c1.23,1.63,3.17,2.68,5.36,2.68
	h0.97h1.33h6.34h1.33h6.34H33.6z M11.32,66.79v-7.45l0.04-0.01h4.82c0.42,0,0.76,0.42,0.76,0.94v11.24h-0.97
	C13.42,71.5,11.32,69.4,11.32,66.79z M18.27,44.01h6.34V56.9c0,0.52-0.34,0.94-0.76,0.94h-4.82c-0.42,0-0.76-0.42-0.76-0.94V44.01z
	 M25.94,44.01h6.34V56.9c0,0.52-0.34,0.94-0.76,0.94H26.7c-0.42,0-0.76-0.42-0.76-0.94V44.01z M39.94,44.01V56.9
	c0,0.52-0.34,0.94-0.76,0.94h-4.82c-0.42,0-0.76-0.42-0.76-0.94V44.01H39.94z M33.6,60.27c0-0.52,0.34-0.94,0.76-0.94h4.82
	c0.42,0,0.76,0.42,0.76,0.94v11.24H33.6V60.27z M41.27,60.27c0-0.52,0.34-0.94,0.76-0.94h4.81l0.19,0.05v7.41
	c0,2.61-2.09,4.71-4.65,4.71h-1.12V60.27z M47.04,57.79l-0.19,0.05h-4.81c-0.42,0-0.76-0.42-0.76-0.94V44.01h1.12
	c2.56,0,4.65,2.1,4.65,4.71V57.79z M15.97,44.01h0.97V56.9c0,0.52-0.34,0.94-0.76,0.94h-4.82l-0.04-0.01v-9.1
	C11.32,46.11,13.42,44.02,15.97,44.01z M18.27,60.27c0-0.52,0.34-0.94,0.76-0.94h4.82c0.42,0,0.76,0.42,0.76,0.94v11.24h-6.34V60.27
	z M25.94,60.27c0-0.52,0.34-0.94,0.76-0.94h4.82c0.42,0,0.76,0.42,0.76,0.94v11.24h-6.34V60.27z"/>
<path fill="#231F20" d="M29.25,87.96c-1.72,0-3.12,1.4-3.12,3.12c0,1.72,1.39,3.11,3.12,3.11c1.72,0,3.12-1.39,3.12-3.11
	C32.37,89.36,30.97,87.96,29.25,87.96z M29.25,92.58c-0.83,0-1.5-0.67-1.5-1.5c0-0.83,0.67-1.5,1.5-1.5c0.83,0,1.5,0.68,1.5,1.5
	C30.75,91.91,30.08,92.58,29.25,92.58z"/>
</svg>
