<?xml version="1.0" encoding="utf-8"?>
<!-- Generator: Adobe Illustrator 15.0.1, SVG Export Plug-In  -->
<!DOCTYPE svg PUBLIC "-//W3C//DTD SVG 1.1 Tiny//EN" "http://www.w3.org/Graphics/SVG/1.1/DTD/svg11-tiny.dtd" [
	<!ENTITY ns_flows "http://ns.adobe.com/Flows/1.0/">
]>
<svg version="1.1" baseProfile="tiny"
	 xmlns="http://www.w3.org/2000/svg" xmlns:xlink="http://www.w3.org/1999/xlink" xmlns:a="http://ns.adobe.com/AdobeSVGViewerExtensions/3.0/"
	 x="0px" y="0px" width="118px" height="140px" viewBox="-0.89 -0.07 118 140" overflow="visible" xml:space="preserve">
<defs>
</defs>
<path fill="#5A3D1C" d="M61.15,106.95c-0.13-0.93-0.33-1.81-0.61-2.64C60.74,105.19,60.93,106.07,61.15,106.95z M25.43,70.7
	c-5.4-0.06-9.7,2.16-14,5.13C10.18,76.71,1.4,82.84,0,80.01c0.95,1.93,2.08,3.55,3.35,4.9c0.76,0.11,1.52,0.19,2.29,0.2
	c12.41,0.19,22.4-6.1,34.8-0.7c-10.28-4.48-21.89,0.84-33.1,3.69c6.03,3.54,13.82,3.48,21.3,2.78c10.27-0.97,28.06,1.68,31.91,13.43
	c-0.89-4.21-1.54-8.47-3.14-12.51C52.44,79.21,38.83,70.85,25.43,70.7z M69.41,89.93c1-1.5,2.15-3.12,2.99-4.7
	c2.05-3.85,4.67-8.26,4.67-12.72c-0.02,4.21-0.89,8.08-1.88,12.18c-0.34,1.39-0.71,2.78-1.13,4.15c0.43-1.38,4.24-3.61,5.23-5.12
	c1.39-2.12,2.2-4.57,2.77-7.03c1.2-5.17,0.64-10.68,2.42-15.74c-0.16,0.44-1.41,1.06-2.96,1.71c-2.35,0.99-5.37,2.03-6.19,2.58
	c-2.65,1.76-4.86,3.98-6.36,6.81c-1.58,2.99-2.18,6.35-2.4,9.69c-0.11,1.63,1.26,10.44,0.4,11.23C67.9,92.08,68.7,91,69.41,89.93z
	 M93.1,71.96c-4.12,1-8.3,3-9.82,7.25c-0.39,1.09-0.57,2.22-0.76,3.35c1.37-1.55,3-2.81,4.77-3.91c3.37-2.09,7.54-2.35,11.37-2.91
	c-1.04,0.15-2.01,0.69-3.07,0.98c-2.56,0.71-4.81,2.42-6.78,4.16c-0.92,0.81-1.83,1.61-2.74,2.42c0.98-0.88,6.21,0.44,7.44,0.53
	c1.96,0.14,4.3,0.25,6.09-0.71c1.89-1.02,2.37-3.26,4.03-4.4c1.64-1.12,4.47-1.99,5.74,0.12c-0.34-2.35-1.26-4.67-3.24-6.13
	C102.6,70.08,97.05,71,93.1,71.96z M87.22,63.57c-1.27,2.04-2.19,4.27-2.24,6.84c0.02-0.02,0.04-0.05,0.06-0.07
	c0.77-0.84,1.71-1.53,2.57-2.27c1.99-1.72,4.51-3.94,7.15-4.44c-0.28,0.49-0.7,0.78-1.16,1.14c-1.13,0.88-2.13,2.06-2.97,3.24
	c-0.75,1.05-1.3,2.21-1.88,3.35c0.89-0.09,1.78-0.32,2.61-0.62c1.29-0.46,2.4-1.17,3.66-1.71c4.48-1.91,4.78-6.99,4.84-11.17
	C99.83,59.52,88.78,61.05,87.22,63.57z M75.71,49.65c5.13-1.63,12.75-3.01,14.73-9.15c1.36-4.2,1.44-9.27-1.03-13.06
	c-1.88-2.89-4.44-5.32-6.69-7.92c1.16,2.42,1.5,6.1,0.69,8.6c-3.74,11.52-16.92,16.74-20.3,28.22c-0.26,0.87-0.47,1.74-0.66,2.62
	c0.1-3.91-0.04-7.82-0.58-11.69c-0.66-4.69-2.04-9.68-6.27-12.38c-4.46-2.84-10.63-2.97-15.72-2.33c-4.84,0.61-9.43,2.58-11.1,7.51
	c-1.41,4.16-1.22,9.78,1.23,13.54c2.67,4.08,8.29,5.47,12.89,5.07c2.24-0.19,4.5-0.91,6.11-2.54c1.55-1.57,2.32-3.76,2.55-5.91
	c0.54-4.98-2.24-9.88-7.7-9.85c-2.53,0.02-5.25,1.15-6.58,3.39c-1.26,2.13-0.83,4.76,0.68,6.64c5.47,6.79,11.36-4.89,5.3-4.89
	c-1.68,0-3.04,1.36-3.04,3.04c0,0.37,0.07,0.72,0.19,1.05c-0.92-0.76-1.59-1.86-1.73-2.97c-0.3-2.43,1.91-4.01,4.02-4.51
	c2.37-0.56,5.18-0.09,6.87,1.77c3.62,3.97,0.55,10.34-3.7,12.32C40,58.99,31.7,55.8,29.48,49.6c-1.9-5.28,1.56-10.48,5.96-13.19
	c3.93-2.42,8.95-3.3,13.35-1.72c4.11,1.48,7.44,4.94,9.5,8.72c2.22,4.08,2.58,8.65,2.84,13.2c0.39,6.74,0.44,14.16,0.89,21.31v0.27
	l0.02-0.01c0.08,1.18,0.17,2.36,0.27,3.53c0.73,8.22,2.59,16.57,0.72,24.77c2.56-11.21,2-21.08,1.32-32.37
	C63.76,64.62,64.93,53.08,75.71,49.65z M59.31,74.67c-0.06-0.52-0.16-1.04-0.31-1.56c-0.93-3.28-3.84-5.61-4.84-8.83
	c-0.17-0.56-0.32-1.83-0.82-2.21c-0.27-0.2-2.02,5.97-2.11,6.33c-0.69,2.64-1.57,5.16-0.75,7.9c0.96,3.18,6.59,6.77,6.19,10.2
	c0.21-1.78,0.42-3.54,0.15-5.38c-0.44-3-0.66-6.04-1.6-8.95c1.52,4.69,2.84,9.01,3.17,13.98C58.14,82.32,59.77,78.51,59.31,74.67z
	 M46.05,70.88c0.73,0.5,1.52,0.8,2.31,1.12c-0.62-0.25-1.74-3.82-2.34-4.56c-3.88-4.83-12.51-5.69-17.85-3.22
	c1.73,0.34,3.33,1.08,4.76,2.17c3.15,2.4,5.36,5.09,9.21,6.44c1.31,0.46,4.85,0.06,5.64,0.53c-0.93-0.54-1.93-0.98-2.71-1.71
	c-1.15-1.08-2.32-2.28-3.21-3.58c-0.48-0.71-0.89-1.54-1.27-2.29C42.64,67.23,43.96,69.47,46.05,70.88z M61.08,32.55
	c-0.19,3.88,1.51,6.92,2.26,10.56c0.18,0.88,0.48,1.75,0.69,2.64c0.42-0.64,0.84-1.31,1.15-1.96c2.27-4.72,3.95-10.26,3.47-15.54
	c0.54,6-0.25,11.19-1.41,17.03c1.12-0.84,2.11-1.91,3.05-2.97c2.31-2.61,4.27-6.52,4.14-10.05c0-0.14-0.01-0.27-0.02-0.41
	c-0.43-5.4-5.53-9.56-4.96-15.22c-0.23,0.7-0.88,1.16-1.44,1.69c-1.3,1.23-2.52,2.44-3.5,3.96C62.62,25.18,61.25,29.08,61.08,32.55z
	 M69.45,16.62c0.06-0.18,0.1-0.38,0.09-0.61C69.5,16.21,69.47,16.41,69.45,16.62z M41.49,19.84c1.89,2.52,2.58,5.75,4.53,8.27
	c1.58,2.05,4.13,3.38,6.67,3.78c1.04,0.16,2.7,0.49,3.94,0.13c-0.57-1.6-1.18-3.15-1.94-4.68c-0.62-1.24-1.29-2.45-1.93-3.67
	c-0.22-0.42-1.28-1.66-1.09-2.09c0.6,0.53,1.35,0.91,1.99,1.42c1.46,1.18,2.61,2.54,3.78,4.01c0.34,0.43,0.65,0.88,0.92,1.34
	c0-0.45-0.03-0.91-0.1-1.38c-0.42-2.78-1.62-5.17-3.7-7.08c-2.11-1.95-5.05-2.76-7.87-2.9c-2.8-0.14-5.56,0.58-8.37,0.43
	c0.37,0.36,0.96,0.44,1.41,0.69C40.45,18.52,40.99,19.17,41.49,19.84z M60.35,22.92c0.66-1.42,0.98-2.96,1.14-4.51
	c0.12-1.22,0.48-2.52,0.21-3.75c-0.18-0.82-0.48-1.59-0.6-2.41c1,1.04,3.18,7.58,1.94,8.9c0.47-0.5,0.83-1,1.05-1.76
	c0.69-2.47,0.49-4.85-0.26-7.19c-0.17-0.54-0.37-1.08-0.6-1.61c-0.95-2.25-3.73-5.09-4.01-7.49c0.12,4.06-3.32,6.99-4.02,10.81
	C54.5,17.73,56.68,21.51,60.35,22.92z M48.56,15.33c0.92,0.35,1.63,0.72,2.63,0.74c0.54,0.01,0.22-1.5-0.35-3.26c0,0,0,0,0,0
	c-0.59-1.83-1.28-3.64-2.1-5.38c1.49,0.94,5.21,4.87,4.73,6.95c0.36-1.55,0.87-3.09,0.98-4.7c0.18-2.62-1.41-3.98-3.4-5.27
	C49.08,3.13,46.9,0.97,44.85,0c0.65,0.3-1.37,7.74-1.41,8.55C43.26,12.15,45.28,14.1,48.56,15.33z M109.58,90.91
	c-6.04-5.62-14.73-7.5-22.72-6.03c-10.78,1.98-18.9,9.23-19.8,19.94c-0.06,0.73-0.09,1.48-0.08,2.25c1.04-4.26,5.12-5.74,8.89-6.98
	c4.52-1.49,11.18-0.68,14.99,2.4c2.08,1.68,3.88,3.45,6.51,4.21c2.53,0.73,5.87,1.32,8.42,0.33c2.21-0.86,3.6-3.15,5.94-3.87
	c2.06-0.63,4.59,1.05,5.23,3.03C116.15,100.39,113.94,94.97,109.58,90.91z M92.25,96.73c-4.03,3.34-10.69,1.04-14.83-0.77
	c-0.15-0.07-0.35-0.21-0.56-0.32c0.43-0.25,0.85-0.5,1.26-0.77c0.86-0.56,1.81-0.9,2.75-1.27c0.86-0.34,1.76-0.48,2.64-0.73
	c0.66-0.2,1.32-0.26,1.98-0.44c0.02-0.01,0.05-0.01,0.07-0.02c-0.05,0-0.1,0.01-0.16,0.01c-0.59,0.01-1.19,0.13-1.77,0.19
	c-0.77,0.07-1.54,0.21-2.29,0.41c-1.6,0.42-3.14,0.84-4.62,1.58c-0.14,0.07-0.27,0.14-0.4,0.22c3.59-6.03,12.39-6.95,17.9-3.15
	c1.06,0.73,1.56,1.68,1.88,2.88C95.53,92.43,92.56,96.47,92.25,96.73z M85.56,92.41c0.62-0.03,1.21-0.12,1.84-0.13
	C86.76,92.29,86.17,92.25,85.56,92.41z"/>
<ellipse fill="#5A3D1C" cx="63.17" cy="112.2" rx="10.93" ry="5.66"/>
<ellipse fill="#5A3D1C" cx="63.39" cy="124.45" rx="7.42" ry="5.46"/>
<circle fill="#5A3D1C" cx="63.97" cy="135.35" r="4.49"/>
</svg>
