<?xml version="1.0" encoding="utf-8"?>
<!-- Generator: Adobe Illustrator 15.0.0, SVG Export Plug-In  -->
<!DOCTYPE svg PUBLIC "-//W3C//DTD SVG 1.1 Tiny//EN" "http://www.w3.org/Graphics/SVG/1.1/DTD/svg11-tiny.dtd" [
	<!ENTITY ns_flows "http://ns.adobe.com/Flows/1.0/">
]>
<svg version="1.1" baseProfile="tiny"
	 xmlns="http://www.w3.org/2000/svg" xmlns:xlink="http://www.w3.org/1999/xlink" xmlns:a="http://ns.adobe.com/AdobeSVGViewerExtensions/3.0/"
	 x="0px" y="0px" width="90px" height="122px" overflow="visible" xml:space="preserve">
<defs>
</defs>
<path d="M32.95,19.29c0,0-2.23,0.12-3.93,1.16c-1.7,1.05-3.18,2.08-5.18,3.46c-2,1.38-2.73,0.94-3.59,2.91
	c-0.86,1.96-1.55,0.88-2.2,0.75c-0.65-0.13-8.64-0.35-9.93-0.44c-1.28-0.09-2.44-0.83-2.35-2.11c0.09-1.28-0.26-1.9-0.73-1.72
	c-0.47,0.19-1.69-1.67-2.29-1c-0.6,0.67-2.31,1.56-2.61,2.05c-0.29,0.49-0.08,1.6,0.11,2.07c0.18,0.47-0.39,1.78,0.58,1.89
	C1.79,28.43,2,29.37,2,29.37s2.22-0.28,3.24,0.79c1.02,1.06,5.36,4.67,9.54,5.25c4.18,0.58,6.04-0.64,6.95-1.48
	c0.92-0.85,3.72-2.27,3.72-2.27l4.29,8.72c0.73,1.72,1.62,6.47,1.89,8.53c0.27,2.06-4.64,12.06-7.29,22.43
	c-2.65,10.36-3.55,17.6-3.05,21.09c0.5,3.49,0.57,13.87,0.36,15.96c-0.21,2.09-0.58,4.18-0.58,4.18s-0.64,3.07-2.49,4.28
	c-1.85,1.22-5.49,4.92-2.94,4.95c2.56,0.03,6.22-0.17,7.92-1.37c1.69-1.21,5.74-3.34,6.37-3.53c0.63-0.19,2.04-0.59,1.32-2.31
	c-0.73-1.72-0.73-1.72-0.73-1.72s4.38-10.93,3.9-16.98c-0.48-6.05-0.17-9.26,1.6-15.1c1.77-5.84,4.1-13.15,5.58-15.47
	c1.48-2.31,2.32,1.63,2.32,1.63s-2.92,8.3-2.72,12.13c0.2,3.82,1.59,5.99,1.59,5.99s4.69,1.03,6.1,0.48
	c1.41-0.55,6.48-4.33,5.29-5.71c-1.19-1.38-1.84-1.5-1.84-1.5s1.55-0.88,1.33-2.15c-0.23-1.27-0.44-2.21-0.68-3.8
	s4.59-16.06,5.16-17.36c0.57-1.31,3.37-11.84-1.04-13.69c-1.64-0.71-3.03,0.16-3.03,0.16l0.09-7.51c0,0,4.77,2.63,6.58,3.65
	c1.81,1.02,3.67,3,6.62,4.45c2.95,1.44,10.06,2.99,12.33,3.67c2.27,0.68,3.06,0.48,4.66,0.55c1.6,0.08,5.08-0.59,2.65-1.26
	c-2.43-0.67-0.21-1.54-0.21-1.54s0.33-2.3,1.74-2.85c1.41-0.55,2.67-0.94,1.06-1.17c-1.61-0.24-2.69,0.46-3.77,1.32
	c-1.07,0.85-2.87,3.19-4.66,2.48c-1.79-0.71-8.31-6.11-11.42-7.55c-3.11-1.44-5.73-2.58-7.43-4.56c-1.7-1.99-2.17-4.84-3.7-6.52
	c-1.53-1.68-1.9-2.62-5.18-4.36c-3.29-1.75-6.72-3.32-11.21-3.57c-0.12-2.23,0.3-3.37,0.3-3.37s1.39,0.59,1.48-0.69
	c0.09-1.28-0.02-1.94-0.02-1.94s1.5-1.84,0.37-5.13c-1.07-3.11,0.88-4.52-5.4-5.47c-4.33-0.65-5.87,1.56-6.46,2.55
	c-0.59,0.99-1.77,2.08-1.37,3.66c0.4,1.58-0.21,2.04-0.21,2.04s0.57,2.96,0.92,3.58c0.35,0.62,0.33,2.1,0.69,2.88
	C32.91,15.61,33.53,18.3,32.95,19.29z"/>
<path fill="#FFFFFF" d="M31.99,10.65c0.17-1.45,0.36-2.06,0.46-3.15c0.1-1.12,1.54-3.94,2.81-4.01c1.27-0.07,4.17-0.69,5.89,1.78
	c1.73,2.46,1.84,4.54,1.84,4.54s1.85,0.98-0.15,2.52c-0.58,1.15-2.5,4.8-4.24,5.21c-1.74,0.41-4.15,0.06-5.54-2.11
	C31.67,13.28,32.53,13.61,31.99,10.65z"/>
<path fill="#FFFFFF" d="M48.08,49.01c0,0-1.43,6.31-2.01,10.49c-0.58,4.18-1.16,5.33-1.16,5.33s-2.09,8.9-1.87,10
	c0.22,1.11,1.79,0.54,3.27,1.43c1.48,0.88,2.1,0.37,2.1,0.37s0.5-11.85,1.72-15.91c1.22-4.06,2.2-6.83,2.47-7.8s3.95-9.95,1.29-8.86
	C51.24,45.17,49.25,46.87,48.08,49.01z"/>
<path fill="#FFFFFF" d="M22.09,113.95c0,0,0.97,0.27,2.11-5.38c1.14-5.65,0.57-16.64,1.04-22.9c0.47-6.26,1.14-14.76,3.3-19.34
	c2.16-4.59,4.7-13.99,4.64-15.1c-0.06-1.12-0.06-1.12-0.06-1.12s0.61-0.51,0.91-1.01s0.31-6.25-0.63-8.91
	c-0.94-2.67-1.28-3.13-1.69-4.86c-0.41-1.74-2.83-2.25-3.38-3.5c-0.55-1.25-0.88-1.55-2.3-1.16c-1.42,0.39-1.98,1.86-1.98,1.86
	s1.3-2.62,2.41,0.35c1.12,2.98,4.39,7.6,5.23,14.42c0.12,2.39-0.4,4.65-1.82,7.92c-1.43,3.27-5.98,16.93-7.6,25.64
	c-1.62,8.71-0.49,12.01-0.49,15.04c0,3.04-0.21,17.27-0.65,18.09C20.7,114.82,22.09,113.95,22.09,113.95z"/>
<path fill="#FFFFFF" d="M19.35,28.15c0,0-0.05,0.56,0.14,1.19c0.19,0.63,2.85-4,5.5-5.1c2.66-1.1,6.48-2.48,7.28-2.36
	c0.81,0.12,1.67-1.89,2.32-1.6c0.65,0.29-1.46-0.08-3.84,0.2c-2.38,0.29-4.53,1.58-7.5,3.16C20.25,25.22,19.35,28.15,19.35,28.15z"
	/>
<path fill="#FFFFFF" d="M50.89,20.26c0,0,5.14,3.57,6.3,7.5c1.16,3.93,2.38,5.79,5.36,7.71c2.98,1.92,13.26,6.17,15.9,7.63
	c2.63,1.46,3.12,1.59,4.05,1.06c0.93-0.53,0.93-0.53,0.93-0.53s-2.37,0.44-5.21-1.8c-2.83-2.25-9.75-6.2-12.88-7.95
	c-3.13-1.75-4.04-3.94-4.59-5.19S56.58,22.04,50.89,20.26z"/>
<path d="M36.98,3.22c0,0-0.59,0.11,0.07,1.91c0.66,1.79-0.82,2.17-0.79,2.74c0.03,0.58-2.17-0.19-2.47,0.52
	c-0.51,1.18-0.51,1.18-0.51,1.18l0.94-0.43c0.61,0.74,0.61,0.74,0.61,0.74s-1.12,0.64,0,0c1.12-0.64,1.55,0.11,1.55,0.11
	s-0.11,1.54-0.27,2.13c-0.16,0.59,0.26,1.33,0.84,1.3c0.58-0.03-0.58,1.01-0.58,1.01c-2.12,0.39,0.86,3.96,2.25,3.13
	c1.39-0.83,1.98-0.67,3.2-3.04c1.22-2.37,1.22-2.37,1.22-2.37s0.87-1.78,0.8-3.12s-0.81-4.38-1.24-5.32
	c-0.43-0.94-1.84-2.02-2.59-1.79s-2.27,0.7-2.27,0.7C37.01,3.79,36.98,3.22,36.98,3.22z"/>
</svg>
