<?xml version="1.0" encoding="utf-8"?>
<!-- Generator: Adobe Illustrator 15.0.0, SVG Export Plug-In  -->
<!DOCTYPE svg PUBLIC "-//W3C//DTD SVG 1.1 Tiny//EN" "http://www.w3.org/Graphics/SVG/1.1/DTD/svg11-tiny.dtd" [
	<!ENTITY ns_flows "http://ns.adobe.com/Flows/1.0/">
]>
<svg version="1.1" baseProfile="tiny"
	 xmlns="http://www.w3.org/2000/svg" xmlns:xlink="http://www.w3.org/1999/xlink" xmlns:a="http://ns.adobe.com/AdobeSVGViewerExtensions/3.0/"
	 x="0px" y="0px" width="170px" height="220px" overflow="visible" xml:space="preserve">
<defs>
</defs>
<path fill="#231F20" d="M58.97,38.21c0.28,0.12,0.81,0.12,1.38-0.03c0.57-0.15,1.03-0.4,1.22-0.65c-0.29-0.12-0.81-0.12-1.38,0.03
	S59.16,37.97,58.97,38.21z M30.87,167.39c1.32-3.61,0.24-6.91-0.39-8.21c0.27,1.43,1.02,4.65-0.21,7.98
	c-1.84,3.24-1.35,6.86-0.47,8.07C29.3,173.8,29.08,170.62,30.87,167.39z M58.43,186.32c-0.45,0-0.87,0.09-1.33,0.14
	c-3.83,0.05-7.02,3.5-11.26,4.77c-4.11,1.56-8.57,2.42-11.66,0.67c-3.04-1.77-5.32-3.58-6.85-4.66c1.41,1.23,3.57,3.16,6.62,5.06
	c3.28,1.97,7.95,1.1,12.11-0.47c4.46-1.38,7.42-4.79,11.12-4.92c0.6-0.13,2.33-0.35,1.62,0.01c-0.54,0.51-1.22,0.89-1.8,1.26
	c-1.2,0.71-2.25,1.27-3.08,1.72c0.87-0.36,1.96-0.84,3.21-1.49c0.62-0.34,1.29-0.67,1.94-1.22c0.09-0.09,0.52-0.44,0.07-0.79
	C58.89,186.33,58.64,186.3,58.43,186.32z M61.69,36.18c-0.68-0.13-2.11-0.12-3.69,0.39c-1.6,0.46-2.77,1.6-2.86,2.32
	c0.46-0.54,1.55-1.25,3.06-1.71C59.68,36.7,61.04,36.42,61.69,36.18z M51.58,45.94c1.14-0.73,1.21-1.96,1.18-2.41
	c-0.34,0.4-0.65,1.33-1.53,1.87c-0.84,0.57-1.83,0.62-2.32,0.73C49.32,46.39,50.48,46.65,51.58,45.94z M41.66,56.05
	c1.14-0.88,1.46-2.15,1.49-2.69c-0.4,0.44-0.9,1.42-1.9,2.2c-0.96,0.8-1.98,1.27-2.47,1.57C39.34,57.21,40.58,56.96,41.66,56.05z
	 M46.48,39.1c0.74-0.79,1.8-0.84,2.32-0.89c-0.37-0.32-1.77-0.61-2.78,0.44c-0.95,1.03-0.91,2.24-0.84,2.73
	C45.48,40.94,45.73,39.88,46.48,39.1z M50.72,40.47c-0.74-0.04-2.29,0.48-3.61,1.71c-1.35,1.21-1.96,2.68-2.16,3.37
	c0.54-0.53,1.33-1.78,2.59-2.9C48.78,41.52,50.07,40.81,50.72,40.47z M27.44,25.36c-1.33,1.41-1.6,3.14-1.47,3.88
	c0.26-0.71,0.76-2.2,1.94-3.44c1.18-1.26,2.65-1.78,3.33-2.13C30.5,23.64,28.78,23.95,27.44,25.36z M60.46,41.16
	c-1.72,0.47-3.32,0.6-4.08,0.79c0.76,0.19,2.4,0.33,4.26-0.17c1.99-0.32,3.08-2.35,2.52-3.11C63.21,39.53,62.28,40.78,60.46,41.16z
	 M36.36,28.19c-0.49,0.39-1.4,1.19-2.59,1.92c-1.17,0.77-2.31,1.19-2.84,1.54c0.61,0.02,1.92-0.18,3.18-1
	C35.39,29.87,36.19,28.79,36.36,28.19z M33.95,32.41c0.4,0.08,1.27-0.01,2.1-0.54c0.83-0.51,1.32-1.25,1.37-1.67
	c-0.37,0.21-0.97,0.67-1.71,1.13C34.98,31.8,34.28,32.12,33.95,32.41z M121.74,153.27c-4.03,7.35-4.59,14.78-4.21,18.12
	c0.32-3.35,1.34-10.46,5.23-17.55c3.83-7.17,9.51-11.6,12.17-13.65C131.94,141.62,125.72,145.84,121.74,153.27z M130.44,150.59
	c-1.7,1.06-6.29,3.27-7.91,8.62c-0.08,0.67-0.23,1.36,0.13,2.09c0.44,0.83,1.47,0.63,1.98,0.42c1.15-0.5,2.04-1.2,2.83-1.86
	c1.57-1.32,2.71-2.55,3.4-3.37c-0.83,0.69-2.07,1.79-3.69,3.01c-1.19,1.05-4.93,3.39-4.03-0.16
	C124.58,154.47,128.93,151.92,130.44,150.59z M107.38,169.93c-0.89,1.53-1.44,2.87-1.73,3.75c0.47-0.8,1.15-2.06,2.13-3.51
	c0.89-1.45,2.47-3.09,2.75-5.49c0.5-2.22-0.53-4.83-2.43-5.39c-1.7-0.7-3.2-0.6-4.11-0.48c0.91,0.07,2.39,0.15,3.91,0.9
	c1.67,0.68,2.41,2.69,2,4.89C109.65,166.75,108.21,168.38,107.38,169.93z M120.86,139.49c7.91-5.08,16.1-6.68,19.97-6.77
	c-3.86-0.3-12.28,1.07-20.31,6.23c-8.06,5.1-13.06,11.82-15.19,15.03C107.76,150.98,112.92,144.52,120.86,139.49z M146.13,158.62
	c-1.9,1.12-4.14,2.15-6.41,3.35c-0.74,0.37-1.52,0.79-2.31,1.29c-3.4,2.02-6.64,4.63-8.68,8.72c-3.77,7.63-4.76,15.58-7.85,21.4
	c-1.5,2.92-3.24,5.36-4.63,7.56c-1.32,2.03-2.68,4.68-0.98,5.95c-1.31-1.1-0.59-2.94,0.46-4.68c-0.54,1.58-0.97,3.97,1.72,3.24
	c3.92-1.05,8.14-5.28,8.14-5.28s-4.97,3.02-6.93,2.71c-1.96-0.3-0.9-3.77,2.71-7.08c3.62-3.32,13.87-6.48,17.63-18.69
	c0,0-3.32,9.2-9.19,10.4c-5.88,1.21-2.71-9.2,1.51-12.81c4.22-3.62,9.5-3.32,13.57-9.95c0,0-3.62,4.22-5.43,3.77
	c-1.81-0.45,0.3-3.47,3.92-5.88c3.62-2.41,7.08-1.81,3.17,3.02c0,0,4.87-1.34,5.12-11.02c2.48-2.85,3.82-5.87,4.76-7.89
	c-1.16,2.19-2.81,5.57-5.86,8.55C149.55,156.14,147.92,157.43,146.13,158.62z M160.64,142.04c-0.92-0.08-1.79,0.25-2.64,0.66
	c-3.33,2.03-4.99,6.18-8.41,9.22c-3.22,3.33-7.8,5.4-12.62,7.87c-4.73,2.36-9.96,6.08-12.03,11.92
	c-3.59,11.33-8.48,21.06-12.28,29.57c-0.88,2.12-2.05,4.16-1.8,6.5c0.76,2.52,3.53,2.64,5.21,2.46c3.71-0.65,6.34-2.56,8.25-4.03
	c-2,1.33-4.74,3.08-8.31,3.56c-1.62,0.15-4.08-0.25-4.5-2.11c-0.17-1.89,0.96-3.96,1.9-6.02c3.95-8.32,9.05-18.26,12.59-29.47
	c2-5.57,6.75-8.96,11.47-11.42c4.68-2.46,9.48-4.72,12.7-8.22c3.43-3.23,5.06-7.47,8.04-9.41c1.41-0.93,3.68-1.11,3.83,0.71
	c0.24,1.48-0.11,2.89-0.43,4.05c0.39-1.14,0.85-2.51,0.67-4.1C162.24,143.02,161.62,142.06,160.64,142.04z M9.68,63.46
	c-2.79,0.68-4.9-0.6-4.9-0.6C6.59,65.5,9.68,63.46,9.68,63.46z M10.89,84.34c0,0,1.81,0.15,2.26-2.56
	C13.15,81.78,12.32,83.59,10.89,84.34z M113.24,191.29c1.26-1.44,3.15-3.86,4.38-7.4c1.23-3.55,1.58-7.9,3.15-12.21
	c3.24-8.64,11.56-12.21,14.63-14.08c-1.84,0.57-4.63,1.74-7.71,3.81c-2.99,2.06-6.52,5.23-8.04,9.88
	c-1.62,4.47-1.85,8.91-2.84,12.34C115.83,187.09,114.23,189.63,113.24,191.29z M12.85,108.31c0.46,0.53,1.8,1.33,3.55,1.38
	c1.76,0.06,3.13-0.74,3.61-1.23c-0.69,0.17-2.01,0.65-3.59,0.59C14.85,109.01,13.52,108.52,12.85,108.31z M54.14,169.09
	c0.05-0.02,0.08-0.03,0.08-0.03C54.2,169.06,54.17,169.07,54.14,169.09z M9.53,88.94c0.4,0.04,1.22-0.12,2-0.61
	c0.79-0.48,1.33-1.1,1.46-1.5c-0.4,0.12-1.06,0.5-1.8,0.95C10.47,88.24,9.82,88.62,9.53,88.94z M12.25,85.17
	c-0.76,0.38-2.12,1.45-3.97,1.95c-1.85,0.54-3.53,0.13-4.32-0.14c0.57,0.6,2.43,1.36,4.48,0.76C10.48,87.18,11.75,85.81,12.25,85.17
	z M93.34,122.32c0.23-1.09-0.09-3.52-1.41-5.88c-1.29-2.37-2.91-4.07-3.79-4.74c0.6,0.93,1.98,2.75,3.22,5.05
	C92.63,119.03,93.19,121.22,93.34,122.32z M87.01,120.78c1.27,2.27,1.13,4.92,2.26,6.91c0.86,1.17,2.23,0.4,2.75-0.07
	c0.7-0.49,1.14-1.06,1.54-1.44c-0.46,0.31-0.97,0.82-1.69,1.23c-0.64,0.44-1.71,0.9-2.22,0.03c-0.91-1.75-0.73-4.48-2.09-6.97
	c-4.23-3.79-3.92-8.9-3.95-11.02C83.21,111.38,82.79,117.06,87.01,120.78z M57.39,137.15c0.55,0.25,1.84,0.58,3.32,0.29
	c1.47-0.25,2.62-0.93,3.02-1.41c-0.6,0.16-1.76,0.55-3.13,0.78C59.23,137.08,58.02,137.03,57.39,137.15z M77.66,124.29
	c-0.39-1.93-1-3.91-2.46-5.22c-0.74-0.62-1.81-0.8-2.53-0.94c-0.71-0.2-1.27-0.8-1.7-1.4c-1.67-2.53-2.25-5.08-2.72-6.62
	c0.3,1.59,0.68,4.16,2.34,6.88c0.45,0.64,1.01,1.36,1.94,1.65c0.94,0.21,1.61,0.33,2.3,0.88c1.24,1.14,1.84,3.01,2.21,4.89
	c0.54,3.96,3.58,7.44,6.93,7.62c2.13,0.07,2.08-2.4,1.87-3.35c-0.2-1.22-0.54-2.21-0.85-2.97c0.22,0.78,0.48,1.8,0.6,3
	c0.11,1.05,0.03,3.05-1.6,2.86C81.01,131.32,78.15,128.05,77.66,124.29z M67.11,141.39c2.11,6.63,8.14,5.88,8.14,5.88
	C69.53,145.46,67.11,141.39,67.11,141.39z M89.33,133.18c1.14-0.56,2.21-0.76,2.88-0.9c-0.69-0.04-1.8-0.01-3.07,0.48
	c-1.28,0.34-2.77,2.03-2.21,3.9c0.87,3.52,3.79,5.22,5.05,5.56c-1.14-0.71-3.65-2.52-4.43-5.71
	C87.12,134.94,88.16,133.68,89.33,133.18z M82.4,137.13c-1.8-0.85-4.1-1.29-5.69-2.78c-1.54-1.63-1.2-4.3-1.45-6.81
	c-0.28-2.46-1.16-5.43-3.87-6.1c-2.4,0.23-4.49,0.6-6.44,0.33c-1.95-0.27-3.12-1.93-3.38-3.44c-0.34-1.52-0.25-2.88-0.11-3.92
	c-0.23,1.03-0.41,2.39-0.14,3.97c0.17,1.56,1.4,3.49,3.55,3.84c2.02,0.35,4.31,0,6.5-0.19c1.93,0.42,3.12,3.27,3.25,5.56
	c0.26,2.41-0.16,5.22,1.65,7.16c1.88,1.68,4.15,1.99,5.94,2.8c3.89,1.31,5.28,4.71,5.69,6.7C87.72,142.27,86.41,138.6,82.4,137.13z
	 M88.82,148.33c0.04,1,0.86,3.03,2.49,4.81c1.61,1.79,3.38,2.94,4.29,3.33c-0.7-0.71-2.26-2.02-3.81-3.75
	C90.22,150.99,89.24,149.23,88.82,148.33z M104.31,118.48c0,0,1.92-6.22-1.81-14.58c0,0,2.15,6.45,1.13,9.72
	c0,0,0.79-3.39-2.83-6.33c0,0,0.85,0.99,1.43,2.48c0.23,0.68,0.44,1.49,0.52,2.38c0.04,1.04-0.16,2.16-0.82,3.28
	c-2.38,4.07-2.71,4.64-2.38,5.88c0,0-0.06-0.97,1-2.53c-0.86,3.43,0.15,6.54,1.15,7.62c-0.84-1.45-1.64-5.28,0-9.04
	C103.97,114.98,103.74,115.2,104.31,118.48z M80.9,66.49c-0.86-0.52-1.72-1.01-2.66-1.21c-0.68-0.23-1.34-0.9-1.74-1.46
	c-0.41-0.57-0.63-1.32-0.42-1.74c0.31-0.31,0.96,0.14,1.25,0.3c-0.28-0.19-0.69-0.88-1.44-0.48c-0.44,0.65-0.16,1.47,0.22,2.16
	c0.45,0.69,0.97,1.39,1.99,1.79c0.82,0.21,1.64,0.68,2.46,1.17c1.73,1,2.66,2.42,3.2,3.92c0.62,1.42,1.1,2.58,1.45,3.33
	c-0.17-0.8-0.5-2.03-1.02-3.5C83.81,69.29,82.7,67.47,80.9,66.49z M164.9,140.73c-0.12-0.19-0.26-0.37-0.42-0.54
	c-0.95-1.03-2.42-1.67-4.56-2.03c-5.28-0.88-8.12-2.85-15.18-6.49c-2.79-1.44-5.67-1.88-8.15-1.88c-4.04,0-7.05,1.15-7.1,1.17
	c-0.02,0.01-2.53,0.93-6.31,2.99l-0.53-0.36l-8.37-5.58c-0.4-1.74-2.69-11.59-4.63-17.14c-0.24-0.67-0.33-1.49-0.33-2.46
	c0-2.38,0.58-5.6,0.58-9.59c0.01-7.03-1.86-16.46-11.82-28.26l-0.03-0.04l-0.03-0.03c0,0-0.19-0.17-0.51-0.5
	c-0.97-0.99-3.07-3.35-4.14-6.03c-0.76-1.89-1.14-2.76-1.62-3.44c-0.49-0.69-0.97-1.04-1.84-1.91c-0.64-0.68-0.6-0.83-0.62-1.14
	c0-0.12,0.01-0.28,0.01-0.47c0.02-0.66-0.25-1.55-1.35-2.61c-2.21-2.26-2.33-2.93-2.52-4.99c-0.19-2.34-1.54-4.74-1.66-6.78
	c-0.01-0.1-0.01-0.2-0.01-0.3c-0.01-1.34,0.53-3.44,0.54-5.2c-0.01-0.96-0.15-1.92-0.86-2.61c-0.26-0.32-1.47-1.73-3.55-1.75
	c-1.15,0-2.48,0.47-3.87,1.71c-1.53,1.36-2.61,3.15-3.34,5.12c-0.1-0.02-0.57-0.12-1.23-0.12c-0.72,0-1.67,0.11-2.57,0.62
	c-0.62,0.34-1.2,0.89-1.63,1.66c-0.16-0.34-0.29-0.66-0.38-0.95c-1.08-3.42-2.59-5.43-6.23-8.6c-1.75-1.56-1.84-2.11-2.3-2.87
	c-0.23-0.39-0.57-0.8-1.14-1.18c-0.57-0.39-1.37-0.8-2.63-1.33c-4.84-2.05-7.44-5.1-9.5-6.7c-1.83-1.39-5.36-5.83-9.69-8.62
	c-1.32-0.85-2.64-2.03-3.98-3.03c-1.34-0.99-2.71-1.85-4.26-1.86c-1.48-0.01-2.89,0.86-4.16,2.74c-0.56-0.53-1.46-1.4-2.52-2.44
	c-1.77-1.73-3.95-3.91-5.59-5.7C14.11,0.38,13.07,0,12.03,0C9.12,0.02,5.95,2.78,5.94,7.12c0,0.77,0.1,1.59,0.32,2.44
	c-0.31,0.37-1.74,2.16-1.75,4.86c0,1.53,0.49,3.32,1.85,5.19c-0.1,0.53-0.16,1.11-0.16,1.74c0,0.96,0.14,2.03,0.44,3.25
	c-0.32,0.09-0.79,0.27-1.28,0.61c-0.83,0.56-1.67,1.69-1.65,3.41c0,0.17,0.01,0.35,0.02,0.54c0.01,0.15,0.02,0.32,0.02,0.51
	c0.01,1.86-0.72,4.88-0.72,8.45c0,2.91,0.49,6.23,2.28,9.68l0.01,0c-0.03,0.22-0.06,0.44-0.08,0.68c-0.37,3.83-1.34,5.96-2.26,7.92
	c-0.8,1.68-1.58,3.28-1.77,5.54H1.21c0,0.01,0,0.01,0,0.02c-0.03,0.34-0.04,0.69-0.04,1.06C1.18,66.63,0.01,69.88,0,75.63
	c0,2.51,0.23,5.5,0.88,9.21c1.06,6.1,2.64,8.86,4.41,11.7c1.76,2.83,3.69,5.77,5.71,12.65c3.61,12.3,7.73,16.12,8.79,16.94
	c0.36,1.68,2.46,10.83,7.8,18.7c-3.27,3.23-4.57,6.82-5.14,10.36c-0.6,3.77-0.43,7.5-0.99,10.91c-0.69,4.46-3.44,8.56-3.48,12.58
	c-0.01,2.08,0.84,4.14,3.04,5.91c2.96,2.41,4.5,4.89,6.36,7.02c1.85,2.13,4.11,3.87,8.21,4.44c2.85,0.41,4.6,0.47,6.19,0.47
	c0.63,0,1.24-0.01,1.88-0.01c2.23,0,4.94,0.11,10.91,1.12c1.63,0.28,3.11,0.4,4.46,0.4c0.01,0,0.02,0,0.04,0
	c4.36,0,7.34-1.36,9.49-3.13c2.16-1.77,3.51-3.91,4.74-5.43c2.93-3.61,7.9-9.48,9.96-12.23c1.16-1.63,1.33-4.65,1.35-7.52
	c0-1.47-0.07-2.88-0.14-3.97c1.23,1.28,3.17,2.76,6.43,4.59l0.08,0.04c-0.35,1.01-0.69,2.04-1,3.09l-0.03,0.1l0,0.11
	c0,0.01,0.23,7.92,0.23,10.61c0.01,1.42-0.44,3.22-0.44,5.31c0,1.57,0.27,3.31,1.19,5.16c1.16,2.28,3.67,3.92,6.03,5.67
	c2.37,1.74,4.55,3.56,5.24,5.76c0.65,2,2.49,3.78,4.86,5.12c2.37,1.33,5.29,2.21,8.19,2.21c0,0,0,0,0.01,0c2.48,0,4.96-0.65,7-2.25
	l-0.04-0.05c-7.43,3.45-12.68,0.61-15.27-1.55c-1.06-0.69-1.93-1.47-2.56-2.27c-2.34-3.43-2.05-8.43-1.12-12.65
	c0.96-4.39,2.81-8.56,4.87-12.57c-2.23,3.92-4.26,8.01-5.42,12.43c-0.62,2.53-1.14,5.26-0.93,7.95c-2.6-2.93-2.11-8.23-1.45-12.33
	c0.81-4.6,2.29-9.07,3.96-13.46c-1.84,4.31-3.5,8.73-4.51,13.34c-0.53,3.34-1.43,7.21-0.17,10.65c-0.6-0.49-1.22-0.96-1.83-1.41
	c-2.4-1.75-4.75-3.4-5.62-5.18c-0.82-1.64-1.05-3.14-1.05-4.56c0-1.89,0.44-3.64,0.45-5.31c0-2.16-0.14-7.52-0.2-9.7
	c2.99,4.24,5.05,9.33,5.33,14.68c0.06-5.77-1.9-11.42-5.12-16.27c1.45-4.7,3.39-8.93,5.63-12.72c2.71-4.18,6.55-9.28,11.73-14.42
	c1.71-1.58,3.42-3.01,5.09-4.29c4.29-3.29,8.29-5.62,11.22-7.13c1.47-0.75,2.66-1.3,3.49-1.66c0.83-0.36,1.27-0.52,1.27-0.52
	c0.01,0,0.17-0.06,0.49-0.16c0.97-0.3,3.3-0.92,6.13-0.92c2.32,0,4.98,0.41,7.53,1.73c5.46,2.81,8.51,4.71,12.25,5.85
	c-5.52,0.67-10.58,4.08-13.86,8.35c4.74-5.64,12.65-9.18,19.61-6.89c0.6,0.27,1.04,0.58,1.35,0.93c0.64,0.7,0.89,1.62,0.9,2.93
	c0,0.77-0.09,1.66-0.24,2.65C165.19,143.97,165.27,142.06,164.9,140.73z M68.07,43.29c0.31-1.11,0.85-1.67,1.46-2.02
	c0.61-0.34,1.34-0.44,1.91-0.44c0.29,0,0.53,0.02,0.7,0.04c0.04,0.01,0.08,0.01,0.11,0.02c-0.6,2.1-0.85,4.32-0.86,6.42
	c0,0.26,0,0.51,0.01,0.77c-0.37-0.48-0.8-1.04-1.23-1.63C69.44,45.45,68.68,44.34,68.07,43.29L68.07,43.29z M5.87,14.42
	c0-1.21,0.37-2.23,0.74-2.94c0.06-0.12,0.12-0.22,0.18-0.32c0,0,0.79,2.56,1.46,3.46c0.24,0.31,0.17,0.87-0.02,1.45
	c-0.05,0.04-0.09,0.08-0.14,0.13c-0.43,0.44-0.86,1.02-1.2,1.75C6.13,16.63,5.87,15.45,5.87,14.42z M4.39,38.12
	c0-2.09,0.27-3.98,0.48-5.63c0.28,0.93,0.45,1.96,0.45,1.96c0.09-1.79-0.07-3.65-0.21-4.85c0-0.19-0.01-0.38-0.02-0.56
	c-0.01-0.15-0.02-0.29-0.02-0.42c0.01-1.3,0.54-1.9,1.08-2.3C6.42,26.12,6.7,26,6.91,25.93c0.04-0.01,0.08-0.02,0.11-0.03
	c0.55,1.67,1.41,3.57,2.66,5.74c0.19,0.72,0.35,1.76,0,2.59c-0.6,1.43-2.19,4.45-1.51,6.71c0.23,0.76,0.22,1.3,0.12,1.68
	c-0.63,0.13-1.29,0.53-1.77,1.28c-0.29,0.44-0.54,0.99-0.75,1.67C4.71,42.93,4.39,40.42,4.39,38.12z M24.01,135.11
	c-1.07-2.64-1.81-5.03-2.29-6.75c-0.28-1.02-0.46-1.79-0.57-2.26c1.47,0.88,3.13,1.22,4.69,1.05c-1.43-0.12-2.8-0.72-3.86-1.58
	c1.45,0.29,2.93,0.18,4.26-0.44c-3.12,1.02-6.43-0.59-8.2-3.02l0,0c-1.62-2.39-3.76-6.49-5.76-13.3c-0.14-0.47-0.27-0.92-0.41-1.35
	c2.4,0.4,4.55-0.77,6.07-2.2c-1.91,1.36-4.56,1.96-6.42,0.98l-0.03,0.06c-1.78-5.29-3.54-8.01-5.07-10.47
	C4.7,93,3.26,90.56,2.21,84.6c-0.64-3.64-0.86-6.54-0.86-8.97c0-3.91,0.57-6.62,0.92-9.25c0.18,0.86,0.33,1.72,0.45,2.59
	c0.05-1.75-0.06-3.48-0.21-5.21c0.01-0.25,0.02-0.49,0.02-0.74c0-2.57,0.76-4.06,1.69-6.04c0.93-1.97,2-4.36,2.38-8.37
	c0.2-2.11,0.63-3.33,1.06-3.96c0.44-0.63,0.78-0.71,1.13-0.73c0.15,0,0.31,0.03,0.46,0.08c0.32,0.19,0.69,0.52,1.1,1.07
	c0.64,1.76,1.55,3.77,2.81,6.07c0.27,0.5,0.53,0.97,0.78,1.44c0.01,0.14,0.01,0.33,0.01,0.56c0.01,1.33-0.25,3.8-1.68,5.69
	c-0.93,1-2.42,1.91-4.77,2.15c0,0,1.43,0.45,2.79,0c0,0-1.66,1.28-3.77,0.98c0,0,2.49,1.7,4.96-0.02c0.34,1.96,0.85,6.43,0.88,15.7
	c-0.54,1.33-2.3,4.79-6.29,5.88c0,0,3.17,0.3,5.65-2.71c0,0-1.58,2.71-3.54,3.84c0,0,2.71-0.23,4.07-3.09
	c0.39-0.82,0.67-1.46,0.85-1.99c0.15,0.17,0.33,0.37,0.54,0.61c1.74,2,5.19,6.38,7.41,11.68c0.93,2.62,1.55,5.43,1.68,8.29
	c0.17-1.96,0.1-3.93-0.15-5.9l0.2-0.06c0.7,1.59,1.26,3.25,1.65,4.97c-0.11-1.23-0.32-2.44-0.6-3.64c-0.09-0.76-0.38-3.32-0.12-4.15
	c0.18-0.58,1.07-0.45,1.77-0.24c0.45,0.2,0.96,0.49,1.55,0.92c0,0-1.73-2.54-3.88-2.11c0.27-0.15,0.79-0.31,1.78-0.22
	c0,0-0.38-0.3-1.58-0.83c-1.21-0.53-4.97-6.18-6.71-8.74s-2.41-3.77-0.53-4.15c1.88-0.38,3.62-2.11,3.62-2.11s-2.26,1.21-3.77,1.21
	c0,0,2.86-0.83,4.37-2.71c0,0-2.79,2.04-5.2,1.51c-0.67-0.15-1.14-0.82-1.48-1.72c-0.16-5.58-0.51-8.68-0.79-10.33
	c0.24-1.07,0.94-3.48,2.28-2.68c0.93,0.56,2.09,1.41,2.95,2.08c0.55,1.35,0.94,2.44,1.27,3.35c0.69,1.94,1.15,3.23,2.28,4.62
	c-0.41,0.65-1.82,2.62-4.32,3.55c0,0,1.96,0.08,4.22-1.43c0,0-0.07,0.9-0.83,1.73c0,0,0.83-0.07,1.28-0.6c0,0,1.36,0.6-0.68,2.26
	c0,0,1.36,0.53,2.03-0.15c0.68-0.68,1.28,2.19,1.28,4.52c0,2.34,0.15,4.75,1.28,6.56c0,0-0.15-0.83,0-1.66
	c0.15-0.83,0.6,2.49,2.64,4.75c0.67,0.74,1.3,1.54,1.87,2.39c0.63,1.52,1.05,3.25,1.37,5.08c0.12,1.7,0.23,3.39,0.23,3.39
	c-0.3-0.98-1.88-1.73-1.88-1.73c1.29,1.41,2.21,4.04,2.56,5.14c0.01,0.11,0.03,0.22,0.04,0.34c-1.68-2.75-4.64-4.27-4.64-4.27
	c2.13,1.89,4.08,5.46,5.28,7.94c0.57,2.41,1.57,5.5,3.12,8.85c-0.4,1.66-2.03,6.43-7.72,8.16c0,0,4.37-0.38,6.93-3.01
	c0,0,1.13,1.58-2.11,3.62c0,0,0.98,0.08,2.79-1.36c1.81-1.43,4.15-0.98,2.04,2.41c-2.11,3.39-7.54,4.97-11.61,4.97
	c0,0,4.82,1.13,9.5-1.58c4.67-2.71,5.65-1.96,4.37,0.22c-1.28,2.19-4.82,3.47-9.19,3.84c0,0,3.84,0.75,7.31-0.9s6.86-2.34,8.97,1.21
	c2.11,3.54,3.32,9.5,0.53,13.41c0,0,3.09-2.79,2.71-7.99c-0.15-2.09,0.46-1.95,1.25-1.04c2.46,4.09,4.55,9.29,2.36,13.02
	c0,0,1.43-0.68,2.56-2.71c0,0,2.49,2.11-2.71,5.28c0,0,2.49-0.6,4.22-2.26c1.73-1.66,5.96-1.21,0.08,2.86s-10.02,3.62-13.27,3.39
	c0,0,5.88,1.96,11.08-0.98c5.2-2.94,9.72-5.35,8.44-3.47c-1.28,1.88-4.6,8.44-15.6,8.44c0,0,6.78,0.98,11.61-2.04s4.9,0.9-1.73,3.47
	c0,0,0.9,0.08,4.22-1.58c2.81-1.4,3.5-1.4,2.83-0.04c-0.32,0.26-0.65,0.51-1,0.76c-3.35,2.4-7.81,4.18-12.05,4.18
	c-1.43,0-2.85-0.2-4.19-0.64c-2.48-0.81-3.89-1.59-4.78-2.38c-1.33-1.16-1.66-2.51-2.68-4.54c-0.2-0.4-0.44-0.82-0.71-1.26
	c1.41,1.05,2.9,2.72,2.9,2.72c-1.58-3.24-5.96-6.52-5.96-6.52c4.59,1.82,9.65,2.25,14.28,0.79c-5.98,1.52-12.39-0.12-17.34-3.49
	C29.61,146.7,26.15,140.39,24.01,135.11z M57.44,171.69c-0.24,0.22-0.48,0.45-0.7,0.7c-1.05,0.97-2.08,1.98-3.13,2.94
	c-2.3,0.96-7.35,2.51-12.57,0.29c0,0,4.15,4.14,9.47,2.15c-0.7,0.45-1.43,0.84-2.21,1.15c-0.85,0.39-1.73,0.62-2.64,0.77
	c-1.56-0.38-5.51-1.55-7.48-4c-2.49-3.09-3.39-6.26-3.39-8.29s1.73-0.53,2.49,1.73c0.75,2.26,4.3,6.48,8.52,6.18
	c0,0-4.75-0.6-7.31-5.96s-3.32-6.41-2.03-8.52c1.28-2.11,2.34,1.73,2.56,3.77c0.23,2.04,1.88,6.41,3.69,7.39
	c0,0-2.79-2.71-3.17-7.39c-0.38-4.67,0.68-4.97,1.36-2.41c0.68,2.55,4.65,10.57,13.26,6.89c-0.78,0.3-6.82,2.33-10.49-4.78
	c1.09,0.88,2.62,1.67,5.01,2.45c1.5,0.49,3.05,0.71,4.61,0.71c3.58,0,7.18-1.14,10.27-2.83c-2.19,2.26-8.42,7.81-16.49,7.21
	C47.07,171.84,51.21,174.35,57.44,171.69z M82.81,174.79c-0.79,1.81-2.45,4.08-5.9,5.65c-6.62,3.01-10.23,6.17-12.35,10.97
	c0.21-0.45,3.16-6.34,12.88-9.13c-1.83,2.22-3.76,4.54-5.21,6.32c-1.31,1.62-2.59,3.63-4.55,5.23c-1.96,1.6-4.56,2.82-8.67,2.83
	c-1.26,0-2.67-0.12-4.23-0.38c-4.71-0.8-7.47-1.05-9.54-1.12c2.37-0.24,4.73-0.6,7.07-1.01c-4.12,0.53-8.28,0.9-12.41,0.76
	c-2.85-0.15-6.35-0.45-8.76-1.78c-0.58-0.36-1.09-0.77-1.58-1.21c-0.18-0.19-0.35-0.4-0.49-0.62l-0.11,0.03
	c-0.19-0.2-0.38-0.41-0.57-0.62c-1.76-2-3.39-4.61-6.53-7.17c-1.94-1.6-2.53-3.13-2.54-4.86c-0.04-3.39,2.66-7.56,3.46-12.37
	c0.58-3.6,0.41-7.33,0.99-10.91c0.54-3.31,1.68-6.48,4.6-9.45c0.85,1.17,1.78,2.29,2.79,3.35c-2.24,2.01-3.34,4.9-3.38,7.75
	c0.12,3.01,0.63,5.79-0.18,8.63c-0.84,2.78-1.1,5.8-0.5,8.66c0.4,2.73,2.29,6.05,5.4,5.5c-3.11,0.43-4.8-2.86-5.12-5.55
	c-0.49-2.86-0.16-5.7,0.77-8.47c0.94-2.83,0.5-6,0.48-8.73c0.05-1.29,0.36-2.58,0.89-3.75c0.97-0.68,2.92-1.76,3.37,0.2
	c0.6,2.64-2.04,3.16-0.98,6.41c0,0-0.38-2.34,0.98-3.09c1.36-0.75,3.39,0.3,2.26,2.26c-1.13,1.96-3.02,2.41-2.11,7.46
	c0.9,5.05-3.39,6.93-2.11,10.63c0,0-0.15-1.96,1.81-3.24c1.81-1.18,3.55,5.91,3.81,7.01c-3.05,0.96-6.56,2.64-8.7-0.52
	c-2.2-2.79-3.84-6.31-3.43-9.95c0.37-3.59,2.4-6.93,1.97-10.59c-0.54-3.53-0.1-7.52,2.41-10.34c-2.55,2.78-3.05,6.8-2.55,10.35
	c0.38,3.61-1.68,6.88-2.11,10.55c-0.46,3.74,1.17,7.37,3.39,10.25c1.04,1.53,3.19,2.53,5.06,1.97c1.83-0.4,3.49-1.1,5.23-1.49
	c3.39-1,7.2-0.1,10.74-1.63c3.53-1.38,6.1-4.19,8.75-6.55c2.52-2.66,5.92-3.75,8.9-6.16c1.5-1.3,2.75-2.88,3.67-4.63
	c-0.18,0.46-0.37,0.91-0.58,1.35c-1.21,2.78-3.9,4.53-6.19,6.63c-2.36,2.03-4.77,4.01-7.01,6.2c-1.19,1.02-2.02,2.48-3.28,3.23
	c-1.28,0.81-2.71,1.44-4.16,1.97c-5.82,2.05-11.97,3.6-18.19,3.54c-3.09-0.15-6.06-2.29-7.18-5.21c-1.07-2.99-0.69-6.23-0.21-9.28
	c-0.52,3.05-0.97,6.28,0.08,9.33c1.12,3,4.06,5.22,7.29,5.44c6.32,0.15,12.48-1.3,18.41-3.29c1.48-0.52,2.94-1.12,4.31-1.97
	c1.48-0.91,2.23-2.28,3.42-3.26c2.24-2.12,4.67-4.07,7.06-6.06c2.27-2.03,5.11-3.81,6.53-6.84c1.4-2.83,2.11-5.85,2.51-8.94
	c0.32,0.15,0.65,0.3,0.99,0.45c0.35,4.45-1.08,9.14-3.88,12.74c-1.45,1.87-3.03,3.66-4.81,5.21c-1.76,1.52-3.92,2.83-5.3,4.85
	c-2.66,3.9-6.56,7.32-11.53,7.43c-4.66,0.54-9.83-0.26-13.98,2.01c4.18-2.18,9.31-1.28,14-1.73c5.04,0.02,9.24-3.51,11.95-7.36
	c1.38-1.94,3.43-3.1,5.32-4.66c1.86-1.57,3.5-3.35,5.02-5.23c2.28-2.86,3.78-6.33,4.22-9.99c-0.13,4.54-1.28,13.23-7.75,18.3
	c0,0,10.46-4.58,9.23-20.41c0.74,0.37,1.37,0.71,1.92,1.04c0.46,6.31,0.09,13.46-4.36,18.6c4.56-4.72,5.52-11.55,5.49-17.88
	c0.04,0.03,0.08,0.06,0.12,0.09c1.58,5.72,2.15,12.54-1.51,17.83c3.68-4.69,3.89-10.97,2.89-16.67c1.23,1.28,1.29,2.3,2.16,3.93
	c0.02,0.05,0.05,0.09,0.08,0.14l-0.04,0h0c0,0.01,0.31,2.85,0.31,5.93C83.27,171.51,83.13,173.42,82.81,174.79z M116.88,137.06
	l-3.18-2.61l1.85,3.7c-0.68,0.54-1.34,1.07-1.99,1.62c-0.23-0.31-0.48-0.62-0.77-0.94c-4.54-6.21-4.67-12.37-4.67-12.37
	c-0.45,7.08,1.21,8.59,1.21,8.59l-0.67-0.31c-1.43-1.3-3.17-2.73-5.26-4.11c-2.06-1.19-4.8-2.1-5.22-4.97
	c-0.38-2.63-0.54-5.77-1.97-8.53c-5.17-11.23-15.25-17.13-15.52-22.64c-0.06,5.69,9.92,11.94,14.93,22.9
	c1.41,2.72,1.53,5.57,1.98,8.39c0.47,3.15,3.69,4.21,5.56,5.24c0.75,0.47,1.46,0.95,2.13,1.43c4.52,3.8,6.34,7.54,6.79,8.57
	c-0.67,0.58-1.33,1.17-1.96,1.76c-0.19-1.59-1.39-3.93-3.6-5.63c-2.68-2.17-5.51-3.14-6.84-3.54c1,0.63,3.07,1.58,5.23,3.12
	c3.38,3.3,3.75,6.15,3.69,7.49c-0.15,0.15-0.29,0.29-0.44,0.44c-1.39,1.28-2.79,2.67-4.15,4.15c-0.35-0.92-1.31-2.49-3.99-3.33
	c-3.96-1.24-7.12-4.29-7.12-7.46c0,0-1.36,4.29,3.73,6.67c4.13,1.93,5.72,3.86,5.75,5.97c-2.16,2.54-4.23,5.35-6.11,8.47
	c-0.02,0.01-0.04,0.02-0.05,0.03c0,0-1.96-1.96-8.29-3.17c0,0,4.98,2.23,7.12,5.09c-2.24,3.64-3.57,6.42-4.12,7.66
	c-2.98-1.72-4.65-3.07-5.65-4.17c-0.3-0.33-0.55-0.64-0.75-0.94c-0.43-1.21-0.75-3.08,0.17-5.26c0,0-1.21,1.29-1.27,3.05
	c-0.02-0.04-0.03-0.08-0.05-0.12c-0.33-1.53-0.44-3.62,0.38-5.98c0,0-1.21,1.57-1.34,3.73c-1.11-3.64-3.44-9.62-7.74-14.21
	c0,0,5.63,7.51,5.26,12.41c-1.28-0.87-3.05-1.82-5.59-2.93c-6.98-3.05-11.06-6.8-14.6-10.92c-2.43-2.82-4.6-5.84-7.26-8.88
	c1.88,0.31,3.25-0.16,3.25-0.16c-1.7-0.22-3.19-0.66-4.48-1.21c-0.21-0.23-0.42-0.45-0.64-0.68c3.29,1.24,5.98,0.32,5.98,0.32
	c-3.95-0.5-7.01-2-9.13-3.43c-8.49-8.47-12.27-19.34-13.11-24.42c-0.65-3.79-0.81-8.41-1.98-12.39c0.37,0.73,0.74,1.52,1.1,2.34
	c1.45,3.26,2.13,6.29,2.47,7.75c0.05-1.49-0.4-4.67-1.88-8.01c-0.86-1.97-1.87-3.65-2.78-4.92c-0.29-0.57-0.6-1.12-0.96-1.64
	c-1.4-1.94-2.31-5.24-2.82-8.02c-0.37-1.96-0.55-3.66-0.62-4.49c1.29,0.82,2.44,1.98,3.23,3.39c-0.81-2.17-2.36-4.06-4.5-5.29
	c-0.95-0.92-1.4-1.67-1.6-2.22h0.08c-0.17-1.3,0.69-2.89,2.08-3.76c-0.91,0.33-1.79,0.93-2.4,1.76l0,0
	c-1.88-1.82-2.19-2.8-3.11-5.36c-0.83-2.32-2.1-5.81-5.34-11.91c-0.01-0.06-0.01-0.1-0.01-0.11l-0.04,0
	c-0.28-0.52-0.56-1.05-0.87-1.61c-3.1-5.67-4-9.44-3.99-11.86c0-1.81,0.49-2.87,0.93-3.48c0.22-0.31,0.44-0.5,0.59-0.62
	c0.08-0.06,0.14-0.1,0.17-0.12c0.01,0,0.01,0,0.01-0.01c0.01,0,0.02-0.01,0.04-0.01c0.17-0.05,0.63-0.16,1.19-0.16
	c0.62,0.02,1.34,0.12,2.02,0.59c-1.6,0.61-2.82,1.96-2.91,3.52c0.49-1.73,2.21-2.63,3.8-2.65c0.23,0.31,0.45,0.69,0.65,1.16l-0.01,0
	c0.03,0.06,0.05,0.12,0.08,0.18c0.04,0.09,0.08,0.19,0.11,0.29c0.33,0.95,0.71,1.85,1.13,2.71c0.26,0.69,0.51,1.39,0.71,2.09
	c0.26,0.86,0.56,1.98-0.5,2.35c-0.89,0.34-1.87,0.4-2.83,0.4c0.96,0.09,1.93,0.14,2.92-0.13c1.04-0.23,1.18-1.34,1.08-2.16
	c0.96,1.6,2,3.1,3,4.6c-1.57-0.02-2.82,1.03-3.81,1.89c1.43-0.94,3.54-1.52,4.6-0.67l0.01-0.01c0.33,0.52,0.66,1.04,0.97,1.56
	c-0.22,1.28-2.45,2.18-4.15,2.38c1.48-0.05,3.55,0.09,4.74-1.46c2.59,3.95,6.78,8.38,7.65,11.59c0.28,1.03,0.73,1.76,1.24,2.32
	c-2.03-0.03-3.99,0.95-5.31,2.29c1.88-1.5,4.54-2.06,6.55-1.2c0.12,0.09,0.25,0.18,0.37,0.27c0.86,0.68,1.64,1.33,2.26,2.99
	c0.04,1.17-0.94,2.42-2.23,3.04c-1.59,0.83-3.41,1.25-5.22,1.56c1.83-0.13,3.68-0.34,5.46-1.04c0.91-0.32,1.89-1.02,2.48-1.96
	c0.67,2.23,1.49,3.29,2.34,4.53c0.8,1.17,1.68,2.58,2.74,5.61l-0.03,0c0.45,1.97,0.89,3.94,1.17,5.97c0.07-1.52,0.05-3.03,0.01-4.54
	c1.55,1.79,2.85,3.9,3.83,6.15c-0.74-2.61-1.87-5.1-3.48-7.38c-0.11-0.33-0.22-0.65-0.32-0.95c1.25,0.73,2.43,1.71,3.34,2.95
	c-0.88-1.8-2.25-3.32-3.94-4.52c-0.8-1.95-1.54-3.11-2.19-4.06c-0.96-1.41-1.65-2.23-2.32-4.71c-0.37-1.45-0.92-2.46-1.51-3.22
	c0.44-2.6,2.51,0.99,2.51,0.99c-0.6-2.41-0.91-2.41-2.71-3.62c-1.81-1.21-2.71-0.45-2.71-2.41c0-1.96-0.3-3.47-1.66-4.82
	c-1.36-1.36-3.47-4.82-3.47-4.82c0,0.75,1.36,2.86,2.11,4.07c0.67,1.08-0.58,0.95-0.85,0.91c-1.86-2.6-4.12-5.23-5.5-7.59
	c-1.31-2.2-2.8-4.24-4.15-6.37c0.92-1.55,2.01-3.08,3.49-4.27c-1.55,0.81-2.85,1.97-4.04,3.25c0.44-1.38,1.38-2.79,2.43-3.99
	c-1.14,0.86-2.21,1.8-3.06,3.04c-0.72-1.28-1.35-2.61-1.85-4.05c-1.07-3.23-3.48-4.04-5.03-4c-0.48,0-0.88,0.06-1.18,0.12
	c-3.48-5.4-4.55-9.15-4.54-11.64c0.01-2.18,0.77-3.43,1.51-4.19c0.37-0.38,0.75-0.63,1.02-0.79c0.14-0.08,0.25-0.13,0.32-0.16
	c0.01-0.01,0.02-0.01,0.03-0.01c0.03,0,0.08,0,0.14,0c0.47,0.01,1.56,0.08,2.78,0.7c-1.96,0.73-3.5,2.37-3.67,4.32
	c0.59-2.24,2.8-3.47,4.89-3.53c0.58,0.47,1.15,1.1,1.67,1.92c1.04,2.07,2.09,4.17,2.77,6.36c0.62,1.23-0.73,2.15-1.88,2.43
	c-1.19,0.3-2.55,0.4-3.71-0.31c1.11,0.8,2.51,0.81,3.77,0.59c1.13-0.08,2.99-1.25,2.37-2.83c-0.05-0.23-0.12-0.46-0.18-0.69
	c1.7,2.64,3.28,4.54,4.4,5.75c0.69,0.76,1.36,1.22,1.87,1.61c-0.35-0.03-0.7,0.03-1.05,0.21c-1.41,0.61-2.33,1.78-3.23,2.88
	c1.01-0.97,2.13-1.99,3.39-2.34c0.97-0.32,1.71,0.26,2.12,1.08c0.01,0.07,0.02,0.14,0.03,0.22c0.02,0.67,0.33,1.28,0.83,1.55
	c0.08,0.04,0.16,0.06,0.24,0.1c0,0,0,0.01-0.01,0.01l0.12,0.04c0.14,0.05,0.29,0.09,0.42,0.12c-0.86,0.2-1.65,0.56-2.28,1.13
	c1.33-0.78,2.95-0.73,4.38-0.34c0.21,0.19,0.42,0.43,0.64,0.75c0.42,0.75,0.44,1.75-0.22,2.53c-0.76,1.02-1.99,1.65-3.19,2.21
	c1.26-0.38,2.58-0.8,3.61-1.82c0.4-0.34,0.66-0.8,0.8-1.3c1.91,2.82,4.93,5.84,8.04,8.68c-0.73,0-1.44,0.17-2.05,0.53
	c-1.74,0.89-2.88,2.45-3.92,3.96c1.18-1.39,2.5-2.81,4.15-3.43c1.06-0.49,2.24-0.36,3.17,0.16c0.08,0.07,0.16,0.15,0.25,0.22
	c0.21,0.19,0.4,0.37,0.59,0.54c-0.88-0.15-2.39,0.18-3.64,1.19c-1.53,1.18-2.38,2.62-2.69,3.34c0.62-0.49,1.65-1.73,3.07-2.82
	c1.26-1,2.59-1.46,3.43-1.53c0.64,0.61,1.18,1.18,1.64,1.75c0.96,3.56-2.55,6.9-6.31,7.51c1.91-0.28,3.85-0.89,5.39-2.24
	c1.06-0.96,1.77-2.29,1.99-3.74c0.44,0.72,1.39,2.55,0.43,4.39c-0.91,1.81-2.57,2.82-3.17,3.47c0.78-0.34,2.68-1.12,3.75-3.2
	c0.34-0.68,0.44-1.34,0.4-1.95c0.74,1.65,1.56,3.74,2.76,6.61c2.39,5.74,5.45,10.39,7.03,12.61c1.4,2.39,2.59,4.95,3.32,7.68
	c-0.35-2.26-1-4.45-1.85-6.57c1.31,0.62,2.58,1.54,3.63,2.67c-0.85-1.38-1.93-2.6-3.29-3.59c-0.07-0.09-0.14-0.19-0.23-0.31
	c0.64-0.14,1.56,0.03,2.29,0.4c-0.72-0.7-1.6-1.41-2.95-1.33c-1.28-1.82-3.38-5.03-5.32-9.02c1.94,1.69,3.83,3.45,5.4,5.53
	c-1.76-2.95-4.1-5.41-6.41-7.91l-0.06,0.06c-0.11-0.24-0.21-0.49-0.31-0.73c-1.66-3.99-2.6-6.48-3.66-8.48
	c-0.27-0.51-0.56-0.99-0.86-1.45c1.58,0.29,3.1-0.18,4.46-0.66c-1.9,0.39-4.23,0.29-5.43-0.82l-0.07,0.07
	c-0.51-0.61-1.08-1.21-1.76-1.85c0.49-0.86,1.17-1.71,1.91-2.47c-0.72,0.4-1.41,0.84-2.07,1.36c-0.04-0.77,0.07-1.63,0.33-2.45
	c-0.5,0.63-0.91,1.33-1.19,2.13c-1.48-1.51-2.93-3.08-4.23-4.79c0.55,1.04,1.15,2.05,1.78,3.04c-3.06-2.88-5.87-5.88-7.31-8.43
	c-0.99-1.8-2.33-2.33-3.26-2.49c0.29-0.68,0.75-1.33,1.39-1.83c-0.85,0.35-1.58,0.94-2.15,1.7c-0.13-0.03-0.22-0.06-0.26-0.08
	c-0.05-0.05-0.1-0.01-0.16-0.46c-0.02-0.41-0.1-0.78-0.21-1.1c0.12-2.22,1.19-4.64,3.78-5.11c-2.27,0.08-3.79,1.88-4.47,3.94
	c-0.14-0.15-0.28-0.29-0.43-0.41c-0.68-0.57-1.4-0.98-2.16-1.81c-1.63-1.78-4.3-5.04-6.83-10.09c-2.29-4.61-6.19-5.07-7.37-5.06
	C8.17,11.82,7.29,9.2,7.29,7.12c0-1.83,0.67-3.27,1.59-4.26c0.93-0.99,2.13-1.51,3.14-1.51c0.5,0,0.95,0.12,1.34,0.36
	c-2.36,0.84-4.15,2.9-4.29,5.25c0.53-2.53,2.83-4.18,5.17-4.42c0.7,0.75,1.48,1.56,2.26,2.36h0c1.3,2.06,3.15,4.25,3.6,6.44
	c-0.76,2.4-4.36,2.74-6.44,1.3c1.96,1.52,5.72,1.78,7-1.17c-0.16-1.39-0.61-2.53-1.16-3.59c1.67,1.64,2.98,2.87,3.12,3l0,0
	c0,0,3.92,3.92,6.35,6.2c0.44,0.41,0.81,0.8,1.14,1.2c-1.28-0.75-2.69-1.2-4.16-1.23c2.24,0.3,4.15,1.56,5.57,3.22
	c0.6,0.98,1.12,1.97,1.89,3.04c0.1,0.14,0.22,0.28,0.35,0.43c0.3,0.46,0.51,1.03,0.27,1.16c-0.37,0.3-1.3,0.19-2.06,0.28
	c-1.57,0.16-3.12,0.93-3.84,2.28c0.89-1.23,2.41-1.72,3.86-1.71c0.72-0.06,1.43,0.33,2.51-0.14c0.26-0.23,0.41-0.47,0.5-0.71
	c1.12,0.93,2.59,1.99,4.2,3.22c2.59,1.96,5.45,4.28,7.34,6.68c0.16,0.2,0.31,0.39,0.46,0.57c-0.88-0.12-1.75,0.11-2.4,0.93
	c-1.16,1.58-1.95,3.51-1.75,5.37c-0.02-1.84,0.98-3.65,2.16-4.98c0.99-1.09,2.41-0.54,3.49,0.37c0.26,0.27,0.51,0.52,0.75,0.75
	c0.01,0.01,0.02,0.02,0.02,0.03l0,0c0.71,0.69,1.36,1.28,2.02,1.95c0.63,0.65,1.29,1.4,2.05,2.45c0.71,1.68,1.31,3.79,0.06,5.15
	c-1.67,1.26-4.15,0.6-6.16,0.1c1.99,0.63,4.29,1.66,6.52,0.34c0.95-0.94,1.22-2.05,1.17-3.18c0.5,0.82,1.04,1.76,1.64,2.87
	c4.22,7.78,8.66,14.29,9.74,15.84c0.83,1.81,1.42,3.79,1.72,5.81c-0.03-1.88-0.29-3.76-0.8-5.59c1.43,1,2.69,2.56,3.71,4.12
	c-0.79-1.74-1.66-3.44-3.1-4.88c0.88,0.11,1.78,0.37,2.61,0.83c-0.99-0.97-2.24-1.63-3.64-2.03l-0.01,0.06
	c-0.15-0.22-0.32-0.47-0.51-0.75c-0.02-0.04-0.03-0.08-0.05-0.12l-0.02,0.01c-0.48-0.71-1.05-1.58-1.71-2.6
	c-1.88-2.91-4.36-6.93-6.76-11.36c-0.35-0.64-0.68-1.23-1-1.79c1.41,0.6,2.91,0.91,4.33,0.56c-1.99,0.13-3.82-0.98-5.32-2.22
	c-1.39-2.21-2.48-3.53-3.51-4.58c-0.2-0.2-0.39-0.39-0.58-0.58c1.13-0.85,2.2-1.77,3.12-2.8c-1.21,0.84-2.55,1.49-3.89,2.06
	c-0.18-0.17-0.35-0.34-0.53-0.51c0.32-0.86,0.76-1.72,1.42-2.47c-0.77,0.43-1.44,0.99-2.05,1.65c0.09-1.42,1.26-3.15,2.41-4.43
	c-1.24,1.03-2.58,2.02-3.26,3.74c-0.41-0.45-0.84-0.96-1.31-1.55c-2.03-2.58-4.97-4.93-7.58-6.92c-0.31-0.23-0.61-0.46-0.91-0.69
	c-0.04-1.18,0.29-2.54,1.41-3.42c-1.13,0.5-1.89,1.55-2.29,2.75c-1.82-1.37-3.27-2.5-3.71-3.16c-1.44-1.99-2.09-4.06-4.61-6.43
	c-1.95-1.83-4.89-4.75-5.93-5.79c1.19-1.83,2.22-2.34,3.17-2.35c0.33,0,0.69,0.07,1.06,0.2c-1.27,1.12-1.83,2.85-1.35,4.28
	c-0.16-1.75,1.03-3.22,2.47-3.74c0.29,0.17,0.58,0.36,0.88,0.57l-0.02,0.03c1.66,1.21,3.34,2.52,4.58,4.15
	c0.66,0.74,0.9,2.08-0.33,2.4c-0.99,0.35-2.08,0.35-3.15,0.28c1.06,0.16,2.13,0.27,3.24-0.01c0.52-0.12,1.21-0.56,1.23-1.29
	c0.04-0.66-0.24-1.2-0.51-1.68c-0.05-0.07-0.1-0.14-0.14-0.21c3.15,2.14,5.86,5.17,7.85,7.09c-1.59,0.23-2.99,1.11-3.73,2.38
	c1.26-1.43,3.28-1.82,4.91-1.32c0.04,0.03,0.09,0.07,0.13,0.11c1.86,1.42,4.69,4.7,9.79,6.87c0.72,0.3,1.26,0.56,1.68,0.78
	c-1.44-0.04-2.92,0.67-3.81,1.58c1.83-1.31,4.52-1.43,5.61,0.23c0.02,0.04,0.04,0.08,0.07,0.12c0.05,0.08,0.09,0.16,0.13,0.24
	l0.01-0.01c0.16,0.25,0.36,0.53,0.63,0.84c-0.4-0.09-0.84-0.14-1.31-0.12c-1.64,0.08-2.78,1.01-3.15,1.51
	c0.62-0.21,1.76-0.8,3.19-0.87c0.71-0.04,1.36,0.04,1.92,0.16c0.22,0.21,0.46,0.44,0.74,0.69c1.07,0.94,1.92,1.74,2.62,2.49
	c1.79,2.4,3.33,5.32,3.25,8.55c0.14-0.99,0.12-1.98-0.01-2.95c1.23,3.59,6.1,9.28,6.12,9.33l0.79,0.94
	c0.51,0.82,1.17,1.87,1.87,2.95c0.76,1.17,1.55,2.38,2.24,3.35c0.71,0.99,1.22,1.69,1.69,2.06c0.49,0.36,2.64,2.5,4.8,4.96
	c0.79,0.9,1.59,1.85,2.34,2.79c0.5,0.75,0.92,1.4,1.23,1.85c0,0,0.72,0.81,1.58,2.3c0.03,0.07,0.07,0.14,0.1,0.21l0.01,0
	c1.09,1.95,2.36,4.96,2.6,8.8c0,0,0.23-4.52-1.02-7.23c0,0,4.18,5.54,4.41,11.08c0,0,0.23-4.63-1.58-8.37c0,0,2.94,1.92,5.77,11.64
	c0,0-0.57-7.69-2.94-10.51c0,0,1.92,0.9,2.94,2.26c0,0-1.24-2.03-2.49-3.16s-3.96-2.49-4.86-4.07s-2.04-2.6-1.13-4.52
	c0,0-1.81,1.58-1.13-0.68c0.68-2.26,0.11,0.23-2.04-1.58c-1.59-1.34-2.75-2.25-4.54-3.65c-0.58-0.62-1.12-1.18-1.6-1.66
	c0.96-1.5,2.78-2.75,4.54-3.69c-1.88,0.64-3.75,1.36-5.32,2.92c-0.37-0.35-0.66-0.61-0.85-0.76c-0.13-0.08-0.75-0.82-1.4-1.76
	c-1.71-2.42-4.16-6.39-4.87-7.53c-0.07-0.72-0.12-1.47-0.12-2.25c-0.01-4.35,1.19-9.23,4.16-11.83c1.22-1.07,2.2-1.37,2.97-1.37
	c0.77,0,1.4,0.31,1.85,0.64c0.22,0.16,0.4,0.33,0.51,0.45c0.06,0.06,0.1,0.11,0.13,0.14s0.03,0.04,0.03,0.04l0.04,0.05l0.05,0.04
	c0.15,0.13,0.28,0.36,0.35,0.69c-0.77,0.41-1.65,0.75-2.53,0.98c-1.42,0.47-1.63,1.83-1.83,2.83c-0.25,2.17,0.32,4.37,1.54,6.07
	c-1.06-1.79-1.4-3.98-0.98-5.96c0.21-0.93,0.72-2.02,1.43-2.1c0.84-0.14,1.65-0.35,2.46-0.66c-0.04,1.49-0.52,3.44-0.53,4.99
	c0,0.13,0.01,0.27,0.01,0.39c0.08,1.04,0.36,2.06,0.68,3.04l-0.12-0.04c0.05,0.57-0.79,1.3-1.75,1.37c0.64,0.19,1.51,0.2,2.2-0.29
	c0.32,0.98,0.6,1.9,0.65,2.71c0.1,1.88,0.48,3.21,2.1,5.02c-1.95-0.07-3.8,0.75-5.1,1.99c1.86-1.33,4.37-1.66,6.25-0.78
	c0.6,0.7,0.59,0.96,0.61,1.27c0,0.13-0.01,0.28-0.01,0.47c0,0.06,0,0.12,0,0.18c-1.45,0.54-2.81,1.27-3.83,2.31
	c1.24-0.78,2.7-1.15,4.13-1.32c0.16,0.3,0.39,0.61,0.72,0.93c0.94,0.93,1.36,1.26,1.7,1.74c0.35,0.49,0.72,1.28,1.47,3.16
	c1.5,3.73,4.58,6.64,4.96,7c9.76,11.61,11.47,20.59,11.48,27.36c0,3.42-0.45,6.27-0.55,8.67c-0.81-2.01-1.56-3.62-2.14-4.69
	c0.65,2.53,2.24,7.45,3.92,13.29c-0.84-1.21-2-2.36-3.62-3.34c0,0,5.58,5.88,3.62,17.34c0,0,1.71-3.25,1.85-7.18
	c1.06,4.29,1.75,7.86,2.07,9.89c0.08-0.91,0.07-2.13-0.05-3.59C113.64,129.21,118.37,132.88,116.88,137.06z M45.44,53.64
	L45.44,53.64C45.44,53.64,45.44,53.64,45.44,53.64L45.44,53.64z M104.2,121.04c-3.01,7.54,2.41,9.65,2.41,9.65
	C103.89,127.68,104.2,121.04,104.2,121.04z M105.1,99.71c0.08-1.66-0.33-5.17-1.67-8.97c-1.31-3.81-3.01-6.87-3.98-8.21
	c0.65,1.53,2.09,4.66,3.38,8.42C104.14,94.7,104.8,98.08,105.1,99.71z M87.01,91.57c0.14,0.85,0.6,2.54,0.78,4.53
	c0.2,1.99-0.12,3.68-0.33,4.52c0.56-0.66,1.19-2.48,0.97-4.58C88.24,93.96,87.5,92.28,87.01,91.57z M99.69,108.59
	c-0.28-1.15-0.9-1.96-1.37-2.54c0.4,0.64,0.93,1.49,1.12,2.6c0.29,0.97-0.22,2.81-1.59,2.42c-1.26-0.44-1.73-2.21-2.95-3.44
	c-0.65-0.75-1.44-1.42-2.11-2.17c-1.08-1.87-1.18-4.28-1.11-5.72c0.06-0.41,0.1-0.83,0.11-1.25c0.04-1.73-0.29-3.33-0.68-4.73
	c-0.82-2.82-1.93-4.94-2.74-6.24c0.63,1.39,1.59,3.56,2.29,6.36c0.33,1.39,0.6,2.96,0.53,4.6c-0.04,1.57-0.81,3.44-0.13,5.37
	c0.67,1.94,2.33,2.97,3.4,4.19c1.19,1.08,1.6,2.88,3.26,3.48C99.73,111.87,100.06,109.5,99.69,108.59z M48.01,95.68
	c-2.37-1.67-2.42-4.47-2.71-5.57c-0.1,1.04-0.3,4.17,2.29,6.06c2.35,1.73,3.56,3.85,3.59,5.13C51.6,100.07,50.39,97.38,48.01,95.68z
	 M34.56,66.63c-0.77-0.04-2.39,0.18-4.07,1.03c-1.71,0.82-2.76,2.26-2.86,3.04c0.47-0.62,1.56-1.69,3.16-2.47
	C32.36,67.43,33.85,66.96,34.56,66.63z M48.12,93.27c0.19-0.49,0.25-1.66-0.24-2.84c-0.46-1.18-1.14-2.04-1.57-2.36
	c0.12,0.53,0.54,1.48,0.97,2.59C47.74,91.77,47.92,92.75,48.12,93.27z M36.59,104.69c0.07,1.59,0.67,4.88,2.06,8.46
	c1.37,3.6,3.22,6.41,4.27,7.59c-0.75-1.4-2.33-4.28-3.67-7.82C37.88,109.39,37.04,106.21,36.59,104.69z M37.72,74.62
	c-0.56,0.14-1.5,0.68-2.67,1.09c-1.16,0.43-2.21,0.61-2.76,0.72c0.5,0.28,1.72,0.35,2.98-0.11C36.54,75.87,37.4,75.06,37.72,74.62z
	 M19.34,50.46c-1.21,0.7-1.98,1.72-2.12,2.3c0.46-0.37,1.32-1.09,2.45-1.75c1.11-0.68,2.19-1.07,2.68-1.42
	C21.77,49.57,20.55,49.73,19.34,50.46z M31.62,63.42c-0.57-0.06-1.76,0.19-2.9,0.94c-1.18,0.72-1.8,1.82-1.96,2.34
	c0.49-0.33,1.22-1.14,2.31-1.81C30.12,64.2,31.13,63.73,31.62,63.42z M32.45,71.6c0.4,0.09,1.22,0.04,2.08-0.36
	c0.86-0.38,1.45-1.04,1.54-1.45c-0.38,0.17-1.03,0.51-1.81,0.87C33.47,71.03,32.77,71.32,32.45,71.6z M99.22,151.15
	c3.96-1.58-1.47-4.75-1.47-4.75C100.92,149.34,99.22,151.15,99.22,151.15z M63.9,117.07c0.26,1.04,1.78,1.79,2.69,1
	c1.79-1.42,1.08-3.69,0.71-5.05c-0.77-3.05-1.24-5.57-1.54-7.21c0.12,1.66,0.43,4.22,1.09,7.31c0.38,1.46,0.78,3.42-0.59,4.45
	c-1.65,0.99-2.34-1.76-1.99-3.51c-0.26-8.3-4.33-14.38-5.75-17.29c1.09,3.03,4.88,9.36,5.11,17.23
	C63.57,115.01,63.49,116.08,63.9,117.07z M64.29,94.06c0.19-1.21-0.42-3.79-1.95-6.29c-1.49-2.51-3.22-4.37-4.16-5.13
	c0.65,1.02,2.15,3.01,3.6,5.46C63.27,90.54,64.08,92.87,64.29,94.06z M68.02,90.14l-3.62-5.88C64.4,84.26,64.25,88.03,68.02,90.14z
	 M73.18,75.13c0.89,0.73,1.46,1.48,1.85,1.86c-0.02-0.5-0.48-1.56-1.43-2.34c-0.92-0.8-1.9-1.21-2.42-1.28
	C71.52,73.77,72.32,74.39,73.18,75.13z M71.41,76.19c3.13,3.56,4.12,7.74,4.64,9.62c-0.14-1.92-0.88-6.3-4.16-10.05
	c-4.04-2.91-6.06-6.33-6.8-8.27c0.24,0.96,0.75,2.44,1.76,4.07C67.72,73.35,69.87,74.52,71.41,76.19z M29.13,38.74
	c-0.6,0.26-1.64,1-2.89,1.77c-1.24,0.79-2.33,1.45-2.84,1.85c0.65-0.04,1.9-0.49,3.18-1.3C27.88,40.25,28.79,39.28,29.13,38.74z
	 M63.44,134.85c2.18-0.76,3.79-2.04,4.35-2.8c-0.81,0.48-2.48,1.47-4.56,2.2c-2.08,0.79-4,0.95-4.93,1.19
	C59.22,135.58,61.27,135.68,63.44,134.85z M158.01,146.22c1.14-0.18,1.88,0.73,1.45,2.72c-0.23,1.83-0.64,3.48-0.55,4.36
	c0.56-0.66,1.44-2.16,1.71-4.22c0.12-0.99,0.1-2.12-0.64-2.9C159.09,145.45,158.27,145.95,158.01,146.22z"/>
</svg>
