<?xml version="1.0" encoding="utf-8"?>
<!-- Generator: Adobe Illustrator 15.0.0, SVG Export Plug-In  -->
<!DOCTYPE svg PUBLIC "-//W3C//DTD SVG 1.1 Tiny//EN" "http://www.w3.org/Graphics/SVG/1.1/DTD/svg11-tiny.dtd" [
	<!ENTITY ns_flows "http://ns.adobe.com/Flows/1.0/">
]>
<svg version="1.1" baseProfile="tiny"
	 xmlns="http://www.w3.org/2000/svg" xmlns:xlink="http://www.w3.org/1999/xlink" xmlns:a="http://ns.adobe.com/AdobeSVGViewerExtensions/3.0/"
	 x="0px" y="0px" width="200px" height="110px" overflow="visible" xml:space="preserve">
<defs>
</defs>
<path fill="#231F20" d="M73.21,10.51c0,0-0.85,6.82-4.5,3.78c-4.32-3.6-0.72-8.1,4.14-6.84c4.86,1.26,9.36,11.51-0.72,20.33
	c-10.07,8.81-19.25-3.42-18.89-9.17s4.68-3.78,4.68-3.78s-2.52-5.75-6.84-4.86c-4.31,0.9-3.06,4.32-3.06,4.32S41.55,3.31,34,0.97
	c-7.56-2.34-11.33,0-14.93,2.16c-3.6,2.16-5.58-0.72-4.68-2.7c0,0-3.6,0.36-1.8,3.24c0,0-8.82-3.78-12.59,2.88
	c0,0,6.83-0.72,6.12,3.6c-0.72,4.32,6.11,6.86,10.61,1.98c2.16-2.34,0.36-2.88,0.36-2.88s1.8-0.36,1.08,5.22
	c-0.72,5.58,5.76,7.73,8.27,6.48c2.52-1.26,7.56-5.4,0-10.79c0,0-0.54-3.78,8.46-0.54c8.99,3.24,10.07,15.65,10.07,15.65
	s-3.42,1.08-3.24,4.68c0.18,3.6,3.78,5.76,7.01,3.96c0,0-1.8,0.36-1.26-3.96c0.54-4.32,3.42-0.36,5.58,1.62
	c2.16,1.98,4.14,3.24,4.14,3.24s-14.57-0.36-13.31,16.73c0,0,2.34-4.68,5.4-4.86c3.06-0.18,5.04,0.36,6.12-2.52
	c0,0-2.7,10.43,2.16,14.93c4.86,4.5,7.91,8.09,8.46,9.53c0.54,1.44-0.36,6.12-3.24,4.14c0,0,3.78,5.22,7.73,3.06
	c3.96-2.16,1.98-4.14,1.98-4.14s7.19,4.32,4.68,14.21c0,0-4.86-5.94-8.81-1.62c-3.96,4.32-1.38,11.51,3.06,9.89
	c1.98-0.72,2.7-1.44,2.7-1.44s-3.6,13.13,6.3,15.47c9.89,2.34,11.69-7.2,11.69-7.2s-6.48,4.68-10.26,1.26
	c-3.78-3.42-1.44-11.33,1.62-15.29c3.05-3.96,3.23-14.21-3.96-19.07c0,0,6.12-1.8,6.12-11.15c0-9.35-9.17-11.69-14.39-8.09
	c-5.21,3.6-2.88,12.77,2.7,12.23c5.58-0.54,5.4-5.22,5.4-5.22s0.9,6.83-7.56,6.83c-8.45,0-9.35-9.17-9.17-13.85
	c0,0,0.9,2.88,3.6,2.88c0,0-3.96-3.6,3.06-9.53S85.08,29.75,85.08,17.7c0-12.05-8.27-18.53-16.01-16.91
	c-6.16,1.29-11.75,7.54-5.93,15.47c1.98,2.7-0.72,3.96-2.7,3.06c0,0,1.44,4.68,6.84,3.06c0,0,1.44,2.52,2.88,1.8
	c1.44-0.72,3.6,0.36,3.6,0.36s-0.9-3.6,0.18-4.86c1.08-1.26-2.16-1.8-2.16-1.8S76.08,18.06,73.21,10.51z"/>
<path fill="#231F20" d="M115.71,10.51c0,0,0.85,6.82,4.5,3.78c4.32-3.6,0.72-8.1-4.14-6.84c-4.86,1.26-9.35,11.51,0.72,20.33
	c10.07,8.81,19.24-3.42,18.89-9.17c-0.36-5.76-4.68-3.78-4.68-3.78s2.52-5.75,6.83-4.86c4.32,0.9,3.06,4.32,3.06,4.32
	s6.47-10.97,14.03-13.31c7.55-2.34,11.33,0,14.93,2.16c3.6,2.16,5.57-0.72,4.68-2.7c0,0,3.6,0.36,1.8,3.24c0,0,8.81-3.78,12.59,2.88
	c0,0-6.84-0.72-6.12,3.6c0.72,4.32-6.11,6.86-10.61,1.98c-2.15-2.34-0.36-2.88-0.36-2.88s-1.8-0.36-1.08,5.22
	c0.72,5.58-5.75,7.73-8.27,6.48c-2.52-1.26-7.55-5.4,0-10.79c0,0,0.54-3.78-8.46-0.54c-8.99,3.24-10.07,15.65-10.07,15.65
	s3.42,1.08,3.24,4.68c-0.18,3.6-3.78,5.76-7.02,3.96c0,0,1.8,0.36,1.26-3.96c-0.54-4.32-3.42-0.36-5.58,1.62
	c-2.16,1.98-4.14,3.24-4.14,3.24s14.57-0.36,13.31,16.73c0,0-2.34-4.68-5.4-4.86c-3.05-0.18-5.03,0.36-6.11-2.52
	c0,0,2.7,10.43-2.16,14.93c-4.86,4.5-7.91,8.09-8.45,9.53c-0.54,1.44,0.36,6.12,3.23,4.14c0,0-3.78,5.22-7.73,3.06
	c-3.96-2.16-1.98-4.14-1.98-4.14s-7.19,4.32-4.67,14.21c0,0,4.85-5.94,8.81-1.62c3.96,4.32,1.38,11.51-3.06,9.89
	c-1.98-0.72-2.7-1.44-2.7-1.44s3.6,13.13-6.3,15.47c-9.89,2.34-11.69-7.2-11.69-7.2s6.47,4.68,10.25,1.26
	c3.78-3.42,1.44-11.33-1.62-15.29c-3.05-3.96-3.24-14.21,3.96-19.07c0,0-6.12-1.8-6.12-11.15c0-9.35,9.18-11.69,14.39-8.09
	c5.22,3.6,2.88,12.77-2.7,12.23c-5.58-0.54-5.4-5.22-5.4-5.22s-0.9,6.83,7.55,6.83s9.35-9.17,9.17-13.85c0,0-0.9,2.88-3.6,2.88
	c0,0,3.96-3.6-3.06-9.53s-15.83-12.23-15.83-24.28c0-12.05,8.27-18.53,16.01-16.91c6.16,1.29,11.75,7.54,5.94,15.47
	c-1.98,2.7,0.72,3.96,2.7,3.06c0,0-1.44,4.68-6.84,3.06c0,0-1.44,2.52-2.88,1.8c-1.44-0.72-3.6,0.36-3.6,0.36s0.9-3.6-0.18-4.86
	c-1.08-1.26,2.16-1.8,2.16-1.8S112.84,18.06,115.71,10.51z"/>
</svg>
