<?xml version="1.0" encoding="utf-8"?>
<!-- Generator: Adobe Illustrator 15.0.0, SVG Export Plug-In  -->
<!DOCTYPE svg PUBLIC "-//W3C//DTD SVG 1.1 Tiny//EN" "http://www.w3.org/Graphics/SVG/1.1/DTD/svg11-tiny.dtd" [
	<!ENTITY ns_flows "http://ns.adobe.com/Flows/1.0/">
]>
<svg version="1.1" baseProfile="tiny"
	 xmlns="http://www.w3.org/2000/svg" xmlns:xlink="http://www.w3.org/1999/xlink" xmlns:a="http://ns.adobe.com/AdobeSVGViewerExtensions/3.0/"
	 x="0px" y="0px" width="600px" height="600px" viewBox="-26.3 -2.85 600 600" overflow="visible" xml:space="preserve">
<defs>
</defs>
<path fill="#FFE6BF" d="M290.24,125.23c8.45-6.71,15.23-13.81,38.03-12.37c22.8,1.44,21.71,10.88,19.08,17.13
	c-2.63,6.25-29.47,12.02-41.59,8.85C293.63,135.66,283.06,130.92,290.24,125.23"/>
<path fill="#FFE6BF" d="M257.12,133.64c4.82-3.7,5.89-6.35-3.91-13.56c-9.8-7.21-67.7-6.35-49.05,15.01
	C216.57,149.29,242.73,144.7,257.12,133.64"/>
<path d="M280,189.55c-1.13,0-13.56-0.02-15.69-0.02c-2.6,0-17.75,6.41-21.46,14.61v3.38l0.08,0.02c0.05,1.45,1.45,2.31,4.27,3.96
	c3.69,2.15,9.14,1.83,13.99,0.93h11.39c4.91,0,15.58,0.87,19.33,1.15c3.66,0.28,11.69-1.36,14.23-2.51
	c0.43-0.08,0.98-0.25,1.69-0.53c1.94-0.8,2.73-1.34,2.73-1.34s1.27-7.16-0.17-8.61C308.93,199.15,294.93,189.52,280,189.55
	 M304.9,209.56c-0.44-0.01-0.92-0.02-1.45-0.02c-3.46,0-3.75-1.73-6.35-2.7c-2.6-0.97-6.93-1.84-9.52-2.02
	c-2.6-0.18-8.3,0.6-12.34,0.22c-4.04-0.38-14.83-0.32-18.11,1.34c-1.69,0.85-4.1,1.05-7.55,1.9c-0.73-0.3-2.24,0.19-2.83-0.1
	l-0.51-4c0,0,12.77-7.32,15.37-7.32c2.6,0,11.58-0.81,13.31-0.69c8.68,0.65,28.55,4.87,29.4,5.02
	C308.63,201.92,310.24,207.73,304.9,209.56 M332.91,122.05c-1.44,0,8.16-6.85,8.16-6.85l-12.15,3.34l1.42-2.63c0,0-6.43,2.08-9,2
	c-2.04-0.06-0.36-1.73-0.36-1.73s-13.02,0.41-16.38,2.74c-3.54,2.45-4.33,6.64-8.95,6.93c-6.35,2.46,0.39,5.26,5.19,8.08
	c8.48,4.98,24.71-0.22,32.81,3.26c1.33,0.57-1.57-3.55-1.57-3.55l11.11-0.04c0,0-6.84-3.12-7.73-4.53c1.23,0.01,8.83-0.86,8.83-0.86
	l-7.66-3.32l9.99-5.03C346.63,119.86,334.35,122.05,332.91,122.05 M300.85,129.06l4.47-2.2c-0.24,1.29-0.32,3.34,0.87,5.05
	C303.01,131.33,300.85,129.06,300.85,129.06 M322.14,131.54c0,0,0.9-1.81-0.51-4.69l5.2,2.2L322.14,131.54z M463.33,305.07
	c6.19-9.23,18.47,1.44,27.13,19.05c-0.41-15.79-7.97-27.5-25.45-41.66c23.61,4.68,40.27,13.05,46.38,32.85
	c3.96-36.81-39.84-42.34-74.51-75.93c28.04,2.71,58.03-15.66,60.23-40.53c-24.09,28.11-53.77,26.04-71.41,10.39
	c5.38-0.74,15.12-1.58,24.66-4.76c-19.48,1.95-61.25-35.82-28.57-27.06c26.62,7.14,32.25,1.08,35.07-3.68
	c-35.93,12.55-43.15-50.8-67.97-76.19c26.41,3.46,27.27,9.96,35.93,28.57c-1.09-30.23-21.62-47.88-47.54-64.27
	c3.86-2.79,8.2-7.45,8.59-12.3c-3.63,4.21-10.3,2.68-16.79-0.22c-17.93-30.1-42.58-39.8-68.45-41.04
	c7.58-1.31,17.31-1.09,30.15,1.81c-22.16-9.81-36.57-7.23-46-2.08c-10.75-8.9-31.86-10.38-47.83-4.58c7.36,0,17.21,0,19.05,2.36
	c-15.58,1.26-40.7,7.18-46.76,20.75c6.38-3.42,20.92-10.25,29.75-6.95c-23.63,6.33-48.12,21.03-61.91,51.02
	c-16.71,10.59-27.54,23.72-21.41,45.56c-12.37,11.09-20.85,23.42-22.76,50.92c3.46-9.23,11.4-32.61,17.17-23.38
	c6.02,6.53-12.63,31.41-26.34,41.38c5.56-0.18,15.66-5.76,18.4-9.57c-7.35,18.06-14.41,28.22-10.81,39.95
	c-22.26,20.57-49.07,30.62-41.1,50.47c1.82-3.7-2.32-17.23,33.56-30.54c-12.75,23.7-34.18,31.53-27.25,45.12
	c5.77-13.71,17.8,6.54,5.99,9.45c-15.8,3.9-42.64-4.55-52.6-21.43c6.99,18.65,20.4,34.72,41.18,40.76
	c-7.35,1.46-14.25,3.4-20.61,5.75c-17.76-8.51-34.96-26.03-42.93-38c3.56,10.24,14.24,29.98,29.39,44.02
	c-2.78,1.48-5.4,3.05-7.85,4.68c-26.56,5.86-50.99,15.35-48.96,36.72c1.29-15.46,17.05-22.3,36.4-26.14
	c-10.36,11.32-13.75,24.47-7.54,36.96c0-11.46,5.3-26.86,31.82-30.52c-6.52,10.84-10.13,24.27-2.96,33.55
	c0.23-11.02,9.28-19.09,21.96-21.44c-5.27,36.62-22.44,62.68-50.82,74.25c18.76,0.39,37.81-8.86,51.17-19.15
	c-4.46,13.51,9.36,30.06-2.94,33.31c-12.49,1.28-27.01,0.63-34.37-2.61c6.82,7.75,22.31,14.08,36.83,17.93
	c-2.85,2.7-6.09,5.01-9.53,6.96c-16.2,3.14-30.1-3.26-41.45-14.79c5.93,9.27,16.18,17.22,28.43,20.19
	c-10.4,2.91-20.95,2.86-28.14-0.28c20,16,46.3,15.41,62.65,9.66c-5.14,28.83,3.6,59.96,28.07,66.97
	c-21.16-21.24-17.69-63.35,4.24-72.01c-26.26,44.73,15.87,59.16,20.35,81.1c4.82,23.65-7.07,38.96-14,41.85
	c13.85,0,34.05-20.49,28.28-45.89c-0.18-0.81-0.38-1.61-0.6-2.39c5.5,1.58,11.4,2.45,17.15,2.85c5.15,17.36,16.56,34.12,28.04,41.68
	c-8.71-11.94-17.15-26.69-20.22-41.42c9.58,0.01,17.9-1.1,21.96-2.09c-8.86-0.86-16.41-2.2-22.9-3.94
	c-0.89-8.6,0.3-17.07,4.61-24.81c2.94,5.19,7.88,10.05,15.55,14.5c-7.57-5.28-11.9-11.03-13.95-17.15
	c18.1-27.32,44.04-29.47,59.17-59.29c4.34-8.56,6.33-36.4-11.81-56.25c0.02,0.01,17.39,8.63,35.56,2.57
	c-38.02-3.7-47.97-27.45-45.72-42.86c1.43-9.85,5.63-11.03,10.66-8.87c10.61,4.54,10.82,21,9.52,38.74
	c6.64-14.5,10.39-30.52,3.68-48.92c-3.07-8.42-7.07-17.8-10.94-27.41c4.96-12.08,1.15-23.06-12.27-37.6
	c-1.52-7.88-1.88-15.21-0.39-21.51c0.29,0.23,0.58,0.46,0.88,0.68c2.07,2.16,8.79,6.66,14.04,7.93
	c0.96,1.46,14.67,18.74,15.83,41.11c2.31,3.46,2.6,1.74,2.6,1.74s0.74-23.67-7.71-38.39l-0.02-0.01
	c13.04,5.14,18.15,5.14,33.01,5.14c12.48,0,26.63-7.8,37.52-14.28c-0.18,3.01-0.63,9.34-1.61,19.54c5.2,0,2.81-3.17,2.81-3.17
	s0.78-14.93,9.94-22.89c0.97-0.51,1.86-0.95,2.64-1.28c5.47-2.29,11.27-9.18,15.85-16.21c-13.4,42.8-50.52,87.84-17.09,117.15
	c-8.51-19.19-2.34-32.62,5.48-46.18c6.06-10.5,21.36-5.2,15.93,6.21c-16.46,34.6-41.66,101.19-22.86,119.05
	c-4.13-15.88,0.76-33.08,9.85-43.05c-1.77,30.03,11.11,37.57,24.93,55.61c31.17,40.69,1.46,88.36-37.66,65.37
	c4.95,11.38,28.33,29.15,51.4,18.61c-2.55,24.53,8.5,42.14,40.37,48.49c-42.43-23.81-18.83-57.79-4.62-69.99
	c21.36-18.33,56.39-31.22,43.15-93.87c11.69,12.34,23.23,39.9,5.19,72.51c34.42-34.04,34.69-76.53,1.16-125.37
	c33.62,12.22,43.81,36.19,43,55.24C534.62,362.22,450.95,323.56,463.33,305.07 M236.15,311.89c-2.13-5.44-4.15-10.91-5.89-16.28
	C234.49,299.77,236.25,305.68,236.15,311.89 M241.22,55.77c-5.81,14.29-10.95,34.75-15.99,50.2l-5.11-0.79l0.51,1.64l-8.04,1.84
	l11.91-0.49c-1.79,5.31-3.57,9.91-5.36,13.31l-7.65-1.42l5.9,4.15c0,0-4.55-0.11-7.95-0.6c2.36,1.31,5.47,3.38,5.47,3.38
	s-7.33-0.12-11.46-1.17c-0.58-4.15-0.36-8.21-0.1-10.71c0.08-0.1,0.15-0.22,0.24-0.32c0.7,2.81,2.11,5.7,4.77,8.2
	C206.76,88.04,225.3,75.15,241.22,55.77 M221.25,120.08l2.08,2.17l-3.77-0.7C220.14,121.08,220.7,120.59,221.25,120.08
	 M203.54,126.42c4.77,3.01,10.8,3.86,10.8,3.86l-8.81,2.13l10.61,1.95l-5.77,3.17l6.78-0.07l-2.02,2.86
	C207.51,139.08,204.55,132.73,203.54,126.42 M183.23,504.21c-4.45,6.07-8.08,12.94-9.95,21.07c-1.35,5.87-1.29,12.34-0.19,18.92
	c-13.3-5.21-20.8-12.74-25.47-21.9c-2.34-11.19,1.17-23.98,23.06-46.95c14.85-15.58,29.7-37.32,33.12-51.11
	C207.24,453.16,185.56,480.92,183.23,504.21 M220.47,460.34c-3.36,13.17-19.04,23.07-31.69,37.1c5.92-20.35,22.89-43.23,27.29-66.58
	C223.47,442.97,222.17,453.7,220.47,460.34 M368.53,212.57c-5.51,9.84-8.51,11.81-10.28,11.48l-4.88-6.43
	c-3.6,8.62-2.65,20.63-19.05,29.73c-8.83,4.89-31.46,20.2-50.5,20.2s-26.7,0-46.03-7.22c-31.37-11.71-32.01-51.25-31.27-79.24
	c0.33-1.22,0.68-2.45,1.06-3.66c6.61,11.04,16.78,10.39,16.78,10.39c-5.84-1.82-16.9-19.42-22.19-40.17
	c4.49,1.55,9.91,1.76,14.4,1.64c-7.09-2.1-11.83-6.21-14.54-11.05c3.59,1.56,8.16,2.69,13.55,2.16l0,0l6.61-0.2
	c0,0,17.53,0.65,24.89-2.81c7.36-3.46,13.85-7.14,7.36-7.79c-2.33-0.23-5.77-8.01-11.9-11.04c0.32,1.08,0.49,2.47-0.85,2.03
	c-3.03-0.98-6.51-3.44-6.51-3.44l0.55,3.02l-7.33-1.98l0.94,2.74l-7.4-1.51c3.33-3.24,6.18-7.16,8.76-11.52l2.42-0.1l2.62,1.52
	l0.9-1.48l4.29,1.63l1.78-1l5.79,2.08l2.84-1.24l11.05,4.56c0,0-0.82-0.95-2.03-2.29l-0.8-4.21h-3.11
	c-2.24-2.31-4.48-4.43-5.46-4.72c-0.07,1.44-0.12,2.6-0.12,2.6l-6.22-2.89l0.1,2.5l-9.04-1.42l-0.28,1.74l-2.92-0.51
	c9.74-18.15,15.81-42.47,30.15-58.31c32.97-11.43,64.52,12,85.08,37.33c16.18,31.38,15.35,51.53,13.63,76.14
	c-4.83,15.37-15.82,26.47-7.86,42.2c1.38-9.47,3.55-17.5,9.87-24.75c2.95-0.07,7.11,0.47,8,13.21
	C370.85,194.72,371.41,208.16,368.53,212.57 M229.27,135.8c-4.18,0-5.63-3.1-5.63-3.1l4.04-1.66
	C227.54,132.81,228.55,135.22,229.27,135.8 M242.84,130.17c0,0,5.63,0.58,5.7,1.73c0.08,1.16-2.96,3.18-6.28,3.32
	C243.1,134.67,243.79,131.56,242.84,130.17 M411.68,471.09c-1.48-18.99-5.68-36.51-9.44-45.43c0,0,16.4-5.06,24.73,12.17
	C434.15,452.69,424.26,459.4,411.68,471.09 M266.5,233.21c-6.49-0.75-10.97-5.99-10.97-5.99l-0.54-2.56
	c0.39,0.13,15.48,6.78,37.19,0.46C309.02,220.24,288.65,235.77,266.5,233.21 M294.27,111.44l-4.97-1.1l1.08-2.6l1.95,0.22
	c2.17-1.3,7.14-5.41,8.88-6.06c-0.22,1.08,0,3.03,0,3.03s4.83-4.2,7.43-4.42c-0.43,0.65-0.94,2.47-0.94,2.47s5.84-3.03,8.66-2.38
	c-0.86,1.01-1.08,2.02-1.08,2.02s9.91,0.02,12,1.13c2.14,0.75,7.92,5.08,8.13,6.59c0,0-4.69-2.81-9.02-4.05
	c-4.33-1.23-13.19,1.04-13.19,1.04l-7.01,0.2l-1.73,1.52l-4.76-0.43l-0.4,1.57L294.27,111.44z M248.61,169.86
	c0.06-1.92,1.3-2.6,1.3-2.02c0,0.58,0.81,3.31,2.83,3.65c4.45,0.74,3.79-1.63,5.82-2.28c4.52-1.43,3.43,2.79,10.82,2.81
	c10.59,0.02,9.03-5.81,12.77-5.19c4.78,0.79,7.99,1.61,8.01,2.58c0.01,0.97-1.36,4.58-6.93,4.56c-5.68-0.02-5.08,3.32-12.77,3.32
	c-5.21,0-7.44-4.18-15.8-2.82C251.66,174.97,248.54,171.98,248.61,169.86"/>
<path fill="#FFFFFF" d="M281.8,26.56c0.18-0.75-0.32-1.56-2.86-1.94c-34.46-4.54-91.92,36.14-95.66,87.61
	c-1.55,25.52,13.78,45.42,25.53,55.72c12.11,10.73,21.12,15.13,20.77,14.89c0-0.42-9.09-5.33-20.84-16.4
	c-11.44-10.69-25.61-30.58-23.42-55.05c4.56-49.36,61.09-88.45,93.25-83.93C280.59,27.75,281.62,27.35,281.8,26.56"/>
<path fill="#FFFFFF" d="M281.8,26.56c0.27-0.78-0.17-1.62-2.72-2.37c-17.21-5.28-43.39-1.88-64.87,13.46
	c-21.55,14.72-38.48,40.33-40.44,66.51c-2.5,26.6,12.09,48.42,24.28,59.56c12.47,11.56,22.07,16.02,21.68,15.79
	c0.02-0.46-9.67-5.47-21.69-17.41c-11.9-11.49-25.15-33.24-22.09-58.76c2.46-25.2,19.22-49.63,40.13-63.64
	c20.87-14.55,45.86-17.62,62.19-12.61C280.38,27.71,281.53,27.35,281.8,26.56"/>
<path fill="#FFFFFF" d="M200.86,166.72c-0.68,0.03-1.23,0.58-1.26,2.61c-2.32,27.77-24.53,74.65-56.6,101.18
	c-15.91,13.38-35.25,19.01-48.84,16.97c-13.61-1.59-21.01-6.46-20.87-5.78c0.22-0.2,7.72,5.23,21.7,6.77
	c13.92,2.1,33.62-3.72,49.73-17.15c32.4-26.83,54.81-72.92,57.33-101.9C202.08,167.51,201.54,166.69,200.86,166.72"/>
<path fill="#FFFFFF" d="M184.21,244.46c-0.48-0.24-1.08-0.06-1.86,1.41c-5.2,9.98-14.79,22.48-28.38,32.26
	c-13.42,9.91-30.65,16.89-47.18,18.37c-34.12,3.71-57.66-16.08-56.94-14.82c-0.37-0.3,23.26,19.72,57.73,16.12
	c16.68-1.48,34.07-8.4,47.65-18.37c13.75-9.82,23.52-22.44,28.85-32.65C184.78,245.48,184.7,244.7,184.21,244.46"/>
<path fill="#FFFFFF" d="M180.21,147.49c-0.34,0.01-0.63,0.29-0.69,1.33c0.5,14.77-14.91,36.29-31.88,48.52
	c-16.8,13.18-34.58,16.24-34.1,16.27c0.1,0.23,18.04-2.75,34.96-15.82c17.01-12.17,32.67-33.51,32.26-48.96
	C180.81,147.89,180.55,147.48,180.21,147.49"/>
<path fill="#FFFFFF" d="M159.43,191.5c-0.4-0.03-0.78,0.26-0.97,1.49c-1.45,17.12-16.81,43.58-35.22,60.5
	c-9.01,8.65-18.47,15.23-25.92,18.71c-7.45,3.53-12.61,4-12.35,4.23c0.09-0.08,5.47-0.45,13.08-3.98
	c7.61-3.45,17.17-9.97,26.25-18.56c18.52-16.8,34.04-43.09,35.61-60.73C160.09,192.06,159.83,191.54,159.43,191.5"/>
<path fill="#FFFFFF" d="M184.21,213.61c-0.18-0.06-0.39,0.03-0.63,0.58c-2.47,7.97-13.71,17.87-25.19,21.57
	c-11.36,4.23-21.57,3.32-21.31,3.53c0.04,0,10.29,1.02,21.7-3.15c11.5-3.65,22.88-13.48,25.46-21.71
	C184.46,213.95,184.4,213.68,184.21,213.61"/>
<path fill="#FFFFFF" d="M146.88,288.39c-0.4-0.09-0.82,0.13-1.2,1.27c-7.35,15.7-35.31,29.91-54.26,46.28
	c-9.79,8.01-17.78,16.74-21.39,24.38c-3.69,7.67-2.93,13.14-2.96,12.85c0.22-0.05-0.24-5.65,3.73-13.09
	c3.82-7.47,11.9-15.85,21.66-23.66c18.96-16.08,46.53-29.46,54.61-46.25C147.45,289.05,147.28,288.48,146.88,288.39"/>
<path fill="#FFFFFF" d="M155.97,284.87c-0.58-0.04-1.12,0.39-1.33,2.17c-1.07,12.22-8.68,27.71-20.68,41.4
	c-11.71,13.96-26.52,27.13-38.59,40.77c-12.27,13.4-21.01,28.33-22.71,40.42c-2.01,12.02,0.86,19.32,0.63,18.96
	c0.34-0.17-2.1-7.77,0.28-19.61c2.15-11.91,11.12-26.23,23.37-39.32c12.12-13.28,26.86-26.23,38.68-40.16
	c12.07-13.65,20.01-29.47,21.13-42.21C156.94,285.66,156.55,284.91,155.97,284.87"/>
<path fill="#FFFFFF" d="M164.05,281.69c-0.65,0.15-1.09,0.79-0.7,2.8c2.99,13.72-1.3,33.22-12.39,50.82
	c-10.63,17.88-25.99,34.56-37.79,51.72c-5.8,8.56-10.86,17.6-11.85,26.89c-1.15,9.41,3.5,17.44,8.35,22.16
	c10.07,9.54,18.43,12.18,18,12.14c0.12-0.48-8.43-3.59-17.96-13.44c-4.6-4.89-8.51-12.77-6.96-21.65
	c1.35-8.8,6.45-17.46,12.27-25.82c11.87-16.7,27.21-33.17,38-51.11c11.22-17.62,15.83-37.78,12.71-52.13
	C165.39,282.23,164.7,281.54,164.05,281.69"/>
<path fill="#FFFFFF" d="M177.13,317.19c-0.77,0.12-1.34,0.83-1.11,3.19c3.89,33.56-27.45,84.94-59.58,120.02
	c-31.73,36.8-67.17,56.53-66.59,55.72c0.87,0.96,36.7-18.68,68.7-55.11c32.26-34.86,64.09-85.57,60.3-120.9
	C178.63,317.93,177.91,317.07,177.13,317.19"/>
<path fill="#FFFFFF" d="M195.17,337.39c-0.81,0-1.49,0.65-1.58,3.13c0.11,16.87-5.79,39.94-20.55,60.28
	c-14.34,20.54-35.05,38.6-50.29,58.61c-15.83,19.74-23.22,42.52-24.2,59.01c-1.02,16.55,1.2,26.6,1.14,26.17
	c0.38-0.27-1.55-10.71,0.08-27.17c1.4-16.47,9.42-38.39,25.19-57.55c15.31-19.39,35.9-37.16,50.5-57.82
	c14.98-20.48,21.19-44.18,21.06-61.45C196.6,338.38,195.98,337.39,195.17,337.39"/>
<path fill="#FFFFFF" d="M205.61,352.4c-0.89-0.02-1.64,0.66-1.78,3.38c-0.57,18.58-9.42,43.02-26.27,64.88
	c-15.59,22.07-39.39,43.79-43.45,72.5c-3.28,28.76,13.52,51.25,23.85,65.21c11.22,14.25,19.39,21.84,19.17,21.43
	c0.03-0.41-8.09-8.57-18.94-23.14c-10.09-14.23-25.77-36.97-21.72-64.26c4.63-27.16,27.85-48.25,43.71-70.33
	c17.01-21.82,26.29-46.95,26.86-66.1C207.16,353.53,206.5,352.43,205.61,352.4"/>
<path fill="#FFFFFF" d="M205.61,383.72c-0.37,0.39-0.35,1,0.84,2.16c8.03,7.75,18.19,19.62,24.44,34.97
	c6.47,15.21,7.05,34.05,1.14,49.42c-12.05,31.11-36.45,47.28-34.92,47.52c-0.53-0.41,24.12-16.28,36.4-47.68
	c6.06-15.51,5.44-34.71-1.06-50.15c-6.28-15.58-16.49-27.6-24.65-35.47C206.74,383.46,205.97,383.32,205.61,383.72"/>
<path fill="#FFFFFF" d="M170.17,276.43c-0.48,0.14-0.76,0.65-0.29,2.16c3.16,10.19,7.81,24.17,16.26,37.65
	c8.21,13.64,21.71,25.31,36.1,31.65c28.94,12.43,55.11,14.38,54.46,14.61c-0.04-0.82-26.24-3.31-54.47-16.02
	c-14.01-6.49-26.88-17.96-34.78-31.32c-8.13-13.21-12.68-26.97-15.81-37.1C171.22,276.76,170.65,276.29,170.17,276.43"/>
<path fill="#FFFFFF" d="M186.56,267.55c-0.47,0.08-0.78,0.51-0.5,1.97c2.77,19.48,15.49,54.28,40.89,70.99
	c24.58,17.44,50.77,15.7,49.75,16.21c0.24-0.92-25.79-0.02-49.51-17.53c-24.54-16.74-36.63-50.7-39.43-69.97
	C187.51,267.97,187.03,267.48,186.56,267.55"/>
<path fill="#FFFFFF" d="M290.24,21.8c0.28,0.39,0.71,0.47,1.89-0.02c18.24-4.89,51.79,4.66,74.97,19.67
	c23.87,14.83,37.35,34.35,37.36,33.59c-0.07-0.1-13.42-19.8-37.21-34.85c-23.29-15.11-56.18-25.06-75.71-19.93
	C290.28,20.75,289.97,21.47,290.24,21.8"/>
<path fill="#FFFFFF" d="M290.24,30.03c-0.22,0.7,0.16,1.44,2.31,2.14c14.45,4.75,34.16,12.85,50.99,27.92
	c17.14,14.74,28.41,37.7,30.95,59.94c4.73,45.08-11.75,80.68-9.95,80c-0.76-0.24,16.25-35.64,11.63-81.12
	c-2.42-22.45-13.93-45.82-31.26-60.84c-17.04-15.34-36.91-23.59-51.54-28.4C291.47,29.04,290.45,29.33,290.24,30.03"/>
<path fill="#FFFFFF" d="M364.53,70.36c-0.53,0.62-0.48,1.56,1.37,3.22c13.24,11.1,21.75,33.87,22.97,59.19
	c2.1,24.88,1.24,54,15.25,76.31c13.98,22.28,37.65,31.11,53.18,35.63c16.08,4.48,26.32,5.4,25.92,5.24
	c-0.2-0.34-10.72-1.7-26.68-6.63c-15.45-4.95-38.42-14.33-51.18-36.16c-12.94-21.73-11.86-50.03-13.83-74.98
	c-1.04-25.24-9.75-49.11-23.62-60.75C366.24,69.91,365.06,69.74,364.53,70.36"/>
<path fill="#FFFFFF" d="M381.66,180.55c-0.71,0.11-1.2,0.76-0.85,2.98c2.38,14.96,5.97,35.43,13.7,56.57
	c7.52,21.14,20.55,42.43,37.28,57.31c33.84,29.99,71.77,36.98,70.5,37.1c0.33-1.01-37.33-8.99-69.91-39.03
	c-33.83-29.93-44.86-83.13-49-112.35C383.08,181.21,382.37,180.45,381.66,180.55"/>
<path fill="#FFFFFF" d="M408.79,233.97c-0.42,0.22-0.57,0.75,0.2,2.07c10.91,18.06,40.52,37.65,64.33,54.97
	c24.57,16.72,41.63,34.31,41.01,34.25c0.51-0.82-16.54-18.69-40.77-35.58c-23.49-17.43-52.62-37.14-63.08-54.54
	C409.84,234.05,409.21,233.74,408.79,233.97"/>
<path fill="#FFFFFF" d="M353.95,344.9c-0.75-0.24-1.53,0.18-2.21,2.61c-5.05,16.82,1.49,40.24,12.82,61.7
	c10.49,21.75,25.84,44.64,26.08,68.88c-0.04,24.84-20.11,40.51-32.66,48.75c-13.33,8.62-22.43,12.42-21.91,12.58
	c0.21-0.11,9.75-3.71,23.4-12.28c12.78-8.13,33.39-24.14,33.15-50.01c-0.5-24.99-15.73-47.87-25.88-69.4
	c-11.01-21.31-17-43.7-12.24-59.52C355.05,346.22,354.7,345.14,353.95,344.9"/>
<path fill="#FFFFFF" d="M371.27,352.4c-0.77,0.04-1.32,0.71-1,3.25c7.95,31.88,38.67,81.81,35.75,130.38
	c-1.02,23.96-14.06,43.23-26.43,52.59c-12.23,9.75-21.48,13.2-20.87,13.49c0.11-0.23,9.8-3.49,22.38-13.33
	c12.63-9.5,25.86-29.26,26.95-53.56c2.98-48.98-27.42-99.36-35.02-130.05C372.79,353.21,372.04,352.37,371.27,352.4"/>
<path fill="#FFFFFF" d="M168.95,125.38c-0.17-0.04-0.35,0.07-0.48,0.61c-1.66,7.31-5.89,19.91-13.14,28.38
	c-6.97,8.76-15.87,12.21-15.52,12.32c-0.02-0.05,8.96-3.46,16.01-12.2c7.32-8.44,11.61-20.99,13.29-28.34
	C169.22,125.67,169.13,125.43,168.95,125.38"/>
<path fill="#FFFFFF" d="M381.66,337.39c-0.61,0.24-0.88,0.93-0.02,2.83c5.68,13.18,19.48,26.66,33.49,41.25
	c13.88,14.28,28.2,33.15,26.71,53.74c-1.14,20.17-12.28,36.15-19.79,46.75c-8.01,10.59-13.72,16.48-13.26,16.46
	c0.13-0.16,6.23-6.05,14.49-16.66c7.74-10.6,19.24-26.56,20.22-47.29c1.37-21.17-13.28-40.43-26.99-54.71
	c-13.91-14.63-27.31-27.93-32.71-40.53C383.08,337.66,382.27,337.16,381.66,337.39"/>
<path fill="#FFFFFF" d="M381.66,306.22c-0.41,0.21-0.55,0.72,0.22,2.02c11.52,16.66,40.72,35.54,56.06,60.23
	c7.88,12.04,11.44,25.01,11.74,34.45c0.25,9.46-1.39,15.18-1.06,14.99c-0.06-0.13,1.9-6,1.65-15.65
	c-0.15-9.61-3.78-22.76-11.65-34.89c-15.25-24.81-44.31-44.01-55.31-60.01C382.69,306.3,382.07,306.01,381.66,306.22"/>
<path fill="#FFFFFF" d="M373,244.46c-0.72,0.05-1.23,0.67-0.99,2.93c1.24,15.31,8.58,35.76,22.77,53.38
	c13.81,17.89,32.43,33.57,49.14,48.05c16.85,14.38,31.69,28.11,41.03,39.29c9.51,11.05,13.76,19.03,13.87,18.53
	c-0.09-0.19-4.31-8.56-13.75-19.92c-9.31-11.46-24.04-25.38-40.63-39.84c-16.45-14.57-34.66-30.23-47.98-47.83
	c-13.69-17.34-20.65-37.04-21.87-51.93C374.39,245.22,373.72,244.41,373,244.46"/>
<path fill="#FFFFFF" d="M281.8,30.03c-0.06-0.5-0.51-0.83-2.1-0.55c-10.99,1.41-23.85,10.89-31.9,24.52
	c-8.43,13.44-14.06,29.63-18.22,44.6c-7.82,30.16-12.27,55.39-13.01,54.7c1.44,0.08,6.23-25.24,14.39-54.95
	c4.3-14.76,10.05-30.63,18.37-43.65c8.01-13.21,20.27-22.08,30.68-23.42C281.32,31.04,281.86,30.53,281.8,30.03"/>
<path fill="#FFFFFF" d="M392.83,126.2c-0.25,0.08-0.38,0.35-0.12,1.12c3.12,10.33,12.22,28.84,27.63,35.83
	c15.1,7.16,29.17,3.23,28.66,3.63c0.06-0.56-14.04,2.96-28.65-4.35c-14.86-7.14-23.61-25.13-26.73-35.42
	C393.38,126.35,393.08,126.12,392.83,126.2"/>
<path fill="#FFFFFF" d="M281.8,22.44c0,0-11.86-11.23-25.15-11.23c12.3-2.73,26.57,8.39,26.57,8.39L281.8,22.44z"/>
<path d="M281.43,22.11c0.14-0.15,0.13-0.39-0.36-0.8c-3.28-2.75-8.11-6.15-14.06-8.39c-2.96-1.11-6.22-1.88-9.52-1.98l-0.62-0.03
	l-0.15-0.01c0.01,0.27-0.13-0.62,0,0.61l0.08-0.01l0.3-0.05l1.18-0.19c0.78-0.17,1.59-0.12,2.38-0.17c1.58-0.02,3.16,0.15,4.67,0.43
	c6.08,1.18,11.17,3.93,14.64,6.03c4.95,1.81,1.57,4.51,2.06,4.43c4.39-0.74-4.65-8.39-16.84-11.01c-1.53-0.3-3.13-0.48-4.74-0.44
	c-0.81,0.02-1.62,0.01-2.43,0.18l-1.21,0.18c-0.29,1.21,0.6,0.37,0.85,0.66c3.19,0.14,6.33,0.93,9.21,2.03
	c5.77,2.23,10.51,5.58,13.73,8.29C281,22.22,281.29,22.26,281.43,22.11"/>
</svg>
