<?xml version="1.0" encoding="utf-8"?>
<!-- Generator: Adobe Illustrator 14.0.0, SVG Export Plug-In  -->
<!DOCTYPE svg PUBLIC "-//W3C//DTD SVG 1.1 Tiny//EN" "http://www.w3.org/Graphics/SVG/1.1/DTD/svg11-tiny.dtd" [
	<!ENTITY ns_flows "http://ns.adobe.com/Flows/1.0/">
]>
<svg version="1.1" baseProfile="tiny"
	 xmlns="http://www.w3.org/2000/svg" xmlns:xlink="http://www.w3.org/1999/xlink" xmlns:a="http://ns.adobe.com/AdobeSVGViewerExtensions/3.0/"
	 x="0px" y="0px" width="128px" height="93px" viewBox="-0.06 -0.28 128 93" xml:space="preserve">
<defs>
</defs>
<path d="M127.06,2.17c-1.71,0.75-3.95,0.1-5.61,0.96c-0.4,3.08,0.85,5.95-0.22,8.72c-0.45,0.05-0.81-0.05-1.08-0.51
	c0.18-2.47-0.27-4.94-0.41-7.01c-1.43,0.86-1.52,2.37-3.23,2.42c-1.84,0.86-1.17,4.89-3.46,3.38l-1.75,2.22
	c0.58,5.04-0.45,10.59,1.75,15.23c0.81,3.28-1.57,6-0.45,9.43c-0.36,0.55-0.85,0.86-1.48,0.76c-0.94-1.16-0.9-3.08-0.85-4.39
	c3.19-4.29-1.57-8.77,0-13.77c-0.45-2.12-0.76-4.54-1.97-6.05c0.36-1.61-0.63-3.23,0-4.39c-1.75-1.66-4.31-3.17-4.93-5.8
	c-0.94,0.45-2.38,0.71-2.6,2.17c-0.94,1.36-2.11,3.33-3.63,3.38c-0.85,0.61-0.14,1.97-0.67,2.67c-0.9,3.23-1.8,6.5-1.71,10.19
	c1.3,1.66-0.63,3.07,0,5.09c-0.22,0.45-0.72,0.15-1.08,0.2l-0.45-0.45l-0.18-15.73c-0.4-0.76-1.08-1.77-1.97-1.72V8.72
	c-3.72-2.17-6.15-8.88-11.84-6.3l-0.18,0.25c-1.17-0.1-1.17-1.92-2.6-1.21c-2.56,2.72-4.13,6.45-2.78,10.39
	c-0.22,0.45-0.76,0.15-1.08,0.25l-1.97-5.35l-1.26,1.46l0.18,0.25c-0.36,0.66-0.85,1.81-1.93,1.66l-0.85,1.46
	c-0.4,10.49-1.12,20.22-0.22,31.01l0.67,1.66c-0.09,14.32-2.65,27.83-2.6,41.9c-0.67,1.46-1.7,3.13-1.3,4.84
	c-0.18,0.96-1.3,1.21-1.93,0.71c-0.76-1.51,0.09-3.43,0.85-4.84c0.13-2.67,1.57-5.35,0.45-7.97c2.33-10.69,1.75-22.14,2.15-33.43
	c-0.81-11.29-0.31-23.85-0.45-34.84c-0.81-1.11-2.02-1.92-3.23-1.21c-0.27,0.6-0.81,0.45-1.3,0.5c-0.81-2.07-0.99-4.34-1.93-6.3
	c-1.48-0.35-3.37-0.46-4.53,0.71v0.75h-0.18V5.8c0.36,0.5-1.53-1.11-1.3,0.5l-1.08-1.21c-0.4,0.16-0.13,0.61-0.22,0.96
	c-0.31-0.1-0.63-0.15-0.85-0.5l-0.23,1.21l-1.7-2.67c-0.81,0.6-1.39-1.56-2.38-0.45c-1.66,1.61-4.13,1.66-6.24,1.21
	c-0.72-0.25-1.35-0.75-2.15-0.75c-0.18,1.16,0.99,1.66,1.7,2.67l0.23-0.25c-0.09,0.4,0.18,1.01-0.23,1.21
	c0.31,1.06,1.39-0.05,1.71,1.01c-0.18,0.05-0.4,1.51,0.22,1.92c-1.97,2.82-1.26,6.86-3.63,9.43c-0.67,13.26,1.26,25.37,0,38.02
	c-0.27,5.34,0.45,11.09,0.18,16.44c-0.36,0.71-0.99,0.66-1.48,0.96l-0.67-0.71c0.36-12.81,0.36-24.86,0-37.01l-0.85-17.95
	c-0.9,0.05-0.81-1.67-1.7-1.67v-0.5l-4.31-4.84L28,13.06c-0.63-1.61-1.93-3.18-1.7-4.84c0.27-0.86,1.66-1.56,0.85-2.67
	c0.67,0.35,1.12-0.46,1.3-0.96c-1.66-1.36-3.95-1.67-5.61-2.17c-1.35,1.87-1.03,4.84-1.08,7.01c-0.23,0.45-0.72,0.15-1.08,0.25
	c-0.85-1.06-0.13-2.92-0.67-4.13c-1.44,1.41-2.51,3.73-2.33,5.8c-2.11,1.36-0.63,6-0.45,8.72c1.57,6.41,1.88,14.02,3.23,20.83
	l0.45,9.68c-0.18,0.45-0.54,0.81-0.9,1.21c-0.76,0.35-1.21-0.71-1.48-1.21c0.04-12.81-2.24-25.11-4.31-37.26
	c-0.67-0.55-0.72-2.27-1.93-1.71c-1.3,0.86,0.94,6.05-1.98,3.38c-0.54-2.02,0.5-5.19-1.7-6.05c-0.85-0.3-2.24,0.3-2.6-0.96l0.9-0.71
	C3.72,5.19,5.02-1.16,0,0.25V0h127.06V2.17z"/>
</svg>
