<?xml version="1.0" encoding="utf-8"?>
<!-- Generator: Adobe Illustrator 15.0.0, SVG Export Plug-In  -->
<!DOCTYPE svg PUBLIC "-//W3C//DTD SVG 1.1 Tiny//EN" "http://www.w3.org/Graphics/SVG/1.1/DTD/svg11-tiny.dtd" [
	<!ENTITY ns_flows "http://ns.adobe.com/Flows/1.0/">
]>
<svg version="1.1" baseProfile="tiny"
	 xmlns="http://www.w3.org/2000/svg" xmlns:xlink="http://www.w3.org/1999/xlink" xmlns:a="http://ns.adobe.com/AdobeSVGViewerExtensions/3.0/"
	 x="0px" y="0px" width="600px" height="600px" viewBox="-16.97 -0.54 600 600" overflow="visible" xml:space="preserve">
<defs>
</defs>
<path d="M283.75,88.21c-0.21,0-0.42,0.01-0.63,0.01c-0.3,0-0.59,0.01-0.89,0.01c-96.6,0.91-174.65,88.17-174.65,195.7
	c0,108.09,78.87,222.84,176.17,222.84c97.29,0,176.17-114.74,176.17-222.84C459.92,175.84,381.04,88.21,283.75,88.21 M406.61,163.02
	c-8.22-7.23-18.63-12.07-34.6-10.84c-13.81,19.74,13.43,51.69,23.75,25.92c-10.15,1.35-16.92-0.98-14.84-12.96
	c14.35-10.04,26.32,6.99,26.71,16.2c1.5,34.86-58.88,26.63-53.43-19.44c-9.42,33.73-71.24,29.02-65.3-16.2
	c1.64-8.82,20.54-18.16,25.25-3.88c-9.29-1.5-14.75,0.21-13.38,10.36c2.52,6.97,8.5,16.17,19,14.42c28.6-10.6-2.3-87.38-21.97-53.31
	c4.44,8.99,12.14-5.62,14.84,3.24c1.25,16.63-23.6,10.16-20.78-3.24c-0.73-5.5,2.03-9.03,4.49-12.05
	C340.16,105,379.19,128.15,406.61,163.02 M280.61,216.37c-3.79,4.5-11.67,2.59-15.47,7.09c1.31,16.93,9.22,46.22,18.12,57.46
	c9.63-12.49,16.95-39.7,20.46-54.22c-0.06-9.65-12.65-5.29-16.46-10.85c-1.42-10.19,5.1-8.33,4.58-18.31
	c44.97,5.27,19,86.3-5.94,87.49c-26.32,1.25-55.66-79.92-8.91-87.49C274.26,204.19,282.07,207.62,280.61,216.37 M272.38,101.16
	c2.83,3.72,5.82,7.27,4.63,15.37c-0.16,7.64-15.62,15.01-20.78,6.48c-1.99-18.59,14.93,3.56,11.87-16.2
	c-21.55-10.5-31.5,19.57-29.68,45.36c0.54,19.84,29.4,24.05,29.48,4.43c3.12-12.05-16.03-12.91-11.67-20.63
	c65.98,4.93-24.66,89.67-44.53,25.92c1.4,29.01-15.84,48.36-35.62,42.12c-23.15-7.3-14.85-55.61,11.87-35.64
	c0.74,10.53-10.86,7.59-14.84,12.96c14.71,18.63,34.43-10.17,23.75-29.16c-17.07-0.55-29.02,4.49-37.72,13.08
	C186.9,128.81,227.14,104.65,272.38,101.16 M120.07,283.93c0-11.69,1-23.13,2.88-34.22c0.38,5.34,2.02,10.39,5.65,14.84
	c0.83-6.1,7.93-5.92,11.87-8.91c-5.53-4.63-18.13-28.14,0-29.68c11.04-3.12,5.82,10.01,11.87,11.87
	c10.05-11.18,3.32-33.94-16.31-32.77c3.18-7.42,6.79-14.57,10.8-21.4c-0.14,0.3-0.28,0.61-0.42,0.92
	c22.89,9.42,31.98,52.34,5.94,64.8c35.76-3.26,21.35,70.29-2.97,35.64c4.31-16.07,13.32,4.07,17.81-3.24
	c-0.01-16.19-7.98-23.69-23.75-22.68c-5.08,3.1-5.98,10.75-11.87,12.96c10.24,19.07,22.45,35.97,47.49,38.88
	c4.54-28.15,6.43-46.64-5.94-64.81c2.98-45.51,65.28-54.83,74.21-9.72c6.32,31.92-8.86,66.62-41.56,71.29
	c-33.15-23.15,42.78-50.41,2.97-71.29c-17.81,17.59-21.43,63.24-14.84,97.21c-11.09,13.82-20.88,29.06-47.5,25.92
	c-2.71,6.53-4.62,13.14-5.78,19.7c-2.71-6.21-5.19-12.55-7.39-18.96C124.63,335.21,120.07,308.81,120.07,283.93 M283.75,494.28
	c-21.19,0-42.13-6.02-62.22-17.88c-5.98-3.53-11.8-7.53-17.45-11.97c5.25,0.13,10.76-0.24,16.54-1.19
	c-2.1-15.82-2.45-27.86,11.87-32.4c12.76-3.91,20.79,15.92,8.91,19.44c-7.11,1.29,1.65-14.76-8.91-9.72
	c-12.03,25.83,19.96,29.47,23.75,48.6c10.58-52.08-30.58-74.22-41.56-113.41c3.19,9.48,13.32,11.38,26.71,9.72
	c1.77,6.71-3.67,21.29,2.97,22.68c3.63-4.61,11.33-7.36,14.84-3.24c2.15,9.9-3.03,11.81-2.97,19.44c7.36,4.21,14.4-7.23,14.84,0
	c-4.31,19.96,4.59,33.03,14.84,45.36c9.77-13.61,9.82-38.27,20.78-42.12c-4.67-0.31-10.29,0.43-8.91-6.48
	c4.01,1.02,5.67,4.61,11.87,3.24c5.45-4.58-4.65-15.74,2.97-22.68c3.9,3.3,10.94,3.18,14.84,6.48c1.77-6.71-3.67-21.29,2.97-22.68
	c14.77,7.27,20.17-12.25,23.75-6.48c-10.71,35.84-54.05,53.31-38.59,106.93c2.35-18.65,33.86-20.42,20.78-45.36
	c-10.8-3.15-1.37,15.79-14.84,9.72c-1.18-12.09,2.37-19.01,11.88-19.44c13.47,1.5,16.5,14.39,14.84,32.4
	c5.3,0.84,10.37,1.2,15.21,1.15c-5.67,4.46-11.5,8.46-17.5,12.01C325.88,488.26,304.94,494.28,283.75,494.28 M374.2,455.21
	c-2.6-0.27-5.31-0.83-8.13-1.7c-21.5-6.65-37.12-58.41,2.97-61.56c7.36,3.85,11.01,11.75,8.91,25.92
	c-8.83,4.29-15.06,3.32-20.78-3.24c1.62,32.34,38.77,27.23,41.56,0c5.17-50.54-57.63-55.22-89.05-32.4
	c-6.56,4.77-23.85,22.69-23.74,22.68c-12.26,0.57-25.4-34.51-53.43-38.88c-35.57-5.55-63.65,12.39-62.33,45.36
	c1.27,31.76,30.41,38.86,41.56,6.48c-3.7-5.67-12.17,8.3-20.78,0c-12.89-27.08,24.45-34.58,32.65-12.96
	c10.36,27.31-9.97,46.44-30.09,50.49c-8.6-7.93-16.73-16.96-24.35-27.04c-5.41-7.16-10.47-14.8-15.14-22.78
	c0.11-12.92,3.16-26.07,10.21-36.31c12.09-17.53,32.98-18.38,59.37-25.92c1.44-10.21-9.11-7.34-5.94-19.44
	c9.04-0.15,11.54,6.84,17.81,9.72c-9.64-48.73,56.1-66.83,44.53-12.96c-9.94,5.65-18.96,1.9-23.75-6.48
	c-3.4,19.1,14.38,69.39,27.03,79.39c17.33-8.75,30.76-51.65,29.37-79.39c-4.76,5.6-8.99,11.79-20.78,9.72
	c-24.52-46.11,51.97-51.34,38.59,6.48c10.86,2.13,11.39-7.01,20.78-6.48c0.77,9.49-6.71,9.96-5.93,19.44
	c24.08,9.66,40.36,2.93,56.4,22.68c8.48,10.44,12.71,23.81,13.26,37.02c-5.06,8.9-10.62,17.4-16.6,25.31
	C390.79,438.36,382.72,447.33,374.2,455.21 M434.26,360.3c-2.13,6.2-4.51,12.33-7.12,18.35c-0.97-6.25-2.52-12.65-4.67-19.09
	c-76.3,13.13-22.52-97.86-65.3-123.13c-29,25.36,19.77,34.96,14.84,64.81c-23.71,20.45-47.87-19.32-50.46-35.64
	c-10.19-64.14,69.61-88.67,71.24-9.72c-14.66,12.32-3.82,33.56-2.97,55.08c22.65-4.44,38.65-16.14,44.53-38.88
	c-4.74-19.86-35.89-14.67-32.65,9.72c6.99-2.29,18.83-7.44,17.81,6.48c-32.9,24.57-31.41-40.6-2.97-42.12
	c-30.07-9.77-13.79-50.95,3.64-63.34c4.18,7.05,7.95,14.43,11.24,22.12c-18.86-0.46-26.82,26.01-11.91,32.91
	c-1.38-9.29,2.58-13.25,11.88-11.87c13.86,5.89,2.06,24.39-2.97,29.68c7.93-0.01,6.45,9.38,14.84,8.91
	c0.87-5.18,1.29-9.95,1.37-14.47c1.84,10.98,2.81,22.29,2.81,33.85C447.42,308.81,442.87,335.21,434.26,360.3 M110.5,202.33
	c12.49-36.23,55.39-86.63,87.46-100.28c0,0-15-27.58-76.63-27.58C65.52,104.46-36.1,195.25,13.04,346.01l19.16,15.83
	C32.2,361.84,21.37,276.46,110.5,202.33 M25.88,306.56c-2.28,8.27-3.8,15.93-4.8,22.78c-15.79-57.59-9.91-110.73,17.56-158.14
	c11.28-19.48,25.99-37.52,43.71-53.62c16.35-14.85,31.52-24.67,42.13-30.61c25.67,0.43,41.3,6.11,49.98,10.91
	c0.93,0.51,1.81,1.03,2.62,1.54c-30.43,20.43-64.22,61.47-77.18,95.49C53.25,234.67,33.9,277.45,25.88,306.56 M445.21,74.47
	c-61.64,0-76.63,27.58-76.63,27.58c32.07,13.66,74.97,64.05,87.46,100.28c89.12,74.13,78.3,159.51,78.3,159.51l19.16-15.83
	C602.64,195.25,501.02,104.46,445.21,74.47 M545.46,329.35c-1-6.85-2.52-14.52-4.8-22.79c-8.02-29.12-27.38-71.89-74.02-111.64
	c-12.96-34.02-46.76-75.07-77.19-95.5c9.02-5.61,25.24-11.98,52.6-12.44c10.61,5.94,25.78,15.76,42.13,30.61
	c17.72,16.1,32.43,34.14,43.71,53.62C555.36,218.62,561.25,271.76,545.46,329.35 M148.43,429.51
	c-73.39,110.75,37.21,161.74,40.06,169.84c-10.96-39.88,8.39-95.79,10.21-105.7C201.17,480.26,159.51,452.75,148.43,429.51
	 M184.53,498.75c-3.92,14.53-11.62,43.11-11.84,71.64c-10.55-9.08-22.35-21.38-29.65-36.97c-5.97-12.76-8.25-26.41-6.78-40.57
	c1.32-12.73,5.67-26.2,12.97-40.21c5.57,6.54,12.02,12.96,18.36,19.26c6.63,6.59,16.47,16.38,18.54,20.77
	C185.77,494.15,185.16,496.4,184.53,498.75 M369.57,493.65c1.83,9.91,21.18,65.82,10.21,105.7c2.85-8.1,113.45-59.08,40.06-169.84
	C408.76,452.75,367.1,480.26,369.57,493.65 M425.23,533.42c-7.3,15.59-19.1,27.9-29.65,36.97c-0.22-28.53-7.92-57.11-11.84-71.64
	c-0.63-2.35-1.24-4.6-1.6-6.08c2.08-4.4,11.91-14.18,18.54-20.77c6.33-6.3,12.78-12.71,18.36-19.26
	c7.3,14.01,11.65,27.48,12.97,40.21C433.48,507.01,431.2,520.66,425.23,533.42 M148.39,351.84c1.76,0.45,3.54,0.66,5.34,0.66
	c14.13,0,28.64-12.84,32.15-18.57c0,0-2.08-5-5-13.74c-36.13-0.83-54.26-42.64-54.26-42.64S129.24,344.97,148.39,351.84
	 M136.97,306.24c9.1,9.78,21.85,19.07,38.42,21.06c0.75,2.14,1.41,3.94,1.96,5.39c-4.67,4.98-14.68,12.31-23.62,12.31
	c-1.05,0-2.07-0.11-3.04-0.32c-1.49-0.73-8.09-5.52-12.96-33.71C137.46,309.39,137.21,307.81,136.97,306.24 M387.75,320.19
	c-2.91,8.75-5,13.74-5,13.74c3.51,5.73,18.02,18.57,32.15,18.57c1.79,0,3.58-0.21,5.34-0.66c19.16-6.87,21.77-74.3,21.77-74.3
	S423.88,319.36,387.75,320.19 M431.66,306.24c-0.24,1.57-0.49,3.15-0.76,4.74c-4.87,28.19-11.47,32.97-12.96,33.71
	c-0.96,0.21-1.98,0.32-3.04,0.32c-8.93,0-18.95-7.33-23.62-12.31c0.54-1.45,1.21-3.25,1.96-5.39
	C409.81,325.31,422.56,316.03,431.66,306.24 M182.44,497.82c-0.41,3.4-13.69,37.3-11.35,67.26c-0.16,2.23-3.8-1.93-4.27-3.23
	c-4.27-19.05,6.94-57.21,7.29-60.28c0.86-7.68-0.55-12.61-6.25-17.21c-4.84-3.91-13.74-4.61-18.74-0.31
	c-3.16,2.71-5.27,6.42-4.7,12.04c0.74,7.28,7.9,11.93,12.51,11.93c4.17,0,6.93-3.29,7.2-6.48c0.21-2.56-0.2-4.99-1.58-6.44
	c-0.92-0.97-1.8-1.97-3.59-2.11c-2.03-0.16-5.32,0.89-5.62,3.83c-0.43,4.18,3.59,6.17,6.63,5.88c0,0,0.08,0.56,0.09,0.56
	c-1.7,0.78-5.24,0.72-6.99,0.28c-3.02-0.76-4.6-3.6-5.17-6.58c-0.49-2.6,1.2-9,8.33-10.72c6.48-1.56,10.6,1.99,12.26,3.75
	c2.85,3.02,3.5,7.46,3.11,12.18c-0.62,7.49-7.07,13.35-14.67,13.35c-8.55,0-17.32-7.32-18.43-18.32
	c-0.97-9.64,8.43-35.87,11.97-36.65C152.13,460.18,183.48,489.16,182.44,497.82 M168.26,517.68c-4.47,7.3-6.56,31.28-4.79,39.39
	c-11.21-13.65-21.44-37.96-20.96-43.25C146.33,518.57,157.82,522.73,168.26,517.68 M429.78,497.19
	c-1.11,11.01-9.88,18.32-18.43,18.32c-7.6,0-14.04-5.87-14.67-13.35c-0.39-4.72,0.26-9.16,3.11-12.18
	c1.66-1.76,5.78-5.31,12.26-3.75c7.13,1.72,8.82,8.12,8.33,10.72c-0.56,2.98-2.14,5.82-5.17,6.58c-1.75,0.44-5.3,0.51-7-0.28
	c0-0.01,0.09-0.56,0.09-0.56c3.04,0.29,7.06-1.7,6.63-5.88c-0.3-2.93-3.59-3.98-5.62-3.83c-1.79,0.14-2.68,1.14-3.59,2.11
	c-1.37,1.45-1.79,3.88-1.57,6.44c0.26,3.19,3.03,6.48,7.2,6.48c4.61,0,11.78-4.65,12.51-11.93c0.57-5.62-1.55-9.33-4.7-12.04
	c-5-4.29-13.9-3.59-18.74,0.31c-5.7,4.6-7.11,9.53-6.25,17.21c0.34,3.07,11.56,41.23,7.29,60.28c-0.47,1.3-4.11,5.46-4.27,3.23
	c2.34-29.96-10.94-63.86-11.35-67.26c-1.04-8.66,30.32-37.64,31.96-37.27C421.35,461.32,430.76,487.55,429.78,497.19 M425.77,513.81
	c0.47,5.29-9.76,29.6-20.96,43.25c1.77-8.11-0.32-32.09-4.79-39.39C410.47,522.73,421.95,518.57,425.77,513.81 M452.87,98.52
	c3.53,5.94,13.86,9.65,18.6,15.93c-10.62-4.84-33.73,5.15-47.95-5.35C432.53,109.14,441.33,110.86,452.87,98.52 M93.68,114.45
	c4.74-6.28,15.07-9.99,18.6-15.93c11.54,12.34,20.34,10.62,29.35,10.58C127.41,119.61,104.3,109.61,93.68,114.45 M545.29,310.61
	c-3.54-24.99-47.89-106.2-74.44-117.45c-1.77-11.45-18.01-44.98-28.84-50.6c8.76-20.97,76.02,44.13,60.68,69.53
	c25.7,11.64,18.49-19.54,11.71-32.21c-35.76-66.81-69.68-27.93-115.5-79.6c9.58-4.79,22.75-10.08,45.87-9.61
	c5.41,11.04-12.32,17.51-28.58,15.44c24.99,21.45,26,7.41,55.29,13.74c31.76,6.87,55.49,56.34,71.09,98.44
	c-29.75-2.02-26.42,22.76,1.48,55.03c5.73-15.15-29.3-39.64-1.35-48C556.12,254.39,547.79,292.7,545.29,310.61 M94.62,193.17
	c-26.55,11.25-70.91,92.46-74.44,117.45c-2.5-17.91-10.83-56.22,2.6-85.27c27.95,8.36-7.08,32.85-1.35,48
	c27.9-32.28,31.23-57.06,1.48-55.03c15.6-42.1,39.33-91.57,71.09-98.44c29.29-6.34,30.3,7.71,55.29-13.74
	c-16.26,2.07-33.99-4.4-28.58-15.44c23.11-0.47,36.28,4.82,45.86,9.61c-45.81,51.67-79.73,12.79-115.49,79.6
	c-6.78,12.67-14,43.85,11.71,32.21c-15.33-25.4,51.93-90.5,60.68-69.53C112.64,148.19,96.39,181.71,94.62,193.17 M260.02,84.47
	h47.47c22.31,0,40.4-11.8,40.4-26.35v-1.83c0-4.43-1.68-10.84-4.64-17.61c-0.52-1.9-1.25-3.84-2.21-5.77
	c-1.33-2.66-2.95-4.98-4.7-6.91c-7.33-11-17.54-20.23-28.85-20.23C299.69,1.92,291.72,0,283.75,0c-7.97,0-15.94,1.92-23.73,5.75
	c-11.47,0-21.81,9.51-29.17,20.72c-1.58,1.83-3.04,3.99-4.26,6.42c-0.82,1.65-1.48,3.31-1.98,4.95c-3.18,7.08-5,13.83-5,18.43v1.83
	C219.62,72.67,237.7,84.47,260.02,84.47 M301.97,16.96l2.61,1.29h2.91c3.44,0,7.47,2.22,11.53,6.17c-2.12,4.44-1.56,11.6,1.9,18.54
	c3.65,7.3,9.44,12.17,14.44,12.76c0.01,0.2,0.03,0.39,0.03,0.56v1.83c0,4.19-5.98,9.77-16,12.39c-15.14-18.7-20.6-46.15-22.08-55.53
	C298.86,15.54,300.42,16.2,301.97,16.96 M283.75,12.49c2.39,0,4.79,0.24,7.2,0.71c0.29,7.18,2.47,38.64,18.86,58.7
	c-0.77,0.03-1.53,0.07-2.33,0.07h-47.47c-0.75,0-1.48-0.04-2.2-0.07c16.41-20.08,18.58-51.6,18.87-58.73
	C279.04,12.73,281.4,12.49,283.75,12.49 M232.11,56.28c0-0.17,0.01-0.36,0.03-0.55c5.04-0.52,10.89-5.42,14.57-12.77
	c3.49-6.98,4.04-14.19,1.87-18.62c4.03-3.9,8.03-6.09,11.45-6.09h2.91l2.61-1.29c1.59-0.78,3.19-1.46,4.8-2.04
	c-1.48,9.35-6.94,36.88-22.11,55.6c-10.09-2.6-16.11-8.21-16.11-12.42V56.28z M283.14,69.27l-19.44-0.49c0,0,4.17-6.32,5.92-9.61
	c0,0,0.75,6.37,7.38,5.27c3.03-0.5,4.79-4.81,2.37-7.89c-1.63-2.06-3.68-3.28-7.13-2.53c0,0,7.76-22.06,7.89-38.46l2.74-0.49
	L283.14,69.27z M304.34,68.78l-19.44,0.48l0.28-54.19l2.75,0.49c0.13,16.4,7.88,38.46,7.88,38.46c-3.45-0.76-5.5,0.47-7.13,2.53
	c-2.43,3.07-0.67,7.38,2.36,7.89c6.63,1.11,7.38-5.26,7.38-5.26C300.16,62.47,304.34,68.78,304.34,68.78 M233.55,175.55
	c-11.87-0.16-21.87-35.3-44.98-32.28c0.62-0.83,21.66-20.82,44.56-24.99c-10.2,21.24-7.13,48.1,8.07,54.77
	C239.95,174.72,236.52,175.24,233.55,175.55 M324.76,173.06c15.2-6.66,18.27-33.53,8.07-54.77c22.91,4.16,43.94,24.15,44.56,24.99
	c-23.11-3.02-33.11,32.12-44.98,32.28C329.44,175.24,326.01,174.72,324.76,173.06"/>
</svg>
