<?xml version="1.0" encoding="utf-8"?>
<!-- Generator: Adobe Illustrator 15.0.0, SVG Export Plug-In  -->
<!DOCTYPE svg PUBLIC "-//W3C//DTD SVG 1.1 Tiny//EN" "http://www.w3.org/Graphics/SVG/1.1/DTD/svg11-tiny.dtd" [
	<!ENTITY ns_flows "http://ns.adobe.com/Flows/1.0/">
]>
<svg version="1.1" baseProfile="tiny"
	 xmlns="http://www.w3.org/2000/svg" xmlns:xlink="http://www.w3.org/1999/xlink" xmlns:a="http://ns.adobe.com/AdobeSVGViewerExtensions/3.0/"
	 x="0px" y="0px" width="600px" height="600px" viewBox="-37.51 -2.4 600 600" overflow="visible" xml:space="preserve">
<defs>
</defs>
<path d="M113.52,443.66c0.01-0.01,0.02-0.02,0.02-0.02 M150.21,405.27c-52.41-10.62-89.87-31.35-91.29-41.45
	c-0.13-3.16,0.17-6.87,0.76-10.99c12.96-4.41,68.59,4.55,106.37,10.63c12.71,2.05,23.69,3.82,31.94,4.94l0.2-1.44
	c-8.23-1.12-19.2-2.89-31.9-4.93c-50.19-8.08-92.99-15.05-106.29-11.29c0.76-4.83,1.83-9.61,3.26-15.38
	c58.49,2.83,112.57,9.46,169.98,18.95c-3.24,4.89-6.05,10.76-8.43,16.86l-11.24-1.69l-0.22,1.43l10.93,1.64
	c-2.17,5.75-3.95,11.66-5.35,17.13c-17.26-3.43-38.85-7.17-60.52-10.71c-1.01,3.28-3.31,10.74-4.79,16
	c-5.82-0.26-21.79-5.44-21.79-5.44l2.18-14.47c-1.98-0.31-3.94-0.62-5.89-0.92c-0.83,4.11-1.89,9.47-2.64,13.88
	c-6.96-1.23-19.23-7.28-19.23-7.28l0.83-9.84c-1.6-0.24-3.18-0.48-4.73-0.71c-0.13,2.17-0.48,5.96-1.52,8.82
	c-5.85-3-10.45-8.14-12.69-10.95c-1.78-0.27-3.51-0.52-5.16-0.77c3.03,16.9,69.43,33.14,69.43,33.14S151.12,402.71,150.21,405.27
	 M202.39,368.84c-0.34,2.27,1.06,4.37,3.14,4.68c2.08,0.31,4.04-1.28,4.38-3.55c0.34-2.27-1.07-4.37-3.14-4.68
	C204.7,364.98,202.74,366.57,202.39,368.84 M184.97,392.59l24.47,3.68l0.26-5.36l-23.03-4.47L184.97,392.59z M164.17,316.85
	c-3.1-0.47-6,1.74-6.48,4.93c-0.48,3.19,1.64,6.16,4.74,6.62c3.1,0.47,6-1.74,6.48-4.93C169.4,320.28,167.27,317.32,164.17,316.85
	 M212.76,325.45c-3.1-0.47-6,1.74-6.48,4.93c-0.48,3.19,1.64,6.16,4.74,6.62c3.1,0.47,6-1.74,6.48-4.93
	C217.98,328.88,215.86,325.92,212.76,325.45 M105.63,447.73c-0.04-0.03-0.09-0.08-0.14-0.12
	C105.56,447.76,105.63,447.73,105.63,447.73 M178.18,391.6l1.93-6.12l-19.04-2.9l-2.2,6.12L178.18,391.6z M100.44,427.34
	c2.63,2.62,7.29,6.28,11.23,10.43c4.02-12.87,19.44-12.15,29.76-18.96c2.68-1.77,6.06-4.4,6.59-7.92l-7.56-4.06
	c-15.36-2.11-30.97-9.5-42.8-12.42l-5.08,8.88c-10.8,15.66,6.2,38.52,12.54,44v0.01c0,0,0.01,0,0.02,0c0.12,0.1,0.24,0.21,0.35,0.3
	c-0.02-0.05-0.04-0.12-0.05-0.22c2.58,0.61,7.84-3.54,8.08-3.74c-0.06,0.04-0.24,0.02-0.05-1.7c-2.52,2.12-6.07,1.77-8.35,0.69
	c-1.43-0.67-6.65-9.36-7.83-13.9C96.69,426.43,98.42,425.32,100.44,427.34 M126.55,467.35c-5.75-3.18-10.36-10.56-10.36-10.56
	s-16.3,16.2-13.94,29.73c1,0.65,1.5-0.23,1.5-0.23C102.71,481.6,110.1,466.87,126.55,467.35 M367.32,337.18
	c5.75-27.33,15.6-101.73-26.16-146.15c-30.6-7.01-48.08,47.47-48.08,47.47s-13.47-7.14-45.59-14.28
	c10.54-11.5,35.66-44.34,32.11-64.02c-70.56-11.11-113.82,48.56-125.08,68.96c-1.85,0.64-4.41,1.72-4.41,1.72l-28.28-13.46
	c12.71-29.34,76.76-122.59,194.23-79.92c134.13,48.72,82.51,219.64,82.51,219.64l-28.61-6.71
	C369.94,350.43,369.33,344.46,367.32,337.18 M383.1,325.52c-0.39,2.57,1.7,5.02,4.67,5.46s5.69-1.28,6.07-3.85
	c0.39-2.57-1.71-5.01-4.67-5.46C386.21,321.22,383.49,322.95,383.1,325.52 M156.27,205.02c0.39-2.57-1.7-5.02-4.67-5.46
	c-2.97-0.45-5.68,1.28-6.07,3.85c-0.39,2.57,1.71,5.02,4.67,5.46C153.16,209.31,155.88,207.59,156.27,205.02 M220.67,148.43
	c0.39-2.57-1.7-5.02-4.67-5.46c-2.97-0.45-5.68,1.28-6.07,3.85c-0.39,2.57,1.7,5.01,4.67,5.46
	C217.57,152.72,220.29,151,220.67,148.43 M321.74,156c0.39-2.57-1.71-5.02-4.67-5.46c-2.97-0.45-5.68,1.28-6.07,3.85
	c-0.39,2.57,1.7,5.02,4.67,5.46C318.63,160.29,321.35,158.57,321.74,156 M382.41,234.24c0.39-2.57-1.71-5.02-4.67-5.46
	c-2.97-0.45-5.68,1.28-6.07,3.85c-0.39,2.57,1.7,5.02,4.67,5.46C379.31,238.54,382.02,236.82,382.41,234.24 M74.77,297.37
	c-8.22-5.38-10.08-7.62-10.69-13.32c-0.61-5.71,4.37-14.48,4.37-14.48c6.06-4.7,31.19-10.06,73.17-2.36
	c2.64-5.73-34.31-6.93-33.94-7.29c29.16-27.98,76.61-46.52,153.95-26.74c119.54,30.57,108.81,144.65,100.53,167.26
	c-0.12,0.31-10.62,3.54-16.59,5.46c-2.35,0.76-1.96,2.47,0.5,2.05c6.15-1.07,17.23-2.38,17.69-2.41
	c18.04-1.87,16.09,19.63,8.1,21.66c-0.35,0.27-13.44,4.13-19.02,5.79c-1.44,0.43-1.14,2.2,0.39,2.03
	c5.86-0.63,19.07-3.79,19.53-3.65c10.1,3.16,7.62,16.41,3.12,20.24l-43.4,9.81c7.62-57.23,3.13-138.98-69.24-128.43
	c-10.63,2.26-19.43,6.71-25.88,16.44c-57.41-9.5-115.11-16.5-173.6-19.33c3.54-14.26,8.76-25.64,20.09-42.13
	c0.12-0.18,9.77-4.67,39.36-0.28c28.08,3.81,61.1,11.79,77.27,16.06c5.64,1.49,3.64,8.05,16.04,14.5
	c7.21,3.75,27.93,4.98,31.54-5.64c0.41-1.22,0.74-2.51,0.16-3.74c-0.05,0.19-0.1,0.38-0.17,0.57c-3.61,10.62-23.85,9.49-31.07,5.76
	c-10.53-5.43-8.57-13.06-15.9-15.2c-20.87-6.1-70.92-17-100.77-18.97c-19.9-1.31-27.53-0.31-29.31,4.18
	c-1.77,4.49,5.65,9.51,5.65,9.51L74.77,297.37z M174.94,324.38c1-6.62-3.41-12.77-9.83-13.73c-6.43-0.97-12.44,3.62-13.44,10.24
	c-1,6.62,3.41,12.77,9.84,13.73C167.93,335.58,173.95,331,174.94,324.38 M223.53,332.98c1-6.62-3.41-12.77-9.84-13.73
	c-6.43-0.96-12.44,3.62-13.44,10.24c-1,6.62,3.41,12.77,9.84,13.73C216.52,344.18,222.53,339.6,223.53,332.98 M302.72,465.75
	c0,0,19.94-77.88-5.57-93.29c-23.62-14.26-35.46,6.94-42.27,24.22c-4.64-0.82-15.55-2.32-31.16-5.42
	c4.97-22.41,15.82-49.9,37.23-54.45c74.27-12.95,72.83,68.51,66.6,126.32C319.18,465.39,310.88,466.5,302.72,465.75 M246.25,385.87
	c0.34-2.27-1.07-4.37-3.14-4.68c-2.08-0.31-4.04,1.28-4.38,3.55c-0.34,2.27,1.06,4.37,3.14,4.68
	C243.95,389.73,245.91,388.14,246.25,385.87 M288.34,353.68c0.34-2.28-1.06-4.37-3.14-4.68c-2.08-0.31-4.04,1.28-4.38,3.55
	c-0.34,2.27,1.06,4.37,3.14,4.68C286.04,357.54,288,355.95,288.34,353.68 M316.57,436.44c-0.34,2.27,1.06,4.37,3.14,4.68
	c2.08,0.31,4.04-1.28,4.38-3.55c0.34-2.27-1.06-4.37-3.14-4.68C318.87,432.58,316.91,434.17,316.57,436.44 M316.83,386.04
	c2.08,0.31,4.04-1.28,4.38-3.55c0.34-2.27-1.07-4.37-3.14-4.68c-2.08-0.31-4.04,1.28-4.38,3.55
	C313.35,383.63,314.75,385.72,316.83,386.04 M491.86,540.68c-10.46-28.37-68.58-66.72-117.44-84.29
	c-18.02-0.72-32.25,10.8-55.14,13.19c20.58,18.66,60.86,32.79,99.24,43.49C450.35,521.93,479.02,529.92,491.86,540.68 M80.88,473.97
	c-3.83-16.28-8.21-29.58-14.46-32.93l14.9-18.33c-2.6-8.08-6.88-13.45-11.58-18.34l7.79-11.64c-0.98-3.69,1.03-7.29,2.7-8.87
	c1.94,1.03,3.48,2,5.53,2.79c-2.97,0.65-4.32,6-2.39,8.61c-7.14,6.07-7.81,8.71-7.81,8.71s14.02,15.11,11.64,20.59
	c-1.03,2.37-12.04,16.21-13.09,17.52c0.99,0.58,1.98,1.18,2.94,1.8c11.41,7.31,20.39,16.78,22.21,25.77
	c-2.51-0.33-1.31,3.55-3.47,3.71c-4.03,0.29-9.74-10.01-13.68-5.57l0.78,2.47l10.4,4.49c0,0-6.3,10.49-6.51,21.04
	c0.12-0.06,0.23-0.14,0.35-0.17c1.81-0.48,3.9,1.51,5.93,3.19l0.18,0.15c0.77-1.11,1.72-3.13,3.72-3.6c1.69-0.4,3.89,0.57,5.81,1.66
	c0.68-1.78,2.43-4.38,5.03-5.29c3.06-1.07,6.5-0.08,8.35,1.99c0.95-2.19,4.82-4.51,8.13-4.05c0.02,0,0.03,0,0.05,0.01
	c1.44,0.22,2.7,1.07,3.74,2.53c1.97-2.91,5-6.49,8.43-6.74c1.77-0.13,3.75,1.24,5.03,2.44c0.75-1.79,2.16-3.13,3.87-3.62
	c2.2-0.63,4.53,0.14,6.57,2.2l-0.62,0.4c-1.65-1.66-3.88-1.69-5.55-1.21c-1.36,0.39-2.78,1.38-3.03,3.03
	c-0.35,2.28,3.88,8.23,3.88,8.23l5.62-0.19c1.91-3.04,0.84-8.16,0.84-8.16l0.77,0.54c0,0,1.39,4.36,0.04,7.89c0,0,1.6,0.7,1.12,1.04
	c-1.07,0.75-3,1.53-3,1.53c1.19,1.62,1.33,3.76,0.33,5.89c-1.29,2.75-4.51,5.37-8.36,5.39c-0.04,1.45-0.71,2.8-1.91,3.78
	c-1.7,1.39-4.17,1.86-6.59,1.27c-0.14,0.52-0.47,1.09-1.15,1.7c-1.64,1.46-4.93,2.58-6.85,2.45c-0.33,0.7-1.02,1.4-1.97,1.97
	c-1.72,1.02-3.72,1.3-5.57,0.84c-0.06,0.75-0.4,1.49-0.98,2.1c-1.35,1.39-3.66,1.77-6.28,1.08c-0.12,0.27-0.31,0.53-0.56,0.78
	c-1.16,1.17-3.83,2.16-7.11,1.77c-0.39,1.06-1.08,2.38-2.45,2.99c-1.04,0.47-2.42,0.3-3.38,0.16c-2.35-0.35-3.64-2.92-4.38-4.94
	c-0.3-0.82,1.3-3.05,3.43-4.55c0.4-0.28,4.2,3.92,4.61,3.65c0.07-0.05,0.84-0.44,0.8-0.67c-0.17-1.05-2.04-3.91-1.7-4.12
	c1.66-1.02,3.05-1.77,5.21-2.93c0.43-0.23,3.34,5.33,3.77,5.1c0.43-0.22-1.63-6.22-1.19-6.45c1.98-1.03,2.63-1.5,4.77-2.56
	c0.4-0.2,3.39,3.93,3.79,3.74c0.4-0.2-0.69-4.88-0.29-5.08c1.56-0.76,3.2-1.52,4.87-2.26c0.31-0.14,1.05,0.72,1.36,0.58
	c0.31-0.13,0.18-1.25,0.49-1.39c1.96-0.84,3.94-1.67,5.86-2.46c0.39-0.16,1.47,1.22,1.85,1.06c0.54-0.22,0.38-1.98,0.91-2.19
	c2.1-0.86,4.08-1.68,5.84-2.44c0.41-0.18,1.36,0.71,1.74,0.54c0.5-0.22,0.43-1.51,0.89-1.72c1.47-0.69,2.67-1.32,3.47-1.86
	c0.98-0.67,0.08-2.18-0.94-2.25c-0.26-0.17-4.93,1.3-11.39,3.38c-0.46,0.15-2.14-3.01-2.61-2.86c-0.47,0.15,0.27,3.62-0.19,3.76
	c-2.71,0.88-5.65,1.83-8.64,2.79c-0.46,0.15-2.48-3.09-2.94-2.95c-0.46,0.15,0.65,3.68,0.19,3.82c-3.08,0.98-6.17,1.95-9.11,2.84
	c-0.48,0.15-3.15-5.4-3.63-5.26c-0.48,0.14,1.24,5.98,0.77,6.12c-2.53,0.75-4.88,1.43-6.94,1.97c-0.45,0.12-3.87-7.96-4.34-7.96
	c-1.34-0.02,2.07,8.54,1.62,8.65c-3.04,0.72-5,0.98-5.19,0.52c-15.99-12.89-4.51-31.32-3.48-36.5
	C88.65,476.12,80.88,473.97,80.88,473.97 M103.43,528.53c-1.15-0.6-3.65-3.17-4.32-3.2c-0.38,0.01-1.28,0.37-1.7,1.12
	c-0.3,0.61,1.89,2.96,2.35,3.86c0.61,0.03,1.27-0.1,1.93-0.39C102.45,529.58,103.07,529.06,103.43,528.53 M111.22,525.69l-4.01-4.92
	l-2.5,1.49l1.2,4.94c2.62,0.16,4.53-0.7,5.24-1.41C111.19,525.74,111.2,525.72,111.22,525.69 M118.47,522.03l-0.1-0.28l-3.36-4.95
	l-3.36,1.28l1.88,6.63c1.92,0.42,3.54,0.16,4.45-0.78C118.52,523.37,118.7,522.67,118.47,522.03 M126.11,519.61
	c0,0-1.83-5.85-2.87-6.23c-1.04-0.39-3.61,1.2-3.61,1.2l0.7,6.86c2.15,0.57,3.95-0.34,4.5-0.67
	C125.51,520.36,125.9,519.95,126.11,519.61 M134.15,515.16l-0.18,0.06l-2.51-5.46c0,0-4.57,1.86-5.15,2.98
	c-0.57,1.12,2.33,5.79,2.33,5.79c1.47-0.22,3.58-0.96,4.78-2.03C133.81,516.17,134.23,515.66,134.15,515.16 M142.58,511.05
	c0,0-1.34-4.94-1.83-5.13c-1.36-0.53-6.09,2.22-6.4,3.12c-0.31,0.9,1,5.29,1,5.29c2.17,0.68,4.4,0.38,5.87-0.83
	C142.02,512.83,142.48,511.99,142.58,511.05 M142.66,504.47c-0.58,0.63,1.55,4.89,1.55,4.89c3.16-0.09,5.81-2.24,6.88-4.53
	c0.81-1.73,0.67-3.38-0.35-4.6C150.75,500.23,143.24,503.84,142.66,504.47 M129.82,493.08c-0.32,1.33,2.11,5.44,4.41,6.02
	c2.29,0.58,8.13-3.54,8.13-3.54s-1.07-5.65-1.76-6.57c-0.69-0.92-2.19-1.4-3.56-1.3C133.9,487.92,130.14,491.75,129.82,493.08
	 M104.49,496.85l6.72,9.57l4.75-1.94l0.49-5.58l1.47-1.79l5.05,6.19c0,0,4.65-1.1,5.01-2.06c0.36-0.95-0.22-6.8-0.22-6.8l-0.3-0.53
	c-0.94-1.69-2.11-2.61-3.36-2.83c-2.62-0.37-5.13,1.89-6.7,3.44c-0.16,0.16,0.03,1.52-0.1,1.65l-1.31,0.99l-0.73-1.71
	c-1.95-2.79-4.92-2.27-6.51-1.71C106.8,494.43,105.23,495.71,104.49,496.85 M95.06,499.01c1.54,3.18,4.66,8.03,6.16,10.55l3.07-1.13
	c-0.52-3.32-1.27-7.68-2.31-10.19c-1.55-0.85-3-1.16-4.3-0.85C96.55,497.65,95.69,498.31,95.06,499.01 M86.91,498.68
	c0.41,4.21,1.99,8.28,5.56,11.51c2.26-0.78,0.89-7.07,0.31-9.78l-0.62-0.5c-1.67-1.38-3.46-2.52-4.56-2.22
	C87.39,497.74,87.14,498.17,86.91,498.68 M238.12,458.17c-10.99-12.16-24.58-27.2-13.76-46.89c-3.66-0.64-7.83-1.31-12.43-2
	c-15.5-2.33-33.04-4.47-42.88-5.62c-5.26,19.38-21.72,26.75-32.69,31.66c-7.68,3.44-11.32,5.4-11.24,7.22
	c0.41,8.54,9.45,15.25,19.03,22.36c12.84,9.53,28.81,21.38,25.55,42.06c-2.83,18-26.63,24.75-51.83,31.89
	c-17.24,4.89-40.85,11.58-44.08,20.1c-0.89,2.34,0.11,5.87,2.88,10.2c4.91,7.69,18.13,13.5,37.23,16.37l-0.21,1.43l0.22-1.43
	c35.91,5.4,83.54-0.73,102.14-9.82c34.27-16.73,50.44-49.48,42.22-85.45C255.27,477.15,246.55,467.5,238.12,458.17 M268.16,488.02
	c9.13,39.94-8.67,77.78-47.66,96.82c-30.46,14.88-131.32,22.74-152.37-10.21c-29.62-46.36,87.14-41.1,91.57-69.24
	c4.43-28.14-43.38-34.59-44.69-62.37c-0.99-20.93,43.81-12.94,45.55-50.54c0,0,64.36,7.01,81.94,12.31
	C207.83,437.46,259.02,448.08,268.16,488.02 M261.1,489.63c-3.17-13.87-12.14-23.8-20.82-33.4c-11.23-12.42-23.96-26.51-12.38-45.25
	l1.12-1.81l-2.09-0.38c-4.15-0.75-9.05-1.55-14.55-2.37c-16.23-2.44-34.68-4.67-44.23-5.78l-1.28-0.15l-0.3,1.25
	c-4.55,18.92-20.06,25.87-31.38,30.94c-9.34,4.18-13.12,6.26-12.95,10c0.47,9.91,10.05,17.02,20.2,24.55
	c12.21,9.06,27.39,20.32,24.41,39.28c-2.54,16.17-25.48,22.67-49.76,29.56c-19.8,5.62-42.25,11.98-46,21.86
	c-1.25,3.28-0.19,7.58,3.14,12.79c5.37,8.4,19.3,14.67,39.24,17.67h0.01c36.42,5.47,84.86-0.81,103.84-10.08
	C252.86,560.98,269.64,526.99,261.1,489.63 M417.36,517.25c-39.64-11.04-88.2-26.45-109.08-46.53c-7.03,0.79-30.2,0.66-30.2,0.66
	l-1.52,22.29c0,0,210.15,78.05,216.71,54.9C486.16,536.42,452.62,527.08,417.36,517.25 M216.07,397.26l24.08,3.62l0.33-3.54
	l-24.15-5.44L216.07,397.26z M320.41,128.27c145.09,51.9,86.88,232.01,86.88,232.01c49.42,4.13,102.38,41.5,102.38,41.5
	s3.34-8.13,7.16-22.83c0.19-0.72-75.68-33.54-75.28-35.49c0.23-1.12,77.88,24.74,78.06,24.01c1.81-7.43,2.24-10.8,3.85-20.86
	c0.08-0.5-41.63-10.5-41.55-11c0.08-0.5,42.75,2.73,42.82,2.22c1.56-10.3,1.77-14.35,2.48-26.93c0.04-0.71-62.56-8.65-62.52-9.37
	c0.04-0.71,62.92,1.14,62.95,0.43c0.56-12.24,0.67-14.3-0.11-28.31c-0.05-0.95-88.2-11.6-88.25-12.55
	c-0.06-0.95,87.66,1.34,87.59,0.39c-0.81-11.58-1.55-19.68-3.6-32.24c-0.08-0.49-30.76-2.16-30.84-2.64
	c-0.08-0.49,29.81-3.79,29.73-4.28c-1.94-11.33-3.45-19.2-6.61-31.2c-0.25-0.96-76.16,9.2-76.81,5.44
	c-0.17-0.98,74.53-14.07,74.25-15.03c-2.12-7.45-4.6-14.75-7.42-21.89c-0.19-0.47-33.78,8.68-37.85,4.9
	c-1.58-1.47,33.69-15,33.49-15.48c-4.74-11.55-5.14-11.56-11.58-22.16c-0.27-0.44-46.52,18.02-46.72,17.55
	c-1.44-3.39,41.45-26.19,41.18-26.62c-6.73-10.77-7.27-11.83-15.58-21.45c-0.65-0.75-50.24,36.95-50.91,36.21
	c-0.66-0.75,42.52-46.03,41.85-46.77c-9.99-11.01-18.09-18.9-29.94-28.07c-0.76-0.59-51.45,68.02-53.83,66.34
	c-2.87-2.02,47.11-71.53,46.34-72.1c-9.25-6.84-14.65-10.63-24.82-16.25c-0.43-0.24-27.69,48.07-29.6,47.1
	c-1.36-0.69,23.07-50.75,22.63-50.98c-12.63-6.79-20.59-10.73-34.39-15.46c-0.45-0.16-18.74,51.85-20.67,51.56
	c-2.39-0.36,11.05-54.86,10.6-55c-13.26-4.39-20.92-6.41-35.01-8.71c-0.95-0.16-18.78,95.65-21.45,95.15
	c-2.4-0.45,12.67-96.57,11.72-96.71c-13.81-1.95-23.3-2.9-37.67-2.69c-0.72,0.01-7.07,55.99-7.79,56c-0.73,0.02-0.48-55.9-1.2-55.88
	c-11.03,0.33-20.17,1.03-31.41,2.72c-1.2,0.18,5.03,49.61,3.83,49.81c-1.2,0.2-13.79-48.2-14.99-48
	c-14.78,2.58-26.7,5.69-39.67,9.87c-1.14,0.37,28.57,82.47,27.43,82.85c-1.14,0.38-38.62-78.96-39.75-78.56
	c-14.02,4.91-21.48,8.7-33.43,15.14c-0.85,0.46,32.59,46.9,29.82,47.45c-2.64,0.52-35.93-44.04-36.77-43.57
	c-12.8,7.27-20.32,12.46-30.81,21c-0.57,0.47,38.67,38.84,38.1,39.31c-0.57,0.47-47.39-31.53-47.95-31.06
	C68.35,75.88,63.35,81.45,55.15,90.9c-0.47,0.54,25.16,18.67,24.81,19.3c-1.83,3.26-29.14-14.17-29.6-13.62
	c-9.29,11.08-13.52,17.26-20.12,28.39c-0.36,0.61,54.31,30.34,53.95,30.96c-0.36,0.62-57.4-25.13-57.76-24.51
	c-6.1,10.7-9.34,16.31-13.2,26.16c-0.17,0.44,16.44,8.55,16.27,8.99c-0.12,0.3-8.95-0.72-14.52-1.25c-2.54-0.24-5.32,2.1-5.73,3.25
	c-4.18,11.68-5.66,15.33-7.01,24.2c-0.08,0.49,47.65,2.5,48.23,4.78c0.46,1.81-49.75,4.66-49.81,5.15
	c-1.15,9.24-0.77,16.28,0.85,20.2c51.61-18.6,111.25-11.46,111.25-11.46C127.79,177.67,202.74,86.17,320.41,128.27 M260.59,413.9
	c7.86,6.19,18,18.48,30.06,24.14c0.06-0.14,16.37-17.5,16.16-19.63c0.63-4.12,0.7-12.24,0.05-19.21l-17.7,27.64
	c-11.88-10.3-30.69-26.4-30.69-26.4c-15.33,9.47-24.94,20.53-19.77,35.69l22.03,23.86c0,0-0.31,1.71-0.8,4.37
	c2.81,3.72,5.77,9.34,6.45,11.32c1.33-4.63,3.57-14.31,3.57-14.31l-26.14-28.38C242.1,421.45,251.06,414.78,260.59,413.9
	 M285.46,372.9c-15.06-1.1-22.68,13.74-24.98,20.96l27.62,25.4l16.36-24.83C304.46,394.43,300.51,374.01,285.46,372.9"/>
</svg>
