<?xml version="1.0" encoding="utf-8"?>
<!-- Generator: Adobe Illustrator 15.0.0, SVG Export Plug-In  -->
<!DOCTYPE svg PUBLIC "-//W3C//DTD SVG 1.1 Tiny//EN" "http://www.w3.org/Graphics/SVG/1.1/DTD/svg11-tiny.dtd" [
	<!ENTITY ns_flows "http://ns.adobe.com/Flows/1.0/">
]>
<svg version="1.1" baseProfile="tiny"
	 xmlns="http://www.w3.org/2000/svg" xmlns:xlink="http://www.w3.org/1999/xlink" xmlns:a="http://ns.adobe.com/AdobeSVGViewerExtensions/3.0/"
	 x="0px" y="0px" width="513px" height="600px" overflow="visible" xml:space="preserve">
<defs>
</defs>
<path d="M244.74,292.77c-0.22-6.44,3.22-14.33,9-19.89c5.78-5.56,13.44-8.11,16.33-2.78c2.82,5.21,3.52,22.52-8.06,32.43
	c-0.27,0.23-0.63-0.08-0.41-0.35c10.99-13.75,7.98-27.66,5.36-28.97c-2.67-1.33-11.75,5.73-11.04,7.99
	c2.53,8.04,5.64,26.63-7.1,31.2c-0.41,0.15-0.59-0.21-0.21-0.42c10-5.54,5.39-27.04,3.46-28.32
	C250.07,282.33,248.52,293.22,244.74,292.77 M501.46,269.12c-34.66,2.97-104.29-5.43-104.29-5.43s37.77,76.32,60.88,89.65
	c-43.55-9.78-80.44-30.57-80.44-30.57s-13.33,58.66,7.11,76.88c-31.11-4.89-48.88-28-48.88-28s-23.78,29.33-13.11,61.33
	c-19.33-2-29.78-35.9-29.78-34.44c0,1.43-15.71,37.04-4.56,57.93l26.29-8.33l1.19,0.8l-19.49,32.98l3.7,5.27l-0.15,0.8
	c-0.09,0.45-0.96,4.42-5.34,11.06l17.43,21.23l-0.32,1.4l-31.06-6.34c-6.62,6.38-15.5,13.66-27.38,21.61l4.93,28.32l-1.02,1.35
	l-22.33-18.27c-7.45,4.29-15.73,8.72-24.98,13.26c-6.11,3-11.99,5.62-17.66,7.93l-2.47,29.48l-1.61,0.81l-14.16-23.7
	c-20.99,6.63-38.22,8.64-51.27,8.64c-2.84,0-5.47-0.09-7.91-0.25c-0.21-0.01-0.41-0.03-0.61-0.04c0.01-0.04,0.01-0.09,0.01-0.13
	l-15.98,17.59l-0.97-1.7l-0.47-18.42c-9.5-2.34-14.45-5.23-14.75-5.41l-0.48-0.29l-0.25-0.5c-0.03-0.07-1-2.03-2.55-5.26
	l-45.03,0.81l-0.46-0.69l34.08-25.41c-1.72-4.07-3.41-8.24-4.96-12.3l-0.12-0.31l-0.01-0.33c-0.44-18.96,31.83-41.07,40.57-46.68
	c3.81-16.45,4.37-41.65,2.77-59.36c-0.94-8.75-2.57-15.91-5.12-20.41c-4.08-3.48-8.7-3.75-17.65-2.31
	c-9.18,1.48-44.48,1.58-54.18-14.15c-10.75-17.43-0.3-27.13-3.68-32.03c-3.75,1.18-7.62,0.36-9.69-2.75
	c-5.74,10.64-24.32,17.3-9.92-12.09c11.79-24.06,27.14-34.06,37.02-37.76c7.2-20.06-8.64-14.39-8.62-35.23
	c0-0.46,0.01-0.88,0.04-1.25c-2.25-11.31,2.46-15.81,6.31-18.03c4.35-1.24,8.13-7.17,8.61-10.85c-8.19-7.72-11.79-20.08-11.79-24.12
	c0-4.44,8.96-12.96,20.29-16.07c10.91-2.99,28.84-12.15,35.06-16.4c3.47-3.15,5.67-7.7,4.27-15.53c0.31-0.99,1.41,0,1.41,0
	s0.67-3.63,0-5.04c0.41,0.43,0.84,1.04,1.27,1.79c5.97-12.85,25.79-37.58,38.39-46.44c6.96-4.89,23.19-13.93,43.57-17.74
	c1.17-28.61,5.72-54.37,13.37-77.3c4.74,10.67,5.33,53.92,5.33,53.92s39-78.87,52-76.21c-12.78,14.22-16.14,76.8-16.14,76.8
	S320.73,1.91,344.29,8.58c-16,9.78-67.1,56.44-59.11,74.22c54.22-2.67,103.99-44.44,136.88-24c-40.89,3.56-70.64,46.64-70.64,46.64
	s79.83,9.84,125.16-27.38c4.44,28.54-75.4,76.66-75.4,76.66s67.4,10.15,111.54,27.92c-21.48,13.44-103.55,21.24-103.55,21.24
	S452.57,260.81,501.46,269.12 M339.4,143.67c34.34-4.89,73.77-16,94.66-31.55C417.61,121.01,354.06,137.45,339.4,143.67
	 M282.07,112.12c14.44-1.78,87.77-44,94.43-45.77C357.4,70.79,298.73,99.68,282.07,112.12 M245.18,97.88
	c12.29-11.83,38.94-46.75,54.51-56.87C280.62,49.02,253.03,80.57,245.18,97.88 M214.37,94.05c6.07-9.04,17.15-48.34,22.06-67.25
	C226.67,41.02,215.56,83.83,214.37,94.05 M35.5,265.38c1.23,0.4,2.92,2.31,4.37,2.71c2.67,0.74,2.27-4.29,5.33-1.61
	c3.15,2.75,14.69,13.45,20.8,25.56c-4.71-13.53-14.57-31.31-17.35-35.64c-2.89-4.5-6.09-3.51-8.55-3.51
	C37.38,255.27,34.95,259.03,35.5,265.38 M45.09,278.22c0,0,4.26-0.44,5.04-0.74c0.78-0.3,1.12-2.2,0.59-2.96
	c-0.53-0.76-5.26-3.56-7.56-3.78c-1.55-0.15-5.63,0.56-6.04,1.22c-0.41,0.67,0.26,5.81,1.13,6.18c0.87,0.37,3.33,0.08,3.33,0.08
	H45.09z M59.31,315.11c2.51-3.68,4.52-7.55,5.31-11.6c-11.99,1.58-38.03,5.79-53.67,35.41c-16.03,30.35-2.19,23.73,4.7,9.4
	C21.66,335.82,49.03,315.74,59.31,315.11 M54.34,321.68c0.75-0.93,1.5-1.87,2.23-2.82c-6.93,1.77-18.45,9.36-27.59,17.74
	c-5.75,4.66-13.84,19.44-4.7,15.97C32.76,349.35,42.31,330.31,54.34,321.68 M72.95,557.85c-1.23-2.72-2.52-5.62-3.83-8.63
	l-26.61,17.79L72.95,557.85z M117.83,562.81l-16.94-2.62l-0.64,34L117.83,562.81z M187.03,592.01l-5.42-42.24l-13.02,8.42
	L187.03,592.01z M237.55,523.15L225.58,534l28.43,25.85L237.55,523.15z M273.2,493.54l-5.07,15.33l37.48,8.49L273.2,493.54z
	 M295.96,487.99L275.5,458.8c-0.01,0-1.27-3.94-9.06-1.47l0.09,0.46c2.45-0.75,6.21-1.3,8.09,1.53c2.12,3.18-6.44,12.14-11.51,17.97
	c-0.26,0.3-0.51,0.6-0.78,0.9c-0.04,0.05-0.08,0.1-0.12,0.14l0-0.01c-30.58,34.42-123.66,75.25-169.62,62.51
	c-49.18-13.63,7.59-46.81,7.59-46.81c0.27-0.66,0.54-1.36,0.79-2.09c-7.45,4.7-34.92,23.12-34.89,39.78
	c6.9,18.04,16.66,38.15,18.39,41.66c1.32,0.69,5.44,2.68,12.21,4.44l-0.56-21.65l24.98,4.35l5.08,10.63l-8.79,9.68
	c13,0.57,31.37-0.86,54.55-8.07l-9-15.05l20.68-12.68l10.07,6.75l-1.13,13.49c5.03-2.09,10.22-4.43,15.6-7.08
	c8.65-4.25,16.44-8.4,23.48-12.42l-12.99-10.63l19.87-16.75l12.06,3.34l1.93,11.07c9.82-6.69,17.46-12.87,23.38-18.38l-11.79-2.4
	l7.54-23.02l-0.19-0.14l12.46-2.71l8.01,9.76C294.48,491.92,295.55,489.21,295.96,487.99 M286.5,467.82l6.86,9.78l16.28-24.53
	L286.5,467.82z M261.67,406.12C261.67,406.11,261.67,406.11,261.67,406.12c-5.24,14.43-4.58,34.12-1.59,48.11l3.66-0.28
	c11.05-2.51,14.47,1.93,15.05,2.87l1.55,2.21l7.5-2.37C263.79,434.58,261.67,406.12,261.67,406.12 M277.18,396.99
	c-1.78,8-5.33,23.11,0,28C274.83,420.42,277.18,396.99,277.18,396.99 M310.96,371.16c-0.16,0.12-0.32,0.24-0.48,0.37
	c-4.07,12.25-3.52,33.28,0.48,40.13V371.16z M349.17,318.92c21.37-48,18.37-110.14-14.22-146.58
	C302.36,135.9,232.56,94.76,181,103.65c0-0.07,0.01-0.13,0.01-0.2c-19.2,3.54-33.55,11.65-40.34,16.43
	c-12.51,8.79-34.53,33.56-40.14,47c1.51,4.58,1.71,10.97-3.46,15.11c-0.24,0.38-1.35,1.24-1.35,1.24
	c-6.04,4.24-25.97,14.83-37.03,17.86c-11.33,3.11-18.59,10.02-18.59,14.47c0,4.44,3.39,16.83,13.39,24.16
	c0,3.55-5.01,9.26-9.68,10.59c-0.37,0.21-0.76,0.45-1.16,0.7c2.15,0.11,4.34,0.01,7.11,4.32c3.76,5.86,22.11,34.7,20.61,47.58
	l-0.13,0.08c-0.88,5.46-6.31,12.28-9.41,15.79c-0.31,0.6-1.4,2.3-1.4,2.3s-1.54,0.53-2.44,1.54c-8.74,8.08-24.6,29.11-30.05,33.51
	c4.97-0.12,9.13-5.89,14.04-6.92c0.74,0.26-0.22,1.03-0.7,1.54c-3.37,3.62-6.81,11.34-11.82,14.38c-2.15,5.08-4.38,11.4,1.93,21.63
	c6.23,10.1,22.83,13.39,36.36,14.07c32.64-5.03,88.49-35.79,101.56-47.5c13.78-12.35,24.77-60.93,37.72-65.08
	c0,0,8.06,3.41-2.16,8.48c-10.22,5.07-20.44,49.14-29.33,61.36c-8.17,11.23-47.46,30.52-66.54,40.82l35.56,136.25
	c17.05-4.11,35.02-10.96,51.83-19.2l16.93-162.68c-11.98-0.81-4.02-10.33,0.87-6.92c9.66,6.73,22.83-12.63,26.39-17.52
	c3.55-4.89,14.37-3.26,32.26-17.92c15.36-12.59,13.02-30.35,11.11-37.2c-0.49-1.34-1.06-2.56-1.7-3.67
	c-0.33,0.8-0.51,1.57-0.46,2.06c-0.63,2.26-3.74,2.63-6.3,0.7c-0.23-2.27,0.39-5.41,2.16-8.04c-5.95-4.49-14.76-4.87-25.58-3.04
	l0.58-2.4c10.81-2.85,20.55-1.44,27.1,3.09c2.56-2.14,5.87-2.85,9.37-1.96c4.54,1.15,7.56,5.14,7.35,9.72
	c-0.16,3.53-2.4,7.39-6.97,9.2c3.28,16.53-6.09,30.04-12.63,35.99c-7.33,6.67-19.85,13.78-25.63,16c-2.94,1.13-7.9,7.11-14.51,12.54
	l-32.44,168.05c24.25-12.8,45.25-28.17,56.29-41.76c-9.5-9.48-20.47-68.07,5.01-80.15C277.23,381.97,332.02,357.46,349.17,318.92
	 M285.72,270.95L285.72,270.95c0.31,0.6,0.64,1.37,1.01,2.35c0.09,0.24,0.17,0.48,0.26,0.73c1.4-1,2.14-2.51,2.18-3.43
	c0.02-0.46,0.68-3.41-2.58-3.78c-1.19-0.13-2.23,0.09-2.95,0.38C284.47,268.35,285.17,269.6,285.72,270.95 M366.95,383.21
	c-6.31-6.24-11.64-35.15-20.09-39.31C354.06,356.99,356.28,377.43,366.95,383.21 M366.95,176.3c19.26,12.26,69.62-5.15,99.55,0
	C431.91,164.85,403.09,179.97,366.95,176.3 M372.91,285.89c21.46,15.89,40.85,38.51,56.85,50.07
	C429.76,335.95,385.47,286.33,372.91,285.89 M456.72,257.85c-32.89-18.66-49.18-13.67-82.98-25.59
	C390.95,247.52,446.67,253.64,456.72,257.85 M239.26,293.74c-0.44-2.22-2.22-6.67-5.33-5.19c-3.11,1.48-0.89,3.41-3.85,7.26
	c-2.96,3.85-6.22,1.04-9.18,4.44c-2.96,3.41,1.02,4.93,3.41,4.96c5.55,0.06,6.67-5.85,8.44-8.07c1.78-2.22,4.41-5.55,4.56-1.15
	c0.11,3.3,3.59,4.35,4.8,2.84C244.73,295.55,239.7,295.96,239.26,293.74 M47.27,223.82c-5.04,0-3.11,2.81,0,5.48
	c3.63-2.74,13.49,9.56,14.44,10.45c1.42,1.34,2.75,1.51,2.75-0.97C64.46,234.63,52.31,223.82,47.27,223.82 M80.31,222.73
	c-1.78-4.93-21.63-10.33-21.63-10.33l16.96,10.33c2.67,12.89-0.89,60.32,9.33,80.18h2C76.75,283.05,82.98,235.62,80.31,222.73
	 M133.05,167.38c-15.11,0.59-16.89,18.22-16.89,18.22l3.55,2.22c0,0-1.63-7.04,11.93-7.04c11.41,0,17.36,18.17,20.17,24.19
	c1.08,2.31,2.14,1.85,2.42-1.1C155.27,193.21,148.16,166.78,133.05,167.38 M151.71,205.67c1.48,3.18-6.22,1.61-6.22,1.61
	s-16.15,7.94-33.18,7.8c-1-1.26-1.31-2.81-1.36-4.05c-4.35,0.84-6.47,2.38-8.19,4.05c2.32-4.17,6.48-5.75,8.19-6.25
	c-2.11-0.97-7.69-1.82-10.08-1.71c1.02-0.91,8.18-2.29,10.44-2l0.36-3.73c-8.44-1-16.43-5.58-18.17-10.45
	c3.82,3.8,10.49,5.78,15.26,6.31c-2-1.74-3.46-3.93-3.78-6.31c2.42,3.65,6.04,5.44,8.23,6.3c0,0,1.92-2.89,2.58-3.63
	C119.64,194.11,132.3,194.93,151.71,205.67 M116.16,202.63c0-0.65-0.5-1.18-1.11-1.18c-0.61,0-1.11,0.53-1.11,1.18
	c0,0.66,0.5,1.18,1.11,1.18C115.66,203.82,116.16,203.29,116.16,202.63 M134.14,204.47l-11.4-3.83c0.57,2.26,0.36,4.27-0.41,6.11
	L134.14,204.47z M158.52,162.56c-4.22-4.44-14.22-5.33-14.22-5.33l2-1.55c-10.44-4-32,5.78-32,5.78l-1.33-0.22
	c-3.33,3.33-6.73,8.78-3.56,13.11c1.22,1.67,8.22-1.67,8.22-1.67s12.44-11.31,23.26-10.18c16.42,1.7,27.11,34.81,30.74,35.4
	c-1.33-18.89-15.11-34.66-15.11-34.66L158.52,162.56z M228.19,334.99c0,4.08-3.74,7.39-8.35,7.39s-8.35-3.31-8.35-7.39
	c0-4.08,3.74-7.39,8.35-7.39S228.19,330.91,228.19,334.99 M222.84,334.99c0-1.66-1.34-3-3-3c-1.66,0-3,1.34-3,3c0,1.66,1.34,3,3,3
	C221.49,337.99,222.84,336.65,222.84,334.99"/>
</svg>
