<?xml version="1.0" encoding="utf-8"?>
<!-- Generator: Adobe Illustrator 15.0.0, SVG Export Plug-In  -->
<!DOCTYPE svg PUBLIC "-//W3C//DTD SVG 1.1 Tiny//EN" "http://www.w3.org/Graphics/SVG/1.1/DTD/svg11-tiny.dtd" [
	<!ENTITY ns_flows "http://ns.adobe.com/Flows/1.0/">
]>
<svg version="1.1" baseProfile="tiny"
	 xmlns="http://www.w3.org/2000/svg" xmlns:xlink="http://www.w3.org/1999/xlink" xmlns:a="http://ns.adobe.com/AdobeSVGViewerExtensions/3.0/"
	 x="0px" y="0px" width="600px" height="600px" overflow="visible" xml:space="preserve">
<defs>
</defs>
<g>
	<path fill="none" d="M230.63,188c-46.44-10.74-78.68,11.44-87,25.65c17.68-10.86,44.1-16.95,62.96-11.09
		c3.74,1.16,7.82,7.19-1.62,7.16c-15.17-0.04-38.13,0.81-49.74,15.71c41.59-14.21,68.18-6.79,84.08,0.97
		c19.24,9.39,40.72,29.17,53.69,42.7h11.78C282.62,246.93,277.08,198.75,230.63,188z"/>
	<path fill="none" d="M88.29,257.09c-30.42,9.47-36.77,32.64-38.93,38.82c-1.88,5.37,0.58,8.14,3.12,4.22
		c2.49-3.85,5.02-7.63,21.26-7.33c15.07,0.27,24.92,2.92,28.3-5.23c1.19-2.86,4.88-8.06,8.15,0c3.08,7.61,16.38,9.36,27.3,9.18
		c3.49-0.05,6.42,3.09,7.54,5.72c1.21,2.86,6.32,6.15,7.19-0.95c1.29-10.54-24.49-31.03-26.43-41.16
		c-9.27,7.17-17.53,20.11-23.51,23.4c-4.16,2.29-10.26,0.61-9.63-4.64c0.69-5.72,9.99-14.13,12.52-17.98
		C110.02,253.75,114.46,248.94,88.29,257.09z"/>
	<path fill="none" d="M405.9,307c1.62,1.16-1.62,18.26,15.02,28.65c16.64,10.4,32.58,27.03,32.35,5.31
		c-0.19-18.14-16.92-42.04-43.67-42.98C398.71,297.61,404.28,305.85,405.9,307z"/>
	<path fill="none" d="M450.89,358.96c-3.22-2.6-6.85-3.45-8.12-1.88c-1.27,1.56,0.3,4.95,3.52,7.56c3.21,2.6,6.85,3.45,8.12,1.88
		C455.67,364.96,454.1,361.57,450.89,358.96z"/>
	<path fill="none" d="M506.3,427.62c-6.21-2.59-17.45-5.49-25.76-17.62c-9.99-14.56-31.2-19.81-46.68-34.83
		c-14.4-13.97-19.2-31.01-26.11-27.04c-6.93,3.99-15.44,7.85-25.6,8.77c19.18,22.18,67.77,40.45,86.26,55.01
		c16.18,12.74,30.18,19.22,38.31,18.01C507.87,429.75,508.97,428.74,506.3,427.62z"/>
	<path d="M532.06,358.3c-5.56-35.83-26.92-80.53-43.56-108.26c-16.75-27.92-55.67-77.38-59.27-82.15
		C418,153.04,449.7,66,408.21,46.48c-5.89-2.77-8.43-0.11-8.43,3.7c0,3.81-4.66,79.35-38.46,76.6c-15.6-1.27-88.51-17.1-152.28,8.78
		c-52.48,21.3-95.17,74.95-118.42,110.68c-1.5,2.31-53.08,6.89-52.8,66.75c0.03,6.46,3.58,11.92,6.88,3.26
		c3.29-8.66,10.92-7.8,16.12-11.96c5.2-4.16,5.2-5.03,24.61-3.99c19.41,1.04,18.2-11.96,20.1-13.86c1.56,4.16,0.69,17.16,12.3,14.73
		c11.61-2.43,9.19,7.62,13,3.81c3.81-3.81,4.16,4.33,7.62,3.29c3.47-1.04,8.15,3.47,7.97,7.28c-0.17,3.81,3.29,8.66,6.24,3.93
		c23.33-37.5-26.34-49.33-22.88-68.39c-7.97,6-20.48,18.99-26.52,26.76c-3.44,4.43-6,1.24-4.22-1.11
		c28.08-36.93,64.35-53.88,97.34-53.73c41.31,0.19,75.63,36.5,92.16,49.58c4.89,3.87,20.32,0.86,39.27,2.41
		c35.08,2.86,37.13,37.28,61.69,51.2c12.82,7.27,12.06,16.87,6.01,19.41c-6.05,2.54-20.04,5.36-25.91,6.15
		c30.85,35.35,74.99,49.62,87.61,58.32c15.6,10.75,29.79,24.9,49.22,24.95c11.79,0.03,13.17-7.63,13.17-7.63
		c3.38-0.73,10.8-8.95,9.65-16.35C528.08,403.65,536.22,385.1,532.06,358.3z M105.16,261.14c-2.53,3.85-11.83,12.26-12.52,17.98
		c-0.63,5.25,5.47,6.94,9.63,4.64c5.98-3.29,14.24-16.23,23.51-23.4c1.94,10.13,27.71,30.61,26.43,41.16
		c-0.87,7.11-5.98,3.81-7.19,0.95c-1.12-2.63-4.05-5.77-7.54-5.72c-10.92,0.17-24.21-1.58-27.3-9.18c-3.27-8.06-6.96-2.86-8.15,0
		c-3.38,8.14-13.23,5.5-28.3,5.23c-16.23-0.29-18.77,3.49-21.26,7.33c-2.54,3.93-5,1.15-3.12-4.22c2.17-6.18,8.51-29.35,38.93-38.82
		C114.46,248.94,110.02,253.75,105.16,261.14z M293.02,269.11c-12.97-13.53-34.45-33.31-53.69-42.7
		c-15.9-7.77-42.49-15.18-84.08-0.97c11.61-14.9,34.57-15.76,49.74-15.71c9.43,0.03,5.36-6,1.62-7.16
		c-18.86-5.86-45.29,0.23-62.96,11.09c8.32-14.21,40.55-36.39,87-25.65c46.44,10.75,51.99,58.92,74.17,81.11H293.02z M409.59,297.99
		c26.75,0.94,43.48,24.84,43.67,42.98c0.23,21.72-15.71,5.08-32.35-5.31c-16.64-10.4-13.4-27.5-15.02-28.65
		S398.71,297.61,409.59,297.99z M454.4,366.52c-1.27,1.57-4.91,0.73-8.12-1.88c-3.21-2.61-4.79-6-3.52-7.56
		c1.27-1.57,4.91-0.73,8.12,1.88C454.1,361.57,455.67,364.96,454.4,366.52z M506.71,429.92c-8.12,1.21-22.13-5.27-38.31-18.01
		c-18.49-14.56-67.08-32.83-86.26-55.01c10.17-0.92,18.67-4.78,25.6-8.77c6.91-3.97,11.71,13.07,26.11,27.04
		c15.48,15.02,36.69,20.27,46.68,34.83c8.32,12.13,19.56,15.03,25.76,17.62C508.97,428.74,507.87,429.75,506.71,429.92z"/>
	<path d="M504.45,225.9c-6.85-6.21-10.51,15.02-18.37,14.33c11.78,15.94,25.42,43.9,29.81,55.92
		C525.94,275.7,522.29,242.08,504.45,225.9z"/>
	<path d="M390.76,342.59c7.63-1.73,3.69-9.59-6.24-14.56c-22.18-11.09-27.38-48.52-58.92-49.56c-31.54-1.04-67.96-0.46-79.39-0.46
		s3.49,39.97,52.36,59.38C347.44,356.8,383.14,344.32,390.76,342.59z"/>
</g>
</svg>
