<?xml version="1.0" encoding="utf-8"?>
<!-- Generator: Adobe Illustrator 15.0.0, SVG Export Plug-In  -->
<!DOCTYPE svg PUBLIC "-//W3C//DTD SVG 1.1 Tiny//EN" "http://www.w3.org/Graphics/SVG/1.1/DTD/svg11-tiny.dtd" [
	<!ENTITY ns_flows "http://ns.adobe.com/Flows/1.0/">
]>
<svg version="1.1" baseProfile="tiny"
	 xmlns="http://www.w3.org/2000/svg" xmlns:xlink="http://www.w3.org/1999/xlink" xmlns:a="http://ns.adobe.com/AdobeSVGViewerExtensions/3.0/"
	 x="0px" y="0px" width="550px" height="600px" overflow="visible" xml:space="preserve">
<defs>
</defs>
<path d="M131.93,114.86c-5.96,17.35-3.4,45.66,1.01,54.78c0,0-4.32,6.27-13.18,10.56c7.41-7.83,5.6-15.67,5.6-15.67
	s-3.5,2.38-13.01,3.78c11.05-9.65,10.4-22.34,10.4-22.34s-8.02,0.23-10.96,9.33c-1.54-6.3,0.56-17.49,11.61-22.94
	c-4.06-3.08-12.03,0.56-16.51,2.66c2.66-10.63,16.23-15.72,16.23-15.72c-1.86-1.49-12.59-1.91-20.33,0
	c5.97-8.96,24.25-12.13,23.32-13.25c-0.93-1.12-13.43-2.24-25.37-0.37c9.79-10.07,20.24-12.22,32.15-10.65
	c-1.49-6.53-14.62-8.38-18.35-8.57c19.59-8.95,35.44-1.3,35.44-1.3C143.45,88.51,136.03,102.92,131.93,114.86 M260.41,402.46
	c-4.75-41.38,98.49-55.96,90.47-130.21c-1.49-13.79-8.27-25.04-18.34-34.49c-13.37,3.53-38.64,14.72-53.17,26.4
	c8.04,7.06,12.94,15.12,12.94,24.89c0,32.97-72.2,54.47-67.72,107.45c1.73,20.39,9.89,33.45,21.05,42.72
	c6.46-1.65,23.18-11.52,26.07-15.42C265.65,418.04,261.42,411.27,260.41,402.46 M208.04,86.46c0,0-4.62-14.97-16.37-20.85
	c3.08,7,2.94,14.41,2.94,14.41s-11.19-11.89-21.41-16.51c6.44,7.84,7.84,19.06,7.84,19.06S198.95,83.1,208.04,86.46 M179.45,492
	c47.38-68.27-5.11-120.37-5.11-120.37s12.85,38.02,5.49,55.09c-6.06-43.09-36.84-63.52-36.84-63.52s17.07,51.21,0.65,69.11
	c4.48-45.51-35.44-82.07-35.44-82.07s0,10.07,6.34,21.27c-19.03-13.43-45.89-51.49-45.89-51.49s3.54,16.6,8.95,27.23
	c-32.09-29.85-52.23-79.47-52.23-79.47s-8.21,14.18-19.4,14.92c22.59-19.5-12.13-80.68,6.72-118.27l-11.19,1.12
	c12.33-6.81,14.36-24.06,19.96-32.37c0,0-8.3,3.92-16.42,1.96c8.39-3.64,23.22-22.95,23.22-22.95s-8.67,3.64-18.47,1.4
	c9.51-1.68,26.86-18.47,26.86-18.47S8.95,105.49,0,97.93c43.37-3.64,47.57-72.19,95.13-72.19c0,0-2.1-11.33,4.34-16.51
	c-0.42,4.34,8.25,15.81,8.25,15.81S115.14,1.54,130.81,0c-6.43,6.3-13.43,26.86-9.93,32.04c10.07-1.4,14.55-8.25,14.55-8.25
	s0.37,23.5-13.25,30.59c4.33,1.27,10.32,0.75,10.32,0.75c-3.3,4.62-41.99,16.77-33.64,23.69c1.75,1.44,8.3-1.03,8.3-1.03
	s-28.82,41.13,2.24,89.82c-13.71-6.34-29.19-33.76-29.19-33.76s15.48,57.83,67.34,67.71c13.62,17.35,47.94,32.09,70.14,36.56
	c-56.47,14.18-82.83-29.1-99.05-27.42c-17.21,1.78-21.11,22.05,59.88,100.73C224.22,355.83,240.27,442.38,179.45,492 M207.89,412.33
	c4.77-12.48-7.76-62.29-40-90.83c-81.99-72.57-74.03-94.98-69.4-108.35c2.35-6.79,8.05-11.45,15.86-13.1
	c-43.84-22.37-50.28-88-50.84-90.09l21.83,17.91c-2.04-18.37,0.85-31.12,5.04-41.69c-4.06-2.24-6.87-7.28-6.58-11.48
	c0.56-8.26,7.13-13.43,16.09-15.21l-13.15-2l31.15-16.56c0,0-19.25-7.19-41.65,6.34C53.85,60.83,59.32,77.65,32.32,88.7l30.52-3.13
	l-21,24.54c6.42-4.8,12.29-7.31,18.05-9.37c0,0-27.28,30.65-34.57,51.19l26.03-22.23c0,0-38.19,53.86-26.97,117.47l14.52-36.75
	c0,0-4.94,55.5,21.63,97.36c-2.84-13.34-2.36-25.07,1.31-35.24c3.63,5.14,24.42,52.49,32.65,62.27
	c-3.97-15.59-4.02-31.96-1.87-42.96c0,0,17.77,47.29,36.45,64.98c-6.1-13.24-7.88-28.23-7.07-44.28c0,0,25.93,41.6,45.05,59.6
	c-6.63-12.49-7.18-25.25-4.01-38.7c0.33,0.33,38.01,49.38,44.84,79.15C207.88,412.5,207.86,412.41,207.89,412.33 M262.22,163.09
	c0,0-2.69,3.91-7.03,4.33c4.57,1.21,9.3-2.02,9.3-2.02L262.22,163.09z M237,154.27c-2.9,1.43-0.98,7.06,5.6,6.16
	c6.81-0.93,9.42,1.12,10.35,3.82C254.44,160.05,242.32,151.66,237,154.27 M269.97,204.34c-14.67,3.6-38.84,14.05-52.7,28.3
	c-32.16-13.07-64.92-27.12-76.24-50.77c-12.59-26.3-12.98-68.83,10.82-93.08c8.72,0.04,1.87,15.2,5.04,25.27
	c3.17,10.08,13.43,7.28,13.43,7.28l-0.37-2.8c-21.45,1.86-0.93-28.36-13.62-35.97c-18.24-10.95-11-22.23-11.19-24.28
	c-0.19-2.05-4.66-3.54-5.78-7.46c30.08,7.09,39.25,40.78,49.1,45.98c2.47,1.31,3.68-0.84,1.35-2.52c-2.33-1.68-7-8.01-5.32-8.02
	c33.58-0.18,41.04,10.45,43.84,16.04c-2.61,4.85-1.68,9.33,0,10.82c1.68,1.49,18.47,11.19,18.47,11.19h12.31
	c0,0,5.6,6.71,2.61,11.38c-2.99,4.66,12.13,6.62,6.34,21.17c1.68,5.6,1.68,8.86-1.31,8.86c-2.99,0-12.68-16.97-27.98-13.06
	c-15.3,3.92,8.02,14.74,16.6,16.41c8.58,1.68,4.85,4.67,1.68,5.23c-3.17,0.56-2.42,6.16-12.12,4.1c-9.7-2.05-13.8-18.47-26.3-22.01
	c-12.5-3.54-38.8,1.12-28.21-19.24c1.49-2.86-4.64-9.64-6.09-8.53c-1.21,0.93,2.31,9.58,2.31,9.58c-4.2,0-15.16,3.71-11.66,18.38
	C180.07,177.97,226.19,188.49,269.97,204.34 M200.8,115.27c4.29-0.06,5.99,3.13,9.68,3.78c3.23,0.57,4.77-2.27,2.5-4.65
	c-3.1-3.25-9.87-0.48-12.18-0.21C199.67,114.33,198.62,115.3,200.8,115.27 M418.38,114.53c5.96,17.35,0.89,42.15-1.77,55.12
	c0,0,4.33,6.27,13.18,10.56c-7.42-7.83-5.6-15.67-5.6-15.67s3.5,2.38,13.01,3.78c-11.05-9.65-10.4-22.34-10.4-22.34
	s8.02,0.23,10.96,9.33c1.54-6.3-0.56-17.49-11.61-22.94c4.06-3.08,12.03,0.56,16.51,2.66c-2.66-10.63-16.23-15.72-16.23-15.72
	c1.86-1.49,12.59-1.91,20.33,0c-5.97-8.96-24.25-12.13-23.32-13.25c0.93-1.12,13.43-2.24,25.37-0.37
	c-9.8-10.07-20.24-12.22-32.15-10.65c1.49-6.53,14.62-8.38,18.35-8.57c-19.58-8.95-35.44,0.37-35.44,0.37
	C406.1,90.19,414.27,102.59,418.38,114.53 M372.14,539.62c0,0-6.58,17.23-38.77,28.58c3.25,3.36,9.11,2.88,9.11,2.88
	s-39.97,19.78-66.48,21.74c27.92-11.97,52.42-58.63,36.65-86.08c9.52,3.51,13.65,12.42,13.65,12.42s3.1-14.55-7.31-26.41
	c6.54,1.73,11.38,4.29,14.92,8.94c-3.51-27.26-28.87-34.67-54.32-44.49c9.42-3.71,17.49-8.15,24.09-13.38
	c23.53,12.48,47.96,26.79,48.6,61.26c11-5.26,20.96-22.25,22.4-29.89c5.69,20.06-9.42,39.69-11.07,47.67
	c9.66-2.12,19.55-12.66,19.55-12.66s-4.29,19.86-26.24,32.24C359.04,544.66,372.14,539.62,372.14,539.62 M357.97,548.71
	c-9.58,1.12-19.12,0.37-19.12,0.37s17.8-11.55,23.97-18.37l-17.25,4.85c0,0,17.28-25.74,18.47-30.5
	c-8.26,8.85-25.32,27.42-25.32,27.42s-5.87-10.25-7.19-12.44c0.13,2.28-3.38,26.57-3.38,26.57l-4.55-12.87
	c-2.79,31.99-17.44,41.36-24.97,49.95c0,0,24.76-8.45,31.62-11.61l-11.36-1.63C318.89,570.45,352.56,552.87,357.97,548.71
	 M273.56,597.3c-29.17-2.07-59.26-15.95-68.32-22.64c0,0,8.63-0.11,10.94-1.98c-32.18-11.35-39.33-28.36-39.33-28.36
	s13.06,5.22,15.79,2.58c-21.95-12.37-26.24-32.23-26.24-32.23s9.88,10.55,19.55,12.66c-1.66-7.98-16.76-27.61-11.07-47.67
	c9.99,30.43,32.68,43.01,32.68,43.01s10-21.67,25.25-27.5c-10.41,11.86-9.55,28.46-9.55,28.46s5.21-7.23,14.73-10.74
	C222.21,540.35,245.63,585.33,273.56,597.3 M247.43,585.71c-7.53-8.58-18.4-22.73-21.2-54.72l-6.25,15.62c0,0-3.51-24.29-3.38-26.57
	c-1.32,2.19-6.83,16.26-6.83,16.26s-13.29-12.19-21.55-21.04c0.04,0.09,0.07,0.18,0.12,0.26c2.96,4.92,8.97,20.5,8.97,20.5
	l-10.77-1.69c6.17,6.82,22.21,16.15,22.21,16.15s-5.69,3.17-14.62,3.21c5.41,4.16,39.8,23,39.8,23l-14.55-0.98
	C226.23,578.88,237.85,583,247.43,585.71 M309.7,352.81c-11.84,8.57-22.79,17.1-30.68,25.43c7,7.4,11.16,15.16,10.12,24.22
	c-5.07,44.16-90.16,37.78-91.83,102.09c0,0,4.38,9.26,7.98,13.38c2.05-8.58,10.71-18.48,10.71-18.48
	c9.36-52.01,102.63-28.03,108.96-102.96C326.43,379.02,319.56,364.98,309.7,352.81 M368.51,82.58c0,0,1.4-11.22,7.83-19.06
	c-10.21,4.62-21.41,16.51-21.41,16.51s-0.14-7.42,2.94-14.41c-11.75,5.88-16.37,20.85-16.37,20.85
	C350.6,83.1,368.51,82.58,368.51,82.58 M285.06,165.4c0,0,4.74,3.23,9.3,2.02c-4.34-0.41-7.03-4.33-7.03-4.33L285.06,165.4z
	 M296.6,164.25c0.93-2.71,3.54-4.76,10.35-3.82c6.57,0.9,8.5-4.73,5.6-6.16C307.23,151.66,295.11,160.05,296.6,164.25
	 M408.52,181.88c-24.68,51.56-151.29,57.48-151.29,107.17c0,9.13,5.55,17.39,13.47,25.67c-11.51,8.88-22.89,18.25-33.37,30.88
	c-22.23-17.38-42.38-38.96-38.66-73.34c7.96-73.63,166.21-74.99,175.91-115.65c3.5-14.66-7.46-18.38-11.66-18.38
	c0,0,3.52-8.66,2.31-9.58c-1.45-1.11-7.57,5.68-6.09,8.53c10.59,20.36-15.71,15.69-28.21,19.24c-12.5,3.54-16.6,19.96-26.3,22.01
	c-9.7,2.05-8.95-3.54-12.12-4.1c-3.17-0.56-6.9-3.55,1.68-5.23c8.58-1.68,31.9-12.5,16.6-16.41c-15.3-3.92-24.99,13.06-27.98,13.06
	c-2.99,0-2.99-3.26-1.31-8.86c-5.78-14.55,9.33-16.51,6.34-21.17c-2.99-4.67,2.61-11.38,2.61-11.38h12.31c0,0,16.79-9.7,18.47-11.19
	c1.68-1.49,2.61-5.97,0-10.82c2.8-5.6,10.25-16.22,43.83-16.04c1.68,0.01-2.99,6.34-5.32,8.02c-2.33,1.68-1.12,3.82,1.35,2.52
	c9.85-5.2,19.03-38.9,49.11-45.98c-1.12,3.92-5.59,5.41-5.78,7.46c-0.19,2.05,7.05,13.33-11.19,24.28
	c-12.69,7.61,7.83,37.83-13.62,35.97l-0.37,2.8c0,0,10.26,2.8,13.43-7.28c3.17-10.07-3.69-25.24,5.04-25.27
	C421.5,113.05,421.12,155.58,408.52,181.88 M348.75,114.19c-2.31-0.28-9.09-3.04-12.18,0.21c-2.27,2.38-0.73,5.22,2.5,4.65
	c3.69-0.66,5.39-3.84,9.68-3.78C350.93,115.3,349.87,114.33,348.75,114.19 M548.06,165.56l-11.19-1.12
	c18.84,37.59-15.88,98.77,6.71,118.27c-11.19-0.75-19.4-14.92-19.4-14.92s-20.14,49.62-52.23,79.47
	c5.41-10.63,8.95-27.23,8.95-27.23s-26.86,38.05-45.89,51.49c6.34-11.19,6.34-21.27,6.34-21.27s-39.92,36.56-35.44,82.07
	c-16.42-17.9,0.65-69.11,0.65-69.11s-30.78,20.43-36.84,63.52c-7.37-17.07,5.49-55.09,5.49-55.09s-52.5,52.1-5.11,120.37
	c-60.81-49.62-44.77-136.17,0.93-180.57c81-78.68,77.09-98.95,59.88-100.73c-16.23-1.68-42.59,41.6-99.05,27.42
	c22.2-4.48,56.52-19.21,70.14-36.56c51.86-9.89,67.34-67.71,67.34-67.71s-15.49,27.42-29.19,33.76
	c31.06-48.69,2.24-89.82,2.24-89.82s6.56,2.47,8.3,1.03c8.36-6.93-30.33-19.07-33.64-23.69c0,0,5.99,0.52,10.32-0.75
	c-13.62-7.09-13.24-30.59-13.24-30.59s4.48,6.86,14.55,8.25c3.5-5.18-3.5-25.74-9.93-32.04c15.67,1.54,23.08,25.04,23.08,25.04
	s8.67-11.47,8.25-15.81c6.43,5.18,4.34,16.51,4.34,16.51c47.57,0,51.77,68.55,95.14,72.19c-8.95,7.55-36.65-2.8-36.65-2.8
	s17.35,16.79,26.86,18.47c-9.79,2.24-18.47-1.4-18.47-1.4s14.83,19.31,23.22,22.95c-8.11,1.96-16.41-1.96-16.41-1.96
	C533.7,141.49,535.73,158.74,548.06,165.56 M500.37,129.69l26.03,22.23c-7.29-20.54-34.57-51.19-34.57-51.19
	c5.76,2.06,11.63,4.58,18.05,9.37l-21-24.54l30.52,3.13c-27-11.05-21.54-27.87-43.93-41.41c-22.39-13.54-41.64-6.34-41.64-6.34
	l31.15,16.56l-13.15,2c8.95,1.78,15.53,6.96,16.09,15.21c0.28,4.19-2.52,9.23-6.58,11.48c4.2,10.57,7.08,23.32,5.04,41.69
	l21.83-17.91c-0.56,2.09-7,67.72-50.84,90.09c7.81,1.65,13.51,6.32,15.86,13.1c4.64,13.37,12.59,35.78-69.39,108.35
	c-32.24,28.53-44.77,78.35-40,90.83c0.03,0.08,0.01,0.18,0.01,0.26c6.83-29.76,44.51-78.82,44.84-79.15
	c3.17,13.46,2.62,26.21-4.01,38.7c19.12-18,45.05-59.6,45.05-59.6c0.81,16.05-0.97,31.04-7.07,44.28
	c18.68-17.69,36.45-64.98,36.45-64.98c2.14,11,2.09,27.37-1.87,42.96c8.23-9.78,29.02-57.14,32.65-62.27
	c3.67,10.17,4.16,21.9,1.31,35.24c26.58-41.86,21.63-97.36,21.63-97.36l14.52,36.75C538.56,183.56,500.37,129.69,500.37,129.69"/>
</svg>
