<?xml version="1.0" encoding="utf-8"?>
<!-- Generator: Adobe Illustrator 14.0.0, SVG Export Plug-In  -->
<!DOCTYPE svg PUBLIC "-//W3C//DTD SVG 1.1 Tiny//EN" "http://www.w3.org/Graphics/SVG/1.1/DTD/svg11-tiny.dtd" [
	<!ENTITY ns_flows "http://ns.adobe.com/Flows/1.0/">
]>
<svg version="1.1" baseProfile="tiny"
	 xmlns="http://www.w3.org/2000/svg" xmlns:xlink="http://www.w3.org/1999/xlink" xmlns:a="http://ns.adobe.com/AdobeSVGViewerExtensions/3.0/"
	 x="0px" y="0px" width="73px" height="139px" viewBox="0 -0.19 73 139" xml:space="preserve">
<defs>
</defs>
<path d="M21.64,0c0.26,0.38,0.41,0.38,0.9,0.56c0.04,0.11-0.23,0.26,0,0.34c0.19-0.26,0.38-0.41,0.26-0.72
	c0.45,0.6,1.43,0.23,1.2,1.36l0.34,0.26c0.23-0.19,0-0.26,0.11-0.53c-0.19-0.26-0.34,0.15-0.3-0.26c0.38-0.15,0.34,0.6,0.64,0.07
	l-0.19-0.26c0.08,0.08,0.26,0.22,0.45,0.19l0.11-0.11c0,0.15-0.23,0.3,0,0.45l0.34-0.34c0.11,0.11,0.26,0.19,0.19,0.34
	c-0.07-0.04-0.15-0.19-0.26-0.15c0.34,0.3-0.49,0.41-0.64,0.79c0.26,0.15,0.53-0.15,0.71-0.34l0.3,0.27l0.15-0.38l0.3,0.19
	L26.15,1.8c0,0.26,0.04-0.07-0.08-0.07l-0.19,0.19l0.26,0.26c-0.11,0.04-0.08,0.15-0.08,0.26c0.38,0.19,0.56-0.26,0.79-0.45
	c-0.04,0.15,0.15,0.19,0.19,0.26c0.15,0.04-0.3-0.04-0.34,0.19c0.04,0.08,0.08,0.11,0.15,0.11v0.15c-0.19,0.07-0.53-0.3-0.79-0.07
	c0.19,0.15-0.41,0.68,0.19,0.64c0.23-0.11-0.3-0.68,0.26-0.45l0.19,0.45c0.11-0.08,0.08-0.19,0.08-0.26c0.41,0,0.19,0.75,0.53,0.6
	c1.01,0.04,0.38,1.17,1.35,0.9c0.08-0.41-0.19,0-0.34-0.26c-0.11-0.34,0.38-1.02-0.37-1.09l0.19-0.26
	c-0.23,0.38,0.38,0.38,0.38,0.38l-0.11,0.07c0.26,0.3,0.6,0.3,0.9,0.11l-0.07,0.26c-0.19-0.19-0.53,0-0.71-0.19
	c-0.07,0.22-0.22,0.38,0.08,0.53c0.23-0.64,0.26,0.22,0.64-0.15l-0.19,0.15l0.19,0.19c-0.15,0.04-0.19-0.11-0.26-0.19
	c-0.56,0.41,0.26,0.41,0.15,0.83l0.64-0.71c-0.04,0.11,0.49,0.41-0.08,0.64c0.04,0.11,0.15,0.07,0.26,0.07l0.08,0.53l0.19-0.15
	l0.19,0.53l0.53-0.26c0.15,0.15-0.3,0.56,0.19,0.64l0.11-0.3l0.45,0.19l0.15-0.53l0.3,0.26c0.11-0.07,0.08-0.19,0.08-0.26
	c0.11,0.07,0.19,0.26,0.38,0.26l-0.45,0.26l0.79,0.72c0.15-0.19,0.15-0.42,0.26-0.6c0-0.12,0.41,0.15,0.64,0.34l-0.07,0.12
	l-0.26-0.3c-0.23,0.04-0.3,0.26-0.3,0.45h0.38c-0.15,0.07-0.08,0.26-0.08,0.38h0.34V6.88C33.89,6.92,33.93,7,34,6.96
	c-0.08-0.15,0.6,0.11,0.53-0.34l0.11,0.07c0.11-0.07,0.07-0.19,0.07-0.26h0.11l-0.3,0.71h0.3c-0.15,0.19-0.45,0.26-0.38,0.53
	c0.19-0.11,0.45,0.19,0.64-0.15l-0.19-0.19c0.04,0,0.23,0.34,0.38,0.07c-0.19-0.49-0.26-0.26-0.3-0.9c0.15,0.3,0.11,0.49,0.45,0.56
	l0.19-0.19l-0.08,0.26l0.53-0.26C36.03,6.92,35.96,6.96,36,7.07c0.3,0.08,0.41-0.56,0.64,0.08h-0.83c0,0.53,0.38,0.08,0.53,0.53
	c0.71-0.87,0.56,0.49,1.2-0.34c-0.56,0.3,0.22,0.49,0.15,0.79c0.11-0.11,0.26-0.11,0.38-0.26L37.69,7.6
	c0.08-0.19,0.38,0.15,0.38-0.19l0.08-0.07c-0.15,0.26,0.04,0.45,0.11,0.71c0.41-0.3,0.49-0.04,0.9-0.38l-0.19-0.15
	c0.11-0.04,0.22,0,0.26-0.11V7.22c-0.08,0.04-0.49,0.3-0.71,0.19l0.07-0.19l0.19,0.19l0.38-0.45v0.19h0.26
	c-0.04,0.04-0.11,0.11-0.08,0.19c0.34,0.07,0.56,0.11,0.9-0.11c-0.08,0.19,0.08,0.26,0.15,0.38c-0.08-0.34-0.38,0.26-0.26-0.19
	c-0.11,0.04-0.6-0.11-0.64,0.26l-0.26-0.26C39,8.09,39,7.83,39.23,8.5c0.08-0.26,0.19-0.53,0.45-0.71c0,0.07,0.04,0.19-0.08,0.26
	c0.19,0.04,0.34,0.34,0.53,0.08l0.11-0.08l-0.19-0.19l0.9-0.19c-0.22,0-0.19-0.34-0.11-0.15l0.64,0.07v0.45
	c0.22,0.08,0.15-0.38,0.38-0.07c0.08-0.19,0.38-0.22,0.26-0.45C41.63,7,41.07,7.79,40.77,7.15h0.83v0.08c0.08,0.19,0.23,0,0.34-0.08
	l-0.08-0.26l0.19,0.19l-0.19,0.15l0.19,0.19l0.15-0.19c-0.04,0.15,0.11,0.19,0.19,0.3c0.15-0.04,0.26-0.08,0.38-0.19l-0.19-0.38
	l0.26,0.27c-0.08,0.11-0.23,0.15-0.19,0.3c0.11,0.04,0.15,0.19,0.3,0.15l0.08-0.26l0.45,0.26c-0.07,0.04-0.15-0.04-0.19-0.08
	l-0.08,0.08l0.34,0.38c0.26-0.19,0-0.6,0.19-0.71h-0.08c0.53,0.15-0.15-0.41,0.26-0.45c0.04,0.07-0.04,0.11-0.07,0.19l0.26,0.27
	c0.08-0.11,0.23-0.19,0.19-0.38l-0.11-0.07l0.11-0.11l0.07,0.38c0.19,0,0.6,0,0.45-0.45l0.08,0.71h0.19
	c-0.08-0.04-0.11,0.04-0.19,0.11V7.6c0.6,0.3,0.45-0.56,0.75-0.83c0,0.15-0.22,0.26,0,0.38c0.08,0,0.19,0.04,0.26-0.08v-0.3
	c0.3-0.15,0.53,0.38,0.71-0.08c-0.11-0.15-0.49-0.04-0.38-0.38h0.38c-0.07,0-0.15,0.04-0.19,0.11c0.34,0.38,0.71-0.34,1.17-0.19
	l-0.34,0.08l0.26,0.3L47.46,6.7l0.26,0.19l0.45-0.64l0.26,0.26c0.04-0.19,0.34-0.34,0.07-0.53h-0.26l0.38-0.19
	c0,0.53,1.2,0.53,1.62,0.38l0.19-0.19l-0.38-0.11c0.15-0.38,0.04-0.38,0.71-0.34L50.5,6.17c0.22-0.34,0.86,0,0.9-0.38l0.19,0.19
	V5.61l0.07,0.12l0.19-0.19c-0.11-0.38-0.68-0.22-0.53-0.64c0.08,0.26,0.26,0.3,0.45,0.45l0.07-0.38l0.11,0.38
	c0.64,0.04-0.04-0.53,0.45-0.64c0.04,0-0.3,0.45,0.07,0.56l0.19-0.19l-0.19,0.45c0.45-0.19,0.68,0.45,1.09,0.34
	c0.15-0.08-0.04-0.23-0.11-0.34c-0.34,0.15-0.08-0.3-0.26-0.38l0.26,0.26l0.11-0.08v0.26c0.08,0,0.19,0.04,0.26-0.07l-0.38,0.64
	c0.86,0.07,0.41-0.6,1.2-1.02v0.45c0.11-0.19,0.41,0,0.53-0.26l0.19,0.38c-0.19,0-0.3,0.22-0.45,0.34c0.19,0.26,0.41-0.04,0.64-0.07
	h-0.11V5.79h0.11v0.38l-0.11-0.12L55.2,6.32c0.34,0.15,0.45-0.19,0.9-0.08c-0.04,0.08,0.04,0.11,0.08,0.19
	c0.07-0.6,0.49-0.26,0.9-0.38l-0.79,0.38c-0.23,0.19,0.56,0.3,0.19,0.64L56.36,6.7L56.1,7.15c0.15,0.15,0.41,0.08,0.64,0.08
	l0.34-0.34l-0.26-0.38l0.56,0.64c-0.07-0.19-0.53,0-0.75,0.19l0.9,0.53l0.19-0.26c0.04,0.08-0.04,0.11-0.08,0.19l0.19,0.19
	l0.08-0.11c-0.71-0.11-0.23,0.56-0.38,0.83c0.19-0.23,0.26,0.07,0.45,0.07l-0.15,0.19l0.45,0.45h-0.11
	c0.34,0.23-0.34,0.94,0.26,0.98l-0.26,0.3c0.3,0.15-0.41,0.34,0.11,0.53h-0.56v0.08c0.23,0.19-0.19-0.15-0.26,0.11
	c0.56,0,0.34,1.09,0.9,0.79c-0.08,0.11-0.23,0.15-0.19,0.3c-0.45,0.04,0.11,0.49,0,0.53v-0.08h-0.34l0.15,0.34
	c-0.3-0.3-0.41,0.19-0.45,0.45c-0.04,0.19,0.11,0.26,0.19,0.38l-0.19,0.19l0.19,0.15c0.11-0.11,0.23-0.19,0.19-0.34
	c-0.11,0.22,0.19,0.22,0.26,0.34c0.11,0,0.23,0.04,0.26-0.08l-0.26,0.38l-0.26-0.38c0,0.19-0.23,0.45,0.07,0.64
	c0.19,0,0.34-0.04,0.45-0.19c0-0.11,0.79,0.9,0.64,0.19l0.11,0.08c0.3-0.23-0.23-0.3-0.19-0.53c-0.15-0.04-0.19,0.11-0.26,0.19
	l-0.11-0.3c0.26-0.04,0.49,0.45,0.83,0.56c-0.04,0.26-0.75,0.11-0.45,0.53c0.22,0.04-1.02-0.19-0.38-0.53l-0.19-0.19
	c-0.15,0.22-0.45,0.6,0,0.83c-0.04-0.08-0.08-0.15-0.15-0.11c-0.3,0.3,0.22,0.23,0.15,0.56l0.3-0.3c0,0.3,0,0.6,0,0.9
	c0.34-0.15,0.04-0.56,0.45-0.71c-0.08-0.11-0.19-0.07-0.3-0.07l0.3-0.19l0.08,0.53c0.37-0.04,0.26-0.45,0.26-0.45v0.11
	c0.53-0.49,0.49,0.53,1.01,0.45c0.04,0.42-0.22,0-0.38,0.26l0.08,0.08c-0.19,0.23-0.23-0.38-0.6-0.15c-0.07,0.26,0.23,0.34,0.45,0.6
	c0.41-0.19,0.9-0.53,0.6-1.05c0.11,0.38,1.2,0.04,0.45,0.71c-0.11,0.04-0.15-0.11-0.26-0.19l-0.9,0.9c0.3-0.04,1.09-0.6,1.46-0.26
	l-0.11,0.08c0.3,0.56,0.34-0.08,0.71,0l-0.08-0.08l1.35,1.09c-0.04,0.04-0.11,0.07-0.08,0.15c0.04,0.07,0.08,0.11,0.15,0.11
	c0.41-0.19,0.04-0.56-0.08-0.64c0.04,0.04,0.08,0.11,0.19,0.08l0.08-0.34c0.15,0.11,0.34,0.08,0.45-0.11
	c0.11,0.07,0.08,0.19,0.11,0.3l-0.11-0.11c-0.3,0-0.15,0.38-0.45,0.38c0.3,0.26,0.34,0.19,0.38,0.53c-0.04-0.15,0.75,0.08,0.45-0.34
	c-0.08-0.15-0.34-0.07-0.26-0.3h0.15c-0.04,0.3,0.3,0.38,0.45,0.45c-0.11,0.07-0.08,0.19-0.08,0.3l0.19,0.15
	c-0.11-0.04-0.23,0.07-0.19,0.19c-0.04,0.19,0,0.34,0.19,0.46c0.3,0.07,0.49-0.08,0.53-0.34l-0.45-0.64
	c0.15,0.04,0.19-0.11,0.26-0.19c-0.45,0.38,0.53,0.64,0.19,1.17l0.26,0.19c0.04,0.26-0.71-0.56-0.9,0.19l0.19,0.19
	c-0.11,0-0.22-0.04-0.26,0.07l0.26,0.26c0-0.38,0.38-0.04,0.45-0.19c0,0.41,0.45-0.04,0.45,0.19l-0.45,0.64l0.38,0.19
	c0.22,0.12-0.41-0.3-0.56,0.08l-0.08,0.12l0.26,0.15c-0.53,0.15-0.41,0.68-0.45,1.02l0.26,0.19c0.22-0.23-0.08-0.41,0.3-0.19
	c-0.04-0.34,0.26-0.22,0.07-0.56l-0.38-0.07c0.19,0.04,0.49-0.04,0.38-0.26v-0.26c0.08,0.41,0.68-0.23,0.64,0.07l-0.11-0.07
	c-0.04,0.15,0.11,0.68-0.34,0.6c0.34,0.26-0.19,0.34,0,0.83l-0.19-0.26l-0.38,0.19c0.56,0.45,0.34,0.38,0.3,0.79
	c-0.08-0.15-0.26-0.07-0.38-0.07c0.34,0.3-0.26,0.56-0.19,1.09l-0.64,0.26l0.19-0.19c-0.22-0.11-0.3-0.11-0.53,0
	c0.3,0.26,0,0.49,0.34,0.64l0.19-0.19l-0.08,0.45c0-0.11,0-0.23-0.11-0.26h-0.07v0.45l-0.08-0.11l-0.19,0.19
	c0.04,0.11,0.15,0.08,0.26,0.11c-0.23,0.04-0.49-0.3-0.64,0.07c0.04-0.22,0.15-0.49-0.19-0.53c-0.11,0.04-0.08,0.15-0.08,0.26
	c-0.26-0.22-0.45,0.04-0.64-0.26l-0.19,0.15l0.11,0.11c0.08,0.11-0.11,0.08-0.11-0.11l-0.45,0.64c-0.04-0.04-0.08-0.11-0.15-0.07
	l-0.11,0.07c0.23,0.3,0.49,0.15,0.64,0.45l-0.07,0.11c-0.11-0.15-0.08-0.41-0.3-0.38c-0.11,0.04-0.08,0.15-0.08,0.26l0.19,0.19
	c-0.08-0.42-0.56-0.38-0.71-0.19c-0.04-0.11,0.04-0.3-0.11-0.34l-0.19,0.53l-0.08-0.08c-0.04,0.04-0.11,0.08-0.08,0.15
	c0.19,0.15,0.15,0.11,0,0.3c0.3-0.34-0.19-0.15-0.19-0.3l0.26-0.45c-0.11-0.15-0.26,0.07-0.38-0.15c-0.04,0.15-0.22,0.22-0.15,0.45
	c-0.11,0-0.15-0.08-0.19-0.11c-0.15,0.34-0.23,0.34-0.45,0.19c0-0.08-0.04-0.15-0.11-0.19h-0.15l0.08,0.57
	c-0.3,0.22-0.38-0.3-0.64,0v0.15l-0.34-0.26l-0.11,0.38c-0.34,0.23-0.79-1.09-0.79-0.11c-0.3-0.42-0.75,0.07-1.01-0.08
	c0.22,0.22-0.04,0.56-0.26,0.64c0.19,0.15,0.41,0.04,0.45,0.34v-0.07c-0.19-0.23-0.45,0-0.64,0.07c0-0.15,0.11-0.56,0.45-0.71
	c-0.23-0.6-0.9-0.34-1.24-0.26c0.15,0.38,0.53,0.68,0.53,1.09h-0.26c0.11,0.04,0.19-0.11,0.26-0.19l-0.19-0.27
	c-0.3,0.6-1.24-0.53-1.24,0.64l-0.11-0.56c-0.38,0.11-0.6,0.34-0.71,0.64c0.04,0.11,0.15,0.08,0.26,0.08l-0.26,0.45
	c0.45-0.3,0.45,0.71,0.9,0.11l-0.37-0.56l0.45,0.19l-0.15,0.19c0.08,0.15,0.26,0.08,0.45,0.08l-0.11-0.26l0.26,0.19l-0.45,0.27
	c0.3,0.26-0.04,0.07,0.19,0.45h-0.07c-0.08,0.26,0.04,0.9,0.53,0.83l0.11-0.11c0.22,0.07-0.15,0.22,0.08,0.38l-0.26-0.38
	c-0.08,0.07-0.11,0.11-0.19,0.11l-0.19-0.19c-0.15,0.08-0.07,0.3-0.26,0.26l-0.08-0.08c-0.07,0.04-0.15,0.08-0.11,0.19
	c0.11,0.19,0.41,0.23,0.56,0.07L55.2,31c-0.3,0.19,0.19,0.64,0.26,0.98h0.71c0.04,0.11-0.11,0.19-0.15,0.26
	c0.11,0.19,0.26,0.23,0.45,0.11c-0.04,0.15,0,0.34,0.15,0.45c0.07-0.9,0.56,0.07,0.56-0.64c0.11,0,0.3-0.08,0.34,0.07v0.19
	l-0.15-0.19l-0.45,0.38c0.26,0.23,0.75,0.56,1.05,0.19c-0.15,0-0.26,0.19-0.45,0.26c0.15,0.15,0.45,0.04,0.64,0.08
	c-0.11,0.34-0.22,0.23-0.34,0.45c0.15,0.11,0.26,0.45,0.53,0.38c0.11-0.11-0.08-0.34,0.19-0.45c0.11-0.04,0.19,0.11,0.26,0.19
	c-0.22-0.11-0.3,0.15-0.45,0.26c0.45,0-0.23,0.26,0,0.34c-0.49,0.15,0.19,0.41,0,0.64l0.19-0.19c0.04,0.07,0.08,0.11,0.19,0.11
	c0.22-0.15-0.08-0.3-0.11-0.38c0.19-0.22,0.6,0.23,0.45,0.45c-0.15,0.11-0.41,0.49-0.45,0.9c0.53-0.26,0.38,0.79,1.09,0.56h-0.45
	c-0.04,0.41,0.37,0.53,0.37,1.17l-0.19-0.19l-0.11,0.08l-0.07-0.45l-0.38,0.19l0.19,0.26c-0.07,0.04-0.11-0.04-0.19-0.08l-0.15,0.19
	l0.15,0.19l0.11-0.11c0.37,0.22-0.15,0.45-0.19,0.83c-0.11,0-0.22-0.04-0.26,0.08c0.04,0.15,0.23,0.07,0.34,0.11l-0.15,0.53
	c0.07,0.15,0.38-0.15,0.34,0.19c0.15,0.26,0.26-0.15,0.45-0.11c-0.26,0.19,0.19,0.3,0,0.38c-0.26,0.45,0.19-0.23-0.26-0.19
	c-0.19,0.26-0.71,0.11-0.64,0.56c0.04,0.04,0.11,0.11,0.19,0.08l0.08-0.08v0.08h-0.26v-0.38h0.11c0-0.19,0-0.64-0.38-0.71
	l-0.38,0.45c0.08,0.04,0.11,0.11,0.19,0.11l0.19-0.19v0.64c-0.11-0.19-0.26,0-0.38,0.08c-0.23,0.08,0.98,1.31-0.26,0.64
	c0-0.11,0.04-0.23-0.08-0.26h-0.11c-0.38,0.53,0.75,0.94,0.11,1.24c-0.3,0.26,0.45,0.15,0.08,0.45c0.19-0.34-0.49-0.23-0.64-0.64
	l-0.34,0.19c0.04,0.11,0.15,0.07,0.26,0.11c-0.11,0.08-0.22,0.19-0.19,0.34l0.56-0.08l-0.19,0.19c0.11,0.07,0.19,0.23,0.34,0.15
	l-0.6,0.64c0.19,0.11,0.26,0.15,0.53,0.11c-0.23,0.19-0.41-0.04-0.71,0.15c0.56,0.07,0.45,0.68,0.71,0.83
	c0.22,0.26,0.68,0.15,0.64,0.83c0.26-0.15,0.15,0.19,0.45,0.26v-0.71c0.11,0.15,0.3,0.15,0.45,0.26v-0.38l0.19,0.19
	c0.3-0.22-0.38-0.38,0-0.64c-0.04,0.45,0.3,0.56,0.6,0.83c-0.04-0.49,0.41-0.56,0.75-0.71c-0.07-0.15-0.07-0.3-0.19-0.38l-0.19,0.19
	l0.19-0.26l0.34,0.15c-0.07,0-0.11,0.04-0.15,0.11c0.11,0.19,0.26,0.19,0.45,0.08l0.26-0.53l0.07,0.26l0.11-0.08
	c-0.38,0.19-0.11,0.34-0.56,0.53c0.64,0.34,0.68-0.79,1.35-0.19l0.26-0.19c-0.38-0.19-0.68-0.27-0.79-0.71
	c0.11-0.38,0.34-0.6,0.71-0.72c0.26,0.04,0.41,0.26,0.64,0.45c-0.04,0.19,0.08,0.49-0.11,0.64c0.08,0.04,0.11,0.11,0.19,0.07
	c0.22-0.3,0.26-0.19,0.45-0.07l0.19,0.19l0.07-0.45l0.19,0.34l0.64-0.26c-0.04-0.04-0.11-0.11-0.19-0.08
	c0.19-0.3,0.45,0.04,0.71-0.19l0.19,0.19l0.11-0.11l-0.11,0.11c0.3,0.23,0.34-0.3,0.64,0.08c0.08-0.15-0.08-0.42-0.26-0.53
	c0.19,0.23,0.41,0.3,0.64,0.07l0.08-0.07c0,0,0.3,0.75,0.71,0.34c0.26-0.08,0.26,0.11,0.38,0.26v0.11c0.38,0,0.64,0.04,1.09-0.11
	c-0.11,0-0.22,0-0.3,0.11v0.07c0.53-0.04,0.75,0.49,1.01-0.07c0,0.11-0.08,0.3,0.08,0.34h0.26c-0.23,0.83,0.49,0.11,0.75,0.56
	l-0.11-0.45l0.26,0.64l0.3-0.19v0.19c-0.11-0.04-0.15,0.04-0.19,0.07c0.11,0.15,0.34,0.3,0.45,0.19c-0.15,0.08-0.15,0.53,0.19,0.79
	h0.26l-0.19,0.3c0.26,0.08,0.22,0.15,0.45,0.34c-0.07-0.08-0.15-0.23-0.26-0.19c-0.23,0.3,0.11,0.3,0.26,0.56
	c-0.07-0.04-0.15,0.04-0.19,0.07l0.45,0.19c-0.15,0.22-0.53-0.19-0.45,0.26c0.41,0.34,0.34,0.75,0.19,1.28
	c-0.45-0.22-0.23,0.34-0.53,0.34c0.04,0.19,0.22,0.08,0.34,0.11l0.11-0.26l0.07,0.26l-0.45,0.19l0.26,0.26
	c-0.75-0.15,0.04,0.56-0.53,0.64l0.34,0.08c-0.49,0.26-0.45,0.53-0.98,0.71l0.07,0.56c-0.04-0.15-0.04-0.3-0.15-0.38
	c-0.34,0.07-0.56,0.26-0.83,0.45c0.08,0.15,0.3,0.07,0.26,0.26l-0.45-0.19c-0.11,0.56-0.41,0.53-0.9,0.64
	c-0.11,0.38-0.11,0.07,0-0.08c-0.15-0.07-0.41,0.11-0.64,0.19l0.56,0.34c-0.15-0.04-0.19,0.11-0.26,0.19c0-0.38-0.26,0.11-0.3-0.19
	l0.11-0.07l-0.19-0.19c-0.34,0.04-0.08,0.23-0.08,0.38c-0.68,0.3-0.64,0.23-1.01-0.3l-0.19,0.19l0.11,0.11l-0.26,0.26l0.08,0.07
	c-0.04,0.15-0.26-0.22-0.38,0.11l0.11,0.27l-0.11-0.64c-0.26,0.45-1.01-0.08-0.79,0.53c-0.6,0-0.98,0.49-1.54-0.15l-0.08,0.08
	l0.26,0.26c-0.19,0.11-0.68-0.53-0.71,0.11l0.45,0.08c0.04,0-0.53-0.08-0.38,0.26l-0.19-0.19l-0.34,0.26
	c-0.08-0.04-0.11-0.11-0.19-0.08l-0.19,0.19l0.08,0.07l-0.45-0.07c0.08,0.22-0.11,0.34-0.15,0.53c0.04,0.08,0.07,0.11,0.15,0.11
	l0.19-0.19c0.23,0.04-0.71,0.53,0,0.71c-0.11,0.04-0.19-0.11-0.26-0.19c-0.15,0.08-0.07,0.26-0.07,0.38
	c-0.3-0.23-0.6-0.04-0.83,0.19l0.08,0.08l-0.45-0.08c-0.15,0.42,0.26,0.57,0.38,0.98c-0.26,0.23-0.83-0.53-1.28,0l0.45,0.08
	c-0.04,0.07-0.11,0.11-0.08,0.19h0.53l-0.45,0.26l0.11,0.11l-0.45,0.07c0.04-0.04,0.11-0.07,0.08-0.19
	c-0.23-0.34-0.19,0.26-0.45,0.11l0.26-0.19L59.71,57c-0.15,0,0.23-0.04,0.26-0.19c-0.19-0.19-0.68-0.11-0.64,0.26h0.11v0.26h-0.11
	c0.08-0.15-0.07-0.22-0.15-0.34c-0.11,0.04-0.11,0.15-0.11,0.26L58.8,57c-0.11,0.15-0.11,0.49-0.38,0.53L58.09,57l-0.38,0.71
	c-0.34-0.38,0.38-0.26,0-0.64c-0.26,0.11-0.26,0.56-0.34,0.53c-0.22-0.3-0.45-0.49-0.9-0.45l-0.19,0.45c0-0.08,0-0.19-0.11-0.27
	c-0.11-0.04-0.15,0.11-0.26,0.19l0.11,0.08l-0.11,0.11c-0.04-0.11,0.08-0.3-0.08-0.38h-0.19l0.08-0.26
	c-0.3-0.08-0.71-0.19-1.05,0.07c0.11,0.38,0.41,0.08,0.6,0.11c-0.11,0.3,0.3,0.56-0.15,0.64c0.19,0.26,0.41,0.07,0.71,0.26
	c0,0.22,0.04,0.6-0.26,0.64V58.7H55.2c-0.15,0.22,0.15,0.22,0.19,0.45c0.11,0.04,0.19-0.11,0.26-0.19l0.19,0.57
	c-0.23,0.11-0.3-0.19-0.45-0.26c-0.19,0.07-0.08,0.3-0.11,0.45c0.19-0.11,0.38,0.19,0.64,0.07c-0.04,0.15,0.11,0.19,0.19,0.26
	c0.08,0.04,0.11-0.04,0.19-0.07v-0.26l0.19,0.15l0.15-0.26c0.11,0.49,0.6,0.87,0.3,1.17h0.15c0,0.3-0.04,0.64,0.19,0.83
	c0.15-0.07,0.08-0.22,0.11-0.38c0.08,0.04,0.11-0.04,0.15-0.08c0,0.11,0,0.23,0.11,0.26l0.08-0.07l-0.26,0.26
	c0.15,0.41,0.49,0.04,0.64,0c-0.23,0.26-0.71,0.6-0.19,0.9h0.19l-0.19,0.19l0.07,0.07l-0.34,0.11l0.26,0.15
	c-0.11,0.22-0.49-0.04-0.45,0.3l0.64,0.08c-0.56,0.49,0.26,0.53,0.19,0.83c-0.38,0.04-0.26,0.38-0.3,0.6h0.19v0.75l0.45-0.19
	l-0.26,0.26l0.38,0.26c-0.15-0.04-1.13-0.38-0.64-0.9l-0.56,0.45l0.45,0.38c-0.53-0.04-0.15,0.41-0.26,0.64l0.64-0.38
	c-0.11,0.26-0.49,0.15-0.45,0.53c0.3,0.07,0.3,0.07,0.45,0.38v0.45c0.08-0.04,0.11,0.04,0.19,0.08l0.08-0.08l-0.08,0.08
	c0.34-0.04,0.45,0.11,0.71,0.11c0.45,0.53-0.9,0.79-0.19,1.09c0.15,0.45-0.56,0.79-0.19,1.24c0.22-0.26-0.3-0.41-0.53-0.64
	c-0.49,0.45,0.15,0.6,0.19,1.02l0.08-0.11l0.19,0.3c-0.3,0.23,0.19-0.08-0.07-0.11l-0.56,0.27c0.08,0.19,0.26,0.26,0.19,0.45
	l-0.26-0.26c-0.19,0.12-0.23,0.3-0.11,0.45h-0.15c-0.04-0.07,0-0.19-0.11-0.26c-0.45,0.11,0.15,0.64-0.19,0.53l-0.15-0.15
	c0,0.26-0.56,0.53-0.11,0.71c0.11-0.07,0.08-0.19,0.11-0.26c0.26-0.12,0.71,0.11,0.45,0.53c-0.19,0.08-0.34,0.08-0.45,0.26v-0.07
	c-0.38,0.04-0.86-0.08-0.9-0.26c-0.08,0.15-0.3,0.3,0,0.45c0.04-0.08,0.08-0.11,0.15-0.11l0.3,0.26c-0.08,0.11-0.23,0.15-0.19,0.3
	l0.19,0.15c0.11-0.04,0.07-0.15,0.07-0.26h0.19c0,0.11-0.04,0.15-0.11,0.19c0.41,0,0.68,0.27,0.83,0.64
	c-0.04,0.23-0.11,0.49-0.45,0.64c-0.34,0.11-0.53-0.6-0.83-0.11c-0.08-0.04,0.34-0.38,0.19-0.53l-0.34,0.19
	c0.15-0.19-0.04-0.3-0.11-0.45c-0.11,0.04-0.08,0.15-0.08,0.26c-0.49-0.15,0.56-0.79-0.19-1.02c0.11,0.22-0.19,0.45-0.38,0.38
	l0.11,0.45h-0.19c0.04-0.04,0.11-0.08,0.08-0.19l-0.26-0.27c0.15,0.42-0.26,0.3-0.53,0.45h-0.11l-0.08,0.64h-0.19
	c0.49-0.34-0.3-0.87,0.11-1.35c-0.19-0.19-0.38,0.34-0.45-0.11c-0.26,0.19,0.04,0.53,0,0.56l-0.11-0.11l-0.08,0.11
	c0.11,0.15,0.49,0.38,0.34,0.71c-0.23,0.34-0.26-0.26-0.53-0.07l-0.08,0.45l-0.19-0.64c-0.04,0.08,0.04,0.11,0.08,0.19
	c0.19,0.04,0.26-0.11,0.38-0.19l-0.11-0.11c-0.45,0,0.19,0.08,0.19-0.15c-0.34-0.83-0.83,0.83-1.24-0.11
	c0.07,0.04,0.11-0.04,0.15-0.08c0.04-0.15-0.11-0.19-0.15-0.26c-0.38,0.49-0.45-0.22-0.83-0.3c-0.3,0.11-0.75,0.34-0.9,0.3
	c0.41,0.04,0.3-0.41,0.26-0.56l-0.08-0.07c-0.38,0.41-0.23,0.6-0.71,0.9c0.3-0.22,0.71,0.56,0.9-0.11c0.08,0.04-0.19,0.26-0.11,0.45
	l-0.08-0.07c-0.07,0.41-0.15,0.34-0.38,0.71c-0.11-0.04-0.08-0.15-0.08-0.26c0.3,0.11,0.23-0.22,0.34-0.38
	c-0.11-0.38-0.38,0.04-0.53-0.07c-0.15,0.26-0.08,0.6-0.08,0.9l0.34,0.07c-0.11,0.04-0.23,0-0.26,0.12c0,0.11-0.04,0.22,0.08,0.26
	l0.11-0.07l-0.11,0.07l-0.08-0.07c-0.11,0.34-0.15,0.75-0.19,1.17c0.15-0.04,0.3,0.19,0.45-0.11c0.08,0.49-0.3,0.08-0.45,0.3
	c0.15,1.01-0.34,2.33,0.11,3.23c0,7.04-0.07,14.15,0.08,21.48l-0.26,0.45c-1.73-1.69-0.49-4.33-0.71-6.51
	c0.07-5.79,0.19-12.04-0.11-16.97l0.11-2.97c-0.15-0.3-0.3-0.04-0.45,0c0.15-0.3,0.56-0.6,0.26-1.09l0.07,0.11
	c0.08-0.41,0.26-0.75,0.19-1.21c-0.11,0.53-0.83-0.26-0.98,0.38c-0.41-0.38,0.64-1.2-0.45-1.62c-0.04-0.11,0-0.23-0.11-0.26
	c-0.34-0.04-0.23,0.56-0.64,0.34c0.15,0.04,0.19-0.11,0.3-0.19c-0.19-0.15-0.53-0.04-0.56,0.11c0.3-0.19,0.56-0.68,0.45-1.17
	c-0.08-0.11-0.23-0.15-0.19-0.3c0.3,0.22,0.11,0.86,0.75,0.75c-0.11,0.11-0.41,0.11-0.3,0.34c0.38,0.04,0.64,0.49,0.56,0.71
	l0.19-0.15c0.11,0.15,0.08,0.41,0.34,0.45l0.11-0.11v0.26c-0.11,0-0.23,0.04-0.3-0.08c-0.11,0.26-0.15,0.45,0.11,0.64
	c0.19-0.49,0.64,0.26,0.71-0.38c0.34-0.41-0.11-1.09-0.07-1.62l-0.38,0.38c0.04,0.11,0.15,0.07,0.26,0.07l-0.45,0.38l-0.71-0.64
	c0.11-0.04,0.38,0.3,0.53,0.45v-0.38l0.11,0.12l0.19-0.19c-0.26-0.15,0-0.68-0.45-0.71c-0.07,0.04-0.15,0.07-0.11,0.15l0.11,0.11
	c-0.04,0.11-0.22-0.23-0.3-0.38l0.11-0.07c-0.11-0.11-0.22-0.26-0.38-0.26c-0.26,0.19,0.15,0.34-0.26,0.26l0.19-0.19l-0.56-0.53
	l-0.15,0.15l0.08,0.11l-0.26,0.08l0.19,0.19l-0.38-0.38c0.15,0.08,0.26-0.08,0.38-0.15c-0.04-0.45-0.41,0.08-0.56-0.19
	c-0.23,0.26-0.68,0.3-0.98,0.45c0.07-0.07,0.11-0.22,0.26-0.19l0.08,0.08l0.19-0.15c-0.04-0.07-0.07-0.11-0.19-0.11l0.38-0.07
	L46.18,69c0.08-0.04,0.11,0.04,0.19,0.08c0.26-0.15-0.15-0.26-0.11-0.45c0.38-0.04,0.3-0.45,0.11-0.64l-0.11-0.07
	c-0.19,0.11-0.19,0.3-0.08,0.45c0.04-0.07-0.04-0.11-0.08-0.19l-0.38,0.26c0.08-0.23,0.38-0.38,0.08-0.6
	c-0.11,0.04-0.08,0.15-0.08,0.27l-0.38-0.38l0.11-0.07c-0.04-0.38-0.23,0.04-0.38-0.19c-0.26,0.15,0.11,0.26,0.11,0.45
	c-0.15,0.04-0.3,0.07-0.38,0.19c0.15,0.41,0.38-0.08,0.64,0.08L45.09,69c0-0.34,0.19-0.49-0.26-0.83c-0.04-0.26,0.41-0.11,0.26-0.45
	c-0.38-0.19-0.3,0.08-0.34-0.34l0.15,0.15l0.11-0.08c-0.07-0.41-0.56-0.38-0.71-0.26l-0.11,0.07l0.19,0.19l0.08-0.07
	c-0.04,0.15,0,0.26-0.26,0.34l0.26,0.26l-0.26,0.38c-0.04,0-0.23-0.34-0.34-0.07v0.07l-0.38-0.53c0.11,0,0.23,0,0.26-0.11
	l-0.34-0.34c0.49-0.11,0.04-0.6,0.71-0.56l0.08-0.26c-0.53,0.34-0.94,0.04-1.43,0.53l0.45,0.3c-0.22-0.08-0.41,0.04-0.45,0v-0.38
	c0.08,0.04,0.11-0.04,0.19-0.08c-0.08-0.49-0.38,0.15-0.56-0.19c-0.19,0.53,0.41,1.05-0.07,1.36c0.23,0.26,0.71-0.11,0.53-0.38
	l0.19,0.11c-0.83,0.75,0.49,0.68-0.08,1.43c0.11,0.38-0.6,0.34-0.56,0.71c0.04-0.11-0.11-0.19-0.19-0.26
	c-0.34,0.41-0.49-0.49-0.79-0.19l0.26,0.38l-0.98-0.11c0-0.11-0.08-0.26,0.07-0.34c-0.07-0.08-0.15-0.23-0.26-0.19
	c-0.08,0.34-0.11,0.6-0.11,1.09c0.11,0.19,0.26-0.04,0.38-0.11c0.04-0.08-0.04-0.12-0.07-0.15h0.15c-0.71,0.56,0.71,0.45,0.83,0.98
	v-0.26l0.19,0.26L41.93,71l-0.26,0.07c0.22,0.38-0.11,0.75,0.45,0.9c-0.45,0.04-0.68,0.68-0.98,0.98c-0.04,0.53,0.11,1.43-0.64,1.66
	c-0.38,0.11-0.75-0.3-1.01,0.07l0.11-0.07c-0.68-0.53-0.38-0.45-0.9-1.02c-0.04,0.11,0.04,0.15,0.08,0.19
	c0.38-0.23-0.04-0.98,0.45-1.17c0.56,0,0.08-0.83,0.11-1.09c-0.22,0.34-0.38-0.34-0.56-0.07v0.26c-0.56-0.56-0.71,0.3-1.09,0.45
	c0.38,0.45-0.15,0.83,0.38,1.09v0.07H37.8c0.11-0.19-0.07-0.56,0-0.71l-0.71,0.34c0.04,0.11,0.15,0.11,0.26,0.11l-0.19,0.19
	c0.68-0.34,0.23,0.53,0.71,0.71l-0.08,0.08l-0.26-0.26c-0.34,0.68,0.68,1.05-0.19,1.43l-1.01,0.38l0.11-0.07
	c-0.15-0.34-0.56-0.15-0.71,0c-0.08,0.07-0.23,0.11-0.19,0.26c0.38,0.38,0.49-0.34,0.79,0.07v0.12c-0.15,0-0.45-0.19-0.6,0.15
	l0.15,0.3c0.11-0.12-0.45,0.22,0,0.45L36,76.76c-0.86,0.38-0.22,1.36-0.56,2.07l-0.15,4.06c0.71,1.05,0.41,2.26,0.6,3.54
	c0,2.22,0,4.44,0,6.7c-0.19,6.89-0.38,14.19-0.15,20.13c0.45,6.92-0.71,14.07,0.98,20.58c0.38,1.13,0.38,2.41,0.38,3.69
	c-0.19,0.41-0.68,0.3-0.9,0.19c-1.13-0.83-0.49-2.52-0.9-3.69l-0.56-2.44l-0.07-18.25c-0.45-4.93,0.07-9.67-0.11-14.64
	c0-2.11,0-4.48,0.38-6.58c-0.64-2.94,0.19-6.17-0.71-9.03c-0.26-1.36,0.56-3.42-0.11-4.85c0.07,2.22-0.9,4.32-0.15,6.47
	c-0.11,0.45,0.23,1.02-0.38,1.28c-0.26,0.04-0.45-0.07-0.64-0.26c-0.45-1.58,0.86-2.56,0.26-4.06c-0.38-0.94-0.38-2.18-0.34-3.16
	l-0.56-0.19v0.38c-0.04-0.11-0.15-0.11-0.26-0.11c-0.08,0.11-0.23,0.19-0.19,0.38l-0.08-0.11L31.3,80.1
	c-0.49,7.22-0.15,14.97-0.64,22.31l0.26,3.69c-0.19,0.34-0.56,0.49-0.9,0.26c-0.56-1.09-0.04-2.45-0.08-3.69
	c-0.45-6.47,0.15-13.13-0.19-19.87c-0.53-1.21-0.08-3.12-0.64-4.06c-0.53-0.49-2.22,1.09-1.88-0.83c0.15,0.07,0.26-0.08,0.38-0.15
	c0-0.34-0.71-0.41-0.45-0.83c0-0.04,0.34-0.23,0.07-0.38c-0.34,0.08-0.34,0.45-0.38,0.75l-0.15-0.11l0.15-0.19
	c-0.11-0.19-0.38,0.04-0.45,0.11c0.41-0.15,0.08-0.41,0.11-0.64c-0.19,0.04-0.34,0-0.45-0.19c0.08-0.26,1.32-0.15,0.71-0.79
	l-0.45,0.26c-0.38-0.34,0.34-0.75-0.08-0.9c0.19-0.6-0.75,0.45,0-0.26c-0.15-0.19-0.38-0.08-0.56-0.11l0.38-0.34
	c-0.45-0.11-0.6-0.98-1.16-0.64c-0.53-0.3-0.6-0.79-0.3-1.28v-0.08l-0.34,0.08c0.08-0.11,0.19-0.34,0.08-0.45h-0.08v-0.26
	c0.41-0.19,0.56,1.2,0.71,0.19l-0.19-0.19l0.19-0.19c-0.34-0.41-0.34,0.49-0.64-0.07c-0.19,0.11-0.6,0.07-0.53,0.45h-0.19
	c-0.11-0.6-0.22,0-0.9-0.26c-0.04,0.26,0.38,0.15,0.26,0.45c-0.23,0.22,0.19-0.15-0.07-0.19c-0.26,0.11-0.6,0.45-0.38,0.71
	c-0.19-0.22-0.11-0.49-0.19-0.83l-0.15-0.15c-0.22,0.07-0.41,0.41-0.19,0.6l-0.26-0.26c-0.3,0.72-0.86,0.83-1.46,0.72l-0.19-0.15
	c0.11-0.08,0.11-0.19,0.11-0.3c-0.08-0.04-0.11-0.11-0.19-0.07c-0.19,0.19,0.04,0.56-0.38,0.53c-0.07-0.04-0.11-0.19-0.26-0.15
	L19.2,72.5c0.23,0.11,0.38,0.41,0.11,0.56c-0.19,0.41,0-0.38-0.26-0.19c0.11-0.04,0.3,0.08,0.34-0.07c0-0.38-0.23,0.11-0.26-0.19
	l0.19-0.19c-0.41,0.11-0.86-0.64-1.09,0.08c0.26,0.41,0.6,0.56,0.45,1.02l-0.08-0.38c-0.19,0.22-0.38-0.19-0.56-0.19
	c-0.11-0.15,0.19,0.3,0.26,0c-0.38-0.15,0.23-0.56-0.34-0.53c0.04-0.11-0.11-0.19-0.19-0.26l-0.19,0.19
	c0.11,0.04,0.07,0.15,0.11,0.26l-0.3-0.11l-0.08,0.75l-0.52-0.38l0.04,0.04l-0.34,0.45l-0.07-0.04l0.64-0.83
	c-0.3-0.3-0.23,0.3-0.45,0.11v0.19l-0.38-0.38c-0.11,0.08-0.07,0.19-0.07,0.26c-0.15-0.04-0.19,0.11-0.26,0.19l0.26,0.27
	c-0.08,0.07-0.64-0.08-0.45,0l0.26-0.53c-0.26,0.3-0.64-1.13-0.71-0.11l-0.38-0.15c0.11-0.04,0.3,0.07,0.38-0.11v-0.19
	c0.11,0,0.26,0.23,0.34,0v-0.26c-0.07,0-0.41-0.07-0.53,0.19v0.07c-0.11-0.45-0.49-0.15-0.71-0.34v0.19c-0.08,0-0.15-0.04-0.19-0.12
	l0.45-0.34c-0.07-0.19-0.23-0.08-0.38-0.12l-0.15,0.26l0.15-0.79c-0.04,0.15,0.11,0.26,0.19,0.34h0.19c0.04-0.15-0.15-0.45-0.38-0.6
	l-0.45,0.26c0.08-0.49-0.6-0.6-0.34-0.83l0.19,0.27c0.11-0.08,0.04-0.45,0.34-0.34c0.19,0.08,0.07,0.23,0.11,0.34l-0.11-0.08
	c-0.11,0.11-0.15,0.23-0.19,0.38c0.53,0.15,0.53-0.64,0.83-0.83c-0.15-0.22-0.41,0-0.45,0.08l0.07-0.08l-0.15-0.19l-0.11,0.11
	l-0.26-0.3l-0.07,0.11c-0.04,0.22,0-0.11-0.11-0.11c0.11-0.11,0.49-0.04,0.38-0.34h-0.56c0.19-0.38,0.45-0.04,0.75-0.26l-0.19-0.19
	h0.34c0.19-0.49-0.3-0.26-0.6-0.45c-0.04-0.19,0.41-0.68,0-0.9c-0.19,0.07-0.53,0-0.56,0.26l0.11,0.08H13
	c0.11-0.19,0.04-0.83-0.19-0.71l0.26-0.34c0.19,0.26-0.41,0.19-0.08,0.45l0.34-0.19c-0.04,0.11-0.04,0.26-0.15,0.34l0.15,0.19
	c0.23-0.19,0.34-0.41,0.3-0.71l-0.45-0.38l0.15-0.15l-0.07-0.12l0.38-0.07l-0.3,0.45c0.23,0.23,0.45,0.3,0.64,0.53
	c0.34-0.3-0.23-0.45-0.26-0.64c0.19-0.15,0.34,0.41,0.53,0.11c-0.3-0.22-0.34-0.49-0.34-0.83c-0.08,0.19,0.07,0.34,0.26,0.26
	c0.11,0,0.3,0.08,0.38-0.07l-0.38-0.26c0.04,0.04,0.11,0.11,0.19,0.07l0.19-0.19l-0.45-0.15c0.56,0.3,0.11-0.68,0.71-0.57
	c-0.15-0.22-0.23-0.41-0.56-0.45l-0.26,0.71c-0.19-0.64,0.11-0.34,0.45-0.9l-0.26-0.34l-0.19,0.19c0.07-0.15,0.11-0.3,0.11-0.45
	l-0.11-0.11c-0.04,0.04,0.56-0.15,0.83-0.34c-0.15-0.19-0.38-0.07-0.56-0.11c0.15-0.9,0.83-0.38,0.64-1.17H14.8v-0.38h0.08v0.11
	h0.26c-0.34,0.26-0.08,0.6-0.08,0.9c0.26,0.07,0.41,0.07,0.64-0.12c-0.15-0.15-0.38-0.04-0.56-0.08c0.71-0.3-0.3-0.38,0.3-0.71
	c-0.15-0.3,0.19-0.53,0.26-0.83l0.26,0.27c0.19-0.42,0.34,0.19,0.64-0.27c-0.08-0.11-0.19-0.07-0.26-0.07
	c-0.04-0.08,0.04-0.15,0.08-0.19l-0.19-0.19l-0.19,0.38c-0.3-0.04-0.26-0.3-0.53-0.45c-0.26,0.56,0.11,0.49-0.53,0.98l-0.19-0.19
	c0.11,0.3-0.04-0.68-0.45-0.08l-0.19,0.26l-0.08-0.26c0.11-0.08,0.38-0.04,0.34-0.26h-0.08v-0.26h0.08c0.04,0.12-0.08,0.3,0.11,0.34
	c-0.07-0.19,0.71-0.22,0.45-0.79l-0.19-0.19l-0.19,0.19c-0.19,0.15,0.04-0.34,0.08-0.45c-0.04-0.19-0.23-0.08-0.34-0.11
	c-0.08,0.08-0.11,0.11-0.11,0.19l0.19,0.19c-0.56,0-0.19-0.45-0.19-0.72c0.11-0.04,0.15,0.04,0.19,0.08
	c0.08-0.08,0.23-0.15,0.19-0.26l-0.53-0.11c0.15,0.38-0.45,0.3-0.19,0.64l-0.11,0.38c0.26-0.26-0.11-0.53,0-0.72h-0.07v-0.19
	c0.11,0,0.23,0,0.26-0.11c-0.15-0.15-0.3-0.26-0.53-0.26c0.56-0.22-0.04-0.49,0-0.79l-0.26,0.26l0.26,0.26
	c-0.26,0-0.15,0.23-0.38,0.26l0.45,0.45c-0.04,0.11-0.22,0.15-0.19,0.26h0.3l-0.38,0.83l-0.08-0.38h0.15c0.23-0.15,0-0.38-0.15-0.53
	h-0.11l0.38-0.19c-0.11-0.11-0.26-0.11-0.38-0.27l-0.26,0.38c-0.04-0.11,0.04-0.15,0.08-0.19c-0.3-0.41-0.49,0.41-0.53,0
	c0.45-0.15,0.64-0.38,0.83-0.83c-0.38-0.04-0.53-0.64-1.01-0.45c0.38-0.19,0.86,0.6,0.9-0.19c-0.04-0.11-0.15-0.07-0.26-0.07
	l0.26-0.26l-0.26-0.26c-0.04,0.42-0.94-0.15-0.38,0.45c0.07-0.08,0.11-0.11,0.19-0.11v0.19c-0.6,0.3-0.3-0.49-0.64-0.53
	c0.15-0.04,0.26,0.19,0.38,0c0.15-0.6-0.38-0.15-0.45-0.38c-0.15,0.04-0.38,0.26-0.64,0.26c0.23-0.22,0.19-0.71,0-0.98
	c-0.26,0-0.38-0.19-0.53-0.19c-0.04-0.15,0.15-0.19,0.08-0.38c-0.19-0.04-0.6,0.3-0.45,0.45c-0.15,0.04-0.49,0-0.64-0.26
	c0-0.07,0.04-0.11,0.11-0.19c-0.08,0.19,0.07,0.27,0.19,0.38c0.34,0,0.34-0.3,0.6-0.45c-0.04-0.04-0.08-0.11-0.15-0.07
	c-0.04-0.11,0.04-0.15,0.08-0.19c-0.15,0.26,0.34,0.3,0.53,0.45c0.19-0.12,0.08-0.3,0.11-0.45c0.15,0.04,0.26-0.08,0.34-0.19
	l-0.15-0.19l-0.11,0.11l-0.26-0.56c0.07,0.04,0.11-0.04,0.19-0.07v-0.08l-0.64-0.11c0.08-0.23-0.08-0.41-0.26-0.45
	c0.04-0.19,0.26-0.38,0.19-0.64c0.11,0.19,0.3,0.19,0.45,0.3c-0.04-0.23,0.08-0.68-0.3-0.83l-0.08,0.07
	c-0.11-0.04-0.23-0.38-0.45-0.26c0.3,0.22-0.11,0.68,0.07,1.09c-0.38-0.34-0.64-0.08-1.05-0.26l0.53-0.11L9.58,52.3
	c-0.15,0.04,0.79,0.19,0.53-0.45l-0.53-0.38c0.23-0.26,0.11,0.26,0.34,0v-0.15c0.19,0.3,0.41,0.08,0.64,0.08
	c0.11-0.45,0.19-0.49,0.08-0.9l-0.45,0.26l0.19,0.45l-0.45-0.08h0.19c0.23-0.71-0.53-0.22-0.64-0.9l-0.19-0.19
	c-0.19,0.71-0.38-0.23-0.71,0.07l-0.19,0.56l-0.15-0.19c0.08,0,0.19,0.04,0.26-0.07c0.04-0.15-0.11-0.19-0.19-0.3
	c-0.11-0.04-0.19,0.11-0.26,0.19c0.04-0.23-0.07-0.41-0.26-0.45l-0.45,0.38c-0.08-0.07-0.11-0.11-0.19-0.11
	c-0.19-0.15,0.64,0.04,0.64-0.45c0.08,0.07,0.3,0.38,0.53,0.45c0.23,0.26,0.6-0.45,0.71-0.07c0.19-0.12,0.08-0.3,0.11-0.45
	c-0.08-0.12-0.19-0.07-0.3-0.07c0.11-0.15,0.53,0.15,0.38,0.34l0.53-0.19c-0.15-0.04-0.04-0.3-0.26-0.27l-0.08,0.12l0.08-0.45
	l-0.26-0.11l0.08-0.07c-0.08-0.15-0.26-0.11-0.34-0.26l-0.26,0.34l0.26,0.26H8.75c0-0.41-0.3,0.15-0.38-0.15l0.19-0.19
	c-0.6-0.3-0.04,0.53-0.71,0.26c0.11-0.11,0.6-0.19,0.53-0.53l-0.15-0.19c-0.15,0.11-0.08,0.45-0.38,0.34
	c0.49-0.26-0.11-0.68-0.26-0.98H7.03c0.07-0.19-0.08-0.26-0.15-0.38c-0.15-0.04-0.19,0.12-0.3,0.19c0.08,0.15,0.15,0.26,0.11,0.45
	c0.15-0.19-0.23-0.3-0.45-0.26c0.11,0.04,0.19-0.12,0.26-0.19l-0.26-0.26l0.79-0.08l-0.6-0.75l-0.19,0.19c0,0-0.79-0.68-0.38-0.98
	l-0.64,0.45c0.07,0.11,0.19,0.08,0.3,0.08v0.11H5.07v-0.9c-0.15-0.04-0.23,0.15-0.38,0.08l0.19,0.53c-0.64,0.08-0.3,0.64-0.83,0.75
	v-0.3c0.19,0.08,0.26-0.07,0.38-0.15c-0.41-0.34-0.08-1.43-0.9-1.09c0.04,0.12,0.15,0.08,0.26,0.08H3.42
	c-0.04,0.19,0.11,0.26,0.19,0.38c0.11,0,0.23,0,0.26-0.11l0.11,0.3l-0.11-0.11l-0.15,0.19c0.04,0.04,0.11,0.07,0.07,0.19H3.61
	c0.26-0.19-0.04-0.38-0.08-0.56c-0.11,0.04-0.3-0.07-0.38,0.11v0.19H2.89c0.23-0.07-0.23-0.49,0.19-0.83
	c0.04-0.26-0.26-0.41-0.26-0.64c-0.11,0.07-0.11,0.19-0.11,0.26c-0.11,0-0.23,0.04-0.26-0.07l-0.19,0.19C2.37,45,2.56,45,2.71,44.89
	l-0.26,0.26c-0.04-0.04-0.11-0.11-0.19-0.08C2.18,45.53,2.07,44.89,1.92,45c0.04,0.04,0.08,0.11,0.15,0.07
	c0.08-0.26,0-0.53-0.15-0.71H1.47c0.08-0.11,0.26-0.22,0.26-0.38c-0.19-0.19-0.41,0.04-0.56,0.19v-0.19h0.3
	c0-0.23-0.04-0.26-0.11-0.53l-0.26,0.26c-0.19-0.15,0-0.38-0.38-0.53L0.9,43l-0.19-0.19c0.08-0.04,0.15-0.11,0.11-0.19l-0.11-0.08
	l-0.15,0.26c0.08-0.26-0.15-0.41-0.19-0.64c0.08-0.26,0.71-0.3,0.34-0.79c-0.08-0.04-0.11,0.04-0.15,0.07l-0.19-0.19
	c0.15,0.04,0.34-0.07,0.45,0.12c0.3-0.38-0.23-0.3-0.11-0.64c-0.3-0.15-0.34,0.19-0.45,0.34C0.19,41.35,0.34,40.75,0,40.94
	c0.86-0.07,0.68-0.75,1.35-0.75c-0.07-0.19-0.15-0.27-0.34-0.34C0.9,39.88,0.9,39.99,0.9,40.11l-0.34-0.08l0.15-0.19
	c-0.04-0.11-0.15-0.11-0.26-0.11l0.26-0.26c0.04-0.04,1.05,1.17,0.9,0.11H1.17c0.08-0.34,0.45-0.3,0.3-0.64h0.6
	c-0.23-0.19,0.08-0.38,0.11-0.57c-0.19,0.15,0.19,0.57-0.19,0.83c0.38,0.27,0.45-0.64,0.83-0.07c0.04-0.08,0.11-0.11,0.08-0.19
	l-0.26-0.27l-0.11,0.08v-0.38c0.38,0-0.08-0.23,0.19-0.26c0,0.38,0.34,0.3,0.26,0.64l0.38-0.38c-0.23-0.04-0.49-0.19-0.53-0.45
	c0.26-0.34,1.09-0.68,0.71-1.24c0.26,0.26,0.9,0.15,0.79,0.71l-0.07,0.08l0.45,0.3l0.38-0.56v0.38c0.41,0.34,0.41-0.49,0.79-0.19
	c0.3-0.15,0.08-0.26,0-0.45c-0.19,0.34-0.34,0.04-0.53-0.07c-0.11,0.38-0.49-0.04-0.64,0.26c-0.11-0.26-0.3-0.11-0.08-0.45
	c0.19,0,0.23-0.3,0.45-0.19l-0.56,0.38c0.38,0.3,0.6-0.23,0.9,0c0.19,0.22,0.38-0.08,0.56-0.11c-0.41,0.19,0.34,0.3,0.26,0.64
	c0.15-0.6,0.38,0.57,0.64,0c-0.04-0.19-0.83-0.45-0.3-0.71c-0.15-0.53,0.26-0.53,0.19-0.83l0.26,0.56c0.49-0.45,0.53-1.05,1.01-1.47
	l-0.19-0.08c0.26,0.83,0.86-0.56,1.16,0.45c0.19-0.15,0.08-0.38,0.11-0.56c-0.08-0.11-0.19-0.08-0.3-0.08
	c0.11,0.04,0.15-0.04,0.19-0.07l-0.45-0.38c0.04-0.22,0.34,0.49,0.38,0l0.26,0.26c0.41-0.3-0.34-0.53-0.53-0.64l-0.45,0.3
	c0.08-0.79,0.86,0.19,0.9-0.64c-0.11,0.04-0.11,0.15-0.11,0.26l0.11,0.08l0.26-0.45l0.08,0.11c0.3-0.6-0.41,0.11-0.45-0.38
	L8.75,33.6c-0.23-0.27,0.11-0.57-0.26-0.72l0.08,0.08l0.45-0.45c-0.19-0.07-0.34-0.15-0.53-0.26c-0.23,0.11,0.23,0,0.26-0.19
	c0.04-0.07-0.07-0.19-0.19-0.15H8.3c0.11-0.04,0.23,0,0.26-0.11c-0.11-0.38-0.41-0.04-0.64-0.08c0.04,0.11-0.08,0.3,0.11,0.34h0.19
	c-0.3,0.11-0.64,0.75-1.09,0.38c-0.19-0.19-0.23-0.45-0.19-0.71c0.34-0.56,1.5,0.04,1.09-0.56l0.34-0.26
	c0.15,0.07,0.07,0.3,0.3,0.26c0.38-0.38-0.34-0.38-0.38-0.6l-0.08,0.08c-0.15,0.15-0.15-0.34-0.3-0.45l0.11-0.08
	c-0.07-0.08-0.11-0.15-0.19-0.11c-0.11,0.11-0.23,0.19-0.19,0.38c0.07,0.23-0.3-0.3-0.45,0.19l-0.08-0.19
	c0.15,0.04,0.26-0.11,0.34-0.19L7.21,29.8l-0.19,0.19c0.19,0.07-0.53-0.94-0.26-1.17c0.04-0.15-0.11-0.19-0.19-0.26H6.5
	c-0.56,0.34,0.38-0.19-0.19-0.26l-0.19-0.19l0.19-0.19c0.11,0.19,0.15,0.38,0.38,0.53c0.04-0.07,0.19-0.12,0.19-0.26
	c-0.34-0.08-0.07-0.19,0-0.34c0-0.15-0.15-0.19-0.19-0.3c-0.11,0.07-0.08,0.19-0.11,0.3l-0.26-0.45l-0.08,0.07
	c0.11-0.56-0.56-0.38-0.71-0.83l-0.11,0.11c-0.26-0.64-0.34-0.22-0.45-1.02H4.7c0.19-0.15,0.04-0.49-0.08-0.53
	c0.08,0.04,0.11-0.04,0.15-0.08l-0.53-0.19c0.07,0,0.11-0.04,0.19-0.11v-0.08l-0.83-0.07c0.79,0.11,0.11-0.64,0.45-0.83
	c-0.26,0.19-0.3-0.3-0.53-0.26l0.19-0.56H3.27c0.19-0.11,0.45-0.08,0.6-0.34l-0.34-0.64l0.64-0.08l-0.19-0.19l0.26-0.26
	c-0.6-0.19,0.04-0.87-0.53-1.02c0.04,0.11,0.15,0.08,0.26,0.11l0.19-0.19l-0.3-0.19l0.11-0.07c-0.04,0.49,0.75,0.07,0.9,0.34
	c-0.49-0.11,0.56-0.87-0.19-0.72V19.6h0.19c-0.08,0.19,0.08,0.26,0.19,0.38c0.11,0.04,0.15-0.11,0.26-0.19
	c-0.07-0.11-0.19-0.07-0.26-0.07c0.49,0.04-0.23-0.53,0-0.75l0.26,0.3l-0.19,0.15c0.15,0.3,0.26-0.15,0.45,0.11
	c-0.04-0.26,0.08-0.68-0.38-0.71c0.19-0.11,0.41-0.19,0.56-0.38l-0.11-0.07l0.19,0.26c0.11-0.56,0.45,0.04,0.71-0.26v-0.19
	c0.41,0.34,0.64-0.26,0.9-0.56c0.08-0.04,0.15-0.08,0.11-0.15L7.4,17.27c-0.11,0.04-0.07,0.15-0.07,0.26l-0.19-0.19
	c0.3,0.07,0.45-0.56,0.9-0.08l-0.38-0.83c0.34,0.11,0.38,0.41,0.71,0.45v-0.34c0.11-0.04,0.23,0,0.3-0.11l-0.64-0.26
	c0.38-0.04,0.49-0.41,0.79-0.26c0-0.49-0.71-0.53-0.45-1.09c0.26,0.11,0.19,0.53,0.56,0.38v-0.75h0.07v0.38
	c0.15-0.04,0.19,0.11,0.26,0.19c0.26-0.15-0.23-0.53,0.19-0.56l0.19,0.19c0.04-0.3,0.9-0.45,0.38-0.79
	C9.92,13.88,9.92,14,9.92,14.11c-0.11-0.04-0.3,0.07-0.34-0.12c0.3-0.38,0.6-0.68,0.34-1.17c0.11,0.07,0.15,0.22,0.26,0.19
	l0.11-0.08c-0.04-0.34-0.75-0.45-0.56-0.9c-0.04,0.15,0.11,0.22,0.19,0.34c0.11,0,0.23,0.04,0.26-0.08l-0.15-0.26
	c0.04,0.04,0.23,0.15,0.34,0.26c0.19-0.11,0.23-0.26,0.19-0.45c-0.11-0.19-0.3-0.23-0.45-0.11c-0.49,0,0.19,0.08,0.19-0.07
	l0.34-0.19c0.07-0.19-0.34,0.83,0.38,0.64c0.15-0.34,0.11-0.53,0.38-0.71l-0.19,0.19c0.23,0.11,0.98,0.08,1.24,0.34l0.19-0.19
	c-0.26-0.6-1.84-0.11-0.9-1.17c0.45,0.15,0.3,0.94,0.9,0.45l-0.34-0.34l0.53,0.34c-0.23-0.68,0.71-0.64,0.98-0.98
	c0.68-0.3,0.56,0.45,0.83,0.71c-0.41,0.38,0.41,0.79,0,1.09c0.3,0.04,0.3,0.04,0.53,0.26c-0.04-0.3,0.19-1.05-0.26-0.9
	c0.11-0.26,0.41-0.19,0.56,0h-0.11c-0.11,0.08,0,0.34,0.11,0.45l0.79-0.26l-0.26-0.38h0.38c-0.19,0.08-0.07,0.27-0.11,0.38
	l0.11,0.07l0.26-0.45c0.04,0.79-1.05,0.27-0.56,1.09c0.45-0.04,0.68,0.3,1.2,0.19l-0.3,0.19c0.19,0.3,0.53-0.3,0.56,0.15l0.19-0.15
	l-0.11-0.11c0.53,0,0.15-0.87,0.64-0.19c-0.11,0.07-0.07,0.19-0.07,0.3c0.07-0.08,0.53,0.15,0.6-0.19
	c-0.04-0.11-0.15-0.11-0.26-0.11v-0.08h0.26l-0.15,0.45c0.15-0.11,0.38,0.19,0.45,0.38c-0.08,0.08-0.23,0.11-0.19,0.26
	c0.3,0.22,0.26-0.3,0.64,0l-0.3-0.71l0.11,0.07l0.19-0.19l-0.3-0.26c-0.04,0.04-0.11,0.08-0.08,0.19h-0.07v-0.19
	c0.15-0.11,0.41,0.19,0.45-0.26l-0.38-0.38c0.15-0.04,0-0.23,0.19-0.19c0.11,0.04,0.3-0.08,0.34,0.11c0.08,0.15-0.07,0.22-0.15,0.34
	c0.19,0.3,0.3-0.19,0.53-0.15c0.04-0.11-0.04-0.15-0.08-0.19c0.3,0.04-0.41,0.67,0.26,0.71c0.15-0.11,0.04-0.38,0.08-0.53
	c0.07,0.04,0.11,0.11,0.19,0.08l-0.64-0.71c-0.11,0.26-0.23,0.04-0.53,0c-0.04,0-0.04-0.34,0.07-0.45l0.19,0.34l0.38-0.34
	l-0.64-0.71c-0.04,0.38-0.34-0.04-0.45,0.08c0.34-0.08,0.41-0.15,0.64-0.64c-0.11-0.19-0.3-0.19-0.45-0.08l0.26-0.26l-0.64-0.12
	l0.64-0.07c-0.04,0.07,0.04,0.11,0.07,0.19c0.08-0.12,0.23-0.15,0.19-0.3l-0.19-0.15l0.64,0.79c0.3-0.15,0.04-0.26,0-0.45h-0.19
	c0.15-0.38-0.45-0.56-0.53-0.9c-0.34,0.15,0.26,0.45-0.19,0.45c0.04-0.26-0.34-0.75-0.45-1.17l0.07-0.08l0.45,0.79l0.3-0.26
	c-0.08-0.04-0.11-0.11-0.19-0.07v-0.3c0.19,0.15,0.64-0.11,0.64-0.45c0-0.08-0.04-0.11-0.11-0.15l-0.45,0.45L19.31,6.7h0.07
	c0.19-0.11-0.04-0.26-0.07-0.38c-0.19,0.08-0.41,0.45-0.19,0.64c-0.07-0.15-0.86-0.34-0.83-0.26c0.19-0.45,1.2,0.19,0.56-0.53
	c0.23,0.04,0.38-0.12,0.45-0.3c-0.23-0.11-0.53-0.34-0.64-0.27c0.45-0.04,0.11-0.49,0.19-0.64L18.6,5.08
	c-0.04-0.19,0.08-0.41-0.11-0.56H18.3l0.3-0.15c-0.15-0.15-0.11-0.45-0.38-0.45l-0.07,0.26l0.26-0.45
	c-0.04,0.08,0.04,0.11,0.08,0.19c0.26-0.11,0.41-0.38,0.64-0.56c-0.3-0.11-0.45-0.56-0.64-0.26l0.38-0.53l0.08,0.08
	c0.15-0.23,0.08-0.53,0.26-0.71l0.19,0.34c0.68,0,0.41-0.49,0.71-0.71c-0.19-0.41-0.41,0.15-0.71,0.11c0.11,0.04,0.08-0.3-0.19-0.56
	l0.38,0.45l0.45-0.34l0.19,0.34l0.53-0.34l-0.45-0.45c0.26,0.23,0.56-0.07,0.83-0.11c0.04,0.07-0.04,0.15-0.11,0.19l0.19,0.19
	l0.26-0.27l-0.53-0.56h0.26c-0.11,0.23,0.19,0.3,0.26,0.45c0.45-0.26-0.15-0.3-0.08-0.64H21.64z"/>
</svg>
