<?xml version="1.0" encoding="utf-8"?>
<!-- Generator: Adobe Illustrator 15.0.0, SVG Export Plug-In  -->
<!DOCTYPE svg PUBLIC "-//W3C//DTD SVG 1.1 Tiny//EN" "http://www.w3.org/Graphics/SVG/1.1/DTD/svg11-tiny.dtd" [
	<!ENTITY ns_flows "http://ns.adobe.com/Flows/1.0/">
]>
<svg version="1.1" baseProfile="tiny"
	 xmlns="http://www.w3.org/2000/svg" xmlns:xlink="http://www.w3.org/1999/xlink" xmlns:a="http://ns.adobe.com/AdobeSVGViewerExtensions/3.0/"
	 x="0px" y="0px" width="600px" height="370px" overflow="visible" xml:space="preserve">
<defs>
</defs>
<path d="M363.22,187.66c0.8-0.13,1.7-0.28,2.7-0.45c11.04-1.81,31.57-5.19,49.08-11.37c0.74,0.07,1.52,0.12,2.33,0.15
	c-4.82,2.75-16.66,8.16-25.68,10.21c-1.09,0.25-2.34,0.47-3.7,0.67c-3.33,0.48-7.51,0.8-12.1,0.93h0
	C370.85,187.94,366.24,187.84,363.22,187.66 M357.05,185.84L357.05,185.84c1.74-0.05,3.43-0.16,5.02-0.31
	c1.47-0.15,3.15-0.35,4.98-0.62c14.11-2.02,35.51-7.05,44.56-9.6c-0.27-0.06-0.53-0.13-0.78-0.2c-4.65,0.84-9.5,1.62-14.43,2.33
	c-24.76,3.55-47.25,4.59-59.33,5.14c-2.71,0.12-4.92,0.23-6.57,0.33C334.63,184.13,345.77,186.16,357.05,185.84 M416.88,184.13
	c4.94-2.21,6.68-6.64,6.57-8.28c-0.96,0.07-1.91,0.12-2.85,0.15l-0.34,0.01c-6.02,5.45-19.1,9.72-26.15,12.02
	c-0.15,0.05-0.29,0.1-0.43,0.14c2.68-0.21,6.41-0.62,10.19-1.16C410.1,186.12,414.72,185.09,416.88,184.13 M447.15,177.39
	c-5.13-0.84-9.96-2.13-12.36-3.02C438.01,175.93,442.65,176.84,447.15,177.39 M494.43,164.65c-1.23,0.23-2.6,0.49-4.1,0.76
	c-4.05,0.74-10.27,1.85-17.57,2.89c-11.36,1.63-22.31,2.68-32.57,3.11c-0.22,0.16-0.45,0.31-0.71,0.46
	c5.03,0.29,14.88,0.5,24.19,0.23h0c5.47-0.16,9.92-0.45,13.24-0.88c0.21-0.03,0.42-0.06,0.63-0.09c8.86-1.27,17.86-5.27,21.15-7.27
	C497.56,164.07,496.11,164.34,494.43,164.65 M478.46,173.38c-0.4,0.02-0.83,0.05-1.28,0.07c-3.34,0.19-7.92,0.46-13.11,0.61
	c-10.69,0.31-19.8-0.03-27.07-1c-0.46,0.18-0.95,0.36-1.46,0.53c3.96,1.39,13.34,3.62,20.53,3.65c1.89,0.01,4.22-0.19,6.99-0.59
	C468.62,175.85,474.71,174.42,478.46,173.38 M337,180.13c1.85,0.01,4-0.02,6.37-0.09c16.42-0.47,43.1-2.77,59.48-5.12
	c2.09-0.3,3.95-0.59,5.57-0.88c-0.13-0.09-0.26-0.19-0.37-0.29c-0.15-0.13-0.28-0.27-0.39-0.42c-9.39,0.63-18.83,1.09-28.07,1.35
	c-29.22,0.84-50.92-0.38-62.58-1.04c-3.59-0.2-6.27-0.35-8.1-0.39C309.98,174.94,320.62,180.04,337,180.13 M436.39,180.6l0.17,0.01
	c4.07,0.3,13.89-0.58,20.14-1.42c-6.55-0.37-18.44-1.19-23.93-4.82c-0.84,0.21-1.72,0.4-2.63,0.57c-0.02,0.05-0.03,0.1-0.04,0.16
	l-0.11,0.54l-0.53-0.16c-0.33-0.1-0.65-0.19-0.93-0.25c-0.4,0.07-0.81,0.13-1.21,0.19c-0.4,0.06-0.8,0.11-1.19,0.16
	c0.48,0.83,0.65,1.7,0.49,2.6c-0.56,3.25-5.13,6.03-8.11,7.78c5.12-1.04,15.05-3.53,17.74-5.27L436.39,180.6z M487.47,129.58
	c-0.95,0.71-2.13,1.89-3.74,3.5c-6.14,6.15-18.81,18.82-47.76,32.41c0.99,0.16,1.88,0.35,2.64,0.59
	c12.17-3.75,45.19-16.12,54.81-22.77c2.94-2.03,4.11-4.25,3.48-6.6C495.91,133.05,490.58,129.92,487.47,129.58 M304.28,162.59
	c0.63,2.49,7.4,8.41,23.46,9.78c14.49,1.24,42.25,0.62,53.51,0.3h0c10.33-0.3,20.26-0.72,26.08-1.12c0.1-0.3,0.27-0.6,0.52-0.9
	c-45.55-0.53-78.3-5.34-94.11-7.67c-4.22-0.62-7.3-1.07-9.32-1.27C304.29,161.85,304.16,162.1,304.28,162.59 M457.43,122.4
	c-0.46,0.81-0.85,2.17-1.34,3.86c-2.09,7.2-6.39,22.02-28.31,38.87c0.25-0.01,0.51-0.02,0.76-0.03c1.17-0.03,2.31-0.03,3.39,0.01
	c10.59-4.91,38.75-21.19,44.18-28.86c1.09-1.55,1.22-3.08,0.38-4.68C473.71,126.29,461.96,122.51,457.43,122.4 M410.4,169.94
	l-0.13,0c-0.23,0-0.46,0-0.7-0.01l0.27,0.32l-0.43,0.32c-0.73,0.53-1.13,1.05-1.17,1.5l-0.02,0.26l0.14,0.26
	c0.08,0.14,0.2,0.29,0.35,0.42c0.33,0.29,0.81,0.56,1.42,0.8l0.74,0.3l0-0.03l0.12,0.02c0.82,0.24,1.77,0.44,2.85,0.59l0.04,0.47
	c0.3-0.1,0.6-0.21,0.9-0.31l0.11-0.04l0.11,0.01c0.49,0.05,1,0.09,1.52,0.12c-2.62-0.27-4.57-0.86-5.52-1.7
	c-0.76-0.67-0.77-1.37-0.64-1.83c0.4-1.42,2.6-2.6,5.32-3.47l-0.05,0.01l0.15-0.28c-0.43-0.04-0.87-0.08-1.31-0.13l0.07,0.71
	c-1.6,0.49-2.95,1.03-4.01,1.61L410.4,169.94z M441.74,168.2c16.05-2.67,48.99-11.97,60.2-17.02c5.21-2.35,7.98-5.53,7.6-8.75
	c-0.24-2.04-1.73-3.55-3.09-3.89c-1.16,0.55-2.71,1.46-4.81,2.7c-8.52,5.01-26.16,15.38-60.51,26.14
	C441.41,167.63,441.61,167.9,441.74,168.2 M310.94,148.1c-1.2,0.57-1.86,1.97-1.7,3.61c0.38,3.76,4.9,8.58,16.46,10.84
	c18.55,3.62,67.62,6.21,84.44,6.39c0.57-0.3,1.21-0.6,1.92-0.88c-46.5-4.81-77.35-13.45-92.3-17.63
	C315.79,149.32,312.88,148.5,310.94,148.1 M358.65,167.31c8.07,0.68,16.93,1.28,26.55,1.71
	C376.78,168.58,367.52,168.01,358.65,167.31 M429.34,174.27l0.05-0.09c-0.18,0.04-0.35,0.07-0.53,0.1c0.13,0.03,0.28,0.07,0.42,0.11
	C429.3,174.35,429.32,174.31,429.34,174.27 M422.21,167.51c-0.48,0.07-0.96,0.15-1.44,0.23c-5.77,1.01-9.13,2.75-9.47,3.95
	c-0.05,0.17-0.07,0.45,0.34,0.81c1.25,1.1,5.03,1.73,9.64,1.6c1.77-0.05,3.59-0.21,5.38-0.46c0.49-0.07,0.97-0.15,1.46-0.23
	c5.76-1.01,9.12-2.75,9.46-3.95c0.05-0.18,0.07-0.45-0.34-0.81c-1.25-1.1-5.04-1.73-9.65-1.59
	C425.83,167.1,424.01,167.25,422.21,167.51 M462.18,335.98c-18.48,4.11-20.67,6.67-27.04,10.29c5.46-2.04,37.71-8.12,61.21-14.79
	c14.54-4.13,56.08-20.25,56.08-20.25s-6.42-1.21-11.17,0.92S499.68,327.65,462.18,335.98 M101.13,99.9c-0.15,0-15-0.01-28.68-1
	l-0.14,2c13.75,0.99,28.67,1,28.82,1V99.9z M572.12,277.62c0.11-0.4-2.77-0.82-3.2-0.43c-0.77,0.65,2.19,1.83,2.77,2.04
	C571.82,278.73,571.98,278.13,572.12,277.62 M307.13,357.4c-31.48-6.25-59.6-16.07-77.39-25.69l-0.48,0.88
	c17.87,9.67,46.23,18.81,77.81,25.08L307.13,357.4z M25.13,101.15c0.19-2.19,0-4.12,0-4.12l-4.38-1.25
	C20.76,95.78,21.7,100.53,25.13,101.15 M26.03,91.96l-5.55-2.58v1.56l5.17,2.83L26.03,91.96z M560.76,179.03
	c1.62-0.62,4.67,2.83,7.29,4.33c0.88-5.75-3.42-14.58-4.42-15.83c-0.22,1.22-5.81,6.99-7.02,8.24
	c-20.67-35.16-86.92-62.24-126.67-78.49c-6.32-2.58-12.29-5.08-16.99-7.1l0.11,1.19c4.71,2.02,10.17,4.26,16.5,6.84
	c40.07,16.38,108.05,44.29,127.77,79.7v0c1.23,2.85,3.17,7.58,3.17,7.58s0.77-0.01,0.63-0.91
	C560.85,182.8,559.68,179.44,560.76,179.03 M587.04,251.44l-0.16,0.57c0.01-0.01,0.01-0.02,0.02-0.03
	c-0.12,0.47-0.27,0.97-0.42,1.47l-0.09,0.33c0,0,0,0,0,0.01c-0.62,2.05-1.44,4.4-2.41,7.04l-0.45,0.72
	c-1.18,4.1-3.19,11.38-4.73,18.45c9.27,15.72-12.95,32.09-13.18,32.24l-0.13,0.08h-10.87c-3.02,1.48-32.01,14.71-44.71,18.81
	c-16.52,5.33-58.09,15.71-73.18,17.35c-5.5,0.6-11.2,4.07-15.78,6.85c-3.11,1.89-5.8,3.53-7.7,3.81
	c-6.03,0.89-30.43,3.44-59.03,3.44c-9.94,0-20.39-0.31-30.75-1.1c-28.15-2.15-64.98-11.49-84.76-16.51
	c-3.7-0.94-6.86-1.74-9.32-2.33l0.23-0.97c2.46,0.59,5.62,1.4,9.33,2.34c19.76,5.01,56.53,14.35,84.59,16.49
	c40.07,3.06,81.46-1.13,89.56-2.33c1.7-0.25,4.31-1.84,7.33-3.68c4.66-2.84,10.46-6.37,16.19-6.99
	c14.76-1.61,56.89-12.12,72.99-17.31c12.83-4.14,42.33-17.63,44.68-18.8l0.11-0.05h10.8c1.72-1.19,19.99-14.91,13.08-28.86
	c-2.37,10.95-10.62,15.73-13.76,18.7c-3.17,3-5.17-0.33-5.5-2.83s4-16.17,5.5-23.17c9.25-5.19,15.41-11.23,17.81-14.41
	c0.39-1.1,0.97-2.37,1.44-3.5c0.3-0.71-0.21-0.83-0.7-0.32c-3.51,3.67-8.06,7.08-11.19,9.44c-0.79,0.59-1.47,1.1-1.99,1.51
	l-0.62-0.79c0.53-0.42,1.22-0.93,2.01-1.53c3.79-2.84,10.45-7.85,13.84-12.64c1.2-5.21,0.29-6.52,0.12-6.7l-0.55-0.19l-0.01-0.7
	c0-0.27-0.42-26.9-1.15-31.53c-0.62-3.92-1.89-9.23-6.03-16.37c-0.05-0.07-0.12-0.08-0.2-0.07c-0.07,10.7-8.73,17.49-8.83,17.56
	l-0.46,0.4c2.81,18.29,2.77,37.6-0.35,52.27l-0.98-0.21c3.97-18.65,2.93-44.9-2.66-66.86l0.97-0.25c0.23,0.89,0.43,1.8,0.65,2.7
	l0.29-0.13c0.06-0.05,5.93-5.22,6.06-8.46c0.12-2.91-2.42-18.02-5.17-24.17c0.1,0.16,0.21,0.35,0.31,0.52
	c-0.19-0.32-0.34-0.59-0.31-0.52c-1.3-2.1-2.22-3.22-2.25-3.25l-0.18-0.21l-0.04-0.28c0-0.01-0.34-1.76-2.63-5.85
	c-24.51-21-112.21-56.84-148.83-71.3l-1.6-2.24c36.78,14.52,127.31,50.96,151.87,72.14l0.13,0.11l0.08,0.15
	c2.09,3.69,2.71,5.67,2.89,6.38c1.2,1.5,8.35,10.98,11.19,27.66c5.74,8.91,7.31,15.35,8.04,19.96c0.71,4.47,1.11,27.58,1.17,31.33
	c0.18,0.19,0.38,0.45,0.54,0.81C587.8,246.88,587.67,248.84,587.04,251.44 M576.26,198.51l-0.73-4.44
	c-1.16-6.91-3.33-12.23-5.32-16.48c1.69,6.81,2.88,14.73,2.79,16.84c-0.13,3.33-5.09,7.99-6.19,8.99l1.72,10.17
	C570.4,211.88,575.73,206.39,576.26,198.51 M577.27,196.03c0-0.1,0-0.2-0.01-0.3c-0.65-7.01-6.27-23.78-10.65-27.94l-0.38,0.34
	c0.65,0.65,1.96,3.63,1.95,3.62c0.4,0.7,0.62,1.45,0.92,2.29C572.3,179.74,576.18,190.47,577.27,196.03 M572.33,279.48
	c0.02-0.08,0.82-2.41,0.48-2.52c-0.97-0.34-4.74-1.03-4.71,0.56c0.02,0.95,3.27,2.11,3.46,2.18c-0.03,0.1-0.4,1.47-0.55,2.06
	c-0.33-0.33-0.62-0.71-0.88-0.9c-0.46-0.35-0.99-0.59-1.65-0.64c-0.66-0.06-0.97,0.24-1.3,0.62c0.12,0.08,0.26-0.03,0.47-0.11
	c1.69-0.59,2.39,0.82,3.2,1.62c-0.22,0.81-0.44,1.62-0.65,2.43c-1.1-0.18-2.09-1.62-2.55-2.23c-0.26-0.34-0.35-0.42-0.21,0.11
	c0.53,1.99,2.54,2.92,2.54,2.92c0.42,0.16,0.74-0.07,0.77-0.21c0.22-0.82,0.44-1.64,0.66-2.46c0.11,0.1,1.97,2.67,3.9,1.6
	C577.24,283.44,574.68,280.43,572.33,279.48 M572.2,279.97c-0.21,0.78-0.42,1.57-0.63,2.35c0.77,0.76,2.2,1.76,3.22,1.13
	S573.85,280.54,572.2,279.97 M511.29,151.4c0.03-0.17,0.03-0.31,0-0.41c-1.39,0.4-3.48,1.12-6.29,2.1
	c-11.46,3.98-32.76,11.37-63.25,16.58c-0.03,0.08-0.07,0.16-0.11,0.24c6.34-0.51,18.94-1.92,30.6-3.6
	c7.25-1.04,17.15-2.61,23.16-4.2C505.82,159.37,510.89,153.78,511.29,151.4 M255.52,302.07c-1.79,1.22-2.24,2.97-2.34,3.67
	c-0.09,0.59-0.27,1.69-0.49,3.05c-0.59,3.65-1.48,9.17-1.85,11.97c-0.25,1.9-0.69,2.99-1.4,3.4c-0.64,0.38-1.62,0.28-3.08-0.3
	c-3.3-1.32-21.65-8.43-21.84-8.5l-0.36,0.93c0.19,0.07,18.54,7.18,21.83,8.5c0.99,0.4,1.82,0.59,2.53,0.59
	c0.55,0,1.02-0.12,1.43-0.36c1.01-0.59,1.59-1.87,1.89-4.13c0.36-2.78,1.25-8.29,1.84-11.93c0.22-1.36,0.4-2.46,0.49-3.05
	c0.09-0.57,0.45-2,1.92-2.99c1.59-1.08,4-1.28,6.98-0.6c32.89,7.58,112.58,12.67,155.25,7.59l-0.05-0.44
	c-42.58,5.07-122.16-0.56-154.98-8.12C259.99,300.57,257.38,300.82,255.52,302.07 M59.13,109.78v2l6.62,3.62l0.5-2.31L59.13,109.78z
	 M269.01,294.9c4.21,1.01,20.05,4.85,24.75,5.01c3.62,0.12,3.75-1.01,3.12-3.14c-0.38-1.29-2.5-7.12-3-8.38s-1-1.75-4.88-2.38
	s-20.88-4.12-22.62-4.5s-3.62-0.38-3.12,2.88S264.83,293.9,269.01,294.9 M327.79,133.99c-3.26,1-9.15,4.71-9.26,8.55
	c-0.07,2.58,2.65,4.91,7.87,6.73c17.25,6.01,64.29,15.15,89.94,17.47l1.26-0.3l-0.01,0.02c0.73-0.16,1.5-0.32,2.3-0.46
	c0.57-0.1,1.15-0.19,1.72-0.27c0.62-0.09,1.23-0.17,1.85-0.24l0-0.01l0.17-0.02c12.42-8.86,26.7-28.86,26.86-37.63
	c0.02-1.17-0.49-2.28-1.52-3.3c-5.12-5.07-21.44-6.86-28.63-6.66c-0.21,0-0.4,0.01-0.59,0.02c0.14,0.86,0.56,2.17,1.07,3.77
	c2.51,7.8,7.73,24.05-2.39,43.31l-0.18,0.34l-0.38-0.09c-42.77-9.82-69.77-22.12-82.74-28.03
	C331.83,135.69,329.42,134.59,327.79,133.99 M254.68,327.98c0.33-5.17,1.9-14.17,2.67-17c0.76-2.83,2.56-5.23,9.67-3.17
	c17.17,5,104.25,14.08,155.75,6.33c8.25-0.38,6.12,21.25,6.12,21.25s-6.38,10.88-19.88,13c-56.45,8.89-137.67-5.25-147.5-9.08
	C257.28,337.67,254.34,333.15,254.68,327.98 M413.22,330.82c-24.3,1.83-49.85,2.19-71.92,1.04l-0.05,1
	c8.47,0.44,17.44,0.67,26.66,0.67c14.86,0,30.36-0.57,45.38-1.7L413.22,330.82z M267.12,314.63c8.42,2.42,47.01,9.83,99.29,9.83
	c13.93,0,28.83-0.53,44.39-1.81l-0.08-1c-73.8,6.1-132.7-4.92-143.32-7.98L267.12,314.63z M263.04,331.13
	c12.31,3.5,55,10.69,103.81,10.69c15.14,0,30.88-0.69,46.47-2.4l-0.11-0.99c-65.71,7.21-133.81-3.69-149.89-8.26L263.04,331.13z
	 M63.53,124.04c3.67,0,3.29-3.49,3.29-3.49l-8.44-3.66C58.38,116.9,59.15,124.04,63.53,124.04 M28.44,170
	c15.82,17.12,82.48,71.2,98.34,81.98l1.12-1.65c-15.81-10.75-82.24-64.63-97.99-81.69L28.44,170z M151.58,186.48
	c15.52-2.25,28.48,15.42,36.62,30.64c9.4,17.57,15.31,36.98,16.57,43.13l0.26-0.05c-2.14-10.5-22.67-79.21-53.59-74.71
	c-24.33,3.53-22.8,41.45-21.52,54.57c-31.59-18.01-97.08-75.53-97.74-76.12l-0.66,0.75c0.67,0.59,67.4,59.2,98.75,76.71l0.84,0.47
	l-0.1-0.96C129.75,229.03,127.51,189.98,151.58,186.48 M292.06,237.66c0.37,0.03,0.74,0.05,1.11,0.08c-0.25-0.08-0.5-0.17-0.74-0.26
	C292.3,237.53,292.18,237.6,292.06,237.66 M251.18,277.46l0.33-0.94c-5.2-1.83-42.98-13.04-48.92-14.8
	c0.14,0.39,0.27,0.76,0.41,1.13C207.1,264.07,245.86,275.58,251.18,277.46 M296.33,212.44c0.85,0.83,1.6,1.76,2.24,2.78
	c1.75-2.02,3.99-3.56,6.54-4.42c-0.1-0.06-0.2-0.13-0.3-0.19c-0.47-0.05-0.94-0.07-1.42-0.07
	C300.83,210.53,298.42,211.23,296.33,212.44 M293.12,235.95c1.33-0.81,2.51-1.84,3.51-3.05c-1.19-2.21-1.88-4.75-1.88-7.45
	c0-3.54,1.18-6.8,3.14-9.41c-0.68-1.13-1.5-2.16-2.45-3.06c-3.94,2.67-6.54,7.25-6.54,12.47
	C288.91,229.55,290.52,233.26,293.12,235.95 M316.65,219.46c0.69-1.62,1.65-3.08,2.83-4.34c-2.52-2.52-5.95-4.08-9.73-4.08
	c-0.7,0-1.39,0.07-2.06,0.17C311.7,212.49,314.97,215.53,316.65,219.46 M297.31,232.01c1.67-2.38,2.67-5.29,2.67-8.44
	c0-2.36-0.57-4.59-1.55-6.56c-1.67,2.38-2.67,5.29-2.67,8.44C295.76,227.81,296.32,230.04,297.31,232.01 M357.47,203.99l0.01,0.02
	c0.02,0.02,0.05,0.04,0.07,0.06C357.53,204.04,357.5,204.01,357.47,203.99 M103.22,125.95C81.98,115.82,9.72,78.09,8.99,77.71
	L8.53,78.6c0.73,0.38,73,38.12,94.27,48.26c4.39,2.09,107.52,51.45,134.63,80.16c0.1-0.34,0.25-0.67,0.45-0.98
	C210.22,177.15,107.6,128.04,103.22,125.95 M283.18,223.57c0-5.86,3.29-10.92,8.06-13.36c-1.62-0.68-3.39-1.06-5.25-1.06
	c-7.71,0-13.99,6.47-13.99,14.42c0,5.88,3.44,10.94,8.35,13.18c3.01,0.25,6.11,0.49,9.27,0.72c0.55-0.15,1.09-0.33,1.6-0.55
	C286.46,234.49,283.18,229.43,283.18,223.57 M392.08,63.58c7.08-1.37,11.36-2.19,14.61-0.38c3.41,1.89,10.37,7.68,11.8,13.1
	c0.39,1.47,0.32,2.76-0.19,3.91c-0.12,1.02-1.23,3.09-7.38,5.22l0.34,1.36c0.26-0.06,6.42-1.64,8.44-4.95
	c1.08-1.76,1.32-3.8,0.73-6.05c-1.68-6.36-9.47-12.51-12.76-14.34c-3.89-2.16-8.43-1.28-15.96,0.17c-1.45,0.28-5.56,0.92-7.25,1.22
	l2.44,1.94C388.58,64.47,390.62,63.86,392.08,63.58 M417.99,80.8c0.12-0.19,0.22-0.39,0.31-0.59c0.02-0.19,0.01-0.35,0-0.46
	c-1.59,0.96-8.84,4.09-8.84,4.09l-0.65-0.71c0,0,8.12-4.07,9.31-4.63c0.19-0.31,0.48-0.56,0.22-2.34
	c-2.69,1.12-12.31,5.42-12.31,5.42s2.43,2.46,4.62,3.96c0.1-0.03,0.18-0.07,0.28-0.1l-0.14-0.58
	C412.32,84.46,416.66,82.97,417.99,80.8 M357.56,204.07c1.7,1.62,3.37,3.24,5.02,4.85C361.32,207.41,359.62,205.79,357.56,204.07
	 M403.74,260.72c12.41,22.86,20.59,46.79,22.8,53.59l0.33-0.11c-2.22-6.81-9.8-31.03-22.24-53.96
	c-4.77-8.78-11.18-17.67-18.84-26.72c-0.3-0.02-0.59-0.04-0.87-0.07C392.53,242.66,398.83,251.69,403.74,260.72 M399.97,233.9
	c2.35,0,4.79-0.02,7.3-0.04c2.54-0.02,4.9-0.05,6.94-0.04c-0.15-0.35-0.3-0.67-0.45-1c-1.94,0-4.14,0.02-6.51,0.04
	c-6.85,0.06-15.67,0.15-22.38-0.4c0.3,0.35,0.59,0.71,0.89,1.06C389.81,233.81,394.66,233.9,399.97,233.9 M414.51,232.82
	c-0.24,0-0.5,0-0.75,0c-0.17-0.38-0.34-0.77-0.51-1.13c-9.25-20.16,1.12-23.6,7.73-25.21c5.12-1.25,88.52-21.36,118.36-20.99
	c5.76,0.07,10.98,0.91,15.83,16.87l8.26-4.79c0,0,0.04,0.24-0.43,0.61c-1.47,1.15-5.1,3.67-7.52,5.24
	c6.3,22.5,7.8,93.86-12.47,104.48c-12.31,6.46-72.75,24.5-81.5,25.5s-16.11,4.06-18.25-8.5c-4.1-24.08-20.26-71.1-29.05-91.08
	c0.1,0,0.2,0,0.29,0L414.51,232.82z M463.07,303.5c0-1.16-1.01-2.09-2.25-2.09s-2.25,0.94-2.25,2.09s1.01,2.09,2.25,2.09
	S463.07,304.65,463.07,303.5 M464.01,293.51c0-1.16-1.01-2.09-2.25-2.09s-2.25,0.94-2.25,2.09s1.01,2.09,2.25,2.09
	S464.01,294.67,464.01,293.51 M554.79,240.84l-22.83,4.92l0.21,0.98l22.83-4.92L554.79,240.84z M554.24,230.45l-22.83,4.92
	l0.21,0.98l22.83-4.92L554.24,230.45z M552.42,220.25l-22.83,4.92l0.21,0.98l22.83-4.92L552.42,220.25z M527.07,215.33l0.21,0.98
	l22.83-4.92l-0.21-0.98L527.07,215.33z M524.91,204.2l0.21,0.98l22.83-4.91l-0.21-0.98L524.91,204.2z M461.76,280.97
	c-1.24,0-2.25,0.94-2.25,2.09c0,1.16,1.01,2.09,2.25,2.09s2.25-0.94,2.25-2.09C464.01,281.91,463,280.97,461.76,280.97
	 M460.82,270.62c-1.24,0-2.25,0.94-2.25,2.09c0,1.16,1.01,2.09,2.25,2.09s2.25-0.94,2.25-2.09
	C463.07,271.55,462.07,270.62,460.82,270.62 M459.51,259.97c-1.24,0-2.25,0.94-2.25,2.09s1.01,2.09,2.25,2.09s2.25-0.94,2.25-2.09
	S460.75,259.97,459.51,259.97 M458.57,250.54c-1.24,0-2.25,0.94-2.25,2.09s1.01,2.09,2.25,2.09s2.25-0.94,2.25-2.09
	S459.82,250.54,458.57,250.54 M455.01,239.23c-1.24,0-2.25,0.94-2.25,2.09s1.01,2.09,2.25,2.09s2.25-0.94,2.25-2.09
	S456.25,239.23,455.01,239.23 M450.51,229.97c0,1.16,1.01,2.09,2.25,2.09s2.25-0.94,2.25-2.09s-1.01-2.09-2.25-2.09
	S450.51,228.81,450.51,229.97 M446.01,218.65c0,1.16,1.01,2.09,2.25,2.09s2.25-0.94,2.25-2.09s-1.01-2.09-2.25-2.09
	S446.01,217.5,446.01,218.65 M437.77,249.19c0,1.16,1.01,2.09,2.25,2.09s2.25-0.94,2.25-2.09c0-1.15-1.01-2.09-2.25-2.09
	S437.77,248.03,437.77,249.19 M343.9,225.45c0-6.39-4.17-12.09-10.13-13.85l-0.68-0.2c-4.28,1.56-7.64,5.12-9,9.59
	c0.42,1.41,0.64,2.91,0.64,4.46s-0.23,3.04-0.64,4.46c1.36,4.48,4.72,8.04,9,9.59l0.68-0.2C339.73,237.54,343.9,231.84,343.9,225.45
	 M363.46,210.34c7.64,7.53,14.5,14.85,20.53,22.04c0.29,0.03,0.58,0.05,0.88,0.08c-6.6-7.71-14.11-15.54-22.3-23.54
	c0.38,0.45,0.72,0.9,1.02,1.33L363.46,210.34z M328.8,22.98l0.25-0.43c27.55,14.8,79.46,62.66,82.93,67.29
	c-16,1.25-152.97,14.31-167.97,15.31c-45.76,3.05-73.43,6.38-78.56,7.82c-1.33-0.53-2.23-0.88-2.63-1.03l-0.18,0.47
	c0,0-8.96,1.42-11.29-7.75s-17.1-67.38-19-75c-1-4,2.5-3.33,3.67-2c11.17-1.33,65.01-8.17,107-9c34.12-0.68,65.9-0.27,81.29,1.86
	C325.84,21.31,327.35,22.13,328.8,22.98 M188.76,32.15c0,0-40,2.38-44,3.25s-3,3.5-3,3.5l1.75,5.88l8.38,0.25l1.38,2
	c0,0,7.38,0.25,14.12,0c1.5-3.38,11.38-2.25,11.38-2.25L188.76,32.15z M222.26,30.65c-0.38,0-10.5,14.12-12.75,19
	c5.88,0.5,10.75,0,10.75,0s-0.25-9.5,3.75-12.12C224.13,33.65,222.26,30.65,222.26,30.65 M248.01,33.15l-2.5-3.63l-10.25,1.13v2.5
	H248.01z M257.4,33.65h6.18l3.41,2.75l2.08-1.51l-6.12-8.97l-9.15,3.38L257.4,33.65z M282.26,64.15c0,0-0.88-3.25-3.62-7.38
	c-7.88-0.25-8.25-6.9-8.25-6.9s-5-3.35-7.62-4.35c1.25,2.25,1.88,15.62,1.88,15.62L282.26,64.15z M323.33,74.42l-1.18-0.75
	c-0.13-0.08-3.16-1.98-8.01-1.98c-1.57,0-3.17,0.2-4.75,0.61l-0.59,0.15l1.67,3.5L323.33,74.42z M303.84,30.65
	c-12.67-1.83-16.5-1.13-16.5-1.13s18.17,33.79,20.33,37.29c8.67-0.17,12.59-1.17,21.38,7.5c9.12,1.5,27.12,8.5,30.96,10.17
	c6,0.17,13.67,0.83,14.5,1.33c-0.5-3.17-2.67-7.67-2.67-7.67S333.17,35.99,303.84,30.65 M162.63,112.4l-0.18,0.46
	c1.79,0.7,175.82,68.84,199.24,96.55c0.19,0,0.39-0.01,0.57-0.02c0.32,0.38,0.61,0.76,0.92,1.14l0.29-0.2
	c-1.73-1.71-3.49-3.42-5.3-5.15l-0.68-1.19c-34.04-28.26-170.48-82.55-192.04-91.04c-0.41,0.11-0.7,0.22-0.81,0.31L162.63,112.4z
	 M378.27,231.51c0.24,0.39,0.47,0.77,0.7,1.15c1.65,0.35,3.64,0.61,5.93,0.79c-0.29-0.35-0.6-0.71-0.9-1.07
	C381.76,232.18,379.8,231.9,378.27,231.51 M297.17,233.81c-0.96,1.11-2.07,2.07-3.31,2.86c0.5,0.45,1.02,0.86,1.57,1.23
	c1.6,0.11,3.21,0.23,4.82,0.33c0.29-0.05,0.58-0.12,0.87-0.19C299.56,236.9,298.21,235.46,297.17,233.81 M378.97,232.66
	c3.19,5.25,5.29,9.4,6.54,12.25c2.75,6.25,2.48,9.89-5,10.5c-44.6,3.66-121.5-7-134.5-10.75c0,0-6.46-24.06-8-31.25
	c-0.37-1.72-1.22-4.33-0.59-6.39c0.07,0.08,0.15,0.16,0.22,0.23l0.73-0.68c-0.16-0.17-0.34-0.35-0.51-0.53
	c1.02-1.59,3.39-2.61,8.39-2.13c11.65,1.12,93.09,6.16,115.43,5.52c0.4,0.48,0.77,0.95,1.08,1.4l0.41-0.28
	c6.57,8.09,11.49,15.16,15.09,20.97c-1.75-0.44-2.93-1.02-3.31-1.76l-0.89,0.45C374.63,231.31,376.37,232.1,378.97,232.66
	 M376.84,246.49c0,0-9.67-22.67-19.17-33.33c-5.5-1.17-4.17,0-4.17,0s9.5,13.27,12.33,27.22c-3.22,0.56-12.46,0.52-24.53,0.08
	c6.62-1.59,11.58-7.71,11.58-15c0-8.5-6.72-15.42-14.99-15.42c-1.38,0-2.77,0.21-4.14,0.61l-0.8,0.24
	c-0.99-0.22-2.01-0.34-3.06-0.34c-3.75,0-7.15,1.48-9.72,3.88c-2.7-2.71-6.38-4.38-10.44-4.38c-1.51,0-2.96,0.24-4.33,0.66
	c-0.2-0.03-0.39-0.07-0.59-0.09c-2.11-1.24-4.55-1.96-7.16-1.96c-1.85,0-3.6,0.37-5.23,1.02c-1.95-0.96-4.13-1.52-6.44-1.52
	c-8.27,0-14.99,6.92-14.99,15.42c0,5.45,2.78,10.24,6.94,12.98c-11.92-1-22.22-2.04-28.6-2.97c-2.3-5.37-5.2-12.38-7.59-18.93
	c-0.81-2.22-1.5-4.12-2.88-6l9.29,33l5.17,1c0,0-1.02-2.24-2.55-5.74C289.5,242.85,333.95,248.46,376.84,246.49 M329.31,22.12
	l-0.25,0.43c-1.32-0.71-2.59-1.35-3.79-1.9c-0.31-0.05-0.64-0.09-0.96-0.14c-15.26-7.83-34.57-12.56-53.95-15.4
	c-1.62-0.53-3.09-0.92-4.06-1.05c-6.28-1.45-17.22-2.25-30.19-2.61c0.05,0.11,0.07,0.23,0.05,0.34c10.84,0.6,22.52,1.61,34.2,3.32
	c5.39,1.75,12.47,4.95,8.66,4.43c-22.06-3.03-98.5,1.77-107.17,2.6c-8.67,0.83-17.5,1.67-21.33,0c-3.83-1.67-14.99-5.05-21-6.17
	c-1.04-0.19,1.19-1.08,4.34-1.75c-0.04-0.06-0.06-0.13-0.07-0.2C109.27,6.29,85.67,9.98,70.56,15.5
	c-11.21,4.09-23.95,15.37-37.93,33.52c0.04,0.01,0.08,0.02,0.12,0.04c0.95-1.11,1.98-2.32,3.13-3.65
	c11.83-13.67,29.96-31.42,58.62-31.42c25.17,0,31,19.83,35.67,37.5c4.67,17.67,8.83,65.79,8.83,65.79l-3.12-0.25l1.38,1.5v2l-13.5-8
	h-2.88l-7-3.88c-10.63,0.06-26.65-0.92-34.04-1.83c-6.1-0.76-7.08-3.33-6.83-4.42c4.25,1,47.62,2.62,47.62,2.62l0.38-5.88l4.75-1
	c0,0,0.88-1,0-2.25c-10.62,0.25-7.88-15.38-12.75-18.75c-1.95-1.35-8.67-1.67-22.5-0.5c-13.83,1.17-16.38,9.25-18.38,13.62
	C70.76,90.15,22.38,66.9,22.38,66.9c-3.38-1.62,2-3,2-3l-1-3c0,0,0.06-0.13,0.28-0.49c-0.11-0.06-0.23-0.11-0.34-0.15
	c-4.96,0.78-14.87,4.09-17.58,18.08c-2.12,10.94-2.11,21.15-2.11,27.91c0,3.25,0,5.6-0.22,7.05c-0.04,0.27-0.09,0.59-0.15,0.97
	c-0.74,4.49-2.62,16.03,0.41,26.62c-1.46-8.99-2.67-23.8,2.67-26.12c5.08-2.2,13.86,29.91,17.5,43.71
	c2.36,8.92,7.29,32.92,16.17,36.92c4.25,1.92,7.74,5.12,11.43,7.9c3.63,2.73,7.26,5.44,10.88,8.19c4.46,3.38,8.89,6.8,13.26,10.29
	c24.91,19.91,58.81,47.01,70.17,56.49c0.06,0.68,0.1,1.42,0.13,2.25c0.01,0.24,0.04,0.54,0.07,0.89
	c-11.68-9.75-46.9-38.31-71.62-58.07c-11.56-9.24-20.79-16.62-24.7-19.79c-0.01,0-0.02,0.01-0.03,0.01
	c-0.03,0.01-0.06,0.01-0.09,0.02c-0.52,3.09-2.68,5.77-3.67,6.32c-2.75,0.38-17.21,0.88-20.83,0.5c-5.25-1.5-15.12-2.88-18.12-43.12
	c-0.38-5.06-0.62-12.67-1.18-16.92c-0.01-0.02-0.02-0.03-0.03-0.05c-0.01-0.03-0.02-0.06-0.03-0.09
	c-8.21-12.73-5.33-30.37-4.36-36.27c0.06-0.37,0.11-0.69,0.15-0.95c0.2-1.3,0.2-3.71,0.2-6.75c-0.01-6.83-0.01-17.16,2.14-28.29
	c2.86-14.77,13.94-19.38,20.94-19.89c-0.01,0.01-0.01,0.02-0.02,0.03c0.01-0.01,0.03-0.02,0.04-0.03l-0.03,0
	c16.91-24.03,32.22-38.67,45.5-43.52C97.3,4.68,151.4,0.62,189.5,0.15l2.53-0.04C216.15-0.23,289.53-1.27,329.31,22.12 M19.38,172.9
	c0.25,8.12,3.75,15,3.75,15v-10.12L19.38,172.9z M11.26,177.78l4-4.38l-5.12-2.75L11.26,177.78z M16.26,186.4l-4.25-1.12
	c0.38,0.38,4.25,7.88,4.25,7.88V186.4z M6.76,144.9c0,0,3.62,13.62,9.62,18.25c0.75-0.25,0.88-1.38,0.88-1.38
	C13.51,158.4,12.01,145.32,6.76,144.9 M99.51,48.99h17l0.83-2.67l4.67-1c-1.5-13.67-12.5-16.5-12.5-16.5
	c-1.83,2.33-4.33,8.5-6.33,14.17C100.51,45.65,99.51,48.99,99.51,48.99 M59.01,53.99c0,0,2.5,7.17,12.67,14.5
	c1.67-8.67,10.33-31.17,15.08-40.5c-3.08,0.67-8.75,2.33-16.92,6c-2.33,4-10.83,19.17-10.83,19.17V53.99z M316.65,231.45
	c-1.38,3.23-3.85,5.85-6.92,7.4c1.48,0.09,2.96,0.18,4.43,0.27c2.01-0.69,3.82-1.84,5.32-3.34
	C318.3,234.53,317.34,233.07,316.65,231.45 M324.51,215.9c-4.75,0.83-7.32,6.52-7.58,7.08c-0.83-2.92-2.92-3.67-2.92-3.67
	s2.25,7.08-1.5,13.33c4.5-3.42,4.67-6.67,4.67-6.67s0,8.17,8.75,12.25C320.09,231.49,317.93,223,324.51,215.9 M351.89,225.45
	c0-7.95-6.27-14.42-13.99-14.42c-0.74,0-1.49,0.06-2.24,0.19c5.51,2.37,9.23,7.99,9.23,14.23s-3.72,11.86-9.23,14.23
	c0.75,0.13,1.5,0.19,2.24,0.19C345.62,239.87,351.89,233.4,351.89,225.45 M306.18,211.53c-2.8,0.76-5.26,2.39-7.08,4.59
	c1.19,2.21,1.88,4.75,1.88,7.45c0,3.54-1.18,6.8-3.14,9.41c1.14,1.9,2.68,3.51,4.52,4.69c5.69-2.01,9.79-7.56,9.79-14.1
	C312.15,218.62,309.79,214.24,306.18,211.53 M316.39,239.25c3.22,0.19,6.39,0.36,9.48,0.52c-2.14-0.64-4.07-1.78-5.68-3.28
	C319.07,237.6,317.79,238.53,316.39,239.25 M323.57,227.53c0.1-0.68,0.16-1.37,0.16-2.08s-0.07-1.4-0.16-2.08
	c-0.09,0.68-0.15,1.37-0.15,2.08S323.48,226.85,323.57,227.53 M228.63,341.15c0,4.75-2.96,10.96-7.88,12.88
	c-5.58,2.17-27.52,6.64-44.27-1.73c-23.13-14.7-29.76-61.58-30.54-70.88c0.34,0.29,0.67,0.56,0.98,0.82l1.5-1.58l-1.94-1.76
	c-0.23-0.19-0.49-0.41-0.74-0.62c-0.4-4.73-1.44-6.05-2.87-8.12c2,0,2.12-1.17,2.12-1.17c-15-38.83-6.85-76.58,7.75-75.58
	c26.37,1.8,42.02,46.52,49.83,68.32c-0.48-0.14-0.75-0.22-0.79-0.23l0.84,1.26c0.02,0.01,0.14,0.04,0.35,0.1
	c0.35,0.99,0.69,1.93,1.02,2.8c7.25,19.75,14.67,55.67,16.33,62.33S223.26,339.4,228.63,341.15 M159.88,229.53c0,0,9,24.25,14,29.38
	c-4.75-10.88-4.62-22-4.62-22L159.88,229.53z M156.26,296.53c4-3.75,6.38-5.88,6.38-5.88l-9.75-13
	C152.88,277.65,153.63,288.53,156.26,296.53 M153.63,268.28c4.5-0.12,6.25-1,6.25-1l-0.75-7.12l-5.5-10.62
	C153.63,249.53,152.38,261.28,153.63,268.28 M168.13,313.14l-9.38-7.99c0,0,3.62,13.96,8.38,19.73
	C168.01,320.65,168.13,313.14,168.13,313.14 M170.38,274.78c0.62-0.88,0.62-2.5,0.62-2.5s-7.5-14-9.56-28.38
	c-5.56-4-9.56-4.62-9.56-4.62S162.76,269.28,170.38,274.78 M177.09,339.03l-0.75-4.69l-2.83-0.69v-1.5h3.08l-0.58-2.5l-6.08,2.5
	C169.93,332.15,173.84,336.48,177.09,339.03 M188.51,333.4c0,0-4.88,0-7.38-16.12c0,0,1.5,17.88,2.75,21.75
	C187.63,337.15,188.51,333.4,188.51,333.4 M193.84,320.15c0,0-13.17-22.5-15.33-28.17c0,0,0,18,13.17,38.67
	C194.01,326.15,193.84,320.15,193.84,320.15 M332.6,240.09c0.24,0.01,0.48,0.02,0.71,0.03l-0.35-0.1
	C332.85,240.05,332.72,240.07,332.6,240.09"/>
</svg>
