<?xml version="1.0" encoding="utf-8"?>
<!-- Generator: Adobe Illustrator 15.0.0, SVG Export Plug-In  -->
<!DOCTYPE svg PUBLIC "-//W3C//DTD SVG 1.1 Tiny//EN" "http://www.w3.org/Graphics/SVG/1.1/DTD/svg11-tiny.dtd" [
	<!ENTITY ns_flows "http://ns.adobe.com/Flows/1.0/">
]>
<svg version="1.1" baseProfile="tiny"
	 xmlns="http://www.w3.org/2000/svg" xmlns:xlink="http://www.w3.org/1999/xlink" xmlns:a="http://ns.adobe.com/AdobeSVGViewerExtensions/3.0/"
	 x="0px" y="0px" width="140px" height="250px" overflow="visible" xml:space="preserve">
<defs>
</defs>
<path d="M132.06,123.75c0.4,0.1,1.91,0.79,3.73,1.77c1.81,0.98,2.29-0.41,2.06-0.83c-0.23-0.41-1.73-1.35-2.69-1.9
	c-0.96-0.54-2.56-1.18-2.56-1.18s0,0,0.54-0.11c0.54-0.1,1.31-0.06,2.46-0.94c1.15-0.88-0.27-1.87-0.27-1.87s-0.23,0.02-0.75,0.35
	c-0.52,0.33-0.92,0.22-1.75,0.12c-0.83-0.1-2.17-0.75-2.73-1.29c-0.55-0.54-2.6-0.86-3.96-0.83c-1.36,0.02-2.27-0.42-2.94-0.86
	c-0.67-0.45-2.64-2.17-3.63-3.17c-1.01-1-2.62-2.7-3.86-3.92c-1.25-1.22-3.56-3.89-4.75-5.36c-1.19-1.47-3.08-3.94-4.22-5.41
	c-1.14-1.47-6.22-6.02-7.64-6.94c-1.42-0.92-2.44-1.58-3.28-2.17c-0.83-0.58-3.1-2.96-4.09-4.29c-1-1.34-3.63-4.41-3.63-4.41
	s-0.02-0.26,0.14-1c0.17-0.73,0.17-4.93,0.17-4.93s0.22-0.39,0.75,1.14c0.53,1.53,0.75,4.53,0.75,4.53s0.14-0.08,0.75-3.62
	c0.61-3.51-1.69-5.8-1.8-6.18c-0.11-0.39-0.33,0.28-0.21-1.69c0.12-1.95-0.13-3.95-0.13-6.57c0-2.63-0.58-5.24-1-7.37
	c-0.42-2.15-1-4.25-1.62-5.09c-0.46-3.29-3.33-4.85-5.4-5.51c-2.06-0.67-1.12-0.15-1.88-0.63c-0.75-0.47-0.25-0.27-0.77-1.89
	c-0.52-1.62-0.68-1.23-1.22-2.39c-0.54-1.17-0.83-1.49-1.54-2.6c-0.71-1.1-1.89-1.77-2.89-2.39c-1-0.62-1.33-0.5-2.77-1.06
	s-2.23-0.67-2.6-0.77c-0.38-0.1-0.08-0.35-0.15-0.29c-0.06,0.06-0.4,0.04-0.68,0.31c-0.29,0.28-1.04-0.16-1.77,0.02
	c-0.73,0.19-0.96,0.08-1.12-0.37c-0.17-0.46-0.19-0.94-0.48-0.15c-0.29,0.79-0.44,0.98-1,1.44c-0.57,0.46-2.71,1.4-3.38,1.89
	c-0.67,0.5-2.25,2.5-2.95,2.84c-0.71,0.33-2.35,0.62-3.71,0.77c-1.35,0.15-0.73,1.67-0.71,2.29c0.02,0.63,0.15,0.59-0.52,0.73
	c-0.67,0.14-0.75,0.31-0.83,0.84c-0.08,0.52,0.19,1.12-0.21,1.16c-0.6,0.07-0.92,0.35-0.94,0.66c-0.03,0.3-0.03,0.72-0.2,1.14
	c-0.17,0.42-0.42,0.16-1.02,1.15c-0.6,0.98-0.25,2.33,0.59,3.02c0.83,0.69,3.29,2.02,3.83,2.69c0.54,0.67,0.6,1.3,0.81,2.67
	c0.21,1.38,0.27,3.87,0.21,5.76c-0.06,1.89-0.94,1.19-1.19,0.75c-0.25-0.43-3.23-3.45-3.98-4.14c-0.75-0.69-3.07-2.89-3.99-3.81
	c-0.92-0.91-3.41-4.44-4.08-5.61c-0.67-1.17-3.42-5.49-4.14-6.38c-0.72-0.89-1.33-1.79-1.8-3.03c-0.47-1.25-1.58-3.97-2.53-6
	c-0.95-2.03-3.14-4.5-4.25-5.8c-1.11-1.31-2.22-3.03-3.3-4.31c-1.08-1.27-2.75-3.63-3.72-5.11c-0.97-1.47-2.4-4.46-2.96-5.71
	c-0.55-1.27-0.68-1.73-0.79-3.1c-0.11-1.36-1.96-2.09-2.67-2.4c-0.71-0.3-1.93-1.33-2.82-1.94C9.48,3.82,9.1,4.49,8.87,5.08
	c-0.23,0.58,0.17,1.42,0.7,1.8C10.1,7.28,9.6,7.26,9.13,7.26c-0.47,0-0.87-0.2-1.73-0.34C6.53,6.76,6.44,6.55,6.08,5.96
	c-0.36-0.6,0.78-1.6,1.56-2.38c0.78-0.78-0.1-1.32-0.46-1.14c-0.36,0.18-1.3,0.76-1.8,1.27c-0.5,0.52-0.63,0.63-0.63,0.13
	c0-0.49,0.08-1.13,0.75-2.15c0.67-1.01,0.44-1.33,0.17-1.58C5.39-0.14,5.04,0.03,4.61,0.5c-0.44,0.45-1.17,2-1.17,2.52
	c0,0.51-0.38,0.92-0.89,0.81c-0.52-0.1-0.6-0.72-1.29-1.73C0.57,1.1,0.07,1.34,0.01,2.07c-0.06,0.73,0.46,2.25,1.06,3.5
	c0.6,1.25,0.88,2,1.71,2.31c0.83,0.31,1.45,0.65,1.54,1.71c0.08,1.07,1,1.47,2.02,2.04c1.02,0.56,2.87,1.1,3.81,1.63
	c0.94,0.53,1.52,2.17,2.16,3.39c0.64,1.21,0.8,2.18,1.64,3.93c0.83,1.75,2.33,5.11,2.83,6.44c0.5,1.33,1.75,4.2,3.19,6.64
	c1.44,2.44,5.06,7.33,5.75,8.33c0.7,0.99,0.75,2.52,1.14,3.58c0.39,1.05,1.64,4.33,2.44,5.47c0.81,1.14,2.53,5.08,3.25,6.58
	c0.72,1.5,2.89,5.41,3.47,6.61c0.58,1.19,3.03,4.61,4.14,6.72c1.11,2.11-0.17,3.17-0.55,4.14c-0.39,0.97-1.17,2.3-2.72,5.28
	c-1.55,2.96-0.39,7.86,0.09,8.71c0.47,0.86,1.17,2.66,1.44,3.17c0.28,0.5-0.05,1.47,0.17,2.08c0.22,0.61,0.72,2.8,0.75,2.88
	c0.03,0.08,0.06,0.45,0.03,0.86c-0.03,0.41,0.05,0.3-0.05,0.86c-0.11,0.56,0,0.84,0.14,1.3c0.14,0.48,0.14,1.64,0.14,2.64
	c0,1-0.17,6.39-0.23,7.72c-0.05,1.33-1.08,6.28-1.11,7.3c-0.03,1.03-0.78,8.16-0.83,9.13c-0.06,0.97-0.86,1.69-1.61,2.06
	c-0.75,0.36-3.05,2.04-3.58,2.32c-0.53,0.28-5.36,4.3-6.06,4.92c-0.69,0.61-5.63,4.94-6.66,5.8c-1.02,0.86-4.05,3.98-7.24,6.25
	c-3.19,2.27-3.86,6.14-4,7.55c-0.14,1.42,2.08,5.11,2.39,5.53c0.31,0.42,2.5,3.33,3.52,4.36c1.03,1.03,6.08,6.41,7.36,7.53
	c1.28,1.1,3.53,3.38,4,4.77c0.47,1.39,1.05,2.58,1.55,3.14c0.5,0.55,3.97,5.19,4.64,6.04c0.66,0.86,5.27,7.42,5.94,8.37
	c0.67,0.95,5.27,6.99,5.83,7.49c0.55,0.5,1.44,1.7,2.19,2.3c0.75,0.61,0.91,1.48,1.45,2.13c0.53,0.68,2.52,4.25,3.28,5.26
	c0.75,0.99,2.99,4.11,3.41,4.54c0.42,0.44,0.54,1,0.83,1.94c0.29,0.93,0.23,1.67,0.46,2.29c0.23,0.62-0.25,3.67-0.44,4.7
	c-0.19,1.04-0.46,1.18-0.77,3.28c-0.31,2.1-0.85,3.06-1.27,3.49c-0.42,0.44-2.94,1.5-3.52,1.73c-0.58,0.24-1,0.27-1.89,0.27
	c-0.9,0-0.94,1.08-0.71,1.73c0.23,0.65,0.93,0.59,1.6,0.57c0.67-0.03,1.06-0.09,2.93-0.17c1.88-0.09,1.33,0.34,5.25,0.2
	c3.92-0.12,5.17-3.54,6.17-5.45c1-1.92,3.61-4.28,6.92-7.5c3.3-3.17,0.36-6.31-0.34-6.97c-0.69-0.67-2.5-2.03-3.86-3.17
	c-1.36-1.14-2.58-3.83-3.94-6.28c-1.36-2.44-4.19-6.05-4.27-6.49c-0.08-0.45,0-0.31,0.59-2c0.77-2.97-0.23-5.29-1.31-6.62
	c-1.08-1.34-3.66-1.58-4.05-1.66c-0.39-0.08-1.08-1.88-1.75-3.52c-0.67-1.64-2.97-5.16-5.58-8.02c-2.62-2.86-2.14-3.76-1.92-5.39
	c0.23-1.63,2.2-4.69,3.03-5.96c0.83-1.28,4.36-5.03,5.38-6.17c1.03-1.13,4.86-6.13,5.86-7.62c1-1.5,4.06-4.22,4.78-4.86
	c0.72-0.64,1.53,0.24,3.36,0.91c1.83,0.67,5.02,1.41,5.72,1.11c0.7-0.3,0.83-4.36,1.14-7.34c0.3-2.97,0.58-6.82,1.28-9.58
	c0.69-2.74,0.2-8.07-0.36-10.09c-0.56-2.02-2.96-6.31-4.02-7.69c-1.06-1.38-3.21-5.14-3.58-6.06c-0.38-0.91-1.54-3.72-1.69-5.47
	c-0.14-1.75,0.88-4.03,1.62-5.62c0.75-1.58,1.23-1.98,2.36-4.34c1.14-2.36,1.49-2.25,2.27-3.14c0.78-0.89,1.55-2.14,1.86-3.55
	c0.3-1.42,0.78-1.42,1.22-2.28c0.44-0.86,1.75-2.95,1.75-2.95s1.22,1,1.75,1.66c0.52,0.67,3.16,3.28,3.77,3.87
	c0.61,0.57,1.36,1.58,1.89,2.41c0.53,0.83,0.39,2.75,0.39,2.75s0.08,0.03,0.17-1.12c0.08-1.14,0-1.36,0.06-1.5
	c0.06-0.13,0.34,0.04,0.58,0.92c0.25,0.89,0.3,2.66,0.36,1.28c0.05-1.39,0.14-1.44,0.14-1.44s0.64,0.39,0.78,1.16
	c0.14,0.78,0.05,2.33,0.31,1.2c0.25-1.14,0.14-1.47,0.14-1.47s-0.28-0.25,1.05,0.75c1.33,1,4.44,4.19,5.36,5.5
	c0.92,1.3,3.5,3.69,4.91,4.8c1.42,1.12,5.64,4.92,6.61,5.61c0.97,0.7,7.36,5.52,8.42,6.5c1.05,0.97,3.91,3.74,4.88,4.33
	c0.98,0.58,3.22,2.78,3.86,3.44c0.64,0.67,2.46,2.02,3.4,2.7c0.94,0.68,1.52,0.92,2.38,1.87c0.85,0.96,1.48,1.38,3.16,1.9
	c1.69,0.52,1.32-0.9,0.75-1.31c-0.56-0.42-1-0.52-2.12-1.79c-1.12-1.26,0.25-0.54,0.67-0.21c0.42,0.34,1.46,1.04,2.66,2.06
	c1.21,1.02,1.96,1.31,2.46,0.79c0.5-0.52-0.79-1.86-2.58-3.44c-1.79-1.58-0.56-1.02-0.25-0.73c0.31,0.29,1.56,1,3.14,2.25
	c1.58,1.25,2.88,0.94,3.04,0.17c0.17-0.77-1.48-1.46-1.81-1.79c-0.33-0.34-2.48-1.98-3.21-2.5
	C131.29,123.76,131.67,123.64,132.06,123.75z M30.45,157.99c-0.22,0.27-0.4,2.09-0.4,2.09s-1.11-0.94-1.25-1.15
	c-0.15-0.21,0.42-0.73,1.02-1.08C30.43,157.5,30.68,157.73,30.45,157.99z M85.41,66.04c-0.16-0.03-0.36-0.55-0.38-1.11
	C85,64.37,85,62.4,84.91,61.68c-0.08-0.72,0.2-0.44-0.08-1.02c-0.28-0.59-0.31-2.31-0.17-3.72c0.14-1.42,0.03-1.28,0.17-1.61
	c0.14-0.33,0.22-0.17,0.22-0.17l0.16,0.17c0,0,0.31,6.94,0.28,8.57C85.47,65.53,85.58,66.06,85.41,66.04z M87.56,78.95
	c-0.08,0.58-0.27,0.51-0.3-0.12c-0.03-0.62-0.07-1.89,0.01-2.36c0.09-0.46,0.09-0.76,0.15-0.81c0.06-0.05,0.21-0.04,0.21-0.04
	S87.65,78.37,87.56,78.95z M87.55,71.78c0-0.83-0.11-3.94-0.22-4.92c-0.11-0.97-0.2-3.41-0.25-4.66c-0.05-1.25-0.05-2.39-0.05-3.01
	c0-0.61,0.06-0.43,0.09-0.53c0.02-0.1,0.21,0.34,0.21,0.34s0.36,7.16,0.36,8.97C87.69,69.78,87.55,72.62,87.55,71.78z"/>
</svg>
