<?xml version="1.0" encoding="utf-8"?>
<!-- Generator: Adobe Illustrator 15.0.0, SVG Export Plug-In  -->
<!DOCTYPE svg PUBLIC "-//W3C//DTD SVG 1.1//EN" "http://www.w3.org/Graphics/SVG/1.1/DTD/svg11.dtd" [
	<!ENTITY ns_flows "http://ns.adobe.com/Flows/1.0/">
]>
<svg version="1.1" xmlns="http://www.w3.org/2000/svg" xmlns:xlink="http://www.w3.org/1999/xlink" xmlns:a="http://ns.adobe.com/AdobeSVGViewerExtensions/3.0/" x="0px" y="0px" width="200px" height="220px" overflow="visible" enable-background="new -10.92 -33 200 300" xml:space="preserve">
<defs>
</defs>
<path d="M113.32,68.37c-3.59-1.5-5.54-1.12-5.92,1.35c-0.9-1.8-3.82-4.12-8.84-7.12c-0.22-1.2-0.97-2.32-2.32-3.37l-3.97,2.85
	l9.51,5.54l-2.25,1.72c0.07,0.22-0.82,2.32-2.7,6.29c-0.9,2.02-1.8,2.77-2.7,2.55c-2.47-0.75-3.22,0.37-2.47,3.3
	c-0.52-0.82-1.12-0.52-1.65,0.75c-0.75,1.35-0.6,2.25,0.15,2.7c0.6,1.27,0.97,2.25,0.97,3c-2.02,1.05-4.34,0.6-7.34-1.27l-1.12-2.25
	c1.35-2.32,0.22-4.19-3.52-5.69l-1.87-1.12c0-3.82-0.75-5.77-2.02-5.84l-4.19-0.15c-0.07-0.97,0.37-2.77,1.35-5.24
	c-0.37,0.07-1.12-0.67-2.02-2.17c0.08,2.17-0.07,3.45-0.6,4.04c-0.75-0.22-1.2-0.3-1.5-0.22c-0.67,0.07-1.35,1.12-2.02,3
	c-0.75,1.35-4.57,0.52-11.61-2.62c-0.15-0.07-0.37-0.3-0.82-0.6c0,0.15-0.08,0.15-0.15,0.15c-0.37-0.15-0.82-0.3-1.27-0.6
	c-0.75-0.52-1.42-0.9-2.02-1.27c-0.45,0.07-0.45,0.9,0.15,2.55c3.9,2.55,5.62,3.97,5.17,4.34c-1.05,2.17,0.37,2.47,4.12,1.05
	c2.62,0.45,4.94,0.97,6.89,1.42c1.8,1.42,3.82,3.97,5.92,7.56c0.6,0.37,1.35,1.12,2.25,2.32c-1.87-0.22-2.55,0.3-1.95,1.8
	c1.5,3.3,2.47,4.49,3.07,3.67c-0.38,1.2-0.75,2.77-1.05,4.64l2.1,3.07c-0.3,2.47-1.42,4.64-3.52,6.14l-4.27,1.95
	c-1.27,1.87-1.05,3.07,0.6,3.67c0.15,5.77,1.8,7.34,5.02,4.57c1.65,1.05,3,1.5,4.04,1.2c0.22,1.42,0.22,2.32-0.15,2.77l3.97,2.32
	c3.15,0,5.02,0.67,5.39,1.87c0.3,2.32,1.5,4.04,3.6,5.32c-0.38,4.12-2.1,7.12-5.24,9.14v10.33l-2.62,2.4
	c2.17,7.71,0.67,13.33-4.34,16.93c-0.9-0.07-1.5,0.82-1.8,2.62c0.52,2.77,0.82,4.87,0.67,6.52c-0.38,1.2-0.67,1.72-0.9,1.57
	c1.57,1.42,0.67,2.47-2.7,3.45c-0.67-0.15-1.5,0.3-2.4,1.42c-0.82,3-1.12,5.17-0.75,6.44c0.38,1.5-0.75,3.37-3.15,5.84
	c-0.45,0.45-1.05,0.82-1.87,1.12c-2.92-0.3-4.72,0.6-5.24,2.7c-2.7-0.53-4.34,0.67-5.02,3.52c-0.82,1.27-0.6,2.47,0.67,3.52
	c-1.35-0.07-2.47,0.22-3.22,0.82c-3.6,2.4-5.24,4.12-4.79,5.32c0.3-0.6,3.75-1.57,10.64-2.92c0.52-1.12,1.27-1.87,2.1-2.17
	c1.12-1.2,2.4-1.72,3.6-1.42c3.67-4.79,7.56-8.16,11.53-9.96l6.89,0.45c0.22,2.47,1.35,3.89,3.37,4.34
	c-0.07,4.87,0.82,7.41,2.47,7.64c0.67,0.83,1.65,0.97,2.85,0.38l2.25,0.15c0.3,1.8,1.12,1.8,2.47-0.08
	c-1.57-2.54-2.32-4.34-2.17-5.47c0.75-0.82,1.2-1.95,1.57-3.6c-0.9-0.37-1.2-1.2-0.9-2.62l3.15-2.77l3.67,4.34
	c3.07-5.77,4.57-5.39,4.57,0.97c1.27-1.57,2.1-1.95,2.62-0.97c1.05-1.2,1.8-1.2,2.25,0.15c1.27,1.35,4.87,1.8,10.79,1.27
	c-0.45,2.17,0.22,3.6,1.95,4.12c1.5,1.8,3.75,3.15,6.52,3.82c2.25,0.6,5.62,0.75,10.04,0.38c0.3-0.67,2.32-0.82,6.14-0.45
	c0.97-0.3,0.9,0.75-0.22,3.07l-0.07,0.07v6.07c1.42-0.82,3-1.95,4.57-3.37c3.37-1.65,4.42-3.45,2.85-5.47
	c1.5-0.15,2.17-0.97,2.1-2.4c-0.38-0.75-0.52-1.35-0.6-1.87c-0.3-0.97-0.07-1.65,0.75-2.02c-0.38-0.97-0.82-1.35-1.35-1.12
	c-0.82-1.35-1.95-1.5-3.37-0.22c-1.57-0.97-3.82-0.75-6.67,0.75c-1.95,0.68-3.14,1.12-3.59,1.28c-2.77-2.4-3.45-3.9-2.17-4.42
	c2.1-3.37,1.57-5.69-1.42-7.04c-8.99,0.52-13.41-0.38-13.18-2.77c-1.5-3.07-3.37-5.09-5.77-6.37c-2.92-0.23-4.72-2.4-5.47-6.44
	c-0.67-4.04-0.6-6.59,0.3-7.64c-0.38-1.35-1.12-2.32-2.32-2.85c0.3-1.27,1.05-2.32,2.25-3.22c0.23-2.1,0.9-4.04,2.02-5.84
	c2.55-5.17,2.7-8.91,0.38-10.94c0.07-1.27,0.37-2.25,0.82-2.85c1.65-1.5,1.5-2.62-0.22-3.37l0.67,0.15c0.15-1.35-0.45-3-1.72-5.02
	c-0.38-2.85,0.07-5.09,1.27-6.59c-0.3-2.47-0.3-4.12-0.07-4.94l2.62-1.27c0.6-2.47,0-3.9-1.57-4.27c-1.27,0.82-2.92-0.67-4.94-4.57
	c-2.1-2.25-4.27-2.25-6.52-0.08c-3.74-1.95-6.66-2.7-8.54-2.32c-2.47-1.95-4.19-1.72-5.32,0.45c-1.72-0.45-3.22-1.27-4.49-2.55
	c0.23-1.12,0.3-2.17,0.15-3.15c-0.38-0.45-0.45-1.27-0.22-2.32c-1.5,0-1.27-1.5,0.6-4.42l8.01-0.45c0.97,0.23,2.17-0.37,3.45-1.57
	c2.47-4.42,1.72-6.89-2.25-7.56c-0.67-0.38,0.38-2.62,3-6.67c-0.6-1.5,1.5-3.45,6.29-5.99c2.1,2.4,3.37,1.5,3.74-2.55l6.44-1.5
	c6.37-9.74,6.97-13.18,1.87-10.19C116.76,64.02,114.74,66.42,113.32,68.37"/>
<path fill="#0C4B7E" d="M107.03,74.66c0.3-0.45,0-1.35-0.97-2.55c1.2,1.5,2.1,2.55,2.62,3.45c0.75,1.27,1.35,0.3,1.65-2.85
	c-0.22-0.3,2.17-1.05,7.12-2.17c5.62-9.06,6.14-11.68,1.72-7.86c-1.2,1.65-2.77,3.67-4.72,5.92c-1.42,0.6-2.02,0.82-1.8,0.6
	c-2.32-1.42-3.89-0.97-4.72,1.42c-0.38-0.37-1.8-0.22-4.19,0.3c0-0.37,0.9-0.75,2.62-1.05c-0.75-1.65-1.72-2.85-3.07-3.52
	c-0.22,0.37-2.62-1.65-7.34-6.14l-2.1,1.87c4.49,2.85,7.34,4.34,8.76,4.72c0.38,0.75,0.3,1.2-0.38,1.42c0,0.9-0.52,1.35-1.65,1.65
	c-2.7,6.22-4.34,9.21-4.87,8.99c-3.45-0.52-4.42,0.23-3.07,2.25c-0.38,0.75,0,2.47,1.35,5.24c-0.97-1.27-1.8-2.77-2.47-4.42
	c-1.12,0.9-1.35,1.72-0.75,2.55c1.2,2.17,1.5,3.52,0.97,4.27c-1.27,0.9-1.95,1.2-2.1,0.97l-4.79-1.65
	c-1.05-0.38-1.42-0.67-1.42-0.97c-0.82-0.75-1.27-1.8-1.42-3c0.52-0.45,0.9-0.75,0.9-1.2c-0.45-1.65-1.35-2.7-2.77-3.3l-2.7-1.57
	c-0.67,0-1.27-0.3-1.8-0.67c-0.37-0.3-0.75-0.67-1.12-1.12c0.75,0.52,1.27,0.9,1.65,1.12c0.3,0,0.52,0.07,0.6,0.07
	c0-0.07,0-0.07,0.07-0.07c0.08-0.75-0.37-2.32-1.35-4.79c-1.8,0.15-3.3-0.07-4.57-0.3c-0.37-0.37-0.45-1.12-0.15-2.32
	c0.9-2.25,1.05-3.59,0.37-4.12c-0.07,0-0.15-0.08-0.22-0.15c0,0.07,0,0.15-0.07,0.15c-0.37,2.1-0.67,3.15-0.97,3.3
	c-1.57-1.35-2.62-0.45-3.07,2.77c1.87,0,3.15,1.8,3.75,5.39c-1.12-3.52-2.47-5.09-3.9-4.72c-0.75,0.15-3.07-0.45-6.89-1.65
	c-0.82-0.3-1.65-0.67-2.55-0.97l-3.15-1.27c-5.24-2.7-4.49-1.57,2.25,3.44c0.52,0.15,0.3,0.67-0.52,1.72c0.67-0.23,0.9,0,0.52,0.52
	c1.87-0.07,2.85-0.45,3-1.05c0.15,0,0.22,0,0.37,0.08c4.87,0.75,7.49,1.27,7.64,1.57c0.52,0.67,1.2,1.5,1.95,2.32
	c1.12,1.5,2.55,3.3,4.04,5.39c4.49,4.19,5.92,5.62,4.19,4.42c-0.38-0.15-1.05-0.67-1.95-1.42c-0.38,0.23-0.82,0.3-1.27,0.15
	c-1.57,0.3-1.12,1.72,1.27,4.27c1.12,0.3,1.65,0.52,1.5,0.67c-1.05,0.37-1.5,2.02-1.12,4.94l2.17,2.85
	c-1.2,3.82-2.62,6.14-4.34,6.82c-0.6,0-0.97,0.15-1.35,0.52c1.87,1.5,2.85,2.25,2.62,2.32c-0.45-0.37-1.2-0.9-2.32-1.42
	c-2.55-0.67-3.6,0.07-3.07,2.25c1.8,0.6,3.22,0.75,4.27,0.3c-0.15,0.6-1.35,0.82-3.52,0.75c0.22,5.09,1.8,6.52,4.64,4.04
	c0.9,0.97,2.25,1.35,4.19,1.2c1.05,1.8,1.05,2.85,0.15,3.22c1.27,0.3,2.4,0.82,3.52,1.8c3.82,0.52,5.77,0.97,5.84,1.5
	c0.52,3.6,1.65,5.39,3.15,5.39c1.12,0,2.1-1.57,2.85-4.64c0.52,0.52,0.07,1.95-1.2,4.49c2.1-0.45,3.89-1.87,5.39-4.42
	c-1.65,3.3-3.52,5.17-5.62,5.39l0.6,8.84l-1.65-8.39c0,4.19-1.57,7.26-4.64,9.29l0.67,25.62c-0.45-3.22-0.97-8.09-1.5-14.6
	l-1.95,1.72c2.7,7.27,0.9,13.26-5.32,18.13c0.75,2.1,2.47,4.04,5.02,5.84c-2.02-0.53-3.97-2.17-5.77-4.87
	c0.97,3.15,3.22,6.44,6.89,9.74c-3.9-2.7-5.92-4.87-6.29-6.37c0,0.97,0,1.42-0.07,1.42c0.22,2.02,0,3.14-0.82,3.45
	c0.52,0.75,0.75,1.42,0.52,2.1c-0.9,0.3-1.65,0.82-2.25,1.27c9.66-0.82,9.66-0.75,0,0.45c-1.42,0-2.47,0.3-3.22,0.97
	c-1.12,3.07-1.57,5.62-1.2,7.87c0.45,0.52-0.9,2.47-4.27,5.77c0.82,0.9,0.82,1.95,0.07,3.37c-0.75,1.35-1.12,1.95-1.12,1.72
	c1.42-3.97,0.67-5.54-2.4-4.72c-1.05,0.22-2.1,0.97-2.85,2.39l3.15-0.67c-0.97,0.82-2.62,1.65-4.79,2.32
	c0.67-0.53,1.12-0.82,1.57-1.05c-2.32-0.52-3.75,0.38-4.42,2.85c-0.67,0.75-0.45,1.87,0.52,3.14c0.52,0,1.27,0.08,2.32,0.15
	c-0.97,0.45-2.1,0.67-3.45,0.6c-0.9,0.45-1.5,0.6-1.87,0.52c-2.25,1.42-3.9,2.62-4.87,3.74c1.8-0.82,4.79-1.57,8.99-2.25l1.5-1.8
	c0.6-0.53,1.05-0.9,1.35-0.82c1.27-0.67,2.25-1.05,3.15-1.27c0.82-0.15,1.5-0.9,2.1-2.4c5.84-5.24,9.21-7.64,10.04-7.19
	c2.25,0.07,4.34,0.22,6.37,0.38c-0.23-1.27,0.07-5.69,0.75-13.26c-0.15,3.75-0.15,6.59,0.07,8.39c0.45,0.6,1.65,0.97,3.67,1.2
	c-1.87-0.08-3.15-0.22-3.82-0.3c-0.23,1.05-0.23,2.32,0.15,3.82c0,3.07,0.75,4.34,2.25,3.97c0.75,0.52,2.4,0.37,4.87-0.75
	c-1.57,0.97-2.77,1.65-3.6,2.02c-0.15,4.57,0.52,6.81,1.95,6.81c1.27,0.22,1.65-0.07,1.27-0.97c0.82,1.05,0.53,1.5-0.82,1.35
	c0.6,0.67,1.35,0.67,2.25,0.22c0.45,0.15,1.27,0.15,2.32,0.15c0.15,0,0.3,0.45,0.52,1.27c0.38,0.22,0.53,0.3,0.53,0.15
	c1.12-0.67,1.05-1.72-0.15-3c-0.38-0.67-0.6-1.2-0.67-1.65c-0.08-0.45-0.22-1.2-0.3-2.25c0.97-0.6,1.42-1.72,1.42-3.07
	c-0.75-0.52-1.2-1.2-1.35-2.02c-0.6-1.12-1.5-4.27-2.92-9.44c2.17,5.92,3.45,8.61,3.45,8.09c1.65-0.9,2.47-2.02,2.55-3.14
	c1.35-2.7,2.85-6.89,4.49-12.81c-0.97,4.87-2.1,9.21-3.6,13.03c2.4-2.1,3.97-3.67,4.64-4.42c-0.67,1.42-2.02,3.07-4.12,4.79
	c1.35,1.72,2.47,2.92,3.3,3.67c1.5-2.77,2.62-4.04,3.37-3.82c1.42,0.15,1.95,1.65,1.57,4.72c0.52-0.38,1.2-0.67,1.95-0.9
	c0.15-2.1,1.12-6.82,3-14.16c-1.5,7.41-2.25,12.13-2.32,14.23c0.38-0.37,0.67-0.6,1.05-0.6c0.15-1.42,0.82-2.47,1.87-3.15
	c0.15,0.38,0.38,0.68,0.45,0.9c-0.07,0-0.3,0-0.45,0.07c-0.6,0.6-0.97,1.35-1.05,2.25c0.82,2.54,4.42,3.14,10.79,1.87
	c0.82,0,2.25-0.9,4.19-2.7c-1.05,1.5-2.17,2.55-3.37,3.29c-0.07,5.17,2.02,4.94,6.37-0.67l-3.75,5.47c3.9,3.75,9.29,4.12,16.03,1.05
	c-3,1.65-5.09,2.55-6.44,2.62c1.65,0,2.77,0.08,3.45,0c0.75,0,1.2-0.07,1.65-0.3c0-0.15,0.07-0.15,0.15-0.22
	c1.65-0.22,3.15-0.3,4.49-0.3c3.15,0.37,5.32,0.07,6.52-0.82c-0.37,0.6-1.5,1.2-3.52,1.57c0.97,0.97,2.17,1.2,3.52,0.82
	c-2.25,0.75-3.44,0.6-3.59-0.6c-0.45,1.87-0.75,2.85-0.9,3L147.4,216l2.25-1.57c1.57-0.82,3.07-2.1,4.64-3.75
	c0.67-0.52,0.67-1.2,0.3-1.95c-0.3-0.3-0.82-0.6-1.8-1.05c1.42,0.6,1.8,0.45,0.97-0.52c0.6,0.6,1.35,0.52,2.32-0.38
	c-1.35-2.7-1.35-2.77,0-0.37c0.3,0.07,0.38-0.3,0.22-1.05c-0.67-1.57-0.75-2.85-0.22-3.6c-1.05,0.38-1.8,0.15-2.25-0.38
	c0.75,0.53,1.5,0.53,2.25,0c0.07-0.38-0.45-0.6-1.65-0.45c0.52-0.15,0.67-0.22,0.67-0.3c-0.07-0.38-0.38-0.6-0.82-0.6
	c0.08-0.53-0.82-0.15-2.7,1.12c-0.67-1.5-2.32-1.5-5.32-0.07l-4.57,1.72l-2.32-1.65c-2.47,0.22-4.19-0.15-5.02-1.35
	c0.82,0.82,2.55,1.12,5.17,0.82c-0.75-0.6-1.05-1.12-0.9-1.5l-0.08-1.05c-1.79,0.45-2.77,0.07-2.99-0.9
	c-0.75-1.05-0.82-1.95-0.07-2.77c0.67-0.9,1.5-0.75,2.7,0.52c-1.5-1.05-1.87-0.9-1.12,0.45c-0.52-0.9-1.05-1.05-1.5-0.75
	c-0.38,0.37-0.38,0.75-0.07,1.12c0.22,0.45,0.6,0.38,1.05-0.07c-0.38,0.45-0.68,0.67-1.05,0.45c0.15,1.12,1.42,1.65,3.74,1.5
	c1.2-1.65,1.5-3.15,0.82-4.49c-0.3-1.12-1.87-1.72-4.57-1.5c-6.59,0-10.19-0.75-10.86-2.4c-1.2,0.38-2.92,1.5-4.87,3.45
	c2.02-2.55,3.67-3.97,4.64-4.12c-0.97-2.4-2.77-4.42-5.24-6.14c-1.65-0.07-3.07-0.67-4.12-1.87c-3.07-5.92-3.82-10.19-2.02-13.03
	l-2.55-3.14c1.72-1.5,2.77-3.52,3.07-5.99c0.9-2.47,2.02-5.02,3.22-7.49v-3.22l-4.49,11.46l3.9-12.88l-10.26-10.04l10.04,8.09
	c-0.15-0.6,0.07-1.35,0.6-2.32c1.72-1.2,1.8-2.25,0.22-3.22l-5.24-1.95l5.69,1.2c-0.45-1.8-1.12-3.07-1.87-3.97
	c-0.45-2.55-0.15-4.94,1.12-7.19l-0.22-4.42c-1.27-0.6-2.1-1.65-2.4-3.15c1.65,1.87,2.55,2.7,2.77,2.25c2.4-0.22,3.45-1.2,2.92-3
	c-0.07-0.75-0.45-1.2-0.97-1.27c-0.6,0.23-1.05,0.37-1.27,0.15c-1.95-0.82-3.45-2.47-4.49-4.87c-1.87-1.95-3.52-2.02-5.09-0.3
	c0.97,1.8,1.65,4.64,2.02,8.46c-0.38-3.37-1.27-5.92-2.7-7.86c-3.45-1.87-6.37-2.77-8.69-2.62c-0.38,1.5-1.12,2.4-2.25,2.92
	c-0.45,1.12-1.2,2.4-2.02,4.12c1.42-3,1.72-4.87,0.67-5.77c1.27,1.05,2.25,0.6,2.85-1.35c-1.72-1.8-3.15-1.5-4.34,0.9
	c-0.45,0.37-2.1-0.45-4.64-2.4c-0.08,0.52-0.82,1.8-2.02,3.67c0.52-1.2,0.97-2.62,1.35-4.27c-0.07-0.97,0-2.02,0.22-3.3
	c-1.27,0.75-1.95,1.12-2.1,1.05c0.9-0.67,1.42-1.2,1.5-1.57l0.22-1.72c-0.15,0.15-0.45-0.08-0.9-0.45c-0.82,0.6-2.17,0.75-4.12,0.67
	c3-0.3,4.27-0.97,3.97-2.17c1.35-2.1,1.95-3.44,1.8-4.04c1.35,0.37,4.49,0.3,9.44-0.38c3.75-3.45,4.2-4.57,1.2-3.45
	c2.55-1.12,2.62-2.02,0.3-2.77c-1.5,0.15-3.22,0.67-5.17,1.42c3.74-1.72,5.24-2.47,4.49-2.47c-0.97,0-1.65-0.08-2.24-0.3
	c1.2-2.77,2.39-5.24,3.52-7.19c-0.38-0.3,0.3-1.5,2.02-3.75c0.22-0.75,0.97-2.17,2.32-4.27C102.53,77.28,103.43,77.66,107.03,74.66"
	/>
<path fill="#1787B3" d="M106.43,70.69l-2.1,0.37l-0.75,0.75l-0.15-0.15h-0.9c-0.3,1.42-1.2,2.7-2.92,3.97
	c1.95-0.9,0.53,2.32-4.34,9.51c-1.8,3.37-2.1,3.3-0.9,0l-1.5,2.17l-0.97,1.2c3.07,2.25,0.75,4.04-6.89,5.54
	c-2.02-0.15-2.25-1.87-0.75-5.47c-3-1.95-3.97-3.15-3-3.75c0.37,0.23,0.52-0.52,0.52-2.25l0.37-0.9l-3-2.1l0.75,2.85
	c0.75,4.12,0.22,5.77-1.65,5.09l2.4,2.55l-1.35-0.9l-2.02-0.82l4.49,4.27c-5.24,1.12-5.47,1.8-0.97,2.25l1.95,0.45
	c0.37,4.19-0.52,6.82-2.7,7.72c5.09,3.97,2.55,5.02-7.56,2.85c3.52,1.8,4.42,2.55,2.62,2.25l1.42,0.67l0.97-0.22l-0.15,1.2
	l0.45,1.87c6.67-0.6,7.12,0.52,1.42,3.67l2.1,2.02c4.87-5.92,7.42-4.57,7.72,4.12c0.97,0.97,2.32,0.97,4.04,0
	c1.65-1.05,1.42,0.82-0.67,5.32c0.75-0.6,1.57-2.1,2.47-4.42c0.22,1.12-0.22,2.7-1.35,4.72l5.39-4.42l4.49-5.92l-9.81,15.35
	c15.05-16.63,19.4-15.05,13.11,4.79l9.21,7.42l0.6-2.32l1.27-1.42l-6.29-3.74l5.69,1.2c-3.29-3.6-3.52-7.34-0.75-11.38
	c-1.65,0.75-1.87-0.45-0.67-3.45c-2.7-2.7-4.27-5.24-4.57-7.64l4.95,5.77c1.05,0.15,1.87-0.15,2.62-0.82
	c1.12-0.97,1.12-2.1-0.22-3.22l-0.75,0.23c-2.62-0.82-4.49-2.7-5.62-5.69c-1.72-0.9-3.22-0.75-4.49,0.45l1.35,3.15
	c0.15,1.5,0.3,2.7,0.53,3.52c-0.67-1.95-1.5-3.97-2.4-5.99c-1.42-1.12-4.35-2.02-8.84-2.7c0.15,1.2-0.6,2.17-2.25,2.92l-1.57,3
	c0.97-2.17,1.12-3.67,0.22-4.64c0.22,0.22,0.52,0.22,0.82,0.22c0.45,0.52,1.12,0.07,2.02-1.57c-0.38-0.38-1.05-0.67-1.95-0.97
	c-0.38,0.67-0.53,1.2-0.3,1.8c-1.05,0-1.8,0.15-2.32,0.37c-1.87-0.3-3.37-1.2-4.42-2.7c-0.38,1.57-1.05,2.77-2.02,3.67
	c1.2-4.04,1.35-6.07,0.6-5.99c-2.47,2.7-4.72,3.59-6.74,2.77c2.85-0.6,4.72-1.72,5.69-3.22l-1.57,0.6c3.22-1.8,3.97-2.92,2.1-3.37
	l0.22-0.97c-1.35,0.67-2.7,0.82-4.12,0.6c0.75,0.08,1.27-0.07,1.42-0.3c1.2-0.07,2.1-0.52,2.62-1.2l-0.07-0.67
	c1.35-1.95,1.87-3.37,1.57-4.27l2.02,0.45l7.64-0.6l3.15-3.74l-1.95,0.3l1.87-1.12l0.07-0.38l-1.65-1.27l-5.17,1.42l4.64-2.47
	l-2.39-0.3l3.22-6.89l0.45-1.72l4.19-6.59l-0.82,3.15l3.52-2.1l-1.05-2.32l3.52,3.82l0.82-3.22c2.17-1.2,4.49-1.87,7.04-2.17
	l4.64-9.36c-4.12,7.12-7.27,9.81-9.44,8.16c-2.32,1.5-3.97,1.95-4.72,1.27L106.43,70.69"/>
<path fill="#1787B3" d="M67.03,196.82c-0.38-0.3-0.97-0.07-2.1,0.6v0.97c1.42,2.85-0.6,4.2-5.92,4.12c0.3,0.82,0.9,1.87,1.8,2.92
	c-2.62-0.9-3.6-0.9-3,0.22l2.32,0.15c-1.27,1.12-2.7,1.57-4.04,1.65l-4.27,2.32c2.47-1.12,4.87-1.65,7.12-1.35
	c-0.52-0.75,0.37-1.72,2.77-3c3-0.75,4.72-1.8,5.32-3.29c0.15-0.08,0-0.15-0.45,0c0.67-2.62,0.97-4.12,0.9-4.49
	C67.4,197.34,67.25,197.05,67.03,196.82"/>
<path fill="#1787B3" d="M102.16,176c-1.05-1.57-1.95-1.5-2.92,0.22c-1.2-2.47-1.12-1.42,0.38,3c-1.05-1.27-1.87-2.17-2.47-2.92
	c-3.22,1.27-4.12,3.9-2.85,7.94c1.42,4.12-0.45,3-5.54-3.29c-2.32,0.3-5.47-0.75-9.44-2.85c0.75,0.52,0.67,1.2-0.3,1.87l0.75,0.97
	l4.27-0.22l-10.49,1.95c1.42,2.55,3.67,3.89,6.74,4.2l-10.56,9.81L68,201.17c5.32-7.27,9.81-9.89,13.41-7.87l2.77-11.23l0.07,8.39
	l3.67,1.2l4.2,0.45l-0.38,1.95l-0.38,4.34l-3.6,2.02c5.77-1.65,7.11,0.37,4.19,5.84l-0.6,1.12l1.27-0.97l2.1,1.57
	c1.05-0.75,1.35-0.3,0.97,1.5l0.75-0.6c0.3-0.67,0-1.5-0.97-2.4c-0.6-1.05-0.9-2.4-0.82-3.97c1.12-0.75,1.57-1.87,1.42-3.07
	c-0.67,0.07-1.12-0.67-1.35-2.02c-1.27-3.15-2.25-6.37-2.92-9.44l3.22,7.71c2.4-6.22,5.02-11.91,7.94-17
	c-0.15,0.38-0.3,0.75-0.38,1.12c-0.3,0.75-0.45,1.8-0.75,3.22c-0.82,3.37-1.87,6.74-3.15,10.11l1.95-1.8c0.15,0,0.38-0.75,0.82-2.1
	l6.82-5.77c-3.3,3.97-4.2,6.96-2.4,8.76c1.5,0.52,2.92-1.5,4.12-5.77l-0.82,9.81l3.22-13.26l-0.22,6.97
	c1.95-2.02,1.65-0.53-0.67,4.42c0.3-0.6,0.82-0.9,1.5-0.9l0.38,0.68c4.49-8.02,5.84-7.04,4.19,2.85c5.62,0.38,9.29-0.52,10.71-2.77
	l4.2,0.75l-7.71,7.87l4.94-3.97l-3.52,5.09c4.72-3,9.81-2.54,15.43,1.12c0.08-0.22,1.42-0.75,4.12-1.5
	c-3.67,2.17-6.89,3.52-9.59,3.97l4.42-0.38l0.53-0.45l8.46-3.44l-0.07,2.47c0.97,0.45,1.87,0.3,2.85-0.67
	c0.45,0.52-0.07,1.27-1.72,2.17c1.27,0.07,1.8,0.22,1.65,0.45c-0.75-0.08-1.35,0-1.8,0.22l2.02,0.3c-0.15,0.68-0.82,0.97-2.1,0.97
	c2.55,0.3,1.57,2.62-3,6.74c2.32-1.8,4.27-3.29,5.77-4.57c1.5-0.82,1.87-1.72,1.42-2.7c-0.6-0.23-1.05-0.45-1.35-0.75h0.97
	l-0.45-0.82l0.52,0.38l1.8-0.75l-0.97-2.02l1.12,1.65c0.3-0.6,0.23-1.05-0.22-1.65c-0.37-1.12-0.52-2.02-0.3-2.62
	c-0.3,0.15-0.45,0.15-0.6,0l-1.27-0.53c-0.38,0.3-0.75,0.68-1.42,1.42l1.5-2.25c1.05-0.15,1.12-0.37,0.22-0.75l-2.55,1.12
	c-1.12-0.97-2.92-0.9-5.47,0.22c-2.47,0.53-3.89,0.9-4.42,1.42l-2.32-1.65c-2.62,0.53-4.27,0.07-5.02-1.35
	c1.57,0.97,3.3,1.2,5.17,0.82c-1.35-0.6-1.65-1.42-0.97-2.55c-1.12,0.67-1.95,0.6-2.62-0.3l-1.12-1.87c0.3-1.5,0.82-2.4,1.8-2.62
	l-0.3,0.6l0.68-0.22l0.15-0.07c1.57,1.57,2.25,2.92,2.1,4.04c0.6-0.6,0.97-1.35,1.05-2.1c0.22-2.4-0.82-3.52-3.15-3.45
	c-2.4,0-4.87,0-7.26,0c-2.55,0.07-4.27-0.9-5.24-2.85c-1.8,0.67-3.52,1.95-5.24,3.89l4.42-5.54c0-0.82-1.5-2.55-4.64-5.17
	c-1.72,0.45-3.67-0.6-5.69-3.15c-2.02-2.54-2.17-6.52-0.45-11.76l-2.55-3.14l3.6-9.51l-1.8,4.27l3.9-12.88l-9.44-9.06l7.42,9.21
	l-0.38,0.38c-0.37,2.62-1.57,3.37-3.59,2.02l0.97,1.2l1.42,4.79l-2.1,2.4l-1.2,7.42c-1.05,1.57-1.8,2.92-2.32,3.97l3.14,0.45
	l-2.4,2.1c0.38,5.84-0.3,8.39-2.02,7.79C104.03,178.25,102.83,177.35,102.16,176"/>
<path fill="#1787B3" d="M88.38,179.74c-0.97-2.84-1.57-5.62-1.57-8.16c-0.07,3-0.9,5.17-2.32,6.29L88.38,179.74"/>
<path fill="#1787B3" d="M156.09,201.17c-0.38-0.15-0.68-0.22-0.82-0.22c-0.3,0.07-0.6,0.07-0.9,0.3L156.09,201.17"/>
<path d="M102.98,0.06c-4.94,0-7.56,0.37-8.01,1.12C91-0.47,87.03-0.39,82.98,1.41c-3.67-0.97-5.47,0-5.17,3
	c-3.15-1.12-4.42-0.67-4.04,1.12C69.8,2.68,61.79,1.33,49.73,1.41C39.24,1.48,31.6,3.06,26.81,5.98c-6.14-1.12-8.91,0.45-8.01,4.57
	c-1.05-1.2-2.47-1.12-4.34,0.37c-2.85-0.37-3.22,0.75-1.27,3.6c-6.37-0.6-8.99,3-7.94,10.79c-7.79,6.37-6.89,11.83,2.7,16.4
	c-4.57,3.07-2.7,7.49,5.62,13.33c0.15,9.51,4.87,13.41,14.08,11.83c0.23,1.57,1.8,2.4,4.79,2.25c1.2,1.8,2.55,2.1,4.04,1.05
	c3.9,4.64,7.64,4.94,11.24,0.75c0.3,0,3,0.45,7.86,1.42l-3.59-3.97c-0.6-0.67-0.67-0.9-0.15-0.82c0.52,0.07,2.85,1.12,7.12,3.15
	c2.7-0.67,3.37-1.57,2.02-2.77c2.92,0.75,4.27-0.6,3.97-3.75c1.35,0.37,3,0.52,4.64,0.45c3.89,3.6,7.64,4.34,11.23,2.62
	c0.82,1.42,2.47,1.42,5.09-0.08c3.9-0.75,6.52-1.8,7.64-3.22c3.75-0.82,6.67-2.02,8.76-3.82c1.35,4.42,3.67,5.32,6.97,2.55
	c3.14,5.02,5.99,5.24,8.31,0.67c2.62-2.4,4.12-2.62,4.42-0.75c-0.45,1.35-1.2,3.15-2.25,5.39c4.49,1.2,7.94,1.05,10.26-0.52
	c3.97,1.12,9.74,0.15,17.15-2.85c10.11,1.05,15.58-3.74,16.18-14.31c3.97,0.6,5.54-2.17,5.09-8.16c6.82-1.2,6.82-6.07,0-14.68
	c2.7-5.92-1.2-10.19-11.83-12.51c-4.79-5.99-11.09-7.56-18.88-4.79c-3.89-4.87-10.79-6.37-20.75-4.64
	c0.15-1.57-3.52-2.32-11.08-2.25C106.58,2.68,105.53,1.56,102.98,0.06"/>
<path fill="#72BE44" d="M105.98,4.78c-3.29-3.82-7.04-4.49-11.23-2.02c-3.82-2.1-7.49-1.95-10.94,0.3c-3.3-0.9-5.02,0-5.09,2.62
	c-2.7-1.27-4.04-0.6-4.19,2.1c1.5,1.65-0.97,3.6-7.56,5.69c4.72-2.25,6.97-3.82,6.97-4.72l-0.6-1.35
	c-16.4-6.52-31.53-6.37-45.39,0.3c-6.29-1.27-8.61-0.38-7.04,2.7c-1.12,0.38-1.72,0.75-1.95,1.27c-2.17-0.67-3.9-0.37-5.24,0.97
	c0.97,1.8,1.27,3.15,0.75,4.04c-0.3-0.22-0.6-0.52-1.05-0.82c-6.74,2.02-8.09,4.87-4.04,8.54c-10.34,6.74-9.96,12.51,1.12,17.3
	c-5.69,4.19-4.57,8.01,3.59,11.46c1.8,1.27,4.94,2.02,9.36,2.55c-2.62,1.2-5.39,0.97-8.39-0.82c-0.07,2.25,0.6,4.49,2.25,6.59
	c-0.15,4.27,3.9,5.02,12.28,2.32c-2.17,2.7-1.05,3.89,3.3,3.52c0.45,2.55,1.95,3.07,4.42,1.8c9.06-1.5,9.36-1.2,0.75,0.75
	c1.72,3.3,4.72,3.3,9.06-0.07c0.75-0.97,2.55-0.75,5.32,0.82c-2.32-2.32-2.62-3.82-0.97-4.49l6.97,2.62
	c1.65,1.35,2.25,0.6,2.02-2.32c3.59,1.8,4.42,0.37,2.4-4.12c4.57-1.95,6.74-3.6,6.59-4.87c0.52,1.87-1.12,3.52-5.02,5.09
	c2.02,1.27,3.74,1.57,5.17,0.67c6.44,4.12,10.11,4.79,10.94,2.1c2.02,2.47,4.12,2.25,6.29-0.82c1.5,1.5,3.37,0.82,5.54-2.02
	c-4.2-2.77-6.59-4.87-7.19-6.14c3.6,2.85,6.52,4.79,8.99,5.62c4.79-0.9,7.64-2.25,8.39-3.97c3.67-1.42,5.02-3.67,4.04-6.74
	c2.17,1.72,1.35,4.34-2.47,7.79c0.38,5.32,2.02,6.07,5.09,2.25c-0.22-0.97-0.15-1.87,0.3-2.77c1.42,7.94,4.27,8.69,8.46,2.32
	c3-0.3,5.1-1.42,5.99-3.37c1.5-0.6,0.6,2.7-2.77,10.11c6.22-0.45,8.84-1.42,7.87-2.92c2.1,2.7,7.56,2.32,16.25-1.27
	c10.34-0.37,15.96-5.09,16.85-14.23c4.19-0.37,5.84-2.62,4.72-6.74l-8.46-2.55l7.34,1.12c7.94-0.37,7.94-4.79,0.08-13.03
	c3.89-5.17,1.2-8.54-8.16-10.04c-6.07-7.34-12.51-9.36-19.18-5.99c-6.59-5.02-13.71-6.52-21.42-4.64c4.27,1.8,6.37,4.72,6.37,8.76
	c-1.72-3.97-3.37-6.29-5.02-6.89s-2.47-1.12-2.4-1.5c-0.38-0.67-0.3-1.35,0.22-1.87C113.02,4.4,109.57,4.03,105.98,4.78"/>
<path fill="#61A53B" d="M67.78,13.02c3.15-0.75,5.47-2.1,6.89-4.19l-0.9-1.87C67.4,6.58,61.11,6.8,54.82,7.55l10.94,2.47
	C61.94,14.14,62.54,15.19,67.78,13.02"/>
<path fill="#61A53B" d="M9.36,24.4c-6.67,4.19-8.91,8.09-6.67,11.83c2.92,2.85,5.47,4.64,7.79,5.47c-5.69,4.19-4.57,8.01,3.59,11.46
	c1.8,1.27,5.47,1.65,10.79,1.27c-3.6,2.1-6.82,2.25-9.81,0.45c-0.07,2.25,0.6,4.49,2.25,6.59c-0.15,4.27,3.9,5.02,12.28,2.32
	c-2.17,2.7-1.05,3.89,3.3,3.52c0.45,2.55,1.95,3.07,4.42,1.8l4.72-4.49l-1.42-4.49l2.62,0.37l0.75-2.55
	c0.82,1.87,2.1,2.77,3.74,2.62c3.89,1.95,2.92,3-2.92,3.3c1.2,2.1,1.05,3.37-0.45,3.97c-2.1,0.82-4.12,1.57-6.29,2.02
	c1.72,3.3,4.72,3.3,9.06-0.07c0.75-0.97,2.55-0.75,5.32,0.82c-2.32-2.32-2.62-3.82-0.97-4.49l6.97,2.62
	c1.65,1.35,2.25,0.6,2.02-2.32c3.59,1.8,2.47-1.87-3.37-10.86c1.87,2.62,3.97,1.87,6.44-2.25c-0.82,3.07-0.67,4.57,0.52,4.64
	c3.52-0.97,4.94-3.82,4.05-8.46c2.7,7.19,1.5,11.46-3.67,13.03c2.02,1.27,3.74,1.57,5.17,0.67c6.44,4.12,10.11,4.79,10.94,2.1
	c2.02,2.47,4.12,2.25,6.29-0.82c1.5,1.5,3.37,0.82,5.54-2.02c-4.2-2.77-6.59-4.87-7.19-6.14c3.6,2.85,6.52,4.79,8.99,5.62
	c4.79-0.9,6.89-3,6.29-6.29c5.09,0.15,7.12-1.35,6.14-4.42c2.17,1.72,1.35,4.34-2.47,7.79c0.38,5.32,2.02,6.07,5.09,2.25
	c-0.22-0.97-0.15-1.87,0.3-2.77c1.42,7.94,4.27,8.69,8.46,2.32c3-0.3,4.87-2.1,5.54-5.47c1.8,0.75,1.05,4.79-2.32,12.21
	c6.22-0.45,8.84-1.42,7.87-2.92c2.1,1.2,3.74,1.12,4.72-0.3c-6.22,0.15-7.71-1.87-4.57-6.07l-2.02-3.15
	c-0.38-1.57,0.9-1.87,3.82-1.05c-3.22-1.2-6.07-1.8-8.76-1.65c-4.72-0.45-5.02-2.92-0.82-7.42c-5.32-1.42-5.99-3.82-1.95-7.19
	c-8.84,6.44-16.63,9.14-23.37,8.09c-4.72-0.45-4.04,1.87,2.25,6.74c-5.54,1.42-9.06,1.5-10.71,0.37c-5.09,1.2-6.74,0.67-5.09-1.57
	c-0.97-0.45-1.35-1.5-1.2-3c-2.32-1.5-2.92-3.67-1.95-6.67c1.05-3.75,2.17-6.59,3.52-8.46l-10.49,8.16
	c-3.37,0.23-5.17-0.82-5.62-3.45c-3.52,3.15-8.31,5.09-14.23,5.92c-0.6,3.67-3.15,5.24-7.49,4.79c-6.37-0.15-8.69-0.9-6.97-2.25
	c-3.52,0.6-4.79-0.22-3.97-2.55c0.08-2.17,1.2-4.04,3.07-5.77l-4.49,2.47c-2.77,2.17-4.64,2.1-5.62-0.3
	c-12.06,3.6-13.18,2.47-3.52-3.3c-5.84-1.65-8.16-3.67-6.82-6.07c4.12-13.26,3.37-17.98-2.17-14.31c-0.15-0.22-0.6-0.52-1.35-1.05
	C6.14,17.89,4.86,20.73,9.36,24.4"/>
<path fill="#61A53B" d="M131.52,16.91c0.52-2.25,2.77-3.15,6.67-2.47c-1.42-5.54-8.24-8.01-20.37-7.42
	c3.45,2.17,5.39,5.17,5.62,8.99C126.65,15.41,129.42,15.64,131.52,16.91"/>
<circle fill="#EDEDED" cx="104.2" cy="149.61" r="1.75"/>
<circle fill="#EDEDED" cx="95.65" cy="149.2" r="1.15"/>
</svg>
