<?xml version="1.0" standalone="no"?><!DOCTYPE svg PUBLIC "-//W3C//DTD SVG 1.1//EN" "http://www.w3.org/Graphics/SVG/1.1/DTD/svg11.dtd"><svg width="100%" height="100%" version="1.1" xmlns="http://www.w3.org/2000/svg"><g id="two-0" transform="matrix(1 0 0 1 0 0)"><g id="two-4" transform="matrix(1 0 0 1 200 200)"><g id="two-3" transform="matrix(1 0 0 1 0.774 -0.166)"><path id="two-5" transform="matrix(1 0 0 1 0 0)" d="M 100.000 0.000 C 100.000 8.615 98.822 17.561 96.593 25.882 C 94.363 34.203 90.910 42.539 86.603 50.000 C 82.295 57.461 76.802 64.619 70.711 70.711 C 64.619 76.802 57.461 82.295 50.000 86.603 C 42.539 90.910 34.203 94.363 25.882 96.593 C 17.561 98.822 8.615 100.000 0.000 100.000 C -8.615 100.000 -17.561 98.822 -25.882 96.593 C -34.203 94.363 -42.539 90.910 -50.000 86.603 C -57.461 82.295 -64.619 76.802 -70.711 70.711 C -76.802 64.619 -82.295 57.461 -86.603 50.000 C -90.910 42.539 -94.363 34.203 -96.593 25.882 C -98.822 17.561 -100.000 8.615 -100.000 0.000 C -100.000 -8.615 -98.822 -17.561 -96.593 -25.882 C -94.363 -34.203 -90.910 -42.539 -86.603 -50.000 C -82.295 -57.461 -76.802 -64.619 -70.711 -70.711 C -64.619 -76.802 -57.461 -82.295 -50.000 -86.603 C -42.539 -90.910 -34.203 -94.363 -25.882 -96.593 C -17.561 -98.822 -8.615 -100.000 -0.000 -100.000 C 8.615 -100.000 17.561 -98.822 25.882 -96.593 C 34.203 -94.363 42.539 -90.910 50.000 -86.603 C 57.461 -82.295 64.619 -76.802 70.711 -70.711 C 76.802 -64.619 82.295 -57.461 86.603 -50.000 C 90.910 -42.539 94.363 -34.203 96.593 -25.882 C 98.822 -17.561 100.000 -8.615 100.000 0.000 Z" fill="rgba(174,94,90,0.66)" stroke="transparent" stroke-width="1" stroke-opacity="1" fill-opacity="1" visibility="visible" stroke-linecap="butt" stroke-linejoin="miter" stroke-miterlimit="4"></path><path id="two-6" transform="matrix(1 0 0 1 0 0)" d="M 66.667 0.000 C 66.667 5.743 65.881 11.707 64.395 17.255 C 62.909 22.802 60.607 28.360 57.735 33.333 C 54.863 38.307 51.201 43.079 47.140 47.140 C 43.079 51.201 38.307 54.863 33.333 57.735 C 28.360 60.607 22.802 62.909 17.255 64.395 C 11.707 65.881 5.743 66.667 0.000 66.667 C -5.743 66.667 -11.707 65.881 -17.255 64.395 C -22.802 62.909 -28.360 60.607 -33.333 57.735 C -38.307 54.863 -43.079 51.201 -47.140 47.140 C -51.201 43.079 -54.863 38.307 -57.735 33.333 C -60.607 28.360 -62.909 22.802 -64.395 17.255 C -65.881 11.707 -66.667 5.743 -66.667 0.000 C -66.667 -5.743 -65.881 -11.707 -64.395 -17.255 C -62.909 -22.802 -60.607 -28.360 -57.735 -33.333 C -54.863 -38.307 -51.201 -43.079 -47.140 -47.140 C -43.079 -51.201 -38.307 -54.863 -33.333 -57.735 C -28.360 -60.607 -22.802 -62.909 -17.255 -64.395 C -11.707 -65.881 -5.743 -66.667 -0.000 -66.667 C 5.743 -66.667 11.707 -65.881 17.255 -64.395 C 22.802 -62.909 28.360 -60.607 33.333 -57.735 C 38.307 -54.863 43.079 -51.201 47.140 -47.140 C 51.201 -43.079 54.863 -38.307 57.735 -33.333 C 60.607 -28.360 62.909 -22.802 64.395 -17.255 C 65.881 -11.707 66.667 -5.743 66.667 0.000 Z" fill="#333" stroke="transparent" stroke-width="10" stroke-opacity="1" fill-opacity="1" visibility="visible" stroke-linecap="butt" stroke-linejoin="miter" stroke-miterlimit="4"></path><path id="two-7" transform="matrix(1 0 0 1 33.333 -33.333)" d="M 33.333 0.000 C 33.333 2.872 32.941 5.854 32.198 8.627 C 31.454 11.401 30.303 14.180 28.868 16.667 C 27.432 19.154 25.601 21.540 23.570 23.570 C 21.540 25.601 19.154 27.432 16.667 28.868 C 14.180 30.303 11.401 31.454 8.627 32.198 C 5.854 32.941 2.872 33.333 0.000 33.333 C -2.872 33.333 -5.854 32.941 -8.627 32.198 C -11.401 31.454 -14.180 30.303 -16.667 28.868 C -19.154 27.432 -21.540 25.601 -23.570 23.570 C -25.601 21.540 -27.432 19.154 -28.868 16.667 C -30.303 14.180 -31.454 11.401 -32.198 8.627 C -32.941 5.854 -33.333 2.872 -33.333 0.000 C -33.333 -2.872 -32.941 -5.854 -32.198 -8.627 C -31.454 -11.401 -30.303 -14.180 -28.868 -16.667 C -27.432 -19.154 -25.601 -21.540 -23.570 -23.570 C -21.540 -25.601 -19.154 -27.432 -16.667 -28.868 C -14.180 -30.303 -11.401 -31.454 -8.627 -32.198 C -5.854 -32.941 -2.872 -33.333 -0.000 -33.333 C 2.872 -33.333 5.854 -32.941 8.627 -32.198 C 11.401 -31.454 14.180 -30.303 16.667 -28.868 C 19.154 -27.432 21.540 -25.601 23.570 -23.570 C 25.601 -21.540 27.432 -19.154 28.868 -16.667 C 30.303 -14.180 31.454 -11.401 32.198 -8.627 C 32.941 -5.854 33.333 -2.872 33.333 0.000 Z" fill="rgba(255, 255, 255, 0.9)" stroke="transparent" stroke-width="1" stroke-opacity="1" fill-opacity="1" visibility="visible" stroke-linecap="butt" stroke-linejoin="miter" stroke-miterlimit="4"></path></g><path id="two-9" transform="matrix(1 0 0 1 0 -87.059)" d="M -200.000 87.059 L -200.000 -112.941 L 200.000 -112.941 L 200.000 87.059 L 128.790 61.177 L 115.470 37.059 L 94.281 16.348 L 66.667 0.457 L 34.509 -9.534 L -0.000 -12.941 L -34.509 -9.534 L -66.667 0.457 L -94.281 16.348 L -115.470 37.059 L -128.790 61.177 L -133.333 87.059 L -128.790 112.941 Z" fill="white" stroke="transparent" stroke-width="1" stroke-opacity="1" fill-opacity="1" visibility="visible" stroke-linecap="butt" stroke-linejoin="miter" stroke-miterlimit="4"></path><path id="two-10" transform="matrix(1 0 0 1 0 87.059)" d="M -200.000 -87.059 L -200.000 112.941 L 200.000 112.941 L 200.000 -87.059 L 128.790 -112.941 L 133.333 -87.059 L 128.790 -61.177 L 115.470 -37.059 L 94.281 -16.348 L 66.667 -0.457 L 34.509 9.534 L 0.000 12.941 L -34.509 9.534 L -66.667 -0.457 L -94.281 -16.348 L -115.470 -37.059 L -128.790 -61.177 Z" fill="white" stroke="transparent" stroke-width="1" stroke-opacity="1" fill-opacity="1" visibility="visible" stroke-linecap="butt" stroke-linejoin="miter" stroke-miterlimit="4"></path><path id="two-11" transform="matrix(1 0 0 1 0 0)" d="M 133.333 0.000 C 133.333 8.672 131.675 17.704 128.790 25.882 C 125.765 34.456 120.978 42.766 115.470 50.000 C 109.547 57.780 102.076 64.808 94.281 70.711 C 85.899 77.058 76.302 82.395 66.667 86.603 C 56.483 91.049 45.400 94.387 34.509 96.593 C 23.293 98.864 11.443 100.000 0.000 100.000 C -11.443 100.000 -23.293 98.864 -34.509 96.593 C -45.400 94.387 -56.483 91.049 -66.667 86.603 C -76.302 82.395 -85.899 77.058 -94.281 70.711 C -102.076 64.808 -109.547 57.780 -115.470 50.000 C -120.978 42.766 -125.765 34.456 -128.790 25.882 C -131.675 17.704 -133.333 8.672 -133.333 0.000 C -133.333 -8.672 -131.675 -17.704 -128.790 -25.882 C -125.765 -34.456 -120.978 -42.766 -115.470 -50.000 C -109.547 -57.780 -102.076 -64.808 -94.281 -70.711 C -85.899 -77.058 -76.302 -82.395 -66.667 -86.603 C -56.483 -91.049 -45.400 -94.387 -34.509 -96.593 C -23.293 -98.864 -11.443 -100.000 -0.000 -100.000 C 11.443 -100.000 23.293 -98.864 34.509 -96.593 C 45.400 -94.387 56.483 -91.049 66.667 -86.603 C 76.302 -82.395 85.899 -77.058 94.281 -70.711 C 102.076 -64.808 109.547 -57.780 115.470 -50.000 C 120.978 -42.766 125.765 -34.456 128.790 -25.882 C 131.675 -17.704 133.333 -8.672 133.333 0.000 Z" fill="transparent" stroke="#333" stroke-width="15" stroke-opacity="1" fill-opacity="1" visibility="visible" stroke-linecap="butt" stroke-linejoin="miter" stroke-miterlimit="4"></path></g></g></svg>
