<svg xmlns="http://www.w3.org/2000/svg" xmlns:xlink="http://www.w3.org/1999/xlink" viewBox="0 0 64 64"><defs><style>.cls-1{fill:url(#linear-gradient);}.cls-2{fill:url(#linear-gradient-2);}.cls-3{fill:url(#linear-gradient-3);}.cls-4{fill:url(#linear-gradient-4);}.cls-5{fill:url(#linear-gradient-5);}.cls-6{fill:url(#linear-gradient-6);}.cls-7{fill:url(#linear-gradient-7);}.cls-8{fill:url(#linear-gradient-8);}.cls-9{fill:url(#linear-gradient-9);}.cls-10{fill:url(#linear-gradient-10);}.cls-11{fill:url(#linear-gradient-11);}.cls-12{fill:url(#linear-gradient-12);}.cls-13{fill:url(#linear-gradient-13);}.cls-14{fill:url(#linear-gradient-14);}.cls-15{fill:url(#linear-gradient-15);}.cls-16{fill:url(#linear-gradient-16);}.cls-17{fill:url(#linear-gradient-17);}.cls-18{fill:url(#linear-gradient-18);}.cls-19{fill:url(#linear-gradient-19);}.cls-20{fill:url(#linear-gradient-20);}.cls-21{fill:url(#linear-gradient-21);}.cls-22{fill:url(#linear-gradient-22);}.cls-23{fill:url(#linear-gradient-23);}.cls-24{fill:url(#linear-gradient-24);}.cls-25{fill:url(#linear-gradient-25);}.cls-26{fill:url(#linear-gradient-26);}.cls-27{fill:url(#linear-gradient-27);}.cls-28{fill:url(#linear-gradient-28);}.cls-29{fill:url(#linear-gradient-29);}.cls-30{fill:url(#linear-gradient-30);}.cls-31{fill:url(#linear-gradient-31);}.cls-32{fill:url(#linear-gradient-32);}.cls-33{fill:url(#linear-gradient-33);}.cls-34{fill:url(#linear-gradient-34);}.cls-35{fill:url(#linear-gradient-35);}.cls-36{fill:url(#linear-gradient-36);}.cls-37{fill:url(#linear-gradient-37);}.cls-38{fill:url(#linear-gradient-39);}.cls-39{fill:url(#linear-gradient-40);}.cls-40{fill:url(#linear-gradient-42);}.cls-41{fill:url(#linear-gradient-43);}.cls-42{fill:url(#linear-gradient-45);}.cls-43{fill:url(#linear-gradient-46);}.cls-44{fill:url(#linear-gradient-48);}.cls-45{fill:url(#linear-gradient-49);}.cls-46{fill:url(#linear-gradient-51);}.cls-47{fill:url(#linear-gradient-52);}.cls-48{fill:url(#linear-gradient-53);}.cls-49{fill:url(#linear-gradient-54);}.cls-50{fill:url(#linear-gradient-66);}.cls-51{fill:url(#linear-gradient-67);}</style><linearGradient id="linear-gradient" x1="32" y1="61.25" x2="32" y2="-12.78" gradientUnits="userSpaceOnUse"><stop offset="0" stop-color="#2d9178"/><stop offset="0.52" stop-color="#2d5f78"/><stop offset="1" stop-color="#3c4178"/></linearGradient><linearGradient id="linear-gradient-2" x1="31.77" y1="63.75" x2="31.77" y2="-45.84" gradientUnits="userSpaceOnUse"><stop offset="0" stop-color="#2d9178"/><stop offset="0.44" stop-color="#2d5f78"/><stop offset="1" stop-color="#3c4178"/></linearGradient><linearGradient id="linear-gradient-3" x1="31.25" y1="38.17" x2="31.25" y2="-14.01" gradientUnits="userSpaceOnUse"><stop offset="0" stop-color="#2d9178"/><stop offset="0.43" stop-color="#2d5f78"/><stop offset="1" stop-color="#3c4178"/></linearGradient><linearGradient id="linear-gradient-4" x1="31.68" y1="34.33" x2="31.68" y2="-11.17" xlink:href="#linear-gradient"/><linearGradient id="linear-gradient-5" x1="17" y1="32.75" x2="17" y2="46.46" xlink:href="#linear-gradient-2"/><linearGradient id="linear-gradient-6" x1="9.88" y1="26.5" x2="9.88" y2="35.65" xlink:href="#linear-gradient-2"/><linearGradient id="linear-gradient-7" x1="13.14" y1="27.35" x2="13.14" y2="33.7" xlink:href="#linear-gradient-2"/><linearGradient id="linear-gradient-8" x1="43.62" y1="34.06" x2="43.62" y2="51.14" xlink:href="#linear-gradient-2"/><linearGradient id="linear-gradient-9" x1="44.49" y1="31.84" x2="44.49" y2="36.1" xlink:href="#linear-gradient-2"/><linearGradient id="linear-gradient-10" x1="20.21" y1="36.4" x2="20.21" y2="43.12" xlink:href="#linear-gradient-2"/><linearGradient id="linear-gradient-11" x1="53.07" y1="25.75" x2="53.07" y2="41.24" xlink:href="#linear-gradient-2"/><linearGradient id="linear-gradient-12" x1="50.73" y1="34.38" x2="50.73" y2="42.91" xlink:href="#linear-gradient-2"/><linearGradient id="linear-gradient-13" x1="16.23" y1="54.33" x2="16.23" y2="22.1" xlink:href="#linear-gradient"/><linearGradient id="linear-gradient-14" x1="47.77" y1="54.33" x2="47.77" y2="22.1" xlink:href="#linear-gradient"/><linearGradient id="linear-gradient-15" x1="32.21" y1="60.67" x2="32.21" y2="34.31" xlink:href="#linear-gradient"/><linearGradient id="linear-gradient-16" x1="32" y1="7.64" x2="32" y2="115.39" gradientUnits="userSpaceOnUse"><stop offset="0" stop-color="#ffd600"/><stop offset="0.48" stop-color="#ff9c38"/><stop offset="1" stop-color="#ff5147"/></linearGradient><linearGradient id="linear-gradient-17" x1="53.2" y1="57.77" x2="17.95" y2="1.66" xlink:href="#linear-gradient-16"/><linearGradient id="linear-gradient-18" x1="20.87" y1="21.74" x2="20.87" y2="40.64" gradientUnits="userSpaceOnUse"><stop offset="0.02" stop-color="#f0ffef"/><stop offset="0.54" stop-color="#b4d3ca"/><stop offset="0.99" stop-color="#94aac7"/></linearGradient><linearGradient id="linear-gradient-19" x1="43.13" y1="21.74" x2="43.13" y2="40.64" xlink:href="#linear-gradient-18"/><linearGradient id="linear-gradient-20" x1="23.75" y1="43.74" x2="23.75" y2="59.63" xlink:href="#linear-gradient-18"/><linearGradient id="linear-gradient-21" x1="40.25" y1="43.74" x2="40.25" y2="59.63" xlink:href="#linear-gradient-18"/><linearGradient id="linear-gradient-22" x1="32" y1="1.71" x2="32" y2="67.43" xlink:href="#linear-gradient-16"/><linearGradient id="linear-gradient-23" x1="28.57" y1="17.19" x2="28.57" y2="21.19" gradientUnits="userSpaceOnUse"><stop offset="0" stop-color="#208ca3"/><stop offset="0.42" stop-color="#3c4178"/><stop offset="1" stop-color="#241b3c"/></linearGradient><linearGradient id="linear-gradient-24" x1="26.78" y1="20.15" x2="26.78" y2="37.07" xlink:href="#linear-gradient-16"/><linearGradient id="linear-gradient-25" x1="712.6" y1="17.19" x2="712.6" y2="21.19" gradientTransform="matrix(-1, 0, 0, 1, 748.03, 0)" xlink:href="#linear-gradient-23"/><linearGradient id="linear-gradient-26" x1="37.46" y1="20.15" x2="37.46" y2="37.07" xlink:href="#linear-gradient-16"/><linearGradient id="linear-gradient-27" x1="32" y1="28.29" x2="32" y2="17.65" gradientUnits="userSpaceOnUse"><stop offset="0" stop-color="#ffbe5d"/><stop offset="0.55" stop-color="#ec4d5c"/><stop offset="1" stop-color="#9e485d"/></linearGradient><linearGradient id="linear-gradient-28" x1="32" y1="21.8" x2="32" y2="26.24" xlink:href="#linear-gradient-27"/><linearGradient id="linear-gradient-29" x1="29.34" y1="23.9" x2="29.34" y2="35.23" xlink:href="#linear-gradient-27"/><linearGradient id="linear-gradient-30" x1="34.66" y1="23.9" x2="34.66" y2="35.23" xlink:href="#linear-gradient-27"/><linearGradient id="linear-gradient-31" x1="32" y1="24.69" x2="32" y2="36.3" xlink:href="#linear-gradient-27"/><linearGradient id="linear-gradient-32" x1="31.98" y1="34.82" x2="31.98" y2="24.38" xlink:href="#linear-gradient-27"/><linearGradient id="linear-gradient-33" x1="716.03" y1="31.48" x2="716.03" y2="34.44" gradientTransform="matrix(-1, 0, 0, 1, 748.03, 0)" xlink:href="#linear-gradient-23"/><linearGradient id="linear-gradient-34" x1="716.03" y1="34.32" x2="716.03" y2="37.28" gradientTransform="matrix(-1, 0, 0, 1, 748.03, 0)" xlink:href="#linear-gradient-23"/><linearGradient id="linear-gradient-35" x1="716.03" y1="37.16" x2="716.03" y2="40.12" gradientTransform="matrix(-1, 0, 0, 1, 748.03, 0)" xlink:href="#linear-gradient-23"/><linearGradient id="linear-gradient-36" x1="716.03" y1="40" x2="716.03" y2="42.95" gradientTransform="matrix(-1, 0, 0, 1, 748.03, 0)" xlink:href="#linear-gradient-23"/><linearGradient id="linear-gradient-37" x1="47.52" y1="21.49" x2="47.52" y2="40.66" xlink:href="#linear-gradient-2"/><linearGradient id="linear-gradient-39" x1="46.59" y1="21.49" x2="46.59" y2="40.66" xlink:href="#linear-gradient-2"/><linearGradient id="linear-gradient-40" x1="14.38" y1="22.25" x2="14.38" y2="41.42" xlink:href="#linear-gradient-2"/><linearGradient id="linear-gradient-42" x1="13.45" y1="22.25" x2="13.45" y2="41.42" xlink:href="#linear-gradient-2"/><linearGradient id="linear-gradient-43" x1="19.49" y1="19.09" x2="19.49" y2="28.91" xlink:href="#linear-gradient-2"/><linearGradient id="linear-gradient-45" x1="19.02" y1="19.09" x2="19.02" y2="28.91" xlink:href="#linear-gradient-2"/><linearGradient id="linear-gradient-46" x1="20.88" y1="14.57" x2="20.88" y2="24.39" xlink:href="#linear-gradient-2"/><linearGradient id="linear-gradient-48" x1="20.4" y1="14.57" x2="20.4" y2="24.39" xlink:href="#linear-gradient-2"/><linearGradient id="linear-gradient-49" x1="43.14" y1="15.87" x2="43.14" y2="25.69" xlink:href="#linear-gradient-2"/><linearGradient id="linear-gradient-51" x1="42.67" y1="15.87" x2="42.67" y2="25.69" xlink:href="#linear-gradient-2"/><linearGradient id="linear-gradient-52" x1="6.48" y1="33.79" x2="6.48" y2="73.86" xlink:href="#linear-gradient"/><linearGradient id="linear-gradient-53" x1="7.65" y1="33.79" x2="7.65" y2="73.86" xlink:href="#linear-gradient"/><linearGradient id="linear-gradient-54" x1="8.83" y1="33.79" x2="8.83" y2="73.86" xlink:href="#linear-gradient"/><linearGradient id="linear-gradient-66" x1="32" y1="62.25" x2="32" y2="39.42" xlink:href="#linear-gradient"/><linearGradient id="linear-gradient-67" x1="16.23" y1="19.75" x2="16.23" y2="-0.09" xlink:href="#linear-gradient-3"/></defs><title>Gingerbread man</title><g id="Layer_3" data-name="Layer 3"><circle class="cls-1" cx="32" cy="32" r="27.4"/><path class="cls-2" d="M55.79,18.42,52.7,19.86a5.93,5.93,0,0,1-5.11.08,4.88,4.88,0,0,0-4.23-.06L39,21.9a6.66,6.66,0,0,1-5.62,0h0a4.1,4.1,0,0,0-3.45,0l-1.58.74a7.61,7.61,0,0,1-6.42,0l-4.34-2a4,4,0,0,0-3.35,0l-3.47,1.61a2.89,2.89,0,0,1-2.44,0L6.7,21.47a27.24,27.24,0,0,0-2,8.4l3.65,1.7a2.89,2.89,0,0,0,2.44,0L14.25,30a4,4,0,0,1,3.35,0l4.34,2a7.61,7.61,0,0,0,6.42,0l1.58-.74a4.1,4.1,0,0,1,3.45,0l1.94.9a2.06,2.06,0,0,0,1.74,0l6.27-2.91a4.7,4.7,0,0,1,4-.06,6.17,6.17,0,0,0,5.31.05l4-1.85a21.73,21.73,0,0,1,2.2-.88A27.2,27.2,0,0,0,55.79,18.42Z"/><path class="cls-3" d="M55.84,18.5a27.51,27.51,0,0,0-6-7.3,6.15,6.15,0,0,1-2.41-.59,5,5,0,0,0-4.21.09l-4.2,2a6.66,6.66,0,0,1-5.62,0h0a4.1,4.1,0,0,0-3.45,0l-1.58.73a7.61,7.61,0,0,1-6.42,0l-4.34-2a4,4,0,0,0-3.35,0l-.61.28a27.45,27.45,0,0,0-7,9.89l1.67.78a2.89,2.89,0,0,0,2.44,0l3.47-1.61a4,4,0,0,1,3.35,0l4.34,2a7.61,7.61,0,0,0,6.42,0L29.93,22a4.1,4.1,0,0,1,3.45,0h0A6.66,6.66,0,0,0,39,22l4.33-2a4.7,4.7,0,0,1,4-.06,6.17,6.17,0,0,0,5.31.05Z"/><path class="cls-4" d="M32,4.6a27.3,27.3,0,0,0-18.57,7.26l.82-.38a4,4,0,0,1,3.35,0l4.34,2a7.61,7.61,0,0,0,6.42,0l1.58-.74a4.1,4.1,0,0,1,3.45,0h0a6.66,6.66,0,0,0,5.62,0l4.35-2a4.86,4.86,0,0,1,4.1,0,6.16,6.16,0,0,0,2.49.57A27.28,27.28,0,0,0,32,4.6Z"/><circle class="cls-5" cx="17" cy="33.81" r="0.56"/><circle class="cls-6" cx="9.88" cy="27.21" r="0.38"/><circle class="cls-7" cx="13.14" cy="27.84" r="0.26"/><circle class="cls-8" cx="43.62" cy="35.39" r="0.7"/><circle class="cls-9" cx="44.49" cy="32.17" r="0.17"/><circle class="cls-10" cx="20.21" cy="36.92" r="0.28"/><circle class="cls-11" cx="53.07" cy="26.95" r="0.64"/><circle class="cls-12" cx="50.73" cy="35.04" r="0.35"/></g><g id="Layer_2" data-name="Layer 2"><path class="cls-13" d="M21.55,46.25h-5v-.61A2.56,2.56,0,0,0,14,43.08H11.29v-8a1.35,1.35,0,0,0-1.35-1.35H4.66A27.4,27.4,0,0,0,27.79,59.08V48.67H23.36v-.6A1.81,1.81,0,0,0,21.55,46.25Z"/><path class="cls-14" d="M56,33.75h0a3.1,3.1,0,0,0-3.1,3.1v6.24h-3.2a2,2,0,0,0-2,2v1.13H40.85v2.42H36.42V59.08A27.42,27.42,0,0,0,59.07,37.43,3.09,3.09,0,0,0,56,33.75Z"/><path class="cls-15" d="M11.51,49.94a27.38,27.38,0,0,0,41.4,0Z"/><path class="cls-16" d="M46.35,25a2.46,2.46,0,0,0-2.9-.63L39,26.3a11.58,11.58,0,0,1-4.68,1H29.69a11.58,11.58,0,0,1-4.68-1l-4.46-2a2.46,2.46,0,0,0-2.9.63,2.41,2.41,0,0,0,.88,3.73l4.89,2.16a2.5,2.5,0,0,1,1.49,2.28v5.39a9.69,9.69,0,0,1-1.6,5.33l-2.62,4A2.86,2.86,0,0,0,21,51.43,2.78,2.78,0,0,0,25.26,51l1.52-2.31A6.25,6.25,0,0,1,32,45.88h0a6.25,6.25,0,0,1,5.22,2.81l1.46,2.21A2.86,2.86,0,0,0,42.09,52a2.78,2.78,0,0,0,1.29-4.11l-2.69-4.08a9.69,9.69,0,0,1-1.6-5.33V33.13a2.5,2.5,0,0,1,1.49-2.28l4.89-2.16A2.41,2.41,0,0,0,46.35,25Z"/><path class="cls-17" d="M43.38,47.94l-2.69-4.08a9.69,9.69,0,0,1-1.6-5.33V33.13a2.5,2.5,0,0,1,1.49-2.28l4.89-2.16A2.41,2.41,0,0,0,46.35,25a2.46,2.46,0,0,0-2.9-.63L39,26.3a11.58,11.58,0,0,1-4.68,1h-4.1l-2,1.14h0a12.78,12.78,0,0,1,3.74,9v8.41H32a6.25,6.25,0,0,1,5.22,2.81l1.46,2.21A2.86,2.86,0,0,0,42.09,52,2.78,2.78,0,0,0,43.38,47.94Z"/><polygon class="cls-18" points="19.33 29.05 20.51 29.57 22.4 25.15 21.23 24.63 19.33 29.05"/><polygon class="cls-19" points="42.77 24.63 41.6 25.15 43.49 29.57 44.67 29.05 42.77 24.63"/><polygon class="cls-20" points="26.41 49.24 21.79 46.17 21.08 47.25 25.71 50.32 26.41 49.24"/><polygon class="cls-21" points="38.29 50.32 42.92 47.25 42.21 46.17 37.59 49.24 38.29 50.32"/><circle class="cls-22" cx="32" cy="20.34" r="8.58"/><circle class="cls-23" cx="28.57" cy="19.58" r="0.76"/><circle class="cls-24" cx="26.78" cy="22.18" r="1.42"/><circle class="cls-25" cx="35.43" cy="19.58" r="0.76"/><circle class="cls-26" cx="37.46" cy="22.18" r="1.42"/><path class="cls-27" d="M29.86,21a.56.56,0,0,0-.55.69,2.77,2.77,0,0,0,5.37,0,.56.56,0,0,0-.55-.69Z"/><path class="cls-28" d="M32,23.79a2.76,2.76,0,0,0,1.75-.62,2.76,2.76,0,0,0-3.49,0A2.76,2.76,0,0,0,32,23.79Z"/><path class="cls-29" d="M30.61,31.2l-1.7.83a1,1,0,0,1-1.38-.86V28a1,1,0,0,1,1.38-.86l1.7.83a1,1,0,0,1,.54.86v1.54A1,1,0,0,1,30.61,31.2Z"/><path class="cls-30" d="M33.39,27.93l1.7-.83a1,1,0,0,1,1.38.86v3.19a1,1,0,0,1-1.38.86l-1.7-.83a1,1,0,0,1-.54-.86V28.79A1,1,0,0,1,33.39,27.93Z"/><rect class="cls-31" x="30.2" y="27.76" width="3.61" height="3.61" rx="0.88" ry="0.88"/><circle class="cls-32" cx="31.98" cy="29.56" r="0.63"/><circle class="cls-33" cx="32" cy="33.25" r="0.56"/><circle class="cls-34" cx="32" cy="36.09" r="0.56"/><circle class="cls-35" cx="32" cy="38.92" r="0.56"/><circle class="cls-36" cx="32" cy="41.76" r="0.56"/><path class="cls-37" d="M47.53,23.34s0,0,0,0,0,0,0,0Z"/><path class="cls-37" d="M46.62,22.38a.91.91,0,0,1,.91.91.91.91,0,0,1,.91-.91.91.91,0,0,1-.91-.91A.91.91,0,0,1,46.62,22.38Z"/><path class="cls-38" d="M46.57,22.39h0Z"/><path class="cls-39" d="M14.39,24.1s0,0,0,0,0,0,0,0Z"/><path class="cls-39" d="M13.47,23.14a.91.91,0,0,1,.91.91.91.91,0,0,1,.91-.91.91.91,0,0,1-.91-.91A.91.91,0,0,1,13.47,23.14Z"/><path class="cls-40" d="M13.43,23.15h0Z"/><path class="cls-41" d="M19.5,20v0Z"/><path class="cls-41" d="M19,19.55a.47.47,0,0,1,.47.47.47.47,0,0,1,.47-.47.47.47,0,0,1-.47-.47A.47.47,0,0,1,19,19.55Z"/><path class="cls-42" d="M19,19.55h0Z"/><path class="cls-43" d="M20.88,15.52v0Z"/><path class="cls-43" d="M20.41,15a.47.47,0,0,1,.47.47.47.47,0,0,1,.47-.47.47.47,0,0,1-.47-.47A.47.47,0,0,1,20.41,15Z"/><path class="cls-44" d="M20.39,15h0Z"/><path class="cls-45" d="M43.15,16.82v0Z"/><path class="cls-45" d="M42.68,16.33a.47.47,0,0,1,.47.47.47.47,0,0,1,.47-.47.47.47,0,0,1-.47-.47A.47.47,0,0,1,42.68,16.33Z"/><path class="cls-46" d="M42.66,16.33h0Z"/><rect class="cls-47" x="6.14" y="35.69" width="0.67" height="0.67"/><rect class="cls-48" x="7.32" y="35.69" width="0.67" height="0.67"/><rect class="cls-49" x="8.5" y="35.69" width="0.67" height="0.67"/><rect class="cls-47" x="6.14" y="36.84" width="0.67" height="0.67"/><rect class="cls-48" x="7.32" y="36.84" width="0.67" height="0.67"/><rect class="cls-49" x="8.5" y="36.84" width="0.67" height="0.67"/><rect class="cls-48" x="7.32" y="38" width="0.67" height="0.67"/><rect class="cls-49" x="8.5" y="38" width="0.67" height="0.67"/><rect class="cls-48" x="7.32" y="39.15" width="0.67" height="0.67"/><rect class="cls-49" x="8.5" y="39.15" width="0.67" height="0.67"/><rect class="cls-48" x="7.32" y="40.31" width="0.67" height="0.67"/><rect class="cls-49" x="8.5" y="40.31" width="0.67" height="0.67"/><rect class="cls-49" x="8.5" y="41.46" width="0.67" height="0.67"/><rect class="cls-49" x="8.5" y="42.62" width="0.67" height="0.67"/><ellipse class="cls-50" cx="32" cy="54.56" rx="9.45" ry="0.81"/><path class="cls-51" d="M17.18,17a1.65,1.65,0,0,1-.89-3h-.06a2.35,2.35,0,1,0,2.35,2.35s0,0,0-.06A1.65,1.65,0,0,1,17.18,17Z"/></g></svg>
