<?xml version="1.0" encoding="utf-8"?>
<!-- Generator: Adobe Illustrator 14.0.0, SVG Export Plug-In  -->
<!DOCTYPE svg PUBLIC "-//W3C//DTD SVG 1.1 Tiny//EN" "http://www.w3.org/Graphics/SVG/1.1/DTD/svg11-tiny.dtd" [
	<!ENTITY ns_flows "http://ns.adobe.com/Flows/1.0/">
]>
<svg version="1.1" baseProfile="tiny"
	 xmlns="http://www.w3.org/2000/svg" xmlns:xlink="http://www.w3.org/1999/xlink" xmlns:a="http://ns.adobe.com/AdobeSVGViewerExtensions/3.0/"
	 x="0px" y="0px" width="376px" height="186px" viewBox="-0.97 -0.28 376 186" xml:space="preserve">
<defs>
</defs>
<path fill-rule="evenodd" d="M294.81,2.84c0.17-1.29,2.57-0.35,2.21-2.17c-0.25,0.02-0.49,0.04-0.74,0.06
	C294.99,1,293.24,1.82,294.81,2.84z"/>
<path fill-rule="evenodd" d="M296.29,0.73c0.25-0.02,0.49-0.04,0.74-0.06l-0.01-0.04C296.82,0.64,296.56,0.67,296.29,0.73z"/>
<path fill-rule="evenodd" d="M123.67,18.85c1.24,0.17,2.06-0.07,2.69-0.51c-0.91,0.07-1.83,0.14-2.75,0.21
	C123.62,18.64,123.63,18.74,123.67,18.85z"/>
<path fill-rule="evenodd" d="M125.87,16.64c0.26,1.64-2.4,0.37-2.26,1.9c0.92-0.07,1.83-0.14,2.75-0.21l0.07-0.04
	C126.34,17.65,126.52,16.73,125.87,16.64z"/>
<path fill-rule="evenodd" d="M124.22,21.06c-0.31,1.35-0.47,2.84-2.21,2.76c-2.59-4.3-4.24,4.75-1.1,1.1
	c-0.43-0.12-1.09-0.02-1.1-0.55c1.73,0.1,2.65,1.02,2.76,2.76c1.53-0.12,1.56-1.75,2.76-2.21C121.3,25.34,126.85,22.46,124.22,21.06
	z"/>
<path fill-rule="evenodd" d="M125.32,26.03c-0.32,1.15-1.37,1.58-1.11,3.31C125.71,29.22,127.44,26.5,125.32,26.03z"/>
<path fill-rule="evenodd" d="M198.75,28.24c0.17,1.73-1.6-1.4-1.66,0.55c1.69,0.54-0.63,1.47-0.55,2.21
	c1.37,0.08,2.29-0.29,2.76-1.11C197.57,30.06,200.7,28.3,198.75,28.24z"/>
<path fill-rule="evenodd" d="M109.86,34.86c-0.23,1.05-1.19,1.39-1.1,2.76C110.86,38.73,110.95,35.11,109.86,34.86z"/>
<path fill-rule="evenodd" d="M71.77,58.6c2.37-1.79,2.46-5.78,1.66-8.28C73.57,53.42,70.48,56.19,71.77,58.6z"/>
<path fill-rule="evenodd" d="M35.88,53.08c-1.69,0.4-2.01-0.56-3.31-0.55c0.07,1.4,0.8,2.14,2.21,2.21
	C34.83,53.86,36.19,54.3,35.88,53.08z"/>
<path fill-rule="evenodd" d="M70.67,59.15c0.32,1.47-1.63,3.45,0,4.42C70.35,62.09,72.3,60.12,70.67,59.15z"/>
<path fill-rule="evenodd" d="M275.49,69.64c0.67,0.98,0.1,3.21,1.1,3.86C277.27,71.27,277.79,70.91,275.49,69.64z"/>
<path fill-rule="evenodd" d="M279.9,75.16c-0.51-0.65-1.62-3.47-2.76-1.66c1.5-0.4-0.39,2.6,1.11,2.21
	C278.21,75.57,285.09,75.63,279.9,75.16z"/>
<path fill-rule="evenodd" d="M122.01,77.92c-1.56,0.46-3.41,0.64-4.97,1.11c-0.41,13.15,0.68,26.51-0.55,39.75
	c3.32-1.75,4.28,3.8,4.97,1.11c2.3-0.77,2.36-10.46,2.21-16.56C123.44,94.24,123.49,83.8,122.01,77.92z"/>
<path fill-rule="evenodd" d="M276.59,82.89c1.38-2.04-0.63,3.89,1.66,2.76C277.26,88.28,276.07,85.03,276.59,82.89z"/>
<path fill-rule="evenodd" d="M278.8,92.28c-0.64-0.09-0.98,0.12-1.1,0.55c-1.32,0.22,0.3-2.51-1.66-1.66
	c-0.08-0.73,2.24-1.67,0.55-2.21C277.81,87.42,278.08,91.48,278.8,92.28z"/>
<path fill-rule="evenodd" d="M337.32,90.07c0.62-1.62,1.8,0.7,1.66,1.65c-1.33,0.23-1.2-1.01-2.76-0.55
	C335.69,90.15,339.37,90.83,337.32,90.07z"/>
<path fill-rule="evenodd" d="M90.54,91.17c1.1,0.61-0.67,2.97,0,4.97C88.75,95.33,89.74,93.16,90.54,91.17z"/>
<path fill-rule="evenodd" d="M356.09,95.04c-1.37,1.69-3.35-0.66-5.52,0C350.37,94.21,354.96,93.78,356.09,95.04z"/>
<path fill-rule="evenodd" d="M136.36,97.25c1.75,0.46-0.98,0.73-1.66,0.55c0,1.65,0.99,2.32,2.21,2.76c0.94,0.2,1.04-0.43,1.1-1.1
	c1.71,0.53,2.7,1.38,1.66,3.31c-2.1-2.29-3.26-0.8-6.62,0c0.89,1.87,6.6-1.08,6.62,1.66c-1.12-0.09-5.86-1.23-6.62,1.65
	c-0.09,1.2,1.96,0.25,2.76,0.55c0.94,0.8-4.15,0.23-2.76,3.31c-1.4-0.87,0.7-10.85-2.76-9.94C131.52,98.3,132.92,96.74,136.36,97.25
	z"/>
<path fill-rule="evenodd" d="M344.5,98.9c1.3,0.13,5.1-0.87,5.52,1.66c-1.65,0-3.31,0-4.97,0C345.09,99.77,345.14,98.99,344.5,98.9z
	"/>
<path fill-rule="evenodd" d="M354.98,99.45c0.49,0.43,1.25,0.59,2.21,0.55c-0.12,0.79-1.65,0.19-1.66,1.1
	c2.04,1.45,3.86,1.72,6.07,0.55c-0.09,0.64,0.12,0.98,0.55,1.11c-0.91,1.69-6.56-0.07-9.94,0.55c0.31-0.52,1.53-0.84,0.55-1.1
	C353.98,100.67,354.97,101.83,354.98,99.45z"/>
<path fill-rule="evenodd" d="M346.15,104.42c5.51,1.18,11.8-0.78,16.01,1.65c-5.34,0-10.67,0-16.01,0
	C346.53,105.63,347.01,104.57,346.15,104.42z"/>
<path fill-rule="evenodd" d="M128.63,107.18c0.09-0.65,1.01-0.47,1.66-0.55c0.26,2.45-0.76,2.75,0,4.42
	C127.77,111.73,130.34,107.31,128.63,107.18z"/>
<path fill-rule="evenodd" d="M278.25,107.74c1.15-0.23,1.46,0.38,2.21,0.55c-1,0.47-1.52,1.42-2.76,1.66
	C277.62,108.95,278.37,108.78,278.25,107.74z"/>
<path fill-rule="evenodd" d="M352.78,110.5c0.65-1.49,2.88,0,3.86,0C356.3,111.67,353.24,111.01,352.78,110.5z"/>
<path fill-rule="evenodd" d="M362.71,109.94c-0.02,2.78-1.62,0.55-3.87,1.1C357.7,110.4,361.69,110.25,362.71,109.94z"/>
<path fill-rule="evenodd" d="M352.78,116.01c1.09,0.78-5.92,1.02-6.62,0C348.29,113.17,349.27,117.08,352.78,116.01z"/>
<path fill-rule="evenodd" d="M346.15,117.67c3.81,0.1,4.54,1.4,8.28,0.55C353.54,119.62,346.16,120.54,346.15,117.67z"/>
<path fill-rule="evenodd" d="M189.92,129.27c-1.85,1.36-6.67-0.14-6.07,0C180.57,128.48,188.83,128.78,189.92,129.27z"/>
<path fill-rule="evenodd" d="M182.19,130.37c1.56,0.74,5.27-0.98,6.62,1.1C188.07,131.82,182.61,132.17,182.19,130.37z"/>
<path fill-rule="evenodd" d="M178.32,137c1.54,0.82-1.17,2.46,1.1,2.21c-2.15,1.58-4.94-0.92-7.73-0.55
	C172.47,137.21,177.62,138.17,178.32,137z"/>
<path fill-rule="evenodd" d="M279.9,146.38c0.36,2.43,3.18-1.01,3.31,1.66C282.79,147.23,277.82,149.18,279.9,146.38z"/>
<path fill-rule="evenodd" d="M268.31,148.59c-0.64-0.09-0.98,0.12-1.1,0.55c-0.98-1.38-0.7-0.6-2.76-0.55
	C264.71,146.83,268.45,146.39,268.31,148.59z"/>
<path fill-rule="evenodd" d="M36.99,152.45c-0.95,1.08-2.86,1.19-4.97,1.1C32.82,152.11,34.26,152.26,36.99,152.45z"/>
<path fill-rule="evenodd" d="M92.75,168.46c-0.74,1.57-3.09,1.54-4.42,1.1C89.09,168.48,91.71,169.27,92.75,168.46z"/>
<path fill-rule="evenodd" d="M277.14,178.95c0.57-1.23,2.54,0.72,4.42,0c0.23,1.15-0.38,1.46-0.55,2.21
	c-0.65-0.09-0.47-1.01-0.55-1.66C279.09,179.58,277.79,179.59,277.14,178.95z"/>
<path fill-rule="evenodd" d="M283.22,185.58c0.34-0.52,1.28-2.04-0.55-1.66c1.59-1.24,3.81,1,3.87-2.21
	c1.14,0.15,0.13,2.45,1.66,2.21c0.22,1.32-2.52-0.31-1.66,1.66C285.42,185.58,284.32,185.58,283.22,185.58z"/>
<path fill-rule="evenodd" d="M43.61,185.58c-2.58,0-5.15,0-7.73,0c1.19-1.59,5.81-0.76,7.73-1.1
	C43.61,184.84,43.61,185.21,43.61,185.58z"/>
<path fill-rule="evenodd" d="M132.69,57.98c0.17,0.01,0.33,0.02,0.5,0.03C133.05,57.98,132.88,57.97,132.69,57.98z"/>
<path fill-rule="evenodd" d="M208.86,52.97l-0.17,0.11L208.86,52.97z"/>
<path fill-rule="evenodd" d="M122.96,59.52c-0.25,0.12-0.49,0.26-0.73,0.4C122.53,59.84,122.8,59.74,122.96,59.52z"/>
<path fill-rule="evenodd" d="M120.9,60.81c0.42-0.32,0.86-0.61,1.33-0.89C121.66,60.08,120.99,60.16,120.9,60.81z"/>
<path fill-rule="evenodd" d="M33.68,61.36l0.04-0.21c-0.12,0.04-0.23,0.07-0.35,0.11C33.46,61.3,33.57,61.33,33.68,61.36z"/>
<path fill-rule="evenodd" d="M192.67,22.16c0.3,0.44,0.64,0.83,1.01,1.19c-0.05-0.21-0.08-0.45-0.11-0.69
	C193.27,22.51,192.97,22.34,192.67,22.16z"/>
<polygon fill-rule="evenodd" points="40.85,58.6 40.81,58.43 40.73,58.47 "/>
<path fill-rule="evenodd" d="M192.42,33.11c0.08,0.04,0.17,0.07,0.26,0.09C192.58,33.18,192.5,33.14,192.42,33.11z"/>
<path fill-rule="evenodd" d="M221.93,22.71c-0.61-0.21-1.27-0.37-1.96-0.51l-0.18,0.15C220.51,22.41,221.22,22.53,221.93,22.71z"/>
<path fill-rule="evenodd" d="M240.7,12.23c1.76-1.89,2.23,2.16,3.87,2.21c-0.29-1.64-2.01-2.06-2.02-3.3
	c-0.55,0.15-1.09,0.31-1.64,0.47C240.89,11.83,240.82,12.04,240.7,12.23z"/>
<path fill-rule="evenodd" d="M35.88,61.91c-0.74,1.35-1.67-1-2.21,0.55c1.31,0.32,2.57,0.85,2.76-1.1c-0.03-0.43-0.19-0.74-0.4-1
	c-0.35,0.13-0.7,0.25-1.05,0.37C35.31,61.1,35.61,61.49,35.88,61.91z"/>
<path fill-rule="evenodd" d="M303.64,5.6c0.76-3.61,4.29-1.14,6.07-3.87c-0.7-0.21-0.73-0.89-0.76-1.74
	c-1.92,0.09-3.85,0.18-5.78,0.29C304.24,2.25,301.18,3.97,303.64,5.6z"/>
<path fill-rule="evenodd" d="M183.22,39.36c-0.12-0.03-0.28-0.05-0.48-0.08C182.87,39.32,183.04,39.34,183.22,39.36z"/>
<path fill-rule="evenodd" d="M193.54,20.51c-0.53-1.05-1.88-1.27-3.63-1.1c1.85-1.16-2.13-2.08-0.55-2.76
	c1.13,0.31,2.8,1.21,4.25,2.39c0.11-1.68,0.24-3.47,0.13-5.05l-0.01-0.1c-0.04-0.44-0.09-0.87-0.17-1.27
	c-0.4,0.29-0.71,0.46-0.9-0.39c0.2-0.2,0.28-0.6,0.43-1.05c-0.16-0.31-0.35-0.6-0.57-0.84c-0.17,1.33-0.63,2.19-2.07,1.34
	c0.41,0.52,1,0.84,1.66,1.1c-0.47,1.62-1.78-0.33-2.76,0c1.01-0.74,1.28-2.22,2.04-3.2c-0.62-0.24-1.4-0.33-2.36-0.22
	c0.19,0.32,0.44,0.58,0.87,0.67c-0.44,0.56-0.92,0.5-1.44,0.22c0,0.5,0,1.06,0,1.4l-0.07,0.03c0.16,0.19,0.29,0.38,0.4,0.56
	c-0.67,0.13-1.23,0.15-1.71,0.09c-0.74,0.46-1.45,1.01-2.07,1.46c0.34,0.66,0.45,1.46,1.02,2.32c-0.74-0.66-1.91-0.88-2.87-1.32
	c-0.53,0.23-1.05,0.48-1.57,0.73c1.52,0.79,3.68,0.15,4.99,2.24c-1.79,1.22-2.62-2.99-5.52-1.1c-0.16-0.19-0.28-0.43-0.37-0.7
	c-0.38,0.19-0.75,0.37-1.13,0.56c1.36,0.51,3.24,1.94,5.91,1.8c-2.45,2.08-5.03,0.05-8.28,0c0.08-0.3,0.17-0.55,0.25-0.78
	c-0.64,0.3-1.27,0.58-1.91,0.83c0.19-0.01,0.38-0.02,0.55-0.06c0.32,2.52,2.95,0.25,2.76,3.87c-0.64-0.09-0.98,0.12-1.1,0.55
	c-1.6-0.48-0.62-0.83-0.55-2.21c-1.04,0.41-0.38,1.65-1.66,0.55c0.47,0.45,0.33,1.51,1.1,1.66c-1.88,0.45-6.34-0.9-7.59-3.05
	c-0.59-0.03-1.19-0.1-1.79-0.24c1.49,2.06,3.41,4.04,6.07,6.05c1.21-0.37-1.05-1.83-1.66-2.21c0.76-1.08,3.58,0.43,4.42,1.11
	c-1.05,1.63,0.16,3.42-0.55,4.42c-0.82-0.47-1.19-1.39-1.1-2.76c-0.89,3.62,1.66,3.54,1.1,7.73c-10.69,0.5-21.86-6.27-29.81-1.66
	c-2.51-2.99-4.2-6.87-2.21-11.59c1.52,1.61,1.65,4.61,3.87,5.52c-1.06,1.83-0.18,2.39-1.66,3.31c0.87,1.01,1.98-2.42,3.31,0
	c1.49-0.49-1.17-1.33-1.66-1.66c1.45-1.76,1.9,2.11,3.86,1.66c-2.47-2.86-1.85-3.48-4.97-4.42c0.29-0.45,0.58-0.9,0.55-1.66
	c-1.67-1.44-2.74-3.83-2.93-6.16c-0.25,0.01-0.5,0.03-0.75,0.04c-0.79,4.43-2.38,7.94-0.74,11.08c0.2,0.94-0.43,1.04-1.1,1.1
	c1.57,0.08,2.33,1.39,3.86,2.76c-6.98,4.43-15.41,7.4-23.19,11.04c1.09-2.99,0.6-2.37,0-5.52c0.99,0.07,1.17-0.68,2.21-0.55
	c-0.24,1.9,0.22,3.09,0.55,4.42c1.25-0.59,2.01-1.67,2.21-3.31c-0.5-1.49-1.33,1.17-1.66,1.66c-0.42-2.6,0.91-4.89,1.66-8.28
	c-2.25-0.41-0.11,3.58-2.76,2.76c0.71-0.72,0.71-2.03,0-2.76c-1.73,3.13-5.39,0.81-6.07,3.31c-0.46-1.56,0.78-1.43,0.55-2.76
	c1.3-0.01,1.63,0.95,3.31,0.55c0.8-0.67,0.84-2.11,1.66-2.76c-1.96-0.3-1.36,1.96-3.31,1.66c-1.11-1.12,0.25-1.08,0.55-2.21
	c-0.94-0.02-1.43,0.41-1.66,1.1c-1.58-0.69,2.4-1.6,0.55-2.76c-2.23,1.95-1.43,3.68-3.31,5.52c2.07,2.78,0.36,6.6,0,10.49
	c-1.58-3.62-0.78-9.85-1.66-12.7c1.58,0.43,2.45-3.25,1.1-4.42c-2.59,1.92-2.61,0.51-5.52,1.1c-0.07-0.99,0.68-1.16,0.55-2.21
	c-1.88,2.72-0.64,7.7-1.66,0.55c-1.23,0.24-0.22,2.72-0.55,3.86c-0.99,0.07-1.16-0.68-2.21-0.55c0.62,1.03,0.65,2.66,2.76,2.21
	c-1.79,0.81-1.56,1.06-1.1,3.31c-2.12-0.45-2.08-3.07-3.86-3.86c-1.63,0.83-0.88,2.76,1.1,2.76c1.31-1.37-0.69,1.82-1.66,0
	c-0.08,2.47,1.66,3.12,2.21,4.97c-1.38-0.07-1.73-1.05-2.21,0.55c-0.81-0.48-1.75-0.83-1.66-2.21c-1.5,0.51,0.77,1.73,0,3.31
	c-1.68-0.16-0.76-2.92-2.21-3.31c-1.59,3.99,4.83,4.73,4.97,8.83c-7.09-1.86-19.82-2.05-28.71-3.87
	c4.19,10.75,11.46,22.21,4.97,34.78c0.11,0.63,0.56,0.31,0.55,0c0.58,0.44-0.25,4.13-2.21,3.87c-3.4-6.71-2.02-15.76-2.76-24.29
	c-2.5,1.82-6.01,4-4.42,8.28c0.44-0.29,0.9-0.58,1.66-0.55c-0.88,2.06-0.58,5.31-3.31,5.52c-0.95-1.43,0.81-1.74-1.66-1.1
	c-0.27-1.74,0.99-1.95,0.55-3.86c-3.41,3.95-6.48,8.25-12.7,9.38c0.26-3.35,1.87-6.88,2.76-11.04c0.73,0.66,0.87,0.21,1.66,0
	c-0.93-4.22,1.83-5.6,4.42-8.83c-0.5-1.49-1.33,1.17-1.66,1.66c-1.77-3.99,2.78-6.41,2.76-10.49c-1.52,1.25-1.94,5.9-3.86,4.97
	c-0.19,4.41-1.96,7.24-3.31,10.49c-0.7-3.84,1.94-9.1,2.21-13.8c3.57-0.32,1.5-2.89,4.42-3.86c-0.5-1.51-1.93,0.98-2.76-0.55
	c0.07,1.36,0.08,2.66-0.55,3.31c-0.44-0.72-0.56-1.84-0.44-3c-0.16,0.15-0.32,0.31-0.49,0.46c-0.2,0.84-0.59,1.57-1.28,1.98
	c0.34-0.51,0.5-0.92,0.54-1.26c-0.97,0.97-1.92,1.98-2.84,3.03c0.78,2.29,1.19,4.9,1.2,8.16c-0.82,0.29-1.39,0.82-2.21,1.11
	c1.36,2.7,0.83,8.98-0.55,12.14c-1.76-4.32-1.71-13.19-1.66-17.57c-0.11,0.14-0.22,0.28-0.33,0.42c-0.13,0.13-0.37,0.17-0.65,0.16
	c-0.27,0.71,0.27,1.8,0.43,2.64c-1.18,0.26-1.05-0.79-1.1-1.66c-0.42,2.5-0.29,6.53,0,9.39c-1.1-0.01-0.7-1.51-2.21-1.1
	c0.06,1.04,1.83,0.38,1.66,1.65c1.41-0.06,1.1-1.85,1.1-3.31c0.89,3.13,0.72,8.18,1.1,14.35c-1.69-2.41-2.35-3.38-1.1-5.52
	c-0.24-0.82-0.71,0.22-1.66,0c0-1.29,0-2.58,0-3.86c-0.83,1.68-1.66,0.3-2.76,1.1c2.26,1.59,1.39,6.25,1.66,8.28
	c-2.84-5.68-5.45-10.78-6.07-17.45c-0.67,0.4-1.34,0.79-2.01,1.15c0.54,1.33,1.91,1.83,1.46,4.15c-1.55-0.37-3.21-4.34-4.42-1.66
	c3.89,0.71,5.53,3.67,6.07,7.73c-0.71-0.03-0.76-0.71-1.66-0.55c-0.58,2.05,1.86,1.08,2.21,2.21c-2.83,1.23-6.41-2.35-7.73,1.66
	c0.24-1.23,1.27-2.99-0.55-3.31c-0.06,0.67-0.16,1.31-1.1,1.1c0.42-1.76,0.82-2.71-0.55-1.1c-0.32-0.97,0.67-3.24-0.55-3.31
	c-0.43,1.93,0.19,1.69-1.66,2.21c0.86,0.14,0.38,1.21,0,1.66c2.3,0.27,3.06,2.09,3.86,3.86c-4.46,7.64-3.57,18.44-8.28,26.5
	c-1.58-2.18-2.99-5.7-1.1-8.83c-5.87,2.61,1.01,8.98-1.1,14.36c-1.44-0.92-1.61-0.38-1.08,0.43c0.21,0.2,0.4,0.42,0.53,0.67
	c-0.22-0.23-0.39-0.46-0.53-0.67c-1.32-1.25-3.85-1.68-3.89-2.64c0.31,1.64-3.01,2.45-3.86,1.11c0.8-0.3,2.85,0.65,2.76-0.55
	c-3.62-1.74-3.34,1.67-4.97-0.55c-0.41,2.66-3.88,2.98-4.97,2.21c-0.35-2.86,2.63,0.66,2.76-1.1c-3.17-2.05-3.49,1.55-6.62,1.66
	c-0.09-0.65,0.09-1.57-0.55-1.66c-0.4,2.49-2.08,1.21-3.31,0.55c-1.38,0.83-2.71,1.71-4.42,2.21c0,3.13,0,6.25,0,9.38
	c7.6-0.51,14.57-0.26,24.29,0.55c-6.3,1.1-17.19,0.2-24.29,1.1c0,0.18,0,0.37,0,0.55c2.77-0.49,3.7,0.15,7.18,0
	c-1.25,1.51-4.48,1.04-7.18,1.11c0,0.37,0,0.74,0,1.1c1.49-0.56,6.05-0.91,6.62-0.55c-3.15,1.45,0.55,0.26,0.55,2.76
	c-3.02,1.15,0.24,4.66,0,6.63c-0.79-0.13-0.93-0.91-1.66-1.11c-0.92,2.5,0.52,4.31-0.55,6.07c-0.12-0.67-0.61-0.34-1.1,0
	c0.66-3.05-1.76-3.03-1.1-6.07c-2.18,0.71-1.33-1.61-2.76-1.66c0,0.73,0,1.47,0,2.21c1.77-0.49,0.76,1.82,2.21,1.66
	c-0.19,7.52,0.1,1.09-2.21-0.55c0,5.34,0,10.67,0,16.01c2.06,0.25,4.98-2.09,5.52,0c-1.7,2.33,0.26,1.62-0.55,4.42
	c-0.98,0.66-3.19,0.06-4.97,1.11c0,0.18,0,0.37,0,0.55c3.06-1.38,2.76,0.9,3.86,0c1.49,1.79-2.31,1.72-3.86,1.1
	c0,9.57,0,19.14,0,28.71c2.42,0.4-0.44-1.1,1.1-1.1c-0.4,0.89,2.6,0.89,2.21,0c-0.4,0.02-1.88-0.05-1.66-0.55
	c2.25-4.92,16.18-1.4,17.67-4.97c-0.2-0.25-0.38-0.39-0.54-0.46c-0.23,0.02-0.46,0.05-0.69,0.08c-0.84,0.56-1.37,2.51-2.08,0.38
	c0.66-0.16,1.36-0.29,2.08-0.38c0.21-0.14,0.43-0.19,0.69-0.08c5.19-0.57,11.67,0.07,18.21-1.75c-0.52,1.69-2.69,1.73-2.76,3.87
	c2.68,0.11,2.14-3.01,4.97-2.76c0.12-1.04-0.62-1.22-0.55-2.21c1.94,0.89,2.36-0.19,4.97-0.55c-0.17,0.65-2.92,1.39-1.1,2.21
	c0.32-2.44,4.61-0.91,6.07-2.21c-3.19-1.52-3.68,0.59-6.07-1.1c2.3-0.83,3.86-2.4,7.18-2.21c0,0.55,0.45,0.66,0.55,1.1
	c0.4,1.51-1.1,1.11-1.1,2.21c2.93,0.06,0.65,0.31,0,1.1c2.39,0.37,3.42-0.63,4.42-1.66c-0.65-1.36-2.08,1.13-2.76-0.55
	c-0.23-1.89,0.17-3.15,2.21-2.76c0.02,0.2-0.47,1.11-0.55,1.1c5.81,0.29,12.38-6.1,18.22-3.31c2.35-0.36,0.4-1.58,2.21-2.21
	c1.74-0.09,3.33-0.02,3.87,1.1c-0.01,0.91-1.53,0.31-1.66,1.11c0.59,0.64,2.54,0.2,3.31-0.55c-0.64-0.09-0.6-0.87-0.55-1.66
	c6.91-0.84,16.63-4.44,27.6-4.42c0,0.55-0.45,0.66-0.55,1.1c5.39-0.32,10.1-1.31,12.7-4.42c-6.5,0.08-11.33,3.26-16.56,1.66
	c6.16-2.86,16.54-1.5,22.64-4.42c-6.5,0.98-17.27,0.63-19.88,2.21c-1.43-1.59-3.73,0.56-3.31-2.21c-3.99,1.62-9.99,3.51-14.35,1.65
	c1.86-1.4,3.22-0.02,4.42-1.65c-0.8-0.3-2.85,0.64-2.76-0.55c7.24,0.54,7.87-2.41,13.8-4.42c-4.04,0.38-7.44,1.39-10.49,2.76
	c0.97,0.32,3.24-0.67,3.31,0.55c-1.86-0.35-5.13,0.71-6.07-0.55c0.65-0.08,1.57,0.1,1.66-0.55c-9.35-2.17-20.83,3.08-32.02,2.76
	c-0.35-1.87,5.33-0.51,3.86-1.66c-4.83-0.09-5.95,0.23-9.38,1.66c-0.37,2.78-6.98,0.73-10.49,1.1c-3.63,0.38-5.85,3.08-9.38,1.66
	c-2.29,4.56-8.52,2.41-14.35,4.42c-0.22-1.06-2.14-0.44-1.66-2.21c4.28-2.14,6.48-0.49,9.38-2.76c-1.37-0.72-2.29,1.62-2.76,0
	c10.2-2.11,19.23-2.74,29.26-5.52c-0.68-2.89,3.33-1.09,3.87-2.76c-1.6-0.31,0.85-0.86,0.55-1.66c-14.34,2.81-26.71,7.87-40.3,8.83
	c2.2-1.11,6.13-0.49,7.73-2.21c-2.55,0.44-1.58-0.62-2.21-1.11c-2.44,2.92-7.05-0.37-8.83,1.66c0.65,0.09,1.57-0.09,1.66,0.55
	c-2.23,0.68-3.97,1.39-6.07,0c0.8-1.2,1.58-2.25-0.55-3.87c0.33-1.32,0.79-2.52,0.55-4.42c2.3,0.05,10.37-2.63,8.28,0
	c2.47-0.43,5.45-2.34,6.63,0c-2.61,1.57-5.08,0.04-7.18,1.66c0.67,0.06,1.31,0.17,1.1,1.1c-1.8-0.82-3.35,0.76-4.42,2.21
	c4.14,0.33,7.34-5.11,9.94-2.76c-0.26-2.38,1.49-0.71,1.66-1.66c-1.02-0.08-0.34-1.87-1.1-2.21c1.69,0.4,2.01-0.56,3.31-0.55
	c0.05,0.87-0.07,1.91,1.1,1.65c2.22-4.8,16.13-3.16,21.53-4.97c1.5-0.5,1.58-1.82,2.76-1.65c0.29,0.04-0.3,1.85,0.55,1.65
	c0.27-0.06-0.07-1.69,1.1-2.21c2.11-0.93,5.19,0.53,2.76,1.1c9.23-1.88,14.76,2.26,23.19,1.1c0.09-0.83-0.2-2.04,0.55-2.21
	c-0.17,1.72,1.59-1.4,1.65,0.55c-0.67,0.06-1.31,0.16-1.1,1.1c2.19-0.61,5.23,1.44,9.39,0c-0.98-0.13-2.77,0.55-2.21-1.1
	c3,0.17,5.13,2.84,8.28,3.86c5.63,1.83,12.45,1.53,14.35,6.07c5.37,0.12,9.54,2.22,12.7-1.1c-1.23-2.73-1.12-4.13,1.1-5.52
	c-5.26,1.06-8.35-0.2-5.52-6.62c-2.14,0.61-1.96-1.95-3.31-0.55c-0.89,1.22,1.74,3.37-0.55,3.31c1.14,0.33,2.09,0.85,1.66,2.76
	c-7.41,0.35-12.15-2.8-18.22-2.21c-0.09,0.82,0.2,2.04-0.55,2.21c-1.36-2.39-1.14-2.28-3.86-3.86c-0.76,0.34-0.08,2.12-1.11,2.21
	c-1.56-0.46-1.52-2.53-3.31-2.76c-1.31,0.8-1.35,0.84-1.66,1.66c-0.62-0.12-0.86-0.61-1.1-1.11c0.05-0.87,1.41-0.43,1.1-1.66
	c-2.79-1.21-3.58,1.25-4.97,0.55c2.83-1.77,2.08-7.12,5.52-8.28c-2.05-5.3,1.27-11.81,2.76-14.91c0,2.58,0,5.15,0,7.73
	c2.02-0.48,2.48-0.54,3.87,0c0.16-17.45,1.73-30.16,7.73-41.41c2.87-1.08,4.63-0.34,7.18-1.1c0.25,0.79,2.7,3.61,1.66,2.21
	c0.4-1.51-1.1-1.11-1.1-2.21c4.58-4.62,13.4-5.01,19.88-7.73c3.51,2.34,8.05,5.92,11.59,4.42c-1.82-0.02-3.91,0.22-3.87-1.66
	c0.75-0.94,6.16-0.05,4.97-1.1c-0.83-0.1-2.04,0.2-2.21-0.55c3.45,0.13,6.46-0.17,7.73-2.21c-0.49-0.32-3.15-1.16-1.66-1.66
	c3.14-0.91,5.04,1.62,7.73,2.21c0.77,0.17,1.88-0.86,2.76-0.55c1.58,0.56,2.77,2.43,4.97,2.76c6.3,0.93,18.2-3.42,19.32-1.1
	c2.05-3.84,9.43-5.29,14.35-4.42c-0.94,0.23,0.12,0.71,0,1.66c-1.37-0.08-2.68-0.1-2.76,1.1c1.91,0.4,5.24-0.6,5.52,0
	c-21.3,4.65-47.1,7.74-66.25,12.7c-0.86-1.96,1.88-0.33,1.66-1.66c-0.74,0-1.47,0-2.21,0c0,1.29,0,2.58,0,3.86
	c1.78,0.31,6.15,0.29,3.86,2.21c2.17,0.07,3.84,0.25,4.42,0.55c-0.48,11.19,1.12,27.14-1.1,34.78c2.74,0.68,5.96-0.37,9.94,0
	c2.26-10.62-1.85-27.61,2.21-36.44c-0.28,16.67,0.47,41.06-0.55,55.21c-0.83-0.09-2.04,0.2-2.21-0.55c1.64,0.66,2.37-2.33,1.1-2.76
	c-1.39,2.47-3.29-3.55-7.18-2.21c-1.22,0.79,0.69,1.35-0.55,1.66c-3.97,0.34-0.63-3.29-2.76-4.42c-0.34,1.5,0.7,4.38-0.55,4.97
	c-1.54-0.71-4.3-3.42-2.21-4.42c-3.82,0.82-3.25-2.25-4.42-2.76c0.26,2.51,0,4.09-2.21,2.76c0.51,1.5,0.23,5.93,1.65,3.31
	c1.06,2.71-0.5,3.21-1.65,4.97c0.95,0.22,1.41-0.82,1.65,0c0.79,3.23-1.87-0.44-1.65,2.21c1.91-0.44,2.12,0.82,3.86,0.55
	c1.17-2.31,3.97-0.17,6.62-2.76c-0.74-1.06-0.17-2.95,0-3.86c1.94,1.38,4.91,1.72,7.18,2.76c-2.78,0.38-3.85-0.94-6.62-0.55
	c1.08,6.19,12.69,4.88,14.91,6.62c0.03-0.34,0.08-0.65,0.55-0.55c0.03,0.34,0.08,0.65,0.55,0.55c-1.9-1.7,1.77-4.33-0.55-4.42
	c-1.96,0.06,1.17,1.82-0.55,1.66c-1.02-0.82-1.94-1.74-2.76-2.76c3.36-0.86,5.2-0.81,8.28-1.1c0.65-3.7-0.36-5.68,0.55-8.83
	c-0.87-0.05-1.92,0.07-1.66-1.1c2.19-1.35-0.61,0.83,1.66,0.55c0.71-2.51-1.94-5.14,0.55-6.07c0.69,6.52-0.12,11.62-0.55,18.22
	c-0.92,0.07-5-0.3-3.31,0.55c1.37-0.08,2.29,0.28,2.76,1.1c-0.97,0.31-3.24-0.67-3.31,0.55c2.79,0.34,5.58,0.68,7.73,1.66
	c-2.11,1.68-5.8-2.11-8.28,0c2.68,1.84,11.32,0.25,13.25,4.42c-2.7-0.79-6.55-0.44-8.83-1.66c0,2.21,3.69,0.73,4.42,2.21
	c-2.2,0.55-3.89-0.03-4.97,0.55c1.6,0.98,1.81,3.34,4.42,3.31c2.49-0.64,3.13-3.13,6.07-3.31c7.64,10.03,27.05,8.29,39.2,13.8
	c-3.16,1.33-5.58,0.54-8.28,1.66c1.3-1.96-2.75,0.2-3.31-2.21c2.8,0.36,7.13,1.75,8.83,0c-10.16-1.08-19.61-4.17-29.81-6.62
	c-0.22,0.95,0.82,1.42,0,1.65c-8.63,2.56-14.86,8.2-23.19,8.28c-1.22,0.79,0.69,1.35-0.55,1.65c-2.4-2.46-6.26-2.2-9.39-2.76
	c-0.12,1.04,0.62,1.22,0.55,2.21c-7.18,0.76-13.65,6.77-17.67,7.18c0.08,1.37-0.28,2.29-1.1,2.76c-2.81-0.47,1.65-1.78-3.31-2.21
	c0.1,1.21-0.45,1.76-1.66,1.66c-0.74,1.56,2.92,1.38,1.1,2.21c-1.74,0.23-2.31-3.53-3.87-1.66c1.55,0.24,0.65,1.16,1.66,2.76
	c-1.41,1.19-3.13-0.51-3.86,0.55c1.61,1.26-0.7,1.04-1.66,0.55c1.52,2.16-0.71,1.44,1.66,2.76c-0.73,0.71-2.04,0.71-2.76,0
	c-0.05,1.51,0.92,1.11,0,2.21c-0.81-0.74-4.37-1.13-4.42,0.55c6.07,0,12.15,0,18.22,0c1.16-1.6,2.13-3.39,3.87-4.42
	c1.71,0.65-0.09,1.38,1.1,2.21c0.69-1.15,2.17-1.51,2.76-2.76c-0.65-0.09-1.57,0.09-1.66-0.55c2.07-0.51,2.82-2.33,5.52-2.21
	c-0.42-2.07,1.45-1.87,2.21-2.76c9,0.85,13.98-8.93,24.84-6.63c1.89-0.54,3.83-3.21,5.52-2.21c0.48-1.77-1.43-1.14-1.66-2.21
	c5.6-0.96,7.09-6.18,12.7-6.62c5.46-0.44,15.95,6.71,19.87,9.38c2.02-1.75,9.71,1.44,8.28-1.65c3.29,0.15,2.5-3.76,6.62-2.76
	c2.61-2.7,0.68-6.31-0.55-9.38c1.93-0.09,3.53,0.15,4.42,1.1c-1.78,0.87-1.97,3.74,0,4.42c1.3-1.64,1.03-4.86,3.31-5.52
	c-0.98-0.12-2.77,0.56-2.21-1.1c1.85-2.83,5.68,0.62,8.28,0c-1.24-0.76-3.01-0.46-1.1-1.65c-12.58-2.2-24.06-3.59-36.44-6.62
	c-9.07-2.22-18.55-3.35-24.84-4.42c-3.29-0.56-2.93,0.35-6.07,0.55c0.12-1.04-0.62-1.22-0.55-2.21c-0.16-1.45,2.14-0.43,1.66-2.21
	c-0.6-19.51-0.56-31.72,0-55.21c2.17,11.45,0.94,26.29,1.66,39.2c8.16,3.37,20.44,4.46,29.26,2.76c-0.83-0.09-2.04,0.2-2.21-0.55
	c1.53-8.07-0.11-28.29,0-39.2c0.02-2.16-2.62-5.78,1.66-6.07c1.29,13.93,1.43,33.42,1.65,46.37c15.99,2.44,25.54,1.47,42.51,3.31
	c0.4,1.25-0.99,4.31,1.11,3.86c1,0.02-1.05-2.78,1.1-2.76c11.14-2.3,26.46-3.35,35.88-5.52c-4.51,0.4-3.4-0.26-7.73-1.1
	c1.09-0.76,3.15-0.53,4.42-1.1c0.04-14.01-1.23-32.75-1.66-46.37c-2.3,0.51-4.23-1.6-6.07-1.66c0.85,0.13,0.08,0.91-0.55,1.1
	c-6.13-0.74-12.81-1.06-22.64-2.76c1.18-0.15,5.89,0.43,4.42-0.55c-3.88-0.35-5.37-2.54-8.69-2.29c-0.23,0.03-0.46,0.06-0.69,0.08
	c0.24-0.04,0.47-0.07,0.69-0.08c9.69-1.22,20.08-6.55,28.02-3.23c0.28,1.38-0.02,3.33,1.66,3.31c1.4-0.38-2-1.84,0.55-2.21
	c1.41-0.42,0.93,3.77,2.21,1.66c-0.96-2.17-3.42-2.83-3.86-5.52c3.09-0.04,5.18-1.08,7.18-2.21c3.05,2.1,4.64,5.66,8.28,7.18
	c4.24-7.09,6.72-12.89,13.25-17.12c-2.29-2.72,3.92-7.25,6.62-11.04c1.48-2.07,2.07-4.89,3.31-6.62c0.48-0.67,1.74-0.47,2.21-1.11
	c2.58-3.5,3.52-8.25,7.18-9.94c0.29-3.62-0.9-7.67,0-11.04c0.93,1.53,4.46,7.83,3.87,5.52c-1.54-2.69-2.75-5.72-4.97-7.73
	c-11.76,15.66-23.16,31.68-35.88,46.37c-1.69-4.38,4.26-5.6,4.42-9.94c6.19-5.4,9.12-14.06,16.56-18.22
	c4.17-8.35,9.83-15.2,16.01-21.53c9.13,14.83,17.33,31.83,25.95,44.17c-0.62,4.58,4.93,4.98,3.31,8.83
	c2.24,0.34,3.87,5.45,6.62,8.28c-0.21-3.6-5.32-7.13-3.31-9.39c-2.48-0.93-5.49-5-3.31-7.18c-3.41,0.29-5.62-5.04-2.76-6.07
	c-1.33-0.23-1.2,1.01-2.76,0.55c-0.4-1.75-3.12-4.11-0.55-5.52c-0.92,0-1.84,0-2.76,0c-7.08-11.5-12.61-24.56-20.43-35.33
	c-2.79,1.81-4.33,4.87-7.73,6.07c0.13-0.79,0.91-0.93,1.1-1.66c-3.02,0.76-2.16,2.82-4.97,1.66c2.77-2.01,6.99-2.58,9.38-4.97
	c-6.3,1.44-8.91,3.49-13.8,6.62c0.44,1.95,2.59-1.67,2.76,0c0.24,2.08-1.17,2.51-2.21,3.31c-0.16-0.97,2.6-1.71,1.1-2.21
	c-1.75,1.15-2.87-0.5-4.42-0.55c1.45-0.65,1.92-0.69,0.55-1.66c1.76,0.04,4.02-0.89,2.76-2.21c-0.95-1.09-2.32,2.07-3.86,2.21
	c-1.68-0.97,1.51-1.71,0-2.21c-1.49,1.02-1.58,0.38-1.1,2.76c-1.48,1.29-4.03,1.49-6.07,2.21c-0.73,0.08-2.05-1.86-2.21-0.55
	c1.65,1.33-2.6,1.41-2.76,2.76c1.26,0.76,2.07-1.42,2.21,0c-1.62,0.96-6.73,1.31-6.62,3.86c-1.09,0.17-1.1-0.74-1.66-1.1
	c0.6,1.76-3.26,1.83-1.1,3.31c0.59-0.52,0.17-2.04,1.66-1.66c-0.22,2.19-0.65,0.72-2.21,2.76c0.95,0.22,1.41-0.82,1.66,0
	c-1.91,1.62-5.06,2.56-6.07,3.86c3.68-0.19,6.6-4.06,9.38-3.31c-0.98,0.31-2.29,0.28-2.76,1.1c1.26,0.76,2.07-1.42,2.21,0
	c-4.67,1.22-5,9.72-11.04,7.73c0.98-0.3,2.29-0.28,2.76-1.1c-2.35,0.24-6.64,1.43-6.62,2.21c0.98,0.33,2.29-1.62,2.76,0
	c-1.85,0.02-4.47,2.11-6.07,0.55c0.83-0.09,2.04,0.2,2.21-0.55c-3.99,0.24-6.95,1.52-9.94,2.76c3.42,0.21-0.04,0.28-0.55,1.1
	c1.93,0.78,3.54-1.55,4.42,0c-1.68,0.71-4.43,0.36-5.52,1.66c1.79,0.64,3.4-1.69,4.42,0c-2.2-0.07-9.47,3.05-7.18,0.55
	c-1.03,0.12-3.66,1.42-4.42,0c2.51-0.26,7.13-1.31,7.18-2.21c-0.97-0.15-2.75,1.55-3.31,0c2.46-0.23,0.09-0.97,0-2.21
	c2.66,1.42,8.46-1,6.62-1.1c-1.29-0.07-2.13,1.7-4.97,0.55c0.9,0.17,1.49-0.75,0.55-1.1c-1.76,2.55-10.15,3.48-8.83,5.52
	c-6.3,0.39-11.36,6.61-13.8,3.31c0.71,0.03,0.76,0.71,1.66,0.55c0.16-1.09-0.75-1.09-1.11-1.66c2.62-0.88,5.97-1.03,7.18-3.31
	c-0.65-0.08-1.57,0.09-1.66-0.55c3.32-0.54,6.21-1.52,8.28-3.31c-0.65-0.08-1.57,0.1-1.66-0.55c0.97-0.51,2.75-0.19,3.31-1.11
	c-0.65-0.09-1.57,0.1-1.66-0.55c1.2-0.98,3.57,0.07,3.86-0.55c-1.29-1.56-4.74,0.25-5.52-2.76c0.97,1.34,2.96-0.93,1.66,1.1
	c1.76-2.02,3.55,0.12,5.52-0.55c-0.62-0.12-0.86-0.61-1.1-1.1c2.5-1.04,7.11-2.65,9.38-5.52c-2.05,0.58-5.24,0.87-4.97,2.21
	c-3.21-2.51-7.42,2.15-12.14,1.66c-0.35,1.37-0.13,2.16-2.21,2.76c0.13-0.79,0.91-0.93,1.1-1.66c-4.32,0.47-12.72,2.5-14.91,4.97
	c-2.41-1.02-7.91,1.12-7.73,2.76c-2.28-1.89-3.43,2.08-6.07,1.66c0-0.55,0.45-0.66,0.55-1.11c-9.5,2.84-17.08,6.25-26.5,1.66
	c0.35-1.86-0.71-5.13,0.55-6.07c3.01,1.41,3.69,5.14,6.07,7.18c-1.04-4.11-4.39-5.92-6.63-8.83c6.28,2.06,4.86,4.78,8.02,5.98
	c-0.52-0.25-0.96-0.84-0.29-1.01c2.25,0.34,3.63,4.44,5.52,3.31c-1.73-0.8-4.38-2.24-2.21-3.87c-3.79,1.38,0.47-1.38-3.31,0
	c-1.68-3.36-1.88-6.21-2.76-9.38c1.52,1.97,1.91-0.43,4.16-0.54C193.52,21.27,193.53,20.89,193.54,20.51z M102.13,153.56
	c-2.91,1.05-7.17,2.75-10.49,1.66C94.69,154.21,97.68,153.15,102.13,153.56z M84.47,151.9c-0.11,0.45-0.55,0.55-0.55,1.1
	c0.55,0,1.1,0,1.65,0c-0.12,0.8-1.65,0.19-1.65,1.1c-1.11-2.85-3.67-0.89-6.07-0.55C79.17,152.12,81.56,151.75,84.47,151.9z
	 M71.22,151.9c-5.84,2.63-15.76,4.11-22.08,4.42C54.18,153.29,63.73,153.58,71.22,151.9z M15.46,156.32
	c-0.29,0.82-0.82,1.39-1.11,2.21c-1.37-0.28-3.33,0.02-3.31-1.66C12.94,157.11,14.14,156.65,15.46,156.32z M70.11,77.92
	c-0.43,0.56-2.65,2.05-1.1,2.76c-0.12,0.79-1.65,0.19-1.66,1.1c-1.79-0.96,1.43-1.45,0.55-3.31C68.9,78.54,69.07,77.8,70.11,77.92z
	 M53,72.4c2.86,0.09-1.33,7.07,1.66,5.52c0.84,0.52-1.38,2.63-2.21,3.31C51.55,77.9,52.48,75.64,53,72.4z M43.06,69.64
	c-0.62,1.03-2.14,1.17-2.76,2.21C39.13,71.23,42.2,68.35,43.06,69.64z M34.23,100.01c-0.48-1.61-0.83-0.62-2.21-0.55
	c2.58-6.8,3.21-14.61,7.18-18.77c-1.1-2.74-2.67-3.86,1.66-4.97c-4.28,1.25-1.38-5.23,3.31-5.52c1.46-0.09,2.17,2.35,2.21-0.55
	c0.98,3.58,4.94,7.31,5.52,12.7c0.34,3.18-1.07,4.59-1.66,7.73c-0.75,4.04,0.3,11.79-2.76,11.59c0.24,1.05,1.58,1,1.1,2.76
	c-5.3-1.66-7.66,0.56-12.15-0.55c-1.02-0.22,1.65-0.23,2.21-1.66c-0.4-1.12-1.66-2.25-2.76-1.1c0.14,0.7,1.1,0.56,1.1,0
	c2.19,1.36-2.97,2.84-2.21,0c-0.75,0.17-0.46,1.38-0.55,2.21c-1.15-1.2-1.58,0.28-3.31,0C31.08,101.27,31.71,99.69,34.23,100.01z
	 M8.28,125.4c1.22,0.07,0.23,2.34,0.55,3.31C7.32,128.7,7.52,126.11,8.28,125.4z M14.35,137c1.73-0.85,4.08-1.08,6.62-1.1
	C19.25,136.6,16.13,138.08,14.35,137z M34.23,129.27c0.01,0.54,0.67,0.43,1.1,0.55c-5.12-0.23-10.31,1.55-16.01,0.55
	c2.46,2.48-4.11-0.11-6.62,0.55c-0.26,1.18,0.79,1.05,1.65,1.1c-1.25,2.08-4.5,0.27-5.52-1.1c2.43-2.61-1.03-9.6,0-12.7
	c1.1,0,2.21,0,3.31,0c-0.35,1.2,1.56,1.76-0.55,1.66c3.01,1.4,9.03-0.2,12.15,1.1c-0.35-1.13-2.79-0.15-2.21-2.21
	c-1.67,0.75-4.4,0.75-6.07,0c11.59-0.74,21.84-7.05,31.47-4.42c-2.79,3.19-9.16,0.36-15.46,1.65c1.85,1.28,6.06,0.19,8.83,0.55
	c0.26,3.55,3.83,1.62,7.73,2.21c-0.14,0.6-1.1,0.38-1.1,1.11c0.54,1.07,2.85-2.91,3.86,0c0.56-0.36,0.57-1.27,1.66-1.11
	c-0.77-1.07-2.86-0.82-3.86-1.66c-0.74,0-1.47,0-2.21,0c-0.63-0.1-0.31-0.55,0-0.55c7.85,0.75,12.23-0.11,19.32,0
	c-3.74-2.87-9.52,0.75-14.91-1.1c1.51-6.4,14.35,1.01,15.46-4.97c0.21,4.53,1.83,11.42-2.21,17.11
	C54.29,126.97,45.71,130.04,34.23,129.27z M60.18,134.23c1.73,1.43,3.47-0.56,5.52,0.55c-1.92,0.84-4.52,0.99-7.18,1.1
	c0-0.55,0-1.1,0-1.66c-2.47,0.99-7.17,0.53-8.28,0c4.96-2.24,14.08-4.73,18.77-1.1C65.98,132.71,64.56,133.68,60.18,134.23z
	 M65.7,127.61c2.09-2.32,3.47-5.36,2.76-10.49c1.75,1.93,0.77,6.52,1.66,10.49C68.57,128.25,67.24,128.25,65.7,127.61z
	 M68.46,112.15c1.27,0.46,1.51,3.39,0.55,4.42C67.76,116.16,68.79,113.47,68.46,112.15z M71.77,127.06
	c-2.7-12.68-3.8-27.35-2.21-41.41c-0.68,0.62-1.13,0.48-1.1-0.55c-2.34,1.28-0.6,3.32-2.76,4.42c0.24,0.82,0.71-0.22,1.66,0
	c-0.48,0.81-0.44,2.14-2.21,1.66c1.32,2.8-1.74,5.48-2.76,7.73c2.02-0.19,2.53-1.89,3.31-3.31c2.41,1.01-0.85,4.64,1.66,4.97
	c-2.4,1.39-0.97,4.45-1.66,6.62c-1.72,0.25-1.76-1.18-1.66-2.76c-1.56-0.09-1.38,1.56-2.21,2.21c0.33-1.75-3.47-2.67-4.97-2.76
	c-1.24,0.23-0.02,2.93-1.11,3.31c-1.22-0.07-0.23-2.34-0.55-3.31c-2.57,1.11-0.71-0.39-3.31-0.55c0.6-2.24-0.15-3.77,0.55-6.62
	c2.35-1.7,5.36-2.74,8.28-3.86c-2.41-0.93-5.48,2.24-8.28,2.76c0.82-7.09,2.07-13.76,4.42-19.32c3.86-2.39,7.73-4.78,10.49-8.28
	c1.95,1.11-0.99,4.25,0.55,7.18c-0.89,0.16-0.95-0.52-1.66-0.55c0.05,0.78,0.09,1.56-0.55,1.65c0.24,0.82,0.71-0.22,1.66,0
	c-0.51,1.88-0.23,4.55-1.66,5.52c0.23,1.24,2.93,0.02,3.31,1.1c1.2-1.63-1.13-4.33,2.21-4.42c1.06,4.36-0.63,11.86,0.55,16.01
	c-0.72,0.66-0.87,0.22-1.66,0c0,1.1,0,2.21,0,3.31C74.41,103.28,71.12,119.16,71.77,127.06z M78.39,118.22
	c-0.41,4.84-0.04,11.42-4.42,13.25c-0.64-12.75,0.13-24.51,0.55-36.43c0.39-11.25-3.58-21.21,0.55-31.47
	c2.63,2.87,0.57,11.49,1.66,17.12c0.51,2.67,2.43,4.91,2.76,7.17C80.89,97.36,79.13,109.47,78.39,118.22z M120.9,144.17
	c-3.76,0.54-2.9,1.08-6.07,0.55C117.02,143.08,118.85,142.08,120.9,144.17z M113.73,141.96c-3.81,2.15-9.51-2.37-14.35-2.76
	C103.88,137.77,110.45,140.62,113.73,141.96z M147.96,169.02c-0.75-0.17-0.46-1.38-0.55-2.21c0.64,0.46,1.48,0.73,2.76,0.55
	C151.05,169.53,147.78,167.55,147.96,169.02z M185.5,73.51c0.01-0.54,0.68-0.43,1.1-0.55c0.1-0.47-0.21-0.52-0.55-0.55
	c0.51-1.5,1.73,0.77,3.31,0C188.56,73.26,187.21,73.56,185.5,73.51z M261.13,117.67c-1.04,0.76-1.86-0.05-2.76,1.66
	c-1.2,0.09-0.25-1.96-0.55-2.76c0.54,0.01,0.43,0.67,0.55,1.1c1.02-1.19,1.7-2.72,2.76-3.86c0.64,1.01-1.02,1.87,0.55,3.31
	C260.7,116.96,260.55,117.64,261.13,117.67z M272.17,116.01c-0.16,2.15-4.95,2.99-5.52,0.55c-0.75,0.17-0.46,1.38-0.55,2.21
	c-1.69-1.2-1.91-9.33,0-10.49c-1.09,1.15-0.42,3.67,0,4.97c0.95-1.56,1.75-2.89,1.1-4.42c1.43-2.1,1.87,1.39,3.31,1.1
	c-1.87,1.42,1.6,4.57-2.21,5.52C269.04,116.91,270.76,116.52,272.17,116.01z M270.52,102.77c-0.99-0.07-1.17,0.67-2.21,0.55
	c1.89,1.16-0.27,2.08,0.55,2.76c-0.83,1.19-1.35-0.39-2.76,0.55c1.21-2.46,2.55-4.81,4.42-6.62
	C272.14,100.47,269.8,101.39,270.52,102.77z M266.65,85.1c1.2-0.09,0.25,1.96,0.55,2.76c-0.74,0-1.47,0-2.21,0
	C265.32,86.71,266.16,86.08,266.65,85.1z M269.41,88.41c-0.97,0.87-1.15,2.53-2.76,2.76c-0.05-0.87,0.26-2.1-0.55-2.21
	c-1.62,0.47,0.33,1.78,0,2.76C261.18,91.25,265.51,86.73,269.41,88.41z M266.65,93.38c-0.73,0.52-2.95,3.41,0,2.76
	c-0.33,1.14,0.89,3.83-1.1,3.31c0.41,0.51,1,0.84,1.66,1.1c-1.3,0.72-0.54,3.5-2.76,3.31c0.1-3.78,0.03-7.39-0.55-10.49
	C264.81,93.38,265.73,93.38,266.65,93.38z M257.83,113.11l-0.01,0.15L257.83,113.11c-0.18,0.24-0.37,0.47-0.56,0.7
	c-0.39-5.1,0.78-6.52,0.59-1.35c0.32-6.21,2.5-10.56,3.83-15.77C262.55,102.06,261.5,108.35,257.83,113.11z M257.27,102.77
	c1.46,0.17-0.52-3.09,1.66-2.21c0.62,2.64-1.36,2.69-1.66,4.42c-1.26-0.95-0.2-4.21-0.55-6.07
	C257.64,97.31,257.16,101.72,257.27,102.77z M255.61,81.79c0.64-0.09,0.98,0.12,1.1,0.55c-0.27,9.67,0.15,11.66-0.55,2.76
	C256.07,83.94,255.35,83.61,255.61,81.79z M244.57,117.67c-0.51,0.21,4.12-1.9,6.07-0.55c0.54,4.41-4.57,3.16-7.73,3.86
	C244.13,120.5,247.41,118.91,244.57,117.67z M292.05,11.12c0.99-0.07,1.16,0.68,2.21,0.55c-0.29-0.44-0.58-0.9-0.55-1.66
	c0.55,0,1.1,0,1.66,0c-0.29,0.82-0.82,1.39-1.1,2.21c0.3,1.94,3.2,0.89,4.42,0.55c-0.24,0.68-0.71,1.13-1.66,1.1
	c0.18,1.18,2.41-0.09,2.76-0.55c-0.5,1.9-5.55,4.01-8.83,4.97c1-1.58,2.57-2.58,3.86-3.86c-1.21-1.62-3.81,2.02-4.97,0.55
	C289.95,13.07,291.79,12.89,292.05,11.12z M242.91,28.79c-0.01,0.54-0.68,0.43-1.1,0.55c-0.65,0.09-0.47,1.01-0.55,1.66
	c-1.92-0.44-2.12,0.82-3.87,0.55C239.26,30.65,239.8,28.44,242.91,28.79z M178.87,19.96c1.14-1.28,3.63,0.75,4.42,1.66
	c-0.08,0.91-2.3-0.58-3.87,0C179.47,20.83,179.52,20.05,178.87,19.96z M168.93,47.01c0.51,2.91-3.97,0.81-4.97,2.21
	c-0.24-0.63,1.06-1.43-2.21-1.1C161.62,47.39,166.52,47,168.93,47.01z M141.33,45.35c0.17,0.75,1.38,0.46,2.21,0.55
	c0.68,0.62-4.69,1.12,0.55,1.1c1.69,0.85-2.39,0.49-3.31,0.55c1.78,0.98,5.01,0.51,7.18,1.1c-0.24,1.24-2.72,0.22-3.86,0.55
	c0.07,1.22,2.34,0.23,3.31,0.55c-0.7,1.62-6.81-0.41-9.94,0c1.07-2.06,3.12-3.13,3.86-5.52C142.18,44.25,143.15,45.75,141.33,45.35z
	 M136.91,45.35c0.94,0.02,1.43-0.41,1.66-1.1C138.32,46.85,132.31,51.59,136.91,45.35z M122.56,34.31
	c-0.46,2.12-1.81,3.35-3.31,4.42C118.97,38.05,120.8,34.78,122.56,34.31z M120.35,40.38c-0.32,1.57-2.04,2.8,0.55,3.31
	c0.2,0,0.33-0.01,0.39-0.02c-0.38,0.03-2.4,0.24-2.05,1.12C118.24,44.11,118.14,39.68,120.35,40.38z M107.1,42.04
	c0.55,0,1.1,0,1.66,0c0.22-1.68-1.45-2.81,0.55-3.31c0.17-1.27-1.59-0.61-1.66-1.66c-0.11-2.32,2.1-2.32,2.21-4.42
	c0.74,0.7,1.09,1.66,2.21,0.55c0.14-2.21-1.63-4.13,1.66-3.86c-0.57,0.76-2.24,2.63,0.55,2.21c1.02,4.33-0.5,7.42-1.1,12.7
	c1.37-0.47-0.16-3.84,1.1-4.42c1.23,0.75-0.89,4.42,1.1,4.42c0.12,0.94-0.94,1.43,0,1.66C111.45,46.5,106.54,46.4,107.1,42.04z
	 M81.15,131.47c-2.19-5.28,1.17-13.16,1.66-19.87c0.48-6.56-1.21-13.68,3.31-17.67c0.53,5.34,0.93,8.41,1.11,13.25
	c-1.1,0.92-0.7-0.05-2.21,0C89.56,113.14,83.79,125.57,81.15,131.47z M91.64,104.98c-3.53,0.31,0.08,5.47-4.42,6.62
	c1.68-2.93-0.16-6.67,1.66-9.94c-2.05-2.29-3.7-14.81-0.55-17.11c1.26-0.92,2.21,1.16,3.31-1.1C93.39,89.9,91.24,99.83,91.64,104.98
	z M96.61,84c-1.36,0.07-2.66,0.08-3.31-0.55c-0.3-1.22,1.06-0.79,1.11-1.66c-2.3-0.28-2.79,1.26-4.42,1.66
	c1.49-1.48-0.67-2.31-0.55,0c-1.16-2.63,1.03-5.04,1.66-6.62c-0.17-0.75-1.38-0.46-2.21-0.55c-0.61,1.78-1.96,2.83-1.66,5.52
	c-1.21-0.08-1.19-1.39-1.11-2.76c-1.21,6.22,0.93,10.53-3.87,14.91C81.4,83.33,82.24,77,84.47,67.99c1.64,0.75,0.97,3.81,1.1,6.07
	c1.25-0.41,0.22-3.1,0.55-4.42c1.78,1.54,3.06,6.5,6.07,4.97c-0.46,2.11,2.46,5.14,4.42,4.97c0.26,1.18-0.79,1.05-1.66,1.1
	C95.27,82.03,97.09,81.86,96.61,84z M109.31,69.09c6.02-2.52,13.15-6.62,19.88-6.63C122.56,64.68,116.44,67.38,109.31,69.09z
	 M125.87,58.6c-7.25,4.89-17.03,7.26-25.95,10.49c2.91-4.08,9.79-4.2,12.7-8.28c3.07,1.81,6.21-2.43,10.49-1.66
	c-0.02,0.15-0.07,0.27-0.15,0.37c2.84-1.45,6.46-2.06,10.64-0.92c0.03-0.36-0.14-0.53-0.41-0.59c-0.17-0.01-0.34-0.02-0.5-0.03
	c-0.62,0.03-1.42,0.23-1.85,0.07c0.61-0.08,1.22-0.09,1.85-0.07c0.19-0.01,0.36,0,0.5,0.03c4.65,0.33,9.8,2.81,15.87,2.25
	c-1.56-0.83-3.81-0.98-6.07-1.1c-1.59-0.93,2.82-0.44,3.86-0.55c-1.73-0.85-4.27-0.88-6.62-1.11c-1.76-0.76,1.95-0.54,2.76-0.55
	c-2.77-0.94-8.64-2.05-11.04,0c0.19-1.83,1.65-2.39,2.76-3.31c2.02,0.37,4.01,0.77,6.62,0.55c-2.54-1.14-4.37-0.52-6.62-1.1
	c3.38-1.16,8.48,0.71,12.7,0.55c1.08,1.06-4.67,0.57-5.52,0c1.74,2.05,9.68,0.48,7.73,4.42c0.92,0,1.84,0,2.76,0
	c-0.98,1.63-0.55,2.43,1.66,3.31C143.04,60.87,135.81,61.81,125.87,58.6z M159.55,47.01c1.07,1.29-3.36,0.09-4.42,0
	C154.22,45.56,157.91,47.5,159.55,47.01z M155.13,61.91c0.19-0.73,0.97-0.87,1.1-1.66c0.8,1.22,3.65,0.4,3.87,2.21
	C158.09,62.63,156.51,62.38,155.13,61.91z M175.56,67.43c1.03-1.57,1.83-0.79,1.1-3.31c-2.78,0.79-8.13-0.23-9.94-2.21
	c0.63,0.17,3.65,1.08,2.21,0c1.26-1.23,3.64,1.12,5.52,1.1c1.55-0.01-1.31-1.51,1.1-1.1c-0.41-0.52-1-0.84-1.66-1.1
	c-1.23,2.61-6.41-2.93-11.04-2.21c-1.75-0.46,0.98-0.73,1.66-0.55c-1.26-1.57-3.24,0.78-5.52,0c0.17-0.75,1.38-0.46,2.21-0.55
	c0.09-1.2-1.96-0.25-2.76-0.55c0.11-0.74,2.29-1.03,0-1.1c0.17-0.75,1.38-0.46,2.21-0.55c-0.94-0.35-0.91-1.67-1.65-2.21
	c0.14-0.09,3.14-0.49,1.65-1.65c3.16-1.77,8.21,1.33,11.6-0.55c-2.76,1.9,2.44,0.83,3.86,0.55c-3.02,1.32,0.23,0.58,1.1,2.21
	c0.78-2.37,7.96,0.89,11.59-0.55c3.34,2.38,1.99,2.73,4.97,4.97C190.43,64.13,181.4,65.43,175.56,67.43z M197.64,64.67
	c0.93-1.65,3.75-1.4,6.07-1.66C202.11,63.99,199.82,64.27,197.64,64.67z M200.95,60.81c1.34-1.42,4.06-1.46,6.63-1.66
	C206.51,60.84,202.94,60.03,200.95,60.81z M202.06,55.84c0.08-1.21,1.39-1.19,2.76-1.1c-3.04-1.43,1.05-0.7,2.76-2.21
	C206.35,54.24,204.62,55.46,202.06,55.84z M223.04,112.15c-0.17,0.75-1.38,0.46-2.21,0.55c-0.62,2.5,1.32,7.57-1.1,8.28
	c0.54-2.38-0.3-7.61,0-12.7c3.45-0.56,0.36,2.22,3.31,1.66c0.56,1.66-1.23,0.98-2.21,1.1C221.19,111.79,222.01,112.08,223.04,112.15
	z M222.49,107.74c-0.47-1-1.42-1.52-1.66-2.76c0.92,0,1.84,0,2.76,0C224.06,106.73,223.11,107.07,222.49,107.74z M226.35,52.53
	c-1.08,1.13-3.71,0.71-4.97,1.66C220.52,53.28,224.52,52.56,226.35,52.53z M239.05,69.09c0.32,9.3,0.61,23.27,1.66,33.68
	c-1.82-0.56-0.89,4.5-1.1,7.18c1.62-0.77-0.51-5.3,1.1-6.07c0.17,7.72-1.11,15.21-1.1,19.87c-1.91,0.38-2.23,1.16-5.52,1.11
	c-1.06-2.1,0.26-3.17-1.1-4.97c2.17,1.48,0.65-4.64,1.1-6.63c-1.22,0.07-0.23,2.34-0.55,3.31c-2.2-5.36,1.42-14-1.66-18.77
	c0.58-8.02-1.68-21.34,2.21-29.81C236.12,69.73,236.06,69.63,239.05,69.09z M235.18,55.29c1.2-0.83,3.11-0.94,4.97-1.1
	C240.92,54.81,236.89,55.31,235.18,55.29z M239.6,43.14c2.07-1.24,4.66-1.96,7.73-2.21C245.18,42.1,242.59,42.82,239.6,43.14z
	 M248.99,42.04c-1.33,1.24-3.99,1.17-6.07,1.66C244.17,42.38,246.47,42.1,248.99,42.04z M266.1,59.71c1.38-1.38,4.48-1.04,6.62-1.66
	C272.05,60.13,268.84,59.68,266.1,59.71z M288.74,18.3c-1,1.58-3.37,1.78-5.52,2.21C284.22,18.93,286.59,18.73,288.74,18.3z
	 M285.42,21.61c-0.07,1.66-3.13,1.77-3.86,1.1C282.04,22.32,283.78,22.21,285.42,21.61z M278.25,27.68
	c-1.08-1.85,2.89-4.43,7.73-4.42c-4.06,1.65-5.63,5.77-11.04,6.07C275.4,28.15,276.29,27.39,278.25,27.68z M274.93,29.89
	c-0.3,1.72-3.2,0.85-4.42,1.66C271.04,30.04,273.3,30.29,274.93,29.89z M270.52,32.1c0.75,0.17,0.46,1.38,0.55,2.21
	c-0.54-0.01-0.43-0.68-0.55-1.11c-1.3-0.01-1.63,0.95-3.31,0.55C266.43,31.32,270.51,33.75,270.52,32.1z M268.86,34.31
	c-0.53,1.12-2.12,1.19-3.86,1.1C265.53,34.29,267.12,34.22,268.86,34.31z M243.47,63.57c6.86-1.6,13.92-3.01,21.53-3.86
	C258.97,61.64,248.65,63.59,243.47,63.57z M248.43,44.8c-1.07,1.14-3.36,1.05-4.97,1.66C242.87,45.83,246.51,44.75,248.43,44.8z
	 M262.79,34.31c-1.67-1.19-1.67-0.47,0-1.66c1.15,0.16-0.82,1.49,1.11,1.66c-1.07,1.14-3.37,1.06-4.97,1.66
	C258.76,33.96,261.87,35.23,262.79,34.31z M259.48,37.62c0.02,1.67-1.94,1.38-3.31,1.66C256.48,37.94,258.25,38.05,259.48,37.62z
	 M242.91,44.8c3.4-1.39,7.34-2.23,11.59-2.76C250.89,43.21,247.63,44.73,242.91,44.8z M248.99,34.31c-2.08,1.59-4.63,2.73-7.18,3.86
	C241.94,36.82,246.12,34.77,248.99,34.31z M250.64,38.17c1.41-0.02,0.67,0.41,0.55,1.1c-5.48,0.77-9.61,2.9-15.46,3.31
	C240.02,40.44,246.28,40.25,250.64,38.17z M238.5,47.01c-0.83,1.37-3.73,0.69-4.97,1.66C232.67,47.76,236.66,47.04,238.5,47.01z
	 M231.87,55.84c-0.47,0.47-4.68,1.93-7.73,1.65C226.19,56.42,228.9,56,231.87,55.84z M228.01,37.07c0.1-0.47-0.21-0.52-0.55-0.55
	c-0.22-1.32,2.51,0.31,1.65-1.66c1.79,1.06-0.02-0.47,1.66-1.1c0.62,0.11,0.31,0.55,0,0.55c0.83,1.67,2.42-0.46,3.86,0
	c-0.68,0.79-1.9,1.05-3.31,1.1c-0.05,0.78-0.09,1.56,0.55,1.66c-0.47,0.82-1.78,0.8-2.76,1.1c0.2-0.72,0.97-0.87,1.11-1.66
	c-1.03,0.44-2.02,0.92-3.31,1.1C225.9,37.19,227.23,37.03,228.01,37.07z M228.01,38.17c1.04,0.33,0.63,2.77,0.49,3.71l0.06,0.16
	c-0.14,0.36-0.12,0.22-0.06-0.16c-0.25-0.5-1.04-0.35-1.04,0.16c-0.74-0.36-1.03-1.18-1.11-2.21c-0.34,0.76-2.12,0.08-2.21,1.1
	c0.36,1.65,1.18-0.53,2.21,0c0,0.73,0,1.47,0,2.21c-0.64,0.09-0.98-0.12-1.1-0.55c-0.54,0.01-0.43,0.67-0.55,1.1
	c-1.28,0.18-2.12-0.09-2.76-0.55c-1.36-1.31,1.75,0.76,2.21-0.55c-0.17-0.75-1.38-0.46-2.21-0.55c0.31-0.51,1.54-0.84,0.55-1.1
	C225.58,38.11,226.13,40.95,228.01,38.17z M224.69,35.41c-0.25,1.59-2.38,1.3-2.76,2.76C220.7,37.26,222.86,35.09,224.69,35.41z
	 M218.62,34.86c-0.12-0.7-1.65-0.72-1.66,0c-0.63-0.11-0.31-0.55,0-0.55c0-0.37,0-0.74,0-1.11c1.71-0.05,1.58,1.74,3.86,1.11
	c-1.36-1.4,2.71-0.99,4.42-2.21c-2.15,2.45-6.12,3.08-9.38,4.42C216.69,35.87,217.21,34.92,218.62,34.86z M217.52,36.52
	c0.65,0.09,0.47,1.01,0.55,1.66c0.2-1.27,2.42-0.53,2.21-2.21c1.72,0.89-1.13,1.75-1.11,2.76c-0.97,0.15-2.75-1.55-3.31,0
	C214.09,39.41,217.15,37.18,217.52,36.52z M213.65,46.46c1.55,0.01-1.31,1.51,1.1,1.1c0.25-0.81,1.69-2.85,3.87-3.31
	c-1.8,1.44-0.13,3.11,1.66,1.66c-0.24-0.82-0.71,0.22-1.66,0c0.76-1.63,3.51-1.27,5.52-1.66c-0.51,0.96-1.72,1.22-3.31,1.1
	c2.02,0.76-5.94,4.66-8.83,5.52c0.02,0.54,0.68,0.43,1.1,0.55c-1.51,0.08-2.63,0.5-4.24,1.55l-0.17,0.11l0.17-0.11
	c1.49-1.07-0.81-3.46,2.59-3.21c-0.56-1.55-2.34,0.15-3.31,0c1.57-3.05,4.74,0.61,5.52-1.66c-0.09-0.64-1.01-0.46-1.66-0.55
	C212.12,46.76,213.64,47.37,213.65,46.46z M191.02,40.94c1.06-0.78,2.22-1.46,3.87-1.66c0.15,0.99-0.52,1.13-0.55,0.55
	c-1.07,0.96-0.21,3.83-2.21,3.86c0.5,0.43,3.08,2.75,0.55,2.76c0.18,1.18,2.41-0.09,2.76-0.55c1.18,1.03-2.46,1.93-2.76,3.31
	c0.36,1.65,1.18-0.53,2.21,0c-0.71,0.95-1.14,2.17-2.76,2.21c1.14,1.15,4.38-0.99,5.52,1.1c0.61-0.24-0.11-2.44,1.66-1.1
	c-1.21-2.01,0.66-0.34,2.21-0.55c-0.57-2.46-3.57,0.39-3.86-1.66c-0.44,0.06-1.68,1.83-0.55,1.66c-0.13,1.42-0.95-0.76-2.21,0
	c0.48-0.97,1.85-1.71,0-2.21c1.98-0.57,4.33,1.15,6.07-1.1c0,0.74,0,1.47,0,2.21c1.33,0.23,1.2-1.01,2.76-0.55
	c-1.59-2.65,3.36-0.32,3.31-2.21c0.8,0.25-0.06,0.48,0,1.1c1.33-0.51,1.46-2.22,3.87-1.66c-2.62,1.98-5.91,3.29-7.18,6.62
	c-2.21,0-3.31,1.1-5.52,1.1c0.54,1.21,3.19-0.08,3.86-0.55c-0.12,1.36-2.43,5.29-6.62,4.42c-0.3-2.44-0.36-3.5-1.66-3.87
	c0.15-1.14,2.06-0.52,2.21-1.66c-0.43-1.27-3.42-0.54-2.76,1.1c-2.99-2.34-10.66-0.99-14.91-2.21c1.45-0.64-2.81-4.08,1.1-3.87
	c0.09-1.2-1.96-0.25-2.76-0.55c0.78-0.82,1.76-1.18-0.55-1.1c-1.76-0.76,1.95-0.55,2.76-0.55c-2.54-1.07,0.27-1.21-2.21-2.76
	c2.34-0.99,4.8,2.21,7.73,0c-0.35-1.31-3.4,0.09-3.86-1.1c-0.24-1.3,4.14-1.8,2.69-2.13c-0.18-0.02-0.35-0.04-0.48-0.08
	c0.21,0.03,0.36,0.05,0.48,0.08C185.34,39.54,190.08,38.17,191.02,40.94z M182.74,20.51c1.02-0.82,2.62-1.06,4.42-1.1
	c0.39,1.7,0.39,1.06,0,2.76C184.77,22.52,184.06,21.21,182.74,20.51z M191.02,29.34c-0.94,1.43-2.78-0.85-2.21-2.76
	C190.82,26.22,189.49,29.21,191.02,29.34z M189.36,26.03c-1.95,0.29-2.47,1.62-4.42,0.55c0.32-1.79-0.38-2.57-0.55-3.86
	c1.1,0,2.21,0,3.31,0c0,0.92,0,1.84,0,2.76c0.75-0.17,0.46-1.38,0.55-2.21C189.08,23.74,189.44,24.66,189.36,26.03z"/>
<path fill-rule="evenodd" d="M194.88,12.23c-0.5-0.25-0.94,0.12-1.31,0.39c0.08,0.4,0.14,0.83,0.17,1.27
	C193.76,13.33,194.68,12.36,194.88,12.23z"/>
<path fill-rule="evenodd" d="M27.07,104.31c0.14,0.21,0.31,0.44,0.53,0.67C27.47,104.73,27.29,104.51,27.07,104.31z"/>
<path fill-rule="evenodd" d="M117.92,18.98c-0.77,0.08-1.54,0.19-2.3,0.31c0.9,1.24,1.9,2.58,3.08,3.98
	C120.33,21.64,117.25,20.25,117.92,18.98z"/>
<path fill-rule="evenodd" d="M159.55,7.81c0.19,0.03,0.36,0.02,0.51-0.02C159.91,7.81,159.74,7.82,159.55,7.81z"/>
<path fill-rule="evenodd" d="M257.83,113.11L257.83,113.11c0.01-0.23,0.02-0.45,0.03-0.65
	C257.84,112.67,257.83,112.89,257.83,113.11z"/>
<path fill-rule="evenodd" d="M193.54,20.51c-0.02,0.39-0.02,0.76-0.02,1.11c0.08,0,0.17-0.01,0.25-0.01
	C193.77,21.17,193.69,20.81,193.54,20.51z"/>
<path fill-rule="evenodd" d="M54.22,51.54c0.28,0.01,0.52-0.02,0.65-0.16c0.11-0.14,0.22-0.28,0.33-0.42v-0.1
	C54.63,50.97,54.34,51.22,54.22,51.54z"/>
<path fill-rule="evenodd" d="M171.69,19.96c-0.08-0.17-0.2-0.3-0.34-0.41c-0.42,0.06-0.84,0.1-1.27,0.12
	C170.46,19.92,170.8,20.22,171.69,19.96z"/>
<path fill-rule="evenodd" d="M18.09,173.6c0.22-0.03,0.46-0.05,0.69-0.08C18.53,173.41,18.3,173.46,18.09,173.6z"/>
<path fill-rule="evenodd" d="M161.21,17.75c0.3-0.46,0.19-0.99-0.08-1.57c-0.45,0.02-0.91,0.04-1.36,0.06
	C160.15,16.82,160.62,17.33,161.21,17.75z"/>
<path fill-rule="evenodd" d="M228.56,42.04l-0.06-0.16C228.44,42.26,228.42,42.39,228.56,42.04z"/>
<path fill-rule="evenodd" d="M238.64,66.8c-0.22,0.02-0.45,0.04-0.69,0.08C238.17,66.86,238.41,66.83,238.64,66.8z"/>
<path fill-rule="evenodd" d="M339.33,142.27c0.07-0.09,0.14-0.19,0.2-0.3C339.44,142.07,339.37,142.17,339.33,142.27z"/>
<path fill-rule="evenodd" d="M352.23,130.37c-2.6-1.4-2.52-0.03-5.52,0.55c0.34-0.52,1.28-2.04-0.55-1.66
	c1.5-0.9,4.07-0.71,6.07-1.1c-0.95-1.93-4.14-1.96-5.52-0.55c0.05-0.78,0.09-1.56-0.55-1.65c0.47-1.37,3.84,0.16,4.42-1.1
	c-0.54-3.09-5.6,1.68-4.42-2.76c-2.26,2.57,0.2,6.38-0.55,9.38c-1.1,0-2.21,0-3.31,0c-0.53,1.03,1.65,1.85,0,2.21
	c-0.22,1.32,2.51-0.3,1.66,1.66c0.56-0.36,0.57-1.27,1.65-1.11c1.13,1.69,1.53,2.91,1.66,4.42c0.78,0.05,1.56,0.09,1.65-0.55
	c1.3,1.98-2.13,0.68-2.76,2.76c0.19,0.77,0.97,0.05,1.11-0.55c0.75,0.17,0.46,1.38,0.55,2.21c1.9-1.73,1.86,0.26,3.87,1.11
	c-1.82,0.72-2.46-1.37-4.42,0.55c0.08-2.44-1.56,0.26-2.21-1.1c0.58-1.77,0.08-2.41,1.66-3.86c-1.96,0.18-1.36,1.52-3.31,0.55
	c-0.62-4.25-2.06-4.73-4.97-6.07c0.57-0.52,0.5-2.85-1.11-2.76c0.24-0.68,0.71-1.13,1.66-1.1c-0.5-0.98-2.24-0.7-1.66-2.76
	c1.74,0.27,1.95-0.99,3.87-0.55c-0.07-1.22-2.34-0.23-3.31-0.55c-0.59-1.92-0.1-4.54-1.66-3.87c-1.7-0.55,0.62-1.49,1.1-1.65
	c-0.15-1.13-1.47-1.1-2.21-1.66c1.23-0.43,1.48-1.83,3.31-1.66c-0.86-0.98-2.71-0.97-2.76-2.76c1.05,1.03,1-0.33,2.76,0
	c-0.35-1.12-2.58-0.36-2.76-1.66c-0.56-1.66,1.23-0.98,2.21-1.11c-1.02-2.41-1.71-4.2-1.1-6.62c-1.05,0.25-2.38-1.7-2.21,0.55
	c-1.76-9.94-4.12-27.14-2.76-34.78c-2.98-1.07-6.7-1.4-10.49-1.66c4.55,13.53,3.2,32.48,4.97,46.92c0.15,1.13,1.48,1.1,2.21,1.66
	c0.25,1.54-3.01-0.43-2.76,1.1c1.95,1.37,5.1-0.77,8.28,0c-3.72,1.68,2.54,3.92-1.66,4.97c4.73,0.98,2.8,7.62,4.97,9.94
	c-2.41,1.22,0.83,2.14,0.55,4.42c-0.64,0.46-1.48,0.73-2.76,0.55c-0.11-2.28-1.04-3.75-3.87-3.31c0.76-1.64-0.11-2.62-2.21-2.76
	c0.14,1.88,1.62,4.61,4.97,6.62c-0.09,0.65-1.01,0.47-1.66,0.55c0.5,0.48,3.12,1.58,3.31,0.55c0.09,0.82,0.49,1.74,1.65,2.76
	c0.87-0.06,1.59-0.28,2.01-0.8c0.04-0.1,0.11-0.2,0.2-0.3c-0.06,0.11-0.12,0.21-0.2,0.3c-0.69,1.44,2.82,2.13,4.62,1.35
	c-1.82,2.34,3.59,0.3,3.86,4.42c-5.96,1.98-10.58-2.35-17.12,0c0.29-0.44,0.58-0.89,0.55-1.66c-0.87,0.24-0.47,1.74-2.21,1.1
	c0.05,2.34,4.92-0.14,4.97,2.21c1.95,0.3,1.36-1.95,3.31-1.66c0.14,1.37,1.92,3.92,3.31,2.21c-0.27,2.42,0.58,5.56-4.42,5.52
	c0.34,2.01,0.45,2.05,1.66,3.86c-2.22,0.54-4.44,1.08-5.52,2.76c-1.76,0.47-1.71-0.87-2.76-1.1c1.46,1.64-2.24,1.48-0.55-0.55
	c-2.43,1.54,0.51,2.8,1.66,3.86c-2.26,0.81-5.81,1-7.73,3.31c-1.95-0.94,1.8-1.11,0-2.21c-1.58,0.63-1.24,3.17-2.76,3.86
	c-0.99,0.07-1.17-0.67-2.21-0.55c-0.16-0.89,0.52-0.95,0.55-1.66c-0.48-1.63-0.83,1.28-2.21,0.55c-0.53-1.87-3.17-1.62-3.87-3.31
	c-0.82,0.24,0.22,0.71,0,1.66c-3.78-1.18-3.29,0.17-7.18-0.55c2.72,1.54,1.94,3.19,5.52,3.86c-0.5,2-1.63,0.34-3.31,0.55
	c-0.27,1.08,2.53,1.78,2.76,0.55c1.54-0.25-0.43,3.01,1.11,2.76c-0.37,0.74-1.18,1.03-2.21,1.1c-0.49-1.28-0.49-1.48,0-2.76
	c-0.82,0.64-1.39,0.64-2.21,0c-0.07,1.46-1.05,0.88-3.31,0.55c2.33,1.17-0.59,1.52-1.66,0.55c-0.1,1.21,0.45,1.76,1.66,1.66
	c-0.23,1.5-2.63,2.28-3.86,1.1c0.13-1.42,0.95,0.76,2.21,0c-0.08-2.4-2.95-0.46-1.66-2.76c-3.96,3.12-5.78,3.75-9.94,2.21
	c0.08,1.95,2.48,1.57,3.87,2.21c0.18,1.79-1.49,2.94-2.76,1.66c0.06,1.41,1.85,1.1,3.31,1.1c-1,1.8-2.03,0.14-4.42,0.55
	c-0.07,0.99,0.68,1.16,0.55,2.21c-1.1-0.01-0.7-1.5-2.21-1.11c-1.23,0.23-0.53,3.03,0.55,2.76c-0.12,0.79-1.65,0.19-1.66,1.1
	c28.89,0,57.78,0,86.68,0c0-13.25,0-26.5,0-39.75c-1.1,0-2.21,0-3.31,0c-0.02-1.67,1.94-1.37,3.31-1.66c0-4.97,0-9.94,0-14.9
	C369.57,131.06,356.15,125.74,352.23,130.37z M339.53,179.5c-0.56,0.28-2.55,0.79-3.31-0.55c-1.55,0.54,0.8,1.47-0.55,2.21
	c-1.61,0.14-1.91-1.04-2.76-1.66c-0.9,0.07,0.53,2.35,1.66,2.21c0.17,0.98-3.09,0.99-2.21-0.55c-0.71,0.12-0.72,1.65,0,1.66
	c-1.15,0.78-2.25,0.08-3.87,0c-0.02,0.94,0.41,1.43,1.1,1.66c-0.81,1.47-3.03-0.23-2.76-1.66c-2.52,0.08-2.17,0.46-4.42,0
	c0.94-1.4-0.12-2.45-1.1-1.11c-2.23-1.56,2.49-3.7,0.55-4.97c1.81,0.8,4.14-2.95,8.83-3.87c-0.62,0.12,3.85,0.89,6.07,0
	c0.51,2.06,3.56,1.59,4.42,3.31C340.71,175.93,337.43,177.53,339.53,179.5z M348.91,134.23c-0.63-0.1-0.31-0.55,0-0.55
	c-0.17-0.75-1.38-0.46-2.21-0.55c-0.12-2.17,4.47-2.49,5.52-1.66C352.24,133.52,348.79,132.09,348.91,134.23z M345.6,158.52
	c2,0.4,2-0.95,0-0.55c0.65-1.49,2.88,0,3.87,0c0.2,0.94-0.43,1.04-1.1,1.11c0.71,1.54,2.63-0.25,2.76-1.11
	c0.95,0.17-0.72,1.92,1.66,1.66c0.51-0.16,0.51-1.49,0-1.66c1.17-0.63,1.57,0.72,4.42,0c-0.2,1.46-2.81,0.5-3.31,1.66
	c0.24,0.82,0.71-0.22,1.66,0C352.19,161.39,348.75,162.01,345.6,158.52z M353.88,177.85c-2.26,1.65-3.31,0.86-5.52,0
	c0.98-1.94,3.89-1.09,4.97-1.66C355.28,176.25,352.16,178.02,353.88,177.85z M359.95,166.25c-2.51-0.3-4.13,0.28-4.97,1.66
	c0.23,1.24,2.93,0.02,3.31,1.11c-2.8,0.5-5.46-0.46-7.73-2.21c1.65-2.22-0.12-0.85-0.55-3.31c1.25,1.18,2.43-0.72,3.31,1.1
	c1.51-0.5-1.68-1.24,0-2.21c4.13,0.77,3.54,0.12,6.63,1.66C359.03,165.14,360,164.75,359.95,166.25z M363.27,144.72
	c0.49-2.21,6.45-1.15,6.62,0.55C367.91,144.63,364.97,144.08,363.27,144.72z"/>
<path fill-rule="evenodd" d="M209.79,185.58c1.26-1.34,1.96-0.67,3.87-0.55c1.22-0.8-0.69-1.35,0.55-1.66
	c1.26,0.86,4.9-0.6,5.52-2.21c0.65,0.16,2.09,2.22,2.76,0.55c-0.52-0.59-2.04-0.17-1.66-1.65c1.67,0.63,3.39,0.46,6.63,0.55
	c-0.17,1.08,0.75,1.09,1.1,1.66c-0.73,0.88-2.36,2.06-1.1,3.31C221.57,185.58,215.68,185.58,209.79,185.58z"/>
<path fill-rule="evenodd" d="M145.2,185.58c1.38-1.76,1.77-1.99,3.87-2.21c-0.41-3.36,3.03-2.86,3.86-4.97
	c3.61-0.23,4.03,1.6,6.62,0.55c-2.05-0.42,0.35-1.96,0.55-3.31c1.09,0.38-0.34,3.29,1.66,2.76c0.74-0.55,1.08-1.49,2.21-1.66
	c1.87,3.39,5.96-0.08,8.83-0.55c-0.7-1.8-0.79-1.17-1.1-2.76c-2.48-0.61-3.41,3.18-4.97,1.66c1.64-0.38,2.02-2.03,3.31-2.76
	c3,0.13,2.52,3.73,5.52,3.87c-0.03-0.95,0.42-1.42,1.1-1.66c-0.17,1.29-1.18,2.38,0.55,2.76c1.54-1.22,3.3-2.22,5.52-2.76
	c-0.48-2.69,0.94-3.48,2.76-3.86c-0.08,0.65-0.98,1.25,0,1.66c0.54-1.83,1.09,0.62,1.66,0.55c-0.85-2.32,2.86-0.09,2.76-1.66
	c-0.43-0.12-1.09-0.01-1.11-0.55c3.16-1.14,2.98-1.54,5.52-2.76c-1.38,0.1-1.34-1.24-2.21-1.66c2.89-1.07,7.93-0.76,9.94,0.55
	c-0.14,1.29-2.43,0.32-2.76,0c-0.27,2.57-2.39,1.24-3.87,3.31c-0.22-0.95,0.82-1.41,0-1.66c-0.15,1.14-2.05,0.52-2.21,1.66
	c0.62,0.12,0.86,0.61,1.1,1.1c-1.07,0.89-3.98,0.27-1.66,1.66c-1.03,1.08-2.23,0.38-2.76-0.55c0.39,1.38,0.54,2.27-0.55,3.31
	c-0.87-0.05-0.43-1.41-1.66-1.1c-0.28,2.04-1.31,1.63-2.76,3.31c-0.53-1.03,1.65-1.84,0-2.21c-0.37,1.95-2.49,2.14-3.31,2.21
	c2.17,0.83-2.36,2.31-0.55,2.76c1.1-0.41,2.61-3.23,3.31-2.21c0.12,1.04-0.62,1.22-0.55,2.21c1.84-0.19,1.79-2.25,3.86-2.21
	c-0.05,0.87-1.41,0.43-1.1,1.66c4.87,1.38,7.12-1.28,10.49,0c0.22-0.95-0.82-1.42,0-1.66c0.66,1.54,1.67,2.75,4.42,2.21
	c-0.04,0.96,0.12,1.72,0.55,2.21c-2.02,0.9-4.58,0.4-5.52,1.1c2.27,1.72,5.34-0.72,6.63,1.66
	C183.84,185.58,164.52,185.58,145.2,185.58z M171.69,177.85c1.71-0.06,2.64,0.68,3.87,1.1c0.41-1.7-1.52-1.06-1.1-2.76
	C172.72,175.93,172.2,176.88,171.69,177.85z"/>
<path fill-rule="evenodd" d="M272.17,26.03c-0.34,0.03-0.66,0.08-0.55,0.55c1.73-1.49,2-1.2,3.86-2.76
	c-1.54,0.49-3.36,0.69-4.42,1.66C271.5,25.6,272.16,25.49,272.17,26.03z"/>
<path fill-rule="evenodd" d="M83.36,24.37c0.83,1.25,0.46,3.71,1.92,4.32c0.16-0.07,0.32-0.14,0.48-0.2
	C86.28,27.28,84.49,24.96,83.36,24.37z"/>
<path fill-rule="evenodd" d="M85.57,28.79c0.09-0.09,0.14-0.19,0.19-0.3c-0.16,0.07-0.32,0.13-0.48,0.2
	C85.37,28.73,85.47,28.77,85.57,28.79z"/>
<path fill-rule="evenodd" d="M128.08,26.03c0.36,1.81-2.22,3.65,0,4.97C128.48,29.45,128.65,25.83,128.08,26.03z"/>
<path fill-rule="evenodd" d="M109.86,38.17c1.33,1.93,0.8,2.44,2.21,3.86c1.24-0.55-1.19-3.01,0.55-3.86c0,0.31,0.45,0.63,0.55,0
	C111.68,37.01,111.8,39.43,109.86,38.17z"/>
<path fill-rule="evenodd" d="M332.9,49.21c-0.09-2.14,2.48-4.48,1.66-5.52C334.34,45.98,330.63,47.71,332.9,49.21z"/>
<path fill-rule="evenodd" d="M76.19,45.35c1.24,1.47-0.82,2.81,0.55,3.86c0.12-0.43,0.01-1.09,0.55-1.1
	c0.03,0.34,0.08,0.65,0.55,0.55C77.6,47.25,77.07,46.12,76.19,45.35z"/>
<path fill-rule="evenodd" d="M146.3,55.84c-2.56-0.51-5.37-1.04-7.18-1.1C126.59,54.3,143.95,56.28,146.3,55.84z"/>
<path fill-rule="evenodd" d="M348.91,64.67c-2.73-2.6-3.7-6.97-6.07-9.94C344.28,58.27,346.41,64.04,348.91,64.67z"/>
<path fill-rule="evenodd" d="M340.08,63.02c-0.65-1-2.3-1.41-3.87-2.76c1.41-0.6,2.63,1.68,3.31,0c-1.79-0.53-4.71,0.08-3.31-2.21
	c-1.55-0.08-1.59,1.35-1.66,2.76c1.55-0.08,1.8,1.56,1.11,2.21c1.79,0.68,0.42-1.79,2.21-1.1c-1.71,1.7,1.11,1.69,1.66,2.76
	c-0.78,0.14-0.63,1.21-1.1,1.66c1.03-0.53,1.84,1.65,2.21,0C339.41,66.26,340.4,63.99,340.08,63.02z"/>
<path fill-rule="evenodd" d="M40.3,61.36c-1.08-0.17-1.09,0.75-1.66,1.1c-1.04-0.97,0.75-1.71-1.1-2.21
	c0.24,1.23-1.7,2.99-0.55,3.31c2.92-0.62,5.8,1.1,6.48,1.56c-0.38-0.29-1.52-1.19-3.72-3.21C40.09,61.88,40.4,61.83,40.3,61.36z"/>
<path fill-rule="evenodd" d="M342.84,62.46c1.82,0.83-1.85,0.65-1.1,2.21c1.08-0.17,1.09,0.74,1.66,1.1c1.6-1.37-0.45-0.99,1.1-3.31
	C343.54,62.68,343.08,61.65,342.84,62.46z"/>
<path fill-rule="evenodd" d="M107.1,185.58c0.58-2.27-2.6-3.62-1.1-4.97c0.32,1.89,1.85,2.57,1.66,4.97
	C107.47,185.58,107.29,185.58,107.1,185.58z"/>
<path fill-rule="evenodd" d="M102.13,185.58c-0.92,0-1.84,0-2.76,0c0.05-0.87-0.07-1.92,1.1-1.66
	C101.68,183.82,102.23,184.37,102.13,185.58z"/>
<path fill-rule="evenodd" d="M94.41,185.58c-0.74,0-1.47,0-2.21,0C91.78,184.07,94.52,182.01,94.41,185.58z"/>
<path fill-rule="evenodd" d="M69.56,185.58c0.74-1.92,8.28-0.23,7.73-3.31c0.32,2.85,1.97-1.76,2.76,1.1
	c0.27-0.65,0.59-1.25,1.1-1.66c0.6,2.83,4.46,0.48,4.97,1.11c-0.02,0.76,0.26,1.21,0.55,1.66c-0.83,1.07-2.32-0.97-2.76,1.1
	C79.13,185.58,74.35,185.58,69.56,185.58z"/>
<path fill-rule="evenodd" d="M194.33,64.12c-1.93,0.28-4.17,0.25-5.52,1.1C191.09,65.3,193.08,65.07,194.33,64.12z"/>
<path fill-rule="evenodd" d="M342.84,66.88c3.16,1.07,4.05,4.41,6.62,6.07c3.27-1.37,9.37,6.78,13.25,6.62
	c-3.06-2.16-6.16-4.8-9.39-7.18C350.22,70.11,346.9,66.34,342.84,66.88z"/>
<path fill-rule="evenodd" d="M344.5,88.96c0.8-0.3,2.85,0.64,2.76-0.55c-0.86-0.8-2.58-0.74-3.31-1.66
	c1.72-0.06-1.52-6.77-2.21-4.42c0-0.74,0-1.47,0-2.21c1.15,0.87,3.66,0.38,4.97,1.1c2.46,0.43,3.74-0.85,0.55-0.55
	c-2.21-0.39-6.19-1.89-8.28-0.55c3.16-0.52,0.52,2.57-0.55,2.76c3.17,1.04,1.25,3.86,4.42,2.76c-0.66,3.05,1.76,3.03,1.11,6.07
	c4.08-0.01,8.7,1.79,13.25,0.55C353.7,90.78,346.81,92.81,344.5,88.96z"/>
<path fill-rule="evenodd" d="M277.69,87.86c0.4-1.18,3.87,3.22,0.55,2.76C277.94,89.82,278.89,87.77,277.69,87.86z"/>
<path fill-rule="evenodd" d="M344.5,95.04c2.26,3.85,9.7-0.17,11.59,3.31C352.08,96.64,344.34,99.68,344.5,95.04z"/>
<path fill-rule="evenodd" d="M317.44,113.81c3.21,1.16,2.44,2.99,4.42,5.52c-2.66,0.79-2.45-4.14-3.87-2.76
	C317.26,116.19,318.27,115.1,317.44,113.81z"/>
<path fill-rule="evenodd" d="M246.23,127.61c0.11,2.13-3.46,0.59-4.42,1.66C240.84,128.44,245.04,128.11,246.23,127.61z"/>
<path fill-rule="evenodd" d="M241.81,145.28c-0.44,1.11,0.41,5.7,0.55,6.62c5.37-1.26,10.16-3.09,16.01-3.86
	c-2.17,0.98,1.23,1.74,2.21,2.76c0.16-0.83,0.74-0.99,1.66-2.21c1.37,0.66,0.01,4.04,2.21,3.86c-0.95,0.89-1.37,2.31-1.1,4.42
	c1.34-0.5,1.46-2.22,1.66-3.86c2.16,0.52,0.47,2.79,0.55,4.42c-2.43,0.08-2.54,3.1-4.97,1.66c0.54-0.75,1.47-1.11,2.21-1.66
	c-0.44-2.32-2.15-1.71-1.11-4.42c-1.87,2.07-0.85,5.16-1.1,7.18c-2.22-1.39-3.38-0.57-6.07-1.66c-0.11-2.69-0.32-1.85-1.1-3.86
	c-1.16,2.17-2.24,2.65-4.42,2.76c0.95,0.33-0.04,2.62,1.1,2.76c-0.16,1.29-1.49,1.29-1.66,0c-0.56,2.91-2.47,3.54-4.97,5.52
	c-2.2-1.5-6.1,1.13-9.39-1.11c0.02-1.82,1.57-2.11,3.31-2.21c-2.21,1.7,0.53,0.78,1.66,0c0.22-2.43-2.15-2.27-3.31-3.31
	c-0.1,0.89-1.04,0.69-1.11,2.76c-1.94-0.44-0.64-1.93,0-2.76c-0.44,0.29-0.89,0.57-1.66,0.55c-0.01-0.81,2.33-1.75,0-1.66
	c-0.76-1.26,1.42-2.08,0-2.21c2.76-1.33,6.54,1.24,8.28-1.11c1.32-1.02-1.63-1.97-1.66-2.21c-0.1-0.94,1.43-0.1,1.66-0.55
	c0.87-1.74-1.91-6.86-1.1-11.59c0.46-1.76,0.73,0.98,0.55,1.65c1.2,0.09,0.25-1.96,0.55-2.76c1.42,0.37,0.58,5.55,2.21,6.62
	C243.16,147.43,242.6,144.98,241.81,145.28z M236.29,157.97c-2,0.53-0.46-2.48-2.21-2.21c0.03,0.76-0.26,1.21-0.55,1.66
	C234.18,157.58,235.61,159.65,236.29,157.97z"/>
<path fill-rule="evenodd" d="M129.74,140.86c0.82,0.24-0.22,0.71,0,1.65c5.29,2.07,13.05,1.41,20.43,0
	c-6.22,4.16-13.73,3.05-22.63,2.76c1.82-2.1-1.86-2.23-1.1-4.97C128.29,139.42,128.78,142.65,129.74,140.86z"/>
<path fill-rule="evenodd" d="M58.52,145.28c3.05-0.79,10.76-2.2,14.35-2.21C68.81,144.26,63.09,148.06,58.52,145.28z"/>
<path fill-rule="evenodd" d="M321.31,145.28c0.2-0.94-0.43-1.04-1.1-1.11c0.29-0.44,0.58-0.9,0.55-1.66
	c0.56,0.36,0.57,1.27,1.66,1.11c-0.24,1.05-1.19,1.39-1.1,2.76C320.61,146.24,320.75,145.28,321.31,145.28z"/>
<path fill-rule="evenodd" d="M237.94,144.72c0.46-0.25,1.64,5.82,0.55,7.17C237.96,150.13,238.22,147.89,237.94,144.72z"/>
<path fill-rule="evenodd" d="M103.79,146.38c0.41,1.25,3.1,0.22,4.42,0.55c-1,0.61-5.82,3.04-8.28,3.31
	c-1.6,0.18-4.67-0.44-1.1-0.55c1.55-0.47,2.27-1.78,4.42-1.66c0.07-0.99-0.67-1.16-0.55-2.21c1.47-0.01,3.15,0.21,3.86-0.55
	C112.19,145.2,105.88,146.32,103.79,146.38z"/>
<path fill-rule="evenodd" d="M316.34,160.18c0.77-0.88,1.9-1.41,3.31-1.66c-0.42,1.41-0.81,2.54,0.55,3.31
	C318.91,163.45,318.72,159.31,316.34,160.18z"/>
<path fill-rule="evenodd" d="M72.87,164.6c-0.94,1.27-3.11,1.31-4.97,1.66C67.95,164.66,71.08,165.72,72.87,164.6z"/>
<path fill-rule="evenodd" d="M65.14,180.61c-0.78,0.05-1.56,0.09-1.66-0.55c-1.25,0.31,0.67,0.86-0.55,1.65
	c-2.62-0.23-2.9,1.89-5.52,1.66c-0.05-1.51,0.92-1.11,0-2.21c-1.56,0.09-2.3,1.01-3.86,1.1c0.29-0.44,0.58-0.9,0.55-1.66
	c-1.78-0.49-0.78,1.8-1.66,2.21c-0.92,0-1.84,0-2.76,0c2-1.03,2.05-1.12,2.21-3.31c3.2,1.42,2.56-5.17,6.07-3.31
	c0-0.37,0-0.74,0-1.1c-0.36-1.66-1.18,0.53-2.21,0c4.33-4.56,13.43-2.32,17.11-5.52c1.15,0.33,1.88,1.06,2.21,2.21
	c6.48-0.07,8.25-2.58,12.15-1.66c-0.35,1.13-2.79,0.15-2.21,2.21c-1.81-0.31-4.58,1.63-6.62,2.76c-1.55-0.01,1.32-1.51-1.11-1.1
	c-0.76,0.46,0.17,2.92-1.65,1.1c-0.28,2.39-4.45,3.37-7.73,3.31c0.39,1.63,1.43,2.62,3.31,2.76c-0.83,0.83-0.16,3.15-2.21,2.76
	c2.94-2.55-2.51-2.87-2.21-6.07c-0.83,0.65-2.26,0.69-2.76,1.66C64.88,180.82,66.42,177.71,65.14,180.61z"/>
<path fill-rule="evenodd" d="M288.18,175.09c-1.79-0.08-3.71-1.79-4.97-3.87c2.63-0.05,3.31,1.84,5.52,2.21c0,0.92,0,1.84,0,2.76
	c-0.78-0.05-1.56-0.09-1.66,0.55C285.77,176.58,287.69,175.25,288.18,175.09z"/>
<path fill-rule="evenodd" d="M241.26,173.43c0.63,0.1,0.31,0.55,0,0.55c0.22,1.06,2.14,0.44,1.66,2.21c0.49-0.25,0.99-0.49,1.1-1.1
	c1.17,2.21,5.82,3.61,0,2.76c0.25,0.49,0.49,0.99,1.1,1.1c0.1,0.47-0.21,0.52-0.55,0.55c-0.47-0.1-0.52,0.21-0.55,0.55
	c-1.18-1.11-0.96-2.88-4.42-2.76c0.47-0.82,1.78-0.8,2.76-1.1c0.17-1.46-1.15-1.42-2.21-1.66c-1.41,0.06-1.93,1.01-2.76,1.66
	C236.07,174.84,240.16,174.2,241.26,173.43z"/>
<path fill-rule="evenodd" d="M255.61,177.85c0.1-0.62,0.56-0.31,0.55,0c0.87-0.24,0.47-1.73,2.21-1.1c-0.09,0.64,0.12,0.98,0.55,1.1
	c0.26,1.73-1.49,1.46-1.66,2.76c-0.74,0.28,0.48-3.05-1.1-1.1c-0.64,1.58-0.64-0.89,0-1.1
	C256.26,177.93,255.95,177.88,255.61,177.85z"/>
<path fill-rule="evenodd" d="M261.68,178.4c-0.02-0.82,2.78,0.1,2.76,1.1c0.97-0.31-2.5,0.49-3.87,0c0.09-0.65,1.01-0.47,1.66-0.55
	C262.34,178.48,262.02,178.43,261.68,178.4z"/>
<path fill-rule="evenodd" d="M4.42,179.5c2.65,1.04-1.39,1.87-2.76,2.21C0.81,179.21,5.26,182,4.42,179.5z"/>
<path fill-rule="evenodd" d="M46.93,180.06c1.81,0.51-1.72,4.9-2.21,1.1c0.45,0.11,0.55,0.55,1.1,0.55
	C46.34,181.31,46.66,180.71,46.93,180.06z"/>
<path fill-rule="evenodd" d="M231.32,180.61c0.11-0.63,0.56-0.31,0.55,0c0.99,0.07,1.16-0.68,2.21-0.55
	c-0.29,0.79,3.58,2.63,2.21,2.21c-0.78-0.05-1.56-0.09-1.66,0.55C234,181.61,232.73,181.04,231.32,180.61z"/>
<path fill-rule="evenodd" d="M215.31,182.26c-0.64,1.47-4.35-0.76-2.76,1.1c-0.24,0.8-0.48-0.06-1.1,0c0-0.37,0-0.74,0-1.1
	C213.46,181.78,213.92,181.72,215.31,182.26z"/>
<path fill-rule="evenodd" d="M114.28,79.58c-1.81,0.03-2.11,1.57-4.42,1.1c0.95,12.81-1.66,27.67,0.55,38.09
	c2.05,0.39,2.37-0.94,4.42-0.55C113.85,105.37,116.66,86.73,114.28,79.58z"/>
<path fill-rule="evenodd" d="M345.05,101.66c3.03-2.04,4.52,1.04,6.07,1.11c-0.77,1.26-3.84,0.21-5.52,0.55
	C345.65,102.53,345.69,101.76,345.05,101.66z"/>
<path fill-rule="evenodd" d="M67.35,146.38c3.15,0.58,3.42-1.73,5.52-2.21c0.84,2.79,1.84,0.61,3.31,2.76
	c-2.7-0.26-3.69,1.93-7.18,2.21c0.35-2.01-1.14-2.17-2.76-2.21c0-0.55,0-1.1,0-1.65C66.74,145.52,67.24,145.76,67.35,146.38z"/>
<path fill-rule="evenodd" d="M113.73,162.94c-2.88,4.23-9.33,4.29-14.35,4.97c1.21-1.98,4.62-0.69,4.97-3.31
	c1.7,0.39,1.06,0.39,2.76,0c-0.29,0.44-0.58,0.9-0.55,1.66c2.81,0.3,0.01-1.95,2.21-1.66c0.22-1.32-2.52,0.31-1.66-1.66
	C109.86,162.48,110.4,163.03,113.73,162.94z"/>
</svg>
