<?xml version="1.0" encoding="utf-8"?>
<!-- Generator: Adobe Illustrator 14.0.0, SVG Export Plug-In  -->
<!DOCTYPE svg PUBLIC "-//W3C//DTD SVG 1.1 Tiny//EN" "http://www.w3.org/Graphics/SVG/1.1/DTD/svg11-tiny.dtd" [
	<!ENTITY ns_flows "http://ns.adobe.com/Flows/1.0/">
]>
<svg version="1.1" baseProfile="tiny"
	 xmlns="http://www.w3.org/2000/svg" xmlns:xlink="http://www.w3.org/1999/xlink" xmlns:a="http://ns.adobe.com/AdobeSVGViewerExtensions/3.0/"
	 x="0px" y="0px" width="105px" height="119px" viewBox="-0.41 -0.35 105 119" xml:space="preserve">
<defs>
</defs>
<g id="Stencils_-_V.001_-_Set.001_1_">
	<g>
		<path fill="#231F20" d="M11.02,62.84c-0.09-0.03-0.07-0.14-0.2-0.24c0.17-0.02,0.11-0.25,0.37-0.23
			c-0.02-0.14-0.09-0.24-0.24-0.31c0.03-0.2,0.3-0.39,0.19-0.57c0.04-0.06,0.15,0,0.23,0.02c0.08-0.31,0.14-0.54-0.12-0.68
			c0.01-0.14,0.19-0.36,0.09-0.43c0.16-0.14,0.3-0.08,0.4,0.02c0-0.18-0.12-0.31-0.17-0.35c-0.06-0.19,0.2-0.31,0.31-0.42
			c-0.11-0.1,0.09-0.48-0.14-0.63c0.14-0.13,0.28,0.01,0.36,0.12c-0.06-0.46-0.11-0.84,0.28-1.01c-0.05,0.01-0.1,0.02-0.17,0
			c0.21-0.07-0.07-0.63,0.26-0.61c0.09-0.18-0.14-0.19-0.05-0.37c0.13-0.26,0.26-0.04,0.3-0.19c0.04-0.18-0.15-0.24-0.09-0.43
			c0.25-0.11,0.18-0.38,0.1-0.66c0.08-0.06,0.08,0.05,0.19-0.05c-0.01-0.27-0.06-1.15,0.3-1.06c-0.05-0.06-0.13-0.07-0.16-0.23
			c0.07-0.12,0.19-0.14,0.3-0.19c-0.02-0.06-0.19-0.04-0.23-0.19c0.19-0.28,0.27-0.74,0.56-0.8c-0.17-0.51-0.02-1.26,0.37-1.62
			c-0.21-0.53,0.37-1.34,0.31-1.98c0-0.09-0.07,0-0.16-0.05c-0.02-0.18,0.04-0.28,0.17-0.35c-0.2-0.06-0.17,0.01-0.31-0.1
			c0.03-0.12,0.2,0.04,0.28,0.04c0.2-0.35-0.07-0.82,0.26-0.96c-0.28-0.1-0.14-0.61,0.31-0.59c-0.1-0.38-0.15-0.38-0.1-0.9
			c0.05,0.02,0.1,0.04,0.16,0.05c0.06-0.13-0.02-0.19-0.16-0.23c0.13-0.17,0.21-0.18,0.28-0.31c0-0.09-0.07,0-0.16-0.05
			c0.17-0.06,0.34-0.14,0.49-0.24c-0.02-0.11-0.19-0.14-0.07-0.31c0.18,0.14,0.19-0.15,0.28,0.04c0.04-0.35-0.01-0.68,0.23-1.03
			c0.16-0.08,0.07,0.11,0.24,0.14c-0.07-0.11-0.07-0.19,0.02-0.23c-0.35-0.27,0.04-0.9,0.21-1.49c0.02-0.09-0.06-0.18-0.03-0.24
			c0.18-0.47,0.55-0.73,0.37-1.27c0.46-0.2-0.04-0.91,0.63-1.01c-0.06-0.2-0.28-0.15-0.26-0.44c-0.18-0.12-0.2,0.21-0.3,0.02
			c0.02-0.11,0.31-0.14,0.16-0.3c0.13-0.12,0.22,0,0.31,0.1c0.13-0.05-0.11-0.18-0.11-0.2c0.01-0.17,0.15,0.03,0.1-0.14
			c-0.06-0.21,0.18-0.69,0.33-0.47c-0.1-0.12-0.13-0.53,0.16-0.47c-0.31-0.42,0.45-1.09,0.17-1.39c0.1-0.05,0.17-0.19,0.3-0.19
			c-0.11-0.13-0.12-0.21-0.07-0.49c0.39-0.07,0.23-0.15,0.23-0.5c0-0.29,0.29-0.81,0.14-0.94c-0.13-0.1,0.16-0.08,0.17-0.17
			c-0.02-0.06-0.07-0.11-0.12-0.16c0-0.14,0.34-0.16,0.09-0.26c0.06-0.14,0.21-0.09,0.3-0.19c-0.04-0.24-0.25-0.16-0.12-0.5
			c0.26,0.34,0.33-0.48,0.16-0.65c0.23-0.14,0.19-0.3,0.36-0.57c0.12,0.22,0.06-0.22,0.23,0.02c-0.02-0.16-0.06-0.19,0.05-0.33
			c-0.02-0.11-0.03-0.21-0.21-0.24c0.22-0.19,0.21-0.45,0.35-0.69c-0.1-0.26-0.34-0.3-0.16-0.57c0.08,0.18,0.04,0.26,0.33,0.4
			c-0.19-0.28,0.03-0.49-0.02-0.82c0.25-0.05,0.26-0.43,0.11-0.49c-0.09-0.17,0.16-0.12,0.24-0.2c0.08-0.16-0.08-0.19-0.14-0.28
			c0.1-0.18,0.16,0.06,0.38,0.07c-0.03-0.23-0.02-0.26,0.14-0.42c-0.22-0.13-0.1-0.38-0.33-0.4c0.02-0.18,0.18-0.05,0.19-0.23
			c0.11,0.14-0.15,0.19,0.02,0.3c0.18-0.33-0.11-0.69,0.16-1.34c0.11,0.2-0.02,0.26,0.07,0.49c0.12-0.1,0.19-0.52,0-0.7
			c0.21-0.2,0.21-0.62,0.21-0.97c0.09,0.01,0.08,0.07,0.14,0.1c-0.19-0.26,0.39-0.32,0.14-0.42c0.08-0.1,0.21-0.1,0.33-0.12
			c-0.09-0.11-0.01-0.31-0.16-0.4c0.18-0.15,0.25-0.31,0.04-0.45c0.05-0.22,0.07,0.03,0.23,0.02c-0.02-0.09-0.14-0.13-0.23-0.19
			c0.17,0.07,0.25-0.16,0.5-0.12c0.03-0.17-0.08-0.21,0.12-0.36c-0.08-0.25-0.27,0.25-0.35,0c-0.11-0.21,0.17-0.01,0.26-0.09
			c-0.06-0.19-0.35-0.27-0.15-0.58c0.58,0,0.26-0.61,0.68-0.81c-0.16-0.12-0.2-0.05-0.38-0.24c0.05-0.17,0.2-0.13,0.23-0.33
			c-0.12-0.06-0.05,0.25-0.21,0.1c0.02-0.07,0.05-0.14,0.07-0.21c0.24,0.07,0.25,0.26,0.07,0.32c0.08,0.02,0.15,0.04,0.14,0.1
			c0.06-0.02,0.11-0.07,0.16-0.12c-0.04-0.33-0.31-1.03,0.12-1.58c0.06,0.13,0.19,0.08,0.31,0.1c-0.07-0.12,0.14-0.18,0.05-0.33
			c-0.15,0.05-0.28-0.11-0.33-0.05c-0.13-0.12,0.13-0.19,0.26-0.09c0.11-0.28-0.08-0.29,0.14-0.42c-0.2-0.15-0.15,0.23-0.33,0.12
			c0.31-0.92,0.85-1.46,0.85-2.55c0.05-0.19,0.24-0.11,0.31-0.24c-0.07-0.85,0.56-1.43,0.35-2.09c0.14-0.02,0.29-0.08,0.31,0.1
			c0.13-0.46-0.02-0.26-0.09-0.78c0.07-0.08,0.1,0.02,0.16,0.05c-0.03-0.2,0.06-0.3,0.23-0.33c0.05-0.61,0.17-0.7,0.26-1.3
			c0.07,0.02,0.14,0.05,0.21,0.07c-0.14-0.11-0.11-0.31,0.07-0.38c-0.02-0.1-0.09-0.16-0.23-0.19c0.03-0.08,0.06-0.14,0-0.17
			c0.13-0.2,0.35-0.22,0.49-0.42c0.1-0.18-0.16-0.18-0.12-0.33c0.04-0.15,0.16-0.31,0.23-0.16c-0.04-0.16-0.14-0.28-0.21-0.42
			c-0.06-0.01-0.08,0.08-0.1,0.14c-0.08-0.36,0.14-0.58,0.04-0.97c0.27,0.19,0.34-0.36,0.5-0.12c-0.01-0.11-0.11-0.26,0.03-0.1
			c-0.22-0.29,0.06-0.39-0.23-0.54c0.14-0.16,0.32-0.22,0.47-0.36c0.01-0.07-0.19-0.17,0.03-0.1c0.03-0.12-0.09-0.16-0.23-0.19
			c0.09-0.17,0.32-0.06,0.42-0.21c0.03-0.08-0.19-0.36-0.11-0.2C26.14,8.49,26.78,8.04,26.41,8c0.05-0.19,0.27-0.04,0.38-0.1
			c-0.02-0.11-0.15-0.16-0.21-0.24c0.05,0.09,0.39-0.02,0.28,0.21c0.11,0.02,0.09-0.23,0.19-0.23c-0.1-0.11-0.13-0.25-0.16-0.4
			c0.03-0.06,0.06-0.01,0.05,0.02c0.18,0.04,0-0.43,0.38-0.28c-0.17-0.15,0.05-0.37,0.19-0.4c-0.17,0.01-0.31-0.16-0.45-0.38
			c0.11-0.13,0.19-0.18,0.17-0.35c0.1,0.06,0.15,0.01,0.23,0.02c-0.09-0.09-0.05-0.23-0.12-0.33c0.05-0.13,0.21-0.05,0.35,0
			c0.01-0.18-0.19-0.25-0.21-0.42c0.3-0.3,0.15-1.11,0.56-1.15c-0.02-0.09-0.02-0.2-0.16-0.23c0.3-0.38,0.38-0.77,0.4-1.2
			c0.18-0.02,0.37-0.02,0.47-0.19c-0.21,0.03-0.25-0.2-0.45-0.39c0.12-0.14,0.12,0.01,0.29-0.01c0.09-0.15-0.04-0.18,0.05-0.33
			c0.21,0.26,0.01-0.37,0.28-0.14c0.03-0.21-0.15-0.48,0-0.7c0.08,0.08,0.28,0.09,0.21,0.24c0.11-0.01,0.15-0.16,0.28-0.13
			c3.06,1.04,6.93,1.94,10.15,3.1c5.21,1.35,11.19,3.22,16.61,4.74c0.08,0.02,0.15,0.11,0.24,0.14c1.17,0.41,2.77,0.58,3.63,1.1
			c6.47,1.74,12.5,3.6,18.99,5.42c3.9,1.09,8.76,2.57,12.81,3.82c0.84,0.26,1.74,0.31,2.45,0.65c0.16,0.08,0.43,0.17,0.83,0.28
			c2.37,0.64,5.61,1.6,7.87,2.28c-0.36,1.13-1.04,2.43-0.66,3.2c-0.07,0.1-0.12,0.08-0.17,0c0.01,0.08,0.04,0.15,0.1,0.21
			c0.15,0.05-0.08-0.19,0.14-0.07c0.01,0.14,0,0.16-0.09,0.26c-0.18-0.01-0.06-0.17-0.16-0.23c-0.21,0.32,0.11,0.75-0.04,1.32
			c-0.05-0.03,0-0.12-0.07-0.14c-0.07-0.02-0.09,0.3-0.07,0.38c0.17,0-0.03-0.16,0.12-0.19c0.07,0.46-0.45,0.79-0.66,1.28
			c-0.04,0.17,0.23,0.18,0.1,0.39c-0.04-0.09-0.05-0.18-0.23-0.19c-0.03,0.16,0.03,0.27,0.17,0.35c-0.12,0.13-0.15-0.16-0.3-0.16
			c-1.17,3.46-2.06,6.82-2.95,10.03c-0.14,0.5-0.22,0.94-0.35,1.39c-2.05,7.11-3.95,13.17-6.08,20.63c0.16,0.34,0.48,0.63,0.22,1.06
			c-0.14,0.07-0.09-0.06-0.19-0.12c-0.15,0.5-0.03,1.1-0.24,1.6c0.3,0.26,0.08,0.54,0.24,0.83c-0.14,0.14-0.38,0.2-0.33,0.47
			c-0.2,0.04-0.62,0.19-0.4,0.33c-0.2,0.04-0.21,0.14-0.5,0.12c-1.68,5.96-3.23,10.85-4.97,16.77c-1.89,6.46-3.72,13.02-5.74,19.93
			c0.07,0.3,0.01,0.55,0.02,0.99c-0.09-0.04-0.13,0.03-0.23-0.02c0.17,0.27-0.31,0.4-0.05,0.68c0.12,0.01,0.22-0.02,0.24-0.21
			c0.16,0.09-0.18,0.32-0.05,0.33c-0.09,0.14-0.11-0.11-0.26-0.09c-0.01,0.17,0.11,0.17-0.05,0.33c0.1-0.07,0.22-0.09,0.37-0.05
			c-0.17,0.13-0.19,0.01-0.14,0.24c-0.12-0.06-0.14,0.05-0.28-0.04c0.06,0.16,0.2,0.01,0.3,0.16c-0.25-0.04-0.2,0.26,0,0.35
			c-0.14,0.08-0.19,0.73-0.42,0.56c-0.09,0.21,0.16,0.09,0.24,0.14c-0.2,0.04-0.07,0.31-0.33,0.29c-0.01,0.11,0.19,0.11,0.09,0.26
			c-0.25-0.25-0.17,0.28-0.54,0.06c0.02,0.11,0.04,0.21,0.21,0.24c-0.13,0.07-0.26,0.13-0.4,0.16c-0.02,0.29-0.02,0.61-0.12,0.88
			c-0.75,2.11-1.5,4.68-2.18,7.04c-0.26,0.88-0.47,2.74-0.97,3.26c-0.27,0.02-0.61,0.06-1.03-0.05c-1.62-0.43-3.01-0.92-4.48-1.33
			c-8.04-2.22-17.83-4.88-25.09-7.11c-2.25-0.69-5-1.42-7.21-2c-0.09-0.17-1.12-0.34-1.63-0.49c-6.92-2.02-13.18-3.92-19.91-5.79
			c-0.15-0.25-1.47-0.3-1.86-0.68c-0.17,0.13-1.05-0.27-1.55-0.4c-3.27-0.88-7.23-2.03-10.03-2.95c-0.21-0.07-0.61-0.19-0.71-0.3
			c-0.13-0.13-0.26-0.67-0.63-0.56c0.1-0.14,0.34-0.01,0.42-0.21c0.03-0.12-0.09-0.16-0.23-0.19c0-0.25,0.1-0.31,0.23-0.5
			c0.18,0,0.27,0.15,0.42-0.04c-0.1-0.14-0.22-0.34-0.26-0.61c0.15,0.04,0.33,0.14,0.43,0.09c-0.28-0.34-0.21-1.02-0.09-1.48
			c0.25,0.07-0.14,0.18,0.09,0.26c0.19,0.04,0.15-0.4,0.42-0.21c-0.11-0.17-0.26-0.19-0.38-0.42c0.11-0.16,0.17-0.42,0.33-0.47
			c-0.02-0.1-0.23-0.12-0.21-0.24c0.11-0.16,0.29-0.15,0.31-0.25c0.27,0.12-0.18,0.14-0.04,0.28c0.05-0.01,0.1-0.03,0.17,0
			c-0.18-0.13,0.16-0.28-0.05-0.37c0.07-0.12,0.24-0.05,0.26-0.26c0.23,0.02,0.1,0.21,0.33,0.23c0.1-0.14-0.09-0.13-0.17-0.17
			c0.11-0.16,0.12,0.04,0.24-0.03c-0.07-0.13-0.37,0.03-0.56-0.24c0-0.18,0.02-0.15,0.14-0.24c-0.16-0.05-0.25-0.14-0.26-0.26
			c0.01-0.26,0.24-0.1,0.31-0.24c0.02-0.11-0.16,0.03-0.19-0.12c0.18,0,0.07-0.32,0.3-0.36c0-0.17-0.16,0.02-0.19-0.13
			c0.12-0.06,0.04-0.27,0.09-0.43c0.3-0.02,0.26-0.53,0.61-0.61c-0.18-0.12-0.16,0.2-0.37,0.05c0.19-0.1-0.08-0.56,0.28-0.49
			c-0.03-0.09-0.1-0.15-0.16-0.23c0.26-0.5,0.36-0.95,0.73-1.49c0.02-0.1-0.17-0.09-0.17-0.17c0.23,0.03,0.06-0.07,0.3-0.37
			c-0.08-0.05-0.11,0.01-0.14,0.07c-0.14-0.09,0.09-0.16,0.09-0.26c0.18,0.26,0.37-0.67,0.09-0.78c0.29-0.1,0.23-0.39,0.23-0.68
			c0.06-0.02,0.09-0.1,0.19-0.05c0.08-0.17-0.06-0.22-0.05-0.37c0.02-0.25,0.29-0.45,0.31-0.59c0.08-0.36-0.31-0.88,0.23-1.38
			c0.1-0.15-0.1-0.15-0.09-0.26c0.05-0.14,0.08-0.31,0.17-0.35c-0.17-0.08-0.05-0.3-0.19-0.47c0.04-0.09,0.19,0.02,0.24-0.03
			c-0.07-0.38,0.35-0.98,0.33-1.51c0.1,0.11,0.09,0.2,0.14-0.07C5.9,79,5.75,79.18,5.66,79.07c0.1-0.07,0.21-0.1,0.3-0.19
			c-0.02-0.12-0.02-0.25-0.12-0.33c0.29-0.37,0.79-0.68,1.03-0.99c0.01-0.12-0.17-0.22-0.21-0.07c-0.07-0.57,0.47-0.71,0.57-1.2
			c-0.14-0.38-0.02-0.89-0.09-1.3c0.14-0.32,0.41-0.34,0.63-0.49c-0.08-0.03-0.08-0.18-0.26-0.26c0.13-0.2,0.07-0.21,0.09-0.43
			c0.11,0.06,0.16,0.01,0.21,0.03c0.02,0.03,0.03,0.04,0.05,0.06c-0.02-0.04-0.03-0.06-0.05-0.06c-0.16-0.23-0.03-0.66,0.26-0.74
			C8,72.98,7.93,72.87,7.75,72.81c0.38-0.39,0.5-1.44,0.92-2.07c-0.2-0.14-0.15-0.39,0.12-0.37c-0.08-0.1-0.23-0.06-0.12-0.33
			c0.04-0.15,0.19-0.08,0.28-0.14c0.03-0.1-0.04-0.35,0.12-0.37c-0.03-0.08-0.12-0.04-0.17-0.17c0.27-0.24,0.28-0.76,0.61-0.78
			c-0.01-0.13-0.07-0.23-0.26-0.26c0.01-0.21,0.05-0.45,0.33-0.47c-0.15-0.13-0.09-0.46,0.19-0.39c0.04-0.15-0.19-0.17-0.33-0.23
			c0.14-0.2,0.08-0.26,0.17-0.52c0.13-0.07,0.13,0.04,0.26,0.09c0.02-0.11-0.18-0.11-0.16-0.23c0.03-0.17,0.18-0.1,0.28-0.14
			c-0.09-0.08-0.09-0.22-0.12-0.33c0.12-0.24,0.44-0.41,0.4-0.68c-0.01-0.08-0.15-0.02-0.24-0.14c0.13-0.25,0.1-0.25,0.11-0.49
			c0.16,0.08,0.18-0.09,0.31-0.06c-0.15-0.69,0.02-1.15,0.3-1.93C10.9,62.73,10.9,62.9,11.02,62.84z M65.55,73.99
			c0.43-0.71,0.67-1.63,0.87-2.43c0.07-0.27,0.29-0.69,0.37-1.09c0.41-2.14,0.44-4.6-0.2-6.15c0.07-0.66-0.23-1.42-0.48-2.19
			c-0.44-1.34-1.28-2.9-1.96-3.84c-2.24-3.1-5.08-5.37-8.6-7.4c-0.03-0.07-0.07-0.14-0.1-0.21c-2.21-1.13-4.15-2.27-5.3-4.09
			c-0.31-0.49-0.85-1.48-1.01-2.01c-0.15-0.52-0.02-1.08-0.28-1.6c-0.05,0.14-0.31,0.05-0.26-0.09c0.08-0.01,0.13-0.08,0.17-0.17
			c0.1,0.03-0.02,0.19,0.11,0.2c0.04-0.41-0.08-0.75,0.12-0.88c-0.36-0.46,0.25-0.98,0.04-1.5c0.06,0.03,0.05,0.09,0.14,0.11
			c-0.08-0.18,0.16-0.5,0.17-0.69c0.01-0.12-0.13-0.12-0.1-0.21c0.01-0.06,0.18-0.06,0.23-0.16c0.05-0.1-0.03-0.28,0-0.35
			c0.24-0.52,0.76-0.96,0.82-1.58c0.65-0.19,0.53-1.01,1.17-1.06c-0.13-0.18,0.53-0.55,0.85-0.99c0.31,0.15,0.57-0.5,0.69-0.17
			c0.03-0.26,0.21-0.21,0.26-0.43c0.11,0.17,0.28-0.09,0.47-0.02c0.63-0.74,1.76-0.48,2.56-0.88c0.92,0.02,1.88,0.01,2.82,0.25
			c1.19,0.3,2.24,0.85,3.34,1.64c0.67,0.81,1.43,1.57,2.03,2.41c0.03-0.09,0.04-0.16,0.02-0.22c0.22,0.25,0.29,0.61,0.44,0.78
			c-0.05,0.14-0.09,0.28-0.14,0.42c0.4,1.21,0.77,2.43,0.54,3.95c0.26,0.23,0.37,0.3,0.69,0.52c0.94-0.07,1.95,0.59,2.99,0.77
			c0.38,0.06,0.8-0.09,1.06,0.3c1.05-0.04,1.85,0.5,3.06,0.73c0.19-0.16,0.57-0.04,0.75,0.02c0.31-0.43,0.24-0.81,0.24-1.25
			c0-0.12,0.15-0.3,0.14-0.42c-0.01-0.14-0.13-0.21-0.12-0.33c0.01-0.16,0.12-0.34,0.12-0.53c0-0.26-0.09-0.5-0.03-0.76
			c0.27-1.27,0.18-2.28-0.03-3.37c-0.15-0.77-0.51-1.66-0.8-2.3c-0.11-0.24-0.1-0.51-0.21-0.76c-1.34-3.05-4.69-5.78-7.99-6.62
			c-0.33-0.33-0.38-0.33-0.59-0.48c0.01-0.41,0.04-0.83-0.07-1.18c0.04,0.05,0.15,0.19,0.17,0c0.55-1.17,0.57-2.64,1.22-3.82
			c-0.12-0.09-0.06-0.26-0.1-0.39c0.75-1.94,1.5-4.29,1.97-6.41c-1.68-1.11-3.43-1.31-5.63-1.88c-0.1,0.06-0.19,0.13-0.33,0.12
			c-1.51,4.53-2.09,7.44-3.63,11.89c-0.91,0.16-1.98,0-2.9,0.02c-3.57,0.04-6.84,1.2-9.47,3.38c-0.5,0.57-1.03,1.07-1.57,1.57
			c-0.23,0.61-0.74,0.67-0.92,1.37c-1.18,1.32-2.23,3.88-2.33,5.77c-0.46,1.17-0.34,2.58-0.19,3.88c0.16,1.37,0.54,2.91,1.16,3.98
			c0.13,0.59,0.35,1.13,0.74,1.59c0.92,2.27,2.79,4.08,4.77,5.83c0.14,0.12,0.15-0.04,0.24-0.03c0.37,0.42,0.72,0.86,1.35,1.15
			c0.05,0.19,0.33,0.27,0.36,0.47c0.7,0.49,1.49,0.91,2.26,1.39c3.02,1.9,5.74,3.89,6.63,7.03c0.05,0.08,0.17,0.12,0.23,0.19
			c0.24,1.5,0.32,3.42-0.35,5.21c-0.94,2.5-3.12,4.09-4.96,4.95c1.51-0.23,2.76-0.96,4.1-1.53c-0.33,0.23-0.68,0.42-1.03,0.64
			c-0.38,0.09-0.73,0.2-1.03,0.47c-0.56,0.1-1.1,0.39-1.69,0.54c-1.59,0.4-3.83,0.76-5.32,0.48c-0.66-0.12-1.46-0.52-2.14-0.89
			c-1.14-0.62-2.43-1.43-2.59-2.49c-0.55-0.39-0.82-0.96-1.16-1.55c-0.2-0.74-0.45-1.45-0.59-2.22c-0.19-0.43,0.29-1.38-0.16-1.79
			c-0.11-0.1-0.43-0.15-0.63-0.21c-0.39-0.12-0.69-0.22-0.94-0.31c-0.34-0.12-1.01-0.26-1.6-0.42c-1.71-0.48-3.55-1.13-4.94-1.19
			c-0.03,0.04-0.03,0.1-0.09,0.09c-0.1,0.65-0.13,1.09-0.44,1.65c0.08,0.38,0.09,0.79,0.12,1.2c-0.12-0.02-0.09,0.28-0.21,0.28
			c0.12,0.59,0,1.2,0.1,1.77c0.61,3.32,1.86,6.29,4.63,8.5c0.3,0.47,0.87,0.69,1.37,0.92c0.21,0.37,0.78,0.57,1.16,0.85
			c0.59-0.08,1.12,0.58,1.84,0.73c0.16-0.06-0.01-0.25,0.19-0.23c-0.17,0.45,0.5,0.47,0.61,0.78c-0.85,3.62-2.21,7.11-2.98,10.82
			c1.54,0.76,3.25,0.93,5.12,1.49c0.21-0.28,0.54-0.31,0.87-0.35c0.36-0.96,0.42-1.72,0.7-2.26c-0.19-0.17,0.21-0.57,0.26-0.78
			c0.03-0.12-0.05-0.29-0.03-0.42c0.06-0.42,0.37-0.88,0.51-1.34c0.09-0.31,0.05-0.64,0.12-0.89c0.08-0.27,0.35-0.76,0.37-0.92
			c0.02-0.29,0.14-0.4,0.21-0.62c0.1-0.33,0-0.69,0.11-1.01c0.13-0.41,0.38-0.8,0.49-1.11c-0.02-0.17,0.17-0.71,0.28-1.18
			c0.81,0.06,1.63,0.14,2.47,0.24c1.75-0.08,3.7-0.41,5.28-0.89c0.74-0.22,1.62-0.57,2.23-0.94c0.45-0.27,0.76-0.68,1.3-0.78
			c0.65-0.53,1.27-1.12,1.97-1.54c0.09-0.25,0.23-0.42,0.33-0.64c0.63-0.03,0.75-0.87,1.22-1.04c0-0.4,0.21-0.38,0.3-0.71
			c0.55-0.02,0.61-0.73,0.8-1.01c0.1-0.14,0.26-0.16,0.31-0.24C65.31,74.46,65.44,74.18,65.55,73.99z M2.74,96.29
			c-0.43-0.2-0.77-0.17-0.73,0.1C2.23,96.31,2.58,96.49,2.74,96.29z M2.41,95.02c-0.13-0.02-0.2-0.08-0.24-0.14
			c-0.02,0.1-0.1,0.09-0.12,0.19c0.05,0.14,0.23,0.2,0.17,0C2.31,95.11,2.37,95.08,2.41,95.02z M28.31,3.88
			c0.05-0.13,0.05-0.23-0.02-0.3c-0.08,0.18-0.14-0.05-0.19,0.06c0.06,0.02,0.03,0.1,0,0.17C28.17,3.83,28.24,3.85,28.31,3.88z"/>
	</g>
	<g>
		<path fill="none" stroke="#020101" d="M2.17,94.88c0.05,0.06,0.12,0.12,0.24,0.14c-0.04,0.05-0.1,0.09-0.19,0.05
			c0.05,0.2-0.12,0.14-0.17,0C2.07,94.98,2.15,94.99,2.17,94.88z"/>
		<path fill="none" stroke="#020101" d="M28.1,3.63c0.05-0.1,0.11,0.12,0.19-0.06c0.06,0.07,0.07,0.17,0.02,0.3
			c-0.07-0.02-0.14-0.05-0.21-0.07C28.13,3.74,28.16,3.66,28.1,3.63z"/>
		<path fill="none" stroke="#020101" d="M45.89,92.92c-0.33,0.03-0.66,0.07-0.87,0.35c-1.87-0.56-3.59-0.73-5.12-1.49
			c0.77-3.71,2.13-7.2,2.98-10.82c-0.1-0.31-0.78-0.33-0.61-0.78c-0.2-0.02-0.03,0.16-0.19,0.23c-0.72-0.15-1.25-0.81-1.84-0.73
			c-0.39-0.28-0.96-0.48-1.16-0.85c-0.51-0.23-1.08-0.45-1.37-0.92c-2.77-2.21-4.03-5.18-4.63-8.5c-0.11-0.58,0.02-1.18-0.1-1.77
			c0.12,0,0.09-0.3,0.21-0.28c-0.03-0.41-0.04-0.82-0.12-1.2c0.3-0.56,0.34-1,0.44-1.65c0.05,0.02,0.06-0.05,0.09-0.09
			c1.38,0.05,3.22,0.71,4.94,1.19c0.59,0.16,1.25,0.29,1.6,0.42c0.25,0.09,0.55,0.2,0.94,0.31c0.19,0.06,0.52,0.11,0.63,0.21
			c0.44,0.41-0.04,1.36,0.16,1.79c0.14,0.77,0.39,1.48,0.59,2.22c0.34,0.59,0.62,1.16,1.16,1.55c0.15,1.06,1.45,1.87,2.59,2.49
			c0.68,0.37,1.47,0.76,2.14,0.89c1.49,0.28,3.73-0.08,5.32-0.48c0.59-0.15,1.13-0.43,1.69-0.54c0.29-0.26,0.65-0.38,1.03-0.47
			c0.35-0.22,0.69-0.41,1.03-0.64c-1.34,0.56-2.6,1.29-4.1,1.53c1.84-0.86,4.02-2.45,4.96-4.95c0.68-1.79,0.59-3.71,0.35-5.21
			c-0.05-0.08-0.17-0.12-0.23-0.19c-0.9-3.14-3.61-5.13-6.63-7.03c-0.77-0.48-1.56-0.9-2.26-1.39c-0.03-0.2-0.31-0.28-0.36-0.47
			c-0.64-0.29-0.98-0.73-1.35-1.15c-0.09-0.01-0.1,0.15-0.24,0.03c-1.98-1.75-3.85-3.55-4.77-5.83c-0.39-0.46-0.62-0.99-0.74-1.59
			c-0.62-1.06-1.01-2.61-1.16-3.98c-0.15-1.29-0.27-2.7,0.19-3.88c0.1-1.89,1.15-4.45,2.33-5.77c0.18-0.71,0.69-0.76,0.92-1.37
			c0.53-0.5,1.07-1,1.57-1.57c2.64-2.18,5.9-3.34,9.47-3.38c0.93-0.01,1.99,0.15,2.9-0.02c1.54-4.44,2.12-7.35,3.63-11.89
			c0.14,0.01,0.23-0.06,0.33-0.12c2.2,0.58,3.95,0.78,5.63,1.88c-0.46,2.11-1.22,4.46-1.97,6.41c0.04,0.12-0.01,0.3,0.1,0.39
			c-0.65,1.18-0.67,2.65-1.22,3.82c-0.02,0.19-0.14,0.05-0.17,0c0.1,0.35,0.08,0.77,0.07,1.18c0.21,0.15,0.27,0.16,0.59,0.48
			c3.3,0.84,6.65,3.56,7.99,6.62c0.11,0.25,0.1,0.52,0.21,0.76c0.28,0.64,0.65,1.52,0.8,2.3c0.21,1.09,0.3,2.1,0.03,3.37
			c-0.06,0.27,0.03,0.51,0.03,0.76c0,0.19-0.11,0.38-0.12,0.53c-0.01,0.12,0.11,0.2,0.12,0.33c0.01,0.11-0.14,0.3-0.14,0.42
			c-0.01,0.44,0.07,0.82-0.24,1.25c-0.18-0.06-0.55-0.18-0.75-0.02c-1.21-0.23-2.01-0.77-3.06-0.73c-0.26-0.39-0.68-0.23-1.06-0.3
			c-1.04-0.18-2.05-0.84-2.99-0.77c-0.33-0.23-0.44-0.3-0.69-0.52c0.23-1.52-0.14-2.74-0.54-3.95c0.05-0.14,0.09-0.28,0.14-0.42
			c-0.14-0.16-0.22-0.53-0.44-0.78c0.02,0.06,0.02,0.14-0.02,0.22c-0.6-0.84-1.36-1.6-2.03-2.41c-1.09-0.79-2.14-1.33-3.34-1.64
			c-0.93-0.24-1.9-0.23-2.82-0.25c-0.8,0.4-1.92,0.15-2.56,0.88c-0.19-0.07-0.36,0.19-0.47,0.02c-0.05,0.23-0.23,0.18-0.26,0.43
			c-0.12-0.33-0.38,0.33-0.69,0.17c-0.33,0.44-0.99,0.81-0.85,0.99c-0.64,0.05-0.51,0.87-1.17,1.06c-0.06,0.62-0.58,1.06-0.82,1.58
			c-0.03,0.07,0.05,0.25,0,0.35c-0.05,0.1-0.21,0.1-0.23,0.16c-0.02,0.09,0.12,0.09,0.1,0.21c-0.02,0.2-0.25,0.52-0.17,0.69
			c-0.09-0.01-0.08-0.08-0.14-0.11c0.21,0.52-0.4,1.04-0.04,1.5c-0.2,0.13-0.08,0.47-0.12,0.88c-0.13-0.02-0.01-0.17-0.11-0.2
			c-0.04,0.09-0.09,0.16-0.17,0.17c-0.05,0.14,0.21,0.23,0.26,0.09c0.26,0.52,0.13,1.08,0.28,1.6c0.16,0.54,0.69,1.52,1.01,2.01
			c1.14,1.82,3.09,2.96,5.3,4.09c0.04,0.07,0.07,0.13,0.1,0.21c3.52,2.02,6.35,4.3,8.6,7.4c0.68,0.94,1.52,2.5,1.96,3.84
			c0.25,0.78,0.55,1.53,0.48,2.19c0.64,1.56,0.61,4.01,0.2,6.15c-0.08,0.4-0.3,0.82-0.37,1.09c-0.2,0.81-0.44,1.72-0.87,2.43
			c-0.11,0.18-0.24,0.47-0.45,0.83c-0.05,0.08-0.21,0.1-0.31,0.24c-0.19,0.27-0.25,0.99-0.8,1.01c-0.08,0.33-0.29,0.31-0.3,0.71
			c-0.47,0.17-0.58,1.01-1.22,1.04c-0.1,0.23-0.24,0.39-0.33,0.64c-0.69,0.43-1.32,1.02-1.97,1.54c-0.54,0.1-0.86,0.51-1.3,0.78
			c-0.6,0.36-1.49,0.71-2.23,0.94c-1.58,0.48-3.53,0.81-5.28,0.89c-0.84-0.1-1.66-0.18-2.47-0.24c-0.11,0.47-0.3,1.01-0.28,1.18
			c-0.11,0.31-0.36,0.7-0.49,1.11c-0.1,0.31-0.01,0.68-0.11,1.01c-0.06,0.22-0.18,0.33-0.21,0.62c-0.02,0.16-0.29,0.65-0.37,0.92
			c-0.07,0.25-0.03,0.58-0.12,0.89c-0.13,0.46-0.45,0.92-0.51,1.34c-0.02,0.12,0.07,0.3,0.03,0.42c-0.06,0.21-0.45,0.61-0.26,0.78
			C46.31,91.21,46.25,91.97,45.89,92.92z"/>
		<path fill="none" stroke="#020101" d="M2.74,96.29c-0.16,0.2-0.51,0.02-0.73,0.1C1.97,96.12,2.31,96.09,2.74,96.29z"/>
		<path fill="none" stroke="#020101" d="M22.01,23.04c0.26,0.04,0.04,0.42-0.12,0.36c-0.02-0.15,0.24-0.17,0.02-0.23
			C21.95,23.15,21.99,23.12,22.01,23.04z"/>
		<path fill="none" stroke="#020101" d="M11.03,62.84L11.03,62.84c-0.09-0.03-0.08-0.14-0.21-0.24c0.17-0.02,0.11-0.25,0.37-0.23
			c-0.02-0.14-0.09-0.24-0.24-0.31c0.03-0.2,0.3-0.39,0.19-0.57c0.04-0.06,0.15,0,0.23,0.02c0.08-0.31,0.14-0.54-0.12-0.68
			c0.01-0.14,0.19-0.36,0.09-0.43c0.16-0.14,0.3-0.08,0.4,0.02c0-0.18-0.12-0.31-0.17-0.35c-0.06-0.19,0.2-0.31,0.31-0.42
			c-0.11-0.1,0.09-0.48-0.14-0.63c0.14-0.13,0.28,0.01,0.36,0.12c-0.06-0.46-0.11-0.84,0.28-1.01c-0.05,0.01-0.1,0.02-0.17,0
			c0.21-0.07-0.07-0.63,0.26-0.61c0.09-0.18-0.14-0.19-0.05-0.37c0.13-0.26,0.26-0.04,0.3-0.19c0.04-0.18-0.15-0.24-0.09-0.43
			c0.25-0.11,0.18-0.38,0.1-0.66c0.08-0.06,0.08,0.05,0.19-0.05c-0.01-0.27-0.06-1.15,0.3-1.06c-0.05-0.06-0.13-0.07-0.16-0.23
			c0.07-0.12,0.19-0.14,0.3-0.19c-0.02-0.06-0.19-0.04-0.23-0.19c0.19-0.28,0.27-0.74,0.56-0.8c-0.17-0.51-0.02-1.26,0.37-1.62
			c-0.21-0.53,0.37-1.34,0.31-1.98c0-0.09-0.07,0-0.16-0.05c-0.02-0.18,0.04-0.28,0.17-0.35c-0.2-0.06-0.17,0.01-0.31-0.1
			c0.03-0.12,0.2,0.04,0.28,0.04c0.2-0.35-0.07-0.82,0.26-0.96c-0.28-0.1-0.14-0.61,0.31-0.59c-0.1-0.38-0.15-0.38-0.1-0.9
			c0.05,0.02,0.1,0.04,0.16,0.05c0.06-0.13-0.02-0.19-0.16-0.23c0.13-0.17,0.21-0.18,0.28-0.31c0-0.09-0.07,0-0.16-0.05
			c0.17-0.06,0.34-0.14,0.49-0.24c-0.02-0.11-0.19-0.14-0.07-0.31c0.18,0.14,0.19-0.15,0.28,0.04c0.04-0.35-0.01-0.68,0.23-1.03
			c0.16-0.08,0.07,0.11,0.24,0.14c-0.07-0.11-0.07-0.19,0.02-0.23c-0.35-0.27,0.04-0.9,0.21-1.49c0.02-0.09-0.06-0.18-0.03-0.24
			c0.18-0.47,0.55-0.73,0.37-1.27c0.46-0.2-0.04-0.91,0.63-1.01c-0.06-0.2-0.28-0.15-0.26-0.44c-0.18-0.12-0.2,0.21-0.3,0.02
			c0.02-0.11,0.31-0.14,0.16-0.3c0.13-0.12,0.22,0,0.31,0.1c0.13-0.05-0.11-0.18-0.11-0.2c0.01-0.17,0.15,0.03,0.1-0.14
			c-0.06-0.21,0.18-0.69,0.33-0.47c-0.1-0.12-0.13-0.53,0.16-0.47c-0.31-0.42,0.45-1.09,0.17-1.39c0.1-0.05,0.17-0.19,0.3-0.19
			c-0.11-0.13-0.12-0.21-0.07-0.49c0.39-0.07,0.23-0.15,0.23-0.5c0-0.29,0.29-0.81,0.14-0.94c-0.13-0.1,0.16-0.08,0.17-0.17
			c-0.02-0.06-0.07-0.11-0.12-0.16c0-0.14,0.34-0.16,0.09-0.26c0.06-0.14,0.21-0.09,0.3-0.19c-0.04-0.24-0.25-0.16-0.12-0.5
			c0.26,0.34,0.33-0.48,0.16-0.65c0.23-0.14,0.19-0.3,0.36-0.57c0.12,0.22,0.06-0.22,0.23,0.02c-0.02-0.16-0.06-0.19,0.05-0.33
			c-0.02-0.11-0.03-0.21-0.21-0.24c0.22-0.19,0.21-0.45,0.35-0.69c-0.1-0.26-0.34-0.3-0.16-0.57c0.08,0.18,0.04,0.26,0.33,0.4
			c-0.19-0.28,0.03-0.49-0.02-0.82c0.25-0.05,0.26-0.43,0.11-0.49c-0.09-0.17,0.16-0.12,0.24-0.2c0.08-0.16-0.08-0.19-0.14-0.28
			c0.1-0.18,0.16,0.06,0.38,0.07c-0.03-0.23-0.02-0.26,0.14-0.42c-0.22-0.13-0.1-0.38-0.33-0.4c0.02-0.18,0.18-0.05,0.19-0.23
			c0.11,0.14-0.15,0.19,0.02,0.3c0.18-0.33-0.11-0.69,0.16-1.34c0.11,0.2-0.02,0.26,0.07,0.49c0.12-0.1,0.19-0.52,0-0.7
			c0.21-0.2,0.21-0.62,0.21-0.97c0.09,0.01,0.08,0.07,0.14,0.1c-0.19-0.26,0.39-0.32,0.14-0.42c0.08-0.1,0.21-0.1,0.33-0.12
			c-0.09-0.11-0.01-0.31-0.16-0.4c0.18-0.15,0.25-0.31,0.04-0.45c0.05-0.22,0.07,0.03,0.23,0.02c-0.02-0.09-0.14-0.13-0.23-0.19
			c0.17,0.07,0.25-0.16,0.5-0.12c0.03-0.17-0.08-0.21,0.12-0.36c-0.08-0.25-0.27,0.25-0.35,0c-0.11-0.21,0.17-0.01,0.26-0.09
			c-0.06-0.19-0.35-0.27-0.15-0.58c0.58,0,0.26-0.61,0.68-0.81c-0.16-0.12-0.2-0.05-0.38-0.24c0.05-0.17,0.2-0.13,0.23-0.33
			c-0.12-0.06-0.05,0.25-0.21,0.1c0.02-0.07,0.05-0.14,0.07-0.21c0.24,0.07,0.25,0.26,0.07,0.32c0.08,0.02,0.15,0.04,0.14,0.1
			c0.06-0.02,0.11-0.07,0.16-0.12c-0.04-0.33-0.31-1.03,0.12-1.58c0.06,0.13,0.19,0.08,0.31,0.1c-0.07-0.12,0.14-0.18,0.05-0.33
			c-0.15,0.05-0.28-0.11-0.33-0.05c-0.13-0.12,0.13-0.19,0.26-0.09c0.11-0.28-0.08-0.29,0.14-0.42c-0.2-0.15-0.15,0.23-0.33,0.12
			c0.31-0.92,0.85-1.46,0.85-2.55c0.05-0.19,0.24-0.11,0.31-0.24c-0.07-0.85,0.56-1.43,0.35-2.09c0.14-0.02,0.29-0.08,0.31,0.1
			c0.13-0.46-0.02-0.26-0.09-0.78c0.07-0.08,0.1,0.02,0.16,0.05c-0.03-0.2,0.06-0.3,0.23-0.33c0.05-0.61,0.17-0.7,0.26-1.3
			c0.07,0.02,0.14,0.05,0.21,0.07c-0.14-0.11-0.11-0.31,0.07-0.38c-0.02-0.1-0.09-0.16-0.23-0.19c0.03-0.08,0.06-0.14,0-0.17
			c0.13-0.2,0.35-0.22,0.49-0.42c0.1-0.18-0.16-0.18-0.12-0.33c0.04-0.15,0.16-0.31,0.23-0.16c-0.04-0.16-0.14-0.28-0.21-0.42
			c-0.06-0.01-0.08,0.08-0.1,0.14c-0.08-0.36,0.14-0.58,0.04-0.97c0.27,0.19,0.34-0.36,0.5-0.12c-0.01-0.11-0.11-0.26,0.03-0.1
			c-0.22-0.29,0.06-0.39-0.23-0.54c0.14-0.16,0.32-0.22,0.47-0.36c0.01-0.07-0.19-0.17,0.03-0.1c0.03-0.12-0.09-0.16-0.23-0.19
			c0.09-0.17,0.32-0.06,0.42-0.21c0.03-0.08-0.19-0.36-0.11-0.2C26.14,8.49,26.78,8.04,26.41,8c0.05-0.19,0.27-0.04,0.38-0.1
			c-0.02-0.11-0.15-0.16-0.21-0.24c0.05,0.09,0.39-0.02,0.28,0.21c0.11,0.02,0.09-0.23,0.19-0.23c-0.1-0.11-0.13-0.25-0.16-0.4
			c0.03-0.06,0.06-0.01,0.05,0.02c0.18,0.04,0-0.43,0.38-0.28c-0.17-0.15,0.05-0.37,0.19-0.4c-0.17,0.01-0.31-0.16-0.45-0.38
			c0.11-0.13,0.19-0.18,0.17-0.35c0.1,0.06,0.15,0.01,0.23,0.02c-0.09-0.09-0.05-0.23-0.12-0.33c0.05-0.13,0.21-0.05,0.35,0
			c0.01-0.18-0.19-0.25-0.21-0.42c0.3-0.3,0.15-1.11,0.56-1.15c-0.02-0.09-0.02-0.2-0.16-0.23c0.3-0.38,0.38-0.77,0.4-1.2
			c0.18-0.02,0.37-0.02,0.47-0.19c-0.21,0.03-0.25-0.2-0.45-0.39c0.12-0.14,0.12,0.01,0.29-0.01c0.09-0.15-0.04-0.18,0.05-0.33
			c0.21,0.26,0.01-0.37,0.28-0.14c0.03-0.21-0.15-0.48,0-0.7c0.08,0.08,0.28,0.09,0.21,0.24c0.11-0.01,0.15-0.16,0.28-0.13
			c3.06,1.04,6.93,1.94,10.15,3.1c5.21,1.35,11.19,3.22,16.61,4.74c0.08,0.02,0.15,0.11,0.24,0.14c1.17,0.41,2.77,0.58,3.63,1.1
			c6.47,1.74,12.5,3.6,18.99,5.42c3.9,1.09,8.76,2.57,12.81,3.82c0.84,0.26,1.74,0.31,2.45,0.65c0.16,0.08,0.43,0.17,0.83,0.28
			c2.37,0.64,5.61,1.6,7.87,2.28c-0.36,1.13-1.04,2.43-0.66,3.2c-0.07,0.1-0.12,0.08-0.17,0c0.01,0.08,0.04,0.15,0.1,0.21
			c0.15,0.05-0.08-0.19,0.14-0.07c0.01,0.14,0,0.16-0.09,0.26c-0.18-0.01-0.06-0.17-0.16-0.23c-0.21,0.32,0.11,0.75-0.04,1.32
			c-0.05-0.03,0-0.12-0.07-0.14c-0.07-0.02-0.09,0.3-0.07,0.38c0.17,0-0.03-0.16,0.12-0.19c0.07,0.46-0.45,0.79-0.66,1.28
			c-0.04,0.17,0.23,0.18,0.1,0.39c-0.04-0.09-0.05-0.18-0.23-0.19c-0.03,0.16,0.03,0.27,0.17,0.35c-0.12,0.13-0.15-0.16-0.3-0.16
			c-1.17,3.46-2.06,6.82-2.95,10.03c-0.14,0.5-0.22,0.94-0.35,1.39c-2.05,7.11-3.95,13.17-6.08,20.63c0.16,0.34,0.48,0.63,0.22,1.06
			c-0.14,0.07-0.09-0.06-0.19-0.12c-0.15,0.5-0.03,1.1-0.24,1.6c0.3,0.26,0.08,0.54,0.24,0.83c-0.14,0.14-0.38,0.2-0.33,0.47
			c-0.2,0.04-0.62,0.19-0.4,0.33c-0.2,0.04-0.21,0.14-0.5,0.12c-1.68,5.96-3.23,10.85-4.97,16.77c-1.89,6.46-3.72,13.02-5.74,19.93
			c0.07,0.3,0.01,0.55,0.02,0.99c-0.09-0.04-0.13,0.03-0.23-0.02c0.17,0.27-0.31,0.4-0.05,0.68c0.12,0.01,0.22-0.02,0.24-0.21
			c0.16,0.09-0.18,0.32-0.05,0.33c-0.09,0.14-0.11-0.11-0.26-0.09c-0.01,0.17,0.11,0.17-0.05,0.33c0.1-0.07,0.22-0.09,0.37-0.05
			c-0.17,0.13-0.19,0.01-0.14,0.24c-0.12-0.06-0.14,0.05-0.28-0.04c0.06,0.16,0.2,0.01,0.3,0.16c-0.25-0.04-0.2,0.26,0,0.35
			c-0.14,0.08-0.19,0.73-0.42,0.56c-0.09,0.21,0.16,0.09,0.24,0.14c-0.2,0.04-0.07,0.31-0.33,0.29c-0.01,0.11,0.19,0.11,0.09,0.26
			c-0.25-0.25-0.17,0.28-0.54,0.06c0.02,0.11,0.04,0.21,0.21,0.24c-0.13,0.07-0.26,0.13-0.4,0.16c-0.02,0.29-0.02,0.61-0.12,0.88
			c-0.75,2.11-1.5,4.68-2.18,7.04c-0.26,0.88-0.47,2.74-0.97,3.26c-0.27,0.02-0.61,0.06-1.03-0.05c-1.62-0.43-3.01-0.92-4.48-1.33
			c-8.04-2.22-17.83-4.88-25.09-7.11c-2.25-0.69-5-1.42-7.21-2c-0.09-0.17-1.12-0.34-1.63-0.49c-6.92-2.02-13.18-3.92-19.91-5.79
			c-0.15-0.25-1.47-0.3-1.86-0.68c-0.17,0.13-1.05-0.27-1.55-0.4c-3.27-0.88-7.23-2.03-10.03-2.95c-0.21-0.07-0.61-0.19-0.71-0.3
			c-0.13-0.13-0.26-0.67-0.63-0.56c0.1-0.14,0.34-0.01,0.42-0.21c0.03-0.12-0.09-0.16-0.23-0.19c0-0.25,0.1-0.31,0.23-0.5
			c0.18,0,0.27,0.15,0.42-0.04c-0.1-0.14-0.22-0.34-0.26-0.61c0.15,0.04,0.33,0.14,0.43,0.09c-0.28-0.34-0.21-1.02-0.09-1.48
			c0.25,0.07-0.14,0.18,0.09,0.26c0.19,0.04,0.15-0.4,0.42-0.21c-0.11-0.17-0.26-0.19-0.38-0.42c0.11-0.16,0.17-0.42,0.33-0.47
			c-0.02-0.1-0.23-0.12-0.21-0.24c0.11-0.16,0.29-0.15,0.31-0.25c0.27,0.12-0.18,0.14-0.04,0.28c0.05-0.01,0.1-0.03,0.17,0
			c-0.18-0.13,0.16-0.28-0.05-0.37c0.07-0.12,0.24-0.05,0.26-0.26c0.23,0.02,0.1,0.21,0.33,0.23c0.1-0.14-0.09-0.13-0.17-0.17
			c0.11-0.16,0.12,0.04,0.24-0.03c-0.07-0.13-0.37,0.03-0.56-0.24c0-0.18,0.02-0.15,0.14-0.24c-0.16-0.05-0.25-0.14-0.26-0.26
			c0.01-0.26,0.24-0.1,0.31-0.24c0.02-0.11-0.16,0.03-0.19-0.12c0.18,0,0.07-0.32,0.3-0.36c0-0.17-0.16,0.02-0.19-0.13
			c0.12-0.06,0.04-0.27,0.09-0.43c0.3-0.02,0.26-0.53,0.61-0.61c-0.18-0.12-0.16,0.2-0.37,0.05c0.19-0.1-0.08-0.56,0.28-0.49
			c-0.03-0.09-0.1-0.15-0.16-0.23c0.26-0.5,0.36-0.95,0.73-1.49c0.02-0.1-0.17-0.09-0.17-0.17c0.23,0.03,0.06-0.07,0.3-0.37
			c-0.08-0.05-0.11,0.01-0.14,0.07c-0.14-0.09,0.09-0.16,0.09-0.26c0.18,0.26,0.37-0.67,0.09-0.78c0.29-0.1,0.23-0.39,0.23-0.68
			c0.06-0.02,0.09-0.1,0.19-0.05c0.08-0.17-0.06-0.22-0.05-0.37c0.02-0.25,0.29-0.45,0.31-0.59c0.08-0.36-0.31-0.88,0.23-1.38
			c0.1-0.15-0.1-0.15-0.09-0.26c0.05-0.14,0.08-0.31,0.17-0.35c-0.17-0.08-0.05-0.3-0.19-0.47c0.04-0.09,0.19,0.02,0.24-0.03
			c-0.07-0.38,0.35-0.98,0.33-1.51c0.1,0.11,0.09,0.2,0.14-0.07C5.9,79,5.75,79.18,5.66,79.07c0.1-0.07,0.21-0.1,0.3-0.19
			c-0.02-0.12-0.02-0.25-0.12-0.33c0.29-0.37,0.79-0.68,1.03-0.99c0.01-0.12-0.17-0.22-0.21-0.07c-0.07-0.57,0.47-0.71,0.57-1.2
			c-0.14-0.38-0.02-0.89-0.09-1.3c0.14-0.32,0.41-0.34,0.63-0.49c-0.08-0.03-0.08-0.18-0.26-0.26c0.13-0.2,0.07-0.21,0.09-0.43
			c0.11,0.06,0.16,0.01,0.21,0.03"/>
		<path fill="none" stroke="#020101" d="M7.8,73.83c-0.16-0.23-0.03-0.66,0.26-0.74C8,72.98,7.93,72.87,7.75,72.81
			c0.38-0.39,0.5-1.44,0.92-2.07c-0.2-0.14-0.15-0.39,0.12-0.37c-0.08-0.1-0.23-0.06-0.12-0.33c0.04-0.15,0.19-0.08,0.28-0.14
			c0.03-0.1-0.04-0.35,0.12-0.37c-0.03-0.08-0.12-0.04-0.17-0.17c0.27-0.24,0.28-0.76,0.61-0.78c-0.01-0.13-0.07-0.23-0.26-0.26
			c0.01-0.21,0.05-0.45,0.33-0.47c-0.15-0.13-0.09-0.46,0.19-0.39c0.04-0.15-0.19-0.17-0.33-0.23c0.14-0.2,0.08-0.26,0.17-0.52
			c0.13-0.07,0.13,0.04,0.26,0.09c0.02-0.11-0.18-0.11-0.16-0.23c0.03-0.17,0.18-0.1,0.28-0.14c-0.09-0.08-0.09-0.22-0.12-0.33
			c0.12-0.24,0.44-0.41,0.4-0.68c-0.01-0.08-0.15-0.02-0.24-0.14c0.13-0.25,0.1-0.25,0.11-0.49c0.16,0.08,0.18-0.09,0.31-0.06
			c-0.15-0.69,0.02-1.15,0.3-1.93c0.15-0.08,0.15,0.09,0.27,0.03"/>
		<path fill="none" stroke="#020101" d="M7.8,73.83c0.02,0.01,0.03,0.02,0.05,0.06C7.84,73.88,7.82,73.86,7.8,73.83z"/>
	</g>
</g>
</svg>
