<?xml version="1.0" encoding="utf-8"?>
<!-- Generator: Adobe Illustrator 15.0.1, SVG Export Plug-In  -->
<!DOCTYPE svg PUBLIC "-//W3C//DTD SVG 1.1 Tiny//EN" "http://www.w3.org/Graphics/SVG/1.1/DTD/svg11-tiny.dtd" [
	<!ENTITY ns_flows "http://ns.adobe.com/Flows/1.0/">
]>
<svg version="1.1" baseProfile="tiny"
	 xmlns="http://www.w3.org/2000/svg" xmlns:xlink="http://www.w3.org/1999/xlink" xmlns:a="http://ns.adobe.com/AdobeSVGViewerExtensions/3.0/"
	 x="0px" y="0px" width="110px" height="130px" viewBox="-0.74 -0.2 110 130" overflow="visible" xml:space="preserve">
<defs>
</defs>
<path fill="#494F8C" d="M86.82,129.72H65.1L64.54,104c0,0-1.43,0.33-5.3,0.44c-0.19,0.01-0.37-0.09-0.55-0.29
	c-2.73-0.15-3.77-0.38-3.77-0.38l-0.55,25.72H37.72c0,0-3.98-2.31-2.6-3.31c3.13-2.25,8.13-3.82,8.13-3.82l-1.96-24.82
	c-6.59-4-6.65-7.5-7.63-7.85c-0.97-0.35-4.97-3.38-4.97-3.38c0.08-11.24-2.99-18.87,0.21-24.6l-9.75-6.37l2.94-4.59l3-3.65
	l9.21,5.05l1.24,0.52c2.41-2.17,3.4-3.48,3.4-3.48c-0.51,7.13,10.42,12.13,16,12.22c0-0.12,0-0.18,0-0.18s12.94-5.01,13.81-12.07
	c0,0,2.05,1.16,4.46,3.34l0.45-0.12l10.13-6.87l7.11,8.69l-10.67,7.23c3.2,5.74,5.87,13.88,5.95,25.11c0,0-4,3.03-4.97,3.38
	c-0.98,0.35,0.75,3.59-5.84,7.6l0.86,25.07C76.23,122.59,86.6,125.83,86.82,129.72z"/>
<path fill="#F0EBD8" stroke="#494F8C" stroke-width="0.75" stroke-miterlimit="10" d="M69.02,29.16v18.42
	c-0.96,7.69-7.48,13.65-15.39,13.65c-7.91,0-14.43-5.96-15.39-13.65c-0.08-0.65-0.12-1.3-0.12-1.97l-0.56-6.93
	c-0.09-1.39-0.07-1.15-0.45-5.63l-0.35-4.37L69.02,29.16z"/>
<circle fill="#494F8A" cx="45.36" cy="34.06" r="1.02"/>
<circle fill="none" stroke="#494F8C" stroke-width="0.75" stroke-miterlimit="10" cx="45.36" cy="34.06" r="2.66"/>
<path fill="none" stroke="#494F8C" stroke-width="0.75" stroke-miterlimit="10" d="M49.14,35.9c0,1.47,0.51,6.13,4.01,6.13
	c3.75,0,3.75-4.66,3.75-6.13"/>
<circle fill="none" stroke="#494F8C" stroke-width="0.75" stroke-miterlimit="10" cx="60.27" cy="34.06" r="2.65"/>
<circle fill="#494F8A" cx="60.27" cy="34.06" r="1.02"/>
<path fill="none" stroke="#494F8C" stroke-width="0.75" stroke-miterlimit="10" d="M64.54,30.18v12.46
	c-2.5-1.64-5.27-2.69-8.12-3.13"/>
<path fill="none" stroke="#494F8C" stroke-width="0.75" stroke-miterlimit="10" d="M40.46,29.16l1.43,13.48
	c2.45-1.6,5.16-2.64,7.94-3.1"/>
<path fill="#494F8A" d="M58.13,45.59c0,2.91-1.86,5.26-4.15,5.26c-2.29,0-4.15-2.36-4.15-5.26C49.89,45.19,58.13,45.59,58.13,45.59z
	"/>
<polygon fill="#494F8A" points="90.9,54.2 90.89,54.2 83.78,45.52 84.63,44.95 "/>
<path fill="#494F8A" d="M91.82,41.82c0,0-0.3-7.18,2.21-7.58c2.35-0.38,2.3,1.92,2.35,2.78c0.05,0.86,7.67-5.8,10.89-1.97
	c4.66,5.52-7.44,12-9.21,13.15C96.28,49.36,91.82,41.82,91.82,41.82z"/>
<polygon fill="#F0EBD8" stroke="#494F8C" stroke-miterlimit="10" points="99.33,50.98 91.42,54.85 90.9,54.2 90.89,54.2 
	83.78,45.52 83.7,45.42 90.56,39.3 91.81,40.97 97.28,48.26 "/>
<polygon fill="#494F8A" points="25.1,47.11 22.1,50.75 24.61,46.84 "/>
<path fill="#494F8A" d="M16.83,42.82c0,0-0.33-7.18-2.87-7.36c-2.38-0.17-2.12,2.12-2.1,2.98c0.03,0.87-8.15-5.1-11.03-1
	c-4.15,5.91,8.47,11.29,10.34,12.28C13.04,50.72,16.83,42.82,16.83,42.82z"/>
<polygon fill="#F0EBD8" stroke="#494F8C" stroke-miterlimit="10" points="25.64,46.44 25.1,47.11 22.1,50.75 17.92,55.87 10.01,52 
	11.67,49.8 16.67,43.14 16.68,43.12 18.79,40.33 "/>
<polygon fill="#F0EBD8" stroke="#494F8C" stroke-miterlimit="10" points="41.15,106.83 40.46,114.39 55.53,114.39 54.85,107.37 "/>
<polygon fill="#F0EBD8" stroke="#494F8C" stroke-miterlimit="10" points="76.57,108 77.26,115.56 62.19,115.56 62.86,108.54 "/>
<path fill="#F0EBD8" stroke="#494F8C" stroke-miterlimit="10" d="M86.21,79.67c-6.26,3.19-13.7,5.23-21.43,6.07
	c-5.09,0.57-10.31,0.61-15.4,0.12c-7.55-0.72-14.81-2.63-20.92-5.74l0.13,7.08c6.76,3.44,13.61,5.64,20.79,6.56
	c2.61,0.35,5.27,0.52,7.97,0.52c2.48,0,4.96-0.15,7.43-0.42c7.6-0.87,15.07-3.08,22.03-6.63L86.21,79.67z M62.47,92.36h-10.8v-5.38
	h10.8V92.36z"/>
<path fill="#F0EBD8" d="M49.37,84.39v10.28h15.4V84.39H49.37z M51.68,92.07v-5.08h10.8v5.08H51.68z"/>
<circle fill="#F0EBD8" cx="55.03" cy="68.17" r="2.05"/>
<ellipse fill="#F0EBD8" cx="56.18" cy="74.79" rx="2.29" ry="2.26"/>
<ellipse fill="#F0EBD8" cx="56.18" cy="81.42" rx="2.29" ry="2.26"/>
<path fill="#494F8A" d="M37.56,38.68c-0.26,0.05-0.53,0.08-0.81,0.08c-2.05,0-3.71-1.28-3.71-2.86c0-1.58,1.66-2.86,3.71-2.86
	c0.12,0,0.24,0.01,0.35,0.02L37.56,38.68z"/>
<path fill="#494F8A" d="M69.26,38.46c0.26,0.03,0.53,0.03,0.81,0.01c2.04-0.17,3.59-1.59,3.46-3.16c-0.13-1.58-1.89-2.72-3.94-2.54
	c-0.12,0.01-0.24,0.03-0.35,0.05L69.26,38.46z"/>
<line fill="none" stroke="#494F8C" stroke-width="0.75" stroke-miterlimit="10" x1="37.56" y1="38.36" x2="37.11" y2="33.05"/>
<polygon fill="#F0EBD8" stroke="#494F8C" stroke-miterlimit="10" points="70.13,29.16 33.84,28.24 35.86,20.08 70.13,21.71 "/>
<path fill="#494F8A" d="M39.46,18.76c0,0,13-16.01,26.24-16.04c6.1-0.02,0.58,18.73,0.58,18.73l-26.82-1.37V18.76z"/>
<ellipse fill="#F0EBD8" stroke="#494F8C" stroke-miterlimit="10" cx="69.56" cy="6.02" rx="6.64" ry="5.52"/>
</svg>
