<?xml version="1.0" encoding="utf-8"?>
<!-- Generator: Adobe Illustrator 15.0.1, SVG Export Plug-In  -->
<!DOCTYPE svg PUBLIC "-//W3C//DTD SVG 1.1 Tiny//EN" "http://www.w3.org/Graphics/SVG/1.1/DTD/svg11-tiny.dtd" [
	<!ENTITY ns_flows "http://ns.adobe.com/Flows/1.0/">
]>
<svg version="1.1" baseProfile="tiny"
	 xmlns="http://www.w3.org/2000/svg" xmlns:xlink="http://www.w3.org/1999/xlink" xmlns:a="http://ns.adobe.com/AdobeSVGViewerExtensions/3.0/"
	 x="0px" y="0px" width="57px" height="60px" viewBox="-0.77 -0.96 57 60" overflow="visible" xml:space="preserve">
<defs>
</defs>
<path fill="#932A61" d="M43.36,14.53v37.39H12.58V36.49c-0.1-0.67-0.16-1.36-0.16-2.06l0.36-18.56C13.57,8.64,18.57,1.78,27.89,0
	c4.27,0,8.14,1.63,10.93,4.26C41.63,6.89,43.36,10.52,43.36,14.53z"/>
<path fill="#932A61" d="M2.08,24.32c1.6-1.65,10.68-7.51,10.68-7.51l1.3,9.46l-7.22,4.2c-1.53,1.14-3.7,1.66-5.39,0.48
	c-0.61-0.69-1.31-1.52-1.44-2.64C-0.09,27.41,0.48,25.97,2.08,24.32z"/>
<path fill="#932A61" d="M53.92,23.19c-1.64-1.61-10.84-7.27-10.84-7.27l-1.1,9.48l7.31,4.04c1.55,1.11,3.74,1.58,5.4,0.37
	c0.6-0.7,1.28-1.55,1.39-2.67C56.16,26.23,55.55,24.8,53.92,23.19z"/>
<path fill="none" stroke="#932A61" stroke-miterlimit="10" d="M14.22,57.65c-0.03,0.3-3.14-6.87-0.16-8.21
	c2.98-1.33,11.96,3.94,11.72,4.1c-0.24,0.16-3.76-0.78-4.05-0.1c-0.29,0.67,0.26,2.81,0.42,3.94s-4.09-2.47-5.23-2.4
	C15.78,55.05,14.27,57.18,14.22,57.65z"/>
<path fill="none" stroke="#932A61" stroke-miterlimit="10" d="M38.3,58.15c-0.03,0.3-3.14-6.87-0.16-8.21
	c2.98-1.34,11.96,3.94,11.72,4.1c-0.24,0.16-3.76-0.78-4.05-0.11c-0.29,0.67,0.26,2.81,0.42,3.94c0.16,1.13-4.08-2.47-5.23-2.4
	C39.85,55.55,38.34,57.68,38.3,58.15z"/>
<circle fill="#F0EBD8" cx="24.49" cy="7.64" r="3.08"/>
<circle fill="#932A61" cx="24.49" cy="7.64" r="0.85"/>
<circle fill="#F0EBD8" cx="34.77" cy="5.19" r="2.67"/>
<circle fill="#932A61" cx="34.77" cy="5.19" r="0.85"/>
<path fill="#F0EBD8" d="M29.97,10.73c0,0,3.76-4.38,8.29,0l-3.49,0.45l2.08,3.08L29.97,10.73z"/>
<path fill="#F0EBD8" stroke="#932A61" stroke-miterlimit="10" d="M43.36,24.87v27.05H21.09l0.73-22.34
	c0.57-5.23,5.36-10.82,12.11-12.1C37.02,17.48,43.36,21.97,43.36,24.87z"/>
<polygon fill="none" stroke="#932A61" stroke-miterlimit="10" points="35.44,39.69 34.5,40.46 33.36,39.49 32.22,40.46 31.09,39.49 
	29.95,40.46 28.82,39.49 27.69,40.46 26.55,39.56 26.75,26.51 35.64,26.65 "/>
<polygon fill="none" stroke="#932A61" stroke-miterlimit="10" points="47.04,37.5 46.43,38.25 44.97,37.83 44.29,39.18 42.83,38.75 
	42.15,40.11 40.69,39.68 40.01,41.03 38.79,40.81 33.34,27.72 42.18,25.39 "/>
<polygon fill="#F0EBD8" stroke="#932A61" stroke-miterlimit="10" points="47.04,37.5 46.43,38.25 44.97,37.83 44.29,39.18 
	42.83,38.75 42.15,40.11 40.69,39.68 40.01,41.03 38.79,40.81 33.34,27.72 42.18,25.39 "/>
<polygon fill="#F0EBD8" stroke="#932A61" stroke-miterlimit="10" points="35.44,39.69 34.5,40.46 33.36,39.49 32.22,40.46 
	31.09,39.49 29.95,40.46 28.82,39.49 27.69,40.46 26.55,39.56 26.75,26.51 35.64,26.65 "/>
<polygon fill="#932A61" points="35.84,30 26.87,30.16 26.86,29.91 35.84,29.77 "/>
<polygon fill="#932A61" points="35.58,35.33 26.61,35.49 26.6,34.99 35.58,34.86 "/>
<polygon fill="#932A61" points="43.91,28.69 35.57,32 35.38,31.54 43.73,28.26 "/>
<polygon fill="#932A61" points="45.46,33.55 37.11,36.85 37.02,36.62 45.37,33.33 "/>
<path fill="#F0EBD8" stroke="#932A61" stroke-miterlimit="10" d="M43.78,24.46c-12.17,4.82-19.19,4.05-31.37-0.77
	c0-3.63,0-4.77-0.31-8.59c10.07,3.99,21.28,3.99,31.35,0C43.39,18.22,43.62,20.72,43.78,24.46z"/>
<polygon fill="#932A61" points="18,17.19 16.64,25.66 16.39,25.62 17.83,17.16 "/>
<polygon fill="#932A61" points="23.57,18.25 22.87,27.19 22.62,27.17 23.39,18.23 "/>
<polygon fill="#932A61" points="30.59,18.22 30.65,27.68 30.4,27.68 30.41,18.22 "/>
<polygon fill="#932A61" points="38.1,16.98 39.81,25.79 39.56,25.84 37.93,17.01 "/>
</svg>
