<?xml version="1.0" encoding="utf-8"?>
<!-- Generator: Adobe Illustrator 14.0.0, SVG Export Plug-In  -->
<!DOCTYPE svg PUBLIC "-//W3C//DTD SVG 1.1//EN" "http://www.w3.org/Graphics/SVG/1.1/DTD/svg11.dtd" [
	<!ENTITY ns_flows "http://ns.adobe.com/Flows/1.0/">
]>
<svg version="1.1"
	 xmlns="http://www.w3.org/2000/svg" xmlns:xlink="http://www.w3.org/1999/xlink" xmlns:a="http://ns.adobe.com/AdobeSVGViewerExtensions/3.0/"
	 x="0px" y="0px" width="297px" height="196px" viewBox="-0.14 -0.4 297 196" enable-background="new -0.14 -0.4 297 196"
	 xml:space="preserve">
<defs>
</defs>
<path fill="#231F20" d="M274.85,116.59c0.02,0.06-0.13-6.46,3.12-12.6c2.92-6.56,10.67-9.76,11.42-9.72
	c1.68-0.29,3.13,0.67,3.23,2.12c0.1,1.45-0.81,2.8-2.03,2.99c-0.52,0.07-6.56,0.92-10.41,6.04
	C276.17,110.19,274.83,116.66,274.85,116.59z"/>
<path fill="#231F20" d="M275.54,119.13c-0.05,0.04,0.07-3.95,2.37-7.45c2.16-3.6,6.21-5.67,6.6-5.82c0.9-0.35,1.8-0.07,2.02,0.63
	c0.22,0.69-0.23,1.5-0.99,1.79c-0.34,0.16-4.08,1.3-6.58,4.2C276.34,115.25,275.47,119.15,275.54,119.13z"/>
<path fill="#231F20" d="M276.52,121.88c-0.02,0.03-0.05-2.67,1.44-5.16c1.4-2.56,4.22-4.04,4.49-4.15c0.62-0.28,1.3,0.07,1.52,0.76
	c0.22,0.69,0,1.43-0.48,1.65c-0.22,0.11-2.73,0.67-4.48,2.53C277.2,119.29,276.48,121.9,276.52,121.88z"/>
<path fill="#231F20" d="M205.57,146.16c0.09,0.02-5.51-3.22-11.5-3.01c-6.11-0.09-10.36,4.14-10.76,4.46
	c-0.92,0.8-2.52,0.62-3.56-0.38c-1.04-1.01-0.9-2.7,0.34-3.76c0.42-0.5,7.4-4.62,14.23-2.93
	C201.01,141.8,205.62,146.22,205.57,146.16z"/>
<path fill="#231F20" d="M206.98,148.39c0.07-0.05-3.51-2-7.41-1.79c-3.91,0.06-7.29,2.19-7.64,2.35c-0.75,0.4-1.66,0.21-2.04-0.41
	c-0.38-0.62,0.01-1.49,0.88-1.95c0.38-0.2,4.64-1.96,8.87-1.31C203.89,145.79,207.06,148.37,206.98,148.39z"/>
<path fill="#231F20" d="M208.36,150.99c0.04-0.03-2.45-1.24-5.02-1c-2.6,0.14-4.72,1.72-4.95,1.81c-0.49,0.23-1.2-0.09-1.58-0.7
	c-0.38-0.62-0.19-1.36,0.43-1.66c0.26-0.13,3.25-1.33,6.17-0.76C206.33,149.16,208.4,150.99,208.36,150.99z"/>
<path fill="#231F20" d="M221.78,65.52c-0.06,0.06,3.96-4.52,5.09-10.08c1.37-5.9-3.37-9.46-3.74-9.7c-0.92-0.71-1.19-2.05-0.61-2.97
	c0.58-0.92,2.03-0.91,3.23,0.03c0.55,0.01,5.95,6.73,3.01,13.17C226.44,61.9,221.71,65.52,221.78,65.52z"/>
<path fill="#231F20" d="M226.96,60.07c-0.04,0.04,3-2.45,4.33-5.75c1.49-3.45-0.73-5.94-0.87-6.17c-0.4-0.54-0.04-1.58,0.77-2.3
	c0.81-0.72,1.98-0.62,2.59,0.25c0.41,0.13,2.3,5.73-0.78,9.2C230.45,58.62,226.92,60.05,226.96,60.07z"/>
<path fill="#231F20" d="M231.79,56.97c-0.03,0.02,2.28-1.14,3.62-3.06c1.46-1.99,0.4-3.9,0.34-4.07c-0.17-0.4,0.21-1.02,0.85-1.37
	c0.63-0.35,1.38-0.12,1.64,0.53c0.25,0.15,0.63,4.02-1.86,5.79C234.24,56.55,231.77,56.95,231.79,56.97z"/>
<path fill="#231F20" d="M229.98,60.29c-0.03,0.06,0.83-2.21,3.28-3.15c2.49-0.95,5.09,0.13,5.29,0.21c0.53,0.24,0.65,0.94,0.28,1.56
	c-0.37,0.62-1,0.99-1.39,0.81c-0.19-0.06-1.86-1.46-3.87-1.31C231.53,58.5,229.92,60.31,229.98,60.29z"/>
<path fill="#231F20" d="M256.75,167.44c-0.04-0.02,3.31,5.34,3.92,12.12c1.24,7.16-4.84,13.71-5.65,13.77
	c-1.49,0.87-3.18,0.46-3.75-0.87c-0.57-1.33-0.23-2.9,0.79-3.46c0.43-0.18,5.47-3.08,5.98-9.48
	C258.8,173.49,256.74,167.38,256.75,167.44z"/>
<path fill="#231F20" d="M251.44,162.46c-0.07-0.01,3.68,3.75,4.83,9.44c1.59,6-3.15,11.86-3.66,12c-1.12,0.88-2.66,0.57-3.43-0.66
	c-0.77-1.23-0.79-2.72-0.02-3.29c0.3-0.26,4.36-2.77,4.5-7.85C253.98,167.19,251.4,162.38,251.44,162.46z"/>
<path fill="#231F20" d="M247.34,157.86c0.04-0.13,3.2,5.8,2.21,12.81c-0.75,7.04-5.64,12.96-6.13,13.44
	c-1.15,1.13-2.85,1.14-3.8,0.05c-0.95-1.1-0.94-2.75,0.02-3.69c0.41-0.46,5.42-4.43,7.35-10.37
	C249.16,164.22,247.45,157.75,247.34,157.86z"/>
<path fill="#231F20" d="M244.2,154.98c0.11-0.12,1.75,3.67,0.76,7.8c-0.77,4.08-3.16,7.73-3.44,8.07c-0.58,0.75-1.49,0.97-2.05,0.5
	c-0.56-0.47-0.58-1.4-0.06-2.07c0.26-0.32,2.95-3.25,4.27-6.84C245.24,158.84,244.34,154.9,244.2,154.98z"/>
<path fill="#231F20" d="M242.04,151.76c0.05-0.09,1.3,2.46,0.7,5.32c-0.4,2.86-2.01,5.4-2.2,5.64c-0.38,0.53-1.14,0.58-1.7,0.11
	c-0.55-0.47-0.74-1.22-0.41-1.67c0.16-0.22,2.08-2.05,3.04-4.42C242.64,154.41,242.12,151.72,242.04,151.76z"/>
<path fill="#231F20" d="M255.56,166.87c-0.06-0.01,5.74,2.22,11.62,2.02c6.33,0.19,9.41-4.35,9.56-4.72
	c0.55-0.92,2.1-1.15,3.42-0.54c1.32,0.61,1.68,2.3,0.74,3.75c-0.32,0.27-1.74,2-4.41,3.26c-2.69,1.28-6.33,1.5-9.5,0.87
	C260.55,170.3,255.55,166.84,255.56,166.87z"/>
<path fill="#231F20" d="M250.74,161.51c-0.06-0.02,4.5,2.54,9.29,2.7c5.03,0.35,7.68-3.24,7.91-3.52c0.57-0.69,2.03-0.55,3.22,0.27
	c1.2,0.82,1.43,2.38,0.49,3.44c-0.15,0.61-6.51,4.59-12.07,2.39C254.27,165.14,250.74,161.46,250.74,161.51z"/>
<path fill="#231F20" d="M245.97,156.69c-0.1,0.04,5.57,2.06,10.99,0.75c5.51-1.06,9.11-5.38,9.51-5.7c0.83-0.81,2.39-0.68,3.47,0.28
	c1.08,0.96,1.1,2.59,0.03,3.63c-0.42,0.45-6.28,4.7-12.76,4.41C250.83,160.05,245.89,156.68,245.97,156.69z"/>
<path fill="#231F20" d="M243.57,154.13c-0.07,0.07,3.38,1.25,6.69,0.23c3.32-0.83,6.01-3.11,6.31-3.31
	c0.62-0.43,1.48-0.32,1.93,0.26c0.44,0.57,0.23,1.44-0.47,1.93c-0.32,0.22-3.8,2.21-7.56,2.42
	C246.66,156.06,243.48,154.17,243.57,154.13z"/>
<path fill="#231F20" d="M241.2,151.24c-0.04,0.03,2.33,0.75,4.49-0.06c2.18-0.63,3.85-2.28,4.05-2.41c0.41-0.26,1.11-0.01,1.56,0.56
	c0.44,0.57,0.39,1.3-0.11,1.63c-0.22,0.15-2.66,1.49-5.3,1.51C243.24,152.67,241.14,151.24,241.2,151.24z"/>
<path fill="#231F20" d="M258.53,168.37c-0.05-0.08,3.79,4.67,9.09,6.71c5.58,2.34,9.89-1.74,10.19-2.06
	c0.85-0.79,2.22-0.83,3.03-0.1c0.81,0.72,0.56,2.16-0.58,3.18c-0.1,0.54-7.63,4.74-13.48,0.76
	C261.32,173.57,258.54,168.3,258.53,168.37z"/>
<path fill="#231F20" d="M263.03,174.39c-0.03-0.05,1.92,3.37,4.94,5.24c3.15,2.05,5.98,0.28,6.23,0.18c0.6-0.3,1.56,0.22,2.14,1.15
	c0.58,0.92,0.28,2.06-0.68,2.51c-0.2,0.38-6.03,1.3-8.94-2.31C263.88,178.07,263.05,174.35,263.03,174.39z"/>
<path fill="#231F20" d="M265.28,179.67c-0.01-0.04,0.74,2.44,2.41,4.08c1.72,1.77,3.78,1.04,3.96,1.02c0.42-0.11,0.96,0.38,1.2,1.07
	c0.23,0.69-0.12,1.38-0.8,1.53c-0.19,0.22-4.07-0.06-5.4-2.81C265.28,182.16,265.3,179.65,265.28,179.67z"/>
<path fill="#231F20" d="M262.31,177.33c-0.06-0.04,2.03,1.19,2.55,3.76c0.52,2.61-0.98,5-1.09,5.18c-0.32,0.48-1.04,0.48-1.58,0.01
	c-0.55-0.47-0.81-1.15-0.57-1.51c0.09-0.18,1.75-1.59,1.94-3.6C263.81,179.15,262.3,177.27,262.31,177.33z"/>
<path fill="#231F20" d="M159.58,97.89c0.53-3.51-2.69-5.82-2.69-5.82s2.15,2.71-1.11,4.65c-2.73,1.63-1.4,3.8-0.9,4.46
	c1.35-1.25,3.59-3.77,3.4-6.64c0,0,1.21,3.34-2.71,6.94C156.45,101.5,159.07,101.26,159.58,97.89z"/>
<path fill="#231F20" d="M150.71,83.76c0.38-3.98-3.38-6.38-3.38-6.38s2.58,2.91-0.96,5.29c-2.97,2-1.34,4.36-0.73,5.07
	c1.44-1.49,3.8-4.46,3.41-7.68c0,0,1.56,3.68-2.62,7.97C147.42,88.01,150.35,87.58,150.71,83.76z"/>
<path fill="#231F20" d="M205.84,101.3c4.08,0.73,5.33,4.76,5.33,4.76s-2.12-3.11-5.56-0.56c-2.88,2.13-4.74,0.03-5.27-0.71
	c1.92-0.9,5.58-2.22,8.67-1c0,0-3.19-2.4-8.72,0.21C200.62,103.12,201.93,100.6,205.84,101.3z"/>
<path fill="#231F20" d="M214.52,91.79c3.55,0.64,4.63,4.14,4.63,4.14s-1.84-2.71-4.83-0.49c-2.5,1.85-4.12,0.03-4.58-0.62
	c1.67-0.78,4.85-1.92,7.54-0.87c0,0-2.78-2.09-7.59,0.18C209.98,93.36,211.12,91.18,214.52,91.79z"/>
<path fill="#231F20" d="M219.23,83.23c2.48,0.45,3.25,2.9,3.25,2.9s-1.29-1.9-3.39-0.34c-1.76,1.3-2.89,0.02-3.21-0.43
	c1.17-0.54,3.4-1.35,5.28-0.61c0,0-1.95-1.46-5.32,0.13C216.05,84.33,216.85,82.8,219.23,83.23z"/>
<path fill="#231F20" d="M133.04,73.78c-3.72-1.47-7.07,1.48-7.07,1.48s3.51-1.68,4.82,2.39c1.1,3.41,3.81,2.5,4.67,2.11
	c-1.03-1.8-3.23-4.89-6.43-5.41c0,0,3.97-0.48,6.93,4.73C136.21,78.12,136.6,75.19,133.04,73.78z"/>
<path fill="#231F20" d="M139.39,93.16c-3.99,0.35-5.66,4.48-5.66,4.48s2.39-3.07,5.38-0.02c2.51,2.56,4.53,0.53,5.12-0.2
	c-1.73-1.15-5.07-2.93-8.17-1.96c0,0,3.34-2.21,8.32,1.13C144.17,95.63,143.21,92.83,139.39,93.16z"/>
<path fill="#231F20" d="M144.81,109.38c-2.84-0.39-4.66,2.24-4.66,2.24s2.15-1.77,3.76,0.84c1.35,2.18,3.08,1.08,3.61,0.67
	c-1.03-1.08-3.08-2.84-5.39-2.66c0,0,2.68-1.01,5.63,2.1C147.75,111.85,147.53,109.75,144.81,109.38z"/>
<path fill="#231F20" d="M151.71,62.49c0.6-6.27-5.33-10.04-5.33-10.04s4.07,4.58-1.51,8.34c-4.68,3.15-2.11,6.86-1.16,7.99
	c2.27-2.35,5.99-7.02,5.37-12.09c0,0,2.46,5.8-4.13,12.55C146.54,69.18,151.14,68.5,151.71,62.49z"/>
<path fill="#231F20" d="M214.85,51.45c-2-4.86-7.08-8.3-11.82-9c3.2,1.22,6.26,3.18,8.06,6.02c-0.02-0.02-1.22,1.23-1.63,2.75
	c-0.51,1.71-0.23,2.8,1.9,6.63c3.93,8.44,2.92,13.62,3.12,13.54c0.67-2.04,1.09-3.88,1.44-5.87
	C216.63,61.06,216.76,56.23,214.85,51.45z M211.22,53.86c-0.63-0.67-0.6-1.72,0.06-2.35c0.67-0.63,1.72-0.6,2.35,0.07
	c0.63,0.67,0.6,1.72-0.06,2.35C212.9,54.57,211.85,54.53,211.22,53.86z M213.6,56.62c-0.29-0.31-0.28-0.8,0.03-1.09
	c0.31-0.29,0.8-0.28,1.09,0.04c0.29,0.31,0.28,0.79-0.03,1.09C214.38,56.94,213.9,56.93,213.6,56.62z M214.96,62.23
	c-0.13,0.12-0.33,0.12-0.46-0.01c-0.12-0.13-0.12-0.34,0.01-0.46c0.13-0.12,0.33-0.12,0.46,0.01
	C215.1,61.9,215.09,62.1,214.96,62.23z M215.16,59.48c-0.17,0.16-0.45,0.16-0.61-0.02c-0.16-0.17-0.15-0.45,0.02-0.61
	c0.17-0.16,0.45-0.15,0.61,0.02C215.34,59.04,215.33,59.31,215.16,59.48z"/>
<path fill="#231F20" d="M201.48,74.22c-2.05,14.19-9.06,20.69-9.06,20.69c4.28-4.79,1.03-7.69,0.17-8.21
	c-1.39-0.83-6.84-1.2-7.52,6.33c-0.68,7.49-5.13,9.92-5.13,4.62c0-5.3-7.35-5.13-8.04,1.37c-0.46,4.37-9.92,9.23-9.92,9.23
	c7.52-3.42,22.23-3.42,22.23-3.42C204.05,96.11,201.48,74.22,201.48,74.22z M170.88,104.83c-0.33,0-0.6-0.27-0.6-0.6
	c0-0.33,0.27-0.6,0.6-0.6c0.33,0,0.6,0.27,0.6,0.6C171.48,104.56,171.21,104.83,170.88,104.83z M173.87,103.07
	c-0.59,0-1.07-0.48-1.07-1.07c0-0.59,0.48-1.07,1.07-1.07c0.59,0,1.07,0.48,1.07,1.07C174.94,102.6,174.46,103.07,173.87,103.07z
	 M176.18,99.87c-1.13,0-2.05-0.92-2.05-2.05c0-1.13,0.92-2.05,2.05-2.05c1.13,0,2.05,0.92,2.05,2.05
	C178.23,98.95,177.31,99.87,176.18,99.87z M183.7,102.45c-0.25,0-0.45-0.2-0.45-0.45s0.2-0.45,0.45-0.45c0.25,0,0.45,0.2,0.45,0.45
	S183.95,102.45,183.7,102.45z M186.52,99.87c-0.33,0-0.6-0.27-0.6-0.6c0-0.33,0.27-0.6,0.6-0.6s0.6,0.27,0.6,0.6
	C187.12,99.6,186.85,99.87,186.52,99.87z M188.75,96.58c-0.59,0-1.07-0.48-1.07-1.07s0.48-1.07,1.07-1.07
	c0.59,0,1.07,0.48,1.07,1.07S189.34,96.58,188.75,96.58z M190.2,92.77c-1.27,0-2.31-1.03-2.31-2.31s1.04-2.31,2.31-2.31
	c1.28,0,2.31,1.03,2.31,2.31S191.47,92.77,190.2,92.77z"/>
<path fill="#231F20" d="M226.46,141.12c-3.05-10.81-15.18-25.39-38.19-27.88c-21.66-2.35-41.07,11.75-41.07,11.75
	s17.15-10.02,20.86-2.51c4.34,8.77,12.04,6.58,13.32,4.23c1.29-2.35,0.48-4.85-3.69-6.42c-3.24-1.22,0.8-5.33,13.96-3.45
	c13.16,1.88,12.35,14.1,16.05,13.63c3.69-0.47,2.4-5.17,2.4-5.17C220.52,128.59,226.46,141.12,226.46,141.12z M166.01,118.44
	c-0.25,0-0.45-0.2-0.45-0.45c0-0.25,0.2-0.45,0.45-0.45s0.45,0.2,0.45,0.45C166.46,118.24,166.25,118.44,166.01,118.44z
	 M169.47,119.49c-0.35,0-0.64-0.29-0.64-0.64s0.29-0.64,0.64-0.64c0.35,0,0.64,0.29,0.64,0.64S169.82,119.49,169.47,119.49z
	 M173.1,122.05c-0.59,0-1.07-0.48-1.07-1.07c0-0.59,0.48-1.07,1.07-1.07c0.59,0,1.07,0.48,1.07,1.07
	C174.17,121.57,173.69,122.05,173.1,122.05z M176.69,122.26c1.13,0,2.05,0.92,2.05,2.05c0,1.13-0.92,2.05-2.05,2.05
	c-1.13,0-2.05-0.92-2.05-2.05C174.64,123.18,175.56,122.26,176.69,122.26z M203.36,120.41c-0.25,0-0.45-0.2-0.45-0.45
	s0.2-0.45,0.45-0.45c0.25,0,0.45,0.2,0.45,0.45S203.61,120.41,203.36,120.41z M205.8,123.21c0-0.35,0.29-0.64,0.64-0.64
	c0.35,0,0.64,0.29,0.64,0.64c0,0.35-0.29,0.64-0.64,0.64C206.09,123.85,205.8,123.56,205.8,123.21z M207.81,128.16
	c-0.71,0-1.28-0.57-1.28-1.28c0-0.71,0.57-1.28,1.28-1.28s1.28,0.58,1.28,1.28C209.09,127.59,208.52,128.16,207.81,128.16z"/>
<path fill="#231F20" d="M190.92,22.22c0.76-1.03,2.12-1.37,3.06-0.8c0.94,0.56,1.27,1.91,0.7,3.09c-0.56,1.17-2,1.63-3.15,0.94
	C190.4,24.76,190.14,23.28,190.92,22.22z"/>
<path fill="#231F20" d="M186.81,18.63c0.7-0.64,1.74-0.69,2.35-0.12c0.58,0.6,0.64,1.6,0.02,2.35c-0.6,0.73-1.74,0.87-2.42,0.18
	C186.06,20.38,186.09,19.29,186.81,18.63z"/>
<path fill="#231F20" d="M183.5,14.28c0.53-0.31,1.21-0.19,1.52,0.27c0.31,0.46,0.14,1.13-0.35,1.5c-0.51,0.37-1.19,0.26-1.53-0.26
	C182.79,15.28,182.95,14.6,183.5,14.28z"/>
<path fill="#231F20" d="M182,11.29c0.36-0.15,0.77,0,0.91,0.31c0.14,0.32-0.02,0.72-0.37,0.89c-0.35,0.17-0.76,0.03-0.91-0.31
	C181.47,11.83,181.64,11.44,182,11.29z"/>
<path fill="#231F20" d="M181.06,8.33c0.34-0.08,0.69,0.11,0.76,0.42c0.07,0.31-0.13,0.64-0.46,0.75c-0.35,0.11-0.7-0.07-0.78-0.41
	C180.5,8.75,180.71,8.41,181.06,8.33z"/>
<path fill="#231F20" d="M180.58,5.23c0.34-0.02,0.61,0.21,0.65,0.52c0.04,0.3-0.2,0.58-0.53,0.63c-0.34,0.05-0.65-0.18-0.7-0.51
	C179.97,5.54,180.25,5.25,180.58,5.23z"/>
<path fill="#231F20" d="M180.63,2.45c0.28,0.03,0.5,0.26,0.48,0.52c-0.02,0.26-0.26,0.46-0.55,0.45c-0.28-0.01-0.5-0.24-0.48-0.52
	C180.1,2.62,180.34,2.42,180.63,2.45z"/>
<path fill="#231F20" d="M181.01,0.01c0.21,0.05,0.35,0.25,0.31,0.44c-0.04,0.19-0.23,0.31-0.44,0.27s-0.35-0.24-0.31-0.44
	C180.61,0.08,180.8-0.04,181.01,0.01z"/>
<path fill="#231F20" d="M233.33,127.19c-1.11,1.19-3.01,1.15-4.24-0.11c-1.15-1.32-1.05-3.22,0.22-4.23
	c1.27-1.02,3.11-0.92,4.11,0.23C234.48,124.16,234.44,126,233.33,127.19z"/>
<path fill="#231F20" d="M239.07,131.74c-0.64,1-2.07,1.28-3.1,0.51c-1.02-0.79-1.21-2.17-0.43-3.09c0.77-0.92,2.13-1.11,3.03-0.41
	C239.47,129.43,239.73,130.71,239.07,131.74z"/>
<path fill="#231F20" d="M245.6,135.05c-0.26,0.72-1.11,1.12-1.87,0.8c-0.75-0.34-1.08-1.19-0.74-1.89c0.34-0.7,1.16-1.02,1.83-0.7
	C245.5,133.54,245.86,134.31,245.6,135.05z"/>
<path fill="#231F20" d="M249.93,136.22c-0.08,0.48-0.56,0.82-1.05,0.71c-0.49-0.13-0.79-0.61-0.67-1.08
	c0.12-0.47,0.59-0.76,1.04-0.64C249.7,135.31,250.01,135.74,249.93,136.22z"/>
<path fill="#231F20" d="M254.07,136.56c0.01,0.45-0.36,0.83-0.82,0.79c-0.46-0.02-0.82-0.4-0.79-0.84c0.03-0.44,0.4-0.78,0.82-0.76
	C253.71,135.79,254.06,136.13,254.07,136.56z"/>
<path fill="#231F20" d="M258.25,136.04c0.1,0.41-0.17,0.82-0.61,0.89c-0.44,0.08-0.85-0.2-0.91-0.62c-0.06-0.42,0.21-0.82,0.61-0.9
	C257.74,135.35,258.15,135.63,258.25,136.04z"/>
<path fill="#231F20" d="M261.76,134.78c0.15,0.32,0,0.71-0.34,0.86c-0.34,0.15-0.72,0-0.85-0.33c-0.13-0.33,0.03-0.72,0.34-0.86
	C261.23,134.31,261.61,134.46,261.76,134.78z"/>
<path fill="#231F20" d="M264.64,133.17c0.15,0.22,0.09,0.51-0.15,0.65c-0.23,0.14-0.54,0.08-0.68-0.15
	c-0.14-0.23-0.07-0.52,0.15-0.65S264.49,132.95,264.64,133.17z"/>
<path fill="#231F20" d="M174.82,151.68c-1.13-0.73-1.24-2.41-0.06-3.6c1.21-1.13,2.88-1.01,3.57,0.07c0.72,1.11,0.55,2.53-0.26,3.28
	C177.29,152.22,175.88,152.36,174.82,151.68z"/>
<path fill="#231F20" d="M223.09,72.94c0.7,0.85,0.62,2.03-0.09,2.71c-0.72,0.68-1.89,0.65-2.71-0.06c-0.82-0.71-0.82-2.02,0.01-2.8
	C221.12,72,222.4,72.11,223.09,72.94z"/>
<path fill="#231F20" d="M226.96,70.14c0.42,0.69,0.24,1.56-0.38,1.97c-0.61,0.43-1.49,0.27-1.98-0.37
	c-0.49-0.64-0.33-1.55,0.34-2.03C225.63,69.25,226.55,69.46,226.96,70.14z"/>
<path fill="#231F20" d="M231.22,68c0.18,0.48-0.04,1.01-0.48,1.22c-0.44,0.2-0.99-0.02-1.21-0.49c-0.23-0.47-0.02-1.02,0.47-1.24
	C230.49,67.27,231.04,67.51,231.22,68z"/>
<path fill="#231F20" d="M234.02,67.16c0.07,0.32-0.12,0.63-0.41,0.7c-0.3,0.07-0.62-0.13-0.71-0.43c-0.09-0.32,0.09-0.63,0.41-0.7
	C233.63,66.65,233.95,66.85,234.02,67.16z"/>
<path fill="#231F20" d="M236.7,66.75c0.02,0.29-0.19,0.56-0.47,0.59c-0.28,0.03-0.54-0.18-0.58-0.47c-0.04-0.29,0.17-0.56,0.47-0.59
	C236.42,66.24,236.68,66.46,236.7,66.75z"/>
<path fill="#231F20" d="M239.45,66.77c-0.03,0.27-0.27,0.48-0.54,0.49c-0.27-0.01-0.48-0.24-0.47-0.53c0.01-0.28,0.25-0.51,0.54-0.5
	C239.27,66.23,239.48,66.48,239.45,66.77z"/>
<path fill="#231F20" d="M241.83,67.22c-0.07,0.24-0.28,0.33-0.51,0.31c-0.22-0.04-0.36-0.26-0.32-0.49
	c0.05-0.23,0.28-0.39,0.52-0.35C241.77,66.72,241.9,67,241.83,67.22z"/>
<path fill="#231F20" d="M243.88,67.9c-0.07,0.16-0.26,0.25-0.42,0.2c-0.16-0.05-0.24-0.23-0.18-0.4c0.06-0.17,0.25-0.25,0.42-0.2
	C243.87,67.56,243.95,67.74,243.88,67.9z"/>
<path fill="#231F20" d="M114.76,146.44c0.04,0.04,1.54-3.9,1.64-8.08c0.25-4.19-1.05-8.18-1.16-8.6c-0.24-0.87,0.18-1.78,0.93-2.03
	c0.75-0.25,1.58,0.36,1.86,1.36c0.14,0.48,0.81,5.16-0.2,9.45C116.97,142.87,114.79,146.48,114.76,146.44z"/>
<path fill="#231F20" d="M119.42,139.02c0.4,0.05,2.29-9.32,1.88-9.79c0.06-0.51,0.75-0.87,1.54-0.81c0.79,0.07,1.37,0.61,1.29,1.22
	C124.47,130.55,119.74,139.29,119.42,139.02z"/>
<path fill="#231F20" d="M190.71,44.88c-2.79-0.49-4.82,2.62-3.33,5.56c1.22,2.39-0.27,3.45-1.17,3.85c0.17-0.42,0.04-0.91-0.33-1.19
	c-0.45-0.33-1.08-0.24-1.41,0.21c-0.13,0.17-0.19,0.37-0.2,0.58c-0.33,2.21,4.34,3.86,7.41,0.51
	C195.72,50.01,193.49,45.37,190.71,44.88z M191.65,50.72c-0.09,0.39-0.21,0.74-0.34,1.07l-1.75,0.78c0.13-0.55,0.16-1.18,0.06-1.89
	l2.21-0.98C191.79,50.01,191.74,50.35,191.65,50.72z M191.86,48.97l-2.38,1.06c-0.04-0.19-0.08-0.36-0.14-0.56
	c-0.14-0.42-0.21-0.79-0.24-1.14l2.47-1.1C191.75,47.7,191.86,48.27,191.86,48.97z M190.37,45.63c0,0,0.51,0.29,0.93,1.03
	l-2.19,0.98C189.27,46.16,190.37,45.63,190.37,45.63z M187.93,54.86c0.51-0.26,1-0.76,1.34-1.47l1.57-0.7
	C189.67,54.57,187.93,54.86,187.93,54.86z"/>
<path fill="#231F20" d="M260,118.94c-1.17,0.93-1.91,0.24-2.23-0.2c0.25,0.04,0.5-0.08,0.61-0.32c0.13-0.28,0.01-0.62-0.27-0.75
	c-0.11-0.05-0.23-0.06-0.34-0.04c-1.24,0.06-1.62,2.79,0.55,4.09c2.85,1.71,5.13-0.02,5.08-1.6
	C263.36,118.56,261.43,117.8,260,118.94z M261.34,119.65l0.87,1.21c-0.23,0.14-0.54,0.27-0.92,0.35l-0.83-1.17
	c0.09-0.05,0.19-0.08,0.29-0.14C260.96,119.78,261.16,119.71,261.34,119.65z M257.65,119.74c0.2,0.25,0.53,0.46,0.95,0.57l0.55,0.77
	C258.01,120.64,257.65,119.74,257.65,119.74z M260.33,121.3c-0.23-0.01-0.43-0.04-0.62-0.07l-0.62-0.86
	c0.31,0.01,0.66-0.04,1.03-0.18l0.78,1.08C260.72,121.29,260.54,121.31,260.33,121.3z M262.5,120.66l-0.78-1.08
	c0.83-0.08,1.24,0.46,1.24,0.46S262.85,120.34,262.5,120.66z"/>
<path fill="#231F20" d="M127.62,97.99h-0.13c0,0.77-0.31,1.46-0.81,1.96c-0.5,0.5-1.2,0.81-1.96,0.81c-0.77,0-1.46-0.31-1.97-0.81
	c-0.5-0.5-0.81-1.2-0.81-1.96s0.31-1.46,0.81-1.97c0.5-0.5,1.2-0.81,1.97-0.81c0.77,0,1.46,0.31,1.96,0.81
	c0.5,0.5,0.81,1.2,0.81,1.97H127.62h0.13c0-1.68-1.36-3.04-3.04-3.04c-1.68,0-3.03,1.36-3.03,3.04c0,1.68,1.36,3.03,3.03,3.03
	c1.68,0,3.04-1.36,3.04-3.03H127.62z"/>
<path fill="#231F20" d="M119.76,88.93h-0.13c0,0.5-0.4,0.9-0.9,0.9c-0.5,0-0.9-0.4-0.9-0.9c0-0.5,0.4-0.9,0.9-0.9
	c0.5,0,0.9,0.4,0.9,0.9H119.76h0.13c0-0.64-0.52-1.15-1.15-1.15s-1.16,0.52-1.16,1.15c0,0.64,0.52,1.16,1.16,1.16
	s1.15-0.52,1.15-1.16H119.76z"/>
<path fill="#231F20" d="M127.97,87.39h-0.13c0,0.92,0.74,1.67,1.67,1.67c0.92,0,1.67-0.75,1.67-1.67c0-0.92-0.75-1.67-1.67-1.67
	c-0.92,0-1.67,0.75-1.67,1.67H127.97h0.13c0-0.78,0.63-1.41,1.41-1.41c0.78,0,1.41,0.63,1.41,1.41c0,0.78-0.63,1.41-1.41,1.41
	c-0.78,0-1.41-0.63-1.41-1.41H127.97z"/>
<path fill="#231F20" d="M122.5,96.45h-0.13c0,0.31-0.25,0.56-0.56,0.56c-0.3,0-0.55-0.25-0.55-0.56c0-0.31,0.25-0.55,0.55-0.56
	c0.31,0,0.55,0.25,0.56,0.56H122.5h0.13c0-0.45-0.36-0.81-0.81-0.81c-0.45,0-0.81,0.36-0.81,0.81s0.36,0.81,0.81,0.81
	c0.45,0,0.81-0.36,0.81-0.81H122.5z"/>
<path fill="#231F20" d="M122.16,80.55h-0.13c0,0.35,0.29,0.64,0.64,0.64s0.64-0.29,0.64-0.64c0-0.35-0.29-0.64-0.64-0.64
	s-0.64,0.29-0.64,0.64H122.16h0.13c0-0.21,0.17-0.38,0.39-0.38c0.21,0,0.38,0.17,0.39,0.38c0,0.21-0.17,0.38-0.39,0.38
	c-0.21,0-0.39-0.17-0.39-0.38H122.16z"/>
<path fill="#231F20" d="M114.97,75.76h-0.13c0,0.4-0.33,0.73-0.73,0.73c-0.4,0-0.72-0.33-0.73-0.73c0-0.4,0.32-0.73,0.73-0.73
	c0.4,0,0.73,0.33,0.73,0.73H114.97h0.13c0-0.54-0.44-0.98-0.98-0.98c-0.54,0-0.98,0.44-0.98,0.98s0.44,0.98,0.98,0.98
	c0.54,0,0.98-0.44,0.98-0.98H114.97z"/>
<path fill="#231F20" d="M125.23,67.39h-0.13c0,0.45,0.36,0.81,0.81,0.81c0.45,0,0.81-0.36,0.81-0.81c0-0.45-0.36-0.81-0.81-0.81
	c-0.45,0-0.81,0.37-0.81,0.81H125.23h0.13c0-0.31,0.25-0.56,0.56-0.56c0.31,0,0.56,0.25,0.56,0.56c0,0.31-0.25,0.55-0.56,0.55
	c-0.31,0-0.56-0.25-0.56-0.55H125.23z"/>
<path fill="#231F20" d="M123.86,71.32h-0.13c0,0.58-0.24,1.1-0.62,1.48c-0.38,0.38-0.9,0.61-1.48,0.61c-0.58,0-1.1-0.24-1.48-0.61
	c-0.38-0.38-0.61-0.9-0.61-1.48c0-0.58,0.23-1.1,0.61-1.48c0.38-0.38,0.9-0.61,1.48-0.61c0.58,0,1.1,0.23,1.48,0.61
	c0.38,0.38,0.62,0.9,0.62,1.48H123.86h0.13c0-1.3-1.05-2.35-2.35-2.35c-1.3,0-2.35,1.05-2.35,2.35c0,1.3,1.05,2.35,2.35,2.35
	c1.3,0,2.35-1.05,2.35-2.35H123.86z"/>
<path fill="#231F20" d="M117.71,63.97h-0.13c0,0.12-0.1,0.21-0.21,0.21c-0.12,0-0.21-0.1-0.21-0.21c0-0.12,0.1-0.21,0.21-0.21
	c0.12,0,0.21,0.09,0.21,0.21H117.71h0.13c0-0.26-0.21-0.47-0.47-0.47c-0.26,0-0.47,0.21-0.47,0.47c0,0.26,0.21,0.47,0.47,0.47
	c0.26,0,0.47-0.21,0.47-0.47H117.71z"/>
<path fill="#231F20" d="M135.83,88.93h-0.13c0,0.45,0.36,0.81,0.81,0.81c0.45,0,0.81-0.36,0.81-0.81c0-0.45-0.36-0.81-0.81-0.81
	c-0.45,0-0.81,0.36-0.81,0.81H135.83h0.13c0-0.31,0.25-0.55,0.56-0.55s0.55,0.25,0.55,0.55s-0.25,0.56-0.55,0.56
	s-0.56-0.25-0.56-0.56H135.83z"/>
<path fill="#231F20" d="M109.5,88.93h-0.13c0,0.31-0.25,0.56-0.56,0.56c-0.31,0-0.55-0.25-0.56-0.56c0-0.31,0.25-0.55,0.56-0.55
	c0.31,0,0.56,0.25,0.56,0.55H109.5h0.13c0-0.45-0.36-0.81-0.81-0.81c-0.45,0-0.81,0.36-0.81,0.81c0,0.45,0.37,0.81,0.81,0.81
	c0.45,0,0.81-0.36,0.81-0.81H109.5z"/>
<path fill="#231F20" d="M116.34,99.01h0.13c0-0.73-0.59-1.33-1.33-1.33c-0.73,0-1.32,0.59-1.32,1.33c0,0.73,0.59,1.32,1.32,1.32
	c0.73,0,1.33-0.59,1.33-1.32H116.34h-0.13c0,0.59-0.48,1.07-1.07,1.07s-1.07-0.48-1.07-1.07c0-0.59,0.48-1.07,1.07-1.07
	c0.59,0,1.07,0.48,1.07,1.07H116.34z"/>
<path fill="#231F20" d="M139.25,103.46h-0.13c0,0.67-0.27,1.28-0.71,1.72s-1.05,0.71-1.72,0.71c-0.67,0-1.28-0.27-1.72-0.71
	c-0.44-0.44-0.71-1.05-0.71-1.72c0-0.67,0.27-1.28,0.71-1.72c0.44-0.44,1.05-0.71,1.72-0.71c0.67,0,1.28,0.27,1.72,0.71
	c0.44,0.44,0.71,1.05,0.71,1.72H139.25h0.13c0-1.49-1.21-2.69-2.69-2.69s-2.69,1.21-2.69,2.69c0,1.49,1.21,2.69,2.69,2.69
	s2.69-1.21,2.69-2.69H139.25z"/>
<path fill="#231F20" d="M131.39,103.97h-0.13c0,0.68-0.56,1.24-1.24,1.24s-1.24-0.55-1.24-1.24c0-0.69,0.55-1.24,1.24-1.24
	c0.68,0,1.24,0.55,1.24,1.24H131.39h0.13c0-0.83-0.67-1.5-1.5-1.5c-0.83,0-1.5,0.67-1.5,1.5s0.67,1.5,1.5,1.5
	c0.83,0,1.5-0.67,1.5-1.5H131.39z"/>
<path fill="#231F20" d="M115.66,82.6h-0.13c0,0.58-0.23,1.1-0.61,1.48c-0.38,0.38-0.9,0.61-1.48,0.61c-0.58,0-1.1-0.24-1.48-0.61
	c-0.38-0.38-0.61-0.9-0.61-1.48c0-0.58,0.23-1.1,0.61-1.48c0.38-0.38,0.9-0.61,1.48-0.61c0.58,0,1.1,0.23,1.48,0.61
	c0.38,0.38,0.61,0.9,0.61,1.48H115.66h0.13c0-1.3-1.05-2.35-2.35-2.35s-2.35,1.05-2.35,2.35c0,1.3,1.05,2.35,2.35,2.35
	s2.35-1.05,2.35-2.35H115.66z"/>
<path fill="#231F20" d="M106.77,74.91h-0.13c0,0.31-0.25,0.55-0.55,0.55c-0.31,0-0.56-0.25-0.56-0.55c0-0.31,0.25-0.56,0.56-0.56
	c0.31,0,0.55,0.25,0.55,0.56H106.77h0.13c0-0.45-0.36-0.81-0.81-0.81c-0.45,0-0.81,0.36-0.81,0.81c0,0.45,0.37,0.81,0.81,0.81
	c0.45,0,0.81-0.36,0.81-0.81H106.77z"/>
<path fill="#231F20" d="M114.29,55.08h-0.13c0,0.31-0.25,0.56-0.55,0.56s-0.56-0.25-0.56-0.56s0.25-0.56,0.56-0.56
	s0.55,0.25,0.55,0.56H114.29h0.13c0-0.45-0.36-0.81-0.81-0.81c-0.45,0-0.81,0.36-0.81,0.81c0,0.45,0.36,0.81,0.81,0.81
	c0.45,0,0.81-0.36,0.81-0.81H114.29z"/>
<path fill="#231F20" d="M137.37,143.64h-0.13c0,0.54,0.44,0.98,0.98,0.98c0.54,0,0.98-0.44,0.98-0.98c0-0.54-0.44-0.98-0.98-0.98
	c-0.54,0-0.98,0.44-0.98,0.98H137.37h0.13c0-0.4,0.33-0.73,0.73-0.73c0.4,0,0.73,0.33,0.73,0.73c0,0.4-0.32,0.72-0.73,0.73
	c-0.4,0-0.73-0.33-0.73-0.73H137.37z"/>
<path fill="#231F20" d="M148.48,134.4h-0.13c0,0.54,0.44,0.98,0.98,0.98c0.54,0,0.98-0.44,0.98-0.98s-0.44-0.98-0.98-0.98
	c-0.54,0-0.98,0.44-0.98,0.98H148.48h0.13c0-0.4,0.32-0.73,0.72-0.73c0.4,0,0.73,0.32,0.73,0.73c0,0.4-0.32,0.72-0.73,0.73
	c-0.4,0-0.72-0.33-0.72-0.73H148.48z"/>
<path fill="#231F20" d="M98.56,145.69h-0.13c0,0.87-0.71,1.58-1.58,1.58c-0.87,0-1.58-0.71-1.58-1.58c0-0.88,0.71-1.58,1.58-1.58
	c0.87,0,1.58,0.71,1.58,1.58H98.56h0.13c0-1.02-0.82-1.84-1.84-1.84s-1.84,0.82-1.84,1.84c0,1.01,0.82,1.84,1.84,1.84
	s1.84-0.82,1.84-1.84H98.56z"/>
<path fill="#231F20" d="M106.08,148.77h-0.13c0,0.68-0.56,1.24-1.24,1.24c-0.69,0-1.24-0.56-1.24-1.24c0-0.69,0.55-1.24,1.24-1.24
	c0.68,0,1.24,0.55,1.24,1.24H106.08h0.13c0-0.83-0.67-1.5-1.5-1.5c-0.83,0-1.5,0.67-1.5,1.5c0,0.83,0.67,1.5,1.5,1.5
	c0.83,0,1.5-0.67,1.5-1.5H106.08z"/>
<path fill="#231F20" d="M115.38,145.55h-0.13c0,0.42-0.34,0.76-0.76,0.76c-0.42,0-0.76-0.34-0.76-0.76c0-0.42,0.34-0.76,0.76-0.76
	c0.42,0,0.76,0.34,0.76,0.76H115.38h0.13c0-0.56-0.45-1.02-1.02-1.02c-0.56,0-1.02,0.45-1.02,1.02c0,0.56,0.46,1.02,1.02,1.02
	c0.56,0,1.02-0.46,1.02-1.02H115.38z"/>
<path fill="#231F20" d="M103.69,136.28h-0.13c0,0.4-0.33,0.73-0.73,0.73c-0.4,0-0.73-0.32-0.73-0.73c0-0.4,0.33-0.73,0.73-0.73
	s0.72,0.33,0.73,0.73H103.69h0.13c0-0.54-0.44-0.98-0.98-0.98c-0.54,0-0.98,0.44-0.98,0.98c0,0.54,0.44,0.98,0.98,0.98
	c0.54,0,0.98-0.44,0.98-0.98H103.69z"/>
<path fill="#231F20" d="M99.84,128.59h-0.13c0,0.26-0.21,0.47-0.47,0.47c-0.26,0-0.47-0.21-0.47-0.47c0-0.26,0.21-0.47,0.47-0.47
	c0.26,0,0.47,0.21,0.47,0.47H99.84h0.13c0-0.4-0.32-0.72-0.73-0.72s-0.73,0.32-0.73,0.72c0,0.4,0.33,0.73,0.73,0.73
	s0.73-0.32,0.73-0.73H99.84z"/>
<path fill="#231F20" d="M161.65,142.61h-0.13c0,0.21-0.17,0.38-0.39,0.38c-0.21,0-0.38-0.17-0.38-0.38c0-0.21,0.17-0.38,0.38-0.39
	c0.21,0,0.39,0.17,0.39,0.39H161.65h0.13c0-0.35-0.29-0.64-0.64-0.64c-0.35,0-0.64,0.29-0.64,0.64s0.29,0.64,0.64,0.64
	c0.36,0,0.64-0.29,0.64-0.64H161.65z"/>
<path fill="#231F20" d="M113.61,129.62h-0.13c0,0.12-0.1,0.21-0.21,0.21s-0.21-0.09-0.21-0.21c0-0.12,0.1-0.21,0.21-0.21
	s0.21,0.1,0.21,0.21H113.61h0.13c0-0.26-0.21-0.47-0.47-0.47c-0.26,0-0.47,0.21-0.47,0.47c0,0.26,0.21,0.47,0.47,0.47
	c0.26,0,0.47-0.21,0.47-0.47H113.61z"/>
<path fill="#231F20" d="M107.11,117.99h-0.13c0,0.31-0.25,0.55-0.56,0.55c-0.31,0-0.55-0.25-0.55-0.55s0.25-0.56,0.55-0.56
	c0.31,0,0.56,0.25,0.56,0.56H107.11h0.13c0-0.45-0.36-0.81-0.81-0.81s-0.81,0.36-0.81,0.81c0,0.45,0.36,0.81,0.81,0.81
	s0.81-0.37,0.81-0.81H107.11z"/>
<path fill="#231F20" d="M225.25,112.35h-0.13c0,0.78-0.63,1.41-1.41,1.41c-0.78,0-1.41-0.63-1.41-1.41c0-0.78,0.63-1.41,1.41-1.41
	c0.78,0,1.41,0.63,1.41,1.41H225.25h0.13c0-0.92-0.75-1.67-1.67-1.67c-0.92,0-1.67,0.74-1.67,1.67c0,0.92,0.75,1.67,1.67,1.67
	c0.92,0,1.67-0.75,1.67-1.67H225.25z"/>
<path fill="#231F20" d="M240.12,113.12h-0.13c0,1.03-0.42,1.96-1.09,2.63c-0.67,0.67-1.6,1.09-2.63,1.09
	c-1.03,0-1.96-0.41-2.63-1.09c-0.67-0.67-1.09-1.6-1.09-2.63c0-1.03,0.41-1.96,1.09-2.63c0.67-0.67,1.6-1.09,2.63-1.09
	c1.03,0,1.95,0.42,2.63,1.09c0.67,0.67,1.09,1.6,1.09,2.63H240.12h0.13c0-2.19-1.78-3.98-3.97-3.98c-2.2,0-3.98,1.78-3.98,3.98
	c0,2.2,1.78,3.98,3.98,3.98c2.19,0,3.97-1.78,3.97-3.98H240.12z"/>
<path fill="#231F20" d="M240.12,108.76h-0.13c0,0.67-0.27,1.28-0.71,1.72c-0.44,0.44-1.05,0.71-1.72,0.71
	c-0.67,0-1.28-0.27-1.72-0.71c-0.44-0.44-0.71-1.05-0.71-1.72s0.27-1.28,0.71-1.72c0.44-0.44,1.05-0.71,1.72-0.71
	c0.67,0,1.28,0.27,1.72,0.71c0.44,0.44,0.71,1.05,0.71,1.72H240.12h0.13c0-1.49-1.21-2.69-2.69-2.69s-2.69,1.21-2.69,2.69
	c0,1.49,1.21,2.69,2.69,2.69s2.69-1.21,2.69-2.69H240.12z"/>
<path fill="#231F20" d="M253.97,159.02h-0.13c0,0.67-0.27,1.28-0.71,1.72c-0.44,0.44-1.05,0.71-1.72,0.71
	c-0.67,0-1.28-0.27-1.72-0.71c-0.44-0.44-0.71-1.05-0.71-1.72c0-0.67,0.27-1.28,0.71-1.72c0.44-0.44,1.05-0.71,1.72-0.71
	c0.67,0,1.28,0.27,1.72,0.71c0.44,0.44,0.71,1.05,0.71,1.72H253.97h0.13c0-1.49-1.21-2.69-2.69-2.69c-1.49,0-2.69,1.21-2.69,2.69
	c0,1.49,1.21,2.69,2.69,2.69c1.49,0,2.69-1.21,2.69-2.69H253.97z"/>
<path fill="#231F20" d="M245.76,122.61h-0.13c0,0.5-0.4,0.9-0.9,0.9c-0.5,0-0.9-0.4-0.9-0.9c0-0.5,0.4-0.9,0.9-0.9
	c0.5,0,0.9,0.4,0.9,0.9H245.76h0.13c0-0.64-0.52-1.15-1.15-1.15c-0.64,0-1.15,0.52-1.15,1.15c0,0.64,0.52,1.15,1.15,1.15
	c0.64,0,1.15-0.52,1.15-1.15H245.76z"/>
<path fill="#231F20" d="M247.81,110.56h-0.13c0,0.35-0.29,0.64-0.64,0.64c-0.35,0-0.64-0.29-0.64-0.64c0-0.36,0.29-0.64,0.64-0.64
	c0.35,0,0.64,0.29,0.64,0.64H247.81h0.13c0-0.5-0.4-0.9-0.9-0.9s-0.9,0.4-0.9,0.9c0,0.49,0.4,0.9,0.9,0.9s0.9-0.4,0.9-0.9H247.81z"
	/>
<path fill="#231F20" d="M227.81,104.14h-0.13c0,0.21-0.17,0.39-0.38,0.39s-0.38-0.17-0.38-0.39s0.17-0.38,0.38-0.38
	s0.38,0.17,0.38,0.38H227.81h0.13c0-0.35-0.29-0.64-0.64-0.64c-0.35,0-0.64,0.29-0.64,0.64c0,0.35,0.29,0.64,0.64,0.64
	c0.36,0,0.64-0.29,0.64-0.64H227.81z"/>
<path fill="#231F20" d="M221.14,119.79h-0.13c0,1.63,1.32,2.95,2.95,2.95c1.63,0,2.95-1.32,2.95-2.95c0-1.63-1.32-2.95-2.95-2.95
	c-1.63,0-2.95,1.32-2.95,2.95H221.14h0.13c0-0.75,0.3-1.42,0.79-1.91c0.48-0.49,1.16-0.79,1.9-0.79s1.42,0.3,1.9,0.79
	c0.49,0.49,0.79,1.16,0.79,1.91c0,0.74-0.3,1.41-0.79,1.9c-0.49,0.49-1.16,0.79-1.9,0.79s-1.42-0.3-1.9-0.79
	c-0.49-0.49-0.79-1.16-0.79-1.9H221.14z"/>
<path fill="#231F20" d="M217.04,109.27h-0.13c0,0.67-0.27,1.28-0.71,1.72c-0.44,0.44-1.05,0.71-1.72,0.71
	c-0.67,0-1.28-0.27-1.72-0.71c-0.44-0.44-0.71-1.05-0.71-1.72c0-0.67,0.27-1.28,0.71-1.72c0.44-0.44,1.05-0.71,1.72-0.71
	c0.67,0,1.28,0.27,1.72,0.71c0.44,0.44,0.71,1.05,0.71,1.72H217.04h0.13c0-1.49-1.21-2.69-2.69-2.69c-1.49,0-2.69,1.21-2.69,2.69
	c0,1.49,1.2,2.69,2.69,2.69c1.49,0,2.69-1.21,2.69-2.69H217.04z"/>
<path fill="#231F20" d="M246.28,97.99h-0.13c0,0.49-0.4,0.9-0.9,0.9c-0.5,0-0.9-0.4-0.9-0.9c0-0.5,0.4-0.9,0.9-0.9s0.9,0.4,0.9,0.9
	H246.28h0.13c0-0.64-0.52-1.15-1.15-1.15c-0.64,0-1.15,0.52-1.15,1.15c0,0.64,0.51,1.15,1.15,1.15c0.64,0,1.15-0.52,1.15-1.15
	H246.28z"/>
<path fill="#231F20" d="M256.53,132.61h-0.13c0,0.89-0.36,1.69-0.94,2.27c-0.58,0.58-1.38,0.94-2.27,0.94
	c-0.89,0-1.69-0.36-2.27-0.94c-0.58-0.58-0.94-1.38-0.94-2.27s0.36-1.69,0.94-2.27c0.58-0.58,1.38-0.94,2.27-0.94
	c0.88,0,1.69,0.36,2.27,0.94c0.58,0.58,0.94,1.38,0.94,2.27H256.53h0.13c0-1.91-1.55-3.46-3.46-3.46c-1.91,0-3.46,1.55-3.46,3.46
	c0,1.91,1.55,3.46,3.46,3.46c1.91,0,3.46-1.55,3.46-3.46H256.53z"/>
<path fill="#231F20" d="M263.71,114.4h-0.13c0,0.53-0.22,1.01-0.56,1.36c-0.35,0.35-0.83,0.56-1.36,0.56
	c-0.53,0-1.01-0.21-1.36-0.56c-0.35-0.35-0.56-0.83-0.56-1.36c0-1.06,0.86-1.92,1.92-1.92c1.06,0,1.92,0.86,1.92,1.92H263.71h0.13
	c0-1.21-0.98-2.18-2.18-2.18c-1.2,0-2.18,0.98-2.18,2.18c0,1.2,0.98,2.18,2.18,2.18c1.2,0,2.18-0.98,2.18-2.18H263.71z"/>
<path fill="#231F20" d="M265.76,101.07h-0.13c0,0.49-0.4,0.9-0.9,0.9s-0.9-0.4-0.9-0.9c0-0.5,0.4-0.9,0.9-0.9c0.5,0,0.9,0.4,0.9,0.9
	H265.76h0.13c0-0.64-0.52-1.16-1.16-1.16c-0.64,0-1.15,0.52-1.15,1.16c0,0.64,0.52,1.15,1.15,1.15c0.64,0,1.16-0.52,1.16-1.15
	H265.76z"/>
<path fill="#231F20" d="M259.26,91.32h-0.13c0,0.3-0.25,0.55-0.55,0.55c-0.31,0-0.55-0.25-0.55-0.55c0-0.3,0.24-0.55,0.55-0.55
	c0.3,0,0.55,0.25,0.55,0.55H259.26h0.13c0-0.45-0.36-0.81-0.81-0.81c-0.44,0-0.81,0.36-0.81,0.81s0.36,0.81,0.81,0.81
	c0.44,0,0.81-0.36,0.81-0.81H259.26z"/>
<path fill="#231F20" d="M239.26,155.78h-0.13c0,0.3-0.25,0.55-0.55,0.55c-0.3,0-0.55-0.25-0.55-0.55c0-0.3,0.25-0.55,0.55-0.55
	c0.3,0,0.55,0.25,0.55,0.55H239.26h0.13c0-0.45-0.36-0.81-0.8-0.81c-0.45,0-0.81,0.36-0.81,0.81s0.36,0.8,0.81,0.8
	c0.44,0,0.8-0.36,0.8-0.8H239.26z"/>
<path fill="#231F20" d="M285.07,156.97h-0.13c0,0.3-0.25,0.55-0.55,0.55c-0.3,0-0.55-0.25-0.55-0.55c0-0.3,0.25-0.55,0.55-0.55
	c0.3,0,0.55,0.25,0.55,0.55H285.07h0.13c0-0.45-0.36-0.81-0.8-0.81c-0.45,0-0.81,0.36-0.81,0.81c0,0.45,0.36,0.8,0.81,0.8
	c0.44,0,0.8-0.36,0.8-0.8H285.07z"/>
<path fill="#231F20" d="M271.41,129.02h-0.13c0,0.92-0.75,1.67-1.67,1.67c-0.92,0-1.67-0.75-1.67-1.67c0-0.92,0.75-1.67,1.67-1.67
	c0.92,0,1.66,0.75,1.67,1.67H271.41h0.13c0-1.06-0.86-1.92-1.92-1.92c-1.06,0-1.92,0.86-1.92,1.92c0,1.06,0.86,1.92,1.92,1.92
	c1.06,0,1.92-0.86,1.92-1.92H271.41z"/>
<path fill="#231F20" d="M273.97,90.04h-0.13c0,0.5,0.4,0.9,0.9,0.9c0.5,0,0.9-0.4,0.9-0.9c0-0.49-0.4-0.9-0.9-0.9
	c-0.5,0-0.9,0.4-0.9,0.9H273.97h0.13c0-0.35,0.29-0.64,0.64-0.64c0.35,0,0.64,0.29,0.64,0.64c0,0.35-0.29,0.64-0.64,0.64
	c-0.35,0-0.64-0.29-0.64-0.64H273.97z"/>
<path fill="#231F20" d="M239.61,144.4h-0.13c0,0.64-0.51,1.15-1.15,1.15c-0.64,0-1.15-0.52-1.15-1.15c0-0.64,0.52-1.15,1.15-1.15
	c0.64,0,1.15,0.52,1.15,1.15H239.61h0.13c0-0.78-0.63-1.41-1.41-1.41c-0.78,0-1.41,0.63-1.41,1.41c0,0.78,0.63,1.41,1.41,1.41
	c0.78,0,1.41-0.63,1.41-1.41H239.61z"/>
<path fill="#231F20" d="M257.04,147.48h-0.13c0,0.74-0.3,1.42-0.79,1.91c-0.49,0.49-1.16,0.79-1.9,0.79c-0.74,0-1.42-0.3-1.9-0.79
	c-0.49-0.49-0.79-1.16-0.79-1.91c0-0.74,0.3-1.42,0.79-1.9c0.49-0.49,1.16-0.79,1.9-0.79c0.74,0,1.42,0.3,1.9,0.79
	c0.49,0.49,0.79,1.16,0.79,1.9H257.04h0.13c0-1.63-1.32-2.95-2.95-2.95c-1.63,0-2.95,1.32-2.95,2.95c0,1.63,1.32,2.95,2.95,2.95
	c1.63,0,2.95-1.32,2.95-2.95H257.04z"/>
<path fill="#231F20" d="M270.38,140.81h-0.13c0,0.35-0.29,0.64-0.64,0.64c-0.35,0-0.64-0.29-0.64-0.64s0.29-0.64,0.64-0.64
	c0.35,0,0.64,0.29,0.64,0.64H270.38h0.13c0-0.5-0.4-0.9-0.9-0.9c-0.5,0-0.9,0.4-0.9,0.9c0,0.5,0.4,0.9,0.9,0.9
	c0.5,0,0.9-0.4,0.9-0.9H270.38z"/>
<path fill="#231F20" d="M281.67,127.22h-0.13c0,0.5-0.4,0.9-0.9,0.9c-0.5,0-0.9-0.4-0.9-0.9c0-0.5,0.4-0.9,0.9-0.9
	c0.5,0,0.9,0.4,0.9,0.9H281.67h0.13c0-0.64-0.51-1.15-1.15-1.15c-0.64,0-1.15,0.52-1.15,1.15c0,0.64,0.52,1.15,1.15,1.15
	c0.64,0,1.15-0.52,1.15-1.15H281.67z"/>
<path fill="#231F20" d="M296.54,117.99h-0.13c0,0.21-0.17,0.38-0.38,0.38c-0.21,0-0.38-0.17-0.39-0.38c0-0.21,0.17-0.38,0.39-0.38
	c0.21,0,0.38,0.17,0.38,0.38H296.54h0.13c0-0.36-0.29-0.64-0.64-0.64c-0.35,0-0.64,0.29-0.64,0.64c0,0.35,0.29,0.64,0.64,0.64
	c0.35,0,0.64-0.29,0.64-0.64H296.54z"/>
<path fill="#231F20" d="M284.74,141.84h-0.13c0,0.35-0.29,0.64-0.64,0.64c-0.36,0-0.64-0.29-0.64-0.64s0.29-0.64,0.64-0.64
	c0.35,0,0.64,0.29,0.64,0.64H284.74h0.13c0-0.5-0.4-0.9-0.9-0.9c-0.5,0-0.9,0.4-0.9,0.9c0,0.5,0.4,0.9,0.9,0.9
	c0.5,0,0.9-0.4,0.9-0.9H284.74z"/>
<path fill="#231F20" d="M271.92,154.66h-0.13c0,0.89-0.36,1.69-0.94,2.27c-0.58,0.58-1.38,0.94-2.27,0.94
	c-0.88,0-1.68-0.36-2.27-0.94c-0.58-0.58-0.94-1.38-0.94-2.27s0.36-1.69,0.94-2.27c0.58-0.58,1.38-0.94,2.27-0.94
	c0.89,0,1.69,0.36,2.27,0.94c0.58,0.58,0.94,1.38,0.94,2.27H271.92h0.13c0-1.91-1.55-3.46-3.46-3.46c-1.91,0-3.46,1.55-3.46,3.46
	c0,1.91,1.55,3.46,3.46,3.46c1.91,0,3.46-1.55,3.46-3.46H271.92z"/>
<path fill="#231F20" d="M286.28,114.91h-0.13c0,0.67-0.27,1.28-0.71,1.72c-0.44,0.44-1.05,0.71-1.72,0.71s-1.28-0.27-1.72-0.71
	c-0.44-0.44-0.71-1.05-0.71-1.72c0-0.67,0.27-1.28,0.71-1.72c0.44-0.44,1.05-0.71,1.72-0.71s1.28,0.27,1.72,0.71
	c0.44,0.44,0.71,1.05,0.71,1.72H286.28h0.13c0-1.49-1.21-2.69-2.69-2.69s-2.69,1.21-2.69,2.69c0,1.49,1.21,2.69,2.69,2.69
	s2.69-1.21,2.69-2.69H286.28z"/>
<path fill="#231F20" d="M279.1,102.6h-0.13c0,0.78-0.63,1.41-1.41,1.41c-0.78,0-1.41-0.63-1.41-1.41c0-0.78,0.63-1.41,1.41-1.41
	c0.78,0,1.41,0.63,1.41,1.41H279.1h0.13c0-0.92-0.75-1.67-1.67-1.67c-0.92,0-1.67,0.75-1.67,1.67c0,0.92,0.75,1.67,1.67,1.67
	c0.92,0,1.67-0.74,1.67-1.67H279.1z"/>
<path fill="#231F20" d="M261.15,107.22h-0.13c0,0.81-0.33,1.55-0.86,2.08c-0.54,0.54-1.27,0.87-2.08,0.87s-1.55-0.33-2.08-0.87
	c-0.54-0.53-0.87-1.27-0.87-2.08c0-0.82,0.33-1.55,0.87-2.09c0.53-0.53,1.27-0.86,2.08-0.86s1.55,0.33,2.08,0.86
	c0.54,0.54,0.86,1.27,0.86,2.09H261.15h0.13c0-1.77-1.44-3.21-3.21-3.21c-1.77,0-3.2,1.44-3.2,3.21c0,1.77,1.43,3.21,3.2,3.21
	c1.77,0,3.21-1.44,3.21-3.21H261.15z"/>
<path fill="#231F20" d="M264.99,77.73h-0.13c0,0.21-0.17,0.38-0.38,0.38c-0.21,0-0.38-0.17-0.38-0.38c0-0.21,0.17-0.38,0.38-0.38
	c0.21,0,0.38,0.17,0.38,0.38H264.99h0.13c0-0.35-0.28-0.63-0.63-0.63c-0.35,0-0.63,0.28-0.63,0.63c0,0.35,0.28,0.63,0.63,0.63
	c0.35,0,0.63-0.28,0.63-0.63H264.99z"/>
<path fill="#231F20" d="M281.67,75.42h-0.13c0,0.21-0.17,0.38-0.38,0.38c-0.21,0-0.38-0.17-0.39-0.38c0-0.21,0.17-0.38,0.39-0.38
	c0.21,0,0.38,0.17,0.38,0.38H281.67h0.13c0-0.35-0.29-0.64-0.64-0.64c-0.35,0-0.64,0.29-0.64,0.64c0,0.36,0.29,0.64,0.64,0.64
	c0.35,0,0.64-0.29,0.64-0.64H281.67z"/>
<path fill="#231F20" d="M25.29,129.22c0.32,1.38,1.09,2.71,2.31,3.46c0.6,0.38,1.26,0.63,2.02,0.6c0.75-0.09,1.37-0.59,1.71-1.23
	c0.88-1.33-0.68-3.31-2.08-2.53c-0.63,0.33-0.88,1.25-0.42,1.82c0.46,0.58,1.5,0.39,1.54-0.39c-0.08,0.78-1.08,0.88-1.48,0.34
	c-0.4-0.53-0.12-1.35,0.43-1.61c1.24-0.62,2.5,1.14,1.71,2.21c-0.65,1.21-2.17,1.18-3.16,0.36c-1.05-0.7-1.68-1.92-1.92-3.16"/>
<path fill="#231F20" d="M12.24,150.33c-0.01,0.03,0.07-3.71-1.75-7.23c-1.64-3.77-5.99-5.61-6.41-5.58
	c-0.94-0.17-1.75,0.39-1.81,1.22c-0.05,0.83,0.45,1.61,1.14,1.72c0.29,0.04,3.68,0.53,5.85,3.47
	C11.5,146.66,12.26,150.37,12.24,150.33z"/>
<path fill="#231F20" d="M11.86,151.79c0.03,0.02-0.04-2.27-1.33-4.28c-1.21-2.06-3.49-3.25-3.71-3.34c-0.5-0.2-1.01-0.04-1.13,0.36
	c-0.12,0.4,0.13,0.86,0.56,1.03c0.19,0.09,2.29,0.74,3.7,2.41C11.41,149.56,11.9,151.8,11.86,151.79z"/>
<path fill="#231F20" d="M11.31,153.37c0.01,0.02,0.02-1.54-0.81-2.96c-0.79-1.47-2.37-2.32-2.52-2.38
	c-0.35-0.16-0.73,0.04-0.85,0.44c-0.12,0.4,0,0.82,0.27,0.95c0.12,0.06,1.53,0.38,2.51,1.46C10.93,151.88,11.33,153.38,11.31,153.37
	z"/>
<path fill="#231F20" d="M51.13,167.31c-0.05,0.01,3.09-1.85,6.45-1.73c3.43-0.05,5.81,2.37,6.04,2.56c0.52,0.46,1.42,0.36,2-0.22
	c0.59-0.58,0.51-1.55-0.19-2.16c-0.23-0.29-4.15-2.65-7.99-1.69C53.69,164.81,51.1,167.35,51.13,167.31z"/>
<path fill="#231F20" d="M50.34,168.59c-0.04-0.03,1.97-1.15,4.16-1.03c2.19,0.03,4.09,1.26,4.29,1.35c0.42,0.23,0.93,0.12,1.14-0.23
	s-0.01-0.86-0.49-1.12c-0.21-0.11-2.61-1.12-4.98-0.75C52.07,167.1,50.29,168.58,50.34,168.59z"/>
<path fill="#231F20" d="M49.57,170.09c-0.02-0.02,1.37-0.71,2.82-0.57c1.46,0.08,2.65,0.99,2.78,1.04c0.28,0.13,0.67-0.05,0.89-0.41
	c0.21-0.36,0.1-0.78-0.24-0.95c-0.15-0.08-1.82-0.76-3.46-0.44C50.7,169.03,49.54,170.09,49.57,170.09z"/>
<path fill="#231F20" d="M42.03,121.02c0.04,0.03-2.23-2.6-2.86-5.79c-0.77-3.38,1.89-5.43,2.1-5.57c0.52-0.41,0.67-1.18,0.34-1.71
	c-0.33-0.53-1.14-0.52-1.82,0.02c-0.31,0.01-3.34,3.86-1.69,7.56C39.42,118.93,42.07,121.01,42.03,121.02z"/>
<path fill="#231F20" d="M39.13,117.88c0.02,0.02-1.68-1.41-2.43-3.3c-0.84-1.98,0.41-3.41,0.49-3.54c0.22-0.31,0.02-0.91-0.43-1.32
	c-0.46-0.42-1.11-0.36-1.45,0.14c-0.23,0.08-1.29,3.29,0.44,5.28C37.17,117.05,39.15,117.87,39.13,117.88z"/>
<path fill="#231F20" d="M36.41,116.1c0.02,0.01-1.28-0.65-2.03-1.75c-0.82-1.14-0.22-2.24-0.19-2.34c0.1-0.23-0.12-0.58-0.48-0.78
	c-0.36-0.2-0.77-0.07-0.92,0.31c-0.14,0.08-0.35,2.31,1.04,3.33C35.04,115.86,36.42,116.09,36.41,116.1z"/>
<path fill="#231F20" d="M37.43,118.01c0.01,0.03-0.46-1.27-1.84-1.81c-1.39-0.54-2.86,0.08-2.96,0.12c-0.3,0.14-0.36,0.54-0.15,0.9
	c0.21,0.36,0.56,0.57,0.78,0.47c0.11-0.04,1.04-0.84,2.17-0.75C36.56,116.98,37.46,118.02,37.43,118.01z"/>
<path fill="#231F20" d="M22.4,179.53c0.02-0.01-1.86,3.07-2.2,6.96c-0.69,4.11,2.72,7.87,3.17,7.91c0.84,0.5,1.78,0.26,2.1-0.5
	c0.32-0.77,0.13-1.67-0.44-1.99c-0.24-0.11-3.07-1.77-3.36-5.45C21.25,183,22.41,179.49,22.4,179.53z"/>
<path fill="#231F20" d="M25.39,176.67c0.04,0-2.07,2.15-2.72,5.42c-0.89,3.44,1.77,6.81,2.06,6.89c0.63,0.5,1.49,0.33,1.93-0.38
	c0.43-0.71,0.44-1.56,0.01-1.89c-0.17-0.15-2.45-1.59-2.53-4.5C23.96,179.38,25.41,176.62,25.39,176.67z"/>
<path fill="#231F20" d="M27.68,174.03c-0.02-0.07-1.79,3.33-1.24,7.36c0.42,4.04,3.17,7.44,3.44,7.72c0.64,0.65,1.6,0.66,2.13,0.03
	c0.53-0.63,0.53-1.58-0.01-2.12c-0.23-0.26-3.04-2.54-4.12-5.96C26.67,177.68,27.62,173.97,27.68,174.03z"/>
<path fill="#231F20" d="M29.45,172.37c-0.06-0.07-0.98,2.11-0.43,4.48c0.43,2.34,1.78,4.44,1.93,4.63c0.32,0.43,0.84,0.56,1.15,0.29
	c0.31-0.27,0.33-0.8,0.03-1.19c-0.14-0.19-1.65-1.86-2.4-3.93C28.86,174.59,29.37,172.33,29.45,172.37z"/>
<path fill="#231F20" d="M30.66,170.53c-0.03-0.05-0.73,1.41-0.39,3.06c0.22,1.64,1.13,3.1,1.23,3.24c0.21,0.3,0.64,0.33,0.95,0.06
	c0.31-0.27,0.42-0.7,0.23-0.96c-0.09-0.13-1.17-1.18-1.7-2.54C30.32,172.05,30.61,170.5,30.66,170.53z"/>
<path fill="#231F20" d="M23.07,179.2c0.03-0.01-3.22,1.28-6.52,1.16c-3.56,0.11-5.28-2.5-5.37-2.71c-0.31-0.53-1.18-0.66-1.92-0.31
	c-0.74,0.35-0.94,1.32-0.41,2.15c0.18,0.15,0.97,1.15,2.48,1.87c1.51,0.73,3.55,0.86,5.33,0.5
	C20.27,181.17,23.08,179.18,23.07,179.2z"/>
<path fill="#231F20" d="M25.78,176.12c0.04-0.01-2.53,1.46-5.22,1.55c-2.83,0.2-4.31-1.86-4.44-2.02c-0.32-0.39-1.14-0.32-1.81,0.15
	c-0.67,0.47-0.8,1.36-0.27,1.98c0.09,0.35,3.65,2.64,6.77,1.37C23.8,178.21,25.78,176.1,25.78,176.12z"/>
<path fill="#231F20" d="M28.45,173.35c0.05,0.03-3.13,1.18-6.17,0.43c-3.09-0.61-5.11-3.09-5.34-3.27
	c-0.47-0.47-1.34-0.39-1.95,0.16c-0.61,0.55-0.62,1.49-0.02,2.08c0.23,0.26,3.53,2.7,7.16,2.53
	C25.73,175.29,28.5,173.35,28.45,173.35z"/>
<path fill="#231F20" d="M29.8,171.89c0.04,0.04-1.9,0.72-3.76,0.13c-1.87-0.47-3.38-1.79-3.54-1.9c-0.35-0.25-0.83-0.18-1.08,0.15
	c-0.25,0.33-0.13,0.83,0.26,1.11c0.18,0.13,2.13,1.27,4.25,1.39C28.07,172.99,29.85,171.91,29.8,171.89z"/>
<path fill="#231F20" d="M31.13,170.23c0.02,0.02-1.31,0.43-2.52-0.04c-1.22-0.36-2.16-1.31-2.28-1.38
	c-0.23-0.15-0.62-0.01-0.87,0.32c-0.25,0.33-0.22,0.75,0.06,0.93c0.12,0.09,1.49,0.85,2.97,0.87
	C29.98,171.05,31.17,170.23,31.13,170.23z"/>
<path fill="#231F20" d="M21.41,180.06c0.03-0.04-2.13,2.68-5.1,3.85c-3.13,1.34-5.55-1-5.72-1.18c-0.48-0.45-1.25-0.47-1.7-0.06
	c-0.45,0.42-0.31,1.24,0.33,1.83c0.06,0.31,4.28,2.72,7.57,0.43C19.84,183.05,21.4,180.02,21.41,180.06z"/>
<path fill="#231F20" d="M18.88,183.52c0.02-0.03-1.08,1.94-2.77,3.01c-1.77,1.18-3.36,0.16-3.5,0.1c-0.33-0.17-0.88,0.13-1.2,0.66
	c-0.32,0.53-0.16,1.18,0.38,1.44c0.11,0.22,3.39,0.75,5.02-1.33C18.4,185.63,18.87,183.5,18.88,183.52z"/>
<path fill="#231F20" d="M17.62,186.55c0.01-0.02-0.42,1.4-1.35,2.34c-0.97,1.02-2.12,0.6-2.22,0.58c-0.24-0.06-0.54,0.22-0.68,0.61
	c-0.13,0.39,0.07,0.79,0.45,0.88c0.1,0.12,2.28-0.03,3.03-1.61C17.62,187.98,17.61,186.54,17.62,186.55z"/>
<path fill="#231F20" d="M19.28,185.21c0.03-0.02-1.14,0.68-1.43,2.16c-0.29,1.5,0.55,2.87,0.62,2.97c0.18,0.28,0.58,0.28,0.89,0.01
	c0.31-0.27,0.45-0.66,0.32-0.87c-0.05-0.1-0.98-0.91-1.09-2.07C18.44,186.25,19.29,185.17,19.28,185.21z"/>
<path fill="#231F20" d="M76.94,139.6c-0.3-2.02,1.51-3.34,1.51-3.34s-1.21,1.55,0.62,2.67c1.53,0.94,0.79,2.18,0.5,2.56
	c-0.76-0.72-2.01-2.16-1.91-3.81c0,0-0.68,1.92,1.52,3.99C78.7,141.67,77.23,141.53,76.94,139.6z"/>
<path fill="#231F20" d="M81.92,131.49c-0.21-2.29,1.9-3.66,1.9-3.66s-1.45,1.67,0.54,3.04c1.67,1.15,0.75,2.5,0.41,2.91
	c-0.81-0.85-2.13-2.56-1.92-4.41c0,0-0.88,2.11,1.47,4.58C83.76,133.93,82.12,133.68,81.92,131.49z"/>
<path fill="#231F20" d="M50.98,141.56c-2.29,0.42-2.99,2.73-2.99,2.73s1.19-1.78,3.12-0.32c1.62,1.22,2.66,0.02,2.96-0.41
	c-1.08-0.51-3.13-1.27-4.87-0.57c0,0,1.79-1.38,4.9,0.12C53.91,142.6,53.17,141.16,50.98,141.56z"/>
<path fill="#231F20" d="M46.11,136.09c-1.99,0.37-2.6,2.38-2.6,2.38s1.03-1.55,2.71-0.28c1.41,1.06,2.31,0.01,2.57-0.35
	c-0.94-0.45-2.72-1.1-4.23-0.5c0,0,1.56-1.2,4.26,0.1C48.66,137,48.02,135.75,46.11,136.09z"/>
<path fill="#231F20" d="M43.46,131.18c-1.4,0.26-1.82,1.67-1.82,1.67s0.72-1.09,1.9-0.2c0.99,0.75,1.62,0.01,1.8-0.25
	c-0.65-0.31-1.91-0.77-2.96-0.35c0,0,1.09-0.84,2.98,0.07C45.25,131.81,44.8,130.94,43.46,131.18z"/>
<path fill="#231F20" d="M91.84,125.76c2.09-0.85,3.97,0.85,3.97,0.85s-1.97-0.96-2.71,1.37c-0.62,1.96-2.14,1.43-2.62,1.21
	c0.58-1.03,1.81-2.81,3.61-3.1c0,0-2.23-0.28-3.89,2.71C90.06,128.25,89.84,126.56,91.84,125.76z"/>
<path fill="#231F20" d="M88.27,136.88c2.24,0.2,3.18,2.58,3.18,2.58s-1.34-1.76-3.02-0.01c-1.41,1.47-2.54,0.3-2.88-0.11
	c0.97-0.66,2.85-1.68,4.59-1.13c0,0-1.87-1.27-4.67,0.65C85.59,138.3,86.13,136.69,88.27,136.88z"/>
<path fill="#231F20" d="M85.23,146.19c1.59-0.22,2.61,1.28,2.61,1.28s-1.21-1.01-2.11,0.48c-0.75,1.25-1.73,0.62-2.02,0.39
	c0.57-0.62,1.73-1.63,3.03-1.53c0,0-1.5-0.58-3.16,1.21C83.58,147.61,83.71,146.41,85.23,146.19z"/>
<path fill="#231F20" d="M81.36,119.27c-0.34-3.6,2.99-5.76,2.99-5.76s-2.28,2.63,0.85,4.79c2.62,1.81,1.18,3.94,0.65,4.58
	c-1.28-1.35-3.36-4.03-3.02-6.94c0,0-1.38,3.33,2.32,7.21C84.26,123.11,81.68,122.72,81.36,119.27z"/>
<path fill="#231F20" d="M48.03,111.22c1.01-1.63,2.73-2.75,4.53-3.45c-2.66,0.4-5.51,2.38-6.63,5.17c-1.07,2.75-1,5.52-0.6,8.07
	c0.2,1.14,0.43,2.2,0.81,3.37c0.12,0.05-0.45-2.92,1.76-7.77c1.19-2.2,1.35-2.82,1.07-3.81C48.72,111.93,48.04,111.21,48.03,111.22z
	 M45.74,117.19c0.09-0.1,0.24-0.1,0.34-0.01c0.1,0.09,0.1,0.25,0.01,0.35c-0.09,0.1-0.25,0.1-0.34,0.01
	C45.65,117.45,45.65,117.29,45.74,117.19z M46.11,119.11c-0.07,0.08-0.18,0.08-0.26,0.01c-0.07-0.07-0.08-0.19-0.01-0.26
	c0.07-0.08,0.18-0.08,0.26-0.01C46.18,118.92,46.18,119.04,46.11,119.11z M46.62,115.9c-0.17,0.18-0.44,0.19-0.61,0.02
	c-0.17-0.17-0.18-0.45-0.02-0.62c0.17-0.18,0.44-0.19,0.61-0.02C46.78,115.44,46.79,115.72,46.62,115.9z M47.96,114.32
	c-0.35,0.38-0.95,0.4-1.32,0.04c-0.38-0.36-0.39-0.96-0.04-1.35c0.36-0.39,0.94-0.4,1.32-0.04
	C48.3,113.33,48.31,113.94,47.96,114.32z"/>
<path fill="#231F20" d="M70.02,140.24c-0.38-3.73-4.51-3.83-4.51-0.79s-2.5,1.65-2.88-2.65c-0.38-4.32-3.44-4.11-4.22-3.63
	c-0.48,0.29-2.3,1.96,0.1,4.71c0,0-3.93-3.73-5.08-11.88c0,0-1.44,12.57,9.69,17.57c0,0,8.25,0,12.47,1.96
	C75.59,145.54,70.28,142.75,70.02,140.24z M58.46,135.34c0-0.73,0.58-1.33,1.3-1.33c0.71,0,1.29,0.59,1.29,1.33
	s-0.58,1.33-1.29,1.33C59.04,136.66,58.46,136.07,58.46,135.34z M60.57,138.84c-0.33,0-0.6-0.27-0.6-0.61c0-0.34,0.27-0.61,0.6-0.61
	c0.33,0,0.6,0.27,0.6,0.61C61.17,138.57,60.9,138.84,60.57,138.84z M61.82,140.73c-0.19,0-0.33-0.15-0.33-0.34
	c0-0.19,0.15-0.34,0.33-0.34c0.19,0,0.34,0.15,0.34,0.34C62.16,140.58,62.01,140.73,61.82,140.73z M63.4,142.22
	c-0.14,0-0.25-0.12-0.25-0.26s0.11-0.26,0.25-0.26c0.14,0,0.25,0.12,0.25,0.26S63.54,142.22,63.4,142.22z M66.48,139.56
	c0-0.65,0.51-1.18,1.15-1.18c0.64,0,1.15,0.53,1.15,1.18c0,0.65-0.52,1.18-1.15,1.18C66.99,140.73,66.48,140.21,66.48,139.56z
	 M68.92,142.57c-0.33,0-0.6-0.27-0.6-0.61s0.27-0.61,0.6-0.61c0.33,0,0.6,0.27,0.6,0.61S69.25,142.57,68.92,142.57z M70.6,143.58
	c-0.19,0-0.33-0.15-0.33-0.34c0-0.19,0.15-0.34,0.33-0.34c0.19,0,0.34,0.15,0.34,0.34C70.94,143.43,70.79,143.58,70.6,143.58z"/>
<path fill="#231F20" d="M60.84,148.41c-12.91,1.43-19.72,9.8-21.43,16.01c0,0,3.33-7.19,9.18-9.08c0,0-0.72,2.7,1.35,2.97
	c2.07,0.27,1.62-6.75,9-7.82c7.39-1.08,9.65,1.28,7.84,1.98c-2.34,0.9-2.79,2.34-2.07,3.69c0.72,1.35,5.04,2.61,7.48-2.43
	c2.08-4.31,11.71,1.44,11.71,1.44S72.99,147.06,60.84,148.41z M49.87,156.98c-0.4,0-0.72-0.33-0.72-0.74s0.32-0.74,0.72-0.74
	c0.4,0,0.72,0.33,0.72,0.74S50.27,156.98,49.87,156.98z M50.64,154.5c-0.2,0-0.36-0.17-0.36-0.37s0.16-0.37,0.36-0.37
	c0.2,0,0.36,0.17,0.36,0.37S50.84,154.5,50.64,154.5z M52.37,152.52c-0.14,0-0.25-0.12-0.25-0.26c0-0.14,0.11-0.26,0.25-0.26
	c0.14,0,0.25,0.12,0.25,0.26C52.62,152.41,52.51,152.52,52.37,152.52z M67.34,155.95c-0.64,0-1.15-0.53-1.15-1.18
	s0.51-1.18,1.15-1.18c0.64,0,1.15,0.53,1.15,1.18S67.97,155.95,67.34,155.95z M69.35,153.47c-0.33,0-0.6-0.27-0.6-0.61
	c0-0.34,0.27-0.61,0.6-0.61c0.33,0,0.6,0.28,0.6,0.61C69.95,153.19,69.68,153.47,69.35,153.47z M71.39,152
	c-0.2,0-0.36-0.16-0.36-0.37c0-0.2,0.16-0.37,0.36-0.37c0.2,0,0.36,0.16,0.36,0.37C71.75,151.83,71.59,152,71.39,152z M73.33,151.4
	c-0.14,0-0.25-0.12-0.25-0.26c0-0.14,0.11-0.26,0.25-0.26s0.25,0.11,0.25,0.26C73.59,151.28,73.47,151.4,73.33,151.4z"/>
<path fill="#231F20" d="M59.35,96.15c-0.43-0.59-1.19-0.79-1.72-0.46c-0.53,0.32-0.72,1.1-0.4,1.78c0.32,0.67,1.12,0.93,1.77,0.54
	C59.65,97.61,59.79,96.76,59.35,96.15z"/>
<path fill="#231F20" d="M61.66,94.09c-0.39-0.37-0.98-0.39-1.32-0.07c-0.33,0.34-0.36,0.92-0.01,1.35c0.34,0.42,0.97,0.5,1.36,0.11
	C62.08,95.1,62.06,94.47,61.66,94.09z"/>
<path fill="#231F20" d="M63.52,91.59c-0.3-0.18-0.68-0.11-0.85,0.15c-0.17,0.26-0.08,0.65,0.2,0.86c0.29,0.21,0.67,0.14,0.86-0.15
	C63.92,92.17,63.82,91.78,63.52,91.59z"/>
<path fill="#231F20" d="M64.36,89.88c-0.2-0.08-0.43,0-0.51,0.18c-0.08,0.19,0.01,0.41,0.21,0.51c0.2,0.1,0.43,0.02,0.51-0.18
	C64.66,90.19,64.56,89.96,64.36,89.88z"/>
<path fill="#231F20" d="M64.89,88.18c-0.19-0.05-0.39,0.06-0.43,0.24c-0.04,0.18,0.07,0.37,0.26,0.43c0.19,0.06,0.4-0.04,0.44-0.24
	C65.2,88.42,65.08,88.22,64.89,88.18z"/>
<path fill="#231F20" d="M65.15,86.4c-0.19-0.01-0.34,0.12-0.36,0.3c-0.03,0.17,0.11,0.34,0.3,0.36c0.19,0.02,0.37-0.11,0.39-0.3
	C65.5,86.57,65.34,86.41,65.15,86.4z"/>
<path fill="#231F20" d="M65.13,84.8c-0.16,0.02-0.28,0.15-0.27,0.3c0.01,0.15,0.15,0.26,0.31,0.26c0.16,0,0.28-0.14,0.27-0.3
	C65.43,84.9,65.29,84.79,65.13,84.8z"/>
<path fill="#231F20" d="M64.92,83.4c-0.12,0.03-0.2,0.14-0.18,0.25c0.02,0.11,0.13,0.18,0.25,0.16c0.12-0.02,0.2-0.13,0.18-0.25
	C65.14,83.44,65.03,83.37,64.92,83.4z"/>
<path fill="#231F20" d="M35.55,156.42c0.62,0.68,1.69,0.66,2.38-0.06c0.65-0.76,0.59-1.85-0.12-2.43c-0.71-0.58-1.75-0.53-2.31,0.13
	C34.91,154.68,34.93,155.74,35.55,156.42z"/>
<path fill="#231F20" d="M32.33,159.03c0.36,0.58,1.16,0.74,1.74,0.29c0.57-0.45,0.68-1.25,0.24-1.78c-0.44-0.53-1.2-0.64-1.7-0.24
	C32.1,157.71,31.96,158.44,32.33,159.03z"/>
<path fill="#231F20" d="M28.66,160.93c0.14,0.42,0.62,0.64,1.05,0.46c0.42-0.2,0.61-0.68,0.42-1.09c-0.19-0.4-0.65-0.58-1.03-0.41
	C28.72,160.06,28.51,160.51,28.66,160.93z"/>
<path fill="#231F20" d="M26.23,161.6c0.04,0.27,0.31,0.47,0.59,0.41c0.28-0.07,0.44-0.35,0.38-0.62c-0.07-0.27-0.33-0.44-0.58-0.37
	C26.36,161.08,26.19,161.33,26.23,161.6z"/>
<path fill="#231F20" d="M23.91,161.8c-0.01,0.26,0.2,0.48,0.46,0.46c0.26-0.01,0.46-0.23,0.44-0.48c-0.02-0.25-0.22-0.45-0.46-0.44
	C24.11,161.36,23.91,161.55,23.91,161.8z"/>
<path fill="#231F20" d="M21.56,161.5c-0.06,0.24,0.1,0.47,0.34,0.51c0.25,0.05,0.48-0.11,0.51-0.35c0.04-0.24-0.12-0.47-0.34-0.51
	C21.85,161.11,21.62,161.27,21.56,161.5z"/>
<path fill="#231F20" d="M19.59,160.78c-0.09,0.18,0,0.41,0.19,0.49c0.19,0.09,0.4,0,0.48-0.19c0.07-0.19-0.02-0.41-0.19-0.5
	C19.89,160.51,19.68,160.59,19.59,160.78z"/>
<path fill="#231F20" d="M17.97,159.85c-0.09,0.13-0.05,0.29,0.08,0.38c0.13,0.08,0.3,0.04,0.38-0.09c0.08-0.13,0.04-0.3-0.08-0.38
	C18.23,159.69,18.06,159.72,17.97,159.85z"/>
<path fill="#231F20" d="M68.39,170.48c0.63-0.42,0.7-1.38,0.04-2.07c-0.68-0.65-1.62-0.58-2.01,0.04c-0.4,0.64-0.31,1.46,0.14,1.89
	C67,170.79,67.79,170.87,68.39,170.48z"/>
<path fill="#231F20" d="M41.3,125.27c-0.39,0.49-0.35,1.16,0.05,1.56c0.41,0.39,1.06,0.37,1.52-0.03c0.46-0.41,0.46-1.16,0-1.61
	C42.4,124.74,41.68,124.8,41.3,125.27z"/>
<path fill="#231F20" d="M39.12,123.67c-0.23,0.4-0.13,0.9,0.21,1.13c0.34,0.25,0.84,0.15,1.11-0.22c0.27-0.37,0.19-0.89-0.19-1.16
	C39.87,123.15,39.36,123.27,39.12,123.67z"/>
<path fill="#231F20" d="M36.73,122.44c-0.1,0.27,0.02,0.58,0.27,0.7c0.25,0.11,0.55-0.01,0.68-0.28c0.13-0.27,0.01-0.59-0.26-0.71
	C37.14,122.02,36.84,122.15,36.73,122.44z"/>
<path fill="#231F20" d="M35.16,121.96c-0.04,0.18,0.06,0.36,0.23,0.4c0.17,0.04,0.35-0.08,0.4-0.25c0.05-0.18-0.05-0.36-0.23-0.4
	C35.38,121.66,35.2,121.77,35.16,121.96z"/>
<path fill="#231F20" d="M33.66,121.72c-0.01,0.17,0.11,0.32,0.26,0.34c0.15,0.02,0.3-0.1,0.32-0.27c0.02-0.17-0.09-0.32-0.26-0.34
	C33.81,121.43,33.67,121.55,33.66,121.72z"/>
<path fill="#231F20" d="M32.12,121.73c0.02,0.16,0.15,0.28,0.3,0.28c0.15,0,0.27-0.14,0.26-0.3c0-0.16-0.14-0.29-0.3-0.29
	C32.22,121.42,32.1,121.57,32.12,121.73z"/>
<path fill="#231F20" d="M30.78,121.99c0.04,0.14,0.16,0.19,0.28,0.18c0.13-0.02,0.21-0.15,0.18-0.28c-0.03-0.13-0.16-0.22-0.29-0.2
	C30.81,121.7,30.74,121.86,30.78,121.99z"/>
<path fill="#231F20" d="M29.63,122.38c0.04,0.09,0.14,0.14,0.23,0.12c0.09-0.03,0.14-0.13,0.1-0.23c-0.04-0.09-0.14-0.15-0.23-0.11
	C29.63,122.18,29.59,122.28,29.63,122.38z"/>
<path fill="#231F20" d="M102.1,167.47c-0.02,0.02-0.87-2.24-0.92-4.63c-0.14-2.41,0.59-4.7,0.65-4.94c0.13-0.5-0.1-1.02-0.52-1.16
	c-0.42-0.14-0.89,0.2-1.04,0.78c-0.08,0.27-0.45,2.96,0.12,5.43C100.86,165.42,102.08,167.49,102.1,167.47z"/>
<path fill="#231F20" d="M99.48,163.21c-0.23,0.03-1.29-5.35-1.06-5.62c-0.03-0.29-0.42-0.5-0.86-0.46c-0.44,0.04-0.77,0.35-0.73,0.7
	C96.64,158.35,99.3,163.37,99.48,163.21z"/>
<path fill="#231F20" d="M63.09,114.34c0-0.12-0.04-0.23-0.11-0.33c-0.19-0.26-0.54-0.31-0.79-0.12c-0.21,0.16-0.28,0.44-0.19,0.68
	c-0.5-0.23-1.34-0.84-0.65-2.21c0.84-1.69-0.31-3.47-1.87-3.19c-1.56,0.28-2.82,2.94-0.55,5.47
	C60.65,116.55,63.27,115.6,63.09,114.34z M60.24,111.8c-0.04,0.11-0.05,0.22-0.08,0.32l-1.33-0.61c0-0.4,0.06-0.74,0.16-1l1.38,0.63
	C60.35,111.34,60.31,111.56,60.24,111.8z M58.94,112.51c-0.05-0.21-0.07-0.4-0.08-0.58l1.23,0.56c-0.06,0.41-0.04,0.77,0.03,1.09
	l-0.98-0.45C59.06,112.94,59,112.74,58.94,112.51z M59.66,109.59c0,0,0.62,0.3,0.71,1.15l-1.23-0.56
	C59.38,109.77,59.66,109.59,59.66,109.59z M59.4,113.65l0.87,0.4c0.19,0.41,0.46,0.7,0.75,0.84
	C61.03,114.89,60.06,114.72,59.4,113.65z"/>
<path fill="#231F20" d="M21.83,150.93c-0.06-0.01-0.13,0-0.19,0.02c-0.16,0.08-0.23,0.27-0.15,0.43c0.06,0.13,0.2,0.21,0.34,0.18
	c-0.18,0.25-0.6,0.65-1.25,0.12c-0.81-0.66-1.88-0.22-1.91,0.68c-0.03,0.9,1.25,1.9,2.85,0.92
	C22.74,152.54,22.53,150.97,21.83,150.93z M20.33,152.32l-0.47,0.67c-0.22-0.05-0.38-0.12-0.51-0.2l0.49-0.7
	c0.1,0.03,0.21,0.08,0.33,0.15C20.22,152.27,20.27,152.29,20.33,152.32z M19.61,152.05l-0.44,0.62c-0.2-0.18-0.26-0.36-0.26-0.36
	S19.15,152,19.61,152.05z M20.4,153.04c-0.12,0-0.22-0.01-0.32-0.02l0.44-0.62c0.21,0.08,0.4,0.11,0.58,0.1L20.75,153
	C20.64,153.02,20.52,153.04,20.4,153.04z M21.05,152.91l0.31-0.44c0.24-0.06,0.42-0.18,0.53-0.33
	C21.9,152.14,21.7,152.66,21.05,152.91z"/>
<path fill="#231F20" d="M94.88,139.65h0.07c0,0.44,0.17,0.84,0.46,1.13c0.28,0.29,0.67,0.47,1.1,0.47c0.43,0,0.82-0.18,1.1-0.47
	c0.28-0.29,0.46-0.69,0.46-1.13c0-0.44-0.18-0.84-0.46-1.13c-0.28-0.29-0.67-0.46-1.1-0.46c-0.43,0-0.82,0.18-1.1,0.46
	c-0.28,0.29-0.46,0.69-0.46,1.13H94.88H94.8c0-0.96,0.76-1.74,1.7-1.74c0.94,0,1.7,0.78,1.7,1.74c0,0.96-0.76,1.74-1.7,1.74
	c-0.94,0-1.7-0.78-1.7-1.74H94.88z"/>
<path fill="#231F20" d="M99.29,134.45h0.07c0,0.29,0.22,0.51,0.5,0.52c0.28,0,0.5-0.23,0.5-0.52s-0.23-0.51-0.5-0.51
	c-0.28,0-0.5,0.23-0.5,0.51H99.29h-0.07c0-0.37,0.29-0.66,0.65-0.66c0.36,0,0.65,0.29,0.65,0.66c0,0.37-0.29,0.66-0.65,0.66
	c-0.36,0-0.65-0.3-0.65-0.66H99.29z"/>
<path fill="#231F20" d="M94.69,133.57h0.07c0,0.53-0.42,0.96-0.94,0.96s-0.94-0.43-0.94-0.96c0-0.53,0.42-0.96,0.94-0.96
	s0.94,0.43,0.94,0.96H94.69h-0.07c0-0.45-0.36-0.81-0.79-0.81c-0.44,0-0.79,0.36-0.79,0.81c0,0.45,0.36,0.81,0.79,0.81
	c0.44,0,0.79-0.36,0.79-0.81H94.69z"/>
<path fill="#231F20" d="M97.76,138.77h0.07c0,0.18,0.14,0.32,0.31,0.32c0.17,0,0.31-0.14,0.31-0.32c0-0.18-0.14-0.32-0.31-0.32
	c-0.17,0-0.31,0.14-0.31,0.32H97.76h-0.07c0-0.26,0.2-0.47,0.45-0.47s0.46,0.21,0.46,0.47c0,0.26-0.21,0.47-0.46,0.47
	s-0.45-0.21-0.45-0.47H97.76z"/>
<path fill="#231F20" d="M97.95,129.64h0.07c0,0.2-0.16,0.37-0.36,0.37c-0.2,0-0.36-0.17-0.36-0.37c0-0.2,0.16-0.37,0.36-0.37
	c0.2,0,0.36,0.16,0.36,0.37H97.95h-0.07c0-0.12-0.1-0.22-0.22-0.22c-0.12,0-0.22,0.1-0.22,0.22c0,0.12,0.1,0.22,0.22,0.22
	c0.12,0,0.22-0.1,0.22-0.22H97.95z"/>
<path fill="#231F20" d="M101.98,126.89h0.07c0,0.23,0.18,0.42,0.41,0.42s0.41-0.19,0.41-0.42c0-0.23-0.18-0.42-0.41-0.42
	s-0.41,0.19-0.41,0.42H101.98h-0.07c0-0.31,0.25-0.56,0.55-0.56c0.3,0,0.55,0.25,0.55,0.56c0,0.31-0.25,0.56-0.55,0.56
	c-0.31,0-0.55-0.25-0.55-0.56H101.98z"/>
<path fill="#231F20" d="M96.22,122.08h0.07c0,0.26-0.2,0.47-0.45,0.47c-0.25,0-0.46-0.21-0.46-0.47c0-0.26,0.2-0.47,0.46-0.47
	c0.25,0,0.45,0.21,0.45,0.47H96.22h-0.07c0-0.18-0.14-0.32-0.31-0.32c-0.17,0-0.31,0.14-0.31,0.32c0,0.18,0.14,0.32,0.31,0.32
	c0.17,0,0.31-0.14,0.31-0.32H96.22z"/>
<path fill="#231F20" d="M96.99,124.34h0.07c0,0.33,0.13,0.63,0.34,0.85c0.21,0.22,0.51,0.35,0.83,0.35c0.32,0,0.62-0.13,0.83-0.35
	c0.21-0.22,0.35-0.52,0.35-0.85c0-0.33-0.13-0.63-0.35-0.85c-0.21-0.22-0.51-0.35-0.83-0.35c-0.32,0-0.62,0.13-0.83,0.35
	c-0.21,0.22-0.34,0.52-0.34,0.85H96.99h-0.07c0-0.75,0.59-1.35,1.32-1.35c0.73,0,1.32,0.6,1.32,1.35c0,0.74-0.59,1.35-1.32,1.35
	c-0.73,0-1.32-0.61-1.32-1.35H96.99z"/>
<path fill="#231F20" d="M100.44,120.12h0.07c0,0.07,0.05,0.12,0.12,0.12c0.07,0,0.12-0.06,0.12-0.12c0-0.07-0.05-0.12-0.12-0.12
	c-0.07,0-0.12,0.05-0.12,0.12H100.44h-0.07c0-0.15,0.12-0.27,0.26-0.27c0.15,0,0.26,0.12,0.26,0.27s-0.12,0.27-0.26,0.27
	c-0.15,0-0.26-0.12-0.26-0.27H100.44z"/>
<path fill="#231F20" d="M90.27,134.45h0.07c0,0.26-0.2,0.47-0.46,0.47c-0.25,0-0.46-0.21-0.46-0.47c0-0.26,0.2-0.47,0.46-0.47
	c0.25,0,0.46,0.21,0.46,0.47H90.27H90.2c0-0.18-0.14-0.32-0.31-0.32c-0.17,0-0.31,0.14-0.31,0.32c0,0.18,0.14,0.32,0.31,0.32
	c0.17,0,0.31-0.14,0.31-0.32H90.27z"/>
<path fill="#231F20" d="M105.05,134.45h0.07c0,0.18,0.14,0.32,0.31,0.32c0.17,0,0.31-0.14,0.31-0.32c0-0.18-0.14-0.32-0.31-0.32
	c-0.17,0-0.31,0.14-0.31,0.32H105.05h-0.07c0-0.26,0.2-0.47,0.46-0.47c0.25,0,0.46,0.21,0.46,0.47c0,0.26-0.21,0.47-0.46,0.47
	c-0.25,0-0.46-0.21-0.46-0.47H105.05z"/>
<path fill="#231F20" d="M101.21,140.24h-0.07c0-0.42,0.33-0.76,0.74-0.76c0.41,0,0.74,0.34,0.74,0.76c0,0.42-0.33,0.76-0.74,0.76
	c-0.41,0-0.74-0.34-0.74-0.76H101.21h0.07c0,0.34,0.27,0.61,0.6,0.61c0.33,0,0.6-0.27,0.6-0.61c0-0.34-0.27-0.61-0.6-0.61
	c-0.33,0-0.6,0.27-0.6,0.61H101.21z"/>
<path fill="#231F20" d="M88.35,142.79h0.07c0,0.39,0.15,0.74,0.4,0.99c0.25,0.25,0.59,0.41,0.97,0.41c0.38,0,0.72-0.16,0.97-0.41
	c0.25-0.25,0.4-0.6,0.4-0.99c0-0.39-0.16-0.74-0.4-0.99c-0.25-0.25-0.59-0.41-0.97-0.41c-0.38,0-0.72,0.16-0.97,0.41
	c-0.25,0.25-0.4,0.6-0.4,0.99H88.35h-0.07c0-0.85,0.68-1.55,1.51-1.55c0.83,0,1.51,0.69,1.51,1.55s-0.68,1.55-1.51,1.55
	c-0.83,0-1.51-0.69-1.51-1.55H88.35z"/>
<path fill="#231F20" d="M92.77,143.09h0.07c0,0.4,0.31,0.71,0.69,0.71c0.38,0,0.7-0.32,0.7-0.71c0-0.39-0.31-0.71-0.7-0.71
	c-0.38,0-0.69,0.32-0.69,0.71H92.77H92.7c0-0.47,0.38-0.86,0.84-0.86c0.47,0,0.84,0.38,0.84,0.86c0,0.48-0.37,0.86-0.84,0.86
	c-0.46,0-0.84-0.38-0.84-0.86H92.77z"/>
<path fill="#231F20" d="M101.59,130.82h0.07c0,0.33,0.13,0.63,0.34,0.85c0.21,0.22,0.51,0.35,0.83,0.35s0.62-0.14,0.83-0.35
	c0.21-0.22,0.35-0.52,0.35-0.85c0-0.33-0.13-0.63-0.35-0.85c-0.21-0.22-0.51-0.35-0.83-0.35s-0.62,0.13-0.83,0.35
	c-0.22,0.22-0.34,0.52-0.34,0.85H101.59h-0.07c0-0.75,0.59-1.35,1.32-1.35c0.73,0,1.32,0.6,1.32,1.35c0,0.75-0.59,1.35-1.32,1.35
	c-0.73,0-1.32-0.6-1.32-1.35H101.59z"/>
<path fill="#231F20" d="M106.58,126.4h0.07c0,0.18,0.14,0.32,0.31,0.32c0.17,0,0.31-0.14,0.31-0.32c0-0.18-0.14-0.32-0.31-0.32
	s-0.31,0.14-0.31,0.32H106.58h-0.07c0-0.26,0.2-0.46,0.46-0.46c0.25,0,0.46,0.21,0.46,0.46c0,0.26-0.2,0.47-0.46,0.47
	c-0.25,0-0.46-0.21-0.46-0.47H106.58z"/>
<path fill="#231F20" d="M102.36,115.02h0.07c0,0.18,0.14,0.32,0.31,0.32c0.17,0,0.31-0.14,0.31-0.32c0-0.18-0.14-0.32-0.31-0.32
	c-0.17,0-0.31,0.14-0.31,0.32H102.36h-0.07c0-0.26,0.21-0.47,0.46-0.47c0.25,0,0.46,0.21,0.46,0.47c0,0.26-0.21,0.46-0.46,0.46
	c-0.25,0-0.46-0.21-0.46-0.46H102.36z"/>
<path fill="#231F20" d="M89.41,165.86h0.07c0,0.31-0.25,0.56-0.55,0.56c-0.31,0-0.55-0.25-0.55-0.56s0.25-0.57,0.55-0.57
	c0.3,0,0.55,0.25,0.55,0.57H89.41h-0.07c0-0.23-0.18-0.42-0.41-0.42c-0.22,0-0.41,0.19-0.41,0.42c0,0.23,0.18,0.42,0.41,0.42
	c0.23,0,0.41-0.19,0.41-0.42H89.41z"/>
<path fill="#231F20" d="M83.17,160.56h0.07c0,0.31-0.25,0.56-0.55,0.56c-0.3,0-0.55-0.25-0.55-0.56c0-0.31,0.25-0.56,0.55-0.56
	c0.31,0,0.55,0.25,0.55,0.56H83.17H83.1c0-0.23-0.18-0.42-0.41-0.42c-0.22,0-0.41,0.19-0.41,0.42c0,0.23,0.18,0.42,0.41,0.42
	c0.23,0,0.41-0.19,0.41-0.42H83.17z"/>
<path fill="#231F20" d="M111.19,167.04h0.07c0,0.5,0.4,0.91,0.89,0.91c0.49,0,0.89-0.41,0.89-0.91c0-0.5-0.4-0.91-0.89-0.91
	c-0.49,0-0.89,0.41-0.89,0.91H111.19h-0.07c0-0.58,0.46-1.06,1.03-1.06s1.03,0.47,1.03,1.06c0,0.58-0.46,1.05-1.03,1.05
	s-1.03-0.47-1.03-1.05H111.19z"/>
<path fill="#231F20" d="M106.97,168.8h0.07c0,0.4,0.31,0.71,0.7,0.71c0.38,0,0.69-0.32,0.69-0.71c0-0.39-0.31-0.71-0.69-0.71
	c-0.39,0-0.7,0.32-0.7,0.71H106.97h-0.07c0-0.47,0.38-0.86,0.84-0.86c0.46,0,0.84,0.38,0.84,0.86c0,0.48-0.38,0.86-0.84,0.86
	c-0.46,0-0.84-0.38-0.84-0.86H106.97z"/>
<path fill="#231F20" d="M101.75,166.96h0.07c0,0.24,0.19,0.44,0.43,0.44c0.24,0,0.42-0.2,0.43-0.44c0-0.24-0.19-0.43-0.43-0.43
	c-0.24,0-0.43,0.19-0.43,0.43H101.75h-0.07c0-0.32,0.25-0.58,0.57-0.58c0.31,0,0.57,0.26,0.57,0.58c0,0.32-0.26,0.59-0.57,0.59
	c-0.32,0-0.57-0.26-0.57-0.59H101.75z"/>
<path fill="#231F20" d="M108.31,161.64h0.07c0,0.23,0.18,0.42,0.41,0.42c0.23,0,0.41-0.19,0.41-0.42c0-0.23-0.18-0.42-0.41-0.42
	c-0.22,0-0.41,0.19-0.41,0.42H108.31h-0.07c0-0.31,0.25-0.56,0.55-0.56c0.31,0,0.55,0.25,0.55,0.56s-0.25,0.57-0.55,0.57
	c-0.3,0-0.55-0.25-0.55-0.57H108.31z"/>
<path fill="#231F20" d="M110.47,157.22h0.07c0,0.15,0.12,0.27,0.26,0.27c0.15,0,0.26-0.12,0.26-0.27c0-0.15-0.12-0.27-0.26-0.27
	c-0.15,0-0.26,0.12-0.26,0.27H110.47h-0.07c0-0.23,0.18-0.42,0.41-0.42c0.23,0,0.41,0.19,0.41,0.42c0,0.23-0.18,0.42-0.41,0.42
	c-0.22,0-0.41-0.19-0.41-0.42H110.47z"/>
<path fill="#231F20" d="M75.78,165.27h0.07c0,0.12,0.1,0.22,0.22,0.22c0.12,0,0.21-0.1,0.21-0.22c0-0.12-0.1-0.22-0.21-0.22
	c-0.12,0-0.22,0.1-0.22,0.22H75.78h-0.07c0-0.2,0.16-0.37,0.36-0.37c0.2,0,0.36,0.16,0.36,0.37c0,0.2-0.16,0.37-0.36,0.37
	c-0.2,0-0.36-0.16-0.36-0.37H75.78z"/>
<path fill="#231F20" d="M102.75,157.81h0.07c0,0.07,0.05,0.12,0.12,0.12s0.12-0.05,0.12-0.12c0-0.07-0.05-0.12-0.12-0.12
	s-0.12,0.06-0.12,0.12H102.75h-0.07c0-0.15,0.12-0.27,0.26-0.27c0.14,0,0.26,0.12,0.26,0.27c0,0.15-0.12,0.27-0.26,0.27
	c-0.15,0-0.26-0.12-0.26-0.27H102.75z"/>
<path fill="#231F20" d="M106.39,151.14h0.07c0,0.18,0.14,0.32,0.31,0.32c0.17,0,0.31-0.14,0.31-0.32c0-0.18-0.14-0.32-0.31-0.32
	c-0.17,0-0.31,0.14-0.31,0.32H106.39h-0.07c0-0.26,0.21-0.46,0.46-0.46c0.25,0,0.46,0.21,0.46,0.46c0,0.26-0.2,0.47-0.46,0.47
	c-0.25,0-0.46-0.21-0.46-0.47H106.39z"/>
<path fill="#231F20" d="M40.08,147.9h0.07c0,0.45,0.35,0.81,0.79,0.81c0.44,0,0.79-0.36,0.79-0.81c0-0.45-0.36-0.81-0.79-0.81
	c-0.44,0-0.79,0.36-0.79,0.81H40.08h-0.07c0-0.53,0.42-0.96,0.94-0.96c0.52,0,0.93,0.43,0.93,0.96c0,0.53-0.42,0.96-0.93,0.96
	c-0.52,0-0.94-0.43-0.94-0.96H40.08z"/>
<path fill="#231F20" d="M31.74,148.34h0.07c0,0.59,0.23,1.12,0.61,1.51c0.38,0.39,0.9,0.63,1.47,0.63c0.58,0,1.1-0.24,1.48-0.63
	c0.38-0.38,0.61-0.92,0.61-1.51c0-0.59-0.24-1.12-0.61-1.51c-0.38-0.39-0.9-0.62-1.48-0.62c-0.58,0-1.1,0.24-1.47,0.62
	c-0.38,0.39-0.61,0.92-0.61,1.51H31.74h-0.07c0-1.26,1-2.28,2.23-2.28c1.23,0,2.23,1.02,2.23,2.28c0,1.26-1,2.28-2.23,2.28
	c-1.23,0-2.23-1.02-2.23-2.28H31.74z"/>
<path fill="#231F20" d="M31.74,145.84h0.07c0,0.39,0.15,0.73,0.4,0.99c0.25,0.25,0.59,0.41,0.97,0.41c0.38,0,0.72-0.16,0.97-0.41
	c0.25-0.25,0.4-0.6,0.4-0.99c0-0.39-0.15-0.74-0.4-0.99c-0.25-0.25-0.59-0.41-0.97-0.41c-0.38,0-0.72,0.16-0.97,0.41
	c-0.25,0.25-0.4,0.6-0.4,0.99H31.74h-0.07c0-0.86,0.68-1.55,1.51-1.55c0.83,0,1.51,0.69,1.51,1.55c0,0.85-0.68,1.54-1.51,1.54
	c-0.84,0-1.51-0.69-1.51-1.54H31.74z"/>
<path fill="#231F20" d="M23.97,174.7h0.07c0,0.39,0.15,0.73,0.4,0.99c0.25,0.25,0.59,0.41,0.97,0.41c0.38,0,0.72-0.16,0.97-0.41
	c0.25-0.25,0.4-0.6,0.4-0.99c0-0.39-0.15-0.74-0.4-0.99c-0.25-0.25-0.59-0.41-0.97-0.41c-0.38,0-0.72,0.16-0.97,0.41
	c-0.25,0.25-0.4,0.6-0.4,0.99H23.97h-0.07c0-0.86,0.67-1.54,1.51-1.54c0.83,0,1.51,0.69,1.51,1.54c0,0.85-0.68,1.55-1.51,1.55
	c-0.84,0-1.51-0.69-1.51-1.55H23.97z"/>
<path fill="#231F20" d="M28.57,153.79h0.07c0,0.29,0.23,0.51,0.5,0.52c0.28,0,0.5-0.23,0.5-0.52c0-0.29-0.23-0.52-0.5-0.52
	c-0.28,0-0.5,0.23-0.5,0.52H28.57H28.5c0-0.37,0.29-0.66,0.65-0.66c0.36,0,0.65,0.3,0.65,0.66c0,0.37-0.29,0.66-0.65,0.66
	c-0.36,0-0.65-0.3-0.65-0.66H28.57z"/>
<path fill="#231F20" d="M27.42,146.87h0.07c0,0.21,0.16,0.37,0.36,0.37c0.2,0,0.36-0.16,0.36-0.37c0-0.2-0.16-0.37-0.36-0.37
	c-0.2,0-0.36,0.17-0.36,0.37H27.42h-0.07c0-0.28,0.23-0.51,0.5-0.51c0.28,0,0.5,0.23,0.5,0.51s-0.22,0.52-0.5,0.52
	c-0.28,0-0.5-0.23-0.5-0.52H27.42z"/>
<path fill="#231F20" d="M38.65,143.19h0.07c0,0.12,0.09,0.22,0.21,0.22c0.12,0,0.22-0.1,0.22-0.22c0-0.12-0.09-0.22-0.22-0.22
	c-0.12,0-0.21,0.1-0.21,0.22H38.65h-0.07c0-0.2,0.16-0.37,0.36-0.37c0.2,0,0.36,0.16,0.36,0.37c0,0.2-0.16,0.37-0.36,0.37
	c-0.2,0-0.36-0.16-0.36-0.37H38.65z"/>
<path fill="#231F20" d="M42.39,152.17h0.07c0,0.93-0.74,1.69-1.66,1.69c-0.91,0-1.66-0.76-1.66-1.69c0-0.94,0.74-1.69,1.66-1.69
	c0.91,0,1.66,0.76,1.66,1.69H42.39h-0.07c0-0.43-0.17-0.81-0.44-1.09c-0.27-0.28-0.65-0.45-1.07-0.45c-0.42,0-0.79,0.17-1.07,0.45
	c-0.27,0.28-0.44,0.67-0.44,1.09c0,0.43,0.17,0.81,0.44,1.09c0.27,0.28,0.65,0.45,1.07,0.45c0.42,0,0.79-0.17,1.07-0.45
	c0.27-0.28,0.44-0.67,0.44-1.09H42.39z"/>
<path fill="#231F20" d="M44.69,146.13h0.07c0,0.38,0.15,0.73,0.4,0.99c0.25,0.25,0.59,0.41,0.97,0.41s0.72-0.16,0.97-0.41
	c0.25-0.25,0.4-0.6,0.4-0.99c0-0.39-0.15-0.74-0.4-0.99c-0.25-0.25-0.59-0.41-0.97-0.41s-0.72,0.16-0.97,0.41
	c-0.25,0.25-0.4,0.6-0.4,0.99H44.69h-0.07c0-0.86,0.68-1.55,1.51-1.55s1.51,0.69,1.51,1.55c0,0.85-0.68,1.54-1.51,1.54
	s-1.51-0.69-1.51-1.54H44.69z"/>
<path fill="#231F20" d="M28.28,139.65h0.07c0,0.28,0.23,0.51,0.51,0.51c0.28,0,0.5-0.23,0.5-0.51c0-0.29-0.23-0.52-0.5-0.52
	c-0.28,0-0.5,0.23-0.51,0.52H28.28h-0.07c0-0.37,0.29-0.66,0.65-0.66c0.36,0,0.65,0.3,0.65,0.66c0,0.37-0.29,0.66-0.65,0.66
	c-0.36,0-0.65-0.3-0.65-0.66H28.28z"/>
<path fill="#231F20" d="M22.53,159.53h0.07c0,0.51,0.2,0.97,0.53,1.3c0.33,0.33,0.78,0.54,1.27,0.54c0.5,0,0.94-0.21,1.27-0.54
	c0.32-0.33,0.53-0.79,0.53-1.3c0-0.51-0.2-0.97-0.53-1.3c-0.33-0.33-0.78-0.54-1.27-0.54c-0.5,0-0.95,0.21-1.27,0.54
	c-0.33,0.33-0.53,0.79-0.53,1.3H22.53h-0.07c0-1.1,0.87-1.99,1.94-1.99c1.07,0,1.94,0.89,1.94,1.99c0,1.1-0.87,1.99-1.94,1.99
	c-1.07,0-1.94-0.89-1.94-1.99H22.53z"/>
<path fill="#231F20" d="M18.5,149.08h0.07c0,0.3,0.12,0.58,0.31,0.78c0.2,0.2,0.47,0.32,0.76,0.32c0.3,0,0.57-0.12,0.76-0.32
	c0.2-0.2,0.32-0.48,0.32-0.78c0-0.61-0.48-1.1-1.08-1.1c-0.6,0-1.08,0.49-1.08,1.1H18.5h-0.07c0-0.69,0.55-1.25,1.22-1.25
	c0.68,0,1.22,0.56,1.22,1.25s-0.55,1.25-1.22,1.25c-0.68,0-1.22-0.56-1.22-1.25H18.5z"/>
<path fill="#231F20" d="M17.34,141.42h0.07c0,0.29,0.23,0.51,0.5,0.51c0.28,0,0.5-0.23,0.5-0.51c0-0.29-0.23-0.51-0.5-0.51
	c-0.28,0-0.5,0.23-0.5,0.51H17.34h-0.07c0-0.37,0.29-0.66,0.65-0.66c0.36,0,0.65,0.3,0.65,0.66c0,0.37-0.29,0.66-0.65,0.66
	c-0.36,0-0.65-0.3-0.65-0.66H17.34z"/>
<path fill="#231F20" d="M20.99,135.82h0.07c0,0.17,0.14,0.32,0.31,0.32s0.31-0.14,0.31-0.32c0-0.17-0.14-0.31-0.31-0.32
	c-0.17,0-0.31,0.14-0.31,0.32H20.99h-0.07c0-0.25,0.2-0.46,0.45-0.46c0.25,0,0.45,0.21,0.45,0.46c0,0.26-0.2,0.46-0.45,0.46
	c-0.25,0-0.45-0.21-0.45-0.46H20.99z"/>
<path fill="#231F20" d="M32.22,172.83h0.07c0,0.17,0.14,0.32,0.31,0.32c0.17,0,0.31-0.14,0.31-0.32s-0.14-0.31-0.31-0.31
	s-0.31,0.14-0.31,0.31H32.22h-0.07c0-0.25,0.2-0.46,0.45-0.46c0.25,0,0.45,0.21,0.45,0.46c0,0.26-0.2,0.46-0.45,0.46
	c-0.25,0-0.45-0.21-0.45-0.46H32.22z"/>
<path fill="#231F20" d="M6.51,173.52h0.07c0,0.17,0.14,0.32,0.31,0.32c0.17,0,0.31-0.14,0.31-0.32c0-0.17-0.14-0.31-0.31-0.32
	c-0.17,0-0.31,0.14-0.31,0.32H6.51H6.44c0-0.26,0.2-0.46,0.45-0.46c0.25,0,0.45,0.21,0.45,0.46c0,0.26-0.2,0.46-0.45,0.46
	c-0.25,0-0.45-0.21-0.45-0.46H6.51z"/>
<path fill="#231F20" d="M14.18,157.47h0.07c0,0.53,0.42,0.96,0.94,0.96c0.52,0,0.93-0.43,0.94-0.96c0-0.53-0.42-0.96-0.94-0.96
	c-0.52,0-0.94,0.43-0.94,0.96H14.18h-0.07c0-0.61,0.48-1.1,1.08-1.1s1.08,0.49,1.08,1.1c0,0.61-0.48,1.11-1.08,1.11
	s-1.08-0.5-1.08-1.11H14.18z"/>
<path fill="#231F20" d="M12.74,135.09h0.07c0,0.29-0.22,0.52-0.5,0.52c-0.28,0-0.5-0.23-0.5-0.52c0-0.28,0.23-0.51,0.5-0.51
	c0.28,0,0.5,0.23,0.5,0.51H12.74h-0.07c0-0.2-0.16-0.37-0.36-0.37s-0.36,0.17-0.36,0.37c0,0.21,0.16,0.37,0.36,0.37
	s0.36-0.17,0.36-0.37H12.74z"/>
<path fill="#231F20" d="M32.02,166.3h0.07c0,0.36,0.29,0.66,0.65,0.66c0.36,0,0.65-0.3,0.65-0.66c0-0.37-0.29-0.66-0.65-0.66
	c-0.36,0-0.65,0.3-0.65,0.66H32.02h-0.07c0-0.45,0.35-0.81,0.79-0.81s0.79,0.36,0.79,0.81c0,0.45-0.35,0.81-0.79,0.81
	s-0.79-0.36-0.79-0.81H32.02z"/>
<path fill="#231F20" d="M22.24,168.07h0.07c0,0.43,0.17,0.81,0.44,1.09c0.27,0.28,0.65,0.45,1.07,0.45c0.42,0,0.79-0.17,1.07-0.45
	c0.27-0.28,0.44-0.67,0.44-1.09c0-0.42-0.17-0.81-0.44-1.09c-0.28-0.28-0.65-0.45-1.07-0.45c-0.42,0-0.79,0.17-1.07,0.45
	c-0.27,0.28-0.44,0.67-0.44,1.09H22.24h-0.07c0-0.93,0.74-1.69,1.65-1.69c0.91,0,1.66,0.76,1.66,1.69c0,0.94-0.74,1.69-1.66,1.69
	c-0.92,0-1.65-0.76-1.65-1.69H22.24z"/>
<path fill="#231F20" d="M14.75,164.24h0.07c0,0.2,0.16,0.37,0.36,0.37c0.2,0,0.36-0.17,0.36-0.37s-0.16-0.37-0.36-0.37
	c-0.2,0-0.36,0.17-0.36,0.37H14.75h-0.07c0-0.28,0.22-0.51,0.5-0.51s0.5,0.23,0.5,0.51s-0.22,0.52-0.5,0.52s-0.5-0.23-0.5-0.52
	H14.75z"/>
<path fill="#231F20" d="M8.42,156.44h0.07c0,0.28,0.22,0.51,0.5,0.51c0.28,0,0.5-0.23,0.5-0.51c0-0.29-0.23-0.52-0.5-0.52
	c-0.28,0-0.5,0.23-0.5,0.52H8.42H8.35c0-0.37,0.29-0.66,0.65-0.66c0.36,0,0.65,0.3,0.65,0.66c0,0.37-0.29,0.66-0.65,0.66
	c-0.36,0-0.65-0.3-0.65-0.66H8.42z"/>
<path fill="#231F20" d="M0.07,151.14h0.07c0,0.12,0.1,0.22,0.22,0.22c0.12,0,0.21-0.1,0.21-0.22c0-0.12-0.1-0.22-0.21-0.22
	c-0.12,0-0.22,0.1-0.22,0.22H0.07H0c0-0.2,0.16-0.37,0.36-0.37c0.2,0,0.36,0.16,0.36,0.37c0,0.2-0.16,0.37-0.36,0.37
	c-0.2,0-0.36-0.16-0.36-0.37H0.07z"/>
<path fill="#231F20" d="M6.69,164.83h0.07c0,0.2,0.16,0.37,0.36,0.37c0.2,0,0.36-0.16,0.36-0.37c0-0.2-0.16-0.37-0.36-0.37
	c-0.2,0-0.36,0.17-0.36,0.37H6.69H6.62c0-0.29,0.23-0.51,0.5-0.51c0.28,0,0.5,0.23,0.5,0.51s-0.22,0.52-0.5,0.52
	c-0.28,0-0.5-0.23-0.5-0.52H6.69z"/>
<path fill="#231F20" d="M13.89,172.19h0.07c0,0.51,0.2,0.97,0.53,1.3c0.33,0.33,0.77,0.54,1.27,0.54c0.5,0,0.95-0.21,1.27-0.54
	c0.33-0.33,0.53-0.79,0.53-1.3s-0.2-0.97-0.53-1.3c-0.33-0.33-0.78-0.54-1.27-0.54c-0.5,0-0.95,0.21-1.27,0.54
	c-0.33,0.33-0.53,0.79-0.53,1.3H13.89h-0.07c0-1.1,0.87-1.99,1.94-1.99c1.07,0,1.94,0.89,1.94,1.99c0,1.1-0.87,1.99-1.94,1.99
	c-1.07,0-1.94-0.89-1.94-1.99H13.89z"/>
<path fill="#231F20" d="M5.83,149.37H5.9c0,0.39,0.15,0.74,0.4,0.99c0.25,0.26,0.59,0.41,0.97,0.41s0.72-0.16,0.97-0.41
	c0.25-0.25,0.4-0.6,0.4-0.99c0-0.39-0.15-0.74-0.4-0.99c-0.25-0.25-0.59-0.41-0.97-0.41s-0.72,0.16-0.97,0.41
	c-0.25,0.25-0.4,0.6-0.4,0.99H5.83H5.76c0-0.85,0.68-1.55,1.51-1.55c0.83,0,1.51,0.69,1.51,1.55s-0.68,1.54-1.51,1.54
	c-0.83,0-1.51-0.69-1.51-1.54H5.83z"/>
<path fill="#231F20" d="M9.86,142.3h0.07c0,0.45,0.35,0.81,0.79,0.81c0.44,0,0.79-0.36,0.79-0.81c0-0.45-0.36-0.81-0.79-0.81
	c-0.44,0-0.79,0.36-0.79,0.81H9.86H9.79c0-0.53,0.42-0.96,0.94-0.96c0.52,0,0.94,0.43,0.94,0.96c0,0.53-0.42,0.96-0.94,0.96
	c-0.52,0-0.94-0.43-0.94-0.96H9.86z"/>
<path fill="#231F20" d="M19.93,144.95h0.07c0,0.47,0.19,0.89,0.48,1.2c0.3,0.31,0.71,0.5,1.17,0.5c0.46,0,0.87-0.19,1.17-0.5
	c0.3-0.31,0.49-0.73,0.49-1.2s-0.19-0.89-0.49-1.2c-0.3-0.31-0.71-0.5-1.17-0.5c-0.46,0-0.87,0.19-1.17,0.5
	c-0.3,0.31-0.48,0.73-0.48,1.2H19.93h-0.07c0-1.02,0.81-1.84,1.8-1.84c0.99,0,1.8,0.82,1.8,1.84c0,1.02-0.81,1.84-1.8,1.84
	c-0.99,0-1.8-0.82-1.8-1.84H19.93z"/>
<path fill="#231F20" d="M17.78,128.02h0.07c0,0.12,0.1,0.22,0.21,0.22c0.12,0,0.21-0.1,0.21-0.22c0-0.12-0.09-0.22-0.21-0.22
	c-0.12,0-0.21,0.1-0.21,0.22H17.78h-0.07c0-0.2,0.16-0.36,0.36-0.36c0.2,0,0.36,0.16,0.36,0.36c0,0.2-0.16,0.36-0.36,0.36
	c-0.2,0-0.36-0.16-0.36-0.36H17.78z"/>
<path fill="#231F20" d="M8.42,126.7h0.07c0,0.12,0.1,0.22,0.21,0.22c0.12,0,0.22-0.1,0.22-0.22c0-0.12-0.1-0.22-0.22-0.22
	c-0.12,0-0.21,0.1-0.21,0.22H8.42H8.35c0-0.21,0.16-0.37,0.36-0.37s0.36,0.16,0.36,0.37c0,0.2-0.16,0.37-0.36,0.37
	s-0.36-0.16-0.36-0.37H8.42z"/>
<path fill="#231F20" d="M127.11,186.59c-0.54,0-0.98,0.44-0.98,0.98s0.44,0.98,0.98,0.98s0.98-0.44,0.98-0.98
	S127.66,186.59,127.11,186.59z M127.11,188.3c-0.4,0-0.73-0.33-0.73-0.73c0-0.4,0.33-0.73,0.73-0.73c0.4,0,0.73,0.32,0.73,0.73
	C127.84,187.98,127.51,188.3,127.11,188.3z M134.59,174.41c0-1.21-0.98-2.18-2.18-2.18c-1.21,0-2.18,0.97-2.18,2.18
	c0,1.2,0.98,2.18,2.18,2.18C133.62,176.59,134.59,175.61,134.59,174.41z M130.49,174.41c0-1.06,0.86-1.92,1.92-1.92
	c1.06,0,1.92,0.86,1.92,1.92c0,0.53-0.22,1.01-0.56,1.36c-0.35,0.35-0.83,0.57-1.36,0.57c-0.53,0-1.01-0.22-1.36-0.57
	C130.7,175.42,130.49,174.94,130.49,174.41z M118.93,179.55c3.33-1.92,7.25-1.64,7.62-1.68c0.82-0.07,1.5-0.71,1.52-1.43
	c0.03-0.72-0.73-1.26-1.7-1.18c-0.42,0.02-4.93,0.51-8.17,3.21c-3.31,2.55-4.78,6.24-4.73,6.22
	C113.42,184.67,115.55,181.31,118.93,179.55z M87.35,184.68c-0.33,0-0.6,0.28-0.6,0.61c0,0.34,0.27,0.61,0.6,0.61
	c0.33,0,0.6-0.27,0.6-0.61C87.94,184.96,87.67,184.68,87.35,184.68z M87.35,185.76c-0.25,0-0.46-0.21-0.46-0.47
	c0-0.26,0.21-0.47,0.46-0.47c0.25,0,0.45,0.21,0.45,0.47C87.8,185.55,87.6,185.76,87.35,185.76z M84.71,189.64
	c-0.57,0-1.03,0.47-1.03,1.05s0.46,1.05,1.03,1.05c0.57,0,1.03-0.47,1.03-1.05S85.28,189.64,84.71,189.64z M84.71,191.6
	c-0.49,0-0.89-0.41-0.89-0.91s0.4-0.91,0.89-0.91c0.49,0,0.89,0.41,0.89,0.91S85.2,191.6,84.71,191.6z M81.54,171.97
	c-0.2,0-0.36,0.17-0.36,0.37c0,0.2,0.16,0.37,0.36,0.37c0.2,0,0.36-0.16,0.36-0.37C81.9,172.14,81.74,171.97,81.54,171.97z
	 M81.54,172.56c-0.12,0-0.22-0.1-0.22-0.22s0.1-0.22,0.22-0.22c0.12,0,0.21,0.1,0.21,0.22S81.66,172.56,81.54,172.56z
	 M109.16,134.16c1.14,2.17,1.88,5.51,1.98,8.92c0.25,6.87-1.64,13.58-1.63,13.55c-0.02,0.01,2.92-6.23,3.78-13.45
	c0.45-3.58,0.26-7.43-0.77-10.39c-0.96-3-2.67-4.83-2.98-5.14c-1.39-1.37-3.24-1.28-3.79-0.25c-0.58,1.06-0.13,2.41,0.76,3.3
	C106.72,130.94,108.05,131.94,109.16,134.16z M121.55,182.57c-0.29,0.01-3.44,0.46-5.62,2.41c-2.23,1.85-3.12,4.4-3.08,4.38
	c-0.04,0,1.5-2.22,3.8-3.29c2.26-1.18,4.82-0.86,5.06-0.89c0.53-0.04,0.98-0.67,1-1.39C122.75,183.07,122.23,182.52,121.55,182.57z
	 M85.09,179.58c0.25,0,0.46-0.21,0.46-0.47c0-0.26-0.2-0.47-0.46-0.47c-0.25,0-0.46,0.21-0.46,0.47
	C84.63,179.37,84.84,179.58,85.09,179.58z M85.09,178.79c0.17,0,0.31,0.14,0.31,0.32s-0.14,0.32-0.31,0.32
	c-0.17,0-0.31-0.14-0.31-0.32C84.78,178.94,84.92,178.79,85.09,178.79z M104.84,143.87c0.56-0.23,3.4,3.49,3.11,8.76
	c0.05,4.98-1.19,9.83-1.19,9.81c-0.01,0.01,1.92-4.56,2.62-9.71c0.35-2.56,0.33-5.31-0.39-7.48c-0.64-2.23-2.17-3.48-2.44-3.67
	c-1.19-0.87-2.54-0.54-2.69,0.18C103.65,142.57,104.19,143.38,104.84,143.87z M119.08,191.72c-1.96,0-3.55,1.59-3.55,3.55
	c0,0.06,0.01,0.12,0.01,0.17h0.26c0-0.06-0.01-0.11-0.01-0.17c0-0.91,0.37-1.73,0.96-2.33c0.6-0.59,1.42-0.96,2.33-0.96
	c0.91,0,1.73,0.37,2.33,0.96c0.6,0.6,0.97,1.42,0.97,2.33c0,0.06-0.01,0.12-0.01,0.17h0.26c0-0.06,0.01-0.12,0.01-0.17
	C122.62,193.31,121.04,191.72,119.08,191.72z M92.19,184.78c0.68,0,1.22-0.56,1.22-1.25c0-0.69-0.55-1.25-1.22-1.25
	c-0.67,0-1.22,0.56-1.22,1.25C90.97,184.22,91.51,184.78,92.19,184.78z M92.19,182.43c0.6,0,1.08,0.49,1.08,1.11
	c0,0.3-0.12,0.58-0.32,0.78c-0.2,0.2-0.46,0.32-0.76,0.32c-0.3,0-0.57-0.12-0.76-0.32c-0.2-0.2-0.32-0.47-0.32-0.78
	C91.11,182.92,91.6,182.43,92.19,182.43z M91.9,194.15c-0.16,0-0.31,0.08-0.41,0.19c-0.2-0.18-0.45-0.29-0.74-0.29
	c-0.62,0-1.13,0.52-1.13,1.16c0,0.14,0.03,0.27,0.07,0.39h0.15c-0.05-0.12-0.08-0.25-0.08-0.39c0-0.56,0.44-1.01,0.98-1.01
	c0.25,0,0.48,0.1,0.66,0.27c-0.04,0.08-0.06,0.16-0.06,0.25c0,0.25,0.16,0.46,0.38,0.53c-0.01,0.12-0.04,0.24-0.08,0.35h0.15
	c0.04-0.1,0.06-0.21,0.07-0.32c0.01,0,0.02,0,0.03,0c0.31,0,0.55-0.25,0.55-0.56S92.21,194.15,91.9,194.15z M91.49,194.72
	c0-0.04,0.01-0.09,0.02-0.13c0.11,0.14,0.18,0.31,0.21,0.5C91.59,195.02,91.49,194.88,91.49,194.72z M91.9,195.14
	c-0.01,0-0.02,0-0.03,0c-0.02-0.26-0.12-0.5-0.28-0.68c0.07-0.09,0.18-0.15,0.31-0.15c0.23,0,0.41,0.19,0.41,0.42
	C92.31,194.95,92.13,195.14,91.9,195.14z M90.68,188.24c0,0.31,0.25,0.56,0.55,0.56c0.31,0,0.55-0.25,0.55-0.56
	c0-0.31-0.24-0.57-0.55-0.57C90.93,187.68,90.68,187.93,90.68,188.24z M91.23,187.83c0.22,0,0.41,0.19,0.41,0.42
	c0,0.23-0.18,0.42-0.41,0.42c-0.23,0-0.41-0.19-0.41-0.42C90.82,188.01,91,187.83,91.23,187.83z M133.14,182.62
	c0,0.54,0.44,0.98,0.98,0.98c0.54,0,0.98-0.44,0.98-0.98s-0.44-0.98-0.98-0.98C133.58,181.63,133.14,182.07,133.14,182.62z
	 M134.12,181.89c0.4,0,0.73,0.33,0.73,0.73c0,0.4-0.32,0.73-0.73,0.73s-0.73-0.33-0.73-0.73
	C133.4,182.22,133.72,181.89,134.12,181.89z M83.46,160.71c1.99,0.78,4.43,2.32,6.61,4.19c4.42,3.72,7.7,8.53,7.68,8.52
	c0.01,0.01-2.54-5.21-6.57-9.71c-1.99-2.26-4.37-4.29-6.55-5.5c-2.15-1.26-4.02-1.67-4.38-1.73c-1.5-0.26-2.71,0.54-2.66,1.43
	c0.05,0.92,1,1.61,2.12,1.81C80,159.78,81.47,159.88,83.46,160.71z M173.14,167.27c0.37-0.11,0.57-0.5,0.5-0.9
	c-0.09-0.39-0.47-0.64-0.85-0.56c-0.38,0.08-0.61,0.49-0.52,0.9C172.35,167.14,172.77,167.38,173.14,167.27z M66.23,185.95
	c0.08-0.1,0.07-0.25-0.02-0.33c-0.09-0.08-0.23-0.06-0.31,0.04c-0.08,0.1-0.07,0.25,0.03,0.33
	C66.01,186.08,66.15,186.06,66.23,185.95z M90.27,176.93c0.41,0,0.74-0.34,0.74-0.76c0-0.42-0.33-0.76-0.74-0.76
	c-0.41,0-0.74,0.34-0.74,0.76C89.53,176.59,89.86,176.93,90.27,176.93z M90.27,175.56c0.33,0,0.6,0.27,0.6,0.61
	c0,0.34-0.27,0.61-0.6,0.61s-0.6-0.27-0.6-0.61C89.67,175.83,89.94,175.56,90.27,175.56z M174.31,170.6
	c0.33-0.14,0.48-0.52,0.35-0.87c-0.13-0.34-0.52-0.52-0.85-0.4c-0.34,0.12-0.49,0.51-0.35,0.87
	C173.59,170.56,173.98,170.74,174.31,170.6z M175.24,172.65c-0.31,0.15-0.42,0.54-0.26,0.88c0.18,0.32,0.58,0.45,0.87,0.28
	c0.3-0.17,0.4-0.55,0.22-0.86C175.92,172.64,175.55,172.5,175.24,172.65z M172.51,157.38c0.97,0.16,1.8-0.45,2.1-1.28
	c0.22-0.86-0.15-1.82-1.02-2.24s-2.01,0.1-2.32,1.22C170.89,156.17,171.57,157.23,172.51,157.38z M172.39,163.55
	c0.63-0.08,1.02-0.65,0.99-1.27c-0.03-0.62-0.55-1.12-1.18-1.11c-0.62,0.01-1.11,0.58-1.07,1.28
	C171.17,163.15,171.79,163.64,172.39,163.55z M134.98,192.75c-0.51,0-0.96,0.19-1.32,0.51c-0.18-0.2-0.44-0.33-0.73-0.33
	c-0.54,0-0.98,0.44-0.98,0.98c0,0.54,0.44,0.98,0.98,0.98c0.02,0,0.04,0,0.06,0c0.01,0.2,0.06,0.38,0.12,0.56h0.27
	c-0.08-0.19-0.13-0.39-0.14-0.61c0.39-0.13,0.68-0.49,0.68-0.93c0-0.16-0.04-0.3-0.11-0.43c0.31-0.28,0.72-0.46,1.17-0.46
	c0.97,0,1.75,0.78,1.75,1.75c0,0.24-0.05,0.47-0.14,0.68h0.27c0.08-0.22,0.13-0.44,0.13-0.68
	C136.99,193.65,136.09,192.75,134.98,192.75z M132.98,194.62c-0.02,0-0.04,0.01-0.06,0.01c-0.4,0-0.72-0.33-0.73-0.73
	c0-0.4,0.33-0.72,0.73-0.72c0.22,0,0.42,0.1,0.55,0.26C133.19,193.75,133.01,194.17,132.98,194.62z M133.25,194.55
	c0.04-0.33,0.17-0.63,0.36-0.88c0.02,0.07,0.04,0.15,0.04,0.23C133.65,194.19,133.48,194.43,133.25,194.55z M67.28,184.63
	c0.1-0.15,0.07-0.34-0.07-0.43c-0.13-0.09-0.32-0.05-0.41,0.09c-0.09,0.14-0.06,0.33,0.07,0.43C67,184.82,67.19,184.77,67.28,184.63
	z M69.53,178.6c-0.21-0.05-0.43,0.1-0.47,0.32c-0.04,0.23,0.07,0.45,0.28,0.51c0.21,0.06,0.44-0.08,0.49-0.32
	C69.87,178.88,69.74,178.64,69.53,178.6z M68.68,181.34c0.18,0.08,0.4-0.02,0.48-0.23c0.08-0.21-0.01-0.43-0.2-0.5
	c-0.19-0.07-0.4,0.03-0.48,0.23C68.41,181.04,68.5,181.26,68.68,181.34z M68.3,183.02c0.09-0.19,0.03-0.42-0.14-0.5
	c-0.17-0.09-0.38-0.01-0.47,0.17c-0.1,0.17-0.04,0.4,0.12,0.49C67.98,183.28,68.2,183.21,68.3,183.02z M70.46,176.66
	c0.02-0.4-0.25-0.73-0.6-0.74c-0.35,0-0.65,0.28-0.66,0.64s0.2,0.68,0.56,0.73C70.09,177.34,70.44,177.07,70.46,176.66z
	 M69.08,171.73c-0.49,0.24-0.69,0.79-0.57,1.28c0.17,0.48,0.64,0.83,1.18,0.74c0.52-0.09,0.91-0.69,0.69-1.32
	C70.21,171.78,69.57,171.49,69.08,171.73z M145.75,185.05c-1.01,0-1.84,0.82-1.84,1.84c0,1.01,0.82,1.84,1.84,1.84
	c1.01,0,1.84-0.82,1.84-1.84C147.58,185.88,146.76,185.05,145.75,185.05z M145.75,188.47c-0.87,0-1.58-0.71-1.58-1.58
	c0-0.87,0.71-1.58,1.58-1.58c0.87,0,1.58,0.71,1.58,1.58C147.33,187.76,146.62,188.47,145.75,188.47z M141.05,176.42
	c-0.59,0-1.07,0.48-1.07,1.07c0,0.59,0.48,1.07,1.07,1.07c0.59,0,1.07-0.48,1.07-1.07C142.11,176.9,141.64,176.42,141.05,176.42z
	 M141.05,178.3c-0.45,0-0.81-0.36-0.81-0.81c0-0.45,0.36-0.81,0.81-0.81c0.45,0,0.81,0.37,0.81,0.81
	C141.86,177.94,141.49,178.3,141.05,178.3z M145.06,167.53c0.45,0,0.81-0.37,0.81-0.81c0-0.45-0.36-0.81-0.81-0.81
	c-0.45,0-0.81,0.36-0.81,0.81C144.25,167.16,144.62,167.53,145.06,167.53z M145.06,166.16c0.31,0,0.55,0.25,0.56,0.56
	c0,0.31-0.25,0.56-0.56,0.56c-0.31,0-0.55-0.25-0.55-0.56C144.51,166.41,144.76,166.16,145.06,166.16z M135.47,164.1
	c-0.69-0.29-9.07,0.14-14.01,5.35c-5.11,4.7-7.15,10.89-7.15,10.83c-0.05,0.06,3.38-5.59,8.75-8.74c5.34-3.54,11.32-2.32,11.83-2.22
	c1.22,0.23,2.53-0.75,2.92-2.14C138.2,165.78,137.16,164.39,135.47,164.1z M151.39,154.28c-0.35,0-0.64,0.29-0.64,0.64
	c0,0.35,0.29,0.64,0.64,0.64c0.35,0,0.64-0.29,0.64-0.64C152.03,154.57,151.74,154.28,151.39,154.28z M151.39,155.3
	c-0.21,0-0.38-0.17-0.38-0.38c0-0.21,0.17-0.38,0.38-0.38c0.21,0,0.39,0.17,0.39,0.38C151.77,155.13,151.6,155.3,151.39,155.3z
	 M135.83,162.91c0.73,0,1.33-0.59,1.33-1.33c0-0.73-0.59-1.32-1.33-1.32c-0.73,0-1.32,0.59-1.32,1.32
	C134.51,162.32,135.1,162.91,135.83,162.91z M135.83,160.52c0.59,0,1.07,0.48,1.07,1.07c0,0.59-0.48,1.07-1.07,1.07
	c-0.59,0-1.07-0.48-1.07-1.07C134.76,161,135.24,160.52,135.83,160.52z M273.88,121.09c-0.59-5.42-4.5-10.87-10.15-11.91
	c-5.36-1.09-11.61,1.43-13.65,6.7c-2.17,4.87,0,11.93,5.62,13.07c5.56,1.44,10.69-5.11,7.66-9.88c2.78,4.92-2.54,10.81-7.52,9.25
	c-5.03-1.22-6.67-7.7-4.57-11.92c1.96-4.54,7.51-6.42,12.03-5.32c4.75,1.16,7.62,5.58,8.02,10.33c0.43,4.72-1.24,9.66-4.41,12.91
	c-3.1,3.1-8.32,4.62-12.92,4.99c-9.13,0.68-18.65-3.75-25.21-10.11c-1.52-2.5-3.28-4.85-5.26-6.99
	c-8.02-8.68-18.95-13.62-30.35-15.46c11.85-7.82,21.36-19.36,25.56-32.97c2.38-2.69,5.21-4.96,8.51-6.53
	c3.94-1.89,8.6-3.15,12.88-2.48c4.23,0.87,8.19,3.81,9.86,7.92c0.92,2.19,1.13,4.65,0.65,6.97l-0.2-0.04
	c-0.42,2.15-1.55,4.27-3.42,5.5c-1.76,1.42-4.47,1.48-5.62-0.63c-1.42-1.85,0.83-4.92,3.04-3.84c0.99,0.45,1.49,1.87,0.77,2.8
	c-0.7,0.95-2.48,0.76-2.63-0.59c0.07,1.36,1.93,1.69,2.75,0.69c0.83-0.98,0.37-2.59-0.75-3.16c-2.49-1.37-5.26,2.08-3.7,4.4
	c0.62,1.1,1.72,1.98,3.05,2.14c0.66,0.03,1.28-0.07,1.86-0.25c-3.05,1.79-7.12,1.97-9.99-0.27c-3.61-2.58-4.61-8.66-1-11.75
	c3.23-3.52,10.3-1.55,10.08,3.73c0.38-5.27-6.81-7.57-10.29-3.97c-3.86,3.16-3.01,9.63,0.82,12.5c3.83,3.13,9.81,2.22,13.17-1.22
	c3.48-3.45,4.41-8.94,2.62-13.48c-1.74-4.57-5.99-7.92-10.75-9.02c-4.91-0.84-9.67,0.4-14.03,2.32c-2.42,1.09-4.63,2.53-6.61,4.22
	c1.71-8.2,1.99-16.81-1.52-24.92c-2.48-5.01-6.43-9.02-11.1-11.81c-3.39-2.7-6.22-6.1-7.38-10.22c-1.39-4.75-0.23-11.82,5.2-12.97
	c2.45-0.57,5.52,0.03,6.98,2.19c1.45,2.06,1.51,5.4-0.46,7.2c-1.71,1.94-5.63,1.71-6.67-0.96c-1.52-2.48,1.52-6.14,4.26-4.33
	c-2.65-1.95-6.08,1.68-4.55,4.46c1.04,2.96,5.32,3.43,7.41,1.3c2.32-2.01,2.43-5.71,0.82-8.22c-1.71-2.66-5.17-3.44-8.06-2.9
	c-6.63,1.31-8.16,9.36-6.8,14.72c0.62,2.57,1.8,4.9,3.33,6.98c-1.21-0.42-2.45-0.77-3.7-1.04c-8.59-2.1-18.85,1.05-23.47,9
	c-4.75,7.39-4.62,18.34,2.18,24.48c6.23,6.15,18.25,6.44,23.07-1.47c2.17-3.73,2.57-8.67,0.22-12.38c-2.18-3.78-6.82-5.73-11-4.94
	c4.21-0.68,8.71,1.39,10.73,5.11c2.18,3.64,1.65,8.41-0.49,11.87c-4.73,7.35-16.02,6.72-21.63,0.88
	c-6.11-5.78-5.94-15.87-1.44-22.49c4.44-7.1,13.42-9.59,21.29-7.53c7.85,1.89,15.05,7.23,18.36,14.46
	c2.98,7.19,2.47,16.14,0.41,23.85c-0.77,2.8-1.8,5.51-3.03,8.11c-0.82,1.35-1.56,2.75-2.22,4.18
	c-6.03,10.21-15.43,18.46-26.09,23.58l0.02,0.04c-2.62-0.07-5.24,0.01-7.82,0.25c-7.61,0.56-15.13,2.44-22.19,5.43
	c5.28-18.17-30.94-29.27-9.4-43.3c-4.29,2.01-8.31,6.3-7.92,11.68c0.39,5.27,3.87,9.49,7.16,13.06c3.24,3.39,5.74,7.49,6.31,11.71
	c0.53,4.15-1.5,8.46-4.42,10.95l0.01,0.01c-4.68,2.72-9.06,5.95-13.01,9.62c0.44-2.11,0.48-4.29,0.01-6.45
	c-0.89-5.89-6.94-10.54-12.83-9.27c-2.83,0.32-5.87,2.33-6.22,5.45c-0.51,3.01,1.61,5.94,4.34,6.76c2.54,0.87,6.38-0.01,6.9-3.06
	c0.37-3.08-3.18-5.18-5.71-3.79c2.62-1.28,5.86,0.97,5.4,3.74c-0.56,2.71-4.09,3.38-6.37,2.5c-2.43-0.84-4.14-3.49-3.59-6
	c0.42-2.59,2.89-4.09,5.43-4.32c5.42-0.77,10.08,3.14,10.75,8.37c0.62,3.54-0.31,7.12-2.18,10.15
	c-9.51,10.23-16.44,22.2-21.22,35.02c-0.3-0.11-0.75-0.06-1.16,0.25c-0.15,0.11-1.01,0.82-1.37,2.11c-0.14,0.42-0.23,0.88-0.28,1.36
	c-0.4,0.07-0.71,0.39-0.79,0.79c-0.11-1.05-0.17-2.21-0.13-3.38c0.04-1.42,0.27-2.82,0.64-3.96c0.43,2.72,0.12,5.48,0.12,5.47
	c-0.01,0,0.86-2.67,0.94-5.66c0.09-0.63,0.06-1.27-0.04-1.89c0.45-0.64,0.87-0.98,0.95-1.08c0.5-0.51,0.75-1.29,0.43-1.9
	c-0.29-0.55-1.22-0.62-1.97,0.02c0,0,0-0.01,0-0.01c0-2.14-1.62-3.9-3.7-4.12c0.73-0.76,1.16-1.85,0.98-2.96
	c-0.19-1.79-1.9-2.95-3.49-3.13c-3.31-0.73-6.7,1.94-7.2,5.32c-0.26,1.24-0.24,2.49,0,3.7c-2.22-2.11-4.68-3.96-7.3-5.52l0.01-0.01
	c-1.64-1.43-2.77-3.9-2.48-6.29c0.32-2.42,1.73-4.78,3.54-6.72c1.85-2.05,3.8-4.47,4.02-7.5c0.22-3.09-2.04-5.56-4.44-6.71
	c12.09,8.05-8.24,14.43-5.27,24.86c-3.96-1.72-8.18-2.8-12.46-3.12c-1.45-0.13-2.92-0.18-4.39-0.14l0.01-0.02
	c-5.99-2.95-11.27-7.69-14.66-13.56c-0.36-0.8-0.77-1.58-1.21-2.33c-0.7-1.51-1.29-3.08-1.73-4.7c-1.16-4.43-1.44-9.57,0.23-13.7
	c1.86-4.15,5.9-7.22,10.31-8.3c4.42-1.18,9.46,0.25,11.95,4.32c2.52,3.8,2.62,9.59-0.81,12.91c-3.15,3.35-9.49,3.72-12.14-0.51
	c-1.2-1.99-1.5-4.73-0.28-6.82c1.13-2.14,3.66-3.32,6.02-2.93c-2.35-0.45-4.95,0.67-6.18,2.84c-1.32,2.13-1.09,4.97,0.13,7.11
	c2.71,4.54,9.45,4.38,12.95,0.85c3.81-3.52,3.89-9.81,1.22-14.05c-2.59-4.56-8.35-6.37-13.17-5.17c-0.7,0.16-1.4,0.36-2.08,0.6
	c0.86-1.2,1.52-2.53,1.87-4.01c0.76-3.07-0.09-7.7-3.82-8.45c-1.62-0.31-3.56,0.14-4.52,1.67c-0.9,1.44-0.84,3.56,0.46,4.72
	c1.18,1.23,3.58,0.95,4.16-0.75c0.85-1.6-1.07-3.68-2.56-2.56c1.54-1.04,3.24,1.06,2.39,2.49c-0.58,1.53-2.79,1.66-3.75,0.55
	c-1.11-1.04-1.08-2.95-0.26-4.14c0.82-1.24,2.54-1.58,3.92-1.25c3.04,0.66,3.7,4.72,2.92,7.45c-0.65,2.37-2.25,4.34-4.16,5.88
	c-2.61,1.6-4.83,3.89-6.21,6.77c-1.97,4.66-1.81,9.61-0.85,14.32c-1.12-0.97-2.35-1.8-3.72-2.43c-2.45-1.1-5.12-1.82-7.87-1.33
	c-2.67,0.63-5.05,2.55-6.03,5.18c-1,2.61-0.48,5.76,1.47,7.74c1.88,1.97,5.24,2.5,7.39,0.7c2.15-1.65,2.62-5.36,0.46-7.18
	c-1.96-2.07-5.99-0.75-5.78,2.28c-0.12-3.03,3.84-4.16,5.66-2.14c2.03,1.78,1.47,5.27-0.56,6.75c-2.02,1.61-5.1,1.05-6.78-0.8
	c-1.75-1.86-2.15-4.74-1.19-7.07c0.93-2.36,3.16-4.04,5.53-4.55c2.4-0.38,5.02,0.34,7.23,1.43c1.85,0.9,3.44,2.21,4.78,3.76
	c2.36,7.81,7.69,14.43,14.34,18.92c-6.4,1.06-12.53,3.89-17.03,8.88c-1.11,1.23-2.1,2.58-2.95,4.01c-3.69,3.65-9.03,6.2-14.16,5.81
	c-2.58-0.21-5.51-1.09-7.25-2.87c-1.78-1.87-2.71-4.7-2.47-7.41c0.22-2.72,1.83-5.27,4.5-5.93c2.53-0.63,5.65,0.45,6.75,3.05
	c1.18,2.43,0.26,6.15-2.57,6.85c-2.8,0.9-5.78-2.48-4.22-5.31c-1.7,2.73,1.18,6.5,4.3,5.67c3.15-0.65,4.37-4.71,3.15-7.5
	c-1.14-3.02-4.65-4.47-7.66-3.84c-3.17,0.6-5.36,3.73-5.7,6.84c-0.39,3.12,0.48,6.42,2.61,8.87c2.32,2.45,5.32,3.64,8.35,4.09
	c4.54,0.54,8.31-0.12,11.74-2.24c-1.65,5.72-1.35,11.99,1.46,17.32c4.27,8.64,14.61,14.46,23.92,11.27
	c9.09-2.68,15.32-14.3,10.32-23.05c-2.24-4.17-6.64-7.2-11.32-7.16c-4.7-0.12-9.02,3.27-10.46,7.7c1.56-4.4,5.92-7.57,10.46-7.33
	c4.5,0.07,8.68,3.13,10.69,7.14c4.52,8.39-1.7,19.05-10.11,21.28c-6.5,2.05-13.45-0.71-18.02-5.63c1,0.47,2.08,0.75,3.27,0.7
	c1.61-0.19,2.94-1.28,3.68-2.64c1.89-2.88-1.47-7.13-4.48-5.44c-1.35,0.71-1.9,2.7-0.9,3.91c0.98,1.24,3.23,0.83,3.32-0.85
	c-0.18,1.67-2.33,1.91-3.18,0.73c-0.86-1.15-0.26-2.91,0.93-3.47c2.67-1.33,5.39,2.46,3.67,4.76c-1.39,2.61-4.67,2.54-6.8,0.77
	c-0.98-0.66-1.79-1.53-2.44-2.51c-0.21-0.39-0.42-0.78-0.6-1.18c-0.29-0.6-0.55-1.21-0.78-1.82c-0.13-0.42-0.24-0.85-0.32-1.28
	l-0.1,0.02c-2.15-7.41,0.25-15.81,5.48-21.3c6.04-6.35,15.31-8.56,23.87-7.54c8.69,0.91,16.8,5.12,22.77,11.55
	c5.36,5.81,9.16,12.84,11.63,20.42c-0.17-0.16-0.4-0.25-0.65-0.25c-0.35,0-0.66,0.19-0.83,0.46c-0.31-0.62-0.72-1.35-1.23-2.12
	c0.03,0,0.06,0.01,0.09,0.01c0.73,0,1.32-0.6,1.32-1.35c0-0.75-0.59-1.35-1.32-1.35c-0.22,0-0.43,0.06-0.61,0.16
	c-1.07-1.56-3.15-4.28-5.95-6.5c-2.07-1.67-4.62-2.92-6.84-3.32c-2.22-0.39-3.89-0.06-4.22-0.04c-1.29,0.38-2.03,1.38-1.69,2.12
	c0.34,0.76,1.38,1.12,2.32,0.82c0.37-0.23,5.21-1.22,9.62,1.67c2.89,1.66,5.3,3.99,6.58,5.37c-0.25,0.19-0.43,0.47-0.49,0.79
	c-0.44-0.53-0.93-1.05-1.47-1.54c-3.23-3.38-8.56-3.6-9-3.41c-1.07,0.19-1.76,1.01-1.54,1.81c0.22,0.8,1.06,1.34,1.87,1.19
	c0.34-0.08,4.33-0.82,7.78,1.61c2.09,1.3,3.71,3.19,4.66,4.47c-0.01,0.04-0.01,0.08-0.01,0.12c0,0.46,0.32,0.85,0.75,0.95
	c0.15,0.23,0.22,0.36,0.21,0.35c0,0.01-0.04-0.12-0.13-0.34c0.05,0.01,0.1,0.01,0.15,0.01c0.47,0,0.85-0.32,0.96-0.76
	c0.25,0.8,0.48,1.6,0.7,2.42c-0.17,0.83-0.34,1.67-0.5,2.51c-0.55-1.25-1.7-3.41-3.6-5.2c-2.78-2.99-7.47-3.24-7.86-3.07
	c-0.94,0.16-1.53,0.96-1.31,1.76c0.22,0.8,0.95,1.36,1.64,1.23c0.29-0.06,3.64-0.76,6.64,1.27c2.12,1.28,3.7,3.26,4.44,4.31
	c-0.08,0.41-0.15,0.81-0.22,1.22c-0.39-0.53-0.89-1.08-1.5-1.56c-1.82-1.55-4.35-1.83-4.59-1.84c-0.54-0.04-0.97,0.26-0.95,0.68
	c0.01,0.42,0.4,0.79,0.86,0.82c0.21,0.03,2.41-0.14,4.28,0.97c0.72,0.38,1.34,0.9,1.83,1.39c-0.09,0.54-0.19,1.08-0.28,1.62
	c-0.29-0.24-0.6-0.44-0.91-0.61c-0.61-1.35-1.97-2.29-3.54-2.29c-2.15,0-3.89,1.74-3.89,3.89s1.74,3.89,3.89,3.89
	c0.48,0,0.95-0.09,1.37-0.25c-0.33,0.36-0.54,0.85-0.54,1.39c0,0.03,0,0.07,0,0.1h0.14c0-0.03-0.01-0.06-0.01-0.1
	c0-0.52,0.21-0.99,0.54-1.34c0.33-0.34,0.79-0.55,1.3-0.55c0.37,0,0.7,0.11,0.99,0.3c-0.07,0.51-0.14,1.02-0.2,1.53h1.05
	c0,0.02,0.01,0.04,0.01,0.07c0,0.03,0,0.07,0,0.1h0.14c0-0.03,0.01-0.07,0.01-0.1c0-0.02-0.01-0.04-0.01-0.07h2.98
	c0,0.06,0.01,0.11,0.02,0.16h5.47c-0.01-0.06-0.02-0.11-0.02-0.16h0.1c0.05-0.47,0.1-0.95,0.15-1.42c0.39,0.58,1.05,0.97,1.8,0.97
	c1.2,0,2.18-1,2.18-2.23c0-0.94-0.57-1.74-1.37-2.07c-0.13-0.82-0.83-1.45-1.68-1.45c-0.11,0-0.21,0.01-0.31,0.03
	c1-6.72,2.5-13.36,4.57-19.78c0.02,0.52,0.45,0.94,0.98,0.94c0.54,0,0.98-0.44,0.98-0.98s-0.44-0.98-0.98-0.98
	c-0.31,0-0.59,0.15-0.77,0.37c4.39-13.42,11.22-25.87,20.91-36.13c10.63-11.21,25.08-18.54,40.56-20.12
	c15.27-1.78,31.78,2.08,42.54,13.14c9.33,9.57,13.61,24.19,9.77,37.11l-0.18-0.04c-0.15,0.75-0.34,1.5-0.56,2.23
	c-0.4,1.07-0.86,2.14-1.39,3.17c-0.33,0.7-0.69,1.38-1.07,2.06c-1.15,1.72-2.6,3.23-4.35,4.38c-3.8,3.07-9.64,3.2-12.12-1.35
	c-3.06-4,1.79-10.6,6.54-8.28c2.12,0.97,3.19,4.03,1.66,6.04c-1.51,2.05-5.34,1.64-5.67-1.27c0.16,2.92,4.16,3.65,5.91,1.48
	c1.78-2.11,0.79-5.58-1.61-6.82c-5.36-2.94-11.34,4.47-7.97,9.48c1.32,2.38,3.7,4.27,6.56,4.6c2.11,0.09,4.04-0.4,5.82-1.22
	c-8.14,8.56-20.52,13.39-32.1,9.8c-14.98-3.89-26.06-22.45-18.01-37.07c3.57-6.97,11.02-12.3,19.04-12.43
	c8.08-0.42,15.84,5.11,18.63,12.76c-2.57-7.72-10.27-13.62-18.64-13.41c-8.33-0.08-16.19,5.21-20.17,12.46
	c-8.92,15.24,2.19,35.47,18.38,40.15c16.58,5.55,35.01-4.59,42.62-19.63c5-9.29,5.53-20.2,2.59-30.17
	c6.11,3.69,12.82,4.82,20.91,3.89c5.41-0.77,10.75-2.85,14.88-7.12C273.02,132.27,274.59,126.53,273.88,121.09z M97.65,176.64
	c0.03-0.29,0.15-0.54,0.33-0.73c0.04-0.04,0.09-0.08,0.13-0.11c0.58,0.63,0.91,1.04,0.9,1.03c0.01,0.01-0.25-0.43-0.73-1.14
	c0.16-0.08,0.34-0.13,0.53-0.13c0.33,0,0.62,0.13,0.83,0.35c0.21,0.22,0.34,0.52,0.34,0.85c0,0.33-0.13,0.63-0.34,0.85
	c-0.21,0.22-0.5,0.35-0.83,0.35c-0.07,0-0.13-0.01-0.2-0.02C98.32,177.51,98,177.08,97.65,176.64z M96.85,194.11
	c-1,0-1.91-0.41-2.57-1.06c-0.66-0.66-1.06-1.56-1.06-2.57c0-1,0.41-1.91,1.06-2.57c0.66-0.66,1.57-1.06,2.57-1.06
	s1.91,0.41,2.57,1.06c0.24,0.24,0.44,0.5,0.6,0.79c-0.86-0.37-1.63-0.49-1.73-0.49c-0.38-0.03-0.67,0.29-0.66,0.7
	c0.01,0.41,0.27,0.78,0.56,0.8c0.11,0.02,1.16-0.11,2.26,0.26c0.02,0.17,0.04,0.33,0.04,0.5c0,1-0.41,1.91-1.06,2.57
	C98.76,193.71,97.86,194.11,96.85,194.11z M100.68,193.76c-0.3-0.18-0.64-0.29-1.01-0.29c-0.13,0-0.26,0.01-0.38,0.04
	c0.88-0.71,1.45-1.8,1.45-3.03c0-0.13-0.01-0.26-0.02-0.39c0.11,0.04,0.21,0.09,0.31,0.14c0.05,0.03,0.1,0.05,0.15,0.08
	C101,191.46,100.84,192.61,100.68,193.76z M105.03,168.42c-0.04,0.45-0.04,0.91-0.02,1.38c-0.29-0.1-0.5-0.37-0.5-0.69
	C104.5,168.78,104.72,168.5,105.03,168.42z M103.79,153.79c0.7,0.7,1.14,1.67,1.14,2.75c0,0.09-0.01,0.18-0.02,0.27
	c-0.02,0.02-0.04,0.05-0.06,0.07c-0.58-1.05-1.26-1.75-1.61-1.7c-0.79-0.38-1.55,0.02-1.6,0.58c-0.07,0.61,0.25,1.15,0.63,1.33
	c0.14-0.11,0.88,0.4,1.52,1.45c-0.15,0.32-0.3,0.68-0.43,1.08c0,0.01-0.01,0.03-0.01,0.04c-0.65,0.48-1.44,0.76-2.31,0.76
	c-1.08,0-2.05-0.43-2.75-1.14c-0.71-0.71-1.14-1.68-1.14-2.75s0.43-2.05,1.14-2.75c0.1-0.1,0.21-0.19,0.32-0.28
	c0.49,0.04,0.99-0.02,1.42-0.17c0.44-0.14,0.85-0.37,1.2-0.68C102.23,152.71,103.13,153.13,103.79,153.79z M99.09,153.18
	c0.43-0.25,0.9-0.42,1.41-0.49c-0.19,0.12-0.39,0.22-0.59,0.3C99.66,153.09,99.38,153.15,99.09,153.18z M100.78,181.46
	c-0.1,0-0.19-0.02-0.27-0.05c-0.1-0.24-0.24-0.55-0.41-0.9c0.1-0.29,0.37-0.5,0.69-0.5c0.15,0,0.28,0.04,0.39,0.12
	c-0.02,0-0.04-0.01-0.06-0.01c-0.3,0-0.55,0.25-0.55,0.56c0,0.31,0.25,0.57,0.55,0.57c0.08,0,0.16-0.02,0.22-0.05
	C101.21,181.36,101.01,181.46,100.78,181.46z M101.51,180.75c-0.03,0.2-0.19,0.35-0.39,0.35c-0.23,0-0.41-0.19-0.41-0.42
	c0-0.23,0.18-0.42,0.41-0.42c0.15,0,0.27,0.08,0.34,0.21c0.03,0.08,0.05,0.17,0.05,0.26C101.51,180.74,101.51,180.75,101.51,180.75z
	 M104.62,174.38c-2.59-6.07-6.07-11.73-10.57-16.69c-1.05-1.74-1.57-3.79-1.22-5.83c0.38-3,3-5.25,6.04-4.8
	c1.43,0.13,2.82,1,3.05,2.48c0.22,1.06-0.24,2.16-1.03,2.86c-0.86,0.03-1.64,0.32-2.29,0.79c-1.03-0.05-2.05-0.56-2.27-1.64
	c-0.26-1.59,1.56-2.88,3.03-2.15c-1.42-0.8-3.41,0.41-3.21,2.18c0.19,1.1,1.1,1.71,2.11,1.89c-0.84,0.76-1.37,1.85-1.37,3.07
	c0,2.29,1.86,4.15,4.15,4.15c0.81,0,1.56-0.24,2.2-0.64c-0.46,1.64-0.54,3.65-0.31,5.55c0.04,0.37,0.1,0.73,0.16,1.09
	c-0.4-0.37-0.77-0.56-0.86-0.5c-0.39-0.11-0.73,0.13-0.76,0.52s0.13,0.78,0.34,0.84c0.12-0.04,1.22,0.17,1.63,1.49
	c0.42,1.23,0.25,2.64,0.25,2.62c-0.01,0,0.19-0.45,0.33-1.14c0.41,1.29,0.8,2.23,0.96,2.61
	C104.85,173.56,104.74,173.97,104.62,174.38z M104.99,173.09c-0.13-0.52-0.45-1.87-0.66-3.58c0.12,0.28,0.38,0.5,0.69,0.56
	c0.02,0.34,0.05,0.68,0.1,1.01c0.05,0.35,0.1,0.7,0.17,1.03C105.18,172.44,105.08,172.76,104.99,173.09z M105.93,170
	c0.01-0.08,0.01-0.16,0.02-0.24c0.03-0.03,0.05-0.05,0.08-0.09C106,169.78,105.96,169.89,105.93,170z M106.21,169.13
	c0-0.01,0-0.01,0-0.02c0-0.14-0.03-0.27-0.08-0.39c0.25-1.02,0.65-1.82,0.99-2.28C106.81,167.34,106.5,168.23,106.21,169.13z
	 M112.98,190.85c0.23,0.1,0.44,0.25,0.61,0.43c0.37,0.38,0.6,0.9,0.6,1.48c0,0.58-0.23,1.1-0.6,1.47s-0.88,0.61-1.44,0.61
	c-0.56,0-1.07-0.23-1.44-0.61c-0.13-0.13-0.24-0.29-0.33-0.46c0.05-0.43,0.1-0.86,0.15-1.29c0.23,0.11,0.48,0.18,0.75,0.18
	c0.94,0,1.71-0.76,1.71-1.71C112.99,190.92,112.98,190.89,112.98,190.85z M112.73,190.95c0,0.8-0.65,1.45-1.45,1.45
	c-0.26,0-0.5-0.08-0.71-0.2c0.04-0.3,0.08-0.6,0.12-0.9c0.01-0.01,0.01-0.02,0.02-0.03c0.37-0.38,0.88-0.61,1.44-0.61
	c0.2,0,0.38,0.04,0.56,0.09C112.72,190.82,112.73,190.89,112.73,190.95z M111.28,189.5c0.68,0,1.24,0.47,1.4,1.1
	c-0.17-0.04-0.35-0.07-0.53-0.07c-0.55,0-1.05,0.21-1.43,0.55c0.07-0.51,0.13-1.02,0.21-1.53
	C111.04,189.52,111.16,189.5,111.28,189.5z M116.51,168.73c0.4,0,0.72,0.33,0.73,0.73c0,0.4-0.33,0.72-0.73,0.73
	c-0.4,0-0.73-0.33-0.73-0.73C115.79,169.05,116.11,168.73,116.51,168.73z M178.72,178.07c-0.16,0.13-0.18,0.39-0.04,0.57
	c0.14,0.18,0.39,0.21,0.55,0.08c0.16-0.14,0.18-0.39,0.04-0.57C179.13,177.97,178.88,177.94,178.72,178.07z M176.91,175.58
	c-0.24,0.15-0.3,0.49-0.12,0.74c0.17,0.26,0.5,0.33,0.74,0.17c0.23-0.17,0.29-0.5,0.12-0.75
	C177.48,175.49,177.15,175.42,176.91,175.58z M95.16,190.52c-0.3,0-0.55,0.25-0.55,0.56c0,0.31,0.25,0.56,0.55,0.56
	c0.31,0,0.55-0.25,0.55-0.56C95.72,190.78,95.47,190.52,95.16,190.52z M95.16,191.51c-0.22,0-0.41-0.19-0.41-0.42
	c0-0.23,0.18-0.42,0.41-0.42c0.23,0,0.41,0.19,0.41,0.42C95.57,191.32,95.39,191.51,95.16,191.51z M152.02,143.37
	c-0.58-0.03-3.55-0.61-7.51,0.07c-3.96,0.69-8.51,2.87-12.2,5.78c-5.01,3.87-8.7,8.61-10.61,11.32c-0.33-0.17-0.7-0.28-1.09-0.28
	c-1.3,0-2.35,1.05-2.35,2.35s1.05,2.35,2.35,2.35c0.06,0,0.11-0.01,0.16-0.02c-2.53,3.72-3.65,6.92-3.65,6.87
	c-0.05,0.07,3.81-6.51,9.99-10.28c6.15-4.23,13.25-2.95,13.86-2.81c1.45,0.27,2.94-0.67,3.33-2.07c0.39-1.4-0.84-2.82-2.75-3.15
	c-0.78-0.32-10.29,0.05-16.04,5.94c-0.96,0.86-1.83,1.77-2.61,2.69c-0.11-0.56-0.44-1.05-0.88-1.39c2.28-2.39,6.57-6.46,11.72-9.35
	c7.84-5.03,16.48-3.31,17.13-2.91c1.67,0.52,3.53-0.11,4.14-1.43C155.64,145.77,154.31,144.04,152.02,143.37z M122.1,161.13
	c0.33,0.33,0.54,0.78,0.59,1.28c-0.63,0.76-1.21,1.52-1.72,2.26c-0.11,0.02-0.23,0.04-0.35,0.04c-0.58,0-1.1-0.23-1.48-0.61
	s-0.61-0.9-0.61-1.48c0-0.58,0.23-1.1,0.61-1.48c0.38-0.38,0.9-0.61,1.48-0.61c0.34,0,0.66,0.09,0.94,0.23
	c-0.85,1.23-1.3,1.99-1.3,1.98c-0.02,0.01,0.56-0.69,1.6-1.79C121.94,161,122.02,161.06,122.1,161.13z M153.67,127.29
	c-0.64,0.11-3.96,0.82-7.81,3.01c-3.88,2.12-8.13,5.66-11.67,9.59c-7.18,7.84-11.73,16.92-11.7,16.91
	c-0.04,0.01,5.82-8.36,13.68-14.84c3.88-3.27,8.23-5.93,11.78-7.3c3.54-1.44,6.17-1.62,6.67-1.72c1.99-0.35,3.68-1.54,3.77-3.15
	C158.5,128.23,156.34,126.83,153.67,127.29z"/>
</svg>
