<?xml version="1.0" encoding="utf-8"?>
<!-- Generator: Adobe Illustrator 14.0.0, SVG Export Plug-In  -->
<!DOCTYPE svg PUBLIC "-//W3C//DTD SVG 1.1 Tiny//EN" "http://www.w3.org/Graphics/SVG/1.1/DTD/svg11-tiny.dtd" [
	<!ENTITY ns_flows "http://ns.adobe.com/Flows/1.0/">
]>
<svg version="1.1" baseProfile="tiny"
	 xmlns="http://www.w3.org/2000/svg" xmlns:xlink="http://www.w3.org/1999/xlink" xmlns:a="http://ns.adobe.com/AdobeSVGViewerExtensions/3.0/"
	 x="0px" y="0px" width="112px" height="154px" viewBox="-0.21 -0.34 112 154" xml:space="preserve">
<defs>
</defs>
<path fill-rule="evenodd" fill="#ADADAD" d="M49.36,95.14c-3.18,1.18-7.45,1.84-11.97,2.09c12.47,18.28-5.61,26.03-24.42,23.79
	c1.82,0.86,3.95,1.48,6.42,1.77C38.74,125.1,64.08,114.61,49.36,95.14z"/>
<path fill-rule="evenodd" fill="#ADADAD" d="M56.53,117.4c-2.05,2.65-5.38,5.14-9.32,7.19c8.88,4.6,14.83,17.27-7.69,21.5
	c-3.82,0.72-7.31,1.11-10.49,1.24c4.94,1.93,11.76,2.28,20.45-0.3C74.27,139.65,64.23,118.31,56.53,117.4z"/>
<path fill-rule="evenodd" fill="#ADADAD" d="M7.05,83.68c32.2,18.82,59.53-11.25,29.57-22.38C67.58,64.99,62.52,96.32,25,91.85
	C15.96,90.78,10.16,87.66,7.05,83.68z"/>
<path fill-rule="evenodd" fill="#ADADAD" d="M61.77,83.54c0,0-1.19,25.4,17.66,33.98c-2.9,0.97-2.9,0.97-7.29-0.52l-0.01,0
	c0.95,0.22,1.96,0.39,3.04,0.52C58.09,106.7,57.44,89.86,57.44,89.86C59.46,87.66,60.88,85.55,61.77,83.54z"/>
<path fill-rule="evenodd" fill="#ADADAD" d="M72.13,117c5.6,3.5,6.35,12.66,1.29,19.95c10.66-3.69,12.62-6.05,16.21-9.81
	c-4.25,7.47-14.25,21.98-25.85,17.9c9.46-4.59,15.48-23.84-5.6-30.07c1.62-1.27,1.74-5.65,1.74-5.65S62.96,114.93,72.13,117
	L72.13,117z"/>
<path fill-rule="evenodd" fill="#ADADAD" d="M96.79,110.25c8.67-37.57-33.33-47.5-10.51-85.23c-2.45,9.91-5.71,21.23-2.04,29.71
	C99.24,84.06,103.82,80.22,96.79,110.25z"/>
<path fill-rule="evenodd" fill="#ADADAD" d="M89.81,127.51c2.33,4.52,7.18,5.01,14.43-2.04l0,0.02
	c-5.07,8.23-13.69,13.02-18.99,12.39L89.81,127.51z"/>
<path fill-rule="evenodd" fill="#231F20" d="M103.55,84.71c-0.29-10.95-3.82-14.82-11.45-24.51s-4.36-28.72-3.37-32.07
	c0.98-3.3,10.02-23.82-4.97-27.57C68.78-3.19,51.75,12.68,51.5,27.95c-0.25,15.36,8.89,18.91,4.95,27.73
	c-2.06,2.92-9.56-1.14-19.42-2.31c-15.29-3.31-50.93,9-29.58,36.13c-10.64,6.69-11.92,32.72,9.8,38.42c0,0-10.08,35.52,39.43,21.99
	c13.4,3.72,25.98-8.08,25.98-8.08C120.79,137.72,114.01,90.74,103.55,84.71z M11.86,92.94c3.39,4.3,26.7,6.2,37.5,2.2
	c14.71,19.46-10.62,29.96-29.98,27.65C0.02,120.49,1.16,98.37,11.86,92.94z M49.48,147.02c-24.79,7.37-34.41-9.13-28.32-17.97
	c10.96,3.07,29.13-3.58,35.38-11.65C64.23,118.31,74.27,139.65,49.48,147.02z M85.25,137.88l6.57-14.92c0,0-12.59,27.51-28.04,22.07
	c9.46-4.59,15.48-23.84-5.6-30.07c1.62-1.27,1.74-5.65,1.74-5.65s3.71,6.83,15.25,8.2C58.09,106.7,57.44,89.86,57.44,89.86
	c17.42-18.95-10.7-30.81-20.82-28.56C67.58,64.99,62.52,96.32,25,91.85c-34.64-4.12-21.79-38.25,8.28-36
	c17.84,2.12,22.62,6.68,27.03,3.22c7.58-8.94-5.35-24.32-4.07-35.08c-0.44-7.5,13.59-24.73,26.13-20.57
	c15.96,4.56-5.63,33.92,1.87,51.31c15,29.33,19.59,25.48,12.55,55.51c4.99-3.93,6.86-15.15,6.86-15.15
	C118.1,120.1,95.48,139.1,85.25,137.88z"/>
</svg>
