<?xml version="1.0" encoding="utf-8"?>
<!-- Generator: Adobe Illustrator 14.0.0, SVG Export Plug-In  -->
<!DOCTYPE svg PUBLIC "-//W3C//DTD SVG 1.1 Tiny//EN" "http://www.w3.org/Graphics/SVG/1.1/DTD/svg11-tiny.dtd" [
	<!ENTITY ns_flows "http://ns.adobe.com/Flows/1.0/">
]>
<svg version="1.1" baseProfile="tiny"
	 xmlns="http://www.w3.org/2000/svg" xmlns:xlink="http://www.w3.org/1999/xlink" xmlns:a="http://ns.adobe.com/AdobeSVGViewerExtensions/3.0/"
	 x="0px" y="0px" width="646px" height="570px" viewBox="-0.43 -0.75 646 570" xml:space="preserve">
<defs>
</defs>
<path fill="#BBBDBF" d="M348.07,407.84l-3.37-0.95l0.95-3.37l-4.49-1.27l-0.95,3.37l-3.37-0.95l-1.27,4.49l3.37,0.95l-0.87,3.08
	c0.99-0.17,1.95-0.21,2.86-0.09c0.65,0.08,1.2,0.51,1.71,1.08l0.8-2.8l3.37,0.95L348.07,407.84z M405.32,304.59l-4.49-1.27
	l-0.95,3.36l-3.37-0.96l-1.27,4.49l3.37,0.95l-0.96,3.37l4.5,1.27l0.95-3.37l3.37,0.95l1.27-4.49l-3.36-0.95L405.32,304.59z
	 M281.38,501.63c0.63,0.09,1.29,0.11,1.97,0.08l-1.84-0.52L281.38,501.63z M351.02,384.56l3.37,0.96l1.27-4.49l-3.36-0.96l0.95-3.36
	l-4.48-1.27l-0.96,3.36l-3.36-0.95l-1.27,4.49l3.37,0.95l-0.96,3.37l4.48,1.27L351.02,384.56z M421.58,341.78l-3.36-0.96l-1.27,4.5
	l3.36,0.95l-0.95,3.37l4.49,1.27l0.95-3.37l3.36,0.96l1.27-4.5l-3.36-0.95l0.95-3.37l-4.49-1.27L421.58,341.78z M389.95,453.5
	l-0.95,3.36l4.49,1.27l0.96-3.36l2.89,0.82c-0.11-0.52-0.12-0.93,0.14-1.06c-1.36-2.04-2.52-3.49-3.49-4.35
	c-0.95-0.84-1.81-1.4-2.59-1.73l-0.16,0.56l-3.37-0.95l-1.27,4.49L389.95,453.5z M617.87,314.36c0.29,0.17,0.82,0.33,1.61,0.5
	c0.78,0.16,1.3,0.03,1.56-0.4c0.43-0.73,0.58-1.48,0.44-2.25c-0.14-0.78-0.42-1.28-0.86-1.54c-0.1-0.06-0.19-0.08-0.29-0.12
	l-0.16,0.59l-2.5-0.71c-0.4,0.25-0.77,0.58-1.08,1.11c-0.18,0.3-0.11,0.52,0.18,0.7C616.91,313.31,617.28,314.01,617.87,314.36z
	 M392.29,333.49l-3.37-0.96l-1.27,4.49l3.36,0.95l-0.95,3.36l4.5,1.27l0.95-3.36l3.37,0.95l1.27-4.5l-3.36-0.95l0.95-3.37l-4.5-1.27
	L392.29,333.49z M427.91,319.47l-0.95,3.36l4.49,1.27l0.48-1.69c-1.69-0.85-2.67-1.25-2.85-1.15c-0.85-1.57-0.81-3.48,0.11-5.75
	c0.58-1.43,1.44-2.53,2.43-3.48l-1.47-0.41l-0.96,3.36l-3.36-0.95l-1.27,4.49L427.91,319.47z M414,368.59l-3.36-0.95l-1.27,4.49
	l3.37,0.96l-0.96,3.36l4.49,1.27l0.95-3.36l3.37,0.95l1.27-4.49l-3.36-0.95l0.95-3.37l-4.49-1.28L414,368.59z M358.62,357.76
	l3.36,0.95l1.28-4.48l-3.37-0.96l0.95-3.37l-4.48-1.27L355.4,352l-3.37-0.96l-1.27,4.49l3.36,0.96l-0.95,3.36l4.48,1.27
	L358.62,357.76z M384.7,360.3l-3.37-0.95l-1.27,4.49l3.37,0.95l-0.95,3.36l4.49,1.28l0.95-3.37l3.37,0.96l1.27-4.49l-3.37-0.95
	l0.96-3.37l-4.49-1.27L384.7,360.3z M547.11,263.77l0.07-0.24c-0.59-0.26-1.03-0.38-1.15-0.17c0.14,0.08,0.35,0.15,0.61,0.2
	C546.79,263.6,546.95,263.69,547.11,263.77z M407.47,279.87l-3.37-0.95l-1.27,4.49l3.37,0.95l-0.96,3.37l4.5,1.27l0.96-3.37
	l3.36,0.95l1.27-4.49l-3.36-0.95l0.95-3.37l-4.49-1.27L407.47,279.87z M396.59,430.06l1.04,0.29c-0.06-0.33-0.12-0.62-0.19-0.97
	c-0.09-0.53-0.16-0.94-0.25-1.43L396.59,430.06z M432.13,291.71l1.61,0.45c0.16-0.07,0.31-0.11,0.46-0.18
	c1.37-0.67,2.44-1.66,3.21-2.97c0.84-1.43,1.34-2.69,1.61-3.83l-1.3-0.37l-0.95,3.37l-3.37-0.96L432.13,291.71z M446.39,353.1
	c0.11,0.01,0.23,0,0.33,0.01c1.34,0.15,2.66,0.26,3.96,0.32c1.29,0.06,2.62-0.28,3.99-1.03c-0.42-0.78-0.31-1.16,0.33-1.13
	c0.26,0.01,0.37-0.09,0.46-0.21l0.06-0.22c0-0.19-0.02-0.38-0.18-0.69c-0.53-0.98-1.51-1.64-2.97-1.98c-0.29-0.07-0.6-0.1-0.89-0.17
	l-0.59,2.08l-3.37-0.96L446.39,353.1z M397.12,422.17c-0.08-0.15-0.25-0.38-0.35-0.55l-1.32-0.37l-1.27,4.5l2.76,0.78
	c-0.11-0.59-0.22-1.27-0.32-1.81C396.37,423.34,396.54,422.49,397.12,422.17z M406.41,395.4l-3.37-0.95l-1.27,4.49l3.37,0.95
	l-0.96,3.37l4.5,1.27l0.96-3.37l3.36,0.95l1.27-4.49l-3.37-0.95l0.96-3.36l-4.49-1.27L406.41,395.4z M487.57,220.53l-0.95,3.37
	l4.49,1.28l0.95-3.36l3.37,0.95l1.28-4.49l-3.37-0.95l0.96-3.38l-4.49-1.27l-0.95,3.36l-3.37-0.96l-1.27,4.5L487.57,220.53z
	 M275.35,329.33l-3.37-0.95l0.96-3.37l-4.49-1.27l-0.96,3.37l-3.36-0.95l-1.27,4.49l3.36,0.95l-0.95,3.37l4.49,1.27l0.95-3.37
	l3.37,0.95L275.35,329.33z M270.45,303.84l3.37,0.96l-0.96,3.36l4.49,1.27l0.95-3.37l3.36,0.95l1.28-4.49l-3.36-0.95l0.96-3.37
	l-4.49-1.27l-0.95,3.37l-3.37-0.96L270.45,303.84z M267.75,356.14l-3.36-0.95l0.96-3.37l-4.5-1.27l-0.95,3.37l-3.37-0.96l-1.27,4.48
	l3.37,0.96l-0.95,3.36l4.49,1.27l0.95-3.37l3.36,0.95L267.75,356.14z M288.12,271.4l-4.49-1.27l-0.95,3.37l-3.37-0.96l-1.27,4.5
	l3.37,0.95l-0.96,3.37l4.49,1.27l0.95-3.36l3.36,0.95l1.28-4.48l-3.37-0.96L288.12,271.4z M228.39,353.48l4.48,1.27l0.96-3.37
	l1.48,0.42c0.06-0.33,0.02-0.66,0.21-0.99c0.16-0.27,0.42-0.34,0.68-0.42c0.1,0.62,0.11,1.16,0.11,1.69l0.88,0.25l1.27-4.49
	l-3.37-0.96l0.95-3.36l-4.49-1.26l-0.95,3.36l-3.37-0.96l-1.27,4.49l3.37,0.96L228.39,353.48z M137.27,468.83l3.36,0.95l1.27-4.49
	l-3.36-0.95l0.95-3.37l-4.48-1.27l-0.96,3.36l-3.36-0.95l-1.27,4.49l3.37,0.96l-0.96,3.36l4.49,1.27L137.27,468.83z M305.71,222.1
	l-3.37-0.95l0.73-2.56c-0.26-0.21-0.56-0.29-0.8-0.53c0.11-0.11,0.01-0.35-0.07-0.58l-3.4-0.96l-0.96,3.37l-3.37-0.96l-1.27,4.48
	l3.37,0.96l-0.96,3.36l4.5,1.27l0.95-3.37l3.36,0.96L305.71,222.1z M250.09,388.58l4.49,1.27l0.95-3.37l3.37,0.95l1.27-4.49
	l-3.36-0.95l0.95-3.36l-4.49-1.27l-0.96,3.37l-3.37-0.96l-1.27,4.49l3.36,0.96L250.09,388.58z M181.49,394.48l3.36,0.95l-0.95,3.37
	l4.49,1.27l0.95-3.37l3.37,0.95l1.27-4.49l-3.37-0.95l0.95-3.36l-4.49-1.28l-0.95,3.37l-3.36-0.95L181.49,394.48z M292.42,367.97
	l3.37,0.95l1.28-4.48l-3.37-0.95l0.95-3.37l-4.49-1.27l-0.95,3.37l-3.37-0.96l-1.27,4.49l3.37,0.96l-0.96,3.36l4.49,1.27
	L292.42,367.97z M500.15,278.17c0.57-0.21,0.91-0.41,1.4-0.61l-1.96-0.55l-0.35,1.25C499.54,278.22,499.8,278.3,500.15,278.17z
	 M512.81,260.27l0.07-0.23c-0.07-0.16-0.1-0.31-0.21-0.51c-0.37-0.71-0.77-1.19-1.21-1.45c-1.03-0.6-1.87-0.87-2.61-0.93l-0.53,1.86
	L512.81,260.27z M460.3,207.44c0.43,0.26,0.74,0.25,0.91-0.05c0.15,0.09,0.23,0.19,0.26,0.3c0.03,0.11,0.12,0.22,0.26,0.3
	c0.78,0.46,1.61,0.58,2.47,0.42l0.78-2.76l-4.5-1.27l-0.74,2.62C459.91,207.16,460.07,207.31,460.3,207.44z M503.29,276.79
	c0.15-0.07,0.39-0.15,0.53-0.23c0.07-0.8,0.09-1.44,0.08-1.94L503.29,276.79z M329.05,320.43l3.36,0.95l-0.95,3.37l4.49,1.27
	l0.96-3.37l3.37,0.96l1.27-4.49l-3.37-0.96l0.96-3.36l-4.5-1.27l-0.95,3.37l-3.36-0.96L329.05,320.43z M240.08,411.06l3.37,0.96
	l-0.95,3.37l4.49,1.27l0.95-3.36l3.37,0.95l1.27-4.49l-3.36-0.95l0.95-3.36l-4.49-1.27l-0.96,3.36l-3.36-0.95L240.08,411.06z
	 M539.64,259.38c0.09,0.13,0.12,0.29,0.26,0.38c0.29,0.17,0.66,0.29,1.11,0.36c0.46,0.07,0.89,0.23,1.33,0.49
	c-0.25,0.43,0.2,1,1.36,1.68c1.16,0.68,1.88,0.8,2.13,0.37c0.17-0.29,0.11-0.52-0.18-0.69c-0.44-0.26-0.73-0.34-0.89-0.23
	c-0.17,0.1-0.38,0.07-0.68-0.1c-0.29-0.17-0.92-0.68-1.88-1.55c-0.96-0.86-1.35-1.43-1.18-1.72c-0.3-0.18-0.54-0.27-0.73-0.28
	c-0.02,0-0.03-0.02-0.05-0.02l-0.39,1.38L539.64,259.38z M333.95,345.93l-3.37-0.95l0.96-3.37l-4.5-1.27l-0.95,3.37l-3.36-0.95
	l-1.27,4.49l3.37,0.95l-0.96,3.37l4.49,1.27l0.95-3.36l3.37,0.95L333.95,345.93z M321.72,376.27l3.37,0.95l1.27-4.49l-3.37-0.95
	l0.95-3.37l-4.49-1.27l-0.95,3.37l-3.36-0.96l-1.27,4.49l3.36,0.95l-0.95,3.37l4.48,1.27L321.72,376.27z M416.13,137.54l-3.37-0.95
	l-1.27,4.48l3.36,0.95l-0.95,3.37l4.49,1.27l0.95-3.38l3.37,0.96l1.27-4.49l-3.37-0.95l0.96-3.37l-4.48-1.27L416.13,137.54z
	 M97.42,510.6l-3.36-0.95l0.95-3.37l-4.49-1.27l-0.95,3.37l-3.37-0.96l-1.27,4.49l3.37,0.95l-0.95,3.37l4.48,1.27l0.95-3.37
	l3.37,0.96L97.42,510.6z M333.98,88.88c-0.57-0.34-0.88-0.82-0.92-1.44c-0.03-0.6-0.27-1.04-0.71-1.29
	c-0.08-0.05-0.16-0.07-0.24-0.11l-0.94,3.34l3.37,0.95l-0.95,3.37l4.5,1.27l0.95-3.37l3.36,0.96l1.27-4.49l-3.36-0.95l0.11-0.39
	c-0.45,0.16-0.9,0.35-1.32,0.45c-0.69,0.18-1.09,0.34-1.18,0.5c-0.46-0.64-1.18-1.35-2.04-2.1l-0.08,0.28l-3.06-0.86
	c0.58,0.56,1.16,1.13,1.78,1.71c0.83,0.78,1.41,1.37,1.76,1.77C335.78,89.34,335.01,89.47,333.98,88.88z M158.98,503.93l3.37,0.95
	l1.27-4.49l-3.37-0.96l0.96-3.37l-4.49-1.27l-0.96,3.36l-3.37-0.95l-1.27,4.49l3.36,0.96l-0.96,3.36l4.49,1.27L158.98,503.93z
	 M188.28,512.22l3.36,0.95l1.27-4.49l-3.37-0.96l0.95-3.37l-4.48-1.27l-0.95,3.37l-3.37-0.95l-1.27,4.49l3.37,0.96l-0.95,3.37
	l4.49,1.27L188.28,512.22z M142.89,548.8c0.21,0.32,0.38,0.71,0.5,1.17c-0.46,0.12-1.03,0.76-1.71,1.93c-0.69,1.17-0.93,2-0.74,2.5
	c0.19,0.5,0.65,0.98,1.38,1.41c0.32-0.2,0.65-0.6,0.99-1.18c0.34-0.58,0.72-1.15,1.14-1.69c0.24-0.32,0.56-0.49,0.85-0.71l0.72-2.54
	L142.89,548.8z M410.43,256.6l3.37,0.95l-0.95,3.37l4.49,1.27l0.95-3.37l3.37,0.95l1.27-4.48l-3.36-0.96l0.95-3.37l-4.49-1.27
	l-0.95,3.37l-3.37-0.96L410.43,256.6z M400.95,191.16l-3.37-0.96l-1.27,4.49l3.37,0.96l-0.95,3.37l4.49,1.27l0.95-3.36l3.37,0.95
	l1.28-4.49l-3.37-0.95l0.95-3.36l-4.48-1.27L400.95,191.16z M364.32,238.7l-3.37-0.95l0.95-3.38l-4.49-1.27l-0.95,3.37l-3.36-0.95
	l-1.27,4.49l3.36,0.95l-0.95,3.37l4.49,1.27l0.95-3.36l3.37,0.95L364.32,238.7z M357.52,120.94l-3.37-0.95l-1.26,4.49l3.37,0.95
	l-0.95,3.37l4.49,1.27l0.96-3.36l3.37,0.95l1.27-4.49l-3.37-0.95l0.95-3.37l-4.49-1.28L357.52,120.94z M207.61,544.17
	c0.09-0.14,0.12-0.27,0.08-0.39c-0.02-0.12,0.04-0.32,0.21-0.61c0.11-0.19,0.45-0.42,0.89-0.67c0.03,0.02,0.07,0.06,0.1,0.07
	c1.16,0.69,1.92,0.73,2.26,0.15c0.4-0.67,0.3-1.22-0.19-1.66c0.37-0.38,0.73-0.83,1.05-1.38c0.05-0.09,0.07-0.16,0.12-0.25
	l-4.4-1.24l-0.96,3.37l-3.37-0.96l-1.27,4.49l2.2,0.62c-0.15-0.12-0.29-0.24-0.43-0.37c0.58-0.14,1.11-0.31,1.56-0.53
	C206.29,544.42,207,544.21,207.61,544.17z M389.78,105.97l3.37,0.95l-0.95,3.36l4.48,1.28l0.96-3.37l3.37,0.95l1.27-4.49l-3.37-0.95
	l0.71-2.5c-0.35-0.24-0.55-0.61-0.6-1.1l-3.65-1.02l-0.95,3.35l-3.37-0.95L389.78,105.97z M253.64,294.23l-3.37-0.96l0.95-3.36
	l-4.49-1.27l-0.95,3.37l-3.37-0.95l-1.28,4.49l3.37,0.95l-0.95,3.37l4.48,1.27l0.96-3.36l3.37,0.96L253.64,294.23z M328.22,112.65
	l-3.36-0.95l-1.27,4.48l3.37,0.95L326,120.5l4.49,1.27l0.96-3.37l3.36,0.95l1.27-4.48l-3.36-0.96l0.95-3.37l-4.48-1.28
	L328.22,112.65z M431.91,0c-0.14,0.02-0.33,0.02-0.46,0.04c-0.71,0.08-1.43,0.56-2.14,1.3l2.06,0.58L431.91,0z M307.7,537.56
	l-2.19-0.62c-0.11,0.13-0.23,0.21-0.33,0.38c-0.19,0.67-0.38,1.3-0.53,1.9c-0.15,0.6,0.13,1.11,0.86,1.54
	c0.68,0.3,1.24,0.39,1.74,0.31l-0.5-0.14L307.7,537.56z M440.79,149.37l3.37,0.95l-0.96,3.37l4.5,1.27l0.95-3.38l3.37,0.96l1.27-4.5
	l-3.37-0.95l0.96-3.37l-4.49-1.28l-0.95,3.36l-3.37-0.95L440.79,149.37z M430.25,199.45l-3.37-0.95l-1.27,4.48l3.37,0.95l-0.96,3.37
	l4.49,1.27l0.96-3.36l3.37,0.95l1.26-4.49l-3.36-0.96l0.95-3.36l-4.5-1.26L430.25,199.45z M180.69,539.03l3.37,0.95l1.27-4.49
	l-3.37-0.96l0.96-3.36l-4.49-1.27l-0.96,3.37l-3.36-0.95l-1.27,4.49l3.36,0.95l-0.95,3.37l4.48,1.27L180.69,539.03z M473.91,162.39
	c0.13-0.16,0.41-0.37,0.49-0.5c0.25-0.45,0.23-0.75-0.06-0.92l1.21-1.05c-0.79-0.31-1.52-0.55-2.24-0.8l-0.81,2.87L473.91,162.39z
	 M308.41,169.79l3.36,0.95l-0.96,3.37l4.5,1.27l0.95-3.37l3.36,0.95l1.27-4.49l-3.35-0.95l0.95-3.36L314,162.9l-0.95,3.36
	l-3.37-0.95L308.41,169.79z M284.83,394.78l3.37,0.96l1.27-4.49l-3.37-0.96l0.95-3.37l-4.48-1.27l-0.96,3.36l-3.37-0.96l-1.28,4.49
	l3.37,0.95l-0.95,3.36l4.49,1.27L284.83,394.78z M269.38,419.36l3.37,0.96l-0.95,3.36l4.49,1.27l0.96-3.36l3.37,0.95l1.27-4.49
	l-3.37-0.96l0.96-3.36l-4.49-1.27l-0.95,3.37l-3.36-0.95L269.38,419.36z M244.98,436.56l-3.36-0.95l0.96-3.37l-4.49-1.27l-0.95,3.37
	l-3.37-0.96l-1.27,4.49l3.36,0.96l-0.95,3.36l4.49,1.28l0.95-3.36l3.36,0.95L244.98,436.56z M230.72,457.84l-0.23-0.06l-0.08,0.29
	C230.51,458.01,230.62,457.92,230.72,457.84z M311.87,393.95l-0.58,2.05c0.13,0.04,0.25,0.11,0.4,0.12c0.65,0.03,1.39,0,2.23-0.07
	c0.69-0.06,1.42,0.07,2.15,0.23l0.31-1.06L311.87,393.95z M226.42,460.26l-0.25-0.08l-0.05,0.21
	C226.23,460.36,226.31,460.3,226.42,460.26z M208.1,455.07l-3.37-0.95l0.96-3.37l-4.49-1.27l-0.96,3.37l-3.36-0.95l-1.27,4.48
	l3.37,0.96l-0.96,3.36l4.49,1.27l0.95-3.37l2.82,0.8c0.06-0.12,0.05-0.24,0.13-0.37c0.16-0.26,0.45-0.47,0.76-0.67L208.1,455.07z
	 M377.11,387.1l-3.37-0.95l-1.27,4.48l3.37,0.96l-0.96,3.37l4.49,1.27l0.96-3.36l3.36,0.95l1.27-4.49l-3.37-0.95l0.96-3.37
	l-4.49-1.27L377.11,387.1z M271.73,441.03l0.14-0.49l-4.49-1.27l-0.96,3.37l-3.36-0.95l-1.27,4.49l3.37,0.96l-0.39,1.38
	c1.05-0.65,1.53-1.79,1.33-3.48c-0.2-1.78,0.48-3.08,2.04-3.93C269.72,440.24,270.9,440.25,271.73,441.03z M366.2,330.95l3.37,0.95
	l1.27-4.5l-3.37-0.95l0.95-3.36l-4.48-1.27l-0.96,3.36l-3.37-0.95l-1.27,4.49l3.37,0.96l-0.95,3.36l4.48,1.27L366.2,330.95z
	 M304.65,337.63l-3.37-0.95l0.96-3.36l-4.49-1.28l-0.95,3.37l-3.37-0.96l-1.27,4.49l3.37,0.95l-0.96,3.36l4.49,1.27l0.96-3.36
	l3.37,0.96L304.65,337.63z M570.95,502.33c1.11,0.66,2.09,1.07,2.95,1.25c0.07,0.01,0.16,0.05,0.24,0.07l0.72-2.55
	c-1.16-0.06-2.36,0-3.64,0.33l0.45,0.14C571.78,501.76,571.54,502.02,570.95,502.33z M129.68,495.63l3.36,0.95l1.28-4.49l-3.37-0.95
	l0.96-3.37l-4.49-1.27l-0.95,3.37l-3.37-0.95l-1.27,4.49l3.37,0.95l-0.96,3.37l4.49,1.27L129.68,495.63z M174.16,450.31l3.37,0.95
	l1.27-4.49l-3.36-0.96l0.95-3.36l-4.49-1.27l-0.96,3.36l-3.36-0.95l-1.27,4.49l3.36,0.95l-0.95,3.37l4.49,1.28L174.16,450.31z
	 M0.11,170.05c0.04,0.04,0.15,0.03,0.19,0.07l0.19-0.64l2.76,0.78c0.23-0.03,0.47-0.1,0.7-0.15l0.76-2.7
	c-0.07,0-0.16-0.01-0.22-0.01c-0.85,0.06-2,0-3.41-0.18C0.13,168.79-0.2,169.73,0.11,170.05z M423.61,222.89l-0.95,3.37l-3.37-0.95
	l-1.27,4.49l3.37,0.95l-0.96,3.36l4.49,1.27l0.95-3.36l3.37,0.96l0.31-1.12c-0.14-0.12-0.3-0.21-0.43-0.36
	c-0.26,0.44-0.53,0.58-0.83,0.4c-0.58-0.34-1.08-0.92-1.48-1.75c-0.39-0.83-0.67-1.68-0.85-2.56c-0.17-0.88-0.4-1.91-0.71-3.06
	c0.2-0.34,0.65-0.6,1.24-0.82L423.61,222.89z M346.72,287.99l-4.49-1.27l-0.95,3.36l-3.36-0.95l-1.27,4.48l3.36,0.95l-0.95,3.36
	l4.49,1.27l0.95-3.37l3.37,0.95l1.27-4.49l-3.36-0.96L346.72,287.99z M610.78,342.29c0.18-0.82,0.22-1.61,0.02-2.37
	c-0.28-1.05-0.82-2-1.51-2.89L609.2,337l-1.27,4.49L610.78,342.29z M378.44,300.6l-3.37-0.95l0.95-3.37l-4.48-1.27l-0.96,3.36
	l-3.36-0.95l-1.28,4.49l3.37,0.96l-0.95,3.36l4.48,1.27l0.96-3.36l3.37,0.96L378.44,300.6z M349.93,147.75l-3.37-0.95l-1.26,4.49
	l3.36,0.95l-0.96,3.37l4.49,1.27l0.95-3.37l3.37,0.96l1.28-4.49l-3.37-0.95l0.95-3.36l-4.49-1.27L349.93,147.75z M166.58,477.12
	l3.36,0.95l1.27-4.5l-3.36-0.95l0.95-3.36l-4.5-1.27l-0.95,3.36l-3.36-0.95l-1.27,4.5l3.36,0.95l-0.95,3.37l4.49,1.27L166.58,477.12
	z M253.17,154.16l-0.07,0.25c0.12-0.01,0.22,0,0.34,0c0.79-0.02,1.37-0.32,1.71-0.91c0.5-0.49,0.89-1,1.19-1.51
	c0.3-0.51,0.7-1.01,1.18-1.51c-0.56-0.72-0.77-1.67-0.66-2.89c0.02-0.33-0.22-0.64-0.33-0.97l-1.14-0.32l-0.96,3.36l-3.35-0.95
	l-1.28,4.49L253.17,154.16z M126.72,518.9l-3.36-0.95l0.96-3.36l-4.49-1.27l-0.95,3.37l-3.37-0.96l-0.13,0.48
	c0.06-0.01,0.12-0.03,0.19-0.04c0.89,1.5,1.74,2.98,2.55,4.44c0.77,1.37,0.68,2.81-0.1,4.31l3.13,0.89l0.95-3.37l3.36,0.95
	L126.72,518.9z M251.16,179.03c0.66,1.22,1.62,1.92,2.81,2.24l0.73-2.57l-3.37-0.95l0.96-3.36l-0.15-0.04
	c-0.45,0.42-0.94,0.85-1.31,1.26C250.21,176.33,250.32,177.46,251.16,179.03z M313.3,195.29l-3.36-0.95l0.95-3.36l-4.48-1.27
	l-0.96,3.36l-3.36-0.96l-1.28,4.49l3.37,0.96l-0.95,3.37l4.49,1.27l0.96-3.36l3.36,0.95L313.3,195.29z M217.32,521.42
	c-0.58-0.7-1.15-1.36-1.79-2.17c-1.01-1.28-1.8-2.68-2.38-4.2c-0.08-0.22-0.04-0.44-0.1-0.67l-2.05-0.58l-1.27,4.49l3.37,0.96
	l-0.96,3.36l4.49,1.28L217.32,521.42z M154.76,531.69l1.27-4.49l-3.37-0.95l0.95-3.37l-4.49-1.26l-0.96,3.36l-3.36-0.95l-1.27,4.49
	l3.36,0.95l-0.96,3.36l4.5,1.28l0.95-3.37L154.76,531.69z M645.2,239.85l0.22-0.77c-0.16,0.03-0.32,0.07-0.43,0.01l-0.13,0.22
	c-0.05,0.08-0.03,0.32-0.06,0.43L645.2,239.85z M195.86,485.42l3.37,0.96l1.27-4.5l-3.38-0.95l0.96-3.36l-4.49-1.27l-0.95,3.37
	l-3.37-0.96l-1.27,4.49l3.37,0.95l-0.96,3.36l4.48,1.27L195.86,485.42z M452.26,127.3c-0.15-0.74-0.41-1.38-0.88-1.87
	c-0.01,0.01-0.14,0.02-0.18,0.03l-0.41,1.42L452.26,127.3z M299.75,312.14l3.36,0.95l-0.95,3.36l4.49,1.27l0.95-3.37l3.37,0.96
	l1.27-4.49l-3.37-0.96l0.95-3.37l-4.49-1.27l-0.96,3.36l-3.37-0.95L299.75,312.14z M561.67,212.38c-0.16,0.02-0.3,0.03-0.48,0.05
	l0.43,0.12L561.67,212.38z M356.73,265.51l-3.37-0.96l0.96-3.36l-4.49-1.28l-0.95,3.37l-3.36-0.95l-1.27,4.49l3.36,0.95l-0.95,3.37
	l4.49,1.27l0.95-3.36l3.37,0.95L356.73,265.51z M388.71,221.5l3.37,0.95l-0.95,3.36l4.48,1.27l0.96-3.36l3.37,0.96l1.27-4.49
	l-3.37-0.95l0.96-3.38l-4.49-1.26l-0.94,3.36l-3.37-0.95L388.71,221.5z M317.42,279.7l-4.49-1.27l-0.96,3.36l-3.36-0.95l-1.27,4.5
	l3.37,0.95l-0.95,3.36l4.49,1.28l0.95-3.36l3.37,0.94l1.27-4.49l-3.37-0.95L317.42,279.7z M335.02,230.4l-3.37-0.95l0.95-3.36
	l-4.49-1.27l-0.96,3.36l-3.36-0.96l-1.27,4.49l3.37,0.96l-0.95,3.37l4.49,1.27l0.95-3.36l3.37,0.95L335.02,230.4z M330.11,204.9
	l3.36,0.95l-0.95,3.37l4.5,1.27l0.95-3.36l3.37,0.95l1.27-4.49l-3.37-0.95l0.96-3.36l-4.5-1.27l-0.95,3.36l-3.37-0.95L330.11,204.9z
	 M327.42,257.2l-3.37-0.95l0.96-3.37l-4.49-1.27l-0.96,3.36l-3.36-0.95l-1.28,4.48l3.37,0.95l-0.95,3.37l4.49,1.27l0.96-3.37
	l3.37,0.95L327.42,257.2z M342.34,174.55l-3.37-0.95l-1.27,4.49l3.36,0.96l-0.95,3.37l4.49,1.26l0.95-3.36l3.37,0.95l1.27-4.49
	l-3.37-0.95l0.96-3.36l-4.49-1.28L342.34,174.55z M557.69,213.55c-0.38,0.22-0.8,0.43-1.09,0.71c0.22,0.22,0.49,0.37,0.73,0.56
	L557.69,213.55z M169.51,559.98l-1.59-0.45c0.04,0.2,0.11,0.31,0.15,0.54c0.28,1.54,0.52,3.14,0.7,4.82
	c0.15,1.27,0.18,2.34,0.2,3.43l0.97,0.28c-0.1-1.32-0.19-2.72-0.28-4.21C169.58,562.88,169.53,561.42,169.51,559.98z M303.76,103.78
	l0.18-0.05l0.43-1.47l-0.72-0.21c-0.04,0.14-0.13,0.26-0.15,0.4C303.39,103.17,303.47,103.61,303.76,103.78z M208.78,549
	c-0.6-1.14-1.48-2.06-2.64-2.74c-0.25-0.14-0.46-0.16-0.65-0.14l-0.93,3.3l2.5,0.71c0.03-0.01,0.07,0,0.1,0
	c0.84-0.09,1.48-0.01,1.92,0.25c0.01,0,0.03,0.04,0.04,0.04l0.19-0.71C209.15,549.48,208.92,549.26,208.78,549z M320.63,139.45
	l-3.37-0.95l-0.66,2.33c0.06,0.24,0.02,0.43,0.12,0.69c0.25,0.62,0.23,1.17,0.21,1.73l2.43,0.69l-0.96,3.37l4.5,1.27l0.96-3.37
	l3.36,0.96l1.27-4.49l-3.37-0.95l0.96-3.36l-4.49-1.27L320.63,139.45z M393.61,246.99l-3.36-0.95l0.95-3.37l-4.49-1.27l-0.95,3.36
	l-3.37-0.96l-1.27,4.49l3.37,0.96l-0.96,3.36l4.49,1.27l0.96-3.36l3.36,0.95L393.61,246.99z M312.29,50.22l-1.55-0.43l-0.46,1.6
	C310.98,51.01,311.65,50.63,312.29,50.22z M422.44,115.22l-0.95,3.37l4.49,1.28l0.95-3.37l3.37,0.95l0.7-2.49
	c-0.26-0.11-0.56-0.22-0.79-0.33c-0.85-0.4-1.34-0.64-1.49-0.72c-1.31-0.77-2-1.52-2.06-2.25c-0.07-0.72-0.02-1.48,0.15-2.26
	c0.1-0.47,0-0.95-0.03-1.43l-2.11-0.59l-0.96,3.36l-3.36-0.96l-1.28,4.49L422.44,115.22z M371.43,71.82l-0.96,3.37l2.23,0.63
	c0-0.26-0.06-0.42-0.04-0.73c0.13-1.89,0.05-2.91-0.24-3.08l-0.13,0.22c-0.59-0.35-0.93-0.69-1.01-1.04
	c-0.08-0.35-0.35-0.65-0.8-0.9c-0.58-0.34-1.31-0.51-2.07-0.64l-0.34,1.21L371.43,71.82z M434.97,89.82l2.92,0.82l1.27-4.49
	l-2.89-0.83c-0.75,0.19-1.4,0.57-1.84,1.33C433.62,88.02,433.86,89.05,434.97,89.82z M349.98,65.75l0.28-0.97
	c-0.19-0.05-0.33-0.16-0.54-0.19c-0.2,0.34-0.3,0.65-0.45,0.96L349.98,65.75z M465.86,185.42l-0.25,0.9
	c0.09-0.03,0.17-0.14,0.26-0.17c0.58-0.15,1.11-0.47,1.61-0.97c-0.25-0.93-0.39-1.6-0.44-2.02c-0.05-0.42-0.44-0.84-1.16-1.27
	c-0.84-0.5-1.62-0.8-2.38-0.98l-1.01,3.56L465.86,185.42z M408.53,164.34l-3.37-0.95l-1.27,4.49l3.37,0.95l-0.96,3.37l4.49,1.27
	l0.95-3.37l3.38,0.95l1.27-4.49l-3.37-0.95l0.96-3.36l-4.48-1.27L408.53,164.34z M437.83,172.64l-3.36-0.95l-1.27,4.49l3.37,0.95
	l-0.95,3.37l4.49,1.26l0.95-3.37l3.37,0.96l1.27-4.49l-3.37-0.95l0.95-3.37l-4.48-1.27L437.83,172.64z M558.26,182.64
	c1.46-0.08,2.47-0.47,2.94-1.27c0.43-0.73,0.43-1.57,0-2.51c-0.05-0.11-0.16-0.2-0.22-0.31l-1.72-0.49l-1.27,4.49L558.26,182.64z
	 M361.75,93.19l-1.28,4.49l3.38,0.95l-0.96,3.37l4.49,1.27l0.96-3.37l3.37,0.95l1.27-4.49l-3.37-0.95l0.95-3.37l-4.49-1.27
	l-0.95,3.35L361.75,93.19z M359.42,213.21l3.36,0.95l-0.96,3.36l4.5,1.27l0.95-3.36l3.37,0.95l1.27-4.48l-3.36-0.95l0.95-3.38
	L365,206.3l-0.95,3.37l-3.36-0.95L359.42,213.21z M386.82,129.24l-3.36-0.95l-1.27,4.48l3.36,0.96l-0.95,3.37l4.48,1.28l0.95-3.38
	l3.37,0.95l1.27-4.48l-3.37-0.96l0.96-3.37l-4.49-1.27L386.82,129.24z M379.23,156.05l-3.36-0.96l-1.27,4.49l3.37,0.96l-0.96,3.37
	l4.49,1.26l0.96-3.36l3.36,0.95l1.28-4.49l-3.37-0.95l0.94-3.37l-4.48-1.28L379.23,156.05z M189.08,367.67l3.37,0.95l-0.96,3.36
	l4.49,1.27l0.96-3.36l3.36,0.95l1.28-4.49l-3.37-0.96l0.95-3.36l-4.49-1.28l-0.96,3.37l-3.35-0.95L189.08,367.67z M371.64,182.86
	l-3.36-0.96l-1.27,4.5l3.36,0.96l-0.95,3.36l4.49,1.27l0.95-3.36l3.37,0.95l1.27-4.49l-3.37-0.96l0.95-3.37l-4.49-1.27
	L371.64,182.86z M282.92,158.32c0.34-0.15,0.49-0.24,0.77-0.38l-3.24-0.91c-0.02-0.01-0.04,0-0.06-0.01l-0.58,2.04
	C280.83,159.01,281.88,158.8,282.92,158.32z M224.08,256.9l-3.36-0.95l-1.28,4.49l3.37,0.96l-0.96,3.37l4.49,1.27l0.96-3.37
	l3.37,0.96l1.26-4.5l-3.37-0.95l0.95-3.36l-4.49-1.27L224.08,256.9z M231.67,230.1l-3.37-0.96l-1.27,4.49l3.36,0.95l-0.96,3.36
	l4.49,1.27l0.95-3.38l3.37,0.96l1.27-4.49l-3.36-0.96l0.95-3.37l-4.49-1.27L231.67,230.1z M185.04,300.13l-0.8-0.23
	c-0.38,0.29-0.79,0.68-1.15,0.87c-0.71,0.38-1.22,0.41-1.53,0.09c-0.65,0.93-1.25,1.75-1.81,2.44c-0.56,0.7-1.25,1.43-2.04,2.2
	c-0.32,0.3-0.68,0.51-1.02,0.75l1.63,0.46l-0.26,0.94c1.3-0.38,2.55-0.76,3.64-1.14c1.27-0.45,2.05-0.83,2.37-1.14
	c0.65-0.63,1.39-1.01,2.18-1.27l-2.17-0.61L185.04,300.13z M177.83,335.52c0.29-0.08,0.6-0.16,0.89-0.26l1.13-4.01l-1.02-0.29
	c-0.25,0.15-0.45,0.27-0.52,0.33c-0.32,0.31-0.55,0.62-0.71,0.93c-0.17,0.31-0.41,0.62-0.73,0.93c-0.31,0.31-0.63,0.3-0.94-0.02
	c-0.47,0.47-0.64,0.94-0.49,1.41c0.04,0.1-0.01,0.19-0.01,0.3L177.83,335.52z M285.99,156.6l-0.09-0.35
	c-0.53,0.39-1.16,0.64-1.89,0.76l-0.25,0.9C285.01,157.3,285.86,156.83,285.99,156.6z M274.33,191.24l-0.4,1.4l1,0.28
	C274.83,192.22,274.62,191.67,274.33,191.24z M211.85,287.25l3.37,0.95l-0.96,3.36l4.49,1.27l0.95-3.37l3.37,0.95l1.27-4.5
	l-3.37-0.95l0.96-3.36l-4.49-1.27l-0.96,3.36l-3.35-0.95L211.85,287.25z M185.85,308.83l0.33,0.09l0.44-1.55
	C186.34,307.86,186.09,308.34,185.85,308.83z M151.6,302.5c0.1,0.1,0.24,0.26,0.36,0.38l0.59,0.17l0.16-0.54
	C152.33,302.48,151.94,302.39,151.6,302.5z M161.29,242.26c1.77,0.18,3.56,0.41,5.33,0.71c1.73,0.3,3.88,0.68,6.27,1.1l0.44-1.53
	l-3.38-0.95l0.54-1.91c-0.51-0.04-1.09,0.03-1.58-0.07c-1.13-0.22-2.1-0.53-2.99-0.86l-0.45,1.56l-3.36-0.95L161.29,242.26z
	 M160.04,388.41l3.36,0.95l1.27-4.5l-3.36-0.95l0.96-3.36l-4.5-1.27l-0.95,3.36l-3.37-0.95l-1.03,3.62
	c0.09,0.22,0.12,0.47,0.04,0.74c-0.02,0.06-0.04,0.13-0.05,0.2l3.13,0.89l-0.95,3.36l4.49,1.27L160.04,388.41z M204.26,314.05
	l3.36,0.95l-0.94,3.37l4.48,1.27l0.96-3.36l3.37,0.95l1.28-4.49l-3.37-0.96l0.96-3.37l-4.49-1.27l-0.95,3.37l-3.36-0.95
	L204.26,314.05z M167.63,361.59l3.36,0.96l1.28-4.49l-3.36-0.95l0.95-3.37l-4.5-1.27l-0.95,3.37l-3.37-0.96l-1.27,4.49l3.37,0.95
	l-0.96,3.36l4.49,1.28L167.63,361.59z M144.86,442.02l3.36,0.95l1.27-4.49l-3.36-0.95l0.95-3.37l-4.49-1.27l-0.95,3.37l-3.37-0.95
	l-1.27,4.49l3.37,0.95l-0.95,3.37l4.49,1.27L144.86,442.02z M187.18,275.41l-3.36-0.95l-1.27,4.49l3.37,0.95l-0.95,3.37l4.49,1.27
	l0.95-3.37l3.36,0.95l1.28-4.49l-3.37-0.95l0.96-3.36l-4.49-1.27L187.18,275.41z M199.08,345.18l4.49,1.27l0.96-3.37l3.37,0.96
	l1.27-4.49l-3.37-0.95l0.96-3.37l-4.5-1.27l-0.95,3.37l-3.36-0.95l-1.27,4.49l3.37,0.95L199.08,345.18z M248.74,268.73l3.36,0.96
	l-0.95,3.36l4.49,1.27l0.95-3.37l3.36,0.96l1.27-4.49l-3.37-0.95l0.95-3.36l-4.49-1.28l-0.96,3.37l-3.37-0.95L248.74,268.73z
	 M239.26,203.29l-3.37-0.95l-1.26,4.49l3.36,0.95l-0.95,3.36l4.49,1.28l0.95-3.37l3.37,0.96l1.27-4.48l-3.37-0.96l0.95-3.36
	l-4.49-1.27L239.26,203.29z M157.08,411.67l-3.36-0.95l0.96-3.37l-1.49-0.42c-0.17,0.33-0.34,0.65-0.41,0.91
	c-0.1,0.33-0.28,0.72-0.54,1.16c-0.43,0.73-1.02,1.16-1.79,1.3c-0.77,0.14-1.47,0.17-2.11,0.08c-0.65-0.08-1.26-0.2-1.86-0.36
	c-0.59-0.15-0.93-0.15-1.02-0.01c-0.08,0.14-0.09,0.25-0.02,0.28c0.08,0.05,0.07,0.14-0.01,0.28c-0.02,0.04-0.13,0.07-0.19,0.11
	l-0.65,2.29l3.37,0.96l-0.95,3.37l4.49,1.27l0.95-3.37l3.37,0.96L157.08,411.67z M374.96,411.82l-4.49-1.27l-0.95,3.37l-3.37-0.95
	l-1.27,4.49l3.37,0.96l-0.95,3.36l1.3,0.37c0.69-0.69,1.26-1.5,1.58-2.57c0.49-1.66,1.41-2.85,2.78-3.59c0.62-0.34,1.29-0.48,2-0.52
	l-0.95-0.27L374.96,411.82z M186.39,419.97l-3.37-0.95l0.96-3.37l-4.49-1.27l-0.96,3.37l-3.36-0.96l-1.27,4.49l3.36,0.95l-0.96,3.36
	l4.49,1.27l0.95-3.36l3.36,0.95L186.39,419.97z M210.79,402.77l3.37,0.95l-0.96,3.37l4.49,1.27l0.95-3.37l3.37,0.96l1.27-4.49
	l-3.37-0.96l0.95-3.37l-4.47-1.26l-0.96,3.36l-3.37-0.95L210.79,402.77z M218.38,375.96l3.37,0.96l-0.95,3.36l4.48,1.27l0.96-3.36
	l3.36,0.96l1.28-4.49l-3.37-0.96l0.95-3.37l-4.48-1.27l-0.95,3.36l-3.37-0.95L218.38,375.96z M203.2,429.58l3.37,0.96l-0.96,3.37
	l4.49,1.26l0.95-3.36l3.37,0.95l1.28-4.48l-3.37-0.96l0.95-3.37l-4.48-1.27l-0.95,3.36l-3.37-0.95L203.2,429.58z M590.59,333.79
	l0.54-1.91l-0.42-0.12C590.55,332.42,590.52,333.1,590.59,333.79z M503.02,195.95l0.29-1.03c-0.41-0.17-0.83-0.35-1.37-0.54
	c-1.37-0.51-2.26-0.39-2.7,0.34c0.2,0.12,0.44,0.23,0.65,0.35L503.02,195.95z M517.64,256.08l0.21-0.74
	c-0.05,0.06-0.12,0.08-0.18,0.18c-0.17,0.29-0.19,0.49-0.04,0.57L517.64,256.08z M554.75,322.37l1.17-0.63
	c-0.34-1.35-0.51-2.5-0.68-3.66l-0.32-0.09l-0.68,2.4C554.36,320.83,554.53,321.49,554.75,322.37z M119.12,432.07
	c-0.02-0.12-0.19-0.26-0.48-0.43c-0.46,0.12-0.85,0.29-1.16,0.49c-0.32,0.21-0.68,0.48-1.09,0.83c0.27,0.27,0.46,0.67,0.61,1.16
	l1.92,0.55l0.63-2.22C119.33,432.31,119.15,432.17,119.12,432.07z M208.69,199.47l-0.95,3.37l4.49,1.27l0.95-3.37l3.37,0.95
	l0.65-2.3c-0.05,0-0.09,0.02-0.14,0.01c-1.88-0.18-3.79-0.57-5.75-1.16c-1.49-0.44-3.32-1.18-5.32-2.06l-0.66,2.33L208.69,199.47z
	 M202.37,221.79l-3.37-0.96l-1.27,4.49l3.37,0.95l-0.96,3.37l4.49,1.27l0.95-3.36l3.36,0.95l1.26-4.49l-3.36-0.95l0.95-3.37
	l-4.49-1.27L202.37,221.79z M195.73,245.24l-0.96,3.36l-3.37-0.96l-1.27,4.49l3.37,0.95l-0.95,3.37l4.48,1.27l0.96-3.36l3.36,0.95
	l1.27-4.49l-3.37-0.96l0.96-3.36L195.73,245.24z M263.92,215.11l3.37,0.96l-0.95,3.37l4.48,1.27l0.95-3.37l3.37,0.95l1.27-4.48
	l-3.37-0.96l0.96-3.37l-4.49-1.27l-0.96,3.37l-3.36-0.95L263.92,215.11z M298.12,248.92l-3.36-0.96l0.95-3.37l-4.49-1.27l-0.95,3.36
	l-3.37-0.95l-1.27,4.5l3.37,0.95l-0.95,3.37l4.49,1.27l0.95-3.37l3.36,0.95L298.12,248.92z M386.02,273.8l-3.37-0.96l0.95-3.36
	l-4.48-1.27l-0.95,3.37l-3.37-0.96l-0.69,2.43c0.71-0.11,1.15-0.2,1.05-0.26c0.1,0.06,0.17,0.14,0.27,0.21
	c-0.49,0.13-0.95,0.32-1.44,0.47l-0.46,1.64l3.37,0.96l-0.95,3.37l4.48,1.26l0.95-3.37l3.37,0.96L386.02,273.8z M266.41,236.3
	l-4.49-1.27l-0.95,3.36l-3.37-0.95l-1.27,4.49l3.37,0.96l-0.95,3.37l4.48,1.27l0.96-3.37l3.37,0.95l1.27-4.49l-3.37-0.95
	L266.41,236.3z M185.33,163.21c0.12,0.25,0.3,0.54,0.49,0.83l1.16,0.33l-0.26,0.92c0.09,0.11,0.13,0.19,0.22,0.3
	c0.76,0.95,0.99,1.58,0.67,1.89c0.49,0.43,0.9,0.73,1.35,1.08l1.55,0.44l0.96-3.37l3.37,0.96l1.26-4.5l-3.36-0.95l0.95-3.36
	l-4.49-1.27l-0.95,3.37l-2.42-0.69C185.61,160.4,185.43,161.68,185.33,163.21z M246.05,321.03l-3.37-0.95l0.96-3.37l-4.49-1.27
	l-0.96,3.37l-3.37-0.95l-1.27,4.48l3.37,0.96l-0.95,3.36l4.48,1.28l0.96-3.37l3.36,0.96L246.05,321.03z"/>
</svg>
