<?xml version="1.0" encoding="utf-8"?>
<!-- Generator: Adobe Illustrator 14.0.0, SVG Export Plug-In  -->
<!DOCTYPE svg PUBLIC "-//W3C//DTD SVG 1.1 Tiny//EN" "http://www.w3.org/Graphics/SVG/1.1/DTD/svg11-tiny.dtd" [
	<!ENTITY ns_flows "http://ns.adobe.com/Flows/1.0/">
]>
<svg version="1.1" baseProfile="tiny"
	 xmlns="http://www.w3.org/2000/svg" xmlns:xlink="http://www.w3.org/1999/xlink" xmlns:a="http://ns.adobe.com/AdobeSVGViewerExtensions/3.0/"
	 x="0px" y="0px" width="257px" height="193px" viewBox="-0.24 -0.71 257 193" xml:space="preserve">
<defs>
</defs>
<polyline fill="none" points="114.91,108.26 143.3,108.26 170.71,136.65 "/>
<path fill-rule="evenodd" d="M114.91,108.21v0.1l26.07,2.36l1.63,0.15l0.41,0.04l0.2,0.02l0.05,0l0.03,0
	c0.42,0.17-3.57-1.52-1.88-0.8l0.01,0.01l0.06,0.08l0.51,0.64l2.05,2.55l4.1,5.1l8.2,10.2l-6.81-0.17l21.17,8.16l-7.41-21.44
	l-0.07,6.81l-9.9-8.56l-4.95-4.28l-2.48-2.14l-0.62-0.54l-0.08-0.07l-0.01-0.01c1.69,0.71-2.31-0.98-1.9-0.81l-0.03,0l-0.05,0
	l-0.2,0.02l-0.41,0.04l-1.63,0.15L114.91,108.21z"/>
<rect x="135.54" y="101.01" fill="none" width="23.41" height="12.87"/>
<polygon fill-rule="evenodd" points="135.54,107.41 135.54,107.48 153.53,110.66 151.86,113.88 158.95,107.44 151.86,101.01 
	153.53,104.23 "/>
<path fill="none" d="M125.76,121.54c6.9-13.89,12.81-30.23,10.84-46.37c-1.38-11.44-8.67-18.59-17.15-25.33"/>
<path fill-rule="evenodd" d="M125.71,121.52l0.09,0.04c5.23-8.79,9.86-18.13,12.52-28.4c1.32-5.12,2.12-10.48,2.09-15.96
	c0.01-2.68-0.22-5.65-0.92-8.5c-0.68-2.86-1.78-5.65-3.18-8.24c2.51,1,5.04,2.37,7.45,4.17c-3.45-4.48-7.67-7.66-11.82-9.88
	c-4.18-2.23-8.34-3.65-12.49-4.92c2.16,3.75,4.16,7.58,5.39,11.33c1.25,3.75,1.63,7.36,1.1,10.41c1.03-1.75,1.81-3.78,2.29-6
	c2.69,3.49,4.33,7.42,5.01,12.17c0.76,4.71,0.82,9.63,0.34,14.56C132.6,102.2,129.54,112.03,125.71,121.52z"/>
<path fill="none" d="M131.08,121.95c-9.34-5.53-3.35-19.64,2.24-25.77c4.37-4.79,10.73-7.64,15.64-11.82
	c6.1-5.21,11.49-11.5,15.49-18.59c2.48-4.4,4.74-9.49,4.24-14.72c-0.5-5.21-2.52-12.6-6.52-16.16c-2.61-2.32-11.65-5.71-14.53-2.21"
	/>
<path fill-rule="evenodd" d="M131.05,121.99l0.05-0.09c-1.64-1.07-2.94-2.6-3.62-4.36c-0.69-1.77-0.82-3.69-0.6-5.56
	c0.46-3.75,2.07-7.32,4.11-10.47c1.03-1.58,2.2-3.07,3.5-4.34c1.31-1.28,2.8-2.4,4.36-3.45c3.15-2.1,6.64-3.86,10.05-6.22
	c6.67-4.82,12.43-10.63,17.18-17.45c2.32-3.41,4.54-6.97,5.99-11.39c0.7-2.19,1.17-4.61,1.13-7.14c-0.02-1.33-0.11-2.29-0.24-3.43
	c-0.13-1.1-0.3-2.18-0.51-3.27c1.16,1.42,2.25,2.92,3.26,4.58c0.49,0.75,1,1.88,1.4,2.98c0.41,1.11,0.74,2.25,1,3.4
	c-0.05-1.19-0.18-2.4-0.4-3.6c-0.09-0.6-0.25-1.21-0.39-1.8c-0.14-0.54-0.3-0.97-0.46-1.44c-0.64-1.85-1.39-3.58-2.23-5.28
	c-1.71-3.36-3.75-6.61-6.74-9.46c-0.75-0.71-1.57-1.38-2.47-1.98c-0.42-0.27-1-0.65-1.51-0.89c-0.5-0.24-0.98-0.43-1.45-0.58
	c-1.85-0.61-3.58-0.88-5.34-1.03c-1.75-0.13-3.51-0.09-5.25,0.27c-1.68,0.34-3.54,1.19-4.24,2.7c1.34-0.93,2.86-0.7,4.21-0.31
	c1.36,0.43,2.65,1.11,3.85,1.9c1.18,0.79,2.32,1.71,3.15,2.66c0.21,0.23,0.37,0.47,0.5,0.68c0.12,0.21,0.11,0.34,0.25,0.61
	c0.2,0.48,0.38,1,0.53,1.55c0.6,2.21,0.77,4.86,0.62,7.46c-0.08,1.3-0.23,2.6-0.48,3.82c-0.06,0.29-0.12,0.63-0.21,0.86
	c-0.1,0.18-0.16,0.34-0.27,0.52c-0.2,0.34-0.41,0.68-0.66,1.02c0.44-0.3,0.87-0.62,1.25-0.97c0.4-0.36,0.77-0.68,1.1-1.38
	c0.65-1.24,1.22-2.61,1.69-4.04c0.49,1.59,0.9,3.44,1.08,4.9c0.17,1.38,0.07,2.9-0.26,4.48c-0.66,3.15-2.23,6.54-4.01,9.79
	c-3.57,6.46-8.44,12.47-14.01,17.42c-2.81,2.41-6.15,4.55-9.29,7.13c-1.57,1.29-3.09,2.71-4.44,4.31c-1.34,1.62-2.44,3.36-3.38,5.17
	c-1.84,3.61-3.17,7.55-3.26,11.64c-0.03,2.03,0.32,4.11,1.25,5.93C127.78,119.65,129.31,121.09,131.05,121.99z"/>
<path fill="none" d="M131.47,110.92c-1.58-5.72-5.92-11.44-8.87-16.34c-12.62-22.26-26.42-42.9-43.18-61.89"/>
<path fill-rule="evenodd" d="M131.42,110.93l0.1-0.03c-1.32-5.98-4.83-11.24-7.58-16.5c-2.63-5.36-5.36-10.86-8.21-16.21
	c-5.7-10.75-11.87-21.3-18.67-31.52c2.65,0.85,5.3,1.74,7.95,2.67c-8.35-6.04-16.9-11.62-25.59-16.65
	c3.91,9.25,7.26,18.57,10.15,27.93c0-2.7-0.04-5.42-0.12-8.15c7.84,8.98,15.2,18.46,22.17,28.26c3.5,4.92,6.83,9.86,10.22,14.96
	C125.35,100.68,129.35,105.21,131.42,110.93z"/>
<path fill="none" d="M120.83,115.21c-2.98-2.57-6.25-4.35-9.59-6.29c-3.1-1.8-4.6-5.38-6.43-8.4c-5.24-8.65-10.45-17.32-15.89-25.83
	c-9.47-14.81-20.14-29.02-32.78-41.11c-3.59-3.43-8.85-8.98-13.77-10.7"/>
<path fill-rule="evenodd" d="M120.79,115.24l0.07-0.08c-2.84-2.74-6.31-4.82-9.54-6.96c-3-2.16-4.16-6.09-6.18-9.53
	c-3.74-6.93-7.46-13.87-11.32-20.76C86.14,64.1,77.6,50.53,67.25,38.11c3.22,1.13,6.4,2.38,9.61,3.7
	c-5.4-3.95-10.95-7.64-16.66-10.94c-2.77-1.55-5.54-3.23-8.51-4.77c-2.94-1.49-6.11-2.91-9.33-3.23c2.63,1.82,4.45,4.31,6.2,6.84
	c1.71,2.54,3.29,5.28,5,8.03c3.22,5.33,6.06,10.8,8.64,16.35c-0.58-3.15-1.22-6.34-1.99-9.51c10.96,10.75,20.58,23.04,29.51,35.91
	c4.5,6.43,8.89,12.96,13.3,19.48c1.14,1.62,2.09,3.23,3.24,4.94c1.13,1.66,2.51,3.34,4.37,4.39
	C114.16,111.15,117.68,112.8,120.79,115.24z"/>
<path fill="none" d="M122.21,101.52c-4.34-1.63-8.08-6.33-10.84-9.81c-6.11-7.15-10.45-15.52-15.38-23.29"/>
<path fill-rule="evenodd" d="M122.19,101.57l0.04-0.1c-2.4-1.36-4.16-3.44-5.71-5.6c-1.57-2.18-2.82-4.54-4.31-6.93
	c-2.71-4.6-4.85-9.48-6.97-14.54c1.89,0.04,3.77,0.07,5.64,0.06c-4.89-1.85-9.88-4.1-14.88-6.04c-0.38,5.35-1.04,10.58-1.39,16.08
	c0.79-1.74,1.62-3.45,2.45-5.16c3.52,4.31,7.22,8.73,11.4,12.64c2.03,1.79,4.04,3.85,6.29,5.59
	C116.97,99.33,119.46,100.94,122.19,101.57z"/>
<path fill="none" d="M121.62,97.23c3.94-10.62,3.35-23.9,6.11-35.75c4.34-18.59,15.58-36.77,27.21-51.48"/>
<path fill-rule="evenodd" d="M121.57,97.21l0.1,0.04c2.48-5.6,3.65-11.74,4.73-17.74c1.07-6.01,2-12.03,3.73-17.64
	c3.51-11.32,9.39-21.74,16.23-31.38c0.2,2.71,0.48,5.38,0.85,8.01c1.58-9.4,4.29-19,7.74-28.5c-8.45,5.56-16.69,11.81-24.45,19.2
	c2.57-1.34,5.14-2.58,7.72-3.73c-5.87,11.06-10.65,22.88-12.79,35.28c-1.06,6.25-1.19,12.4-1.48,18.47
	C123.64,85.29,123.29,91.36,121.57,97.21z"/>
<path fill="none" d="M124.97,94.78c-0.99-1.43-0.99-3.27-1.18-5.31c-0.99-10.83-3.16-21.24-5.52-31.87
	c-3.94-19.4-6.51-37.79-6.7-57.6"/>
<path fill-rule="evenodd" d="M124.93,94.81l0.08-0.06c-0.79-1.33-0.76-2.89-0.8-4.42c-0.03-1.54-0.09-3.09-0.17-4.63
	c-0.16-3.09-0.41-6.17-0.72-9.25c-0.63-6.16-1.53-12.29-2.47-18.39c-1.7-12.06-2.93-24.27-3.32-36.34c1.8,2.08,3.64,4.13,5.48,6.13
	c-4.3-8.92-8.16-18.18-11.45-27.85c-3.09,9.72-5.59,19.84-7.54,30.17c1.3-2.54,2.63-5.05,3.98-7.52
	c2.01,12.39,4.81,24.46,8.12,36.46c1.71,5.9,3.36,11.79,4.76,17.75c0.7,2.98,1.34,5.98,1.88,8.99c0.27,1.51,0.52,3.02,0.76,4.54
	C123.75,91.89,123.95,93.55,124.93,94.81z"/>
<path fill="none" d="M125.76,108.87C104.27,92.33,75.87,82.73,49.85,76.8"/>
<path fill-rule="evenodd" d="M125.72,108.91l0.06-0.08c-7.96-7.11-16.96-13.16-26.42-18.37c-9.47-5.21-19.41-9.6-29.56-13.41
	c2.38-0.96,4.79-1.89,7.24-2.78c-9.26,0.39-18.31,1.3-27.19,2.54c7.47,4.97,14.66,10.19,21.39,15.68c-1.33-2.09-2.71-4.19-4.13-6.26
	c10.24,2.19,20.38,4.97,30.25,8.63C107.21,98.51,116.81,103.06,125.72,108.91z"/>
<path fill="none" d="M122.01,102.13c-10.25-1.84-22.28-0.61-32.14,2.04c-17.15,4.49-30.76,16.55-44.17,27.58"/>
<path fill-rule="evenodd" d="M122,102.18l0.02-0.1c-5.3-1.34-10.84-1.85-16.37-1.84c-5.53,0.02-11.11,0.57-16.59,1.65
	c-11.23,2.13-21.59,7.59-30.93,13.68c0.7-2.53,1.48-5.06,2.36-7.62c-5.78,7.89-10.18,15.88-14.79,23.79
	c8.65-3,17.32-6.17,25.67-8.07c-2.45-0.24-4.95-0.39-7.48-0.48c7.94-6.99,16.49-13.2,26.41-16.64c5.02-1.77,10.22-3.06,15.53-3.86
	C111.15,101.92,116.58,101.62,122,102.18z"/>
<path fill="none" d="M113.33,109.28c7.69,5.11,21.89-4.7,28.39-7.35c11.24-4.7,22.67-8.37,34.7-10.42
	c7.89-1.43,15.97-2.04,23.86-3.88"/>
<path fill-rule="evenodd" d="M113.36,109.24l-0.06,0.09c2.38,1.84,5.66,2.1,8.59,1.72c2.99-0.37,5.86-1.27,8.65-2.29
	c2.79-1.03,5.49-2.23,8.16-3.37c1.34-0.57,2.64-1.12,3.93-1.54c1.37-0.46,2.74-0.91,4.12-1.35c11.02-3.5,22.17-5.87,33.49-6.78
	c-0.95,0.96-1.73,1.9-2.75,2.89c-0.88,0.97-1.73,1.92-2.57,2.91c1.01-0.61,1.86-1.16,3.04-1.77c0.98-0.58,1.98-1.15,3.02-1.71
	c2.06-1.13,4.2-2.23,6.38-3.33c4.35-2.21,8.81-4.47,12.93-7.06c-4.84-0.51-9.49-1.46-14.24-2.41c-2.38-0.48-4.79-0.95-7.27-1.37
	c-1.24-0.21-2.5-0.4-3.78-0.58c-1.08-0.21-2.5-0.37-3.74-0.52c1.29,0.55,2.58,1.14,3.84,1.72c1.12,0.61,2.48,1.18,3.67,1.8
	c-11.73,2.57-23.12,6.67-33.77,11.73c-1.33,0.63-2.66,1.28-3.98,1.93c-1.4,0.68-2.7,1.46-3.96,2.2c-2.52,1.51-4.97,3.02-7.51,4.37
	c-2.53,1.34-5.13,2.56-7.88,3.28C118.96,110.5,115.93,110.7,113.36,109.24z"/>
<path fill="none" d="M120.83,112.96c-4.53,9.8-11.44,17.77-19.52,24.72c-8.28,7.15-17.55,13.28-26.22,19.81
	c-5.32,3.88-10.45,8.17-16.76,10.42"/>
<path fill-rule="evenodd" d="M120.87,112.98l-0.09-0.04c-5.25,9.53-13,17.13-21.57,23.35c-8.56,6.28-18,11.59-27.15,17.49
	c0.57-2.41,1.36-4.99,2.05-7.46c-0.64,0.96-1.28,1.93-1.93,2.9c-0.61,0.94-1.36,2.02-1.83,2.85c-1.32,1.96-2.5,3.86-3.7,5.7
	c-2.39,3.68-4.83,7.17-8.32,10.13c4.57,0.08,9.4-1.06,13.91-2.37c2.26-0.65,4.47-1.33,6.59-1.9c1.25-0.42,2.19-0.64,3.3-0.96
	c1.07-0.3,2.15-0.6,3.23-0.89c-2.57-0.1-5-0.28-7.67-0.28c8.11-7.11,16.75-13.76,24.65-21.54
	C110.24,132.27,117.07,123.18,120.87,112.98z"/>
<path fill="none" d="M116.49,107.85c13.21,10.62,25.04,22.88,36.87,35.13c14.59,15.12,30.96,22.67,51.66,24.92"/>
<path fill-rule="evenodd" d="M116.52,107.81l-0.07,0.08c10.44,9.42,19.82,19.83,29.01,30.42c2.32,2.66,4.54,5.29,6.93,8
	c2.42,2.69,4.99,5.29,7.75,7.71c5.49,4.86,11.72,9.04,18.47,12.26c-3.18,0.41-6.46,0.62-9.81,0.6c12.56,3.22,24.91,3.02,36.21,1.04
	c-10.7-4.33-20.16-10.38-27.07-17.83c1.24,2.49,2.69,4.96,4.34,7.37c-6.23-2.15-12.17-5.22-17.68-9.08
	c-2.76-1.92-5.4-4.05-7.95-6.31c-2.53-2.29-5.15-4.75-7.73-7.12C138.57,125.41,127.96,116.01,116.52,107.81z"/>
<path fill="none" d="M142.71,115.61c15.77-1.63,29.77-3.06,45.54,0.61c16.56,3.68,32.33,9.81,48.9,13.07
	c6.11,1.23,13.21,3.06,19.32-0.2"/>
<path fill-rule="evenodd" d="M142.71,115.56l0.01,0.1c7.44-0.37,14.89-0.75,22.26-0.49c7.37,0.25,14.66,1.22,21.63,3.16
	c14.19,3.86,27.8,9.69,42.43,14.06c-3.14,0.88-6.3,1.68-9.48,2.46c3.12,0.04,6.27,0.05,9.41-0.02c1.58-0.04,3.15-0.08,4.72-0.16
	l2.35-0.12c0.71-0.06,1.48-0.11,2.24-0.15c3.08-0.18,6.39-0.36,9.62-1.09c3.22-0.71,6.35-2.11,8.56-4.22
	c-2.99,0.69-5.84,0.29-8.46-0.56c-2.65-0.85-5.13-2.14-7.8-3.49c-0.67-0.34-1.34-0.68-2.07-1.03l-1.95-1.02
	c-1.3-0.67-2.59-1.39-3.87-2.1c-2.56-1.44-5.09-2.93-7.62-4.46c2.16,2.25,4.35,4.49,6.61,6.67c-14.29-2.65-28.73-7.08-43.65-9.49
	c-7.56-1.27-15.22-1.45-22.71-0.91C157.43,113.23,150.06,114.41,142.71,115.56z"/>
<path fill="none" d="M127.14,103.97c-2.71,10.42-11.9,9.64-19.88,6.16c-8.45-3.68-16.51-7.95-24.5-12.56
	c-8.1-4.68-16.7-9.87-26.05-11.18c-7.76-1.09-19.78-0.66-25.42,5.8c-1.52,1.74-4.49,6.62-2.69,9.03c1.22,1.64,4.11,1.28,5.87,1.93"
	/>
<path fill-rule="evenodd" d="M127.19,103.98l-0.1-0.03c-0.61,1.88-1.48,3.7-2.82,5.08c-1.32,1.4-3.08,2.25-4.93,2.53
	c-3.73,0.55-7.54-0.7-10.98-2.31c-7.05-3.47-13.91-7.41-20.57-11.61c-6.66-4.13-13.18-8.9-20.97-12.29
	c-1.94-0.84-3.97-1.59-6.07-2.17c-2.11-0.6-4.31-1-6.42-1.27c-4.27-0.53-8.62-0.63-13.13,0.05c3.03-2.23,6.39-4.06,9.95-5.59
	c-3.75,0.73-7.44,1.79-11.04,3.37c-3.57,1.6-7.16,3.75-9.97,6.98c-0.69,0.81-1.33,1.66-1.87,2.57c-0.61,0.98-0.97,1.86-1.31,2.76
	c-0.64,1.8-1.13,3.63-1.15,5.76c0.01,1.05,0.13,2.25,0.78,3.4c0.62,1.17,1.88,1.91,2.85,2.05c1.98,0.33,3.42-0.26,5.03-0.12
	c-1.36-0.88-3.17-1.25-4.12-2.09c-0.48-0.42-0.5-0.79-0.41-1.12c0.08-0.33,0.28-0.76,0.57-1.23c0.59-0.95,1.53-1.98,2.53-2.83
	c0.5-0.42,1.04-0.83,1.48-1.01c0.49-0.26,1.02-0.46,1.55-0.63c4.29-1.29,9.73-0.39,14.72,1.26c-2.35-1.64-4.92-3.08-7.7-4.15
	c3.28-0.85,6.95-1.17,10.57-1.08c1.84,0.05,3.59,0.19,5.33,0.51c1.76,0.31,3.53,0.76,5.29,1.32c7.09,2.25,13.96,6.22,21.15,9.77
	c7.17,3.58,14.47,6.85,21.99,9.67c3.83,1.33,8.06,2.31,12.2,1.28c2.04-0.52,3.92-1.69,5.18-3.33
	C126.08,107.87,126.77,105.92,127.19,103.98z"/>
<path fill="none" d="M110.97,105.61c3.15,2.86,6.31,5.92,8.67,9.39c3.94,6.13,4.34,12.87,4.73,19.81
	c0.99,14.5,3.35,29.82,17.15,37.79"/>
<path fill-rule="evenodd" d="M111,105.57l-0.07,0.08c3.33,3.58,6.72,7.37,8.61,11.62c1.88,4.32,2.22,9.02,2.18,13.83
	c-0.01,1.21-0.04,2.42-0.06,3.65c-0.01,1.3-0.02,2.52-0.01,3.79c0.02,2.52,0.11,5.06,0.31,7.63c0.43,5.13,1.31,10.43,3.4,15.64
	c-2.34-1.17-4.63-2.62-6.83-4.23c2.95,3.97,6.51,7.62,10.51,10.26c3.99,2.67,8.34,4.23,12.5,4.77c-2.59-3.32-4.2-6.98-4.86-10.53
	c-0.68-3.56-0.53-7.01,0.04-10.43c-1.07,1.87-2.01,3.85-2.75,5.97c-2.22-3.66-3.76-8.02-4.89-12.59c-0.56-2.29-1.03-4.64-1.43-7.02
	c-0.2-1.18-0.39-2.42-0.57-3.58c-0.17-1.23-0.34-2.47-0.53-3.71c-0.75-4.96-1.99-10.23-4.82-14.63
	C118.81,111.69,114.88,108.62,111,105.57z"/>
<path fill="none" d="M123.79,110.3c-2.56,2.04-5.52,3.27-8.48,4.49c-12.03,5.51-23.07,12.05-34.5,18.59
	c-9.86,5.52-19.72,6.94-30.36,9.6c-4.34,1.02-7.89,3.47-12.22,4.9"/>
<path fill-rule="evenodd" d="M123.82,110.34l-0.06-0.08c-2.48,1.72-5.3,2.75-8.14,3.71c-2.88,1.05-5.65,2.21-8.45,3.39
	c-5.58,2.38-11.07,4.96-16.51,7.6c-2.72,1.32-5.43,2.65-8.14,3.98c-2.77,1.37-5.24,2.59-7.93,3.52c-5.33,1.92-10.97,2.95-16.87,3.91
	c1.81-2.05,3.56-4.11,5.13-6.18c-3.8,2.67-8.17,5.21-12.51,7.9c-0.99,0.65-2.39,1.4-3.51,2.25c-1.13,0.83-2.13,1.71-3.07,2.58
	c-1.87,1.74-3.53,3.47-5.54,4.97c2.5,0.02,5.11-0.38,7.54-0.63c1.22-0.12,2.4-0.2,3.5-0.18c1.11,0.01,2.03,0.21,3.34,0.3
	c4.89,0.44,9.83,1.06,15.2,1.27c-2.75-0.91-5.37-1.93-7.93-2.97c5.82-1.74,11.91-3.69,17.61-6.63c2.86-1.43,5.59-3.26,8.03-4.89
	c2.51-1.67,5.02-3.34,7.53-4.99c5.02-3.31,10.07-6.54,15.24-9.6c2.58-1.52,5.21-3.03,7.83-4.41
	C118.81,113.83,121.57,112.39,123.82,110.34z"/>
<path fill="none" d="M126.94,105.81c0.99-2.86,5.32-4.7,7.69-6.13c16.17-10.62,33.71-20.63,51.85-27.37
	c10.06-3.88,22.67-6.33,29.77-15.73c1.97-2.66,3.35-4.9,1.97-8.37"/>
<path fill-rule="evenodd" d="M126.89,105.79l0.1,0.03c0.72-1.65,2.29-2.67,3.8-3.54c1.54-0.88,3.2-1.51,4.81-2.47
	c3.11-1.8,6.23-3.56,9.38-5.26c6.3-3.42,12.68-6.64,19.17-9.57c6.49-2.93,13.08-5.58,19.76-7.82c1.68-0.57,3.33-1.08,5.04-1.62
	c1.65-0.5,3.35-0.98,5.07-1.46c3.45-0.96,7.03-1.95,10.66-3.31c-2.01,2.61-4.19,5.1-6.3,7.5c5.01-3.41,10.62-7.21,15.02-12.35
	c2.18-2.55,3.99-5.45,5.15-8.42c0.55-1.44,1.16-3.08,1.2-4.83c0.06-1.76-0.64-3.31-1.52-4.45c0.16,1.47-0.1,2.87-0.79,3.86
	c-0.67,1.01-1.66,1.78-2.76,2.63c-2.16,1.63-4.47,2.72-6.88,3.48c-4.83,1.51-9.97,1.75-15.63,2.02c2.96,0.67,5.8,1.33,8.7,1.81
	c-2.96,1.5-6.19,2.81-9.53,4.15c-1.67,0.67-3.37,1.35-5.09,2.09c-1.64,0.72-3.35,1.47-5,2.24c-6.65,3.08-13.08,6.52-19.33,10.22
	c-6.24,3.7-12.31,7.64-18.23,11.76c-2.96,2.06-5.89,4.15-8.79,6.29c-1.38,1.04-3.01,1.89-4.48,2.96
	C128.97,102.76,127.44,104.01,126.89,105.79z"/>
<path fill="none" d="M129.9,105.61c1.97,5.51,1.77,11.23,1.58,16.95c-0.39,11.44,0.79,21.65,4.93,32.48
	c2.96,8.38,6.31,18.79,11.63,25.94c1.97,2.66,5.72,6.13,9.07,5.11"/>
<path fill-rule="evenodd" d="M129.95,105.59l-0.1,0.03c1.58,5.59,0.98,11.3,0.39,17c-0.59,5.78-0.78,11.68-0.26,17.61
	c0.26,2.96,0.69,5.92,1.3,8.86c0.3,1.47,0.66,2.93,1.05,4.38c0.2,0.72,0.4,1.45,0.62,2.17l0.16,0.54c-0.01,0.01,0.08,0.3,0.12,0.44
	l0.28,1.04c1.52,5.54,3.05,11.23,5.29,16.93c-2.42-1.38-4.78-2.89-7.1-4.45c3.27,3.93,6.77,7.88,10.84,11.29
	c1.99,1.64,4.31,3.4,6.83,4.45c1.26,0.53,2.59,0.95,3.97,1.07c1.36,0.14,2.8-0.13,3.77-0.86c-1.22-0.06-2.16-0.64-2.88-1.36
	c-0.73-0.72-1.3-1.6-1.78-2.51c-0.98-1.86-1.4-3.78-1.86-5.95c-0.82-4.25-1.02-8.63-1.09-13.12c-0.75,2.43-1.46,4.87-2.05,7.37
	c-2.66-4.71-4.88-9.92-7.15-15.23l-0.43-1c-0.08-0.2-0.11-0.25-0.25-0.58l-0.21-0.47c-0.29-0.63-0.57-1.26-0.83-1.89
	c-0.54-1.27-1.04-2.55-1.5-3.86c-0.93-2.6-1.71-5.27-2.32-7.99c-1.24-5.44-1.85-11.08-2.05-16.79
	C132.52,116.99,132.3,110.92,129.95,105.59z"/>
<path fill="none" d="M122.8,117.04c-11.63,16.75-20.9,35.13-31.15,52.7"/>
<path fill-rule="evenodd" d="M122.84,117.07l-0.08-0.06c-10.25,12-19.25,25.19-28.26,38.07c-0.68-2.05-1.36-4.1-2.04-6.15
	c-0.23,6.96-0.45,13.86-0.81,20.81c5.87-3.74,11.7-7.64,17.5-11.49c-2.11,0.5-4.21,1-6.32,1.5
	C109.14,145.28,115.19,130.87,122.84,117.07z"/>
<path fill="none" d="M116.88,120.31c-1.38,24.11-8.28,47.8-10.45,71.7"/>
<path fill-rule="evenodd" d="M116.94,120.31l-0.1-0.01c-2.65,18.47-8.44,36-12.96,54.3c-1.3-1.98-2.58-3.98-3.85-5.98
	c1.88,7.88,3.91,15.8,6.42,23.38c3.84-7.01,8.07-13.59,12.43-20.14c-1.86,1.41-3.71,2.82-5.55,4.25
	C114.64,157.78,117.44,138.99,116.94,120.31z"/>
<path fill="none" d="M126.74,111.73c10.06,13.48,25.43,21.45,39.83,28.8c19.12,9.81,41.01,18.18,62.5,20.84"/>
<path fill-rule="evenodd" d="M126.78,111.7l-0.08,0.06c4.13,6.2,9.53,11.56,15.44,16.19c5.92,4.64,12.34,8.61,18.77,12.39
	c12.79,7.64,26.29,14.56,40.59,19.82c-3.18,0.68-6.41,1.29-9.67,1.81c12.6,1.12,25.22,1.11,37.24-0.6
	c-11.22-4.62-21.37-10.66-30.8-17.4c1.94,2.39,3.96,4.74,6.06,7.06c-14.06-3.53-27.76-8.78-41.19-14.97
	c-6.73-3.05-13.35-6.23-19.57-10.12C137.35,122.05,131.54,117.41,126.78,111.7z"/>
<path fill="none" d="M133.25,108.26c5.32,3.47,12.03,2.86,17.94,2.04c13.41-2.25,25.43-7.97,39.24-7.76
	c12.81,0.41,28,2.25,38.25-7.97c2.96-3.27,4.54-9.19,9.27-10.42"/>
<path fill-rule="evenodd" d="M133.28,108.22l-0.05,0.09c2.95,2.18,6.73,3.09,10.4,3.28c3.68,0.16,7.4-0.1,11.03-0.68
	c7.28-1.11,14.35-3.05,21.35-4.23c3.5-0.59,6.98-0.98,10.41-1.01c1.72-0.01,3.41,0.04,5.1,0.22c1.79,0.17,3.59,0.35,5.42,0.52
	c7.28,0.63,15.09,1.22,23.21-1.1c-2.43,2.53-5.32,4.75-8.33,6.71c3.29-1.19,6.6-2.69,9.66-4.65c3.06-1.95,5.84-4.38,8-7.12
	c0.54-0.69,1.05-1.38,1.52-2.1c0.12-0.18,0.23-0.36,0.34-0.54l0.08-0.13l0.04-0.07l0.01-0.01c-0.03,0.03,0.27-0.29,0.15-0.16
	l0.01-0.02l0.02-0.04l0.18-0.32c0.23-0.43,0.43-0.85,0.6-1.25c0.69-1.63,1.05-3.1,1.44-4.49c0.78-2.71,1.44-5.38,4.06-6.95
	c-1.49-0.04-3.09,0.53-4.46,1.42c-1.38,0.88-2.57,1.99-3.68,3.04c-1.11,1.05-2.16,2.07-3.15,2.76c-0.25,0.17-0.49,0.32-0.72,0.43
	l-0.17,0.08l-0.02,0.01l-0.01,0.01c-0.13,0.13,0.17-0.18,0.14-0.15l-0.01,0l-0.05,0.03l-0.11,0.05c-0.14,0.07-0.28,0.14-0.43,0.21
	c-0.57,0.27-1.15,0.5-1.73,0.7c-4.65,1.63-9.22,1.3-13.98,0.27c2.35,1.32,4.79,2.47,7.46,3.24c-5.69,2.39-12.7,2.83-19.83,2.95
	c-1.79,0.03-3.61,0.04-5.44,0.07c-1.92,0.01-3.86,0.15-5.76,0.38c-3.8,0.46-7.49,1.29-11.06,2.3c-7.14,2.03-13.85,4.69-20.78,6.53
	c-3.45,0.94-6.96,1.57-10.53,1.81C140.1,110.5,136.43,110.05,133.28,108.22z"/>
<polygon fill="#231F20" points="99.93,91.71 99.93,84.36 106.63,86.2 109.98,80.69 115.31,82.73 114.91,61.48 120.24,80.69 
	122.41,77.01 124.18,72.72 126.15,77.21 131.18,71.14 131.38,80.94 132.46,73.13 134.23,80.48 143.3,70.27 142.91,84.77 
	144.88,89.26 158.68,80.48 148.23,89.26 159.87,89.47 154.54,93.14 165.39,96 145.67,102.54 149.81,104.99 149.02,107.65 
	152.37,117.25 142.91,120.72 145.47,126.23 143.9,127.87 130.88,126.03 141.33,142.37 127.93,128.28 129.7,135.22 120.83,127.66 
	120.24,147.68 118.26,127.66 111.95,135.22 114.52,127.05 98.94,136.24 112.94,118.27 98.35,133.59 102.69,123.99 105.25,114.18 
	91.45,115.41 105.45,111.94 94.8,103.77 99.14,102.34 78.83,91.51 99.53,99.07 92.44,90.49 "/>
<path fill="none" d="M115.73,106.12c-15.17-7.44-35.39-4.13-50.82,0.28c-8.51,2.48-17.03,5.79-24.48,10.75
	c-8.51,5.51-15.7,13.51-24.74,17.92"/>
<path fill-rule="evenodd" d="M115.71,106.17l0.04-0.09c-6.15-3.44-13.27-5.07-20.37-5.58c-7.13-0.5-14.31,0.05-21.36,1.14
	c-7.06,1.11-14.04,2.7-20.94,5c-3.45,1.15-6.87,2.52-10.21,4.14c-1.65,0.81-3.37,1.74-4.89,2.63c-1.64,0.95-3.22,1.96-4.74,2.99
	c0.61-1.46,1.27-2.93,2.03-4.41c0.18-0.37,0.38-0.74,0.58-1.11l0.15-0.28l0.08-0.14c-0.15,0.07,0-0.06-0.01-0.08l0.3-0.55
	c0.4-0.74,0.82-1.48,1.25-2.2c-0.57,0.58-1.13,1.17-1.69,1.77l-0.21,0.22l-0.1,0.11l-0.05,0.06l-0.01,0.01
	c0.04-0.03-0.1,0.07,0.09-0.05l-0.01,0.01l-0.03,0.03l-0.42,0.45c-0.28,0.3-0.55,0.6-0.81,0.91c-1.06,1.21-2.05,2.43-2.98,3.65
	c-1.86,2.43-3.5,4.84-5.12,7.19c-3.23,4.69-6.32,9.21-10.59,13.09c5.69-0.99,11.33-3.4,16.64-5.69c2.66-1.15,5.27-2.27,7.79-3.21
	c1.26-0.47,2.51-0.88,3.72-1.23c0.3-0.09,0.6-0.17,0.91-0.25l0.45-0.12l0.03-0.01l0.01,0c0.19-0.13,0.06-0.04,0.1-0.06l0.01,0
	l0.06-0.02l0.11-0.03l0.23-0.06c0.6-0.16,1.2-0.31,1.81-0.44c-0.69-0.05-1.37-0.09-2.06-0.12l-0.52-0.02
	c-0.08,0.03,0-0.06-0.22,0.05l-0.13,0l-0.26-0.01c-0.35-0.01-0.69-0.02-1.04-0.02c-1.4-0.01-2.85,0.06-4.32,0.17
	c9.84-8.7,22.74-13.94,36-17.65c6.63-1.8,13.43-3.1,20.32-3.4C102.2,102.68,109.23,103.45,115.71,106.17z"/>
<path fill="none" d="M114.93,109.43c-10.38-1.65-22.61,1.1-32.72,3.03c-15.43,3.31-27.94,10.75-39.91,21.22
	c-4.79,4.13-37.51,33.35-42.3,23.98"/>
<path fill-rule="evenodd" d="M114.93,109.48l0.02-0.1c-8.24-1.65-16.79-0.74-25.05,0.35c-2.08,0.28-4.14,0.59-6.2,0.89l-1.54,0.22
	c-0.58,0.09-1.06,0.18-1.6,0.27c-1.05,0.19-2.09,0.41-3.13,0.64c-4.16,0.94-8.26,2.22-12.25,3.82c-7.98,3.21-15.42,7.72-22.26,12.87
	c-3.46,2.63-6.59,5.2-9.89,7.7c-3.27,2.49-6.58,4.92-9.93,7.23c1.44-3.11,2.8-6.23,4.1-9.37c-3.9,5.27-7.93,10.43-12.29,15.22
	c-2.18,2.38-4.45,4.68-6.91,6.63c-1.23,0.96-2.52,1.85-3.88,2.41c-1.33,0.56-2.93,0.76-4.1-0.6c0.19,0.81,0.74,1.66,1.6,2.15
	c0.84,0.52,1.82,0.74,2.77,0.83c1.9,0.18,3.74-0.07,5.52-0.4c3.56-0.69,6.94-1.81,10.25-3.02c6.61-2.46,12.96-5.38,19.21-8.46
	c-3.49,0.81-6.98,1.56-10.47,2.21c3.27-2.74,6.43-5.56,9.53-8.42c3.1-2.84,6.14-5.86,9.08-8.56c5.98-5.46,12.49-10.31,19.68-14.02
	c3.59-1.86,7.34-3.43,11.21-4.7c0.97-0.31,1.94-0.61,2.92-0.89c0.48-0.13,1.01-0.28,1.45-0.39l1.52-0.37
	c2.03-0.49,4.05-0.99,6.07-1.46C98.39,110.31,106.61,108.63,114.93,109.48z"/>
</svg>
