<?xml version="1.0" encoding="utf-8"?>
<!-- Generator: Adobe Illustrator 15.0.1, SVG Export Plug-In  -->
<!DOCTYPE svg PUBLIC "-//W3C//DTD SVG 1.1 Tiny//EN" "http://www.w3.org/Graphics/SVG/1.1/DTD/svg11-tiny.dtd" [
	<!ENTITY ns_flows "http://ns.adobe.com/Flows/1.0/">
]>
<svg version="1.1" baseProfile="tiny"
	 xmlns="http://www.w3.org/2000/svg" xmlns:xlink="http://www.w3.org/1999/xlink" xmlns:a="http://ns.adobe.com/AdobeSVGViewerExtensions/3.0/"
	 x="0px" y="0px" width="202px" height="221px" viewBox="-0.7 -0.59 202 221" overflow="visible" xml:space="preserve">
<defs>
</defs>
<path fill-rule="evenodd" d="M94.13,44.51c2.97,2.33-1.31,5.15-4.1,4.32C91.35,47.35,93.59,46.78,94.13,44.51z"/>
<path fill-rule="evenodd" d="M58.07,52.93c1.6,0.13,2.15,1.31,3.24,1.94c0.36-0.22,0.15-1,0.65-1.08c1.67,0.2,1.84,1.9,2.38,3.24
	c-0.1,1.05-1.6,0.7-1.29,2.16c-1.31-0.06-1.65-1.08-2.81-1.29c-0.19-0.91,0.97-0.47,1.3-0.86C60.86,55.18,58.45,55.08,58.07,52.93z"
	/>
<path fill-rule="evenodd" d="M60.66,59.19c-0.49,0.41-1.84-0.17-2.16-0.65c-0.73,0.11-1.72,0.71-2.16,0.43
	C56.99,57.14,60.11,57.63,60.66,59.19z"/>
<path fill-rule="evenodd" d="M102.55,76.68C102.04,77.38,101.67,75.92,102.55,76.68L102.55,76.68z"/>
<path fill-rule="evenodd" d="M66.71,111.44c-0.28,1.21,0.93,0.94,0.65,2.16c-1.46-0.38-1.34,0.82-2.59,0.65
	C64.63,112.67,65.03,111.66,66.71,111.44z"/>
<path fill-rule="evenodd" d="M25.26,168.22c-0.2,1.1-0.38,2.21-1.73,2.16C23.01,169.34,24.12,167.57,25.26,168.22z"/>
<path fill-rule="evenodd" d="M173.14,198.23c-0.96,1.4-3.57,1.05-5.18,0.86C169.48,198.24,171.77,198.42,173.14,198.23z"/>
<path fill-rule="evenodd" d="M164.94,199.52c-0.92,1.65-4.01,0.57-5.83,0.86C160.33,199.05,163.51,199.93,164.94,199.52z"/>
<path fill-rule="evenodd" d="M152.85,203.62c0.5,0.32,0.33,0.53,0.22,1.08C152.23,204.62,152.49,203.96,152.85,203.62z"/>
<path fill-rule="evenodd" d="M196.89,207.29c-0.79,0-1.58,0-2.37,0C194.82,206.23,196.92,205.53,196.89,207.29z"/>
<path fill-rule="evenodd" d="M42.31,207.73c-1.77,1.9-5.51,0.1-7.99,0.22c-0.13-0.19-0.26-0.39,0-0.43
	c1.77-0.57,4.07,0.56,6.05,0.43C41.1,207.9,41.65,207.35,42.31,207.73z"/>
<path fill-rule="evenodd" d="M54.62,208.16c-1.38,2.08-4.43-0.47-6.05,0.65c-0.08-0.8,0.54-0.9,1.08-1.08
	C51.11,208.54,53.3,208.18,54.62,208.16z"/>
<path fill-rule="evenodd" d="M63.47,208.37c0.51-0.59,1.38,0.64,1.51,0.65c0.27,0.02,1.06-0.63,1.3-0.65
	c0.51-0.04,0.63,0.35,1.08,0.43c2.1,0.38,4.69,0.27,6.69,0.43c-1.44,1.99-4.05-0.74-6.04,0.65c0.24,0.55,1.16,0.42,1.94,0.43
	c-0.63,0.88-3.13,0.38-3.89,0c-0.77,0.1-1,0.73-1.73,0.86c-0.17-0.69-1.11-0.62-1.51-1.08C62.67,209.16,63.45,209.14,63.47,208.37z
	 M66.06,210.1c0.74,0.34,1.02-1.45,0.22-1.29C66.12,209.25,65.6,209.66,66.06,210.1z M64.55,209.88c-0.41-0.02-0.15-0.71-0.65-0.65
	C63.61,209.85,64.29,210.54,64.55,209.88z"/>
<path fill-rule="evenodd" d="M195.6,209.24c-1.85-0.21-3.29,0.47-4.75,0c-0.72,0.06-0.42,0.66-1.08,0.86
	c-0.64,0.19-1.23-0.27-1.94-0.21c-0.87,0.07-1.16,0.74-1.94,0.65c-0.93-1.57,1.99-1.47,3.02-1.08c0.44-0.06,0.57-0.43,0.86-0.65
	C191.77,209.08,194.45,207.84,195.6,209.24z"/>
<path fill-rule="evenodd" d="M196.89,208.59c0.19,0.82-0.72,1.01-1.08,0.65C196.01,208.86,196.21,208.49,196.89,208.59z"/>
<path fill-rule="evenodd" d="M45.34,209.67c0.42-0.3,0.87-0.57,1.51-0.65c0.45,0.41,0.96,0.77,1.08,1.51c1.4,0.14,2.24-0.3,3.24,0
	c0.12,0.77-0.76,0.53-0.65,1.3c0.81,0.65,1.14-0.62,1.94-0.65c0.25,0.97,1.71,0.74,1.73,1.94c-0.94-0.07-1.79-0.22-2.37-0.65
	c-0.88,0.76-3.08,1.3-4.32,0.43c0.28-0.98,1.39,0.14,2.16-0.43c0.09-0.52-0.39-0.47-0.22-1.08c-1.58-0.07-2.47,0.55-4.1,0.43
	c-0.55-0.39-0.29-1.58-1.08-1.73c-1.05-0.26-0.73,0.86-1.51,0.86c-0.28-0.44-1.05-0.39-0.86-1.3
	C43.74,210.12,44.41,208.33,45.34,209.67z M46.2,209.88c-0.04,0.54,0.33,0.68,0.65,0.86c0.18-0.25,0.28-0.58,0.22-1.08
	C46.69,209.65,46.39,209.72,46.2,209.88z"/>
<path fill-rule="evenodd" d="M165.15,209.88c-0.3-0.05-0.89-0.18-1.29-0.65c1.39,0.08,4.89-0.88,5.61,0.86
	c-0.59,0.16-0.43-0.43-0.86-0.43c-0.28,0.08-0.34,0.38-0.65,0.43c-0.06,0.85,0.08,1.5,0.65,1.73c0.83,0.1,0.68-0.76,1.08-1.08
	c0.77,0.75,2.39,2.09,3.46,0.65c0.66,0.13,1.53,0.05,1.51,0.86c-1.09-0.39-1.54-0.04-2.37,0.65c-0.96-0.44-1.83,0.3-3.02,0.22
	c-1.28-0.09-2.48-1.46-3.89-0.43C165.23,211.96,164.63,210.57,165.15,209.88z M167.31,210.53c0-0.21,0-0.43,0-0.65
	c-0.21,0-0.43,0-0.65,0C166.63,210.36,166.84,210.57,167.31,210.53z M166.02,212.04c0.36,0,0.72,0,1.08,0
	c-0.13-0.81-0.34-1.53-1.3-1.51C165.8,211.11,165.72,211.76,166.02,212.04z"/>
<path fill-rule="evenodd" d="M55.7,209.88c1.47-0.03,2.5,0.37,4.1,0.21c0.36,0.79,1.14,1.16,1.73,1.73c1.2,0.13,1.82-0.49,2.16,0.43
	c-0.28,0.78-1.29,0.6-1.94,0.21c-1.34,0.53-4.56,1.26-5.18-0.43c0.5,0,1.01,0,1.51,0c0-0.79-0.76-0.83-1.08-1.29
	c-0.53,0.12-0.46,0.83-1.29,0.65C55.7,210.89,55.7,210.39,55.7,209.88z M58.72,211.83c0.66,0.01,1.42,0.13,1.29-0.65
	c-0.18-0.32-0.54-0.46-1.08-0.43C59.01,211.25,58.9,211.58,58.72,211.83z"/>
<path fill-rule="evenodd" d="M72.11,211.4c-0.02,0.84-1.3,0.42-1.73,0.86c-0.71,0.08-0.44,1.15-1.29,1.08
	c-0.03-0.4-0.14-0.72-0.43-0.86c-1.1,0.03-0.29,0.71-0.43,1.51c-1.03,0.03-1.21-0.8-1.08-1.94c-0.55,0.28-1.67,0.76-2.37,0.22
	c0.97-1.95,5.17,0.32,6.69-1.3C71.83,210.95,72.02,211.12,72.11,211.4z"/>
<path fill-rule="evenodd" d="M197.11,212.04c-1.19,0.08-1.47,0.22-2.59,0c-0.43,0.43-0.14,1.23,0,1.73c1.08,0.15,1.67-0.2,2.59-0.21
	c-1.1,1.68-5.87,0.7-7.99,0.65c0.53-1.2,1.64-1.82,2.59-2.59C193.62,212.05,196.4,210.75,197.11,212.04z M191.92,212.69
	c0.22,0,0.26,0.17,0.43,0.21c0-0.22,0.18-0.26,0.22-0.43c-0.22,0-0.26-0.17-0.43-0.21C192.14,212.48,191.97,212.52,191.92,212.69z
	 M191.71,213.55c0-0.14,0-0.29,0-0.43C191.31,212.41,190.66,213.77,191.71,213.55z"/>
<path fill-rule="evenodd" d="M187.61,212.91c0.07,1.66-3.09,1.88-4.1,1.08c0.3-1,2-0.6,1.94-1.94
	C186.49,212.01,187.1,212.41,187.61,212.91z"/>
<path fill-rule="evenodd" d="M150.69,213.12c-0.53,0.18-1.47,0.21-1.51-0.65C149.85,212.15,150.68,212.22,150.69,213.12z"/>
<path fill-rule="evenodd" d="M80.74,213.12c-1.07,0.23-2.18,0.41-2.81,1.08c-1.98,0.05-2.86,0.17-4.75,0
	c-0.89,0.08-1.26,1.1-1.94,0.22c0.38-1.05,1.33-1.41,2.81-1.08c0.95,0.21,1.15,0.39,2.81,0C78.31,213,79.98,211.76,80.74,213.12z"/>
<path fill-rule="evenodd" d="M149.18,214.2c-1.08-0.25-1.88,0.55-2.59,0C146.62,213.2,149.1,213.35,149.18,214.2z"/>
<path fill-rule="evenodd" d="M171.2,214.63c-2.95-0.72-6.39,1.45-7.77-0.43C165.41,214.27,170.02,212.64,171.2,214.63z"/>
<path fill-rule="evenodd" d="M182.86,213.77c0.63-0.32,0.63,0.97,0,0.65C182.86,214.2,182.86,213.99,182.86,213.77z"/>
<path fill-rule="evenodd" d="M44.26,217.01c-0.25,1.03-1.13,0.04-1.94,0c-1.22-0.05-2.52,0.26-3.24,0.22
	C39.73,215.16,42.93,216.6,44.26,217.01z"/>
<path fill-rule="evenodd" d="M106.22,217.01c0.86-0.38,2.05-1.03,3.24-0.43c0.04,0.62-0.05,1.1-0.43,1.3
	c-1.07,0.09-0.12-0.65-0.65-0.86c-1.24-0.31-0.97,0.9-1.73,1.08c-2.11-1.13-5.23,1.03-6.48-1.08
	C102.89,218.33,104.63,215.02,106.22,217.01z"/>
<path fill-rule="evenodd" d="M4.32,218.52c-0.18,1.39-3.8,1.08-4.32,0.22C0.36,217.6,3.13,218.46,4.32,218.52z"/>
<path fill-rule="evenodd" d="M138.82,215.71c0-0.14,0-0.29,0-0.43c0.09-0.6-0.81-0.2-0.86-0.65c-2.12-0.03-4.24-0.06-5.4,0.86
	c-7.98,0.63-15.6,1.87-22.24,1.73c0.13-1.16,1.84-0.75,1.94-1.94c1.76-0.44,2.6,0.52,4.1,0c0.15-0.8-0.92-0.37-1.08-0.86
	c-0.69-0.19-0.67,0.34-1.08,0.43c-2.3-0.73-5.29,0.71-7.56,0c0.51-1.01,1.88,0.16,2.59-0.65c1.21-0.12,1.72,0.39,2.38-0.22
	c-0.5-0.94-1.83-1.05-2.38-1.94c0.07-4.97,6.03-4.05,9.5-5.61c-1.94-1.01-5.92-0.35-8.64,0.22c-0.87,0.08-0.99-0.59-1.51-0.86
	c-0.41,0.46-1.24,0.48-1.51,1.08c0.27,1.01,1.49-0.23,1.94,0.43c-0.46,1.65-3.6,0.42-4.75,0.86c-0.1-0.69-0.82-0.76-0.86-1.51
	c-0.59,0.5-0.86,0.83-1.29,0c-0.33,0.61-0.38,1.49-0.43,2.37c-1.64,1.87-4.85,0.57-7.99,0.22c-1.99-0.22-3.64,0.62-4.97-0.22
	c-0.44,0.06-0.42,0.58-0.86,0.65c0.36,3.92,6.71,1.06,9.28,2.38c-0.02,1.3-1.13,0.2-1.73,0.22c-0.77,0.03-1.59,0.41-2.37,0.43
	c-2.15,0.05-4.58-0.68-6.04,0.65c-1.09-0.35-2.32-0.56-3.67-0.65c0.25-1.37,2.42-0.3,3.45-0.43c0.74-0.3,1.06-2.44-0.22-2.38
	c-1.03,0.24,0.2,1.47-0.43,1.94c-0.96-1.04-0.55-2.43-1.51-3.67c-0.68,0.33-0.78,1.23-1.51,1.51c-3.14-1.21-6.32,1.7-8.2-0.65
	c1.08,0.39,2.98,0.83,3.24-0.65c-0.52-0.71-0.49,0.93-1.3,0.65c0.08-2.68,2.47-0.37,4.1-0.43c0.82-0.03,1.18-0.37,1.94-0.65
	c-0.52-0.92-1.69,0.44-2.59-0.22c1.32-0.97,3.66-0.29,5.18-0.65c-0.66-1.58-3.88-0.58-4.97-1.73c-0.03,0.39,0.26,0.46,0.22,0.86
	c-1.6,0.09-3.12,0.09-3.67-0.86c-0.91,0.25-1.86,0.44-2.81,0.65c-0.35,0.58,0.02,0.84-0.43,1.51c-1.55,0.34-2.29-0.34-4.1,0
	c-0.1-0.68,0.19-0.96,0.86-0.86c-1.53-0.09-0.29-1.61-1.73-1.73c-0.86,0.08-0.51,1.36-1.3,1.51c-1.22-1.46-3.49,0.35-5.18-0.43
	c-0.09-1.54,3.05-0.47,4.75-1.08c0.13-1.46,2.44-0.73,3.02-1.73c1,0.3,1.98,0.62,2.16,1.73c1.35,0.45,2.92,0.12,4.1-0.22
	c0.05-0.84-0.46-1.12-0.65-1.73c0.11-0.68,0.38-1.21,0.65-1.73c0.48-3.77-0.34-6.09-1.73-8.85c-0.12-0.6-0.83-0.6-1.29-0.86
	c0.21-3.05-1.98-5.48-3.67-7.34c-0.7-2.47-2.07-4.26-3.67-5.83c-0.64-2.39-2.13-3.48-2.81-6.05c-0.66-2.5-1.97-5.18-2.16-7.99
	c-0.16-2.48-0.74-5.11-2.16-7.12c-0.28-0.39-0.81-0.67-1.08-1.08c-0.3-0.45-0.31-1.22-0.65-1.73c-2.02-3.07-4.7-6.8-6.48-10.58
	c-3-4.42-5.54-9.29-9.07-13.17c-0.98,2.21-0.73,4.94-1.08,7.12c-0.69,4.35-0.83,9.31-1.51,13.82c-0.94,6.21-2.1,11.97-4.1,17.27
	c-2.31,2.01-4.25,3.71-6.04,6.26c-0.35,0.49-0.87,0.86-1.08,1.3c-0.26,0.53-0.16,1.38-0.43,1.94c-0.35,0.72-1.15,1.23-1.51,1.94
	c-0.52,1.05-0.56,2.25-1.08,3.24c-0.42,0.81-1.17,1.57-1.73,2.38c-1.4,2.03-2.78,4.18-4.75,5.61c-0.25,1.12-1.1,1.64-1.73,2.37
	c0.01,0.71,0.92,0.52,0.86,1.3c0.25,1.62-1.13,1.6-1.94,2.16c-0.71,1.12-0.21,2.68-0.43,3.89c-0.16,0.86-0.85,1.52-1.08,2.37
	c-0.79,2.88-0.15,5.68,1.08,8.42c0.83,0.18,2.19,0.27,3.24-0.22c0.74-0.35,1.04-1.2,1.73-1.3c1.45-0.2,2.14,1.03,3.67,1.51
	c0.5-0.63,1.87-0.87,2.81-0.43c1.16-0.5,2.02-1.29,2.16-2.81c0.66-0.16,0.79,0.22,1.3,0.22c0.1,0.46-0.31,0.41-0.65,0.43
	c0.11,0.85,0.98,1.77,1.51,1.51c1.08-0.29-0.7-0.97,0-1.51c2.65-0.43,6.45,0.96,8.85,0.21c-0.59,1.11-2.03,0.05-2.81,0.86
	c0.69,1.33,3.3,0.73,4.96,1.08c0.29,0.72,0.67,1.34,1.3,1.73c0.39,0,1.26-0.58,1.51,0c-1.09,1.21-3.99,0.61-5.61,1.29
	c0.04-0.73,0.19-1.07-0.65-1.73c-1.07,0.66-2.4,0.83-3.45,0.22c-1,0.14-0.79,1.16-1.94,0.65c-0.14-0.79-0.4-1.48,0.22-1.94
	c1.08-0.07,1.06,0.96,1.94,1.08c0.67,0.02,1.03-0.26,1.51-0.43c-0.03-0.83-0.84-0.88-1.73-0.86c0.47-0.54,1.23-0.79,1.51-1.51
	c-1.65-0.17-2.5,1.48-3.89,0.86c-0.48,0.81-0.89,1.73-0.22,2.59c-2.99,2.17-6.46,0.34-10.36,0.86c0.51,1.8,2.53,1.03,4.32,1.73
	c0.84,0.12,0.89-0.55,1.51-0.65c3.34,0.72,6.58-0.11,9.28,0c-1.39,1.73-4.75,0.72-6.69,1.51c-1.06,0.05-1.36-0.66-2.37-0.65
	c-0.72,0.14-0.9,0.83-1.51,1.08c-2.02-0.51-4.17,0.44-5.83-0.43c-1.15,0.37-4.39,1.49-4.97-0.22c1.06-0.72,2.35,0.07,3.45-0.43
	c-0.72-1.67-4.99-1.58-4.53,1.29c-2.63,1.29-6.88,1.68-8.85-0.43c-1.41,0.24-4.04,0.42-5.18,0.22c0.4-1.42,2.26-0.33,3.24-0.86
	c-0.38-1.06-0.99-1.89-1.73-2.59c-0.26-1.96-0.68-3.81,0-5.83c0.14-0.42,0.53-0.84,0.65-1.29c0.24-0.88-0.05-1.61,0.22-2.38
	c0.22-0.64,0.8-1.04,1.08-1.73c0.99-2.41,1.71-4.89,2.81-7.12c-0.02-0.99-0.85-1.16-0.65-2.37c0.14-0.94,1.11-1.05,1.73-1.51
	c1.08-11.73,4.33-21.29,11.87-26.55c1.79-2.46,2.51-5.98,2.81-9.93c-0.89-2.12-1.42-5.01-1.51-7.77c-0.03-0.97,0.31-2.04,0.22-3.02
	c-0.1-1.05-0.31-1.6-0.22-2.81c0.19-2.34-0.12-4.61-0.22-6.91c-0.05-1.21,0.1-2.28,0-3.46c-0.2-2.37-1.33-4.41-1.73-6.91
	c-1.2-7.47,0.4-13.26,3.67-18.57c-0.96-2.48-1.62-6.28,0.22-8.64c-0.01-3.06-0.75-6,0.22-9.07c0.14-0.44,0.48-0.81,0.65-1.3
	c0.63-1.85,0.7-2.87,1.73-4.32c0.84-1.18,2.04-2.65,3.02-4.1c0.95-1.4,2.76-3.95,4.1-5.18c1.39-1.27,3.4-1.96,4.53-3.67
	c1.11-3.43,4.01-5.06,6.48-7.12c0.94,0.07,1.2-0.52,1.94-0.65c-0.01-0.94-0.13-2,0.43-2.38c-0.9-2.88,0.54-5.4,1.73-7.77
	c1.55-0.42,1.7-2.69,4.53-2.38c-0.43-1.66-2.07-2.9-2.59-4.75c-0.11-0.41-0.11-1-0.22-1.51c-0.57-2.75,0.1-5.11,1.73-7.56
	c1.07-0.73,2.05-1.55,3.02-2.37c0.53-0.03,1.04-0.03,1.3,0.22c2.8-1.21,7.65-0.09,9.93,1.51c2.4,1.68,3.11,2.97,3.89,5.83
	c2.62-0.1,3.25,1.79,4.75,2.81c4.84-0.73,10.14-2.6,15.54-3.24c2.76-0.33,4.81,0.52,7.34,0.43c1.01-0.04,1.65-0.59,2.81-0.86
	c2.95-0.7,5.73-0.74,8.85-1.08c0.73-0.08,1.67-0.2,2.38-0.43c1.07-0.35,1.83-1.27,2.81-1.94c0.82-0.56,2.05-0.87,2.38-2.16
	c-0.09-0.77-0.54-1.18-1.08-1.51c-0.73,0.2-1.27,0.6-2.37,0.43c-1.68-1.57-0.93-4.12-1.94-5.83c-0.58-0.97-1.65-1.15-2.37-1.94
	c-1.24-1.35-2.05-3.76-2.16-6.48c-2.5-2.96-2.78-6.52-0.43-9.71c1.03-1.4,3.26-2.93,4.75-4.32c1.13-1.05,1.75-1.81,3.46-2.59
	c0.32-0.15,0.44,0.1,0.65,0c0.32-0.16,0.53-0.68,0.86-0.86c0.74-0.39,3.76-1.17,4.75-1.3c1.01-0.13,2.19,0.1,3.24,0
	c3.08,1.31,4.69,4.09,6.91,6.26c0.29,1.58,1.15,2.59,2.16,3.45c0.28,1.74,0.8,3.23,1.51,4.53c-1.39,2.75,0.88,5.96,2.81,8.2
	c0.83,0.96,1.91,1.79,3.02,2.81c1.97,1.81,5.33,4.36,8.2,5.4c0.91,0.33,2.04,0.39,3.02,0.86c1.58,0.76,3.16,2.07,4.75,3.24
	c2.14,1.56,4.4,3.19,5.61,5.61c0.25,0.5,0.26,1.47,0.43,1.94c0.29,0.78,0.65,1.11,0.86,1.73c0.24,0.66,0.39,1.3,0.65,1.94
	c0.56,1.4,0.86,3.03,1.51,4.97c0.5,1.49,1.29,2.81,1.51,4.75c0.79,7.05,2.42,14.52,3.89,21.59c-0.5,2.01-2.11,2.04-3.89,3.24
	c-1.08,0.73-1.67,1.8-3.02,2.38c-1.35,0.57-3.02,0.35-4.1,1.51c0.12,3.06,2.69,5.51,3.02,9.07c1.38,1.42,2.6,5.48,1.08,7.77
	c0.33,6.73-1.64,13.01-1.94,19.43c-0.07,1.56,0.04,3.16,0,4.75c-0.02,0.67-0.38,1.26-0.43,1.94c-0.14,1.82,0.23,3.97,0.22,6.04
	c-0.01,1.53,0.11,3.37,0.86,4.97c4,2.91,7.83,5.99,11.66,9.07c4.42,5.07,6.84,12.12,10.79,17.92c1.07,1.57,2.34,3.9,3.45,5.83
	c0.84,1.46,2.1,2.92,3.89,3.67c0.12,0.75,0.58,1.15,0.65,1.94c3.39,2.22,6.75,4.48,7.12,9.71c0.32,0.91,1.16,1.28,0.86,2.81
	c-1.6,1.01-3.39,1.16-4.75,2.16c-0.84,0.61-1.09,1.45-1.73,2.16c-1.54,1.7-3.45,2.98-4.96,4.53c0.34,1.26,1.59,0.56,2.81,0.65
	c0.84,0.01,0.04-1.09,0.43-1.08c1.18-0.42,1.84,0.48,2.38,1.29c0.75,0.12,2.05-0.32,2.16,0.43c-0.25,1-2.28,0.26-3.67,0.43
	c-1.03,0.12-1.98,0.44-2.38,0.86c1.47,0.14,3.34-0.05,5.61,0.22c0.05,1.42-2.9-0.17-2.81,1.29c0.32,0.38,2.42-0.44,3.02,0.22
	c-0.29,1.37-2.48,0.19-3.45,0.22c-0.83,0.4-1.64,0.8-2.81,0.86c-0.47-0.39-0.17-1.56-1.08-1.51c-0.48,0.43,0.37,1.35-0.43,1.73
	c-0.97-0.05-1.47-0.92-2.38-0.43c-0.47-0.04-0.1,0.77-0.21,1.08c-0.51,0-0.64-0.37-1.29-0.22c-0.55,0.46,0.64,0.96,0,1.51
	c-0.72,0-1.44,0-2.16,0c-0.19-0.45-0.33-0.96-0.65-1.29c-0.31,0.91-2.23,1.14-3.02,0.86c-0.12-0.98,1.22-0.5,1.73-0.86
	c0.29-0.84-0.11-1.12,0.22-1.73c2.23,0.33,4.75,0.49,6.48,0.22c0.88-0.49,0.66-2.08,1.94-2.16c-2.28-0.15-4.41,0.41-6.91,0.65
	c-1.13,0.11-2.5-0.53-3.02-0.43c-0.99,0.19-1.27,1.18-2.16,1.51c-1.19,0.45-1.95-0.04-3.24-0.22c-0.66,0.06-0.97,0.47-1.51,0.65
	c-0.92-0.02-1.51-0.36-2.59-0.22c0.7,0.81,1.99,1.04,2.59,1.94c1.08-0.41,1.77,0.03,3.02,0c-0.23,0.8-1.49,0.78-2.37,0.86
	c-1.87,0.18-4.83,0.15-5.18-1.29c0.57,0,1.27,0.12,1.29-0.43c0.46-0.84-0.58-1.03-0.65-1.94c-1.08-0.33-1.27,0.27-1.94,0
	c0.53-2,4.06,0.45,4.75-2.38c0.68-0.11,0.76,0.39,1.51,0.22c0.31,0.55,0.21,1.52,0.65,1.94c1.42-0.14,2.96,0.97,3.89,0
	c-0.3-0.93-1.37-0.1-2.16-0.22c0.23-1.23-0.75-1.26-0.86-2.16c0.42-1.11,0.33-2.13,0.86-3.45c2.2-1.33,4.33-2.72,6.69-3.89
	c0.82-2.54,0.84-5.2,1.08-8.63c-0.38-0.48-1.21-0.51-1.51-1.08c-0.43-0.66,0.28-1.12-0.22-1.73c-1.01-2.25-2.89-4.11-4.53-6.04
	c-0.9-1.07-1.94-1.99-3.02-3.02c-1.27-1.21-2.86-2.55-4.32-3.89c-0.84-0.77-1.73-1.22-2.59-1.94c-1.52-1.28-2.68-3.02-4.1-4.32
	c-1.13-1.03-2.3-1.75-3.24-2.81c-2.08-2.35-4.21-4.72-6.48-7.12c-0.44-0.21-0.85-0.44-1.29-0.65c-1.86-1.62-2.59-3.29-3.46-6.05
	c-0.36-1.16-1.01-2.26-1.29-3.45c-0.74,0.12-1.1,0.63-1.51,1.08c-0.53,3.27-2.39,5.75-3.02,8.85c-0.07,0.35-0.14,1.61-0.22,2.37
	c-0.38,4.07,1.24,8.11,1.51,12.52c0.44,7.01-2.19,14.41-2.59,21.59c-0.11,2,0.29,5.54,0.43,8.63c0.51,0.71,1.23,1.22,1.51,2.16
	c-0.25,0.76-0.81,1.21-1.08,1.94c0.01,0.71,0.61,0.83,0.43,1.73c2.06,0.45,3.26-0.4,4.75-0.22c0.3-0.33,0.43-1.3,0.22-1.51
	c-0.86-0.21-0.09,1.21-0.86,1.08c-0.43,0-0.86,0-1.29,0c-0.36-0.29-0.07-1.22-0.43-1.51c-0.93,0.01-0.25,1.62-1.3,1.51
	c-0.4-0.78,0.23-1.37,0.65-1.94c1.81,0.29,3.88-0.44,4.53,1.29c0.06,0.56-0.08,0.93-0.65,0.87c0.8,0.35,1.58,0.72,2.81,0.65
	c0.23-1.13,0.93-1.8,1.08-3.02c1.44-0.3,3.01,0.02,4.53,0.22c0.42,0.88,0.82,1.78,1.3,2.59c2.63,0.94,3.78-1.02,6.26-0.43
	c-1.03,0.69-2.44,1.01-3.88,1.29c0.26,0.89,2.99,1.65,0.86,2.37c-0.04-0.88-0.18-1.67-1.51-1.73c-0.88,0.2-0.68,1.48-1.51,1.73
	c-1.59,0.04-3.31-0.38-4.32,0.43c-1.42,0.06-2.18-0.73-3.46-0.22c0.42-1.34,2.5-0.32,3.46-0.22c1.01-0.71,2.4-1.05,3.45-1.73
	c-0.16-0.56-0.69-0.75-1.51-0.65c-0.42,0.29-0.14,1.3-0.86,1.29c0.14-0.79-0.14-1.15-0.43-1.51c-1.72,0.49-4.13,0.02-6.48,0
	c-0.43,1.8,1.91,0.82,2.16,1.94c-2.41-0.28-4.25-0.18-6.48,0c0.11,2.86,4.23,0.64,5.4,2.16c-1.9-0.25-2.45-0.02-4.53,0
	c-0.04,1.46,0.06,3.32,0.65,4.96c0.68-0.83,2.24-0.79,2.81-1.73c0.32-0.82-0.96-0.04-0.65-0.86c2.55-0.4,5.65-1.41,7.34-0.86
	c-0.64,1.26-2.24,0.22-3.24,1.08c0.39,0.61,1.26,0.75,1.73,1.29c0.77-0.31,0.88-1.28,2.38-0.86c0.74,0.02,0.12-1.31,0.86-1.29
	c1.17-0.09,1.55,0.61,1.94,1.29c1.46,0.1,0.8-1.94,2.38-1.73c-0.62-1.21,1.42-1.01,1.51-2.16c1.2-0.19,1.51,0.51,1.94,1.08
	c0.79-0.22,0.55-1.46,1.51-1.51c1.37-0.07,1.55,1.04,2.16,1.73c1.04,0.27,1.89,0.02,2.16,0.65c-0.01,0.9-2.01-0.8-2.16,0.65
	c-0.64-0.81-1.63-0.09-2.38-0.22c-0.96-0.17-1.46-0.73-2.37-0.86c0-0.36,0-0.72,0-1.08c-0.67,0.05-0.37,1.08-0.43,1.73
	c-0.25,0.25-0.76,0.24-1.29,0.22c0.71,0.75,1.47,2.71,0,3.24c-0.13,1,0.17,1.56,0.65,1.94c-2.12-0.13-3.74,0.79-6.04,0.65
	c-0.8,0.3,0.04,0.89-0.65,1.29c-1.33,0.49-2.68-0.1-3.88,0c-1.43,0.12-2.87,1.36-4.1,0.22c2.04-1.21,4.5-0.67,7.34-1.08
	c0.15-2.36,5.01-0.03,4.75-2.81c-1.32-0.25-2.25,0.47-3.67-0.22c0.19-0.82,1.6-0.41,1.94-1.08c0.01-0.72-0.3-1.14-0.65-1.51
	c-0.25,1.55-2,1.59-2.81,2.59c-1.56-0.71-3.66,0.45-5.18-0.21c0.63-0.59,0.98-0.49,0.65-1.73c-0.61-0.04-0.42,0.73-1.3,0.43
	c-0.6,0.63,0.71,0.56,0.43,1.51c-1.03,0.35-1.46,1.81-2.59,0.86c-1.69,1.07-1.77,2.73-4.53,2.81c-0.61,0.02-1.08-0.38-1.73-0.22
	c-0.48,0.12-0.76,0.9-1.3,0.65c-1.02,2.03-4.62,1.53-7.12,1.51c0.19-0.85,0.82-0.17,1.3-0.22
	C134.94,216.83,137.01,215.97,138.82,215.71z M120.25,1.77c-1.53,1.15-3.61,1.4-5.18,2.37c-0.82,0.5-1.41,2.09-2.59,1.3
	c0.06-0.53,1.75-0.54,0.86-1.3c-0.51,0.42-1.2,0.68-1.51,1.3c-1.68,0.51-2.51,0.93-3.89,2.37c-0.96,1.01-2.7,3.41-2.81,4.75
	c-0.04,0.59-0.07,1.69,0.65,2.16c-0.19-1.63,0.7-2.18,2.37-1.94c0.46-0.76,1.24-1.21,1.51-2.16c-1.31,0.06-0.85,1.88-2.16,1.94
	c-0.04-1.86,2.06-2.74,3.02-3.89c0.3,0.01,0.47-0.1,0.65-0.22c0.7-0.12,1,0.15,1.51,0.22c0.43-1.37,2.66-0.94,3.24-2.16
	c0.07,0.51,0.94,0.21,1.08,0.65c-2.24,1.93-5.97,2.38-7.12,5.4c1.23-0.14,1.25-1.48,2.16-1.94c2.58,0.54,3.86-2.03,6.91-1.73
	c0.27-0.81,1.25-0.9,1.94-1.3c0.18-0.83-1.04-0.25-0.86-1.08c0.61-1.53,2.31-1.09,4.1-1.08c0.16-0.81-0.82-0.47-0.86-1.08
	c0.61-0.04,1.48,0.19,1.51-0.43c-1.29-0.65-3.49-0.39-3.67-2.16C120.82,1.77,120.54,1.77,120.25,1.77z M126.08,6.52
	c-0.03-0.55-0.31-0.84-0.86-0.86C125.11,6.33,125.76,6.26,126.08,6.52z M111.83,12.99c1.35-0.45,2.43-2.31,3.88-1.94
	c-1.57,1.67-2.98,3.5-4.96,4.75c0.05-0.91-1.11-0.62-0.86-1.73c-3.55,1.91-2.88,7.81-0.43,10.58c1.44-0.69,3.81-2.6,5.61-1.51
	c-0.03,0.77-1.76,0.96-1.3,1.51c0.55-0.34,1.74-0.85,2.38-0.43c-0.54,0.68-1.18,1.27-1.3,2.37c0.66,0.56,1.96,0.48,2.16,1.51
	c-2.19-0.25-2.77-2.13-5.4-1.94c0.61,1.59,1.08,4.09,1.3,5.4c0.88,0.49,1.27-0.34,2.37-0.22c0.39-0.55-0.41-1.22,0.43-1.51
	c1.96,0.1,0.7,2.21,1.3,3.45c1.29,0.12,2.52-1.3,3.45-0.22c-0.15,0.86-1.5,0.51-1.51,1.51c0.76,0.53,2.3,0.29,1.94,1.94
	c1.75,2.03,3.81-0.02,3.45-2.59c0.55,0.03,0.84,0.31,0.86,0.86c3.43-1.55,3.45-5.97,3.02-10.36c0.7-0.99,1.63-1.65,1.73-2.81
	c0.23-2.62-2.98-5.51-4.97-4.97c-1.14,0.31-2.11,2.76-0.43,3.67c-0.41-5.47,6.62-0.65,3.67,2.59c0.09-1.03-0.17-2.79-0.86-3.67
	c-0.76,0.03-1.23,0.35-1.73,0.65c0.42,0.66,1.94,0.22,2.16,1.08c-0.09,0.85-0.08,1.79-0.86,1.94c-0.48-0.03-0.09-0.92-0.22-1.29
	c-1.63,0.74-2.4-0.4-3.24-1.08c-0.91,0.17-1.4,0.76-2.37,0.86c-0.82-1.1-0.93-1.61-1.73-2.59c-0.83,0.03-1,0.73-1.94,0.65
	c-0.17-0.4-0.36-0.79-0.43-1.29c-1.57-0.08-1.7-1.61-3.02-1.94c0.14-0.79-0.47-0.83-0.43-1.51c1.54-1.13,3.14-2.19,4.96-3.02
	c0.73,1.06-0.48,1.74-0.43,2.81c0.05,0.64,0.8-0.87,1.08,0c0.13,0.78-0.66,0.64-0.65,1.29c1.42-0.24,1.73-1.58,2.59-2.38
	c-0.77-3.36,3.14-2.04,4.75-3.02c-1.23-0.72-3.29-0.58-4.32-0.43c-0.29-0.94,0.51-0.78,0.65-1.29c-0.52-0.42-1.31,0.29-1.94,0.43
	c-0.41-0.16-0.15-0.64-0.65-0.22c-0.56,0.57,0.35,0.17,0.22,0.86c-0.68-0.02-1.48,0.95-1.94,0.43c0.02-0.41,0.71-0.15,0.65-0.65
	C115.3,9.7,113.52,11.3,111.83,12.99z M120.9,15.37c1.47-0.76,2.94-1.53,3.89-2.81C123.23,12.4,121.37,13.74,120.9,15.37z
	 M131.04,30.7c-0.83,1.43-0.61,3.51-0.43,5.4c-0.43,0-0.27,0.59-0.86,0.43c-0.43-0.5-0.53-1.34-1.29-1.51
	c0.29,2.11,1.88,4.4,3.89,3.45c0.72-1.59,0.46-3.41,1.51-4.97c0.88,0.41,0.95,1.64,0.86,3.02c1.83-0.44,2.95-1.99,4.32-3.02
	c1.41-1.06,3.41-1.37,4.32-3.02c-1.38-1.16-5.38-0.55-4.75-3.02c-1.98-1.28-4.38-4.28-6.91-3.02
	C131.42,25.77,130.1,28.65,131.04,30.7z M142.49,84.45c1.33-0.51,2.79-0.47,4.1-0.86c0.72-0.22,1.4-0.78,2.16-1.08
	c1.86-0.73,3.16-1.53,4.53-2.16c0.84-0.39,1.78-0.45,2.59-0.86c2.89-1.47,5.26-4.22,8.85-4.53c1.15-0.79,1.88-2.07,1.94-3.02
	c0.15-2.33-0.22-5.27-0.65-7.77c-0.53-3.1-1.65-6.78-2.59-9.28c-0.39-1.03-0.73-2.35-1.08-3.02c-0.88-1.7-2.82-2.92-3.02-4.75
	c-0.1-0.88,0.44-1.8,0.43-2.59c-0.02-3.33-1.03-4.31-2.59-6.04c-1.44-1.6-2.31-3.08-4.53-3.24c-1.4-1.81-5.28-3.3-7.34-3.02
	c-1.64,0.22-1.8,1.04-2.81,2.16c-1.36,1.5-1.79,2.16-3.02,3.89c-0.94,1.31-1.72,2.32-2.37,3.67c-1.63,3.38-2.08,7.03-1.08,10.79
	c0.95,0.74,2.1,2.73,3.45,3.89c2.26,1.94,5.8,0.82,6.26-2.81c-0.51-0.89-1.86,0.69-2.59-0.43c0.49-3.23,2.71-1.92,4.32-0.65
	c2.28,1.81,1.58,2.78,2.59,5.83c0.32,0.97,1.07,1.73,1.3,2.59c0.19,0.73-0.01,1.49,0.21,2.16c0.32,0.94,1.81,3.52,2.38,4.1
	c1.03,1.06,2.13,0.62,2.81,2.16c-0.68,1.45-2.18,2.46-3.67,3.45c-1.8,1.2-3.51,2.73-5.61,3.24c-0.81,1.43-2.56,1.95-3.89,3.02
	c-0.64,0.51-0.98,1.3-1.73,1.73c-0.98,0.55-2.16,0.52-3.24,1.08c-0.14,1.73,0.58,2.58,1.08,3.67
	C140.74,85.56,141.61,84.79,142.49,84.45z M55.48,36.09c-0.19,0.49,0.73,1.26-0.65,1.51c-1.38-1.18,1.09-2.94,0.65-3.89
	c-3.23,1.29-6.27,5.27-4.75,9.28c0.66,0.16,0.42-0.59,1.08-0.43c0.03,1.28,1.56,0.85,1.94,0.22c0.3,0.27,0.09,1.06,0.65,1.08
	c0.16-0.92,1.35-0.8,1.94-1.3c0.27,0.09,0.44,0.28,0.43,0.65c0.61-0.11,0.92-0.52,1.51-0.65c0.96-2.68-2.07-2.87-2.38-4.96
	c0.72-0.58,1.33-1.4,2.59-0.86c-0.02-1.38,1.68-1.05,2.37-1.73c1.07,0.55,0.35,1.54,1.73,1.73c0.28-0.67-0.64-1.2,0-1.51
	c1.04,0.18,1.49,0.96,2.16,1.51C65.01,32.38,56.8,32.72,55.48,36.09z M120.25,36.09c-1.21-0.23-1.91-0.97-3.02-1.3
	c-2.15,1.83-3.97,3.8-6.91,4.53c-2.82,0.71-6.1,0.5-9.07,1.08c-1.3,0.25-2.53,0.81-3.89,0.86c-3.91,0.16-7.05-0.24-10.79,0.43
	c-4.24,0.76-8.18,1.72-12.31,2.59c0.48,1.89,0.14,2.02,0.43,4.1c-0.11,0.68-0.38,1.2-0.65,1.73c7.07,2.15,15.43,2.41,21.8,0
	c0.6-0.86,1.49-1.83,2.59-2.16c0.59-0.17,1.32,0.09,1.94,0c0.63-0.09,1.3-0.54,1.94-0.65c1.66-0.27,3.35-0.33,5.18-0.65
	c1.59-0.27,3.49-0.23,4.97-0.65c0.54-0.15,0.99-0.68,1.51-0.86c1.31-0.46,2.76-0.44,3.67-1.29c-0.47-1.04-1.92-1.11-1.94-2.59
	c-0.82,0.15-1.53-0.39-1.08-0.86c2.31,0.67,4.45,1.96,7.99,1.94c0.71-0.95,1.85-2.6,1.51-3.89
	C122.59,39.09,120.64,37.88,120.25,36.09z M142.92,65.45c-1.79-0.99-4.22,1.97-5.61,0c0.55-0.96,2.88-0.14,3.02-1.51
	c-1.08-0.23-2.36,0.41-3.67,0c-0.88-0.28-1.3-1.3-1.94-1.94c-0.63-0.64-2.13-0.82-1.29-1.73c1.12,0.3,2.19,1.38,3.24,1.08
	c-0.15-1.36-2.3-1.86-1.73-3.24c0.89-0.17,0.41,1.03,1.29,0.86c-0.18-1.19-1.45-1.29-1.29-2.81c0.82,0.01,1.3,1.14,2.16,0.43
	c-1.02-2.09-2.51-4.78-3.89-6.69c-0.95-1.32,0.28-3.35,0.43-4.32c0-0.51-0.37-0.64-0.22-1.3c0.68-1.41,1.44-2.73,2.59-3.67
	c0.29-2.46,2.99-3.61,3.02-5.61c-1.34,0.09-2.19,1.19-2.81,1.73c-1.53,1.33-3.55,3.84-4.53,3.89c-2.4,0.11-2.78-3.12-4.97-3.89
	c-0.34,0.02-0.17,0.55-0.65,0.43c0.17,1.76-0.88,2.89-1.29,4.32c-0.59,2.03-0.27,3.99-0.22,6.26c0.02,0.87-0.31,1.71-0.21,2.59
	c0.48,4.56,3.82,8.76,4.75,14.25c0.33,1.94,0.46,4.4,0.65,6.05c0.39,3.51-0.22,7.49,0.86,10.15c1.24-0.11,1.51-1.31,2.81-1.51
	c2.03-0.31,3.36,0.99,4.53,2.16c2.62-0.4,4.2-1.85,6.04-3.02c0.4-0.46,0.26-1.47,1.3-1.29c0.23-0.8-0.46-0.7-0.65-1.08
	c0.78-0.73,2.83-0.2,3.02-1.51c0-0.35-1.73,0.48-1.73-0.43c0.86-0.22,1.55-0.61,1.73-1.51c-0.39-0.51-2.11,0.6-2.37-0.43
	c0.24-0.98,2.17-0.28,2.16-1.51c-1.19-0.99-2.78,0.24-3.24-0.86c0.4-0.75,2.11-0.19,2.38-1.08c-0.91-1.35-2.72,0.2-3.67-0.43
	c0.53-0.76,1.85-0.74,2.16-1.73c-1.52,0.06-2.95,0.77-3.67,0.43C141.63,66.18,142.8,66.34,142.92,65.45z M65.85,36.96
	c0.14,0,0.29,0,0.43,0c0-0.14,0-0.29,0-0.43c-0.14,0-0.29,0-0.43,0C65.85,36.67,65.85,36.81,65.85,36.96z M73.4,46.24
	c-0.57-1.44-1.4-4.32-3.67-4.75c-0.56,1.7,0.58,4.31,1.73,5.61c-0.01-0.73-0.07-1.51,0.43-1.73C72.23,45.7,73.15,46.55,73.4,46.24z
	 M67.36,47.75c-0.1-0.41,0.29-1.3-0.43-1.08C66.58,47,66.61,47.9,67.36,47.75z M59.37,47.32c-0.07-0.17-0.57-0.26-0.65,0
	C58.58,47.82,59.56,47.79,59.37,47.32z M54.19,50.13c-1.24,0.06-2.75-0.16-3.67,0.22c-0.55,0.53,0.46,0.46,0.22,1.3
	c-0.89,0.19-1.48,0.68-2.38,0.86c-2.33,3.98-2.03,8.35-0.86,13.38c0.8,0.95,1.8,3.01,0.65,3.67c0.09-1.03-0.1-1.77-0.43-2.38
	c-1.82,1.21-2.91,3.13-4.53,4.53c-1.98,4.45,1.65,7.87,4.1,9.93c1.31,0.07,2.85,0.92,3.89,0c0.71-1.71-1.36-2.72-0.65-4.32
	c1.82,0.62,1.68,3.22,4.53,2.81c1.72-0.89,0.21-5.21,1.73-5.18c0.5,0.01,0.87,1.73,1.51,2.16c1.16,0.02,1.68,1.45,2.81,1.94
	c0.39,0.17,1.39-0.02,2.16,0.22c0.74,0.23,1.36,0.95,1.94,1.08c1.31,0.3,2.66-0.01,3.45,0c0.19-0.82,1.12-0.89,0.86-2.16
	c-0.53-0.53-0.94,0.16-1.73,0c0.09-1.17-1.25-0.91-1.3-1.94c0.74-0.27,1.72-0.3,2.37-0.65c0.15-1.38-1.45-1-1.51-2.16
	c0.31-0.05,0.36-0.36,0.65-0.43c0.53,0.88,2,1.08,3.24,0.65c0.11-1.84-1.62-1.83-1.51-3.67c-1.09,0.13-0.85,1.59-1.94,1.73
	c-1.07-0.58-3.63,0.32-4.32-0.65c0.68-0.73,1.6-1.48,2.81-1.08c2.16-1.29,7.2-3.52,3.45-6.26c0.1-0.69,0.82-0.76,0.86-1.51
	c-0.66-0.92-0.57-2.6-1.3-3.45c-0.79,0.05-0.83,0.3-1.51,0c0.37-1.56-2.51-1.56-1.51-2.38c-0.94-0.06-1.64-0.38-1.51-1.51
	c1.26,0.1,1.55,0.63,2.59,0c0.58,0.5,0.69,1.46,1.51,1.73c0.13-0.59-0.27-1.71,0.22-1.94c0.74,0.55,0.61,1.98,1.29,2.59
	c0.48-0.77-0.64-0.95,0.22-1.51c0.83,0.11,0.27,1.6,1.29,1.51c0.54-1.3-0.86-2.07-1.51-3.02c-0.1-0.15,0.1-0.5,0-0.65
	c-0.1-0.15-0.5-0.22-0.65-0.43c-1.35-1.94-2.58-3.78-5.4-3.89c0.02,0.77,0.8,0.78,0.65,1.73c-0.87-1.5-3.11-2.84-4.97-1.51
	c-0.12,0.75,1.39,0.35,0.65,1.08c-2.3-0.5-3.52-2.09-6.69-1.73C53.59,49.6,54.12,49.36,54.19,50.13z M128.24,67.83
	c-0.07-2.15-0.03-3.7-0.65-5.61c-0.31-0.96-0.69-1.87-1.08-2.81c-0.42-1.01-0.49-1.96-0.86-3.02c-0.17-0.49-0.69-0.85-0.86-1.29
	c-0.64-1.64-0.9-3.25-1.3-4.97c-0.28-0.01-0.3-0.28-0.65-0.22c-1.33,1-4,0.48-5.61,0.43c-1.84-0.06-4.04,0.5-6.04,0.43
	c-2.44-0.08-5.16,0.09-8.2,0.43c-3.12,0.35-5.63,2.09-8.42,2.81c-7.09,1.83-13.75-0.23-20.94-1.94c-0.78,0.7-2.07,1.65-1.3,3.24
	c1.04,0.32,0.45-0.99,1.3-0.86c1.19,3.24-0.37,5.25-1.94,7.12c0.91,0.5,0.51,0.89,0.65,1.73c0.08,0.47,0.61,1.09,0.65,1.3
	c0.42,2.3-1.62,2.97-1.29,4.75c6.64,0.46,10.69,2.52,17.05,2.37c0.76-1.73,3.12-2.75,5.4-1.73c3.25-3.19,8.08-5.5,12.74-3.89
	c2.21,0.76,3.92,3.62,5.18,5.18c2.81,3.49,1.31,9.31-2.16,11.44c-2.02,1.24-6.32,1.13-7.56-1.51c-2.58-0.26-4.15-0.72-7.12-1.29
	c-0.5,0.36-1.05,1.29-1.73,1.51c-2.16,0.72-2.89-0.98-4.75-1.3c-0.81-0.14-2.38-0.03-3.45,0c-1.48,0.04-2.92,0.64-4.53,0.86
	c-3.96,0.55-7.78,0-10.79-0.65c-1.15,2.47-4.61,0.96-6.69,0.22c-0.13,1.74-0.98,2.76-1.73,3.89c-0.16,1.7-1.31,3.04-1.94,4.53
	c-1.6,3.78-4.68,6.71-4.75,11.66c2.73,2.67,5.6,5.19,6.91,9.28c2.21,1.35,4.83-0.37,8.42-0.86c4.55-0.62,8.18-0.63,10.36-2.59
	c0.08-2.22,1.71-2.9,2.81-4.1c0.15-2.58,0.92-4.92,1.94-6.69c1.08-1.87,1.57-2.67,3.02-3.89c1.09-0.92,1.99-1.34,3.02-1.94
	c2.84-1.66,5.56-1.48,7.56,0.65c1.93-1.3,5.42-1.04,7.56,0.43c0.9,0.62,3.13,3.66,3.46,4.53c1.67,4.49-2.17,7.67-4.75,9.71
	c-1.02,0.81-1.96,0.96-3.02,1.51c-4.34,2.25-6.54,5.32-12.09,5.18c-0.58,1.87-2.1,2.8-4.32,3.02c-0.76-0.1-0.76-0.97-1.73-0.86
	c-2.64,1.95-4.83,4.17-7.56,5.83c-0.9,0.55-1.73,1.37-2.59,1.94c-0.97,0.64-2.01,0.79-3.02,1.29c-0.56,0.28-0.93,0.8-1.51,1.08
	c-1.05,0.5-2.56,0.34-3.24,1.51c-0.17,1.28,0.98,2.5,1.3,3.67c0.12,0.46-0.08,1,0,1.51c0.43,2.77,1.73,5.62,2.37,8.42
	c0.09,0.4-0.07,0.88,0,1.29c0.24,1.4,0.91,2.71,1.29,4.1c0.23,0.83,0.16,1.78,0.43,2.59c0.88,2.61,2.99,4.39,2.81,7.56
	c0.68,1.22,1.38,3.47,1.08,4.97c1.11,1.23,1.36,3.45,1.94,4.75c0.73,1.62,2.04,3.88,1.51,5.61c0.72,0.03,0.51,0.85,0.65,1.3
	c0.25,0.83,0.76,1.98,0.65,3.02c1.42,3.21,1.74,7.33,2.59,10.58c0.79,0.51,1.6,0.99,1.94,1.94c1.45,0.13,2.39,0.78,3.02,1.73
	c-0.42,1.16-1.58,1.58-2.38,2.37c2.73,5.54,7.95,8.6,12.95,11.88c0.52-0.43-0.36-0.92,0.43-1.08c1.29,0.18,2.98,0.03,4.75,0.22
	c0.49-0.09-0.03-1.18,0.65-1.08c1.7,0.54,2.05-0.22,3.24-0.65c0.56,0.69,1.82,1.26,1.3,2.38c-1.91,0.52-3.81,0.27-5.4,0.22
	c-0.76,0.49,0.69,0.95,0,1.29c-0.88,0.68-2.01-0.2-2.16,1.08c0.68,0.94,2.67,0.4,4.1,0.43c1.47,0.03,2.92,0.4,3.24-0.86
	c-0.62-0.88-1.49,0.12-1.29,0.65c-0.97-0.4-1.75-0.99-2.16-1.94c1.63,0.67,2.28-0.91,3.67,0c0.18-0.54,1.14-0.3,1.51-0.65
	c1.14,0.65,2.82,0.78,4.1,1.29c0.86,0.14,0.87-0.57,1.73-0.43c-0.13,0.77-0.43,1.27,0.65,1.51c1.03-0.61-0.55-0.8,0-1.3
	c0.9,0.25,1.09,1.01,1.94,1.3c0.72,0.24,1.88-0.61,2.38,0.43c1.78-0.88,3.83-1.49,4.75-3.24c-1.29-0.75-1.11,1.16-2.59,0.86
	c0.24-1.13,0.12-1.45-1.08-1.51c-0.79,0.86,0.68,0.75,0.43,1.73c-0.67,0.01-1.62,0.19-2.59,0.43c-0.9-0.19-1.3-1.15-2.38-1.29
	c-0.64-0.09-1.22,0.39-1.94,0.43c-0.74,0.05-1.85-0.09-2.59-0.21c-0.7-0.12-1.8-0.31-2.16-0.86c1.06-0.7,3.17,0.19,4.96,0.43
	c1.02-0.62-0.69-1.13,0-1.94c1.79-0.3,3.6-0.58,4.75-1.51c0.8,0.42,1.28,1.17,1.73,1.94c1.43,0.55,3.09,0.45,4.53,0
	c0.04,0.32-0.08,0.8,0.22,0.86c0.76-1.04,1.84-1.76,3.02-2.38c0.13-0.92-1.17-0.42-0.86-1.51c0.21-1.01,0.93-1.52,1.3-2.38
	c-0.6-5.51-0.64-9.71-1.73-14.68c-0.25-1.15-0.21-2.76-0.43-4.53c-0.14-1.11-0.7-2.22-0.86-3.46c-0.55-4.32-1.1-7.91-1.51-11.87
	c-0.06-0.55,0.09-1.16,0-1.73c-0.4-2.48-1.55-4.74-1.73-7.12c-0.17-2.24,0.67-6.45,1.3-7.99c-0.66-2.08,0.89-4.8,0.43-6.69
	c0.88-2.76,1.6-6.41,2.16-9.5c0.52-2.85,1.11-5.49,1.73-8.2c0.67-2.95,1.51-5.96,1.94-8.85c0.84-5.58,0.43-11.4,0.65-17.49
	c-1.8,0.33-3.13,2.02-4.97,2.59c-2.92,0.91-7.18,0.6-9.28-0.22c-2.31-0.9-4.92-2.8-6.04-4.32c-0.62-0.84-1.54-2.5-1.73-3.24
	c-0.85-3.41,1.84-5.37,4.75-7.34c-0.05-2.51,2.2-4.06,4.53-4.32c2.14-0.23,5.61,0.62,7.34,1.51c0.95,0.49,1.47,1.72,2.38,1.3
	C129.53,75.3,128.37,71.76,128.24,67.83z M42.31,71.07c0.29-0.48,0.58-1.14,0.86-1.51c1.05-1.36,3.66-2.57,3.89-3.67
	c0.28-1.41-1.3-2.63-0.86-3.45c-0.22,0-0.43,0-0.65,0c-1.61,1.06-3.03,2.3-4.75,3.24c-0.97,1.77-2.48,2.99-3.24,4.97
	c-4.76,4.02-9.65,8.84-12.31,14.68c-0.66,1.45-1.31,3.09-1.51,4.75c-0.27,2.2,0.51,4.89,0,7.34c-0.17,0.82-1.11,1.77-1.08,3.02
	c1.07,0.29,1.66,1.08,3.24,0.86c0.04-1.11-0.13-2.44,0.22-3.24c-1.97-3.12-0.6-7.38-0.43-11.01c1.48-2.91,3.44-5.53,6.26-6.91
	c0.89-0.44,2.37-1.19,3.02-1.29c1.99-0.32,5.63,1.07,7.12,2.16c0.44,0.32,0.62,0.99,1.08,1.29c0.83,0.54,1.85,0.63,2.37,1.08
	c1.27,1.09,1.69,3.1,3.02,3.89c0.54,1.19,1.12,2.34,2.16,3.02c-0.16-2.43-1.16-4.02-1.94-5.83c-0.69-0.54-2.27-1.32-1.94-2.16
	c3.58,1.67,10.03,3.57,11.66-1.08c-1.29,0.51-1.3,1.72-2.59,2.16c-0.81,0.27-3.15,0.38-4.32,0.22c-2-0.28-3.84-1.84-5.61-1.94
	C42.9,78.51,39.91,75.06,42.31,71.07z M93.48,74.09c0.72,2.87,2.07,5.13,5.61,5.18c0.23-0.55-0.66-1.03,0-1.29
	c0.79-0.2,1.35,0.94,1.94,0.22c-0.2-0.06-0.73-0.8-0.22-0.86c1.05-0.19,1.11,0.62,2.16,0.43c-0.65-1.31,0.97-0.66,1.08-1.73
	c-1.2,0.06-2.32-1.12-3.89-1.3c-2.13-0.24-3.58-0.31-3.89-1.94c0.7-1.03,1.93-1.53,3.45-1.73c0,0.22,0.18,0.26,0.22,0.43
	c0.17,0.75-0.32,0.83-0.22,1.51c1.5,1.11,3.12,0.32,4.53-0.22c0.44,0.8-0.44,0.99-0.22,2.16c0.75,0.87,1.8,0.1,2.37,1.08
	c-0.53,1.42-0.86,3.03-1.51,4.32c0.3-0.01,0.47,0.1,0.65,0.22c0.46-0.61,0.64-1.52,1.73-1.51c0.01-1.14,0.49-1.81,0.86-2.59
	c-1.72,0.23-0.7-1.04-0.86-2.16c-0.43,0-0.86,0-1.29,0c-0.52-1.06-1.08-1.71-0.65-3.02c-0.57,0.22-1.1,0.23-1.51-0.22
	c-0.69-0.64,1.12-0.87,0.43-1.51c-1.19-0.19-0.84,1.18-1.94,1.08c-0.9-0.09-1.13-1.46-0.43-1.94c-1.36-0.13-0.95,1.49-2.16,1.51
	c-0.12-0.45-0.53-0.62-0.43-1.3c-1.07-0.28-0.92,0.66-1.73,0.65c-0.3-0.62,0.67-1.18-0.22-1.08C94.94,69.22,94.14,71.58,93.48,74.09
	z M90.02,71.07c0.35,1.8-1.21,3.52-1.08,5.4c0.06,0.81,0.93,1.44,0.86,2.38c0.17,0.05,0.43,0.01,0.43,0.22
	c0.97,0.1,0.96-0.76,1.73-0.86c0.16-0.66-0.59-0.41-0.43-1.08c0.19-0.46,0.66-0.64,0.65-1.3c-0.6-2.27,0.93-2.9,1.3-4.75
	C92.8,69.71,90.98,70.43,90.02,71.07z M79.01,71.28c-2.6-0.5-5.52-1.61-6.48,0.22c0.42,2-0.58,2.35-0.22,4.1
	c4.28,2.94,9.77,1.14,15.33,2.16c1.05-1.36,0.37-3.12,0.86-4.97C86.04,72.47,82.42,71.93,79.01,71.28z M105.57,72.58
	c0.74-0.39,1.04,0.03,1.94,0c-0.01-0.3,0.1-0.47,0.22-0.65C106.7,71.56,105.98,71.81,105.57,72.58z M89.38,72.36
	c0,0.14,0,0.29,0,0.43c0.53,0.34,0.64-0.73,0.22-0.65C89.58,72.28,89.56,72.4,89.38,72.36z M166.02,77.98
	c1.22,0.22,2.9-1.19,1.73-1.94C167.33,76.84,166.23,76.97,166.02,77.98z M115.93,80.35c1.97,0.36,3.56,0.12,5.18,0.43
	c-0.57,2.67-0.82,5.66-3.24,6.48c-0.05-0.31-0.36-0.36-0.43-0.65c0.71-0.8,1.29-1.74,1.3-3.24c-0.78-1.52-2.9-0.75-4.53-1.08
	c-2.42,1.65-4.1,4.3-2.16,7.12c1.31-0.23,1.51,0.65,2.16,1.08c0.12-0.6,0.23-1.21,1.08-1.08c0.34,0.59,0.31,1.57,0.65,2.16
	c0.98-0.02,0.88-1.13,1.73-1.29c0.96,0.27,0.31,2.14,1.73,1.94c0.06-0.92-0.56-2.11,0-3.24c0.51,0.07,0.4,0.75,1.08,0.65
	c0.43-1.24,0.1-2.81,0.86-3.24c0.61,1.4,0.28,3.75,1.51,4.53c0.03-1.18,0.02-2.33-0.21-3.24c0.76-0.25,0.76-1.25,1.73-1.29
	c0.68,0.47,0.44,1.86,1.73,1.73c-0.2-0.89-1.15-2.15-0.65-3.02c1.47-0.03,0.78,2.1,2.16,2.16c0.22-1.52-1.44-2.3-0.65-3.67
	c0.7,0.67,1.54,2.34,2.59,1.94c-1.41-0.97-1.5-3.25-2.81-4.32c0-0.51,0.37-0.64,0.22-1.29C124.23,77.56,117.47,76.11,115.93,80.35z
	 M103.63,78.84c0.06-0.13,0.54-0.83,0-0.86C103.56,78.11,103.09,78.81,103.63,78.84z M131.48,81.65c0.56,1.31,0.21,3.53,0.86,4.75
	c0.86-0.58,2.48-0.4,3.45-0.86c0.34-0.31-0.51-1.78,0.86-1.51c-0.08-0.92-0.96-1.06-1.08-1.94c0.02-0.41,0.71-0.15,0.65-0.65
	C134.91,80.06,132.4,79.71,131.48,81.65z M51.17,96.76c0.08-2.23-0.77-4.7-1.94-6.26c-1.24-1.66-3.71-2.2-4.53-4.1
	c0.07-0.5,0.42-0.89,0-1.3c-1.13-1.07-2.19-1.88-3.45-2.59c-1.21-0.68-3.08-1.85-4.53-1.94c-2.78-0.18-6.39,2.16-7.56,3.45
	c-1.55,1.71-2.76,4.15-3.02,6.91c-0.45,4.6,0.42,9.42,3.45,11.44c1.33,0.89,3.78,1.58,5.61,0.65c-0.13-1.67-2.11-1.49-2.81-2.59
	c0.2-0.38,0.48-0.67,0.86-0.86c2.12,0.4,2.73,2.31,4.53,3.02c-0.09,0.52,0.39,0.47,0.22,1.08c1.1,0.63,1.51,1.95,2.81,2.38
	c3.35,4.27,8.69,9.99,13.38,13.17c0.83,0.56,1.45,1.26,2.16,1.73c0.49,0.32,1.47,0.43,2.16,0.86c1.54,0.96,2.56,2.57,3.89,2.59
	c0.93,0.01,1.92-0.37,2.16-1.51c-0.66-0.56-2.68,0.24-2.59-1.08c0.76-0.44,2.92-1.2,4.32-0.86c0.04,1.12-1.27,0.89-1.3,1.94
	c2.61-0.25,3.72-2,5.4-3.02c0.82-0.5,1.74-0.82,2.59-1.3c0.88-0.49,1.72-1.14,2.81-1.3c1.93-2.32,4.96-3.53,6.48-6.26
	c-1.13-0.67-0.83-2.77-2.38-3.02c-4.48,2.93-13.35,1.48-17.92,4.32c-1.75-1.22-2.96-2.68-3.89-4.75c-0.42-0.94-0.47-1.96-1.08-2.81
	c-1.65-2.27-4.18-2.92-6.26-4.75C50.64,98.8,51.13,97.79,51.17,96.76z M132.56,90.07c0.41,0.05,0.48-0.24,0.86-0.22
	c-0.21-0.87-0.37-1.79-0.86-2.37C132.33,88.08,132.14,89.5,132.56,90.07z M91.54,90.5c-3.59,2.18-5.77,5.12-6.48,8.85
	c-0.43,2.29-0.75,4.41-0.22,5.61c-0.9,0.04-0.67-1.06-1.73-0.86c-2.91,1.62-1.23,6.25,0.43,7.99c1.6,0.08,2.6-0.42,3.45-1.08
	c0.32-2.19-1.22-2.52-1.73-3.89c0.03-0.4,0.14-0.72,0.43-0.86c1.1,0.99,1.75,2.43,3.45,2.81c0.63-0.3-1.28-1-0.65-1.3
	c0.93-0.63,2.13,0.33,2.81-0.43c-0.47-0.03-0.46-0.54-0.43-1.08c1.33-0.25,2.77,1.21,3.45,0.22c-0.57-0.58-2.08-0.22-1.94-1.51
	c0.36,0.36,1.27,0.17,1.94,0.22c-0.22-1.66,1.7-1.18,3.02-1.3c0.21-1-1.29-0.29-1.08-1.3c1.03-0.76,2.27,0.7,2.81-0.22
	c-0.77-0.12-1.98-0.61-1.51-1.29c0.87,0.2,2.25,0.44,2.81-0.22c-0.38-0.49-1.53-0.2-1.73-0.86c0.36-0.93,2.71,0.12,3.02-0.86
	c-0.5-0.07-0.93-0.22-1.08-0.65c0.45-0.34,1.43-0.15,1.94-0.43c0.28-1.02,0.82-1.77,1.29-2.59c-0.38-0.2-1.08-0.07-1.29-0.43
	c0.15-0.57,0.98-0.46,1.08-1.08c-0.13-0.37-1.02,0.02-1.08-0.43c0.07-0.51,0.75-0.4,0.65-1.08c-0.77-0.16-1.48,0.67-1.73-0.22
	c-0.11-0.71,1.07-0.46,0.43-1.08c-1.53-0.18-3.32,1.18-4.97,1.08c-0.55-0.03-0.99-0.5-1.51-0.43c-1.31,0.18-2.04,1.18-2.81,2.16
	c0.2,0.37,0.8,0.35,0.65,1.08c-0.04,0.61-0.38,0.92-1.08,0.86c-0.62-0.82-1.57-1.31-1.94-2.38c1.22-1.73,3.92-1.98,5.18-3.67
	C93.68,88.86,92.89,89.67,91.54,90.5z M133.42,91.15c0.01-0.37-0.17-0.55-0.43-0.65C132.98,90.87,133.15,91.05,133.42,91.15z
	 M136.23,92.87c-0.76-0.47-1.27-1.17-2.38-1.3C133.98,92.54,135.2,93.53,136.23,92.87z M137.31,93.3c0.04-0.32,0.52-0.2,0.86-0.22
	C138.34,91.81,136.55,92.87,137.31,93.3z M133.42,96.33c-0.32,3.87,0,7.92-0.43,12.52c-0.5,5.35-2.05,8.84-2.59,13.39
	c-0.18,0.75-0.72,1.15-0.65,2.16c5,1.41,9.9,2.91,14.9,4.32c0.43-0.36,1-0.58,1.08-1.29c-0.13-0.66-1.16-0.42-1.29-1.08
	c0.38-1.11,1.3-0.44,2.16-0.86c0.04-1.48-2.2-0.68-2.38-1.94c0.45-0.34,1.43-0.15,1.94-0.43c-0.15-1.15-1.78-0.81-2.16-1.73
	c0.6-0.19,1.07-0.52,1.73-0.65c0.07-0.93-1.2-0.53-1.08-1.51c0.55-0.46-0.18-1.21,0.22-1.51c0.81,0.17,1.03-0.26,1.73-0.22
	c-0.19-1.24-2.02-0.86-2.38-1.94c0.74-0.34,2.14-0.02,2.38-0.86c-0.82-0.33-2.2-0.11-2.38-1.08c0.3-0.77,2-0.15,2.16-1.08
	c-0.52-0.77-1.64-0.95-2.59-1.29c-0.11-0.97,1.12-0.61,1.51-1.08c-0.58-0.43-1.41-0.61-1.94-1.08c0.02-1.06,1.84-0.31,2.38-0.86
	c-0.7-0.45-2.09-0.21-2.38-1.08c0.64-0.25,1.67,0.17,2.16-0.65c-0.5-0.94-2.16-0.72-2.81-1.51c0.53-1.23,2.89,0.5,3.02-0.86
	c-0.54-0.47-1.58-0.44-1.94-1.08c0.32-0.32,1.23-0.06,1.08-0.86c-0.78-0.52-1.93-0.66-2.37-1.51c0.33-0.31,1.01-0.29,1.29-0.65
	c-0.54-0.39-1.42-0.45-1.73-1.08c0.38-0.05,0.49-0.37,0.43-0.86c-0.92-0.37-0.55-0.99-1.3-1.73c0.07-0.29,0.31-0.41,0.22-0.86
	c-1.21,0.73-2.44,1.45-4.53,1.3c-1.13-0.81-2.19-1.7-3.89-1.94C132.85,95.61,133.45,95.64,133.42,96.33z M25.69,103.45
	c-0.56-0.88-1.68-1.2-2.59-1.73C22.25,103.11,24.6,104.01,25.69,103.45z M29.36,108.42c0.58-0.01,1.44-0.43,2.38-0.65
	c2.47-0.58,5.03-0.87,5.18-3.02c-3.89,0.49-8.93,1.53-12.95,0C24.76,106.61,26.75,108.45,29.36,108.42z M20.29,123.75
	c0.34,1.98,1.2,3.98,1.51,6.04c0.8,5.24-0.13,10.94,0.43,15.33c1.68-0.52,3.57-1.35,5.61-0.86c-0.83-1.59,1.55-0.94,1.3-1.94
	c0.61-0.04,1.48,0.19,1.51-0.43c-0.29-0.22-0.8-0.2-0.86-0.65c0.54,0.04,0.68-0.33,0.86-0.65c-0.32-0.19-0.68-0.32-0.65-0.86
	c0.86,0.12,1.67-0.43,2.38-0.65c0.31-0.09,1.17,0.37,1.08-0.43c-1.12-0.99-2.88,1.11-3.67-0.21c1.02-0.4,2.52-1.31,3.67-0.86
	c-0.16-0.66,0.37-0.63,0.22-1.3c-0.58-0.28-3.1,0.99-3.67-0.21c1.73-0.45,3.16-0.74,4.1-1.51c-1.08-0.77-3.14,0.72-3.89-0.43
	c1.14-0.3,2-0.88,3.45-0.86c-0.86-1.58-3.37-0.09-4.53-0.65c0.55-1.61,3.94-0.38,4.32-2.16c-1.32-0.36-2.71,0.94-3.24,0
	c0.72-0.29,1.62-0.4,1.94-1.08c-0.87-0.28-2.3,0-2.38-1.08c1.36,0.13,1.66-0.79,3.02-0.65c-0.16-1.52-3.95,0.68-4.32-1.08
	c1-0.51,2.86-0.16,3.45-1.08c-0.7-1.22-2.85-0.13-3.24-1.3c1.01,0.34,1.45-0.36,2.16-0.86c-0.82-0.55-2.35-0.38-3.02-1.08
	c0.57-0.96,2.28-0.05,2.59-0.86c-0.69-0.64-2.79,0.77-3.02-0.65c0.73-0.18,1.99,0.13,2.37-0.86c-0.46-0.83-2.65,0.05-3.02-0.86
	c0.72-0.36,1.4-0.76,2.59-0.65c-0.41-1.48-1.82-0.15-2.38-1.08c0.49-0.8,2.43-0.16,2.59-1.29c-1.67-0.13-2.76,0.22-3.45-1.08
	c0.21-0.51,1.25-0.19,1.51-0.65c-0.77-0.09-1.19-0.54-1.51-1.08c0.51-0.93,3.02,0.17,3.89-0.86c-1.26-0.69-3.31-0.57-4.1-1.73
	c1.17-0.15,2.79,1.03,3.45,0c-1.02-0.49-2.63-0.4-2.59-1.94c-1.48-0.39-1.98-1.76-3.24-2.38C20.51,111.15,19.18,117.27,20.29,123.75
	z M128.45,131.52c-0.29,1.52-0.82,3.07-1.08,4.53c-0.8,4.6-1.24,10.39-1.73,14.46c-0.28,2.34,0.85,5.06,1.29,7.99
	c0.2,1.33,0.31,2.74,0.43,4.1c0.97,11.26,3.84,23.42,3.89,33.25c1.44,0.16,4.14,1.19,6.26,0.65c0.98-2.77-0.32-5.69,0-8.85
	c0.12-1.2,0.72-2.47,0.86-3.67c0.14-1.23-0.1-2.42,0-3.67c0.42-5.44,1.8-10.83,1.73-15.54c-0.06-3.69-0.5-7.09-1.73-9.5
	c-0.85-1.67-1.66-3.59-3.45-3.88c-0.67-0.65-1.75,1.01-2.59,0.21c0.8-3.8,3.9-5.54,5.83-7.77c0.9-1.04,1.66-2.6,2.59-3.89
	c0.96-1.33,2.06-2.71,2.59-4.1c0.24-0.63,0-1.27,0.22-1.94c0.42-1.32,1.89-2.51,1.51-4.1c-5.32-1.37-10.74-2.64-15.54-4.53
	C129.09,127.27,128.91,129.14,128.45,131.52z M31.09,140.8c0.37,0.01,0.55-0.17,0.65-0.43C31.4,140.39,30.99,140.34,31.09,140.8z
	 M22.02,146.41c-0.06,3.37,1.46,6.61,1.51,9.93c0.03,2.13-0.63,5.82-1.3,7.12c-0.28,0.54-1.02,0.93-1.51,1.51
	c-0.53,0.63-0.84,1.46-1.3,1.94c-1.08,1.14-2.64,1.95-3.67,3.24c-1.47,1.82-2.28,4.05-3.24,6.26c-2.04,4.7-3.26,10.2-3.89,15.98
	c1.05,0.46,1.41,1.62,3.24,1.29c0.64-0.37,0.92-1.09,1.08-1.94c0.94-0.21,0.96-1.34,1.94-1.51c-0.16-0.66,0.37-0.63,0.22-1.29
	c1.3-0.43,1.42-2.04,2.59-2.59c0.67-1.79,2.05-3.2,3.02-4.75c1-1.59,1.92-3.22,3.24-4.53c-0.23-1.75,1.23-3.46,1.73-5.18
	c0.06-0.78-0.85-0.59-0.86-1.3c2.16-0.79,3.47-2.43,5.83-3.02c2.41-2.45,2.94-6.38,3.24-10.36c0.29-3.92-0.45-8.36-0.65-12.09
	C29.29,144.24,25.17,145.4,22.02,146.41z M71.46,155.05c-0.32-1.94-1.93-4.22-3.24-5.4c-1-0.9-3.54-2.54-4.75-2.81
	c-2.29-0.51-3.85,3.42-3.89,5.4c-0.01,0.81,0.27,2.2,0.43,3.02c0.37,1.92,1.3,3.82,1.94,4.97c0.18,0.54,0.28,1.16,0.22,1.94
	c0.19,0.67,0.72,1.01,0.86,1.73c-0.17,0.48-0.45,0.84-0.43,1.51c0.98,6.57,3.71,11.4,7.12,15.54c0.47,2.18,2,3.76,3.02,5.4
	c0.48,0.77,0.5,1.83,1.51,2.16c1.27-0.31,2.39-0.78,3.45-1.29c-0.29-4.57-1.26-8.85-1.51-13.39c-0.06-1.06,0.15-2.14,0-3.24
	c-0.08-0.61-0.5-1.12-0.65-1.73c-0.69-2.82-0.71-5.96-2.16-8.42c-0.76,0.17-0.73,1.14-1.73,1.08
	C70.1,159.37,71.82,157.2,71.46,155.05z M186.74,177.72c0.4-1.26-1.19-4.8-1.94-6.69c-0.97-2.43-2.33-4.2-3.24-5.83
	c-1.14-2.03-2.08-3.86-3.46-5.61c-1.29-1.65-2.47-3.57-4.1-4.96c-2.28-1.96-4.73-3.51-7.34-4.96c-2.37-1.33-5.27-2.29-8.64-1.94
	c-0.9,0.72-1.85,1.51-1.94,2.59c-0.05,0.59,0.7,2.77,1.08,3.46c0.62,1.12,2.14,2.09,3.24,3.24c1.06,1.11,1.95,2.4,3.02,3.46
	c6.46,6.33,15.6,12.3,19.43,20.08C183.41,179.43,186.3,179.12,186.74,177.72z M186.31,179.44c-0.52,0.27-1.05,0.53-1.73,0.65
	c0,1.22-1.9,0.54-1.73,1.94c2.65,0.19,4.71-2.04,6.26-3.67c1-0.58,2.15-1.01,2.38-2.38C188.77,174.53,188.22,178.68,186.31,179.44z
	 M184.15,183.76c-0.18,2.45,0.03,6.92-1.08,9.5c-0.52,0.09-0.47-0.4-1.08-0.22c-2.09,1.37-4.94,1.97-5.83,4.53
	c3.66-0.27,5.89,0.79,8.42,0c0.42-0.13,2.62-1.73,2.81-1.94c0.68-0.75,0.74-1.8,1.08-2.81c0.26-0.76,1.05-1.68,1.51-2.37
	c0.56-0.84,1.16-1.78,1.94-2.16c0.42,0.4,0.07,0.79,0,1.3c2.33-0.15,4.57-4.56,1.94-4.97c-1.04-0.16-1.56,1.62-2.81,2.16
	c-0.68,0.29-2.02,0.41-2.59,0.43c-0.48,0.02-1.88,0.25-1.94-0.65c0.6-1.06,3.25-0.06,3.67-1.29c-1.08-1.03-3.34,0.35-4.1-0.86
	c0.82-1.48,4.87,0.26,4.96-1.94C188.98,183.12,185.8,182.67,184.15,183.76z M77.5,188.29c-0.89,0.23-1.15,0.2-1.51,0.65
	c-0.36,0-0.72,0-1.08,0c-0.22,0.5-0.74,0.7-0.65,1.51c1.1,0.82,1.93-0.77,2.81-0.22c1.44-1.44,4.56-1.2,5.4-3.24
	C80.51,185.78,79.39,187.8,77.5,188.29z M76.21,192.18c0.32,2.91,1.66,6.95,0.86,11.01c0.31,0.12,0.53,0.34,0.65,0.65
	c2.34-0.33,4.57-0.14,6.69,0.21c0.26,0.04,0.29,0.4,0.43,0.43c1.04,0.23,1.95-0.1,2.81,0.22c0.37,0.14,0.5,0.53,0.86,0.65
	c0.73,0.23,1.59,0.14,2.38,0.43c1.25,0.47,2.39,1.52,4.32,1.3c0.44-0.06,0.05-0.96,0.65-0.86c0.61,0.17,1.63,0.64,2.16,0.22
	c-0.78-1.82-2.49-3.58-4.75-3.24c0-0.36,0-0.72,0-1.08c-1.22-0.06-1.66,0.65-2.59,0.86c-2.18-1.14-3.77-2.85-5.83-4.1
	c-0.34,0.88-0.66,1.79-1.3,2.37c-1.24-0.36-2.16,1.95-3.89,0.65c1.05-0.41,2.46-2.45,1.73-3.24c-0.72,0.83-2.45,2.84-3.45,0.86
	c1.36-0.58,1.5-2.39,2.38-3.45c-1.09-0.42-2.01-1.01-1.94-2.59c0.07-0.51,1.02-0.13,0.86-0.86c-0.39,0-1.26,0.58-1.51,0
	c0.2-0.95,1.33-0.97,1.94-1.51c0.01-0.37-0.17-0.55-0.43-0.65C77.83,190.63,77.27,191.66,76.21,192.18z M192.57,193.26
	c1.14-0.66,2.26-1.34,2.81-2.59C194.28,191.37,192.9,191.79,192.57,193.26z M10.79,194.99c-0.99-0.7-2.02-2.39-3.67-1.73
	c0.28,1.37,1.41,1.9,2.16,2.81c1.97-0.04,4.8,1.15,5.83-0.65C14.21,194.13,12.27,195.2,10.79,194.99z M81.61,193.91
	c0.14,0,0.29,0,0.43,0c0-0.14,0-0.29,0-0.43c-0.14,0-0.29,0-0.43,0C81.61,193.62,81.61,193.76,81.61,193.91z M14.46,194.12
	c0.38-0.05,1.08,0.22,0.86-0.43c-0.29,0-0.58,0-0.86,0C14.46,193.84,14.46,193.98,14.46,194.12z M83.76,197.36
	c1.04,0.54,1.6-1.23,0.65-1.3C84.22,196.52,83.75,196.71,83.76,197.36z M7.56,196.28c-0.86,1.42-1.57,3.51-2.16,4.97
	c-0.24,0.59-0.39,1.29-0.65,1.94c-0.23,0.57-0.86,1.15-1.08,1.73c-0.12,0.33,0.09,0.67,0,1.08c-0.52,2.25-1.92,3.9-0.86,6.69
	c1.9,0.58,3.51,3.17,5.83,1.94c0.92,0.88,2.67,1.11,3.67,0.65c2.77-1.29,0.05-5.82-0.65-7.77c0.84-0.5,0.23-1.7,0-2.38
	c0.74-0.92,1.14-2.17,1.51-3.45c-1.23,0-1.42-1.02-2.59-1.08c0.02,0.84,1.05,0.67,1.08,1.51c-0.4,0.42-0.79,0.07-1.3,0
	c-0.06,0.85,0.92,0.66,0.86,1.51c-0.34,0.41-0.84-0.31-1.3,0.22c-0.37,1.38,0.96,1.06,0.86,2.16c-0.09,0.49-1.18-0.03-1.08,0.65
	c0.21,0.72,0.93,0.94,1.08,1.73c-0.22,0.43-0.95,0.34-0.86,1.08c0.8,0.07,1.62,1.25,1.08,1.94c-0.79,0.14-0.83-0.47-1.51-0.43
	c-0.69,0.15-1.68,1.24-1.94,0c0.3-0.34,0.74-0.55,1.29-0.65c-0.16-1.07-0.23-1.38,0.22-2.16c-0.54-0.15-0.89,0.95-1.3,0.22
	c0.15-1.07,1.41-1.03,1.3-2.38c-0.41-0.54-1.12,0.45-1.3-0.43c0.37-0.79,1.51-0.79,1.51-1.94c-0.54,0.03-0.9-0.11-1.08-0.43
	c0.16-0.63,1.17-0.42,1.08-1.29c-0.32-0.33-1.23-0.06-1.08-0.86c0.98-0.32,2.12-1.62,1.73-2.59c-0.31,0.32-1.31,1.06-1.51,0.22
	c0.42-2.26,3.15,0.36,4.1-1.29C11.08,197.01,9.51,196.62,7.56,196.28z M85.06,198.23c0.62,0.24,1.27,0.45,1.73,0.86
	c0.29-0.36,0.57-0.72,0.43-1.51c-0.71-0.03-0.95,0.97-1.51,0.43c0.16-0.44,0.68-0.85,0.22-1.3
	C84.93,196.51,85.51,197.88,85.06,198.23z M130.18,197.15c0,0.36,0,0.72,0,1.08c2.73,0.8,5.88,1.68,8.85,1.51
	c0.94-0.05,2.28,0.39,1.73-1.08C137.28,198.24,133.94,196.57,130.18,197.15z M12.52,199.52c0.39-0.45-0.3-1.14-1.08-1.08
	C11.62,198.98,11.72,199.6,12.52,199.52z M87.22,199.95c1.12,0.17,1.18,1.41,2.59,1.3c0.07-0.51,0.34-0.81,0.22-1.51
	c-0.95-0.23-0.71,0.73-1.51,0.65c-0.15-0.8,0.37-0.93,0.22-1.73c-0.28-0.01-0.3-0.28-0.65-0.22C87.85,199,87.3,199.24,87.22,199.95z
	 M193.22,199.09c0.49,0.06,0.81-0.05,0.86-0.43C193.76,198.32,193.12,198.42,193.22,199.09z M185.02,199.52
	c0.38-0.05,1.08,0.22,0.86-0.43C185.48,199.12,185.16,199.23,185.02,199.52z M175.95,199.52c0,0.32,1.49,0.28,2.16,0.43
	C177.78,199.09,175.95,199.15,175.95,199.52z M188.47,199.95c0.54,0.03,0.89-0.11,1.08-0.43
	C189.23,199.18,188.32,199.21,188.47,199.95z M178.97,199.74c-0.67,0.22,0.62,0.2,0.43,0.65c1.6-0.75,4.61,1.02,5.18-0.65
	C182.44,200.43,181.11,198.94,178.97,199.74z M152.42,201.9c0.94,0.56,3.16,0.25,4.53,0c0.11-0.98-0.17-1.56-0.86-1.73
	c-0.47,0.18,0.08,1.38-0.43,1.51c-1.19,0.04-1.11-1.2-1.51-1.94c-0.29,0-0.58,0-0.86,0C152.97,200.71,153.42,201.42,152.42,201.9z
	 M131.04,201.9c-0.64-0.08-1.09-0.34-1.51-0.65c-0.12,0.58,0.64,1.35,0,1.73c-0.54-0.18-0.85-0.59-1.51-0.65
	c-0.28,0.73,0.05,2.06-0.86,2.16c-0.46-0.26-0.27-1.17-1.3-0.86c-0.33,1.08,1,1.96,0,2.38c-0.63-0.16-0.93-0.65-1.3-1.08
	c-0.67,0.48,0.06,2.36-1.08,2.37c-0.68-0.04-0.03-1.41-0.86-1.29c-0.06,0.66,0.03,1.47-0.65,1.51c-0.48-0.17,0.04-1.34-0.86-1.08
	c-0.43,0.65-0.33,1.83-1.08,2.16c-0.72,0-0.04-1.41-0.86-1.3c-1.14,0.12-0.09,1.61-0.86,1.73c-0.87,0.08-0.33-1.25-1.3-1.08
	c-0.76,0.1-0.1,1.62-1.08,1.51c-0.38-0.46-0.49-0.64-0.22-1.3c-1.12-0.04-1.15,1.01-2.16,1.08c-0.99,0.02-2.19-0.17-2.59,0.43
	c1.68,2.22,7.62,2.57,10.36,2.59c0.29,0,0.2,0.38,0.43,0.43c3.35-0.38,5.4-1.36,8.42-2.38c0.15-0.82-0.88-1.04-0.22-1.73
	c1.37,0.55,3.52,1.88,5.61,2.16c1.15,0.15,3.05,0.36,3.89-0.65c-0.45-0.05-0.06-0.95-0.43-1.08c-0.36,0-0.72,0-1.08,0
	c0.06,0.63,0.3,0.8,0,1.08c-3.73-0.67-7.91-2.01-8.42-5.18c2.15,0.53,5.04,4.53,7.12,1.73c-2.27-0.97-4.22-2.25-4.75-4.96
	c0.15-0.43,1.29,0.13,1.08-0.65c-0.77-0.31-1.65-0.51-2.16-1.08C130.7,200.81,131.67,201.21,131.04,201.9z M118.52,201.46
	c1.26-0.4,2.07,0.07,2.81-0.86c-0.31-0.05-0.36-0.36-0.65-0.43C120.58,201.22,118.62,200.41,118.52,201.46z M171.85,201.9
	c-0.41-0.24-1.02-0.28-1.51-0.43c-0.09,1.17,1.81,0.35,2.38,0.86c0.38-0.41,0.16-1.43,0.21-2.16c-0.29,0-0.58,0-0.86,0
	C171.73,200.48,171.87,201.27,171.85,201.9z M90.46,201.25c-0.07,0.5,0.03,0.83,0.22,1.08c0.71-0.01,0.82-0.61,0.86-1.29
	C91.04,200.96,90.71,201.07,90.46,201.25z M106.86,201.9c0.22,0,0.43,0,0.65,0c0-0.21,0-0.43,0-0.65c-0.14,0-0.29,0-0.43,0
	C107.07,201.52,106.8,201.55,106.86,201.9z M117.88,201.46c-0.29-0.07-0.41-0.31-0.86-0.22
	C116.92,202.06,117.66,201.91,117.88,201.46z M190.85,202.33c0.21,0,0.43,0,0.65,0c0.04-0.47-0.18-0.69-0.65-0.65
	C190.85,201.9,190.85,202.11,190.85,202.33z M192.36,202.54c0.57,0.07,0.71-0.3,0.65-0.86C192.42,201.7,191.97,202.17,192.36,202.54
	z M99.74,202.76C98.71,202.16,99.22,203.47,99.74,202.76L99.74,202.76z M120.47,203.19c0.1-0.67-0.46-0.69-1.08-0.65
	C119.14,203.42,120.05,203.61,120.47,203.19z M158.89,203.62c0.07-0.5-0.04-0.83-0.22-1.08c-0.32,0.04-0.8-0.08-0.86,0.22
	C158.44,202.79,158.19,203.68,158.89,203.62z M100.6,203.84c0.36,0,0.72,0,1.08,0C102.02,202.5,100.26,202.5,100.6,203.84z
	 M146.16,202.98c0,0.29,0,0.58,0,0.86c0.53,0.46,1.6,0.16,1.51-0.65C147.25,202.75,146.8,202.69,146.16,202.98z M144,204.49
	c0.03-0.4,0.73-0.13,0.86-0.43c0.09-0.74-0.07-1.23-0.86-1.08C144.28,203.65,143.36,204.17,144,204.49z M136.87,204.92
	c-0.21-0.94-1.42-0.88-2.16-1.3C134.9,204.52,136.09,205.31,136.87,204.92z M184.15,205.13c0-0.86-0.11-1.61-1.08-1.51
	C182.99,204.57,183.02,205.41,184.15,205.13z M170.98,204.92c0.34-0.32,0.32-1.23-0.43-1.08
	C170.21,204.16,170.24,205.07,170.98,204.92z M70.38,205.13c0.38-0.2,1.16,0.01,1.08-0.65c-0.14-0.29-0.46-0.4-0.86-0.43
	C70.77,204.67,70.29,204.62,70.38,205.13z M78.37,204.7c1.52,0.2,3.02,0.44,4.75,0.43C82.13,204.05,79.65,203.84,78.37,204.7z
	 M110.1,205.13c-0.06-0.57,0.84-0.17,0.65-0.86c-0.25-0.18-0.58-0.29-1.08-0.22C109.64,204.59,109.63,205.1,110.1,205.13z
	 M112.91,205.35c0.39,0.4,1.21,0.11,1.51-0.22C114.05,204.76,113.09,204.9,112.91,205.35z M89.59,206.86
	c-1.49-0.89-4.08-1.82-6.05-1.51C85.55,205.72,87.47,207.33,89.59,206.86z M111.83,205.13
	C110.45,204.89,111.36,205.79,111.83,205.13L111.83,205.13z M70.81,206.43c0.85,0.49,1.17,0.16,1.94,0.65
	c0.38-0.76-0.14-0.53-0.22-1.3C71.52,205.99,71.26,205.98,70.81,206.43z M166.88,207.51c0.05-0.17,0.01-0.43,0.22-0.43
	c-0.03-0.55-0.31-0.84-0.86-0.86C165.77,206.71,166.16,207.56,166.88,207.51z M104.92,206.86c0.33,0.48,1.52,0.73,1.29-0.43
	C105.65,206.43,104.95,206.31,104.92,206.86z M85.92,207.94c-0.07,0.5,0.03,0.83,0.22,1.08c1.11-0.4,2.94-0.08,3.67-0.86
	C88.71,207.97,86.92,207.53,85.92,207.94z M93.26,208.59c0.96,0.3,2.53,0.69,3.02,0c-1.89,0.17-2.85-0.6-4.32-0.86
	C91.99,208.12,92.8,208.44,93.26,208.59z M97.37,208.8c0.64,0.12,2.91,0.24,3.02-0.86C99.18,208.03,98.4,208.55,97.37,208.8z
	 M137.95,208.37c0.14,0,0.29,0,0.43,0c0-0.14,0-0.29,0-0.43c-0.14,0-0.29,0-0.43,0C137.95,208.08,137.95,208.23,137.95,208.37z
	 M159.97,210.75c0.86,0.12,0.65,0.12,1.51,0c-0.04-0.68,0.14-1.58-0.22-1.94C159.98,208.59,159.93,209.63,159.97,210.75z
	 M151.98,210.75c0.07-0.57-0.3-0.71-0.86-0.65C150.9,210.82,151.42,210.81,151.98,210.75z M19.86,211.18
	c0.35,0.73,0.43,1.73,1.29,1.94c0.61-0.52-0.3-1.31,0.22-1.73C20.83,211.08,20.53,210.87,19.86,211.18z M116.8,213.99
	c-2.11-1.2-4.96-1.66-6.91-3.02C110.9,213.11,114.07,214.26,116.8,213.99z M27.2,212.47c0.05,0.31,0.35,0.36,0.43,0.65
	c0.7-0.02,1.33-0.11,1.73-0.43c-0.77-0.28-0.57-0.71-0.43-1.51C28.05,211.31,27.39,211.65,27.2,212.47z M17.27,213.34
	c0.4,1,1.74,0.42,2.38,0c-0.61,0.04,0.18-1.33-0.43-1.3C18.43,212.34,18.75,213.74,17.27,213.34z M41.02,213.12
	c0.07-0.57-0.3-0.71-0.86-0.65C40.09,213.04,40.45,213.18,41.02,213.12z M15.33,214.42c0.64-0.56,1.43,0.38,1.94-0.22
	c-0.62-0.31-1.15-0.72-1.29-1.51c-0.22,0-0.43,0-0.65,0C14.77,213.37,15.1,213.6,15.33,214.42z M26.12,214.2
	c0.67,0.1,0.69-0.46,0.65-1.08c-0.66,0.16-0.41-0.59-1.08-0.43C25.95,213.48,25.99,213.66,26.12,214.2z M22.45,213.77
	c0.37,0.01,0.55-0.17,0.65-0.43C22.76,213.36,22.35,213.31,22.45,213.77z M126.94,213.99c0.14,0,0.29,0,0.43,0
	c0-0.22,0.17-0.26,0.22-0.43c-0.28-0.01-0.3-0.28-0.65-0.22C126.94,213.55,126.94,213.77,126.94,213.99z M139.03,213.55
	c-0.77,0.03-2.11-0.39-2.59,0.43c2.47-0.04,6.05,1.31,7.12-0.65C141.86,213.17,139.88,213.52,139.03,213.55z M117.01,214.42
	c0.41,0.38,1.43,0.16,2.16,0.22C118.91,213.72,117.61,214.05,117.01,214.42z M11.87,217.01c-1.67-0.62-3.48-0.16-4.97-0.65
	c-1.37-0.45-1.89-1.97-3.24-2.16C3.95,216.49,9.03,218.66,11.87,217.01z M123.06,214.63c-1.17-0.12-2.02-0.57-3.46-0.43
	C120.35,215.09,121.84,215.08,123.06,214.63z M17.7,214.85c0.14,0,0.29,0,0.43,0c0.34-0.53-0.73-0.63-0.65-0.22
	C17.62,214.65,17.74,214.67,17.7,214.85z M19.86,215.71c0.29,0.31,1.22,0.31,1.51,0c-0.16-0.71-0.45-1.27-1.3-1.29
	C20.23,215.08,19.7,215.05,19.86,215.71z M125.22,215.07C126.51,215.73,126.27,214.27,125.22,215.07L125.22,215.07z"/>
<path fill-rule="evenodd" d="M50.52,57.25c0.2,1.06-0.9,0.82-0.86,1.73c1.42-0.09,1.32-1.7,3.24-1.3c-0.11,0.9-1.54,0.48-1.51,1.51
	c0.8,1.15,2.29-1.1,3.02-0.65c0.1,0.9-1.24,0.34-1.3,1.08c0.64,1.04,1.83-0.94,2.81,0.22c-0.64,0.73-2.12,0.61-2.16,1.94
	c1.67,1.66,2.86-2.16,5.4-0.86c-0.31,0.7-1.44,0.58-1.29,1.73c1.18-0.4,1.39-1.77,2.81-1.94c0.26,1.34-1.03,1.12-1.08,2.16
	c0.1,0.19,0.19,0.39,0.43,0.43c0.8-0.64,1.6-1.28,1.94-2.37c1.04-0.11,1.8-0.51,1.73-1.73c1.86,1.01-1.1,2-1.73,2.59
	c0.01,1.74-1.63,1.82-1.51,3.67c0.03,0.4,0.73,0.13,0.86,0.43c-0.31,0.64-0.78,1.24-1.51,0.86c0.41,0.8-0.14,0.54-0.65,0.86
	c0.31,0.64,0.84-0.29,1.51,0c-0.24,1.06-1.05,1.54-2.37,1.51c-0.43-0.22-0.49-0.8-0.86-1.08c-0.22,0-0.43,0-0.65,0
	c-0.07,0.82-1.24,1.35-1.94,0.86c-0.26,0.98,0.59,0.85,0.43,1.73c-0.79,0.14-1.15-0.15-1.51-0.43c0.27,0.66,0.17,0.84-0.22,1.29
	c-0.7-0.58-1.08-2.44-0.65-3.45c0.93-0.06,1.43,0.3,1.94,0.65c-0.09-0.77-0.54-1.18-1.08-1.51c-3.68,0.35-1.36,6.21,1.3,6.05
	c-0.03,0.39,0.26,0.46,0.22,0.86c-3.36,0.3-3.22-4.27-4.75-6.04c0-0.36,0-0.72,0-1.08c-0.51-0.21-0.28-1.16-1.29-0.86
	c0.68-0.7-0.29-0.98-0.22-1.73c-1.14-0.23-0.93-1.8-1.73-2.37C47.38,59.44,48.33,57.72,50.52,57.25z"/>
<path fill-rule="evenodd" d="M169.04,196.07c-0.23,2.19-2.95,1.16-4.97,1.51c-1.08,0.19-3.04,0.84-4.53,0.43
	c0.15-1.12,1.08-0.61,1.73-0.86c0.65-0.15,0.33-1.26,0.86-1.51C165,194.19,166.56,197.16,169.04,196.07z"/>
<path fill-rule="evenodd" d="M196.89,205.57c-0.89-0.3-1.67,0.62-2.16,0c-0.67,0.48-0.97,1.33-1.51,1.94
	c-2.96-0.08-5.72,0.03-7.77,0.86c0.29,0.74-0.26,1.68-0.65,2.38c-1.49-0.71-3.22,0.1-4.75-0.65c-0.8-0.23-0.42,0.73-0.86,0.86
	c-1.59-0.17-3.55,0.27-4.53,0c0.5-1.01,2.55-0.47,3.45-1.08c-0.44-0.64-1.85-1.11-2.59-1.29c-1.26-0.31-3.26,1.53-4.75-0.22
	c0.62-1.27,1.73-1.39,3.24-1.51c1.06-0.08,4.14-1.21,5.61-0.22c-0.5,0.87-2.45,0.28-2.81,1.29c0.27,1.18,1.82-0.03,3.02-0.22
	c0.85-0.13,1.94,0.24,2.38-0.43c1.59,0.35,4.56,1.04,5.18-0.65c-0.06-0.45-0.8-0.2-0.86-0.65c0.91-2.79,3.85-0.12,5.61-1.51
	c0.81-0.1,1.01,0.42,1.51,0.65C194.48,204.76,196.48,204.83,196.89,205.57z M188.47,206.86c0.96,0.09,1.61-0.12,1.51-1.08
	C189.42,204.24,187.07,205.75,188.47,206.86z M191.92,206.86c0.25,0.18,0.58,0.28,1.08,0.22c0.18-0.52,0.14-0.57,0.21-1.51
	c-0.43,0-0.27-0.59-0.86-0.43C192.48,205.98,192.17,206.39,191.92,206.86z M172.28,207.73c-0.19,0.99,1.7,0.86,1.29-0.22
	C173.04,207.48,172.53,207.48,172.28,207.73z M183.29,209.45c1.02,0.23,1.21-0.37,1.51-0.86c-0.69-0.17-1.09-0.64-1.94-0.65
	C182.89,208.55,183.25,208.84,183.29,209.45z M180.27,209.45c0.24,0.08,2.06,0.3,1.94-0.65c-0.36-0.36-1.27-0.17-1.94-0.21
	C180.27,208.88,180.27,209.17,180.27,209.45z"/>
<path fill-rule="evenodd" d="M181.99,215.28c-0.75,0.86-2.48,0.09-3.89,0.22c-1.78,0.16-3.33,1.19-5.18,0.22
	c0.46-1.15,2.17,0.06,3.24-0.65c-0.05-1.09-1.05-0.9-1.51-1.08c-0.21-1.36,1.23-0.72,1.94-0.65
	C178.28,212.53,180.18,214.83,181.99,215.28z M178.32,214.2c-0.43,0-0.27-0.59-0.86-0.43C177.23,214.32,178.19,214.73,178.32,214.2z
	"/>
</svg>
